<?xml version="1.0" encoding="UTF-8"?>
<svg id="Layer_1" xmlns="http://www.w3.org/2000/svg" version="1.1" viewBox="0 0 18 18">
  <!-- Generator: Adobe Illustrator 30.1.0, SVG Export Plug-In . SVG Version: 2.1.1 Build 136)  -->
  <defs>
    <style>
      .st0 {
        fill: #fff;
      }
    </style>
  </defs>
  <polygon class="st0" points="5.65 5.14 11.85 13.24 12.8 13.24 6.67 5.14 5.65 5.14"/>
  <path class="st0" d="M14,0H4C1.79,0,0,1.79,0,4v10c0,2.21,1.79,4,4,4h10c2.21,0,4-1.79,4-4V4c0-2.21-1.79-4-4-4ZM11.37,14.26l-2.7-3.53-3.09,3.53h-1.71l4-4.58L3.65,4.17h3.53l2.44,3.23,2.82-3.23h1.71l-3.74,4.28,4.4,5.82h-3.45Z"/>
</svg>