<?xml version="1.0" encoding="UTF-8"?>
<svg id="Layer_2" data-name="Layer 2" xmlns="http://www.w3.org/2000/svg" viewBox="0 0 153.34 25.13">
  <defs>
    <style>
      .cls-1 {
        fill: #81489c;
      }

      .cls-2 {
        fill: #4778bc;
      }

      .cls-3 {
        fill: #231f20;
      }

      .cls-4 {
        fill: #f68c2f;
      }

      .cls-5 {
        fill: #069f4a;
      }
    </style>
  </defs>
  <g id="Layer_1-2" data-name="Layer 1">
    <g>
      <g>
        <g>
          <rect class="cls-2" x="0" y=".08" width="10.28" height="10.28" rx="2.19" ry="2.19"/>
          <path class="cls-4" d="M13.71.08h0c4.54,0,8.22,3.68,8.22,8.22h0c0,1.14-.92,2.06-2.06,2.06h-5.08c-1.74,0-3.14-1.41-3.14-3.14V2.14c0-1.14.92-2.06,2.06-2.06Z"/>
          <path class="cls-5" d="M1.61,11.73h7.2c.81,0,1.47.66,1.47,1.47v6.84c0,1.09-.88,1.97-1.97,1.97H3.92C1.76,22.01,0,20.25,0,18.09v-4.75c0-.89.72-1.61,1.61-1.61Z"/>
          <path class="cls-1" d="M15.75,11.73h6.18s0,6.18,0,6.18c0,2.27-1.84,4.11-4.11,4.11h-6.18s0-6.18,0-6.18c0-2.27,1.84-4.11,4.11-4.11Z"/>
        </g>
        <g>
          <path class="cls-3" d="M32.69,21.38c-.19,0-.36-.07-.49-.2-.14-.13-.2-.3-.2-.49v-11.27h-2.34c-.19,0-.36-.07-.49-.2-.13-.13-.2-.3-.2-.49v-1.68c0-.19.07-.36.2-.49.13-.13.3-.2.49-.2h2.34v-1.18c0-1.16.21-2.11.64-2.88.42-.76,1.05-1.33,1.88-1.72.83-.39,1.88-.58,3.15-.58h1.97c.21,0,.38.07.51.2.13.14.19.3.19.49v1.68c0,.19-.06.36-.19.49-.13.14-.29.2-.51.2h-1.85c-.77,0-1.3.19-1.59.58-.29.39-.43.94-.43,1.68v1.04h3.58c.21,0,.38.07.51.2.13.14.19.3.19.49v1.68c0,.19-.06.36-.19.49-.13.14-.29.2-.51.2h-3.58v11.27c0,.19-.07.36-.2.49-.14.14-.3.2-.49.2h-2.37Z"/>
          <path class="cls-3" d="M43.07,21.38c-.19,0-.36-.07-.49-.2-.14-.13-.2-.3-.2-.49V1.56c0-.19.07-.36.2-.49.13-.13.3-.2.49-.2h2.4c.19,0,.36.07.49.2.13.13.2.3.2.49v19.13c0,.19-.07.36-.2.49-.13.14-.3.2-.49.2h-2.4Z"/>
          <path class="cls-3" d="M56.48,21.67c-2.14,0-3.83-.62-5.09-1.85-1.25-1.23-1.93-2.99-2.02-5.26-.02-.19-.03-.44-.03-.74s0-.53.03-.71c.08-1.44.41-2.7,1-3.76.59-1.06,1.4-1.87,2.44-2.44,1.04-.57,2.26-.85,3.67-.85,1.56,0,2.87.32,3.93.97,1.06.65,1.86,1.54,2.4,2.69.54,1.15.81,2.47.81,3.97v.61c0,.19-.07.36-.2.49-.14.13-.31.2-.52.2h-9.59v.23c.02.67.15,1.3.39,1.86.24.57.6,1.03,1.07,1.37.47.35,1.04.52,1.69.52.54,0,.99-.08,1.36-.25.37-.16.66-.35.9-.56.23-.21.39-.39.49-.52.17-.23.31-.37.42-.42.11-.05.26-.07.48-.07h2.49c.19,0,.35.06.48.17.13.12.18.26.16.43-.02.31-.18.68-.48,1.13-.3.44-.73.88-1.29,1.3-.56.42-1.26.78-2.1,1.05-.84.28-1.8.42-2.88.42ZM53.3,12.57h6.39v-.09c0-.75-.13-1.41-.38-1.97-.25-.56-.62-1-1.1-1.33-.48-.33-1.06-.49-1.73-.49s-1.25.16-1.73.49c-.48.33-.84.77-1.08,1.33-.24.56-.36,1.21-.36,1.97v.09Z"/>
          <path class="cls-3" d="M65.64,21.38c-.17,0-.32-.06-.45-.19-.13-.13-.19-.27-.19-.45,0-.06.01-.13.04-.2.03-.08.08-.17.16-.29l4.91-6.59-4.57-6.18c-.06-.1-.1-.18-.13-.26-.03-.08-.04-.15-.04-.23,0-.17.06-.32.19-.45.13-.13.27-.19.45-.19h2.51c.23,0,.4.06.52.17.12.12.2.22.26.32l3.27,4.33,3.27-4.33c.08-.1.17-.2.27-.32.11-.12.27-.17.51-.17h2.4c.17,0,.32.06.45.19.13.13.19.27.19.42,0,.1-.01.18-.04.26-.03.08-.07.16-.13.26l-4.62,6.24,4.94,6.53c.08.12.13.21.16.29.03.08.04.14.04.2,0,.17-.06.32-.19.45-.13.13-.27.19-.45.19h-2.63c-.21,0-.38-.05-.49-.16-.12-.11-.21-.21-.29-.3l-3.47-4.59-3.53,4.59c-.08.1-.17.2-.27.3-.11.11-.27.16-.51.16h-2.54Z"/>
        </g>
      </g>
      <path class="cls-3" d="M84.02,15.81c-.11,0-.19-.03-.26-.1s-.1-.16-.1-.26v-.61c0-.11.04-.19.1-.26.07-.07.16-.1.26-.1h4.8c.11,0,.19.04.26.1.07.07.1.16.1.26v.61c0,.11-.03.19-.1.26s-.16.1-.26.1h-4.8Z"/>
      <g>
        <path class="cls-3" d="M97.44,21.77c-1.1,0-1.97-.34-2.62-1.02s-1.01-1.6-1.07-2.78c-.01-.14-.02-.32-.02-.54s0-.4.02-.54c.04-.76.22-1.42.53-1.99.31-.57.73-1.01,1.27-1.32.54-.31,1.17-.46,1.9-.46.81,0,1.49.17,2.04.51.55.34.97.83,1.26,1.46.29.63.43,1.37.43,2.21v.27c0,.12-.03.21-.1.27-.07.06-.16.1-.26.1h-5.54v.14c.02.44.12.85.29,1.22.17.38.42.69.74.92.32.23.7.35,1.15.35.38,0,.7-.06.96-.18.26-.12.46-.25.62-.39.16-.14.27-.25.32-.33.1-.14.17-.22.22-.25.05-.03.14-.04.26-.04h.77c.11,0,.19.03.26.09.07.06.1.14.09.25-.01.16-.1.35-.26.58-.16.23-.39.46-.69.68s-.66.41-1.09.55-.92.22-1.47.22ZM95.26,16.84h4.38v-.05c0-.48-.09-.91-.26-1.28-.18-.37-.43-.67-.76-.89-.33-.22-.73-.33-1.18-.33s-.85.11-1.18.33c-.33.22-.57.51-.74.89-.17.37-.26.8-.26,1.28v.05Z"/>
        <path class="cls-3" d="M106.5,25.13c-.73,0-1.32-.1-1.78-.29-.46-.19-.83-.42-1.09-.7-.26-.27-.45-.54-.56-.82s-.17-.49-.18-.65c-.01-.11.02-.2.1-.27s.17-.11.26-.11h.77c.1,0,.18.02.24.06.06.04.12.13.16.27.06.16.16.34.29.54.13.2.33.37.59.51.27.14.64.22,1.12.22s.92-.07,1.26-.2c.34-.13.6-.37.78-.7.18-.34.26-.8.26-1.38v-1.09c-.26.33-.59.61-1.01.82-.42.22-.94.33-1.57.33s-1.11-.1-1.54-.31-.78-.49-1.05-.85c-.27-.36-.47-.77-.61-1.22s-.21-.94-.23-1.44c-.01-.3-.01-.59,0-.88.02-.5.1-.98.23-1.44.13-.46.34-.87.61-1.23.27-.36.62-.65,1.05-.86s.94-.31,1.54-.31c.64,0,1.17.12,1.59.36.42.24.77.53,1.03.87v-.69c0-.11.03-.2.1-.27s.16-.11.26-.11h.74c.11,0,.2.04.27.11.07.07.11.17.11.27v7.76c0,.71-.12,1.35-.36,1.9s-.63.99-1.18,1.31c-.55.32-1.29.48-2.22.48ZM106.46,20.39c.53,0,.96-.12,1.29-.37.33-.25.57-.55.72-.93.15-.37.24-.75.25-1.14,0-.15.02-.33.02-.55s0-.4-.02-.55c-.01-.38-.09-.76-.25-1.14-.16-.37-.4-.68-.72-.93-.33-.25-.75-.37-1.29-.37s-.96.12-1.28.36c-.32.24-.55.56-.69.94s-.22.81-.24,1.26c-.01.28-.01.56,0,.85.02.45.1.87.24,1.26.14.39.37.7.69.94.32.24.75.36,1.28.36ZM106.5,12.17c-.49,0-.88-.09-1.17-.28-.29-.19-.49-.43-.61-.74-.12-.3-.18-.62-.18-.95,0-.08.03-.16.08-.22s.13-.09.22-.09h.48c.1,0,.17.03.22.09.05.06.08.13.08.22,0,.25.06.48.18.69.12.21.35.32.69.32s.58-.11.7-.32c.11-.21.17-.44.17-.69,0-.08.03-.16.08-.22.05-.06.13-.09.22-.09h.48c.1,0,.17.03.22.09s.08.13.08.22c0,.33-.06.65-.18.95-.12.3-.33.55-.61.74-.28.19-.67.28-1.16.28Z"/>
        <path class="cls-3" d="M112.88,11.73c-.11,0-.19-.03-.26-.1s-.1-.16-.1-.26v-.86c0-.11.04-.19.1-.26.07-.07.16-.1.26-.1h1.01c.11,0,.2.04.26.1.07.07.1.16.1.26v.86c0,.11-.03.19-.1.26s-.16.1-.26.1h-1.01ZM113.01,21.61c-.11,0-.19-.03-.26-.1s-.1-.16-.1-.26v-7.58c0-.11.04-.19.1-.26s.16-.1.26-.1h.77c.11,0,.19.03.26.1.06.07.1.16.1.26v7.58c0,.11-.03.19-.1.26-.06.07-.15.1-.26.1h-.77Z"/>
        <path class="cls-3" d="M119.76,21.61c-.6,0-1.08-.11-1.46-.34-.37-.23-.65-.55-.82-.98-.17-.42-.26-.92-.26-1.5v-4.22h-1.25c-.11,0-.2-.03-.26-.1s-.1-.16-.1-.26v-.54c0-.11.03-.19.1-.26s.16-.1.26-.1h1.25v-2.67c0-.11.03-.19.1-.26s.16-.1.26-.1h.75c.11,0,.19.03.26.1s.1.16.1.26v2.67h1.98c.11,0,.19.03.26.1s.1.16.1.26v.54c0,.11-.04.19-.1.26s-.16.1-.26.1h-1.98v4.11c0,.5.09.9.26,1.18.17.29.47.43.91.43h.98c.11,0,.19.03.26.1s.1.16.1.26v.58c0,.11-.04.19-.1.26s-.16.1-.26.1h-1.1Z"/>
        <path class="cls-3" d="M123.14,21.61c-.11,0-.19-.03-.26-.1s-.1-.16-.1-.26v-7.58c0-.11.04-.19.1-.26s.16-.1.26-.1h.72c.11,0,.19.03.26.1s.1.16.1.26v.56c.25-.33.55-.59.93-.79.37-.2.82-.3,1.34-.3,1.21-.01,2.06.48,2.56,1.47.25-.45.6-.81,1.07-1.07s1-.4,1.6-.4c.55,0,1.06.13,1.51.38.45.26.81.64,1.07,1.16.26.52.39,1.17.39,1.94v4.62c0,.11-.04.19-.1.26s-.16.1-.26.1h-.75c-.11,0-.19-.03-.26-.1-.07-.07-.1-.16-.1-.26v-4.48c0-.6-.08-1.07-.26-1.41s-.4-.58-.69-.72c-.29-.14-.6-.21-.94-.21-.28,0-.56.07-.85.21-.29.14-.53.38-.71.72s-.28.81-.28,1.41v4.48c0,.11-.04.19-.1.26s-.16.1-.26.1h-.75c-.11,0-.2-.03-.26-.1s-.1-.16-.1-.26v-4.48c0-.6-.09-1.07-.27-1.41-.18-.34-.42-.58-.7-.72-.29-.14-.59-.21-.91-.21-.28,0-.56.07-.85.21-.29.14-.53.38-.71.72s-.28.81-.28,1.39v4.5c0,.11-.04.19-.1.26s-.16.1-.26.1h-.77Z"/>
        <path class="cls-3" d="M140.3,21.77c-1.1,0-1.97-.34-2.62-1.02s-1.01-1.6-1.07-2.78c-.01-.14-.02-.32-.02-.54s0-.4.02-.54c.04-.76.22-1.42.53-1.99.31-.57.73-1.01,1.27-1.32.54-.31,1.17-.46,1.9-.46.81,0,1.49.17,2.04.51.55.34.97.83,1.26,1.46.29.63.43,1.37.43,2.21v.27c0,.12-.03.21-.1.27-.07.06-.16.1-.26.1h-5.54v.14c.02.44.12.85.29,1.22.17.38.42.69.74.92.32.23.7.35,1.15.35.38,0,.7-.06.96-.18.26-.12.46-.25.62-.39.16-.14.27-.25.32-.33.1-.14.17-.22.22-.25.05-.03.14-.04.26-.04h.77c.11,0,.19.03.26.09.07.06.1.14.09.25-.01.16-.1.35-.26.58-.16.23-.39.46-.69.68s-.66.41-1.09.55-.92.22-1.47.22ZM138.13,16.84h4.38v-.05c0-.48-.09-.91-.26-1.28-.18-.37-.43-.67-.76-.89-.33-.22-.73-.33-1.18-.33s-.85.11-1.18.33c-.33.22-.57.51-.74.89-.17.37-.26.8-.26,1.28v.05Z"/>
        <path class="cls-3" d="M146.32,21.61c-.11,0-.19-.03-.26-.1s-.1-.16-.1-.26v-7.58c0-.11.04-.19.1-.26s.16-.1.26-.1h.75c.11,0,.19.03.26.1.07.07.1.16.1.26v.7c.28-.36.63-.66,1.05-.89.42-.23.96-.34,1.62-.34s1.28.15,1.77.46c.49.3.85.73,1.1,1.26s.37,1.17.37,1.88v4.51c0,.11-.03.19-.1.26-.06.07-.15.1-.26.1h-.8c-.11,0-.19-.03-.26-.1s-.1-.16-.1-.26v-4.43c0-.75-.18-1.33-.54-1.75s-.9-.63-1.6-.63c-.66,0-1.19.21-1.59.63-.4.42-.6,1.01-.6,1.75v4.43c0,.11-.03.19-.1.26s-.16.1-.26.1h-.8Z"/>
      </g>
    </g>
  </g>
</svg>