<?xml version="1.0" encoding="UTF-8"?>
<svg id="Layer_2" data-name="Layer 2" xmlns="http://www.w3.org/2000/svg" viewBox="0 0 170.5 46.91">
  <defs>
    <style>
      .cls-1 {
        fill: #81489c;
      }

      .cls-2 {
        fill: #4778bc;
      }

      .cls-3 {
        fill: #231f20;
      }

      .cls-4 {
        fill: #f68c2f;
      }

      .cls-5 {
        fill: #069f4a;
      }
    </style>
  </defs>
  <g id="Layer_1-2" data-name="Layer 1">
    <g>
      <g>
        <rect class="cls-2" x="0" y=".17" width="21.92" height="21.92" rx="4.67" ry="4.67"/>
        <path class="cls-4" d="M29.21.17h0c9.68,0,17.52,7.84,17.52,17.52h0c0,2.43-1.97,4.4-4.4,4.4h-10.82c-3.7,0-6.7-3-6.7-6.7V4.57c0-2.43,1.97-4.4,4.4-4.4Z"/>
        <path class="cls-5" d="M3.43,24.99h15.34c1.73,0,3.14,1.41,3.14,3.14v14.59c0,2.31-1.88,4.19-4.19,4.19h-9.37C3.74,46.91,0,43.17,0,38.55v-10.13c0-1.9,1.54-3.43,3.43-3.43Z"/>
        <path class="cls-1" d="M33.57,24.99h13.16s0,13.16,0,13.16c0,4.83-3.92,8.75-8.75,8.75h-13.16s0-13.16,0-13.16c0-4.83,3.92-8.75,8.75-8.75Z"/>
      </g>
      <g>
        <path class="cls-3" d="M69.68,45.58c-.41,0-.76-.14-1.05-.43-.29-.29-.43-.64-.43-1.05v-24.02h-4.99c-.41,0-.76-.14-1.05-.43-.29-.29-.43-.64-.43-1.05v-3.57c0-.41.14-.76.43-1.05.29-.29.64-.43,1.05-.43h4.99v-2.53c0-2.46.45-4.51,1.35-6.13.9-1.62,2.24-2.84,4-3.66,1.76-.82,4-1.23,6.71-1.23h4.19c.45,0,.81.14,1.08.43.27.29.4.64.4,1.05v3.57c0,.41-.13.76-.4,1.05-.27.29-.63.43-1.08.43h-3.94c-1.64,0-2.77.41-3.39,1.23-.62.82-.92,2.01-.92,3.57v2.22h7.64c.45,0,.81.14,1.08.43.27.29.4.64.4,1.05v3.57c0,.41-.13.76-.4,1.05-.27.29-.63.43-1.08.43h-7.64v24.02c0,.41-.14.76-.43,1.05-.29.29-.64.43-1.05.43h-5.05Z"/>
        <path class="cls-3" d="M91.79,45.58c-.41,0-.76-.14-1.05-.43-.29-.29-.43-.64-.43-1.05V3.33c0-.41.14-.76.43-1.05.29-.29.64-.43,1.05-.43h5.11c.41,0,.76.14,1.05.43.29.29.43.64.43,1.05v40.77c0,.41-.14.76-.43,1.05-.29.29-.64.43-1.05.43h-5.11Z"/>
        <path class="cls-3" d="M120.37,46.19c-4.56,0-8.17-1.31-10.84-3.94-2.67-2.63-4.11-6.36-4.31-11.21-.04-.41-.06-.93-.06-1.57s.02-1.14.06-1.51c.16-3.08.87-5.75,2.12-8.01,1.25-2.26,2.99-3.99,5.2-5.2,2.22-1.21,4.82-1.82,7.82-1.82,3.33,0,6.12.69,8.38,2.06,2.26,1.38,3.96,3.29,5.11,5.73,1.15,2.44,1.72,5.27,1.72,8.47v1.29c0,.41-.14.76-.43,1.05-.29.29-.66.43-1.11.43h-20.45v.49c.04,1.44.32,2.76.83,3.97.51,1.21,1.27,2.19,2.28,2.93,1.01.74,2.21,1.11,3.6,1.11,1.15,0,2.11-.17,2.89-.52.78-.35,1.42-.75,1.91-1.2.49-.45.84-.82,1.05-1.11.37-.49.67-.79.89-.89.23-.1.56-.15,1.02-.15h5.3c.41,0,.75.12,1.02.37.27.25.38.55.34.92-.04.66-.38,1.46-1.02,2.4-.64.95-1.55,1.87-2.74,2.77-1.19.9-2.68,1.65-4.47,2.25-1.79.59-3.83.89-6.13.89ZM113.59,26.79h13.61v-.18c0-1.6-.27-3-.8-4.19-.53-1.19-1.31-2.13-2.34-2.83-1.03-.7-2.26-1.05-3.7-1.05s-2.67.35-3.7,1.05c-1.03.7-1.8,1.64-2.31,2.83-.51,1.19-.77,2.59-.77,4.19v.18Z"/>
        <path class="cls-3" d="M139.89,45.58c-.37,0-.69-.13-.95-.4-.27-.27-.4-.58-.4-.95,0-.12.03-.27.09-.43.06-.16.17-.37.34-.62l10.47-14.04-9.73-13.18c-.12-.21-.22-.39-.28-.55-.06-.16-.09-.33-.09-.49,0-.37.13-.69.4-.95.27-.27.59-.4.95-.4h5.36c.49,0,.86.12,1.11.37.25.25.43.47.55.68l6.96,9.24,6.96-9.24c.16-.21.36-.43.58-.68.23-.25.59-.37,1.08-.37h5.11c.37,0,.69.13.95.4.27.27.4.56.4.89,0,.21-.03.39-.09.55-.06.16-.15.35-.28.55l-9.85,13.3,10.53,13.92c.16.25.28.45.34.62.06.16.09.31.09.43,0,.37-.13.69-.4.95-.27.27-.58.4-.95.4h-5.6c-.45,0-.8-.11-1.05-.34-.25-.23-.45-.44-.62-.65l-7.39-9.79-7.51,9.79c-.16.21-.36.42-.59.65-.23.23-.58.34-1.08.34h-5.42Z"/>
      </g>
    </g>
  </g>
</svg>