<?xml version="1.0" encoding="UTF-8"?>
<svg id="Layer_1" data-name="Layer 1" xmlns="http://www.w3.org/2000/svg" viewBox="0 0 256.11 113.88">
  <defs>
    <style>
      .cls-1 {
        fill: #fff;
      }
    </style>
  </defs>
  <g>
    <path class="cls-1" d="M.99,113.46c-.27,0-.51-.1-.7-.29-.19-.19-.29-.43-.29-.7v-26.8c0-.3.1-.55.29-.74.19-.19.42-.29.7-.29h17.87c.3,0,.55.1.74.29.19.19.29.44.29.74v2.88c0,.3-.1.54-.29.72-.19.18-.44.27-.74.27H5.64v7.82h12.39c.3,0,.55.1.74.29.19.19.29.44.29.74v2.88c0,.27-.1.51-.29.7-.19.19-.44.29-.74.29H5.64v10.21c0,.27-.1.51-.29.7-.19.19-.44.29-.74.29H.99Z"/>
    <path class="cls-1" d="M25.27,113.46c-.27,0-.51-.1-.7-.29-.19-.19-.29-.43-.29-.7v-27.25c0-.27.1-.51.29-.7.19-.19.43-.29.7-.29h3.42c.27,0,.51.1.7.29.19.19.29.43.29.7v27.25c0,.27-.1.51-.29.7-.19.19-.43.29-.7.29h-3.42Z"/>
    <path class="cls-1" d="M44.37,113.88c-3.05,0-5.46-.88-7.25-2.63-1.78-1.76-2.74-4.25-2.88-7.49-.03-.27-.04-.62-.04-1.05s.01-.76.04-1.01c.11-2.06.58-3.84,1.42-5.35.84-1.51,2-2.67,3.48-3.48,1.48-.81,3.22-1.21,5.23-1.21,2.22,0,4.09.46,5.6,1.38,1.51.92,2.65,2.2,3.42,3.83.77,1.63,1.15,3.52,1.15,5.66v.86c0,.27-.1.51-.29.7s-.44.29-.74.29h-13.67v.33c.03.96.21,1.85.56,2.65.34.81.85,1.46,1.52,1.96.67.49,1.47.74,2.41.74.77,0,1.41-.12,1.93-.35.52-.23.95-.5,1.28-.8.33-.3.56-.55.7-.74.25-.33.45-.53.6-.6.15-.07.38-.1.68-.1h3.54c.27,0,.5.08.68.25s.25.37.23.62c-.03.44-.25.97-.68,1.61-.43.63-1.04,1.25-1.83,1.85-.8.6-1.79,1.1-2.98,1.5-1.19.4-2.56.6-4.1.6ZM39.85,100.91h9.1v-.12c0-1.07-.18-2-.54-2.8-.36-.8-.88-1.43-1.56-1.89-.69-.47-1.51-.7-2.47-.7s-1.78.23-2.47.7c-.69.47-1.2,1.1-1.54,1.89-.34.8-.51,1.73-.51,2.8v.12Z"/>
    <path class="cls-1" d="M57.42,113.46c-.25,0-.46-.09-.64-.27-.18-.18-.27-.39-.27-.64,0-.08.02-.18.06-.29.04-.11.12-.25.23-.41l7-9.39-6.5-8.81c-.08-.14-.14-.26-.18-.37-.04-.11-.06-.22-.06-.33,0-.25.09-.46.27-.64.18-.18.39-.27.64-.27h3.58c.33,0,.58.08.74.25.17.16.29.32.37.45l4.65,6.17,4.65-6.17c.11-.14.24-.29.39-.45s.39-.25.72-.25h3.42c.25,0,.46.09.64.27.18.18.27.38.27.6,0,.14-.02.26-.06.37-.04.11-.1.23-.19.37l-6.59,8.89,7.04,9.3c.11.16.18.3.23.41.04.11.06.21.06.29,0,.25-.09.46-.27.64-.18.18-.39.27-.64.27h-3.75c-.3,0-.54-.08-.7-.23-.17-.15-.3-.29-.41-.43l-4.94-6.54-5.02,6.54c-.11.14-.24.28-.39.43s-.39.23-.72.23h-3.62Z"/>
    <path class="cls-1" d="M102.58,113.88c-2.55,0-4.71-.45-6.48-1.34-1.77-.89-3.12-2.17-4.05-3.83-.93-1.66-1.46-3.66-1.56-5.99-.03-1.12-.04-2.33-.04-3.62s.01-2.52.04-3.71c.11-2.3.64-4.29,1.58-5.97.95-1.67,2.3-2.96,4.08-3.85,1.77-.89,3.92-1.34,6.44-1.34,1.87,0,3.54.25,5.02.74s2.74,1.17,3.79,2.04c1.04.86,1.85,1.87,2.43,3.03.58,1.15.88,2.4.91,3.75.03.25-.05.45-.23.62s-.39.25-.64.25h-3.91c-.3,0-.55-.08-.74-.23-.19-.15-.33-.4-.41-.76-.44-1.81-1.19-3.05-2.26-3.7-1.07-.66-2.4-.99-3.99-.99-1.84,0-3.31.51-4.4,1.54-1.1,1.03-1.69,2.72-1.77,5.08-.08,2.25-.08,4.56,0,6.92.08,2.36.67,4.05,1.77,5.08s2.57,1.54,4.4,1.54c1.59,0,2.92-.34,3.99-1.01,1.07-.67,1.82-1.9,2.26-3.68.08-.38.22-.64.41-.78.19-.14.44-.21.74-.21h3.91c.25,0,.46.08.64.25.18.17.25.37.23.62-.03,1.34-.33,2.59-.91,3.75-.58,1.15-1.39,2.16-2.43,3.03-1.04.86-2.31,1.54-3.79,2.04-1.48.49-3.16.74-5.02.74Z"/>
    <path class="cls-1" d="M128.59,113.88c-2.2,0-4.04-.38-5.54-1.15-1.5-.77-2.63-1.85-3.42-3.25-.78-1.4-1.23-3.03-1.34-4.9-.03-.49-.04-1.1-.04-1.81s.01-1.32.04-1.81c.11-1.89.57-3.53,1.38-4.92.81-1.39,1.96-2.46,3.46-3.23,1.5-.77,3.31-1.15,5.45-1.15s3.96.38,5.45,1.15c1.5.77,2.65,1.85,3.46,3.23.81,1.39,1.27,3.03,1.38,4.92.03.49.04,1.1.04,1.81s-.01,1.32-.04,1.81c-.11,1.87-.56,3.5-1.34,4.9-.78,1.4-1.92,2.48-3.42,3.25-1.5.77-3.34,1.15-5.54,1.15ZM128.59,109.8c1.45,0,2.58-.46,3.38-1.38.8-.92,1.24-2.27,1.32-4.05.03-.41.04-.95.04-1.6s-.01-1.19-.04-1.61c-.08-1.76-.52-3.1-1.32-4.03-.8-.93-1.92-1.4-3.38-1.4s-2.58.47-3.38,1.4c-.8.93-1.23,2.28-1.32,4.03-.03.41-.04.95-.04,1.61s.01,1.19.04,1.6c.08,1.78.52,3.14,1.32,4.05.8.92,1.92,1.38,3.38,1.38Z"/>
    <path class="cls-1" d="M144.48,113.46c-.28,0-.51-.1-.7-.29-.19-.19-.29-.43-.29-.7v-19.43c0-.27.1-.51.29-.7s.42-.29.7-.29h3.38c.27,0,.51.1.7.29.19.19.29.43.29.7v1.69c.71-.88,1.63-1.61,2.74-2.2,1.11-.59,2.49-.88,4.14-.88s3.13.38,4.36,1.13c1.23.76,2.19,1.82,2.86,3.19.67,1.37,1.01,3.02,1.01,4.94v11.57c0,.27-.1.51-.29.7-.19.19-.43.29-.7.29h-3.62c-.27,0-.51-.1-.7-.29-.19-.19-.29-.43-.29-.7v-11.32c0-1.59-.39-2.84-1.17-3.75-.78-.91-1.91-1.36-3.4-1.36s-2.57.45-3.42,1.36c-.85.91-1.28,2.15-1.28,3.75v11.32c0,.27-.1.51-.29.7-.19.19-.43.29-.7.29h-3.62Z"/>
    <path class="cls-1" d="M170.17,113.46c-.28,0-.51-.1-.7-.29-.19-.19-.29-.43-.29-.7v-19.43c0-.27.1-.51.29-.7s.42-.29.7-.29h3.38c.27,0,.51.1.7.29.19.19.29.43.29.7v1.69c.71-.88,1.63-1.61,2.74-2.2,1.11-.59,2.49-.88,4.14-.88s3.13.38,4.36,1.13c1.23.76,2.19,1.82,2.86,3.19.67,1.37,1.01,3.02,1.01,4.94v11.57c0,.27-.1.51-.29.7-.19.19-.43.29-.7.29h-3.62c-.27,0-.51-.1-.7-.29-.19-.19-.29-.43-.29-.7v-11.32c0-1.59-.39-2.84-1.17-3.75-.78-.91-1.91-1.36-3.4-1.36s-2.57.45-3.42,1.36c-.85.91-1.28,2.15-1.28,3.75v11.32c0,.27-.1.51-.29.7-.19.19-.43.29-.7.29h-3.62Z"/>
    <path class="cls-1" d="M204.08,113.88c-3.05,0-5.46-.88-7.25-2.63-1.78-1.76-2.74-4.25-2.88-7.49-.03-.27-.04-.62-.04-1.05s.01-.76.04-1.01c.11-2.06.58-3.84,1.42-5.35.84-1.51,2-2.67,3.48-3.48,1.48-.81,3.22-1.21,5.23-1.21,2.22,0,4.09.46,5.6,1.38,1.51.92,2.65,2.2,3.42,3.83.77,1.63,1.15,3.52,1.15,5.66v.86c0,.27-.1.51-.29.7s-.44.29-.74.29h-13.67v.33c.03.96.21,1.85.56,2.65.34.81.85,1.46,1.52,1.96.67.49,1.47.74,2.41.74.77,0,1.41-.12,1.93-.35.52-.23.95-.5,1.28-.8.33-.3.56-.55.7-.74.25-.33.45-.53.6-.6.15-.07.38-.1.68-.1h3.54c.27,0,.5.08.68.25s.25.37.23.62c-.03.44-.25.97-.68,1.61-.43.63-1.04,1.25-1.83,1.85-.8.6-1.79,1.1-2.98,1.5-1.19.4-2.56.6-4.1.6ZM199.56,100.91h9.1v-.12c0-1.07-.18-2-.54-2.8-.36-.8-.88-1.43-1.56-1.89-.69-.47-1.51-.7-2.47-.7s-1.78.23-2.47.7c-.69.47-1.2,1.1-1.54,1.89-.34.8-.51,1.73-.51,2.8v.12Z"/>
    <path class="cls-1" d="M227.88,113.88c-1.98,0-3.71-.37-5.21-1.11-1.5-.74-2.66-1.82-3.5-3.23-.84-1.41-1.3-3.12-1.38-5.12-.03-.41-.04-.95-.04-1.63s.01-1.23.04-1.67c.08-2,.54-3.71,1.38-5.12.84-1.41,2-2.49,3.5-3.23,1.5-.74,3.23-1.11,5.21-1.11,1.76,0,3.25.25,4.49.74,1.24.49,2.25,1.11,3.05,1.85.79.74,1.39,1.52,1.79,2.33.4.81.61,1.54.64,2.2.03.3-.06.54-.27.72-.21.18-.45.27-.72.27h-3.62c-.28,0-.49-.07-.64-.21-.15-.14-.29-.34-.43-.62-.41-1.1-.95-1.87-1.63-2.33-.67-.45-1.53-.68-2.57-.68-1.37,0-2.46.43-3.27,1.3s-1.24,2.23-1.3,4.1c-.05,1.04-.05,2,0,2.88.05,1.89.49,3.27,1.3,4.12.81.85,1.9,1.28,3.27,1.28,1.07,0,1.93-.23,2.59-.68.66-.45,1.19-1.23,1.61-2.33.14-.27.28-.48.43-.62.15-.14.36-.21.64-.21h3.62c.27,0,.51.09.72.27.21.18.29.42.27.72-.03.49-.16,1.05-.39,1.67-.23.62-.6,1.25-1.11,1.89-.51.65-1.15,1.23-1.91,1.77-.77.54-1.7.97-2.78,1.3-1.08.33-2.34.49-3.77.49Z"/>
    <path class="cls-1" d="M251.79,113.46c-1.65,0-3.03-.29-4.16-.86-1.12-.58-1.96-1.43-2.51-2.57-.55-1.14-.82-2.56-.82-4.26v-9.34h-3.25c-.27,0-.51-.1-.7-.29-.19-.19-.29-.43-.29-.7v-2.39c0-.27.1-.51.29-.7.19-.19.43-.29.7-.29h3.25v-6.83c0-.27.09-.51.27-.7.18-.19.42-.29.72-.29h3.33c.27,0,.51.1.7.29.19.19.29.43.29.7v6.83h5.15c.27,0,.51.1.7.29.19.19.29.43.29.7v2.39c0,.27-.1.51-.29.7-.19.19-.43.29-.7.29h-5.15v8.93c0,1.13.2,2,.6,2.63.4.63,1.09.95,2.08.95h2.84c.27,0,.51.1.7.29.19.19.29.43.29.7v2.55c0,.27-.1.51-.29.7-.19.19-.43.29-.7.29h-3.33Z"/>
  </g>
  <g>
    <rect class="cls-1" x="94.81" y="0" width="30.13" height="30.13" rx="6.41" ry="6.41"/>
    <path class="cls-1" d="M134.88,0h4.52c10.85,0,19.65,8.8,19.65,19.65v4.52c0,3.29-2.67,5.96-5.96,5.96h-14.96c-5.09,0-9.21-4.12-9.21-9.21V5.96C128.92,2.67,131.59,0,134.88,0Z"/>
    <path class="cls-1" d="M99.53,34.11h21.09c2.38,0,4.32,1.93,4.32,4.32v20.05c0,3.18-2.58,5.76-5.76,5.76h-12.88c-6.34,0-11.48-5.14-11.48-11.48v-13.92c0-2.61,2.11-4.72,4.72-4.72Z"/>
    <path class="cls-1" d="M140.95,34.11h18.09s0,18.09,0,18.09c0,6.64-5.39,12.03-12.03,12.03h-18.09s0-18.09,0-18.09c0-6.64,5.39-12.03,12.03-12.03Z"/>
  </g>
</svg>