<?xml version="1.0" encoding="UTF-8"?>
<svg id="Layer_1" data-name="Layer 1" xmlns="http://www.w3.org/2000/svg" xmlns:xlink="http://www.w3.org/1999/xlink" viewBox="0 0 1024 1024">
  <defs>
    <style>
      .cls-1 {
        fill: #fff;
      }

      .cls-2 {
        fill: url(#radial-gradient);
      }
    </style>
    <radialGradient id="radial-gradient" cx="512" cy="512" fx="512" fy="512" r="512" gradientUnits="userSpaceOnUse">
      <stop offset="0" stop-color="#007ec3"/>
      <stop offset=".33" stop-color="#027cc1"/>
      <stop offset=".58" stop-color="#0c78be"/>
      <stop offset=".8" stop-color="#1c71b8"/>
      <stop offset="1" stop-color="#3267b0"/>
      <stop offset="1" stop-color="#3367b0"/>
    </radialGradient>
  </defs>
  <rect class="cls-2" width="1024" height="1024" rx="307.2" ry="307.2"/>
  <path class="cls-1" d="M241.58,799.48c-4.45,0-8.82-1.75-12.07-5-4.6-4.6-6.18-11.4-4.1-17.55l52.42-154.59c-25.93-54.21-32.55-115.86-18.6-174.43,14.5-60.96,50.37-114.85,101.02-151.75,50.65-36.9,112.95-54.6,175.42-49.68,62.47,4.88,121.28,31.97,165.58,76.28,44.32,44.32,71.4,103.12,76.27,165.59,4.88,62.47-12.75,124.77-49.65,175.41-36.92,50.66-90.8,86.52-151.77,101.02-58.58,13.92-120.23,7.32-174.43-18.62l-154.6,52.42c-1.8.6-3.65.9-5.48.9ZM515.25,279.82c-48.3,0-95.62,15.31-134.9,43.92-44.08,32.12-75.3,79.02-87.92,132.07-12.63,53.05-5.87,108.99,19.02,157.52,2.12,4.11,2.47,8.9.98,13.28l-43.58,128.55,128.57-43.58c4.37-1.48,9.15-1.13,13.27.98,48.52,24.88,104.45,31.63,157.52,19.03,53.05-12.62,99.95-43.84,132.07-87.93,32.12-44.07,47.47-98.28,43.22-152.66-4.23-54.36-27.8-105.54-66.37-144.11-38.57-38.56-89.73-62.13-144.12-66.38-5.92-.47-11.85-.69-17.75-.69Z"/>
  <g>
    <path class="cls-1" d="M482.85,405.12c4.74,0,8.6,3.86,8.6,8.6v64.62c0,4.74-3.86,8.6-8.6,8.6h-64.62c-4.74,0-8.6-3.86-8.6-8.6v-64.62c0-4.74,3.86-8.6,8.6-8.6h64.62M482.85,389.76h-64.62c-13.23,0-23.96,10.73-23.96,23.96v64.62c0,13.23,10.73,23.96,23.96,23.96h64.62c13.23,0,23.96-10.73,23.96-23.96v-64.62c0-13.23-10.73-23.96-23.96-23.96h0Z"/>
    <path class="cls-1" d="M560.85,405.12c32,0,58.03,26.03,58.03,58.03v16.88c0,3.81-3.1,6.91-6.91,6.91h-55.87c-10.5,0-19.04-8.54-19.04-19.04v-55.87c0-3.81,3.1-6.91,6.91-6.91h16.88M560.85,389.76h-16.88c-12.3,0-22.27,9.97-22.27,22.27v55.87c0,19,15.4,34.4,34.4,34.4h55.87c12.3,0,22.27-9.97,22.27-22.27v-16.88c0-40.53-32.86-73.39-73.39-73.39h0Z"/>
    <path class="cls-1" d="M490.69,532.55c.42,0,.76.34.76.77v74.9c0,3.39-2.76,6.16-6.15,6.16h-48.12c-15.19,0-27.54-12.35-27.54-27.54v-52c0-1.25,1.02-2.27,2.27-2.27h78.78M490.69,517.19h-78.78c-9.74,0-17.63,7.89-17.63,17.63v52c0,23.69,19.21,42.9,42.9,42.9h48.12c11.88,0,21.51-9.63,21.51-21.52v-74.9c0-8.91-7.22-16.12-16.12-16.12h0Z"/>
    <path class="cls-1" d="M618.88,532.55v52.23c0,16.31-13.27,29.59-29.59,29.59h-52.23v-52.23c0-16.31,13.27-29.59,29.59-29.59h52.23M634.24,517.19h-67.59c-24.82,0-44.95,20.12-44.95,44.95v67.59h67.59c24.82,0,44.95-20.12,44.95-44.95v-67.59h0Z"/>
  </g>
</svg>