<?xml version="1.0" encoding="UTF-8"?>
<svg id="Layer_2" data-name="Layer 2" xmlns="http://www.w3.org/2000/svg" xmlns:xlink="http://www.w3.org/1999/xlink" viewBox="0 0 78.88 78.88">
  <defs>
    <style>
      .cls-1 {
        fill: none;
      }

      .cls-2 {
        fill: #354148;
      }

      .cls-3 {
        fill: #7d99ae;
      }

      .cls-4 {
        fill: #84a2b8;
      }

      .cls-5 {
        fill: #debaad;
      }

      .cls-6 {
        fill: #4e606b;
      }

      .cls-7 {
        fill: #bf6c6c;
      }

      .cls-8 {
        fill: #7791a4;
      }

      .cls-9 {
        fill: #7b97ab;
      }

      .cls-10 {
        fill: #677e8d;
      }

      .cls-11 {
        fill: #86a3ba;
      }

      .cls-12 {
        fill: #364349;
      }

      .cls-13 {
        fill: #313d43;
      }

      .cls-14 {
        fill: #809cb2;
      }

      .cls-15 {
        fill: #6d8596;
      }

      .cls-16 {
        fill: #44545c;
      }

      .cls-17 {
        fill: #46565f;
      }

      .cls-18 {
        fill: #7893a6;
      }

      .cls-19 {
        fill: #87a5bc;
      }

      .cls-20 {
        fill: #748d9f;
      }

      .cls-21 {
        fill: #627886;
      }

      .cls-22 {
        fill: #576b77;
      }

      .cls-23 {
        fill: #d4b7b0;
      }

      .cls-24 {
        fill: #829fb5;
      }

      .cls-25 {
        fill: #b89388;
      }

      .cls-26 {
        fill: #485862;
      }

      .cls-27 {
        fill: #6f8899;
      }

      .cls-28 {
        fill: #5b6f7c;
      }

      .cls-29 {
        fill: #7892a6;
      }

      .cls-30 {
        fill: #829fb4;
      }

      .cls-31 {
        fill: #7690a2;
      }

      .cls-32 {
        fill: #596c79;
      }

      .cls-33 {
        fill: #748ea0;
      }

      .cls-34 {
        fill: #728b9c;
      }

      .cls-35 {
        fill: #88a6be;
      }

      .cls-36 {
        fill: #a88a6b;
      }

      .cls-37 {
        fill: #738d9f;
      }

      .cls-38 {
        fill: #495963;
      }

      .cls-39 {
        fill: #87a4bb;
      }

      .cls-40 {
        fill: #617785;
      }

      .cls-41 {
        fill: #819db3;
      }

      .cls-42 {
        fill: #95bacb;
      }

      .cls-43 {
        fill: #657b8a;
      }

      .cls-44 {
        fill: #85a2b8;
      }

      .cls-45 {
        fill: #7f9bb0;
      }

      .cls-46 {
        fill: #667c8b;
      }

      .cls-47 {
        fill: #38454c;
      }

      .cls-48 {
        fill: #3e4d54;
      }

      .cls-49 {
        fill: #687f8f;
      }

      .cls-50 {
        fill: #bb5183;
      }

      .cls-51 {
        fill: #7e9aae;
      }

      .cls-52 {
        fill: #88a7be;
      }

      .cls-53 {
        fill: #5b707d;
      }

      .cls-54 {
        fill: #7a96a9;
      }

      .cls-55 {
        fill: #829eb4;
      }

      .cls-56 {
        fill: #7a95a9;
      }

      .cls-57 {
        opacity: .55;
      }

      .cls-57, .cls-58 {
        fill: #f3f3f2;
      }

      .cls-59 {
        fill: #6c8495;
      }

      .cls-60 {
        fill: #7c98ac;
      }

      .cls-61 {
        fill: #85a2b9;
      }

      .cls-58 {
        opacity: .29;
      }

      .cls-62 {
        fill: #677d8d;
      }

      .cls-63 {
        fill: #39464e;
      }

      .cls-64 {
        fill: #3d4b53;
      }

      .cls-65 {
        fill: #344046;
      }

      .cls-66 {
        fill: #586c78;
      }

      .cls-67 {
        fill: #596d7a;
      }

      .cls-68 {
        fill: #87a6bd;
      }

      .cls-69 {
        fill: #637988;
      }

      .cls-70 {
        fill: #37444b;
      }

      .cls-71 {
        fill: #73241c;
      }

      .cls-72 {
        fill: #7c97ab;
      }

      .cls-73 {
        fill: #6d8595;
      }

      .cls-74 {
        fill: #526570;
      }

      .cls-75 {
        fill: #662925;
      }

      .cls-76 {
        fill: #70899b;
      }

      .cls-77 {
        fill: #738c9e;
      }

      .cls-78 {
        fill: #4e5f6a;
      }

      .cls-79 {
        clip-path: url(#clippath-1);
      }

      .cls-80 {
        fill: #546672;
      }

      .cls-81 {
        fill: #84a1b7;
      }

      .cls-82 {
        fill: #718a9c;
      }

      .cls-83 {
        fill: #5f7481;
      }

      .cls-84 {
        fill: #f1d4c8;
      }

      .cls-85 {
        fill: #6e8697;
      }

      .cls-86 {
        fill: #303c42;
      }

      .cls-87 {
        fill: #85a3b9;
      }

      .cls-88 {
        fill: #7e9baf;
      }

      .cls-89 {
        fill: #6a8292;
      }

      .cls-90 {
        fill: #758fa1;
      }

      .cls-91 {
        fill: #6b8292;
      }

      .cls-92 {
        fill: #83a1b7;
      }

      .cls-93 {
        fill: #7994a7;
      }

      .cls-94 {
        fill: #6b8393;
      }

      .cls-95 {
        fill: #647a89;
      }

      .cls-96 {
        fill: #6e8798;
      }

      .cls-97 {
        fill: #fff;
      }

      .cls-98 {
        fill: #7f9cb1;
      }

      .cls-99 {
        fill: #87a5bb;
      }

      .cls-100 {
        fill: #536671;
      }

      .cls-101 {
        fill: #5e7380;
      }

      .cls-102 {
        fill: #4d5e69;
      }

      .cls-103 {
        fill: #566975;
      }

      .cls-104 {
        fill: #6a8191;
      }

      .cls-105 {
        fill: #809db2;
      }

      .cls-106 {
        fill: #4c5d68;
      }

      .cls-107 {
        fill: #809cb1;
      }

      .cls-108 {
        fill: #4b5c67;
      }

      .cls-109 {
        fill: #475760;
      }

      .cls-110 {
        fill: #7691a3;
      }

      .cls-111 {
        fill: #3a484f;
      }

      .cls-112 {
        fill: #51636e;
      }

      .cls-113 {
        fill: #7d99ad;
      }

      .cls-114 {
        fill: #4f616c;
      }

      .cls-115 {
        fill: #819eb4;
      }

      .cls-116 {
        fill: #4a5b65;
      }

      .cls-117 {
        fill: #698090;
      }

      .cls-118 {
        opacity: .58;
      }

      .cls-119 {
        opacity: .3;
      }

      .cls-120 {
        fill: #7690a3;
      }

      .cls-121 {
        fill: #5d727f;
      }

      .cls-122 {
        fill: #415059;
      }

      .cls-123 {
        fill: #2d383d;
      }

      .cls-124 {
        fill: #50626d;
      }

      .cls-125 {
        fill: #7893a7;
      }

      .cls-126 {
        fill: #43525b;
      }

      .cls-127 {
        fill: #748ea1;
      }

      .cls-128 {
        fill: #7994a8;
      }

      .cls-129 {
        fill: #546773;
      }

      .cls-130 {
        fill: #83a0b6;
      }

      .cls-131 {
        fill: #26200c;
      }

      .cls-132 {
        fill: #607583;
      }

      .cls-133 {
        fill: #556874;
      }

      .cls-134 {
        fill: #687f8e;
      }

      .cls-135 {
        fill: #667d8c;
      }

      .cls-136 {
        fill: #728b9d;
      }

      .cls-137 {
        fill: #323f45;
      }

      .cls-138 {
        fill: #86a4bb;
      }

      .cls-139 {
        fill: #7792a5;
      }

      .cls-140 {
        fill: #84a1b8;
      }

      .cls-141 {
        fill: #5c707e;
      }

      .cls-142 {
        fill: #698190;
      }

      .cls-143 {
        fill: #637987;
      }

      .cls-144 {
        fill: #3c4a52;
      }

      .cls-145 {
        fill: #42515a;
      }

      .cls-146 {
        fill: #c6a095;
      }

      .cls-147 {
        fill: #3b4950;
      }

      .cls-148 {
        fill: #6c8494;
      }

      .cls-149 {
        fill: #88a6bd;
      }

      .cls-150 {
        fill: #881c1e;
      }

      .cls-151 {
        fill: #404f57;
      }

      .cls-152 {
        fill: #47433b;
      }

      .cls-153 {
        fill: #51646f;
      }

      .cls-154 {
        fill: #7c97ac;
      }

      .cls-155 {
        fill: #5a6e7b;
      }

      .cls-156 {
        fill: #647b8a;
      }

      .cls-157 {
        fill: #45555e;
      }

      .cls-158 {
        fill: #7e9aaf;
      }

      .cls-159 {
        fill: #3f4e56;
      }

      .cls-160 {
        fill: #2f3b40;
      }

      .cls-161 {
        fill: #4a5a64;
      }

      .cls-162 {
        fill: #607684;
      }

      .cls-163 {
        fill: #49443b;
      }

      .cls-164 {
        fill: #718a9b;
      }

      .cls-165 {
        fill: #5d717f;
      }

      .cls-166 {
        clip-path: url(#clippath);
      }

      .cls-167 {
        fill: #82a0b5;
      }

      .cls-168 {
        fill: #2e393f;
      }

      .cls-169 {
        fill: #70899a;
      }

      .cls-170 {
        fill: #7b96aa;
      }

      .cls-171 {
        fill: #758fa2;
      }

      .cls-172 {
        fill: #86a4ba;
      }

      .cls-173 {
        fill: #5f7482;
      }

      .cls-174 {
        fill: #7c98ad;
      }

      .cls-175 {
        fill: #819eb3;
      }

      .cls-176 {
        fill: #85a3ba;
      }

      .cls-177 {
        fill: #728c9e;
      }

      .cls-178 {
        fill: #576a76;
      }

      .cls-179 {
        fill: #627786;
      }

      .cls-180 {
        fill: #ab5b64;
      }
    </style>
    <clipPath id="clippath">
      <path class="cls-1" d="M35.25,36.08c-.1,1.18-1.15,2.06-2.36,1.96-1.2-.1-2.1-1.14-2-2.32.1-1.19,1.15-2.07,2.36-1.97,1.2.1,2.1,1.14,2,2.33Z"/>
    </clipPath>
    <clipPath id="clippath-1">
      <path class="cls-1" d="M50.65,35.96c-.1,1.18-1.15,2.06-2.36,1.96-1.2-.1-2.1-1.14-2-2.32.1-1.19,1.15-2.07,2.36-1.97,1.2.1,2.1,1.14,2,2.33Z"/>
    </clipPath>
  </defs>
  <g id="Layer_1-2" data-name="Layer 1">
    <g>
      <rect class="cls-71" width="78.88" height="78.88"/>
      <path class="cls-97" d="M64.37,33.43c.05-.85-2.73-.84-1.59-2.9,1.03-1.86.85-1.33-.75-3.54-1.6-2.22.05-1.31.13-2.29.07-.98-.12-1.45.02-2.6.14-1.15.71-.88.28-1.33-.43-.45-1.78-1.63-2.66-1.79-.88-.17-.35-.46-.43-1.35-.07-.89.07-1.06.87-1.87.79-.8.11-1.55-.81-1.23-.91.32-2.03,1.07-2.36.94-.33-.13-.23-1.85-.5-2.23-.26-.38-.65-.27-.94-.89-.29-.63.06-1.15.47-1.91.41-.77,1.09-1.15.77-2.18-.33-1.03-2.24.52-3.83,1.23-.62.28-1.41.32-2.19.21.17-.43.28-.9.44-1.23.35-.72.21-1.01,0-1.3-.21-.29-.98.29-1.5.87-.29.33-.82.41-1.54.55-.06-.07-.14-.13-.18-.2-.63-1,.35-.52,1.62-2.26,1.27-1.74-.47-1.01-2.17-.62-1.7.39-1.19,1.81-2.73,2.19-1.54.38-1.09.18-2.25.36-1.16.19-1.25.11-1.63-.67-.38-.78.32-1-.19-2.38-.24-.65-.99,0-2.27,2.11-.19.31-.4.52-.63.67-.11-.15-.21-.37-.29-.71-.28-1.3-.42-1.45-.77-1.74-.35-.29-.83,0-.98,0s-.43.73-.43.73c0,.67-.07,1.33-.03,1.85-.28-.04-.57-.07-.89-.1-1.9-.16-1.2-1.71-2.05-2.44-.85-.74-3.69,1.8-4.33,1.62-.65-.19-.89-1.22-2.61-.19-1.73,1.03.12,1.47-.15,2.06-.27.59-1.01.09-1.29-.45-.28-.54-2.17-.54-1.72.15.45.69-.08.9-.93,1.46-.84.56.52,1.25,1.36,2.8.84,1.55-.75.54-1.37,1.5-2.16,3.37-3.31,1.29-3.94,1.78-.57.43-.59,2.45.53,3.56,1.11,1.12.64.67.59,1.41-.19,2.76-4.7,2.78-3.1,3.45,3.47,1.44,1.33,1.77,1.48,2.57.14.8-1.78.71-1.41,1.41.37.7,2.27,3.38.35,3.06-1.91-.32,1.24,3.55,1.49,3.69.25.14.92,1.54.78,1.8-.13.26.35.38.65,1.16.3.79-2.07,1.15-1.81,2.75.13.79,1.57.65,2.36,1.64.79.99-.69,1.47.66,1.67,1.35.21.74.42,1.01.8.27.38-.88.73-.78.96.1.23,1.28.29.93.81-.35.52-2.08,1.41-.51,1.43,1.57.02.59.44.7.83.11.4,3.42.43,1.94,1.53s.27.38,1.91.24c1.64-.15.12.56.15.8.02.24.07.81,1.44,1.25,1.37.45.34.3.07.81-.27.51.67,1.49,1.62.59.95-.9,1.3-.44,1.37.37.07.81.19.39-.86,1.05-1.05.66.78,1.18,1.11.99,1.61-.9,1.75-1.61,2.33-1.31.3.16.21.62-.11,1.09-.37.53-1.36.87-.7,1.16.66.29,1.12.29,1.83,0,.7-.29,1.41-.07,1.78-.94.15-.36.43.36.59.89.16.53.53.97,1.23.58.7-.39,6.27-1.54,7.3-1.47.39.03,1.18,1.49,2.95.75.78-.33.01-1.09-.1-1.4-.1-.32.38-1.02,1.71-1.14,1.33-.12.46.68,1.35,1.1,1.48.69,1.11-1.72.85-2.02-.15-.18-.17-.36.06-.86.64.34,1.13.67,1.27.86.21.29.63.65.98,0,.35-.65.28-.43,0-1.16-.29-.73.77-1.39,1.64-1.47.94-.08.18.69,2.01-.07,1.1-.45.76-.66.73-1.06-.02-.27-.25-.39-.38-.89.05,0,.09.02.14.02.77,0,1.4-.57,1.4-1.27,0-.17-.04-.34-.11-.49.05,0,.09,0,.14,0,.86-.08,2.25-.2,1.65-1.27-.25-.44-.38-.86-.45-1.27.61-.02,1.1-.33,1.1-.71,0-.16-.1-.3-.24-.42.43-.16.73-.44.73-.78,0-.5-.43-1.45-.15-1.8.36-.45,2.13-.14,2.14-.72.03-1.26-1.22-1.88-1.59-2.5-.21-.34-.34-1.42.37-2.81.59-1.14,1.79-.72,1.87-1.94"/>
      <path class="cls-84" d="M62.59,77.89s-.1-6.02-.34-6.54c-.46-2.1.36-3.06-2.88-5.08-.03-.01-.74-.24-1.8-.59t-.03-.01c-.69-.22-1.52-.5-2.4-.8-.34-.11-.67-.24-1.02-.35-.86-.3-1.72-.62-2.51-.92-.55-.21-1.07-.41-1.51-.59-.38-.16-.71-.32-.97-.45-.28-.14-.48-.27-.59-.38-.01-.01-.04-.05-.08-.09-.02-.04-.05-.06-.07-.1-.06-.35-1-1.89-1.32-3.56h0c-.07-.35-.11-.67-.12-1.01-.03-.49-.03-.97-.04-1.41-.01-.45-.02-.86-.04-1.2v-.29c-.01-.24-.01-.44-.01-.59-.01-.15-.01-.24-.01-.24,0,0,.35-.3.86-.75.64-.57,1.55-1.4,2.33-2.18.85-.85,1.59-1.66,1.75-2.09.01-.06.02-.11.02-.15,0,0-.02,0-.06.01-.4.06-2.55.44-4.86.8-1.37.21-2.81.43-3.98.57-.46.06-.89.1-1.25.14h-.01c-.34.04-.62.05-.84.05-.24,0-.56-.02-.95-.05h-.03c-.37-.05-.82-.1-1.31-.16-1.07-.14-2.36-.32-3.61-.51-1.15-.19-2.27-.36-3.16-.51-.21-.04-.4-.06-.57-.1-.85-.14-1.39-.24-1.39-.24,0,.16.15.41.4.74,0,0,0,.01.01.01.19.25.44.54.74.86.29.3.6.61.92.92.99.96,2.06,1.91,2.58,2.36.2.17.31.27.31.27,0,0,0,.09-.01.24,0,.15,0,.35-.01.59v.29c0,.1,0,.2-.01.3-.01.65-.04,1.46-.06,2.31-.01.34-.05.66-.12,1-.33,1.67-1.26,3.22-1.32,3.57-.03.04-.05.06-.07.1-.04.04-.06.08-.08.09-.05.05-.14.11-.24.18-.23.15-.57.32-.99.52-.37.16-.8.34-1.27.52-1.11.43-2.43.91-3.7,1.34-.09.03-.17.06-.26.09-.94.32-1.84.62-2.56.86h-.01c-1.05.35-1.76.57-1.78.59-3.22,2.01-2.43,2.97-2.88,5.04h0v.04s-.03.07-.04.15h0c-.21,1.1-.3,6.39-.3,6.39,0,.32,0,.65,0,.99h43.58c0-.34,0-.67-.01-.99Z"/>
      <path class="cls-23" d="M31.64,39.12c.53,2.31,2.35,3.39,2.3,6.69,1.9.69,3.71,1.47,4.58,3.2v1.22h5.44v-1.12c.92-1.78,2.82-2.59,4.81-3.3.04-4.29,1.97-5.01,2.3-8.36,1.32-13.54-22.83-13.02-19.43,1.67ZM43.04,45.06c-2.26,1.43-3.31-.8-3.31-.8l1.35-3.75s4.22,3.12,1.96,4.55ZM37.38,41.34c-1.42,0-2.57-1.07-2.57-2.39s1.15-2.39,2.57-2.39,2.57,1.07,2.57,2.39-1.15,2.39-2.57,2.39ZM45.27,40.85c-1.42,0-2.57-1.07-2.57-2.39s1.15-2.39,2.57-2.39,2.57,1.07,2.57,2.39-1.15,2.39-2.57,2.39Z"/>
      <g class="cls-118">
        <path class="cls-146" d="M47.08,58.41c-.07-.34-.11-.66-.12-1-.04-1.12-.06-2.2-.07-2.9-1.87.84-3.8,1.32-5.68,1.32-.11.02-.25.02-.38.02s-.27,0-.38-.02c-1.89,0-3.81-.49-5.68-1.32-.01.7-.04,1.77-.07,2.9-.01.34-.05.66-.12,1,1.81,1.51,4.26,3.07,5.88,3.07.1.02.23.02.34.02h0s.03,0,.04,0,.03,0,.04,0h0c.12,0,.24,0,.34-.03,1.62,0,4.07-1.56,5.88-3.07Z"/>
      </g>
      <g>
        <path class="cls-84" d="M56.89,36c.31-1.73.56-3.05.63-3.31.04-.12.06-.25.1-.37.03-.15.06-.29.09-.42.06-.21.1-.43.15-.64.01-.1.04-.2.05-.3.04-.24.09-.48.12-.71.01-.1.03-.21.04-.31.04-.21.05-.42.08-.64.01-.16.02-.33.05-.47.01-.14.01-.28.02-.41.16-3.26-.54-6.58-2.67-9.59-2.58-3.62-5.56-7.45-12.01-7.99h-5.44c-6.46.54-9.43,4.37-12.01,7.99-2.13,3.01-2.83,6.33-2.67,9.59.01.14.01.27.02.41.02.15.04.31.05.47.02.21.04.42.07.64.01.1.03.21.04.31.04.24.09.47.13.71.01.1.04.2.05.3.05.21.09.43.15.64.03.14.06.27.09.42.04.12.06.25.1.37.08.26.32,1.57.63,3.29-1.72-.84-4.11.36-3.83,3.53.29,3.22,4.2,5.13,5.55,5.45.13.58.24,1.02.33,1.22,1.17,2.96,2.6,3.85,5.09,6.26,2.72,2.61,6.74,5.06,8.73,5.04.06.01.14.01.21.01s.15,0,.21-.01c1.98.01,6-2.44,8.73-5.04,2.5-2.41,3.92-3.3,5.09-6.26.08-.21.19-.64.32-1.21,1.29-.29,5.29-2.21,5.59-5.47.29-3.2-2.15-4.4-3.88-3.51Z"/>
        <path class="cls-5" d="M59.51,37.77c-.97-1.58-2.49-.91-2.87-.57-.4.37-.72.87-.48,1.8.13.52.68.57.54,1.37-.16.89-.57.95-.8,1.15-.23.2-.53.35-.68.73-.14.37-.17.77-.1,1.12.15.65,1.09.14,1.72-.14.42-.18,1.74-1.29,2.08-1.65.84-.94,1.25-2.74.6-3.8"/>
      </g>
      <path class="cls-5" d="M38.06,51.32c-.06-.82,2.31.17,3.09.2.62.02,2.49-.12,2.67-.19,1.31-.49-.07,1.38-2.7,1.48-1.21.05-3.02-.99-3.06-1.49Z"/>
      <g>
        <path class="cls-180" d="M45.89,50.25c-1.51-.28-4.68-.89-4.68-.89-2.62.43-4.67.88-4.68.9-.06,0,2.09,1.93,4.65,1.8h0c2.55.13,4.78-1.8,4.72-1.81Z"/>
        <path class="cls-7" d="M42.7,48.83c-.68-.07-1.15.32-1.49.29-.35.03-.82-.36-1.5-.29-.97.21-1.43.82-3.19,1.43.06.12,1.19-.15,3.3-.11.03,0,.6.32,1.4.31.5,0,1.19-.34,1.22-.34,2.11-.03,3.4.26,3.46.14-2.32-.71-2.23-1.23-3.2-1.44Z"/>
      </g>
      <path class="cls-36" d="M42.46,44.87c.34-.23.74-.12.74-.12,0,0,0,0-.01.02-.08.14-.54.87-.91.86,0,0-.08-.07-.1-.24-.03-.17.11-.4.28-.52Z"/>
      <path class="cls-5" d="M37.83,44.64c-.07-1.65,2.56-.6,3.43-.55.69.04,2.77-.52,2.95-.38,1.22.98-1.3,2.95-2.99,2.95-.45,0-3.34-1.03-3.38-2.03Z"/>
      <path class="cls-25" d="M39.82,44.84c-.34-.23-.74-.12-.74-.12,0,0,0,0,.01.02.08.14.54.87.91.86,0,0,.08-.07.1-.24.03-.17-.11-.4-.28-.52Z"/>
      <path class="cls-163" d="M37.38,33.34s-.4-.4-1.14-.89c-.35-.26-.81-.48-1.3-.71-.49-.23-1.04-.4-1.61-.5-.57-.13-1.15-.16-1.71-.15-.28.02-.55.04-.8.06-.26.01-.49.08-.72.11-.45.07-.82.18-1.09.24-.27.06-.42.1-.42.1,0,0,.13-.08.37-.23.24-.13.57-.37,1.02-.53.44-.19.98-.36,1.58-.48.6-.08,1.26-.12,1.92-.05.66.09,1.3.27,1.87.51.57.24,1.06.56,1.45.86.78.59,1.16,1.18,1.16,1.18h0c.12.18.07.42-.11.54-.15.1-.35.07-.48-.05Z"/>
      <path class="cls-97" d="M28.2,35.1s1.46,3.64,3.73,3.99c2.27.35,4.69-.16,4.69-.16,0,0,.06-4.22-1.12-4.81-1.18-.59-3.87-1.46-7.3.98Z"/>
      <g class="cls-166">
        <polygon class="cls-123" points="35.35 34.45 30.79 34.08 30.79 33.66 35.35 33.66 35.35 34.45"/>
        <polygon class="cls-123" points="35.35 34.47 30.79 34.1 30.79 34.08 35.35 34.45 35.35 34.47"/>
        <polygon class="cls-168" points="35.35 34.5 30.79 34.12 30.79 34.1 35.35 34.47 35.35 34.5"/>
        <polygon class="cls-160" points="35.35 34.52 30.79 34.14 30.79 34.12 35.35 34.5 35.35 34.52"/>
        <polygon class="cls-86" points="35.35 34.54 30.79 34.16 30.79 34.14 35.35 34.52 35.35 34.54"/>
        <polygon class="cls-13" points="35.35 34.56 30.79 34.18 30.79 34.16 35.35 34.54 35.35 34.56"/>
        <polygon class="cls-137" points="35.35 34.58 30.79 34.2 30.79 34.18 35.35 34.56 35.35 34.58"/>
        <polygon class="cls-65" points="35.35 34.6 30.79 34.22 30.79 34.2 35.35 34.58 35.35 34.6"/>
        <polygon class="cls-2" points="35.35 34.62 30.79 34.25 30.79 34.22 35.35 34.6 35.35 34.62"/>
        <polygon class="cls-12" points="35.35 34.64 30.79 34.27 30.79 34.25 35.35 34.62 35.35 34.64"/>
        <polygon class="cls-70" points="35.35 34.66 30.79 34.29 30.79 34.27 35.35 34.64 35.35 34.66"/>
        <polygon class="cls-47" points="35.35 34.68 30.79 34.31 30.79 34.29 35.35 34.66 35.35 34.68"/>
        <polygon class="cls-63" points="35.35 34.71 30.79 34.33 30.79 34.31 35.35 34.68 35.35 34.71"/>
        <polygon class="cls-111" points="35.35 34.73 30.79 34.35 30.79 34.33 35.35 34.71 35.35 34.73"/>
        <polygon class="cls-147" points="35.35 34.75 30.79 34.37 30.79 34.35 35.35 34.73 35.35 34.75"/>
        <polygon class="cls-144" points="35.35 34.77 30.79 34.39 30.79 34.37 35.35 34.75 35.35 34.77"/>
        <polygon class="cls-64" points="35.35 34.79 30.79 34.41 30.79 34.39 35.35 34.77 35.35 34.79"/>
        <polygon class="cls-48" points="35.35 34.81 30.79 34.43 30.79 34.41 35.35 34.79 35.35 34.81"/>
        <polygon class="cls-159" points="35.35 34.83 30.79 34.46 30.79 34.43 35.35 34.81 35.35 34.83"/>
        <polygon class="cls-151" points="35.35 34.85 30.79 34.48 30.79 34.46 35.35 34.83 35.35 34.85"/>
        <polygon class="cls-122" points="35.35 34.87 30.79 34.5 30.79 34.48 35.35 34.85 35.35 34.87"/>
        <polygon class="cls-145" points="35.35 34.89 30.79 34.52 30.79 34.5 35.35 34.87 35.35 34.89"/>
        <polygon class="cls-126" points="35.35 34.92 30.79 34.54 30.79 34.52 35.35 34.89 35.35 34.92"/>
        <polygon class="cls-16" points="35.35 34.94 30.79 34.56 30.79 34.54 35.35 34.92 35.35 34.94"/>
        <polygon class="cls-157" points="35.35 34.96 30.79 34.58 30.79 34.56 35.35 34.94 35.35 34.96"/>
        <polygon class="cls-17" points="35.35 34.98 30.79 34.6 30.79 34.58 35.35 34.96 35.35 34.98"/>
        <polygon class="cls-109" points="35.35 35 30.79 34.62 30.79 34.6 35.35 34.98 35.35 35"/>
        <polygon class="cls-26" points="35.35 35.02 30.79 34.64 30.79 34.62 35.35 35 35.35 35.02"/>
        <polygon class="cls-38" points="35.35 35.04 30.79 34.67 30.79 34.64 35.35 35.02 35.35 35.04"/>
        <polygon class="cls-161" points="35.35 35.06 30.79 34.69 30.79 34.67 35.35 35.04 35.35 35.06"/>
        <polygon class="cls-116" points="35.35 35.08 30.79 34.71 30.79 34.69 35.35 35.06 35.35 35.08"/>
        <polygon class="cls-108" points="35.35 35.1 30.79 34.73 30.79 34.71 35.35 35.08 35.35 35.1"/>
        <polygon class="cls-106" points="35.35 35.13 30.79 34.75 30.79 34.73 35.35 35.1 35.35 35.13"/>
        <polygon class="cls-102" points="35.35 35.15 30.79 34.77 30.79 34.75 35.35 35.13 35.35 35.15"/>
        <polygon class="cls-78" points="35.35 35.17 30.79 34.79 30.79 34.77 35.35 35.15 35.35 35.17"/>
        <polygon class="cls-6" points="35.35 35.19 30.79 34.81 30.79 34.79 35.35 35.17 35.35 35.19"/>
        <polygon class="cls-114" points="35.35 35.21 30.79 34.83 30.79 34.81 35.35 35.19 35.35 35.21"/>
        <polygon class="cls-124" points="35.35 35.23 30.79 34.85 30.79 34.83 35.35 35.21 35.35 35.23"/>
        <polygon class="cls-112" points="35.35 35.25 30.79 34.88 30.79 34.85 35.35 35.23 35.35 35.25"/>
        <polygon class="cls-153" points="35.35 35.27 30.79 34.9 30.79 34.88 35.35 35.25 35.35 35.27"/>
        <polygon class="cls-74" points="35.35 35.29 30.79 34.92 30.79 34.9 35.35 35.27 35.35 35.29"/>
        <polygon class="cls-100" points="35.35 35.31 30.79 34.94 30.79 34.92 35.35 35.29 35.35 35.31"/>
        <polygon class="cls-80" points="35.35 35.34 30.79 34.96 30.79 34.94 35.35 35.31 35.35 35.34"/>
        <polygon class="cls-129" points="35.35 35.36 30.79 34.98 30.79 34.96 35.35 35.34 35.35 35.36"/>
        <polygon class="cls-133" points="35.35 35.38 30.79 35 30.79 34.98 35.35 35.36 35.35 35.38"/>
        <polygon class="cls-103" points="35.35 35.4 30.79 35.02 30.79 35 35.35 35.38 35.35 35.4"/>
        <polygon class="cls-178" points="35.35 35.42 30.79 35.04 30.79 35.02 35.35 35.4 35.35 35.42"/>
        <polygon class="cls-22" points="35.35 35.44 30.79 35.06 30.79 35.04 35.35 35.42 35.35 35.44"/>
        <polygon class="cls-66" points="35.35 35.46 30.79 35.09 30.79 35.06 35.35 35.44 35.35 35.46"/>
        <polygon class="cls-32" points="35.35 35.48 30.79 35.11 30.79 35.09 35.35 35.46 35.35 35.48"/>
        <polygon class="cls-67" points="35.35 35.5 30.79 35.13 30.79 35.11 35.35 35.48 35.35 35.5"/>
        <polygon class="cls-155" points="35.35 35.52 30.79 35.15 30.79 35.13 35.35 35.5 35.35 35.52"/>
        <polygon class="cls-28" points="35.35 35.55 30.79 35.17 30.79 35.15 35.35 35.52 35.35 35.55"/>
        <polygon class="cls-53" points="35.35 35.57 30.79 35.19 30.79 35.17 35.35 35.55 35.35 35.57"/>
        <polygon class="cls-141" points="35.35 35.59 30.79 35.21 30.79 35.19 35.35 35.57 35.35 35.59"/>
        <polygon class="cls-165" points="35.35 35.61 30.79 35.23 30.79 35.21 35.35 35.59 35.35 35.61"/>
        <polygon class="cls-121" points="35.35 35.63 30.79 35.25 30.79 35.23 35.35 35.61 35.35 35.63"/>
        <polygon class="cls-101" points="35.35 35.65 30.79 35.27 30.79 35.25 35.35 35.63 35.35 35.65"/>
        <polygon class="cls-83" points="35.35 35.67 30.79 35.3 30.79 35.27 35.35 35.65 35.35 35.67"/>
        <polygon class="cls-173" points="35.35 35.69 30.79 35.32 30.79 35.3 35.35 35.67 35.35 35.69"/>
        <polygon class="cls-132" points="35.35 35.71 30.79 35.34 30.79 35.32 35.35 35.69 35.35 35.71"/>
        <polygon class="cls-162" points="35.35 35.73 30.79 35.36 30.79 35.34 35.35 35.71 35.35 35.73"/>
        <polygon class="cls-40" points="35.35 35.76 30.79 35.38 30.79 35.36 35.35 35.73 35.35 35.76"/>
        <polygon class="cls-179" points="35.35 35.78 30.79 35.4 30.79 35.38 35.35 35.76 35.35 35.78"/>
        <polygon class="cls-21" points="35.35 35.8 30.79 35.42 30.79 35.4 35.35 35.78 35.35 35.8"/>
        <polygon class="cls-143" points="35.35 35.82 30.79 35.44 30.79 35.42 35.35 35.8 35.35 35.82"/>
        <polygon class="cls-69" points="35.35 35.84 30.79 35.46 30.79 35.44 35.35 35.82 35.35 35.84"/>
        <polygon class="cls-95" points="35.35 35.86 30.79 35.48 30.79 35.46 35.35 35.84 35.35 35.86"/>
        <polygon class="cls-156" points="35.35 35.88 30.79 35.51 30.79 35.48 35.35 35.86 35.35 35.88"/>
        <polygon class="cls-43" points="35.35 35.9 30.79 35.53 30.79 35.51 35.35 35.88 35.35 35.9"/>
        <polygon class="cls-46" points="35.35 35.92 30.79 35.55 30.79 35.53 35.35 35.9 35.35 35.92"/>
        <polygon class="cls-135" points="35.35 35.94 30.79 35.57 30.79 35.55 35.35 35.92 35.35 35.94"/>
        <polygon class="cls-62" points="35.35 35.97 30.79 35.59 30.79 35.57 35.35 35.94 35.35 35.97"/>
        <polygon class="cls-10" points="35.35 35.99 30.79 35.61 30.79 35.59 35.35 35.97 35.35 35.99"/>
        <polygon class="cls-134" points="35.35 36.01 30.79 35.63 30.79 35.61 35.35 35.99 35.35 36.01"/>
        <polygon class="cls-49" points="35.35 36.03 30.79 35.65 30.79 35.63 35.35 36.01 35.35 36.03"/>
        <polygon class="cls-117" points="35.35 36.05 30.79 35.67 30.79 35.65 35.35 36.03 35.35 36.05"/>
        <polygon class="cls-142" points="35.35 36.07 30.79 35.69 30.79 35.67 35.35 36.05 35.35 36.07"/>
        <polygon class="cls-104" points="35.35 36.09 30.79 35.72 30.79 35.69 35.35 36.07 35.35 36.09"/>
        <polygon class="cls-89" points="35.35 36.11 30.79 35.74 30.79 35.72 35.35 36.09 35.35 36.11"/>
        <polygon class="cls-91" points="35.35 36.13 30.79 35.76 30.79 35.74 35.35 36.11 35.35 36.13"/>
        <polygon class="cls-94" points="35.35 36.15 30.79 35.78 30.79 35.76 35.35 36.13 35.35 36.15"/>
        <polygon class="cls-148" points="35.35 36.18 30.79 35.8 30.79 35.78 35.35 36.15 35.35 36.18"/>
        <polygon class="cls-59" points="35.35 36.2 30.79 35.82 30.79 35.8 35.35 36.18 35.35 36.2"/>
        <polygon class="cls-73" points="35.35 36.22 30.79 35.84 30.79 35.82 35.35 36.2 35.35 36.22"/>
        <polygon class="cls-15" points="35.35 36.24 30.79 35.86 30.79 35.84 35.35 36.22 35.35 36.24"/>
        <polygon class="cls-85" points="35.35 36.26 30.79 35.88 30.79 35.86 35.35 36.24 35.35 36.26"/>
        <polygon class="cls-85" points="35.35 36.28 30.79 35.9 30.79 35.88 35.35 36.26 35.35 36.28"/>
        <polygon class="cls-96" points="35.35 36.3 30.79 35.93 30.79 35.9 35.35 36.28 35.35 36.3"/>
        <polygon class="cls-27" points="35.35 36.32 30.79 35.95 30.79 35.93 35.35 36.3 35.35 36.32"/>
        <polygon class="cls-27" points="35.35 36.34 30.79 35.97 30.79 35.95 35.35 36.32 35.35 36.34"/>
        <polygon class="cls-169" points="35.35 36.36 30.79 35.99 30.79 35.97 35.35 36.34 35.35 36.36"/>
        <polygon class="cls-76" points="35.35 36.39 30.79 36.01 30.79 35.99 35.35 36.36 35.35 36.39"/>
        <polygon class="cls-164" points="35.35 36.41 30.79 36.03 30.79 36.01 35.35 36.39 35.35 36.41"/>
        <polygon class="cls-82" points="35.35 36.43 30.79 36.05 30.79 36.03 35.35 36.41 35.35 36.43"/>
        <polygon class="cls-34" points="35.35 36.45 30.79 36.07 30.79 36.05 35.35 36.43 35.35 36.45"/>
        <polygon class="cls-136" points="35.35 36.47 30.79 36.09 30.79 36.07 35.35 36.45 35.35 36.47"/>
        <polygon class="cls-177" points="35.35 36.49 30.79 36.11 30.79 36.09 35.35 36.47 35.35 36.49"/>
        <polygon class="cls-77" points="35.35 36.51 30.79 36.14 30.79 36.11 35.35 36.49 35.35 36.51"/>
        <polygon class="cls-37" points="35.35 36.53 30.79 36.16 30.79 36.14 35.35 36.51 35.35 36.53"/>
        <polygon class="cls-20" points="35.35 36.55 30.79 36.18 30.79 36.16 35.35 36.53 35.35 36.55"/>
        <polygon class="cls-33" points="35.35 36.57 30.79 36.2 30.79 36.18 35.35 36.55 35.35 36.57"/>
        <polygon class="cls-127" points="35.35 36.6 30.79 36.22 30.79 36.2 35.35 36.57 35.35 36.6"/>
        <polygon class="cls-90" points="35.35 36.62 30.79 36.24 30.79 36.22 35.35 36.6 35.35 36.62"/>
        <polygon class="cls-171" points="35.35 36.64 30.79 36.26 30.79 36.24 35.35 36.62 35.35 36.64"/>
        <polygon class="cls-31" points="35.35 36.66 30.79 36.28 30.79 36.26 35.35 36.64 35.35 36.66"/>
        <polygon class="cls-120" points="35.35 36.68 30.79 36.3 30.79 36.28 35.35 36.66 35.35 36.68"/>
        <polygon class="cls-110" points="35.35 36.7 30.79 36.32 30.79 36.3 35.35 36.68 35.35 36.7"/>
        <polygon class="cls-8" points="35.35 36.72 30.79 36.35 30.79 36.32 35.35 36.7 35.35 36.72"/>
        <polygon class="cls-139" points="35.35 36.74 30.79 36.37 30.79 36.35 35.35 36.72 35.35 36.74"/>
        <polygon class="cls-139" points="35.35 36.76 30.79 36.39 30.79 36.37 35.35 36.74 35.35 36.76"/>
        <polygon class="cls-29" points="35.35 36.78 30.79 36.41 30.79 36.39 35.35 36.76 35.35 36.78"/>
        <polygon class="cls-18" points="35.35 36.81 30.79 36.43 30.79 36.41 35.35 36.78 35.35 36.81"/>
        <polygon class="cls-125" points="35.35 36.83 30.79 36.45 30.79 36.43 35.35 36.81 35.35 36.83"/>
        <polygon class="cls-93" points="35.35 36.85 30.79 36.47 30.79 36.45 35.35 36.83 35.35 36.85"/>
        <polygon class="cls-128" points="35.35 36.87 30.79 36.49 30.79 36.47 35.35 36.85 35.35 36.87"/>
        <polygon class="cls-128" points="35.35 36.89 30.79 36.51 30.79 36.49 35.35 36.87 35.35 36.89"/>
        <polygon class="cls-56" points="35.35 36.91 30.79 36.53 30.79 36.51 35.35 36.89 35.35 36.91"/>
        <polygon class="cls-56" points="35.35 36.93 30.79 36.56 30.79 36.53 35.35 36.91 35.35 36.93"/>
        <polygon class="cls-54" points="35.35 36.95 30.79 36.58 30.79 36.56 35.35 36.93 35.35 36.95"/>
        <polygon class="cls-170" points="35.35 36.97 30.79 36.6 30.79 36.58 35.35 36.95 35.35 36.97"/>
        <polygon class="cls-170" points="35.35 36.99 30.79 36.62 30.79 36.6 35.35 36.97 35.35 36.99"/>
        <polygon class="cls-9" points="35.35 37.02 30.79 36.64 30.79 36.62 35.35 36.99 35.35 37.02"/>
        <polygon class="cls-72" points="35.35 37.04 30.79 36.66 30.79 36.64 35.35 37.02 35.35 37.04"/>
        <polygon class="cls-154" points="35.35 37.06 30.79 36.68 30.79 36.66 35.35 37.04 35.35 37.06"/>
        <polygon class="cls-60" points="35.35 37.08 30.79 36.7 30.79 36.68 35.35 37.06 35.35 37.08"/>
        <polygon class="cls-174" points="35.35 37.1 30.79 36.72 30.79 36.7 35.35 37.08 35.35 37.1"/>
        <polygon class="cls-113" points="35.35 37.12 30.79 36.74 30.79 36.72 35.35 37.1 35.35 37.12"/>
        <polygon class="cls-113" points="35.35 37.14 30.79 36.77 30.79 36.74 35.35 37.12 35.35 37.14"/>
        <polygon class="cls-3" points="35.35 37.16 30.79 36.79 30.79 36.77 35.35 37.14 35.35 37.16"/>
        <polygon class="cls-51" points="35.35 37.18 30.79 36.81 30.79 36.79 35.35 37.16 35.35 37.18"/>
        <polygon class="cls-158" points="35.35 37.2 30.79 36.83 30.79 36.81 35.35 37.18 35.35 37.2"/>
        <polygon class="cls-158" points="35.35 37.23 30.79 36.85 30.79 36.83 35.35 37.2 35.35 37.23"/>
        <polygon class="cls-88" points="35.35 37.25 30.79 36.87 30.79 36.85 35.35 37.23 35.35 37.25"/>
        <polygon class="cls-45" points="35.35 37.27 30.79 36.89 30.79 36.87 35.35 37.25 35.35 37.27"/>
        <polygon class="cls-45" points="35.35 37.29 30.79 36.91 30.79 36.89 35.35 37.27 35.35 37.29"/>
        <polygon class="cls-98" points="35.35 37.31 30.79 36.93 30.79 36.91 35.35 37.29 35.35 37.31"/>
        <polygon class="cls-98" points="35.35 37.33 30.79 36.95 30.79 36.93 35.35 37.31 35.35 37.33"/>
        <polygon class="cls-107" points="35.35 37.35 30.79 36.98 30.79 36.95 35.35 37.33 35.35 37.35"/>
        <polygon class="cls-14" points="35.35 37.37 30.79 37 30.79 36.98 35.35 37.35 35.35 37.37"/>
        <polygon class="cls-105" points="35.35 37.39 30.79 37.02 30.79 37 35.35 37.37 35.35 37.39"/>
        <polygon class="cls-105" points="35.35 37.41 30.79 37.04 30.79 37.02 35.35 37.39 35.35 37.41"/>
        <polygon class="cls-41" points="35.35 37.44 30.79 37.06 30.79 37.04 35.35 37.41 35.35 37.44"/>
        <polygon class="cls-175" points="35.35 37.46 30.79 37.08 30.79 37.06 35.35 37.44 35.35 37.46"/>
        <polygon class="cls-175" points="35.35 37.48 30.79 37.1 30.79 37.08 35.35 37.46 35.35 37.48"/>
        <polygon class="cls-115" points="35.35 37.5 30.79 37.12 30.79 37.1 35.35 37.48 35.35 37.5"/>
        <polygon class="cls-55" points="35.35 37.52 30.79 37.14 30.79 37.12 35.35 37.5 35.35 37.52"/>
        <polygon class="cls-30" points="35.35 37.54 30.79 37.16 30.79 37.14 35.35 37.52 35.35 37.54"/>
        <polygon class="cls-24" points="35.35 37.56 30.79 37.19 30.79 37.16 35.35 37.54 35.35 37.56"/>
        <polygon class="cls-24" points="35.35 37.58 30.79 37.21 30.79 37.19 35.35 37.56 35.35 37.58"/>
        <polygon class="cls-167" points="35.35 37.6 30.79 37.23 30.79 37.21 35.35 37.58 35.35 37.6"/>
        <polygon class="cls-130" points="35.35 37.62 30.79 37.25 30.79 37.23 35.35 37.6 35.35 37.62"/>
        <polygon class="cls-130" points="35.35 37.65 30.79 37.27 30.79 37.25 35.35 37.62 35.35 37.65"/>
        <polygon class="cls-130" points="35.35 37.67 30.79 37.29 30.79 37.27 35.35 37.65 35.35 37.67"/>
        <polygon class="cls-92" points="35.35 37.69 30.79 37.31 30.79 37.29 35.35 37.67 35.35 37.69"/>
        <polygon class="cls-92" points="35.35 37.71 30.79 37.33 30.79 37.31 35.35 37.69 35.35 37.71"/>
        <polygon class="cls-81" points="35.35 37.73 30.79 37.35 30.79 37.33 35.35 37.71 35.35 37.73"/>
        <polygon class="cls-81" points="35.35 37.75 30.79 37.37 30.79 37.35 35.35 37.73 35.35 37.75"/>
        <polygon class="cls-140" points="35.35 37.77 30.79 37.4 30.79 37.37 35.35 37.75 35.35 37.77"/>
        <polygon class="cls-4" points="35.35 37.79 30.79 37.42 30.79 37.4 35.35 37.77 35.35 37.79"/>
        <polygon class="cls-4" points="35.35 37.81 30.79 37.44 30.79 37.42 35.35 37.79 35.35 37.81"/>
        <polygon class="cls-44" points="35.35 37.83 30.79 37.46 30.79 37.44 35.35 37.81 35.35 37.83"/>
        <polygon class="cls-61" points="35.35 37.86 30.79 37.48 30.79 37.46 35.35 37.83 35.35 37.86"/>
        <polygon class="cls-87" points="35.35 37.88 30.79 37.5 30.79 37.48 35.35 37.86 35.35 37.88"/>
        <polygon class="cls-87" points="35.35 37.9 30.79 37.52 30.79 37.5 35.35 37.88 35.35 37.9"/>
        <polygon class="cls-87" points="35.35 37.92 30.79 37.54 30.79 37.52 35.35 37.9 35.35 37.92"/>
        <polygon class="cls-176" points="35.35 37.94 30.79 37.56 30.79 37.54 35.35 37.92 35.35 37.94"/>
        <polygon class="cls-11" points="35.35 37.96 30.79 37.58 30.79 37.56 35.35 37.94 35.35 37.96"/>
        <polygon class="cls-11" points="35.35 37.98 30.79 37.61 30.79 37.58 35.35 37.96 35.35 37.98"/>
        <polygon class="cls-172" points="35.35 38 30.79 37.63 30.79 37.61 35.35 37.98 35.35 38"/>
        <polygon class="cls-138" points="35.35 38.02 30.79 37.65 30.79 37.63 35.35 38 35.35 38.02"/>
        <polygon class="cls-138" points="35.35 38.05 30.79 37.67 30.79 37.65 35.35 38.02 35.35 38.05"/>
        <polygon class="cls-138" points="35.35 38.07 30.79 37.69 30.79 37.67 35.35 38.05 35.35 38.07"/>
        <polygon class="cls-138" points="35.35 38.09 30.79 37.71 30.79 37.69 35.35 38.07 35.35 38.09"/>
        <polygon class="cls-39" points="35.35 38.11 30.79 37.73 30.79 37.71 35.35 38.09 35.35 38.11"/>
        <polygon class="cls-99" points="35.35 38.13 30.79 37.75 30.79 37.73 35.35 38.11 35.35 38.13"/>
        <polygon class="cls-19" points="35.29 38.15 30.79 37.77 30.79 37.75 35.35 38.13 35.35 38.15 35.29 38.15"/>
        <polygon class="cls-19" points="35.04 38.15 30.79 37.79 30.79 37.77 35.29 38.15 35.04 38.15"/>
        <polygon class="cls-19" points="34.79 38.15 30.79 37.82 30.79 37.79 35.04 38.15 34.79 38.15"/>
        <polygon class="cls-19" points="34.53 38.15 30.79 37.84 30.79 37.82 34.79 38.15 34.53 38.15"/>
        <polygon class="cls-19" points="34.28 38.15 30.79 37.86 30.79 37.84 34.53 38.15 34.28 38.15"/>
        <polygon class="cls-19" points="34.02 38.15 30.79 37.88 30.79 37.86 34.28 38.15 34.02 38.15"/>
        <polygon class="cls-68" points="33.77 38.15 30.79 37.9 30.79 37.88 34.02 38.15 33.77 38.15"/>
        <polygon class="cls-149" points="33.51 38.15 30.79 37.92 30.79 37.9 33.77 38.15 33.51 38.15"/>
        <polygon class="cls-149" points="33.26 38.15 30.79 37.94 30.79 37.92 33.51 38.15 33.26 38.15"/>
        <polygon class="cls-149" points="33.01 38.15 30.79 37.96 30.79 37.94 33.26 38.15 33.01 38.15"/>
        <polygon class="cls-149" points="32.75 38.15 30.79 37.98 30.79 37.96 33.01 38.15 32.75 38.15"/>
        <polygon class="cls-149" points="32.5 38.15 30.79 38 30.79 37.98 32.75 38.15 32.5 38.15"/>
        <polygon class="cls-149" points="32.24 38.15 30.79 38.03 30.79 38 32.5 38.15 32.24 38.15"/>
        <polygon class="cls-149" points="31.99 38.15 30.79 38.05 30.79 38.03 32.24 38.15 31.99 38.15"/>
        <polygon class="cls-35" points="31.73 38.15 30.79 38.07 30.79 38.05 31.99 38.15 31.73 38.15"/>
        <polygon class="cls-35" points="31.48 38.15 30.79 38.09 30.79 38.07 31.73 38.15 31.48 38.15"/>
        <polygon class="cls-52" points="31.22 38.15 30.79 38.11 30.79 38.09 31.48 38.15 31.22 38.15"/>
        <polygon class="cls-52" points="30.97 38.15 30.79 38.13 30.79 38.11 31.22 38.15 30.97 38.15"/>
        <polygon class="cls-52" points="30.79 38.13 30.97 38.15 30.79 38.15 30.79 38.13"/>
      </g>
      <path class="cls-42" d="M32.97,37.37c-.64-.05-1.14-.7-1.08-1.4.06-.71.65-1.26,1.29-1.21.64.05,1.14.7,1.08,1.4-.06.71-.65,1.26-1.29,1.21Z"/>
      <path class="cls-131" d="M33.02,37.12c-.45-.04-.91-.52-.86-1.13.05-.6.59-1.01,1.03-.97.45.04.91.53.86,1.13-.05.6-.59,1.01-1.03.97Z"/>
      <g class="cls-119">
        <path class="cls-152" d="M36.61,38.92s-.05,0-.17.04c-.08-1.3-.33-3.09-1.07-3.45-1.09-.55-3.55-1.36-6.7.57-.32-.57-.48-.99-.48-.99,3.43-2.45,6.13-1.57,7.3-.99,1.18.59,1.12,4.81,1.12,4.81Z"/>
      </g>
      <path class="cls-97" d="M32.66,35.64c-.02.22-.24.38-.5.35-.26-.02-.45-.22-.43-.43.02-.22.24-.38.5-.36.26.02.45.21.44.43Z"/>
      <path class="cls-97" d="M34.1,36.89c0,.11-.12.19-.25.18-.13,0-.23-.11-.22-.22,0-.11.12-.19.25-.18.13,0,.23.11.22.22Z"/>
      <path class="cls-163" d="M43.57,32.86s.38-.58,1.16-1.18c.39-.3.88-.62,1.45-.86.57-.24,1.21-.42,1.87-.51.66-.07,1.32-.03,1.92.05.6.11,1.14.29,1.58.48.45.15.78.4,1.02.53.23.15.37.23.37.23,0,0-.15-.04-.42-.1-.26-.07-.63-.18-1.09-.24-.23-.03-.46-.1-.72-.11-.26-.02-.52-.04-.8-.06-.55,0-1.14.02-1.71.15-.57.1-1.12.28-1.61.5-.49.23-.94.46-1.3.71-.74.49-1.14.89-1.14.89-.15.15-.39.15-.54,0-.13-.13-.15-.33-.05-.48h0Z"/>
      <path class="cls-97" d="M53.33,35.1s-1.46,3.64-3.73,3.99c-2.27.35-4.68-.16-4.68-.16,0,0-.06-4.22,1.12-4.81,1.18-.59,3.87-1.46,7.3.98Z"/>
      <g class="cls-119">
        <path class="cls-152" d="M44.92,38.92s.05,0,.17.04c.08-1.3.34-3.09,1.07-3.45,1.09-.55,3.55-1.36,6.7.57.32-.57.48-.99.48-.99-3.43-2.45-6.13-1.57-7.3-.99-1.18.59-1.12,4.81-1.12,4.81Z"/>
      </g>
      <g class="cls-79">
        <polygon class="cls-123" points="50.75 34.33 46.19 33.96 46.19 33.53 50.75 33.53 50.75 34.33"/>
        <polygon class="cls-123" points="50.75 34.35 46.19 33.98 46.19 33.96 50.75 34.33 50.75 34.35"/>
        <polygon class="cls-168" points="50.75 34.37 46.19 34 46.19 33.98 50.75 34.35 50.75 34.37"/>
        <polygon class="cls-160" points="50.75 34.4 46.19 34.02 46.19 34 50.75 34.37 50.75 34.4"/>
        <polygon class="cls-86" points="50.75 34.42 46.19 34.04 46.19 34.02 50.75 34.4 50.75 34.42"/>
        <polygon class="cls-13" points="50.75 34.44 46.19 34.06 46.19 34.04 50.75 34.42 50.75 34.44"/>
        <polygon class="cls-137" points="50.75 34.46 46.19 34.08 46.19 34.06 50.75 34.44 50.75 34.46"/>
        <polygon class="cls-65" points="50.75 34.48 46.19 34.1 46.19 34.08 50.75 34.46 50.75 34.48"/>
        <polygon class="cls-2" points="50.75 34.5 46.19 34.12 46.19 34.1 50.75 34.48 50.75 34.5"/>
        <polygon class="cls-12" points="50.75 34.52 46.19 34.15 46.19 34.12 50.75 34.5 50.75 34.52"/>
        <polygon class="cls-70" points="50.75 34.54 46.19 34.17 46.19 34.15 50.75 34.52 50.75 34.54"/>
        <polygon class="cls-47" points="50.75 34.56 46.19 34.19 46.19 34.17 50.75 34.54 50.75 34.56"/>
        <polygon class="cls-63" points="50.75 34.58 46.19 34.21 46.19 34.19 50.75 34.56 50.75 34.58"/>
        <polygon class="cls-111" points="50.75 34.61 46.19 34.23 46.19 34.21 50.75 34.58 50.75 34.61"/>
        <polygon class="cls-147" points="50.75 34.63 46.19 34.25 46.19 34.23 50.75 34.61 50.75 34.63"/>
        <polygon class="cls-144" points="50.75 34.65 46.19 34.27 46.19 34.25 50.75 34.63 50.75 34.65"/>
        <polygon class="cls-64" points="50.75 34.67 46.19 34.29 46.19 34.27 50.75 34.65 50.75 34.67"/>
        <polygon class="cls-48" points="50.75 34.69 46.19 34.31 46.19 34.29 50.75 34.67 50.75 34.69"/>
        <polygon class="cls-159" points="50.75 34.71 46.19 34.33 46.19 34.31 50.75 34.69 50.75 34.71"/>
        <polygon class="cls-151" points="50.75 34.73 46.19 34.36 46.19 34.33 50.75 34.71 50.75 34.73"/>
        <polygon class="cls-122" points="50.75 34.75 46.19 34.38 46.19 34.36 50.75 34.73 50.75 34.75"/>
        <polygon class="cls-145" points="50.75 34.77 46.19 34.4 46.19 34.38 50.75 34.75 50.75 34.77"/>
        <polygon class="cls-126" points="50.75 34.79 46.19 34.42 46.19 34.4 50.75 34.77 50.75 34.79"/>
        <polygon class="cls-16" points="50.75 34.82 46.19 34.44 46.19 34.42 50.75 34.79 50.75 34.82"/>
        <polygon class="cls-157" points="50.75 34.84 46.19 34.46 46.19 34.44 50.75 34.82 50.75 34.84"/>
        <polygon class="cls-17" points="50.75 34.86 46.19 34.48 46.19 34.46 50.75 34.84 50.75 34.86"/>
        <polygon class="cls-109" points="50.75 34.88 46.19 34.5 46.19 34.48 50.75 34.86 50.75 34.88"/>
        <polygon class="cls-26" points="50.75 34.9 46.19 34.52 46.19 34.5 50.75 34.88 50.75 34.9"/>
        <polygon class="cls-38" points="50.75 34.92 46.19 34.54 46.19 34.52 50.75 34.9 50.75 34.92"/>
        <polygon class="cls-161" points="50.75 34.94 46.19 34.57 46.19 34.54 50.75 34.92 50.75 34.94"/>
        <polygon class="cls-116" points="50.75 34.96 46.19 34.59 46.19 34.57 50.75 34.94 50.75 34.96"/>
        <polygon class="cls-108" points="50.75 34.98 46.19 34.61 46.19 34.59 50.75 34.96 50.75 34.98"/>
        <polygon class="cls-106" points="50.75 35 46.19 34.63 46.19 34.61 50.75 34.98 50.75 35"/>
        <polygon class="cls-102" points="50.75 35.03 46.19 34.65 46.19 34.63 50.75 35 50.75 35.03"/>
        <polygon class="cls-78" points="50.75 35.05 46.19 34.67 46.19 34.65 50.75 35.03 50.75 35.05"/>
        <polygon class="cls-6" points="50.75 35.07 46.19 34.69 46.19 34.67 50.75 35.05 50.75 35.07"/>
        <polygon class="cls-114" points="50.75 35.09 46.19 34.71 46.19 34.69 50.75 35.07 50.75 35.09"/>
        <polygon class="cls-124" points="50.75 35.11 46.19 34.73 46.19 34.71 50.75 35.09 50.75 35.11"/>
        <polygon class="cls-112" points="50.75 35.13 46.19 34.75 46.19 34.73 50.75 35.11 50.75 35.13"/>
        <polygon class="cls-153" points="50.75 35.15 46.19 34.78 46.19 34.75 50.75 35.13 50.75 35.15"/>
        <polygon class="cls-74" points="50.75 35.17 46.19 34.8 46.19 34.78 50.75 35.15 50.75 35.17"/>
        <polygon class="cls-100" points="50.75 35.19 46.19 34.82 46.19 34.8 50.75 35.17 50.75 35.19"/>
        <polygon class="cls-80" points="50.75 35.21 46.19 34.84 46.19 34.82 50.75 35.19 50.75 35.21"/>
        <polygon class="cls-129" points="50.75 35.24 46.19 34.86 46.19 34.84 50.75 35.21 50.75 35.24"/>
        <polygon class="cls-133" points="50.75 35.26 46.19 34.88 46.19 34.86 50.75 35.24 50.75 35.26"/>
        <polygon class="cls-103" points="50.75 35.28 46.19 34.9 46.19 34.88 50.75 35.26 50.75 35.28"/>
        <polygon class="cls-178" points="50.75 35.3 46.19 34.92 46.19 34.9 50.75 35.28 50.75 35.3"/>
        <polygon class="cls-22" points="50.75 35.32 46.19 34.94 46.19 34.92 50.75 35.3 50.75 35.32"/>
        <polygon class="cls-66" points="50.75 35.34 46.19 34.96 46.19 34.94 50.75 35.32 50.75 35.34"/>
        <polygon class="cls-32" points="50.75 35.36 46.19 34.99 46.19 34.96 50.75 35.34 50.75 35.36"/>
        <polygon class="cls-67" points="50.75 35.38 46.19 35.01 46.19 34.99 50.75 35.36 50.75 35.38"/>
        <polygon class="cls-155" points="50.75 35.4 46.19 35.03 46.19 35.01 50.75 35.38 50.75 35.4"/>
        <polygon class="cls-28" points="50.75 35.42 46.19 35.05 46.19 35.03 50.75 35.4 50.75 35.42"/>
        <polygon class="cls-53" points="50.75 35.45 46.19 35.07 46.19 35.05 50.75 35.42 50.75 35.45"/>
        <polygon class="cls-141" points="50.75 35.47 46.19 35.09 46.19 35.07 50.75 35.45 50.75 35.47"/>
        <polygon class="cls-165" points="50.75 35.49 46.19 35.11 46.19 35.09 50.75 35.47 50.75 35.49"/>
        <polygon class="cls-121" points="50.75 35.51 46.19 35.13 46.19 35.11 50.75 35.49 50.75 35.51"/>
        <polygon class="cls-101" points="50.75 35.53 46.19 35.15 46.19 35.13 50.75 35.51 50.75 35.53"/>
        <polygon class="cls-83" points="50.75 35.55 46.19 35.17 46.19 35.15 50.75 35.53 50.75 35.55"/>
        <polygon class="cls-173" points="50.75 35.57 46.19 35.2 46.19 35.17 50.75 35.55 50.75 35.57"/>
        <polygon class="cls-132" points="50.75 35.59 46.19 35.22 46.19 35.2 50.75 35.57 50.75 35.59"/>
        <polygon class="cls-162" points="50.75 35.61 46.19 35.24 46.19 35.22 50.75 35.59 50.75 35.61"/>
        <polygon class="cls-40" points="50.75 35.63 46.19 35.26 46.19 35.24 50.75 35.61 50.75 35.63"/>
        <polygon class="cls-179" points="50.75 35.66 46.19 35.28 46.19 35.26 50.75 35.63 50.75 35.66"/>
        <polygon class="cls-21" points="50.75 35.68 46.19 35.3 46.19 35.28 50.75 35.66 50.75 35.68"/>
        <polygon class="cls-143" points="50.75 35.7 46.19 35.32 46.19 35.3 50.75 35.68 50.75 35.7"/>
        <polygon class="cls-69" points="50.75 35.72 46.19 35.34 46.19 35.32 50.75 35.7 50.75 35.72"/>
        <polygon class="cls-95" points="50.75 35.74 46.19 35.36 46.19 35.34 50.75 35.72 50.75 35.74"/>
        <polygon class="cls-156" points="50.75 35.76 46.19 35.38 46.19 35.36 50.75 35.74 50.75 35.76"/>
        <polygon class="cls-43" points="50.75 35.78 46.19 35.41 46.19 35.38 50.75 35.76 50.75 35.78"/>
        <polygon class="cls-46" points="50.75 35.8 46.19 35.43 46.19 35.41 50.75 35.78 50.75 35.8"/>
        <polygon class="cls-135" points="50.75 35.82 46.19 35.45 46.19 35.43 50.75 35.8 50.75 35.82"/>
        <polygon class="cls-62" points="50.75 35.84 46.19 35.47 46.19 35.45 50.75 35.82 50.75 35.84"/>
        <polygon class="cls-10" points="50.75 35.87 46.19 35.49 46.19 35.47 50.75 35.84 50.75 35.87"/>
        <polygon class="cls-134" points="50.75 35.89 46.19 35.51 46.19 35.49 50.75 35.87 50.75 35.89"/>
        <polygon class="cls-49" points="50.75 35.91 46.19 35.53 46.19 35.51 50.75 35.89 50.75 35.91"/>
        <polygon class="cls-117" points="50.75 35.93 46.19 35.55 46.19 35.53 50.75 35.91 50.75 35.93"/>
        <polygon class="cls-142" points="50.75 35.95 46.19 35.57 46.19 35.55 50.75 35.93 50.75 35.95"/>
        <polygon class="cls-104" points="50.75 35.97 46.19 35.59 46.19 35.57 50.75 35.95 50.75 35.97"/>
        <polygon class="cls-89" points="50.75 35.99 46.19 35.62 46.19 35.59 50.75 35.97 50.75 35.99"/>
        <polygon class="cls-91" points="50.75 36.01 46.19 35.64 46.19 35.62 50.75 35.99 50.75 36.01"/>
        <polygon class="cls-94" points="50.75 36.03 46.19 35.66 46.19 35.64 50.75 36.01 50.75 36.03"/>
        <polygon class="cls-148" points="50.75 36.05 46.19 35.68 46.19 35.66 50.75 36.03 50.75 36.05"/>
        <polygon class="cls-59" points="50.75 36.08 46.19 35.7 46.19 35.68 50.75 36.05 50.75 36.08"/>
        <polygon class="cls-73" points="50.75 36.1 46.19 35.72 46.19 35.7 50.75 36.08 50.75 36.1"/>
        <polygon class="cls-15" points="50.75 36.12 46.19 35.74 46.19 35.72 50.75 36.1 50.75 36.12"/>
        <polygon class="cls-85" points="50.75 36.14 46.19 35.76 46.19 35.74 50.75 36.12 50.75 36.14"/>
        <polygon class="cls-85" points="50.75 36.16 46.19 35.78 46.19 35.76 50.75 36.14 50.75 36.16"/>
        <polygon class="cls-96" points="50.75 36.18 46.19 35.8 46.19 35.78 50.75 36.16 50.75 36.18"/>
        <polygon class="cls-27" points="50.75 36.2 46.19 35.83 46.19 35.8 50.75 36.18 50.75 36.2"/>
        <polygon class="cls-27" points="50.75 36.22 46.19 35.85 46.19 35.83 50.75 36.2 50.75 36.22"/>
        <polygon class="cls-169" points="50.75 36.24 46.19 35.87 46.19 35.85 50.75 36.22 50.75 36.24"/>
        <polygon class="cls-76" points="50.75 36.26 46.19 35.89 46.19 35.87 50.75 36.24 50.75 36.26"/>
        <polygon class="cls-164" points="50.75 36.29 46.19 35.91 46.19 35.89 50.75 36.26 50.75 36.29"/>
        <polygon class="cls-82" points="50.75 36.31 46.19 35.93 46.19 35.91 50.75 36.29 50.75 36.31"/>
        <polygon class="cls-34" points="50.75 36.33 46.19 35.95 46.19 35.93 50.75 36.31 50.75 36.33"/>
        <polygon class="cls-136" points="50.75 36.35 46.19 35.97 46.19 35.95 50.75 36.33 50.75 36.35"/>
        <polygon class="cls-177" points="50.75 36.37 46.19 35.99 46.19 35.97 50.75 36.35 50.75 36.37"/>
        <polygon class="cls-77" points="50.75 36.39 46.19 36.01 46.19 35.99 50.75 36.37 50.75 36.39"/>
        <polygon class="cls-37" points="50.75 36.41 46.19 36.04 46.19 36.01 50.75 36.39 50.75 36.41"/>
        <polygon class="cls-20" points="50.75 36.43 46.19 36.06 46.19 36.04 50.75 36.41 50.75 36.43"/>
        <polygon class="cls-33" points="50.75 36.45 46.19 36.08 46.19 36.06 50.75 36.43 50.75 36.45"/>
        <polygon class="cls-127" points="50.75 36.47 46.19 36.1 46.19 36.08 50.75 36.45 50.75 36.47"/>
        <polygon class="cls-90" points="50.75 36.5 46.19 36.12 46.19 36.1 50.75 36.47 50.75 36.5"/>
        <polygon class="cls-171" points="50.75 36.52 46.19 36.14 46.19 36.12 50.75 36.5 50.75 36.52"/>
        <polygon class="cls-31" points="50.75 36.54 46.19 36.16 46.19 36.14 50.75 36.52 50.75 36.54"/>
        <polygon class="cls-120" points="50.75 36.56 46.19 36.18 46.19 36.16 50.75 36.54 50.75 36.56"/>
        <polygon class="cls-110" points="50.75 36.58 46.19 36.2 46.19 36.18 50.75 36.56 50.75 36.58"/>
        <polygon class="cls-8" points="50.75 36.6 46.19 36.22 46.19 36.2 50.75 36.58 50.75 36.6"/>
        <polygon class="cls-139" points="50.75 36.62 46.19 36.25 46.19 36.22 50.75 36.6 50.75 36.62"/>
        <polygon class="cls-139" points="50.75 36.64 46.19 36.27 46.19 36.25 50.75 36.62 50.75 36.64"/>
        <polygon class="cls-29" points="50.75 36.66 46.19 36.29 46.19 36.27 50.75 36.64 50.75 36.66"/>
        <polygon class="cls-18" points="50.75 36.68 46.19 36.31 46.19 36.29 50.75 36.66 50.75 36.68"/>
        <polygon class="cls-125" points="50.75 36.71 46.19 36.33 46.19 36.31 50.75 36.68 50.75 36.71"/>
        <polygon class="cls-93" points="50.75 36.73 46.19 36.35 46.19 36.33 50.75 36.71 50.75 36.73"/>
        <polygon class="cls-128" points="50.75 36.75 46.19 36.37 46.19 36.35 50.75 36.73 50.75 36.75"/>
        <polygon class="cls-128" points="50.75 36.77 46.19 36.39 46.19 36.37 50.75 36.75 50.75 36.77"/>
        <polygon class="cls-56" points="50.75 36.79 46.19 36.41 46.19 36.39 50.75 36.77 50.75 36.79"/>
        <polygon class="cls-56" points="50.75 36.81 46.19 36.43 46.19 36.41 50.75 36.79 50.75 36.81"/>
        <polygon class="cls-54" points="50.75 36.83 46.19 36.46 46.19 36.43 50.75 36.81 50.75 36.83"/>
        <polygon class="cls-170" points="50.75 36.85 46.19 36.48 46.19 36.46 50.75 36.83 50.75 36.85"/>
        <polygon class="cls-170" points="50.75 36.87 46.19 36.5 46.19 36.48 50.75 36.85 50.75 36.87"/>
        <polygon class="cls-9" points="50.75 36.89 46.19 36.52 46.19 36.5 50.75 36.87 50.75 36.89"/>
        <polygon class="cls-72" points="50.75 36.92 46.19 36.54 46.19 36.52 50.75 36.89 50.75 36.92"/>
        <polygon class="cls-154" points="50.75 36.94 46.19 36.56 46.19 36.54 50.75 36.92 50.75 36.94"/>
        <polygon class="cls-60" points="50.75 36.96 46.19 36.58 46.19 36.56 50.75 36.94 50.75 36.96"/>
        <polygon class="cls-174" points="50.75 36.98 46.19 36.6 46.19 36.58 50.75 36.96 50.75 36.98"/>
        <polygon class="cls-113" points="50.75 37 46.19 36.62 46.19 36.6 50.75 36.98 50.75 37"/>
        <polygon class="cls-113" points="50.75 37.02 46.19 36.64 46.19 36.62 50.75 37 50.75 37.02"/>
        <polygon class="cls-3" points="50.75 37.04 46.19 36.67 46.19 36.64 50.75 37.02 50.75 37.04"/>
        <polygon class="cls-51" points="50.75 37.06 46.19 36.69 46.19 36.67 50.75 37.04 50.75 37.06"/>
        <polygon class="cls-158" points="50.75 37.08 46.19 36.71 46.19 36.69 50.75 37.06 50.75 37.08"/>
        <polygon class="cls-158" points="50.75 37.1 46.19 36.73 46.19 36.71 50.75 37.08 50.75 37.1"/>
        <polygon class="cls-88" points="50.75 37.13 46.19 36.75 46.19 36.73 50.75 37.1 50.75 37.13"/>
        <polygon class="cls-45" points="50.75 37.15 46.19 36.77 46.19 36.75 50.75 37.13 50.75 37.15"/>
        <polygon class="cls-45" points="50.75 37.17 46.19 36.79 46.19 36.77 50.75 37.15 50.75 37.17"/>
        <polygon class="cls-98" points="50.75 37.19 46.19 36.81 46.19 36.79 50.75 37.17 50.75 37.19"/>
        <polygon class="cls-98" points="50.75 37.21 46.19 36.83 46.19 36.81 50.75 37.19 50.75 37.21"/>
        <polygon class="cls-107" points="50.75 37.23 46.19 36.85 46.19 36.83 50.75 37.21 50.75 37.23"/>
        <polygon class="cls-14" points="50.75 37.25 46.19 36.88 46.19 36.85 50.75 37.23 50.75 37.25"/>
        <polygon class="cls-105" points="50.75 37.27 46.19 36.9 46.19 36.88 50.75 37.25 50.75 37.27"/>
        <polygon class="cls-105" points="50.75 37.29 46.19 36.92 46.19 36.9 50.75 37.27 50.75 37.29"/>
        <polygon class="cls-41" points="50.75 37.31 46.19 36.94 46.19 36.92 50.75 37.29 50.75 37.31"/>
        <polygon class="cls-175" points="50.75 37.34 46.19 36.96 46.19 36.94 50.75 37.31 50.75 37.34"/>
        <polygon class="cls-175" points="50.75 37.36 46.19 36.98 46.19 36.96 50.75 37.34 50.75 37.36"/>
        <polygon class="cls-115" points="50.75 37.38 46.19 37 46.19 36.98 50.75 37.36 50.75 37.38"/>
        <polygon class="cls-55" points="50.75 37.4 46.19 37.02 46.19 37 50.75 37.38 50.75 37.4"/>
        <polygon class="cls-30" points="50.75 37.42 46.19 37.04 46.19 37.02 50.75 37.4 50.75 37.42"/>
        <polygon class="cls-24" points="50.75 37.44 46.19 37.06 46.19 37.04 50.75 37.42 50.75 37.44"/>
        <polygon class="cls-24" points="50.75 37.46 46.19 37.09 46.19 37.06 50.75 37.44 50.75 37.46"/>
        <polygon class="cls-167" points="50.75 37.48 46.19 37.11 46.19 37.09 50.75 37.46 50.75 37.48"/>
        <polygon class="cls-130" points="50.75 37.5 46.19 37.13 46.19 37.11 50.75 37.48 50.75 37.5"/>
        <polygon class="cls-130" points="50.75 37.53 46.19 37.15 46.19 37.13 50.75 37.5 50.75 37.53"/>
        <polygon class="cls-130" points="50.75 37.55 46.19 37.17 46.19 37.15 50.75 37.53 50.75 37.55"/>
        <polygon class="cls-92" points="50.75 37.57 46.19 37.19 46.19 37.17 50.75 37.55 50.75 37.57"/>
        <polygon class="cls-92" points="50.75 37.59 46.19 37.21 46.19 37.19 50.75 37.57 50.75 37.59"/>
        <polygon class="cls-81" points="50.75 37.61 46.19 37.23 46.19 37.21 50.75 37.59 50.75 37.61"/>
        <polygon class="cls-81" points="50.75 37.63 46.19 37.25 46.19 37.23 50.75 37.61 50.75 37.63"/>
        <polygon class="cls-140" points="50.75 37.65 46.19 37.27 46.19 37.25 50.75 37.63 50.75 37.65"/>
        <polygon class="cls-4" points="50.75 37.67 46.19 37.3 46.19 37.27 50.75 37.65 50.75 37.67"/>
        <polygon class="cls-4" points="50.75 37.69 46.19 37.32 46.19 37.3 50.75 37.67 50.75 37.69"/>
        <polygon class="cls-44" points="50.75 37.71 46.19 37.34 46.19 37.32 50.75 37.69 50.75 37.71"/>
        <polygon class="cls-61" points="50.75 37.74 46.19 37.36 46.19 37.34 50.75 37.71 50.75 37.74"/>
        <polygon class="cls-87" points="50.75 37.76 46.19 37.38 46.19 37.36 50.75 37.74 50.75 37.76"/>
        <polygon class="cls-87" points="50.75 37.78 46.19 37.4 46.19 37.38 50.75 37.76 50.75 37.78"/>
        <polygon class="cls-87" points="50.75 37.8 46.19 37.42 46.19 37.4 50.75 37.78 50.75 37.8"/>
        <polygon class="cls-176" points="50.75 37.82 46.19 37.44 46.19 37.42 50.75 37.8 50.75 37.82"/>
        <polygon class="cls-11" points="50.75 37.84 46.19 37.46 46.19 37.44 50.75 37.82 50.75 37.84"/>
        <polygon class="cls-11" points="50.75 37.86 46.19 37.48 46.19 37.46 50.75 37.84 50.75 37.86"/>
        <polygon class="cls-172" points="50.75 37.88 46.19 37.51 46.19 37.48 50.75 37.86 50.75 37.88"/>
        <polygon class="cls-138" points="50.75 37.9 46.19 37.53 46.19 37.51 50.75 37.88 50.75 37.9"/>
        <polygon class="cls-138" points="50.75 37.92 46.19 37.55 46.19 37.53 50.75 37.9 50.75 37.92"/>
        <polygon class="cls-138" points="50.75 37.95 46.19 37.57 46.19 37.55 50.75 37.92 50.75 37.95"/>
        <polygon class="cls-138" points="50.75 37.97 46.19 37.59 46.19 37.57 50.75 37.95 50.75 37.97"/>
        <polygon class="cls-39" points="50.75 37.99 46.19 37.61 46.19 37.59 50.75 37.97 50.75 37.99"/>
        <polygon class="cls-99" points="50.75 38.01 46.19 37.63 46.19 37.61 50.75 37.99 50.75 38.01"/>
        <polygon class="cls-19" points="50.69 38.02 46.19 37.65 46.19 37.63 50.75 38.01 50.75 38.02 50.69 38.02"/>
        <polygon class="cls-19" points="50.44 38.02 46.19 37.67 46.19 37.65 50.69 38.02 50.44 38.02"/>
        <polygon class="cls-19" points="50.18 38.02 46.19 37.69 46.19 37.67 50.44 38.02 50.18 38.02"/>
        <polygon class="cls-19" points="49.93 38.02 46.19 37.72 46.19 37.69 50.18 38.02 49.93 38.02"/>
        <polygon class="cls-19" points="49.68 38.02 46.19 37.74 46.19 37.72 49.93 38.02 49.68 38.02"/>
        <polygon class="cls-19" points="49.42 38.02 46.19 37.76 46.19 37.74 49.68 38.02 49.42 38.02"/>
        <polygon class="cls-68" points="49.17 38.02 46.19 37.78 46.19 37.76 49.42 38.02 49.17 38.02"/>
        <polygon class="cls-149" points="48.91 38.02 46.19 37.8 46.19 37.78 49.17 38.02 48.91 38.02"/>
        <polygon class="cls-149" points="48.66 38.02 46.19 37.82 46.19 37.8 48.91 38.02 48.66 38.02"/>
        <polygon class="cls-149" points="48.4 38.02 46.19 37.84 46.19 37.82 48.66 38.02 48.4 38.02"/>
        <polygon class="cls-149" points="48.15 38.02 46.19 37.86 46.19 37.84 48.4 38.02 48.15 38.02"/>
        <polygon class="cls-149" points="47.9 38.02 46.19 37.88 46.19 37.86 48.15 38.02 47.9 38.02"/>
        <polygon class="cls-149" points="47.64 38.02 46.19 37.9 46.19 37.88 47.9 38.02 47.64 38.02"/>
        <polygon class="cls-149" points="47.39 38.02 46.19 37.93 46.19 37.9 47.64 38.02 47.39 38.02"/>
        <polygon class="cls-35" points="47.13 38.02 46.19 37.95 46.19 37.93 47.39 38.02 47.13 38.02"/>
        <polygon class="cls-35" points="46.88 38.02 46.19 37.97 46.19 37.95 47.13 38.02 46.88 38.02"/>
        <polygon class="cls-52" points="46.62 38.02 46.19 37.99 46.19 37.97 46.88 38.02 46.62 38.02"/>
        <polygon class="cls-52" points="46.37 38.02 46.19 38.01 46.19 37.99 46.62 38.02 46.37 38.02"/>
        <polygon class="cls-52" points="46.19 38.01 46.37 38.02 46.19 38.02 46.19 38.01"/>
      </g>
      <path class="cls-42" d="M48.37,37.25c-.64-.05-1.14-.7-1.08-1.4.06-.71.65-1.26,1.29-1.21.64.05,1.14.7,1.08,1.4-.06.71-.65,1.26-1.29,1.21Z"/>
      <path class="cls-131" d="M48.42,37c-.45-.04-.91-.52-.86-1.12.05-.6.59-1.01,1.03-.97.45.04.91.53.86,1.13-.05.6-.59,1.01-1.03.97Z"/>
      <path class="cls-97" d="M48.06,35.52c-.02.22-.24.38-.5.35-.26-.02-.45-.22-.43-.43.02-.22.24-.38.5-.36.26.02.45.21.44.43Z"/>
      <path class="cls-97" d="M49.5,36.77c0,.11-.12.19-.25.18-.13-.01-.23-.11-.22-.22,0-.11.12-.19.25-.18.13.01.23.11.22.22Z"/>
      <path class="cls-5" d="M22.17,37.77c.97-1.58,2.49-.91,2.87-.57.4.37.72.87.48,1.8-.13.52-.68.57-.54,1.37.16.89.57.95.8,1.15.23.2.53.35.68.73.14.37.17.77.1,1.12-.15.65-1.09.14-1.72-.14-.42-.18-1.74-1.29-2.08-1.65-.84-.94-1.25-2.74-.6-3.8"/>
      <path class="cls-25" d="M42.61,44.84c.34-.23.74-.12.74-.12,0,0,0,0-.01.02-.08.14-.54.87-.91.86,0,0-.08-.07-.1-.24-.03-.17.11-.4.28-.52Z"/>
      <path class="cls-97" d="M64.42,14.29s-1.16,1.58-5.14.35c-3.89-1.2-3.78-5.12-9.37-7.3-2.86-1.12-4.57-.97-5.56-.56,1-.77,3.06-.7,3.06-.7,0,0-2.54-1.31-6.47-.14-2.76.83-4.41,1.77-5.34,2.44l1.55-1.38s-5.59,1.86-9.39,5.68c-3.8,3.82-5.26,7.42-5.26,11.46s1.7,8.09,2.82,9.29c1.12,1.2.76,2.95,1.09,2.95,0,0,.67.02.69-3.02.08-1.03.43-2.68,1.86-2.19.08.03.15.07.23.09.01,0,.03.01.04.02h0c1.86.7,3.48.75,4.87.45v.02s4.33-.36,8.48-5.53c.07-.07.15-.15.22-.22.9-.99,1.65-2.29,2.26-3.58-.03.46-.07.93-.08,1.42-.14,6.24-5.59,8.79-5.59,8.79,0,0,8.95-1.97,13.58-8.29.04,4.05-4.57,6.95-4.57,6.95,0,0,4.58-1.44,6.36-4.01.28-.4.53-.8.76-1.19.6,1.8.79,3.53.6,4.4-.83,3.95.33,6.23.78,6.12,0,0,.02-1,.42-1.9,1.2-2.67,2.21-.81,2.4-4.43.22-4.23.92-5.78.69-8.04-.22-2.21-1.37-5.17-1.37-5.18,0,0,.05.01.55.01,3.07,0,4.79-2.78,4.79-2.78Z"/>
      <g>
        <path class="cls-50" d="M59.8,31.81c-1.52-.64-8.35-.12-11.62.93-2.34.76-4,1.44-4.77,1.96h0c-2.54,1.51-4.88.08-4.88.08h0c-.71-.54-2.42-1.25-4.89-2.05-3.27-1.05-10.1-1.57-11.62-.93-1,.42.47,2.23.87,2.95.4.73.95.77,1.23,1.45.24.62.78,1.75,1.33,2.2-.74-1.93-.72-3.87-.39-4.42.28-.47,3.46-1.3,7.64-.32,4.17.97,5.32,1.74,5.28,3.27-.01.58-.16,1.29-.45,1.98.4-.37.8-.74.8-.74,0,0,.07-.06.17-.14.31-.26,2.61-2.07,4.83,0,.1.09.17.15.17.15,0,0,.41.38.8.74-.29-.7-.43-1.4-.45-1.98-.04-1.54,1.1-2.31,5.28-3.27,4.18-.97,7.36-.15,7.64.32.33.55.35,2.49-.39,4.42.55-.45,1.09-1.58,1.34-2.2.27-.68.83-.72,1.22-1.45.39-.72,1.87-2.53.87-2.95Z"/>
        <path class="cls-58" d="M55.61,39.93c1.5-2.31,1.57-5.24,1.15-5.93-.28-.47-3.46-1.29-7.64-.32-4.17.97-5.31,1.74-5.28,3.27.03.96.4,2.24,1.19,3.3,2.77-1.35,6.56-2.22,10.57-.31Z"/>
        <path class="cls-58" d="M32.69,33.67c-4.17-.97-7.35-.14-7.64.32-.4.65-.35,3.28.9,5.51,2.9-1.08,7.07-1.85,11.31-.02.46-.87.69-1.8.7-2.53.04-1.54-1.1-2.31-5.28-3.27Z"/>
        <path class="cls-57" d="M25.95,39.5c.67,1.2,1.69,2.29,3.19,2.88,1.25.49,3.03.55,5.72-.6,1.11-.48,1.9-1.35,2.4-2.31-4.24-1.82-8.41-1.05-11.31.02Z"/>
        <path class="cls-57" d="M46.96,41.78c2.68,1.14,4.47,1.1,5.71.6,1.32-.52,2.28-1.43,2.95-2.45-4.01-1.91-7.8-1.03-10.57.31.48.64,1.11,1.19,1.92,1.54Z"/>
      </g>
      <path class="cls-150" d="M59.67,66.18s-.74-.24-1.82-.59t-.03-.01c-.69-.22-1.54-.5-2.42-.8-.34-.11-.68-.24-1.04-.35-.11-.04-.22-.08-.33-.12-.76-.27-1.51-.54-2.21-.8-.25-.09-.49-.19-.73-.28.09.62.14,1.25.14,1.89,0,1.92-.4,3.25-1.1,4.19h12.19c-.15-.99-.57-1.85-2.66-3.14Z"/>
      <path class="cls-150" d="M19.02,76.21h5.89v2.58h32.4v-2.58h5.48c-.03-.61-.06-2.05-.1-3.23H19.11c-.03,1.19-.07,2.69-.09,3.23Z"/>
      <path class="cls-150" d="M30.67,65.12c0-.66.06-1.3.15-1.92-.09.03-.17.07-.26.1-.78.3-1.67.62-2.57.94-.39.14-.78.27-1.17.4-.09.03-.18.06-.27.09-.95.32-1.86.62-2.59.86h-.01c-1.06.35-1.78.57-1.8.59-2.09,1.29-2.51,2.14-2.66,3.14h12.29c-.7-.94-1.1-2.27-1.1-4.19Z"/>
      <path class="cls-71" d="M70.61,69.31h-8.27c.09.57.09,1.18.26,1.94.04.08.07.82.1,1.72h7.92v-3.67Z"/>
      <path class="cls-71" d="M19.19,71.41c.01-.07.02-.12.04-.15v-.03h0c.16-.76.17-1.36.25-1.92h-4.42v3.67h4.05c.02-.78.05-1.43.07-1.56h0Z"/>
      <path class="cls-75" d="M62.33,69.31h-12.19c-1.69,2.27-5.17,2.17-9.19,2.17s-7.5.1-9.19-2.17h-12.29c-.09.56-.09,1.16-.25,1.91h0v.04s-.03.07-.04.15h0c-.03.15-.05.79-.07,1.58h43.58c-.03-.9-.06-1.64-.1-1.72-.17-.76-.17-1.38-.26-1.94Z"/>
    </g>
  </g>
</svg>