<?xml version="1.0" encoding="UTF-8"?>
<svg id="Layer_2" data-name="Layer 2" xmlns="http://www.w3.org/2000/svg" xmlns:xlink="http://www.w3.org/1999/xlink" viewBox="0 0 78.88 78.88">
  <defs>
    <style>
      .cls-1 {
        fill: none;
      }

      .cls-2 {
        fill: #354148;
      }

      .cls-3 {
        fill: #7d99ae;
      }

      .cls-4 {
        fill: #84a2b8;
      }

      .cls-5 {
        fill: #d0665f;
      }

      .cls-6 {
        fill: #debaad;
      }

      .cls-7 {
        fill: #4e606b;
      }

      .cls-8 {
        fill: #bf6c6c;
      }

      .cls-9 {
        fill: #7791a4;
      }

      .cls-10 {
        fill: #7b97ab;
      }

      .cls-11 {
        fill: #677e8d;
      }

      .cls-12 {
        fill: #86a3ba;
      }

      .cls-13 {
        fill: #364349;
      }

      .cls-14 {
        fill: #313d43;
      }

      .cls-15 {
        fill: #809cb2;
      }

      .cls-16 {
        fill: #6d8596;
      }

      .cls-17 {
        fill: #44545c;
      }

      .cls-18 {
        fill: #46565f;
      }

      .cls-19 {
        fill: #7893a6;
      }

      .cls-20 {
        fill: #2d4759;
      }

      .cls-21 {
        fill: #b24442;
      }

      .cls-22 {
        fill: #87a5bc;
      }

      .cls-23 {
        fill: #748d9f;
      }

      .cls-24 {
        fill: #627886;
      }

      .cls-25 {
        fill: #576b77;
      }

      .cls-26 {
        fill: #829fb5;
      }

      .cls-27 {
        fill: #b89388;
      }

      .cls-28 {
        fill: #485862;
      }

      .cls-29 {
        fill: #6f8899;
      }

      .cls-30 {
        fill: #5b6f7c;
      }

      .cls-31 {
        fill: #7892a6;
      }

      .cls-32 {
        fill: #829fb4;
      }

      .cls-33 {
        fill: #7690a2;
      }

      .cls-34 {
        fill: #596c79;
      }

      .cls-35 {
        fill: #748ea0;
      }

      .cls-36 {
        fill: #728b9c;
      }

      .cls-37 {
        fill: #e2a92e;
      }

      .cls-38 {
        fill: #88a6be;
      }

      .cls-39 {
        fill: #a88a6b;
      }

      .cls-40 {
        fill: #738d9f;
      }

      .cls-41 {
        fill: #495963;
      }

      .cls-42 {
        fill: #87a4bb;
      }

      .cls-43 {
        fill: #617785;
      }

      .cls-44 {
        fill: #819db3;
      }

      .cls-45 {
        fill: #95bacb;
      }

      .cls-46 {
        fill: #657b8a;
      }

      .cls-47 {
        fill: #85a2b8;
      }

      .cls-48 {
        fill: #7f9bb0;
      }

      .cls-49 {
        fill: #f3f3f2;
      }

      .cls-50 {
        fill: #667c8b;
      }

      .cls-51 {
        fill: #38454c;
      }

      .cls-52 {
        fill: #61b0d8;
      }

      .cls-53 {
        fill: #3e4d54;
      }

      .cls-54 {
        fill: #687f8f;
      }

      .cls-55 {
        fill: #7e9aae;
      }

      .cls-56 {
        fill: #88a7be;
      }

      .cls-57 {
        fill: #5b707d;
      }

      .cls-58 {
        fill: #7a96a9;
      }

      .cls-59 {
        fill: #829eb4;
      }

      .cls-60 {
        fill: #7a95a9;
      }

      .cls-61 {
        fill: #6c8495;
      }

      .cls-62 {
        fill: #7c98ac;
      }

      .cls-63 {
        fill: #85a2b9;
      }

      .cls-64 {
        fill: #677d8d;
      }

      .cls-65 {
        fill: #39464e;
      }

      .cls-66 {
        fill: #3d4b53;
      }

      .cls-67 {
        fill: #344046;
      }

      .cls-68 {
        fill: #586c78;
      }

      .cls-69 {
        fill: #596d7a;
      }

      .cls-70 {
        fill: #87a6bd;
      }

      .cls-71 {
        fill: #637988;
      }

      .cls-72 {
        fill: #37444b;
      }

      .cls-73 {
        fill: #7c97ab;
      }

      .cls-74 {
        fill: #6d8595;
      }

      .cls-75 {
        fill: #526570;
      }

      .cls-76 {
        fill: #70899b;
      }

      .cls-77 {
        fill: #738c9e;
      }

      .cls-78 {
        fill: #4e5f6a;
      }

      .cls-79 {
        clip-path: url(#clippath-1);
      }

      .cls-80 {
        fill: #546672;
      }

      .cls-81 {
        fill: #84a1b7;
      }

      .cls-82 {
        fill: #718a9c;
      }

      .cls-83 {
        fill: #5f7481;
      }

      .cls-84 {
        fill: #f1d4c8;
      }

      .cls-85 {
        fill: #6e8697;
      }

      .cls-86 {
        fill: #303c42;
      }

      .cls-87 {
        fill: #85a3b9;
      }

      .cls-88 {
        fill: #7e9baf;
      }

      .cls-89 {
        fill: #6a8292;
      }

      .cls-90 {
        fill: #758fa1;
      }

      .cls-91 {
        fill: #6b8292;
      }

      .cls-92 {
        fill: #83a1b7;
      }

      .cls-93 {
        fill: #7994a7;
      }

      .cls-94 {
        fill: #6b8393;
      }

      .cls-95 {
        fill: #95302d;
      }

      .cls-96 {
        fill: #647a89;
      }

      .cls-97 {
        fill: #6e8798;
      }

      .cls-98 {
        fill: #fff;
      }

      .cls-99 {
        fill: #7f9cb1;
      }

      .cls-100 {
        fill: #87a5bb;
      }

      .cls-101 {
        fill: #536671;
      }

      .cls-102 {
        fill: #5e7380;
      }

      .cls-103 {
        fill: #4d5e69;
      }

      .cls-104 {
        fill: #566975;
      }

      .cls-105 {
        fill: #6a8191;
      }

      .cls-106 {
        fill: #809db2;
      }

      .cls-107 {
        fill: #4c5d68;
      }

      .cls-108 {
        fill: #809cb1;
      }

      .cls-109 {
        fill: #4b5c67;
      }

      .cls-110 {
        fill: #475760;
      }

      .cls-111 {
        fill: #7691a3;
      }

      .cls-112 {
        fill: #3a484f;
      }

      .cls-113 {
        fill: #3b3b36;
      }

      .cls-114 {
        fill: #51636e;
      }

      .cls-115 {
        fill: #7d99ad;
      }

      .cls-116 {
        fill: #4f616c;
      }

      .cls-117 {
        fill: #819eb4;
      }

      .cls-118 {
        fill: #4a5b65;
      }

      .cls-119 {
        fill: #698090;
      }

      .cls-120 {
        opacity: .3;
      }

      .cls-121 {
        fill: #7690a3;
      }

      .cls-122 {
        fill: #5d727f;
      }

      .cls-123 {
        fill: #415059;
      }

      .cls-124 {
        fill: #2d383d;
      }

      .cls-125 {
        fill: #50626d;
      }

      .cls-126 {
        fill: #7893a7;
      }

      .cls-127 {
        fill: #43525b;
      }

      .cls-128 {
        fill: #748ea1;
      }

      .cls-129 {
        fill: #7994a8;
      }

      .cls-130 {
        fill: #546773;
      }

      .cls-131 {
        fill: #83a0b6;
      }

      .cls-132 {
        fill: #26200c;
      }

      .cls-133 {
        fill: #607583;
      }

      .cls-134 {
        fill: #556874;
      }

      .cls-135 {
        fill: #687f8e;
      }

      .cls-136 {
        fill: #667d8c;
      }

      .cls-137 {
        fill: #728b9d;
      }

      .cls-138 {
        fill: #323f45;
      }

      .cls-139 {
        fill: #86a4bb;
      }

      .cls-140 {
        fill: #7792a5;
      }

      .cls-141 {
        fill: #84a1b8;
      }

      .cls-142 {
        fill: #5c707e;
      }

      .cls-143 {
        fill: #698190;
      }

      .cls-144 {
        fill: #637987;
      }

      .cls-145 {
        fill: #3c4a52;
      }

      .cls-146 {
        fill: #42515a;
      }

      .cls-147 {
        fill: #b74c49;
      }

      .cls-148 {
        fill: #c6a095;
      }

      .cls-149 {
        fill: #3b4950;
      }

      .cls-150 {
        fill: #6c8494;
      }

      .cls-151 {
        fill: #88a6bd;
      }

      .cls-152 {
        fill: #404f57;
      }

      .cls-153 {
        fill: #47433b;
      }

      .cls-154 {
        fill: #51646f;
      }

      .cls-155 {
        fill: #7c97ac;
      }

      .cls-156 {
        fill: #5a6e7b;
      }

      .cls-157 {
        fill: #647b8a;
      }

      .cls-158 {
        fill: #45555e;
      }

      .cls-159 {
        fill: #7e9aaf;
      }

      .cls-160 {
        fill: #3f4e56;
      }

      .cls-161 {
        fill: #2f3b40;
      }

      .cls-162 {
        fill: #4a5a64;
      }

      .cls-163 {
        fill: #607684;
      }

      .cls-164 {
        fill: #49443b;
      }

      .cls-165 {
        fill: #718a9b;
      }

      .cls-166 {
        fill: #5d717f;
      }

      .cls-167 {
        fill: #477090;
      }

      .cls-168 {
        clip-path: url(#clippath);
      }

      .cls-169 {
        fill: #82a0b5;
      }

      .cls-170 {
        fill: #2e393f;
      }

      .cls-171 {
        fill: #70899a;
      }

      .cls-172 {
        fill: #7b96aa;
      }

      .cls-173 {
        fill: #758fa2;
      }

      .cls-174 {
        fill: #86a4ba;
      }

      .cls-175 {
        fill: #5f7482;
      }

      .cls-176 {
        fill: #7c98ad;
      }

      .cls-177 {
        fill: #819eb3;
      }

      .cls-178 {
        fill: #85a3ba;
      }

      .cls-179 {
        fill: #728c9e;
      }

      .cls-180 {
        fill: #576a76;
      }

      .cls-181 {
        fill: #627786;
      }

      .cls-182 {
        fill: #ab5b64;
      }
    </style>
    <clipPath id="clippath">
      <path class="cls-1" d="M35.59,36.08c-.1,1.18-1.15,2.06-2.36,1.96-1.2-.1-2.1-1.14-2-2.32.1-1.19,1.15-2.07,2.36-1.97,1.2.1,2.1,1.14,2,2.33Z"/>
    </clipPath>
    <clipPath id="clippath-1">
      <path class="cls-1" d="M50.99,35.96c-.1,1.18-1.15,2.06-2.36,1.96-1.2-.1-2.1-1.14-2-2.32.1-1.19,1.15-2.07,2.36-1.97,1.2.1,2.1,1.14,2,2.33Z"/>
    </clipPath>
  </defs>
  <g id="Layer_1-2" data-name="Layer 1">
    <g>
      <rect class="cls-52" width="78.88" height="78.88"/>
      <rect class="cls-167" x="22.79" y="78.88" width="12.83" height="0"/>
      <polygon class="cls-20" points="35.63 78.88 35.63 78.88 40.13 78.88 40.21 78.88 57.55 78.88 57.55 78.88 35.63 78.88"/>
      <path class="cls-84" d="M41.5,70.44c2.89.03,6.12-1.81,9.32-7.33-.09-.04-.18-.07-.26-.11-.38-.16-.71-.32-.97-.45l-.07-.02c-.28-.14-.53-.26-.64-.36-.01-.01-.04-.05-.08-.09-.02-.04-.05-.06-.07-.1-.06-.35-1-1.89-1.32-3.56h0c-.07-.35-.11-.67-.12-1.01-.03-.49-.03-.97-.04-1.41-.01-.45-.02-.86-.04-1.2v-.29c-.01-.24-.01-.44-.01-.59-.01-.15-.01-.24-.01-.24,0,0,.35-.3.86-.75.64-.57,1.55-1.4,2.33-2.18.85-.85,1.59-1.66,1.75-2.09.01-.06.02-.11.02-.15,0,0-.02,0-.06.01-.4.06-2.55.44-4.86.8-1.37.21-2.81.43-3.98.57-.46.06-.89.1-1.25.14h-.01c-.34.04-.62.05-.84.05-.24,0-.56-.02-.95-.05h-.03c-.37-.05-.82-.1-1.31-.16-1.07-.14-2.36-.32-3.61-.51-1.15-.19-2.27-.36-3.16-.51-.21-.04-.4-.06-.57-.1-.85-.14-1.39-.24-1.39-.24,0,.16.15.41.4.74,0,0,0,.01.01.01.19.25.44.54.74.86.29.3.6.61.92.92.99.96,2.06,1.91,2.58,2.36.2.17.31.27.31.27,0,0,0,.09-.01.24,0,.15,0,.35-.01.59v.29c0,.1,0,.2-.01.3-.01.65-.04,1.46-.06,2.31-.01.34-.05.66-.12,1-.33,1.67-1.26,3.22-1.32,3.57-.03.04-.05.06-.07.1-.04.04-.06.08-.08.09-.05.05-.14.11-.24.18-.23.14-.48.34-.87.52-.24.1-.51.22-.79.33,1.21,1.85,5.12,7.19,10,7.24Z"/>
      <path class="cls-148" d="M47.42,58.41c-.07-.34-.11-.66-.12-1-.04-1.12-.06-2.2-.07-2.9-1.87.84-3.8,1.32-5.68,1.32-.11.02-.25.02-.38.02s-.27,0-.38-.02c-1.89,0-3.81-.49-5.68-1.32-.01.7-.04,1.77-.07,2.9-.01.34-.05.66-.12,1,1.81,1.51,4.26,3.07,5.88,3.07.1.02.23.02.34.02h0s.03,0,.04,0,.03,0,.04,0h0c.12,0,.24,0,.34-.03,1.62,0,4.07-1.56,5.88-3.07Z"/>
      <g>
        <path class="cls-84" d="M57.22,36c.31-1.73.56-3.05.63-3.31.04-.12.06-.25.1-.37.03-.15.06-.29.09-.42.06-.21.1-.43.15-.64.01-.1.04-.2.05-.3.04-.24.09-.48.12-.71.01-.1.03-.21.04-.31.04-.21.05-.42.08-.64.01-.16.02-.33.05-.47.01-.14.01-.28.02-.41.16-3.26-.54-6.58-2.67-9.59-2.58-3.62-5.56-7.45-12.01-7.99h-5.44c-6.46.54-9.43,4.37-12.01,7.99-2.13,3.01-2.83,6.33-2.67,9.59.01.14.01.27.02.41.02.15.04.31.05.47.02.21.04.42.07.64.01.1.03.21.04.31.04.24.09.47.13.71.01.1.04.2.05.3.05.21.09.43.15.64.03.14.06.27.09.42.04.12.06.25.1.37.08.26.32,1.57.63,3.29-1.72-.84-4.11.36-3.83,3.53.29,3.22,4.21,5.13,5.55,5.45.13.58.24,1.02.33,1.22,1.17,2.96,2.6,3.85,5.09,6.26,2.72,2.61,6.74,5.06,8.73,5.04.06.01.14.01.21.01s.15,0,.21-.01c1.99.01,6-2.43,8.73-5.04,2.5-2.41,3.92-3.3,5.09-6.26.08-.21.19-.63.32-1.21,1.29-.29,5.29-2.21,5.59-5.46.29-3.2-2.15-4.4-3.88-3.51Z"/>
        <path class="cls-6" d="M59.84,37.77c-.97-1.58-2.49-.91-2.87-.57-.4.37-.72.87-.48,1.8.13.52.68.57.54,1.37-.16.89-.57.95-.8,1.15-.23.2-.53.35-.68.73-.14.37-.17.77-.1,1.12.15.65,1.09.14,1.72-.14.42-.18,1.74-1.29,2.08-1.65.84-.94,1.25-2.74.6-3.8"/>
      </g>
      <path class="cls-6" d="M38.39,51.32c-.06-.82,2.31.17,3.09.2.62.02,2.49-.12,2.67-.19,1.31-.49-.07,1.38-2.7,1.48-1.21.05-3.02-.99-3.06-1.49Z"/>
      <g>
        <path class="cls-182" d="M46.22,50.25c-1.51-.28-4.68-.89-4.68-.89-2.62.43-4.67.88-4.68.9-.06,0,2.09,1.93,4.65,1.8h0c2.56.13,4.78-1.8,4.72-1.81Z"/>
        <path class="cls-8" d="M43.04,48.83c-.68-.07-1.15.32-1.49.29-.35.03-.82-.36-1.5-.29-.97.21-1.43.82-3.19,1.43.06.12,1.19-.15,3.3-.11.03,0,.6.32,1.4.31.5,0,1.19-.34,1.22-.34,2.11-.03,3.4.26,3.46.14-2.32-.71-2.23-1.23-3.2-1.44Z"/>
      </g>
      <path class="cls-39" d="M42.79,44.87c.34-.23.74-.12.74-.12,0,0,0,0-.01.02-.08.14-.54.87-.91.86,0,0-.08-.07-.1-.24-.03-.17.11-.4.28-.52Z"/>
      <path class="cls-6" d="M38.17,44.64c-.07-1.65,2.56-.6,3.43-.55.69.04,2.77-.52,2.95-.38,1.22.98-1.3,2.95-2.99,2.95-.45,0-3.34-1.03-3.38-2.03Z"/>
      <path class="cls-27" d="M40.16,44.84c-.34-.23-.74-.12-.74-.12,0,0,0,0,.01.02.08.14.54.87.91.86,0,0,.08-.07.1-.24.03-.17-.11-.4-.28-.52Z"/>
      <path class="cls-164" d="M37.72,32.41s-.4-.4-1.14-.89c-.35-.26-.81-.48-1.3-.71-.49-.23-1.04-.4-1.61-.5-.57-.13-1.15-.16-1.71-.15-.28.02-.55.04-.8.06-.26.01-.49.08-.72.11-.45.07-.82.18-1.09.24-.27.06-.42.1-.42.1,0,0,.13-.08.37-.23.24-.13.57-.37,1.02-.53.44-.19.98-.36,1.58-.48.6-.08,1.26-.12,1.92-.05.66.09,1.3.27,1.87.51.57.24,1.06.56,1.45.86.78.59,1.16,1.18,1.16,1.18h0c.12.18.07.42-.11.54-.15.1-.35.07-.48-.05Z"/>
      <path class="cls-98" d="M28.53,35.1s1.46,3.64,3.73,3.99c2.27.35,4.69-.16,4.69-.16,0,0,.06-4.22-1.12-4.81-1.18-.59-3.87-1.46-7.3.98Z"/>
      <g class="cls-168">
        <polygon class="cls-124" points="35.68 34.45 31.13 34.08 31.13 33.66 35.68 33.66 35.68 34.45"/>
        <polygon class="cls-124" points="35.68 34.47 31.13 34.1 31.13 34.08 35.68 34.45 35.68 34.47"/>
        <polygon class="cls-170" points="35.68 34.5 31.13 34.12 31.13 34.1 35.68 34.47 35.68 34.5"/>
        <polygon class="cls-161" points="35.68 34.52 31.13 34.14 31.13 34.12 35.68 34.5 35.68 34.52"/>
        <polygon class="cls-86" points="35.68 34.54 31.13 34.16 31.13 34.14 35.68 34.52 35.68 34.54"/>
        <polygon class="cls-14" points="35.68 34.56 31.13 34.18 31.13 34.16 35.68 34.54 35.68 34.56"/>
        <polygon class="cls-138" points="35.68 34.58 31.13 34.2 31.13 34.18 35.68 34.56 35.68 34.58"/>
        <polygon class="cls-67" points="35.68 34.6 31.13 34.22 31.13 34.2 35.68 34.58 35.68 34.6"/>
        <polygon class="cls-2" points="35.68 34.62 31.13 34.25 31.13 34.22 35.68 34.6 35.68 34.62"/>
        <polygon class="cls-13" points="35.68 34.64 31.13 34.27 31.13 34.25 35.68 34.62 35.68 34.64"/>
        <polygon class="cls-72" points="35.68 34.66 31.13 34.29 31.13 34.27 35.68 34.64 35.68 34.66"/>
        <polygon class="cls-51" points="35.68 34.68 31.13 34.31 31.13 34.29 35.68 34.66 35.68 34.68"/>
        <polygon class="cls-65" points="35.68 34.71 31.13 34.33 31.13 34.31 35.68 34.68 35.68 34.71"/>
        <polygon class="cls-112" points="35.68 34.73 31.13 34.35 31.13 34.33 35.68 34.71 35.68 34.73"/>
        <polygon class="cls-149" points="35.68 34.75 31.13 34.37 31.13 34.35 35.68 34.73 35.68 34.75"/>
        <polygon class="cls-145" points="35.68 34.77 31.13 34.39 31.13 34.37 35.68 34.75 35.68 34.77"/>
        <polygon class="cls-66" points="35.68 34.79 31.13 34.41 31.13 34.39 35.68 34.77 35.68 34.79"/>
        <polygon class="cls-53" points="35.68 34.81 31.13 34.43 31.13 34.41 35.68 34.79 35.68 34.81"/>
        <polygon class="cls-160" points="35.68 34.83 31.13 34.46 31.13 34.43 35.68 34.81 35.68 34.83"/>
        <polygon class="cls-152" points="35.68 34.85 31.13 34.48 31.13 34.46 35.68 34.83 35.68 34.85"/>
        <polygon class="cls-123" points="35.68 34.87 31.13 34.5 31.13 34.48 35.68 34.85 35.68 34.87"/>
        <polygon class="cls-146" points="35.68 34.89 31.13 34.52 31.13 34.5 35.68 34.87 35.68 34.89"/>
        <polygon class="cls-127" points="35.68 34.92 31.13 34.54 31.13 34.52 35.68 34.89 35.68 34.92"/>
        <polygon class="cls-17" points="35.68 34.94 31.13 34.56 31.13 34.54 35.68 34.92 35.68 34.94"/>
        <polygon class="cls-158" points="35.68 34.96 31.13 34.58 31.13 34.56 35.68 34.94 35.68 34.96"/>
        <polygon class="cls-18" points="35.68 34.98 31.13 34.6 31.13 34.58 35.68 34.96 35.68 34.98"/>
        <polygon class="cls-110" points="35.68 35 31.13 34.62 31.13 34.6 35.68 34.98 35.68 35"/>
        <polygon class="cls-28" points="35.68 35.02 31.13 34.64 31.13 34.62 35.68 35 35.68 35.02"/>
        <polygon class="cls-41" points="35.68 35.04 31.13 34.67 31.13 34.64 35.68 35.02 35.68 35.04"/>
        <polygon class="cls-162" points="35.68 35.06 31.13 34.69 31.13 34.67 35.68 35.04 35.68 35.06"/>
        <polygon class="cls-118" points="35.68 35.08 31.13 34.71 31.13 34.69 35.68 35.06 35.68 35.08"/>
        <polygon class="cls-109" points="35.68 35.1 31.13 34.73 31.13 34.71 35.68 35.08 35.68 35.1"/>
        <polygon class="cls-107" points="35.68 35.13 31.13 34.75 31.13 34.73 35.68 35.1 35.68 35.13"/>
        <polygon class="cls-103" points="35.68 35.15 31.13 34.77 31.13 34.75 35.68 35.13 35.68 35.15"/>
        <polygon class="cls-78" points="35.68 35.17 31.13 34.79 31.13 34.77 35.68 35.15 35.68 35.17"/>
        <polygon class="cls-7" points="35.68 35.19 31.13 34.81 31.13 34.79 35.68 35.17 35.68 35.19"/>
        <polygon class="cls-116" points="35.68 35.21 31.13 34.83 31.13 34.81 35.68 35.19 35.68 35.21"/>
        <polygon class="cls-125" points="35.68 35.23 31.13 34.85 31.13 34.83 35.68 35.21 35.68 35.23"/>
        <polygon class="cls-114" points="35.68 35.25 31.13 34.88 31.13 34.85 35.68 35.23 35.68 35.25"/>
        <polygon class="cls-154" points="35.68 35.27 31.13 34.9 31.13 34.88 35.68 35.25 35.68 35.27"/>
        <polygon class="cls-75" points="35.68 35.29 31.13 34.92 31.13 34.9 35.68 35.27 35.68 35.29"/>
        <polygon class="cls-101" points="35.68 35.31 31.13 34.94 31.13 34.92 35.68 35.29 35.68 35.31"/>
        <polygon class="cls-80" points="35.68 35.34 31.13 34.96 31.13 34.94 35.68 35.31 35.68 35.34"/>
        <polygon class="cls-130" points="35.68 35.36 31.13 34.98 31.13 34.96 35.68 35.34 35.68 35.36"/>
        <polygon class="cls-134" points="35.68 35.38 31.13 35 31.13 34.98 35.68 35.36 35.68 35.38"/>
        <polygon class="cls-104" points="35.68 35.4 31.13 35.02 31.13 35 35.68 35.38 35.68 35.4"/>
        <polygon class="cls-180" points="35.68 35.42 31.13 35.04 31.13 35.02 35.68 35.4 35.68 35.42"/>
        <polygon class="cls-25" points="35.68 35.44 31.13 35.06 31.13 35.04 35.68 35.42 35.68 35.44"/>
        <polygon class="cls-68" points="35.68 35.46 31.13 35.09 31.13 35.06 35.68 35.44 35.68 35.46"/>
        <polygon class="cls-34" points="35.68 35.48 31.13 35.11 31.13 35.09 35.68 35.46 35.68 35.48"/>
        <polygon class="cls-69" points="35.68 35.5 31.13 35.13 31.13 35.11 35.68 35.48 35.68 35.5"/>
        <polygon class="cls-156" points="35.68 35.52 31.13 35.15 31.13 35.13 35.68 35.5 35.68 35.52"/>
        <polygon class="cls-30" points="35.68 35.55 31.13 35.17 31.13 35.15 35.68 35.52 35.68 35.55"/>
        <polygon class="cls-57" points="35.68 35.57 31.13 35.19 31.13 35.17 35.68 35.55 35.68 35.57"/>
        <polygon class="cls-142" points="35.68 35.59 31.13 35.21 31.13 35.19 35.68 35.57 35.68 35.59"/>
        <polygon class="cls-166" points="35.68 35.61 31.13 35.23 31.13 35.21 35.68 35.59 35.68 35.61"/>
        <polygon class="cls-122" points="35.68 35.63 31.13 35.25 31.13 35.23 35.68 35.61 35.68 35.63"/>
        <polygon class="cls-102" points="35.68 35.65 31.13 35.27 31.13 35.25 35.68 35.63 35.68 35.65"/>
        <polygon class="cls-83" points="35.68 35.67 31.13 35.3 31.13 35.27 35.68 35.65 35.68 35.67"/>
        <polygon class="cls-175" points="35.68 35.69 31.13 35.32 31.13 35.3 35.68 35.67 35.68 35.69"/>
        <polygon class="cls-133" points="35.68 35.71 31.13 35.34 31.13 35.32 35.68 35.69 35.68 35.71"/>
        <polygon class="cls-163" points="35.68 35.73 31.13 35.36 31.13 35.34 35.68 35.71 35.68 35.73"/>
        <polygon class="cls-43" points="35.68 35.76 31.13 35.38 31.13 35.36 35.68 35.73 35.68 35.76"/>
        <polygon class="cls-181" points="35.68 35.78 31.13 35.4 31.13 35.38 35.68 35.76 35.68 35.78"/>
        <polygon class="cls-24" points="35.68 35.8 31.13 35.42 31.13 35.4 35.68 35.78 35.68 35.8"/>
        <polygon class="cls-144" points="35.68 35.82 31.13 35.44 31.13 35.42 35.68 35.8 35.68 35.82"/>
        <polygon class="cls-71" points="35.68 35.84 31.13 35.46 31.13 35.44 35.68 35.82 35.68 35.84"/>
        <polygon class="cls-96" points="35.68 35.86 31.13 35.48 31.13 35.46 35.68 35.84 35.68 35.86"/>
        <polygon class="cls-157" points="35.68 35.88 31.13 35.51 31.13 35.48 35.68 35.86 35.68 35.88"/>
        <polygon class="cls-46" points="35.68 35.9 31.13 35.53 31.13 35.51 35.68 35.88 35.68 35.9"/>
        <polygon class="cls-50" points="35.68 35.92 31.13 35.55 31.13 35.53 35.68 35.9 35.68 35.92"/>
        <polygon class="cls-136" points="35.68 35.94 31.13 35.57 31.13 35.55 35.68 35.92 35.68 35.94"/>
        <polygon class="cls-64" points="35.68 35.97 31.13 35.59 31.13 35.57 35.68 35.94 35.68 35.97"/>
        <polygon class="cls-11" points="35.68 35.99 31.13 35.61 31.13 35.59 35.68 35.97 35.68 35.99"/>
        <polygon class="cls-135" points="35.68 36.01 31.13 35.63 31.13 35.61 35.68 35.99 35.68 36.01"/>
        <polygon class="cls-54" points="35.68 36.03 31.13 35.65 31.13 35.63 35.68 36.01 35.68 36.03"/>
        <polygon class="cls-119" points="35.68 36.05 31.13 35.67 31.13 35.65 35.68 36.03 35.68 36.05"/>
        <polygon class="cls-143" points="35.68 36.07 31.13 35.69 31.13 35.67 35.68 36.05 35.68 36.07"/>
        <polygon class="cls-105" points="35.68 36.09 31.13 35.72 31.13 35.69 35.68 36.07 35.68 36.09"/>
        <polygon class="cls-89" points="35.68 36.11 31.13 35.74 31.13 35.72 35.68 36.09 35.68 36.11"/>
        <polygon class="cls-91" points="35.68 36.13 31.13 35.76 31.13 35.74 35.68 36.11 35.68 36.13"/>
        <polygon class="cls-94" points="35.68 36.15 31.13 35.78 31.13 35.76 35.68 36.13 35.68 36.15"/>
        <polygon class="cls-150" points="35.68 36.18 31.13 35.8 31.13 35.78 35.68 36.15 35.68 36.18"/>
        <polygon class="cls-61" points="35.68 36.2 31.13 35.82 31.13 35.8 35.68 36.18 35.68 36.2"/>
        <polygon class="cls-74" points="35.68 36.22 31.13 35.84 31.13 35.82 35.68 36.2 35.68 36.22"/>
        <polygon class="cls-16" points="35.68 36.24 31.13 35.86 31.13 35.84 35.68 36.22 35.68 36.24"/>
        <polygon class="cls-85" points="35.68 36.26 31.13 35.88 31.13 35.86 35.68 36.24 35.68 36.26"/>
        <polygon class="cls-85" points="35.68 36.28 31.13 35.9 31.13 35.88 35.68 36.26 35.68 36.28"/>
        <polygon class="cls-97" points="35.68 36.3 31.13 35.93 31.13 35.9 35.68 36.28 35.68 36.3"/>
        <polygon class="cls-29" points="35.68 36.32 31.13 35.95 31.13 35.93 35.68 36.3 35.68 36.32"/>
        <polygon class="cls-29" points="35.68 36.34 31.13 35.97 31.13 35.95 35.68 36.32 35.68 36.34"/>
        <polygon class="cls-171" points="35.68 36.36 31.13 35.99 31.13 35.97 35.68 36.34 35.68 36.36"/>
        <polygon class="cls-76" points="35.68 36.39 31.13 36.01 31.13 35.99 35.68 36.36 35.68 36.39"/>
        <polygon class="cls-165" points="35.68 36.41 31.13 36.03 31.13 36.01 35.68 36.39 35.68 36.41"/>
        <polygon class="cls-82" points="35.68 36.43 31.13 36.05 31.13 36.03 35.68 36.41 35.68 36.43"/>
        <polygon class="cls-36" points="35.68 36.45 31.13 36.07 31.13 36.05 35.68 36.43 35.68 36.45"/>
        <polygon class="cls-137" points="35.68 36.47 31.13 36.09 31.13 36.07 35.68 36.45 35.68 36.47"/>
        <polygon class="cls-179" points="35.68 36.49 31.13 36.11 31.13 36.09 35.68 36.47 35.68 36.49"/>
        <polygon class="cls-77" points="35.68 36.51 31.13 36.14 31.13 36.11 35.68 36.49 35.68 36.51"/>
        <polygon class="cls-40" points="35.68 36.53 31.13 36.16 31.13 36.14 35.68 36.51 35.68 36.53"/>
        <polygon class="cls-23" points="35.68 36.55 31.13 36.18 31.13 36.16 35.68 36.53 35.68 36.55"/>
        <polygon class="cls-35" points="35.68 36.57 31.13 36.2 31.13 36.18 35.68 36.55 35.68 36.57"/>
        <polygon class="cls-128" points="35.68 36.6 31.13 36.22 31.13 36.2 35.68 36.57 35.68 36.6"/>
        <polygon class="cls-90" points="35.68 36.62 31.13 36.24 31.13 36.22 35.68 36.6 35.68 36.62"/>
        <polygon class="cls-173" points="35.68 36.64 31.13 36.26 31.13 36.24 35.68 36.62 35.68 36.64"/>
        <polygon class="cls-33" points="35.68 36.66 31.13 36.28 31.13 36.26 35.68 36.64 35.68 36.66"/>
        <polygon class="cls-121" points="35.68 36.68 31.13 36.3 31.13 36.28 35.68 36.66 35.68 36.68"/>
        <polygon class="cls-111" points="35.68 36.7 31.13 36.32 31.13 36.3 35.68 36.68 35.68 36.7"/>
        <polygon class="cls-9" points="35.68 36.72 31.13 36.35 31.13 36.32 35.68 36.7 35.68 36.72"/>
        <polygon class="cls-140" points="35.68 36.74 31.13 36.37 31.13 36.35 35.68 36.72 35.68 36.74"/>
        <polygon class="cls-140" points="35.68 36.76 31.13 36.39 31.13 36.37 35.68 36.74 35.68 36.76"/>
        <polygon class="cls-31" points="35.68 36.78 31.13 36.41 31.13 36.39 35.68 36.76 35.68 36.78"/>
        <polygon class="cls-19" points="35.68 36.81 31.13 36.43 31.13 36.41 35.68 36.78 35.68 36.81"/>
        <polygon class="cls-126" points="35.68 36.83 31.13 36.45 31.13 36.43 35.68 36.81 35.68 36.83"/>
        <polygon class="cls-93" points="35.68 36.85 31.13 36.47 31.13 36.45 35.68 36.83 35.68 36.85"/>
        <polygon class="cls-129" points="35.68 36.87 31.13 36.49 31.13 36.47 35.68 36.85 35.68 36.87"/>
        <polygon class="cls-129" points="35.68 36.89 31.13 36.51 31.13 36.49 35.68 36.87 35.68 36.89"/>
        <polygon class="cls-60" points="35.68 36.91 31.13 36.53 31.13 36.51 35.68 36.89 35.68 36.91"/>
        <polygon class="cls-60" points="35.68 36.93 31.13 36.56 31.13 36.53 35.68 36.91 35.68 36.93"/>
        <polygon class="cls-58" points="35.68 36.95 31.13 36.58 31.13 36.56 35.68 36.93 35.68 36.95"/>
        <polygon class="cls-172" points="35.68 36.97 31.13 36.6 31.13 36.58 35.68 36.95 35.68 36.97"/>
        <polygon class="cls-172" points="35.68 36.99 31.13 36.62 31.13 36.6 35.68 36.97 35.68 36.99"/>
        <polygon class="cls-10" points="35.68 37.02 31.13 36.64 31.13 36.62 35.68 36.99 35.68 37.02"/>
        <polygon class="cls-73" points="35.68 37.04 31.13 36.66 31.13 36.64 35.68 37.02 35.68 37.04"/>
        <polygon class="cls-155" points="35.68 37.06 31.13 36.68 31.13 36.66 35.68 37.04 35.68 37.06"/>
        <polygon class="cls-62" points="35.68 37.08 31.13 36.7 31.13 36.68 35.68 37.06 35.68 37.08"/>
        <polygon class="cls-176" points="35.68 37.1 31.13 36.72 31.13 36.7 35.68 37.08 35.68 37.1"/>
        <polygon class="cls-115" points="35.68 37.12 31.13 36.74 31.13 36.72 35.68 37.1 35.68 37.12"/>
        <polygon class="cls-115" points="35.68 37.14 31.13 36.77 31.13 36.74 35.68 37.12 35.68 37.14"/>
        <polygon class="cls-3" points="35.68 37.16 31.13 36.79 31.13 36.77 35.68 37.14 35.68 37.16"/>
        <polygon class="cls-55" points="35.68 37.18 31.13 36.81 31.13 36.79 35.68 37.16 35.68 37.18"/>
        <polygon class="cls-159" points="35.68 37.2 31.13 36.83 31.13 36.81 35.68 37.18 35.68 37.2"/>
        <polygon class="cls-159" points="35.68 37.23 31.13 36.85 31.13 36.83 35.68 37.2 35.68 37.23"/>
        <polygon class="cls-88" points="35.68 37.25 31.13 36.87 31.13 36.85 35.68 37.23 35.68 37.25"/>
        <polygon class="cls-48" points="35.68 37.27 31.13 36.89 31.13 36.87 35.68 37.25 35.68 37.27"/>
        <polygon class="cls-48" points="35.68 37.29 31.13 36.91 31.13 36.89 35.68 37.27 35.68 37.29"/>
        <polygon class="cls-99" points="35.68 37.31 31.13 36.93 31.13 36.91 35.68 37.29 35.68 37.31"/>
        <polygon class="cls-99" points="35.68 37.33 31.13 36.95 31.13 36.93 35.68 37.31 35.68 37.33"/>
        <polygon class="cls-108" points="35.68 37.35 31.13 36.98 31.13 36.95 35.68 37.33 35.68 37.35"/>
        <polygon class="cls-15" points="35.68 37.37 31.13 37 31.13 36.98 35.68 37.35 35.68 37.37"/>
        <polygon class="cls-106" points="35.68 37.39 31.13 37.02 31.13 37 35.68 37.37 35.68 37.39"/>
        <polygon class="cls-106" points="35.68 37.41 31.13 37.04 31.13 37.02 35.68 37.39 35.68 37.41"/>
        <polygon class="cls-44" points="35.68 37.44 31.13 37.06 31.13 37.04 35.68 37.41 35.68 37.44"/>
        <polygon class="cls-177" points="35.68 37.46 31.13 37.08 31.13 37.06 35.68 37.44 35.68 37.46"/>
        <polygon class="cls-177" points="35.68 37.48 31.13 37.1 31.13 37.08 35.68 37.46 35.68 37.48"/>
        <polygon class="cls-117" points="35.68 37.5 31.13 37.12 31.13 37.1 35.68 37.48 35.68 37.5"/>
        <polygon class="cls-59" points="35.68 37.52 31.13 37.14 31.13 37.12 35.68 37.5 35.68 37.52"/>
        <polygon class="cls-32" points="35.68 37.54 31.13 37.16 31.13 37.14 35.68 37.52 35.68 37.54"/>
        <polygon class="cls-26" points="35.68 37.56 31.13 37.19 31.13 37.16 35.68 37.54 35.68 37.56"/>
        <polygon class="cls-26" points="35.68 37.58 31.13 37.21 31.13 37.19 35.68 37.56 35.68 37.58"/>
        <polygon class="cls-169" points="35.68 37.6 31.13 37.23 31.13 37.21 35.68 37.58 35.68 37.6"/>
        <polygon class="cls-131" points="35.68 37.62 31.13 37.25 31.13 37.23 35.68 37.6 35.68 37.62"/>
        <polygon class="cls-131" points="35.68 37.65 31.13 37.27 31.13 37.25 35.68 37.62 35.68 37.65"/>
        <polygon class="cls-131" points="35.68 37.67 31.13 37.29 31.13 37.27 35.68 37.65 35.68 37.67"/>
        <polygon class="cls-92" points="35.68 37.69 31.13 37.31 31.13 37.29 35.68 37.67 35.68 37.69"/>
        <polygon class="cls-92" points="35.68 37.71 31.13 37.33 31.13 37.31 35.68 37.69 35.68 37.71"/>
        <polygon class="cls-81" points="35.68 37.73 31.13 37.35 31.13 37.33 35.68 37.71 35.68 37.73"/>
        <polygon class="cls-81" points="35.68 37.75 31.13 37.37 31.13 37.35 35.68 37.73 35.68 37.75"/>
        <polygon class="cls-141" points="35.68 37.77 31.13 37.4 31.13 37.37 35.68 37.75 35.68 37.77"/>
        <polygon class="cls-4" points="35.68 37.79 31.13 37.42 31.13 37.4 35.68 37.77 35.68 37.79"/>
        <polygon class="cls-4" points="35.68 37.81 31.13 37.44 31.13 37.42 35.68 37.79 35.68 37.81"/>
        <polygon class="cls-47" points="35.68 37.83 31.13 37.46 31.13 37.44 35.68 37.81 35.68 37.83"/>
        <polygon class="cls-63" points="35.68 37.86 31.13 37.48 31.13 37.46 35.68 37.83 35.68 37.86"/>
        <polygon class="cls-87" points="35.68 37.88 31.13 37.5 31.13 37.48 35.68 37.86 35.68 37.88"/>
        <polygon class="cls-87" points="35.68 37.9 31.13 37.52 31.13 37.5 35.68 37.88 35.68 37.9"/>
        <polygon class="cls-87" points="35.68 37.92 31.13 37.54 31.13 37.52 35.68 37.9 35.68 37.92"/>
        <polygon class="cls-178" points="35.68 37.94 31.13 37.56 31.13 37.54 35.68 37.92 35.68 37.94"/>
        <polygon class="cls-12" points="35.68 37.96 31.13 37.58 31.13 37.56 35.68 37.94 35.68 37.96"/>
        <polygon class="cls-12" points="35.68 37.98 31.13 37.61 31.13 37.58 35.68 37.96 35.68 37.98"/>
        <polygon class="cls-174" points="35.68 38 31.13 37.63 31.13 37.61 35.68 37.98 35.68 38"/>
        <polygon class="cls-139" points="35.68 38.02 31.13 37.65 31.13 37.63 35.68 38 35.68 38.02"/>
        <polygon class="cls-139" points="35.68 38.05 31.13 37.67 31.13 37.65 35.68 38.02 35.68 38.05"/>
        <polygon class="cls-139" points="35.68 38.07 31.13 37.69 31.13 37.67 35.68 38.05 35.68 38.07"/>
        <polygon class="cls-139" points="35.68 38.09 31.13 37.71 31.13 37.69 35.68 38.07 35.68 38.09"/>
        <polygon class="cls-42" points="35.68 38.11 31.13 37.73 31.13 37.71 35.68 38.09 35.68 38.11"/>
        <polygon class="cls-100" points="35.68 38.13 31.13 37.75 31.13 37.73 35.68 38.11 35.68 38.13"/>
        <polygon class="cls-22" points="35.63 38.15 31.13 37.77 31.13 37.75 35.68 38.13 35.68 38.15 35.63 38.15"/>
        <polygon class="cls-22" points="35.37 38.15 31.13 37.79 31.13 37.77 35.63 38.15 35.37 38.15"/>
        <polygon class="cls-22" points="35.12 38.15 31.13 37.82 31.13 37.79 35.37 38.15 35.12 38.15"/>
        <polygon class="cls-22" points="34.87 38.15 31.13 37.84 31.13 37.82 35.12 38.15 34.87 38.15"/>
        <polygon class="cls-22" points="34.61 38.15 31.13 37.86 31.13 37.84 34.87 38.15 34.61 38.15"/>
        <polygon class="cls-22" points="34.36 38.15 31.13 37.88 31.13 37.86 34.61 38.15 34.36 38.15"/>
        <polygon class="cls-70" points="34.1 38.15 31.13 37.9 31.13 37.88 34.36 38.15 34.1 38.15"/>
        <polygon class="cls-151" points="33.85 38.15 31.13 37.92 31.13 37.9 34.1 38.15 33.85 38.15"/>
        <polygon class="cls-151" points="33.59 38.15 31.13 37.94 31.13 37.92 33.85 38.15 33.59 38.15"/>
        <polygon class="cls-151" points="33.34 38.15 31.13 37.96 31.13 37.94 33.59 38.15 33.34 38.15"/>
        <polygon class="cls-151" points="33.09 38.15 31.13 37.98 31.13 37.96 33.34 38.15 33.09 38.15"/>
        <polygon class="cls-151" points="32.83 38.15 31.13 38 31.13 37.98 33.09 38.15 32.83 38.15"/>
        <polygon class="cls-151" points="32.58 38.15 31.13 38.03 31.13 38 32.83 38.15 32.58 38.15"/>
        <polygon class="cls-151" points="32.32 38.15 31.13 38.05 31.13 38.03 32.58 38.15 32.32 38.15"/>
        <polygon class="cls-38" points="32.07 38.15 31.13 38.07 31.13 38.05 32.32 38.15 32.07 38.15"/>
        <polygon class="cls-38" points="31.81 38.15 31.13 38.09 31.13 38.07 32.07 38.15 31.81 38.15"/>
        <polygon class="cls-56" points="31.56 38.15 31.13 38.11 31.13 38.09 31.81 38.15 31.56 38.15"/>
        <polygon class="cls-56" points="31.31 38.15 31.13 38.13 31.13 38.11 31.56 38.15 31.31 38.15"/>
        <polygon class="cls-56" points="31.13 38.13 31.31 38.15 31.13 38.15 31.13 38.13"/>
      </g>
      <path class="cls-45" d="M33.3,37.37c-.64-.05-1.14-.7-1.08-1.4.06-.71.65-1.26,1.29-1.21.64.05,1.14.7,1.08,1.4-.06.71-.65,1.26-1.29,1.21Z"/>
      <path class="cls-132" d="M33.36,37.12c-.45-.04-.91-.53-.86-1.13.05-.6.59-1.01,1.03-.97.45.04.91.53.86,1.13-.05.6-.59,1.01-1.03.97Z"/>
      <g class="cls-120">
        <path class="cls-153" d="M36.95,38.92s-.05,0-.17.04c-.08-1.3-.33-3.09-1.07-3.45-1.09-.55-3.55-1.36-6.7.57-.32-.57-.48-.99-.48-.99,3.43-2.45,6.13-1.57,7.3-.99,1.18.59,1.12,4.81,1.12,4.81Z"/>
      </g>
      <path class="cls-98" d="M33,35.64c-.02.22-.24.38-.5.35-.26-.02-.45-.22-.43-.43.02-.22.24-.38.5-.36.26.02.45.21.44.43Z"/>
      <path class="cls-98" d="M34.44,36.89c0,.11-.12.19-.25.18-.13,0-.23-.11-.22-.22,0-.11.12-.19.25-.18.13,0,.23.11.22.22Z"/>
      <path class="cls-164" d="M43.9,31.93s.38-.58,1.16-1.18c.39-.3.88-.62,1.45-.86.57-.24,1.21-.42,1.87-.51.66-.07,1.32-.03,1.92.05.6.11,1.14.29,1.58.48.45.15.78.4,1.02.53.23.15.37.23.37.23,0,0-.15-.04-.42-.1-.26-.07-.63-.18-1.09-.24-.23-.03-.46-.1-.72-.11-.26-.02-.52-.04-.8-.06-.55,0-1.14.02-1.71.15-.57.1-1.12.28-1.61.5-.49.23-.94.46-1.3.71-.74.49-1.14.89-1.14.89-.15.15-.39.15-.54,0-.13-.13-.15-.33-.05-.48h0Z"/>
      <path class="cls-98" d="M53.67,35.1s-1.46,3.64-3.73,3.99c-2.27.35-4.68-.16-4.68-.16,0,0-.06-4.22,1.12-4.81,1.18-.59,3.87-1.46,7.3.98Z"/>
      <g class="cls-120">
        <path class="cls-153" d="M45.25,38.92s.05,0,.17.04c.08-1.3.34-3.09,1.07-3.45,1.09-.55,3.55-1.36,6.7.57.32-.57.48-.99.48-.99-3.43-2.45-6.13-1.57-7.3-.99-1.18.59-1.12,4.81-1.12,4.81Z"/>
      </g>
      <g class="cls-79">
        <polygon class="cls-124" points="51.08 34.33 46.53 33.96 46.53 33.53 51.08 33.53 51.08 34.33"/>
        <polygon class="cls-124" points="51.08 34.35 46.53 33.98 46.53 33.96 51.08 34.33 51.08 34.35"/>
        <polygon class="cls-170" points="51.08 34.37 46.53 34 46.53 33.98 51.08 34.35 51.08 34.37"/>
        <polygon class="cls-161" points="51.08 34.4 46.53 34.02 46.53 34 51.08 34.37 51.08 34.4"/>
        <polygon class="cls-86" points="51.08 34.42 46.53 34.04 46.53 34.02 51.08 34.4 51.08 34.42"/>
        <polygon class="cls-14" points="51.08 34.44 46.53 34.06 46.53 34.04 51.08 34.42 51.08 34.44"/>
        <polygon class="cls-138" points="51.08 34.46 46.53 34.08 46.53 34.06 51.08 34.44 51.08 34.46"/>
        <polygon class="cls-67" points="51.08 34.48 46.53 34.1 46.53 34.08 51.08 34.46 51.08 34.48"/>
        <polygon class="cls-2" points="51.08 34.5 46.53 34.12 46.53 34.1 51.08 34.48 51.08 34.5"/>
        <polygon class="cls-13" points="51.08 34.52 46.53 34.15 46.53 34.12 51.08 34.5 51.08 34.52"/>
        <polygon class="cls-72" points="51.08 34.54 46.53 34.17 46.53 34.15 51.08 34.52 51.08 34.54"/>
        <polygon class="cls-51" points="51.08 34.56 46.53 34.19 46.53 34.17 51.08 34.54 51.08 34.56"/>
        <polygon class="cls-65" points="51.08 34.58 46.53 34.21 46.53 34.19 51.08 34.56 51.08 34.58"/>
        <polygon class="cls-112" points="51.08 34.61 46.53 34.23 46.53 34.21 51.08 34.58 51.08 34.61"/>
        <polygon class="cls-149" points="51.08 34.63 46.53 34.25 46.53 34.23 51.08 34.61 51.08 34.63"/>
        <polygon class="cls-145" points="51.08 34.65 46.53 34.27 46.53 34.25 51.08 34.63 51.08 34.65"/>
        <polygon class="cls-66" points="51.08 34.67 46.53 34.29 46.53 34.27 51.08 34.65 51.08 34.67"/>
        <polygon class="cls-53" points="51.08 34.69 46.53 34.31 46.53 34.29 51.08 34.67 51.08 34.69"/>
        <polygon class="cls-160" points="51.08 34.71 46.53 34.33 46.53 34.31 51.08 34.69 51.08 34.71"/>
        <polygon class="cls-152" points="51.08 34.73 46.53 34.36 46.53 34.33 51.08 34.71 51.08 34.73"/>
        <polygon class="cls-123" points="51.08 34.75 46.53 34.38 46.53 34.36 51.08 34.73 51.08 34.75"/>
        <polygon class="cls-146" points="51.08 34.77 46.53 34.4 46.53 34.38 51.08 34.75 51.08 34.77"/>
        <polygon class="cls-127" points="51.08 34.79 46.53 34.42 46.53 34.4 51.08 34.77 51.08 34.79"/>
        <polygon class="cls-17" points="51.08 34.82 46.53 34.44 46.53 34.42 51.08 34.79 51.08 34.82"/>
        <polygon class="cls-158" points="51.08 34.84 46.53 34.46 46.53 34.44 51.08 34.82 51.08 34.84"/>
        <polygon class="cls-18" points="51.08 34.86 46.53 34.48 46.53 34.46 51.08 34.84 51.08 34.86"/>
        <polygon class="cls-110" points="51.08 34.88 46.53 34.5 46.53 34.48 51.08 34.86 51.08 34.88"/>
        <polygon class="cls-28" points="51.08 34.9 46.53 34.52 46.53 34.5 51.08 34.88 51.08 34.9"/>
        <polygon class="cls-41" points="51.08 34.92 46.53 34.54 46.53 34.52 51.08 34.9 51.08 34.92"/>
        <polygon class="cls-162" points="51.08 34.94 46.53 34.57 46.53 34.54 51.08 34.92 51.08 34.94"/>
        <polygon class="cls-118" points="51.08 34.96 46.53 34.59 46.53 34.57 51.08 34.94 51.08 34.96"/>
        <polygon class="cls-109" points="51.08 34.98 46.53 34.61 46.53 34.59 51.08 34.96 51.08 34.98"/>
        <polygon class="cls-107" points="51.08 35 46.53 34.63 46.53 34.61 51.08 34.98 51.08 35"/>
        <polygon class="cls-103" points="51.08 35.03 46.53 34.65 46.53 34.63 51.08 35 51.08 35.03"/>
        <polygon class="cls-78" points="51.08 35.05 46.53 34.67 46.53 34.65 51.08 35.03 51.08 35.05"/>
        <polygon class="cls-7" points="51.08 35.07 46.53 34.69 46.53 34.67 51.08 35.05 51.08 35.07"/>
        <polygon class="cls-116" points="51.08 35.09 46.53 34.71 46.53 34.69 51.08 35.07 51.08 35.09"/>
        <polygon class="cls-125" points="51.08 35.11 46.53 34.73 46.53 34.71 51.08 35.09 51.08 35.11"/>
        <polygon class="cls-114" points="51.08 35.13 46.53 34.75 46.53 34.73 51.08 35.11 51.08 35.13"/>
        <polygon class="cls-154" points="51.08 35.15 46.53 34.78 46.53 34.75 51.08 35.13 51.08 35.15"/>
        <polygon class="cls-75" points="51.08 35.17 46.53 34.8 46.53 34.78 51.08 35.15 51.08 35.17"/>
        <polygon class="cls-101" points="51.08 35.19 46.53 34.82 46.53 34.8 51.08 35.17 51.08 35.19"/>
        <polygon class="cls-80" points="51.08 35.21 46.53 34.84 46.53 34.82 51.08 35.19 51.08 35.21"/>
        <polygon class="cls-130" points="51.08 35.24 46.53 34.86 46.53 34.84 51.08 35.21 51.08 35.24"/>
        <polygon class="cls-134" points="51.08 35.26 46.53 34.88 46.53 34.86 51.08 35.24 51.08 35.26"/>
        <polygon class="cls-104" points="51.08 35.28 46.53 34.9 46.53 34.88 51.08 35.26 51.08 35.28"/>
        <polygon class="cls-180" points="51.08 35.3 46.53 34.92 46.53 34.9 51.08 35.28 51.08 35.3"/>
        <polygon class="cls-25" points="51.08 35.32 46.53 34.94 46.53 34.92 51.08 35.3 51.08 35.32"/>
        <polygon class="cls-68" points="51.08 35.34 46.53 34.96 46.53 34.94 51.08 35.32 51.08 35.34"/>
        <polygon class="cls-34" points="51.08 35.36 46.53 34.99 46.53 34.96 51.08 35.34 51.08 35.36"/>
        <polygon class="cls-69" points="51.08 35.38 46.53 35.01 46.53 34.99 51.08 35.36 51.08 35.38"/>
        <polygon class="cls-156" points="51.08 35.4 46.53 35.03 46.53 35.01 51.08 35.38 51.08 35.4"/>
        <polygon class="cls-30" points="51.08 35.42 46.53 35.05 46.53 35.03 51.08 35.4 51.08 35.42"/>
        <polygon class="cls-57" points="51.08 35.45 46.53 35.07 46.53 35.05 51.08 35.42 51.08 35.45"/>
        <polygon class="cls-142" points="51.08 35.47 46.53 35.09 46.53 35.07 51.08 35.45 51.08 35.47"/>
        <polygon class="cls-166" points="51.08 35.49 46.53 35.11 46.53 35.09 51.08 35.47 51.08 35.49"/>
        <polygon class="cls-122" points="51.08 35.51 46.53 35.13 46.53 35.11 51.08 35.49 51.08 35.51"/>
        <polygon class="cls-102" points="51.08 35.53 46.53 35.15 46.53 35.13 51.08 35.51 51.08 35.53"/>
        <polygon class="cls-83" points="51.08 35.55 46.53 35.17 46.53 35.15 51.08 35.53 51.08 35.55"/>
        <polygon class="cls-175" points="51.08 35.57 46.53 35.2 46.53 35.17 51.08 35.55 51.08 35.57"/>
        <polygon class="cls-133" points="51.08 35.59 46.53 35.22 46.53 35.2 51.08 35.57 51.08 35.59"/>
        <polygon class="cls-163" points="51.08 35.61 46.53 35.24 46.53 35.22 51.08 35.59 51.08 35.61"/>
        <polygon class="cls-43" points="51.08 35.63 46.53 35.26 46.53 35.24 51.08 35.61 51.08 35.63"/>
        <polygon class="cls-181" points="51.08 35.66 46.53 35.28 46.53 35.26 51.08 35.63 51.08 35.66"/>
        <polygon class="cls-24" points="51.08 35.68 46.53 35.3 46.53 35.28 51.08 35.66 51.08 35.68"/>
        <polygon class="cls-144" points="51.08 35.7 46.53 35.32 46.53 35.3 51.08 35.68 51.08 35.7"/>
        <polygon class="cls-71" points="51.08 35.72 46.53 35.34 46.53 35.32 51.08 35.7 51.08 35.72"/>
        <polygon class="cls-96" points="51.08 35.74 46.53 35.36 46.53 35.34 51.08 35.72 51.08 35.74"/>
        <polygon class="cls-157" points="51.08 35.76 46.53 35.38 46.53 35.36 51.08 35.74 51.08 35.76"/>
        <polygon class="cls-46" points="51.08 35.78 46.53 35.41 46.53 35.38 51.08 35.76 51.08 35.78"/>
        <polygon class="cls-50" points="51.08 35.8 46.53 35.43 46.53 35.41 51.08 35.78 51.08 35.8"/>
        <polygon class="cls-136" points="51.08 35.82 46.53 35.45 46.53 35.43 51.08 35.8 51.08 35.82"/>
        <polygon class="cls-64" points="51.08 35.84 46.53 35.47 46.53 35.45 51.08 35.82 51.08 35.84"/>
        <polygon class="cls-11" points="51.08 35.87 46.53 35.49 46.53 35.47 51.08 35.84 51.08 35.87"/>
        <polygon class="cls-135" points="51.08 35.89 46.53 35.51 46.53 35.49 51.08 35.87 51.08 35.89"/>
        <polygon class="cls-54" points="51.08 35.91 46.53 35.53 46.53 35.51 51.08 35.89 51.08 35.91"/>
        <polygon class="cls-119" points="51.08 35.93 46.53 35.55 46.53 35.53 51.08 35.91 51.08 35.93"/>
        <polygon class="cls-143" points="51.08 35.95 46.53 35.57 46.53 35.55 51.08 35.93 51.08 35.95"/>
        <polygon class="cls-105" points="51.08 35.97 46.53 35.59 46.53 35.57 51.08 35.95 51.08 35.97"/>
        <polygon class="cls-89" points="51.08 35.99 46.53 35.62 46.53 35.59 51.08 35.97 51.08 35.99"/>
        <polygon class="cls-91" points="51.08 36.01 46.53 35.64 46.53 35.62 51.08 35.99 51.08 36.01"/>
        <polygon class="cls-94" points="51.08 36.03 46.53 35.66 46.53 35.64 51.08 36.01 51.08 36.03"/>
        <polygon class="cls-150" points="51.08 36.05 46.53 35.68 46.53 35.66 51.08 36.03 51.08 36.05"/>
        <polygon class="cls-61" points="51.08 36.08 46.53 35.7 46.53 35.68 51.08 36.05 51.08 36.08"/>
        <polygon class="cls-74" points="51.08 36.1 46.53 35.72 46.53 35.7 51.08 36.08 51.08 36.1"/>
        <polygon class="cls-16" points="51.08 36.12 46.53 35.74 46.53 35.72 51.08 36.1 51.08 36.12"/>
        <polygon class="cls-85" points="51.08 36.14 46.53 35.76 46.53 35.74 51.08 36.12 51.08 36.14"/>
        <polygon class="cls-85" points="51.08 36.16 46.53 35.78 46.53 35.76 51.08 36.14 51.08 36.16"/>
        <polygon class="cls-97" points="51.08 36.18 46.53 35.8 46.53 35.78 51.08 36.16 51.08 36.18"/>
        <polygon class="cls-29" points="51.08 36.2 46.53 35.83 46.53 35.8 51.08 36.18 51.08 36.2"/>
        <polygon class="cls-29" points="51.08 36.22 46.53 35.85 46.53 35.83 51.08 36.2 51.08 36.22"/>
        <polygon class="cls-171" points="51.08 36.24 46.53 35.87 46.53 35.85 51.08 36.22 51.08 36.24"/>
        <polygon class="cls-76" points="51.08 36.26 46.53 35.89 46.53 35.87 51.08 36.24 51.08 36.26"/>
        <polygon class="cls-165" points="51.08 36.29 46.53 35.91 46.53 35.89 51.08 36.26 51.08 36.29"/>
        <polygon class="cls-82" points="51.08 36.31 46.53 35.93 46.53 35.91 51.08 36.29 51.08 36.31"/>
        <polygon class="cls-36" points="51.08 36.33 46.53 35.95 46.53 35.93 51.08 36.31 51.08 36.33"/>
        <polygon class="cls-137" points="51.08 36.35 46.53 35.97 46.53 35.95 51.08 36.33 51.08 36.35"/>
        <polygon class="cls-179" points="51.08 36.37 46.53 35.99 46.53 35.97 51.08 36.35 51.08 36.37"/>
        <polygon class="cls-77" points="51.08 36.39 46.53 36.01 46.53 35.99 51.08 36.37 51.08 36.39"/>
        <polygon class="cls-40" points="51.08 36.41 46.53 36.04 46.53 36.01 51.08 36.39 51.08 36.41"/>
        <polygon class="cls-23" points="51.08 36.43 46.53 36.06 46.53 36.04 51.08 36.41 51.08 36.43"/>
        <polygon class="cls-35" points="51.08 36.45 46.53 36.08 46.53 36.06 51.08 36.43 51.08 36.45"/>
        <polygon class="cls-128" points="51.08 36.47 46.53 36.1 46.53 36.08 51.08 36.45 51.08 36.47"/>
        <polygon class="cls-90" points="51.08 36.5 46.53 36.12 46.53 36.1 51.08 36.47 51.08 36.5"/>
        <polygon class="cls-173" points="51.08 36.52 46.53 36.14 46.53 36.12 51.08 36.5 51.08 36.52"/>
        <polygon class="cls-33" points="51.08 36.54 46.53 36.16 46.53 36.14 51.08 36.52 51.08 36.54"/>
        <polygon class="cls-121" points="51.08 36.56 46.53 36.18 46.53 36.16 51.08 36.54 51.08 36.56"/>
        <polygon class="cls-111" points="51.08 36.58 46.53 36.2 46.53 36.18 51.08 36.56 51.08 36.58"/>
        <polygon class="cls-9" points="51.08 36.6 46.53 36.22 46.53 36.2 51.08 36.58 51.08 36.6"/>
        <polygon class="cls-140" points="51.08 36.62 46.53 36.25 46.53 36.22 51.08 36.6 51.08 36.62"/>
        <polygon class="cls-140" points="51.08 36.64 46.53 36.27 46.53 36.25 51.08 36.62 51.08 36.64"/>
        <polygon class="cls-31" points="51.08 36.66 46.53 36.29 46.53 36.27 51.08 36.64 51.08 36.66"/>
        <polygon class="cls-19" points="51.08 36.68 46.53 36.31 46.53 36.29 51.08 36.66 51.08 36.68"/>
        <polygon class="cls-126" points="51.08 36.71 46.53 36.33 46.53 36.31 51.08 36.68 51.08 36.71"/>
        <polygon class="cls-93" points="51.08 36.73 46.53 36.35 46.53 36.33 51.08 36.71 51.08 36.73"/>
        <polygon class="cls-129" points="51.08 36.75 46.53 36.37 46.53 36.35 51.08 36.73 51.08 36.75"/>
        <polygon class="cls-129" points="51.08 36.77 46.53 36.39 46.53 36.37 51.08 36.75 51.08 36.77"/>
        <polygon class="cls-60" points="51.08 36.79 46.53 36.41 46.53 36.39 51.08 36.77 51.08 36.79"/>
        <polygon class="cls-60" points="51.08 36.81 46.53 36.43 46.53 36.41 51.08 36.79 51.08 36.81"/>
        <polygon class="cls-58" points="51.08 36.83 46.53 36.46 46.53 36.43 51.08 36.81 51.08 36.83"/>
        <polygon class="cls-172" points="51.08 36.85 46.53 36.48 46.53 36.46 51.08 36.83 51.08 36.85"/>
        <polygon class="cls-172" points="51.08 36.87 46.53 36.5 46.53 36.48 51.08 36.85 51.08 36.87"/>
        <polygon class="cls-10" points="51.08 36.89 46.53 36.52 46.53 36.5 51.08 36.87 51.08 36.89"/>
        <polygon class="cls-73" points="51.08 36.92 46.53 36.54 46.53 36.52 51.08 36.89 51.08 36.92"/>
        <polygon class="cls-155" points="51.08 36.94 46.53 36.56 46.53 36.54 51.08 36.92 51.08 36.94"/>
        <polygon class="cls-62" points="51.08 36.96 46.53 36.58 46.53 36.56 51.08 36.94 51.08 36.96"/>
        <polygon class="cls-176" points="51.08 36.98 46.53 36.6 46.53 36.58 51.08 36.96 51.08 36.98"/>
        <polygon class="cls-115" points="51.08 37 46.53 36.62 46.53 36.6 51.08 36.98 51.08 37"/>
        <polygon class="cls-115" points="51.08 37.02 46.53 36.64 46.53 36.62 51.08 37 51.08 37.02"/>
        <polygon class="cls-3" points="51.08 37.04 46.53 36.67 46.53 36.64 51.08 37.02 51.08 37.04"/>
        <polygon class="cls-55" points="51.08 37.06 46.53 36.69 46.53 36.67 51.08 37.04 51.08 37.06"/>
        <polygon class="cls-159" points="51.08 37.08 46.53 36.71 46.53 36.69 51.08 37.06 51.08 37.08"/>
        <polygon class="cls-159" points="51.08 37.1 46.53 36.73 46.53 36.71 51.08 37.08 51.08 37.1"/>
        <polygon class="cls-88" points="51.08 37.13 46.53 36.75 46.53 36.73 51.08 37.1 51.08 37.13"/>
        <polygon class="cls-48" points="51.08 37.15 46.53 36.77 46.53 36.75 51.08 37.13 51.08 37.15"/>
        <polygon class="cls-48" points="51.08 37.17 46.53 36.79 46.53 36.77 51.08 37.15 51.08 37.17"/>
        <polygon class="cls-99" points="51.08 37.19 46.53 36.81 46.53 36.79 51.08 37.17 51.08 37.19"/>
        <polygon class="cls-99" points="51.08 37.21 46.53 36.83 46.53 36.81 51.08 37.19 51.08 37.21"/>
        <polygon class="cls-108" points="51.08 37.23 46.53 36.85 46.53 36.83 51.08 37.21 51.08 37.23"/>
        <polygon class="cls-15" points="51.08 37.25 46.53 36.88 46.53 36.85 51.08 37.23 51.08 37.25"/>
        <polygon class="cls-106" points="51.08 37.27 46.53 36.9 46.53 36.88 51.08 37.25 51.08 37.27"/>
        <polygon class="cls-106" points="51.08 37.29 46.53 36.92 46.53 36.9 51.08 37.27 51.08 37.29"/>
        <polygon class="cls-44" points="51.08 37.31 46.53 36.94 46.53 36.92 51.08 37.29 51.08 37.31"/>
        <polygon class="cls-177" points="51.08 37.34 46.53 36.96 46.53 36.94 51.08 37.31 51.08 37.34"/>
        <polygon class="cls-177" points="51.08 37.36 46.53 36.98 46.53 36.96 51.08 37.34 51.08 37.36"/>
        <polygon class="cls-117" points="51.08 37.38 46.53 37 46.53 36.98 51.08 37.36 51.08 37.38"/>
        <polygon class="cls-59" points="51.08 37.4 46.53 37.02 46.53 37 51.08 37.38 51.08 37.4"/>
        <polygon class="cls-32" points="51.08 37.42 46.53 37.04 46.53 37.02 51.08 37.4 51.08 37.42"/>
        <polygon class="cls-26" points="51.08 37.44 46.53 37.06 46.53 37.04 51.08 37.42 51.08 37.44"/>
        <polygon class="cls-26" points="51.08 37.46 46.53 37.09 46.53 37.06 51.08 37.44 51.08 37.46"/>
        <polygon class="cls-169" points="51.08 37.48 46.53 37.11 46.53 37.09 51.08 37.46 51.08 37.48"/>
        <polygon class="cls-131" points="51.08 37.5 46.53 37.13 46.53 37.11 51.08 37.48 51.08 37.5"/>
        <polygon class="cls-131" points="51.08 37.52 46.53 37.15 46.53 37.13 51.08 37.5 51.08 37.52"/>
        <polygon class="cls-131" points="51.08 37.55 46.53 37.17 46.53 37.15 51.08 37.52 51.08 37.55"/>
        <polygon class="cls-92" points="51.08 37.57 46.53 37.19 46.53 37.17 51.08 37.55 51.08 37.57"/>
        <polygon class="cls-92" points="51.08 37.59 46.53 37.21 46.53 37.19 51.08 37.57 51.08 37.59"/>
        <polygon class="cls-81" points="51.08 37.61 46.53 37.23 46.53 37.21 51.08 37.59 51.08 37.61"/>
        <polygon class="cls-81" points="51.08 37.63 46.53 37.25 46.53 37.23 51.08 37.61 51.08 37.63"/>
        <polygon class="cls-141" points="51.08 37.65 46.53 37.27 46.53 37.25 51.08 37.63 51.08 37.65"/>
        <polygon class="cls-4" points="51.08 37.67 46.53 37.3 46.53 37.27 51.08 37.65 51.08 37.67"/>
        <polygon class="cls-4" points="51.08 37.69 46.53 37.32 46.53 37.3 51.08 37.67 51.08 37.69"/>
        <polygon class="cls-47" points="51.08 37.71 46.53 37.34 46.53 37.32 51.08 37.69 51.08 37.71"/>
        <polygon class="cls-63" points="51.08 37.73 46.53 37.36 46.53 37.34 51.08 37.71 51.08 37.73"/>
        <polygon class="cls-87" points="51.08 37.76 46.53 37.38 46.53 37.36 51.08 37.73 51.08 37.76"/>
        <polygon class="cls-87" points="51.08 37.78 46.53 37.4 46.53 37.38 51.08 37.76 51.08 37.78"/>
        <polygon class="cls-87" points="51.08 37.8 46.53 37.42 46.53 37.4 51.08 37.78 51.08 37.8"/>
        <polygon class="cls-178" points="51.08 37.82 46.53 37.44 46.53 37.42 51.08 37.8 51.08 37.82"/>
        <polygon class="cls-12" points="51.08 37.84 46.53 37.46 46.53 37.44 51.08 37.82 51.08 37.84"/>
        <polygon class="cls-12" points="51.08 37.86 46.53 37.48 46.53 37.46 51.08 37.84 51.08 37.86"/>
        <polygon class="cls-174" points="51.08 37.88 46.53 37.51 46.53 37.48 51.08 37.86 51.08 37.88"/>
        <polygon class="cls-139" points="51.08 37.9 46.53 37.53 46.53 37.51 51.08 37.88 51.08 37.9"/>
        <polygon class="cls-139" points="51.08 37.92 46.53 37.55 46.53 37.53 51.08 37.9 51.08 37.92"/>
        <polygon class="cls-139" points="51.08 37.94 46.53 37.57 46.53 37.55 51.08 37.92 51.08 37.94"/>
        <polygon class="cls-139" points="51.08 37.97 46.53 37.59 46.53 37.57 51.08 37.94 51.08 37.97"/>
        <polygon class="cls-42" points="51.08 37.99 46.53 37.61 46.53 37.59 51.08 37.97 51.08 37.99"/>
        <polygon class="cls-100" points="51.08 38.01 46.53 37.63 46.53 37.61 51.08 37.99 51.08 38.01"/>
        <polygon class="cls-22" points="51.03 38.02 46.53 37.65 46.53 37.63 51.08 38.01 51.08 38.02 51.03 38.02"/>
        <polygon class="cls-22" points="50.77 38.02 46.53 37.67 46.53 37.65 51.03 38.02 50.77 38.02"/>
        <polygon class="cls-22" points="50.52 38.02 46.53 37.69 46.53 37.67 50.77 38.02 50.52 38.02"/>
        <polygon class="cls-22" points="50.26 38.02 46.53 37.72 46.53 37.69 50.52 38.02 50.26 38.02"/>
        <polygon class="cls-22" points="50.01 38.02 46.53 37.74 46.53 37.72 50.26 38.02 50.01 38.02"/>
        <polygon class="cls-22" points="49.76 38.02 46.53 37.76 46.53 37.74 50.01 38.02 49.76 38.02"/>
        <polygon class="cls-70" points="49.5 38.02 46.53 37.78 46.53 37.76 49.76 38.02 49.5 38.02"/>
        <polygon class="cls-151" points="49.25 38.02 46.53 37.8 46.53 37.78 49.5 38.02 49.25 38.02"/>
        <polygon class="cls-151" points="48.99 38.02 46.53 37.82 46.53 37.8 49.25 38.02 48.99 38.02"/>
        <polygon class="cls-151" points="48.74 38.02 46.53 37.84 46.53 37.82 48.99 38.02 48.74 38.02"/>
        <polygon class="cls-151" points="48.48 38.02 46.53 37.86 46.53 37.84 48.74 38.02 48.48 38.02"/>
        <polygon class="cls-151" points="48.23 38.02 46.53 37.88 46.53 37.86 48.48 38.02 48.23 38.02"/>
        <polygon class="cls-151" points="47.98 38.02 46.53 37.9 46.53 37.88 48.23 38.02 47.98 38.02"/>
        <polygon class="cls-151" points="47.72 38.02 46.53 37.93 46.53 37.9 47.98 38.02 47.72 38.02"/>
        <polygon class="cls-38" points="47.47 38.02 46.53 37.95 46.53 37.93 47.72 38.02 47.47 38.02"/>
        <polygon class="cls-38" points="47.21 38.02 46.53 37.97 46.53 37.95 47.47 38.02 47.21 38.02"/>
        <polygon class="cls-56" points="46.96 38.02 46.53 37.99 46.53 37.97 47.21 38.02 46.96 38.02"/>
        <polygon class="cls-56" points="46.7 38.02 46.53 38.01 46.53 37.99 46.96 38.02 46.7 38.02"/>
        <polygon class="cls-56" points="46.53 38.01 46.7 38.02 46.53 38.02 46.53 38.01"/>
      </g>
      <path class="cls-45" d="M48.7,37.25c-.64-.05-1.14-.7-1.08-1.4.06-.71.65-1.26,1.29-1.21.64.05,1.14.7,1.08,1.4-.06.71-.65,1.26-1.29,1.21Z"/>
      <path class="cls-132" d="M48.76,37c-.45-.04-.91-.52-.86-1.12.05-.6.59-1.01,1.03-.97.45.04.91.53.86,1.13-.05.6-.59,1.01-1.03.97Z"/>
      <path class="cls-98" d="M48.4,35.52c-.02.22-.24.38-.5.35-.26-.02-.45-.22-.43-.43.02-.22.24-.38.5-.36.26.02.45.21.44.43Z"/>
      <path class="cls-98" d="M49.84,36.77c0,.11-.12.19-.25.18-.13-.01-.23-.11-.22-.22,0-.11.12-.19.25-.18.13,0,.23.11.22.22Z"/>
      <path class="cls-6" d="M22.5,37.77c.97-1.58,2.49-.91,2.87-.57.4.37.72.87.48,1.8-.13.52-.68.57-.54,1.37.16.89.57.95.8,1.15.23.2.53.35.68.73.14.37.17.77.1,1.12-.15.65-1.09.14-1.72-.14-.42-.18-1.74-1.29-2.08-1.65-.84-.94-1.25-2.74-.6-3.8"/>
      <path class="cls-27" d="M42.94,44.84c.34-.23.74-.12.74-.12,0,0,0,0-.01.02-.08.14-.54.87-.91.86,0,0-.08-.07-.1-.24-.03-.17.11-.4.28-.52Z"/>
      <path class="cls-84" d="M28.26,64.37c-.35.12-.7.24-1.05.36-.09.03-.17.06-.26.09-.94.32-1.84.62-2.56.86h-.01c-1.05.35-1.76.57-1.79.59-3.22,2.01-2.43,2.97-2.88,5.04h0v.04s-.03.07-.04.15h0c-.21,1.1-.3,6.39-.3,6.39,0,.32,0,.65,0,.99h4.44c.09-1.02.23-2.52.37-3.34.57-3.59,3.77-4.52,4.1-11.17Z"/>
      <path class="cls-84" d="M58.55,78.88h4.39c0-.34,0-.67-.01-.99,0,0-.1-6.02-.34-6.54-.46-2.1.36-3.06-2.88-5.08-.03-.01-.74-.24-1.8-.59t-.03-.01c-.69-.22-1.52-.5-2.4-.8-.34-.11-.67-.24-1.02-.35-.13-.04-.25-.09-.37-.13.33,6.64,3.53,7.57,4.1,11.15.14.81.28,2.32.37,3.34Z"/>
      <path class="cls-5" d="M41.17,70.42c-1.83-.11-3.52-.95-4.97-2.04-2.28-1.72-3.98-4.07-4.7-5.18-.16.06-.31.13-.48.19h-.12c-.53.21-1.11.42-1.71.64-.31.11-.62.23-.94.34-.33,6.59-3.46,7.57-4.08,11.07h16.99v-5.02Z"/>
      <path class="cls-147" d="M24.18,75.44s-.02.06-.02.1c-.14.81-.28,2.32-.37,3.34h17.38v-3.44h-16.99Z"/>
      <path class="cls-21" d="M58.16,75.44c-.26-1.47-.96-2.51-1.71-3.69-.88-1.39-1.83-3-2.21-5.79-.07-.49-.12-1-.15-1.57-.31-.11-.63-.22-.93-.34-.38-.14-.76-.28-1.12-.42.01,0,.03-.02.04-.03-.45-.17-.86-.33-1.24-.49-3.03,5.22-6.08,7.14-8.84,7.32-.16.01-.32.02-.48.01-.11,0-.22-.01-.33-.02v5.02h16.99Z"/>
      <path class="cls-95" d="M58.16,75.44h-16.99v3.44h17.38c-.09-1.02-.23-2.52-.37-3.34,0-.04-.02-.06-.02-.1Z"/>
      <g>
        <path class="cls-37" d="M62.26,26.83c-.14-1.48-.44-2.85-.83-4.06-.03-.1-.05-.16-.05-.16h0c-1.23-3.75-3.2-6.06-3.2-6.06,0,0,0,0,0,0-.91-1.3-2.19-2.66-3.74-4.01,0,0-.01,0-.02-.01-.15-.13-.3-.26-.45-.39-.34-.29-.67-.54-.99-.76-.61-.39-1.23-.73-1.84-1.03-.11-.05-.23-.09-.34-.13-.28-.12-.56-.24-.84-.34,0-.02,0-.04,0-.06-6.72-2.79-13.46-1.27-16.67-.23,0,.01,0,.03,0,.04-.18.05-.35.1-.52.15-4.59,1.59-8.34,4.31-11,11.61-2.65,7.31-.47,13.29.04,15.84,1.63,8.08,8.1,13.04,8.1,13.04,0,0-.64-2-1.52-4.15-.68-1.67-1.71-4.54-1.71-8.76s4.46-9.46,4.46-9.46c0,0-2.06,3.28-2.46,6.89-.41,3.61,1.75,6.4,1.75,6.4,0,0-2.73-4.69,1.63-8.19,1.39-1.11,2.55-2.28,3.49-3.34,0,0,0,0,0,0-1.1,2.76,1.1,5.09,1.1,5.09,0,0-.04-3.55,2.24-4.75,5.55-2.94,6.43-4.15,7.21-6.51.11-.32.17-.62.21-.91l5.07,6.83c.24.3.63.8,1.08,1.45,1.32,1.89,3.13,5,3.13,7.7,0,4.22-1.02,7.09-1.71,8.76-.88,2.15-2.85,4.31-2.85,4.31,0,0,.21-.14.56-.4,10.92-7.87,11.42-18.58,10.69-24.42Z"/>
        <path class="cls-49" d="M24.56,44.1c0-3.94-2.45-6.09-1.86-9.27.19-1.04,1.26-3.88,1.08-5.32-.27-2.25,5.26-13.02,9.56-15.07,4.3-2.05,8.4-2.5,11.08-2.2,2.67.3,6.97,1.95,9.33,6.2,2.35,4.24,3.37,4.58,3.53,5.87.16,1.29.77,2.75,1.04,4.42.3,1.82,2.27,5.62,2.27,8.86s-2.92,7.76-2.92,7.76c0,0,2.97-4.1,3.64-4.8.83-.88,1.72-1.71,2.05-3.91.32-2.2-1.16-6.25-1-8.22.17-1.97.23-6.34-1.47-10.58-1.71-4.25-3.74-9.02-7.96-11.6-4.22-2.58-8.77-4.55-12.5-3.49-3.73,1.06-6.99-.18-11.78,3.46-4.79,3.64-5.59,2.8-8.59,10.72-1.69,4.47-.25,8.11-.57,10.53-.21,1.59-.65,3.98-.89,5.89-.19,1.47.11,2.95.84,4.23,1.74,3.06,5.12,8.72,5.12,6.52Z"/>
        <path class="cls-113" d="M23.86,23.55c1.69-5.27,4.89-10.87,7.81-12.39,2.92-1.52,6.82-2.96,10.96-2.51,4.14.46,9.17,2.2,10.96,4.25,1.78,2.05,4.14,5.99,4.38,7.96.24,1.97.19,3.08.35,4.22.16,1.14,1.53,7.96,1.53,7.96,0,0-2.62-6.85-2.88-8.15-.56-2.86-2.65-5.26-4.06-6.81-.96-1.06-3.73-2.96-3.73-2.96,0,0-1.77-1.36-7.01-1.22-7.75.22-10.12,2.65-10.12,2.65,0,0-1.45,1.3-2.13,2.07-1.79,2.05-4.7,5.82-5.39,9.16-.78,3.75-1.29,5.04-1.29,5.04,0,0-.12-.96.09-3.54.11-1.4-.25-3.28.54-5.73"/>
      </g>
      <path class="cls-49" d="M23.4,43.81s2.27,2.76,3.76,3.8c0,0-2.54-4.93-3.03-6.37l-.73,2.58Z"/>
    </g>
  </g>
</svg>