<?xml version="1.0" encoding="UTF-8"?>
<svg id="Layer_2" data-name="Layer 2" xmlns="http://www.w3.org/2000/svg" xmlns:xlink="http://www.w3.org/1999/xlink" viewBox="0 0 78.88 78.88">
  <defs>
    <style>
      .cls-1 {
        fill: none;
      }

      .cls-2 {
        fill: #354148;
      }

      .cls-3 {
        fill: #7d99ae;
      }

      .cls-4 {
        fill: #84a2b8;
      }

      .cls-5 {
        fill: #debaad;
      }

      .cls-6 {
        fill: #4e606b;
      }

      .cls-7 {
        fill: #bf6c6c;
      }

      .cls-8 {
        fill: #7791a4;
      }

      .cls-9 {
        fill: #7b97ab;
      }

      .cls-10 {
        fill: #677e8d;
      }

      .cls-11 {
        fill: #86a3ba;
      }

      .cls-12 {
        fill: #364349;
      }

      .cls-13 {
        fill: #313d43;
      }

      .cls-14 {
        fill: #809cb2;
      }

      .cls-15 {
        fill: #6d8596;
      }

      .cls-16 {
        fill: #44545c;
      }

      .cls-17 {
        fill: #46565f;
      }

      .cls-18 {
        fill: #7893a6;
      }

      .cls-19 {
        fill: #87a5bc;
      }

      .cls-20 {
        fill: #748d9f;
      }

      .cls-21 {
        fill: #627886;
      }

      .cls-22 {
        fill: #576b77;
      }

      .cls-23 {
        fill: #829fb5;
      }

      .cls-24 {
        fill: #b89388;
      }

      .cls-25 {
        fill: #485862;
      }

      .cls-26 {
        fill: #6f8899;
      }

      .cls-27 {
        fill: #5b6f7c;
      }

      .cls-28 {
        fill: #7892a6;
      }

      .cls-29 {
        fill: #829fb4;
      }

      .cls-30 {
        fill: #7690a2;
      }

      .cls-31 {
        fill: #596c79;
      }

      .cls-32 {
        fill: #748ea0;
      }

      .cls-33 {
        fill: #728b9c;
      }

      .cls-34 {
        fill: #88a6be;
      }

      .cls-35 {
        fill: #a88a6b;
      }

      .cls-36 {
        fill: #738d9f;
      }

      .cls-37 {
        fill: #495963;
      }

      .cls-38 {
        fill: #87a4bb;
      }

      .cls-39 {
        fill: #617785;
      }

      .cls-40 {
        fill: #819db3;
      }

      .cls-41 {
        fill: #95bacb;
      }

      .cls-42 {
        fill: #657b8a;
      }

      .cls-43 {
        fill: #85a2b8;
      }

      .cls-44 {
        fill: #7f9bb0;
      }

      .cls-45 {
        fill: #667c8b;
      }

      .cls-46 {
        fill: #38454c;
      }

      .cls-47 {
        fill: #3e4d54;
      }

      .cls-48 {
        fill: #687f8f;
      }

      .cls-49 {
        fill: #7e9aae;
      }

      .cls-50 {
        fill: #88a7be;
      }

      .cls-51 {
        fill: #5b707d;
      }

      .cls-52 {
        fill: #7a96a9;
      }

      .cls-53 {
        fill: #829eb4;
      }

      .cls-54 {
        fill: #7a95a9;
      }

      .cls-55 {
        fill: #6c8495;
      }

      .cls-56 {
        fill: #7c98ac;
      }

      .cls-57 {
        fill: #85a2b9;
      }

      .cls-58 {
        fill: #677d8d;
      }

      .cls-59 {
        fill: #39464e;
      }

      .cls-60 {
        fill: #3d4b53;
      }

      .cls-61 {
        fill: #344046;
      }

      .cls-62 {
        fill: #586c78;
      }

      .cls-63 {
        fill: #596d7a;
      }

      .cls-64 {
        fill: #87a6bd;
      }

      .cls-65 {
        fill: #637988;
      }

      .cls-66 {
        fill: #37444b;
      }

      .cls-67 {
        fill: #7c97ab;
      }

      .cls-68 {
        fill: #6d8595;
      }

      .cls-69 {
        fill: #526570;
      }

      .cls-70 {
        fill: #70899b;
      }

      .cls-71 {
        fill: #738c9e;
      }

      .cls-72 {
        fill: #4e5f6a;
      }

      .cls-73 {
        clip-path: url(#clippath-1);
      }

      .cls-74 {
        fill: #546672;
      }

      .cls-75 {
        fill: #84a1b7;
      }

      .cls-76 {
        fill: #718a9c;
      }

      .cls-77 {
        fill: #5f7481;
      }

      .cls-78 {
        fill: #f1d4c8;
      }

      .cls-79 {
        fill: #6e8697;
      }

      .cls-80 {
        fill: #303c42;
      }

      .cls-81 {
        fill: #85a3b9;
      }

      .cls-82 {
        fill: #7e9baf;
      }

      .cls-83 {
        fill: #6a8292;
      }

      .cls-84 {
        fill: #758fa1;
      }

      .cls-85 {
        fill: #6b8292;
      }

      .cls-86 {
        fill: #83a1b7;
      }

      .cls-87 {
        fill: #7994a7;
      }

      .cls-88 {
        fill: #6b8393;
      }

      .cls-89 {
        fill: #7b187c;
      }

      .cls-90 {
        fill: #647a89;
      }

      .cls-91 {
        fill: #6e8798;
      }

      .cls-92 {
        fill: #fff;
      }

      .cls-93 {
        fill: #7f9cb1;
      }

      .cls-94 {
        fill: #87a5bb;
      }

      .cls-95 {
        fill: #536671;
      }

      .cls-96 {
        fill: #5e7380;
      }

      .cls-97 {
        fill: #4d5e69;
      }

      .cls-98 {
        fill: #566975;
      }

      .cls-99 {
        fill: #6a8191;
      }

      .cls-100 {
        fill: #809db2;
      }

      .cls-101 {
        fill: #4c5d68;
      }

      .cls-102 {
        fill: #809cb1;
      }

      .cls-103 {
        fill: #4b5c67;
      }

      .cls-104 {
        fill: #475760;
      }

      .cls-105 {
        fill: #7691a3;
      }

      .cls-106 {
        fill: #3a484f;
      }

      .cls-107 {
        fill: #3b3b36;
      }

      .cls-108 {
        fill: #51636e;
      }

      .cls-109 {
        fill: #7d99ad;
      }

      .cls-110 {
        fill: #4f616c;
      }

      .cls-111 {
        fill: #819eb4;
      }

      .cls-112 {
        fill: #4a5b65;
      }

      .cls-113 {
        fill: #698090;
      }

      .cls-114 {
        opacity: .3;
      }

      .cls-115 {
        fill: #7690a3;
      }

      .cls-116 {
        fill: #5d727f;
      }

      .cls-117 {
        fill: #415059;
      }

      .cls-118 {
        fill: #2d383d;
      }

      .cls-119 {
        fill: #50626d;
      }

      .cls-120 {
        fill: #7893a7;
      }

      .cls-121 {
        fill: #43525b;
      }

      .cls-122 {
        fill: #748ea1;
      }

      .cls-123 {
        fill: #7994a8;
      }

      .cls-124 {
        fill: #546773;
      }

      .cls-125 {
        fill: #83a0b6;
      }

      .cls-126 {
        fill: #26200c;
      }

      .cls-127 {
        fill: #607583;
      }

      .cls-128 {
        fill: #556874;
      }

      .cls-129 {
        fill: #687f8e;
      }

      .cls-130 {
        fill: #667d8c;
      }

      .cls-131 {
        fill: #728b9d;
      }

      .cls-132 {
        fill: #323f45;
      }

      .cls-133 {
        fill: #86a4bb;
      }

      .cls-134 {
        fill: #7792a5;
      }

      .cls-135 {
        fill: #84a1b8;
      }

      .cls-136 {
        fill: #55237e;
      }

      .cls-137 {
        fill: #5c707e;
      }

      .cls-138 {
        fill: #698190;
      }

      .cls-139 {
        fill: #637987;
      }

      .cls-140 {
        fill: #3c4a52;
      }

      .cls-141 {
        fill: #42515a;
      }

      .cls-142 {
        fill: #c6a095;
      }

      .cls-143 {
        fill: #3b4950;
      }

      .cls-144 {
        fill: #6c8494;
      }

      .cls-145 {
        fill: #88a6bd;
      }

      .cls-146 {
        fill: #404f57;
      }

      .cls-147 {
        fill: #47433b;
      }

      .cls-148 {
        fill: #51646f;
      }

      .cls-149 {
        fill: #7c97ac;
      }

      .cls-150 {
        fill: #5a6e7b;
      }

      .cls-151 {
        fill: #647b8a;
      }

      .cls-152 {
        fill: #45555e;
      }

      .cls-153 {
        fill: #7e9aaf;
      }

      .cls-154 {
        fill: #3f4e56;
      }

      .cls-155 {
        fill: #2f3b40;
      }

      .cls-156 {
        fill: #4a5a64;
      }

      .cls-157 {
        fill: #607684;
      }

      .cls-158 {
        fill: #49443b;
      }

      .cls-159 {
        fill: #718a9b;
      }

      .cls-160 {
        fill: #5d717f;
      }

      .cls-161 {
        clip-path: url(#clippath);
      }

      .cls-162 {
        fill: #82a0b5;
      }

      .cls-163 {
        fill: #2e393f;
      }

      .cls-164 {
        fill: #70899a;
      }

      .cls-165 {
        fill: #7b96aa;
      }

      .cls-166 {
        fill: #758fa2;
      }

      .cls-167 {
        fill: #86a4ba;
      }

      .cls-168 {
        fill: #5f7482;
      }

      .cls-169 {
        fill: #7c98ad;
      }

      .cls-170 {
        fill: #819eb3;
      }

      .cls-171 {
        fill: #85a3ba;
      }

      .cls-172 {
        fill: #728c9e;
      }

      .cls-173 {
        fill: #576a76;
      }

      .cls-174 {
        fill: #627786;
      }

      .cls-175 {
        fill: #ab5b64;
      }
    </style>
    <clipPath id="clippath">
      <path class="cls-1" d="M35.34,36.08c-.1,1.18-1.15,2.06-2.36,1.96-1.2-.1-2.1-1.14-2-2.32.1-1.19,1.15-2.07,2.36-1.97,1.2.1,2.1,1.14,2,2.33Z"/>
    </clipPath>
    <clipPath id="clippath-1">
      <path class="cls-1" d="M50.74,35.96c-.1,1.18-1.15,2.06-2.36,1.96-1.2-.1-2.1-1.14-2-2.32.1-1.19,1.15-2.07,2.36-1.97,1.2.1,2.1,1.14,2,2.33Z"/>
    </clipPath>
  </defs>
  <g id="Layer_1-2" data-name="Layer 1">
    <g>
      <rect class="cls-89" width="78.88" height="78.88"/>
      <path class="cls-78" d="M62.68,77.89s-.1-6.02-.34-6.54c-.46-2.1.36-3.06-2.88-5.08-.03-.01-.74-.24-1.8-.59t-.03-.01c-.69-.22-1.52-.5-2.4-.8-.34-.11-.67-.24-1.02-.35-.86-.3-1.72-.62-2.51-.92-.55-.21-1.07-.41-1.51-.59-.13-.06-.25-.11-.37-.16-1.65,1.45-4.18,3.08-7.42,3.38v-3.42c2.49-.41,4.11-1.35,5.37-2.43-.24-.57-.48-1.24-.62-1.94h0c-.07-.35-.11-.67-.12-1.01-.03-.49-.03-.97-.04-1.41-.01-.45-.02-.86-.04-1.2v-.29c-.01-.24-.01-.44-.01-.59-.01-.15-.01-.24-.01-.24,0,0,.35-.3.86-.75.64-.57,1.55-1.4,2.33-2.18.85-.85,1.59-1.66,1.75-2.08.01-.06.02-.11.02-.15,0,0-.02,0-.06.01-.4.06-2.55.44-4.86.8-1.37.21-2.81.43-3.98.57-.46.06-.89.1-1.25.14h-.01c-.34.04-.62.05-.84.05-.24,0-.56-.02-.95-.05h-.03c-.37-.05-.82-.1-1.31-.16-1.07-.14-2.36-.32-3.61-.51-1.15-.19-2.27-.36-3.16-.51-.21-.04-.4-.06-.57-.1-.85-.14-1.39-.24-1.39-.24,0,.16.15.41.4.74,0,0,0,.01.01.01.19.25.44.54.74.86.29.3.6.61.92.92.99.96,2.06,1.91,2.58,2.36.2.17.31.27.31.27,0,0,0,.09-.01.24,0,.15,0,.35-.01.59v.29c0,.1,0,.2-.01.3-.01.65-.04,1.46-.06,2.31-.01.34-.05.66-.12,1-.13.69-.37,1.35-.61,1.92,1.27,1.1,2.9,2.05,5.41,2.47v3.42c-3.24-.3-5.78-1.94-7.43-3.39-.03.01-.05.03-.08.04-.37.16-.8.34-1.27.52-1.11.43-2.43.91-3.7,1.34-.09.03-.17.06-.26.09-.94.32-1.84.62-2.56.86h-.01c-1.05.35-1.76.57-1.78.59-3.22,2.01-2.43,2.97-2.88,5.04h0v.04s-.03.07-.04.15h0c-.21,1.1-.3,6.39-.3,6.39,0,.32,0,.65,0,.99h43.58c0-.34,0-.67-.01-.99Z"/>
      <path class="cls-142" d="M47.17,58.41c-.07-.34-.11-.66-.12-1-.04-1.12-.06-2.2-.07-2.9-1.87.84-3.8,1.32-5.68,1.32-.11.02-.25.02-.38.02s-.27,0-.38-.02c-1.89,0-3.81-.49-5.68-1.32-.01.7-.04,1.77-.07,2.9-.01.34-.05.66-.12,1,1.81,1.51,4.26,3.07,5.88,3.07.1.02.23.02.34.02h0s.03,0,.04,0,.03,0,.04,0h0c.12,0,.24,0,.34-.03,1.62,0,4.07-1.56,5.88-3.07Z"/>
      <g>
        <path class="cls-78" d="M56.98,36c.31-1.73.56-3.05.63-3.31.04-.12.06-.25.1-.37.03-.15.06-.29.09-.42.06-.21.1-.43.15-.64.01-.1.04-.2.05-.3.04-.24.09-.48.12-.71.01-.1.03-.21.04-.31.04-.21.05-.42.08-.64.01-.16.02-.33.05-.47.01-.14.01-.28.02-.41.16-3.26-.54-6.58-2.67-9.59-2.58-3.62-5.56-7.45-12.01-7.99h-5.44c-6.46.54-9.43,4.37-12.01,7.99-2.13,3.01-2.83,6.33-2.67,9.59.01.14.01.27.02.41.02.15.04.31.05.47.02.21.04.42.07.64.01.1.03.21.04.31.04.24.09.47.13.71.01.1.04.2.05.3.05.21.09.43.15.64.03.14.06.27.09.42.04.12.06.25.1.37.08.26.32,1.57.63,3.29-1.72-.84-4.11.36-3.83,3.53.29,3.22,4.21,5.13,5.55,5.45.13.58.24,1.02.33,1.22,1.17,2.96,2.6,3.85,5.09,6.26,2.72,2.61,6.74,5.06,8.73,5.04.06.01.14.01.21.01s.15,0,.21-.01c1.98.01,6-2.43,8.73-5.04,2.5-2.41,3.92-3.3,5.09-6.26.08-.21.19-.63.32-1.21,1.29-.29,5.29-2.21,5.59-5.46.29-3.2-2.15-4.4-3.88-3.51Z"/>
        <path class="cls-5" d="M59.6,37.77c-.97-1.58-2.49-.91-2.87-.57-.4.37-.72.87-.48,1.8.13.52.68.57.54,1.37-.16.89-.57.95-.8,1.15-.23.2-.53.35-.68.73-.14.37-.17.77-.1,1.12.15.65,1.09.14,1.72-.14.42-.18,1.74-1.29,2.08-1.65.84-.94,1.25-2.74.6-3.8"/>
      </g>
      <path class="cls-5" d="M38.15,51.32c-.06-.82,2.31.17,3.09.2.62.02,2.49-.12,2.67-.19,1.31-.49-.07,1.38-2.7,1.48-1.21.05-3.02-.99-3.06-1.49Z"/>
      <g>
        <path class="cls-175" d="M45.98,50.25c-1.51-.28-4.68-.89-4.68-.89-2.62.43-4.67.88-4.68.9-.06,0,2.09,1.93,4.65,1.8h0c2.56.13,4.78-1.8,4.72-1.81Z"/>
        <path class="cls-7" d="M42.79,48.83c-.68-.07-1.15.32-1.49.29-.35.03-.82-.36-1.5-.29-.97.21-1.43.82-3.19,1.43.06.12,1.19-.15,3.3-.11.03,0,.6.32,1.4.31.5,0,1.19-.34,1.22-.34,2.11-.03,3.4.26,3.46.14-2.32-.71-2.23-1.23-3.2-1.44Z"/>
      </g>
      <path class="cls-35" d="M42.55,44.87c.34-.23.74-.12.74-.12,0,0,0,0-.01.02-.08.14-.54.87-.91.86,0,0-.08-.07-.1-.24-.03-.17.11-.4.28-.52Z"/>
      <path class="cls-5" d="M37.92,44.64c-.07-1.65,2.56-.6,3.43-.55.69.04,2.77-.52,2.95-.38,1.22.98-1.3,2.95-2.99,2.95-.45,0-3.34-1.03-3.38-2.03Z"/>
      <path class="cls-24" d="M39.91,44.84c-.34-.23-.74-.12-.74-.12,0,0,0,0,.01.02.08.14.54.87.91.86,0,0,.08-.07.1-.24.03-.17-.11-.4-.28-.52Z"/>
      <path class="cls-158" d="M37.47,32.41s-.4-.4-1.14-.89c-.35-.26-.81-.48-1.3-.71-.49-.23-1.04-.4-1.61-.5-.57-.13-1.15-.16-1.71-.15-.28.02-.55.04-.8.06-.26.01-.49.08-.72.11-.45.07-.82.18-1.09.24-.27.06-.42.1-.42.1,0,0,.13-.08.37-.23.24-.13.57-.37,1.02-.53.44-.19.98-.36,1.58-.48.6-.08,1.26-.12,1.92-.05.66.09,1.3.27,1.87.51.57.24,1.06.56,1.45.86.78.59,1.16,1.18,1.16,1.18h0c.12.18.07.42-.11.54-.15.1-.35.07-.48-.05Z"/>
      <path class="cls-92" d="M28.29,35.1s1.46,3.64,3.73,3.99c2.27.35,4.69-.16,4.69-.16,0,0,.06-4.22-1.12-4.81-1.18-.59-3.87-1.46-7.3.98Z"/>
      <g class="cls-161">
        <polygon class="cls-118" points="35.44 34.45 30.88 34.08 30.88 33.66 35.44 33.66 35.44 34.45"/>
        <polygon class="cls-118" points="35.44 34.47 30.88 34.1 30.88 34.08 35.44 34.45 35.44 34.47"/>
        <polygon class="cls-163" points="35.44 34.5 30.88 34.12 30.88 34.1 35.44 34.47 35.44 34.5"/>
        <polygon class="cls-155" points="35.44 34.52 30.88 34.14 30.88 34.12 35.44 34.5 35.44 34.52"/>
        <polygon class="cls-80" points="35.44 34.54 30.88 34.16 30.88 34.14 35.44 34.52 35.44 34.54"/>
        <polygon class="cls-13" points="35.44 34.56 30.88 34.18 30.88 34.16 35.44 34.54 35.44 34.56"/>
        <polygon class="cls-132" points="35.44 34.58 30.88 34.2 30.88 34.18 35.44 34.56 35.44 34.58"/>
        <polygon class="cls-61" points="35.44 34.6 30.88 34.22 30.88 34.2 35.44 34.58 35.44 34.6"/>
        <polygon class="cls-2" points="35.44 34.62 30.88 34.25 30.88 34.22 35.44 34.6 35.44 34.62"/>
        <polygon class="cls-12" points="35.44 34.64 30.88 34.27 30.88 34.25 35.44 34.62 35.44 34.64"/>
        <polygon class="cls-66" points="35.44 34.66 30.88 34.29 30.88 34.27 35.44 34.64 35.44 34.66"/>
        <polygon class="cls-46" points="35.44 34.68 30.88 34.31 30.88 34.29 35.44 34.66 35.44 34.68"/>
        <polygon class="cls-59" points="35.44 34.71 30.88 34.33 30.88 34.31 35.44 34.68 35.44 34.71"/>
        <polygon class="cls-106" points="35.44 34.73 30.88 34.35 30.88 34.33 35.44 34.71 35.44 34.73"/>
        <polygon class="cls-143" points="35.44 34.75 30.88 34.37 30.88 34.35 35.44 34.73 35.44 34.75"/>
        <polygon class="cls-140" points="35.44 34.77 30.88 34.39 30.88 34.37 35.44 34.75 35.44 34.77"/>
        <polygon class="cls-60" points="35.44 34.79 30.88 34.41 30.88 34.39 35.44 34.77 35.44 34.79"/>
        <polygon class="cls-47" points="35.44 34.81 30.88 34.43 30.88 34.41 35.44 34.79 35.44 34.81"/>
        <polygon class="cls-154" points="35.44 34.83 30.88 34.46 30.88 34.43 35.44 34.81 35.44 34.83"/>
        <polygon class="cls-146" points="35.44 34.85 30.88 34.48 30.88 34.46 35.44 34.83 35.44 34.85"/>
        <polygon class="cls-117" points="35.44 34.87 30.88 34.5 30.88 34.48 35.44 34.85 35.44 34.87"/>
        <polygon class="cls-141" points="35.44 34.89 30.88 34.52 30.88 34.5 35.44 34.87 35.44 34.89"/>
        <polygon class="cls-121" points="35.44 34.92 30.88 34.54 30.88 34.52 35.44 34.89 35.44 34.92"/>
        <polygon class="cls-16" points="35.44 34.94 30.88 34.56 30.88 34.54 35.44 34.92 35.44 34.94"/>
        <polygon class="cls-152" points="35.44 34.96 30.88 34.58 30.88 34.56 35.44 34.94 35.44 34.96"/>
        <polygon class="cls-17" points="35.44 34.98 30.88 34.6 30.88 34.58 35.44 34.96 35.44 34.98"/>
        <polygon class="cls-104" points="35.44 35 30.88 34.62 30.88 34.6 35.44 34.98 35.44 35"/>
        <polygon class="cls-25" points="35.44 35.02 30.88 34.64 30.88 34.62 35.44 35 35.44 35.02"/>
        <polygon class="cls-37" points="35.44 35.04 30.88 34.67 30.88 34.64 35.44 35.02 35.44 35.04"/>
        <polygon class="cls-156" points="35.44 35.06 30.88 34.69 30.88 34.67 35.44 35.04 35.44 35.06"/>
        <polygon class="cls-112" points="35.44 35.08 30.88 34.71 30.88 34.69 35.44 35.06 35.44 35.08"/>
        <polygon class="cls-103" points="35.44 35.1 30.88 34.73 30.88 34.71 35.44 35.08 35.44 35.1"/>
        <polygon class="cls-101" points="35.44 35.13 30.88 34.75 30.88 34.73 35.44 35.1 35.44 35.13"/>
        <polygon class="cls-97" points="35.44 35.15 30.88 34.77 30.88 34.75 35.44 35.13 35.44 35.15"/>
        <polygon class="cls-72" points="35.44 35.17 30.88 34.79 30.88 34.77 35.44 35.15 35.44 35.17"/>
        <polygon class="cls-6" points="35.44 35.19 30.88 34.81 30.88 34.79 35.44 35.17 35.44 35.19"/>
        <polygon class="cls-110" points="35.44 35.21 30.88 34.83 30.88 34.81 35.44 35.19 35.44 35.21"/>
        <polygon class="cls-119" points="35.44 35.23 30.88 34.85 30.88 34.83 35.44 35.21 35.44 35.23"/>
        <polygon class="cls-108" points="35.44 35.25 30.88 34.88 30.88 34.85 35.44 35.23 35.44 35.25"/>
        <polygon class="cls-148" points="35.44 35.27 30.88 34.9 30.88 34.88 35.44 35.25 35.44 35.27"/>
        <polygon class="cls-69" points="35.44 35.29 30.88 34.92 30.88 34.9 35.44 35.27 35.44 35.29"/>
        <polygon class="cls-95" points="35.44 35.31 30.88 34.94 30.88 34.92 35.44 35.29 35.44 35.31"/>
        <polygon class="cls-74" points="35.44 35.34 30.88 34.96 30.88 34.94 35.44 35.31 35.44 35.34"/>
        <polygon class="cls-124" points="35.44 35.36 30.88 34.98 30.88 34.96 35.44 35.34 35.44 35.36"/>
        <polygon class="cls-128" points="35.44 35.38 30.88 35 30.88 34.98 35.44 35.36 35.44 35.38"/>
        <polygon class="cls-98" points="35.44 35.4 30.88 35.02 30.88 35 35.44 35.38 35.44 35.4"/>
        <polygon class="cls-173" points="35.44 35.42 30.88 35.04 30.88 35.02 35.44 35.4 35.44 35.42"/>
        <polygon class="cls-22" points="35.44 35.44 30.88 35.06 30.88 35.04 35.44 35.42 35.44 35.44"/>
        <polygon class="cls-62" points="35.44 35.46 30.88 35.09 30.88 35.06 35.44 35.44 35.44 35.46"/>
        <polygon class="cls-31" points="35.44 35.48 30.88 35.11 30.88 35.09 35.44 35.46 35.44 35.48"/>
        <polygon class="cls-63" points="35.44 35.5 30.88 35.13 30.88 35.11 35.44 35.48 35.44 35.5"/>
        <polygon class="cls-150" points="35.44 35.52 30.88 35.15 30.88 35.13 35.44 35.5 35.44 35.52"/>
        <polygon class="cls-27" points="35.44 35.55 30.88 35.17 30.88 35.15 35.44 35.52 35.44 35.55"/>
        <polygon class="cls-51" points="35.44 35.57 30.88 35.19 30.88 35.17 35.44 35.55 35.44 35.57"/>
        <polygon class="cls-137" points="35.44 35.59 30.88 35.21 30.88 35.19 35.44 35.57 35.44 35.59"/>
        <polygon class="cls-160" points="35.44 35.61 30.88 35.23 30.88 35.21 35.44 35.59 35.44 35.61"/>
        <polygon class="cls-116" points="35.44 35.63 30.88 35.25 30.88 35.23 35.44 35.61 35.44 35.63"/>
        <polygon class="cls-96" points="35.44 35.65 30.88 35.27 30.88 35.25 35.44 35.63 35.44 35.65"/>
        <polygon class="cls-77" points="35.44 35.67 30.88 35.3 30.88 35.27 35.44 35.65 35.44 35.67"/>
        <polygon class="cls-168" points="35.44 35.69 30.88 35.32 30.88 35.3 35.44 35.67 35.44 35.69"/>
        <polygon class="cls-127" points="35.44 35.71 30.88 35.34 30.88 35.32 35.44 35.69 35.44 35.71"/>
        <polygon class="cls-157" points="35.44 35.73 30.88 35.36 30.88 35.34 35.44 35.71 35.44 35.73"/>
        <polygon class="cls-39" points="35.44 35.76 30.88 35.38 30.88 35.36 35.44 35.73 35.44 35.76"/>
        <polygon class="cls-174" points="35.44 35.78 30.88 35.4 30.88 35.38 35.44 35.76 35.44 35.78"/>
        <polygon class="cls-21" points="35.44 35.8 30.88 35.42 30.88 35.4 35.44 35.78 35.44 35.8"/>
        <polygon class="cls-139" points="35.44 35.82 30.88 35.44 30.88 35.42 35.44 35.8 35.44 35.82"/>
        <polygon class="cls-65" points="35.44 35.84 30.88 35.46 30.88 35.44 35.44 35.82 35.44 35.84"/>
        <polygon class="cls-90" points="35.44 35.86 30.88 35.48 30.88 35.46 35.44 35.84 35.44 35.86"/>
        <polygon class="cls-151" points="35.44 35.88 30.88 35.51 30.88 35.48 35.44 35.86 35.44 35.88"/>
        <polygon class="cls-42" points="35.44 35.9 30.88 35.53 30.88 35.51 35.44 35.88 35.44 35.9"/>
        <polygon class="cls-45" points="35.44 35.92 30.88 35.55 30.88 35.53 35.44 35.9 35.44 35.92"/>
        <polygon class="cls-130" points="35.44 35.94 30.88 35.57 30.88 35.55 35.44 35.92 35.44 35.94"/>
        <polygon class="cls-58" points="35.44 35.97 30.88 35.59 30.88 35.57 35.44 35.94 35.44 35.97"/>
        <polygon class="cls-10" points="35.44 35.99 30.88 35.61 30.88 35.59 35.44 35.97 35.44 35.99"/>
        <polygon class="cls-129" points="35.44 36.01 30.88 35.63 30.88 35.61 35.44 35.99 35.44 36.01"/>
        <polygon class="cls-48" points="35.44 36.03 30.88 35.65 30.88 35.63 35.44 36.01 35.44 36.03"/>
        <polygon class="cls-113" points="35.44 36.05 30.88 35.67 30.88 35.65 35.44 36.03 35.44 36.05"/>
        <polygon class="cls-138" points="35.44 36.07 30.88 35.69 30.88 35.67 35.44 36.05 35.44 36.07"/>
        <polygon class="cls-99" points="35.44 36.09 30.88 35.72 30.88 35.69 35.44 36.07 35.44 36.09"/>
        <polygon class="cls-83" points="35.44 36.11 30.88 35.74 30.88 35.72 35.44 36.09 35.44 36.11"/>
        <polygon class="cls-85" points="35.44 36.13 30.88 35.76 30.88 35.74 35.44 36.11 35.44 36.13"/>
        <polygon class="cls-88" points="35.44 36.15 30.88 35.78 30.88 35.76 35.44 36.13 35.44 36.15"/>
        <polygon class="cls-144" points="35.44 36.18 30.88 35.8 30.88 35.78 35.44 36.15 35.44 36.18"/>
        <polygon class="cls-55" points="35.44 36.2 30.88 35.82 30.88 35.8 35.44 36.18 35.44 36.2"/>
        <polygon class="cls-68" points="35.44 36.22 30.88 35.84 30.88 35.82 35.44 36.2 35.44 36.22"/>
        <polygon class="cls-15" points="35.44 36.24 30.88 35.86 30.88 35.84 35.44 36.22 35.44 36.24"/>
        <polygon class="cls-79" points="35.44 36.26 30.88 35.88 30.88 35.86 35.44 36.24 35.44 36.26"/>
        <polygon class="cls-79" points="35.44 36.28 30.88 35.9 30.88 35.88 35.44 36.26 35.44 36.28"/>
        <polygon class="cls-91" points="35.44 36.3 30.88 35.93 30.88 35.9 35.44 36.28 35.44 36.3"/>
        <polygon class="cls-26" points="35.44 36.32 30.88 35.95 30.88 35.93 35.44 36.3 35.44 36.32"/>
        <polygon class="cls-26" points="35.44 36.34 30.88 35.97 30.88 35.95 35.44 36.32 35.44 36.34"/>
        <polygon class="cls-164" points="35.44 36.36 30.88 35.99 30.88 35.97 35.44 36.34 35.44 36.36"/>
        <polygon class="cls-70" points="35.44 36.39 30.88 36.01 30.88 35.99 35.44 36.36 35.44 36.39"/>
        <polygon class="cls-159" points="35.44 36.41 30.88 36.03 30.88 36.01 35.44 36.39 35.44 36.41"/>
        <polygon class="cls-76" points="35.44 36.43 30.88 36.05 30.88 36.03 35.44 36.41 35.44 36.43"/>
        <polygon class="cls-33" points="35.44 36.45 30.88 36.07 30.88 36.05 35.44 36.43 35.44 36.45"/>
        <polygon class="cls-131" points="35.44 36.47 30.88 36.09 30.88 36.07 35.44 36.45 35.44 36.47"/>
        <polygon class="cls-172" points="35.44 36.49 30.88 36.11 30.88 36.09 35.44 36.47 35.44 36.49"/>
        <polygon class="cls-71" points="35.44 36.51 30.88 36.14 30.88 36.11 35.44 36.49 35.44 36.51"/>
        <polygon class="cls-36" points="35.44 36.53 30.88 36.16 30.88 36.14 35.44 36.51 35.44 36.53"/>
        <polygon class="cls-20" points="35.44 36.55 30.88 36.18 30.88 36.16 35.44 36.53 35.44 36.55"/>
        <polygon class="cls-32" points="35.44 36.57 30.88 36.2 30.88 36.18 35.44 36.55 35.44 36.57"/>
        <polygon class="cls-122" points="35.44 36.6 30.88 36.22 30.88 36.2 35.44 36.57 35.44 36.6"/>
        <polygon class="cls-84" points="35.44 36.62 30.88 36.24 30.88 36.22 35.44 36.6 35.44 36.62"/>
        <polygon class="cls-166" points="35.44 36.64 30.88 36.26 30.88 36.24 35.44 36.62 35.44 36.64"/>
        <polygon class="cls-30" points="35.44 36.66 30.88 36.28 30.88 36.26 35.44 36.64 35.44 36.66"/>
        <polygon class="cls-115" points="35.44 36.68 30.88 36.3 30.88 36.28 35.44 36.66 35.44 36.68"/>
        <polygon class="cls-105" points="35.44 36.7 30.88 36.32 30.88 36.3 35.44 36.68 35.44 36.7"/>
        <polygon class="cls-8" points="35.44 36.72 30.88 36.35 30.88 36.32 35.44 36.7 35.44 36.72"/>
        <polygon class="cls-134" points="35.44 36.74 30.88 36.37 30.88 36.35 35.44 36.72 35.44 36.74"/>
        <polygon class="cls-134" points="35.44 36.76 30.88 36.39 30.88 36.37 35.44 36.74 35.44 36.76"/>
        <polygon class="cls-28" points="35.44 36.78 30.88 36.41 30.88 36.39 35.44 36.76 35.44 36.78"/>
        <polygon class="cls-18" points="35.44 36.81 30.88 36.43 30.88 36.41 35.44 36.78 35.44 36.81"/>
        <polygon class="cls-120" points="35.44 36.83 30.88 36.45 30.88 36.43 35.44 36.81 35.44 36.83"/>
        <polygon class="cls-87" points="35.44 36.85 30.88 36.47 30.88 36.45 35.44 36.83 35.44 36.85"/>
        <polygon class="cls-123" points="35.44 36.87 30.88 36.49 30.88 36.47 35.44 36.85 35.44 36.87"/>
        <polygon class="cls-123" points="35.44 36.89 30.88 36.51 30.88 36.49 35.44 36.87 35.44 36.89"/>
        <polygon class="cls-54" points="35.44 36.91 30.88 36.53 30.88 36.51 35.44 36.89 35.44 36.91"/>
        <polygon class="cls-54" points="35.44 36.93 30.88 36.56 30.88 36.53 35.44 36.91 35.44 36.93"/>
        <polygon class="cls-52" points="35.44 36.95 30.88 36.58 30.88 36.56 35.44 36.93 35.44 36.95"/>
        <polygon class="cls-165" points="35.44 36.97 30.88 36.6 30.88 36.58 35.44 36.95 35.44 36.97"/>
        <polygon class="cls-165" points="35.44 36.99 30.88 36.62 30.88 36.6 35.44 36.97 35.44 36.99"/>
        <polygon class="cls-9" points="35.44 37.02 30.88 36.64 30.88 36.62 35.44 36.99 35.44 37.02"/>
        <polygon class="cls-67" points="35.44 37.04 30.88 36.66 30.88 36.64 35.44 37.02 35.44 37.04"/>
        <polygon class="cls-149" points="35.44 37.06 30.88 36.68 30.88 36.66 35.44 37.04 35.44 37.06"/>
        <polygon class="cls-56" points="35.44 37.08 30.88 36.7 30.88 36.68 35.44 37.06 35.44 37.08"/>
        <polygon class="cls-169" points="35.44 37.1 30.88 36.72 30.88 36.7 35.44 37.08 35.44 37.1"/>
        <polygon class="cls-109" points="35.44 37.12 30.88 36.74 30.88 36.72 35.44 37.1 35.44 37.12"/>
        <polygon class="cls-109" points="35.44 37.14 30.88 36.77 30.88 36.74 35.44 37.12 35.44 37.14"/>
        <polygon class="cls-3" points="35.44 37.16 30.88 36.79 30.88 36.77 35.44 37.14 35.44 37.16"/>
        <polygon class="cls-49" points="35.44 37.18 30.88 36.81 30.88 36.79 35.44 37.16 35.44 37.18"/>
        <polygon class="cls-153" points="35.44 37.2 30.88 36.83 30.88 36.81 35.44 37.18 35.44 37.2"/>
        <polygon class="cls-153" points="35.44 37.23 30.88 36.85 30.88 36.83 35.44 37.2 35.44 37.23"/>
        <polygon class="cls-82" points="35.44 37.25 30.88 36.87 30.88 36.85 35.44 37.23 35.44 37.25"/>
        <polygon class="cls-44" points="35.44 37.27 30.88 36.89 30.88 36.87 35.44 37.25 35.44 37.27"/>
        <polygon class="cls-44" points="35.44 37.29 30.88 36.91 30.88 36.89 35.44 37.27 35.44 37.29"/>
        <polygon class="cls-93" points="35.44 37.31 30.88 36.93 30.88 36.91 35.44 37.29 35.44 37.31"/>
        <polygon class="cls-93" points="35.44 37.33 30.88 36.95 30.88 36.93 35.44 37.31 35.44 37.33"/>
        <polygon class="cls-102" points="35.44 37.35 30.88 36.98 30.88 36.95 35.44 37.33 35.44 37.35"/>
        <polygon class="cls-14" points="35.44 37.37 30.88 37 30.88 36.98 35.44 37.35 35.44 37.37"/>
        <polygon class="cls-100" points="35.44 37.39 30.88 37.02 30.88 37 35.44 37.37 35.44 37.39"/>
        <polygon class="cls-100" points="35.44 37.41 30.88 37.04 30.88 37.02 35.44 37.39 35.44 37.41"/>
        <polygon class="cls-40" points="35.44 37.44 30.88 37.06 30.88 37.04 35.44 37.41 35.44 37.44"/>
        <polygon class="cls-170" points="35.44 37.46 30.88 37.08 30.88 37.06 35.44 37.44 35.44 37.46"/>
        <polygon class="cls-170" points="35.44 37.48 30.88 37.1 30.88 37.08 35.44 37.46 35.44 37.48"/>
        <polygon class="cls-111" points="35.44 37.5 30.88 37.12 30.88 37.1 35.44 37.48 35.44 37.5"/>
        <polygon class="cls-53" points="35.44 37.52 30.88 37.14 30.88 37.12 35.44 37.5 35.44 37.52"/>
        <polygon class="cls-29" points="35.44 37.54 30.88 37.16 30.88 37.14 35.44 37.52 35.44 37.54"/>
        <polygon class="cls-23" points="35.44 37.56 30.88 37.19 30.88 37.16 35.44 37.54 35.44 37.56"/>
        <polygon class="cls-23" points="35.44 37.58 30.88 37.21 30.88 37.19 35.44 37.56 35.44 37.58"/>
        <polygon class="cls-162" points="35.44 37.6 30.88 37.23 30.88 37.21 35.44 37.58 35.44 37.6"/>
        <polygon class="cls-125" points="35.44 37.62 30.88 37.25 30.88 37.23 35.44 37.6 35.44 37.62"/>
        <polygon class="cls-125" points="35.44 37.65 30.88 37.27 30.88 37.25 35.44 37.62 35.44 37.65"/>
        <polygon class="cls-125" points="35.44 37.67 30.88 37.29 30.88 37.27 35.44 37.65 35.44 37.67"/>
        <polygon class="cls-86" points="35.44 37.69 30.88 37.31 30.88 37.29 35.44 37.67 35.44 37.69"/>
        <polygon class="cls-86" points="35.44 37.71 30.88 37.33 30.88 37.31 35.44 37.69 35.44 37.71"/>
        <polygon class="cls-75" points="35.44 37.73 30.88 37.35 30.88 37.33 35.44 37.71 35.44 37.73"/>
        <polygon class="cls-75" points="35.44 37.75 30.88 37.37 30.88 37.35 35.44 37.73 35.44 37.75"/>
        <polygon class="cls-135" points="35.44 37.77 30.88 37.4 30.88 37.37 35.44 37.75 35.44 37.77"/>
        <polygon class="cls-4" points="35.44 37.79 30.88 37.42 30.88 37.4 35.44 37.77 35.44 37.79"/>
        <polygon class="cls-4" points="35.44 37.81 30.88 37.44 30.88 37.42 35.44 37.79 35.44 37.81"/>
        <polygon class="cls-43" points="35.44 37.83 30.88 37.46 30.88 37.44 35.44 37.81 35.44 37.83"/>
        <polygon class="cls-57" points="35.44 37.86 30.88 37.48 30.88 37.46 35.44 37.83 35.44 37.86"/>
        <polygon class="cls-81" points="35.44 37.88 30.88 37.5 30.88 37.48 35.44 37.86 35.44 37.88"/>
        <polygon class="cls-81" points="35.44 37.9 30.88 37.52 30.88 37.5 35.44 37.88 35.44 37.9"/>
        <polygon class="cls-81" points="35.44 37.92 30.88 37.54 30.88 37.52 35.44 37.9 35.44 37.92"/>
        <polygon class="cls-171" points="35.44 37.94 30.88 37.56 30.88 37.54 35.44 37.92 35.44 37.94"/>
        <polygon class="cls-11" points="35.44 37.96 30.88 37.58 30.88 37.56 35.44 37.94 35.44 37.96"/>
        <polygon class="cls-11" points="35.44 37.98 30.88 37.61 30.88 37.58 35.44 37.96 35.44 37.98"/>
        <polygon class="cls-167" points="35.44 38 30.88 37.63 30.88 37.61 35.44 37.98 35.44 38"/>
        <polygon class="cls-133" points="35.44 38.02 30.88 37.65 30.88 37.63 35.44 38 35.44 38.02"/>
        <polygon class="cls-133" points="35.44 38.05 30.88 37.67 30.88 37.65 35.44 38.02 35.44 38.05"/>
        <polygon class="cls-133" points="35.44 38.07 30.88 37.69 30.88 37.67 35.44 38.05 35.44 38.07"/>
        <polygon class="cls-133" points="35.44 38.09 30.88 37.71 30.88 37.69 35.44 38.07 35.44 38.09"/>
        <polygon class="cls-38" points="35.44 38.11 30.88 37.73 30.88 37.71 35.44 38.09 35.44 38.11"/>
        <polygon class="cls-94" points="35.44 38.13 30.88 37.75 30.88 37.73 35.44 38.11 35.44 38.13"/>
        <polygon class="cls-19" points="35.38 38.15 30.88 37.77 30.88 37.75 35.44 38.13 35.44 38.15 35.38 38.15"/>
        <polygon class="cls-19" points="35.13 38.15 30.88 37.79 30.88 37.77 35.38 38.15 35.13 38.15"/>
        <polygon class="cls-19" points="34.88 38.15 30.88 37.82 30.88 37.79 35.13 38.15 34.88 38.15"/>
        <polygon class="cls-19" points="34.62 38.15 30.88 37.84 30.88 37.82 34.88 38.15 34.62 38.15"/>
        <polygon class="cls-19" points="34.37 38.15 30.88 37.86 30.88 37.84 34.62 38.15 34.37 38.15"/>
        <polygon class="cls-19" points="34.11 38.15 30.88 37.88 30.88 37.86 34.37 38.15 34.11 38.15"/>
        <polygon class="cls-64" points="33.86 38.15 30.88 37.9 30.88 37.88 34.11 38.15 33.86 38.15"/>
        <polygon class="cls-145" points="33.6 38.15 30.88 37.92 30.88 37.9 33.86 38.15 33.6 38.15"/>
        <polygon class="cls-145" points="33.35 38.15 30.88 37.94 30.88 37.92 33.6 38.15 33.35 38.15"/>
        <polygon class="cls-145" points="33.1 38.15 30.88 37.96 30.88 37.94 33.35 38.15 33.1 38.15"/>
        <polygon class="cls-145" points="32.84 38.15 30.88 37.98 30.88 37.96 33.1 38.15 32.84 38.15"/>
        <polygon class="cls-145" points="32.59 38.15 30.88 38 30.88 37.98 32.84 38.15 32.59 38.15"/>
        <polygon class="cls-145" points="32.33 38.15 30.88 38.03 30.88 38 32.59 38.15 32.33 38.15"/>
        <polygon class="cls-145" points="32.08 38.15 30.88 38.05 30.88 38.03 32.33 38.15 32.08 38.15"/>
        <polygon class="cls-34" points="31.82 38.15 30.88 38.07 30.88 38.05 32.08 38.15 31.82 38.15"/>
        <polygon class="cls-34" points="31.57 38.15 30.88 38.09 30.88 38.07 31.82 38.15 31.57 38.15"/>
        <polygon class="cls-50" points="31.32 38.15 30.88 38.11 30.88 38.09 31.57 38.15 31.32 38.15"/>
        <polygon class="cls-50" points="31.06 38.15 30.88 38.13 30.88 38.11 31.32 38.15 31.06 38.15"/>
        <polygon class="cls-50" points="30.88 38.13 31.06 38.15 30.88 38.15 30.88 38.13"/>
      </g>
      <path class="cls-41" d="M33.06,37.37c-.64-.05-1.14-.7-1.08-1.4.06-.71.65-1.26,1.29-1.21.64.05,1.14.7,1.08,1.4-.06.71-.65,1.26-1.29,1.21Z"/>
      <path class="cls-126" d="M33.11,37.12c-.45-.04-.91-.52-.86-1.12.05-.6.59-1.01,1.03-.97.45.04.91.53.86,1.13-.05.6-.59,1.01-1.03.97Z"/>
      <g class="cls-114">
        <path class="cls-147" d="M36.7,38.92s-.05,0-.17.04c-.08-1.3-.33-3.09-1.07-3.45-1.09-.55-3.55-1.36-6.7.57-.32-.57-.48-.99-.48-.99,3.43-2.45,6.13-1.57,7.3-.99,1.18.59,1.12,4.81,1.12,4.81Z"/>
      </g>
      <path class="cls-92" d="M32.75,35.64c-.02.22-.24.38-.5.35-.26-.02-.45-.22-.43-.43.02-.22.24-.38.5-.36.26.02.45.21.44.43Z"/>
      <path class="cls-92" d="M34.2,36.89c0,.11-.12.19-.25.18-.13,0-.23-.11-.22-.22,0-.11.12-.19.25-.18.13,0,.23.11.22.22Z"/>
      <path class="cls-158" d="M43.66,31.93s.38-.58,1.16-1.18c.39-.3.88-.62,1.45-.86.57-.24,1.21-.42,1.87-.51.66-.07,1.32-.03,1.92.05.6.11,1.14.29,1.58.48.45.15.78.4,1.02.53.23.15.37.23.37.23,0,0-.15-.04-.42-.1-.26-.07-.63-.18-1.09-.24-.23-.03-.46-.1-.72-.11-.26-.02-.52-.04-.8-.06-.55,0-1.14.02-1.71.15-.57.1-1.12.28-1.61.5-.49.23-.94.46-1.3.71-.74.49-1.14.89-1.14.89-.15.15-.39.15-.54,0-.13-.13-.15-.33-.05-.48h0Z"/>
      <path class="cls-92" d="M53.42,35.1s-1.46,3.64-3.73,3.99c-2.27.35-4.68-.16-4.68-.16,0,0-.06-4.22,1.12-4.81,1.18-.59,3.87-1.46,7.3.98Z"/>
      <g class="cls-114">
        <path class="cls-147" d="M45.01,38.92s.05,0,.17.04c.08-1.3.34-3.09,1.07-3.45,1.09-.55,3.55-1.36,6.7.57.32-.57.48-.99.48-.99-3.43-2.45-6.13-1.57-7.3-.99-1.18.59-1.12,4.81-1.12,4.81Z"/>
      </g>
      <g class="cls-73">
        <polygon class="cls-118" points="50.84 34.33 46.28 33.96 46.28 33.53 50.84 33.53 50.84 34.33"/>
        <polygon class="cls-118" points="50.84 34.35 46.28 33.98 46.28 33.96 50.84 34.33 50.84 34.35"/>
        <polygon class="cls-163" points="50.84 34.37 46.28 34 46.28 33.98 50.84 34.35 50.84 34.37"/>
        <polygon class="cls-155" points="50.84 34.4 46.28 34.02 46.28 34 50.84 34.37 50.84 34.4"/>
        <polygon class="cls-80" points="50.84 34.42 46.28 34.04 46.28 34.02 50.84 34.4 50.84 34.42"/>
        <polygon class="cls-13" points="50.84 34.44 46.28 34.06 46.28 34.04 50.84 34.42 50.84 34.44"/>
        <polygon class="cls-132" points="50.84 34.46 46.28 34.08 46.28 34.06 50.84 34.44 50.84 34.46"/>
        <polygon class="cls-61" points="50.84 34.48 46.28 34.1 46.28 34.08 50.84 34.46 50.84 34.48"/>
        <polygon class="cls-2" points="50.84 34.5 46.28 34.12 46.28 34.1 50.84 34.48 50.84 34.5"/>
        <polygon class="cls-12" points="50.84 34.52 46.28 34.15 46.28 34.12 50.84 34.5 50.84 34.52"/>
        <polygon class="cls-66" points="50.84 34.54 46.28 34.17 46.28 34.15 50.84 34.52 50.84 34.54"/>
        <polygon class="cls-46" points="50.84 34.56 46.28 34.19 46.28 34.17 50.84 34.54 50.84 34.56"/>
        <polygon class="cls-59" points="50.84 34.58 46.28 34.21 46.28 34.19 50.84 34.56 50.84 34.58"/>
        <polygon class="cls-106" points="50.84 34.61 46.28 34.23 46.28 34.21 50.84 34.58 50.84 34.61"/>
        <polygon class="cls-143" points="50.84 34.63 46.28 34.25 46.28 34.23 50.84 34.61 50.84 34.63"/>
        <polygon class="cls-140" points="50.84 34.65 46.28 34.27 46.28 34.25 50.84 34.63 50.84 34.65"/>
        <polygon class="cls-60" points="50.84 34.67 46.28 34.29 46.28 34.27 50.84 34.65 50.84 34.67"/>
        <polygon class="cls-47" points="50.84 34.69 46.28 34.31 46.28 34.29 50.84 34.67 50.84 34.69"/>
        <polygon class="cls-154" points="50.84 34.71 46.28 34.33 46.28 34.31 50.84 34.69 50.84 34.71"/>
        <polygon class="cls-146" points="50.84 34.73 46.28 34.36 46.28 34.33 50.84 34.71 50.84 34.73"/>
        <polygon class="cls-117" points="50.84 34.75 46.28 34.38 46.28 34.36 50.84 34.73 50.84 34.75"/>
        <polygon class="cls-141" points="50.84 34.77 46.28 34.4 46.28 34.38 50.84 34.75 50.84 34.77"/>
        <polygon class="cls-121" points="50.84 34.79 46.28 34.42 46.28 34.4 50.84 34.77 50.84 34.79"/>
        <polygon class="cls-16" points="50.84 34.82 46.28 34.44 46.28 34.42 50.84 34.79 50.84 34.82"/>
        <polygon class="cls-152" points="50.84 34.84 46.28 34.46 46.28 34.44 50.84 34.82 50.84 34.84"/>
        <polygon class="cls-17" points="50.84 34.86 46.28 34.48 46.28 34.46 50.84 34.84 50.84 34.86"/>
        <polygon class="cls-104" points="50.84 34.88 46.28 34.5 46.28 34.48 50.84 34.86 50.84 34.88"/>
        <polygon class="cls-25" points="50.84 34.9 46.28 34.52 46.28 34.5 50.84 34.88 50.84 34.9"/>
        <polygon class="cls-37" points="50.84 34.92 46.28 34.54 46.28 34.52 50.84 34.9 50.84 34.92"/>
        <polygon class="cls-156" points="50.84 34.94 46.28 34.57 46.28 34.54 50.84 34.92 50.84 34.94"/>
        <polygon class="cls-112" points="50.84 34.96 46.28 34.59 46.28 34.57 50.84 34.94 50.84 34.96"/>
        <polygon class="cls-103" points="50.84 34.98 46.28 34.61 46.28 34.59 50.84 34.96 50.84 34.98"/>
        <polygon class="cls-101" points="50.84 35 46.28 34.63 46.28 34.61 50.84 34.98 50.84 35"/>
        <polygon class="cls-97" points="50.84 35.03 46.28 34.65 46.28 34.63 50.84 35 50.84 35.03"/>
        <polygon class="cls-72" points="50.84 35.05 46.28 34.67 46.28 34.65 50.84 35.03 50.84 35.05"/>
        <polygon class="cls-6" points="50.84 35.07 46.28 34.69 46.28 34.67 50.84 35.05 50.84 35.07"/>
        <polygon class="cls-110" points="50.84 35.09 46.28 34.71 46.28 34.69 50.84 35.07 50.84 35.09"/>
        <polygon class="cls-119" points="50.84 35.11 46.28 34.73 46.28 34.71 50.84 35.09 50.84 35.11"/>
        <polygon class="cls-108" points="50.84 35.13 46.28 34.75 46.28 34.73 50.84 35.11 50.84 35.13"/>
        <polygon class="cls-148" points="50.84 35.15 46.28 34.78 46.28 34.75 50.84 35.13 50.84 35.15"/>
        <polygon class="cls-69" points="50.84 35.17 46.28 34.8 46.28 34.78 50.84 35.15 50.84 35.17"/>
        <polygon class="cls-95" points="50.84 35.19 46.28 34.82 46.28 34.8 50.84 35.17 50.84 35.19"/>
        <polygon class="cls-74" points="50.84 35.21 46.28 34.84 46.28 34.82 50.84 35.19 50.84 35.21"/>
        <polygon class="cls-124" points="50.84 35.24 46.28 34.86 46.28 34.84 50.84 35.21 50.84 35.24"/>
        <polygon class="cls-128" points="50.84 35.26 46.28 34.88 46.28 34.86 50.84 35.24 50.84 35.26"/>
        <polygon class="cls-98" points="50.84 35.28 46.28 34.9 46.28 34.88 50.84 35.26 50.84 35.28"/>
        <polygon class="cls-173" points="50.84 35.3 46.28 34.92 46.28 34.9 50.84 35.28 50.84 35.3"/>
        <polygon class="cls-22" points="50.84 35.32 46.28 34.94 46.28 34.92 50.84 35.3 50.84 35.32"/>
        <polygon class="cls-62" points="50.84 35.34 46.28 34.96 46.28 34.94 50.84 35.32 50.84 35.34"/>
        <polygon class="cls-31" points="50.84 35.36 46.28 34.99 46.28 34.96 50.84 35.34 50.84 35.36"/>
        <polygon class="cls-63" points="50.84 35.38 46.28 35.01 46.28 34.99 50.84 35.36 50.84 35.38"/>
        <polygon class="cls-150" points="50.84 35.4 46.28 35.03 46.28 35.01 50.84 35.38 50.84 35.4"/>
        <polygon class="cls-27" points="50.84 35.42 46.28 35.05 46.28 35.03 50.84 35.4 50.84 35.42"/>
        <polygon class="cls-51" points="50.84 35.45 46.28 35.07 46.28 35.05 50.84 35.42 50.84 35.45"/>
        <polygon class="cls-137" points="50.84 35.47 46.28 35.09 46.28 35.07 50.84 35.45 50.84 35.47"/>
        <polygon class="cls-160" points="50.84 35.49 46.28 35.11 46.28 35.09 50.84 35.47 50.84 35.49"/>
        <polygon class="cls-116" points="50.84 35.51 46.28 35.13 46.28 35.11 50.84 35.49 50.84 35.51"/>
        <polygon class="cls-96" points="50.84 35.53 46.28 35.15 46.28 35.13 50.84 35.51 50.84 35.53"/>
        <polygon class="cls-77" points="50.84 35.55 46.28 35.17 46.28 35.15 50.84 35.53 50.84 35.55"/>
        <polygon class="cls-168" points="50.84 35.57 46.28 35.2 46.28 35.17 50.84 35.55 50.84 35.57"/>
        <polygon class="cls-127" points="50.84 35.59 46.28 35.22 46.28 35.2 50.84 35.57 50.84 35.59"/>
        <polygon class="cls-157" points="50.84 35.61 46.28 35.24 46.28 35.22 50.84 35.59 50.84 35.61"/>
        <polygon class="cls-39" points="50.84 35.63 46.28 35.26 46.28 35.24 50.84 35.61 50.84 35.63"/>
        <polygon class="cls-174" points="50.84 35.66 46.28 35.28 46.28 35.26 50.84 35.63 50.84 35.66"/>
        <polygon class="cls-21" points="50.84 35.68 46.28 35.3 46.28 35.28 50.84 35.66 50.84 35.68"/>
        <polygon class="cls-139" points="50.84 35.7 46.28 35.32 46.28 35.3 50.84 35.68 50.84 35.7"/>
        <polygon class="cls-65" points="50.84 35.72 46.28 35.34 46.28 35.32 50.84 35.7 50.84 35.72"/>
        <polygon class="cls-90" points="50.84 35.74 46.28 35.36 46.28 35.34 50.84 35.72 50.84 35.74"/>
        <polygon class="cls-151" points="50.84 35.76 46.28 35.38 46.28 35.36 50.84 35.74 50.84 35.76"/>
        <polygon class="cls-42" points="50.84 35.78 46.28 35.41 46.28 35.38 50.84 35.76 50.84 35.78"/>
        <polygon class="cls-45" points="50.84 35.8 46.28 35.43 46.28 35.41 50.84 35.78 50.84 35.8"/>
        <polygon class="cls-130" points="50.84 35.82 46.28 35.45 46.28 35.43 50.84 35.8 50.84 35.82"/>
        <polygon class="cls-58" points="50.84 35.84 46.28 35.47 46.28 35.45 50.84 35.82 50.84 35.84"/>
        <polygon class="cls-10" points="50.84 35.87 46.28 35.49 46.28 35.47 50.84 35.84 50.84 35.87"/>
        <polygon class="cls-129" points="50.84 35.89 46.28 35.51 46.28 35.49 50.84 35.87 50.84 35.89"/>
        <polygon class="cls-48" points="50.84 35.91 46.28 35.53 46.28 35.51 50.84 35.89 50.84 35.91"/>
        <polygon class="cls-113" points="50.84 35.93 46.28 35.55 46.28 35.53 50.84 35.91 50.84 35.93"/>
        <polygon class="cls-138" points="50.84 35.95 46.28 35.57 46.28 35.55 50.84 35.93 50.84 35.95"/>
        <polygon class="cls-99" points="50.84 35.97 46.28 35.59 46.28 35.57 50.84 35.95 50.84 35.97"/>
        <polygon class="cls-83" points="50.84 35.99 46.28 35.62 46.28 35.59 50.84 35.97 50.84 35.99"/>
        <polygon class="cls-85" points="50.84 36.01 46.28 35.64 46.28 35.62 50.84 35.99 50.84 36.01"/>
        <polygon class="cls-88" points="50.84 36.03 46.28 35.66 46.28 35.64 50.84 36.01 50.84 36.03"/>
        <polygon class="cls-144" points="50.84 36.05 46.28 35.68 46.28 35.66 50.84 36.03 50.84 36.05"/>
        <polygon class="cls-55" points="50.84 36.08 46.28 35.7 46.28 35.68 50.84 36.05 50.84 36.08"/>
        <polygon class="cls-68" points="50.84 36.1 46.28 35.72 46.28 35.7 50.84 36.08 50.84 36.1"/>
        <polygon class="cls-15" points="50.84 36.12 46.28 35.74 46.28 35.72 50.84 36.1 50.84 36.12"/>
        <polygon class="cls-79" points="50.84 36.14 46.28 35.76 46.28 35.74 50.84 36.12 50.84 36.14"/>
        <polygon class="cls-79" points="50.84 36.16 46.28 35.78 46.28 35.76 50.84 36.14 50.84 36.16"/>
        <polygon class="cls-91" points="50.84 36.18 46.28 35.8 46.28 35.78 50.84 36.16 50.84 36.18"/>
        <polygon class="cls-26" points="50.84 36.2 46.28 35.83 46.28 35.8 50.84 36.18 50.84 36.2"/>
        <polygon class="cls-26" points="50.84 36.22 46.28 35.85 46.28 35.83 50.84 36.2 50.84 36.22"/>
        <polygon class="cls-164" points="50.84 36.24 46.28 35.87 46.28 35.85 50.84 36.22 50.84 36.24"/>
        <polygon class="cls-70" points="50.84 36.26 46.28 35.89 46.28 35.87 50.84 36.24 50.84 36.26"/>
        <polygon class="cls-159" points="50.84 36.29 46.28 35.91 46.28 35.89 50.84 36.26 50.84 36.29"/>
        <polygon class="cls-76" points="50.84 36.31 46.28 35.93 46.28 35.91 50.84 36.29 50.84 36.31"/>
        <polygon class="cls-33" points="50.84 36.33 46.28 35.95 46.28 35.93 50.84 36.31 50.84 36.33"/>
        <polygon class="cls-131" points="50.84 36.35 46.28 35.97 46.28 35.95 50.84 36.33 50.84 36.35"/>
        <polygon class="cls-172" points="50.84 36.37 46.28 35.99 46.28 35.97 50.84 36.35 50.84 36.37"/>
        <polygon class="cls-71" points="50.84 36.39 46.28 36.01 46.28 35.99 50.84 36.37 50.84 36.39"/>
        <polygon class="cls-36" points="50.84 36.41 46.28 36.04 46.28 36.01 50.84 36.39 50.84 36.41"/>
        <polygon class="cls-20" points="50.84 36.43 46.28 36.06 46.28 36.04 50.84 36.41 50.84 36.43"/>
        <polygon class="cls-32" points="50.84 36.45 46.28 36.08 46.28 36.06 50.84 36.43 50.84 36.45"/>
        <polygon class="cls-122" points="50.84 36.47 46.28 36.1 46.28 36.08 50.84 36.45 50.84 36.47"/>
        <polygon class="cls-84" points="50.84 36.5 46.28 36.12 46.28 36.1 50.84 36.47 50.84 36.5"/>
        <polygon class="cls-166" points="50.84 36.52 46.28 36.14 46.28 36.12 50.84 36.5 50.84 36.52"/>
        <polygon class="cls-30" points="50.84 36.54 46.28 36.16 46.28 36.14 50.84 36.52 50.84 36.54"/>
        <polygon class="cls-115" points="50.84 36.56 46.28 36.18 46.28 36.16 50.84 36.54 50.84 36.56"/>
        <polygon class="cls-105" points="50.84 36.58 46.28 36.2 46.28 36.18 50.84 36.56 50.84 36.58"/>
        <polygon class="cls-8" points="50.84 36.6 46.28 36.22 46.28 36.2 50.84 36.58 50.84 36.6"/>
        <polygon class="cls-134" points="50.84 36.62 46.28 36.25 46.28 36.22 50.84 36.6 50.84 36.62"/>
        <polygon class="cls-134" points="50.84 36.64 46.28 36.27 46.28 36.25 50.84 36.62 50.84 36.64"/>
        <polygon class="cls-28" points="50.84 36.66 46.28 36.29 46.28 36.27 50.84 36.64 50.84 36.66"/>
        <polygon class="cls-18" points="50.84 36.68 46.28 36.31 46.28 36.29 50.84 36.66 50.84 36.68"/>
        <polygon class="cls-120" points="50.84 36.71 46.28 36.33 46.28 36.31 50.84 36.68 50.84 36.71"/>
        <polygon class="cls-87" points="50.84 36.73 46.28 36.35 46.28 36.33 50.84 36.71 50.84 36.73"/>
        <polygon class="cls-123" points="50.84 36.75 46.28 36.37 46.28 36.35 50.84 36.73 50.84 36.75"/>
        <polygon class="cls-123" points="50.84 36.77 46.28 36.39 46.28 36.37 50.84 36.75 50.84 36.77"/>
        <polygon class="cls-54" points="50.84 36.79 46.28 36.41 46.28 36.39 50.84 36.77 50.84 36.79"/>
        <polygon class="cls-54" points="50.84 36.81 46.28 36.43 46.28 36.41 50.84 36.79 50.84 36.81"/>
        <polygon class="cls-52" points="50.84 36.83 46.28 36.46 46.28 36.43 50.84 36.81 50.84 36.83"/>
        <polygon class="cls-165" points="50.84 36.85 46.28 36.48 46.28 36.46 50.84 36.83 50.84 36.85"/>
        <polygon class="cls-165" points="50.84 36.87 46.28 36.5 46.28 36.48 50.84 36.85 50.84 36.87"/>
        <polygon class="cls-9" points="50.84 36.89 46.28 36.52 46.28 36.5 50.84 36.87 50.84 36.89"/>
        <polygon class="cls-67" points="50.84 36.92 46.28 36.54 46.28 36.52 50.84 36.89 50.84 36.92"/>
        <polygon class="cls-149" points="50.84 36.94 46.28 36.56 46.28 36.54 50.84 36.92 50.84 36.94"/>
        <polygon class="cls-56" points="50.84 36.96 46.28 36.58 46.28 36.56 50.84 36.94 50.84 36.96"/>
        <polygon class="cls-169" points="50.84 36.98 46.28 36.6 46.28 36.58 50.84 36.96 50.84 36.98"/>
        <polygon class="cls-109" points="50.84 37 46.28 36.62 46.28 36.6 50.84 36.98 50.84 37"/>
        <polygon class="cls-109" points="50.84 37.02 46.28 36.64 46.28 36.62 50.84 37 50.84 37.02"/>
        <polygon class="cls-3" points="50.84 37.04 46.28 36.67 46.28 36.64 50.84 37.02 50.84 37.04"/>
        <polygon class="cls-49" points="50.84 37.06 46.28 36.69 46.28 36.67 50.84 37.04 50.84 37.06"/>
        <polygon class="cls-153" points="50.84 37.08 46.28 36.71 46.28 36.69 50.84 37.06 50.84 37.08"/>
        <polygon class="cls-153" points="50.84 37.1 46.28 36.73 46.28 36.71 50.84 37.08 50.84 37.1"/>
        <polygon class="cls-82" points="50.84 37.13 46.28 36.75 46.28 36.73 50.84 37.1 50.84 37.13"/>
        <polygon class="cls-44" points="50.84 37.15 46.28 36.77 46.28 36.75 50.84 37.13 50.84 37.15"/>
        <polygon class="cls-44" points="50.84 37.17 46.28 36.79 46.28 36.77 50.84 37.15 50.84 37.17"/>
        <polygon class="cls-93" points="50.84 37.19 46.28 36.81 46.28 36.79 50.84 37.17 50.84 37.19"/>
        <polygon class="cls-93" points="50.84 37.21 46.28 36.83 46.28 36.81 50.84 37.19 50.84 37.21"/>
        <polygon class="cls-102" points="50.84 37.23 46.28 36.85 46.28 36.83 50.84 37.21 50.84 37.23"/>
        <polygon class="cls-14" points="50.84 37.25 46.28 36.88 46.28 36.85 50.84 37.23 50.84 37.25"/>
        <polygon class="cls-100" points="50.84 37.27 46.28 36.9 46.28 36.88 50.84 37.25 50.84 37.27"/>
        <polygon class="cls-100" points="50.84 37.29 46.28 36.92 46.28 36.9 50.84 37.27 50.84 37.29"/>
        <polygon class="cls-40" points="50.84 37.31 46.28 36.94 46.28 36.92 50.84 37.29 50.84 37.31"/>
        <polygon class="cls-170" points="50.84 37.34 46.28 36.96 46.28 36.94 50.84 37.31 50.84 37.34"/>
        <polygon class="cls-170" points="50.84 37.36 46.28 36.98 46.28 36.96 50.84 37.34 50.84 37.36"/>
        <polygon class="cls-111" points="50.84 37.38 46.28 37 46.28 36.98 50.84 37.36 50.84 37.38"/>
        <polygon class="cls-53" points="50.84 37.4 46.28 37.02 46.28 37 50.84 37.38 50.84 37.4"/>
        <polygon class="cls-29" points="50.84 37.42 46.28 37.04 46.28 37.02 50.84 37.4 50.84 37.42"/>
        <polygon class="cls-23" points="50.84 37.44 46.28 37.06 46.28 37.04 50.84 37.42 50.84 37.44"/>
        <polygon class="cls-23" points="50.84 37.46 46.28 37.09 46.28 37.06 50.84 37.44 50.84 37.46"/>
        <polygon class="cls-162" points="50.84 37.48 46.28 37.11 46.28 37.09 50.84 37.46 50.84 37.48"/>
        <polygon class="cls-125" points="50.84 37.5 46.28 37.13 46.28 37.11 50.84 37.48 50.84 37.5"/>
        <polygon class="cls-125" points="50.84 37.52 46.28 37.15 46.28 37.13 50.84 37.5 50.84 37.52"/>
        <polygon class="cls-125" points="50.84 37.55 46.28 37.17 46.28 37.15 50.84 37.52 50.84 37.55"/>
        <polygon class="cls-86" points="50.84 37.57 46.28 37.19 46.28 37.17 50.84 37.55 50.84 37.57"/>
        <polygon class="cls-86" points="50.84 37.59 46.28 37.21 46.28 37.19 50.84 37.57 50.84 37.59"/>
        <polygon class="cls-75" points="50.84 37.61 46.28 37.23 46.28 37.21 50.84 37.59 50.84 37.61"/>
        <polygon class="cls-75" points="50.84 37.63 46.28 37.25 46.28 37.23 50.84 37.61 50.84 37.63"/>
        <polygon class="cls-135" points="50.84 37.65 46.28 37.27 46.28 37.25 50.84 37.63 50.84 37.65"/>
        <polygon class="cls-4" points="50.84 37.67 46.28 37.3 46.28 37.27 50.84 37.65 50.84 37.67"/>
        <polygon class="cls-4" points="50.84 37.69 46.28 37.32 46.28 37.3 50.84 37.67 50.84 37.69"/>
        <polygon class="cls-43" points="50.84 37.71 46.28 37.34 46.28 37.32 50.84 37.69 50.84 37.71"/>
        <polygon class="cls-57" points="50.84 37.73 46.28 37.36 46.28 37.34 50.84 37.71 50.84 37.73"/>
        <polygon class="cls-81" points="50.84 37.76 46.28 37.38 46.28 37.36 50.84 37.73 50.84 37.76"/>
        <polygon class="cls-81" points="50.84 37.78 46.28 37.4 46.28 37.38 50.84 37.76 50.84 37.78"/>
        <polygon class="cls-81" points="50.84 37.8 46.28 37.42 46.28 37.4 50.84 37.78 50.84 37.8"/>
        <polygon class="cls-171" points="50.84 37.82 46.28 37.44 46.28 37.42 50.84 37.8 50.84 37.82"/>
        <polygon class="cls-11" points="50.84 37.84 46.28 37.46 46.28 37.44 50.84 37.82 50.84 37.84"/>
        <polygon class="cls-11" points="50.84 37.86 46.28 37.48 46.28 37.46 50.84 37.84 50.84 37.86"/>
        <polygon class="cls-167" points="50.84 37.88 46.28 37.51 46.28 37.48 50.84 37.86 50.84 37.88"/>
        <polygon class="cls-133" points="50.84 37.9 46.28 37.53 46.28 37.51 50.84 37.88 50.84 37.9"/>
        <polygon class="cls-133" points="50.84 37.92 46.28 37.55 46.28 37.53 50.84 37.9 50.84 37.92"/>
        <polygon class="cls-133" points="50.84 37.94 46.28 37.57 46.28 37.55 50.84 37.92 50.84 37.94"/>
        <polygon class="cls-133" points="50.84 37.97 46.28 37.59 46.28 37.57 50.84 37.94 50.84 37.97"/>
        <polygon class="cls-38" points="50.84 37.99 46.28 37.61 46.28 37.59 50.84 37.97 50.84 37.99"/>
        <polygon class="cls-94" points="50.84 38.01 46.28 37.63 46.28 37.61 50.84 37.99 50.84 38.01"/>
        <polygon class="cls-19" points="50.78 38.02 46.28 37.65 46.28 37.63 50.84 38.01 50.84 38.02 50.78 38.02"/>
        <polygon class="cls-19" points="50.53 38.02 46.28 37.67 46.28 37.65 50.78 38.02 50.53 38.02"/>
        <polygon class="cls-19" points="50.27 38.02 46.28 37.69 46.28 37.67 50.53 38.02 50.27 38.02"/>
        <polygon class="cls-19" points="50.02 38.02 46.28 37.72 46.28 37.69 50.27 38.02 50.02 38.02"/>
        <polygon class="cls-19" points="49.77 38.02 46.28 37.74 46.28 37.72 50.02 38.02 49.77 38.02"/>
        <polygon class="cls-19" points="49.51 38.02 46.28 37.76 46.28 37.74 49.77 38.02 49.51 38.02"/>
        <polygon class="cls-64" points="49.26 38.02 46.28 37.78 46.28 37.76 49.51 38.02 49.26 38.02"/>
        <polygon class="cls-145" points="49 38.02 46.28 37.8 46.28 37.78 49.26 38.02 49 38.02"/>
        <polygon class="cls-145" points="48.75 38.02 46.28 37.82 46.28 37.8 49 38.02 48.75 38.02"/>
        <polygon class="cls-145" points="48.49 38.02 46.28 37.84 46.28 37.82 48.75 38.02 48.49 38.02"/>
        <polygon class="cls-145" points="48.24 38.02 46.28 37.86 46.28 37.84 48.49 38.02 48.24 38.02"/>
        <polygon class="cls-145" points="47.99 38.02 46.28 37.88 46.28 37.86 48.24 38.02 47.99 38.02"/>
        <polygon class="cls-145" points="47.73 38.02 46.28 37.9 46.28 37.88 47.99 38.02 47.73 38.02"/>
        <polygon class="cls-145" points="47.48 38.02 46.28 37.93 46.28 37.9 47.73 38.02 47.48 38.02"/>
        <polygon class="cls-34" points="47.22 38.02 46.28 37.95 46.28 37.93 47.48 38.02 47.22 38.02"/>
        <polygon class="cls-34" points="46.97 38.02 46.28 37.97 46.28 37.95 47.22 38.02 46.97 38.02"/>
        <polygon class="cls-50" points="46.71 38.02 46.28 37.99 46.28 37.97 46.97 38.02 46.71 38.02"/>
        <polygon class="cls-50" points="46.46 38.02 46.28 38.01 46.28 37.99 46.71 38.02 46.46 38.02"/>
        <polygon class="cls-50" points="46.28 38.01 46.46 38.02 46.28 38.02 46.28 38.01"/>
      </g>
      <path class="cls-41" d="M48.46,37.25c-.64-.05-1.14-.7-1.08-1.4.06-.71.65-1.26,1.29-1.21.64.05,1.14.7,1.08,1.4-.06.71-.65,1.26-1.29,1.21Z"/>
      <path class="cls-126" d="M48.51,37c-.45-.04-.91-.53-.86-1.13.05-.6.59-1.01,1.03-.97.45.04.91.53.86,1.13-.05.6-.59,1.01-1.03.97Z"/>
      <path class="cls-92" d="M48.15,35.51c-.02.22-.24.38-.5.35-.26-.02-.45-.22-.43-.43.02-.22.24-.38.5-.36.26.02.45.21.44.43Z"/>
      <path class="cls-92" d="M49.59,36.77c0,.11-.12.19-.25.18-.13,0-.23-.11-.22-.22,0-.11.12-.19.25-.18.13,0,.23.11.22.22Z"/>
      <path class="cls-5" d="M22.26,37.77c.97-1.58,2.49-.91,2.87-.57.4.37.72.87.48,1.8-.13.52-.68.57-.54,1.37.16.89.57.95.8,1.15.23.2.53.35.68.73.14.37.17.77.1,1.12-.15.65-1.09.14-1.72-.14-.42-.18-1.74-1.29-2.08-1.65-.84-.94-1.25-2.74-.6-3.8"/>
      <path class="cls-24" d="M42.7,44.84c.34-.23.74-.12.74-.12,0,0,0,0-.01.02-.08.14-.54.87-.91.86,0,0-.08-.07-.1-.24-.03-.17.11-.4.28-.52Z"/>
      <path class="cls-107" d="M27.97,45.6c0,.82-.67,1.49-1.49,1.49s-1.49-.67-1.49-1.49.67-1.49,1.49-1.49,1.49.67,1.49,1.49Z"/>
      <path class="cls-107" d="M56.9,45.6c0,.82-.67,1.49-1.49,1.49s-1.49-.67-1.49-1.49.67-1.49,1.49-1.49,1.49.67,1.49,1.49Z"/>
      <path class="cls-1" d="M21.77,73.01s0,.01,0,.02h0s0,0,0-.02Z"/>
      <path class="cls-136" d="M25.7,64.91c-.83.27-1.62.53-2.27.73h-.01c-1.09.35-1.83.58-1.86.59-3.36,2.01-2.54,2.98-3.01,5.06h0v.04s-.03.07-.04.15h0c-.06.3-.11.87-.15,1.55h6.19c-.63,2.29-1.09,3.41-1.27,5.85h15.69v-6.53c-6.88-.64-11.58-5.42-13.27-7.44Z"/>
      <path class="cls-136" d="M63.9,73.03c-.04-.68-.09-1.25-.15-1.54h0c-.01-.09-.03-.14-.04-.16v-.03h0c-.47-2.09.35-3.05-3.01-5.07-.03-.01-.77-.24-1.86-.59h-.01c-.65-.2-1.43-.46-2.26-.73-4.88,4.49-9.34,6.61-13.28,7.26v6.7h15.69c-.18-2.44-.64-3.56-1.27-5.85h6.19Z"/>
      <path class="cls-107" d="M34.03,60.33l-2.02,2.5c1.65,1.45,4.19,3.09,7.43,3.39v-3.42c-2.51-.42-4.14-1.37-5.41-2.47Z"/>
      <path class="cls-107" d="M47.78,60.37c-1.26,1.08-2.88,2.02-5.37,2.43v3.42c3.23-.3,5.77-1.93,7.42-3.38l-2.05-2.47Z"/>
      <path class="cls-92" d="M63.9,16.21s-1.16,1.58-5.17.35c-3.92-1.2-3.81-5.12-9.44-7.31-2.88-1.12-4.6-.97-5.6-.57,1.01-.77,3.08-.7,3.08-.7,0,0-2.56-1.31-6.52-.14-2.78.83-4.45,1.77-5.38,2.44l1.56-1.38s-5.63,1.86-9.46,5.69c-3.83,3.82-5.3,7.42-5.3,11.47s1.72,8.1,2.84,9.3c1.12,1.2.76,2.95,1.1,2.95,0,0,1.13.05.53-6.51-.32-3.47.27-3.9,1.53-4.25.48,3.22,2,6.39,2,6.39,0-6.35,3.43-7.62,4-7.79,1.8.21,3.64.99,5.13,2.03,3,2.1,4.01-.26,8.03-1.43.27-.08.54-.14.8-.2l-.05.2s4.09.89,4.09,7.81c0,0,1.65-3.44,2.05-6.8,1.54,1.33,2.13,3.3,1.85,4.63-.85,3.96.33,6.23.78,6.13,0,0,.02-1.01.43-1.9,1.21-2.67,2.23-.81,2.42-4.43.22-4.23.93-5.78.7-8.04-.22-2.21-1.38-5.18-1.38-5.19,0,0,.05.01.55.01,3.09,0,4.83-2.78,4.83-2.78Z"/>
      <rect class="cls-107" x="38.96" y="61.51" width="3.94" height="5.94" rx="1.49" ry="1.49"/>
      <path class="cls-92" d="M40.93,66.33h0c-.82,0-1.49-.67-1.49-1.49v-.72c0-.82.67-1.49,1.49-1.49h0c.82,0,1.49.67,1.49,1.49v.72c0,.82-.67,1.49-1.49,1.49Z"/>
      <rect class="cls-92" x="38.97" y="75.6" width="4.32" height="3.28"/>
    </g>
  </g>
</svg>