<?xml version="1.0" encoding="UTF-8"?>
<svg id="Layer_2" data-name="Layer 2" xmlns="http://www.w3.org/2000/svg" xmlns:xlink="http://www.w3.org/1999/xlink" viewBox="0 0 78.88 78.88">
  <defs>
    <style>
      .cls-1 {
        fill: none;
      }

      .cls-2 {
        fill: #354148;
      }

      .cls-3 {
        fill: #7d99ae;
      }

      .cls-4 {
        fill: #84a2b8;
      }

      .cls-5 {
        fill: #debaad;
      }

      .cls-6 {
        fill: #4e606b;
      }

      .cls-7 {
        fill: #bf6c6c;
      }

      .cls-8 {
        fill: #ededeb;
        opacity: .55;
      }

      .cls-9 {
        fill: #7791a4;
      }

      .cls-10 {
        fill: #7b97ab;
      }

      .cls-11 {
        fill: #677e8d;
      }

      .cls-12 {
        fill: #86a3ba;
      }

      .cls-13 {
        fill: #364349;
      }

      .cls-14 {
        fill: #313d43;
      }

      .cls-15 {
        fill: #809cb2;
      }

      .cls-16 {
        fill: #6d8596;
      }

      .cls-17 {
        fill: #44545c;
      }

      .cls-18 {
        fill: #46565f;
      }

      .cls-19 {
        fill: #7893a6;
      }

      .cls-20 {
        fill: #87a5bc;
      }

      .cls-21 {
        fill: #748d9f;
      }

      .cls-22 {
        fill: #627886;
      }

      .cls-23 {
        fill: #576b77;
      }

      .cls-24 {
        fill: #829fb5;
      }

      .cls-25 {
        fill: #b89388;
      }

      .cls-26 {
        fill: #485862;
      }

      .cls-27 {
        fill: #6f8899;
      }

      .cls-28 {
        fill: #5b6f7c;
      }

      .cls-29 {
        fill: #7892a6;
      }

      .cls-30 {
        fill: #829fb4;
      }

      .cls-31 {
        fill: #7690a2;
      }

      .cls-32 {
        fill: #596c79;
      }

      .cls-33 {
        fill: #748ea0;
      }

      .cls-34 {
        fill: #728b9c;
      }

      .cls-35 {
        fill: #88a6be;
      }

      .cls-36 {
        fill: #a88a6b;
      }

      .cls-37 {
        fill: #738d9f;
      }

      .cls-38 {
        fill: #495963;
      }

      .cls-39 {
        fill: #87a4bb;
      }

      .cls-40 {
        fill: #617785;
      }

      .cls-41 {
        fill: #819db3;
      }

      .cls-42 {
        fill: #95bacb;
      }

      .cls-43 {
        fill: #657b8a;
      }

      .cls-44 {
        fill: #85a2b8;
      }

      .cls-45 {
        fill: #7f9bb0;
      }

      .cls-46 {
        fill: #667c8b;
      }

      .cls-47 {
        fill: #38454c;
      }

      .cls-48 {
        fill: #3e4d54;
      }

      .cls-49 {
        fill: #687f8f;
      }

      .cls-50 {
        fill: #7e9aae;
      }

      .cls-51 {
        fill: #88a7be;
      }

      .cls-52 {
        fill: #5b707d;
      }

      .cls-53 {
        fill: #7a96a9;
      }

      .cls-54 {
        fill: #829eb4;
      }

      .cls-55 {
        fill: #7a95a9;
      }

      .cls-56 {
        fill: #6c8495;
      }

      .cls-57 {
        fill: #7c98ac;
      }

      .cls-58 {
        fill: #85a2b9;
      }

      .cls-59 {
        fill: #677d8d;
      }

      .cls-60 {
        fill: #8b1c1a;
      }

      .cls-61 {
        fill: #39464e;
      }

      .cls-62 {
        fill: #99656b;
      }

      .cls-63 {
        fill: #3d4b53;
      }

      .cls-64 {
        fill: #344046;
      }

      .cls-65 {
        fill: #586c78;
      }

      .cls-66 {
        fill: #596d7a;
      }

      .cls-67 {
        fill: #87a6bd;
      }

      .cls-68 {
        fill: #637988;
      }

      .cls-69 {
        fill: #37444b;
      }

      .cls-70 {
        fill: #7c97ab;
      }

      .cls-71 {
        fill: #6d8595;
      }

      .cls-72 {
        fill: #526570;
      }

      .cls-73 {
        fill: #70899b;
      }

      .cls-74 {
        fill: #738c9e;
      }

      .cls-75 {
        fill: #4e5f6a;
      }

      .cls-76 {
        clip-path: url(#clippath-1);
      }

      .cls-77 {
        fill: #546672;
      }

      .cls-78 {
        fill: #84a1b7;
      }

      .cls-79 {
        fill: #718a9c;
      }

      .cls-80 {
        fill: #5f7481;
      }

      .cls-81 {
        fill: #f1d4c8;
      }

      .cls-82 {
        fill: #6e8697;
      }

      .cls-83 {
        fill: #303c42;
      }

      .cls-84 {
        fill: #85a3b9;
      }

      .cls-85 {
        fill: #1e1f1a;
        opacity: .4;
      }

      .cls-86 {
        fill: #7e9baf;
      }

      .cls-87 {
        fill: #6a8292;
      }

      .cls-88 {
        fill: #758fa1;
      }

      .cls-89 {
        fill: #6b8292;
      }

      .cls-90 {
        fill: #83a1b7;
      }

      .cls-91 {
        fill: #7994a7;
      }

      .cls-92 {
        fill: #6b8393;
      }

      .cls-93 {
        fill: #647a89;
      }

      .cls-94 {
        fill: #6e8798;
      }

      .cls-95 {
        fill: #fff;
      }

      .cls-96 {
        fill: #7f9cb1;
      }

      .cls-97 {
        fill: #87a5bb;
      }

      .cls-98 {
        fill: #536671;
      }

      .cls-99 {
        fill: #5e7380;
      }

      .cls-100 {
        fill: #4d5e69;
      }

      .cls-101 {
        fill: #566975;
      }

      .cls-102 {
        fill: #6a8191;
      }

      .cls-103 {
        fill: #809db2;
      }

      .cls-104 {
        fill: #4c5d68;
      }

      .cls-105 {
        fill: #809cb1;
      }

      .cls-106 {
        fill: #4b5c67;
      }

      .cls-107 {
        fill: #475760;
      }

      .cls-108 {
        fill: #7691a3;
      }

      .cls-109 {
        fill: #3a484f;
      }

      .cls-110 {
        fill: #3b3b36;
      }

      .cls-111 {
        fill: #51636e;
      }

      .cls-112 {
        fill: #7d99ad;
      }

      .cls-113 {
        fill: #4f616c;
      }

      .cls-114 {
        fill: #819eb4;
      }

      .cls-115 {
        fill: #4a5b65;
      }

      .cls-116 {
        fill: #698090;
      }

      .cls-117 {
        opacity: .3;
      }

      .cls-118 {
        fill: #7690a3;
      }

      .cls-119 {
        fill: #5d727f;
      }

      .cls-120 {
        fill: #415059;
      }

      .cls-121 {
        fill: #2d383d;
      }

      .cls-122 {
        fill: #50626d;
      }

      .cls-123 {
        fill: #7893a7;
      }

      .cls-124 {
        fill: #43525b;
      }

      .cls-125 {
        fill: #748ea1;
      }

      .cls-126 {
        fill: #7994a8;
      }

      .cls-127 {
        fill: #546773;
      }

      .cls-128 {
        fill: #83a0b6;
      }

      .cls-129 {
        fill: #26200c;
      }

      .cls-130 {
        fill: #607583;
      }

      .cls-131 {
        fill: #556874;
      }

      .cls-132 {
        fill: #687f8e;
      }

      .cls-133 {
        fill: #667d8c;
      }

      .cls-134 {
        fill: #728b9d;
      }

      .cls-135 {
        fill: #323f45;
      }

      .cls-136 {
        fill: #86a4bb;
      }

      .cls-137 {
        fill: #7792a5;
      }

      .cls-138 {
        fill: #84a1b8;
      }

      .cls-139 {
        fill: #5c707e;
      }

      .cls-140 {
        fill: #698190;
      }

      .cls-141 {
        fill: #637987;
      }

      .cls-142 {
        fill: #3c4a52;
      }

      .cls-143 {
        fill: #42515a;
      }

      .cls-144 {
        fill: #c6a095;
      }

      .cls-145 {
        fill: #3b4950;
      }

      .cls-146 {
        fill: #6c8494;
      }

      .cls-147 {
        fill: #88a6bd;
      }

      .cls-148 {
        fill: #404f57;
      }

      .cls-149 {
        fill: #47433b;
      }

      .cls-150 {
        fill: #51646f;
      }

      .cls-151 {
        fill: #7c97ac;
      }

      .cls-152 {
        fill: #5a6e7b;
      }

      .cls-153 {
        fill: #647b8a;
      }

      .cls-154 {
        fill: #45555e;
      }

      .cls-155 {
        fill: #7e9aaf;
      }

      .cls-156 {
        fill: #f2f3f2;
      }

      .cls-157 {
        fill: #3f4e56;
      }

      .cls-158 {
        fill: #2f3b40;
      }

      .cls-159 {
        fill: #4a5a64;
      }

      .cls-160 {
        fill: #607684;
      }

      .cls-161 {
        fill: #718a9b;
      }

      .cls-162 {
        fill: #5d717f;
      }

      .cls-163 {
        clip-path: url(#clippath);
      }

      .cls-164 {
        fill: #82a0b5;
      }

      .cls-165 {
        fill: #2e393f;
      }

      .cls-166 {
        fill: #70899a;
      }

      .cls-167 {
        fill: #7b96aa;
      }

      .cls-168 {
        fill: #758fa2;
      }

      .cls-169 {
        fill: #86a4ba;
      }

      .cls-170 {
        fill: #9abc30;
      }

      .cls-171 {
        fill: #5f7482;
      }

      .cls-172 {
        fill: #7c98ad;
      }

      .cls-173 {
        fill: #819eb3;
      }

      .cls-174 {
        fill: #85a3ba;
      }

      .cls-175 {
        fill: #728c9e;
      }

      .cls-176 {
        fill: #576a76;
      }

      .cls-177 {
        fill: #627786;
      }

      .cls-178 {
        fill: #ab5b64;
      }
    </style>
    <clipPath id="clippath">
      <path class="cls-1" d="M33.18,36.08c-.1,1.18-1.15,2.06-2.36,1.96-1.2-.1-2.1-1.14-2-2.32.1-1.19,1.15-2.07,2.36-1.97,1.2.1,2.1,1.14,2,2.33Z"/>
    </clipPath>
    <clipPath id="clippath-1">
      <path class="cls-1" d="M48.58,35.96c-.1,1.18-1.15,2.06-2.36,1.96-1.2-.1-2.1-1.14-2-2.32.1-1.19,1.15-2.07,2.36-1.97,1.2.1,2.1,1.14,2,2.33Z"/>
    </clipPath>
  </defs>
  <g id="Layer_1-2" data-name="Layer 1">
    <g>
      <rect class="cls-62" width="78.88" height="78.88"/>
      <path class="cls-81" d="M60.52,77.89s-.1-6.02-.34-6.54c-.46-2.1.36-3.06-2.88-5.08-.03-.01-.74-.24-1.8-.59t-.03-.01c-.69-.22-1.52-.5-2.4-.8-.34-.11-.67-.24-1.02-.35-.86-.3-1.72-.62-2.51-.92-.55-.21-1.07-.41-1.51-.59-.38-.16-.71-.32-.97-.46-.28-.14-.48-.27-.59-.38-.01-.01-.04-.05-.08-.09-.02-.04-.05-.06-.07-.1-.06-.35-1-1.89-1.32-3.56h0c-.07-.35-.11-.67-.12-1.01-.03-.49-.03-.97-.04-1.41-.01-.45-.02-.86-.04-1.2v-.29c-.01-.24-.01-.44-.01-.59-.01-.15-.01-.24-.01-.24,0,0,.35-.3.86-.75.64-.57,1.55-1.4,2.33-2.18.85-.85,1.59-1.66,1.75-2.08.01-.06.02-.11.02-.15,0,0-.02,0-.06.01-.4.06-2.55.44-4.86.8-1.37.21-2.81.43-3.98.57-.46.06-.89.1-1.25.14h-.01c-.34.04-.62.05-.84.05-.24,0-.56-.02-.95-.05h-.03c-.37-.05-.82-.1-1.31-.16-1.07-.14-2.36-.32-3.61-.51-1.15-.19-2.27-.36-3.16-.51-.21-.04-.4-.06-.57-.1-.85-.14-1.39-.24-1.39-.24,0,.16.15.41.4.74,0,0,0,.01.01.01.19.25.44.54.74.86.29.3.6.61.92.92.99.96,2.06,1.91,2.58,2.36.2.17.31.27.31.27,0,0,0,.09-.01.24,0,.15,0,.35-.01.59v.29c0,.1,0,.2-.01.3-.01.65-.04,1.46-.06,2.31-.01.34-.05.66-.12,1-.33,1.67-1.26,3.22-1.32,3.57-.03.04-.05.06-.07.1-.04.04-.06.08-.08.09-.05.05-.14.11-.24.18-.23.15-.57.32-.99.52-.37.16-.8.34-1.27.52-1.11.43-2.43.91-3.7,1.34-.09.03-.17.06-.26.09-.94.32-1.84.62-2.56.86h-.01c-1.05.35-1.76.57-1.79.59-3.22,2.01-2.43,2.97-2.88,5.04h0v.04s-.03.07-.04.15h0c-.21,1.1-.3,6.39-.3,6.39,0,.32,0,.65,0,.99h43.58c0-.34,0-.67-.01-.99Z"/>
      <path class="cls-144" d="M45.01,58.41c-.07-.34-.11-.66-.12-1-.04-1.12-.06-2.2-.07-2.9-1.87.84-3.8,1.32-5.68,1.32-.11.02-.25.02-.38.02s-.27,0-.38-.02c-1.89,0-3.81-.49-5.68-1.32-.01.7-.04,1.77-.07,2.9-.01.34-.05.66-.12,1,1.81,1.51,4.26,3.07,5.88,3.07.1.02.23.02.34.02h0s.03,0,.04,0,.03,0,.04,0h0c.12,0,.24,0,.34-.03,1.62,0,4.07-1.56,5.88-3.07Z"/>
      <g>
        <path class="cls-81" d="M54.82,36c.31-1.73.56-3.05.63-3.31.04-.12.06-.25.1-.37.03-.15.06-.29.09-.42.06-.21.1-.43.15-.64.01-.1.04-.2.05-.3.04-.24.09-.48.12-.71.01-.1.03-.21.04-.31.04-.21.05-.42.08-.64.01-.16.02-.33.05-.47.01-.14.01-.28.02-.41.16-3.26-.54-6.58-2.67-9.59-2.58-3.62-5.56-7.45-12.01-7.99h-5.44c-6.46.54-9.43,4.37-12.01,7.99-2.13,3.01-2.83,6.33-2.67,9.59.01.14.01.27.02.41.02.15.04.31.05.47.02.21.04.42.07.64.01.1.03.21.04.31.04.24.09.47.13.71.01.1.04.2.05.3.05.21.09.43.15.64.03.14.06.27.09.42.04.12.06.25.1.37.08.26.32,1.57.63,3.29-1.72-.84-4.11.36-3.83,3.53.29,3.22,4.21,5.13,5.55,5.45.13.58.24,1.02.33,1.22,1.17,2.96,2.6,3.85,5.09,6.26,2.72,2.61,6.74,5.06,8.73,5.04.06.01.14.01.21.01s.15,0,.21-.01c1.98.01,6-2.43,8.73-5.04,2.5-2.41,3.92-3.3,5.09-6.26.08-.21.19-.63.32-1.21,1.29-.29,5.29-2.21,5.59-5.46.29-3.2-2.15-4.4-3.88-3.51Z"/>
        <path class="cls-5" d="M57.44,37.77c-.97-1.58-2.49-.91-2.87-.57-.4.37-.72.87-.48,1.8.13.52.68.57.54,1.37-.16.89-.57.95-.8,1.15-.23.2-.53.35-.68.73-.14.37-.17.77-.1,1.12.15.65,1.09.14,1.72-.14.42-.18,1.74-1.29,2.08-1.65.84-.94,1.25-2.74.6-3.8"/>
      </g>
      <path class="cls-5" d="M35.99,51.32c-.06-.82,2.31.17,3.09.2.62.02,2.49-.12,2.67-.19,1.31-.49-.07,1.38-2.7,1.48-1.21.05-3.02-.99-3.06-1.49Z"/>
      <g>
        <path class="cls-178" d="M43.82,50.25c-1.51-.28-4.68-.89-4.68-.89-2.62.43-4.67.88-4.68.9-.06,0,2.09,1.93,4.65,1.8h0c2.56.13,4.78-1.8,4.72-1.81Z"/>
        <path class="cls-7" d="M40.64,48.83c-.68-.07-1.15.32-1.49.29-.35.03-.82-.36-1.5-.29-.97.21-1.43.82-3.19,1.43.06.12,1.19-.15,3.3-.11.03,0,.6.32,1.4.31.5,0,1.19-.34,1.22-.34,2.11-.03,3.4.26,3.46.14-2.32-.71-2.23-1.23-3.2-1.44Z"/>
      </g>
      <path class="cls-36" d="M40.39,44.87c.34-.23.74-.12.74-.12,0,0,0,0-.01.02-.08.14-.54.87-.91.86,0,0-.08-.07-.1-.24-.03-.17.11-.4.28-.52Z"/>
      <path class="cls-5" d="M35.76,44.64c-.07-1.65,2.56-.6,3.43-.55.69.04,2.77-.52,2.95-.38,1.22.98-1.3,2.95-2.99,2.95-.45,0-3.34-1.03-3.38-2.03Z"/>
      <path class="cls-25" d="M37.75,44.84c-.34-.23-.74-.12-.74-.12,0,0,0,0,.01.02.08.14.54.87.91.86,0,0,.08-.07.1-.24.03-.17-.11-.4-.28-.52Z"/>
      <path class="cls-60" d="M35.31,32.34s-.4-.4-1.14-.89c-.35-.26-.81-.48-1.3-.71-.49-.23-1.04-.4-1.61-.5-.57-.13-1.15-.16-1.71-.15-.28.02-.55.04-.8.06-.26.01-.49.08-.72.11-.45.07-.82.18-1.09.24-.27.06-.42.1-.42.1,0,0,.13-.08.37-.23.24-.13.57-.37,1.02-.53.44-.19.98-.36,1.58-.48.6-.08,1.26-.12,1.92-.05.66.09,1.3.27,1.87.51.57.24,1.06.56,1.45.86.78.59,1.16,1.18,1.16,1.18h0c.12.18.07.42-.11.54-.15.1-.35.07-.48-.05Z"/>
      <path class="cls-95" d="M26.13,35.1s1.46,3.64,3.73,3.99c2.27.35,4.69-.16,4.69-.16,0,0,.06-4.22-1.12-4.81-1.18-.59-3.87-1.46-7.3.98Z"/>
      <g class="cls-163">
        <polygon class="cls-121" points="33.28 34.45 28.73 34.08 28.73 33.66 33.28 33.66 33.28 34.45"/>
        <polygon class="cls-121" points="33.28 34.47 28.73 34.1 28.73 34.08 33.28 34.45 33.28 34.47"/>
        <polygon class="cls-165" points="33.28 34.5 28.73 34.12 28.73 34.1 33.28 34.47 33.28 34.5"/>
        <polygon class="cls-158" points="33.28 34.52 28.73 34.14 28.73 34.12 33.28 34.5 33.28 34.52"/>
        <polygon class="cls-83" points="33.28 34.54 28.73 34.16 28.73 34.14 33.28 34.52 33.28 34.54"/>
        <polygon class="cls-14" points="33.28 34.56 28.73 34.18 28.73 34.16 33.28 34.54 33.28 34.56"/>
        <polygon class="cls-135" points="33.28 34.58 28.73 34.2 28.73 34.18 33.28 34.56 33.28 34.58"/>
        <polygon class="cls-64" points="33.28 34.6 28.73 34.22 28.73 34.2 33.28 34.58 33.28 34.6"/>
        <polygon class="cls-2" points="33.28 34.62 28.73 34.25 28.73 34.22 33.28 34.6 33.28 34.62"/>
        <polygon class="cls-13" points="33.28 34.64 28.73 34.27 28.73 34.25 33.28 34.62 33.28 34.64"/>
        <polygon class="cls-69" points="33.28 34.66 28.73 34.29 28.73 34.27 33.28 34.64 33.28 34.66"/>
        <polygon class="cls-47" points="33.28 34.68 28.73 34.31 28.73 34.29 33.28 34.66 33.28 34.68"/>
        <polygon class="cls-61" points="33.28 34.71 28.73 34.33 28.73 34.31 33.28 34.68 33.28 34.71"/>
        <polygon class="cls-109" points="33.28 34.73 28.73 34.35 28.73 34.33 33.28 34.71 33.28 34.73"/>
        <polygon class="cls-145" points="33.28 34.75 28.73 34.37 28.73 34.35 33.28 34.73 33.28 34.75"/>
        <polygon class="cls-142" points="33.28 34.77 28.73 34.39 28.73 34.37 33.28 34.75 33.28 34.77"/>
        <polygon class="cls-63" points="33.28 34.79 28.73 34.41 28.73 34.39 33.28 34.77 33.28 34.79"/>
        <polygon class="cls-48" points="33.28 34.81 28.73 34.43 28.73 34.41 33.28 34.79 33.28 34.81"/>
        <polygon class="cls-157" points="33.28 34.83 28.73 34.46 28.73 34.43 33.28 34.81 33.28 34.83"/>
        <polygon class="cls-148" points="33.28 34.85 28.73 34.48 28.73 34.46 33.28 34.83 33.28 34.85"/>
        <polygon class="cls-120" points="33.28 34.87 28.73 34.5 28.73 34.48 33.28 34.85 33.28 34.87"/>
        <polygon class="cls-143" points="33.28 34.89 28.73 34.52 28.73 34.5 33.28 34.87 33.28 34.89"/>
        <polygon class="cls-124" points="33.28 34.92 28.73 34.54 28.73 34.52 33.28 34.89 33.28 34.92"/>
        <polygon class="cls-17" points="33.28 34.94 28.73 34.56 28.73 34.54 33.28 34.92 33.28 34.94"/>
        <polygon class="cls-154" points="33.28 34.96 28.73 34.58 28.73 34.56 33.28 34.94 33.28 34.96"/>
        <polygon class="cls-18" points="33.28 34.98 28.73 34.6 28.73 34.58 33.28 34.96 33.28 34.98"/>
        <polygon class="cls-107" points="33.28 35 28.73 34.62 28.73 34.6 33.28 34.98 33.28 35"/>
        <polygon class="cls-26" points="33.28 35.02 28.73 34.64 28.73 34.62 33.28 35 33.28 35.02"/>
        <polygon class="cls-38" points="33.28 35.04 28.73 34.67 28.73 34.64 33.28 35.02 33.28 35.04"/>
        <polygon class="cls-159" points="33.28 35.06 28.73 34.69 28.73 34.67 33.28 35.04 33.28 35.06"/>
        <polygon class="cls-115" points="33.28 35.08 28.73 34.71 28.73 34.69 33.28 35.06 33.28 35.08"/>
        <polygon class="cls-106" points="33.28 35.1 28.73 34.73 28.73 34.71 33.28 35.08 33.28 35.1"/>
        <polygon class="cls-104" points="33.28 35.13 28.73 34.75 28.73 34.73 33.28 35.1 33.28 35.13"/>
        <polygon class="cls-100" points="33.28 35.15 28.73 34.77 28.73 34.75 33.28 35.13 33.28 35.15"/>
        <polygon class="cls-75" points="33.28 35.17 28.73 34.79 28.73 34.77 33.28 35.15 33.28 35.17"/>
        <polygon class="cls-6" points="33.28 35.19 28.73 34.81 28.73 34.79 33.28 35.17 33.28 35.19"/>
        <polygon class="cls-113" points="33.28 35.21 28.73 34.83 28.73 34.81 33.28 35.19 33.28 35.21"/>
        <polygon class="cls-122" points="33.28 35.23 28.73 34.85 28.73 34.83 33.28 35.21 33.28 35.23"/>
        <polygon class="cls-111" points="33.28 35.25 28.73 34.88 28.73 34.85 33.28 35.23 33.28 35.25"/>
        <polygon class="cls-150" points="33.28 35.27 28.73 34.9 28.73 34.88 33.28 35.25 33.28 35.27"/>
        <polygon class="cls-72" points="33.28 35.29 28.73 34.92 28.73 34.9 33.28 35.27 33.28 35.29"/>
        <polygon class="cls-98" points="33.28 35.31 28.73 34.94 28.73 34.92 33.28 35.29 33.28 35.31"/>
        <polygon class="cls-77" points="33.28 35.34 28.73 34.96 28.73 34.94 33.28 35.31 33.28 35.34"/>
        <polygon class="cls-127" points="33.28 35.36 28.73 34.98 28.73 34.96 33.28 35.34 33.28 35.36"/>
        <polygon class="cls-131" points="33.28 35.38 28.73 35 28.73 34.98 33.28 35.36 33.28 35.38"/>
        <polygon class="cls-101" points="33.28 35.4 28.73 35.02 28.73 35 33.28 35.38 33.28 35.4"/>
        <polygon class="cls-176" points="33.28 35.42 28.73 35.04 28.73 35.02 33.28 35.4 33.28 35.42"/>
        <polygon class="cls-23" points="33.28 35.44 28.73 35.06 28.73 35.04 33.28 35.42 33.28 35.44"/>
        <polygon class="cls-65" points="33.28 35.46 28.73 35.09 28.73 35.06 33.28 35.44 33.28 35.46"/>
        <polygon class="cls-32" points="33.28 35.48 28.73 35.11 28.73 35.09 33.28 35.46 33.28 35.48"/>
        <polygon class="cls-66" points="33.28 35.5 28.73 35.13 28.73 35.11 33.28 35.48 33.28 35.5"/>
        <polygon class="cls-152" points="33.28 35.52 28.73 35.15 28.73 35.13 33.28 35.5 33.28 35.52"/>
        <polygon class="cls-28" points="33.28 35.55 28.73 35.17 28.73 35.15 33.28 35.52 33.28 35.55"/>
        <polygon class="cls-52" points="33.28 35.57 28.73 35.19 28.73 35.17 33.28 35.55 33.28 35.57"/>
        <polygon class="cls-139" points="33.28 35.59 28.73 35.21 28.73 35.19 33.28 35.57 33.28 35.59"/>
        <polygon class="cls-162" points="33.28 35.61 28.73 35.23 28.73 35.21 33.28 35.59 33.28 35.61"/>
        <polygon class="cls-119" points="33.28 35.63 28.73 35.25 28.73 35.23 33.28 35.61 33.28 35.63"/>
        <polygon class="cls-99" points="33.28 35.65 28.73 35.27 28.73 35.25 33.28 35.63 33.28 35.65"/>
        <polygon class="cls-80" points="33.28 35.67 28.73 35.3 28.73 35.27 33.28 35.65 33.28 35.67"/>
        <polygon class="cls-171" points="33.28 35.69 28.73 35.32 28.73 35.3 33.28 35.67 33.28 35.69"/>
        <polygon class="cls-130" points="33.28 35.71 28.73 35.34 28.73 35.32 33.28 35.69 33.28 35.71"/>
        <polygon class="cls-160" points="33.28 35.73 28.73 35.36 28.73 35.34 33.28 35.71 33.28 35.73"/>
        <polygon class="cls-40" points="33.28 35.76 28.73 35.38 28.73 35.36 33.28 35.73 33.28 35.76"/>
        <polygon class="cls-177" points="33.28 35.78 28.73 35.4 28.73 35.38 33.28 35.76 33.28 35.78"/>
        <polygon class="cls-22" points="33.28 35.8 28.73 35.42 28.73 35.4 33.28 35.78 33.28 35.8"/>
        <polygon class="cls-141" points="33.28 35.82 28.73 35.44 28.73 35.42 33.28 35.8 33.28 35.82"/>
        <polygon class="cls-68" points="33.28 35.84 28.73 35.46 28.73 35.44 33.28 35.82 33.28 35.84"/>
        <polygon class="cls-93" points="33.28 35.86 28.73 35.48 28.73 35.46 33.28 35.84 33.28 35.86"/>
        <polygon class="cls-153" points="33.28 35.88 28.73 35.51 28.73 35.48 33.28 35.86 33.28 35.88"/>
        <polygon class="cls-43" points="33.28 35.9 28.73 35.53 28.73 35.51 33.28 35.88 33.28 35.9"/>
        <polygon class="cls-46" points="33.28 35.92 28.73 35.55 28.73 35.53 33.28 35.9 33.28 35.92"/>
        <polygon class="cls-133" points="33.28 35.94 28.73 35.57 28.73 35.55 33.28 35.92 33.28 35.94"/>
        <polygon class="cls-59" points="33.28 35.97 28.73 35.59 28.73 35.57 33.28 35.94 33.28 35.97"/>
        <polygon class="cls-11" points="33.28 35.99 28.73 35.61 28.73 35.59 33.28 35.97 33.28 35.99"/>
        <polygon class="cls-132" points="33.28 36.01 28.73 35.63 28.73 35.61 33.28 35.99 33.28 36.01"/>
        <polygon class="cls-49" points="33.28 36.03 28.73 35.65 28.73 35.63 33.28 36.01 33.28 36.03"/>
        <polygon class="cls-116" points="33.28 36.05 28.73 35.67 28.73 35.65 33.28 36.03 33.28 36.05"/>
        <polygon class="cls-140" points="33.28 36.07 28.73 35.69 28.73 35.67 33.28 36.05 33.28 36.07"/>
        <polygon class="cls-102" points="33.28 36.09 28.73 35.72 28.73 35.69 33.28 36.07 33.28 36.09"/>
        <polygon class="cls-87" points="33.28 36.11 28.73 35.74 28.73 35.72 33.28 36.09 33.28 36.11"/>
        <polygon class="cls-89" points="33.28 36.13 28.73 35.76 28.73 35.74 33.28 36.11 33.28 36.13"/>
        <polygon class="cls-92" points="33.28 36.15 28.73 35.78 28.73 35.76 33.28 36.13 33.28 36.15"/>
        <polygon class="cls-146" points="33.28 36.18 28.73 35.8 28.73 35.78 33.28 36.15 33.28 36.18"/>
        <polygon class="cls-56" points="33.28 36.2 28.73 35.82 28.73 35.8 33.28 36.18 33.28 36.2"/>
        <polygon class="cls-71" points="33.28 36.22 28.73 35.84 28.73 35.82 33.28 36.2 33.28 36.22"/>
        <polygon class="cls-16" points="33.28 36.24 28.73 35.86 28.73 35.84 33.28 36.22 33.28 36.24"/>
        <polygon class="cls-82" points="33.28 36.26 28.73 35.88 28.73 35.86 33.28 36.24 33.28 36.26"/>
        <polygon class="cls-82" points="33.28 36.28 28.73 35.9 28.73 35.88 33.28 36.26 33.28 36.28"/>
        <polygon class="cls-94" points="33.28 36.3 28.73 35.93 28.73 35.9 33.28 36.28 33.28 36.3"/>
        <polygon class="cls-27" points="33.28 36.32 28.73 35.95 28.73 35.93 33.28 36.3 33.28 36.32"/>
        <polygon class="cls-27" points="33.28 36.34 28.73 35.97 28.73 35.95 33.28 36.32 33.28 36.34"/>
        <polygon class="cls-166" points="33.28 36.36 28.73 35.99 28.73 35.97 33.28 36.34 33.28 36.36"/>
        <polygon class="cls-73" points="33.28 36.39 28.73 36.01 28.73 35.99 33.28 36.36 33.28 36.39"/>
        <polygon class="cls-161" points="33.28 36.41 28.73 36.03 28.73 36.01 33.28 36.39 33.28 36.41"/>
        <polygon class="cls-79" points="33.28 36.43 28.73 36.05 28.73 36.03 33.28 36.41 33.28 36.43"/>
        <polygon class="cls-34" points="33.28 36.45 28.73 36.07 28.73 36.05 33.28 36.43 33.28 36.45"/>
        <polygon class="cls-134" points="33.28 36.47 28.73 36.09 28.73 36.07 33.28 36.45 33.28 36.47"/>
        <polygon class="cls-175" points="33.28 36.49 28.73 36.11 28.73 36.09 33.28 36.47 33.28 36.49"/>
        <polygon class="cls-74" points="33.28 36.51 28.73 36.14 28.73 36.11 33.28 36.49 33.28 36.51"/>
        <polygon class="cls-37" points="33.28 36.53 28.73 36.16 28.73 36.14 33.28 36.51 33.28 36.53"/>
        <polygon class="cls-21" points="33.28 36.55 28.73 36.18 28.73 36.16 33.28 36.53 33.28 36.55"/>
        <polygon class="cls-33" points="33.28 36.57 28.73 36.2 28.73 36.18 33.28 36.55 33.28 36.57"/>
        <polygon class="cls-125" points="33.28 36.6 28.73 36.22 28.73 36.2 33.28 36.57 33.28 36.6"/>
        <polygon class="cls-88" points="33.28 36.62 28.73 36.24 28.73 36.22 33.28 36.6 33.28 36.62"/>
        <polygon class="cls-168" points="33.28 36.64 28.73 36.26 28.73 36.24 33.28 36.62 33.28 36.64"/>
        <polygon class="cls-31" points="33.28 36.66 28.73 36.28 28.73 36.26 33.28 36.64 33.28 36.66"/>
        <polygon class="cls-118" points="33.28 36.68 28.73 36.3 28.73 36.28 33.28 36.66 33.28 36.68"/>
        <polygon class="cls-108" points="33.28 36.7 28.73 36.32 28.73 36.3 33.28 36.68 33.28 36.7"/>
        <polygon class="cls-9" points="33.28 36.72 28.73 36.35 28.73 36.32 33.28 36.7 33.28 36.72"/>
        <polygon class="cls-137" points="33.28 36.74 28.73 36.37 28.73 36.35 33.28 36.72 33.28 36.74"/>
        <polygon class="cls-137" points="33.28 36.76 28.73 36.39 28.73 36.37 33.28 36.74 33.28 36.76"/>
        <polygon class="cls-29" points="33.28 36.78 28.73 36.41 28.73 36.39 33.28 36.76 33.28 36.78"/>
        <polygon class="cls-19" points="33.28 36.81 28.73 36.43 28.73 36.41 33.28 36.78 33.28 36.81"/>
        <polygon class="cls-123" points="33.28 36.83 28.73 36.45 28.73 36.43 33.28 36.81 33.28 36.83"/>
        <polygon class="cls-91" points="33.28 36.85 28.73 36.47 28.73 36.45 33.28 36.83 33.28 36.85"/>
        <polygon class="cls-126" points="33.28 36.87 28.73 36.49 28.73 36.47 33.28 36.85 33.28 36.87"/>
        <polygon class="cls-126" points="33.28 36.89 28.73 36.51 28.73 36.49 33.28 36.87 33.28 36.89"/>
        <polygon class="cls-55" points="33.28 36.91 28.73 36.53 28.73 36.51 33.28 36.89 33.28 36.91"/>
        <polygon class="cls-55" points="33.28 36.93 28.73 36.56 28.73 36.53 33.28 36.91 33.28 36.93"/>
        <polygon class="cls-53" points="33.28 36.95 28.73 36.58 28.73 36.56 33.28 36.93 33.28 36.95"/>
        <polygon class="cls-167" points="33.28 36.97 28.73 36.6 28.73 36.58 33.28 36.95 33.28 36.97"/>
        <polygon class="cls-167" points="33.28 36.99 28.73 36.62 28.73 36.6 33.28 36.97 33.28 36.99"/>
        <polygon class="cls-10" points="33.28 37.02 28.73 36.64 28.73 36.62 33.28 36.99 33.28 37.02"/>
        <polygon class="cls-70" points="33.28 37.04 28.73 36.66 28.73 36.64 33.28 37.02 33.28 37.04"/>
        <polygon class="cls-151" points="33.28 37.06 28.73 36.68 28.73 36.66 33.28 37.04 33.28 37.06"/>
        <polygon class="cls-57" points="33.28 37.08 28.73 36.7 28.73 36.68 33.28 37.06 33.28 37.08"/>
        <polygon class="cls-172" points="33.28 37.1 28.73 36.72 28.73 36.7 33.28 37.08 33.28 37.1"/>
        <polygon class="cls-112" points="33.28 37.12 28.73 36.74 28.73 36.72 33.28 37.1 33.28 37.12"/>
        <polygon class="cls-112" points="33.28 37.14 28.73 36.77 28.73 36.74 33.28 37.12 33.28 37.14"/>
        <polygon class="cls-3" points="33.28 37.16 28.73 36.79 28.73 36.77 33.28 37.14 33.28 37.16"/>
        <polygon class="cls-50" points="33.28 37.18 28.73 36.81 28.73 36.79 33.28 37.16 33.28 37.18"/>
        <polygon class="cls-155" points="33.28 37.2 28.73 36.83 28.73 36.81 33.28 37.18 33.28 37.2"/>
        <polygon class="cls-155" points="33.28 37.23 28.73 36.85 28.73 36.83 33.28 37.2 33.28 37.23"/>
        <polygon class="cls-86" points="33.28 37.25 28.73 36.87 28.73 36.85 33.28 37.23 33.28 37.25"/>
        <polygon class="cls-45" points="33.28 37.27 28.73 36.89 28.73 36.87 33.28 37.25 33.28 37.27"/>
        <polygon class="cls-45" points="33.28 37.29 28.73 36.91 28.73 36.89 33.28 37.27 33.28 37.29"/>
        <polygon class="cls-96" points="33.28 37.31 28.73 36.93 28.73 36.91 33.28 37.29 33.28 37.31"/>
        <polygon class="cls-96" points="33.28 37.33 28.73 36.95 28.73 36.93 33.28 37.31 33.28 37.33"/>
        <polygon class="cls-105" points="33.28 37.35 28.73 36.98 28.73 36.95 33.28 37.33 33.28 37.35"/>
        <polygon class="cls-15" points="33.28 37.37 28.73 37 28.73 36.98 33.28 37.35 33.28 37.37"/>
        <polygon class="cls-103" points="33.28 37.39 28.73 37.02 28.73 37 33.28 37.37 33.28 37.39"/>
        <polygon class="cls-103" points="33.28 37.41 28.73 37.04 28.73 37.02 33.28 37.39 33.28 37.41"/>
        <polygon class="cls-41" points="33.28 37.44 28.73 37.06 28.73 37.04 33.28 37.41 33.28 37.44"/>
        <polygon class="cls-173" points="33.28 37.46 28.73 37.08 28.73 37.06 33.28 37.44 33.28 37.46"/>
        <polygon class="cls-173" points="33.28 37.48 28.73 37.1 28.73 37.08 33.28 37.46 33.28 37.48"/>
        <polygon class="cls-114" points="33.28 37.5 28.73 37.12 28.73 37.1 33.28 37.48 33.28 37.5"/>
        <polygon class="cls-54" points="33.28 37.52 28.73 37.14 28.73 37.12 33.28 37.5 33.28 37.52"/>
        <polygon class="cls-30" points="33.28 37.54 28.73 37.16 28.73 37.14 33.28 37.52 33.28 37.54"/>
        <polygon class="cls-24" points="33.28 37.56 28.73 37.19 28.73 37.16 33.28 37.54 33.28 37.56"/>
        <polygon class="cls-24" points="33.28 37.58 28.73 37.21 28.73 37.19 33.28 37.56 33.28 37.58"/>
        <polygon class="cls-164" points="33.28 37.6 28.73 37.23 28.73 37.21 33.28 37.58 33.28 37.6"/>
        <polygon class="cls-128" points="33.28 37.62 28.73 37.25 28.73 37.23 33.28 37.6 33.28 37.62"/>
        <polygon class="cls-128" points="33.28 37.65 28.73 37.27 28.73 37.25 33.28 37.62 33.28 37.65"/>
        <polygon class="cls-128" points="33.28 37.67 28.73 37.29 28.73 37.27 33.28 37.65 33.28 37.67"/>
        <polygon class="cls-90" points="33.28 37.69 28.73 37.31 28.73 37.29 33.28 37.67 33.28 37.69"/>
        <polygon class="cls-90" points="33.28 37.71 28.73 37.33 28.73 37.31 33.28 37.69 33.28 37.71"/>
        <polygon class="cls-78" points="33.28 37.73 28.73 37.35 28.73 37.33 33.28 37.71 33.28 37.73"/>
        <polygon class="cls-78" points="33.28 37.75 28.73 37.37 28.73 37.35 33.28 37.73 33.28 37.75"/>
        <polygon class="cls-138" points="33.28 37.77 28.73 37.4 28.73 37.37 33.28 37.75 33.28 37.77"/>
        <polygon class="cls-4" points="33.28 37.79 28.73 37.42 28.73 37.4 33.28 37.77 33.28 37.79"/>
        <polygon class="cls-4" points="33.28 37.81 28.73 37.44 28.73 37.42 33.28 37.79 33.28 37.81"/>
        <polygon class="cls-44" points="33.28 37.83 28.73 37.46 28.73 37.44 33.28 37.81 33.28 37.83"/>
        <polygon class="cls-58" points="33.28 37.86 28.73 37.48 28.73 37.46 33.28 37.83 33.28 37.86"/>
        <polygon class="cls-84" points="33.28 37.88 28.73 37.5 28.73 37.48 33.28 37.86 33.28 37.88"/>
        <polygon class="cls-84" points="33.28 37.9 28.73 37.52 28.73 37.5 33.28 37.88 33.28 37.9"/>
        <polygon class="cls-84" points="33.28 37.92 28.73 37.54 28.73 37.52 33.28 37.9 33.28 37.92"/>
        <polygon class="cls-174" points="33.28 37.94 28.73 37.56 28.73 37.54 33.28 37.92 33.28 37.94"/>
        <polygon class="cls-12" points="33.28 37.96 28.73 37.58 28.73 37.56 33.28 37.94 33.28 37.96"/>
        <polygon class="cls-12" points="33.28 37.98 28.73 37.61 28.73 37.58 33.28 37.96 33.28 37.98"/>
        <polygon class="cls-169" points="33.28 38 28.73 37.63 28.73 37.61 33.28 37.98 33.28 38"/>
        <polygon class="cls-136" points="33.28 38.02 28.73 37.65 28.73 37.63 33.28 38 33.28 38.02"/>
        <polygon class="cls-136" points="33.28 38.05 28.73 37.67 28.73 37.65 33.28 38.02 33.28 38.05"/>
        <polygon class="cls-136" points="33.28 38.07 28.73 37.69 28.73 37.67 33.28 38.05 33.28 38.07"/>
        <polygon class="cls-136" points="33.28 38.09 28.73 37.71 28.73 37.69 33.28 38.07 33.28 38.09"/>
        <polygon class="cls-39" points="33.28 38.11 28.73 37.73 28.73 37.71 33.28 38.09 33.28 38.11"/>
        <polygon class="cls-97" points="33.28 38.13 28.73 37.75 28.73 37.73 33.28 38.11 33.28 38.13"/>
        <polygon class="cls-20" points="33.23 38.15 28.73 37.77 28.73 37.75 33.28 38.13 33.28 38.15 33.23 38.15"/>
        <polygon class="cls-20" points="32.97 38.15 28.73 37.79 28.73 37.77 33.23 38.15 32.97 38.15"/>
        <polygon class="cls-20" points="32.72 38.15 28.73 37.82 28.73 37.79 32.97 38.15 32.72 38.15"/>
        <polygon class="cls-20" points="32.46 38.15 28.73 37.84 28.73 37.82 32.72 38.15 32.46 38.15"/>
        <polygon class="cls-20" points="32.21 38.15 28.73 37.86 28.73 37.84 32.46 38.15 32.21 38.15"/>
        <polygon class="cls-20" points="31.95 38.15 28.73 37.88 28.73 37.86 32.21 38.15 31.95 38.15"/>
        <polygon class="cls-67" points="31.7 38.15 28.73 37.9 28.73 37.88 31.95 38.15 31.7 38.15"/>
        <polygon class="cls-147" points="31.45 38.15 28.73 37.92 28.73 37.9 31.7 38.15 31.45 38.15"/>
        <polygon class="cls-147" points="31.19 38.15 28.73 37.94 28.73 37.92 31.45 38.15 31.19 38.15"/>
        <polygon class="cls-147" points="30.94 38.15 28.73 37.96 28.73 37.94 31.19 38.15 30.94 38.15"/>
        <polygon class="cls-147" points="30.68 38.15 28.73 37.98 28.73 37.96 30.94 38.15 30.68 38.15"/>
        <polygon class="cls-147" points="30.43 38.15 28.73 38 28.73 37.98 30.68 38.15 30.43 38.15"/>
        <polygon class="cls-147" points="30.17 38.15 28.73 38.03 28.73 38 30.43 38.15 30.17 38.15"/>
        <polygon class="cls-147" points="29.92 38.15 28.73 38.05 28.73 38.03 30.17 38.15 29.92 38.15"/>
        <polygon class="cls-35" points="29.67 38.15 28.73 38.07 28.73 38.05 29.92 38.15 29.67 38.15"/>
        <polygon class="cls-35" points="29.41 38.15 28.73 38.09 28.73 38.07 29.67 38.15 29.41 38.15"/>
        <polygon class="cls-51" points="29.16 38.15 28.73 38.11 28.73 38.09 29.41 38.15 29.16 38.15"/>
        <polygon class="cls-51" points="28.9 38.15 28.73 38.13 28.73 38.11 29.16 38.15 28.9 38.15"/>
        <polygon class="cls-51" points="28.73 38.13 28.9 38.15 28.73 38.15 28.73 38.13"/>
      </g>
      <path class="cls-42" d="M30.9,37.37c-.64-.05-1.14-.7-1.08-1.4.06-.71.65-1.26,1.29-1.21.64.05,1.14.7,1.08,1.4-.06.71-.65,1.26-1.29,1.21Z"/>
      <path class="cls-129" d="M30.96,37.12c-.45-.04-.91-.53-.86-1.13.05-.6.59-1.01,1.03-.97.45.04.91.53.86,1.13-.05.6-.59,1.01-1.03.97Z"/>
      <g class="cls-117">
        <path class="cls-149" d="M34.54,38.92s-.05,0-.17.04c-.08-1.3-.33-3.09-1.07-3.45-1.09-.55-3.55-1.36-6.7.57-.32-.57-.48-.99-.48-.99,3.43-2.45,6.13-1.57,7.3-.99,1.18.59,1.12,4.81,1.12,4.81Z"/>
      </g>
      <path class="cls-95" d="M30.59,35.64c-.02.22-.24.38-.5.35-.26-.02-.45-.22-.43-.43.02-.22.24-.38.5-.36.26.02.45.21.44.43Z"/>
      <path class="cls-95" d="M32.04,36.89c0,.11-.12.19-.25.18-.13,0-.23-.11-.22-.22,0-.11.12-.19.25-.18.13,0,.23.11.22.22Z"/>
      <path class="cls-60" d="M41.5,31.86s.38-.58,1.16-1.18c.39-.3.88-.62,1.45-.86.57-.24,1.21-.42,1.87-.51.66-.07,1.32-.03,1.92.05.6.11,1.14.29,1.58.48.45.15.78.4,1.02.53.23.15.37.23.37.23,0,0-.15-.04-.42-.1-.26-.07-.63-.18-1.09-.24-.23-.03-.46-.1-.72-.11-.26-.02-.52-.04-.8-.06-.55,0-1.14.02-1.71.15-.57.1-1.12.28-1.61.5-.49.23-.94.46-1.3.71-.74.49-1.14.89-1.14.89-.15.15-.39.15-.54,0-.13-.13-.15-.33-.05-.48h0Z"/>
      <path class="cls-95" d="M51.27,35.1s-1.46,3.64-3.73,3.99c-2.27.35-4.68-.16-4.68-.16,0,0-.06-4.22,1.12-4.81,1.18-.59,3.87-1.46,7.3.98Z"/>
      <g class="cls-117">
        <path class="cls-149" d="M42.85,38.92s.05,0,.17.04c.08-1.3.34-3.09,1.07-3.45,1.09-.55,3.55-1.36,6.7.57.32-.57.48-.99.48-.99-3.43-2.45-6.13-1.57-7.3-.99-1.18.59-1.12,4.81-1.12,4.81Z"/>
      </g>
      <g class="cls-76">
        <polygon class="cls-121" points="48.68 34.33 44.12 33.96 44.12 33.53 48.68 33.53 48.68 34.33"/>
        <polygon class="cls-121" points="48.68 34.35 44.12 33.98 44.12 33.96 48.68 34.33 48.68 34.35"/>
        <polygon class="cls-165" points="48.68 34.37 44.12 34 44.12 33.98 48.68 34.35 48.68 34.37"/>
        <polygon class="cls-158" points="48.68 34.4 44.12 34.02 44.12 34 48.68 34.37 48.68 34.4"/>
        <polygon class="cls-83" points="48.68 34.42 44.12 34.04 44.12 34.02 48.68 34.4 48.68 34.42"/>
        <polygon class="cls-14" points="48.68 34.44 44.12 34.06 44.12 34.04 48.68 34.42 48.68 34.44"/>
        <polygon class="cls-135" points="48.68 34.46 44.12 34.08 44.12 34.06 48.68 34.44 48.68 34.46"/>
        <polygon class="cls-64" points="48.68 34.48 44.12 34.1 44.12 34.08 48.68 34.46 48.68 34.48"/>
        <polygon class="cls-2" points="48.68 34.5 44.12 34.12 44.12 34.1 48.68 34.48 48.68 34.5"/>
        <polygon class="cls-13" points="48.68 34.52 44.12 34.15 44.12 34.12 48.68 34.5 48.68 34.52"/>
        <polygon class="cls-69" points="48.68 34.54 44.12 34.17 44.12 34.15 48.68 34.52 48.68 34.54"/>
        <polygon class="cls-47" points="48.68 34.56 44.12 34.19 44.12 34.17 48.68 34.54 48.68 34.56"/>
        <polygon class="cls-61" points="48.68 34.58 44.12 34.21 44.12 34.19 48.68 34.56 48.68 34.58"/>
        <polygon class="cls-109" points="48.68 34.61 44.12 34.23 44.12 34.21 48.68 34.58 48.68 34.61"/>
        <polygon class="cls-145" points="48.68 34.63 44.12 34.25 44.12 34.23 48.68 34.61 48.68 34.63"/>
        <polygon class="cls-142" points="48.68 34.65 44.12 34.27 44.12 34.25 48.68 34.63 48.68 34.65"/>
        <polygon class="cls-63" points="48.68 34.67 44.12 34.29 44.12 34.27 48.68 34.65 48.68 34.67"/>
        <polygon class="cls-48" points="48.68 34.69 44.12 34.31 44.12 34.29 48.68 34.67 48.68 34.69"/>
        <polygon class="cls-157" points="48.68 34.71 44.12 34.33 44.12 34.31 48.68 34.69 48.68 34.71"/>
        <polygon class="cls-148" points="48.68 34.73 44.12 34.36 44.12 34.33 48.68 34.71 48.68 34.73"/>
        <polygon class="cls-120" points="48.68 34.75 44.12 34.38 44.12 34.36 48.68 34.73 48.68 34.75"/>
        <polygon class="cls-143" points="48.68 34.77 44.12 34.4 44.12 34.38 48.68 34.75 48.68 34.77"/>
        <polygon class="cls-124" points="48.68 34.79 44.12 34.42 44.12 34.4 48.68 34.77 48.68 34.79"/>
        <polygon class="cls-17" points="48.68 34.82 44.12 34.44 44.12 34.42 48.68 34.79 48.68 34.82"/>
        <polygon class="cls-154" points="48.68 34.84 44.12 34.46 44.12 34.44 48.68 34.82 48.68 34.84"/>
        <polygon class="cls-18" points="48.68 34.86 44.12 34.48 44.12 34.46 48.68 34.84 48.68 34.86"/>
        <polygon class="cls-107" points="48.68 34.88 44.12 34.5 44.12 34.48 48.68 34.86 48.68 34.88"/>
        <polygon class="cls-26" points="48.68 34.9 44.12 34.52 44.12 34.5 48.68 34.88 48.68 34.9"/>
        <polygon class="cls-38" points="48.68 34.92 44.12 34.54 44.12 34.52 48.68 34.9 48.68 34.92"/>
        <polygon class="cls-159" points="48.68 34.94 44.12 34.57 44.12 34.54 48.68 34.92 48.68 34.94"/>
        <polygon class="cls-115" points="48.68 34.96 44.12 34.59 44.12 34.57 48.68 34.94 48.68 34.96"/>
        <polygon class="cls-106" points="48.68 34.98 44.12 34.61 44.12 34.59 48.68 34.96 48.68 34.98"/>
        <polygon class="cls-104" points="48.68 35 44.12 34.63 44.12 34.61 48.68 34.98 48.68 35"/>
        <polygon class="cls-100" points="48.68 35.03 44.12 34.65 44.12 34.63 48.68 35 48.68 35.03"/>
        <polygon class="cls-75" points="48.68 35.05 44.12 34.67 44.12 34.65 48.68 35.03 48.68 35.05"/>
        <polygon class="cls-6" points="48.68 35.07 44.12 34.69 44.12 34.67 48.68 35.05 48.68 35.07"/>
        <polygon class="cls-113" points="48.68 35.09 44.12 34.71 44.12 34.69 48.68 35.07 48.68 35.09"/>
        <polygon class="cls-122" points="48.68 35.11 44.12 34.73 44.12 34.71 48.68 35.09 48.68 35.11"/>
        <polygon class="cls-111" points="48.68 35.13 44.12 34.75 44.12 34.73 48.68 35.11 48.68 35.13"/>
        <polygon class="cls-150" points="48.68 35.15 44.12 34.78 44.12 34.75 48.68 35.13 48.68 35.15"/>
        <polygon class="cls-72" points="48.68 35.17 44.12 34.8 44.12 34.78 48.68 35.15 48.68 35.17"/>
        <polygon class="cls-98" points="48.68 35.19 44.12 34.82 44.12 34.8 48.68 35.17 48.68 35.19"/>
        <polygon class="cls-77" points="48.68 35.21 44.12 34.84 44.12 34.82 48.68 35.19 48.68 35.21"/>
        <polygon class="cls-127" points="48.68 35.24 44.12 34.86 44.12 34.84 48.68 35.21 48.68 35.24"/>
        <polygon class="cls-131" points="48.68 35.26 44.12 34.88 44.12 34.86 48.68 35.24 48.68 35.26"/>
        <polygon class="cls-101" points="48.68 35.28 44.12 34.9 44.12 34.88 48.68 35.26 48.68 35.28"/>
        <polygon class="cls-176" points="48.68 35.3 44.12 34.92 44.12 34.9 48.68 35.28 48.68 35.3"/>
        <polygon class="cls-23" points="48.68 35.32 44.12 34.94 44.12 34.92 48.68 35.3 48.68 35.32"/>
        <polygon class="cls-65" points="48.68 35.34 44.12 34.96 44.12 34.94 48.68 35.32 48.68 35.34"/>
        <polygon class="cls-32" points="48.68 35.36 44.12 34.99 44.12 34.96 48.68 35.34 48.68 35.36"/>
        <polygon class="cls-66" points="48.68 35.38 44.12 35.01 44.12 34.99 48.68 35.36 48.68 35.38"/>
        <polygon class="cls-152" points="48.68 35.4 44.12 35.03 44.12 35.01 48.68 35.38 48.68 35.4"/>
        <polygon class="cls-28" points="48.68 35.42 44.12 35.05 44.12 35.03 48.68 35.4 48.68 35.42"/>
        <polygon class="cls-52" points="48.68 35.45 44.12 35.07 44.12 35.05 48.68 35.42 48.68 35.45"/>
        <polygon class="cls-139" points="48.68 35.47 44.12 35.09 44.12 35.07 48.68 35.45 48.68 35.47"/>
        <polygon class="cls-162" points="48.68 35.49 44.12 35.11 44.12 35.09 48.68 35.47 48.68 35.49"/>
        <polygon class="cls-119" points="48.68 35.51 44.12 35.13 44.12 35.11 48.68 35.49 48.68 35.51"/>
        <polygon class="cls-99" points="48.68 35.53 44.12 35.15 44.12 35.13 48.68 35.51 48.68 35.53"/>
        <polygon class="cls-80" points="48.68 35.55 44.12 35.17 44.12 35.15 48.68 35.53 48.68 35.55"/>
        <polygon class="cls-171" points="48.68 35.57 44.12 35.2 44.12 35.17 48.68 35.55 48.68 35.57"/>
        <polygon class="cls-130" points="48.68 35.59 44.12 35.22 44.12 35.2 48.68 35.57 48.68 35.59"/>
        <polygon class="cls-160" points="48.68 35.61 44.12 35.24 44.12 35.22 48.68 35.59 48.68 35.61"/>
        <polygon class="cls-40" points="48.68 35.63 44.12 35.26 44.12 35.24 48.68 35.61 48.68 35.63"/>
        <polygon class="cls-177" points="48.68 35.66 44.12 35.28 44.12 35.26 48.68 35.63 48.68 35.66"/>
        <polygon class="cls-22" points="48.68 35.68 44.12 35.3 44.12 35.28 48.68 35.66 48.68 35.68"/>
        <polygon class="cls-141" points="48.68 35.7 44.12 35.32 44.12 35.3 48.68 35.68 48.68 35.7"/>
        <polygon class="cls-68" points="48.68 35.72 44.12 35.34 44.12 35.32 48.68 35.7 48.68 35.72"/>
        <polygon class="cls-93" points="48.68 35.74 44.12 35.36 44.12 35.34 48.68 35.72 48.68 35.74"/>
        <polygon class="cls-153" points="48.68 35.76 44.12 35.38 44.12 35.36 48.68 35.74 48.68 35.76"/>
        <polygon class="cls-43" points="48.68 35.78 44.12 35.41 44.12 35.38 48.68 35.76 48.68 35.78"/>
        <polygon class="cls-46" points="48.68 35.8 44.12 35.43 44.12 35.41 48.68 35.78 48.68 35.8"/>
        <polygon class="cls-133" points="48.68 35.82 44.12 35.45 44.12 35.43 48.68 35.8 48.68 35.82"/>
        <polygon class="cls-59" points="48.68 35.84 44.12 35.47 44.12 35.45 48.68 35.82 48.68 35.84"/>
        <polygon class="cls-11" points="48.68 35.87 44.12 35.49 44.12 35.47 48.68 35.84 48.68 35.87"/>
        <polygon class="cls-132" points="48.68 35.89 44.12 35.51 44.12 35.49 48.68 35.87 48.68 35.89"/>
        <polygon class="cls-49" points="48.68 35.91 44.12 35.53 44.12 35.51 48.68 35.89 48.68 35.91"/>
        <polygon class="cls-116" points="48.68 35.93 44.12 35.55 44.12 35.53 48.68 35.91 48.68 35.93"/>
        <polygon class="cls-140" points="48.68 35.95 44.12 35.57 44.12 35.55 48.68 35.93 48.68 35.95"/>
        <polygon class="cls-102" points="48.68 35.97 44.12 35.59 44.12 35.57 48.68 35.95 48.68 35.97"/>
        <polygon class="cls-87" points="48.68 35.99 44.12 35.62 44.12 35.59 48.68 35.97 48.68 35.99"/>
        <polygon class="cls-89" points="48.68 36.01 44.12 35.64 44.12 35.62 48.68 35.99 48.68 36.01"/>
        <polygon class="cls-92" points="48.68 36.03 44.12 35.66 44.12 35.64 48.68 36.01 48.68 36.03"/>
        <polygon class="cls-146" points="48.68 36.05 44.12 35.68 44.12 35.66 48.68 36.03 48.68 36.05"/>
        <polygon class="cls-56" points="48.68 36.08 44.12 35.7 44.12 35.68 48.68 36.05 48.68 36.08"/>
        <polygon class="cls-71" points="48.68 36.1 44.12 35.72 44.12 35.7 48.68 36.08 48.68 36.1"/>
        <polygon class="cls-16" points="48.68 36.12 44.12 35.74 44.12 35.72 48.68 36.1 48.68 36.12"/>
        <polygon class="cls-82" points="48.68 36.14 44.12 35.76 44.12 35.74 48.68 36.12 48.68 36.14"/>
        <polygon class="cls-82" points="48.68 36.16 44.12 35.78 44.12 35.76 48.68 36.14 48.68 36.16"/>
        <polygon class="cls-94" points="48.68 36.18 44.12 35.8 44.12 35.78 48.68 36.16 48.68 36.18"/>
        <polygon class="cls-27" points="48.68 36.2 44.12 35.83 44.12 35.8 48.68 36.18 48.68 36.2"/>
        <polygon class="cls-27" points="48.68 36.22 44.12 35.85 44.12 35.83 48.68 36.2 48.68 36.22"/>
        <polygon class="cls-166" points="48.68 36.24 44.12 35.87 44.12 35.85 48.68 36.22 48.68 36.24"/>
        <polygon class="cls-73" points="48.68 36.26 44.12 35.89 44.12 35.87 48.68 36.24 48.68 36.26"/>
        <polygon class="cls-161" points="48.68 36.29 44.12 35.91 44.12 35.89 48.68 36.26 48.68 36.29"/>
        <polygon class="cls-79" points="48.68 36.31 44.12 35.93 44.12 35.91 48.68 36.29 48.68 36.31"/>
        <polygon class="cls-34" points="48.68 36.33 44.12 35.95 44.12 35.93 48.68 36.31 48.68 36.33"/>
        <polygon class="cls-134" points="48.68 36.35 44.12 35.97 44.12 35.95 48.68 36.33 48.68 36.35"/>
        <polygon class="cls-175" points="48.68 36.37 44.12 35.99 44.12 35.97 48.68 36.35 48.68 36.37"/>
        <polygon class="cls-74" points="48.68 36.39 44.12 36.01 44.12 35.99 48.68 36.37 48.68 36.39"/>
        <polygon class="cls-37" points="48.68 36.41 44.12 36.04 44.12 36.01 48.68 36.39 48.68 36.41"/>
        <polygon class="cls-21" points="48.68 36.43 44.12 36.06 44.12 36.04 48.68 36.41 48.68 36.43"/>
        <polygon class="cls-33" points="48.68 36.45 44.12 36.08 44.12 36.06 48.68 36.43 48.68 36.45"/>
        <polygon class="cls-125" points="48.68 36.47 44.12 36.1 44.12 36.08 48.68 36.45 48.68 36.47"/>
        <polygon class="cls-88" points="48.68 36.5 44.12 36.12 44.12 36.1 48.68 36.47 48.68 36.5"/>
        <polygon class="cls-168" points="48.68 36.52 44.12 36.14 44.12 36.12 48.68 36.5 48.68 36.52"/>
        <polygon class="cls-31" points="48.68 36.54 44.12 36.16 44.12 36.14 48.68 36.52 48.68 36.54"/>
        <polygon class="cls-118" points="48.68 36.56 44.12 36.18 44.12 36.16 48.68 36.54 48.68 36.56"/>
        <polygon class="cls-108" points="48.68 36.58 44.12 36.2 44.12 36.18 48.68 36.56 48.68 36.58"/>
        <polygon class="cls-9" points="48.68 36.6 44.12 36.22 44.12 36.2 48.68 36.58 48.68 36.6"/>
        <polygon class="cls-137" points="48.68 36.62 44.12 36.25 44.12 36.22 48.68 36.6 48.68 36.62"/>
        <polygon class="cls-137" points="48.68 36.64 44.12 36.27 44.12 36.25 48.68 36.62 48.68 36.64"/>
        <polygon class="cls-29" points="48.68 36.66 44.12 36.29 44.12 36.27 48.68 36.64 48.68 36.66"/>
        <polygon class="cls-19" points="48.68 36.68 44.12 36.31 44.12 36.29 48.68 36.66 48.68 36.68"/>
        <polygon class="cls-123" points="48.68 36.71 44.12 36.33 44.12 36.31 48.68 36.68 48.68 36.71"/>
        <polygon class="cls-91" points="48.68 36.73 44.12 36.35 44.12 36.33 48.68 36.71 48.68 36.73"/>
        <polygon class="cls-126" points="48.68 36.75 44.12 36.37 44.12 36.35 48.68 36.73 48.68 36.75"/>
        <polygon class="cls-126" points="48.68 36.77 44.12 36.39 44.12 36.37 48.68 36.75 48.68 36.77"/>
        <polygon class="cls-55" points="48.68 36.79 44.12 36.41 44.12 36.39 48.68 36.77 48.68 36.79"/>
        <polygon class="cls-55" points="48.68 36.81 44.12 36.43 44.12 36.41 48.68 36.79 48.68 36.81"/>
        <polygon class="cls-53" points="48.68 36.83 44.12 36.46 44.12 36.43 48.68 36.81 48.68 36.83"/>
        <polygon class="cls-167" points="48.68 36.85 44.12 36.48 44.12 36.46 48.68 36.83 48.68 36.85"/>
        <polygon class="cls-167" points="48.68 36.87 44.12 36.5 44.12 36.48 48.68 36.85 48.68 36.87"/>
        <polygon class="cls-10" points="48.68 36.89 44.12 36.52 44.12 36.5 48.68 36.87 48.68 36.89"/>
        <polygon class="cls-70" points="48.68 36.92 44.12 36.54 44.12 36.52 48.68 36.89 48.68 36.92"/>
        <polygon class="cls-151" points="48.68 36.94 44.12 36.56 44.12 36.54 48.68 36.92 48.68 36.94"/>
        <polygon class="cls-57" points="48.68 36.96 44.12 36.58 44.12 36.56 48.68 36.94 48.68 36.96"/>
        <polygon class="cls-172" points="48.68 36.98 44.12 36.6 44.12 36.58 48.68 36.96 48.68 36.98"/>
        <polygon class="cls-112" points="48.68 37 44.12 36.62 44.12 36.6 48.68 36.98 48.68 37"/>
        <polygon class="cls-112" points="48.68 37.02 44.12 36.64 44.12 36.62 48.68 37 48.68 37.02"/>
        <polygon class="cls-3" points="48.68 37.04 44.12 36.67 44.12 36.64 48.68 37.02 48.68 37.04"/>
        <polygon class="cls-50" points="48.68 37.06 44.12 36.69 44.12 36.67 48.68 37.04 48.68 37.06"/>
        <polygon class="cls-155" points="48.68 37.08 44.12 36.71 44.12 36.69 48.68 37.06 48.68 37.08"/>
        <polygon class="cls-155" points="48.68 37.1 44.12 36.73 44.12 36.71 48.68 37.08 48.68 37.1"/>
        <polygon class="cls-86" points="48.68 37.13 44.12 36.75 44.12 36.73 48.68 37.1 48.68 37.13"/>
        <polygon class="cls-45" points="48.68 37.15 44.12 36.77 44.12 36.75 48.68 37.13 48.68 37.15"/>
        <polygon class="cls-45" points="48.68 37.17 44.12 36.79 44.12 36.77 48.68 37.15 48.68 37.17"/>
        <polygon class="cls-96" points="48.68 37.19 44.12 36.81 44.12 36.79 48.68 37.17 48.68 37.19"/>
        <polygon class="cls-96" points="48.68 37.21 44.12 36.83 44.12 36.81 48.68 37.19 48.68 37.21"/>
        <polygon class="cls-105" points="48.68 37.23 44.12 36.85 44.12 36.83 48.68 37.21 48.68 37.23"/>
        <polygon class="cls-15" points="48.68 37.25 44.12 36.88 44.12 36.85 48.68 37.23 48.68 37.25"/>
        <polygon class="cls-103" points="48.68 37.27 44.12 36.9 44.12 36.88 48.68 37.25 48.68 37.27"/>
        <polygon class="cls-103" points="48.68 37.29 44.12 36.92 44.12 36.9 48.68 37.27 48.68 37.29"/>
        <polygon class="cls-41" points="48.68 37.31 44.12 36.94 44.12 36.92 48.68 37.29 48.68 37.31"/>
        <polygon class="cls-173" points="48.68 37.34 44.12 36.96 44.12 36.94 48.68 37.31 48.68 37.34"/>
        <polygon class="cls-173" points="48.68 37.36 44.12 36.98 44.12 36.96 48.68 37.34 48.68 37.36"/>
        <polygon class="cls-114" points="48.68 37.38 44.12 37 44.12 36.98 48.68 37.36 48.68 37.38"/>
        <polygon class="cls-54" points="48.68 37.4 44.12 37.02 44.12 37 48.68 37.38 48.68 37.4"/>
        <polygon class="cls-30" points="48.68 37.42 44.12 37.04 44.12 37.02 48.68 37.4 48.68 37.42"/>
        <polygon class="cls-24" points="48.68 37.44 44.12 37.06 44.12 37.04 48.68 37.42 48.68 37.44"/>
        <polygon class="cls-24" points="48.68 37.46 44.12 37.09 44.12 37.06 48.68 37.44 48.68 37.46"/>
        <polygon class="cls-164" points="48.68 37.48 44.12 37.11 44.12 37.09 48.68 37.46 48.68 37.48"/>
        <polygon class="cls-128" points="48.68 37.5 44.12 37.13 44.12 37.11 48.68 37.48 48.68 37.5"/>
        <polygon class="cls-128" points="48.68 37.52 44.12 37.15 44.12 37.13 48.68 37.5 48.68 37.52"/>
        <polygon class="cls-128" points="48.68 37.55 44.12 37.17 44.12 37.15 48.68 37.52 48.68 37.55"/>
        <polygon class="cls-90" points="48.68 37.57 44.12 37.19 44.12 37.17 48.68 37.55 48.68 37.57"/>
        <polygon class="cls-90" points="48.68 37.59 44.12 37.21 44.12 37.19 48.68 37.57 48.68 37.59"/>
        <polygon class="cls-78" points="48.68 37.61 44.12 37.23 44.12 37.21 48.68 37.59 48.68 37.61"/>
        <polygon class="cls-78" points="48.68 37.63 44.12 37.25 44.12 37.23 48.68 37.61 48.68 37.63"/>
        <polygon class="cls-138" points="48.68 37.65 44.12 37.27 44.12 37.25 48.68 37.63 48.68 37.65"/>
        <polygon class="cls-4" points="48.68 37.67 44.12 37.3 44.12 37.27 48.68 37.65 48.68 37.67"/>
        <polygon class="cls-4" points="48.68 37.69 44.12 37.32 44.12 37.3 48.68 37.67 48.68 37.69"/>
        <polygon class="cls-44" points="48.68 37.71 44.12 37.34 44.12 37.32 48.68 37.69 48.68 37.71"/>
        <polygon class="cls-58" points="48.68 37.73 44.12 37.36 44.12 37.34 48.68 37.71 48.68 37.73"/>
        <polygon class="cls-84" points="48.68 37.76 44.12 37.38 44.12 37.36 48.68 37.73 48.68 37.76"/>
        <polygon class="cls-84" points="48.68 37.78 44.12 37.4 44.12 37.38 48.68 37.76 48.68 37.78"/>
        <polygon class="cls-84" points="48.68 37.8 44.12 37.42 44.12 37.4 48.68 37.78 48.68 37.8"/>
        <polygon class="cls-174" points="48.68 37.82 44.12 37.44 44.12 37.42 48.68 37.8 48.68 37.82"/>
        <polygon class="cls-12" points="48.68 37.84 44.12 37.46 44.12 37.44 48.68 37.82 48.68 37.84"/>
        <polygon class="cls-12" points="48.68 37.86 44.12 37.48 44.12 37.46 48.68 37.84 48.68 37.86"/>
        <polygon class="cls-169" points="48.68 37.88 44.12 37.51 44.12 37.48 48.68 37.86 48.68 37.88"/>
        <polygon class="cls-136" points="48.68 37.9 44.12 37.53 44.12 37.51 48.68 37.88 48.68 37.9"/>
        <polygon class="cls-136" points="48.68 37.92 44.12 37.55 44.12 37.53 48.68 37.9 48.68 37.92"/>
        <polygon class="cls-136" points="48.68 37.94 44.12 37.57 44.12 37.55 48.68 37.92 48.68 37.94"/>
        <polygon class="cls-136" points="48.68 37.97 44.12 37.59 44.12 37.57 48.68 37.94 48.68 37.97"/>
        <polygon class="cls-39" points="48.68 37.99 44.12 37.61 44.12 37.59 48.68 37.97 48.68 37.99"/>
        <polygon class="cls-97" points="48.68 38.01 44.12 37.63 44.12 37.61 48.68 37.99 48.68 38.01"/>
        <polygon class="cls-20" points="48.62 38.02 44.12 37.65 44.12 37.63 48.68 38.01 48.68 38.02 48.62 38.02"/>
        <polygon class="cls-20" points="48.37 38.02 44.12 37.67 44.12 37.65 48.62 38.02 48.37 38.02"/>
        <polygon class="cls-20" points="48.12 38.02 44.12 37.69 44.12 37.67 48.37 38.02 48.12 38.02"/>
        <polygon class="cls-20" points="47.86 38.02 44.12 37.72 44.12 37.69 48.12 38.02 47.86 38.02"/>
        <polygon class="cls-20" points="47.61 38.02 44.12 37.74 44.12 37.72 47.86 38.02 47.61 38.02"/>
        <polygon class="cls-20" points="47.35 38.02 44.12 37.76 44.12 37.74 47.61 38.02 47.35 38.02"/>
        <polygon class="cls-67" points="47.1 38.02 44.12 37.78 44.12 37.76 47.35 38.02 47.1 38.02"/>
        <polygon class="cls-147" points="46.84 38.02 44.12 37.8 44.12 37.78 47.1 38.02 46.84 38.02"/>
        <polygon class="cls-147" points="46.59 38.02 44.12 37.82 44.12 37.8 46.84 38.02 46.59 38.02"/>
        <polygon class="cls-147" points="46.34 38.02 44.12 37.84 44.12 37.82 46.59 38.02 46.34 38.02"/>
        <polygon class="cls-147" points="46.08 38.02 44.12 37.86 44.12 37.84 46.34 38.02 46.08 38.02"/>
        <polygon class="cls-147" points="45.83 38.02 44.12 37.88 44.12 37.86 46.08 38.02 45.83 38.02"/>
        <polygon class="cls-147" points="45.57 38.02 44.12 37.9 44.12 37.88 45.83 38.02 45.57 38.02"/>
        <polygon class="cls-147" points="45.32 38.02 44.12 37.93 44.12 37.9 45.57 38.02 45.32 38.02"/>
        <polygon class="cls-35" points="45.06 38.02 44.12 37.95 44.12 37.93 45.32 38.02 45.06 38.02"/>
        <polygon class="cls-35" points="44.81 38.02 44.12 37.97 44.12 37.95 45.06 38.02 44.81 38.02"/>
        <polygon class="cls-51" points="44.56 38.02 44.12 37.99 44.12 37.97 44.81 38.02 44.56 38.02"/>
        <polygon class="cls-51" points="44.3 38.02 44.12 38.01 44.12 37.99 44.56 38.02 44.3 38.02"/>
        <polygon class="cls-51" points="44.12 38.01 44.3 38.02 44.12 38.02 44.12 38.01"/>
      </g>
      <path class="cls-42" d="M46.3,37.25c-.64-.05-1.14-.7-1.08-1.4.06-.71.65-1.26,1.29-1.21.64.05,1.14.7,1.08,1.4-.06.71-.65,1.26-1.29,1.21Z"/>
      <path class="cls-129" d="M46.35,37c-.45-.04-.91-.53-.86-1.12.05-.6.59-1.01,1.03-.97.45.04.91.53.86,1.13-.05.6-.59,1.01-1.03.97Z"/>
      <path class="cls-95" d="M45.99,35.51c-.02.22-.24.38-.5.35-.26-.02-.45-.22-.43-.43.02-.22.24-.38.5-.36.26.02.45.21.44.43Z"/>
      <path class="cls-95" d="M47.44,36.77c0,.11-.12.19-.25.18-.13,0-.23-.11-.22-.22,0-.11.12-.19.25-.18.13,0,.23.11.22.22Z"/>
      <path class="cls-5" d="M20.1,37.77c.97-1.58,2.49-.91,2.87-.57.4.37.72.87.48,1.8-.13.52-.68.57-.54,1.37.16.89.57.95.8,1.15.24.2.53.35.68.73.14.37.17.77.1,1.12-.15.65-1.09.14-1.72-.14-.42-.18-1.74-1.29-2.08-1.65-.84-.94-1.25-2.74-.6-3.8"/>
      <path class="cls-25" d="M40.54,44.84c.34-.23.74-.12.74-.12,0,0,0,0-.01.02-.08.14-.54.87-.91.86,0,0-.08-.07-.1-.24-.03-.17.11-.4.28-.52Z"/>
      <g>
        <path class="cls-85" d="M35.36,39.52c.15-.52.24-1.08.24-1.65,0-3.23-2.63-5.85-5.87-5.85s-5.87,2.62-5.87,5.85c0,.72.14,1.4.37,2.04,2.67-1.19,6.86-2.29,11.13-.39Z"/>
        <path class="cls-85" d="M52.5,40.78c.49-.86.78-1.85.78-2.91,0-3.23-2.63-5.85-5.87-5.85s-5.87,2.62-5.87,5.85c0,1.13.33,2.18.88,3.07,2.64-1.35,6.26-2.22,10.07-.17Z"/>
        <path class="cls-85" d="M36.28,39.98c-.02.06-.04.12-.06.17.03-.05.06-.1.09-.16-.01,0-.02-.01-.03-.02Z"/>
        <path class="cls-8" d="M36.28,39.98c-.02.06-.04.12-.06.17.03-.05.06-.1.09-.16-.01,0-.02-.01-.03-.02Z"/>
        <path class="cls-85" d="M29.73,43.72c2.67,0,4.91-1.77,5.63-4.2-4.27-1.9-8.45-.8-11.13.39.83,2.22,2.98,3.81,5.5,3.81Z"/>
        <path class="cls-8" d="M29.73,43.72c2.67,0,4.91-1.77,5.63-4.2-4.27-1.9-8.45-.8-11.13.39.83,2.22,2.98,3.81,5.5,3.81Z"/>
        <path class="cls-85" d="M41.45,41.49c.09.13.19.24.28.36-.09-.12-.18-.25-.26-.38,0,0-.02.01-.03.01Z"/>
        <path class="cls-8" d="M41.45,41.49c.09.13.19.24.28.36-.09-.12-.18-.25-.26-.38,0,0-.02.01-.03.01Z"/>
        <path class="cls-85" d="M47.41,43.72c2.18,0,4.07-1.18,5.09-2.94-3.82-2.05-7.44-1.19-10.07.17,1.04,1.66,2.88,2.77,4.99,2.77Z"/>
        <path class="cls-8" d="M47.41,43.72c2.18,0,4.07-1.18,5.09-2.94-3.82-2.05-7.44-1.19-10.07.17,1.04,1.66,2.88,2.77,4.99,2.77Z"/>
        <path class="cls-156" d="M54.1,36.23s-.06,0-.08,0c-.41-1.66-1.43-3.09-2.81-4.03-1.1-.75-2.43-1.2-3.87-1.2s-2.65.4-3.72,1.09c-1.84,1.18-3.08,3.22-3.16,5.55-.22-.1-.45-.17-.7-.24-.68-.17-1.45-.2-2.2-.07-.32.06-.64.14-.95.25-.12-2.98-2.15-5.48-4.91-6.3-.63-.19-1.29-.29-1.97-.29-.78,0-1.52.13-2.21.37-2.21.75-3.9,2.58-4.46,4.86-.03,0-.06,0-.1,0-.34,0-.62.28-.62.62v1.83c0,.34.28.62.62.62.02,0,.04,0,.05,0,.01.06.03.12.04.18.52,2.16,2.05,3.92,4.07,4.75.8.33,1.68.51,2.61.51,1.83,0,3.5-.72,4.73-1.88.79-.74,1.4-1.67,1.76-2.71.02-.06.04-.12.06-.17.17-.52.28-1.05.32-1.61.29-.13.6-.22.91-.28.79-.17,1.59-.13,2.28.09.25.08.49.18.7.32.1,1.09.45,2.11,1,2.99.08.13.17.25.26.38,1.25,1.74,3.29,2.89,5.6,2.89.66,0,1.29-.09,1.89-.27,1.66-.47,3.07-1.56,3.96-2.99.41-.66.71-1.4.88-2.18.01,0,.02,0,.04,0,.34,0,.62-.28.62-.62v-1.83c0-.34-.28-.62-.62-.62ZM35.36,39.52c-.72,2.43-2.96,4.2-5.63,4.2-2.52,0-4.66-1.59-5.5-3.81-.24-.64-.37-1.32-.37-2.04,0-3.23,2.63-5.85,5.87-5.85s5.87,2.62,5.87,5.85c0,.57-.09,1.13-.24,1.65ZM52.5,40.78c-1.01,1.75-2.91,2.94-5.09,2.94s-3.95-1.11-4.99-2.77c-.56-.89-.88-1.95-.88-3.07,0-3.23,2.63-5.85,5.87-5.85s5.87,2.62,5.87,5.85c0,1.06-.29,2.05-.78,2.91Z"/>
      </g>
      <path class="cls-60" d="M58.71,22c-2.78-8.01-6.73-11-11.55-12.74-2.55-.92-6.11-.81-8.9-.51h0c-5.19.37-7.47.03-8.47-.3-.25-.16-.5-.3-.77-.43,0,0,0,0,0,0h0c-1.54-.76-3.32-1.07-5.14-.77-4.57.75-7.62,5.03-6.81,9.56.26,1.45.89,2.75,1.77,3.83-.03.16-.06.32-.06.5v.26c-.26.62-.51,1.26-.75,1.95-2.79,8.01-1.3,14.84.04,17.38,3.38,6.42,5.86,6.46,5.86,6.46,0,0-.73-1.68-.73-6.32,0-2.96,1.91-6.37,3.29-8.44.47-.71.88-1.26,1.13-1.59l5.32-7.5c.04.32.1.64.22,1,.82,2.59,1.75,3.92,7.57,7.14,2.39,1.32,2.03,9.73,2.03,9.73,0,0,2.63-7.07,1.48-10.1,0,0,0,0,0,0,.98,1.16,2.2,2.44,3.66,3.66,4.58,3.84,1.71,8.98,1.71,8.98,0,0,2.26-3.06,1.84-7.02-.2-1.85-.35-2.63-.46-2.94.61.37,2.56,1.84,2.56,5.76,0,4.63-1.07,7.78-1.79,9.61-.93,2.36-5.67,7.89-5.67,7.89,0,0,10.9-8.64,12.61-17.51.54-2.8,2.8-9.5.01-17.51Z"/>
      <path class="cls-170" d="M61.13,71.44s-.02-.08-.03-.1c0-.04-.02-.08-.02-.12-.06-.31-.1-.59-.13-.86h-10.57c-2.11,3.05-4.76,4.67-7.07,5.5h-9.05c-4.61-1.79-7.06-5.5-7.06-5.5h-10.65c-.03.26-.06.52-.12.82,0,.04-.02.08-.02.13h0v.04s-.03.07-.04.15h0s0,.02,0,.02c-.16.79.48,1.53,1.29,1.53h4.97c-.31,1.12-1.3,1.97-2.25,2.82-.98.88-1.92,1.78-2.02,3.02h40.73c-.09-1.24-1.04-2.14-2.02-3.02-.95-.85-1.95-1.7-2.26-2.83,0,0,3,0,3,0h2.02c.84,0,1.52-.78,1.32-1.6Z"/>
      <path class="cls-110" d="M60.2,67.91c-.4-.5-1.04-1.03-2.11-1.67-.03-.01-.77-.24-1.87-.59t-.03-.01c-.56-.18-1.22-.38-1.91-.61-2.76,2.45-5.36,4.16-7.79,5.31-6.66,3.16-12.05,2.09-15.93,0-3.34-1.8-5.57-4.35-6.52-5.59-1.01.34-1.99.65-2.77.9h-.01c-1.09.35-1.84.58-1.86.59-1.15.69-1.8,1.25-2.19,1.78-.56.76-.57,1.45-.67,2.33h10.65s2.45,3.71,7.06,5.5c1.13.44,2.39.77,3.78.9,0,0,2.36.16,5.27-.9,2.31-.83,4.95-2.45,7.07-5.5h10.57c-.1-.91-.09-1.63-.75-2.44Z"/>
    </g>
  </g>
</svg>