<?xml version="1.0" encoding="UTF-8"?>
<svg id="Layer_2" data-name="Layer 2" xmlns="http://www.w3.org/2000/svg" xmlns:xlink="http://www.w3.org/1999/xlink" viewBox="0 0 78.88 78.88">
  <defs>
    <style>
      .cls-1 {
        fill: #dc8d00;
      }

      .cls-2 {
        fill: none;
      }

      .cls-3 {
        fill: #354148;
      }

      .cls-4 {
        fill: #7d99ae;
      }

      .cls-5 {
        fill: #84a2b8;
      }

      .cls-6 {
        fill: #debaad;
      }

      .cls-7 {
        fill: #4e606b;
      }

      .cls-8 {
        fill: #bf6c6c;
      }

      .cls-9 {
        fill: #ededeb;
        opacity: .55;
      }

      .cls-10 {
        fill: #7791a4;
      }

      .cls-11 {
        fill: #7b97ab;
      }

      .cls-12 {
        fill: #677e8d;
      }

      .cls-13 {
        fill: #86a3ba;
      }

      .cls-14 {
        fill: #66a8a9;
      }

      .cls-15 {
        fill: #364349;
      }

      .cls-16 {
        fill: #313d43;
      }

      .cls-17 {
        fill: #809cb2;
      }

      .cls-18 {
        fill: #6d8596;
      }

      .cls-19 {
        fill: #44545c;
      }

      .cls-20 {
        fill: #46565f;
      }

      .cls-21 {
        fill: #7893a6;
      }

      .cls-22 {
        fill: #87a5bc;
      }

      .cls-23 {
        fill: #748d9f;
      }

      .cls-24 {
        fill: #627886;
      }

      .cls-25 {
        fill: #576b77;
      }

      .cls-26 {
        fill: #829fb5;
      }

      .cls-27 {
        fill: #b89388;
      }

      .cls-28 {
        fill: #485862;
      }

      .cls-29 {
        fill: #6f8899;
      }

      .cls-30 {
        fill: #5b6f7c;
      }

      .cls-31 {
        fill: #7892a6;
      }

      .cls-32 {
        fill: #829fb4;
      }

      .cls-33 {
        fill: #7690a2;
      }

      .cls-34 {
        fill: #596c79;
      }

      .cls-35 {
        fill: #748ea0;
      }

      .cls-36 {
        fill: #728b9c;
      }

      .cls-37 {
        fill: #88a6be;
      }

      .cls-38 {
        fill: #a88a6b;
      }

      .cls-39 {
        fill: #738d9f;
      }

      .cls-40 {
        fill: #495963;
      }

      .cls-41 {
        fill: #87a4bb;
      }

      .cls-42 {
        fill: #617785;
      }

      .cls-43 {
        fill: #819db3;
      }

      .cls-44 {
        fill: #95bacb;
      }

      .cls-45 {
        fill: #3b2a15;
      }

      .cls-46 {
        fill: #657b8a;
      }

      .cls-47 {
        fill: #407573;
      }

      .cls-48 {
        fill: #85a2b8;
      }

      .cls-49 {
        fill: #7f9bb0;
      }

      .cls-50 {
        fill: #667c8b;
      }

      .cls-51 {
        fill: #38454c;
      }

      .cls-52 {
        fill: #3e4d54;
      }

      .cls-53 {
        fill: #687f8f;
      }

      .cls-54 {
        fill: #7e9aae;
      }

      .cls-55 {
        fill: #88a7be;
      }

      .cls-56 {
        fill: #5b707d;
      }

      .cls-57 {
        fill: #7a96a9;
      }

      .cls-58 {
        fill: #829eb4;
      }

      .cls-59 {
        fill: #7a95a9;
      }

      .cls-60 {
        fill: #6c8495;
      }

      .cls-61 {
        fill: #7c98ac;
      }

      .cls-62 {
        fill: #85a2b9;
      }

      .cls-63 {
        fill: #677d8d;
      }

      .cls-64 {
        fill: #39464e;
      }

      .cls-65 {
        fill: #3d4b53;
      }

      .cls-66 {
        fill: #344046;
      }

      .cls-67 {
        fill: #586c78;
      }

      .cls-68 {
        fill: #596d7a;
      }

      .cls-69 {
        fill: #87a6bd;
      }

      .cls-70 {
        fill: #637988;
      }

      .cls-71 {
        fill: #37444b;
      }

      .cls-72 {
        fill: #7c97ab;
      }

      .cls-73 {
        fill: #6d8595;
      }

      .cls-74 {
        fill: #526570;
      }

      .cls-75 {
        fill: #70899b;
      }

      .cls-76 {
        fill: #738c9e;
      }

      .cls-77 {
        fill: #4e5f6a;
      }

      .cls-78 {
        clip-path: url(#clippath-1);
      }

      .cls-79 {
        fill: #546672;
      }

      .cls-80 {
        fill: #84a1b7;
      }

      .cls-81 {
        fill: #718a9c;
      }

      .cls-82 {
        fill: #5f7481;
      }

      .cls-83 {
        fill: #f1d4c8;
      }

      .cls-84 {
        fill: #6e8697;
      }

      .cls-85 {
        fill: #303c42;
      }

      .cls-86 {
        fill: #85a3b9;
      }

      .cls-87 {
        fill: #1e1f1a;
        opacity: .4;
      }

      .cls-88 {
        fill: #7e9baf;
      }

      .cls-89 {
        fill: #6a8292;
      }

      .cls-90 {
        fill: #758fa1;
      }

      .cls-91 {
        fill: #6b8292;
      }

      .cls-92 {
        fill: #83a1b7;
      }

      .cls-93 {
        fill: #7994a7;
      }

      .cls-94 {
        fill: #6b8393;
      }

      .cls-95 {
        fill: #647a89;
      }

      .cls-96 {
        fill: #6e8798;
      }

      .cls-97 {
        fill: #fff;
      }

      .cls-98 {
        fill: #7f9cb1;
      }

      .cls-99 {
        fill: #87a5bb;
      }

      .cls-100 {
        fill: #536671;
      }

      .cls-101 {
        fill: #5e7380;
      }

      .cls-102 {
        fill: #4d5e69;
      }

      .cls-103 {
        fill: #566975;
      }

      .cls-104 {
        fill: #6a8191;
      }

      .cls-105 {
        fill: #809db2;
      }

      .cls-106 {
        fill: #4c5d68;
      }

      .cls-107 {
        fill: #809cb1;
      }

      .cls-108 {
        fill: #4b5c67;
      }

      .cls-109 {
        fill: #475760;
      }

      .cls-110 {
        fill: #7691a3;
      }

      .cls-111 {
        fill: #3a484f;
      }

      .cls-112 {
        fill: #51636e;
      }

      .cls-113 {
        fill: #7d99ad;
      }

      .cls-114 {
        fill: #4f616c;
      }

      .cls-115 {
        fill: #819eb4;
      }

      .cls-116 {
        fill: #4a5b65;
      }

      .cls-117 {
        fill: #698090;
      }

      .cls-118 {
        opacity: .3;
      }

      .cls-119 {
        fill: #7690a3;
      }

      .cls-120 {
        fill: #5d727f;
      }

      .cls-121 {
        fill: #415059;
      }

      .cls-122 {
        fill: #2d383d;
      }

      .cls-123 {
        fill: #50626d;
      }

      .cls-124 {
        fill: #7893a7;
      }

      .cls-125 {
        fill: #43525b;
      }

      .cls-126 {
        fill: #748ea1;
      }

      .cls-127 {
        fill: #7994a8;
      }

      .cls-128 {
        fill: #546773;
      }

      .cls-129 {
        fill: #83a0b6;
      }

      .cls-130 {
        fill: #26200c;
      }

      .cls-131 {
        fill: #607583;
      }

      .cls-132 {
        fill: #556874;
      }

      .cls-133 {
        fill: #687f8e;
      }

      .cls-134 {
        fill: #667d8c;
      }

      .cls-135 {
        fill: #728b9d;
      }

      .cls-136 {
        fill: #323f45;
      }

      .cls-137 {
        fill: #86a4bb;
      }

      .cls-138 {
        fill: #7792a5;
      }

      .cls-139 {
        fill: #84a1b8;
      }

      .cls-140 {
        fill: #5c707e;
      }

      .cls-141 {
        fill: #698190;
      }

      .cls-142 {
        fill: #37322a;
      }

      .cls-143 {
        fill: #637987;
      }

      .cls-144 {
        fill: #3c4a52;
      }

      .cls-145 {
        fill: #42515a;
      }

      .cls-146 {
        fill: #c6a095;
      }

      .cls-147 {
        fill: #3b4950;
      }

      .cls-148 {
        fill: #6c8494;
      }

      .cls-149 {
        fill: #88a6bd;
      }

      .cls-150 {
        fill: #404f57;
      }

      .cls-151 {
        fill: #47433b;
      }

      .cls-152 {
        fill: #51646f;
      }

      .cls-153 {
        fill: #7c97ac;
      }

      .cls-154 {
        fill: #5a6e7b;
      }

      .cls-155 {
        fill: #647b8a;
      }

      .cls-156 {
        fill: #45555e;
      }

      .cls-157 {
        fill: #7e9aaf;
      }

      .cls-158 {
        fill: #f2f3f2;
      }

      .cls-159 {
        fill: #3f4e56;
      }

      .cls-160 {
        fill: #2f3b40;
      }

      .cls-161 {
        fill: #4a5a64;
      }

      .cls-162 {
        fill: #607684;
      }

      .cls-163 {
        fill: #718a9b;
      }

      .cls-164 {
        fill: #5d717f;
      }

      .cls-165 {
        clip-path: url(#clippath);
      }

      .cls-166 {
        fill: #82a0b5;
      }

      .cls-167 {
        fill: #2e393f;
      }

      .cls-168 {
        fill: #70899a;
      }

      .cls-169 {
        fill: #7b96aa;
      }

      .cls-170 {
        fill: #758fa2;
      }

      .cls-171 {
        fill: #86a4ba;
      }

      .cls-172 {
        fill: #5f7482;
      }

      .cls-173 {
        fill: #7c98ad;
      }

      .cls-174 {
        fill: #819eb3;
      }

      .cls-175 {
        fill: #85a3ba;
      }

      .cls-176 {
        fill: #728c9e;
      }

      .cls-177 {
        fill: #576a76;
      }

      .cls-178 {
        fill: #627786;
      }

      .cls-179 {
        fill: #ab5b64;
      }
    </style>
    <clipPath id="clippath">
      <path class="cls-2" d="M34.03,36.08c-.1,1.18-1.15,2.06-2.36,1.96-1.2-.1-2.1-1.14-2-2.32.1-1.19,1.15-2.07,2.36-1.97,1.2.1,2.1,1.14,2,2.33Z"/>
    </clipPath>
    <clipPath id="clippath-1">
      <path class="cls-2" d="M49.43,35.96c-.1,1.18-1.15,2.06-2.36,1.96-1.2-.1-2.1-1.14-2-2.32.1-1.19,1.15-2.07,2.36-1.97,1.2.1,2.1,1.14,2,2.33Z"/>
    </clipPath>
  </defs>
  <g id="Layer_1-2" data-name="Layer 1">
    <g>
      <rect class="cls-45" width="78.88" height="78.88"/>
      <path class="cls-1" d="M57.75,44.79s-18.02,32.67-35.51,0v-2.68h35.51v2.67Z"/>
      <path class="cls-83" d="M61.37,77.89s-.1-6.02-.34-6.54c-.46-2.1.36-3.06-2.88-5.08-.03-.01-.74-.24-1.8-.59t-.03-.01c-.69-.22-1.52-.5-2.4-.8-.34-.11-.67-.24-1.02-.35-.86-.3-1.72-.62-2.51-.92-.55-.21-1.07-.41-1.51-.59-.38-.16-.71-.32-.97-.46-.28-.14-.48-.27-.59-.38-.01-.01-.04-.05-.08-.09-.02-.04-.05-.06-.07-.1-.06-.35-1-1.89-1.32-3.56h0c-.07-.35-.11-.67-.12-1.01-.03-.49-.03-.97-.04-1.41-.01-.45-.02-.86-.04-1.2v-.29c-.01-.24-.01-.44-.01-.59-.01-.15-.01-.24-.01-.24,0,0,.35-.3.86-.75.64-.57,1.55-1.4,2.33-2.18.85-.85,1.59-1.66,1.75-2.08.01-.06.02-.11.02-.15,0,0-.02,0-.06.01-.4.06-2.55.44-4.86.8-1.37.21-2.81.43-3.98.57-.46.06-.89.1-1.25.14h-.01c-.34.04-.62.05-.84.05-.24,0-.56-.02-.95-.05h-.03c-.37-.05-.82-.1-1.31-.16-1.07-.14-2.36-.32-3.61-.51-1.15-.19-2.27-.36-3.16-.51-.21-.04-.4-.06-.57-.1-.85-.14-1.39-.24-1.39-.24,0,.16.15.41.4.74,0,0,0,.01.01.01.19.25.44.54.74.86.29.3.6.61.92.92.99.96,2.06,1.91,2.58,2.36.2.17.31.27.31.27,0,0,0,.09-.01.24,0,.15,0,.35-.01.59v.29c0,.1,0,.2-.01.3-.01.65-.04,1.46-.06,2.31-.01.34-.05.66-.12,1-.33,1.67-1.26,3.22-1.32,3.57-.03.04-.05.06-.07.1-.04.04-.06.08-.08.09-.05.05-.14.11-.24.18-.23.15-.57.32-.99.52-.37.16-.8.34-1.27.52-1.11.43-2.43.91-3.7,1.34-.09.03-.17.06-.26.09-.94.32-1.84.62-2.56.86h-.01c-1.05.35-1.76.57-1.79.59-3.22,2.01-2.43,2.97-2.88,5.04h0v.04s-.03.07-.04.15h0c-.21,1.1-.3,6.39-.3,6.39,0,.32,0,.65,0,.99h43.58c0-.34,0-.67-.01-.99Z"/>
      <path class="cls-146" d="M45.86,58.41c-.07-.34-.11-.66-.12-1-.04-1.12-.06-2.2-.07-2.9-1.87.84-3.8,1.32-5.68,1.32-.11.02-.25.02-.38.02s-.27,0-.38-.02c-1.89,0-3.81-.49-5.68-1.32-.01.7-.04,1.77-.07,2.9-.01.34-.05.66-.12,1,1.81,1.51,4.26,3.07,5.88,3.07.1.02.23.02.34.02h0s.03,0,.04,0,.03,0,.04,0h0c.12,0,.24,0,.34-.03,1.62,0,4.07-1.56,5.88-3.07Z"/>
      <g>
        <path class="cls-83" d="M55.67,36c.31-1.73.56-3.05.63-3.31.04-.12.06-.25.1-.37.03-.15.06-.29.09-.42.06-.21.1-.43.15-.64.01-.1.04-.2.05-.3.04-.24.09-.48.12-.71.01-.1.03-.21.04-.31.04-.21.05-.42.08-.64.01-.16.02-.33.05-.47.01-.14.01-.28.02-.41.16-3.26-.54-6.58-2.67-9.59-2.58-3.62-5.56-7.45-12.01-7.99h-5.44c-6.46.54-9.43,4.37-12.01,7.99-2.13,3.01-2.83,6.33-2.67,9.59.01.14.01.27.02.41.02.15.04.31.05.47.02.21.04.42.07.64.01.1.03.21.04.31.04.24.09.47.13.71.01.1.04.2.05.3.05.21.09.43.15.64.03.14.06.27.09.42.04.12.06.25.1.37.08.26.32,1.57.63,3.29-1.72-.84-4.11.36-3.83,3.53.29,3.22,4.21,5.13,5.55,5.45.13.58.24,1.02.33,1.22,1.17,2.96,2.6,3.85,5.09,6.26,2.72,2.61,6.74,5.06,8.73,5.04.06.01.14.01.21.01s.15,0,.21-.01c1.98.01,6-2.43,8.73-5.04,2.5-2.41,3.92-3.3,5.09-6.26.08-.21.19-.63.32-1.21,1.29-.29,5.29-2.21,5.59-5.46.29-3.2-2.15-4.4-3.88-3.51Z"/>
        <path class="cls-6" d="M58.29,37.77c-.97-1.58-2.49-.91-2.87-.57-.4.37-.72.87-.48,1.8.13.52.68.57.54,1.37-.16.89-.57.95-.8,1.15-.23.2-.53.35-.68.73-.14.37-.17.77-.1,1.12.15.65,1.09.14,1.72-.14.42-.18,1.74-1.29,2.08-1.65.84-.94,1.25-2.74.6-3.8"/>
      </g>
      <path class="cls-6" d="M36.83,51.32c-.06-.82,2.31.17,3.09.2.62.02,2.49-.12,2.67-.19,1.31-.49-.07,1.38-2.7,1.48-1.21.05-3.02-.99-3.06-1.49Z"/>
      <g>
        <path class="cls-179" d="M44.67,50.25c-1.51-.28-4.68-.89-4.68-.89-2.62.43-4.67.88-4.68.9-.06,0,2.09,1.93,4.65,1.8h0c2.55.13,4.78-1.8,4.72-1.81Z"/>
        <path class="cls-8" d="M41.48,48.83c-.68-.07-1.15.32-1.49.29-.35.03-.82-.36-1.5-.29-.97.21-1.43.82-3.19,1.43.06.12,1.19-.15,3.3-.11.03,0,.6.32,1.4.31.5,0,1.19-.34,1.22-.34,2.11-.03,3.4.26,3.46.14-2.32-.71-2.23-1.23-3.2-1.44Z"/>
      </g>
      <path class="cls-38" d="M41.23,44.87c.34-.23.74-.12.74-.12,0,0,0,0-.01.02-.08.14-.54.87-.91.86,0,0-.08-.07-.1-.24-.03-.17.11-.4.28-.52Z"/>
      <path class="cls-6" d="M36.61,44.64c-.07-1.65,2.56-.6,3.43-.55.69.04,2.77-.52,2.95-.38,1.22.98-1.3,2.95-2.99,2.95-.45,0-3.34-1.03-3.38-2.03Z"/>
      <path class="cls-27" d="M38.6,44.84c-.34-.23-.74-.12-.74-.12,0,0,0,0,.01.02.08.14.54.87.91.86,0,0,.08-.07.1-.24.03-.17-.11-.4-.28-.52Z"/>
      <path class="cls-97" d="M36.16,31.34s-.4-.4-1.14-.89c-.35-.26-.81-.48-1.3-.71-.49-.23-1.04-.4-1.61-.5-.57-.13-1.15-.16-1.71-.15-.28.02-.55.04-.8.06-.26.01-.49.08-.72.11-.45.07-.82.18-1.09.24-.27.06-.42.1-.42.1,0,0,.13-.08.37-.23.24-.13.57-.37,1.02-.53.44-.19.98-.36,1.58-.48.6-.08,1.26-.12,1.92-.05.66.09,1.3.27,1.87.51.57.24,1.06.56,1.45.86.78.59,1.16,1.18,1.16,1.18h0c.12.18.07.42-.11.54-.15.1-.35.07-.48-.05Z"/>
      <path class="cls-97" d="M26.97,35.1s1.46,3.64,3.73,3.99c2.27.35,4.69-.16,4.69-.16,0,0,.06-4.22-1.12-4.81-1.18-.59-3.87-1.46-7.3.98Z"/>
      <g class="cls-165">
        <polygon class="cls-122" points="34.13 34.45 29.57 34.08 29.57 33.66 34.13 33.66 34.13 34.45"/>
        <polygon class="cls-122" points="34.13 34.47 29.57 34.1 29.57 34.08 34.13 34.45 34.13 34.47"/>
        <polygon class="cls-167" points="34.13 34.5 29.57 34.12 29.57 34.1 34.13 34.47 34.13 34.5"/>
        <polygon class="cls-160" points="34.13 34.52 29.57 34.14 29.57 34.12 34.13 34.5 34.13 34.52"/>
        <polygon class="cls-85" points="34.13 34.54 29.57 34.16 29.57 34.14 34.13 34.52 34.13 34.54"/>
        <polygon class="cls-16" points="34.13 34.56 29.57 34.18 29.57 34.16 34.13 34.54 34.13 34.56"/>
        <polygon class="cls-136" points="34.13 34.58 29.57 34.2 29.57 34.18 34.13 34.56 34.13 34.58"/>
        <polygon class="cls-66" points="34.13 34.6 29.57 34.22 29.57 34.2 34.13 34.58 34.13 34.6"/>
        <polygon class="cls-3" points="34.13 34.62 29.57 34.25 29.57 34.22 34.13 34.6 34.13 34.62"/>
        <polygon class="cls-15" points="34.13 34.64 29.57 34.27 29.57 34.25 34.13 34.62 34.13 34.64"/>
        <polygon class="cls-71" points="34.13 34.66 29.57 34.29 29.57 34.27 34.13 34.64 34.13 34.66"/>
        <polygon class="cls-51" points="34.13 34.68 29.57 34.31 29.57 34.29 34.13 34.66 34.13 34.68"/>
        <polygon class="cls-64" points="34.13 34.71 29.57 34.33 29.57 34.31 34.13 34.68 34.13 34.71"/>
        <polygon class="cls-111" points="34.13 34.73 29.57 34.35 29.57 34.33 34.13 34.71 34.13 34.73"/>
        <polygon class="cls-147" points="34.13 34.75 29.57 34.37 29.57 34.35 34.13 34.73 34.13 34.75"/>
        <polygon class="cls-144" points="34.13 34.77 29.57 34.39 29.57 34.37 34.13 34.75 34.13 34.77"/>
        <polygon class="cls-65" points="34.13 34.79 29.57 34.41 29.57 34.39 34.13 34.77 34.13 34.79"/>
        <polygon class="cls-52" points="34.13 34.81 29.57 34.43 29.57 34.41 34.13 34.79 34.13 34.81"/>
        <polygon class="cls-159" points="34.13 34.83 29.57 34.46 29.57 34.43 34.13 34.81 34.13 34.83"/>
        <polygon class="cls-150" points="34.13 34.85 29.57 34.48 29.57 34.46 34.13 34.83 34.13 34.85"/>
        <polygon class="cls-121" points="34.13 34.87 29.57 34.5 29.57 34.48 34.13 34.85 34.13 34.87"/>
        <polygon class="cls-145" points="34.13 34.89 29.57 34.52 29.57 34.5 34.13 34.87 34.13 34.89"/>
        <polygon class="cls-125" points="34.13 34.92 29.57 34.54 29.57 34.52 34.13 34.89 34.13 34.92"/>
        <polygon class="cls-19" points="34.13 34.94 29.57 34.56 29.57 34.54 34.13 34.92 34.13 34.94"/>
        <polygon class="cls-156" points="34.13 34.96 29.57 34.58 29.57 34.56 34.13 34.94 34.13 34.96"/>
        <polygon class="cls-20" points="34.13 34.98 29.57 34.6 29.57 34.58 34.13 34.96 34.13 34.98"/>
        <polygon class="cls-109" points="34.13 35 29.57 34.62 29.57 34.6 34.13 34.98 34.13 35"/>
        <polygon class="cls-28" points="34.13 35.02 29.57 34.64 29.57 34.62 34.13 35 34.13 35.02"/>
        <polygon class="cls-40" points="34.13 35.04 29.57 34.67 29.57 34.64 34.13 35.02 34.13 35.04"/>
        <polygon class="cls-161" points="34.13 35.06 29.57 34.69 29.57 34.67 34.13 35.04 34.13 35.06"/>
        <polygon class="cls-116" points="34.13 35.08 29.57 34.71 29.57 34.69 34.13 35.06 34.13 35.08"/>
        <polygon class="cls-108" points="34.13 35.1 29.57 34.73 29.57 34.71 34.13 35.08 34.13 35.1"/>
        <polygon class="cls-106" points="34.13 35.13 29.57 34.75 29.57 34.73 34.13 35.1 34.13 35.13"/>
        <polygon class="cls-102" points="34.13 35.15 29.57 34.77 29.57 34.75 34.13 35.13 34.13 35.15"/>
        <polygon class="cls-77" points="34.13 35.17 29.57 34.79 29.57 34.77 34.13 35.15 34.13 35.17"/>
        <polygon class="cls-7" points="34.13 35.19 29.57 34.81 29.57 34.79 34.13 35.17 34.13 35.19"/>
        <polygon class="cls-114" points="34.13 35.21 29.57 34.83 29.57 34.81 34.13 35.19 34.13 35.21"/>
        <polygon class="cls-123" points="34.13 35.23 29.57 34.85 29.57 34.83 34.13 35.21 34.13 35.23"/>
        <polygon class="cls-112" points="34.13 35.25 29.57 34.88 29.57 34.85 34.13 35.23 34.13 35.25"/>
        <polygon class="cls-152" points="34.13 35.27 29.57 34.9 29.57 34.88 34.13 35.25 34.13 35.27"/>
        <polygon class="cls-74" points="34.13 35.29 29.57 34.92 29.57 34.9 34.13 35.27 34.13 35.29"/>
        <polygon class="cls-100" points="34.13 35.31 29.57 34.94 29.57 34.92 34.13 35.29 34.13 35.31"/>
        <polygon class="cls-79" points="34.13 35.34 29.57 34.96 29.57 34.94 34.13 35.31 34.13 35.34"/>
        <polygon class="cls-128" points="34.13 35.36 29.57 34.98 29.57 34.96 34.13 35.34 34.13 35.36"/>
        <polygon class="cls-132" points="34.13 35.38 29.57 35 29.57 34.98 34.13 35.36 34.13 35.38"/>
        <polygon class="cls-103" points="34.13 35.4 29.57 35.02 29.57 35 34.13 35.38 34.13 35.4"/>
        <polygon class="cls-177" points="34.13 35.42 29.57 35.04 29.57 35.02 34.13 35.4 34.13 35.42"/>
        <polygon class="cls-25" points="34.13 35.44 29.57 35.06 29.57 35.04 34.13 35.42 34.13 35.44"/>
        <polygon class="cls-67" points="34.13 35.46 29.57 35.09 29.57 35.06 34.13 35.44 34.13 35.46"/>
        <polygon class="cls-34" points="34.13 35.48 29.57 35.11 29.57 35.09 34.13 35.46 34.13 35.48"/>
        <polygon class="cls-68" points="34.13 35.5 29.57 35.13 29.57 35.11 34.13 35.48 34.13 35.5"/>
        <polygon class="cls-154" points="34.13 35.52 29.57 35.15 29.57 35.13 34.13 35.5 34.13 35.52"/>
        <polygon class="cls-30" points="34.13 35.55 29.57 35.17 29.57 35.15 34.13 35.52 34.13 35.55"/>
        <polygon class="cls-56" points="34.13 35.57 29.57 35.19 29.57 35.17 34.13 35.55 34.13 35.57"/>
        <polygon class="cls-140" points="34.13 35.59 29.57 35.21 29.57 35.19 34.13 35.57 34.13 35.59"/>
        <polygon class="cls-164" points="34.13 35.61 29.57 35.23 29.57 35.21 34.13 35.59 34.13 35.61"/>
        <polygon class="cls-120" points="34.13 35.63 29.57 35.25 29.57 35.23 34.13 35.61 34.13 35.63"/>
        <polygon class="cls-101" points="34.13 35.65 29.57 35.27 29.57 35.25 34.13 35.63 34.13 35.65"/>
        <polygon class="cls-82" points="34.13 35.67 29.57 35.3 29.57 35.27 34.13 35.65 34.13 35.67"/>
        <polygon class="cls-172" points="34.13 35.69 29.57 35.32 29.57 35.3 34.13 35.67 34.13 35.69"/>
        <polygon class="cls-131" points="34.13 35.71 29.57 35.34 29.57 35.32 34.13 35.69 34.13 35.71"/>
        <polygon class="cls-162" points="34.13 35.73 29.57 35.36 29.57 35.34 34.13 35.71 34.13 35.73"/>
        <polygon class="cls-42" points="34.13 35.76 29.57 35.38 29.57 35.36 34.13 35.73 34.13 35.76"/>
        <polygon class="cls-178" points="34.13 35.78 29.57 35.4 29.57 35.38 34.13 35.76 34.13 35.78"/>
        <polygon class="cls-24" points="34.13 35.8 29.57 35.42 29.57 35.4 34.13 35.78 34.13 35.8"/>
        <polygon class="cls-143" points="34.13 35.82 29.57 35.44 29.57 35.42 34.13 35.8 34.13 35.82"/>
        <polygon class="cls-70" points="34.13 35.84 29.57 35.46 29.57 35.44 34.13 35.82 34.13 35.84"/>
        <polygon class="cls-95" points="34.13 35.86 29.57 35.48 29.57 35.46 34.13 35.84 34.13 35.86"/>
        <polygon class="cls-155" points="34.13 35.88 29.57 35.51 29.57 35.48 34.13 35.86 34.13 35.88"/>
        <polygon class="cls-46" points="34.13 35.9 29.57 35.53 29.57 35.51 34.13 35.88 34.13 35.9"/>
        <polygon class="cls-50" points="34.13 35.92 29.57 35.55 29.57 35.53 34.13 35.9 34.13 35.92"/>
        <polygon class="cls-134" points="34.13 35.94 29.57 35.57 29.57 35.55 34.13 35.92 34.13 35.94"/>
        <polygon class="cls-63" points="34.13 35.97 29.57 35.59 29.57 35.57 34.13 35.94 34.13 35.97"/>
        <polygon class="cls-12" points="34.13 35.99 29.57 35.61 29.57 35.59 34.13 35.97 34.13 35.99"/>
        <polygon class="cls-133" points="34.13 36.01 29.57 35.63 29.57 35.61 34.13 35.99 34.13 36.01"/>
        <polygon class="cls-53" points="34.13 36.03 29.57 35.65 29.57 35.63 34.13 36.01 34.13 36.03"/>
        <polygon class="cls-117" points="34.13 36.05 29.57 35.67 29.57 35.65 34.13 36.03 34.13 36.05"/>
        <polygon class="cls-141" points="34.13 36.07 29.57 35.69 29.57 35.67 34.13 36.05 34.13 36.07"/>
        <polygon class="cls-104" points="34.13 36.09 29.57 35.72 29.57 35.69 34.13 36.07 34.13 36.09"/>
        <polygon class="cls-89" points="34.13 36.11 29.57 35.74 29.57 35.72 34.13 36.09 34.13 36.11"/>
        <polygon class="cls-91" points="34.13 36.13 29.57 35.76 29.57 35.74 34.13 36.11 34.13 36.13"/>
        <polygon class="cls-94" points="34.13 36.15 29.57 35.78 29.57 35.76 34.13 36.13 34.13 36.15"/>
        <polygon class="cls-148" points="34.13 36.18 29.57 35.8 29.57 35.78 34.13 36.15 34.13 36.18"/>
        <polygon class="cls-60" points="34.13 36.2 29.57 35.82 29.57 35.8 34.13 36.18 34.13 36.2"/>
        <polygon class="cls-73" points="34.13 36.22 29.57 35.84 29.57 35.82 34.13 36.2 34.13 36.22"/>
        <polygon class="cls-18" points="34.13 36.24 29.57 35.86 29.57 35.84 34.13 36.22 34.13 36.24"/>
        <polygon class="cls-84" points="34.13 36.26 29.57 35.88 29.57 35.86 34.13 36.24 34.13 36.26"/>
        <polygon class="cls-84" points="34.13 36.28 29.57 35.9 29.57 35.88 34.13 36.26 34.13 36.28"/>
        <polygon class="cls-96" points="34.13 36.3 29.57 35.93 29.57 35.9 34.13 36.28 34.13 36.3"/>
        <polygon class="cls-29" points="34.13 36.32 29.57 35.95 29.57 35.93 34.13 36.3 34.13 36.32"/>
        <polygon class="cls-29" points="34.13 36.34 29.57 35.97 29.57 35.95 34.13 36.32 34.13 36.34"/>
        <polygon class="cls-168" points="34.13 36.36 29.57 35.99 29.57 35.97 34.13 36.34 34.13 36.36"/>
        <polygon class="cls-75" points="34.13 36.39 29.57 36.01 29.57 35.99 34.13 36.36 34.13 36.39"/>
        <polygon class="cls-163" points="34.13 36.41 29.57 36.03 29.57 36.01 34.13 36.39 34.13 36.41"/>
        <polygon class="cls-81" points="34.13 36.43 29.57 36.05 29.57 36.03 34.13 36.41 34.13 36.43"/>
        <polygon class="cls-36" points="34.13 36.45 29.57 36.07 29.57 36.05 34.13 36.43 34.13 36.45"/>
        <polygon class="cls-135" points="34.13 36.47 29.57 36.09 29.57 36.07 34.13 36.45 34.13 36.47"/>
        <polygon class="cls-176" points="34.13 36.49 29.57 36.11 29.57 36.09 34.13 36.47 34.13 36.49"/>
        <polygon class="cls-76" points="34.13 36.51 29.57 36.14 29.57 36.11 34.13 36.49 34.13 36.51"/>
        <polygon class="cls-39" points="34.13 36.53 29.57 36.16 29.57 36.14 34.13 36.51 34.13 36.53"/>
        <polygon class="cls-23" points="34.13 36.55 29.57 36.18 29.57 36.16 34.13 36.53 34.13 36.55"/>
        <polygon class="cls-35" points="34.13 36.57 29.57 36.2 29.57 36.18 34.13 36.55 34.13 36.57"/>
        <polygon class="cls-126" points="34.13 36.6 29.57 36.22 29.57 36.2 34.13 36.57 34.13 36.6"/>
        <polygon class="cls-90" points="34.13 36.62 29.57 36.24 29.57 36.22 34.13 36.6 34.13 36.62"/>
        <polygon class="cls-170" points="34.13 36.64 29.57 36.26 29.57 36.24 34.13 36.62 34.13 36.64"/>
        <polygon class="cls-33" points="34.13 36.66 29.57 36.28 29.57 36.26 34.13 36.64 34.13 36.66"/>
        <polygon class="cls-119" points="34.13 36.68 29.57 36.3 29.57 36.28 34.13 36.66 34.13 36.68"/>
        <polygon class="cls-110" points="34.13 36.7 29.57 36.32 29.57 36.3 34.13 36.68 34.13 36.7"/>
        <polygon class="cls-10" points="34.13 36.72 29.57 36.35 29.57 36.32 34.13 36.7 34.13 36.72"/>
        <polygon class="cls-138" points="34.13 36.74 29.57 36.37 29.57 36.35 34.13 36.72 34.13 36.74"/>
        <polygon class="cls-138" points="34.13 36.76 29.57 36.39 29.57 36.37 34.13 36.74 34.13 36.76"/>
        <polygon class="cls-31" points="34.13 36.78 29.57 36.41 29.57 36.39 34.13 36.76 34.13 36.78"/>
        <polygon class="cls-21" points="34.13 36.81 29.57 36.43 29.57 36.41 34.13 36.78 34.13 36.81"/>
        <polygon class="cls-124" points="34.13 36.83 29.57 36.45 29.57 36.43 34.13 36.81 34.13 36.83"/>
        <polygon class="cls-93" points="34.13 36.85 29.57 36.47 29.57 36.45 34.13 36.83 34.13 36.85"/>
        <polygon class="cls-127" points="34.13 36.87 29.57 36.49 29.57 36.47 34.13 36.85 34.13 36.87"/>
        <polygon class="cls-127" points="34.13 36.89 29.57 36.51 29.57 36.49 34.13 36.87 34.13 36.89"/>
        <polygon class="cls-59" points="34.13 36.91 29.57 36.53 29.57 36.51 34.13 36.89 34.13 36.91"/>
        <polygon class="cls-59" points="34.13 36.93 29.57 36.56 29.57 36.53 34.13 36.91 34.13 36.93"/>
        <polygon class="cls-57" points="34.13 36.95 29.57 36.58 29.57 36.56 34.13 36.93 34.13 36.95"/>
        <polygon class="cls-169" points="34.13 36.97 29.57 36.6 29.57 36.58 34.13 36.95 34.13 36.97"/>
        <polygon class="cls-169" points="34.13 36.99 29.57 36.62 29.57 36.6 34.13 36.97 34.13 36.99"/>
        <polygon class="cls-11" points="34.13 37.02 29.57 36.64 29.57 36.62 34.13 36.99 34.13 37.02"/>
        <polygon class="cls-72" points="34.13 37.04 29.57 36.66 29.57 36.64 34.13 37.02 34.13 37.04"/>
        <polygon class="cls-153" points="34.13 37.06 29.57 36.68 29.57 36.66 34.13 37.04 34.13 37.06"/>
        <polygon class="cls-61" points="34.13 37.08 29.57 36.7 29.57 36.68 34.13 37.06 34.13 37.08"/>
        <polygon class="cls-173" points="34.13 37.1 29.57 36.72 29.57 36.7 34.13 37.08 34.13 37.1"/>
        <polygon class="cls-113" points="34.13 37.12 29.57 36.74 29.57 36.72 34.13 37.1 34.13 37.12"/>
        <polygon class="cls-113" points="34.13 37.14 29.57 36.77 29.57 36.74 34.13 37.12 34.13 37.14"/>
        <polygon class="cls-4" points="34.13 37.16 29.57 36.79 29.57 36.77 34.13 37.14 34.13 37.16"/>
        <polygon class="cls-54" points="34.13 37.18 29.57 36.81 29.57 36.79 34.13 37.16 34.13 37.18"/>
        <polygon class="cls-157" points="34.13 37.2 29.57 36.83 29.57 36.81 34.13 37.18 34.13 37.2"/>
        <polygon class="cls-157" points="34.13 37.23 29.57 36.85 29.57 36.83 34.13 37.2 34.13 37.23"/>
        <polygon class="cls-88" points="34.13 37.25 29.57 36.87 29.57 36.85 34.13 37.23 34.13 37.25"/>
        <polygon class="cls-49" points="34.13 37.27 29.57 36.89 29.57 36.87 34.13 37.25 34.13 37.27"/>
        <polygon class="cls-49" points="34.13 37.29 29.57 36.91 29.57 36.89 34.13 37.27 34.13 37.29"/>
        <polygon class="cls-98" points="34.13 37.31 29.57 36.93 29.57 36.91 34.13 37.29 34.13 37.31"/>
        <polygon class="cls-98" points="34.13 37.33 29.57 36.95 29.57 36.93 34.13 37.31 34.13 37.33"/>
        <polygon class="cls-107" points="34.13 37.35 29.57 36.98 29.57 36.95 34.13 37.33 34.13 37.35"/>
        <polygon class="cls-17" points="34.13 37.37 29.57 37 29.57 36.98 34.13 37.35 34.13 37.37"/>
        <polygon class="cls-105" points="34.13 37.39 29.57 37.02 29.57 37 34.13 37.37 34.13 37.39"/>
        <polygon class="cls-105" points="34.13 37.41 29.57 37.04 29.57 37.02 34.13 37.39 34.13 37.41"/>
        <polygon class="cls-43" points="34.13 37.44 29.57 37.06 29.57 37.04 34.13 37.41 34.13 37.44"/>
        <polygon class="cls-174" points="34.13 37.46 29.57 37.08 29.57 37.06 34.13 37.44 34.13 37.46"/>
        <polygon class="cls-174" points="34.13 37.48 29.57 37.1 29.57 37.08 34.13 37.46 34.13 37.48"/>
        <polygon class="cls-115" points="34.13 37.5 29.57 37.12 29.57 37.1 34.13 37.48 34.13 37.5"/>
        <polygon class="cls-58" points="34.13 37.52 29.57 37.14 29.57 37.12 34.13 37.5 34.13 37.52"/>
        <polygon class="cls-32" points="34.13 37.54 29.57 37.16 29.57 37.14 34.13 37.52 34.13 37.54"/>
        <polygon class="cls-26" points="34.13 37.56 29.57 37.19 29.57 37.16 34.13 37.54 34.13 37.56"/>
        <polygon class="cls-26" points="34.13 37.58 29.57 37.21 29.57 37.19 34.13 37.56 34.13 37.58"/>
        <polygon class="cls-166" points="34.13 37.6 29.57 37.23 29.57 37.21 34.13 37.58 34.13 37.6"/>
        <polygon class="cls-129" points="34.13 37.62 29.57 37.25 29.57 37.23 34.13 37.6 34.13 37.62"/>
        <polygon class="cls-129" points="34.13 37.65 29.57 37.27 29.57 37.25 34.13 37.62 34.13 37.65"/>
        <polygon class="cls-129" points="34.13 37.67 29.57 37.29 29.57 37.27 34.13 37.65 34.13 37.67"/>
        <polygon class="cls-92" points="34.13 37.69 29.57 37.31 29.57 37.29 34.13 37.67 34.13 37.69"/>
        <polygon class="cls-92" points="34.13 37.71 29.57 37.33 29.57 37.31 34.13 37.69 34.13 37.71"/>
        <polygon class="cls-80" points="34.13 37.73 29.57 37.35 29.57 37.33 34.13 37.71 34.13 37.73"/>
        <polygon class="cls-80" points="34.13 37.75 29.57 37.37 29.57 37.35 34.13 37.73 34.13 37.75"/>
        <polygon class="cls-139" points="34.13 37.77 29.57 37.4 29.57 37.37 34.13 37.75 34.13 37.77"/>
        <polygon class="cls-5" points="34.13 37.79 29.57 37.42 29.57 37.4 34.13 37.77 34.13 37.79"/>
        <polygon class="cls-5" points="34.13 37.81 29.57 37.44 29.57 37.42 34.13 37.79 34.13 37.81"/>
        <polygon class="cls-48" points="34.13 37.83 29.57 37.46 29.57 37.44 34.13 37.81 34.13 37.83"/>
        <polygon class="cls-62" points="34.13 37.86 29.57 37.48 29.57 37.46 34.13 37.83 34.13 37.86"/>
        <polygon class="cls-86" points="34.13 37.88 29.57 37.5 29.57 37.48 34.13 37.86 34.13 37.88"/>
        <polygon class="cls-86" points="34.13 37.9 29.57 37.52 29.57 37.5 34.13 37.88 34.13 37.9"/>
        <polygon class="cls-86" points="34.13 37.92 29.57 37.54 29.57 37.52 34.13 37.9 34.13 37.92"/>
        <polygon class="cls-175" points="34.13 37.94 29.57 37.56 29.57 37.54 34.13 37.92 34.13 37.94"/>
        <polygon class="cls-13" points="34.13 37.96 29.57 37.58 29.57 37.56 34.13 37.94 34.13 37.96"/>
        <polygon class="cls-13" points="34.13 37.98 29.57 37.61 29.57 37.58 34.13 37.96 34.13 37.98"/>
        <polygon class="cls-171" points="34.13 38 29.57 37.63 29.57 37.61 34.13 37.98 34.13 38"/>
        <polygon class="cls-137" points="34.13 38.02 29.57 37.65 29.57 37.63 34.13 38 34.13 38.02"/>
        <polygon class="cls-137" points="34.13 38.05 29.57 37.67 29.57 37.65 34.13 38.02 34.13 38.05"/>
        <polygon class="cls-137" points="34.13 38.07 29.57 37.69 29.57 37.67 34.13 38.05 34.13 38.07"/>
        <polygon class="cls-137" points="34.13 38.09 29.57 37.71 29.57 37.69 34.13 38.07 34.13 38.09"/>
        <polygon class="cls-41" points="34.13 38.11 29.57 37.73 29.57 37.71 34.13 38.09 34.13 38.11"/>
        <polygon class="cls-99" points="34.13 38.13 29.57 37.75 29.57 37.73 34.13 38.11 34.13 38.13"/>
        <polygon class="cls-22" points="34.07 38.15 29.57 37.77 29.57 37.75 34.13 38.13 34.13 38.15 34.07 38.15"/>
        <polygon class="cls-22" points="33.82 38.15 29.57 37.79 29.57 37.77 34.07 38.15 33.82 38.15"/>
        <polygon class="cls-22" points="33.56 38.15 29.57 37.82 29.57 37.79 33.82 38.15 33.56 38.15"/>
        <polygon class="cls-22" points="33.31 38.15 29.57 37.84 29.57 37.82 33.56 38.15 33.31 38.15"/>
        <polygon class="cls-22" points="33.06 38.15 29.57 37.86 29.57 37.84 33.31 38.15 33.06 38.15"/>
        <polygon class="cls-22" points="32.8 38.15 29.57 37.88 29.57 37.86 33.06 38.15 32.8 38.15"/>
        <polygon class="cls-69" points="32.55 38.15 29.57 37.9 29.57 37.88 32.8 38.15 32.55 38.15"/>
        <polygon class="cls-149" points="32.29 38.15 29.57 37.92 29.57 37.9 32.55 38.15 32.29 38.15"/>
        <polygon class="cls-149" points="32.04 38.15 29.57 37.94 29.57 37.92 32.29 38.15 32.04 38.15"/>
        <polygon class="cls-149" points="31.78 38.15 29.57 37.96 29.57 37.94 32.04 38.15 31.78 38.15"/>
        <polygon class="cls-149" points="31.53 38.15 29.57 37.98 29.57 37.96 31.78 38.15 31.53 38.15"/>
        <polygon class="cls-149" points="31.28 38.15 29.57 38 29.57 37.98 31.53 38.15 31.28 38.15"/>
        <polygon class="cls-149" points="31.02 38.15 29.57 38.03 29.57 38 31.28 38.15 31.02 38.15"/>
        <polygon class="cls-149" points="30.77 38.15 29.57 38.05 29.57 38.03 31.02 38.15 30.77 38.15"/>
        <polygon class="cls-37" points="30.51 38.15 29.57 38.07 29.57 38.05 30.77 38.15 30.51 38.15"/>
        <polygon class="cls-37" points="30.26 38.15 29.57 38.09 29.57 38.07 30.51 38.15 30.26 38.15"/>
        <polygon class="cls-55" points="30 38.15 29.57 38.11 29.57 38.09 30.26 38.15 30 38.15"/>
        <polygon class="cls-55" points="29.75 38.15 29.57 38.13 29.57 38.11 30 38.15 29.75 38.15"/>
        <polygon class="cls-55" points="29.57 38.13 29.75 38.15 29.57 38.15 29.57 38.13"/>
      </g>
      <path class="cls-44" d="M31.75,37.37c-.64-.05-1.14-.7-1.08-1.4.06-.71.65-1.26,1.29-1.21.64.05,1.14.7,1.08,1.4-.06.71-.65,1.26-1.29,1.21Z"/>
      <path class="cls-130" d="M31.8,37.12c-.45-.04-.91-.53-.86-1.13.05-.6.59-1.01,1.03-.97.45.04.91.53.86,1.13-.05.6-.59,1.01-1.03.97Z"/>
      <g class="cls-118">
        <path class="cls-151" d="M35.39,38.92s-.05,0-.17.04c-.08-1.3-.33-3.09-1.07-3.45-1.09-.55-3.55-1.36-6.7.57-.32-.57-.48-.99-.48-.99,3.43-2.45,6.13-1.57,7.3-.99,1.18.59,1.12,4.81,1.12,4.81Z"/>
      </g>
      <path class="cls-97" d="M31.44,35.64c-.02.22-.24.38-.5.35-.26-.02-.45-.22-.43-.43.02-.22.24-.38.5-.36.26.02.45.21.44.43Z"/>
      <path class="cls-97" d="M32.88,36.89c0,.11-.12.19-.25.18-.13-.01-.23-.11-.22-.22,0-.11.12-.19.25-.18.13,0,.23.11.22.22Z"/>
      <path class="cls-97" d="M42.35,30.86s.38-.58,1.16-1.18c.39-.3.88-.62,1.45-.86.57-.24,1.21-.42,1.87-.51.66-.07,1.32-.03,1.92.05.6.11,1.14.29,1.58.48.45.15.78.4,1.02.53.23.15.37.23.37.23,0,0-.15-.04-.42-.1-.26-.07-.63-.18-1.09-.24-.23-.03-.46-.1-.72-.11-.26-.02-.52-.04-.8-.06-.55,0-1.14.02-1.71.15-.57.1-1.12.28-1.61.5-.49.23-.94.46-1.3.71-.74.49-1.14.89-1.14.89-.15.15-.39.15-.54,0-.13-.13-.15-.33-.05-.48h0Z"/>
      <path class="cls-97" d="M52.11,35.1s-1.46,3.64-3.73,3.99c-2.27.35-4.68-.16-4.68-.16,0,0-.06-4.22,1.12-4.81,1.18-.59,3.87-1.46,7.3.98Z"/>
      <g class="cls-118">
        <path class="cls-151" d="M43.7,38.92s.05,0,.17.04c.08-1.3.34-3.09,1.07-3.45,1.09-.55,3.55-1.36,6.7.57.32-.57.48-.99.48-.99-3.43-2.45-6.13-1.57-7.3-.99-1.18.59-1.12,4.81-1.12,4.81Z"/>
      </g>
      <g class="cls-78">
        <polygon class="cls-122" points="49.53 34.33 44.97 33.96 44.97 33.53 49.53 33.53 49.53 34.33"/>
        <polygon class="cls-122" points="49.53 34.35 44.97 33.98 44.97 33.96 49.53 34.33 49.53 34.35"/>
        <polygon class="cls-167" points="49.53 34.37 44.97 34 44.97 33.98 49.53 34.35 49.53 34.37"/>
        <polygon class="cls-160" points="49.53 34.4 44.97 34.02 44.97 34 49.53 34.37 49.53 34.4"/>
        <polygon class="cls-85" points="49.53 34.42 44.97 34.04 44.97 34.02 49.53 34.4 49.53 34.42"/>
        <polygon class="cls-16" points="49.53 34.44 44.97 34.06 44.97 34.04 49.53 34.42 49.53 34.44"/>
        <polygon class="cls-136" points="49.53 34.46 44.97 34.08 44.97 34.06 49.53 34.44 49.53 34.46"/>
        <polygon class="cls-66" points="49.53 34.48 44.97 34.1 44.97 34.08 49.53 34.46 49.53 34.48"/>
        <polygon class="cls-3" points="49.53 34.5 44.97 34.12 44.97 34.1 49.53 34.48 49.53 34.5"/>
        <polygon class="cls-15" points="49.53 34.52 44.97 34.15 44.97 34.12 49.53 34.5 49.53 34.52"/>
        <polygon class="cls-71" points="49.53 34.54 44.97 34.17 44.97 34.15 49.53 34.52 49.53 34.54"/>
        <polygon class="cls-51" points="49.53 34.56 44.97 34.19 44.97 34.17 49.53 34.54 49.53 34.56"/>
        <polygon class="cls-64" points="49.53 34.58 44.97 34.21 44.97 34.19 49.53 34.56 49.53 34.58"/>
        <polygon class="cls-111" points="49.53 34.61 44.97 34.23 44.97 34.21 49.53 34.58 49.53 34.61"/>
        <polygon class="cls-147" points="49.53 34.63 44.97 34.25 44.97 34.23 49.53 34.61 49.53 34.63"/>
        <polygon class="cls-144" points="49.53 34.65 44.97 34.27 44.97 34.25 49.53 34.63 49.53 34.65"/>
        <polygon class="cls-65" points="49.53 34.67 44.97 34.29 44.97 34.27 49.53 34.65 49.53 34.67"/>
        <polygon class="cls-52" points="49.53 34.69 44.97 34.31 44.97 34.29 49.53 34.67 49.53 34.69"/>
        <polygon class="cls-159" points="49.53 34.71 44.97 34.33 44.97 34.31 49.53 34.69 49.53 34.71"/>
        <polygon class="cls-150" points="49.53 34.73 44.97 34.36 44.97 34.33 49.53 34.71 49.53 34.73"/>
        <polygon class="cls-121" points="49.53 34.75 44.97 34.38 44.97 34.36 49.53 34.73 49.53 34.75"/>
        <polygon class="cls-145" points="49.53 34.77 44.97 34.4 44.97 34.38 49.53 34.75 49.53 34.77"/>
        <polygon class="cls-125" points="49.53 34.79 44.97 34.42 44.97 34.4 49.53 34.77 49.53 34.79"/>
        <polygon class="cls-19" points="49.53 34.82 44.97 34.44 44.97 34.42 49.53 34.79 49.53 34.82"/>
        <polygon class="cls-156" points="49.53 34.84 44.97 34.46 44.97 34.44 49.53 34.82 49.53 34.84"/>
        <polygon class="cls-20" points="49.53 34.86 44.97 34.48 44.97 34.46 49.53 34.84 49.53 34.86"/>
        <polygon class="cls-109" points="49.53 34.88 44.97 34.5 44.97 34.48 49.53 34.86 49.53 34.88"/>
        <polygon class="cls-28" points="49.53 34.9 44.97 34.52 44.97 34.5 49.53 34.88 49.53 34.9"/>
        <polygon class="cls-40" points="49.53 34.92 44.97 34.54 44.97 34.52 49.53 34.9 49.53 34.92"/>
        <polygon class="cls-161" points="49.53 34.94 44.97 34.57 44.97 34.54 49.53 34.92 49.53 34.94"/>
        <polygon class="cls-116" points="49.53 34.96 44.97 34.59 44.97 34.57 49.53 34.94 49.53 34.96"/>
        <polygon class="cls-108" points="49.53 34.98 44.97 34.61 44.97 34.59 49.53 34.96 49.53 34.98"/>
        <polygon class="cls-106" points="49.53 35 44.97 34.63 44.97 34.61 49.53 34.98 49.53 35"/>
        <polygon class="cls-102" points="49.53 35.03 44.97 34.65 44.97 34.63 49.53 35 49.53 35.03"/>
        <polygon class="cls-77" points="49.53 35.05 44.97 34.67 44.97 34.65 49.53 35.03 49.53 35.05"/>
        <polygon class="cls-7" points="49.53 35.07 44.97 34.69 44.97 34.67 49.53 35.05 49.53 35.07"/>
        <polygon class="cls-114" points="49.53 35.09 44.97 34.71 44.97 34.69 49.53 35.07 49.53 35.09"/>
        <polygon class="cls-123" points="49.53 35.11 44.97 34.73 44.97 34.71 49.53 35.09 49.53 35.11"/>
        <polygon class="cls-112" points="49.53 35.13 44.97 34.75 44.97 34.73 49.53 35.11 49.53 35.13"/>
        <polygon class="cls-152" points="49.53 35.15 44.97 34.78 44.97 34.75 49.53 35.13 49.53 35.15"/>
        <polygon class="cls-74" points="49.53 35.17 44.97 34.8 44.97 34.78 49.53 35.15 49.53 35.17"/>
        <polygon class="cls-100" points="49.53 35.19 44.97 34.82 44.97 34.8 49.53 35.17 49.53 35.19"/>
        <polygon class="cls-79" points="49.53 35.21 44.97 34.84 44.97 34.82 49.53 35.19 49.53 35.21"/>
        <polygon class="cls-128" points="49.53 35.24 44.97 34.86 44.97 34.84 49.53 35.21 49.53 35.24"/>
        <polygon class="cls-132" points="49.53 35.26 44.97 34.88 44.97 34.86 49.53 35.24 49.53 35.26"/>
        <polygon class="cls-103" points="49.53 35.28 44.97 34.9 44.97 34.88 49.53 35.26 49.53 35.28"/>
        <polygon class="cls-177" points="49.53 35.3 44.97 34.92 44.97 34.9 49.53 35.28 49.53 35.3"/>
        <polygon class="cls-25" points="49.53 35.32 44.97 34.94 44.97 34.92 49.53 35.3 49.53 35.32"/>
        <polygon class="cls-67" points="49.53 35.34 44.97 34.96 44.97 34.94 49.53 35.32 49.53 35.34"/>
        <polygon class="cls-34" points="49.53 35.36 44.97 34.99 44.97 34.96 49.53 35.34 49.53 35.36"/>
        <polygon class="cls-68" points="49.53 35.38 44.97 35.01 44.97 34.99 49.53 35.36 49.53 35.38"/>
        <polygon class="cls-154" points="49.53 35.4 44.97 35.03 44.97 35.01 49.53 35.38 49.53 35.4"/>
        <polygon class="cls-30" points="49.53 35.42 44.97 35.05 44.97 35.03 49.53 35.4 49.53 35.42"/>
        <polygon class="cls-56" points="49.53 35.45 44.97 35.07 44.97 35.05 49.53 35.42 49.53 35.45"/>
        <polygon class="cls-140" points="49.53 35.47 44.97 35.09 44.97 35.07 49.53 35.45 49.53 35.47"/>
        <polygon class="cls-164" points="49.53 35.49 44.97 35.11 44.97 35.09 49.53 35.47 49.53 35.49"/>
        <polygon class="cls-120" points="49.53 35.51 44.97 35.13 44.97 35.11 49.53 35.49 49.53 35.51"/>
        <polygon class="cls-101" points="49.53 35.53 44.97 35.15 44.97 35.13 49.53 35.51 49.53 35.53"/>
        <polygon class="cls-82" points="49.53 35.55 44.97 35.17 44.97 35.15 49.53 35.53 49.53 35.55"/>
        <polygon class="cls-172" points="49.53 35.57 44.97 35.2 44.97 35.17 49.53 35.55 49.53 35.57"/>
        <polygon class="cls-131" points="49.53 35.59 44.97 35.22 44.97 35.2 49.53 35.57 49.53 35.59"/>
        <polygon class="cls-162" points="49.53 35.61 44.97 35.24 44.97 35.22 49.53 35.59 49.53 35.61"/>
        <polygon class="cls-42" points="49.53 35.63 44.97 35.26 44.97 35.24 49.53 35.61 49.53 35.63"/>
        <polygon class="cls-178" points="49.53 35.66 44.97 35.28 44.97 35.26 49.53 35.63 49.53 35.66"/>
        <polygon class="cls-24" points="49.53 35.68 44.97 35.3 44.97 35.28 49.53 35.66 49.53 35.68"/>
        <polygon class="cls-143" points="49.53 35.7 44.97 35.32 44.97 35.3 49.53 35.68 49.53 35.7"/>
        <polygon class="cls-70" points="49.53 35.72 44.97 35.34 44.97 35.32 49.53 35.7 49.53 35.72"/>
        <polygon class="cls-95" points="49.53 35.74 44.97 35.36 44.97 35.34 49.53 35.72 49.53 35.74"/>
        <polygon class="cls-155" points="49.53 35.76 44.97 35.38 44.97 35.36 49.53 35.74 49.53 35.76"/>
        <polygon class="cls-46" points="49.53 35.78 44.97 35.41 44.97 35.38 49.53 35.76 49.53 35.78"/>
        <polygon class="cls-50" points="49.53 35.8 44.97 35.43 44.97 35.41 49.53 35.78 49.53 35.8"/>
        <polygon class="cls-134" points="49.53 35.82 44.97 35.45 44.97 35.43 49.53 35.8 49.53 35.82"/>
        <polygon class="cls-63" points="49.53 35.84 44.97 35.47 44.97 35.45 49.53 35.82 49.53 35.84"/>
        <polygon class="cls-12" points="49.53 35.87 44.97 35.49 44.97 35.47 49.53 35.84 49.53 35.87"/>
        <polygon class="cls-133" points="49.53 35.89 44.97 35.51 44.97 35.49 49.53 35.87 49.53 35.89"/>
        <polygon class="cls-53" points="49.53 35.91 44.97 35.53 44.97 35.51 49.53 35.89 49.53 35.91"/>
        <polygon class="cls-117" points="49.53 35.93 44.97 35.55 44.97 35.53 49.53 35.91 49.53 35.93"/>
        <polygon class="cls-141" points="49.53 35.95 44.97 35.57 44.97 35.55 49.53 35.93 49.53 35.95"/>
        <polygon class="cls-104" points="49.53 35.97 44.97 35.59 44.97 35.57 49.53 35.95 49.53 35.97"/>
        <polygon class="cls-89" points="49.53 35.99 44.97 35.62 44.97 35.59 49.53 35.97 49.53 35.99"/>
        <polygon class="cls-91" points="49.53 36.01 44.97 35.64 44.97 35.62 49.53 35.99 49.53 36.01"/>
        <polygon class="cls-94" points="49.53 36.03 44.97 35.66 44.97 35.64 49.53 36.01 49.53 36.03"/>
        <polygon class="cls-148" points="49.53 36.05 44.97 35.68 44.97 35.66 49.53 36.03 49.53 36.05"/>
        <polygon class="cls-60" points="49.53 36.08 44.97 35.7 44.97 35.68 49.53 36.05 49.53 36.08"/>
        <polygon class="cls-73" points="49.53 36.1 44.97 35.72 44.97 35.7 49.53 36.08 49.53 36.1"/>
        <polygon class="cls-18" points="49.53 36.12 44.97 35.74 44.97 35.72 49.53 36.1 49.53 36.12"/>
        <polygon class="cls-84" points="49.53 36.14 44.97 35.76 44.97 35.74 49.53 36.12 49.53 36.14"/>
        <polygon class="cls-84" points="49.53 36.16 44.97 35.78 44.97 35.76 49.53 36.14 49.53 36.16"/>
        <polygon class="cls-96" points="49.53 36.18 44.97 35.8 44.97 35.78 49.53 36.16 49.53 36.18"/>
        <polygon class="cls-29" points="49.53 36.2 44.97 35.83 44.97 35.8 49.53 36.18 49.53 36.2"/>
        <polygon class="cls-29" points="49.53 36.22 44.97 35.85 44.97 35.83 49.53 36.2 49.53 36.22"/>
        <polygon class="cls-168" points="49.53 36.24 44.97 35.87 44.97 35.85 49.53 36.22 49.53 36.24"/>
        <polygon class="cls-75" points="49.53 36.26 44.97 35.89 44.97 35.87 49.53 36.24 49.53 36.26"/>
        <polygon class="cls-163" points="49.53 36.29 44.97 35.91 44.97 35.89 49.53 36.26 49.53 36.29"/>
        <polygon class="cls-81" points="49.53 36.31 44.97 35.93 44.97 35.91 49.53 36.29 49.53 36.31"/>
        <polygon class="cls-36" points="49.53 36.33 44.97 35.95 44.97 35.93 49.53 36.31 49.53 36.33"/>
        <polygon class="cls-135" points="49.53 36.35 44.97 35.97 44.97 35.95 49.53 36.33 49.53 36.35"/>
        <polygon class="cls-176" points="49.53 36.37 44.97 35.99 44.97 35.97 49.53 36.35 49.53 36.37"/>
        <polygon class="cls-76" points="49.53 36.39 44.97 36.01 44.97 35.99 49.53 36.37 49.53 36.39"/>
        <polygon class="cls-39" points="49.53 36.41 44.97 36.04 44.97 36.01 49.53 36.39 49.53 36.41"/>
        <polygon class="cls-23" points="49.53 36.43 44.97 36.06 44.97 36.04 49.53 36.41 49.53 36.43"/>
        <polygon class="cls-35" points="49.53 36.45 44.97 36.08 44.97 36.06 49.53 36.43 49.53 36.45"/>
        <polygon class="cls-126" points="49.53 36.47 44.97 36.1 44.97 36.08 49.53 36.45 49.53 36.47"/>
        <polygon class="cls-90" points="49.53 36.5 44.97 36.12 44.97 36.1 49.53 36.47 49.53 36.5"/>
        <polygon class="cls-170" points="49.53 36.52 44.97 36.14 44.97 36.12 49.53 36.5 49.53 36.52"/>
        <polygon class="cls-33" points="49.53 36.54 44.97 36.16 44.97 36.14 49.53 36.52 49.53 36.54"/>
        <polygon class="cls-119" points="49.53 36.56 44.97 36.18 44.97 36.16 49.53 36.54 49.53 36.56"/>
        <polygon class="cls-110" points="49.53 36.58 44.97 36.2 44.97 36.18 49.53 36.56 49.53 36.58"/>
        <polygon class="cls-10" points="49.53 36.6 44.97 36.22 44.97 36.2 49.53 36.58 49.53 36.6"/>
        <polygon class="cls-138" points="49.53 36.62 44.97 36.25 44.97 36.22 49.53 36.6 49.53 36.62"/>
        <polygon class="cls-138" points="49.53 36.64 44.97 36.27 44.97 36.25 49.53 36.62 49.53 36.64"/>
        <polygon class="cls-31" points="49.53 36.66 44.97 36.29 44.97 36.27 49.53 36.64 49.53 36.66"/>
        <polygon class="cls-21" points="49.53 36.68 44.97 36.31 44.97 36.29 49.53 36.66 49.53 36.68"/>
        <polygon class="cls-124" points="49.53 36.71 44.97 36.33 44.97 36.31 49.53 36.68 49.53 36.71"/>
        <polygon class="cls-93" points="49.53 36.73 44.97 36.35 44.97 36.33 49.53 36.71 49.53 36.73"/>
        <polygon class="cls-127" points="49.53 36.75 44.97 36.37 44.97 36.35 49.53 36.73 49.53 36.75"/>
        <polygon class="cls-127" points="49.53 36.77 44.97 36.39 44.97 36.37 49.53 36.75 49.53 36.77"/>
        <polygon class="cls-59" points="49.53 36.79 44.97 36.41 44.97 36.39 49.53 36.77 49.53 36.79"/>
        <polygon class="cls-59" points="49.53 36.81 44.97 36.43 44.97 36.41 49.53 36.79 49.53 36.81"/>
        <polygon class="cls-57" points="49.53 36.83 44.97 36.46 44.97 36.43 49.53 36.81 49.53 36.83"/>
        <polygon class="cls-169" points="49.53 36.85 44.97 36.48 44.97 36.46 49.53 36.83 49.53 36.85"/>
        <polygon class="cls-169" points="49.53 36.87 44.97 36.5 44.97 36.48 49.53 36.85 49.53 36.87"/>
        <polygon class="cls-11" points="49.53 36.89 44.97 36.52 44.97 36.5 49.53 36.87 49.53 36.89"/>
        <polygon class="cls-72" points="49.53 36.92 44.97 36.54 44.97 36.52 49.53 36.89 49.53 36.92"/>
        <polygon class="cls-153" points="49.53 36.94 44.97 36.56 44.97 36.54 49.53 36.92 49.53 36.94"/>
        <polygon class="cls-61" points="49.53 36.96 44.97 36.58 44.97 36.56 49.53 36.94 49.53 36.96"/>
        <polygon class="cls-173" points="49.53 36.98 44.97 36.6 44.97 36.58 49.53 36.96 49.53 36.98"/>
        <polygon class="cls-113" points="49.53 37 44.97 36.62 44.97 36.6 49.53 36.98 49.53 37"/>
        <polygon class="cls-113" points="49.53 37.02 44.97 36.64 44.97 36.62 49.53 37 49.53 37.02"/>
        <polygon class="cls-4" points="49.53 37.04 44.97 36.67 44.97 36.64 49.53 37.02 49.53 37.04"/>
        <polygon class="cls-54" points="49.53 37.06 44.97 36.69 44.97 36.67 49.53 37.04 49.53 37.06"/>
        <polygon class="cls-157" points="49.53 37.08 44.97 36.71 44.97 36.69 49.53 37.06 49.53 37.08"/>
        <polygon class="cls-157" points="49.53 37.1 44.97 36.73 44.97 36.71 49.53 37.08 49.53 37.1"/>
        <polygon class="cls-88" points="49.53 37.13 44.97 36.75 44.97 36.73 49.53 37.1 49.53 37.13"/>
        <polygon class="cls-49" points="49.53 37.15 44.97 36.77 44.97 36.75 49.53 37.13 49.53 37.15"/>
        <polygon class="cls-49" points="49.53 37.17 44.97 36.79 44.97 36.77 49.53 37.15 49.53 37.17"/>
        <polygon class="cls-98" points="49.53 37.19 44.97 36.81 44.97 36.79 49.53 37.17 49.53 37.19"/>
        <polygon class="cls-98" points="49.53 37.21 44.97 36.83 44.97 36.81 49.53 37.19 49.53 37.21"/>
        <polygon class="cls-107" points="49.53 37.23 44.97 36.85 44.97 36.83 49.53 37.21 49.53 37.23"/>
        <polygon class="cls-17" points="49.53 37.25 44.97 36.88 44.97 36.85 49.53 37.23 49.53 37.25"/>
        <polygon class="cls-105" points="49.53 37.27 44.97 36.9 44.97 36.88 49.53 37.25 49.53 37.27"/>
        <polygon class="cls-105" points="49.53 37.29 44.97 36.92 44.97 36.9 49.53 37.27 49.53 37.29"/>
        <polygon class="cls-43" points="49.53 37.31 44.97 36.94 44.97 36.92 49.53 37.29 49.53 37.31"/>
        <polygon class="cls-174" points="49.53 37.34 44.97 36.96 44.97 36.94 49.53 37.31 49.53 37.34"/>
        <polygon class="cls-174" points="49.53 37.36 44.97 36.98 44.97 36.96 49.53 37.34 49.53 37.36"/>
        <polygon class="cls-115" points="49.53 37.38 44.97 37 44.97 36.98 49.53 37.36 49.53 37.38"/>
        <polygon class="cls-58" points="49.53 37.4 44.97 37.02 44.97 37 49.53 37.38 49.53 37.4"/>
        <polygon class="cls-32" points="49.53 37.42 44.97 37.04 44.97 37.02 49.53 37.4 49.53 37.42"/>
        <polygon class="cls-26" points="49.53 37.44 44.97 37.06 44.97 37.04 49.53 37.42 49.53 37.44"/>
        <polygon class="cls-26" points="49.53 37.46 44.97 37.09 44.97 37.06 49.53 37.44 49.53 37.46"/>
        <polygon class="cls-166" points="49.53 37.48 44.97 37.11 44.97 37.09 49.53 37.46 49.53 37.48"/>
        <polygon class="cls-129" points="49.53 37.5 44.97 37.13 44.97 37.11 49.53 37.48 49.53 37.5"/>
        <polygon class="cls-129" points="49.53 37.52 44.97 37.15 44.97 37.13 49.53 37.5 49.53 37.52"/>
        <polygon class="cls-129" points="49.53 37.55 44.97 37.17 44.97 37.15 49.53 37.52 49.53 37.55"/>
        <polygon class="cls-92" points="49.53 37.57 44.97 37.19 44.97 37.17 49.53 37.55 49.53 37.57"/>
        <polygon class="cls-92" points="49.53 37.59 44.97 37.21 44.97 37.19 49.53 37.57 49.53 37.59"/>
        <polygon class="cls-80" points="49.53 37.61 44.97 37.23 44.97 37.21 49.53 37.59 49.53 37.61"/>
        <polygon class="cls-80" points="49.53 37.63 44.97 37.25 44.97 37.23 49.53 37.61 49.53 37.63"/>
        <polygon class="cls-139" points="49.53 37.65 44.97 37.27 44.97 37.25 49.53 37.63 49.53 37.65"/>
        <polygon class="cls-5" points="49.53 37.67 44.97 37.3 44.97 37.27 49.53 37.65 49.53 37.67"/>
        <polygon class="cls-5" points="49.53 37.69 44.97 37.32 44.97 37.3 49.53 37.67 49.53 37.69"/>
        <polygon class="cls-48" points="49.53 37.71 44.97 37.34 44.97 37.32 49.53 37.69 49.53 37.71"/>
        <polygon class="cls-62" points="49.53 37.73 44.97 37.36 44.97 37.34 49.53 37.71 49.53 37.73"/>
        <polygon class="cls-86" points="49.53 37.76 44.97 37.38 44.97 37.36 49.53 37.73 49.53 37.76"/>
        <polygon class="cls-86" points="49.53 37.78 44.97 37.4 44.97 37.38 49.53 37.76 49.53 37.78"/>
        <polygon class="cls-86" points="49.53 37.8 44.97 37.42 44.97 37.4 49.53 37.78 49.53 37.8"/>
        <polygon class="cls-175" points="49.53 37.82 44.97 37.44 44.97 37.42 49.53 37.8 49.53 37.82"/>
        <polygon class="cls-13" points="49.53 37.84 44.97 37.46 44.97 37.44 49.53 37.82 49.53 37.84"/>
        <polygon class="cls-13" points="49.53 37.86 44.97 37.48 44.97 37.46 49.53 37.84 49.53 37.86"/>
        <polygon class="cls-171" points="49.53 37.88 44.97 37.51 44.97 37.48 49.53 37.86 49.53 37.88"/>
        <polygon class="cls-137" points="49.53 37.9 44.97 37.53 44.97 37.51 49.53 37.88 49.53 37.9"/>
        <polygon class="cls-137" points="49.53 37.92 44.97 37.55 44.97 37.53 49.53 37.9 49.53 37.92"/>
        <polygon class="cls-137" points="49.53 37.94 44.97 37.57 44.97 37.55 49.53 37.92 49.53 37.94"/>
        <polygon class="cls-137" points="49.53 37.97 44.97 37.59 44.97 37.57 49.53 37.94 49.53 37.97"/>
        <polygon class="cls-41" points="49.53 37.99 44.97 37.61 44.97 37.59 49.53 37.97 49.53 37.99"/>
        <polygon class="cls-99" points="49.53 38.01 44.97 37.63 44.97 37.61 49.53 37.99 49.53 38.01"/>
        <polygon class="cls-22" points="49.47 38.02 44.97 37.65 44.97 37.63 49.53 38.01 49.53 38.02 49.47 38.02"/>
        <polygon class="cls-22" points="49.22 38.02 44.97 37.67 44.97 37.65 49.47 38.02 49.22 38.02"/>
        <polygon class="cls-22" points="48.96 38.02 44.97 37.69 44.97 37.67 49.22 38.02 48.96 38.02"/>
        <polygon class="cls-22" points="48.71 38.02 44.97 37.72 44.97 37.69 48.96 38.02 48.71 38.02"/>
        <polygon class="cls-22" points="48.45 38.02 44.97 37.74 44.97 37.72 48.71 38.02 48.45 38.02"/>
        <polygon class="cls-22" points="48.2 38.02 44.97 37.76 44.97 37.74 48.45 38.02 48.2 38.02"/>
        <polygon class="cls-69" points="47.95 38.02 44.97 37.78 44.97 37.76 48.2 38.02 47.95 38.02"/>
        <polygon class="cls-149" points="47.69 38.02 44.97 37.8 44.97 37.78 47.95 38.02 47.69 38.02"/>
        <polygon class="cls-149" points="47.44 38.02 44.97 37.82 44.97 37.8 47.69 38.02 47.44 38.02"/>
        <polygon class="cls-149" points="47.18 38.02 44.97 37.84 44.97 37.82 47.44 38.02 47.18 38.02"/>
        <polygon class="cls-149" points="46.93 38.02 44.97 37.86 44.97 37.84 47.18 38.02 46.93 38.02"/>
        <polygon class="cls-149" points="46.67 38.02 44.97 37.88 44.97 37.86 46.93 38.02 46.67 38.02"/>
        <polygon class="cls-149" points="46.42 38.02 44.97 37.9 44.97 37.88 46.67 38.02 46.42 38.02"/>
        <polygon class="cls-149" points="46.17 38.02 44.97 37.93 44.97 37.9 46.42 38.02 46.17 38.02"/>
        <polygon class="cls-37" points="45.91 38.02 44.97 37.95 44.97 37.93 46.17 38.02 45.91 38.02"/>
        <polygon class="cls-37" points="45.66 38.02 44.97 37.97 44.97 37.95 45.91 38.02 45.66 38.02"/>
        <polygon class="cls-55" points="45.4 38.02 44.97 37.99 44.97 37.97 45.66 38.02 45.4 38.02"/>
        <polygon class="cls-55" points="45.15 38.02 44.97 38.01 44.97 37.99 45.4 38.02 45.15 38.02"/>
        <polygon class="cls-55" points="44.97 38.01 45.15 38.02 44.97 38.02 44.97 38.01"/>
      </g>
      <path class="cls-44" d="M47.15,37.25c-.64-.05-1.14-.7-1.08-1.4.06-.71.65-1.26,1.29-1.21.64.05,1.14.7,1.08,1.4-.06.71-.65,1.26-1.29,1.21Z"/>
      <path class="cls-130" d="M47.2,37c-.45-.04-.91-.52-.86-1.12.05-.6.59-1.01,1.03-.97.45.04.91.53.86,1.13-.05.6-.59,1.01-1.03.97Z"/>
      <path class="cls-97" d="M46.84,35.51c-.02.22-.24.38-.5.35-.26-.02-.45-.22-.43-.43.02-.22.24-.38.5-.36.26.02.45.21.44.43Z"/>
      <path class="cls-97" d="M48.28,36.77c0,.11-.12.19-.25.18-.13-.01-.23-.11-.22-.22,0-.11.12-.19.25-.18.13,0,.23.11.22.22Z"/>
      <path class="cls-6" d="M20.95,37.77c.97-1.58,2.49-.91,2.87-.57.4.37.72.87.48,1.8-.13.52-.68.57-.54,1.37.16.89.57.95.8,1.15.24.2.53.35.68.73.14.37.17.77.1,1.12-.15.65-1.09.14-1.72-.14-.42-.18-1.74-1.29-2.08-1.65-.84-.94-1.25-2.74-.6-3.8"/>
      <path class="cls-27" d="M41.39,44.84c.34-.23.74-.12.74-.12,0,0,0,0-.01.02-.08.14-.54.87-.91.86,0,0-.08-.07-.1-.24-.03-.17.11-.4.28-.52Z"/>
      <path class="cls-2" d="M20.46,73.02s0,.01,0,.02h0s0,0,0-.02Z"/>
      <path class="cls-142" d="M20.3,73.04s.09.05.13.07c0-.02.01-.05.02-.07h-.15Z"/>
      <path class="cls-142" d="M20.46,73.02s0,.01,0,.02h0s0,0,0-.02Z"/>
      <g>
        <path class="cls-87" d="M36.21,39.52c.15-.52.24-1.08.24-1.65,0-3.23-2.63-5.85-5.87-5.85s-5.87,2.62-5.87,5.85c0,.72.14,1.4.37,2.04,2.67-1.19,6.86-2.29,11.13-.39Z"/>
        <path class="cls-87" d="M53.35,40.78c.49-.86.78-1.85.78-2.91,0-3.23-2.63-5.85-5.87-5.85s-5.87,2.62-5.87,5.85c0,1.13.33,2.18.88,3.07,2.64-1.35,6.26-2.22,10.07-.17Z"/>
        <path class="cls-87" d="M37.12,39.98c-.02.06-.04.12-.06.17.03-.05.06-.1.09-.16-.01,0-.02-.01-.03-.02Z"/>
        <path class="cls-9" d="M37.12,39.98c-.02.06-.04.12-.06.17.03-.05.06-.1.09-.16-.01,0-.02-.01-.03-.02Z"/>
        <path class="cls-87" d="M30.58,43.72c2.67,0,4.91-1.77,5.63-4.2-4.27-1.9-8.45-.8-11.13.39.83,2.22,2.98,3.81,5.5,3.81Z"/>
        <path class="cls-9" d="M30.58,43.72c2.67,0,4.91-1.77,5.63-4.2-4.27-1.9-8.45-.8-11.13.39.83,2.22,2.98,3.81,5.5,3.81Z"/>
        <path class="cls-87" d="M42.3,41.49c.09.13.19.24.28.36-.09-.12-.18-.25-.26-.38,0,0-.02.01-.03.01Z"/>
        <path class="cls-9" d="M42.3,41.49c.09.13.19.24.28.36-.09-.12-.18-.25-.26-.38,0,0-.02.01-.03.01Z"/>
        <path class="cls-87" d="M48.26,43.72c2.18,0,4.07-1.18,5.09-2.94-3.82-2.05-7.44-1.19-10.07.17,1.04,1.66,2.88,2.77,4.99,2.77Z"/>
        <path class="cls-9" d="M48.26,43.72c2.18,0,4.07-1.18,5.09-2.94-3.82-2.05-7.44-1.19-10.07.17,1.04,1.66,2.88,2.77,4.99,2.77Z"/>
        <path class="cls-158" d="M54.94,36.23s-.06,0-.08,0c-.41-1.66-1.43-3.09-2.81-4.03-1.1-.75-2.43-1.2-3.87-1.2s-2.65.4-3.72,1.09c-1.84,1.18-3.08,3.22-3.16,5.55-.22-.1-.45-.17-.7-.24-.68-.17-1.45-.2-2.2-.07-.32.06-.64.14-.95.25-.12-2.98-2.15-5.48-4.91-6.3-.63-.19-1.29-.29-1.97-.29-.78,0-1.52.13-2.21.37-2.21.75-3.9,2.58-4.46,4.86-.03,0-.06,0-.1,0-.34,0-.62.28-.62.62v1.83c0,.34.28.62.62.62.02,0,.04,0,.05,0,.01.06.03.12.04.18.52,2.16,2.05,3.92,4.07,4.75.8.33,1.68.51,2.61.51,1.83,0,3.5-.72,4.73-1.88.79-.74,1.4-1.67,1.76-2.71.02-.06.04-.12.06-.17.17-.52.28-1.05.32-1.61.29-.13.6-.22.91-.28.79-.17,1.59-.13,2.28.09.25.08.49.18.7.32.1,1.09.45,2.11,1,2.99.08.13.17.25.26.38,1.25,1.74,3.29,2.89,5.6,2.89.66,0,1.29-.09,1.89-.27,1.66-.47,3.07-1.56,3.96-2.99.41-.66.71-1.4.88-2.18.01,0,.02,0,.04,0,.34,0,.62-.28.62-.62v-1.83c0-.34-.28-.62-.62-.62ZM36.21,39.52c-.72,2.43-2.96,4.2-5.63,4.2-2.52,0-4.66-1.59-5.5-3.81-.24-.64-.37-1.32-.37-2.04,0-3.23,2.63-5.85,5.87-5.85s5.87,2.62,5.87,5.85c0,.57-.09,1.13-.24,1.65ZM53.35,40.78c-1.01,1.75-2.91,2.94-5.09,2.94s-3.95-1.11-4.99-2.77c-.56-.89-.88-1.95-.88-3.07,0-3.23,2.63-5.85,5.87-5.85s5.87,2.62,5.87,5.85c0,1.06-.29,2.05-.78,2.91Z"/>
      </g>
      <path class="cls-47" d="M59.3,75.35c-.19-.69-.41-1.41-.67-2.32,0,0,0,0,0,0h3.5c-.05-.86-.11-1.54-.19-1.7,0-.04-.02-.08-.02-.12-.29-1.37-.03-2.25-.87-3.3-.4-.5-1.04-1.03-2.11-1.67-.03-.01-.77-.24-1.87-.59t-.03-.01c-.56-.18-1.22-.38-1.91-.61-.07-.02-.15-.05-.22-.07-5.63,5.19-10.66,7.25-14.97,7.59v2.79h19.36Z"/>
      <path class="cls-47" d="M39.94,78.88h19.98c-.06-.84-.16-1.52-.29-2.15h-19.69v2.15Z"/>
      <path class="cls-14" d="M39.94,72.56c-8.55.67-14.21-5.46-15.86-7.52-.72.23-1.39.45-1.96.63h-.01c-1.09.35-1.83.58-1.86.59-1.15.69-1.8,1.25-2.19,1.78-.73.99-.53,1.85-.79,3.14,0,.04-.02.08-.03.13h0v.04s-.03.07-.04.15h0c-.06.3-.11.86-.15,1.55h3.4s-.01.05-.02.07c-.24.87-.46,1.57-.64,2.24h20.14v-2.79Z"/>
      <path class="cls-14" d="M19.47,76.73c-.12.63-.22,1.31-.28,2.15h20.75v-2.15h-20.47Z"/>
      <path class="cls-14" d="M39.94,75.35v1.38h19.69c-.09-.47-.21-.92-.33-1.38h-19.36Z"/>
      <path class="cls-47" d="M39.94,75.35h-20.14c-.12.46-.23.9-.33,1.38h20.47v-1.38Z"/>
      <path class="cls-1" d="M56.69,13.03c-1.76-1.5-3.99-2.04-3.99-2.04,0,0-4.93-2.26-8.69-3.86-3.75-1.61-9.85-.32-13.02.43-3.17.75-6.94,4.87-8.11,7.12-1.17,2.26-4.09,7.15-5.03,10.69-.94,3.54,2.22,6.98,4.18,7.71,1.28.48,1.36,3.23,1.36,3.23l1.4.57s-.38-3.35,1.6-3.27c.52-.02,0-.51.57-.66,0,0-3.02-2.27-2.96-5.12.54-.1,3.41-.63,6.5-1.29,4.72-1.27,10.47-3.61,11.84-7.68,4.98,1.15,4.42,9.99,4.42,9.99,0,0,4.27-1.31,4.74-6.9.09.06.18.11.27.17.22.15.44.31.67.47,0,0,5.05,5.88-5.45,10.68,0,0,4.73.69,8.42-1.57l-.4,5.1.97-.67.74-.48s0-1.7,2.11-2.77c1.68-.85,2.1-3.74,2.1-4.94,0-7.99-2.49-13.4-4.25-14.91Z"/>
    </g>
  </g>
</svg>