<?xml version="1.0" encoding="UTF-8"?>
<svg id="Layer_2" data-name="Layer 2" xmlns="http://www.w3.org/2000/svg" xmlns:xlink="http://www.w3.org/1999/xlink" viewBox="0 0 78.88 78.88">
  <defs>
    <style>
      .cls-1 {
        fill: none;
      }

      .cls-2 {
        fill: #354148;
      }

      .cls-3 {
        fill: #7d99ae;
      }

      .cls-4 {
        fill: #84a2b8;
      }

      .cls-5 {
        fill: #debaad;
      }

      .cls-6 {
        fill: #4e606b;
      }

      .cls-7 {
        fill: #bf6c6c;
      }

      .cls-8 {
        fill: #7791a4;
      }

      .cls-9 {
        fill: #7b97ab;
      }

      .cls-10 {
        fill: #677e8d;
      }

      .cls-11 {
        fill: #86a3ba;
      }

      .cls-12 {
        fill: #364349;
      }

      .cls-13 {
        fill: #313d43;
      }

      .cls-14 {
        fill: #809cb2;
      }

      .cls-15 {
        fill: #6d8596;
      }

      .cls-16 {
        fill: #44545c;
      }

      .cls-17 {
        fill: #46565f;
      }

      .cls-18 {
        fill: #66a5d9;
      }

      .cls-19 {
        fill: #7893a6;
      }

      .cls-20 {
        fill: #87a5bc;
      }

      .cls-21 {
        fill: #748d9f;
      }

      .cls-22 {
        fill: #627886;
      }

      .cls-23 {
        fill: #576b77;
      }

      .cls-24 {
        fill: #829fb5;
      }

      .cls-25 {
        fill: #b89388;
      }

      .cls-26 {
        fill: #485862;
      }

      .cls-27 {
        fill: #6f8899;
      }

      .cls-28 {
        fill: #5b6f7c;
      }

      .cls-29 {
        fill: #7892a6;
      }

      .cls-30 {
        fill: #829fb4;
      }

      .cls-31 {
        fill: #7690a2;
      }

      .cls-32 {
        fill: #596c79;
      }

      .cls-33 {
        fill: #748ea0;
      }

      .cls-34 {
        fill: #728b9c;
      }

      .cls-35 {
        fill: #9065a2;
      }

      .cls-36 {
        fill: #88a6be;
      }

      .cls-37 {
        fill: #a88a6b;
      }

      .cls-38 {
        fill: #48443b;
      }

      .cls-39 {
        fill: #738d9f;
      }

      .cls-40 {
        fill: #495963;
      }

      .cls-41 {
        fill: #87a4bb;
      }

      .cls-42 {
        fill: #617785;
      }

      .cls-43 {
        fill: #819db3;
      }

      .cls-44 {
        fill: #95bacb;
      }

      .cls-45 {
        fill: #657b8a;
      }

      .cls-46 {
        fill: #85a2b8;
      }

      .cls-47 {
        fill: #7f9bb0;
      }

      .cls-48 {
        fill: #667c8b;
      }

      .cls-49 {
        fill: #38454c;
      }

      .cls-50 {
        fill: #3e4d54;
      }

      .cls-51 {
        fill: #687f8f;
      }

      .cls-52 {
        fill: #7e9aae;
      }

      .cls-53 {
        fill: #88a7be;
      }

      .cls-54 {
        fill: #5b707d;
      }

      .cls-55 {
        fill: #7a96a9;
      }

      .cls-56 {
        fill: #829eb4;
      }

      .cls-57 {
        fill: #7a95a9;
      }

      .cls-58 {
        fill: #6c8495;
      }

      .cls-59 {
        fill: #7c98ac;
      }

      .cls-60 {
        fill: #85a2b9;
      }

      .cls-61 {
        fill: #677d8d;
      }

      .cls-62 {
        fill: #39464e;
      }

      .cls-63 {
        fill: #3d4b53;
      }

      .cls-64 {
        fill: #344046;
      }

      .cls-65 {
        fill: #586c78;
      }

      .cls-66 {
        fill: #596d7a;
      }

      .cls-67 {
        fill: #87a6bd;
      }

      .cls-68 {
        fill: #637988;
      }

      .cls-69 {
        fill: #37444b;
      }

      .cls-70 {
        fill: #7c97ab;
      }

      .cls-71 {
        fill: #6d8595;
      }

      .cls-72 {
        fill: #526570;
      }

      .cls-73 {
        fill: #70899b;
      }

      .cls-74 {
        fill: #738c9e;
      }

      .cls-75 {
        fill: #4e5f6a;
      }

      .cls-76 {
        clip-path: url(#clippath-1);
      }

      .cls-77 {
        fill: #b79a7c;
      }

      .cls-78 {
        fill: #546672;
      }

      .cls-79 {
        fill: #84a1b7;
      }

      .cls-80 {
        fill: #718a9c;
      }

      .cls-81 {
        fill: #5f7481;
      }

      .cls-82 {
        fill: #f1d4c8;
      }

      .cls-83 {
        fill: #6e8697;
      }

      .cls-84 {
        fill: #303c42;
      }

      .cls-85 {
        fill: #85a3b9;
      }

      .cls-86 {
        fill: #7e9baf;
      }

      .cls-87 {
        fill: #6a8292;
      }

      .cls-88 {
        fill: #758fa1;
      }

      .cls-89 {
        fill: #6b8292;
      }

      .cls-90 {
        fill: #83a1b7;
      }

      .cls-91 {
        fill: #7994a7;
      }

      .cls-92 {
        fill: #6b8393;
      }

      .cls-93 {
        fill: #647a89;
      }

      .cls-94 {
        fill: #6e8798;
      }

      .cls-95 {
        fill: #fff;
      }

      .cls-96 {
        fill: #7f9cb1;
      }

      .cls-97 {
        fill: #87a5bb;
      }

      .cls-98 {
        fill: #353128;
      }

      .cls-99 {
        fill: #536671;
      }

      .cls-100 {
        fill: #5e7380;
      }

      .cls-101 {
        fill: #4d5e69;
      }

      .cls-102 {
        fill: #566975;
      }

      .cls-103 {
        fill: #6a8191;
      }

      .cls-104 {
        fill: #809db2;
      }

      .cls-105 {
        fill: #4c5d68;
      }

      .cls-106 {
        fill: #809cb1;
      }

      .cls-107 {
        fill: #4b5c67;
      }

      .cls-108 {
        fill: #475760;
      }

      .cls-109 {
        fill: #7691a3;
      }

      .cls-110 {
        fill: #3a484f;
      }

      .cls-111 {
        fill: #51636e;
      }

      .cls-112 {
        fill: #7d99ad;
      }

      .cls-113 {
        fill: #4f616c;
      }

      .cls-114 {
        fill: #819eb4;
      }

      .cls-115 {
        fill: #4a5b65;
      }

      .cls-116 {
        fill: #698090;
      }

      .cls-117 {
        opacity: .3;
      }

      .cls-118 {
        fill: #7690a3;
      }

      .cls-119 {
        fill: #5d727f;
      }

      .cls-120 {
        fill: #415059;
      }

      .cls-121 {
        fill: #2d383d;
      }

      .cls-122 {
        fill: #50626d;
      }

      .cls-123 {
        fill: #7893a7;
      }

      .cls-124 {
        fill: #43525b;
      }

      .cls-125 {
        fill: #748ea1;
      }

      .cls-126 {
        fill: #7994a8;
      }

      .cls-127 {
        fill: #546773;
      }

      .cls-128 {
        fill: #83a0b6;
      }

      .cls-129 {
        fill: #26200c;
      }

      .cls-130 {
        fill: #607583;
      }

      .cls-131 {
        fill: #556874;
      }

      .cls-132 {
        fill: #687f8e;
      }

      .cls-133 {
        fill: #667d8c;
      }

      .cls-134 {
        fill: #728b9d;
      }

      .cls-135 {
        fill: #323f45;
      }

      .cls-136 {
        fill: #86a4bb;
      }

      .cls-137 {
        fill: #7792a5;
      }

      .cls-138 {
        fill: #84a1b8;
      }

      .cls-139 {
        fill: #55237e;
      }

      .cls-140 {
        fill: #5c707e;
      }

      .cls-141 {
        fill: #698190;
      }

      .cls-142 {
        fill: #637987;
      }

      .cls-143 {
        fill: #3c4a52;
      }

      .cls-144 {
        fill: #42515a;
      }

      .cls-145 {
        fill: #c6a095;
      }

      .cls-146 {
        fill: #3b4950;
      }

      .cls-147 {
        fill: #6c8494;
      }

      .cls-148 {
        fill: #88a6bd;
      }

      .cls-149 {
        fill: #404f57;
      }

      .cls-150 {
        fill: #47433b;
      }

      .cls-151 {
        fill: #51646f;
      }

      .cls-152 {
        fill: #7c97ac;
      }

      .cls-153 {
        fill: #5a6e7b;
      }

      .cls-154 {
        fill: #647b8a;
      }

      .cls-155 {
        fill: #45555e;
      }

      .cls-156 {
        fill: #7e9aaf;
      }

      .cls-157 {
        fill: #3f4e56;
      }

      .cls-158 {
        fill: #2f3b40;
      }

      .cls-159 {
        fill: #4a5a64;
      }

      .cls-160 {
        fill: #607684;
      }

      .cls-161 {
        fill: #49443b;
      }

      .cls-162 {
        fill: #718a9b;
      }

      .cls-163 {
        fill: #5d717f;
      }

      .cls-164 {
        clip-path: url(#clippath);
      }

      .cls-165 {
        fill: #82a0b5;
      }

      .cls-166 {
        fill: #2e393f;
      }

      .cls-167 {
        fill: #70899a;
      }

      .cls-168 {
        fill: #7b96aa;
      }

      .cls-169 {
        fill: #758fa2;
      }

      .cls-170 {
        fill: #86a4ba;
      }

      .cls-171 {
        fill: #5f7482;
      }

      .cls-172 {
        fill: #7c98ad;
      }

      .cls-173 {
        fill: #819eb3;
      }

      .cls-174 {
        fill: #85a3ba;
      }

      .cls-175 {
        fill: #728c9e;
      }

      .cls-176 {
        fill: #576a76;
      }

      .cls-177 {
        fill: #627786;
      }

      .cls-178 {
        fill: #ab5b64;
      }
    </style>
    <clipPath id="clippath">
      <path class="cls-1" d="M33.95,36.08c-.1,1.18-1.15,2.06-2.36,1.96-1.2-.1-2.1-1.14-2-2.32.1-1.19,1.15-2.07,2.36-1.97,1.2.1,2.1,1.14,2,2.33Z"/>
    </clipPath>
    <clipPath id="clippath-1">
      <path class="cls-1" d="M49.35,35.96c-.1,1.18-1.15,2.06-2.36,1.96-1.2-.1-2.1-1.14-2-2.32.1-1.19,1.15-2.07,2.36-1.97,1.2.1,2.1,1.14,2,2.33Z"/>
    </clipPath>
  </defs>
  <g id="Layer_1-2" data-name="Layer 1">
    <g>
      <rect class="cls-139" width="78.88" height="78.88"/>
      <path class="cls-77" d="M58.59,33.28c-.78-1.18-1.99-.67-2.28-.41-.32.28-.57.66-.37,1.36.11.39.55.42.44,1.02-.12.67-.45.72-.63.87-.19.15-.42.27-.53.55-.11.28-.13.59-.07.85.12.48.86.1,1.36-.12.32-.14,1.38-.98,1.64-1.26.67-.71.98-2.08.45-2.87"/>
      <path class="cls-35" d="M26.43,23.37c4.34,9.92-5.15,15.11-4.23,17.61.91,2.5,2.83,4.81,2.22,7.1-.61,2.29-1.35,2.12-1.85,3.99-.51,1.87.46,2.87.46,2.87,0,0-1.55-1.47-1.69-2.44-.15-.97,1.01-2.36,1.45-3.81.43-1.46.74-1.45-.96-4.36-1.7-2.92-2.56-6.29-.9-7.46,2.38-1.66,5.5-13.48,5.5-13.48"/>
      <path class="cls-82" d="M61.29,77.89s-.1-6.02-.34-6.54c-.46-2.1.36-3.06-2.88-5.08-.03-.01-.74-.24-1.8-.59t-.02-.01c-.69-.22-1.52-.5-2.4-.8-.34-.11-.67-.24-1.02-.35-.86-.3-1.72-.62-2.51-.92-.55-.21-1.07-.41-1.51-.59-.38-.16-.71-.32-.97-.45-.28-.14-.48-.27-.59-.38-.01-.01-.04-.05-.08-.09-.02-.04-.05-.06-.07-.1-.06-.35-1-1.89-1.32-3.56h0c-.07-.35-.11-.67-.12-1.01-.03-.49-.03-.97-.04-1.41-.01-.45-.02-.86-.04-1.2v-.29c-.01-.24-.01-.44-.01-.59-.01-.15-.01-.24-.01-.24,0,0,.35-.3.86-.75.64-.57,1.55-1.4,2.33-2.18.85-.85,1.59-1.66,1.75-2.08.01-.06.02-.11.02-.15,0,0-.02,0-.06.01-.4.06-2.55.44-4.86.8-1.37.21-2.81.43-3.98.57-.46.06-.89.1-1.25.14h-.01c-.34.04-.62.05-.84.05-.24,0-.56-.02-.95-.05h-.03c-.37-.05-.82-.1-1.31-.16-1.07-.14-2.36-.32-3.61-.51-1.15-.19-2.27-.36-3.16-.51-.21-.04-.4-.06-.57-.1-.85-.14-1.39-.24-1.39-.24,0,.16.15.41.4.74,0,0,0,.01.01.01.19.25.44.54.74.86.29.3.6.61.92.92.99.96,2.06,1.91,2.58,2.36.2.17.31.27.31.27,0,0,0,.09-.01.24,0,.15,0,.35-.01.59v.29c0,.1,0,.2-.01.3-.01.65-.04,1.46-.06,2.31-.01.34-.05.66-.12,1-.33,1.67-1.26,3.22-1.32,3.57-.03.04-.05.06-.07.1-.04.04-.06.08-.08.09-.05.05-.14.11-.24.18-.23.15-.57.32-.99.52-.37.16-.8.34-1.27.52-1.11.43-2.43.91-3.7,1.34-.09.03-.17.06-.26.09-.94.32-1.84.62-2.56.86h-.01c-1.05.35-1.76.57-1.79.59-3.22,2.01-2.43,2.97-2.88,5.04h0v.04s-.03.07-.04.15h0c-.21,1.1-.3,6.39-.3,6.39,0,.32,0,.65,0,.99h43.58c0-.34,0-.67-.01-.99Z"/>
      <path class="cls-145" d="M45.78,58.41c-.07-.34-.11-.66-.12-1-.04-1.12-.06-2.2-.07-2.9-1.87.84-3.8,1.32-5.68,1.32-.11.02-.25.02-.38.02s-.27,0-.38-.02c-1.89,0-3.81-.49-5.68-1.32-.01.7-.04,1.77-.07,2.9-.01.34-.05.66-.12,1,1.81,1.51,4.26,3.07,5.88,3.07.1.02.23.02.34.02h0s.03,0,.04,0,.03,0,.04,0h0c.12,0,.24,0,.34-.03,1.62,0,4.07-1.56,5.88-3.07Z"/>
      <g>
        <path class="cls-82" d="M55.59,36c.31-1.73.56-3.05.63-3.31.04-.12.06-.25.1-.37.03-.15.06-.29.09-.42.06-.21.1-.43.15-.64.01-.1.04-.2.05-.3.04-.24.09-.48.12-.71.01-.1.03-.21.04-.31.04-.21.05-.42.08-.64.01-.16.02-.33.05-.47.01-.14.01-.28.02-.41.16-3.26-.54-6.58-2.67-9.59-2.58-3.62-5.56-7.45-12.01-7.99h-5.44c-6.46.54-9.43,4.37-12.01,7.99-2.13,3.01-2.83,6.33-2.67,9.59.01.14.01.27.02.41.02.15.04.31.05.47.02.21.04.42.07.64.01.1.03.21.04.31.04.24.09.47.13.71.01.1.04.2.05.3.05.21.09.43.15.64.03.14.06.27.09.42.04.12.06.25.1.37.08.26.32,1.57.63,3.29-1.72-.84-4.11.36-3.83,3.53.29,3.22,4.21,5.13,5.55,5.45.13.58.24,1.02.33,1.22,1.17,2.96,2.6,3.85,5.09,6.26,2.72,2.61,6.74,5.06,8.73,5.04.06.01.14.01.21.01s.15,0,.21-.01c1.98.01,6-2.43,8.73-5.04,2.5-2.41,3.92-3.3,5.09-6.26.08-.21.19-.63.32-1.21,1.29-.29,5.29-2.21,5.59-5.46.29-3.2-2.15-4.4-3.88-3.51Z"/>
        <path class="cls-5" d="M58.2,37.77c-.97-1.58-2.49-.91-2.87-.57-.4.37-.72.87-.48,1.8.13.52.68.57.54,1.37-.16.89-.57.95-.8,1.15-.23.2-.53.35-.68.73-.14.37-.17.77-.1,1.12.15.65,1.09.14,1.72-.14.42-.18,1.74-1.29,2.08-1.65.84-.94,1.25-2.74.6-3.8"/>
      </g>
      <path class="cls-5" d="M36.75,51.32c-.06-.82,2.31.17,3.09.2.62.02,2.49-.12,2.67-.19,1.31-.49-.07,1.38-2.7,1.48-1.21.05-3.02-.99-3.06-1.49Z"/>
      <g>
        <path class="cls-178" d="M44.58,50.25c-1.51-.28-4.68-.89-4.68-.89-2.62.43-4.67.88-4.68.9-.06,0,2.09,1.93,4.65,1.8h0c2.55.13,4.78-1.8,4.72-1.81Z"/>
        <path class="cls-7" d="M41.4,48.83c-.68-.07-1.15.32-1.49.29-.35.03-.82-.36-1.5-.29-.97.21-1.43.82-3.19,1.43.06.12,1.19-.15,3.3-.11.03,0,.6.32,1.4.31.5,0,1.19-.34,1.22-.34,2.11-.03,3.4.26,3.46.14-2.32-.71-2.23-1.23-3.2-1.44Z"/>
      </g>
      <path class="cls-37" d="M41.15,44.87c.34-.23.74-.12.74-.12,0,0,0,0-.01.02-.08.14-.54.87-.91.86,0,0-.08-.07-.1-.24-.03-.17.11-.4.28-.52Z"/>
      <path class="cls-5" d="M36.53,44.64c-.07-1.65,2.56-.6,3.43-.55.69.04,2.77-.52,2.95-.38,1.22.98-1.3,2.95-2.99,2.95-.45,0-3.34-1.03-3.38-2.03Z"/>
      <path class="cls-25" d="M38.52,44.84c-.34-.23-.74-.12-.74-.12,0,0,0,0,.01.02.08.14.54.87.91.86,0,0,.08-.07.1-.24.03-.17-.11-.4-.28-.52Z"/>
      <path class="cls-38" d="M36.08,33.34s-.4-.4-1.14-.89c-.35-.26-.81-.48-1.3-.71-.49-.23-1.04-.4-1.61-.5-.56-.13-1.15-.16-1.71-.15-.28.02-.55.04-.8.06-.26.01-.5.08-.72.11-.45.07-.82.18-1.09.24-.27.06-.42.1-.42.1,0,0,.13-.08.37-.23.24-.13.57-.37,1.02-.53.44-.19.98-.36,1.58-.48.6-.08,1.26-.12,1.92-.05.66.09,1.3.27,1.87.51.57.24,1.06.56,1.45.86.78.59,1.16,1.18,1.16,1.18h0c.12.18.07.42-.11.54-.15.1-.35.07-.48-.05Z"/>
      <path class="cls-95" d="M26.89,35.1s1.46,3.64,3.73,3.99c2.27.35,4.69-.16,4.69-.16,0,0,.06-4.22-1.12-4.81-1.18-.59-3.87-1.46-7.3.98Z"/>
      <g class="cls-164">
        <polygon class="cls-121" points="34.05 34.45 29.49 34.08 29.49 33.66 34.05 33.66 34.05 34.45"/>
        <polygon class="cls-121" points="34.05 34.47 29.49 34.1 29.49 34.08 34.05 34.45 34.05 34.47"/>
        <polygon class="cls-166" points="34.05 34.5 29.49 34.12 29.49 34.1 34.05 34.47 34.05 34.5"/>
        <polygon class="cls-158" points="34.05 34.52 29.49 34.14 29.49 34.12 34.05 34.5 34.05 34.52"/>
        <polygon class="cls-84" points="34.05 34.54 29.49 34.16 29.49 34.14 34.05 34.52 34.05 34.54"/>
        <polygon class="cls-13" points="34.05 34.56 29.49 34.18 29.49 34.16 34.05 34.54 34.05 34.56"/>
        <polygon class="cls-135" points="34.05 34.58 29.49 34.2 29.49 34.18 34.05 34.56 34.05 34.58"/>
        <polygon class="cls-64" points="34.05 34.6 29.49 34.22 29.49 34.2 34.05 34.58 34.05 34.6"/>
        <polygon class="cls-2" points="34.05 34.62 29.49 34.25 29.49 34.22 34.05 34.6 34.05 34.62"/>
        <polygon class="cls-12" points="34.05 34.64 29.49 34.27 29.49 34.25 34.05 34.62 34.05 34.64"/>
        <polygon class="cls-69" points="34.05 34.66 29.49 34.29 29.49 34.27 34.05 34.64 34.05 34.66"/>
        <polygon class="cls-49" points="34.05 34.68 29.49 34.31 29.49 34.29 34.05 34.66 34.05 34.68"/>
        <polygon class="cls-62" points="34.05 34.71 29.49 34.33 29.49 34.31 34.05 34.68 34.05 34.71"/>
        <polygon class="cls-110" points="34.05 34.73 29.49 34.35 29.49 34.33 34.05 34.71 34.05 34.73"/>
        <polygon class="cls-146" points="34.05 34.75 29.49 34.37 29.49 34.35 34.05 34.73 34.05 34.75"/>
        <polygon class="cls-143" points="34.05 34.77 29.49 34.39 29.49 34.37 34.05 34.75 34.05 34.77"/>
        <polygon class="cls-63" points="34.05 34.79 29.49 34.41 29.49 34.39 34.05 34.77 34.05 34.79"/>
        <polygon class="cls-50" points="34.05 34.81 29.49 34.43 29.49 34.41 34.05 34.79 34.05 34.81"/>
        <polygon class="cls-157" points="34.05 34.83 29.49 34.46 29.49 34.43 34.05 34.81 34.05 34.83"/>
        <polygon class="cls-149" points="34.05 34.85 29.49 34.48 29.49 34.46 34.05 34.83 34.05 34.85"/>
        <polygon class="cls-120" points="34.05 34.87 29.49 34.5 29.49 34.48 34.05 34.85 34.05 34.87"/>
        <polygon class="cls-144" points="34.05 34.89 29.49 34.52 29.49 34.5 34.05 34.87 34.05 34.89"/>
        <polygon class="cls-124" points="34.05 34.92 29.49 34.54 29.49 34.52 34.05 34.89 34.05 34.92"/>
        <polygon class="cls-16" points="34.05 34.94 29.49 34.56 29.49 34.54 34.05 34.92 34.05 34.94"/>
        <polygon class="cls-155" points="34.05 34.96 29.49 34.58 29.49 34.56 34.05 34.94 34.05 34.96"/>
        <polygon class="cls-17" points="34.05 34.98 29.49 34.6 29.49 34.58 34.05 34.96 34.05 34.98"/>
        <polygon class="cls-108" points="34.05 35 29.49 34.62 29.49 34.6 34.05 34.98 34.05 35"/>
        <polygon class="cls-26" points="34.05 35.02 29.49 34.64 29.49 34.62 34.05 35 34.05 35.02"/>
        <polygon class="cls-40" points="34.05 35.04 29.49 34.67 29.49 34.64 34.05 35.02 34.05 35.04"/>
        <polygon class="cls-159" points="34.05 35.06 29.49 34.69 29.49 34.67 34.05 35.04 34.05 35.06"/>
        <polygon class="cls-115" points="34.05 35.08 29.49 34.71 29.49 34.69 34.05 35.06 34.05 35.08"/>
        <polygon class="cls-107" points="34.05 35.1 29.49 34.73 29.49 34.71 34.05 35.08 34.05 35.1"/>
        <polygon class="cls-105" points="34.05 35.13 29.49 34.75 29.49 34.73 34.05 35.1 34.05 35.13"/>
        <polygon class="cls-101" points="34.05 35.15 29.49 34.77 29.49 34.75 34.05 35.13 34.05 35.15"/>
        <polygon class="cls-75" points="34.05 35.17 29.49 34.79 29.49 34.77 34.05 35.15 34.05 35.17"/>
        <polygon class="cls-6" points="34.05 35.19 29.49 34.81 29.49 34.79 34.05 35.17 34.05 35.19"/>
        <polygon class="cls-113" points="34.05 35.21 29.49 34.83 29.49 34.81 34.05 35.19 34.05 35.21"/>
        <polygon class="cls-122" points="34.05 35.23 29.49 34.85 29.49 34.83 34.05 35.21 34.05 35.23"/>
        <polygon class="cls-111" points="34.05 35.25 29.49 34.88 29.49 34.85 34.05 35.23 34.05 35.25"/>
        <polygon class="cls-151" points="34.05 35.27 29.49 34.9 29.49 34.88 34.05 35.25 34.05 35.27"/>
        <polygon class="cls-72" points="34.05 35.29 29.49 34.92 29.49 34.9 34.05 35.27 34.05 35.29"/>
        <polygon class="cls-99" points="34.05 35.31 29.49 34.94 29.49 34.92 34.05 35.29 34.05 35.31"/>
        <polygon class="cls-78" points="34.05 35.34 29.49 34.96 29.49 34.94 34.05 35.31 34.05 35.34"/>
        <polygon class="cls-127" points="34.05 35.36 29.49 34.98 29.49 34.96 34.05 35.34 34.05 35.36"/>
        <polygon class="cls-131" points="34.05 35.38 29.49 35 29.49 34.98 34.05 35.36 34.05 35.38"/>
        <polygon class="cls-102" points="34.05 35.4 29.49 35.02 29.49 35 34.05 35.38 34.05 35.4"/>
        <polygon class="cls-176" points="34.05 35.42 29.49 35.04 29.49 35.02 34.05 35.4 34.05 35.42"/>
        <polygon class="cls-23" points="34.05 35.44 29.49 35.06 29.49 35.04 34.05 35.42 34.05 35.44"/>
        <polygon class="cls-65" points="34.05 35.46 29.49 35.09 29.49 35.06 34.05 35.44 34.05 35.46"/>
        <polygon class="cls-32" points="34.05 35.48 29.49 35.11 29.49 35.09 34.05 35.46 34.05 35.48"/>
        <polygon class="cls-66" points="34.05 35.5 29.49 35.13 29.49 35.11 34.05 35.48 34.05 35.5"/>
        <polygon class="cls-153" points="34.05 35.52 29.49 35.15 29.49 35.13 34.05 35.5 34.05 35.52"/>
        <polygon class="cls-28" points="34.05 35.55 29.49 35.17 29.49 35.15 34.05 35.52 34.05 35.55"/>
        <polygon class="cls-54" points="34.05 35.57 29.49 35.19 29.49 35.17 34.05 35.55 34.05 35.57"/>
        <polygon class="cls-140" points="34.05 35.59 29.49 35.21 29.49 35.19 34.05 35.57 34.05 35.59"/>
        <polygon class="cls-163" points="34.05 35.61 29.49 35.23 29.49 35.21 34.05 35.59 34.05 35.61"/>
        <polygon class="cls-119" points="34.05 35.63 29.49 35.25 29.49 35.23 34.05 35.61 34.05 35.63"/>
        <polygon class="cls-100" points="34.05 35.65 29.49 35.27 29.49 35.25 34.05 35.63 34.05 35.65"/>
        <polygon class="cls-81" points="34.05 35.67 29.49 35.3 29.49 35.27 34.05 35.65 34.05 35.67"/>
        <polygon class="cls-171" points="34.05 35.69 29.49 35.32 29.49 35.3 34.05 35.67 34.05 35.69"/>
        <polygon class="cls-130" points="34.05 35.71 29.49 35.34 29.49 35.32 34.05 35.69 34.05 35.71"/>
        <polygon class="cls-160" points="34.05 35.73 29.49 35.36 29.49 35.34 34.05 35.71 34.05 35.73"/>
        <polygon class="cls-42" points="34.05 35.76 29.49 35.38 29.49 35.36 34.05 35.73 34.05 35.76"/>
        <polygon class="cls-177" points="34.05 35.78 29.49 35.4 29.49 35.38 34.05 35.76 34.05 35.78"/>
        <polygon class="cls-22" points="34.05 35.8 29.49 35.42 29.49 35.4 34.05 35.78 34.05 35.8"/>
        <polygon class="cls-142" points="34.05 35.82 29.49 35.44 29.49 35.42 34.05 35.8 34.05 35.82"/>
        <polygon class="cls-68" points="34.05 35.84 29.49 35.46 29.49 35.44 34.05 35.82 34.05 35.84"/>
        <polygon class="cls-93" points="34.05 35.86 29.49 35.48 29.49 35.46 34.05 35.84 34.05 35.86"/>
        <polygon class="cls-154" points="34.05 35.88 29.49 35.51 29.49 35.48 34.05 35.86 34.05 35.88"/>
        <polygon class="cls-45" points="34.05 35.9 29.49 35.53 29.49 35.51 34.05 35.88 34.05 35.9"/>
        <polygon class="cls-48" points="34.05 35.92 29.49 35.55 29.49 35.53 34.05 35.9 34.05 35.92"/>
        <polygon class="cls-133" points="34.05 35.94 29.49 35.57 29.49 35.55 34.05 35.92 34.05 35.94"/>
        <polygon class="cls-61" points="34.05 35.97 29.49 35.59 29.49 35.57 34.05 35.94 34.05 35.97"/>
        <polygon class="cls-10" points="34.05 35.99 29.49 35.61 29.49 35.59 34.05 35.97 34.05 35.99"/>
        <polygon class="cls-132" points="34.05 36.01 29.49 35.63 29.49 35.61 34.05 35.99 34.05 36.01"/>
        <polygon class="cls-51" points="34.05 36.03 29.49 35.65 29.49 35.63 34.05 36.01 34.05 36.03"/>
        <polygon class="cls-116" points="34.05 36.05 29.49 35.67 29.49 35.65 34.05 36.03 34.05 36.05"/>
        <polygon class="cls-141" points="34.05 36.07 29.49 35.69 29.49 35.67 34.05 36.05 34.05 36.07"/>
        <polygon class="cls-103" points="34.05 36.09 29.49 35.72 29.49 35.69 34.05 36.07 34.05 36.09"/>
        <polygon class="cls-87" points="34.05 36.11 29.49 35.74 29.49 35.72 34.05 36.09 34.05 36.11"/>
        <polygon class="cls-89" points="34.05 36.13 29.49 35.76 29.49 35.74 34.05 36.11 34.05 36.13"/>
        <polygon class="cls-92" points="34.05 36.15 29.49 35.78 29.49 35.76 34.05 36.13 34.05 36.15"/>
        <polygon class="cls-147" points="34.05 36.18 29.49 35.8 29.49 35.78 34.05 36.15 34.05 36.18"/>
        <polygon class="cls-58" points="34.05 36.2 29.49 35.82 29.49 35.8 34.05 36.18 34.05 36.2"/>
        <polygon class="cls-71" points="34.05 36.22 29.49 35.84 29.49 35.82 34.05 36.2 34.05 36.22"/>
        <polygon class="cls-15" points="34.05 36.24 29.49 35.86 29.49 35.84 34.05 36.22 34.05 36.24"/>
        <polygon class="cls-83" points="34.05 36.26 29.49 35.88 29.49 35.86 34.05 36.24 34.05 36.26"/>
        <polygon class="cls-83" points="34.05 36.28 29.49 35.9 29.49 35.88 34.05 36.26 34.05 36.28"/>
        <polygon class="cls-94" points="34.05 36.3 29.49 35.93 29.49 35.9 34.05 36.28 34.05 36.3"/>
        <polygon class="cls-27" points="34.05 36.32 29.49 35.95 29.49 35.93 34.05 36.3 34.05 36.32"/>
        <polygon class="cls-27" points="34.05 36.34 29.49 35.97 29.49 35.95 34.05 36.32 34.05 36.34"/>
        <polygon class="cls-167" points="34.05 36.36 29.49 35.99 29.49 35.97 34.05 36.34 34.05 36.36"/>
        <polygon class="cls-73" points="34.05 36.39 29.49 36.01 29.49 35.99 34.05 36.36 34.05 36.39"/>
        <polygon class="cls-162" points="34.05 36.41 29.49 36.03 29.49 36.01 34.05 36.39 34.05 36.41"/>
        <polygon class="cls-80" points="34.05 36.43 29.49 36.05 29.49 36.03 34.05 36.41 34.05 36.43"/>
        <polygon class="cls-34" points="34.05 36.45 29.49 36.07 29.49 36.05 34.05 36.43 34.05 36.45"/>
        <polygon class="cls-134" points="34.05 36.47 29.49 36.09 29.49 36.07 34.05 36.45 34.05 36.47"/>
        <polygon class="cls-175" points="34.05 36.49 29.49 36.11 29.49 36.09 34.05 36.47 34.05 36.49"/>
        <polygon class="cls-74" points="34.05 36.51 29.49 36.14 29.49 36.11 34.05 36.49 34.05 36.51"/>
        <polygon class="cls-39" points="34.05 36.53 29.49 36.16 29.49 36.14 34.05 36.51 34.05 36.53"/>
        <polygon class="cls-21" points="34.05 36.55 29.49 36.18 29.49 36.16 34.05 36.53 34.05 36.55"/>
        <polygon class="cls-33" points="34.05 36.57 29.49 36.2 29.49 36.18 34.05 36.55 34.05 36.57"/>
        <polygon class="cls-125" points="34.05 36.6 29.49 36.22 29.49 36.2 34.05 36.57 34.05 36.6"/>
        <polygon class="cls-88" points="34.05 36.62 29.49 36.24 29.49 36.22 34.05 36.6 34.05 36.62"/>
        <polygon class="cls-169" points="34.05 36.64 29.49 36.26 29.49 36.24 34.05 36.62 34.05 36.64"/>
        <polygon class="cls-31" points="34.05 36.66 29.49 36.28 29.49 36.26 34.05 36.64 34.05 36.66"/>
        <polygon class="cls-118" points="34.05 36.68 29.49 36.3 29.49 36.28 34.05 36.66 34.05 36.68"/>
        <polygon class="cls-109" points="34.05 36.7 29.49 36.32 29.49 36.3 34.05 36.68 34.05 36.7"/>
        <polygon class="cls-8" points="34.05 36.72 29.49 36.35 29.49 36.32 34.05 36.7 34.05 36.72"/>
        <polygon class="cls-137" points="34.05 36.74 29.49 36.37 29.49 36.35 34.05 36.72 34.05 36.74"/>
        <polygon class="cls-137" points="34.05 36.76 29.49 36.39 29.49 36.37 34.05 36.74 34.05 36.76"/>
        <polygon class="cls-29" points="34.05 36.78 29.49 36.41 29.49 36.39 34.05 36.76 34.05 36.78"/>
        <polygon class="cls-19" points="34.05 36.81 29.49 36.43 29.49 36.41 34.05 36.78 34.05 36.81"/>
        <polygon class="cls-123" points="34.05 36.83 29.49 36.45 29.49 36.43 34.05 36.81 34.05 36.83"/>
        <polygon class="cls-91" points="34.05 36.85 29.49 36.47 29.49 36.45 34.05 36.83 34.05 36.85"/>
        <polygon class="cls-126" points="34.05 36.87 29.49 36.49 29.49 36.47 34.05 36.85 34.05 36.87"/>
        <polygon class="cls-126" points="34.05 36.89 29.49 36.51 29.49 36.49 34.05 36.87 34.05 36.89"/>
        <polygon class="cls-57" points="34.05 36.91 29.49 36.53 29.49 36.51 34.05 36.89 34.05 36.91"/>
        <polygon class="cls-57" points="34.05 36.93 29.49 36.56 29.49 36.53 34.05 36.91 34.05 36.93"/>
        <polygon class="cls-55" points="34.05 36.95 29.49 36.58 29.49 36.56 34.05 36.93 34.05 36.95"/>
        <polygon class="cls-168" points="34.05 36.97 29.49 36.6 29.49 36.58 34.05 36.95 34.05 36.97"/>
        <polygon class="cls-168" points="34.05 36.99 29.49 36.62 29.49 36.6 34.05 36.97 34.05 36.99"/>
        <polygon class="cls-9" points="34.05 37.02 29.49 36.64 29.49 36.62 34.05 36.99 34.05 37.02"/>
        <polygon class="cls-70" points="34.05 37.04 29.49 36.66 29.49 36.64 34.05 37.02 34.05 37.04"/>
        <polygon class="cls-152" points="34.05 37.06 29.49 36.68 29.49 36.66 34.05 37.04 34.05 37.06"/>
        <polygon class="cls-59" points="34.05 37.08 29.49 36.7 29.49 36.68 34.05 37.06 34.05 37.08"/>
        <polygon class="cls-172" points="34.05 37.1 29.49 36.72 29.49 36.7 34.05 37.08 34.05 37.1"/>
        <polygon class="cls-112" points="34.05 37.12 29.49 36.74 29.49 36.72 34.05 37.1 34.05 37.12"/>
        <polygon class="cls-112" points="34.05 37.14 29.49 36.77 29.49 36.74 34.05 37.12 34.05 37.14"/>
        <polygon class="cls-3" points="34.05 37.16 29.49 36.79 29.49 36.77 34.05 37.14 34.05 37.16"/>
        <polygon class="cls-52" points="34.05 37.18 29.49 36.81 29.49 36.79 34.05 37.16 34.05 37.18"/>
        <polygon class="cls-156" points="34.05 37.2 29.49 36.83 29.49 36.81 34.05 37.18 34.05 37.2"/>
        <polygon class="cls-156" points="34.05 37.23 29.49 36.85 29.49 36.83 34.05 37.2 34.05 37.23"/>
        <polygon class="cls-86" points="34.05 37.25 29.49 36.87 29.49 36.85 34.05 37.23 34.05 37.25"/>
        <polygon class="cls-47" points="34.05 37.27 29.49 36.89 29.49 36.87 34.05 37.25 34.05 37.27"/>
        <polygon class="cls-47" points="34.05 37.29 29.49 36.91 29.49 36.89 34.05 37.27 34.05 37.29"/>
        <polygon class="cls-96" points="34.05 37.31 29.49 36.93 29.49 36.91 34.05 37.29 34.05 37.31"/>
        <polygon class="cls-96" points="34.05 37.33 29.49 36.95 29.49 36.93 34.05 37.31 34.05 37.33"/>
        <polygon class="cls-106" points="34.05 37.35 29.49 36.98 29.49 36.95 34.05 37.33 34.05 37.35"/>
        <polygon class="cls-14" points="34.05 37.37 29.49 37 29.49 36.98 34.05 37.35 34.05 37.37"/>
        <polygon class="cls-104" points="34.05 37.39 29.49 37.02 29.49 37 34.05 37.37 34.05 37.39"/>
        <polygon class="cls-104" points="34.05 37.41 29.49 37.04 29.49 37.02 34.05 37.39 34.05 37.41"/>
        <polygon class="cls-43" points="34.05 37.44 29.49 37.06 29.49 37.04 34.05 37.41 34.05 37.44"/>
        <polygon class="cls-173" points="34.05 37.46 29.49 37.08 29.49 37.06 34.05 37.44 34.05 37.46"/>
        <polygon class="cls-173" points="34.05 37.48 29.49 37.1 29.49 37.08 34.05 37.46 34.05 37.48"/>
        <polygon class="cls-114" points="34.05 37.5 29.49 37.12 29.49 37.1 34.05 37.48 34.05 37.5"/>
        <polygon class="cls-56" points="34.05 37.52 29.49 37.14 29.49 37.12 34.05 37.5 34.05 37.52"/>
        <polygon class="cls-30" points="34.05 37.54 29.49 37.16 29.49 37.14 34.05 37.52 34.05 37.54"/>
        <polygon class="cls-24" points="34.05 37.56 29.49 37.19 29.49 37.16 34.05 37.54 34.05 37.56"/>
        <polygon class="cls-24" points="34.05 37.58 29.49 37.21 29.49 37.19 34.05 37.56 34.05 37.58"/>
        <polygon class="cls-165" points="34.05 37.6 29.49 37.23 29.49 37.21 34.05 37.58 34.05 37.6"/>
        <polygon class="cls-128" points="34.05 37.62 29.49 37.25 29.49 37.23 34.05 37.6 34.05 37.62"/>
        <polygon class="cls-128" points="34.05 37.65 29.49 37.27 29.49 37.25 34.05 37.62 34.05 37.65"/>
        <polygon class="cls-128" points="34.05 37.67 29.49 37.29 29.49 37.27 34.05 37.65 34.05 37.67"/>
        <polygon class="cls-90" points="34.05 37.69 29.49 37.31 29.49 37.29 34.05 37.67 34.05 37.69"/>
        <polygon class="cls-90" points="34.05 37.71 29.49 37.33 29.49 37.31 34.05 37.69 34.05 37.71"/>
        <polygon class="cls-79" points="34.05 37.73 29.49 37.35 29.49 37.33 34.05 37.71 34.05 37.73"/>
        <polygon class="cls-79" points="34.05 37.75 29.49 37.37 29.49 37.35 34.05 37.73 34.05 37.75"/>
        <polygon class="cls-138" points="34.05 37.77 29.49 37.4 29.49 37.37 34.05 37.75 34.05 37.77"/>
        <polygon class="cls-4" points="34.05 37.79 29.49 37.42 29.49 37.4 34.05 37.77 34.05 37.79"/>
        <polygon class="cls-4" points="34.05 37.81 29.49 37.44 29.49 37.42 34.05 37.79 34.05 37.81"/>
        <polygon class="cls-46" points="34.05 37.83 29.49 37.46 29.49 37.44 34.05 37.81 34.05 37.83"/>
        <polygon class="cls-60" points="34.05 37.86 29.49 37.48 29.49 37.46 34.05 37.83 34.05 37.86"/>
        <polygon class="cls-85" points="34.05 37.88 29.49 37.5 29.49 37.48 34.05 37.86 34.05 37.88"/>
        <polygon class="cls-85" points="34.05 37.9 29.49 37.52 29.49 37.5 34.05 37.88 34.05 37.9"/>
        <polygon class="cls-85" points="34.05 37.92 29.49 37.54 29.49 37.52 34.05 37.9 34.05 37.92"/>
        <polygon class="cls-174" points="34.05 37.94 29.49 37.56 29.49 37.54 34.05 37.92 34.05 37.94"/>
        <polygon class="cls-11" points="34.05 37.96 29.49 37.58 29.49 37.56 34.05 37.94 34.05 37.96"/>
        <polygon class="cls-11" points="34.05 37.98 29.49 37.61 29.49 37.58 34.05 37.96 34.05 37.98"/>
        <polygon class="cls-170" points="34.05 38 29.49 37.63 29.49 37.61 34.05 37.98 34.05 38"/>
        <polygon class="cls-136" points="34.05 38.02 29.49 37.65 29.49 37.63 34.05 38 34.05 38.02"/>
        <polygon class="cls-136" points="34.05 38.05 29.49 37.67 29.49 37.65 34.05 38.02 34.05 38.05"/>
        <polygon class="cls-136" points="34.05 38.07 29.49 37.69 29.49 37.67 34.05 38.05 34.05 38.07"/>
        <polygon class="cls-136" points="34.05 38.09 29.49 37.71 29.49 37.69 34.05 38.07 34.05 38.09"/>
        <polygon class="cls-41" points="34.05 38.11 29.49 37.73 29.49 37.71 34.05 38.09 34.05 38.11"/>
        <polygon class="cls-97" points="34.05 38.13 29.49 37.75 29.49 37.73 34.05 38.11 34.05 38.13"/>
        <polygon class="cls-20" points="33.99 38.15 29.49 37.77 29.49 37.75 34.05 38.13 34.05 38.15 33.99 38.15"/>
        <polygon class="cls-20" points="33.74 38.15 29.49 37.79 29.49 37.77 33.99 38.15 33.74 38.15"/>
        <polygon class="cls-20" points="33.48 38.15 29.49 37.82 29.49 37.79 33.74 38.15 33.48 38.15"/>
        <polygon class="cls-20" points="33.23 38.15 29.49 37.84 29.49 37.82 33.48 38.15 33.23 38.15"/>
        <polygon class="cls-20" points="32.97 38.15 29.49 37.86 29.49 37.84 33.23 38.15 32.97 38.15"/>
        <polygon class="cls-20" points="32.72 38.15 29.49 37.88 29.49 37.86 32.97 38.15 32.72 38.15"/>
        <polygon class="cls-67" points="32.46 38.15 29.49 37.9 29.49 37.88 32.72 38.15 32.46 38.15"/>
        <polygon class="cls-148" points="32.21 38.15 29.49 37.92 29.49 37.9 32.46 38.15 32.21 38.15"/>
        <polygon class="cls-148" points="31.96 38.15 29.49 37.94 29.49 37.92 32.21 38.15 31.96 38.15"/>
        <polygon class="cls-148" points="31.7 38.15 29.49 37.96 29.49 37.94 31.96 38.15 31.7 38.15"/>
        <polygon class="cls-148" points="31.45 38.15 29.49 37.98 29.49 37.96 31.7 38.15 31.45 38.15"/>
        <polygon class="cls-148" points="31.19 38.15 29.49 38 29.49 37.98 31.45 38.15 31.19 38.15"/>
        <polygon class="cls-148" points="30.94 38.15 29.49 38.03 29.49 38 31.19 38.15 30.94 38.15"/>
        <polygon class="cls-148" points="30.68 38.15 29.49 38.05 29.49 38.03 30.94 38.15 30.68 38.15"/>
        <polygon class="cls-36" points="30.43 38.15 29.49 38.07 29.49 38.05 30.68 38.15 30.43 38.15"/>
        <polygon class="cls-36" points="30.17 38.15 29.49 38.09 29.49 38.07 30.43 38.15 30.17 38.15"/>
        <polygon class="cls-53" points="29.92 38.15 29.49 38.11 29.49 38.09 30.17 38.15 29.92 38.15"/>
        <polygon class="cls-53" points="29.67 38.15 29.49 38.13 29.49 38.11 29.92 38.15 29.67 38.15"/>
        <polygon class="cls-53" points="29.49 38.13 29.67 38.15 29.49 38.15 29.49 38.13"/>
      </g>
      <path class="cls-44" d="M31.66,37.37c-.64-.05-1.14-.7-1.08-1.4.06-.71.65-1.26,1.29-1.21.64.05,1.14.7,1.08,1.4-.06.71-.65,1.26-1.29,1.21Z"/>
      <path class="cls-129" d="M31.72,37.12c-.45-.04-.91-.53-.86-1.13.05-.6.59-1.01,1.03-.97.45.04.91.53.86,1.13-.05.6-.59,1.01-1.03.97Z"/>
      <g class="cls-117">
        <path class="cls-150" d="M35.31,38.92s-.05,0-.17.04c-.08-1.3-.33-3.09-1.07-3.45-1.09-.55-3.55-1.36-6.7.57-.32-.57-.48-.99-.48-.99,3.43-2.45,6.13-1.57,7.3-.99,1.18.59,1.12,4.81,1.12,4.81Z"/>
      </g>
      <path class="cls-95" d="M31.36,35.64c-.02.22-.24.38-.5.35-.26-.02-.45-.22-.43-.43.02-.22.24-.38.5-.36.26.02.45.21.44.43Z"/>
      <path class="cls-95" d="M32.8,36.89c0,.11-.12.19-.25.18-.13,0-.23-.11-.22-.22,0-.11.12-.19.25-.18.13,0,.23.11.22.22Z"/>
      <path class="cls-38" d="M42.26,32.86s.38-.58,1.16-1.18c.39-.3.88-.62,1.45-.86.57-.24,1.21-.42,1.87-.51.66-.07,1.32-.03,1.92.05.6.11,1.14.29,1.58.48.45.15.78.4,1.02.53.23.15.37.23.37.23,0,0-.15-.04-.42-.1-.26-.07-.63-.18-1.09-.24-.23-.03-.46-.1-.72-.11-.26-.02-.52-.04-.8-.06-.55,0-1.14.02-1.71.15-.57.1-1.12.28-1.61.5-.49.23-.94.46-1.3.71-.74.49-1.14.89-1.14.89-.15.15-.39.15-.54,0-.13-.13-.15-.33-.05-.48h0Z"/>
      <path class="cls-95" d="M52.03,35.1s-1.46,3.64-3.73,3.99c-2.27.35-4.68-.16-4.68-.16,0,0-.06-4.22,1.12-4.81,1.18-.59,3.87-1.46,7.3.98Z"/>
      <g class="cls-117">
        <path class="cls-150" d="M43.61,38.92s.05,0,.17.04c.08-1.3.34-3.09,1.07-3.45,1.09-.55,3.55-1.36,6.7.57.32-.57.48-.99.48-.99-3.43-2.45-6.13-1.57-7.3-.99-1.18.59-1.12,4.81-1.12,4.81Z"/>
      </g>
      <g class="cls-76">
        <polygon class="cls-121" points="49.44 34.33 44.89 33.96 44.89 33.53 49.44 33.53 49.44 34.33"/>
        <polygon class="cls-121" points="49.44 34.35 44.89 33.98 44.89 33.96 49.44 34.33 49.44 34.35"/>
        <polygon class="cls-166" points="49.44 34.37 44.89 34 44.89 33.98 49.44 34.35 49.44 34.37"/>
        <polygon class="cls-158" points="49.44 34.4 44.89 34.02 44.89 34 49.44 34.37 49.44 34.4"/>
        <polygon class="cls-84" points="49.44 34.42 44.89 34.04 44.89 34.02 49.44 34.4 49.44 34.42"/>
        <polygon class="cls-13" points="49.44 34.44 44.89 34.06 44.89 34.04 49.44 34.42 49.44 34.44"/>
        <polygon class="cls-135" points="49.44 34.46 44.89 34.08 44.89 34.06 49.44 34.44 49.44 34.46"/>
        <polygon class="cls-64" points="49.44 34.48 44.89 34.1 44.89 34.08 49.44 34.46 49.44 34.48"/>
        <polygon class="cls-2" points="49.44 34.5 44.89 34.12 44.89 34.1 49.44 34.48 49.44 34.5"/>
        <polygon class="cls-12" points="49.44 34.52 44.89 34.15 44.89 34.12 49.44 34.5 49.44 34.52"/>
        <polygon class="cls-69" points="49.44 34.54 44.89 34.17 44.89 34.15 49.44 34.52 49.44 34.54"/>
        <polygon class="cls-49" points="49.44 34.56 44.89 34.19 44.89 34.17 49.44 34.54 49.44 34.56"/>
        <polygon class="cls-62" points="49.44 34.58 44.89 34.21 44.89 34.19 49.44 34.56 49.44 34.58"/>
        <polygon class="cls-110" points="49.44 34.61 44.89 34.23 44.89 34.21 49.44 34.58 49.44 34.61"/>
        <polygon class="cls-146" points="49.44 34.63 44.89 34.25 44.89 34.23 49.44 34.61 49.44 34.63"/>
        <polygon class="cls-143" points="49.44 34.65 44.89 34.27 44.89 34.25 49.44 34.63 49.44 34.65"/>
        <polygon class="cls-63" points="49.44 34.67 44.89 34.29 44.89 34.27 49.44 34.65 49.44 34.67"/>
        <polygon class="cls-50" points="49.44 34.69 44.89 34.31 44.89 34.29 49.44 34.67 49.44 34.69"/>
        <polygon class="cls-157" points="49.44 34.71 44.89 34.33 44.89 34.31 49.44 34.69 49.44 34.71"/>
        <polygon class="cls-149" points="49.44 34.73 44.89 34.36 44.89 34.33 49.44 34.71 49.44 34.73"/>
        <polygon class="cls-120" points="49.44 34.75 44.89 34.38 44.89 34.36 49.44 34.73 49.44 34.75"/>
        <polygon class="cls-144" points="49.44 34.77 44.89 34.4 44.89 34.38 49.44 34.75 49.44 34.77"/>
        <polygon class="cls-124" points="49.44 34.79 44.89 34.42 44.89 34.4 49.44 34.77 49.44 34.79"/>
        <polygon class="cls-16" points="49.44 34.82 44.89 34.44 44.89 34.42 49.44 34.79 49.44 34.82"/>
        <polygon class="cls-155" points="49.44 34.84 44.89 34.46 44.89 34.44 49.44 34.82 49.44 34.84"/>
        <polygon class="cls-17" points="49.44 34.86 44.89 34.48 44.89 34.46 49.44 34.84 49.44 34.86"/>
        <polygon class="cls-108" points="49.44 34.88 44.89 34.5 44.89 34.48 49.44 34.86 49.44 34.88"/>
        <polygon class="cls-26" points="49.44 34.9 44.89 34.52 44.89 34.5 49.44 34.88 49.44 34.9"/>
        <polygon class="cls-40" points="49.44 34.92 44.89 34.54 44.89 34.52 49.44 34.9 49.44 34.92"/>
        <polygon class="cls-159" points="49.44 34.94 44.89 34.57 44.89 34.54 49.44 34.92 49.44 34.94"/>
        <polygon class="cls-115" points="49.44 34.96 44.89 34.59 44.89 34.57 49.44 34.94 49.44 34.96"/>
        <polygon class="cls-107" points="49.44 34.98 44.89 34.61 44.89 34.59 49.44 34.96 49.44 34.98"/>
        <polygon class="cls-105" points="49.44 35 44.89 34.63 44.89 34.61 49.44 34.98 49.44 35"/>
        <polygon class="cls-101" points="49.44 35.03 44.89 34.65 44.89 34.63 49.44 35 49.44 35.03"/>
        <polygon class="cls-75" points="49.44 35.05 44.89 34.67 44.89 34.65 49.44 35.03 49.44 35.05"/>
        <polygon class="cls-6" points="49.44 35.07 44.89 34.69 44.89 34.67 49.44 35.05 49.44 35.07"/>
        <polygon class="cls-113" points="49.44 35.09 44.89 34.71 44.89 34.69 49.44 35.07 49.44 35.09"/>
        <polygon class="cls-122" points="49.44 35.11 44.89 34.73 44.89 34.71 49.44 35.09 49.44 35.11"/>
        <polygon class="cls-111" points="49.44 35.13 44.89 34.75 44.89 34.73 49.44 35.11 49.44 35.13"/>
        <polygon class="cls-151" points="49.44 35.15 44.89 34.78 44.89 34.75 49.44 35.13 49.44 35.15"/>
        <polygon class="cls-72" points="49.44 35.17 44.89 34.8 44.89 34.78 49.44 35.15 49.44 35.17"/>
        <polygon class="cls-99" points="49.44 35.19 44.89 34.82 44.89 34.8 49.44 35.17 49.44 35.19"/>
        <polygon class="cls-78" points="49.44 35.21 44.89 34.84 44.89 34.82 49.44 35.19 49.44 35.21"/>
        <polygon class="cls-127" points="49.44 35.24 44.89 34.86 44.89 34.84 49.44 35.21 49.44 35.24"/>
        <polygon class="cls-131" points="49.44 35.26 44.89 34.88 44.89 34.86 49.44 35.24 49.44 35.26"/>
        <polygon class="cls-102" points="49.44 35.28 44.89 34.9 44.89 34.88 49.44 35.26 49.44 35.28"/>
        <polygon class="cls-176" points="49.44 35.3 44.89 34.92 44.89 34.9 49.44 35.28 49.44 35.3"/>
        <polygon class="cls-23" points="49.44 35.32 44.89 34.94 44.89 34.92 49.44 35.3 49.44 35.32"/>
        <polygon class="cls-65" points="49.44 35.34 44.89 34.96 44.89 34.94 49.44 35.32 49.44 35.34"/>
        <polygon class="cls-32" points="49.44 35.36 44.89 34.99 44.89 34.96 49.44 35.34 49.44 35.36"/>
        <polygon class="cls-66" points="49.44 35.38 44.89 35.01 44.89 34.99 49.44 35.36 49.44 35.38"/>
        <polygon class="cls-153" points="49.44 35.4 44.89 35.03 44.89 35.01 49.44 35.38 49.44 35.4"/>
        <polygon class="cls-28" points="49.44 35.42 44.89 35.05 44.89 35.03 49.44 35.4 49.44 35.42"/>
        <polygon class="cls-54" points="49.44 35.45 44.89 35.07 44.89 35.05 49.44 35.42 49.44 35.45"/>
        <polygon class="cls-140" points="49.44 35.47 44.89 35.09 44.89 35.07 49.44 35.45 49.44 35.47"/>
        <polygon class="cls-163" points="49.44 35.49 44.89 35.11 44.89 35.09 49.44 35.47 49.44 35.49"/>
        <polygon class="cls-119" points="49.44 35.51 44.89 35.13 44.89 35.11 49.44 35.49 49.44 35.51"/>
        <polygon class="cls-100" points="49.44 35.53 44.89 35.15 44.89 35.13 49.44 35.51 49.44 35.53"/>
        <polygon class="cls-81" points="49.44 35.55 44.89 35.17 44.89 35.15 49.44 35.53 49.44 35.55"/>
        <polygon class="cls-171" points="49.44 35.57 44.89 35.2 44.89 35.17 49.44 35.55 49.44 35.57"/>
        <polygon class="cls-130" points="49.44 35.59 44.89 35.22 44.89 35.2 49.44 35.57 49.44 35.59"/>
        <polygon class="cls-160" points="49.44 35.61 44.89 35.24 44.89 35.22 49.44 35.59 49.44 35.61"/>
        <polygon class="cls-42" points="49.44 35.63 44.89 35.26 44.89 35.24 49.44 35.61 49.44 35.63"/>
        <polygon class="cls-177" points="49.44 35.66 44.89 35.28 44.89 35.26 49.44 35.63 49.44 35.66"/>
        <polygon class="cls-22" points="49.44 35.68 44.89 35.3 44.89 35.28 49.44 35.66 49.44 35.68"/>
        <polygon class="cls-142" points="49.44 35.7 44.89 35.32 44.89 35.3 49.44 35.68 49.44 35.7"/>
        <polygon class="cls-68" points="49.44 35.72 44.89 35.34 44.89 35.32 49.44 35.7 49.44 35.72"/>
        <polygon class="cls-93" points="49.44 35.74 44.89 35.36 44.89 35.34 49.44 35.72 49.44 35.74"/>
        <polygon class="cls-154" points="49.44 35.76 44.89 35.38 44.89 35.36 49.44 35.74 49.44 35.76"/>
        <polygon class="cls-45" points="49.44 35.78 44.89 35.41 44.89 35.38 49.44 35.76 49.44 35.78"/>
        <polygon class="cls-48" points="49.44 35.8 44.89 35.43 44.89 35.41 49.44 35.78 49.44 35.8"/>
        <polygon class="cls-133" points="49.44 35.82 44.89 35.45 44.89 35.43 49.44 35.8 49.44 35.82"/>
        <polygon class="cls-61" points="49.44 35.84 44.89 35.47 44.89 35.45 49.44 35.82 49.44 35.84"/>
        <polygon class="cls-10" points="49.44 35.87 44.89 35.49 44.89 35.47 49.44 35.84 49.44 35.87"/>
        <polygon class="cls-132" points="49.44 35.89 44.89 35.51 44.89 35.49 49.44 35.87 49.44 35.89"/>
        <polygon class="cls-51" points="49.44 35.91 44.89 35.53 44.89 35.51 49.44 35.89 49.44 35.91"/>
        <polygon class="cls-116" points="49.44 35.93 44.89 35.55 44.89 35.53 49.44 35.91 49.44 35.93"/>
        <polygon class="cls-141" points="49.44 35.95 44.89 35.57 44.89 35.55 49.44 35.93 49.44 35.95"/>
        <polygon class="cls-103" points="49.44 35.97 44.89 35.59 44.89 35.57 49.44 35.95 49.44 35.97"/>
        <polygon class="cls-87" points="49.44 35.99 44.89 35.62 44.89 35.59 49.44 35.97 49.44 35.99"/>
        <polygon class="cls-89" points="49.44 36.01 44.89 35.64 44.89 35.62 49.44 35.99 49.44 36.01"/>
        <polygon class="cls-92" points="49.44 36.03 44.89 35.66 44.89 35.64 49.44 36.01 49.44 36.03"/>
        <polygon class="cls-147" points="49.44 36.05 44.89 35.68 44.89 35.66 49.44 36.03 49.44 36.05"/>
        <polygon class="cls-58" points="49.44 36.08 44.89 35.7 44.89 35.68 49.44 36.05 49.44 36.08"/>
        <polygon class="cls-71" points="49.44 36.1 44.89 35.72 44.89 35.7 49.44 36.08 49.44 36.1"/>
        <polygon class="cls-15" points="49.44 36.12 44.89 35.74 44.89 35.72 49.44 36.1 49.44 36.12"/>
        <polygon class="cls-83" points="49.44 36.14 44.89 35.76 44.89 35.74 49.44 36.12 49.44 36.14"/>
        <polygon class="cls-83" points="49.44 36.16 44.89 35.78 44.89 35.76 49.44 36.14 49.44 36.16"/>
        <polygon class="cls-94" points="49.44 36.18 44.89 35.8 44.89 35.78 49.44 36.16 49.44 36.18"/>
        <polygon class="cls-27" points="49.44 36.2 44.89 35.83 44.89 35.8 49.44 36.18 49.44 36.2"/>
        <polygon class="cls-27" points="49.44 36.22 44.89 35.85 44.89 35.83 49.44 36.2 49.44 36.22"/>
        <polygon class="cls-167" points="49.44 36.24 44.89 35.87 44.89 35.85 49.44 36.22 49.44 36.24"/>
        <polygon class="cls-73" points="49.44 36.26 44.89 35.89 44.89 35.87 49.44 36.24 49.44 36.26"/>
        <polygon class="cls-162" points="49.44 36.29 44.89 35.91 44.89 35.89 49.44 36.26 49.44 36.29"/>
        <polygon class="cls-80" points="49.44 36.31 44.89 35.93 44.89 35.91 49.44 36.29 49.44 36.31"/>
        <polygon class="cls-34" points="49.44 36.33 44.89 35.95 44.89 35.93 49.44 36.31 49.44 36.33"/>
        <polygon class="cls-134" points="49.44 36.35 44.89 35.97 44.89 35.95 49.44 36.33 49.44 36.35"/>
        <polygon class="cls-175" points="49.44 36.37 44.89 35.99 44.89 35.97 49.44 36.35 49.44 36.37"/>
        <polygon class="cls-74" points="49.44 36.39 44.89 36.01 44.89 35.99 49.44 36.37 49.44 36.39"/>
        <polygon class="cls-39" points="49.44 36.41 44.89 36.04 44.89 36.01 49.44 36.39 49.44 36.41"/>
        <polygon class="cls-21" points="49.44 36.43 44.89 36.06 44.89 36.04 49.44 36.41 49.44 36.43"/>
        <polygon class="cls-33" points="49.44 36.45 44.89 36.08 44.89 36.06 49.44 36.43 49.44 36.45"/>
        <polygon class="cls-125" points="49.44 36.47 44.89 36.1 44.89 36.08 49.44 36.45 49.44 36.47"/>
        <polygon class="cls-88" points="49.44 36.5 44.89 36.12 44.89 36.1 49.44 36.47 49.44 36.5"/>
        <polygon class="cls-169" points="49.44 36.52 44.89 36.14 44.89 36.12 49.44 36.5 49.44 36.52"/>
        <polygon class="cls-31" points="49.44 36.54 44.89 36.16 44.89 36.14 49.44 36.52 49.44 36.54"/>
        <polygon class="cls-118" points="49.44 36.56 44.89 36.18 44.89 36.16 49.44 36.54 49.44 36.56"/>
        <polygon class="cls-109" points="49.44 36.58 44.89 36.2 44.89 36.18 49.44 36.56 49.44 36.58"/>
        <polygon class="cls-8" points="49.44 36.6 44.89 36.22 44.89 36.2 49.44 36.58 49.44 36.6"/>
        <polygon class="cls-137" points="49.44 36.62 44.89 36.25 44.89 36.22 49.44 36.6 49.44 36.62"/>
        <polygon class="cls-137" points="49.44 36.64 44.89 36.27 44.89 36.25 49.44 36.62 49.44 36.64"/>
        <polygon class="cls-29" points="49.44 36.66 44.89 36.29 44.89 36.27 49.44 36.64 49.44 36.66"/>
        <polygon class="cls-19" points="49.44 36.68 44.89 36.31 44.89 36.29 49.44 36.66 49.44 36.68"/>
        <polygon class="cls-123" points="49.44 36.71 44.89 36.33 44.89 36.31 49.44 36.68 49.44 36.71"/>
        <polygon class="cls-91" points="49.44 36.73 44.89 36.35 44.89 36.33 49.44 36.71 49.44 36.73"/>
        <polygon class="cls-126" points="49.44 36.75 44.89 36.37 44.89 36.35 49.44 36.73 49.44 36.75"/>
        <polygon class="cls-126" points="49.44 36.77 44.89 36.39 44.89 36.37 49.44 36.75 49.44 36.77"/>
        <polygon class="cls-57" points="49.44 36.79 44.89 36.41 44.89 36.39 49.44 36.77 49.44 36.79"/>
        <polygon class="cls-57" points="49.44 36.81 44.89 36.43 44.89 36.41 49.44 36.79 49.44 36.81"/>
        <polygon class="cls-55" points="49.44 36.83 44.89 36.46 44.89 36.43 49.44 36.81 49.44 36.83"/>
        <polygon class="cls-168" points="49.44 36.85 44.89 36.48 44.89 36.46 49.44 36.83 49.44 36.85"/>
        <polygon class="cls-168" points="49.44 36.87 44.89 36.5 44.89 36.48 49.44 36.85 49.44 36.87"/>
        <polygon class="cls-9" points="49.44 36.89 44.89 36.52 44.89 36.5 49.44 36.87 49.44 36.89"/>
        <polygon class="cls-70" points="49.44 36.92 44.89 36.54 44.89 36.52 49.44 36.89 49.44 36.92"/>
        <polygon class="cls-152" points="49.44 36.94 44.89 36.56 44.89 36.54 49.44 36.92 49.44 36.94"/>
        <polygon class="cls-59" points="49.44 36.96 44.89 36.58 44.89 36.56 49.44 36.94 49.44 36.96"/>
        <polygon class="cls-172" points="49.44 36.98 44.89 36.6 44.89 36.58 49.44 36.96 49.44 36.98"/>
        <polygon class="cls-112" points="49.44 37 44.89 36.62 44.89 36.6 49.44 36.98 49.44 37"/>
        <polygon class="cls-112" points="49.44 37.02 44.89 36.64 44.89 36.62 49.44 37 49.44 37.02"/>
        <polygon class="cls-3" points="49.44 37.04 44.89 36.67 44.89 36.64 49.44 37.02 49.44 37.04"/>
        <polygon class="cls-52" points="49.44 37.06 44.89 36.69 44.89 36.67 49.44 37.04 49.44 37.06"/>
        <polygon class="cls-156" points="49.44 37.08 44.89 36.71 44.89 36.69 49.44 37.06 49.44 37.08"/>
        <polygon class="cls-156" points="49.44 37.1 44.89 36.73 44.89 36.71 49.44 37.08 49.44 37.1"/>
        <polygon class="cls-86" points="49.44 37.13 44.89 36.75 44.89 36.73 49.44 37.1 49.44 37.13"/>
        <polygon class="cls-47" points="49.44 37.15 44.89 36.77 44.89 36.75 49.44 37.13 49.44 37.15"/>
        <polygon class="cls-47" points="49.44 37.17 44.89 36.79 44.89 36.77 49.44 37.15 49.44 37.17"/>
        <polygon class="cls-96" points="49.44 37.19 44.89 36.81 44.89 36.79 49.44 37.17 49.44 37.19"/>
        <polygon class="cls-96" points="49.44 37.21 44.89 36.83 44.89 36.81 49.44 37.19 49.44 37.21"/>
        <polygon class="cls-106" points="49.44 37.23 44.89 36.85 44.89 36.83 49.44 37.21 49.44 37.23"/>
        <polygon class="cls-14" points="49.44 37.25 44.89 36.88 44.89 36.85 49.44 37.23 49.44 37.25"/>
        <polygon class="cls-104" points="49.44 37.27 44.89 36.9 44.89 36.88 49.44 37.25 49.44 37.27"/>
        <polygon class="cls-104" points="49.44 37.29 44.89 36.92 44.89 36.9 49.44 37.27 49.44 37.29"/>
        <polygon class="cls-43" points="49.44 37.31 44.89 36.94 44.89 36.92 49.44 37.29 49.44 37.31"/>
        <polygon class="cls-173" points="49.44 37.34 44.89 36.96 44.89 36.94 49.44 37.31 49.44 37.34"/>
        <polygon class="cls-173" points="49.44 37.36 44.89 36.98 44.89 36.96 49.44 37.34 49.44 37.36"/>
        <polygon class="cls-114" points="49.44 37.38 44.89 37 44.89 36.98 49.44 37.36 49.44 37.38"/>
        <polygon class="cls-56" points="49.44 37.4 44.89 37.02 44.89 37 49.44 37.38 49.44 37.4"/>
        <polygon class="cls-30" points="49.44 37.42 44.89 37.04 44.89 37.02 49.44 37.4 49.44 37.42"/>
        <polygon class="cls-24" points="49.44 37.44 44.89 37.06 44.89 37.04 49.44 37.42 49.44 37.44"/>
        <polygon class="cls-24" points="49.44 37.46 44.89 37.09 44.89 37.06 49.44 37.44 49.44 37.46"/>
        <polygon class="cls-165" points="49.44 37.48 44.89 37.11 44.89 37.09 49.44 37.46 49.44 37.48"/>
        <polygon class="cls-128" points="49.44 37.5 44.89 37.13 44.89 37.11 49.44 37.48 49.44 37.5"/>
        <polygon class="cls-128" points="49.44 37.52 44.89 37.15 44.89 37.13 49.44 37.5 49.44 37.52"/>
        <polygon class="cls-128" points="49.44 37.55 44.89 37.17 44.89 37.15 49.44 37.52 49.44 37.55"/>
        <polygon class="cls-90" points="49.44 37.57 44.89 37.19 44.89 37.17 49.44 37.55 49.44 37.57"/>
        <polygon class="cls-90" points="49.44 37.59 44.89 37.21 44.89 37.19 49.44 37.57 49.44 37.59"/>
        <polygon class="cls-79" points="49.44 37.61 44.89 37.23 44.89 37.21 49.44 37.59 49.44 37.61"/>
        <polygon class="cls-79" points="49.44 37.63 44.89 37.25 44.89 37.23 49.44 37.61 49.44 37.63"/>
        <polygon class="cls-138" points="49.44 37.65 44.89 37.27 44.89 37.25 49.44 37.63 49.44 37.65"/>
        <polygon class="cls-4" points="49.44 37.67 44.89 37.3 44.89 37.27 49.44 37.65 49.44 37.67"/>
        <polygon class="cls-4" points="49.44 37.69 44.89 37.32 44.89 37.3 49.44 37.67 49.44 37.69"/>
        <polygon class="cls-46" points="49.44 37.71 44.89 37.34 44.89 37.32 49.44 37.69 49.44 37.71"/>
        <polygon class="cls-60" points="49.44 37.73 44.89 37.36 44.89 37.34 49.44 37.71 49.44 37.73"/>
        <polygon class="cls-85" points="49.44 37.76 44.89 37.38 44.89 37.36 49.44 37.73 49.44 37.76"/>
        <polygon class="cls-85" points="49.44 37.78 44.89 37.4 44.89 37.38 49.44 37.76 49.44 37.78"/>
        <polygon class="cls-85" points="49.44 37.8 44.89 37.42 44.89 37.4 49.44 37.78 49.44 37.8"/>
        <polygon class="cls-174" points="49.44 37.82 44.89 37.44 44.89 37.42 49.44 37.8 49.44 37.82"/>
        <polygon class="cls-11" points="49.44 37.84 44.89 37.46 44.89 37.44 49.44 37.82 49.44 37.84"/>
        <polygon class="cls-11" points="49.44 37.86 44.89 37.48 44.89 37.46 49.44 37.84 49.44 37.86"/>
        <polygon class="cls-170" points="49.44 37.88 44.89 37.51 44.89 37.48 49.44 37.86 49.44 37.88"/>
        <polygon class="cls-136" points="49.44 37.9 44.89 37.53 44.89 37.51 49.44 37.88 49.44 37.9"/>
        <polygon class="cls-136" points="49.44 37.92 44.89 37.55 44.89 37.53 49.44 37.9 49.44 37.92"/>
        <polygon class="cls-136" points="49.44 37.94 44.89 37.57 44.89 37.55 49.44 37.92 49.44 37.94"/>
        <polygon class="cls-136" points="49.44 37.97 44.89 37.59 44.89 37.57 49.44 37.94 49.44 37.97"/>
        <polygon class="cls-41" points="49.44 37.99 44.89 37.61 44.89 37.59 49.44 37.97 49.44 37.99"/>
        <polygon class="cls-97" points="49.44 38.01 44.89 37.63 44.89 37.61 49.44 37.99 49.44 38.01"/>
        <polygon class="cls-20" points="49.39 38.02 44.89 37.65 44.89 37.63 49.44 38.01 49.44 38.02 49.39 38.02"/>
        <polygon class="cls-20" points="49.13 38.02 44.89 37.67 44.89 37.65 49.39 38.02 49.13 38.02"/>
        <polygon class="cls-20" points="48.88 38.02 44.89 37.69 44.89 37.67 49.13 38.02 48.88 38.02"/>
        <polygon class="cls-20" points="48.63 38.02 44.89 37.72 44.89 37.69 48.88 38.02 48.63 38.02"/>
        <polygon class="cls-20" points="48.37 38.02 44.89 37.74 44.89 37.72 48.63 38.02 48.37 38.02"/>
        <polygon class="cls-20" points="48.12 38.02 44.89 37.76 44.89 37.74 48.37 38.02 48.12 38.02"/>
        <polygon class="cls-67" points="47.86 38.02 44.89 37.78 44.89 37.76 48.12 38.02 47.86 38.02"/>
        <polygon class="cls-148" points="47.61 38.02 44.89 37.8 44.89 37.78 47.86 38.02 47.61 38.02"/>
        <polygon class="cls-148" points="47.35 38.02 44.89 37.82 44.89 37.8 47.61 38.02 47.35 38.02"/>
        <polygon class="cls-148" points="47.1 38.02 44.89 37.84 44.89 37.82 47.35 38.02 47.1 38.02"/>
        <polygon class="cls-148" points="46.85 38.02 44.89 37.86 44.89 37.84 47.1 38.02 46.85 38.02"/>
        <polygon class="cls-148" points="46.59 38.02 44.89 37.88 44.89 37.86 46.85 38.02 46.59 38.02"/>
        <polygon class="cls-148" points="46.34 38.02 44.89 37.9 44.89 37.88 46.59 38.02 46.34 38.02"/>
        <polygon class="cls-148" points="46.08 38.02 44.89 37.93 44.89 37.9 46.34 38.02 46.08 38.02"/>
        <polygon class="cls-36" points="45.83 38.02 44.89 37.95 44.89 37.93 46.08 38.02 45.83 38.02"/>
        <polygon class="cls-36" points="45.57 38.02 44.89 37.97 44.89 37.95 45.83 38.02 45.57 38.02"/>
        <polygon class="cls-53" points="45.32 38.02 44.89 37.99 44.89 37.97 45.57 38.02 45.32 38.02"/>
        <polygon class="cls-53" points="45.06 38.02 44.89 38.01 44.89 37.99 45.32 38.02 45.06 38.02"/>
        <polygon class="cls-53" points="44.89 38.01 45.06 38.02 44.89 38.02 44.89 38.01"/>
      </g>
      <path class="cls-44" d="M47.06,37.25c-.64-.05-1.14-.7-1.08-1.4.06-.71.65-1.26,1.29-1.21.64.05,1.14.7,1.08,1.4-.06.71-.65,1.26-1.29,1.21Z"/>
      <path class="cls-129" d="M47.12,37c-.45-.04-.91-.52-.86-1.12.05-.6.59-1.01,1.03-.97.45.04.91.53.86,1.13-.05.6-.59,1.01-1.03.97Z"/>
      <path class="cls-95" d="M46.76,35.51c-.02.22-.24.38-.5.35-.26-.02-.45-.22-.43-.43.02-.22.24-.38.5-.36.26.02.45.21.44.43Z"/>
      <path class="cls-95" d="M48.2,36.77c0,.11-.12.19-.25.18-.13-.01-.23-.11-.22-.22,0-.11.12-.19.25-.18.13,0,.23.11.22.22Z"/>
      <path class="cls-5" d="M20.86,37.77c.97-1.58,2.49-.91,2.87-.57.4.37.72.87.48,1.8-.13.52-.68.57-.54,1.37.16.89.57.95.8,1.15.23.2.53.35.68.73.14.37.17.77.1,1.12-.15.65-1.09.14-1.72-.14-.42-.18-1.74-1.29-2.08-1.65-.84-.94-1.25-2.74-.6-3.8"/>
      <path class="cls-25" d="M41.3,44.84c.34-.23.74-.12.74-.12,0,0,0,0-.01.02-.08.14-.54.87-.91.86,0,0-.08-.07-.1-.24-.03-.17.11-.4.28-.52Z"/>
      <path class="cls-161" d="M25.65,30.27h0s0-.01,0-.02c0,0,0,.01,0,.02Z"/>
      <path class="cls-1" d="M39.58,71.58c4.49,0,8.3.13,9.67-3.13h-19.34c1.37,3.27,5.18,3.13,9.67,3.13Z"/>
      <path class="cls-18" d="M61.84,74.06c-.04-1.29-.08-2.61-.14-2.72-.27-1.2-.11-2.03-.56-2.91-.33-.65-.99-1.32-2.43-2.18-.03-.01-.76-.24-1.86-.59t-.03-.01c-.71-.22-1.58-.5-2.48-.8-.35-.11-.7-.24-1.06-.35-.11-.04-.22-.08-.34-.12-.78-.27-1.55-.54-2.27-.8-.26-.09-.5-.19-.74-.28.09.62.14,1.25.14,1.89,0,1.34-.21,2.39-.57,3.23-1.41,3.27-5.34,3.13-9.98,3.13s-8.56.13-9.98-3.13c-.36-.84-.57-1.88-.57-3.23,0-.66.06-1.3.15-1.92-.09.03-.17.07-.27.1-.8.3-1.71.62-2.64.94-.4.14-.8.27-1.2.4-.09.03-.18.06-.27.09-.97.32-1.9.62-2.65.86h-.01c-1.09.35-1.82.57-1.85.59-1.43.86-2.1,1.53-2.43,2.18-.44.86-.29,1.68-.56,2.87h0v.04s-.03.07-.04.15h0c-.04.21-.07,1.4-.1,2.57-.02.93-.05,1.84-.07,2.23h6.03v2.58h33.21v-2.58h5.62c-.02-.44-.05-1.33-.07-2.23Z"/>
      <path class="cls-35" d="M42.55,8.39s.02-.03.03-.05c0,0-.02.02-.04.05-.1-.04-.2-.07-.32-.11h0s0,0,0,0c-1.82-.63-5.66-1.31-9.82.55-5.75,2.57-11.51,8.54-12.94,12.29-1.43,3.75.53,4.93,0,7.29-.52,2.36-.6,2.29-2.33,3.75-1.72,1.45-3.2,2.08-2.71,3.68.49,1.59,1.23,2.57,1.23,2.57,0,0-3.07,4.21-1.51,6.3.22.29,3.55,3.99,1.46,5.84-1.5,1.32-2.2,2.93-2.11,3.95.2,2.21,3.56,4.21,4.43,4.6-.53-.27-2.76-2.49-2.24-4.53.42-1.68,1.19-2.15,1.99-3.4.8-1.25,1.51-2.52.12-4.46-.65-.91-1.16-1.28-1.54-2-.2-.38-.62-1.18-.4-2.01.82-3.19,3.94-5.14,5.58-8.12.79-1.44.93-3.34.86-4.93.24-.19.47-.39.69-.59.16.69.36,1.31.55,1.78.9,2.23,2.46,3.82,1.64,5.55-.82,1.74-3.37,2.57-5.14,4.23-1.05.99-.44,3.08.05,4.42.19-.98-.67-2.35,1.13-3.73,2.54-1.94,4.85-1.71,6.78-4.27,1.02-1.36,1.39-1.76,0-5.79-1.4-4.02,3.41-5.03,6.19-7.39,2.79-2.36,5.56-4.38,6.38-6.75,1.07-3.08,1.72-6.73,1.71-8.15.64-.1,1.03-.15,1.03-.15,0-.07-.28-.24-.77-.43M19.66,33.93c-.8.84-1.5,1.59-2.12,2.31-.51-1.23-.65-2.23,1.07-3.41,1.62-1.12,2.81-2.52,2.92-2.61-.24,1.26-.72,2.48-1.88,3.7"/>
      <path class="cls-35" d="M61.84,39.01c-.69-.7-.47-2.43-.1-3.68.36-1.25-.22-2.01-1.31-2.78-1.09-.76-1.52-5.07-1.82-9.99-.29-4.93-2.83-6.04-5.58-9.16-2.75-3.12-10.37-5.07-12.76-4.65-1.34.24-.7,1.45.17,2.59-1.78-.3-3.15-.38-3.15-.1,0,.77-.72,5.93-.72,5.93.06,1.22.4,2.6.93,3.89h0s.41,8.37,11.34,8.24c.66,1.35.8,2.1.99,4.23.29,3.19,1.92,3.76.29,5.42-3.71,3.77-.94,6.1-.94,6.1,0,0-.82-1.49-.03-2.78.72-1.17,3.12-2.14,4.09-4.83.39-1.07-.61-3.14-.26-4.61,1.02,2.69,1.62,3.93,1.37,5.03-.29,1.25-1.64,2.61-1.64,2.61,0,0,2.35-.27,3.43-1.18.84-.72,1.21-2.84,1.4-3.41.24.51.96,1.82,1,1.9.22.41.17,2.08,2.66,2.47,2.05.32,3.5-.6,3.79-.84-.45.38-2.46.31-3.15-.39Z"/>
      <path class="cls-95" d="M24.58,44.24c-.77,0-1.39.62-1.39,1.39s.62,1.39,1.39,1.39,1.39-.62,1.39-1.39-.62-1.39-1.39-1.39ZM24.58,46.43c-.44,0-.8-.36-.8-.8s.36-.8.8-.8.8.36.8.8-.36.8-.8.8Z"/>
      <path class="cls-95" d="M54.42,44.22c-.77,0-1.39.62-1.39,1.39s.62,1.39,1.39,1.39,1.39-.62,1.39-1.39-.62-1.39-1.39-1.39ZM54.42,46.41c-.44,0-.8-.36-.8-.8s.36-.8.8-.8.8.36.8.8-.36.8-.8.8Z"/>
      <path class="cls-95" d="M55.99,66.85c-2.07,0-3.75,1.68-3.75,3.75,0,.33.06.64.13.94-13.98,6.91-22.65,2.36-25.43.37.15-.41.25-.85.25-1.31,0-2.07-1.68-3.75-3.75-3.75s-3.75,1.68-3.75,3.75,1.68,3.75,3.75,3.75c.88,0,1.69-.32,2.33-.83,1.91,1.36,6.11,3.72,12.47,3.72,4.14,0,9.21-1.03,15.12-3.97.68.67,1.6,1.08,2.63,1.08,2.07,0,3.75-1.68,3.75-3.75s-1.68-3.75-3.75-3.75ZM21.27,70.6c0-1.2.97-2.17,2.17-2.17s2.17.97,2.17,2.17-.97,2.17-2.17,2.17-2.17-.97-2.17-2.17ZM55.99,72.77c-1.2,0-2.17-.97-2.17-2.17s.97-2.17,2.17-2.17,2.17.97,2.17,2.17-.97,2.17-2.17,2.17Z"/>
      <path class="cls-98" d="M57.17,70.6c0,.65-.53,1.18-1.18,1.18s-1.18-.53-1.18-1.18.53-1.18,1.18-1.18,1.18.53,1.18,1.18Z"/>
      <path class="cls-98" d="M24.62,70.6c0,.65-.53,1.18-1.18,1.18s-1.18-.53-1.18-1.18.53-1.18,1.18-1.18,1.18.53,1.18,1.18Z"/>
    </g>
  </g>
</svg>