<?xml version="1.0" encoding="UTF-8"?>
<svg id="Layer_2" data-name="Layer 2" xmlns="http://www.w3.org/2000/svg" xmlns:xlink="http://www.w3.org/1999/xlink" viewBox="0 0 78.88 78.88">
  <defs>
    <style>
      .cls-1 {
        fill: none;
      }

      .cls-2 {
        fill: #354148;
      }

      .cls-3 {
        fill: #7d99ae;
      }

      .cls-4 {
        fill: #84a2b8;
      }

      .cls-5 {
        fill: #debaad;
      }

      .cls-6 {
        fill: #4e606b;
      }

      .cls-7 {
        fill: #bf6c6c;
      }

      .cls-8 {
        fill: #ededeb;
        opacity: .55;
      }

      .cls-9 {
        fill: #7791a4;
      }

      .cls-10 {
        fill: #7b97ab;
      }

      .cls-11 {
        fill: #677e8d;
      }

      .cls-12 {
        fill: #86a3ba;
      }

      .cls-13 {
        fill: #364349;
      }

      .cls-14 {
        fill: #313d43;
      }

      .cls-15 {
        fill: #809cb2;
      }

      .cls-16 {
        fill: #6d8596;
      }

      .cls-17 {
        fill: #44545c;
      }

      .cls-18 {
        fill: #46565f;
      }

      .cls-19 {
        fill: #7893a6;
      }

      .cls-20 {
        fill: #87a5bc;
      }

      .cls-21 {
        fill: #748d9f;
      }

      .cls-22 {
        fill: #627886;
      }

      .cls-23 {
        fill: #576b77;
      }

      .cls-24 {
        fill: #829fb5;
      }

      .cls-25 {
        fill: #b89388;
      }

      .cls-26 {
        fill: #485862;
      }

      .cls-27 {
        fill: #6f8899;
      }

      .cls-28 {
        fill: #5b6f7c;
      }

      .cls-29 {
        fill: #7892a6;
      }

      .cls-30 {
        fill: #829fb4;
      }

      .cls-31 {
        fill: #7690a2;
      }

      .cls-32 {
        fill: #596c79;
      }

      .cls-33 {
        fill: #748ea0;
      }

      .cls-34 {
        fill: #728b9c;
      }

      .cls-35 {
        fill: #88a6be;
      }

      .cls-36 {
        fill: #a88a6b;
      }

      .cls-37 {
        fill: #48443b;
      }

      .cls-38 {
        fill: #738d9f;
      }

      .cls-39 {
        fill: #495963;
      }

      .cls-40 {
        fill: #87a4bb;
      }

      .cls-41 {
        fill: #617785;
      }

      .cls-42 {
        fill: #819db3;
      }

      .cls-43 {
        fill: #95bacb;
      }

      .cls-44 {
        fill: #657b8a;
      }

      .cls-45 {
        fill: #85a2b8;
      }

      .cls-46 {
        fill: #7f9bb0;
      }

      .cls-47 {
        fill: #331e15;
      }

      .cls-48 {
        fill: #667c8b;
      }

      .cls-49 {
        fill: #38454c;
      }

      .cls-50 {
        fill: #3e4d54;
      }

      .cls-51 {
        fill: #687f8f;
      }

      .cls-52 {
        fill: #7e9aae;
      }

      .cls-53 {
        fill: #88a7be;
      }

      .cls-54 {
        fill: #5b707d;
      }

      .cls-55 {
        fill: #7a96a9;
      }

      .cls-56 {
        fill: #829eb4;
      }

      .cls-57 {
        fill: #9e4562;
      }

      .cls-58 {
        fill: #7a95a9;
      }

      .cls-59 {
        fill: #6c8495;
      }

      .cls-60 {
        fill: #7c98ac;
      }

      .cls-61 {
        fill: #85a2b9;
      }

      .cls-62 {
        fill: #677d8d;
      }

      .cls-63 {
        fill: #39464e;
      }

      .cls-64 {
        fill: #99656b;
      }

      .cls-65 {
        fill: #3d4b53;
      }

      .cls-66 {
        fill: #344046;
      }

      .cls-67 {
        fill: #586c78;
      }

      .cls-68 {
        fill: #596d7a;
      }

      .cls-69 {
        fill: #87a6bd;
      }

      .cls-70 {
        fill: #637988;
      }

      .cls-71 {
        fill: #37444b;
      }

      .cls-72 {
        fill: #7c97ab;
      }

      .cls-73 {
        fill: #6d8595;
      }

      .cls-74 {
        fill: #526570;
      }

      .cls-75 {
        fill: #70899b;
      }

      .cls-76 {
        fill: #738c9e;
      }

      .cls-77 {
        fill: #4e5f6a;
      }

      .cls-78 {
        clip-path: url(#clippath-1);
      }

      .cls-79 {
        fill: #546672;
      }

      .cls-80 {
        fill: #84a1b7;
      }

      .cls-81 {
        fill: #fbfcfc;
      }

      .cls-82 {
        fill: #718a9c;
      }

      .cls-83 {
        fill: #5f7481;
      }

      .cls-84 {
        fill: #f1d4c8;
      }

      .cls-85 {
        fill: #6e8697;
      }

      .cls-86 {
        fill: #303c42;
      }

      .cls-87 {
        fill: #85a3b9;
      }

      .cls-88 {
        fill: #1e1f1a;
        opacity: .4;
      }

      .cls-89 {
        fill: #7e9baf;
      }

      .cls-90 {
        fill: #6a8292;
      }

      .cls-91 {
        fill: #758fa1;
      }

      .cls-92 {
        fill: #6b8292;
      }

      .cls-93 {
        fill: #83a1b7;
      }

      .cls-94 {
        fill: #7994a7;
      }

      .cls-95 {
        fill: #6b8393;
      }

      .cls-96 {
        fill: #647a89;
      }

      .cls-97 {
        fill: #6e8798;
      }

      .cls-98 {
        fill: #fff;
      }

      .cls-99 {
        fill: #7f9cb1;
      }

      .cls-100 {
        fill: #87a5bb;
      }

      .cls-101 {
        fill: #536671;
      }

      .cls-102 {
        fill: #5e7380;
      }

      .cls-103 {
        fill: #4d5e69;
      }

      .cls-104 {
        fill: #566975;
      }

      .cls-105 {
        fill: #6a8191;
      }

      .cls-106 {
        fill: #809db2;
      }

      .cls-107 {
        fill: #4c5d68;
      }

      .cls-108 {
        fill: #809cb1;
      }

      .cls-109 {
        fill: #4b5c67;
      }

      .cls-110 {
        fill: #475760;
      }

      .cls-111 {
        fill: #7691a3;
      }

      .cls-112 {
        fill: #3a484f;
      }

      .cls-113 {
        fill: #51636e;
      }

      .cls-114 {
        fill: #7d99ad;
      }

      .cls-115 {
        fill: #4f616c;
      }

      .cls-116 {
        fill: #819eb4;
      }

      .cls-117 {
        fill: #4a5b65;
      }

      .cls-118 {
        fill: #68293c;
      }

      .cls-119 {
        fill: #698090;
      }

      .cls-120 {
        opacity: .3;
      }

      .cls-121 {
        fill: #7690a3;
      }

      .cls-122 {
        fill: #5d727f;
      }

      .cls-123 {
        fill: #415059;
      }

      .cls-124 {
        fill: #2d383d;
      }

      .cls-125 {
        fill: #50626d;
      }

      .cls-126 {
        fill: #7893a7;
      }

      .cls-127 {
        fill: #43525b;
      }

      .cls-128 {
        fill: #748ea1;
      }

      .cls-129 {
        fill: #7994a8;
      }

      .cls-130 {
        fill: #546773;
      }

      .cls-131 {
        fill: #83a0b6;
      }

      .cls-132 {
        fill: #26200c;
      }

      .cls-133 {
        fill: #607583;
      }

      .cls-134 {
        fill: #556874;
      }

      .cls-135 {
        fill: #687f8e;
      }

      .cls-136 {
        fill: #667d8c;
      }

      .cls-137 {
        fill: #728b9d;
      }

      .cls-138 {
        fill: #323f45;
      }

      .cls-139 {
        fill: #86a4bb;
      }

      .cls-140 {
        fill: #7792a5;
      }

      .cls-141 {
        fill: #84a1b8;
      }

      .cls-142 {
        fill: #5c707e;
      }

      .cls-143 {
        fill: #698190;
      }

      .cls-144 {
        fill: #637987;
      }

      .cls-145 {
        fill: #3c4a52;
      }

      .cls-146 {
        fill: #42515a;
      }

      .cls-147 {
        fill: #c6a095;
      }

      .cls-148 {
        fill: #3b4950;
      }

      .cls-149 {
        fill: #6c8494;
      }

      .cls-150 {
        fill: #88a6bd;
      }

      .cls-151 {
        fill: #404f57;
      }

      .cls-152 {
        fill: #47433b;
      }

      .cls-153 {
        fill: #51646f;
      }

      .cls-154 {
        fill: #7c97ac;
      }

      .cls-155 {
        fill: #5a6e7b;
      }

      .cls-156 {
        fill: #647b8a;
      }

      .cls-157 {
        fill: #45555e;
      }

      .cls-158 {
        fill: #7e9aaf;
      }

      .cls-159 {
        fill: #f2f3f2;
      }

      .cls-160 {
        fill: #3f4e56;
      }

      .cls-161 {
        fill: #2f3b40;
      }

      .cls-162 {
        fill: #4a5a64;
      }

      .cls-163 {
        fill: #607684;
      }

      .cls-164 {
        fill: #718a9b;
      }

      .cls-165 {
        fill: #5d717f;
      }

      .cls-166 {
        clip-path: url(#clippath);
      }

      .cls-167 {
        fill: #82a0b5;
      }

      .cls-168 {
        fill: #2e393f;
      }

      .cls-169 {
        fill: #70899a;
      }

      .cls-170 {
        fill: #7b96aa;
      }

      .cls-171 {
        fill: #521c2b;
      }

      .cls-172 {
        fill: #758fa2;
      }

      .cls-173 {
        fill: #86a4ba;
      }

      .cls-174 {
        fill: #5f7482;
      }

      .cls-175 {
        fill: #7c98ad;
      }

      .cls-176 {
        fill: #819eb3;
      }

      .cls-177 {
        fill: #85a3ba;
      }

      .cls-178 {
        fill: #728c9e;
      }

      .cls-179 {
        fill: #576a76;
      }

      .cls-180 {
        fill: #627786;
      }

      .cls-181 {
        fill: #ab5b64;
      }
    </style>
    <clipPath id="clippath">
      <path class="cls-1" d="M34.18,36.08c-.1,1.18-1.15,2.06-2.36,1.96-1.2-.1-2.1-1.14-2-2.32.1-1.19,1.15-2.07,2.36-1.97,1.2.1,2.1,1.14,2,2.33Z"/>
    </clipPath>
    <clipPath id="clippath-1">
      <path class="cls-1" d="M49.58,35.96c-.1,1.18-1.15,2.06-2.36,1.96-1.2-.1-2.1-1.14-2-2.32.1-1.19,1.15-2.07,2.36-1.97,1.2.1,2.1,1.14,2,2.33Z"/>
    </clipPath>
  </defs>
  <g id="Layer_1-2" data-name="Layer 1">
    <g>
      <rect class="cls-64" width="78.88" height="78.88"/>
      <path class="cls-84" d="M61.52,77.89s-.1-6.02-.34-6.54c-.46-2.1.36-3.06-2.88-5.08-.03-.01-.74-.24-1.8-.59t-.03-.01c-.69-.22-1.52-.5-2.4-.8-.34-.11-.67-.24-1.02-.35-.86-.3-1.72-.62-2.51-.92-.55-.21-1.07-.41-1.51-.59-.38-.16-.71-.32-.97-.46-.28-.14-.48-.27-.59-.38-.01-.01-.04-.05-.08-.09-.02-.04-.05-.06-.07-.1-.06-.35-1-1.89-1.32-3.56h0c-.07-.35-.11-.67-.12-1.01-.03-.49-.03-.97-.04-1.41-.01-.45-.02-.86-.04-1.2v-.29c-.01-.24-.01-.44-.01-.59-.01-.15-.01-.24-.01-.24,0,0,.35-.3.86-.75.64-.57,1.55-1.4,2.33-2.18.85-.85,1.59-1.66,1.75-2.08.01-.06.02-.11.02-.15,0,0-.02,0-.06.01-.4.06-2.55.44-4.86.8-1.37.21-2.81.43-3.98.57-.46.06-.89.1-1.25.14h-.01c-.34.04-.62.05-.84.05-.24,0-.56-.02-.95-.05h-.03c-.37-.05-.82-.1-1.31-.16-1.07-.14-2.36-.32-3.61-.51-1.15-.19-2.27-.36-3.16-.51-.21-.04-.4-.06-.57-.1-.85-.14-1.39-.24-1.39-.24,0,.16.15.41.4.74,0,0,0,.01.01.01.19.25.44.54.74.86.29.3.6.61.92.92.99.96,2.06,1.91,2.58,2.36.2.17.31.27.31.27,0,0,0,.09-.01.24,0,.15,0,.35-.01.59v.29c0,.1,0,.2-.01.3-.01.65-.04,1.46-.06,2.31-.01.34-.05.66-.12,1-.33,1.67-1.26,3.22-1.32,3.57-.03.04-.05.06-.07.1-.04.04-.06.08-.08.09-.05.05-.14.11-.24.18-.23.15-.57.32-.99.52-.37.16-.8.34-1.27.52-1.11.43-2.43.91-3.7,1.34-.09.03-.17.06-.26.09-.94.32-1.84.62-2.56.86h-.01c-1.05.35-1.76.57-1.79.59-3.22,2.01-2.43,2.97-2.88,5.04h0v.04s-.03.07-.04.15h0c-.21,1.1-.3,6.39-.3,6.39,0,.32,0,.65,0,.99h43.58c0-.34,0-.67-.01-.99Z"/>
      <path class="cls-147" d="M46.01,58.41c-.07-.34-.11-.66-.12-1-.04-1.12-.06-2.2-.07-2.9-1.87.84-3.8,1.32-5.68,1.32-.11.02-.25.02-.38.02s-.27,0-.38-.02c-1.89,0-3.81-.49-5.68-1.32-.01.7-.04,1.77-.07,2.9-.01.34-.05.66-.12,1,1.81,1.51,4.26,3.07,5.88,3.07.1.02.23.02.34.02h0s.03,0,.04,0,.03,0,.04,0h0c.12,0,.24,0,.34-.03,1.62,0,4.07-1.56,5.88-3.07Z"/>
      <g>
        <path class="cls-84" d="M55.82,36c.31-1.73.56-3.05.63-3.31.04-.12.06-.25.1-.37.03-.15.06-.29.09-.42.06-.21.1-.43.15-.64.01-.1.04-.2.05-.3.04-.24.09-.48.12-.71.01-.1.03-.21.04-.31.04-.21.05-.42.08-.64.01-.16.02-.33.05-.47.01-.14.01-.28.02-.41.16-3.26-.54-6.58-2.67-9.59-2.58-3.62-5.56-7.45-12.01-7.99h-5.44c-6.46.54-9.43,4.37-12.01,7.99-2.13,3.01-2.83,6.33-2.67,9.59.01.14.01.27.02.41.02.15.04.31.05.47.02.21.04.42.07.64.01.1.03.21.04.31.04.24.09.47.13.71.01.1.04.2.05.3.05.21.09.43.15.64.03.14.06.27.09.42.04.12.06.25.1.37.08.26.32,1.57.63,3.29-1.72-.84-4.11.36-3.83,3.53.29,3.22,4.21,5.13,5.55,5.45.13.58.24,1.02.33,1.22,1.17,2.96,2.6,3.85,5.09,6.26,2.72,2.61,6.74,5.06,8.73,5.04.06.01.14.01.21.01s.15,0,.21-.01c1.98.01,6-2.43,8.73-5.04,2.5-2.41,3.92-3.3,5.09-6.26.08-.21.19-.63.32-1.21,1.29-.29,5.29-2.21,5.59-5.46.29-3.2-2.15-4.4-3.88-3.51Z"/>
        <path class="cls-5" d="M58.44,37.77c-.97-1.58-2.49-.91-2.87-.57-.4.37-.72.87-.48,1.8.13.52.68.57.54,1.37-.16.89-.57.95-.8,1.15-.23.2-.53.35-.68.73-.14.37-.17.77-.1,1.12.15.65,1.09.14,1.72-.14.42-.18,1.74-1.29,2.08-1.65.84-.94,1.25-2.74.6-3.8"/>
      </g>
      <path class="cls-5" d="M36.99,51.32c-.06-.82,2.31.17,3.09.2.62.02,2.49-.12,2.67-.19,1.31-.49-.07,1.38-2.7,1.48-1.21.05-3.02-.99-3.06-1.49Z"/>
      <g>
        <path class="cls-181" d="M44.82,50.25c-1.51-.28-4.68-.89-4.68-.89-2.62.43-4.67.88-4.68.9-.06,0,2.09,1.93,4.65,1.8h0c2.55.13,4.78-1.8,4.72-1.81Z"/>
        <path class="cls-7" d="M41.64,48.83c-.68-.07-1.15.32-1.49.29-.35.03-.82-.36-1.5-.29-.97.21-1.43.82-3.19,1.43.06.12,1.19-.15,3.3-.11.03,0,.6.32,1.4.31.5,0,1.19-.34,1.22-.34,2.11-.03,3.4.26,3.46.14-2.32-.71-2.23-1.23-3.2-1.44Z"/>
      </g>
      <path class="cls-36" d="M41.39,44.87c.34-.23.74-.12.74-.12,0,0,0,0-.01.02-.08.14-.54.87-.91.86,0,0-.08-.07-.1-.24-.03-.17.11-.4.28-.52Z"/>
      <path class="cls-5" d="M36.76,44.64c-.07-1.65,2.56-.6,3.43-.55.69.04,2.77-.52,2.95-.38,1.22.98-1.3,2.95-2.99,2.95-.45,0-3.34-1.03-3.38-2.03Z"/>
      <path class="cls-25" d="M38.75,44.84c-.34-.23-.74-.12-.74-.12,0,0,0,0,.01.02.08.14.54.87.91.86,0,0,.08-.07.1-.24.03-.17-.11-.4-.28-.52Z"/>
      <path class="cls-37" d="M36.31,33.34s-.4-.4-1.14-.89c-.35-.26-.81-.48-1.3-.71-.49-.23-1.04-.4-1.61-.5-.57-.13-1.15-.16-1.71-.15-.28.02-.55.04-.8.06-.26.01-.49.08-.72.11-.45.07-.82.18-1.09.24-.27.06-.42.1-.42.1,0,0,.13-.08.37-.23.24-.13.57-.37,1.02-.53.44-.19.98-.36,1.58-.48.6-.08,1.26-.12,1.92-.05.66.09,1.3.27,1.87.51.57.24,1.06.56,1.45.86.78.59,1.16,1.18,1.16,1.18h0c.12.18.07.42-.11.54-.15.1-.35.07-.48-.05Z"/>
      <path class="cls-98" d="M27.13,35.1s1.46,3.64,3.73,3.99c2.27.35,4.69-.16,4.69-.16,0,0,.06-4.22-1.12-4.81-1.18-.59-3.87-1.46-7.3.98Z"/>
      <g class="cls-166">
        <polygon class="cls-124" points="34.28 34.45 29.73 34.08 29.73 33.66 34.28 33.66 34.28 34.45"/>
        <polygon class="cls-124" points="34.28 34.47 29.73 34.1 29.73 34.08 34.28 34.45 34.28 34.47"/>
        <polygon class="cls-168" points="34.28 34.5 29.73 34.12 29.73 34.1 34.28 34.47 34.28 34.5"/>
        <polygon class="cls-161" points="34.28 34.52 29.73 34.14 29.73 34.12 34.28 34.5 34.28 34.52"/>
        <polygon class="cls-86" points="34.28 34.54 29.73 34.16 29.73 34.14 34.28 34.52 34.28 34.54"/>
        <polygon class="cls-14" points="34.28 34.56 29.73 34.18 29.73 34.16 34.28 34.54 34.28 34.56"/>
        <polygon class="cls-138" points="34.28 34.58 29.73 34.2 29.73 34.18 34.28 34.56 34.28 34.58"/>
        <polygon class="cls-66" points="34.28 34.6 29.73 34.22 29.73 34.2 34.28 34.58 34.28 34.6"/>
        <polygon class="cls-2" points="34.28 34.62 29.73 34.25 29.73 34.22 34.28 34.6 34.28 34.62"/>
        <polygon class="cls-13" points="34.28 34.64 29.73 34.27 29.73 34.25 34.28 34.62 34.28 34.64"/>
        <polygon class="cls-71" points="34.28 34.66 29.73 34.29 29.73 34.27 34.28 34.64 34.28 34.66"/>
        <polygon class="cls-49" points="34.28 34.68 29.73 34.31 29.73 34.29 34.28 34.66 34.28 34.68"/>
        <polygon class="cls-63" points="34.28 34.71 29.73 34.33 29.73 34.31 34.28 34.68 34.28 34.71"/>
        <polygon class="cls-112" points="34.28 34.73 29.73 34.35 29.73 34.33 34.28 34.71 34.28 34.73"/>
        <polygon class="cls-148" points="34.28 34.75 29.73 34.37 29.73 34.35 34.28 34.73 34.28 34.75"/>
        <polygon class="cls-145" points="34.28 34.77 29.73 34.39 29.73 34.37 34.28 34.75 34.28 34.77"/>
        <polygon class="cls-65" points="34.28 34.79 29.73 34.41 29.73 34.39 34.28 34.77 34.28 34.79"/>
        <polygon class="cls-50" points="34.28 34.81 29.73 34.43 29.73 34.41 34.28 34.79 34.28 34.81"/>
        <polygon class="cls-160" points="34.28 34.83 29.73 34.46 29.73 34.43 34.28 34.81 34.28 34.83"/>
        <polygon class="cls-151" points="34.28 34.85 29.73 34.48 29.73 34.46 34.28 34.83 34.28 34.85"/>
        <polygon class="cls-123" points="34.28 34.87 29.73 34.5 29.73 34.48 34.28 34.85 34.28 34.87"/>
        <polygon class="cls-146" points="34.28 34.89 29.73 34.52 29.73 34.5 34.28 34.87 34.28 34.89"/>
        <polygon class="cls-127" points="34.28 34.92 29.73 34.54 29.73 34.52 34.28 34.89 34.28 34.92"/>
        <polygon class="cls-17" points="34.28 34.94 29.73 34.56 29.73 34.54 34.28 34.92 34.28 34.94"/>
        <polygon class="cls-157" points="34.28 34.96 29.73 34.58 29.73 34.56 34.28 34.94 34.28 34.96"/>
        <polygon class="cls-18" points="34.28 34.98 29.73 34.6 29.73 34.58 34.28 34.96 34.28 34.98"/>
        <polygon class="cls-110" points="34.28 35 29.73 34.62 29.73 34.6 34.28 34.98 34.28 35"/>
        <polygon class="cls-26" points="34.28 35.02 29.73 34.64 29.73 34.62 34.28 35 34.28 35.02"/>
        <polygon class="cls-39" points="34.28 35.04 29.73 34.67 29.73 34.64 34.28 35.02 34.28 35.04"/>
        <polygon class="cls-162" points="34.28 35.06 29.73 34.69 29.73 34.67 34.28 35.04 34.28 35.06"/>
        <polygon class="cls-117" points="34.28 35.08 29.73 34.71 29.73 34.69 34.28 35.06 34.28 35.08"/>
        <polygon class="cls-109" points="34.28 35.1 29.73 34.73 29.73 34.71 34.28 35.08 34.28 35.1"/>
        <polygon class="cls-107" points="34.28 35.13 29.73 34.75 29.73 34.73 34.28 35.1 34.28 35.13"/>
        <polygon class="cls-103" points="34.28 35.15 29.73 34.77 29.73 34.75 34.28 35.13 34.28 35.15"/>
        <polygon class="cls-77" points="34.28 35.17 29.73 34.79 29.73 34.77 34.28 35.15 34.28 35.17"/>
        <polygon class="cls-6" points="34.28 35.19 29.73 34.81 29.73 34.79 34.28 35.17 34.28 35.19"/>
        <polygon class="cls-115" points="34.28 35.21 29.73 34.83 29.73 34.81 34.28 35.19 34.28 35.21"/>
        <polygon class="cls-125" points="34.28 35.23 29.73 34.85 29.73 34.83 34.28 35.21 34.28 35.23"/>
        <polygon class="cls-113" points="34.28 35.25 29.73 34.88 29.73 34.85 34.28 35.23 34.28 35.25"/>
        <polygon class="cls-153" points="34.28 35.27 29.73 34.9 29.73 34.88 34.28 35.25 34.28 35.27"/>
        <polygon class="cls-74" points="34.28 35.29 29.73 34.92 29.73 34.9 34.28 35.27 34.28 35.29"/>
        <polygon class="cls-101" points="34.28 35.31 29.73 34.94 29.73 34.92 34.28 35.29 34.28 35.31"/>
        <polygon class="cls-79" points="34.28 35.34 29.73 34.96 29.73 34.94 34.28 35.31 34.28 35.34"/>
        <polygon class="cls-130" points="34.28 35.36 29.73 34.98 29.73 34.96 34.28 35.34 34.28 35.36"/>
        <polygon class="cls-134" points="34.28 35.38 29.73 35 29.73 34.98 34.28 35.36 34.28 35.38"/>
        <polygon class="cls-104" points="34.28 35.4 29.73 35.02 29.73 35 34.28 35.38 34.28 35.4"/>
        <polygon class="cls-179" points="34.28 35.42 29.73 35.04 29.73 35.02 34.28 35.4 34.28 35.42"/>
        <polygon class="cls-23" points="34.28 35.44 29.73 35.06 29.73 35.04 34.28 35.42 34.28 35.44"/>
        <polygon class="cls-67" points="34.28 35.46 29.73 35.09 29.73 35.06 34.28 35.44 34.28 35.46"/>
        <polygon class="cls-32" points="34.28 35.48 29.73 35.11 29.73 35.09 34.28 35.46 34.28 35.48"/>
        <polygon class="cls-68" points="34.28 35.5 29.73 35.13 29.73 35.11 34.28 35.48 34.28 35.5"/>
        <polygon class="cls-155" points="34.28 35.52 29.73 35.15 29.73 35.13 34.28 35.5 34.28 35.52"/>
        <polygon class="cls-28" points="34.28 35.55 29.73 35.17 29.73 35.15 34.28 35.52 34.28 35.55"/>
        <polygon class="cls-54" points="34.28 35.57 29.73 35.19 29.73 35.17 34.28 35.55 34.28 35.57"/>
        <polygon class="cls-142" points="34.28 35.59 29.73 35.21 29.73 35.19 34.28 35.57 34.28 35.59"/>
        <polygon class="cls-165" points="34.28 35.61 29.73 35.23 29.73 35.21 34.28 35.59 34.28 35.61"/>
        <polygon class="cls-122" points="34.28 35.63 29.73 35.25 29.73 35.23 34.28 35.61 34.28 35.63"/>
        <polygon class="cls-102" points="34.28 35.65 29.73 35.27 29.73 35.25 34.28 35.63 34.28 35.65"/>
        <polygon class="cls-83" points="34.28 35.67 29.73 35.3 29.73 35.27 34.28 35.65 34.28 35.67"/>
        <polygon class="cls-174" points="34.28 35.69 29.73 35.32 29.73 35.3 34.28 35.67 34.28 35.69"/>
        <polygon class="cls-133" points="34.28 35.71 29.73 35.34 29.73 35.32 34.28 35.69 34.28 35.71"/>
        <polygon class="cls-163" points="34.28 35.73 29.73 35.36 29.73 35.34 34.28 35.71 34.28 35.73"/>
        <polygon class="cls-41" points="34.28 35.76 29.73 35.38 29.73 35.36 34.28 35.73 34.28 35.76"/>
        <polygon class="cls-180" points="34.28 35.78 29.73 35.4 29.73 35.38 34.28 35.76 34.28 35.78"/>
        <polygon class="cls-22" points="34.28 35.8 29.73 35.42 29.73 35.4 34.28 35.78 34.28 35.8"/>
        <polygon class="cls-144" points="34.28 35.82 29.73 35.44 29.73 35.42 34.28 35.8 34.28 35.82"/>
        <polygon class="cls-70" points="34.28 35.84 29.73 35.46 29.73 35.44 34.28 35.82 34.28 35.84"/>
        <polygon class="cls-96" points="34.28 35.86 29.73 35.48 29.73 35.46 34.28 35.84 34.28 35.86"/>
        <polygon class="cls-156" points="34.28 35.88 29.73 35.51 29.73 35.48 34.28 35.86 34.28 35.88"/>
        <polygon class="cls-44" points="34.28 35.9 29.73 35.53 29.73 35.51 34.28 35.88 34.28 35.9"/>
        <polygon class="cls-48" points="34.28 35.92 29.73 35.55 29.73 35.53 34.28 35.9 34.28 35.92"/>
        <polygon class="cls-136" points="34.28 35.94 29.73 35.57 29.73 35.55 34.28 35.92 34.28 35.94"/>
        <polygon class="cls-62" points="34.28 35.97 29.73 35.59 29.73 35.57 34.28 35.94 34.28 35.97"/>
        <polygon class="cls-11" points="34.28 35.99 29.73 35.61 29.73 35.59 34.28 35.97 34.28 35.99"/>
        <polygon class="cls-135" points="34.28 36.01 29.73 35.63 29.73 35.61 34.28 35.99 34.28 36.01"/>
        <polygon class="cls-51" points="34.28 36.03 29.73 35.65 29.73 35.63 34.28 36.01 34.28 36.03"/>
        <polygon class="cls-119" points="34.28 36.05 29.73 35.67 29.73 35.65 34.28 36.03 34.28 36.05"/>
        <polygon class="cls-143" points="34.28 36.07 29.73 35.69 29.73 35.67 34.28 36.05 34.28 36.07"/>
        <polygon class="cls-105" points="34.28 36.09 29.73 35.72 29.73 35.69 34.28 36.07 34.28 36.09"/>
        <polygon class="cls-90" points="34.28 36.11 29.73 35.74 29.73 35.72 34.28 36.09 34.28 36.11"/>
        <polygon class="cls-92" points="34.28 36.13 29.73 35.76 29.73 35.74 34.28 36.11 34.28 36.13"/>
        <polygon class="cls-95" points="34.28 36.15 29.73 35.78 29.73 35.76 34.28 36.13 34.28 36.15"/>
        <polygon class="cls-149" points="34.28 36.18 29.73 35.8 29.73 35.78 34.28 36.15 34.28 36.18"/>
        <polygon class="cls-59" points="34.28 36.2 29.73 35.82 29.73 35.8 34.28 36.18 34.28 36.2"/>
        <polygon class="cls-73" points="34.28 36.22 29.73 35.84 29.73 35.82 34.28 36.2 34.28 36.22"/>
        <polygon class="cls-16" points="34.28 36.24 29.73 35.86 29.73 35.84 34.28 36.22 34.28 36.24"/>
        <polygon class="cls-85" points="34.28 36.26 29.73 35.88 29.73 35.86 34.28 36.24 34.28 36.26"/>
        <polygon class="cls-85" points="34.28 36.28 29.73 35.9 29.73 35.88 34.28 36.26 34.28 36.28"/>
        <polygon class="cls-97" points="34.28 36.3 29.73 35.93 29.73 35.9 34.28 36.28 34.28 36.3"/>
        <polygon class="cls-27" points="34.28 36.32 29.73 35.95 29.73 35.93 34.28 36.3 34.28 36.32"/>
        <polygon class="cls-27" points="34.28 36.34 29.73 35.97 29.73 35.95 34.28 36.32 34.28 36.34"/>
        <polygon class="cls-169" points="34.28 36.36 29.73 35.99 29.73 35.97 34.28 36.34 34.28 36.36"/>
        <polygon class="cls-75" points="34.28 36.39 29.73 36.01 29.73 35.99 34.28 36.36 34.28 36.39"/>
        <polygon class="cls-164" points="34.28 36.41 29.73 36.03 29.73 36.01 34.28 36.39 34.28 36.41"/>
        <polygon class="cls-82" points="34.28 36.43 29.73 36.05 29.73 36.03 34.28 36.41 34.28 36.43"/>
        <polygon class="cls-34" points="34.28 36.45 29.73 36.07 29.73 36.05 34.28 36.43 34.28 36.45"/>
        <polygon class="cls-137" points="34.28 36.47 29.73 36.09 29.73 36.07 34.28 36.45 34.28 36.47"/>
        <polygon class="cls-178" points="34.28 36.49 29.73 36.11 29.73 36.09 34.28 36.47 34.28 36.49"/>
        <polygon class="cls-76" points="34.28 36.51 29.73 36.14 29.73 36.11 34.28 36.49 34.28 36.51"/>
        <polygon class="cls-38" points="34.28 36.53 29.73 36.16 29.73 36.14 34.28 36.51 34.28 36.53"/>
        <polygon class="cls-21" points="34.28 36.55 29.73 36.18 29.73 36.16 34.28 36.53 34.28 36.55"/>
        <polygon class="cls-33" points="34.28 36.57 29.73 36.2 29.73 36.18 34.28 36.55 34.28 36.57"/>
        <polygon class="cls-128" points="34.28 36.6 29.73 36.22 29.73 36.2 34.28 36.57 34.28 36.6"/>
        <polygon class="cls-91" points="34.28 36.62 29.73 36.24 29.73 36.22 34.28 36.6 34.28 36.62"/>
        <polygon class="cls-172" points="34.28 36.64 29.73 36.26 29.73 36.24 34.28 36.62 34.28 36.64"/>
        <polygon class="cls-31" points="34.28 36.66 29.73 36.28 29.73 36.26 34.28 36.64 34.28 36.66"/>
        <polygon class="cls-121" points="34.28 36.68 29.73 36.3 29.73 36.28 34.28 36.66 34.28 36.68"/>
        <polygon class="cls-111" points="34.28 36.7 29.73 36.32 29.73 36.3 34.28 36.68 34.28 36.7"/>
        <polygon class="cls-9" points="34.28 36.72 29.73 36.35 29.73 36.32 34.28 36.7 34.28 36.72"/>
        <polygon class="cls-140" points="34.28 36.74 29.73 36.37 29.73 36.35 34.28 36.72 34.28 36.74"/>
        <polygon class="cls-140" points="34.28 36.76 29.73 36.39 29.73 36.37 34.28 36.74 34.28 36.76"/>
        <polygon class="cls-29" points="34.28 36.78 29.73 36.41 29.73 36.39 34.28 36.76 34.28 36.78"/>
        <polygon class="cls-19" points="34.28 36.81 29.73 36.43 29.73 36.41 34.28 36.78 34.28 36.81"/>
        <polygon class="cls-126" points="34.28 36.83 29.73 36.45 29.73 36.43 34.28 36.81 34.28 36.83"/>
        <polygon class="cls-94" points="34.28 36.85 29.73 36.47 29.73 36.45 34.28 36.83 34.28 36.85"/>
        <polygon class="cls-129" points="34.28 36.87 29.73 36.49 29.73 36.47 34.28 36.85 34.28 36.87"/>
        <polygon class="cls-129" points="34.28 36.89 29.73 36.51 29.73 36.49 34.28 36.87 34.28 36.89"/>
        <polygon class="cls-58" points="34.28 36.91 29.73 36.53 29.73 36.51 34.28 36.89 34.28 36.91"/>
        <polygon class="cls-58" points="34.28 36.93 29.73 36.56 29.73 36.53 34.28 36.91 34.28 36.93"/>
        <polygon class="cls-55" points="34.28 36.95 29.73 36.58 29.73 36.56 34.28 36.93 34.28 36.95"/>
        <polygon class="cls-170" points="34.28 36.97 29.73 36.6 29.73 36.58 34.28 36.95 34.28 36.97"/>
        <polygon class="cls-170" points="34.28 36.99 29.73 36.62 29.73 36.6 34.28 36.97 34.28 36.99"/>
        <polygon class="cls-10" points="34.28 37.02 29.73 36.64 29.73 36.62 34.28 36.99 34.28 37.02"/>
        <polygon class="cls-72" points="34.28 37.04 29.73 36.66 29.73 36.64 34.28 37.02 34.28 37.04"/>
        <polygon class="cls-154" points="34.28 37.06 29.73 36.68 29.73 36.66 34.28 37.04 34.28 37.06"/>
        <polygon class="cls-60" points="34.28 37.08 29.73 36.7 29.73 36.68 34.28 37.06 34.28 37.08"/>
        <polygon class="cls-175" points="34.28 37.1 29.73 36.72 29.73 36.7 34.28 37.08 34.28 37.1"/>
        <polygon class="cls-114" points="34.28 37.12 29.73 36.74 29.73 36.72 34.28 37.1 34.28 37.12"/>
        <polygon class="cls-114" points="34.28 37.14 29.73 36.77 29.73 36.74 34.28 37.12 34.28 37.14"/>
        <polygon class="cls-3" points="34.28 37.16 29.73 36.79 29.73 36.77 34.28 37.14 34.28 37.16"/>
        <polygon class="cls-52" points="34.28 37.18 29.73 36.81 29.73 36.79 34.28 37.16 34.28 37.18"/>
        <polygon class="cls-158" points="34.28 37.2 29.73 36.83 29.73 36.81 34.28 37.18 34.28 37.2"/>
        <polygon class="cls-158" points="34.28 37.23 29.73 36.85 29.73 36.83 34.28 37.2 34.28 37.23"/>
        <polygon class="cls-89" points="34.28 37.25 29.73 36.87 29.73 36.85 34.28 37.23 34.28 37.25"/>
        <polygon class="cls-46" points="34.28 37.27 29.73 36.89 29.73 36.87 34.28 37.25 34.28 37.27"/>
        <polygon class="cls-46" points="34.28 37.29 29.73 36.91 29.73 36.89 34.28 37.27 34.28 37.29"/>
        <polygon class="cls-99" points="34.28 37.31 29.73 36.93 29.73 36.91 34.28 37.29 34.28 37.31"/>
        <polygon class="cls-99" points="34.28 37.33 29.73 36.95 29.73 36.93 34.28 37.31 34.28 37.33"/>
        <polygon class="cls-108" points="34.28 37.35 29.73 36.98 29.73 36.95 34.28 37.33 34.28 37.35"/>
        <polygon class="cls-15" points="34.28 37.37 29.73 37 29.73 36.98 34.28 37.35 34.28 37.37"/>
        <polygon class="cls-106" points="34.28 37.39 29.73 37.02 29.73 37 34.28 37.37 34.28 37.39"/>
        <polygon class="cls-106" points="34.28 37.41 29.73 37.04 29.73 37.02 34.28 37.39 34.28 37.41"/>
        <polygon class="cls-42" points="34.28 37.44 29.73 37.06 29.73 37.04 34.28 37.41 34.28 37.44"/>
        <polygon class="cls-176" points="34.28 37.46 29.73 37.08 29.73 37.06 34.28 37.44 34.28 37.46"/>
        <polygon class="cls-176" points="34.28 37.48 29.73 37.1 29.73 37.08 34.28 37.46 34.28 37.48"/>
        <polygon class="cls-116" points="34.28 37.5 29.73 37.12 29.73 37.1 34.28 37.48 34.28 37.5"/>
        <polygon class="cls-56" points="34.28 37.52 29.73 37.14 29.73 37.12 34.28 37.5 34.28 37.52"/>
        <polygon class="cls-30" points="34.28 37.54 29.73 37.16 29.73 37.14 34.28 37.52 34.28 37.54"/>
        <polygon class="cls-24" points="34.28 37.56 29.73 37.19 29.73 37.16 34.28 37.54 34.28 37.56"/>
        <polygon class="cls-24" points="34.28 37.58 29.73 37.21 29.73 37.19 34.28 37.56 34.28 37.58"/>
        <polygon class="cls-167" points="34.28 37.6 29.73 37.23 29.73 37.21 34.28 37.58 34.28 37.6"/>
        <polygon class="cls-131" points="34.28 37.62 29.73 37.25 29.73 37.23 34.28 37.6 34.28 37.62"/>
        <polygon class="cls-131" points="34.28 37.65 29.73 37.27 29.73 37.25 34.28 37.62 34.28 37.65"/>
        <polygon class="cls-131" points="34.28 37.67 29.73 37.29 29.73 37.27 34.28 37.65 34.28 37.67"/>
        <polygon class="cls-93" points="34.28 37.69 29.73 37.31 29.73 37.29 34.28 37.67 34.28 37.69"/>
        <polygon class="cls-93" points="34.28 37.71 29.73 37.33 29.73 37.31 34.28 37.69 34.28 37.71"/>
        <polygon class="cls-80" points="34.28 37.73 29.73 37.35 29.73 37.33 34.28 37.71 34.28 37.73"/>
        <polygon class="cls-80" points="34.28 37.75 29.73 37.37 29.73 37.35 34.28 37.73 34.28 37.75"/>
        <polygon class="cls-141" points="34.28 37.77 29.73 37.4 29.73 37.37 34.28 37.75 34.28 37.77"/>
        <polygon class="cls-4" points="34.28 37.79 29.73 37.42 29.73 37.4 34.28 37.77 34.28 37.79"/>
        <polygon class="cls-4" points="34.28 37.81 29.73 37.44 29.73 37.42 34.28 37.79 34.28 37.81"/>
        <polygon class="cls-45" points="34.28 37.83 29.73 37.46 29.73 37.44 34.28 37.81 34.28 37.83"/>
        <polygon class="cls-61" points="34.28 37.86 29.73 37.48 29.73 37.46 34.28 37.83 34.28 37.86"/>
        <polygon class="cls-87" points="34.28 37.88 29.73 37.5 29.73 37.48 34.28 37.86 34.28 37.88"/>
        <polygon class="cls-87" points="34.28 37.9 29.73 37.52 29.73 37.5 34.28 37.88 34.28 37.9"/>
        <polygon class="cls-87" points="34.28 37.92 29.73 37.54 29.73 37.52 34.28 37.9 34.28 37.92"/>
        <polygon class="cls-177" points="34.28 37.94 29.73 37.56 29.73 37.54 34.28 37.92 34.28 37.94"/>
        <polygon class="cls-12" points="34.28 37.96 29.73 37.58 29.73 37.56 34.28 37.94 34.28 37.96"/>
        <polygon class="cls-12" points="34.28 37.98 29.73 37.61 29.73 37.58 34.28 37.96 34.28 37.98"/>
        <polygon class="cls-173" points="34.28 38 29.73 37.63 29.73 37.61 34.28 37.98 34.28 38"/>
        <polygon class="cls-139" points="34.28 38.02 29.73 37.65 29.73 37.63 34.28 38 34.28 38.02"/>
        <polygon class="cls-139" points="34.28 38.05 29.73 37.67 29.73 37.65 34.28 38.02 34.28 38.05"/>
        <polygon class="cls-139" points="34.28 38.07 29.73 37.69 29.73 37.67 34.28 38.05 34.28 38.07"/>
        <polygon class="cls-139" points="34.28 38.09 29.73 37.71 29.73 37.69 34.28 38.07 34.28 38.09"/>
        <polygon class="cls-40" points="34.28 38.11 29.73 37.73 29.73 37.71 34.28 38.09 34.28 38.11"/>
        <polygon class="cls-100" points="34.28 38.13 29.73 37.75 29.73 37.73 34.28 38.11 34.28 38.13"/>
        <polygon class="cls-20" points="34.23 38.15 29.73 37.77 29.73 37.75 34.28 38.13 34.28 38.15 34.23 38.15"/>
        <polygon class="cls-20" points="33.97 38.15 29.73 37.79 29.73 37.77 34.23 38.15 33.97 38.15"/>
        <polygon class="cls-20" points="33.72 38.15 29.73 37.82 29.73 37.79 33.97 38.15 33.72 38.15"/>
        <polygon class="cls-20" points="33.46 38.15 29.73 37.84 29.73 37.82 33.72 38.15 33.46 38.15"/>
        <polygon class="cls-20" points="33.21 38.15 29.73 37.86 29.73 37.84 33.46 38.15 33.21 38.15"/>
        <polygon class="cls-20" points="32.95 38.15 29.73 37.88 29.73 37.86 33.21 38.15 32.95 38.15"/>
        <polygon class="cls-69" points="32.7 38.15 29.73 37.9 29.73 37.88 32.95 38.15 32.7 38.15"/>
        <polygon class="cls-150" points="32.45 38.15 29.73 37.92 29.73 37.9 32.7 38.15 32.45 38.15"/>
        <polygon class="cls-150" points="32.19 38.15 29.73 37.94 29.73 37.92 32.45 38.15 32.19 38.15"/>
        <polygon class="cls-150" points="31.94 38.15 29.73 37.96 29.73 37.94 32.19 38.15 31.94 38.15"/>
        <polygon class="cls-150" points="31.68 38.15 29.73 37.98 29.73 37.96 31.94 38.15 31.68 38.15"/>
        <polygon class="cls-150" points="31.43 38.15 29.73 38 29.73 37.98 31.68 38.15 31.43 38.15"/>
        <polygon class="cls-150" points="31.17 38.15 29.73 38.03 29.73 38 31.43 38.15 31.17 38.15"/>
        <polygon class="cls-150" points="30.92 38.15 29.73 38.05 29.73 38.03 31.17 38.15 30.92 38.15"/>
        <polygon class="cls-35" points="30.67 38.15 29.73 38.07 29.73 38.05 30.92 38.15 30.67 38.15"/>
        <polygon class="cls-35" points="30.41 38.15 29.73 38.09 29.73 38.07 30.67 38.15 30.41 38.15"/>
        <polygon class="cls-53" points="30.16 38.15 29.73 38.11 29.73 38.09 30.41 38.15 30.16 38.15"/>
        <polygon class="cls-53" points="29.9 38.15 29.73 38.13 29.73 38.11 30.16 38.15 29.9 38.15"/>
        <polygon class="cls-53" points="29.73 38.13 29.9 38.15 29.73 38.15 29.73 38.13"/>
      </g>
      <path class="cls-43" d="M31.9,37.37c-.64-.05-1.14-.7-1.08-1.4.06-.71.65-1.26,1.29-1.21.64.05,1.14.7,1.08,1.4-.06.71-.65,1.26-1.29,1.21Z"/>
      <path class="cls-132" d="M31.96,37.12c-.45-.04-.91-.53-.86-1.13.05-.6.59-1.01,1.03-.97.45.04.91.53.86,1.13-.05.6-.59,1.01-1.03.97Z"/>
      <g class="cls-120">
        <path class="cls-152" d="M35.54,38.92s-.05,0-.17.04c-.08-1.3-.33-3.09-1.07-3.45-1.09-.55-3.55-1.36-6.7.57-.32-.57-.48-.99-.48-.99,3.43-2.45,6.13-1.57,7.3-.99,1.18.59,1.12,4.81,1.12,4.81Z"/>
      </g>
      <path class="cls-98" d="M31.59,35.64c-.02.22-.24.38-.5.35-.26-.02-.45-.22-.43-.43.02-.22.24-.38.5-.36.26.02.45.21.44.43Z"/>
      <path class="cls-98" d="M33.04,36.89c0,.11-.12.19-.25.18-.13-.01-.23-.11-.22-.22,0-.11.12-.19.25-.18.13,0,.23.11.22.22Z"/>
      <path class="cls-37" d="M42.5,32.86s.38-.58,1.16-1.18c.39-.3.88-.62,1.45-.86.57-.24,1.21-.42,1.87-.51.66-.07,1.32-.03,1.92.05.6.11,1.14.29,1.58.48.45.15.78.4,1.02.53.23.15.37.23.37.23,0,0-.15-.04-.42-.1-.26-.07-.63-.18-1.09-.24-.23-.03-.46-.1-.72-.11-.26-.02-.52-.04-.8-.06-.55,0-1.14.02-1.71.15-.57.1-1.12.28-1.61.5-.49.23-.94.46-1.3.71-.74.49-1.14.89-1.14.89-.15.15-.39.15-.54,0-.13-.13-.15-.33-.05-.48h0Z"/>
      <path class="cls-98" d="M52.27,35.1s-1.46,3.64-3.73,3.99c-2.27.35-4.68-.16-4.68-.16,0,0-.06-4.22,1.12-4.81,1.18-.59,3.87-1.46,7.3.98Z"/>
      <g class="cls-120">
        <path class="cls-152" d="M43.85,38.92s.05,0,.17.04c.08-1.3.34-3.09,1.07-3.45,1.09-.55,3.55-1.36,6.7.57.32-.57.48-.99.48-.99-3.43-2.45-6.13-1.57-7.3-.99-1.18.59-1.12,4.81-1.12,4.81Z"/>
      </g>
      <g class="cls-78">
        <polygon class="cls-124" points="49.68 34.33 45.12 33.96 45.12 33.53 49.68 33.53 49.68 34.33"/>
        <polygon class="cls-124" points="49.68 34.35 45.12 33.98 45.12 33.96 49.68 34.33 49.68 34.35"/>
        <polygon class="cls-168" points="49.68 34.37 45.12 34 45.12 33.98 49.68 34.35 49.68 34.37"/>
        <polygon class="cls-161" points="49.68 34.4 45.12 34.02 45.12 34 49.68 34.37 49.68 34.4"/>
        <polygon class="cls-86" points="49.68 34.42 45.12 34.04 45.12 34.02 49.68 34.4 49.68 34.42"/>
        <polygon class="cls-14" points="49.68 34.44 45.12 34.06 45.12 34.04 49.68 34.42 49.68 34.44"/>
        <polygon class="cls-138" points="49.68 34.46 45.12 34.08 45.12 34.06 49.68 34.44 49.68 34.46"/>
        <polygon class="cls-66" points="49.68 34.48 45.12 34.1 45.12 34.08 49.68 34.46 49.68 34.48"/>
        <polygon class="cls-2" points="49.68 34.5 45.12 34.12 45.12 34.1 49.68 34.48 49.68 34.5"/>
        <polygon class="cls-13" points="49.68 34.52 45.12 34.15 45.12 34.12 49.68 34.5 49.68 34.52"/>
        <polygon class="cls-71" points="49.68 34.54 45.12 34.17 45.12 34.15 49.68 34.52 49.68 34.54"/>
        <polygon class="cls-49" points="49.68 34.56 45.12 34.19 45.12 34.17 49.68 34.54 49.68 34.56"/>
        <polygon class="cls-63" points="49.68 34.58 45.12 34.21 45.12 34.19 49.68 34.56 49.68 34.58"/>
        <polygon class="cls-112" points="49.68 34.61 45.12 34.23 45.12 34.21 49.68 34.58 49.68 34.61"/>
        <polygon class="cls-148" points="49.68 34.63 45.12 34.25 45.12 34.23 49.68 34.61 49.68 34.63"/>
        <polygon class="cls-145" points="49.68 34.65 45.12 34.27 45.12 34.25 49.68 34.63 49.68 34.65"/>
        <polygon class="cls-65" points="49.68 34.67 45.12 34.29 45.12 34.27 49.68 34.65 49.68 34.67"/>
        <polygon class="cls-50" points="49.68 34.69 45.12 34.31 45.12 34.29 49.68 34.67 49.68 34.69"/>
        <polygon class="cls-160" points="49.68 34.71 45.12 34.33 45.12 34.31 49.68 34.69 49.68 34.71"/>
        <polygon class="cls-151" points="49.68 34.73 45.12 34.36 45.12 34.33 49.68 34.71 49.68 34.73"/>
        <polygon class="cls-123" points="49.68 34.75 45.12 34.38 45.12 34.36 49.68 34.73 49.68 34.75"/>
        <polygon class="cls-146" points="49.68 34.77 45.12 34.4 45.12 34.38 49.68 34.75 49.68 34.77"/>
        <polygon class="cls-127" points="49.68 34.79 45.12 34.42 45.12 34.4 49.68 34.77 49.68 34.79"/>
        <polygon class="cls-17" points="49.68 34.82 45.12 34.44 45.12 34.42 49.68 34.79 49.68 34.82"/>
        <polygon class="cls-157" points="49.68 34.84 45.12 34.46 45.12 34.44 49.68 34.82 49.68 34.84"/>
        <polygon class="cls-18" points="49.68 34.86 45.12 34.48 45.12 34.46 49.68 34.84 49.68 34.86"/>
        <polygon class="cls-110" points="49.68 34.88 45.12 34.5 45.12 34.48 49.68 34.86 49.68 34.88"/>
        <polygon class="cls-26" points="49.68 34.9 45.12 34.52 45.12 34.5 49.68 34.88 49.68 34.9"/>
        <polygon class="cls-39" points="49.68 34.92 45.12 34.54 45.12 34.52 49.68 34.9 49.68 34.92"/>
        <polygon class="cls-162" points="49.68 34.94 45.12 34.57 45.12 34.54 49.68 34.92 49.68 34.94"/>
        <polygon class="cls-117" points="49.68 34.96 45.12 34.59 45.12 34.57 49.68 34.94 49.68 34.96"/>
        <polygon class="cls-109" points="49.68 34.98 45.12 34.61 45.12 34.59 49.68 34.96 49.68 34.98"/>
        <polygon class="cls-107" points="49.68 35 45.12 34.63 45.12 34.61 49.68 34.98 49.68 35"/>
        <polygon class="cls-103" points="49.68 35.03 45.12 34.65 45.12 34.63 49.68 35 49.68 35.03"/>
        <polygon class="cls-77" points="49.68 35.05 45.12 34.67 45.12 34.65 49.68 35.03 49.68 35.05"/>
        <polygon class="cls-6" points="49.68 35.07 45.12 34.69 45.12 34.67 49.68 35.05 49.68 35.07"/>
        <polygon class="cls-115" points="49.68 35.09 45.12 34.71 45.12 34.69 49.68 35.07 49.68 35.09"/>
        <polygon class="cls-125" points="49.68 35.11 45.12 34.73 45.12 34.71 49.68 35.09 49.68 35.11"/>
        <polygon class="cls-113" points="49.68 35.13 45.12 34.75 45.12 34.73 49.68 35.11 49.68 35.13"/>
        <polygon class="cls-153" points="49.68 35.15 45.12 34.78 45.12 34.75 49.68 35.13 49.68 35.15"/>
        <polygon class="cls-74" points="49.68 35.17 45.12 34.8 45.12 34.78 49.68 35.15 49.68 35.17"/>
        <polygon class="cls-101" points="49.68 35.19 45.12 34.82 45.12 34.8 49.68 35.17 49.68 35.19"/>
        <polygon class="cls-79" points="49.68 35.21 45.12 34.84 45.12 34.82 49.68 35.19 49.68 35.21"/>
        <polygon class="cls-130" points="49.68 35.24 45.12 34.86 45.12 34.84 49.68 35.21 49.68 35.24"/>
        <polygon class="cls-134" points="49.68 35.26 45.12 34.88 45.12 34.86 49.68 35.24 49.68 35.26"/>
        <polygon class="cls-104" points="49.68 35.28 45.12 34.9 45.12 34.88 49.68 35.26 49.68 35.28"/>
        <polygon class="cls-179" points="49.68 35.3 45.12 34.92 45.12 34.9 49.68 35.28 49.68 35.3"/>
        <polygon class="cls-23" points="49.68 35.32 45.12 34.94 45.12 34.92 49.68 35.3 49.68 35.32"/>
        <polygon class="cls-67" points="49.68 35.34 45.12 34.96 45.12 34.94 49.68 35.32 49.68 35.34"/>
        <polygon class="cls-32" points="49.68 35.36 45.12 34.99 45.12 34.96 49.68 35.34 49.68 35.36"/>
        <polygon class="cls-68" points="49.68 35.38 45.12 35.01 45.12 34.99 49.68 35.36 49.68 35.38"/>
        <polygon class="cls-155" points="49.68 35.4 45.12 35.03 45.12 35.01 49.68 35.38 49.68 35.4"/>
        <polygon class="cls-28" points="49.68 35.42 45.12 35.05 45.12 35.03 49.68 35.4 49.68 35.42"/>
        <polygon class="cls-54" points="49.68 35.45 45.12 35.07 45.12 35.05 49.68 35.42 49.68 35.45"/>
        <polygon class="cls-142" points="49.68 35.47 45.12 35.09 45.12 35.07 49.68 35.45 49.68 35.47"/>
        <polygon class="cls-165" points="49.68 35.49 45.12 35.11 45.12 35.09 49.68 35.47 49.68 35.49"/>
        <polygon class="cls-122" points="49.68 35.51 45.12 35.13 45.12 35.11 49.68 35.49 49.68 35.51"/>
        <polygon class="cls-102" points="49.68 35.53 45.12 35.15 45.12 35.13 49.68 35.51 49.68 35.53"/>
        <polygon class="cls-83" points="49.68 35.55 45.12 35.17 45.12 35.15 49.68 35.53 49.68 35.55"/>
        <polygon class="cls-174" points="49.68 35.57 45.12 35.2 45.12 35.17 49.68 35.55 49.68 35.57"/>
        <polygon class="cls-133" points="49.68 35.59 45.12 35.22 45.12 35.2 49.68 35.57 49.68 35.59"/>
        <polygon class="cls-163" points="49.68 35.61 45.12 35.24 45.12 35.22 49.68 35.59 49.68 35.61"/>
        <polygon class="cls-41" points="49.68 35.63 45.12 35.26 45.12 35.24 49.68 35.61 49.68 35.63"/>
        <polygon class="cls-180" points="49.68 35.66 45.12 35.28 45.12 35.26 49.68 35.63 49.68 35.66"/>
        <polygon class="cls-22" points="49.68 35.68 45.12 35.3 45.12 35.28 49.68 35.66 49.68 35.68"/>
        <polygon class="cls-144" points="49.68 35.7 45.12 35.32 45.12 35.3 49.68 35.68 49.68 35.7"/>
        <polygon class="cls-70" points="49.68 35.72 45.12 35.34 45.12 35.32 49.68 35.7 49.68 35.72"/>
        <polygon class="cls-96" points="49.68 35.74 45.12 35.36 45.12 35.34 49.68 35.72 49.68 35.74"/>
        <polygon class="cls-156" points="49.68 35.76 45.12 35.38 45.12 35.36 49.68 35.74 49.68 35.76"/>
        <polygon class="cls-44" points="49.68 35.78 45.12 35.41 45.12 35.38 49.68 35.76 49.68 35.78"/>
        <polygon class="cls-48" points="49.68 35.8 45.12 35.43 45.12 35.41 49.68 35.78 49.68 35.8"/>
        <polygon class="cls-136" points="49.68 35.82 45.12 35.45 45.12 35.43 49.68 35.8 49.68 35.82"/>
        <polygon class="cls-62" points="49.68 35.84 45.12 35.47 45.12 35.45 49.68 35.82 49.68 35.84"/>
        <polygon class="cls-11" points="49.68 35.87 45.12 35.49 45.12 35.47 49.68 35.84 49.68 35.87"/>
        <polygon class="cls-135" points="49.68 35.89 45.12 35.51 45.12 35.49 49.68 35.87 49.68 35.89"/>
        <polygon class="cls-51" points="49.68 35.91 45.12 35.53 45.12 35.51 49.68 35.89 49.68 35.91"/>
        <polygon class="cls-119" points="49.68 35.93 45.12 35.55 45.12 35.53 49.68 35.91 49.68 35.93"/>
        <polygon class="cls-143" points="49.68 35.95 45.12 35.57 45.12 35.55 49.68 35.93 49.68 35.95"/>
        <polygon class="cls-105" points="49.68 35.97 45.12 35.59 45.12 35.57 49.68 35.95 49.68 35.97"/>
        <polygon class="cls-90" points="49.68 35.99 45.12 35.62 45.12 35.59 49.68 35.97 49.68 35.99"/>
        <polygon class="cls-92" points="49.68 36.01 45.12 35.64 45.12 35.62 49.68 35.99 49.68 36.01"/>
        <polygon class="cls-95" points="49.68 36.03 45.12 35.66 45.12 35.64 49.68 36.01 49.68 36.03"/>
        <polygon class="cls-149" points="49.68 36.05 45.12 35.68 45.12 35.66 49.68 36.03 49.68 36.05"/>
        <polygon class="cls-59" points="49.68 36.08 45.12 35.7 45.12 35.68 49.68 36.05 49.68 36.08"/>
        <polygon class="cls-73" points="49.68 36.1 45.12 35.72 45.12 35.7 49.68 36.08 49.68 36.1"/>
        <polygon class="cls-16" points="49.68 36.12 45.12 35.74 45.12 35.72 49.68 36.1 49.68 36.12"/>
        <polygon class="cls-85" points="49.68 36.14 45.12 35.76 45.12 35.74 49.68 36.12 49.68 36.14"/>
        <polygon class="cls-85" points="49.68 36.16 45.12 35.78 45.12 35.76 49.68 36.14 49.68 36.16"/>
        <polygon class="cls-97" points="49.68 36.18 45.12 35.8 45.12 35.78 49.68 36.16 49.68 36.18"/>
        <polygon class="cls-27" points="49.68 36.2 45.12 35.83 45.12 35.8 49.68 36.18 49.68 36.2"/>
        <polygon class="cls-27" points="49.68 36.22 45.12 35.85 45.12 35.83 49.68 36.2 49.68 36.22"/>
        <polygon class="cls-169" points="49.68 36.24 45.12 35.87 45.12 35.85 49.68 36.22 49.68 36.24"/>
        <polygon class="cls-75" points="49.68 36.26 45.12 35.89 45.12 35.87 49.68 36.24 49.68 36.26"/>
        <polygon class="cls-164" points="49.68 36.29 45.12 35.91 45.12 35.89 49.68 36.26 49.68 36.29"/>
        <polygon class="cls-82" points="49.68 36.31 45.12 35.93 45.12 35.91 49.68 36.29 49.68 36.31"/>
        <polygon class="cls-34" points="49.68 36.33 45.12 35.95 45.12 35.93 49.68 36.31 49.68 36.33"/>
        <polygon class="cls-137" points="49.68 36.35 45.12 35.97 45.12 35.95 49.68 36.33 49.68 36.35"/>
        <polygon class="cls-178" points="49.68 36.37 45.12 35.99 45.12 35.97 49.68 36.35 49.68 36.37"/>
        <polygon class="cls-76" points="49.68 36.39 45.12 36.01 45.12 35.99 49.68 36.37 49.68 36.39"/>
        <polygon class="cls-38" points="49.68 36.41 45.12 36.04 45.12 36.01 49.68 36.39 49.68 36.41"/>
        <polygon class="cls-21" points="49.68 36.43 45.12 36.06 45.12 36.04 49.68 36.41 49.68 36.43"/>
        <polygon class="cls-33" points="49.68 36.45 45.12 36.08 45.12 36.06 49.68 36.43 49.68 36.45"/>
        <polygon class="cls-128" points="49.68 36.47 45.12 36.1 45.12 36.08 49.68 36.45 49.68 36.47"/>
        <polygon class="cls-91" points="49.68 36.5 45.12 36.12 45.12 36.1 49.68 36.47 49.68 36.5"/>
        <polygon class="cls-172" points="49.68 36.52 45.12 36.14 45.12 36.12 49.68 36.5 49.68 36.52"/>
        <polygon class="cls-31" points="49.68 36.54 45.12 36.16 45.12 36.14 49.68 36.52 49.68 36.54"/>
        <polygon class="cls-121" points="49.68 36.56 45.12 36.18 45.12 36.16 49.68 36.54 49.68 36.56"/>
        <polygon class="cls-111" points="49.68 36.58 45.12 36.2 45.12 36.18 49.68 36.56 49.68 36.58"/>
        <polygon class="cls-9" points="49.68 36.6 45.12 36.22 45.12 36.2 49.68 36.58 49.68 36.6"/>
        <polygon class="cls-140" points="49.68 36.62 45.12 36.25 45.12 36.22 49.68 36.6 49.68 36.62"/>
        <polygon class="cls-140" points="49.68 36.64 45.12 36.27 45.12 36.25 49.68 36.62 49.68 36.64"/>
        <polygon class="cls-29" points="49.68 36.66 45.12 36.29 45.12 36.27 49.68 36.64 49.68 36.66"/>
        <polygon class="cls-19" points="49.68 36.68 45.12 36.31 45.12 36.29 49.68 36.66 49.68 36.68"/>
        <polygon class="cls-126" points="49.68 36.71 45.12 36.33 45.12 36.31 49.68 36.68 49.68 36.71"/>
        <polygon class="cls-94" points="49.68 36.73 45.12 36.35 45.12 36.33 49.68 36.71 49.68 36.73"/>
        <polygon class="cls-129" points="49.68 36.75 45.12 36.37 45.12 36.35 49.68 36.73 49.68 36.75"/>
        <polygon class="cls-129" points="49.68 36.77 45.12 36.39 45.12 36.37 49.68 36.75 49.68 36.77"/>
        <polygon class="cls-58" points="49.68 36.79 45.12 36.41 45.12 36.39 49.68 36.77 49.68 36.79"/>
        <polygon class="cls-58" points="49.68 36.81 45.12 36.43 45.12 36.41 49.68 36.79 49.68 36.81"/>
        <polygon class="cls-55" points="49.68 36.83 45.12 36.46 45.12 36.43 49.68 36.81 49.68 36.83"/>
        <polygon class="cls-170" points="49.68 36.85 45.12 36.48 45.12 36.46 49.68 36.83 49.68 36.85"/>
        <polygon class="cls-170" points="49.68 36.87 45.12 36.5 45.12 36.48 49.68 36.85 49.68 36.87"/>
        <polygon class="cls-10" points="49.68 36.89 45.12 36.52 45.12 36.5 49.68 36.87 49.68 36.89"/>
        <polygon class="cls-72" points="49.68 36.92 45.12 36.54 45.12 36.52 49.68 36.89 49.68 36.92"/>
        <polygon class="cls-154" points="49.68 36.94 45.12 36.56 45.12 36.54 49.68 36.92 49.68 36.94"/>
        <polygon class="cls-60" points="49.68 36.96 45.12 36.58 45.12 36.56 49.68 36.94 49.68 36.96"/>
        <polygon class="cls-175" points="49.68 36.98 45.12 36.6 45.12 36.58 49.68 36.96 49.68 36.98"/>
        <polygon class="cls-114" points="49.68 37 45.12 36.62 45.12 36.6 49.68 36.98 49.68 37"/>
        <polygon class="cls-114" points="49.68 37.02 45.12 36.64 45.12 36.62 49.68 37 49.68 37.02"/>
        <polygon class="cls-3" points="49.68 37.04 45.12 36.67 45.12 36.64 49.68 37.02 49.68 37.04"/>
        <polygon class="cls-52" points="49.68 37.06 45.12 36.69 45.12 36.67 49.68 37.04 49.68 37.06"/>
        <polygon class="cls-158" points="49.68 37.08 45.12 36.71 45.12 36.69 49.68 37.06 49.68 37.08"/>
        <polygon class="cls-158" points="49.68 37.1 45.12 36.73 45.12 36.71 49.68 37.08 49.68 37.1"/>
        <polygon class="cls-89" points="49.68 37.13 45.12 36.75 45.12 36.73 49.68 37.1 49.68 37.13"/>
        <polygon class="cls-46" points="49.68 37.15 45.12 36.77 45.12 36.75 49.68 37.13 49.68 37.15"/>
        <polygon class="cls-46" points="49.68 37.17 45.12 36.79 45.12 36.77 49.68 37.15 49.68 37.17"/>
        <polygon class="cls-99" points="49.68 37.19 45.12 36.81 45.12 36.79 49.68 37.17 49.68 37.19"/>
        <polygon class="cls-99" points="49.68 37.21 45.12 36.83 45.12 36.81 49.68 37.19 49.68 37.21"/>
        <polygon class="cls-108" points="49.68 37.23 45.12 36.85 45.12 36.83 49.68 37.21 49.68 37.23"/>
        <polygon class="cls-15" points="49.68 37.25 45.12 36.88 45.12 36.85 49.68 37.23 49.68 37.25"/>
        <polygon class="cls-106" points="49.68 37.27 45.12 36.9 45.12 36.88 49.68 37.25 49.68 37.27"/>
        <polygon class="cls-106" points="49.68 37.29 45.12 36.92 45.12 36.9 49.68 37.27 49.68 37.29"/>
        <polygon class="cls-42" points="49.68 37.31 45.12 36.94 45.12 36.92 49.68 37.29 49.68 37.31"/>
        <polygon class="cls-176" points="49.68 37.34 45.12 36.96 45.12 36.94 49.68 37.31 49.68 37.34"/>
        <polygon class="cls-176" points="49.68 37.36 45.12 36.98 45.12 36.96 49.68 37.34 49.68 37.36"/>
        <polygon class="cls-116" points="49.68 37.38 45.12 37 45.12 36.98 49.68 37.36 49.68 37.38"/>
        <polygon class="cls-56" points="49.68 37.4 45.12 37.02 45.12 37 49.68 37.38 49.68 37.4"/>
        <polygon class="cls-30" points="49.68 37.42 45.12 37.04 45.12 37.02 49.68 37.4 49.68 37.42"/>
        <polygon class="cls-24" points="49.68 37.44 45.12 37.06 45.12 37.04 49.68 37.42 49.68 37.44"/>
        <polygon class="cls-24" points="49.68 37.46 45.12 37.09 45.12 37.06 49.68 37.44 49.68 37.46"/>
        <polygon class="cls-167" points="49.68 37.48 45.12 37.11 45.12 37.09 49.68 37.46 49.68 37.48"/>
        <polygon class="cls-131" points="49.68 37.5 45.12 37.13 45.12 37.11 49.68 37.48 49.68 37.5"/>
        <polygon class="cls-131" points="49.68 37.52 45.12 37.15 45.12 37.13 49.68 37.5 49.68 37.52"/>
        <polygon class="cls-131" points="49.68 37.55 45.12 37.17 45.12 37.15 49.68 37.52 49.68 37.55"/>
        <polygon class="cls-93" points="49.68 37.57 45.12 37.19 45.12 37.17 49.68 37.55 49.68 37.57"/>
        <polygon class="cls-93" points="49.68 37.59 45.12 37.21 45.12 37.19 49.68 37.57 49.68 37.59"/>
        <polygon class="cls-80" points="49.68 37.61 45.12 37.23 45.12 37.21 49.68 37.59 49.68 37.61"/>
        <polygon class="cls-80" points="49.68 37.63 45.12 37.25 45.12 37.23 49.68 37.61 49.68 37.63"/>
        <polygon class="cls-141" points="49.68 37.65 45.12 37.27 45.12 37.25 49.68 37.63 49.68 37.65"/>
        <polygon class="cls-4" points="49.68 37.67 45.12 37.3 45.12 37.27 49.68 37.65 49.68 37.67"/>
        <polygon class="cls-4" points="49.68 37.69 45.12 37.32 45.12 37.3 49.68 37.67 49.68 37.69"/>
        <polygon class="cls-45" points="49.68 37.71 45.12 37.34 45.12 37.32 49.68 37.69 49.68 37.71"/>
        <polygon class="cls-61" points="49.68 37.73 45.12 37.36 45.12 37.34 49.68 37.71 49.68 37.73"/>
        <polygon class="cls-87" points="49.68 37.76 45.12 37.38 45.12 37.36 49.68 37.73 49.68 37.76"/>
        <polygon class="cls-87" points="49.68 37.78 45.12 37.4 45.12 37.38 49.68 37.76 49.68 37.78"/>
        <polygon class="cls-87" points="49.68 37.8 45.12 37.42 45.12 37.4 49.68 37.78 49.68 37.8"/>
        <polygon class="cls-177" points="49.68 37.82 45.12 37.44 45.12 37.42 49.68 37.8 49.68 37.82"/>
        <polygon class="cls-12" points="49.68 37.84 45.12 37.46 45.12 37.44 49.68 37.82 49.68 37.84"/>
        <polygon class="cls-12" points="49.68 37.86 45.12 37.48 45.12 37.46 49.68 37.84 49.68 37.86"/>
        <polygon class="cls-173" points="49.68 37.88 45.12 37.51 45.12 37.48 49.68 37.86 49.68 37.88"/>
        <polygon class="cls-139" points="49.68 37.9 45.12 37.53 45.12 37.51 49.68 37.88 49.68 37.9"/>
        <polygon class="cls-139" points="49.68 37.92 45.12 37.55 45.12 37.53 49.68 37.9 49.68 37.92"/>
        <polygon class="cls-139" points="49.68 37.94 45.12 37.57 45.12 37.55 49.68 37.92 49.68 37.94"/>
        <polygon class="cls-139" points="49.68 37.97 45.12 37.59 45.12 37.57 49.68 37.94 49.68 37.97"/>
        <polygon class="cls-40" points="49.68 37.99 45.12 37.61 45.12 37.59 49.68 37.97 49.68 37.99"/>
        <polygon class="cls-100" points="49.68 38.01 45.12 37.63 45.12 37.61 49.68 37.99 49.68 38.01"/>
        <polygon class="cls-20" points="49.62 38.02 45.12 37.65 45.12 37.63 49.68 38.01 49.68 38.02 49.62 38.02"/>
        <polygon class="cls-20" points="49.37 38.02 45.12 37.67 45.12 37.65 49.62 38.02 49.37 38.02"/>
        <polygon class="cls-20" points="49.12 38.02 45.12 37.69 45.12 37.67 49.37 38.02 49.12 38.02"/>
        <polygon class="cls-20" points="48.86 38.02 45.12 37.72 45.12 37.69 49.12 38.02 48.86 38.02"/>
        <polygon class="cls-20" points="48.61 38.02 45.12 37.74 45.12 37.72 48.86 38.02 48.61 38.02"/>
        <polygon class="cls-20" points="48.35 38.02 45.12 37.76 45.12 37.74 48.61 38.02 48.35 38.02"/>
        <polygon class="cls-69" points="48.1 38.02 45.12 37.78 45.12 37.76 48.35 38.02 48.1 38.02"/>
        <polygon class="cls-150" points="47.84 38.02 45.12 37.8 45.12 37.78 48.1 38.02 47.84 38.02"/>
        <polygon class="cls-150" points="47.59 38.02 45.12 37.82 45.12 37.8 47.84 38.02 47.59 38.02"/>
        <polygon class="cls-150" points="47.34 38.02 45.12 37.84 45.12 37.82 47.59 38.02 47.34 38.02"/>
        <polygon class="cls-150" points="47.08 38.02 45.12 37.86 45.12 37.84 47.34 38.02 47.08 38.02"/>
        <polygon class="cls-150" points="46.83 38.02 45.12 37.88 45.12 37.86 47.08 38.02 46.83 38.02"/>
        <polygon class="cls-150" points="46.57 38.02 45.12 37.9 45.12 37.88 46.83 38.02 46.57 38.02"/>
        <polygon class="cls-150" points="46.32 38.02 45.12 37.93 45.12 37.9 46.57 38.02 46.32 38.02"/>
        <polygon class="cls-35" points="46.06 38.02 45.12 37.95 45.12 37.93 46.32 38.02 46.06 38.02"/>
        <polygon class="cls-35" points="45.81 38.02 45.12 37.97 45.12 37.95 46.06 38.02 45.81 38.02"/>
        <polygon class="cls-53" points="45.56 38.02 45.12 37.99 45.12 37.97 45.81 38.02 45.56 38.02"/>
        <polygon class="cls-53" points="45.3 38.02 45.12 38.01 45.12 37.99 45.56 38.02 45.3 38.02"/>
        <polygon class="cls-53" points="45.12 38.01 45.3 38.02 45.12 38.02 45.12 38.01"/>
      </g>
      <path class="cls-43" d="M47.3,37.25c-.64-.05-1.14-.7-1.08-1.4.06-.71.65-1.26,1.29-1.21.64.05,1.14.7,1.08,1.4-.06.71-.65,1.26-1.29,1.21Z"/>
      <path class="cls-132" d="M47.35,37c-.45-.04-.91-.52-.86-1.12.05-.6.59-1.01,1.03-.97.45.04.91.53.86,1.13-.05.6-.59,1.01-1.03.97Z"/>
      <path class="cls-98" d="M46.99,35.51c-.02.22-.24.38-.5.35-.26-.02-.45-.22-.43-.43.02-.22.24-.38.5-.36.26.02.45.21.44.43Z"/>
      <path class="cls-98" d="M48.44,36.77c0,.11-.12.19-.25.18-.13-.01-.23-.11-.22-.22,0-.11.12-.19.25-.18.13,0,.23.11.22.22Z"/>
      <path class="cls-5" d="M21.1,37.77c.97-1.58,2.49-.91,2.87-.57.4.37.72.87.48,1.8-.13.52-.68.57-.54,1.37.16.89.57.95.8,1.15.24.2.53.35.68.73.14.37.17.77.1,1.12-.15.65-1.09.14-1.72-.14-.42-.18-1.74-1.29-2.08-1.65-.84-.94-1.25-2.74-.6-3.8"/>
      <path class="cls-25" d="M41.54,44.84c.34-.23.74-.12.74-.12,0,0,0,0-.01.02-.08.14-.54.87-.91.86,0,0-.08-.07-.1-.24-.03-.17.11-.4.28-.52Z"/>
      <path class="cls-57" d="M58.79,73.04h2.02c.84,0,1.52-.78,1.32-1.6-.01-.04-.02-.08-.03-.1,0-.04-.02-.08-.02-.12-.29-1.37-.03-2.25-.87-3.3-.4-.5-1.04-1.03-2.11-1.67-.03-.01-.77-.24-1.87-.59t-.03-.01c-.56-.18-1.22-.38-1.91-.61-16.82,14.91-27.79,2.92-30.25-.27-1.01.34-1.99.65-2.77.9h-.01c-1.09.35-1.83.58-1.86.59-1.15.69-1.8,1.25-2.19,1.78-.73.99-.53,1.85-.79,3.14,0,.04-.02.08-.02.13h0v.04s-.03.07-.04.15h0s0,.02,0,.02c-.16.79.48,1.53,1.29,1.53h4.97c-.63,2.29-4.09,3.41-4.27,5.84h40.73c-.18-2.44-3.65-3.55-4.28-5.85,0,0,3,0,3,0Z"/>
      <path class="cls-81" d="M25.94,50.69c-.07-.01-.14-.01-.22,0,0-.03,0-.06-.01-.08.06-.03.12-.06.18-.1.43-.31.61-.77.43-1.02-.19-.25-.68-.2-1.1.11-.05.04-.09.08-.13.13-.06-.04-.12-.07-.19-.1,0-.04.01-.09.01-.13,0-.42-.15-.76-.37-.89v-3.74c.26-.08.45-.31.45-.59,0-.35-.28-.62-.62-.62s-.62.28-.62.62c0,.28.19.51.45.59v3.72c-.24.11-.42.45-.43.89,0,.06,0,.12.02.18-.06.03-.12.06-.17.1-.05-.06-.1-.11-.16-.16-.42-.31-.91-.36-1.1-.11-.19.26,0,.71.43,1.02.08.06.16.1.25.12,0,.04-.01.08-.02.12-.07,0-.14,0-.21,0-.52.08-.9.4-.84.72.05.31.51.49,1.03.4.12-.02.22-.07.32-.13.03.04.07.08.11.12-.07.07-.14.15-.18.24-.23.47-.18.97.1,1.11.29.13.7-.14.93-.61.05-.11.08-.23.08-.34.01,0,.02,0,.04,0,.02,0,.05,0,.07,0,0,.12.03.24.08.35.23.47.65.75.93.61.29-.14.33-.63.1-1.11-.05-.1-.12-.19-.21-.26.04-.04.08-.09.12-.14.09.05.18.09.28.11.52.08.98-.1,1.04-.41.05-.31-.33-.63-.85-.71ZM24.37,51.57c-.38,0-.68-.31-.68-.68s.31-.68.68-.68.68.31.68.68-.31.68-.68.68Z"/>
      <path class="cls-81" d="M56.93,50.85c-.07-.01-.14-.01-.22,0,0-.03,0-.06-.01-.08.06-.03.12-.06.18-.1.43-.31.61-.77.43-1.02-.19-.25-.68-.2-1.1.11-.05.04-.09.08-.13.13-.06-.04-.12-.07-.19-.1,0-.04.01-.09.01-.13,0-.42-.15-.76-.37-.89v-3.74c.26-.08.45-.31.45-.59,0-.35-.28-.62-.62-.62s-.62.28-.62.62c0,.28.19.51.45.59v3.72c-.24.11-.42.45-.43.89,0,.06,0,.12.02.18-.06.03-.12.06-.17.1-.05-.06-.1-.11-.16-.16-.42-.31-.91-.36-1.1-.11-.19.26,0,.71.43,1.02.08.06.16.1.25.12,0,.04-.01.08-.02.12-.07,0-.14,0-.21,0-.52.08-.9.4-.84.72.05.31.51.49,1.03.4.12-.02.22-.07.32-.13.03.04.07.08.11.12-.07.07-.14.15-.18.24-.23.47-.18.97.1,1.11.29.13.7-.14.93-.61.05-.11.08-.23.08-.34.01,0,.02,0,.04,0,.03,0,.05,0,.07,0,0,.12.03.24.08.35.23.47.65.75.93.61.29-.14.33-.63.1-1.11-.05-.1-.12-.19-.21-.26.04-.04.08-.09.12-.14.09.05.18.09.28.11.52.08.98-.1,1.04-.41.05-.31-.33-.63-.85-.71ZM55.36,51.73c-.38,0-.68-.31-.68-.68s.31-.68.68-.68.68.31.68.68-.31.68-.68.68Z"/>
      <path class="cls-47" d="M55.86,13.9c-.39-.59-.83-1.12-1.33-1.61h0s0,0,0,0c-2.02-1.99-4.95-3.34-8.85-5.02-3.95-1.72-5.96-1.41-9.13-.57-12.54,3.2-14.17,10.3-14.17,10.3-.66,1.72-1.04,3.34-1.21,4.5-.03.26-.07.5-.1.75-.04.27-.06.52-.09.78h0c-1.99,10.98,2.81,13.15,2.99,13.22.29.26.56.57.7.96.56,1.53.77,1.27.77,1.27,0,0-.78-5.39-.86-7.38-.01-.11-.01-.21-.01-.3,0-.54.14-2.27.78-4.18.06-.04,10.69-7.85,16.48,10.07,0,0,.21-16.05-11.67-15.94,1.57-.77,3.52-1.02,5.74.13-.04-.06.74.38,1.46.82,2.27,1.74,6.34,5.93,7.36,14.15,0,0,2.19-6.55-1.54-12.27h0c.25-.01.49-.02.74-.03,1.96.73,4.43,2.28,6.09,5.57,0,0-.42-2.68-1.68-5.25,6.45,1.23,8,5.52,8.2,6.56-.01.21-.03.43-.05.65-.13,1.59-.29,3.44-.41,4.69-.2,1.48-.37,2.69-.37,2.69,0,0,.22.26.77-1.27.26-.75,1.17-1.22,1.52-1.58,0,0,5.09-12.03-2.13-21.73Z"/>
      <g>
        <path class="cls-88" d="M36.36,39.52c.15-.52.24-1.08.24-1.65,0-3.23-2.63-5.85-5.87-5.85s-5.87,2.62-5.87,5.85c0,.72.14,1.4.37,2.04,2.67-1.19,6.86-2.29,11.13-.39Z"/>
        <path class="cls-88" d="M53.5,40.78c.49-.86.78-1.85.78-2.91,0-3.23-2.63-5.85-5.87-5.85s-5.87,2.62-5.87,5.85c0,1.13.33,2.18.88,3.07,2.64-1.35,6.26-2.22,10.07-.17Z"/>
        <path class="cls-88" d="M37.28,39.98c-.02.06-.04.12-.06.17.03-.05.06-.1.09-.16-.01,0-.02-.01-.03-.02Z"/>
        <path class="cls-8" d="M37.28,39.98c-.02.06-.04.12-.06.17.03-.05.06-.1.09-.16-.01,0-.02-.01-.03-.02Z"/>
        <path class="cls-88" d="M30.73,43.72c2.67,0,4.91-1.77,5.63-4.2-4.27-1.9-8.45-.8-11.13.39.83,2.22,2.98,3.81,5.5,3.81Z"/>
        <path class="cls-8" d="M30.73,43.72c2.67,0,4.91-1.77,5.63-4.2-4.27-1.9-8.45-.8-11.13.39.83,2.22,2.98,3.81,5.5,3.81Z"/>
        <path class="cls-88" d="M42.45,41.49c.09.13.19.24.28.36-.09-.12-.18-.25-.26-.38,0,0-.02.01-.03.01Z"/>
        <path class="cls-8" d="M42.45,41.49c.09.13.19.24.28.36-.09-.12-.18-.25-.26-.38,0,0-.02.01-.03.01Z"/>
        <path class="cls-88" d="M48.41,43.72c2.18,0,4.07-1.18,5.09-2.94-3.82-2.05-7.44-1.19-10.07.17,1.04,1.66,2.88,2.77,4.99,2.77Z"/>
        <path class="cls-8" d="M48.41,43.72c2.18,0,4.07-1.18,5.09-2.94-3.82-2.05-7.44-1.19-10.07.17,1.04,1.66,2.88,2.77,4.99,2.77Z"/>
        <path class="cls-159" d="M55.1,36.23s-.06,0-.08,0c-.41-1.66-1.43-3.09-2.81-4.03-1.1-.75-2.43-1.2-3.87-1.2s-2.65.4-3.72,1.09c-1.84,1.18-3.08,3.22-3.16,5.55-.22-.1-.45-.17-.7-.24-.68-.17-1.45-.2-2.2-.07-.32.06-.64.14-.95.25-.12-2.98-2.15-5.48-4.91-6.3-.63-.19-1.29-.29-1.97-.29-.78,0-1.52.13-2.21.37-2.21.75-3.9,2.58-4.46,4.86-.03,0-.06,0-.1,0-.34,0-.62.28-.62.62v1.83c0,.34.28.62.62.62.02,0,.04,0,.05,0,.01.06.03.12.04.18.52,2.16,2.05,3.92,4.07,4.75.8.33,1.68.51,2.61.51,1.83,0,3.5-.72,4.73-1.88.79-.74,1.4-1.67,1.76-2.71.02-.06.04-.12.06-.17.17-.52.28-1.05.32-1.61.29-.13.6-.22.91-.28.79-.17,1.59-.13,2.28.09.25.08.49.18.7.32.1,1.09.45,2.11,1,2.99.08.13.17.25.26.38,1.25,1.74,3.29,2.89,5.6,2.89.66,0,1.29-.09,1.89-.27,1.66-.47,3.07-1.56,3.96-2.99.41-.66.71-1.4.88-2.18.01,0,.02,0,.04,0,.34,0,.62-.28.62-.62v-1.83c0-.34-.28-.62-.62-.62ZM36.36,39.52c-.72,2.43-2.96,4.2-5.63,4.2-2.52,0-4.66-1.59-5.5-3.81-.24-.64-.37-1.32-.37-2.04,0-3.23,2.63-5.85,5.87-5.85s5.87,2.62,5.87,5.85c0,.57-.09,1.13-.24,1.65ZM53.5,40.78c-1.01,1.75-2.91,2.94-5.09,2.94s-3.95-1.11-4.99-2.77c-.56-.89-.88-1.95-.88-3.07,0-3.23,2.63-5.85,5.87-5.85s5.87,2.62,5.87,5.85c0,1.06-.29,2.05-.78,2.91Z"/>
      </g>
      <path class="cls-118" d="M25.03,64.77l8.45-6.35s-.43,5.58,6.28,6.83v7.1s-8.43.78-14.73-7.58Z"/>
      <path class="cls-171" d="M55.28,65.04l-9.25-6.63s.43,5.58-6.28,6.83v7.1s9.24,1.06,15.54-7.3Z"/>
    </g>
  </g>
</svg>