<?xml version="1.0" encoding="UTF-8"?>
<svg id="Layer_2" data-name="Layer 2" xmlns="http://www.w3.org/2000/svg" xmlns:xlink="http://www.w3.org/1999/xlink" viewBox="0 0 78.88 78.88">
  <defs>
    <style>
      .cls-1 {
        fill: none;
      }

      .cls-2 {
        fill: #354148;
      }

      .cls-3 {
        fill: #7d99ae;
      }

      .cls-4 {
        fill: #84a2b8;
      }

      .cls-5 {
        fill: #debaad;
      }

      .cls-6 {
        fill: #4e606b;
      }

      .cls-7 {
        fill: #bf6c6c;
      }

      .cls-8 {
        fill: #7791a4;
      }

      .cls-9 {
        fill: #7b97ab;
      }

      .cls-10 {
        fill: #677e8d;
      }

      .cls-11 {
        fill: #86a3ba;
      }

      .cls-12 {
        fill: #364349;
      }

      .cls-13 {
        fill: #313d43;
      }

      .cls-14 {
        fill: #809cb2;
      }

      .cls-15 {
        fill: #6d8596;
      }

      .cls-16 {
        fill: #44545c;
      }

      .cls-17 {
        fill: #46565f;
      }

      .cls-18 {
        fill: #7893a6;
      }

      .cls-19 {
        fill: #87a5bc;
      }

      .cls-20 {
        fill: #748d9f;
      }

      .cls-21 {
        fill: #627886;
      }

      .cls-22 {
        fill: #24241d;
        opacity: .4;
      }

      .cls-23 {
        fill: #576b77;
      }

      .cls-24 {
        fill: #829fb5;
      }

      .cls-25 {
        fill: #b89388;
      }

      .cls-26 {
        fill: #485862;
      }

      .cls-27 {
        fill: #6f8899;
      }

      .cls-28 {
        fill: #5b6f7c;
      }

      .cls-29 {
        fill: #7892a6;
      }

      .cls-30 {
        fill: #829fb4;
      }

      .cls-31 {
        fill: #7690a2;
      }

      .cls-32 {
        fill: #596c79;
      }

      .cls-33 {
        fill: #748ea0;
      }

      .cls-34 {
        fill: #728b9c;
      }

      .cls-35 {
        fill: #88a6be;
      }

      .cls-36 {
        fill: #a88a6b;
      }

      .cls-37 {
        fill: #738d9f;
      }

      .cls-38 {
        fill: #495963;
      }

      .cls-39 {
        fill: #87a4bb;
      }

      .cls-40 {
        fill: #617785;
      }

      .cls-41 {
        fill: #819db3;
      }

      .cls-42 {
        fill: #95bacb;
      }

      .cls-43 {
        fill: #657b8a;
      }

      .cls-44 {
        fill: #85a2b8;
      }

      .cls-45 {
        fill: #7f9bb0;
      }

      .cls-46 {
        fill: #667c8b;
      }

      .cls-47 {
        fill: #38454c;
      }

      .cls-48 {
        fill: #3e4d54;
      }

      .cls-49 {
        fill: #687f8f;
      }

      .cls-50 {
        fill: #7e9aae;
      }

      .cls-51 {
        fill: #88a7be;
      }

      .cls-52 {
        fill: #5b707d;
      }

      .cls-53 {
        fill: #7a96a9;
      }

      .cls-54 {
        fill: #829eb4;
      }

      .cls-55 {
        fill: #9e4562;
      }

      .cls-56 {
        fill: #7a95a9;
      }

      .cls-57 {
        fill: #f3f3f2;
        opacity: .55;
      }

      .cls-58 {
        fill: #6c8495;
      }

      .cls-59 {
        fill: #7c98ac;
      }

      .cls-60 {
        fill: #85a2b9;
      }

      .cls-61 {
        fill: #677d8d;
      }

      .cls-62 {
        fill: #39464e;
      }

      .cls-63 {
        fill: #3d4b53;
      }

      .cls-64 {
        fill: #344046;
      }

      .cls-65 {
        fill: #586c78;
      }

      .cls-66 {
        fill: #596d7a;
      }

      .cls-67 {
        fill: #87a6bd;
      }

      .cls-68 {
        fill: #637988;
      }

      .cls-69 {
        fill: #37444b;
      }

      .cls-70 {
        fill: #7c97ab;
      }

      .cls-71 {
        fill: #6d8595;
      }

      .cls-72 {
        fill: #526570;
      }

      .cls-73 {
        fill: #70899b;
      }

      .cls-74 {
        fill: #738c9e;
      }

      .cls-75 {
        fill: #4e5f6a;
      }

      .cls-76 {
        clip-path: url(#clippath-1);
      }

      .cls-77 {
        fill: #546672;
      }

      .cls-78 {
        fill: #84a1b7;
      }

      .cls-79 {
        fill: #718a9c;
      }

      .cls-80 {
        fill: #5f7481;
      }

      .cls-81 {
        fill: #f1d4c8;
      }

      .cls-82 {
        fill: #6e8697;
      }

      .cls-83 {
        fill: #303c42;
      }

      .cls-84 {
        fill: #85a3b9;
      }

      .cls-85 {
        fill: #7e9baf;
      }

      .cls-86 {
        fill: #6a8292;
      }

      .cls-87 {
        fill: #758fa1;
      }

      .cls-88 {
        fill: #6b8292;
      }

      .cls-89 {
        fill: #83a1b7;
      }

      .cls-90 {
        fill: #7994a7;
      }

      .cls-91 {
        fill: #6b8393;
      }

      .cls-92 {
        fill: #647a89;
      }

      .cls-93 {
        fill: #6e8798;
      }

      .cls-94 {
        fill: #602333;
      }

      .cls-95 {
        fill: #fff;
      }

      .cls-96 {
        fill: #7f9cb1;
      }

      .cls-97 {
        fill: #87a5bb;
      }

      .cls-98 {
        fill: #353128;
      }

      .cls-99 {
        fill: #536671;
      }

      .cls-100 {
        fill: #5e7380;
      }

      .cls-101 {
        fill: #4d5e69;
      }

      .cls-102 {
        fill: #566975;
      }

      .cls-103 {
        fill: #6a8191;
      }

      .cls-104 {
        fill: #809db2;
      }

      .cls-105 {
        fill: #4c5d68;
      }

      .cls-106 {
        fill: #809cb1;
      }

      .cls-107 {
        fill: #4b5c67;
      }

      .cls-108 {
        fill: #475760;
      }

      .cls-109 {
        fill: #7691a3;
      }

      .cls-110 {
        fill: #3a484f;
      }

      .cls-111 {
        fill: #51636e;
      }

      .cls-112 {
        fill: #7d99ad;
      }

      .cls-113 {
        fill: #4f616c;
      }

      .cls-114 {
        fill: #819eb4;
      }

      .cls-115 {
        fill: #4a5b65;
      }

      .cls-116 {
        fill: #698090;
      }

      .cls-117 {
        opacity: .3;
      }

      .cls-118 {
        fill: #7690a3;
      }

      .cls-119 {
        fill: #5d727f;
      }

      .cls-120 {
        fill: #415059;
      }

      .cls-121 {
        fill: #2d383d;
      }

      .cls-122 {
        fill: #50626d;
      }

      .cls-123 {
        fill: #7893a7;
      }

      .cls-124 {
        fill: #43525b;
      }

      .cls-125 {
        fill: #748ea1;
      }

      .cls-126 {
        fill: #7994a8;
      }

      .cls-127 {
        fill: #546773;
      }

      .cls-128 {
        fill: #83a0b6;
      }

      .cls-129 {
        fill: #26200c;
      }

      .cls-130 {
        fill: #607583;
      }

      .cls-131 {
        fill: #556874;
      }

      .cls-132 {
        fill: #687f8e;
      }

      .cls-133 {
        fill: #667d8c;
      }

      .cls-134 {
        fill: #728b9d;
      }

      .cls-135 {
        fill: #323f45;
      }

      .cls-136 {
        fill: #86a4bb;
      }

      .cls-137 {
        fill: #7792a5;
      }

      .cls-138 {
        fill: #84a1b8;
      }

      .cls-139 {
        fill: #5c707e;
      }

      .cls-140 {
        fill: #698190;
      }

      .cls-141 {
        fill: #637987;
      }

      .cls-142 {
        fill: #3c4a52;
      }

      .cls-143 {
        fill: #42515a;
      }

      .cls-144 {
        fill: #c6a095;
      }

      .cls-145 {
        fill: #3b4950;
      }

      .cls-146 {
        fill: #6c8494;
      }

      .cls-147 {
        fill: #88a6bd;
      }

      .cls-148 {
        fill: #404f57;
      }

      .cls-149 {
        fill: #47433b;
      }

      .cls-150 {
        fill: #51646f;
      }

      .cls-151 {
        fill: #7c97ac;
      }

      .cls-152 {
        fill: #5a6e7b;
      }

      .cls-153 {
        fill: #647b8a;
      }

      .cls-154 {
        fill: #45555e;
      }

      .cls-155 {
        fill: #7e9aaf;
      }

      .cls-156 {
        fill: #3f4e56;
      }

      .cls-157 {
        fill: #2f3b40;
      }

      .cls-158 {
        fill: #4a5a64;
      }

      .cls-159 {
        fill: #607684;
      }

      .cls-160 {
        fill: #49443b;
      }

      .cls-161 {
        fill: #718a9b;
      }

      .cls-162 {
        fill: #5d717f;
      }

      .cls-163 {
        clip-path: url(#clippath);
      }

      .cls-164 {
        fill: #82a0b5;
      }

      .cls-165 {
        fill: #2e393f;
      }

      .cls-166 {
        fill: #70899a;
      }

      .cls-167 {
        fill: #7b96aa;
      }

      .cls-168 {
        fill: #758fa2;
      }

      .cls-169 {
        fill: #86a4ba;
      }

      .cls-170 {
        fill: #5f7482;
      }

      .cls-171 {
        fill: #7c98ad;
      }

      .cls-172 {
        fill: #819eb3;
      }

      .cls-173 {
        fill: #85a3ba;
      }

      .cls-174 {
        fill: #728c9e;
      }

      .cls-175 {
        fill: #576a76;
      }

      .cls-176 {
        fill: #627786;
      }

      .cls-177 {
        fill: #ab5b64;
      }
    </style>
    <clipPath id="clippath">
      <path class="cls-1" d="M35.46,37.99c-.09,1.13-1.1,1.97-2.25,1.88-1.15-.1-2.01-1.09-1.91-2.22.09-1.13,1.1-1.97,2.25-1.88,1.15.1,2.01,1.09,1.91,2.22Z"/>
    </clipPath>
    <clipPath id="clippath-1">
      <path class="cls-1" d="M50.17,37.88c-.09,1.13-1.1,1.97-2.25,1.88-1.15-.1-2.01-1.09-1.91-2.22.09-1.13,1.1-1.97,2.25-1.88,1.15.1,2.01,1.09,1.91,2.22Z"/>
    </clipPath>
  </defs>
  <g id="Layer_1-2" data-name="Layer 1">
    <g>
      <rect class="cls-55" width="78.88" height="78.88"/>
      <path class="cls-81" d="M61.58,77.93s-.1-5.75-.32-6.25c-.44-2,.35-2.92-2.75-4.85-.02-.01-.7-.23-1.72-.56t-.02-.01c-.66-.21-1.46-.48-2.29-.76-.32-.11-.64-.23-.98-.33-.82-.29-1.64-.59-2.4-.88-.52-.2-1.02-.39-1.44-.57-.36-.16-.68-.3-.93-.43-.26-.14-.46-.26-.56-.36-.01-.01-.04-.05-.07-.08-.02-.03-.05-.06-.07-.09-.06-.33-.95-1.8-1.26-3.4h0c-.07-.33-.11-.64-.12-.97-.02-.47-.02-.93-.04-1.35-.01-.43-.02-.82-.04-1.14v-.27c-.01-.23-.01-.42-.01-.56-.01-.14-.01-.23-.01-.23,0,0,.33-.29.82-.72.61-.55,1.48-1.34,2.23-2.09.81-.81,1.52-1.59,1.67-1.99.01-.06.02-.11.02-.14,0,0-.02,0-.06.01-.38.06-2.43.42-4.64.76-1.31.2-2.68.41-3.81.55-.44.06-.85.1-1.19.13h-.01c-.32.04-.6.05-.8.05-.23,0-.54-.02-.91-.05h-.02c-.36-.05-.79-.1-1.25-.15-1.03-.13-2.25-.31-3.45-.49-1.1-.18-2.17-.35-3.02-.49-.2-.03-.38-.06-.55-.1-.81-.13-1.32-.23-1.32-.23,0,.16.14.39.38.7,0,0,0,.01.01.01.18.24.42.51.7.82.27.29.57.58.88.88.94.92,1.97,1.82,2.47,2.25.19.17.3.26.3.26,0,0,0,.08-.01.23,0,.14,0,.33-.01.56v.27c0,.09,0,.19-.01.29-.01.62-.04,1.4-.06,2.21-.01.32-.05.63-.12.95-.31,1.6-1.21,3.08-1.26,3.41-.02.03-.05.06-.07.09-.04.04-.06.07-.07.08-.05.05-.13.11-.23.17-.22.14-.54.31-.95.5-.35.16-.77.33-1.21.5-1.06.41-2.33.87-3.53,1.28-.08.02-.17.06-.25.08-.89.31-1.75.6-2.44.82h-.01c-1,.33-1.68.55-1.71.56-3.08,1.92-2.33,2.84-2.75,4.82h0v.04s-.02.07-.04.14h0c-.2,1.05-.29,6.11-.29,6.11,0,.31,0,.62,0,.94h41.63c0-.32,0-.64-.01-.94Z"/>
      <path class="cls-144" d="M46.76,59.33c-.07-.32-.11-.63-.12-.95-.04-1.07-.06-2.1-.07-2.77-1.79.8-3.63,1.26-5.43,1.26-.11.02-.24.02-.37.02s-.26,0-.37-.02c-1.8,0-3.64-.47-5.43-1.26-.01.67-.03,1.69-.07,2.77-.01.32-.05.63-.12.95,1.73,1.44,4.07,2.93,5.62,2.93.1.02.22.02.33.02h0s.03,0,.04,0,.03,0,.04,0h0c.11,0,.23,0,.33-.02,1.55,0,3.89-1.49,5.62-2.93Z"/>
      <g>
        <path class="cls-81" d="M56.13,37.92c.3-1.65.53-2.92.6-3.16.03-.12.06-.24.09-.36.02-.14.06-.27.08-.41.06-.2.09-.41.14-.61.01-.1.04-.19.05-.29.04-.23.08-.45.12-.68.01-.1.02-.2.04-.3.04-.2.05-.41.07-.61.01-.15.02-.31.05-.45.01-.13.01-.26.02-.39.15-3.11-.51-6.29-2.55-9.16-2.47-3.46-5.31-7.12-11.47-7.63h-5.2c-6.17.51-9,4.17-11.47,7.63-2.04,2.87-2.71,6.05-2.55,9.16.01.13.01.26.02.39.02.14.04.3.05.45.02.2.04.41.07.61.01.1.02.2.04.3.04.23.08.45.12.68.01.1.03.19.05.29.05.2.08.41.14.61.02.13.06.26.08.41.04.12.06.24.1.36.07.25.3,1.5.6,3.14-1.65-.8-3.93.35-3.66,3.38.28,3.07,4.02,4.9,5.3,5.21.13.56.23.97.31,1.17,1.12,2.83,2.48,3.67,4.87,5.98,2.6,2.49,6.44,4.83,8.34,4.82.06.01.13.01.2.01s.14,0,.2-.01c1.9.01,5.74-2.33,8.34-4.82,2.39-2.3,3.75-3.15,4.87-5.98.08-.2.18-.61.31-1.16,1.24-.28,5.06-2.11,5.34-5.22.27-3.06-2.05-4.2-3.7-3.35Z"/>
        <path class="cls-5" d="M58.63,39.61c-.93-1.51-2.38-.87-2.74-.54-.38.36-.69.83-.46,1.72.12.5.65.54.51,1.3-.15.85-.54.9-.77,1.1-.22.19-.51.33-.65.7-.14.36-.16.74-.09,1.07.14.62,1.04.14,1.64-.13.4-.18,1.66-1.23,1.98-1.58.8-.9,1.19-2.62.57-3.63"/>
      </g>
      <path class="cls-5" d="M38.14,52.55c-.06-.79,2.21.16,2.96.19.59.02,2.38-.12,2.55-.18,1.25-.46-.07,1.32-2.58,1.41-1.15.05-2.88-.94-2.92-1.42Z"/>
      <g>
        <path class="cls-177" d="M45.62,51.53c-1.44-.27-4.47-.85-4.47-.85-2.5.41-4.46.84-4.47.86-.06,0,2,1.84,4.44,1.72h0c2.44.12,4.57-1.72,4.51-1.73Z"/>
        <path class="cls-7" d="M42.58,50.17c-.65-.07-1.1.31-1.43.27-.34.03-.78-.34-1.43-.27-.92.2-1.37.78-3.04,1.37.06.11,1.13-.14,3.15-.11.03,0,.57.3,1.34.3.48,0,1.14-.32,1.17-.32,2.02-.03,3.25.24,3.31.13-2.22-.68-2.13-1.17-3.06-1.37Z"/>
      </g>
      <path class="cls-36" d="M42.34,46.39c.33-.22.71-.12.71-.12,0,0,0,0-.01.02-.08.13-.52.83-.87.82,0,0-.08-.06-.1-.23-.03-.17.11-.38.27-.5Z"/>
      <path class="cls-5" d="M37.93,46.17c-.06-1.58,2.45-.58,3.27-.53.66.04,2.64-.5,2.81-.36,1.17.94-1.24,2.82-2.85,2.82-.43,0-3.19-.98-3.23-1.94Z"/>
      <path class="cls-25" d="M39.83,46.36c-.33-.22-.71-.12-.71-.12,0,0,0,0,.01.02.08.13.52.83.87.82,0,0,.08-.06.1-.23.03-.17-.11-.38-.27-.5Z"/>
      <path class="cls-160" d="M37.49,34.49s-.38-.38-1.09-.85c-.34-.25-.77-.46-1.24-.68-.47-.22-1-.39-1.54-.48-.54-.12-1.1-.15-1.63-.15-.27.02-.52.04-.77.05-.25.01-.47.08-.69.11-.43.06-.79.17-1.04.23-.26.06-.4.09-.4.09,0,0,.13-.08.35-.22.23-.12.54-.36.97-.5.42-.18.93-.35,1.51-.46.58-.08,1.21-.12,1.84-.05.63.09,1.24.26,1.79.49.55.23,1.01.54,1.39.82.75.57,1.11,1.12,1.11,1.12h0c.11.18.06.4-.11.51-.15.1-.34.07-.46-.05Z"/>
      <path class="cls-95" d="M28.72,37.06s1.4,3.47,3.56,3.81c2.17.34,4.48-.16,4.48-.16,0,0,.06-4.04-1.07-4.59-1.12-.56-3.7-1.4-6.97.94Z"/>
      <g class="cls-163">
        <polygon class="cls-121" points="35.55 36.44 31.2 36.08 31.2 35.68 35.55 35.68 35.55 36.44"/>
        <polygon class="cls-121" points="35.55 36.46 31.2 36.1 31.2 36.08 35.55 36.44 35.55 36.46"/>
        <polygon class="cls-165" points="35.55 36.48 31.2 36.12 31.2 36.1 35.55 36.46 35.55 36.48"/>
        <polygon class="cls-157" points="35.55 36.5 31.2 36.14 31.2 36.12 35.55 36.48 35.55 36.5"/>
        <polygon class="cls-83" points="35.55 36.52 31.2 36.16 31.2 36.14 35.55 36.5 35.55 36.52"/>
        <polygon class="cls-13" points="35.55 36.54 31.2 36.18 31.2 36.16 35.55 36.52 35.55 36.54"/>
        <polygon class="cls-135" points="35.55 36.56 31.2 36.2 31.2 36.18 35.55 36.54 35.55 36.56"/>
        <polygon class="cls-64" points="35.55 36.58 31.2 36.22 31.2 36.2 35.55 36.56 35.55 36.58"/>
        <polygon class="cls-2" points="35.55 36.6 31.2 36.24 31.2 36.22 35.55 36.58 35.55 36.6"/>
        <polygon class="cls-12" points="35.55 36.62 31.2 36.26 31.2 36.24 35.55 36.6 35.55 36.62"/>
        <polygon class="cls-69" points="35.55 36.64 31.2 36.28 31.2 36.26 35.55 36.62 35.55 36.64"/>
        <polygon class="cls-47" points="35.55 36.66 31.2 36.3 31.2 36.28 35.55 36.64 35.55 36.66"/>
        <polygon class="cls-62" points="35.55 36.68 31.2 36.32 31.2 36.3 35.55 36.66 35.55 36.68"/>
        <polygon class="cls-110" points="35.55 36.7 31.2 36.34 31.2 36.32 35.55 36.68 35.55 36.7"/>
        <polygon class="cls-145" points="35.55 36.72 31.2 36.36 31.2 36.34 35.55 36.7 35.55 36.72"/>
        <polygon class="cls-142" points="35.55 36.74 31.2 36.38 31.2 36.36 35.55 36.72 35.55 36.74"/>
        <polygon class="cls-63" points="35.55 36.76 31.2 36.4 31.2 36.38 35.55 36.74 35.55 36.76"/>
        <polygon class="cls-48" points="35.55 36.78 31.2 36.42 31.2 36.4 35.55 36.76 35.55 36.78"/>
        <polygon class="cls-156" points="35.55 36.8 31.2 36.44 31.2 36.42 35.55 36.78 35.55 36.8"/>
        <polygon class="cls-148" points="35.55 36.82 31.2 36.46 31.2 36.44 35.55 36.8 35.55 36.82"/>
        <polygon class="cls-120" points="35.55 36.84 31.2 36.48 31.2 36.46 35.55 36.82 35.55 36.84"/>
        <polygon class="cls-143" points="35.55 36.86 31.2 36.5 31.2 36.48 35.55 36.84 35.55 36.86"/>
        <polygon class="cls-124" points="35.55 36.88 31.2 36.52 31.2 36.5 35.55 36.86 35.55 36.88"/>
        <polygon class="cls-16" points="35.55 36.9 31.2 36.54 31.2 36.52 35.55 36.88 35.55 36.9"/>
        <polygon class="cls-154" points="35.55 36.92 31.2 36.56 31.2 36.54 35.55 36.9 35.55 36.92"/>
        <polygon class="cls-17" points="35.55 36.94 31.2 36.58 31.2 36.56 35.55 36.92 35.55 36.94"/>
        <polygon class="cls-108" points="35.55 36.96 31.2 36.6 31.2 36.58 35.55 36.94 35.55 36.96"/>
        <polygon class="cls-26" points="35.55 36.98 31.2 36.62 31.2 36.6 35.55 36.96 35.55 36.98"/>
        <polygon class="cls-38" points="35.55 37 31.2 36.64 31.2 36.62 35.55 36.98 35.55 37"/>
        <polygon class="cls-158" points="35.55 37.02 31.2 36.66 31.2 36.64 35.55 37 35.55 37.02"/>
        <polygon class="cls-115" points="35.55 37.04 31.2 36.68 31.2 36.66 35.55 37.02 35.55 37.04"/>
        <polygon class="cls-107" points="35.55 37.06 31.2 36.7 31.2 36.68 35.55 37.04 35.55 37.06"/>
        <polygon class="cls-105" points="35.55 37.08 31.2 36.72 31.2 36.7 35.55 37.06 35.55 37.08"/>
        <polygon class="cls-101" points="35.55 37.1 31.2 36.74 31.2 36.72 35.55 37.08 35.55 37.1"/>
        <polygon class="cls-75" points="35.55 37.12 31.2 36.76 31.2 36.74 35.55 37.1 35.55 37.12"/>
        <polygon class="cls-6" points="35.55 37.14 31.2 36.78 31.2 36.76 35.55 37.12 35.55 37.14"/>
        <polygon class="cls-113" points="35.55 37.16 31.2 36.8 31.2 36.78 35.55 37.14 35.55 37.16"/>
        <polygon class="cls-122" points="35.55 37.18 31.2 36.82 31.2 36.8 35.55 37.16 35.55 37.18"/>
        <polygon class="cls-111" points="35.55 37.2 31.2 36.84 31.2 36.82 35.55 37.18 35.55 37.2"/>
        <polygon class="cls-150" points="35.55 37.22 31.2 36.86 31.2 36.84 35.55 37.2 35.55 37.22"/>
        <polygon class="cls-72" points="35.55 37.24 31.2 36.88 31.2 36.86 35.55 37.22 35.55 37.24"/>
        <polygon class="cls-99" points="35.55 37.26 31.2 36.9 31.2 36.88 35.55 37.24 35.55 37.26"/>
        <polygon class="cls-77" points="35.55 37.28 31.2 36.92 31.2 36.9 35.55 37.26 35.55 37.28"/>
        <polygon class="cls-127" points="35.55 37.3 31.2 36.94 31.2 36.92 35.55 37.28 35.55 37.3"/>
        <polygon class="cls-131" points="35.55 37.32 31.2 36.96 31.2 36.94 35.55 37.3 35.55 37.32"/>
        <polygon class="cls-102" points="35.55 37.34 31.2 36.98 31.2 36.96 35.55 37.32 35.55 37.34"/>
        <polygon class="cls-175" points="35.55 37.36 31.2 37 31.2 36.98 35.55 37.34 35.55 37.36"/>
        <polygon class="cls-23" points="35.55 37.38 31.2 37.02 31.2 37 35.55 37.36 35.55 37.38"/>
        <polygon class="cls-65" points="35.55 37.4 31.2 37.04 31.2 37.02 35.55 37.38 35.55 37.4"/>
        <polygon class="cls-32" points="35.55 37.42 31.2 37.06 31.2 37.04 35.55 37.4 35.55 37.42"/>
        <polygon class="cls-66" points="35.55 37.44 31.2 37.08 31.2 37.06 35.55 37.42 35.55 37.44"/>
        <polygon class="cls-152" points="35.55 37.46 31.2 37.1 31.2 37.08 35.55 37.44 35.55 37.46"/>
        <polygon class="cls-28" points="35.55 37.48 31.2 37.12 31.2 37.1 35.55 37.46 35.55 37.48"/>
        <polygon class="cls-52" points="35.55 37.5 31.2 37.14 31.2 37.12 35.55 37.48 35.55 37.5"/>
        <polygon class="cls-139" points="35.55 37.52 31.2 37.16 31.2 37.14 35.55 37.5 35.55 37.52"/>
        <polygon class="cls-162" points="35.55 37.54 31.2 37.18 31.2 37.16 35.55 37.52 35.55 37.54"/>
        <polygon class="cls-119" points="35.55 37.56 31.2 37.2 31.2 37.18 35.55 37.54 35.55 37.56"/>
        <polygon class="cls-100" points="35.55 37.58 31.2 37.22 31.2 37.2 35.55 37.56 35.55 37.58"/>
        <polygon class="cls-80" points="35.55 37.6 31.2 37.24 31.2 37.22 35.55 37.58 35.55 37.6"/>
        <polygon class="cls-170" points="35.55 37.62 31.2 37.26 31.2 37.24 35.55 37.6 35.55 37.62"/>
        <polygon class="cls-130" points="35.55 37.64 31.2 37.28 31.2 37.26 35.55 37.62 35.55 37.64"/>
        <polygon class="cls-159" points="35.55 37.66 31.2 37.3 31.2 37.28 35.55 37.64 35.55 37.66"/>
        <polygon class="cls-40" points="35.55 37.68 31.2 37.32 31.2 37.3 35.55 37.66 35.55 37.68"/>
        <polygon class="cls-176" points="35.55 37.7 31.2 37.34 31.2 37.32 35.55 37.68 35.55 37.7"/>
        <polygon class="cls-21" points="35.55 37.72 31.2 37.36 31.2 37.34 35.55 37.7 35.55 37.72"/>
        <polygon class="cls-141" points="35.55 37.74 31.2 37.38 31.2 37.36 35.55 37.72 35.55 37.74"/>
        <polygon class="cls-68" points="35.55 37.76 31.2 37.4 31.2 37.38 35.55 37.74 35.55 37.76"/>
        <polygon class="cls-92" points="35.55 37.78 31.2 37.42 31.2 37.4 35.55 37.76 35.55 37.78"/>
        <polygon class="cls-153" points="35.55 37.8 31.2 37.44 31.2 37.42 35.55 37.78 35.55 37.8"/>
        <polygon class="cls-43" points="35.55 37.82 31.2 37.46 31.2 37.44 35.55 37.8 35.55 37.82"/>
        <polygon class="cls-46" points="35.55 37.84 31.2 37.49 31.2 37.46 35.55 37.82 35.55 37.84"/>
        <polygon class="cls-133" points="35.55 37.86 31.2 37.51 31.2 37.49 35.55 37.84 35.55 37.86"/>
        <polygon class="cls-61" points="35.55 37.88 31.2 37.53 31.2 37.51 35.55 37.86 35.55 37.88"/>
        <polygon class="cls-10" points="35.55 37.9 31.2 37.55 31.2 37.53 35.55 37.88 35.55 37.9"/>
        <polygon class="cls-132" points="35.55 37.92 31.2 37.57 31.2 37.55 35.55 37.9 35.55 37.92"/>
        <polygon class="cls-49" points="35.55 37.94 31.2 37.59 31.2 37.57 35.55 37.92 35.55 37.94"/>
        <polygon class="cls-116" points="35.55 37.96 31.2 37.61 31.2 37.59 35.55 37.94 35.55 37.96"/>
        <polygon class="cls-140" points="35.55 37.98 31.2 37.63 31.2 37.61 35.55 37.96 35.55 37.98"/>
        <polygon class="cls-103" points="35.55 38 31.2 37.65 31.2 37.63 35.55 37.98 35.55 38"/>
        <polygon class="cls-86" points="35.55 38.02 31.2 37.67 31.2 37.65 35.55 38 35.55 38.02"/>
        <polygon class="cls-88" points="35.55 38.05 31.2 37.69 31.2 37.67 35.55 38.02 35.55 38.05"/>
        <polygon class="cls-91" points="35.55 38.07 31.2 37.71 31.2 37.69 35.55 38.05 35.55 38.07"/>
        <polygon class="cls-146" points="35.55 38.09 31.2 37.73 31.2 37.71 35.55 38.07 35.55 38.09"/>
        <polygon class="cls-58" points="35.55 38.11 31.2 37.75 31.2 37.73 35.55 38.09 35.55 38.11"/>
        <polygon class="cls-71" points="35.55 38.13 31.2 37.77 31.2 37.75 35.55 38.11 35.55 38.13"/>
        <polygon class="cls-15" points="35.55 38.15 31.2 37.79 31.2 37.77 35.55 38.13 35.55 38.15"/>
        <polygon class="cls-82" points="35.55 38.17 31.2 37.81 31.2 37.79 35.55 38.15 35.55 38.17"/>
        <polygon class="cls-82" points="35.55 38.19 31.2 37.83 31.2 37.81 35.55 38.17 35.55 38.19"/>
        <polygon class="cls-93" points="35.55 38.21 31.2 37.85 31.2 37.83 35.55 38.19 35.55 38.21"/>
        <polygon class="cls-27" points="35.55 38.23 31.2 37.87 31.2 37.85 35.55 38.21 35.55 38.23"/>
        <polygon class="cls-27" points="35.55 38.25 31.2 37.89 31.2 37.87 35.55 38.23 35.55 38.25"/>
        <polygon class="cls-166" points="35.55 38.27 31.2 37.91 31.2 37.89 35.55 38.25 35.55 38.27"/>
        <polygon class="cls-73" points="35.55 38.29 31.2 37.93 31.2 37.91 35.55 38.27 35.55 38.29"/>
        <polygon class="cls-161" points="35.55 38.31 31.2 37.95 31.2 37.93 35.55 38.29 35.55 38.31"/>
        <polygon class="cls-79" points="35.55 38.33 31.2 37.97 31.2 37.95 35.55 38.31 35.55 38.33"/>
        <polygon class="cls-34" points="35.55 38.35 31.2 37.99 31.2 37.97 35.55 38.33 35.55 38.35"/>
        <polygon class="cls-134" points="35.55 38.37 31.2 38.01 31.2 37.99 35.55 38.35 35.55 38.37"/>
        <polygon class="cls-174" points="35.55 38.39 31.2 38.03 31.2 38.01 35.55 38.37 35.55 38.39"/>
        <polygon class="cls-74" points="35.55 38.41 31.2 38.05 31.2 38.03 35.55 38.39 35.55 38.41"/>
        <polygon class="cls-37" points="35.55 38.43 31.2 38.07 31.2 38.05 35.55 38.41 35.55 38.43"/>
        <polygon class="cls-20" points="35.55 38.45 31.2 38.09 31.2 38.07 35.55 38.43 35.55 38.45"/>
        <polygon class="cls-33" points="35.55 38.47 31.2 38.11 31.2 38.09 35.55 38.45 35.55 38.47"/>
        <polygon class="cls-125" points="35.55 38.49 31.2 38.13 31.2 38.11 35.55 38.47 35.55 38.49"/>
        <polygon class="cls-87" points="35.55 38.51 31.2 38.15 31.2 38.13 35.55 38.49 35.55 38.51"/>
        <polygon class="cls-168" points="35.55 38.53 31.2 38.17 31.2 38.15 35.55 38.51 35.55 38.53"/>
        <polygon class="cls-31" points="35.55 38.55 31.2 38.19 31.2 38.17 35.55 38.53 35.55 38.55"/>
        <polygon class="cls-118" points="35.55 38.57 31.2 38.21 31.2 38.19 35.55 38.55 35.55 38.57"/>
        <polygon class="cls-109" points="35.55 38.59 31.2 38.23 31.2 38.21 35.55 38.57 35.55 38.59"/>
        <polygon class="cls-8" points="35.55 38.61 31.2 38.25 31.2 38.23 35.55 38.59 35.55 38.61"/>
        <polygon class="cls-137" points="35.55 38.63 31.2 38.27 31.2 38.25 35.55 38.61 35.55 38.63"/>
        <polygon class="cls-137" points="35.55 38.65 31.2 38.29 31.2 38.27 35.55 38.63 35.55 38.65"/>
        <polygon class="cls-29" points="35.55 38.67 31.2 38.31 31.2 38.29 35.55 38.65 35.55 38.67"/>
        <polygon class="cls-18" points="35.55 38.69 31.2 38.33 31.2 38.31 35.55 38.67 35.55 38.69"/>
        <polygon class="cls-123" points="35.55 38.71 31.2 38.35 31.2 38.33 35.55 38.69 35.55 38.71"/>
        <polygon class="cls-90" points="35.55 38.73 31.2 38.37 31.2 38.35 35.55 38.71 35.55 38.73"/>
        <polygon class="cls-126" points="35.55 38.75 31.2 38.39 31.2 38.37 35.55 38.73 35.55 38.75"/>
        <polygon class="cls-126" points="35.55 38.77 31.2 38.41 31.2 38.39 35.55 38.75 35.55 38.77"/>
        <polygon class="cls-56" points="35.55 38.79 31.2 38.43 31.2 38.41 35.55 38.77 35.55 38.79"/>
        <polygon class="cls-56" points="35.55 38.81 31.2 38.45 31.2 38.43 35.55 38.79 35.55 38.81"/>
        <polygon class="cls-53" points="35.55 38.83 31.2 38.47 31.2 38.45 35.55 38.81 35.55 38.83"/>
        <polygon class="cls-167" points="35.55 38.85 31.2 38.49 31.2 38.47 35.55 38.83 35.55 38.85"/>
        <polygon class="cls-167" points="35.55 38.87 31.2 38.51 31.2 38.49 35.55 38.85 35.55 38.87"/>
        <polygon class="cls-9" points="35.55 38.89 31.2 38.53 31.2 38.51 35.55 38.87 35.55 38.89"/>
        <polygon class="cls-70" points="35.55 38.91 31.2 38.55 31.2 38.53 35.55 38.89 35.55 38.91"/>
        <polygon class="cls-151" points="35.55 38.93 31.2 38.57 31.2 38.55 35.55 38.91 35.55 38.93"/>
        <polygon class="cls-59" points="35.55 38.95 31.2 38.59 31.2 38.57 35.55 38.93 35.55 38.95"/>
        <polygon class="cls-171" points="35.55 38.97 31.2 38.61 31.2 38.59 35.55 38.95 35.55 38.97"/>
        <polygon class="cls-112" points="35.55 38.99 31.2 38.63 31.2 38.61 35.55 38.97 35.55 38.99"/>
        <polygon class="cls-112" points="35.55 39.01 31.2 38.65 31.2 38.63 35.55 38.99 35.55 39.01"/>
        <polygon class="cls-3" points="35.55 39.03 31.2 38.67 31.2 38.65 35.55 39.01 35.55 39.03"/>
        <polygon class="cls-50" points="35.55 39.05 31.2 38.69 31.2 38.67 35.55 39.03 35.55 39.05"/>
        <polygon class="cls-155" points="35.55 39.07 31.2 38.71 31.2 38.69 35.55 39.05 35.55 39.07"/>
        <polygon class="cls-155" points="35.55 39.09 31.2 38.73 31.2 38.71 35.55 39.07 35.55 39.09"/>
        <polygon class="cls-85" points="35.55 39.11 31.2 38.75 31.2 38.73 35.55 39.09 35.55 39.11"/>
        <polygon class="cls-45" points="35.55 39.13 31.2 38.77 31.2 38.75 35.55 39.11 35.55 39.13"/>
        <polygon class="cls-45" points="35.55 39.15 31.2 38.79 31.2 38.77 35.55 39.13 35.55 39.15"/>
        <polygon class="cls-96" points="35.55 39.17 31.2 38.81 31.2 38.79 35.55 39.15 35.55 39.17"/>
        <polygon class="cls-96" points="35.55 39.19 31.2 38.83 31.2 38.81 35.55 39.17 35.55 39.19"/>
        <polygon class="cls-106" points="35.55 39.21 31.2 38.85 31.2 38.83 35.55 39.19 35.55 39.21"/>
        <polygon class="cls-14" points="35.55 39.23 31.2 38.87 31.2 38.85 35.55 39.21 35.55 39.23"/>
        <polygon class="cls-104" points="35.55 39.25 31.2 38.89 31.2 38.87 35.55 39.23 35.55 39.25"/>
        <polygon class="cls-104" points="35.55 39.27 31.2 38.91 31.2 38.89 35.55 39.25 35.55 39.27"/>
        <polygon class="cls-41" points="35.55 39.29 31.2 38.93 31.2 38.91 35.55 39.27 35.55 39.29"/>
        <polygon class="cls-172" points="35.55 39.31 31.2 38.95 31.2 38.93 35.55 39.29 35.55 39.31"/>
        <polygon class="cls-172" points="35.55 39.33 31.2 38.97 31.2 38.95 35.55 39.31 35.55 39.33"/>
        <polygon class="cls-114" points="35.55 39.35 31.2 38.99 31.2 38.97 35.55 39.33 35.55 39.35"/>
        <polygon class="cls-54" points="35.55 39.37 31.2 39.01 31.2 38.99 35.55 39.35 35.55 39.37"/>
        <polygon class="cls-30" points="35.55 39.39 31.2 39.03 31.2 39.01 35.55 39.37 35.55 39.39"/>
        <polygon class="cls-24" points="35.55 39.41 31.2 39.05 31.2 39.03 35.55 39.39 35.55 39.41"/>
        <polygon class="cls-24" points="35.55 39.43 31.2 39.07 31.2 39.05 35.55 39.41 35.55 39.43"/>
        <polygon class="cls-164" points="35.55 39.45 31.2 39.09 31.2 39.07 35.55 39.43 35.55 39.45"/>
        <polygon class="cls-128" points="35.55 39.47 31.2 39.11 31.2 39.09 35.55 39.45 35.55 39.47"/>
        <polygon class="cls-128" points="35.55 39.49 31.2 39.13 31.2 39.11 35.55 39.47 35.55 39.49"/>
        <polygon class="cls-128" points="35.55 39.51 31.2 39.15 31.2 39.13 35.55 39.49 35.55 39.51"/>
        <polygon class="cls-89" points="35.55 39.53 31.2 39.17 31.2 39.15 35.55 39.51 35.55 39.53"/>
        <polygon class="cls-89" points="35.55 39.55 31.2 39.19 31.2 39.17 35.55 39.53 35.55 39.55"/>
        <polygon class="cls-78" points="35.55 39.57 31.2 39.21 31.2 39.19 35.55 39.55 35.55 39.57"/>
        <polygon class="cls-78" points="35.55 39.59 31.2 39.23 31.2 39.21 35.55 39.57 35.55 39.59"/>
        <polygon class="cls-138" points="35.55 39.61 31.2 39.25 31.2 39.23 35.55 39.59 35.55 39.61"/>
        <polygon class="cls-4" points="35.55 39.63 31.2 39.27 31.2 39.25 35.55 39.61 35.55 39.63"/>
        <polygon class="cls-4" points="35.55 39.65 31.2 39.29 31.2 39.27 35.55 39.63 35.55 39.65"/>
        <polygon class="cls-44" points="35.55 39.67 31.2 39.31 31.2 39.29 35.55 39.65 35.55 39.67"/>
        <polygon class="cls-60" points="35.55 39.69 31.2 39.33 31.2 39.31 35.55 39.67 35.55 39.69"/>
        <polygon class="cls-84" points="35.55 39.71 31.2 39.35 31.2 39.33 35.55 39.69 35.55 39.71"/>
        <polygon class="cls-84" points="35.55 39.73 31.2 39.37 31.2 39.35 35.55 39.71 35.55 39.73"/>
        <polygon class="cls-84" points="35.55 39.75 31.2 39.39 31.2 39.37 35.55 39.73 35.55 39.75"/>
        <polygon class="cls-173" points="35.55 39.77 31.2 39.41 31.2 39.39 35.55 39.75 35.55 39.77"/>
        <polygon class="cls-11" points="35.55 39.79 31.2 39.43 31.2 39.41 35.55 39.77 35.55 39.79"/>
        <polygon class="cls-11" points="35.55 39.81 31.2 39.45 31.2 39.43 35.55 39.79 35.55 39.81"/>
        <polygon class="cls-169" points="35.55 39.83 31.2 39.47 31.2 39.45 35.55 39.81 35.55 39.83"/>
        <polygon class="cls-136" points="35.55 39.85 31.2 39.49 31.2 39.47 35.55 39.83 35.55 39.85"/>
        <polygon class="cls-136" points="35.55 39.87 31.2 39.51 31.2 39.49 35.55 39.85 35.55 39.87"/>
        <polygon class="cls-136" points="35.55 39.89 31.2 39.53 31.2 39.51 35.55 39.87 35.55 39.89"/>
        <polygon class="cls-136" points="35.55 39.91 31.2 39.55 31.2 39.53 35.55 39.89 35.55 39.91"/>
        <polygon class="cls-39" points="35.55 39.93 31.2 39.57 31.2 39.55 35.55 39.91 35.55 39.93"/>
        <polygon class="cls-97" points="35.55 39.95 31.2 39.59 31.2 39.57 35.55 39.93 35.55 39.95"/>
        <polygon class="cls-19" points="35.5 39.97 31.2 39.61 31.2 39.59 35.55 39.95 35.55 39.97 35.5 39.97"/>
        <polygon class="cls-19" points="35.26 39.97 31.2 39.63 31.2 39.61 35.5 39.97 35.26 39.97"/>
        <polygon class="cls-19" points="35.02 39.97 31.2 39.65 31.2 39.63 35.26 39.97 35.02 39.97"/>
        <polygon class="cls-19" points="34.77 39.97 31.2 39.67 31.2 39.65 35.02 39.97 34.77 39.97"/>
        <polygon class="cls-19" points="34.53 39.97 31.2 39.69 31.2 39.67 34.77 39.97 34.53 39.97"/>
        <polygon class="cls-19" points="34.29 39.97 31.2 39.71 31.2 39.69 34.53 39.97 34.29 39.97"/>
        <polygon class="cls-67" points="34.04 39.97 31.2 39.73 31.2 39.71 34.29 39.97 34.04 39.97"/>
        <polygon class="cls-147" points="33.8 39.97 31.2 39.75 31.2 39.73 34.04 39.97 33.8 39.97"/>
        <polygon class="cls-147" points="33.56 39.97 31.2 39.77 31.2 39.75 33.8 39.97 33.56 39.97"/>
        <polygon class="cls-147" points="33.31 39.97 31.2 39.79 31.2 39.77 33.56 39.97 33.31 39.97"/>
        <polygon class="cls-147" points="33.07 39.97 31.2 39.81 31.2 39.79 33.31 39.97 33.07 39.97"/>
        <polygon class="cls-147" points="32.83 39.97 31.2 39.83 31.2 39.81 33.07 39.97 32.83 39.97"/>
        <polygon class="cls-147" points="32.59 39.97 31.2 39.85 31.2 39.83 32.83 39.97 32.59 39.97"/>
        <polygon class="cls-147" points="32.34 39.97 31.2 39.87 31.2 39.85 32.59 39.97 32.34 39.97"/>
        <polygon class="cls-35" points="32.1 39.97 31.2 39.89 31.2 39.87 32.34 39.97 32.1 39.97"/>
        <polygon class="cls-35" points="31.86 39.97 31.2 39.91 31.2 39.89 32.1 39.97 31.86 39.97"/>
        <polygon class="cls-51" points="31.61 39.97 31.2 39.93 31.2 39.91 31.86 39.97 31.61 39.97"/>
        <polygon class="cls-51" points="31.37 39.97 31.2 39.95 31.2 39.93 31.61 39.97 31.37 39.97"/>
        <polygon class="cls-51" points="31.2 39.95 31.37 39.97 31.2 39.97 31.2 39.95"/>
      </g>
      <path class="cls-42" d="M33.28,39.23c-.61-.05-1.09-.67-1.03-1.34.05-.68.62-1.21,1.24-1.15.61.05,1.08.66,1.03,1.34-.06.68-.62,1.21-1.24,1.16Z"/>
      <path class="cls-129" d="M33.33,38.98c-.43-.04-.87-.5-.82-1.07.05-.58.56-.96.99-.93.43.04.87.5.82,1.08-.05.57-.56.96-.99.93Z"/>
      <g class="cls-117">
        <path class="cls-149" d="M36.76,40.71s-.05,0-.16.04c-.08-1.24-.32-2.95-1.02-3.29-1.04-.53-3.39-1.3-6.4.55-.3-.54-.46-.95-.46-.95,3.28-2.34,5.86-1.5,6.97-.94,1.13.56,1.07,4.6,1.07,4.6Z"/>
      </g>
      <path class="cls-95" d="M32.99,37.57c-.02.21-.23.36-.48.34-.25-.02-.43-.21-.41-.41.02-.21.23-.36.48-.34.25.02.43.21.42.41Z"/>
      <path class="cls-95" d="M34.37,38.77c0,.1-.12.18-.24.17-.12,0-.22-.1-.21-.21,0-.1.12-.18.24-.17.12,0,.22.1.21.21Z"/>
      <path class="cls-160" d="M43.4,34.03s.36-.56,1.11-1.12c.37-.29.84-.59,1.39-.82.55-.23,1.16-.4,1.79-.49.63-.07,1.26-.03,1.84.05.57.11,1.09.27,1.51.46.43.15.74.38.97.5.22.14.35.22.35.22,0,0-.15-.03-.4-.09-.25-.06-.6-.17-1.04-.23-.22-.03-.44-.1-.69-.11-.24-.02-.5-.03-.77-.05-.53,0-1.09.02-1.63.15-.54.09-1.07.26-1.54.48-.47.22-.9.44-1.24.68-.7.47-1.08.85-1.09.85-.14.14-.37.14-.51,0-.12-.12-.14-.31-.05-.46h0Z"/>
      <path class="cls-95" d="M52.73,37.06s-1.4,3.47-3.56,3.81c-2.17.34-4.47-.16-4.47-.16,0,0-.06-4.04,1.07-4.59,1.13-.56,3.7-1.4,6.97.94Z"/>
      <g class="cls-117">
        <path class="cls-149" d="M44.69,40.71s.05,0,.16.04c.08-1.24.32-2.95,1.02-3.29,1.04-.53,3.39-1.3,6.4.55.3-.54.46-.95.46-.95-3.28-2.34-5.86-1.5-6.97-.94-1.13.56-1.07,4.6-1.07,4.6Z"/>
      </g>
      <g class="cls-76">
        <polygon class="cls-121" points="50.26 36.32 45.91 35.96 45.91 35.56 50.26 35.56 50.26 36.32"/>
        <polygon class="cls-121" points="50.26 36.34 45.91 35.99 45.91 35.96 50.26 36.32 50.26 36.34"/>
        <polygon class="cls-165" points="50.26 36.36 45.91 36.01 45.91 35.99 50.26 36.34 50.26 36.36"/>
        <polygon class="cls-157" points="50.26 36.38 45.91 36.03 45.91 36.01 50.26 36.36 50.26 36.38"/>
        <polygon class="cls-83" points="50.26 36.4 45.91 36.05 45.91 36.03 50.26 36.38 50.26 36.4"/>
        <polygon class="cls-13" points="50.26 36.42 45.91 36.07 45.91 36.05 50.26 36.4 50.26 36.42"/>
        <polygon class="cls-135" points="50.26 36.44 45.91 36.09 45.91 36.07 50.26 36.42 50.26 36.44"/>
        <polygon class="cls-64" points="50.26 36.46 45.91 36.11 45.91 36.09 50.26 36.44 50.26 36.46"/>
        <polygon class="cls-2" points="50.26 36.48 45.91 36.13 45.91 36.11 50.26 36.46 50.26 36.48"/>
        <polygon class="cls-12" points="50.26 36.5 45.91 36.15 45.91 36.13 50.26 36.48 50.26 36.5"/>
        <polygon class="cls-69" points="50.26 36.52 45.91 36.17 45.91 36.15 50.26 36.5 50.26 36.52"/>
        <polygon class="cls-47" points="50.26 36.55 45.91 36.19 45.91 36.17 50.26 36.52 50.26 36.55"/>
        <polygon class="cls-62" points="50.26 36.57 45.91 36.21 45.91 36.19 50.26 36.55 50.26 36.57"/>
        <polygon class="cls-110" points="50.26 36.59 45.91 36.23 45.91 36.21 50.26 36.57 50.26 36.59"/>
        <polygon class="cls-145" points="50.26 36.61 45.91 36.25 45.91 36.23 50.26 36.59 50.26 36.61"/>
        <polygon class="cls-142" points="50.26 36.63 45.91 36.27 45.91 36.25 50.26 36.61 50.26 36.63"/>
        <polygon class="cls-63" points="50.26 36.65 45.91 36.29 45.91 36.27 50.26 36.63 50.26 36.65"/>
        <polygon class="cls-48" points="50.26 36.67 45.91 36.31 45.91 36.29 50.26 36.65 50.26 36.67"/>
        <polygon class="cls-156" points="50.26 36.69 45.91 36.33 45.91 36.31 50.26 36.67 50.26 36.69"/>
        <polygon class="cls-148" points="50.26 36.71 45.91 36.35 45.91 36.33 50.26 36.69 50.26 36.71"/>
        <polygon class="cls-120" points="50.26 36.73 45.91 36.37 45.91 36.35 50.26 36.71 50.26 36.73"/>
        <polygon class="cls-143" points="50.26 36.75 45.91 36.39 45.91 36.37 50.26 36.73 50.26 36.75"/>
        <polygon class="cls-124" points="50.26 36.77 45.91 36.41 45.91 36.39 50.26 36.75 50.26 36.77"/>
        <polygon class="cls-16" points="50.26 36.79 45.91 36.43 45.91 36.41 50.26 36.77 50.26 36.79"/>
        <polygon class="cls-154" points="50.26 36.81 45.91 36.45 45.91 36.43 50.26 36.79 50.26 36.81"/>
        <polygon class="cls-17" points="50.26 36.83 45.91 36.47 45.91 36.45 50.26 36.81 50.26 36.83"/>
        <polygon class="cls-108" points="50.26 36.85 45.91 36.49 45.91 36.47 50.26 36.83 50.26 36.85"/>
        <polygon class="cls-26" points="50.26 36.87 45.91 36.51 45.91 36.49 50.26 36.85 50.26 36.87"/>
        <polygon class="cls-38" points="50.26 36.89 45.91 36.53 45.91 36.51 50.26 36.87 50.26 36.89"/>
        <polygon class="cls-158" points="50.26 36.91 45.91 36.55 45.91 36.53 50.26 36.89 50.26 36.91"/>
        <polygon class="cls-115" points="50.26 36.93 45.91 36.57 45.91 36.55 50.26 36.91 50.26 36.93"/>
        <polygon class="cls-107" points="50.26 36.95 45.91 36.59 45.91 36.57 50.26 36.93 50.26 36.95"/>
        <polygon class="cls-105" points="50.26 36.97 45.91 36.61 45.91 36.59 50.26 36.95 50.26 36.97"/>
        <polygon class="cls-101" points="50.26 36.99 45.91 36.63 45.91 36.61 50.26 36.97 50.26 36.99"/>
        <polygon class="cls-75" points="50.26 37.01 45.91 36.65 45.91 36.63 50.26 36.99 50.26 37.01"/>
        <polygon class="cls-6" points="50.26 37.03 45.91 36.67 45.91 36.65 50.26 37.01 50.26 37.03"/>
        <polygon class="cls-113" points="50.26 37.05 45.91 36.69 45.91 36.67 50.26 37.03 50.26 37.05"/>
        <polygon class="cls-122" points="50.26 37.07 45.91 36.71 45.91 36.69 50.26 37.05 50.26 37.07"/>
        <polygon class="cls-111" points="50.26 37.09 45.91 36.73 45.91 36.71 50.26 37.07 50.26 37.09"/>
        <polygon class="cls-150" points="50.26 37.11 45.91 36.75 45.91 36.73 50.26 37.09 50.26 37.11"/>
        <polygon class="cls-72" points="50.26 37.13 45.91 36.77 45.91 36.75 50.26 37.11 50.26 37.13"/>
        <polygon class="cls-99" points="50.26 37.15 45.91 36.79 45.91 36.77 50.26 37.13 50.26 37.15"/>
        <polygon class="cls-77" points="50.26 37.17 45.91 36.81 45.91 36.79 50.26 37.15 50.26 37.17"/>
        <polygon class="cls-127" points="50.26 37.19 45.91 36.83 45.91 36.81 50.26 37.17 50.26 37.19"/>
        <polygon class="cls-131" points="50.26 37.21 45.91 36.85 45.91 36.83 50.26 37.19 50.26 37.21"/>
        <polygon class="cls-102" points="50.26 37.23 45.91 36.87 45.91 36.85 50.26 37.21 50.26 37.23"/>
        <polygon class="cls-175" points="50.26 37.25 45.91 36.89 45.91 36.87 50.26 37.23 50.26 37.25"/>
        <polygon class="cls-23" points="50.26 37.27 45.91 36.91 45.91 36.89 50.26 37.25 50.26 37.27"/>
        <polygon class="cls-65" points="50.26 37.29 45.91 36.93 45.91 36.91 50.26 37.27 50.26 37.29"/>
        <polygon class="cls-32" points="50.26 37.31 45.91 36.95 45.91 36.93 50.26 37.29 50.26 37.31"/>
        <polygon class="cls-66" points="50.26 37.33 45.91 36.97 45.91 36.95 50.26 37.31 50.26 37.33"/>
        <polygon class="cls-152" points="50.26 37.35 45.91 36.99 45.91 36.97 50.26 37.33 50.26 37.35"/>
        <polygon class="cls-28" points="50.26 37.37 45.91 37.01 45.91 36.99 50.26 37.35 50.26 37.37"/>
        <polygon class="cls-52" points="50.26 37.39 45.91 37.03 45.91 37.01 50.26 37.37 50.26 37.39"/>
        <polygon class="cls-139" points="50.26 37.41 45.91 37.05 45.91 37.03 50.26 37.39 50.26 37.41"/>
        <polygon class="cls-162" points="50.26 37.43 45.91 37.07 45.91 37.05 50.26 37.41 50.26 37.43"/>
        <polygon class="cls-119" points="50.26 37.45 45.91 37.09 45.91 37.07 50.26 37.43 50.26 37.45"/>
        <polygon class="cls-100" points="50.26 37.47 45.91 37.11 45.91 37.09 50.26 37.45 50.26 37.47"/>
        <polygon class="cls-80" points="50.26 37.49 45.91 37.13 45.91 37.11 50.26 37.47 50.26 37.49"/>
        <polygon class="cls-170" points="50.26 37.51 45.91 37.15 45.91 37.13 50.26 37.49 50.26 37.51"/>
        <polygon class="cls-130" points="50.26 37.53 45.91 37.17 45.91 37.15 50.26 37.51 50.26 37.53"/>
        <polygon class="cls-159" points="50.26 37.55 45.91 37.19 45.91 37.17 50.26 37.53 50.26 37.55"/>
        <polygon class="cls-40" points="50.26 37.57 45.91 37.21 45.91 37.19 50.26 37.55 50.26 37.57"/>
        <polygon class="cls-176" points="50.26 37.59 45.91 37.23 45.91 37.21 50.26 37.57 50.26 37.59"/>
        <polygon class="cls-21" points="50.26 37.61 45.91 37.25 45.91 37.23 50.26 37.59 50.26 37.61"/>
        <polygon class="cls-141" points="50.26 37.63 45.91 37.27 45.91 37.25 50.26 37.61 50.26 37.63"/>
        <polygon class="cls-68" points="50.26 37.65 45.91 37.29 45.91 37.27 50.26 37.63 50.26 37.65"/>
        <polygon class="cls-92" points="50.26 37.67 45.91 37.31 45.91 37.29 50.26 37.65 50.26 37.67"/>
        <polygon class="cls-153" points="50.26 37.69 45.91 37.33 45.91 37.31 50.26 37.67 50.26 37.69"/>
        <polygon class="cls-43" points="50.26 37.71 45.91 37.35 45.91 37.33 50.26 37.69 50.26 37.71"/>
        <polygon class="cls-46" points="50.26 37.73 45.91 37.37 45.91 37.35 50.26 37.71 50.26 37.73"/>
        <polygon class="cls-133" points="50.26 37.75 45.91 37.39 45.91 37.37 50.26 37.73 50.26 37.75"/>
        <polygon class="cls-61" points="50.26 37.77 45.91 37.41 45.91 37.39 50.26 37.75 50.26 37.77"/>
        <polygon class="cls-10" points="50.26 37.79 45.91 37.43 45.91 37.41 50.26 37.77 50.26 37.79"/>
        <polygon class="cls-132" points="50.26 37.81 45.91 37.45 45.91 37.43 50.26 37.79 50.26 37.81"/>
        <polygon class="cls-49" points="50.26 37.83 45.91 37.47 45.91 37.45 50.26 37.81 50.26 37.83"/>
        <polygon class="cls-116" points="50.26 37.85 45.91 37.49 45.91 37.47 50.26 37.83 50.26 37.85"/>
        <polygon class="cls-140" points="50.26 37.87 45.91 37.51 45.91 37.49 50.26 37.85 50.26 37.87"/>
        <polygon class="cls-103" points="50.26 37.89 45.91 37.53 45.91 37.51 50.26 37.87 50.26 37.89"/>
        <polygon class="cls-86" points="50.26 37.91 45.91 37.55 45.91 37.53 50.26 37.89 50.26 37.91"/>
        <polygon class="cls-88" points="50.26 37.93 45.91 37.57 45.91 37.55 50.26 37.91 50.26 37.93"/>
        <polygon class="cls-91" points="50.26 37.95 45.91 37.59 45.91 37.57 50.26 37.93 50.26 37.95"/>
        <polygon class="cls-146" points="50.26 37.97 45.91 37.61 45.91 37.59 50.26 37.95 50.26 37.97"/>
        <polygon class="cls-58" points="50.26 37.99 45.91 37.63 45.91 37.61 50.26 37.97 50.26 37.99"/>
        <polygon class="cls-71" points="50.26 38.01 45.91 37.65 45.91 37.63 50.26 37.99 50.26 38.01"/>
        <polygon class="cls-15" points="50.26 38.03 45.91 37.67 45.91 37.65 50.26 38.01 50.26 38.03"/>
        <polygon class="cls-82" points="50.26 38.05 45.91 37.69 45.91 37.67 50.26 38.03 50.26 38.05"/>
        <polygon class="cls-82" points="50.26 38.07 45.91 37.71 45.91 37.69 50.26 38.05 50.26 38.07"/>
        <polygon class="cls-93" points="50.26 38.09 45.91 37.73 45.91 37.71 50.26 38.07 50.26 38.09"/>
        <polygon class="cls-27" points="50.26 38.11 45.91 37.75 45.91 37.73 50.26 38.09 50.26 38.11"/>
        <polygon class="cls-27" points="50.26 38.13 45.91 37.77 45.91 37.75 50.26 38.11 50.26 38.13"/>
        <polygon class="cls-166" points="50.26 38.15 45.91 37.79 45.91 37.77 50.26 38.13 50.26 38.15"/>
        <polygon class="cls-73" points="50.26 38.17 45.91 37.81 45.91 37.79 50.26 38.15 50.26 38.17"/>
        <polygon class="cls-161" points="50.26 38.19 45.91 37.83 45.91 37.81 50.26 38.17 50.26 38.19"/>
        <polygon class="cls-79" points="50.26 38.21 45.91 37.85 45.91 37.83 50.26 38.19 50.26 38.21"/>
        <polygon class="cls-34" points="50.26 38.23 45.91 37.87 45.91 37.85 50.26 38.21 50.26 38.23"/>
        <polygon class="cls-134" points="50.26 38.25 45.91 37.89 45.91 37.87 50.26 38.23 50.26 38.25"/>
        <polygon class="cls-174" points="50.26 38.27 45.91 37.91 45.91 37.89 50.26 38.25 50.26 38.27"/>
        <polygon class="cls-74" points="50.26 38.29 45.91 37.93 45.91 37.91 50.26 38.27 50.26 38.29"/>
        <polygon class="cls-37" points="50.26 38.31 45.91 37.95 45.91 37.93 50.26 38.29 50.26 38.31"/>
        <polygon class="cls-20" points="50.26 38.33 45.91 37.97 45.91 37.95 50.26 38.31 50.26 38.33"/>
        <polygon class="cls-33" points="50.26 38.35 45.91 37.99 45.91 37.97 50.26 38.33 50.26 38.35"/>
        <polygon class="cls-125" points="50.26 38.37 45.91 38.01 45.91 37.99 50.26 38.35 50.26 38.37"/>
        <polygon class="cls-87" points="50.26 38.39 45.91 38.03 45.91 38.01 50.26 38.37 50.26 38.39"/>
        <polygon class="cls-168" points="50.26 38.41 45.91 38.05 45.91 38.03 50.26 38.39 50.26 38.41"/>
        <polygon class="cls-31" points="50.26 38.43 45.91 38.07 45.91 38.05 50.26 38.41 50.26 38.43"/>
        <polygon class="cls-118" points="50.26 38.45 45.91 38.09 45.91 38.07 50.26 38.43 50.26 38.45"/>
        <polygon class="cls-109" points="50.26 38.47 45.91 38.11 45.91 38.09 50.26 38.45 50.26 38.47"/>
        <polygon class="cls-8" points="50.26 38.49 45.91 38.13 45.91 38.11 50.26 38.47 50.26 38.49"/>
        <polygon class="cls-137" points="50.26 38.51 45.91 38.15 45.91 38.13 50.26 38.49 50.26 38.51"/>
        <polygon class="cls-137" points="50.26 38.53 45.91 38.17 45.91 38.15 50.26 38.51 50.26 38.53"/>
        <polygon class="cls-29" points="50.26 38.55 45.91 38.19 45.91 38.17 50.26 38.53 50.26 38.55"/>
        <polygon class="cls-18" points="50.26 38.57 45.91 38.21 45.91 38.19 50.26 38.55 50.26 38.57"/>
        <polygon class="cls-123" points="50.26 38.59 45.91 38.23 45.91 38.21 50.26 38.57 50.26 38.59"/>
        <polygon class="cls-90" points="50.26 38.61 45.91 38.25 45.91 38.23 50.26 38.59 50.26 38.61"/>
        <polygon class="cls-126" points="50.26 38.63 45.91 38.27 45.91 38.25 50.26 38.61 50.26 38.63"/>
        <polygon class="cls-126" points="50.26 38.65 45.91 38.29 45.91 38.27 50.26 38.63 50.26 38.65"/>
        <polygon class="cls-56" points="50.26 38.67 45.91 38.31 45.91 38.29 50.26 38.65 50.26 38.67"/>
        <polygon class="cls-56" points="50.26 38.69 45.91 38.33 45.91 38.31 50.26 38.67 50.26 38.69"/>
        <polygon class="cls-53" points="50.26 38.71 45.91 38.35 45.91 38.33 50.26 38.69 50.26 38.71"/>
        <polygon class="cls-167" points="50.26 38.73 45.91 38.37 45.91 38.35 50.26 38.71 50.26 38.73"/>
        <polygon class="cls-167" points="50.26 38.75 45.91 38.39 45.91 38.37 50.26 38.73 50.26 38.75"/>
        <polygon class="cls-9" points="50.26 38.77 45.91 38.41 45.91 38.39 50.26 38.75 50.26 38.77"/>
        <polygon class="cls-70" points="50.26 38.79 45.91 38.43 45.91 38.41 50.26 38.77 50.26 38.79"/>
        <polygon class="cls-151" points="50.26 38.81 45.91 38.45 45.91 38.43 50.26 38.79 50.26 38.81"/>
        <polygon class="cls-59" points="50.26 38.83 45.91 38.47 45.91 38.45 50.26 38.81 50.26 38.83"/>
        <polygon class="cls-171" points="50.26 38.85 45.91 38.49 45.91 38.47 50.26 38.83 50.26 38.85"/>
        <polygon class="cls-112" points="50.26 38.87 45.91 38.51 45.91 38.49 50.26 38.85 50.26 38.87"/>
        <polygon class="cls-112" points="50.26 38.89 45.91 38.53 45.91 38.51 50.26 38.87 50.26 38.89"/>
        <polygon class="cls-3" points="50.26 38.91 45.91 38.55 45.91 38.53 50.26 38.89 50.26 38.91"/>
        <polygon class="cls-50" points="50.26 38.93 45.91 38.57 45.91 38.55 50.26 38.91 50.26 38.93"/>
        <polygon class="cls-155" points="50.26 38.95 45.91 38.59 45.91 38.57 50.26 38.93 50.26 38.95"/>
        <polygon class="cls-155" points="50.26 38.97 45.91 38.61 45.91 38.59 50.26 38.95 50.26 38.97"/>
        <polygon class="cls-85" points="50.26 38.99 45.91 38.63 45.91 38.61 50.26 38.97 50.26 38.99"/>
        <polygon class="cls-45" points="50.26 39.01 45.91 38.65 45.91 38.63 50.26 38.99 50.26 39.01"/>
        <polygon class="cls-45" points="50.26 39.03 45.91 38.67 45.91 38.65 50.26 39.01 50.26 39.03"/>
        <polygon class="cls-96" points="50.26 39.05 45.91 38.69 45.91 38.67 50.26 39.03 50.26 39.05"/>
        <polygon class="cls-96" points="50.26 39.07 45.91 38.71 45.91 38.69 50.26 39.05 50.26 39.07"/>
        <polygon class="cls-106" points="50.26 39.09 45.91 38.73 45.91 38.71 50.26 39.07 50.26 39.09"/>
        <polygon class="cls-14" points="50.26 39.11 45.91 38.75 45.91 38.73 50.26 39.09 50.26 39.11"/>
        <polygon class="cls-104" points="50.26 39.13 45.91 38.77 45.91 38.75 50.26 39.11 50.26 39.13"/>
        <polygon class="cls-104" points="50.26 39.15 45.91 38.79 45.91 38.77 50.26 39.13 50.26 39.15"/>
        <polygon class="cls-41" points="50.26 39.17 45.91 38.81 45.91 38.79 50.26 39.15 50.26 39.17"/>
        <polygon class="cls-172" points="50.26 39.19 45.91 38.83 45.91 38.81 50.26 39.17 50.26 39.19"/>
        <polygon class="cls-172" points="50.26 39.21 45.91 38.85 45.91 38.83 50.26 39.19 50.26 39.21"/>
        <polygon class="cls-114" points="50.26 39.23 45.91 38.87 45.91 38.85 50.26 39.21 50.26 39.23"/>
        <polygon class="cls-54" points="50.26 39.25 45.91 38.89 45.91 38.87 50.26 39.23 50.26 39.25"/>
        <polygon class="cls-30" points="50.26 39.27 45.91 38.91 45.91 38.89 50.26 39.25 50.26 39.27"/>
        <polygon class="cls-24" points="50.26 39.29 45.91 38.93 45.91 38.91 50.26 39.27 50.26 39.29"/>
        <polygon class="cls-24" points="50.26 39.31 45.91 38.95 45.91 38.93 50.26 39.29 50.26 39.31"/>
        <polygon class="cls-164" points="50.26 39.33 45.91 38.97 45.91 38.95 50.26 39.31 50.26 39.33"/>
        <polygon class="cls-128" points="50.26 39.35 45.91 38.99 45.91 38.97 50.26 39.33 50.26 39.35"/>
        <polygon class="cls-128" points="50.26 39.37 45.91 39.01 45.91 38.99 50.26 39.35 50.26 39.37"/>
        <polygon class="cls-128" points="50.26 39.39 45.91 39.03 45.91 39.01 50.26 39.37 50.26 39.39"/>
        <polygon class="cls-89" points="50.26 39.41 45.91 39.05 45.91 39.03 50.26 39.39 50.26 39.41"/>
        <polygon class="cls-89" points="50.26 39.43 45.91 39.07 45.91 39.05 50.26 39.41 50.26 39.43"/>
        <polygon class="cls-78" points="50.26 39.45 45.91 39.09 45.91 39.07 50.26 39.43 50.26 39.45"/>
        <polygon class="cls-78" points="50.26 39.47 45.91 39.12 45.91 39.09 50.26 39.45 50.26 39.47"/>
        <polygon class="cls-138" points="50.26 39.49 45.91 39.14 45.91 39.12 50.26 39.47 50.26 39.49"/>
        <polygon class="cls-4" points="50.26 39.51 45.91 39.16 45.91 39.14 50.26 39.49 50.26 39.51"/>
        <polygon class="cls-4" points="50.26 39.53 45.91 39.18 45.91 39.16 50.26 39.51 50.26 39.53"/>
        <polygon class="cls-44" points="50.26 39.55 45.91 39.2 45.91 39.18 50.26 39.53 50.26 39.55"/>
        <polygon class="cls-60" points="50.26 39.57 45.91 39.22 45.91 39.2 50.26 39.55 50.26 39.57"/>
        <polygon class="cls-84" points="50.26 39.59 45.91 39.24 45.91 39.22 50.26 39.57 50.26 39.59"/>
        <polygon class="cls-84" points="50.26 39.61 45.91 39.26 45.91 39.24 50.26 39.59 50.26 39.61"/>
        <polygon class="cls-84" points="50.26 39.63 45.91 39.28 45.91 39.26 50.26 39.61 50.26 39.63"/>
        <polygon class="cls-173" points="50.26 39.66 45.91 39.3 45.91 39.28 50.26 39.63 50.26 39.66"/>
        <polygon class="cls-11" points="50.26 39.68 45.91 39.32 45.91 39.3 50.26 39.66 50.26 39.68"/>
        <polygon class="cls-11" points="50.26 39.7 45.91 39.34 45.91 39.32 50.26 39.68 50.26 39.7"/>
        <polygon class="cls-169" points="50.26 39.72 45.91 39.36 45.91 39.34 50.26 39.7 50.26 39.72"/>
        <polygon class="cls-136" points="50.26 39.74 45.91 39.38 45.91 39.36 50.26 39.72 50.26 39.74"/>
        <polygon class="cls-136" points="50.26 39.76 45.91 39.4 45.91 39.38 50.26 39.74 50.26 39.76"/>
        <polygon class="cls-136" points="50.26 39.78 45.91 39.42 45.91 39.4 50.26 39.76 50.26 39.78"/>
        <polygon class="cls-136" points="50.26 39.8 45.91 39.44 45.91 39.42 50.26 39.78 50.26 39.8"/>
        <polygon class="cls-39" points="50.26 39.82 45.91 39.46 45.91 39.44 50.26 39.8 50.26 39.82"/>
        <polygon class="cls-97" points="50.26 39.84 45.91 39.48 45.91 39.46 50.26 39.82 50.26 39.84"/>
        <polygon class="cls-19" points="50.21 39.85 45.91 39.5 45.91 39.48 50.26 39.84 50.26 39.85 50.21 39.85"/>
        <polygon class="cls-19" points="49.97 39.85 45.91 39.52 45.91 39.5 50.21 39.85 49.97 39.85"/>
        <polygon class="cls-19" points="49.73 39.85 45.91 39.54 45.91 39.52 49.97 39.85 49.73 39.85"/>
        <polygon class="cls-19" points="49.48 39.85 45.91 39.56 45.91 39.54 49.73 39.85 49.48 39.85"/>
        <polygon class="cls-19" points="49.24 39.85 45.91 39.58 45.91 39.56 49.48 39.85 49.24 39.85"/>
        <polygon class="cls-19" points="49 39.85 45.91 39.6 45.91 39.58 49.24 39.85 49 39.85"/>
        <polygon class="cls-67" points="48.75 39.85 45.91 39.62 45.91 39.6 49 39.85 48.75 39.85"/>
        <polygon class="cls-147" points="48.51 39.85 45.91 39.64 45.91 39.62 48.75 39.85 48.51 39.85"/>
        <polygon class="cls-147" points="48.27 39.85 45.91 39.66 45.91 39.64 48.51 39.85 48.27 39.85"/>
        <polygon class="cls-147" points="48.03 39.85 45.91 39.68 45.91 39.66 48.27 39.85 48.03 39.85"/>
        <polygon class="cls-147" points="47.78 39.85 45.91 39.7 45.91 39.68 48.03 39.85 47.78 39.85"/>
        <polygon class="cls-147" points="47.54 39.85 45.91 39.72 45.91 39.7 47.78 39.85 47.54 39.85"/>
        <polygon class="cls-147" points="47.3 39.85 45.91 39.74 45.91 39.72 47.54 39.85 47.3 39.85"/>
        <polygon class="cls-147" points="47.05 39.85 45.91 39.76 45.91 39.74 47.3 39.85 47.05 39.85"/>
        <polygon class="cls-35" points="46.81 39.85 45.91 39.78 45.91 39.76 47.05 39.85 46.81 39.85"/>
        <polygon class="cls-35" points="46.57 39.85 45.91 39.8 45.91 39.78 46.81 39.85 46.57 39.85"/>
        <polygon class="cls-51" points="46.32 39.85 45.91 39.82 45.91 39.8 46.57 39.85 46.32 39.85"/>
        <polygon class="cls-51" points="46.08 39.85 45.91 39.84 45.91 39.82 46.32 39.85 46.08 39.85"/>
        <polygon class="cls-51" points="45.91 39.84 46.08 39.85 45.91 39.85 45.91 39.84"/>
      </g>
      <path class="cls-42" d="M47.99,39.11c-.61-.05-1.08-.67-1.03-1.34.05-.68.62-1.21,1.24-1.15.61.05,1.08.66,1.03,1.34-.06.68-.62,1.21-1.24,1.16Z"/>
      <path class="cls-129" d="M48.04,38.87c-.43-.04-.87-.5-.82-1.07.05-.57.56-.96.99-.93.43.04.87.5.82,1.08-.05.57-.56.96-.99.93Z"/>
      <path class="cls-95" d="M47.7,37.45c-.02.21-.23.36-.48.34-.25-.02-.43-.21-.41-.41.02-.21.23-.36.48-.34.25.02.43.21.42.41Z"/>
      <path class="cls-95" d="M49.08,38.65c0,.1-.12.18-.24.17-.12,0-.22-.1-.21-.21,0-.1.12-.18.24-.17.12,0,.22.1.21.21Z"/>
      <path class="cls-5" d="M22.96,39.61c.93-1.51,2.38-.87,2.74-.54.38.36.69.83.46,1.72-.12.5-.65.54-.51,1.3.15.85.54.9.77,1.1.22.19.51.33.65.7.14.36.16.74.09,1.07-.14.62-1.04.14-1.64-.13-.4-.18-1.66-1.23-1.98-1.58-.8-.9-1.19-2.62-.57-3.63"/>
      <path class="cls-25" d="M42.49,46.36c.33-.22.71-.12.71-.12,0,0,0,0-.01.02-.08.13-.52.83-.87.82,0,0-.08-.06-.1-.23-.03-.17.11-.38.27-.5Z"/>
      <path class="cls-1" d="M22.5,73.28s0,0,0,.01h0s0,0,0-.01Z"/>
      <path class="cls-95" d="M43.05,78.88h-4.49v-13.32l.81,1.08c.72.96,2.16.96,2.88,0l.81-1.08v13.32Z"/>
      <path class="cls-94" d="M49.03,59.96c-3.31.03-5.98,2.72-5.98,6.03v7.01l9.02-9.35c-1.23-.9-2.51-2.13-3.04-3.68Z"/>
      <path class="cls-98" d="M62.74,73.29c-.04-.65-.09-1.2-.14-1.47h0c-.01-.08-.02-.13-.04-.16v-.02h0c-.45-2,.34-2.92-2.87-4.84-.02-.01-.73-.23-1.78-.56h-.01c-.72-.23-1.62-.51-2.55-.83-.09-.02-.17-.06-.26-.08-.05-.02-.1-.03-.15-.05-.32-.14-1.58-.7-2.87-1.64l-9.02,9.35v5.89h14.99c-.17-2.33-.61-3.4-1.21-5.59h5.91Z"/>
      <path class="cls-94" d="M38.56,65.98c0-3.31-2.67-6-5.98-6.03-.56,1.64-1.96,2.93-3.26,3.84l9.24,9.24v-7.06Z"/>
      <path class="cls-98" d="M26.68,65.28s-.1.03-.15.05c-.09.02-.17.06-.26.08-.93.31-1.83.6-2.55.83h-.01c-1.04.33-1.75.55-1.78.56-3.21,1.92-2.42,2.85-2.87,4.83h0v.04s-.03.07-.04.14h0c-.05.28-.1.83-.14,1.48h5.91c-.6,2.19-1.04,3.26-1.21,5.59h14.99v-5.84l-9.24-9.24c-1.21.84-2.34,1.35-2.64,1.48Z"/>
      <path class="cls-98" d="M63.85,28.07h-.01c1.03.56,2.43.96,4.38.99,0,0-3.33-.97-5.68-6.99-.4-1.35-.8-2.4-.8-2.4,0,0,.06.01.61.01,3.39,0,5.31-3.08,5.31-3.08,0,0-1.28,1.75-5.68.39-4.3-1.33-4.19-5.68-10.38-8.1-3.17-1.24-5.06-1.08-6.15-.63,1.11-.85,3.39-.78,3.39-.78,0,0-2.81-1.45-7.16-.15-3.05.92-4.88,1.96-5.91,2.71l1.71-1.53s-1.21.4-2.93,1.23c1.17-2.13,3.33-4.46,3.33-4.46-5.51,1.92-10.07,8.85-10.07,8.85.44-2.61,1.4-5,1.4-5-9.4,6.56-7.94,18.4-7.94,18.4,0,4.48,1.88,8.98,3.12,10.31,1.24,1.33.84,3.27,1.21,3.27,0,0,.74.02.77-3.36.03-.4.1-.87.24-1.31.04-9.8,8.78-12.77,15.79-13.57,0,0,4.96,2.21,8.45,10.84,0,.02,0,.04,0,.06,0,0,.01,0,.02-.02,2.19,5.45,3.8,13.45,3.2,25.05,0,0,.01-.05.03-.15,0,0,4.48-11.1,3.01-21.46.81,1.06,1.36,2.67,1.36,2.67h0c.27,1.02.67,1.55.9,1.49,0,0,.02-.79.29-1.63.05-.16.11-.32.18-.48.16-.35.31-.62.46-.85.17-.26.34-.46.5-.61.23-.22.44-.35.63-.49,2.48,4.07,6.79,6.75,6.79,6.75-7.04-6.32-4.36-15.98-4.36-15.98Z"/>
      <g>
        <path class="cls-22" d="M38.81,39.3c0,3-3.31,5.97-7.11,5.97-5.3,0-6.02-2.65-6.02-5.65s-1.32-5.43,6.46-5.43,6.67,2.11,6.67,5.11"/>
        <path class="cls-22" d="M44.14,39.3c0,3,3.31,5.97,7.11,5.97,5.31,0,6.02-2.65,6.02-5.65s1.31-5.43-6.46-5.43-6.67,2.11-6.67,5.11"/>
        <path class="cls-57" d="M28.94,44.5c1.39.42,6.59,1.03,8.75-2.99-4.34-2.23-8.72-1.03-11.25.1.74,2.26,1.99,2.74,2.51,2.9Z"/>
        <path class="cls-57" d="M53.94,44.5c.48-.15,1.6-.57,2.35-2.47-4.13-2.47-8.09-1.23-10.64.21,2.36,3.2,6.99,2.65,8.29,2.26Z"/>
        <path class="cls-95" d="M24.88,37.66c.17.65.86,5.3,2.39,6.58,2.52,2.1,11.01,2.19,12.48-5.45.2-1.04.47-1.65.92-1.82.19-.07.46-.12.74-.12.28,0,.55.05.74.12.46.17.73.78.93,1.82,1.46,7.64,9.95,7.55,12.48,5.45,1.53-1.27,2.22-5.93,2.39-6.58.17-.65.87-1.04,1.07-1.24.2-.2.05-2.03-.02-2.17-.1-.2-2-.48-4.48-.71-2.09-.2-5.45-.06-6.78.12-.54.08-1.54.27-2.51.53-1.09.3-2.17.67-2.62.77-.43.09-.77.12-1.13.12h0s-.05,0-.08,0c-.03,0-.05,0-.08,0h0c-.36.01-.7-.02-1.13-.11-.44-.1-1.52-.48-2.62-.77-.97-.26-1.96-.45-2.5-.53-1.32-.18-4.69-.31-6.78-.12-2.48.23-4.38.51-4.48.71-.07.14-.22,1.97-.02,2.17.2.2.9.59,1.07,1.24ZM44.45,36.18c.26-.93,2.84-1.47,3.96-1.62,1.11-.14,2.75-.24,4.6,0,2.27.28,3.88.49,3.66,3.88-.32,4.87-2.31,5.65-2.98,5.86-1.55.47-7.95,1.17-9.27-4.82-.29-1.31-.22-2.37.04-3.29ZM29.83,34.56c1.85-.23,3.49-.14,4.6,0,1.11.14,3.7.69,3.96,1.62.26.93.32,1.98.03,3.29-1.32,5.99-7.72,5.29-9.26,4.82-.68-.21-2.67-.99-2.99-5.86-.22-3.39,1.38-3.59,3.66-3.88Z"/>
      </g>
    </g>
  </g>
</svg>