<?xml version="1.0" encoding="UTF-8"?>
<svg id="Layer_2" data-name="Layer 2" xmlns="http://www.w3.org/2000/svg" xmlns:xlink="http://www.w3.org/1999/xlink" viewBox="0 0 78.88 78.88">
  <defs>
    <style>
      .cls-1 {
        fill: none;
      }

      .cls-2 {
        fill: #354148;
      }

      .cls-3 {
        fill: #7d99ae;
      }

      .cls-4 {
        fill: #84a2b8;
      }

      .cls-5 {
        fill: #debaad;
      }

      .cls-6 {
        fill: #4e606b;
      }

      .cls-7 {
        fill: #bf6c6c;
      }

      .cls-8 {
        fill: #7791a4;
      }

      .cls-9 {
        fill: #7b97ab;
      }

      .cls-10 {
        fill: #677e8d;
      }

      .cls-11 {
        fill: #86a3ba;
      }

      .cls-12 {
        fill: #364349;
      }

      .cls-13 {
        fill: #313d43;
      }

      .cls-14 {
        fill: #809cb2;
      }

      .cls-15 {
        fill: #6d8596;
      }

      .cls-16 {
        fill: #44545c;
      }

      .cls-17 {
        fill: #46565f;
      }

      .cls-18 {
        fill: #7893a6;
      }

      .cls-19 {
        fill: #87a5bc;
      }

      .cls-20 {
        fill: #748d9f;
      }

      .cls-21 {
        fill: #627886;
      }

      .cls-22 {
        fill: #576b77;
      }

      .cls-23 {
        fill: #829fb5;
      }

      .cls-24 {
        fill: #b89388;
      }

      .cls-25 {
        fill: #485862;
      }

      .cls-26 {
        fill: #6f8899;
      }

      .cls-27 {
        fill: #5b6f7c;
      }

      .cls-28 {
        fill: #7892a6;
      }

      .cls-29 {
        fill: #252318;
      }

      .cls-30 {
        fill: #829fb4;
      }

      .cls-31 {
        fill: #7690a2;
      }

      .cls-32 {
        fill: #596c79;
      }

      .cls-33 {
        fill: #748ea0;
      }

      .cls-34 {
        fill: #728b9c;
      }

      .cls-35 {
        fill: #88a6be;
      }

      .cls-36 {
        fill: #a88a6b;
      }

      .cls-37 {
        fill: #738d9f;
      }

      .cls-38 {
        fill: #495963;
      }

      .cls-39 {
        fill: #87a4bb;
      }

      .cls-40 {
        fill: #617785;
      }

      .cls-41 {
        fill: #819db3;
      }

      .cls-42 {
        fill: #95bacb;
      }

      .cls-43 {
        fill: #657b8a;
      }

      .cls-44 {
        fill: #85a2b8;
      }

      .cls-45 {
        fill: #7f9bb0;
      }

      .cls-46 {
        fill: #667c8b;
      }

      .cls-47 {
        fill: #38454c;
      }

      .cls-48 {
        fill: #3e4d54;
      }

      .cls-49 {
        fill: #687f8f;
      }

      .cls-50 {
        fill: #7e9aae;
      }

      .cls-51 {
        fill: #88a7be;
      }

      .cls-52 {
        fill: #5b707d;
      }

      .cls-53 {
        fill: #7a96a9;
      }

      .cls-54 {
        fill: #829eb4;
      }

      .cls-55 {
        fill: #7a95a9;
      }

      .cls-56 {
        fill: #6c8495;
      }

      .cls-57 {
        fill: #7c98ac;
      }

      .cls-58 {
        fill: #85a2b9;
      }

      .cls-59 {
        fill: #677d8d;
      }

      .cls-60 {
        fill: #39464e;
      }

      .cls-61 {
        fill: #3d4b53;
      }

      .cls-62 {
        fill: #344046;
      }

      .cls-63 {
        fill: #586c78;
      }

      .cls-64 {
        fill: #596d7a;
      }

      .cls-65 {
        fill: #87a6bd;
      }

      .cls-66 {
        fill: #637988;
      }

      .cls-67 {
        fill: #37444b;
      }

      .cls-68 {
        fill: #7c97ab;
      }

      .cls-69 {
        fill: #6d8595;
      }

      .cls-70 {
        fill: #526570;
      }

      .cls-71 {
        fill: #70899b;
      }

      .cls-72 {
        fill: #738c9e;
      }

      .cls-73 {
        fill: #4e5f6a;
      }

      .cls-74 {
        clip-path: url(#clippath-1);
      }

      .cls-75 {
        fill: #546672;
      }

      .cls-76 {
        fill: #84a1b7;
      }

      .cls-77 {
        fill: #718a9c;
      }

      .cls-78 {
        fill: #5f7481;
      }

      .cls-79 {
        fill: #f1d4c8;
      }

      .cls-80 {
        fill: #6e8697;
      }

      .cls-81 {
        fill: #303c42;
      }

      .cls-82 {
        fill: #85a3b9;
      }

      .cls-83 {
        fill: #7e9baf;
      }

      .cls-84 {
        fill: #6a8292;
      }

      .cls-85 {
        fill: #ae5d66;
      }

      .cls-86 {
        fill: #758fa1;
      }

      .cls-87 {
        fill: #6b8292;
      }

      .cls-88 {
        fill: #83a1b7;
      }

      .cls-89 {
        fill: #7994a7;
      }

      .cls-90 {
        fill: #6b8393;
      }

      .cls-91 {
        fill: #647a89;
      }

      .cls-92 {
        fill: #6e8798;
      }

      .cls-93 {
        fill: #fff;
      }

      .cls-94 {
        fill: #7f9cb1;
      }

      .cls-95 {
        fill: #87a5bb;
      }

      .cls-96 {
        fill: #536671;
      }

      .cls-97 {
        fill: #5e7380;
      }

      .cls-98 {
        fill: #4d5e69;
      }

      .cls-99 {
        fill: #566975;
      }

      .cls-100 {
        fill: #6a8191;
      }

      .cls-101 {
        fill: #809db2;
      }

      .cls-102 {
        fill: #4c5d68;
      }

      .cls-103 {
        fill: #809cb1;
      }

      .cls-104 {
        fill: #4b5c67;
      }

      .cls-105 {
        fill: #475760;
      }

      .cls-106 {
        fill: #7691a3;
      }

      .cls-107 {
        fill: #3a484f;
      }

      .cls-108 {
        fill: #51636e;
      }

      .cls-109 {
        fill: #7d99ad;
      }

      .cls-110 {
        fill: #4f616c;
      }

      .cls-111 {
        fill: #819eb4;
      }

      .cls-112 {
        fill: #4a5b65;
      }

      .cls-113 {
        fill: #698090;
      }

      .cls-114 {
        opacity: .3;
      }

      .cls-115 {
        fill: #7690a3;
      }

      .cls-116 {
        fill: #5d727f;
      }

      .cls-117 {
        fill: #415059;
      }

      .cls-118 {
        fill: #2d383d;
      }

      .cls-119 {
        fill: #50626d;
      }

      .cls-120 {
        fill: #7893a7;
      }

      .cls-121 {
        fill: #43525b;
      }

      .cls-122 {
        fill: #748ea1;
      }

      .cls-123 {
        fill: #7994a8;
      }

      .cls-124 {
        fill: #546773;
      }

      .cls-125 {
        fill: #83a0b6;
      }

      .cls-126 {
        fill: #26200c;
      }

      .cls-127 {
        fill: #607583;
      }

      .cls-128 {
        fill: #556874;
      }

      .cls-129 {
        fill: #687f8e;
      }

      .cls-130 {
        fill: #667d8c;
      }

      .cls-131 {
        fill: #728b9d;
      }

      .cls-132 {
        fill: #323f45;
      }

      .cls-133 {
        fill: #86a4bb;
      }

      .cls-134 {
        fill: #7792a5;
      }

      .cls-135 {
        fill: #84a1b8;
      }

      .cls-136 {
        fill: #5b2225;
      }

      .cls-137 {
        fill: #5c707e;
      }

      .cls-138 {
        fill: #698190;
      }

      .cls-139 {
        fill: #637987;
      }

      .cls-140 {
        fill: #3c4a52;
      }

      .cls-141 {
        fill: #42515a;
      }

      .cls-142 {
        fill: #c6a095;
      }

      .cls-143 {
        fill: #3b4950;
      }

      .cls-144 {
        fill: #6c8494;
      }

      .cls-145 {
        fill: #88a6bd;
      }

      .cls-146 {
        fill: #404f57;
      }

      .cls-147 {
        fill: #47433b;
      }

      .cls-148 {
        fill: #51646f;
      }

      .cls-149 {
        fill: #7c97ac;
      }

      .cls-150 {
        fill: #5a6e7b;
      }

      .cls-151 {
        fill: #647b8a;
      }

      .cls-152 {
        fill: #45555e;
      }

      .cls-153 {
        fill: #7e9aaf;
      }

      .cls-154 {
        fill: #3f4e56;
      }

      .cls-155 {
        fill: #2f3b40;
      }

      .cls-156 {
        fill: #4a5a64;
      }

      .cls-157 {
        fill: #607684;
      }

      .cls-158 {
        fill: #718a9b;
      }

      .cls-159 {
        fill: #5d717f;
      }

      .cls-160 {
        clip-path: url(#clippath);
      }

      .cls-161 {
        fill: #82a0b5;
      }

      .cls-162 {
        fill: #2e393f;
      }

      .cls-163 {
        fill: #70899a;
      }

      .cls-164 {
        fill: #7b96aa;
      }

      .cls-165 {
        fill: #758fa2;
      }

      .cls-166 {
        fill: #86a4ba;
      }

      .cls-167 {
        fill: #5f7482;
      }

      .cls-168 {
        fill: #7c98ad;
      }

      .cls-169 {
        fill: #819eb3;
      }

      .cls-170 {
        fill: #85a3ba;
      }

      .cls-171 {
        fill: #728c9e;
      }

      .cls-172 {
        fill: #576a76;
      }

      .cls-173 {
        fill: #627786;
      }

      .cls-174 {
        fill: #5e5d59;
      }

      .cls-175 {
        fill: #ab5b64;
      }
    </style>
    <clipPath id="clippath">
      <path class="cls-1" d="M33.56,35.06c-.1,1.21-1.18,2.11-2.41,2.01-1.23-.1-2.15-1.17-2.05-2.38.1-1.21,1.18-2.12,2.41-2.01,1.23.1,2.15,1.17,2.05,2.38Z"/>
    </clipPath>
    <clipPath id="clippath-1">
      <path class="cls-1" d="M49.32,34.93c-.1,1.21-1.18,2.11-2.41,2.01-1.23-.1-2.15-1.17-2.05-2.38.1-1.22,1.18-2.12,2.41-2.01,1.23.1,2.15,1.17,2.05,2.38Z"/>
    </clipPath>
  </defs>
  <g id="Layer_1-2" data-name="Layer 1">
    <g>
      <rect class="cls-175" width="78.88" height="78.88"/>
      <path class="cls-79" d="M61.55,77.87s-.1-6.16-.35-6.7c-.47-2.15.37-3.13-2.95-5.2-.03-.01-.75-.24-1.84-.6t-.03-.01c-.7-.23-1.56-.51-2.45-.82-.35-.11-.69-.24-1.05-.36-1.5-.52-3-1.09-4.12-1.55-.79-.34-1.38-.64-1.6-.86-.01-.01-.04-.05-.08-.09-.02-.04-.05-.06-.08-.1-.06-.36-1.02-1.93-1.36-3.64h0c-.08-.36-.11-.69-.13-1.04-.03-.5-.03-1-.04-1.44-.01-.46-.02-.88-.04-1.23v-.29c-.01-.24-.01-.45-.01-.6-.01-.15-.01-.24-.01-.24,0,0,.36-.31.88-.77.65-.59,1.58-1.43,2.39-2.24.87-.87,1.62-1.7,1.79-2.13.01-.06.02-.11.02-.15,0,0-.02,0-.06.01-.41.06-2.61.45-4.97.82-1.41.22-2.88.44-4.08.59-.47.07-.91.1-1.28.14h-.01c-.35.04-.64.05-.86.05-.24,0-.58-.03-.97-.05h-.03c-.38-.05-.84-.1-1.34-.17-1.1-.14-2.42-.33-3.69-.52-1.18-.19-2.33-.37-3.23-.52-.22-.04-.41-.06-.59-.1-.87-.14-1.42-.24-1.42-.24,0,.17.15.42.41.75,0,0,0,.01.01.01.19.26.45.55.75.88.29.31.61.63.95.95,1.01.98,2.11,1.96,2.65,2.42.2.18.32.28.32.28,0,0,0,.09-.01.24,0,.15,0,.36-.01.6v.29c0,.1,0,.2-.01.31-.01.67-.04,1.5-.06,2.37-.01.34-.05.68-.13,1.02-.33,1.71-1.29,3.3-1.36,3.66-.03.04-.05.06-.08.1-.04.04-.06.08-.08.09-.18.18-.64.42-1.27.72-1.26.56-3.25,1.28-5.09,1.9-.09.03-.18.06-.27.09-.96.33-1.88.64-2.62.88h-.01c-1.07.36-1.8.59-1.83.6-3.3,2.06-2.49,3.04-2.95,5.16h0v.04s-.03.08-.04.15h0c-.22,1.13-.31,6.55-.31,6.55,0,.33,0,.67,0,1.01h44.62c0-.34,0-.68-.01-1.01Z"/>
      <path class="cls-142" d="M45.67,57.92c-.08-.34-.11-.68-.13-1.02-.04-1.15-.06-2.25-.08-2.97-1.92.86-3.89,1.36-5.82,1.36-.11.02-.26.02-.39.02s-.28,0-.39-.02c-1.93,0-3.9-.5-5.82-1.36-.01.72-.04,1.82-.08,2.97-.01.34-.05.68-.13,1.02,1.85,1.55,4.36,3.14,6.02,3.14.1.02.23.02.35.02h0s.03,0,.04,0,.03,0,.04,0h0c.12,0,.25,0,.35-.03,1.66,0,4.17-1.6,6.02-3.14Z"/>
      <g>
        <path class="cls-79" d="M55.71,34.98c.32-1.77.57-3.13.65-3.39.04-.13.06-.26.1-.38.03-.15.06-.29.09-.43.06-.22.1-.44.15-.65.01-.1.04-.2.05-.31.04-.24.09-.49.13-.73.01-.1.03-.22.04-.32.04-.22.05-.43.08-.65.01-.17.02-.33.05-.49.01-.14.01-.28.02-.42.17-3.34-.55-6.74-2.74-9.82-2.65-3.71-5.69-7.63-12.3-8.18h-5.57c-6.61.55-9.65,4.47-12.3,8.18-2.19,3.08-2.9,6.48-2.74,9.82.01.14.01.28.02.42.03.15.04.32.05.49.02.22.04.43.08.65.01.1.03.22.04.32.04.24.09.49.13.73.01.1.04.2.05.31.05.22.09.44.15.65.03.14.06.28.09.43.04.13.06.26.1.38.08.26.32,1.61.64,3.36-1.76-.86-4.21.37-3.92,3.62.3,3.3,4.31,5.25,5.68,5.58.14.6.25,1.04.33,1.25,1.2,3.03,2.66,3.94,5.22,6.41,2.79,2.67,6.9,5.18,8.94,5.16.06.01.14.01.22.01s.15,0,.22-.01c2.03.01,6.15-2.49,8.93-5.16,2.56-2.47,4.01-3.38,5.22-6.41.08-.21.2-.65.33-1.24,1.33-.3,5.42-2.26,5.72-5.6.29-3.28-2.2-4.5-3.97-3.59Z"/>
        <path class="cls-5" d="M58.39,36.79c-.99-1.61-2.55-.94-2.94-.58-.41.38-.74.89-.49,1.84.13.54.7.58.55,1.4-.16.91-.58.97-.82,1.17-.24.2-.54.36-.7.75-.15.38-.17.79-.1,1.14.15.66,1.12.15,1.76-.14.43-.19,1.78-1.32,2.13-1.69.86-.96,1.28-2.81.61-3.89"/>
      </g>
      <path class="cls-5" d="M36.43,50.66c-.06-.84,2.37.18,3.17.2.64.02,2.55-.13,2.73-.19,1.34-.5-.07,1.41-2.77,1.51-1.23.05-3.09-1.01-3.13-1.52Z"/>
      <g>
        <path class="cls-175" d="M44.44,49.57c-1.54-.29-4.79-.91-4.79-.91-2.68.44-4.78.91-4.79.92-.06,0,2.14,1.98,4.76,1.84h0c2.62.13,4.89-1.84,4.83-1.85Z"/>
        <path class="cls-7" d="M41.19,48.11c-.7-.08-1.17.33-1.53.29-.36.03-.84-.37-1.53-.29-.99.21-1.46.84-3.26,1.46.06.12,1.22-.15,3.38-.11.03,0,.61.33,1.43.32.52,0,1.22-.34,1.25-.34,2.16-.03,3.48.26,3.54.14-2.38-.73-2.29-1.26-3.27-1.47Z"/>
      </g>
      <path class="cls-36" d="M40.93,44.05c.35-.23.76-.12.76-.12,0,0,0,0-.01.02-.08.14-.55.89-.93.88,0,0-.08-.07-.11-.25-.03-.18.12-.41.29-.53Z"/>
      <path class="cls-5" d="M36.2,43.82c-.07-1.69,2.62-.62,3.51-.56.7.04,2.83-.53,3.02-.39,1.25,1-1.33,3.03-3.06,3.03-.46,0-3.42-1.05-3.46-2.08Z"/>
      <path class="cls-24" d="M38.23,44.03c-.35-.23-.76-.12-.76-.12,0,0,0,0,.01.02.08.14.55.89.93.88,0,0,.08-.07.11-.25.03-.18-.12-.41-.29-.53Z"/>
      <path class="cls-174" d="M35.73,32.26s-.41-.41-1.16-.91c-.36-.26-.83-.49-1.33-.73-.5-.23-1.07-.41-1.65-.51-.58-.13-1.18-.16-1.75-.16-.29.02-.56.04-.82.06-.26.01-.51.08-.74.12-.46.07-.84.18-1.11.25-.27.06-.43.1-.43.1,0,0,.14-.08.37-.23.25-.13.58-.38,1.04-.54.45-.2,1-.37,1.61-.49.62-.08,1.29-.13,1.97-.05.67.09,1.33.28,1.91.52.59.25,1.09.57,1.49.88.8.61,1.19,1.2,1.19,1.2h0c.12.19.07.43-.11.55-.16.1-.36.08-.49-.05Z"/>
      <path class="cls-93" d="M26.33,34.06s1.5,3.72,3.82,4.09c2.32.36,4.8-.17,4.8-.17,0,0,.06-4.33-1.14-4.92-1.2-.6-3.96-1.5-7.47,1Z"/>
      <g class="cls-160">
        <polygon class="cls-118" points="33.66 33.39 28.99 33.01 28.99 32.57 33.66 32.57 33.66 33.39"/>
        <polygon class="cls-118" points="33.66 33.41 28.99 33.03 28.99 33.01 33.66 33.39 33.66 33.41"/>
        <polygon class="cls-162" points="33.66 33.44 28.99 33.05 28.99 33.03 33.66 33.41 33.66 33.44"/>
        <polygon class="cls-155" points="33.66 33.46 28.99 33.07 28.99 33.05 33.66 33.44 33.66 33.46"/>
        <polygon class="cls-81" points="33.66 33.48 28.99 33.09 28.99 33.07 33.66 33.46 33.66 33.48"/>
        <polygon class="cls-13" points="33.66 33.5 28.99 33.11 28.99 33.09 33.66 33.48 33.66 33.5"/>
        <polygon class="cls-132" points="33.66 33.52 28.99 33.14 28.99 33.11 33.66 33.5 33.66 33.52"/>
        <polygon class="cls-62" points="33.66 33.54 28.99 33.16 28.99 33.14 33.66 33.52 33.66 33.54"/>
        <polygon class="cls-2" points="33.66 33.56 28.99 33.18 28.99 33.16 33.66 33.54 33.66 33.56"/>
        <polygon class="cls-12" points="33.66 33.59 28.99 33.2 28.99 33.18 33.66 33.56 33.66 33.59"/>
        <polygon class="cls-67" points="33.66 33.61 28.99 33.22 28.99 33.2 33.66 33.59 33.66 33.61"/>
        <polygon class="cls-47" points="33.66 33.63 28.99 33.24 28.99 33.22 33.66 33.61 33.66 33.63"/>
        <polygon class="cls-60" points="33.66 33.65 28.99 33.26 28.99 33.24 33.66 33.63 33.66 33.65"/>
        <polygon class="cls-107" points="33.66 33.67 28.99 33.29 28.99 33.26 33.66 33.65 33.66 33.67"/>
        <polygon class="cls-143" points="33.66 33.69 28.99 33.31 28.99 33.29 33.66 33.67 33.66 33.69"/>
        <polygon class="cls-140" points="33.66 33.71 28.99 33.33 28.99 33.31 33.66 33.69 33.66 33.71"/>
        <polygon class="cls-61" points="33.66 33.74 28.99 33.35 28.99 33.33 33.66 33.71 33.66 33.74"/>
        <polygon class="cls-48" points="33.66 33.76 28.99 33.37 28.99 33.35 33.66 33.74 33.66 33.76"/>
        <polygon class="cls-154" points="33.66 33.78 28.99 33.39 28.99 33.37 33.66 33.76 33.66 33.78"/>
        <polygon class="cls-146" points="33.66 33.8 28.99 33.42 28.99 33.39 33.66 33.78 33.66 33.8"/>
        <polygon class="cls-117" points="33.66 33.82 28.99 33.44 28.99 33.42 33.66 33.8 33.66 33.82"/>
        <polygon class="cls-141" points="33.66 33.84 28.99 33.46 28.99 33.44 33.66 33.82 33.66 33.84"/>
        <polygon class="cls-121" points="33.66 33.87 28.99 33.48 28.99 33.46 33.66 33.84 33.66 33.87"/>
        <polygon class="cls-16" points="33.66 33.89 28.99 33.5 28.99 33.48 33.66 33.87 33.66 33.89"/>
        <polygon class="cls-152" points="33.66 33.91 28.99 33.52 28.99 33.5 33.66 33.89 33.66 33.91"/>
        <polygon class="cls-17" points="33.66 33.93 28.99 33.54 28.99 33.52 33.66 33.91 33.66 33.93"/>
        <polygon class="cls-105" points="33.66 33.95 28.99 33.57 28.99 33.54 33.66 33.93 33.66 33.95"/>
        <polygon class="cls-25" points="33.66 33.97 28.99 33.59 28.99 33.57 33.66 33.95 33.66 33.97"/>
        <polygon class="cls-38" points="33.66 33.99 28.99 33.61 28.99 33.59 33.66 33.97 33.66 33.99"/>
        <polygon class="cls-156" points="33.66 34.02 28.99 33.63 28.99 33.61 33.66 33.99 33.66 34.02"/>
        <polygon class="cls-112" points="33.66 34.04 28.99 33.65 28.99 33.63 33.66 34.02 33.66 34.04"/>
        <polygon class="cls-104" points="33.66 34.06 28.99 33.67 28.99 33.65 33.66 34.04 33.66 34.06"/>
        <polygon class="cls-102" points="33.66 34.08 28.99 33.69 28.99 33.67 33.66 34.06 33.66 34.08"/>
        <polygon class="cls-98" points="33.66 34.1 28.99 33.72 28.99 33.69 33.66 34.08 33.66 34.1"/>
        <polygon class="cls-73" points="33.66 34.12 28.99 33.74 28.99 33.72 33.66 34.1 33.66 34.12"/>
        <polygon class="cls-6" points="33.66 34.14 28.99 33.76 28.99 33.74 33.66 34.12 33.66 34.14"/>
        <polygon class="cls-110" points="33.66 34.17 28.99 33.78 28.99 33.76 33.66 34.14 33.66 34.17"/>
        <polygon class="cls-119" points="33.66 34.19 28.99 33.8 28.99 33.78 33.66 34.17 33.66 34.19"/>
        <polygon class="cls-108" points="33.66 34.21 28.99 33.82 28.99 33.8 33.66 34.19 33.66 34.21"/>
        <polygon class="cls-148" points="33.66 34.23 28.99 33.85 28.99 33.82 33.66 34.21 33.66 34.23"/>
        <polygon class="cls-70" points="33.66 34.25 28.99 33.87 28.99 33.85 33.66 34.23 33.66 34.25"/>
        <polygon class="cls-96" points="33.66 34.27 28.99 33.89 28.99 33.87 33.66 34.25 33.66 34.27"/>
        <polygon class="cls-75" points="33.66 34.3 28.99 33.91 28.99 33.89 33.66 34.27 33.66 34.3"/>
        <polygon class="cls-124" points="33.66 34.32 28.99 33.93 28.99 33.91 33.66 34.3 33.66 34.32"/>
        <polygon class="cls-128" points="33.66 34.34 28.99 33.95 28.99 33.93 33.66 34.32 33.66 34.34"/>
        <polygon class="cls-99" points="33.66 34.36 28.99 33.97 28.99 33.95 33.66 34.34 33.66 34.36"/>
        <polygon class="cls-172" points="33.66 34.38 28.99 34 28.99 33.97 33.66 34.36 33.66 34.38"/>
        <polygon class="cls-22" points="33.66 34.4 28.99 34.02 28.99 34 33.66 34.38 33.66 34.4"/>
        <polygon class="cls-63" points="33.66 34.42 28.99 34.04 28.99 34.02 33.66 34.4 33.66 34.42"/>
        <polygon class="cls-32" points="33.66 34.45 28.99 34.06 28.99 34.04 33.66 34.42 33.66 34.45"/>
        <polygon class="cls-64" points="33.66 34.47 28.99 34.08 28.99 34.06 33.66 34.45 33.66 34.47"/>
        <polygon class="cls-150" points="33.66 34.49 28.99 34.1 28.99 34.08 33.66 34.47 33.66 34.49"/>
        <polygon class="cls-27" points="33.66 34.51 28.99 34.12 28.99 34.1 33.66 34.49 33.66 34.51"/>
        <polygon class="cls-52" points="33.66 34.53 28.99 34.15 28.99 34.12 33.66 34.51 33.66 34.53"/>
        <polygon class="cls-137" points="33.66 34.55 28.99 34.17 28.99 34.15 33.66 34.53 33.66 34.55"/>
        <polygon class="cls-159" points="33.66 34.57 28.99 34.19 28.99 34.17 33.66 34.55 33.66 34.57"/>
        <polygon class="cls-116" points="33.66 34.6 28.99 34.21 28.99 34.19 33.66 34.57 33.66 34.6"/>
        <polygon class="cls-97" points="33.66 34.62 28.99 34.23 28.99 34.21 33.66 34.6 33.66 34.62"/>
        <polygon class="cls-78" points="33.66 34.64 28.99 34.25 28.99 34.23 33.66 34.62 33.66 34.64"/>
        <polygon class="cls-167" points="33.66 34.66 28.99 34.28 28.99 34.25 33.66 34.64 33.66 34.66"/>
        <polygon class="cls-127" points="33.66 34.68 28.99 34.3 28.99 34.28 33.66 34.66 33.66 34.68"/>
        <polygon class="cls-157" points="33.66 34.7 28.99 34.32 28.99 34.3 33.66 34.68 33.66 34.7"/>
        <polygon class="cls-40" points="33.66 34.73 28.99 34.34 28.99 34.32 33.66 34.7 33.66 34.73"/>
        <polygon class="cls-173" points="33.66 34.75 28.99 34.36 28.99 34.34 33.66 34.73 33.66 34.75"/>
        <polygon class="cls-21" points="33.66 34.77 28.99 34.38 28.99 34.36 33.66 34.75 33.66 34.77"/>
        <polygon class="cls-139" points="33.66 34.79 28.99 34.4 28.99 34.38 33.66 34.77 33.66 34.79"/>
        <polygon class="cls-66" points="33.66 34.81 28.99 34.43 28.99 34.4 33.66 34.79 33.66 34.81"/>
        <polygon class="cls-91" points="33.66 34.83 28.99 34.45 28.99 34.43 33.66 34.81 33.66 34.83"/>
        <polygon class="cls-151" points="33.66 34.85 28.99 34.47 28.99 34.45 33.66 34.83 33.66 34.85"/>
        <polygon class="cls-43" points="33.66 34.88 28.99 34.49 28.99 34.47 33.66 34.85 33.66 34.88"/>
        <polygon class="cls-46" points="33.66 34.9 28.99 34.51 28.99 34.49 33.66 34.88 33.66 34.9"/>
        <polygon class="cls-130" points="33.66 34.92 28.99 34.53 28.99 34.51 33.66 34.9 33.66 34.92"/>
        <polygon class="cls-59" points="33.66 34.94 28.99 34.56 28.99 34.53 33.66 34.92 33.66 34.94"/>
        <polygon class="cls-10" points="33.66 34.96 28.99 34.58 28.99 34.56 33.66 34.94 33.66 34.96"/>
        <polygon class="cls-129" points="33.66 34.98 28.99 34.6 28.99 34.58 33.66 34.96 33.66 34.98"/>
        <polygon class="cls-49" points="33.66 35 28.99 34.62 28.99 34.6 33.66 34.98 33.66 35"/>
        <polygon class="cls-113" points="33.66 35.03 28.99 34.64 28.99 34.62 33.66 35 33.66 35.03"/>
        <polygon class="cls-138" points="33.66 35.05 28.99 34.66 28.99 34.64 33.66 35.03 33.66 35.05"/>
        <polygon class="cls-100" points="33.66 35.07 28.99 34.68 28.99 34.66 33.66 35.05 33.66 35.07"/>
        <polygon class="cls-84" points="33.66 35.09 28.99 34.71 28.99 34.68 33.66 35.07 33.66 35.09"/>
        <polygon class="cls-87" points="33.66 35.11 28.99 34.73 28.99 34.71 33.66 35.09 33.66 35.11"/>
        <polygon class="cls-90" points="33.66 35.13 28.99 34.75 28.99 34.73 33.66 35.11 33.66 35.13"/>
        <polygon class="cls-144" points="33.66 35.16 28.99 34.77 28.99 34.75 33.66 35.13 33.66 35.16"/>
        <polygon class="cls-56" points="33.66 35.18 28.99 34.79 28.99 34.77 33.66 35.16 33.66 35.18"/>
        <polygon class="cls-69" points="33.66 35.2 28.99 34.81 28.99 34.79 33.66 35.18 33.66 35.2"/>
        <polygon class="cls-15" points="33.66 35.22 28.99 34.83 28.99 34.81 33.66 35.2 33.66 35.22"/>
        <polygon class="cls-80" points="33.66 35.24 28.99 34.86 28.99 34.83 33.66 35.22 33.66 35.24"/>
        <polygon class="cls-80" points="33.66 35.26 28.99 34.88 28.99 34.86 33.66 35.24 33.66 35.26"/>
        <polygon class="cls-92" points="33.66 35.28 28.99 34.9 28.99 34.88 33.66 35.26 33.66 35.28"/>
        <polygon class="cls-26" points="33.66 35.31 28.99 34.92 28.99 34.9 33.66 35.28 33.66 35.31"/>
        <polygon class="cls-26" points="33.66 35.33 28.99 34.94 28.99 34.92 33.66 35.31 33.66 35.33"/>
        <polygon class="cls-163" points="33.66 35.35 28.99 34.96 28.99 34.94 33.66 35.33 33.66 35.35"/>
        <polygon class="cls-71" points="33.66 35.37 28.99 34.99 28.99 34.96 33.66 35.35 33.66 35.37"/>
        <polygon class="cls-158" points="33.66 35.39 28.99 35.01 28.99 34.99 33.66 35.37 33.66 35.39"/>
        <polygon class="cls-77" points="33.66 35.41 28.99 35.03 28.99 35.01 33.66 35.39 33.66 35.41"/>
        <polygon class="cls-34" points="33.66 35.44 28.99 35.05 28.99 35.03 33.66 35.41 33.66 35.44"/>
        <polygon class="cls-131" points="33.66 35.46 28.99 35.07 28.99 35.05 33.66 35.44 33.66 35.46"/>
        <polygon class="cls-171" points="33.66 35.48 28.99 35.09 28.99 35.07 33.66 35.46 33.66 35.48"/>
        <polygon class="cls-72" points="33.66 35.5 28.99 35.11 28.99 35.09 33.66 35.48 33.66 35.5"/>
        <polygon class="cls-37" points="33.66 35.52 28.99 35.14 28.99 35.11 33.66 35.5 33.66 35.52"/>
        <polygon class="cls-20" points="33.66 35.54 28.99 35.16 28.99 35.14 33.66 35.52 33.66 35.54"/>
        <polygon class="cls-33" points="33.66 35.56 28.99 35.18 28.99 35.16 33.66 35.54 33.66 35.56"/>
        <polygon class="cls-122" points="33.66 35.59 28.99 35.2 28.99 35.18 33.66 35.56 33.66 35.59"/>
        <polygon class="cls-86" points="33.66 35.61 28.99 35.22 28.99 35.2 33.66 35.59 33.66 35.61"/>
        <polygon class="cls-165" points="33.66 35.63 28.99 35.24 28.99 35.22 33.66 35.61 33.66 35.63"/>
        <polygon class="cls-31" points="33.66 35.65 28.99 35.26 28.99 35.24 33.66 35.63 33.66 35.65"/>
        <polygon class="cls-115" points="33.66 35.67 28.99 35.29 28.99 35.26 33.66 35.65 33.66 35.67"/>
        <polygon class="cls-106" points="33.66 35.69 28.99 35.31 28.99 35.29 33.66 35.67 33.66 35.69"/>
        <polygon class="cls-8" points="33.66 35.71 28.99 35.33 28.99 35.31 33.66 35.69 33.66 35.71"/>
        <polygon class="cls-134" points="33.66 35.74 28.99 35.35 28.99 35.33 33.66 35.71 33.66 35.74"/>
        <polygon class="cls-134" points="33.66 35.76 28.99 35.37 28.99 35.35 33.66 35.74 33.66 35.76"/>
        <polygon class="cls-28" points="33.66 35.78 28.99 35.39 28.99 35.37 33.66 35.76 33.66 35.78"/>
        <polygon class="cls-18" points="33.66 35.8 28.99 35.42 28.99 35.39 33.66 35.78 33.66 35.8"/>
        <polygon class="cls-120" points="33.66 35.82 28.99 35.44 28.99 35.42 33.66 35.8 33.66 35.82"/>
        <polygon class="cls-89" points="33.66 35.84 28.99 35.46 28.99 35.44 33.66 35.82 33.66 35.84"/>
        <polygon class="cls-123" points="33.66 35.87 28.99 35.48 28.99 35.46 33.66 35.84 33.66 35.87"/>
        <polygon class="cls-123" points="33.66 35.89 28.99 35.5 28.99 35.48 33.66 35.87 33.66 35.89"/>
        <polygon class="cls-55" points="33.66 35.91 28.99 35.52 28.99 35.5 33.66 35.89 33.66 35.91"/>
        <polygon class="cls-55" points="33.66 35.93 28.99 35.54 28.99 35.52 33.66 35.91 33.66 35.93"/>
        <polygon class="cls-53" points="33.66 35.95 28.99 35.57 28.99 35.54 33.66 35.93 33.66 35.95"/>
        <polygon class="cls-164" points="33.66 35.97 28.99 35.59 28.99 35.57 33.66 35.95 33.66 35.97"/>
        <polygon class="cls-164" points="33.66 35.99 28.99 35.61 28.99 35.59 33.66 35.97 33.66 35.99"/>
        <polygon class="cls-9" points="33.66 36.02 28.99 35.63 28.99 35.61 33.66 35.99 33.66 36.02"/>
        <polygon class="cls-68" points="33.66 36.04 28.99 35.65 28.99 35.63 33.66 36.02 33.66 36.04"/>
        <polygon class="cls-149" points="33.66 36.06 28.99 35.67 28.99 35.65 33.66 36.04 33.66 36.06"/>
        <polygon class="cls-57" points="33.66 36.08 28.99 35.7 28.99 35.67 33.66 36.06 33.66 36.08"/>
        <polygon class="cls-168" points="33.66 36.1 28.99 35.72 28.99 35.7 33.66 36.08 33.66 36.1"/>
        <polygon class="cls-109" points="33.66 36.12 28.99 35.74 28.99 35.72 33.66 36.1 33.66 36.12"/>
        <polygon class="cls-109" points="33.66 36.14 28.99 35.76 28.99 35.74 33.66 36.12 33.66 36.14"/>
        <polygon class="cls-3" points="33.66 36.17 28.99 35.78 28.99 35.76 33.66 36.14 33.66 36.17"/>
        <polygon class="cls-50" points="33.66 36.19 28.99 35.8 28.99 35.78 33.66 36.17 33.66 36.19"/>
        <polygon class="cls-153" points="33.66 36.21 28.99 35.82 28.99 35.8 33.66 36.19 33.66 36.21"/>
        <polygon class="cls-153" points="33.66 36.23 28.99 35.85 28.99 35.82 33.66 36.21 33.66 36.23"/>
        <polygon class="cls-83" points="33.66 36.25 28.99 35.87 28.99 35.85 33.66 36.23 33.66 36.25"/>
        <polygon class="cls-45" points="33.66 36.27 28.99 35.89 28.99 35.87 33.66 36.25 33.66 36.27"/>
        <polygon class="cls-45" points="33.66 36.3 28.99 35.91 28.99 35.89 33.66 36.27 33.66 36.3"/>
        <polygon class="cls-94" points="33.66 36.32 28.99 35.93 28.99 35.91 33.66 36.3 33.66 36.32"/>
        <polygon class="cls-94" points="33.66 36.34 28.99 35.95 28.99 35.93 33.66 36.32 33.66 36.34"/>
        <polygon class="cls-103" points="33.66 36.36 28.99 35.97 28.99 35.95 33.66 36.34 33.66 36.36"/>
        <polygon class="cls-14" points="33.66 36.38 28.99 36 28.99 35.97 33.66 36.36 33.66 36.38"/>
        <polygon class="cls-101" points="33.66 36.4 28.99 36.02 28.99 36 33.66 36.38 33.66 36.4"/>
        <polygon class="cls-101" points="33.66 36.42 28.99 36.04 28.99 36.02 33.66 36.4 33.66 36.42"/>
        <polygon class="cls-41" points="33.66 36.45 28.99 36.06 28.99 36.04 33.66 36.42 33.66 36.45"/>
        <polygon class="cls-169" points="33.66 36.47 28.99 36.08 28.99 36.06 33.66 36.45 33.66 36.47"/>
        <polygon class="cls-169" points="33.66 36.49 28.99 36.1 28.99 36.08 33.66 36.47 33.66 36.49"/>
        <polygon class="cls-111" points="33.66 36.51 28.99 36.13 28.99 36.1 33.66 36.49 33.66 36.51"/>
        <polygon class="cls-54" points="33.66 36.53 28.99 36.15 28.99 36.13 33.66 36.51 33.66 36.53"/>
        <polygon class="cls-30" points="33.66 36.55 28.99 36.17 28.99 36.15 33.66 36.53 33.66 36.55"/>
        <polygon class="cls-23" points="33.66 36.57 28.99 36.19 28.99 36.17 33.66 36.55 33.66 36.57"/>
        <polygon class="cls-23" points="33.66 36.6 28.99 36.21 28.99 36.19 33.66 36.57 33.66 36.6"/>
        <polygon class="cls-161" points="33.66 36.62 28.99 36.23 28.99 36.21 33.66 36.6 33.66 36.62"/>
        <polygon class="cls-125" points="33.66 36.64 28.99 36.25 28.99 36.23 33.66 36.62 33.66 36.64"/>
        <polygon class="cls-125" points="33.66 36.66 28.99 36.28 28.99 36.25 33.66 36.64 33.66 36.66"/>
        <polygon class="cls-125" points="33.66 36.68 28.99 36.3 28.99 36.28 33.66 36.66 33.66 36.68"/>
        <polygon class="cls-88" points="33.66 36.7 28.99 36.32 28.99 36.3 33.66 36.68 33.66 36.7"/>
        <polygon class="cls-88" points="33.66 36.73 28.99 36.34 28.99 36.32 33.66 36.7 33.66 36.73"/>
        <polygon class="cls-76" points="33.66 36.75 28.99 36.36 28.99 36.34 33.66 36.73 33.66 36.75"/>
        <polygon class="cls-76" points="33.66 36.77 28.99 36.38 28.99 36.36 33.66 36.75 33.66 36.77"/>
        <polygon class="cls-135" points="33.66 36.79 28.99 36.4 28.99 36.38 33.66 36.77 33.66 36.79"/>
        <polygon class="cls-4" points="33.66 36.81 28.99 36.43 28.99 36.4 33.66 36.79 33.66 36.81"/>
        <polygon class="cls-4" points="33.66 36.83 28.99 36.45 28.99 36.43 33.66 36.81 33.66 36.83"/>
        <polygon class="cls-44" points="33.66 36.85 28.99 36.47 28.99 36.45 33.66 36.83 33.66 36.85"/>
        <polygon class="cls-58" points="33.66 36.88 28.99 36.49 28.99 36.47 33.66 36.85 33.66 36.88"/>
        <polygon class="cls-82" points="33.66 36.9 28.99 36.51 28.99 36.49 33.66 36.88 33.66 36.9"/>
        <polygon class="cls-82" points="33.66 36.92 28.99 36.53 28.99 36.51 33.66 36.9 33.66 36.92"/>
        <polygon class="cls-82" points="33.66 36.94 28.99 36.56 28.99 36.53 33.66 36.92 33.66 36.94"/>
        <polygon class="cls-170" points="33.66 36.96 28.99 36.58 28.99 36.56 33.66 36.94 33.66 36.96"/>
        <polygon class="cls-11" points="33.66 36.98 28.99 36.6 28.99 36.58 33.66 36.96 33.66 36.98"/>
        <polygon class="cls-11" points="33.66 37 28.99 36.62 28.99 36.6 33.66 36.98 33.66 37"/>
        <polygon class="cls-166" points="33.66 37.03 28.99 36.64 28.99 36.62 33.66 37 33.66 37.03"/>
        <polygon class="cls-133" points="33.66 37.05 28.99 36.66 28.99 36.64 33.66 37.03 33.66 37.05"/>
        <polygon class="cls-133" points="33.66 37.07 28.99 36.68 28.99 36.66 33.66 37.05 33.66 37.07"/>
        <polygon class="cls-133" points="33.66 37.09 28.99 36.71 28.99 36.68 33.66 37.07 33.66 37.09"/>
        <polygon class="cls-133" points="33.66 37.11 28.99 36.73 28.99 36.71 33.66 37.09 33.66 37.11"/>
        <polygon class="cls-39" points="33.66 37.13 28.99 36.75 28.99 36.73 33.66 37.11 33.66 37.13"/>
        <polygon class="cls-95" points="33.66 37.16 28.99 36.77 28.99 36.75 33.66 37.13 33.66 37.16"/>
        <polygon class="cls-19" points="33.6 37.17 28.99 36.79 28.99 36.77 33.66 37.16 33.66 37.17 33.6 37.17"/>
        <polygon class="cls-19" points="33.34 37.17 28.99 36.81 28.99 36.79 33.6 37.17 33.34 37.17"/>
        <polygon class="cls-19" points="33.08 37.17 28.99 36.83 28.99 36.81 33.34 37.17 33.08 37.17"/>
        <polygon class="cls-19" points="32.82 37.17 28.99 36.86 28.99 36.83 33.08 37.17 32.82 37.17"/>
        <polygon class="cls-19" points="32.56 37.17 28.99 36.88 28.99 36.86 32.82 37.17 32.56 37.17"/>
        <polygon class="cls-19" points="32.3 37.17 28.99 36.9 28.99 36.88 32.56 37.17 32.3 37.17"/>
        <polygon class="cls-65" points="32.04 37.17 28.99 36.92 28.99 36.9 32.3 37.17 32.04 37.17"/>
        <polygon class="cls-145" points="31.78 37.17 28.99 36.94 28.99 36.92 32.04 37.17 31.78 37.17"/>
        <polygon class="cls-145" points="31.52 37.17 28.99 36.96 28.99 36.94 31.78 37.17 31.52 37.17"/>
        <polygon class="cls-145" points="31.25 37.17 28.99 36.99 28.99 36.96 31.52 37.17 31.25 37.17"/>
        <polygon class="cls-145" points="30.99 37.17 28.99 37.01 28.99 36.99 31.25 37.17 30.99 37.17"/>
        <polygon class="cls-145" points="30.73 37.17 28.99 37.03 28.99 37.01 30.99 37.17 30.73 37.17"/>
        <polygon class="cls-145" points="30.47 37.17 28.99 37.05 28.99 37.03 30.73 37.17 30.47 37.17"/>
        <polygon class="cls-145" points="30.21 37.17 28.99 37.07 28.99 37.05 30.47 37.17 30.21 37.17"/>
        <polygon class="cls-35" points="29.95 37.17 28.99 37.09 28.99 37.07 30.21 37.17 29.95 37.17"/>
        <polygon class="cls-35" points="29.69 37.17 28.99 37.11 28.99 37.09 29.95 37.17 29.69 37.17"/>
        <polygon class="cls-51" points="29.43 37.17 28.99 37.14 28.99 37.11 29.69 37.17 29.43 37.17"/>
        <polygon class="cls-51" points="29.17 37.17 28.99 37.16 28.99 37.14 29.43 37.17 29.17 37.17"/>
        <polygon class="cls-51" points="28.99 37.16 29.17 37.17 28.99 37.17 28.99 37.16"/>
      </g>
      <path class="cls-42" d="M31.22,36.38c-.66-.05-1.16-.71-1.1-1.44.06-.72.67-1.29,1.32-1.24.66.05,1.16.71,1.1,1.44-.06.72-.67,1.29-1.32,1.24Z"/>
      <path class="cls-126" d="M31.27,36.12c-.46-.04-.93-.54-.88-1.15.05-.62.6-1.03,1.06-1,.46.04.93.54.88,1.15-.05.62-.6,1.03-1.06.99Z"/>
      <g class="cls-114">
        <path class="cls-147" d="M34.95,37.96s-.05,0-.17.04c-.08-1.33-.34-3.16-1.09-3.53-1.12-.57-3.63-1.39-6.86.59-.32-.58-.49-1.02-.49-1.02,3.52-2.51,6.28-1.61,7.47-1.01,1.21.6,1.14,4.93,1.14,4.93Z"/>
      </g>
      <path class="cls-93" d="M30.9,34.6c-.02.22-.25.38-.51.36-.26-.02-.46-.22-.44-.44.02-.22.25-.39.51-.36.26.02.46.22.45.44Z"/>
      <path class="cls-93" d="M32.38,35.89c0,.11-.12.19-.26.18-.13-.01-.23-.11-.22-.22,0-.11.12-.19.26-.18.13.01.23.11.22.22Z"/>
      <path class="cls-174" d="M42.07,31.76s.39-.6,1.19-1.2c.4-.31.9-.63,1.49-.88.59-.24,1.24-.43,1.91-.52.67-.08,1.35-.03,1.97.05.61.12,1.17.29,1.61.49.46.16.8.41,1.04.54.24.15.37.23.37.23,0,0-.16-.04-.43-.1-.27-.07-.65-.18-1.11-.25-.23-.03-.47-.1-.74-.12-.26-.02-.54-.04-.82-.06-.57,0-1.17.03-1.75.16-.58.1-1.15.28-1.65.51-.5.24-.97.47-1.33.73-.75.5-1.16.91-1.16.91-.15.15-.4.15-.55,0-.13-.13-.15-.34-.05-.49h0Z"/>
      <path class="cls-93" d="M52.07,34.06s-1.5,3.72-3.82,4.09c-2.32.36-4.8-.17-4.8-.17,0,0-.06-4.33,1.14-4.92,1.21-.6,3.96-1.5,7.47,1Z"/>
      <g class="cls-114">
        <path class="cls-147" d="M43.45,37.96s.05,0,.17.04c.08-1.33.34-3.16,1.09-3.53,1.12-.57,3.63-1.39,6.86.59.32-.58.49-1.02.49-1.02-3.52-2.51-6.28-1.61-7.47-1.01-1.21.6-1.15,4.93-1.15,4.93Z"/>
      </g>
      <g class="cls-74">
        <polygon class="cls-118" points="49.42 33.27 44.76 32.88 44.76 32.45 49.42 32.45 49.42 33.27"/>
        <polygon class="cls-118" points="49.42 33.29 44.76 32.9 44.76 32.88 49.42 33.27 49.42 33.29"/>
        <polygon class="cls-162" points="49.42 33.31 44.76 32.93 44.76 32.9 49.42 33.29 49.42 33.31"/>
        <polygon class="cls-155" points="49.42 33.33 44.76 32.95 44.76 32.93 49.42 33.31 49.42 33.33"/>
        <polygon class="cls-81" points="49.42 33.35 44.76 32.97 44.76 32.95 49.42 33.33 49.42 33.35"/>
        <polygon class="cls-13" points="49.42 33.38 44.76 32.99 44.76 32.97 49.42 33.35 49.42 33.38"/>
        <polygon class="cls-132" points="49.42 33.4 44.76 33.01 44.76 32.99 49.42 33.38 49.42 33.4"/>
        <polygon class="cls-62" points="49.42 33.42 44.76 33.03 44.76 33.01 49.42 33.4 49.42 33.42"/>
        <polygon class="cls-2" points="49.42 33.44 44.76 33.05 44.76 33.03 49.42 33.42 49.42 33.44"/>
        <polygon class="cls-12" points="49.42 33.46 44.76 33.08 44.76 33.05 49.42 33.44 49.42 33.46"/>
        <polygon class="cls-67" points="49.42 33.48 44.76 33.1 44.76 33.08 49.42 33.46 49.42 33.48"/>
        <polygon class="cls-47" points="49.42 33.5 44.76 33.12 44.76 33.1 49.42 33.48 49.42 33.5"/>
        <polygon class="cls-60" points="49.42 33.53 44.76 33.14 44.76 33.12 49.42 33.5 49.42 33.53"/>
        <polygon class="cls-107" points="49.42 33.55 44.76 33.16 44.76 33.14 49.42 33.53 49.42 33.55"/>
        <polygon class="cls-143" points="49.42 33.57 44.76 33.18 44.76 33.16 49.42 33.55 49.42 33.57"/>
        <polygon class="cls-140" points="49.42 33.59 44.76 33.21 44.76 33.18 49.42 33.57 49.42 33.59"/>
        <polygon class="cls-61" points="49.42 33.61 44.76 33.23 44.76 33.21 49.42 33.59 49.42 33.61"/>
        <polygon class="cls-48" points="49.42 33.63 44.76 33.25 44.76 33.23 49.42 33.61 49.42 33.63"/>
        <polygon class="cls-154" points="49.42 33.66 44.76 33.27 44.76 33.25 49.42 33.63 49.42 33.66"/>
        <polygon class="cls-146" points="49.42 33.68 44.76 33.29 44.76 33.27 49.42 33.66 49.42 33.68"/>
        <polygon class="cls-117" points="49.42 33.7 44.76 33.31 44.76 33.29 49.42 33.68 49.42 33.7"/>
        <polygon class="cls-141" points="49.42 33.72 44.76 33.33 44.76 33.31 49.42 33.7 49.42 33.72"/>
        <polygon class="cls-121" points="49.42 33.74 44.76 33.36 44.76 33.33 49.42 33.72 49.42 33.74"/>
        <polygon class="cls-16" points="49.42 33.76 44.76 33.38 44.76 33.36 49.42 33.74 49.42 33.76"/>
        <polygon class="cls-152" points="49.42 33.78 44.76 33.4 44.76 33.38 49.42 33.76 49.42 33.78"/>
        <polygon class="cls-17" points="49.42 33.81 44.76 33.42 44.76 33.4 49.42 33.78 49.42 33.81"/>
        <polygon class="cls-105" points="49.42 33.83 44.76 33.44 44.76 33.42 49.42 33.81 49.42 33.83"/>
        <polygon class="cls-25" points="49.42 33.85 44.76 33.46 44.76 33.44 49.42 33.83 49.42 33.85"/>
        <polygon class="cls-38" points="49.42 33.87 44.76 33.49 44.76 33.46 49.42 33.85 49.42 33.87"/>
        <polygon class="cls-156" points="49.42 33.89 44.76 33.51 44.76 33.49 49.42 33.87 49.42 33.89"/>
        <polygon class="cls-112" points="49.42 33.91 44.76 33.53 44.76 33.51 49.42 33.89 49.42 33.91"/>
        <polygon class="cls-104" points="49.42 33.93 44.76 33.55 44.76 33.53 49.42 33.91 49.42 33.93"/>
        <polygon class="cls-102" points="49.42 33.96 44.76 33.57 44.76 33.55 49.42 33.93 49.42 33.96"/>
        <polygon class="cls-98" points="49.42 33.98 44.76 33.59 44.76 33.57 49.42 33.96 49.42 33.98"/>
        <polygon class="cls-73" points="49.42 34 44.76 33.61 44.76 33.59 49.42 33.98 49.42 34"/>
        <polygon class="cls-6" points="49.42 34.02 44.76 33.64 44.76 33.61 49.42 34 49.42 34.02"/>
        <polygon class="cls-110" points="49.42 34.04 44.76 33.66 44.76 33.64 49.42 34.02 49.42 34.04"/>
        <polygon class="cls-119" points="49.42 34.06 44.76 33.68 44.76 33.66 49.42 34.04 49.42 34.06"/>
        <polygon class="cls-108" points="49.42 34.09 44.76 33.7 44.76 33.68 49.42 34.06 49.42 34.09"/>
        <polygon class="cls-148" points="49.42 34.11 44.76 33.72 44.76 33.7 49.42 34.09 49.42 34.11"/>
        <polygon class="cls-70" points="49.42 34.13 44.76 33.74 44.76 33.72 49.42 34.11 49.42 34.13"/>
        <polygon class="cls-96" points="49.42 34.15 44.76 33.76 44.76 33.74 49.42 34.13 49.42 34.15"/>
        <polygon class="cls-75" points="49.42 34.17 44.76 33.79 44.76 33.76 49.42 34.15 49.42 34.17"/>
        <polygon class="cls-124" points="49.42 34.19 44.76 33.81 44.76 33.79 49.42 34.17 49.42 34.19"/>
        <polygon class="cls-128" points="49.42 34.21 44.76 33.83 44.76 33.81 49.42 34.19 49.42 34.21"/>
        <polygon class="cls-99" points="49.42 34.24 44.76 33.85 44.76 33.83 49.42 34.21 49.42 34.24"/>
        <polygon class="cls-172" points="49.42 34.26 44.76 33.87 44.76 33.85 49.42 34.24 49.42 34.26"/>
        <polygon class="cls-22" points="49.42 34.28 44.76 33.89 44.76 33.87 49.42 34.26 49.42 34.28"/>
        <polygon class="cls-63" points="49.42 34.3 44.76 33.92 44.76 33.89 49.42 34.28 49.42 34.3"/>
        <polygon class="cls-32" points="49.42 34.32 44.76 33.94 44.76 33.92 49.42 34.3 49.42 34.32"/>
        <polygon class="cls-64" points="49.42 34.34 44.76 33.96 44.76 33.94 49.42 34.32 49.42 34.34"/>
        <polygon class="cls-150" points="49.42 34.36 44.76 33.98 44.76 33.96 49.42 34.34 49.42 34.36"/>
        <polygon class="cls-27" points="49.42 34.39 44.76 34 44.76 33.98 49.42 34.36 49.42 34.39"/>
        <polygon class="cls-52" points="49.42 34.41 44.76 34.02 44.76 34 49.42 34.39 49.42 34.41"/>
        <polygon class="cls-137" points="49.42 34.43 44.76 34.04 44.76 34.02 49.42 34.41 49.42 34.43"/>
        <polygon class="cls-159" points="49.42 34.45 44.76 34.07 44.76 34.04 49.42 34.43 49.42 34.45"/>
        <polygon class="cls-116" points="49.42 34.47 44.76 34.09 44.76 34.07 49.42 34.45 49.42 34.47"/>
        <polygon class="cls-97" points="49.42 34.49 44.76 34.11 44.76 34.09 49.42 34.47 49.42 34.49"/>
        <polygon class="cls-78" points="49.42 34.52 44.76 34.13 44.76 34.11 49.42 34.49 49.42 34.52"/>
        <polygon class="cls-167" points="49.42 34.54 44.76 34.15 44.76 34.13 49.42 34.52 49.42 34.54"/>
        <polygon class="cls-127" points="49.42 34.56 44.76 34.17 44.76 34.15 49.42 34.54 49.42 34.56"/>
        <polygon class="cls-157" points="49.42 34.58 44.76 34.19 44.76 34.17 49.42 34.56 49.42 34.58"/>
        <polygon class="cls-40" points="49.42 34.6 44.76 34.22 44.76 34.19 49.42 34.58 49.42 34.6"/>
        <polygon class="cls-173" points="49.42 34.62 44.76 34.24 44.76 34.22 49.42 34.6 49.42 34.62"/>
        <polygon class="cls-21" points="49.42 34.64 44.76 34.26 44.76 34.24 49.42 34.62 49.42 34.64"/>
        <polygon class="cls-139" points="49.42 34.67 44.76 34.28 44.76 34.26 49.42 34.64 49.42 34.67"/>
        <polygon class="cls-66" points="49.42 34.69 44.76 34.3 44.76 34.28 49.42 34.67 49.42 34.69"/>
        <polygon class="cls-91" points="49.42 34.71 44.76 34.32 44.76 34.3 49.42 34.69 49.42 34.71"/>
        <polygon class="cls-151" points="49.42 34.73 44.76 34.35 44.76 34.32 49.42 34.71 49.42 34.73"/>
        <polygon class="cls-43" points="49.42 34.75 44.76 34.37 44.76 34.35 49.42 34.73 49.42 34.75"/>
        <polygon class="cls-46" points="49.42 34.77 44.76 34.39 44.76 34.37 49.42 34.75 49.42 34.77"/>
        <polygon class="cls-130" points="49.42 34.8 44.76 34.41 44.76 34.39 49.42 34.77 49.42 34.8"/>
        <polygon class="cls-59" points="49.42 34.82 44.76 34.43 44.76 34.41 49.42 34.8 49.42 34.82"/>
        <polygon class="cls-10" points="49.42 34.84 44.76 34.45 44.76 34.43 49.42 34.82 49.42 34.84"/>
        <polygon class="cls-129" points="49.42 34.86 44.76 34.47 44.76 34.45 49.42 34.84 49.42 34.86"/>
        <polygon class="cls-49" points="49.42 34.88 44.76 34.5 44.76 34.47 49.42 34.86 49.42 34.88"/>
        <polygon class="cls-113" points="49.42 34.9 44.76 34.52 44.76 34.5 49.42 34.88 49.42 34.9"/>
        <polygon class="cls-138" points="49.42 34.92 44.76 34.54 44.76 34.52 49.42 34.9 49.42 34.92"/>
        <polygon class="cls-100" points="49.42 34.95 44.76 34.56 44.76 34.54 49.42 34.92 49.42 34.95"/>
        <polygon class="cls-84" points="49.42 34.97 44.76 34.58 44.76 34.56 49.42 34.95 49.42 34.97"/>
        <polygon class="cls-87" points="49.42 34.99 44.76 34.6 44.76 34.58 49.42 34.97 49.42 34.99"/>
        <polygon class="cls-90" points="49.42 35.01 44.76 34.62 44.76 34.6 49.42 34.99 49.42 35.01"/>
        <polygon class="cls-144" points="49.42 35.03 44.76 34.65 44.76 34.62 49.42 35.01 49.42 35.03"/>
        <polygon class="cls-56" points="49.42 35.05 44.76 34.67 44.76 34.65 49.42 35.03 49.42 35.05"/>
        <polygon class="cls-69" points="49.42 35.07 44.76 34.69 44.76 34.67 49.42 35.05 49.42 35.07"/>
        <polygon class="cls-15" points="49.42 35.1 44.76 34.71 44.76 34.69 49.42 35.07 49.42 35.1"/>
        <polygon class="cls-80" points="49.42 35.12 44.76 34.73 44.76 34.71 49.42 35.1 49.42 35.12"/>
        <polygon class="cls-80" points="49.42 35.14 44.76 34.75 44.76 34.73 49.42 35.12 49.42 35.14"/>
        <polygon class="cls-92" points="49.42 35.16 44.76 34.78 44.76 34.75 49.42 35.14 49.42 35.16"/>
        <polygon class="cls-26" points="49.42 35.18 44.76 34.8 44.76 34.78 49.42 35.16 49.42 35.18"/>
        <polygon class="cls-26" points="49.42 35.2 44.76 34.82 44.76 34.8 49.42 35.18 49.42 35.2"/>
        <polygon class="cls-163" points="49.42 35.23 44.76 34.84 44.76 34.82 49.42 35.2 49.42 35.23"/>
        <polygon class="cls-71" points="49.42 35.25 44.76 34.86 44.76 34.84 49.42 35.23 49.42 35.25"/>
        <polygon class="cls-158" points="49.42 35.27 44.76 34.88 44.76 34.86 49.42 35.25 49.42 35.27"/>
        <polygon class="cls-77" points="49.42 35.29 44.76 34.9 44.76 34.88 49.42 35.27 49.42 35.29"/>
        <polygon class="cls-34" points="49.42 35.31 44.76 34.93 44.76 34.9 49.42 35.29 49.42 35.31"/>
        <polygon class="cls-131" points="49.42 35.33 44.76 34.95 44.76 34.93 49.42 35.31 49.42 35.33"/>
        <polygon class="cls-171" points="49.42 35.35 44.76 34.97 44.76 34.95 49.42 35.33 49.42 35.35"/>
        <polygon class="cls-72" points="49.42 35.38 44.76 34.99 44.76 34.97 49.42 35.35 49.42 35.38"/>
        <polygon class="cls-37" points="49.42 35.4 44.76 35.01 44.76 34.99 49.42 35.38 49.42 35.4"/>
        <polygon class="cls-20" points="49.42 35.42 44.76 35.03 44.76 35.01 49.42 35.4 49.42 35.42"/>
        <polygon class="cls-33" points="49.42 35.44 44.76 35.05 44.76 35.03 49.42 35.42 49.42 35.44"/>
        <polygon class="cls-122" points="49.42 35.46 44.76 35.08 44.76 35.05 49.42 35.44 49.42 35.46"/>
        <polygon class="cls-86" points="49.42 35.48 44.76 35.1 44.76 35.08 49.42 35.46 49.42 35.48"/>
        <polygon class="cls-165" points="49.42 35.5 44.76 35.12 44.76 35.1 49.42 35.48 49.42 35.5"/>
        <polygon class="cls-31" points="49.42 35.53 44.76 35.14 44.76 35.12 49.42 35.5 49.42 35.53"/>
        <polygon class="cls-115" points="49.42 35.55 44.76 35.16 44.76 35.14 49.42 35.53 49.42 35.55"/>
        <polygon class="cls-106" points="49.42 35.57 44.76 35.18 44.76 35.16 49.42 35.55 49.42 35.57"/>
        <polygon class="cls-8" points="49.42 35.59 44.76 35.21 44.76 35.18 49.42 35.57 49.42 35.59"/>
        <polygon class="cls-134" points="49.42 35.61 44.76 35.23 44.76 35.21 49.42 35.59 49.42 35.61"/>
        <polygon class="cls-134" points="49.42 35.63 44.76 35.25 44.76 35.23 49.42 35.61 49.42 35.63"/>
        <polygon class="cls-28" points="49.42 35.66 44.76 35.27 44.76 35.25 49.42 35.63 49.42 35.66"/>
        <polygon class="cls-18" points="49.42 35.68 44.76 35.29 44.76 35.27 49.42 35.66 49.42 35.68"/>
        <polygon class="cls-120" points="49.42 35.7 44.76 35.31 44.76 35.29 49.42 35.68 49.42 35.7"/>
        <polygon class="cls-89" points="49.42 35.72 44.76 35.33 44.76 35.31 49.42 35.7 49.42 35.72"/>
        <polygon class="cls-123" points="49.42 35.74 44.76 35.36 44.76 35.33 49.42 35.72 49.42 35.74"/>
        <polygon class="cls-123" points="49.42 35.76 44.76 35.38 44.76 35.36 49.42 35.74 49.42 35.76"/>
        <polygon class="cls-55" points="49.42 35.78 44.76 35.4 44.76 35.38 49.42 35.76 49.42 35.78"/>
        <polygon class="cls-55" points="49.42 35.81 44.76 35.42 44.76 35.4 49.42 35.78 49.42 35.81"/>
        <polygon class="cls-53" points="49.42 35.83 44.76 35.44 44.76 35.42 49.42 35.81 49.42 35.83"/>
        <polygon class="cls-164" points="49.42 35.85 44.76 35.46 44.76 35.44 49.42 35.83 49.42 35.85"/>
        <polygon class="cls-164" points="49.42 35.87 44.76 35.49 44.76 35.46 49.42 35.85 49.42 35.87"/>
        <polygon class="cls-9" points="49.42 35.89 44.76 35.51 44.76 35.49 49.42 35.87 49.42 35.89"/>
        <polygon class="cls-68" points="49.42 35.91 44.76 35.53 44.76 35.51 49.42 35.89 49.42 35.91"/>
        <polygon class="cls-149" points="49.42 35.93 44.76 35.55 44.76 35.53 49.42 35.91 49.42 35.93"/>
        <polygon class="cls-57" points="49.42 35.96 44.76 35.57 44.76 35.55 49.42 35.93 49.42 35.96"/>
        <polygon class="cls-168" points="49.42 35.98 44.76 35.59 44.76 35.57 49.42 35.96 49.42 35.98"/>
        <polygon class="cls-109" points="49.42 36 44.76 35.61 44.76 35.59 49.42 35.98 49.42 36"/>
        <polygon class="cls-109" points="49.42 36.02 44.76 35.64 44.76 35.61 49.42 36 49.42 36.02"/>
        <polygon class="cls-3" points="49.42 36.04 44.76 35.66 44.76 35.64 49.42 36.02 49.42 36.04"/>
        <polygon class="cls-50" points="49.42 36.06 44.76 35.68 44.76 35.66 49.42 36.04 49.42 36.06"/>
        <polygon class="cls-153" points="49.42 36.09 44.76 35.7 44.76 35.68 49.42 36.06 49.42 36.09"/>
        <polygon class="cls-153" points="49.42 36.11 44.76 35.72 44.76 35.7 49.42 36.09 49.42 36.11"/>
        <polygon class="cls-83" points="49.42 36.13 44.76 35.74 44.76 35.72 49.42 36.11 49.42 36.13"/>
        <polygon class="cls-45" points="49.42 36.15 44.76 35.76 44.76 35.74 49.42 36.13 49.42 36.15"/>
        <polygon class="cls-45" points="49.42 36.17 44.76 35.79 44.76 35.76 49.42 36.15 49.42 36.17"/>
        <polygon class="cls-94" points="49.42 36.19 44.76 35.81 44.76 35.79 49.42 36.17 49.42 36.19"/>
        <polygon class="cls-94" points="49.42 36.21 44.76 35.83 44.76 35.81 49.42 36.19 49.42 36.21"/>
        <polygon class="cls-103" points="49.42 36.24 44.76 35.85 44.76 35.83 49.42 36.21 49.42 36.24"/>
        <polygon class="cls-14" points="49.42 36.26 44.76 35.87 44.76 35.85 49.42 36.24 49.42 36.26"/>
        <polygon class="cls-101" points="49.42 36.28 44.76 35.89 44.76 35.87 49.42 36.26 49.42 36.28"/>
        <polygon class="cls-101" points="49.42 36.3 44.76 35.92 44.76 35.89 49.42 36.28 49.42 36.3"/>
        <polygon class="cls-41" points="49.42 36.32 44.76 35.94 44.76 35.92 49.42 36.3 49.42 36.32"/>
        <polygon class="cls-169" points="49.42 36.34 44.76 35.96 44.76 35.94 49.42 36.32 49.42 36.34"/>
        <polygon class="cls-169" points="49.42 36.36 44.76 35.98 44.76 35.96 49.42 36.34 49.42 36.36"/>
        <polygon class="cls-111" points="49.42 36.39 44.76 36 44.76 35.98 49.42 36.36 49.42 36.39"/>
        <polygon class="cls-54" points="49.42 36.41 44.76 36.02 44.76 36 49.42 36.39 49.42 36.41"/>
        <polygon class="cls-30" points="49.42 36.43 44.76 36.04 44.76 36.02 49.42 36.41 49.42 36.43"/>
        <polygon class="cls-23" points="49.42 36.45 44.76 36.07 44.76 36.04 49.42 36.43 49.42 36.45"/>
        <polygon class="cls-23" points="49.42 36.47 44.76 36.09 44.76 36.07 49.42 36.45 49.42 36.47"/>
        <polygon class="cls-161" points="49.42 36.49 44.76 36.11 44.76 36.09 49.42 36.47 49.42 36.49"/>
        <polygon class="cls-125" points="49.42 36.52 44.76 36.13 44.76 36.11 49.42 36.49 49.42 36.52"/>
        <polygon class="cls-125" points="49.42 36.54 44.76 36.15 44.76 36.13 49.42 36.52 49.42 36.54"/>
        <polygon class="cls-125" points="49.42 36.56 44.76 36.17 44.76 36.15 49.42 36.54 49.42 36.56"/>
        <polygon class="cls-88" points="49.42 36.58 44.76 36.19 44.76 36.17 49.42 36.56 49.42 36.58"/>
        <polygon class="cls-88" points="49.42 36.6 44.76 36.22 44.76 36.19 49.42 36.58 49.42 36.6"/>
        <polygon class="cls-76" points="49.42 36.62 44.76 36.24 44.76 36.22 49.42 36.6 49.42 36.62"/>
        <polygon class="cls-76" points="49.42 36.64 44.76 36.26 44.76 36.24 49.42 36.62 49.42 36.64"/>
        <polygon class="cls-135" points="49.42 36.67 44.76 36.28 44.76 36.26 49.42 36.64 49.42 36.67"/>
        <polygon class="cls-4" points="49.42 36.69 44.76 36.3 44.76 36.28 49.42 36.67 49.42 36.69"/>
        <polygon class="cls-4" points="49.42 36.71 44.76 36.32 44.76 36.3 49.42 36.69 49.42 36.71"/>
        <polygon class="cls-44" points="49.42 36.73 44.76 36.35 44.76 36.32 49.42 36.71 49.42 36.73"/>
        <polygon class="cls-58" points="49.42 36.75 44.76 36.37 44.76 36.35 49.42 36.73 49.42 36.75"/>
        <polygon class="cls-82" points="49.42 36.77 44.76 36.39 44.76 36.37 49.42 36.75 49.42 36.77"/>
        <polygon class="cls-82" points="49.42 36.8 44.76 36.41 44.76 36.39 49.42 36.77 49.42 36.8"/>
        <polygon class="cls-82" points="49.42 36.82 44.76 36.43 44.76 36.41 49.42 36.8 49.42 36.82"/>
        <polygon class="cls-170" points="49.42 36.84 44.76 36.45 44.76 36.43 49.42 36.82 49.42 36.84"/>
        <polygon class="cls-11" points="49.42 36.86 44.76 36.47 44.76 36.45 49.42 36.84 49.42 36.86"/>
        <polygon class="cls-11" points="49.42 36.88 44.76 36.5 44.76 36.47 49.42 36.86 49.42 36.88"/>
        <polygon class="cls-166" points="49.42 36.9 44.76 36.52 44.76 36.5 49.42 36.88 49.42 36.9"/>
        <polygon class="cls-133" points="49.42 36.92 44.76 36.54 44.76 36.52 49.42 36.9 49.42 36.92"/>
        <polygon class="cls-133" points="49.42 36.95 44.76 36.56 44.76 36.54 49.42 36.92 49.42 36.95"/>
        <polygon class="cls-133" points="49.42 36.97 44.76 36.58 44.76 36.56 49.42 36.95 49.42 36.97"/>
        <polygon class="cls-133" points="49.42 36.99 44.76 36.6 44.76 36.58 49.42 36.97 49.42 36.99"/>
        <polygon class="cls-39" points="49.42 37.01 44.76 36.62 44.76 36.6 49.42 36.99 49.42 37.01"/>
        <polygon class="cls-95" points="49.42 37.03 44.76 36.65 44.76 36.62 49.42 37.01 49.42 37.03"/>
        <polygon class="cls-19" points="49.36 37.05 44.76 36.67 44.76 36.65 49.42 37.03 49.42 37.05 49.36 37.05"/>
        <polygon class="cls-19" points="49.1 37.05 44.76 36.69 44.76 36.67 49.36 37.05 49.1 37.05"/>
        <polygon class="cls-19" points="48.84 37.05 44.76 36.71 44.76 36.69 49.1 37.05 48.84 37.05"/>
        <polygon class="cls-19" points="48.58 37.05 44.76 36.73 44.76 36.71 48.84 37.05 48.58 37.05"/>
        <polygon class="cls-19" points="48.32 37.05 44.76 36.75 44.76 36.73 48.58 37.05 48.32 37.05"/>
        <polygon class="cls-19" points="48.06 37.05 44.76 36.78 44.76 36.75 48.32 37.05 48.06 37.05"/>
        <polygon class="cls-65" points="47.8 37.05 44.76 36.8 44.76 36.78 48.06 37.05 47.8 37.05"/>
        <polygon class="cls-145" points="47.54 37.05 44.76 36.82 44.76 36.8 47.8 37.05 47.54 37.05"/>
        <polygon class="cls-145" points="47.28 37.05 44.76 36.84 44.76 36.82 47.54 37.05 47.28 37.05"/>
        <polygon class="cls-145" points="47.02 37.05 44.76 36.86 44.76 36.84 47.28 37.05 47.02 37.05"/>
        <polygon class="cls-145" points="46.76 37.05 44.76 36.88 44.76 36.86 47.02 37.05 46.76 37.05"/>
        <polygon class="cls-145" points="46.5 37.05 44.76 36.9 44.76 36.88 46.76 37.05 46.5 37.05"/>
        <polygon class="cls-145" points="46.24 37.05 44.76 36.93 44.76 36.9 46.5 37.05 46.24 37.05"/>
        <polygon class="cls-145" points="45.98 37.05 44.76 36.95 44.76 36.93 46.24 37.05 45.98 37.05"/>
        <polygon class="cls-35" points="45.72 37.05 44.76 36.97 44.76 36.95 45.98 37.05 45.72 37.05"/>
        <polygon class="cls-35" points="45.46 37.05 44.76 36.99 44.76 36.97 45.72 37.05 45.46 37.05"/>
        <polygon class="cls-51" points="45.2 37.05 44.76 37.01 44.76 36.99 45.46 37.05 45.2 37.05"/>
        <polygon class="cls-51" points="44.94 37.05 44.76 37.03 44.76 37.01 45.2 37.05 44.94 37.05"/>
        <polygon class="cls-51" points="44.76 37.03 44.94 37.05 44.76 37.05 44.76 37.03"/>
      </g>
      <path class="cls-42" d="M46.98,36.26c-.66-.05-1.16-.71-1.1-1.44.06-.72.67-1.29,1.32-1.24.66.05,1.16.71,1.1,1.44-.06.72-.67,1.29-1.33,1.24Z"/>
      <path class="cls-126" d="M47.04,35.99c-.46-.04-.93-.54-.88-1.15.05-.62.6-1.03,1.06-1,.46.04.93.54.88,1.15-.05.62-.6,1.03-1.06.99Z"/>
      <path class="cls-93" d="M46.67,34.48c-.02.22-.25.38-.51.36-.26-.02-.46-.22-.44-.44.02-.22.25-.39.51-.36.26.02.46.22.45.44Z"/>
      <path class="cls-93" d="M48.15,35.76c0,.11-.12.19-.26.18-.13-.01-.23-.11-.22-.22,0-.11.12-.19.26-.18.13.01.23.11.22.22Z"/>
      <path class="cls-5" d="M20.16,36.79c.99-1.61,2.55-.94,2.94-.58.41.38.74.89.49,1.84-.13.54-.7.58-.55,1.4.16.91.58.97.82,1.17.24.2.54.36.7.75.15.38.17.79.1,1.14-.15.66-1.12.15-1.76-.14-.43-.19-1.78-1.32-2.13-1.69-.86-.96-1.28-2.81-.61-3.89"/>
      <path class="cls-24" d="M41.09,44.03c.35-.23.76-.12.76-.12,0,0,0,0-.01.02-.08.14-.55.89-.93.88,0,0-.08-.07-.11-.25-.03-.18.12-.41.29-.53Z"/>
      <path class="cls-29" d="M21.73,21.44s-.06,0-.16,0c.05.02.11.04.16.06v-.05Z"/>
      <path class="cls-136" d="M56.89,75.57c-.6-3.66-4.07-4.51-4.23-11.65-.62-.22-1.22-.44-1.8-.66l-.69.85h-21.22l-.81-.99c-.59.23-1.21.45-1.86.68-.12,7.25-3.62,8.09-4.23,11.76-.14.81-.28,2.29-.38,3.31h35.59c-.09-1.01-.23-2.5-.38-3.31ZM49.25,65.28l-1.84,2.28h-15.66l-1.86-2.28h19.35ZM32.7,68.72h13.78l-1.84,2.28h-10.09l-1.86-2.28ZM36.55,73.46l-1.06-1.3h8.21l-1.03,1.28c-1.57,1.95-4.54,1.96-6.12.02Z"/>
      <path class="cls-1" d="M30.9,20.33c0-.31-.01-.63,0-.95-.47.51-1.04,1.21-1.6,2.06,0,0,.2-.17.58-.44.26-.18.6-.41,1.01-.66Z"/>
      <path class="cls-93" d="M53.73,11.58c-3.91-4.29-9.65-6.37-9.65-6.37l1.59,1.55c-.95-.76-2.65-1.81-5.48-2.73-.24-.08-.48-.15-.71-.21-.23.06-.47.13-.71.21-2.83.93-4.53,1.98-5.48,2.73l1.59-1.55s-5.74,2.08-9.65,6.37c-3.9,4.29-5.4,8.32-5.4,12.85s1.75,9.08,2.9,10.42c1.15,1.35.78,3.3,1.12,3.3,0,0,1.15.05.54-7.3-.29-3.48.17-6.17,1.18-8.11-.39,3.87,1.63,7.19,1.63,7.19-.58-3.45.72-6.44,2.1-8.52h0s.01-.02.02-.03c.82-1.23,2.24-1.91,3.72-1.86,3.31.1,9.66.1,12.94,0,1.44-.04,2.82.62,3.62,1.81,0,0,.01.02.02.02.03.02.05.04.08.05v.04c1.36,2.08,2.64,5.05,2.06,8.48,0,0,2.02-3.33,1.63-7.19,1.01,1.94,1.47,4.63,1.18,8.11-.61,7.35.54,7.3.54,7.3.34,0-.02-1.96,1.12-3.3,1.15-1.35,2.9-5.89,2.9-10.42s-1.5-8.56-5.4-12.85Z"/>
      <path class="cls-85" d="M49.62,21.38s.04.06.06.09v-.04s-.04-.04-.06-.05Z"/>
      <path class="cls-93" d="M28.32,45.59c-.18-1.23-1.32-2.09-2.55-1.91-.32.05-.6.17-.85.33-.05-.03-.09-.06-.15-.06-.19,0-.34.15-.34.34s.15.34.34.34.34-.15.34-.34c0,0,0,0,0,0,.21-.13.45-.24.71-.28,1.05-.15,2.02.58,2.17,1.63.12.82-.31,1.59-1,1.96-.05-.03-.12-.05-.18-.06,0,0,0,0,0-.01,0,0-.01,0-.02.01-.02,0-.05,0-.07,0-.18.03-.31.17-.34.33-.38.26-.81.46-1.28.56-1.91.4-3.78-.83-4.18-2.74-.31-1.49.38-2.96,1.6-3.72.15.09.33.13.52.09.41-.09.67-.48.58-.89-.08-.41-.48-.67-.89-.58-.41.09-.67.48-.59.89,0,0,0,0,0,.01-1.41.9-2.2,2.6-1.84,4.33.47,2.24,2.67,3.68,4.9,3.21.58-.12,1.09-.36,1.54-.69.02,0,.05,0,.07,0,.22-.03.38-.24.35-.46,0,0,0,0,0,0,.79-.44,1.28-1.33,1.14-2.28Z"/>
      <path class="cls-93" d="M50.01,46.06c.18-1.23,1.32-2.09,2.55-1.91.32.05.6.17.85.33.05-.03.09-.06.15-.06.19,0,.34.15.34.34s-.15.34-.34.34-.34-.15-.34-.34c0,0,0,0,0,0-.21-.13-.45-.24-.71-.28-1.05-.15-2.02.58-2.17,1.63-.12.82.31,1.59,1,1.96.05-.03.12-.05.18-.06,0,0,0,0,0-.01,0,0,.01,0,.02.01.02,0,.05,0,.07,0,.18.03.31.17.34.33.38.26.81.46,1.28.56,1.91.4,3.78-.83,4.18-2.74.31-1.49-.38-2.96-1.6-3.72-.15.09-.33.13-.52.09-.41-.09-.67-.48-.58-.89.08-.41.48-.67.89-.58.41.09.67.48.59.89,0,0,0,0,0,.01,1.41.9,2.2,2.6,1.84,4.33-.47,2.24-2.67,3.68-4.9,3.21-.58-.12-1.09-.36-1.54-.69-.02,0-.05,0-.07,0-.22-.03-.38-.24-.35-.46,0,0,0,0,0,0-.79-.44-1.28-1.33-1.14-2.28Z"/>
    </g>
  </g>
</svg>