<?xml version="1.0" encoding="UTF-8"?>
<svg id="Layer_2" data-name="Layer 2" xmlns="http://www.w3.org/2000/svg" xmlns:xlink="http://www.w3.org/1999/xlink" viewBox="0 0 78.88 78.88">
  <defs>
    <style>
      .cls-1 {
        fill: none;
      }

      .cls-2 {
        fill: #354148;
      }

      .cls-3 {
        fill: #7d99ae;
      }

      .cls-4 {
        fill: #84a2b8;
      }

      .cls-5 {
        fill: #debaad;
      }

      .cls-6 {
        fill: #4e606b;
      }

      .cls-7 {
        fill: #bf6c6c;
      }

      .cls-8 {
        fill: #7791a4;
      }

      .cls-9 {
        fill: #7b97ab;
      }

      .cls-10 {
        fill: #677e8d;
      }

      .cls-11 {
        fill: #86a3ba;
      }

      .cls-12 {
        fill: #364349;
      }

      .cls-13 {
        fill: #313d43;
      }

      .cls-14 {
        fill: #809cb2;
      }

      .cls-15 {
        fill: #6d8596;
      }

      .cls-16 {
        fill: #44545c;
      }

      .cls-17 {
        fill: #46565f;
      }

      .cls-18 {
        fill: #7893a6;
      }

      .cls-19 {
        fill: #87a5bc;
      }

      .cls-20 {
        fill: #748d9f;
      }

      .cls-21 {
        fill: #627886;
      }

      .cls-22 {
        fill: #24241d;
        opacity: .4;
      }

      .cls-23 {
        fill: #576b77;
      }

      .cls-24 {
        fill: #406db0;
      }

      .cls-25 {
        fill: #829fb5;
      }

      .cls-26 {
        fill: #b89388;
      }

      .cls-27 {
        fill: #485862;
      }

      .cls-28 {
        fill: #6f8899;
      }

      .cls-29 {
        fill: #5b6f7c;
      }

      .cls-30 {
        fill: #7892a6;
      }

      .cls-31 {
        fill: #829fb4;
      }

      .cls-32 {
        fill: #7690a2;
      }

      .cls-33 {
        fill: #596c79;
      }

      .cls-34 {
        fill: #748ea0;
      }

      .cls-35 {
        fill: #728b9c;
      }

      .cls-36 {
        fill: #88a6be;
      }

      .cls-37 {
        fill: #a88a6b;
      }

      .cls-38 {
        fill: #738d9f;
      }

      .cls-39 {
        fill: #495963;
      }

      .cls-40 {
        fill: #87a4bb;
      }

      .cls-41 {
        fill: #617785;
      }

      .cls-42 {
        fill: #819db3;
      }

      .cls-43 {
        fill: #95bacb;
      }

      .cls-44 {
        fill: #657b8a;
      }

      .cls-45 {
        fill: #85a2b8;
      }

      .cls-46 {
        fill: #7f9bb0;
      }

      .cls-47 {
        fill: #667c8b;
      }

      .cls-48 {
        fill: #38454c;
      }

      .cls-49 {
        fill: #3e4d54;
      }

      .cls-50 {
        fill: #687f8f;
      }

      .cls-51 {
        fill: #7e9aae;
      }

      .cls-52 {
        fill: #88a7be;
      }

      .cls-53 {
        fill: #5b707d;
      }

      .cls-54 {
        fill: #7a96a9;
      }

      .cls-55 {
        fill: #829eb4;
      }

      .cls-56 {
        fill: #7a95a9;
      }

      .cls-57 {
        fill: #f3f3f2;
        opacity: .55;
      }

      .cls-58 {
        fill: #6c8495;
      }

      .cls-59 {
        fill: #7c98ac;
      }

      .cls-60 {
        fill: #85a2b9;
      }

      .cls-61 {
        fill: #677d8d;
      }

      .cls-62 {
        fill: #39464e;
      }

      .cls-63 {
        fill: #3d4b53;
      }

      .cls-64 {
        fill: #344046;
      }

      .cls-65 {
        fill: #586c78;
      }

      .cls-66 {
        fill: #596d7a;
      }

      .cls-67 {
        fill: #87a6bd;
      }

      .cls-68 {
        fill: #637988;
      }

      .cls-69 {
        fill: #37444b;
      }

      .cls-70 {
        fill: #7c97ab;
      }

      .cls-71 {
        fill: #6d8595;
      }

      .cls-72 {
        fill: #526570;
      }

      .cls-73 {
        fill: #70899b;
      }

      .cls-74 {
        fill: #738c9e;
      }

      .cls-75 {
        fill: #4e5f6a;
      }

      .cls-76 {
        clip-path: url(#clippath-1);
      }

      .cls-77 {
        fill: #546672;
      }

      .cls-78 {
        fill: #84a1b7;
      }

      .cls-79 {
        fill: #fbfcfc;
      }

      .cls-80 {
        fill: #718a9c;
      }

      .cls-81 {
        fill: #5f7481;
      }

      .cls-82 {
        fill: #f1d4c8;
      }

      .cls-83 {
        fill: #6e8697;
      }

      .cls-84 {
        fill: #303c42;
      }

      .cls-85 {
        fill: #85a3b9;
      }

      .cls-86 {
        fill: #7e9baf;
      }

      .cls-87 {
        fill: #6a8292;
      }

      .cls-88 {
        fill: #758fa1;
      }

      .cls-89 {
        fill: #6b8292;
      }

      .cls-90 {
        fill: #83a1b7;
      }

      .cls-91 {
        fill: #7994a7;
      }

      .cls-92 {
        fill: #6b8393;
      }

      .cls-93 {
        fill: #647a89;
      }

      .cls-94 {
        fill: #6e8798;
      }

      .cls-95 {
        fill: #fff;
      }

      .cls-96 {
        fill: #7f9cb1;
      }

      .cls-97 {
        fill: #87a5bb;
      }

      .cls-98 {
        fill: #536671;
      }

      .cls-99 {
        fill: #5e7380;
      }

      .cls-100 {
        fill: #4d5e69;
      }

      .cls-101 {
        fill: #566975;
      }

      .cls-102 {
        fill: #6a8191;
      }

      .cls-103 {
        fill: #809db2;
      }

      .cls-104 {
        fill: #4c5d68;
      }

      .cls-105 {
        fill: #809cb1;
      }

      .cls-106 {
        fill: #4b5c67;
      }

      .cls-107 {
        fill: #475760;
      }

      .cls-108 {
        fill: #7691a3;
      }

      .cls-109 {
        fill: #3a484f;
      }

      .cls-110 {
        fill: #3b3b36;
      }

      .cls-111 {
        fill: #51636e;
      }

      .cls-112 {
        fill: #7d99ad;
      }

      .cls-113 {
        fill: #4f616c;
      }

      .cls-114 {
        fill: #819eb4;
      }

      .cls-115 {
        fill: #4a5b65;
      }

      .cls-116 {
        fill: #698090;
      }

      .cls-117 {
        opacity: .58;
      }

      .cls-118 {
        opacity: .3;
      }

      .cls-119 {
        fill: #7690a3;
      }

      .cls-120 {
        fill: #5d727f;
      }

      .cls-121 {
        fill: #415059;
      }

      .cls-122 {
        fill: #2d383d;
      }

      .cls-123 {
        fill: #50626d;
      }

      .cls-124 {
        fill: #7893a7;
      }

      .cls-125 {
        fill: #43525b;
      }

      .cls-126 {
        fill: #748ea1;
      }

      .cls-127 {
        fill: #7994a8;
      }

      .cls-128 {
        fill: #546773;
      }

      .cls-129 {
        fill: #83a0b6;
      }

      .cls-130 {
        fill: #26200c;
      }

      .cls-131 {
        fill: #607583;
      }

      .cls-132 {
        fill: #556874;
      }

      .cls-133 {
        fill: #687f8e;
      }

      .cls-134 {
        fill: #667d8c;
      }

      .cls-135 {
        fill: #728b9d;
      }

      .cls-136 {
        fill: #323f45;
      }

      .cls-137 {
        fill: #86a4bb;
      }

      .cls-138 {
        fill: #7792a5;
      }

      .cls-139 {
        fill: #84a1b8;
      }

      .cls-140 {
        fill: #5c707e;
      }

      .cls-141 {
        fill: #698190;
      }

      .cls-142 {
        fill: #637987;
      }

      .cls-143 {
        fill: #3c4a52;
      }

      .cls-144 {
        fill: #42515a;
      }

      .cls-145 {
        fill: #c6a095;
      }

      .cls-146 {
        fill: #3b4950;
      }

      .cls-147 {
        fill: #6c8494;
      }

      .cls-148 {
        fill: #88a6bd;
      }

      .cls-149 {
        fill: #404f57;
      }

      .cls-150 {
        fill: #47433b;
      }

      .cls-151 {
        fill: #51646f;
      }

      .cls-152 {
        fill: #7c97ac;
      }

      .cls-153 {
        fill: #5a6e7b;
      }

      .cls-154 {
        fill: #647b8a;
      }

      .cls-155 {
        fill: #45555e;
      }

      .cls-156 {
        fill: #7e9aaf;
      }

      .cls-157 {
        fill: #3f4e56;
      }

      .cls-158 {
        fill: #2f3b40;
      }

      .cls-159 {
        fill: #4a5a64;
      }

      .cls-160 {
        fill: #607684;
      }

      .cls-161 {
        fill: #718a9b;
      }

      .cls-162 {
        fill: #5d717f;
      }

      .cls-163 {
        clip-path: url(#clippath);
      }

      .cls-164 {
        fill: #82a0b5;
      }

      .cls-165 {
        fill: #2e393f;
      }

      .cls-166 {
        fill: #70899a;
      }

      .cls-167 {
        fill: #7b96aa;
      }

      .cls-168 {
        fill: #758fa2;
      }

      .cls-169 {
        fill: #86a4ba;
      }

      .cls-170 {
        fill: #9abc30;
      }

      .cls-171 {
        fill: #5f7482;
      }

      .cls-172 {
        fill: #7c98ad;
      }

      .cls-173 {
        fill: #819eb3;
      }

      .cls-174 {
        fill: #85a3ba;
      }

      .cls-175 {
        fill: #728c9e;
      }

      .cls-176 {
        fill: #576a76;
      }

      .cls-177 {
        fill: #627786;
      }

      .cls-178 {
        fill: #ab5b64;
      }
    </style>
    <clipPath id="clippath">
      <path class="cls-1" d="M36.28,35.52c-.1,1.2-1.17,2.09-2.39,1.99-1.22-.1-2.13-1.16-2.03-2.35.1-1.2,1.17-2.09,2.39-1.99,1.22.1,2.13,1.16,2.03,2.36Z"/>
    </clipPath>
    <clipPath id="clippath-1">
      <path class="cls-1" d="M51.88,35.4c-.1,1.2-1.17,2.09-2.39,1.99-1.22-.1-2.13-1.16-2.03-2.35.1-1.2,1.17-2.09,2.39-1.99,1.22.1,2.13,1.16,2.03,2.36Z"/>
    </clipPath>
  </defs>
  <g id="Layer_1-2" data-name="Layer 1">
    <g>
      <rect class="cls-170" width="78.88" height="78.88"/>
      <path class="cls-110" d="M57.18,51.26c.5.51,2.55,1.27,2.55,1.27,0,0-1.33-.52-1.77-2.5-.17-.72-.24-1.13-.26-1.42h-.3c1.03-1.35,1.61-2.85,1.61-4.44,0-2.06-.98-3.98-2.66-5.59.06.47.09.94.09,1.42,0,2.44-.79,4.71-2.17,6.61-1.38,1.4-2.83,1.44-3.96,1.12.7-.21,1.32-.56,1.72-1.13,0,0,.64-1-.3-.88,0,0-.23,1.06-2.3,1.02,0,0-.87.02-1.35-.34-.04-.05-.08-.11-.13-.16-.03-.04-.07-.08-.11-.12-.04-.08-.07-.16-.08-.26-.03.03.3-1.09-.87-1.44-.56-.16-1.29-.33-2.25-.41h0s-.02,0-.03,0c-.03,0-.05,0-.08,0-2.73-.22-4.63.03-4.63.03-.83.08-1.47.24-1.98.38-1.17.34-.84,1.47-.87,1.44-.08.91-1.66.88-1.66.88-2.07.04-2.3-1.02-2.3-1.02-.94-.12-.3.88-.3.88.38.54.96.89,1.62,1.1-1.05.38-2.41.48-3.91-.5-1.66-2.02-2.63-4.5-2.63-7.2,0-.53.04-1.05.11-1.57-1.77,1.65-2.81,3.62-2.81,5.75,0,1.59.58,3.09,1.61,4.44h-.16c-.01.29-.09.7-.26,1.42-.45,1.98-1.77,2.5-1.77,2.5,0,0,2.05-.75,2.55-1.27.24-.25.87-.93,1.07-1.14,0,0,.01.01.02.02-.11.23-.38.96,0,2.38.07.26.17.51.29.74.83,3.41,3.74,8.75,13.63,11.49,0,0,9.92-3.3,13.02-10.58.38-.47.73-1.02.9-1.66.37-1.38.12-2.11,0-2.36,0-.01,0-.03,0-.04.19.21.83.9,1.07,1.15Z"/>
      <path class="cls-82" d="M63.97,77.88s-.1-6.1-.34-6.63c-.47-2.13.37-3.1-2.92-5.15-.03-.01-.75-.24-1.82-.59t-.03-.01c-.7-.23-1.54-.51-2.43-.81-.34-.11-.68-.24-1.04-.35-.87-.31-1.74-.62-2.54-.93-.55-.21-1.08-.42-1.53-.6-.38-.17-.72-.32-.98-.46-.28-.15-.49-.28-.6-.39-.01-.01-.04-.05-.08-.09-.02-.04-.05-.06-.08-.1-.06-.35-1.01-1.91-1.34-3.61h0c-.08-.35-.11-.68-.13-1.02-.03-.49-.03-.99-.04-1.43-.01-.46-.02-.87-.04-1.21v-.29c-.01-.24-.01-.44-.01-.59-.01-.15-.01-.24-.01-.24,0,0,.35-.3.87-.76.64-.58,1.57-1.42,2.36-2.21.86-.86,1.61-1.68,1.77-2.11.01-.06.02-.11.02-.15,0,0-.02,0-.06.01-.4.06-2.58.44-4.92.81-1.39.21-2.85.43-4.04.58-.47.06-.9.1-1.26.14h-.01c-.34.04-.63.05-.85.05-.24,0-.57-.03-.96-.05h-.03c-.38-.05-.83-.1-1.33-.16-1.09-.14-2.39-.33-3.65-.52-1.16-.19-2.3-.37-3.2-.52-.21-.04-.41-.06-.58-.1-.86-.14-1.4-.24-1.4-.24,0,.16.15.42.41.75,0,0,0,.01.01.01.19.25.44.55.75.87.29.3.61.62.94.94,1,.97,2.09,1.93,2.62,2.39.2.18.32.28.32.28,0,0,0,.09-.01.24,0,.15,0,.35-.01.59v.29c0,.1,0,.2-.01.3-.01.66-.04,1.48-.06,2.34-.01.34-.05.67-.13,1.01-.33,1.69-1.28,3.26-1.34,3.62-.03.04-.05.06-.08.1-.04.04-.06.08-.08.09-.05.05-.14.12-.25.18-.23.15-.58.32-1.01.53-.37.17-.81.34-1.29.53-1.12.44-2.47.92-3.75,1.35-.09.03-.18.06-.27.09-.95.33-1.86.63-2.59.87h-.01c-1.06.35-1.78.58-1.81.59-3.26,2.04-2.47,3.01-2.92,5.11h0v.04s-.03.08-.04.15h0c-.22,1.11-.3,6.48-.3,6.48,0,.32,0,.66,0,1h44.15c0-.34,0-.68-.01-1Z"/>
      <g class="cls-117">
        <path class="cls-145" d="M48.26,58.15c-.08-.34-.11-.67-.13-1.01-.04-1.14-.06-2.23-.08-2.93-1.9.85-3.85,1.34-5.76,1.34-.11.02-.26.02-.39.02s-.27,0-.39-.02c-1.91,0-3.86-.49-5.76-1.34-.01.71-.04,1.8-.08,2.93-.01.34-.05.67-.13,1.01,1.83,1.53,4.31,3.11,5.96,3.11.1.02.23.02.35.02h0s.03,0,.04,0,.03,0,.04,0h0c.12,0,.24,0,.35-.03,1.64,0,4.12-1.58,5.96-3.11Z"/>
      </g>
      <g>
        <path class="cls-82" d="M58.2,35.44c.32-1.75.56-3.09.64-3.35.04-.13.06-.25.1-.38.03-.15.06-.29.09-.43.06-.22.1-.43.15-.65.01-.1.04-.2.05-.3.04-.24.09-.48.13-.72.01-.1.03-.22.04-.32.04-.21.05-.43.08-.64.01-.16.02-.33.05-.48.01-.14.01-.28.02-.42.16-3.3-.54-6.67-2.71-9.72-2.62-3.67-5.63-7.55-12.17-8.09h-5.51c-6.54.54-9.55,4.43-12.17,8.09-2.16,3.05-2.87,6.41-2.71,9.72.01.14.01.28.02.42.02.15.04.32.05.48.02.22.04.43.08.64.01.1.03.21.04.32.04.24.09.48.13.72.01.1.04.2.05.3.05.21.09.43.15.65.03.14.06.28.09.43.04.13.06.25.1.38.08.26.32,1.59.64,3.33-1.75-.85-4.17.37-3.88,3.58.3,3.26,4.26,5.19,5.62,5.53.13.59.25,1.03.33,1.24,1.19,3,2.63,3.9,5.16,6.34,2.76,2.64,6.83,5.12,8.84,5.11.06.01.14.01.22.01s.15,0,.22-.01c2.01.01,6.08-2.47,8.84-5.11,2.53-2.44,3.97-3.34,5.16-6.34.08-.21.2-.64.33-1.23,1.31-.3,5.36-2.24,5.66-5.54.29-3.24-2.18-4.45-3.93-3.55Z"/>
        <path class="cls-5" d="M60.85,37.24c-.98-1.6-2.52-.93-2.91-.58-.41.38-.73.88-.49,1.82.13.53.69.58.55,1.38-.16.9-.58.96-.82,1.16-.24.2-.54.35-.69.74-.15.38-.17.78-.1,1.13.15.65,1.11.15,1.74-.14.42-.19,1.76-1.3,2.1-1.67.85-.95,1.26-2.78.61-3.85"/>
      </g>
      <path class="cls-5" d="M39.11,50.96c-.06-.84,2.34.18,3.13.2.63.02,2.52-.12,2.7-.19,1.32-.49-.07,1.4-2.74,1.5-1.22.05-3.06-1-3.09-1.51Z"/>
      <g>
        <path class="cls-178" d="M47.05,49.88c-1.53-.28-4.74-.9-4.74-.9-2.65.44-4.73.9-4.74.91-.06,0,2.12,1.95,4.71,1.82h0c2.59.13,4.84-1.82,4.78-1.83Z"/>
        <path class="cls-7" d="M43.82,48.44c-.69-.08-1.16.33-1.51.29-.36.03-.83-.37-1.52-.29-.98.21-1.45.83-3.23,1.45.06.12,1.2-.15,3.34-.11.03,0,.6.32,1.42.32.51,0,1.21-.34,1.24-.34,2.14-.03,3.44.26,3.51.14-2.35-.72-2.26-1.24-3.24-1.45Z"/>
      </g>
      <path class="cls-37" d="M43.57,44.42c.35-.23.75-.12.75-.12,0,0,0,0-.01.02-.08.14-.55.88-.92.87,0,0-.08-.07-.1-.25-.03-.18.12-.41.28-.53Z"/>
      <path class="cls-5" d="M38.89,44.19c-.07-1.67,2.59-.61,3.47-.56.7.04,2.8-.53,2.98-.38,1.24.99-1.32,2.99-3.03,2.99-.46,0-3.39-1.04-3.43-2.05Z"/>
      <path class="cls-26" d="M40.9,44.39c-.35-.23-.75-.12-.75-.12,0,0,0,0,.01.02.08.14.55.88.92.87,0,0,.08-.07.1-.25.03-.18-.12-.41-.28-.53Z"/>
      <path class="cls-110" d="M38.43,32.63s-.41-.41-1.15-.9c-.36-.26-.82-.49-1.31-.72-.5-.23-1.06-.41-1.63-.51-.57-.13-1.17-.16-1.73-.16-.28.02-.55.04-.81.06-.26.01-.5.08-.73.11-.46.07-.83.18-1.1.25-.27.06-.43.1-.43.1,0,0,.13-.08.37-.23.24-.13.57-.38,1.03-.53.44-.19.99-.37,1.6-.48.61-.08,1.28-.13,1.95-.05.66.09,1.31.28,1.89.52.58.25,1.07.57,1.47.87.79.6,1.18,1.19,1.18,1.19h0c.12.19.07.43-.11.54-.15.1-.36.08-.48-.05Z"/>
      <path class="cls-95" d="M29.13,34.53s1.48,3.68,3.78,4.04c2.3.36,4.75-.17,4.75-.17,0,0,.06-4.28-1.13-4.87-1.19-.59-3.92-1.48-7.39.99Z"/>
      <g class="cls-163">
        <polygon class="cls-122" points="36.37 33.87 31.76 33.49 31.76 33.06 36.37 33.06 36.37 33.87"/>
        <polygon class="cls-122" points="36.37 33.89 31.76 33.51 31.76 33.49 36.37 33.87 36.37 33.89"/>
        <polygon class="cls-165" points="36.37 33.92 31.76 33.53 31.76 33.51 36.37 33.89 36.37 33.92"/>
        <polygon class="cls-158" points="36.37 33.94 31.76 33.56 31.76 33.53 36.37 33.92 36.37 33.94"/>
        <polygon class="cls-84" points="36.37 33.96 31.76 33.58 31.76 33.56 36.37 33.94 36.37 33.96"/>
        <polygon class="cls-13" points="36.37 33.98 31.76 33.6 31.76 33.58 36.37 33.96 36.37 33.98"/>
        <polygon class="cls-136" points="36.37 34 31.76 33.62 31.76 33.6 36.37 33.98 36.37 34"/>
        <polygon class="cls-64" points="36.37 34.02 31.76 33.64 31.76 33.62 36.37 34 36.37 34.02"/>
        <polygon class="cls-2" points="36.37 34.04 31.76 33.66 31.76 33.64 36.37 34.02 36.37 34.04"/>
        <polygon class="cls-12" points="36.37 34.06 31.76 33.68 31.76 33.66 36.37 34.04 36.37 34.06"/>
        <polygon class="cls-69" points="36.37 34.09 31.76 33.71 31.76 33.68 36.37 34.06 36.37 34.09"/>
        <polygon class="cls-48" points="36.37 34.11 31.76 33.73 31.76 33.71 36.37 34.09 36.37 34.11"/>
        <polygon class="cls-62" points="36.37 34.13 31.76 33.75 31.76 33.73 36.37 34.11 36.37 34.13"/>
        <polygon class="cls-109" points="36.37 34.15 31.76 33.77 31.76 33.75 36.37 34.13 36.37 34.15"/>
        <polygon class="cls-146" points="36.37 34.17 31.76 33.79 31.76 33.77 36.37 34.15 36.37 34.17"/>
        <polygon class="cls-143" points="36.37 34.19 31.76 33.81 31.76 33.79 36.37 34.17 36.37 34.19"/>
        <polygon class="cls-63" points="36.37 34.21 31.76 33.83 31.76 33.81 36.37 34.19 36.37 34.21"/>
        <polygon class="cls-49" points="36.37 34.24 31.76 33.85 31.76 33.83 36.37 34.21 36.37 34.24"/>
        <polygon class="cls-157" points="36.37 34.26 31.76 33.88 31.76 33.85 36.37 34.24 36.37 34.26"/>
        <polygon class="cls-149" points="36.37 34.28 31.76 33.9 31.76 33.88 36.37 34.26 36.37 34.28"/>
        <polygon class="cls-121" points="36.37 34.3 31.76 33.92 31.76 33.9 36.37 34.28 36.37 34.3"/>
        <polygon class="cls-144" points="36.37 34.32 31.76 33.94 31.76 33.92 36.37 34.3 36.37 34.32"/>
        <polygon class="cls-125" points="36.37 34.34 31.76 33.96 31.76 33.94 36.37 34.32 36.37 34.34"/>
        <polygon class="cls-16" points="36.37 34.36 31.76 33.98 31.76 33.96 36.37 34.34 36.37 34.36"/>
        <polygon class="cls-155" points="36.37 34.38 31.76 34 31.76 33.98 36.37 34.36 36.37 34.38"/>
        <polygon class="cls-17" points="36.37 34.41 31.76 34.02 31.76 34 36.37 34.38 36.37 34.41"/>
        <polygon class="cls-107" points="36.37 34.43 31.76 34.05 31.76 34.02 36.37 34.41 36.37 34.43"/>
        <polygon class="cls-27" points="36.37 34.45 31.76 34.07 31.76 34.05 36.37 34.43 36.37 34.45"/>
        <polygon class="cls-39" points="36.37 34.47 31.76 34.09 31.76 34.07 36.37 34.45 36.37 34.47"/>
        <polygon class="cls-159" points="36.37 34.49 31.76 34.11 31.76 34.09 36.37 34.47 36.37 34.49"/>
        <polygon class="cls-115" points="36.37 34.51 31.76 34.13 31.76 34.11 36.37 34.49 36.37 34.51"/>
        <polygon class="cls-106" points="36.37 34.53 31.76 34.15 31.76 34.13 36.37 34.51 36.37 34.53"/>
        <polygon class="cls-104" points="36.37 34.55 31.76 34.17 31.76 34.15 36.37 34.53 36.37 34.55"/>
        <polygon class="cls-100" points="36.37 34.58 31.76 34.19 31.76 34.17 36.37 34.55 36.37 34.58"/>
        <polygon class="cls-75" points="36.37 34.6 31.76 34.22 31.76 34.19 36.37 34.58 36.37 34.6"/>
        <polygon class="cls-6" points="36.37 34.62 31.76 34.24 31.76 34.22 36.37 34.6 36.37 34.62"/>
        <polygon class="cls-113" points="36.37 34.64 31.76 34.26 31.76 34.24 36.37 34.62 36.37 34.64"/>
        <polygon class="cls-123" points="36.37 34.66 31.76 34.28 31.76 34.26 36.37 34.64 36.37 34.66"/>
        <polygon class="cls-111" points="36.37 34.68 31.76 34.3 31.76 34.28 36.37 34.66 36.37 34.68"/>
        <polygon class="cls-151" points="36.37 34.7 31.76 34.32 31.76 34.3 36.37 34.68 36.37 34.7"/>
        <polygon class="cls-72" points="36.37 34.72 31.76 34.34 31.76 34.32 36.37 34.7 36.37 34.72"/>
        <polygon class="cls-98" points="36.37 34.75 31.76 34.36 31.76 34.34 36.37 34.72 36.37 34.75"/>
        <polygon class="cls-77" points="36.37 34.77 31.76 34.39 31.76 34.36 36.37 34.75 36.37 34.77"/>
        <polygon class="cls-128" points="36.37 34.79 31.76 34.41 31.76 34.39 36.37 34.77 36.37 34.79"/>
        <polygon class="cls-132" points="36.37 34.81 31.76 34.43 31.76 34.41 36.37 34.79 36.37 34.81"/>
        <polygon class="cls-101" points="36.37 34.83 31.76 34.45 31.76 34.43 36.37 34.81 36.37 34.83"/>
        <polygon class="cls-176" points="36.37 34.85 31.76 34.47 31.76 34.45 36.37 34.83 36.37 34.85"/>
        <polygon class="cls-23" points="36.37 34.87 31.76 34.49 31.76 34.47 36.37 34.85 36.37 34.87"/>
        <polygon class="cls-65" points="36.37 34.89 31.76 34.51 31.76 34.49 36.37 34.87 36.37 34.89"/>
        <polygon class="cls-33" points="36.37 34.92 31.76 34.54 31.76 34.51 36.37 34.89 36.37 34.92"/>
        <polygon class="cls-66" points="36.37 34.94 31.76 34.56 31.76 34.54 36.37 34.92 36.37 34.94"/>
        <polygon class="cls-153" points="36.37 34.96 31.76 34.58 31.76 34.56 36.37 34.94 36.37 34.96"/>
        <polygon class="cls-29" points="36.37 34.98 31.76 34.6 31.76 34.58 36.37 34.96 36.37 34.98"/>
        <polygon class="cls-53" points="36.37 35 31.76 34.62 31.76 34.6 36.37 34.98 36.37 35"/>
        <polygon class="cls-140" points="36.37 35.02 31.76 34.64 31.76 34.62 36.37 35 36.37 35.02"/>
        <polygon class="cls-162" points="36.37 35.04 31.76 34.66 31.76 34.64 36.37 35.02 36.37 35.04"/>
        <polygon class="cls-120" points="36.37 35.07 31.76 34.68 31.76 34.66 36.37 35.04 36.37 35.07"/>
        <polygon class="cls-99" points="36.37 35.09 31.76 34.71 31.76 34.68 36.37 35.07 36.37 35.09"/>
        <polygon class="cls-81" points="36.37 35.11 31.76 34.73 31.76 34.71 36.37 35.09 36.37 35.11"/>
        <polygon class="cls-171" points="36.37 35.13 31.76 34.75 31.76 34.73 36.37 35.11 36.37 35.13"/>
        <polygon class="cls-131" points="36.37 35.15 31.76 34.77 31.76 34.75 36.37 35.13 36.37 35.15"/>
        <polygon class="cls-160" points="36.37 35.17 31.76 34.79 31.76 34.77 36.37 35.15 36.37 35.17"/>
        <polygon class="cls-41" points="36.37 35.19 31.76 34.81 31.76 34.79 36.37 35.17 36.37 35.19"/>
        <polygon class="cls-177" points="36.37 35.21 31.76 34.83 31.76 34.81 36.37 35.19 36.37 35.21"/>
        <polygon class="cls-21" points="36.37 35.24 31.76 34.85 31.76 34.83 36.37 35.21 36.37 35.24"/>
        <polygon class="cls-142" points="36.37 35.26 31.76 34.88 31.76 34.85 36.37 35.24 36.37 35.26"/>
        <polygon class="cls-68" points="36.37 35.28 31.76 34.9 31.76 34.88 36.37 35.26 36.37 35.28"/>
        <polygon class="cls-93" points="36.37 35.3 31.76 34.92 31.76 34.9 36.37 35.28 36.37 35.3"/>
        <polygon class="cls-154" points="36.37 35.32 31.76 34.94 31.76 34.92 36.37 35.3 36.37 35.32"/>
        <polygon class="cls-44" points="36.37 35.34 31.76 34.96 31.76 34.94 36.37 35.32 36.37 35.34"/>
        <polygon class="cls-47" points="36.37 35.36 31.76 34.98 31.76 34.96 36.37 35.34 36.37 35.36"/>
        <polygon class="cls-134" points="36.37 35.38 31.76 35 31.76 34.98 36.37 35.36 36.37 35.38"/>
        <polygon class="cls-61" points="36.37 35.41 31.76 35.02 31.76 35 36.37 35.38 36.37 35.41"/>
        <polygon class="cls-10" points="36.37 35.43 31.76 35.05 31.76 35.02 36.37 35.41 36.37 35.43"/>
        <polygon class="cls-133" points="36.37 35.45 31.76 35.07 31.76 35.05 36.37 35.43 36.37 35.45"/>
        <polygon class="cls-50" points="36.37 35.47 31.76 35.09 31.76 35.07 36.37 35.45 36.37 35.47"/>
        <polygon class="cls-116" points="36.37 35.49 31.76 35.11 31.76 35.09 36.37 35.47 36.37 35.49"/>
        <polygon class="cls-141" points="36.37 35.51 31.76 35.13 31.76 35.11 36.37 35.49 36.37 35.51"/>
        <polygon class="cls-102" points="36.37 35.53 31.76 35.15 31.76 35.13 36.37 35.51 36.37 35.53"/>
        <polygon class="cls-87" points="36.37 35.55 31.76 35.17 31.76 35.15 36.37 35.53 36.37 35.55"/>
        <polygon class="cls-89" points="36.37 35.58 31.76 35.19 31.76 35.17 36.37 35.55 36.37 35.58"/>
        <polygon class="cls-92" points="36.37 35.6 31.76 35.22 31.76 35.19 36.37 35.58 36.37 35.6"/>
        <polygon class="cls-147" points="36.37 35.62 31.76 35.24 31.76 35.22 36.37 35.6 36.37 35.62"/>
        <polygon class="cls-58" points="36.37 35.64 31.76 35.26 31.76 35.24 36.37 35.62 36.37 35.64"/>
        <polygon class="cls-71" points="36.37 35.66 31.76 35.28 31.76 35.26 36.37 35.64 36.37 35.66"/>
        <polygon class="cls-15" points="36.37 35.68 31.76 35.3 31.76 35.28 36.37 35.66 36.37 35.68"/>
        <polygon class="cls-83" points="36.37 35.7 31.76 35.32 31.76 35.3 36.37 35.68 36.37 35.7"/>
        <polygon class="cls-83" points="36.37 35.72 31.76 35.34 31.76 35.32 36.37 35.7 36.37 35.72"/>
        <polygon class="cls-94" points="36.37 35.75 31.76 35.36 31.76 35.34 36.37 35.72 36.37 35.75"/>
        <polygon class="cls-28" points="36.37 35.77 31.76 35.39 31.76 35.36 36.37 35.75 36.37 35.77"/>
        <polygon class="cls-28" points="36.37 35.79 31.76 35.41 31.76 35.39 36.37 35.77 36.37 35.79"/>
        <polygon class="cls-166" points="36.37 35.81 31.76 35.43 31.76 35.41 36.37 35.79 36.37 35.81"/>
        <polygon class="cls-73" points="36.37 35.83 31.76 35.45 31.76 35.43 36.37 35.81 36.37 35.83"/>
        <polygon class="cls-161" points="36.37 35.85 31.76 35.47 31.76 35.45 36.37 35.83 36.37 35.85"/>
        <polygon class="cls-80" points="36.37 35.87 31.76 35.49 31.76 35.47 36.37 35.85 36.37 35.87"/>
        <polygon class="cls-35" points="36.37 35.89 31.76 35.51 31.76 35.49 36.37 35.87 36.37 35.89"/>
        <polygon class="cls-135" points="36.37 35.92 31.76 35.54 31.76 35.51 36.37 35.89 36.37 35.92"/>
        <polygon class="cls-175" points="36.37 35.94 31.76 35.56 31.76 35.54 36.37 35.92 36.37 35.94"/>
        <polygon class="cls-74" points="36.37 35.96 31.76 35.58 31.76 35.56 36.37 35.94 36.37 35.96"/>
        <polygon class="cls-38" points="36.37 35.98 31.76 35.6 31.76 35.58 36.37 35.96 36.37 35.98"/>
        <polygon class="cls-20" points="36.37 36 31.76 35.62 31.76 35.6 36.37 35.98 36.37 36"/>
        <polygon class="cls-34" points="36.37 36.02 31.76 35.64 31.76 35.62 36.37 36 36.37 36.02"/>
        <polygon class="cls-126" points="36.37 36.04 31.76 35.66 31.76 35.64 36.37 36.02 36.37 36.04"/>
        <polygon class="cls-88" points="36.37 36.07 31.76 35.68 31.76 35.66 36.37 36.04 36.37 36.07"/>
        <polygon class="cls-168" points="36.37 36.09 31.76 35.71 31.76 35.68 36.37 36.07 36.37 36.09"/>
        <polygon class="cls-32" points="36.37 36.11 31.76 35.73 31.76 35.71 36.37 36.09 36.37 36.11"/>
        <polygon class="cls-119" points="36.37 36.13 31.76 35.75 31.76 35.73 36.37 36.11 36.37 36.13"/>
        <polygon class="cls-108" points="36.37 36.15 31.76 35.77 31.76 35.75 36.37 36.13 36.37 36.15"/>
        <polygon class="cls-8" points="36.37 36.17 31.76 35.79 31.76 35.77 36.37 36.15 36.37 36.17"/>
        <polygon class="cls-138" points="36.37 36.19 31.76 35.81 31.76 35.79 36.37 36.17 36.37 36.19"/>
        <polygon class="cls-138" points="36.37 36.21 31.76 35.83 31.76 35.81 36.37 36.19 36.37 36.21"/>
        <polygon class="cls-30" points="36.37 36.24 31.76 35.85 31.76 35.83 36.37 36.21 36.37 36.24"/>
        <polygon class="cls-18" points="36.37 36.26 31.76 35.88 31.76 35.85 36.37 36.24 36.37 36.26"/>
        <polygon class="cls-124" points="36.37 36.28 31.76 35.9 31.76 35.88 36.37 36.26 36.37 36.28"/>
        <polygon class="cls-91" points="36.37 36.3 31.76 35.92 31.76 35.9 36.37 36.28 36.37 36.3"/>
        <polygon class="cls-127" points="36.37 36.32 31.76 35.94 31.76 35.92 36.37 36.3 36.37 36.32"/>
        <polygon class="cls-127" points="36.37 36.34 31.76 35.96 31.76 35.94 36.37 36.32 36.37 36.34"/>
        <polygon class="cls-56" points="36.37 36.36 31.76 35.98 31.76 35.96 36.37 36.34 36.37 36.36"/>
        <polygon class="cls-56" points="36.37 36.38 31.76 36 31.76 35.98 36.37 36.36 36.37 36.38"/>
        <polygon class="cls-54" points="36.37 36.41 31.76 36.02 31.76 36 36.37 36.38 36.37 36.41"/>
        <polygon class="cls-167" points="36.37 36.43 31.76 36.05 31.76 36.02 36.37 36.41 36.37 36.43"/>
        <polygon class="cls-167" points="36.37 36.45 31.76 36.07 31.76 36.05 36.37 36.43 36.37 36.45"/>
        <polygon class="cls-9" points="36.37 36.47 31.76 36.09 31.76 36.07 36.37 36.45 36.37 36.47"/>
        <polygon class="cls-70" points="36.37 36.49 31.76 36.11 31.76 36.09 36.37 36.47 36.37 36.49"/>
        <polygon class="cls-152" points="36.37 36.51 31.76 36.13 31.76 36.11 36.37 36.49 36.37 36.51"/>
        <polygon class="cls-59" points="36.37 36.53 31.76 36.15 31.76 36.13 36.37 36.51 36.37 36.53"/>
        <polygon class="cls-172" points="36.37 36.55 31.76 36.17 31.76 36.15 36.37 36.53 36.37 36.55"/>
        <polygon class="cls-112" points="36.37 36.58 31.76 36.19 31.76 36.17 36.37 36.55 36.37 36.58"/>
        <polygon class="cls-112" points="36.37 36.6 31.76 36.22 31.76 36.19 36.37 36.58 36.37 36.6"/>
        <polygon class="cls-3" points="36.37 36.62 31.76 36.24 31.76 36.22 36.37 36.6 36.37 36.62"/>
        <polygon class="cls-51" points="36.37 36.64 31.76 36.26 31.76 36.24 36.37 36.62 36.37 36.64"/>
        <polygon class="cls-156" points="36.37 36.66 31.76 36.28 31.76 36.26 36.37 36.64 36.37 36.66"/>
        <polygon class="cls-156" points="36.37 36.68 31.76 36.3 31.76 36.28 36.37 36.66 36.37 36.68"/>
        <polygon class="cls-86" points="36.37 36.7 31.76 36.32 31.76 36.3 36.37 36.68 36.37 36.7"/>
        <polygon class="cls-46" points="36.37 36.72 31.76 36.34 31.76 36.32 36.37 36.7 36.37 36.72"/>
        <polygon class="cls-46" points="36.37 36.75 31.76 36.36 31.76 36.34 36.37 36.72 36.37 36.75"/>
        <polygon class="cls-96" points="36.37 36.77 31.76 36.39 31.76 36.36 36.37 36.75 36.37 36.77"/>
        <polygon class="cls-96" points="36.37 36.79 31.76 36.41 31.76 36.39 36.37 36.77 36.37 36.79"/>
        <polygon class="cls-105" points="36.37 36.81 31.76 36.43 31.76 36.41 36.37 36.79 36.37 36.81"/>
        <polygon class="cls-14" points="36.37 36.83 31.76 36.45 31.76 36.43 36.37 36.81 36.37 36.83"/>
        <polygon class="cls-103" points="36.37 36.85 31.76 36.47 31.76 36.45 36.37 36.83 36.37 36.85"/>
        <polygon class="cls-103" points="36.37 36.87 31.76 36.49 31.76 36.47 36.37 36.85 36.37 36.87"/>
        <polygon class="cls-42" points="36.37 36.9 31.76 36.51 31.76 36.49 36.37 36.87 36.37 36.9"/>
        <polygon class="cls-173" points="36.37 36.92 31.76 36.54 31.76 36.51 36.37 36.9 36.37 36.92"/>
        <polygon class="cls-173" points="36.37 36.94 31.76 36.56 31.76 36.54 36.37 36.92 36.37 36.94"/>
        <polygon class="cls-114" points="36.37 36.96 31.76 36.58 31.76 36.56 36.37 36.94 36.37 36.96"/>
        <polygon class="cls-55" points="36.37 36.98 31.76 36.6 31.76 36.58 36.37 36.96 36.37 36.98"/>
        <polygon class="cls-31" points="36.37 37 31.76 36.62 31.76 36.6 36.37 36.98 36.37 37"/>
        <polygon class="cls-25" points="36.37 37.02 31.76 36.64 31.76 36.62 36.37 37 36.37 37.02"/>
        <polygon class="cls-25" points="36.37 37.04 31.76 36.66 31.76 36.64 36.37 37.02 36.37 37.04"/>
        <polygon class="cls-164" points="36.37 37.07 31.76 36.68 31.76 36.66 36.37 37.04 36.37 37.07"/>
        <polygon class="cls-129" points="36.37 37.09 31.76 36.71 31.76 36.68 36.37 37.07 36.37 37.09"/>
        <polygon class="cls-129" points="36.37 37.11 31.76 36.73 31.76 36.71 36.37 37.09 36.37 37.11"/>
        <polygon class="cls-129" points="36.37 37.13 31.76 36.75 31.76 36.73 36.37 37.11 36.37 37.13"/>
        <polygon class="cls-90" points="36.37 37.15 31.76 36.77 31.76 36.75 36.37 37.13 36.37 37.15"/>
        <polygon class="cls-90" points="36.37 37.17 31.76 36.79 31.76 36.77 36.37 37.15 36.37 37.17"/>
        <polygon class="cls-78" points="36.37 37.19 31.76 36.81 31.76 36.79 36.37 37.17 36.37 37.19"/>
        <polygon class="cls-78" points="36.37 37.21 31.76 36.83 31.76 36.81 36.37 37.19 36.37 37.21"/>
        <polygon class="cls-139" points="36.37 37.24 31.76 36.85 31.76 36.83 36.37 37.21 36.37 37.24"/>
        <polygon class="cls-4" points="36.37 37.26 31.76 36.88 31.76 36.85 36.37 37.24 36.37 37.26"/>
        <polygon class="cls-4" points="36.37 37.28 31.76 36.9 31.76 36.88 36.37 37.26 36.37 37.28"/>
        <polygon class="cls-45" points="36.37 37.3 31.76 36.92 31.76 36.9 36.37 37.28 36.37 37.3"/>
        <polygon class="cls-60" points="36.37 37.32 31.76 36.94 31.76 36.92 36.37 37.3 36.37 37.32"/>
        <polygon class="cls-85" points="36.37 37.34 31.76 36.96 31.76 36.94 36.37 37.32 36.37 37.34"/>
        <polygon class="cls-85" points="36.37 37.36 31.76 36.98 31.76 36.96 36.37 37.34 36.37 37.36"/>
        <polygon class="cls-85" points="36.37 37.38 31.76 37 31.76 36.98 36.37 37.36 36.37 37.38"/>
        <polygon class="cls-174" points="36.37 37.41 31.76 37.02 31.76 37 36.37 37.38 36.37 37.41"/>
        <polygon class="cls-11" points="36.37 37.43 31.76 37.05 31.76 37.02 36.37 37.41 36.37 37.43"/>
        <polygon class="cls-11" points="36.37 37.45 31.76 37.07 31.76 37.05 36.37 37.43 36.37 37.45"/>
        <polygon class="cls-169" points="36.37 37.47 31.76 37.09 31.76 37.07 36.37 37.45 36.37 37.47"/>
        <polygon class="cls-137" points="36.37 37.49 31.76 37.11 31.76 37.09 36.37 37.47 36.37 37.49"/>
        <polygon class="cls-137" points="36.37 37.51 31.76 37.13 31.76 37.11 36.37 37.49 36.37 37.51"/>
        <polygon class="cls-137" points="36.37 37.53 31.76 37.15 31.76 37.13 36.37 37.51 36.37 37.53"/>
        <polygon class="cls-137" points="36.37 37.55 31.76 37.17 31.76 37.15 36.37 37.53 36.37 37.55"/>
        <polygon class="cls-40" points="36.37 37.58 31.76 37.19 31.76 37.17 36.37 37.55 36.37 37.58"/>
        <polygon class="cls-97" points="36.37 37.6 31.76 37.22 31.76 37.19 36.37 37.58 36.37 37.6"/>
        <polygon class="cls-19" points="36.32 37.61 31.76 37.24 31.76 37.22 36.37 37.6 36.37 37.61 36.32 37.61"/>
        <polygon class="cls-19" points="36.06 37.61 31.76 37.26 31.76 37.24 36.32 37.61 36.06 37.61"/>
        <polygon class="cls-19" points="35.8 37.61 31.76 37.28 31.76 37.26 36.06 37.61 35.8 37.61"/>
        <polygon class="cls-19" points="35.54 37.61 31.76 37.3 31.76 37.28 35.8 37.61 35.54 37.61"/>
        <polygon class="cls-19" points="35.29 37.61 31.76 37.32 31.76 37.3 35.54 37.61 35.29 37.61"/>
        <polygon class="cls-19" points="35.03 37.61 31.76 37.34 31.76 37.32 35.29 37.61 35.03 37.61"/>
        <polygon class="cls-67" points="34.77 37.61 31.76 37.36 31.76 37.34 35.03 37.61 34.77 37.61"/>
        <polygon class="cls-148" points="34.51 37.61 31.76 37.39 31.76 37.36 34.77 37.61 34.51 37.61"/>
        <polygon class="cls-148" points="34.26 37.61 31.76 37.41 31.76 37.39 34.51 37.61 34.26 37.61"/>
        <polygon class="cls-148" points="34 37.61 31.76 37.43 31.76 37.41 34.26 37.61 34 37.61"/>
        <polygon class="cls-148" points="33.74 37.61 31.76 37.45 31.76 37.43 34 37.61 33.74 37.61"/>
        <polygon class="cls-148" points="33.48 37.61 31.76 37.47 31.76 37.45 33.74 37.61 33.48 37.61"/>
        <polygon class="cls-148" points="33.23 37.61 31.76 37.49 31.76 37.47 33.48 37.61 33.23 37.61"/>
        <polygon class="cls-148" points="32.97 37.61 31.76 37.51 31.76 37.49 33.23 37.61 32.97 37.61"/>
        <polygon class="cls-36" points="32.71 37.61 31.76 37.54 31.76 37.51 32.97 37.61 32.71 37.61"/>
        <polygon class="cls-36" points="32.45 37.61 31.76 37.56 31.76 37.54 32.71 37.61 32.45 37.61"/>
        <polygon class="cls-52" points="32.2 37.61 31.76 37.58 31.76 37.56 32.45 37.61 32.2 37.61"/>
        <polygon class="cls-52" points="31.94 37.61 31.76 37.6 31.76 37.58 32.2 37.61 31.94 37.61"/>
        <polygon class="cls-52" points="31.76 37.6 31.94 37.61 31.76 37.61 31.76 37.6"/>
      </g>
      <path class="cls-43" d="M33.96,36.83c-.65-.05-1.15-.71-1.09-1.42.06-.72.66-1.28,1.31-1.22.65.05,1.15.7,1.09,1.42-.06.72-.66,1.28-1.31,1.23Z"/>
      <path class="cls-130" d="M34.02,36.57c-.45-.04-.92-.53-.87-1.14.05-.61.6-1.02,1.05-.98.45.04.92.53.87,1.14-.05.61-.59,1.02-1.05.98Z"/>
      <g class="cls-118">
        <path class="cls-150" d="M37.65,38.4s-.05,0-.17.04c-.08-1.32-.34-3.13-1.08-3.49-1.11-.56-3.59-1.37-6.79.58-.32-.57-.49-1.01-.49-1.01,3.48-2.48,6.21-1.59,7.39-1,1.19.59,1.13,4.88,1.13,4.88Z"/>
      </g>
      <path class="cls-95" d="M33.65,35.07c-.02.22-.25.38-.51.36-.26-.02-.46-.22-.44-.44.02-.22.24-.38.51-.36.26.02.46.22.44.44Z"/>
      <path class="cls-95" d="M35.11,36.34c0,.11-.12.19-.25.18-.13,0-.23-.11-.22-.22,0-.11.12-.19.25-.18.13.01.23.11.22.22Z"/>
      <path class="cls-110" d="M44.7,32.13s.38-.59,1.18-1.19c.4-.3.89-.63,1.47-.87.58-.24,1.23-.43,1.89-.52.67-.07,1.33-.03,1.95.05.61.11,1.15.29,1.6.48.46.16.79.41,1.03.53.24.15.37.23.37.23,0,0-.15-.04-.43-.1-.27-.07-.64-.18-1.1-.25-.23-.03-.47-.1-.73-.11-.26-.02-.53-.04-.81-.06-.56,0-1.15.02-1.73.16-.58.1-1.14.28-1.63.51-.49.23-.96.46-1.31.72-.75.49-1.15.9-1.15.9-.15.15-.39.15-.54,0-.13-.13-.15-.33-.05-.48h0Z"/>
      <path class="cls-95" d="M54.59,34.53s-1.48,3.68-3.78,4.04c-2.3.36-4.75-.17-4.75-.17,0,0-.06-4.28,1.13-4.87,1.19-.59,3.92-1.48,7.39.99Z"/>
      <g class="cls-118">
        <path class="cls-150" d="M46.07,38.4s.05,0,.17.04c.08-1.32.34-3.13,1.08-3.49,1.11-.56,3.59-1.37,6.79.58.32-.57.49-1.01.49-1.01-3.48-2.48-6.21-1.59-7.39-1-1.2.59-1.13,4.88-1.13,4.88Z"/>
      </g>
      <g class="cls-76">
        <polygon class="cls-122" points="51.97 33.75 47.36 33.37 47.36 32.94 51.97 32.94 51.97 33.75"/>
        <polygon class="cls-122" points="51.97 33.77 47.36 33.39 47.36 33.37 51.97 33.75 51.97 33.77"/>
        <polygon class="cls-165" points="51.97 33.79 47.36 33.41 47.36 33.39 51.97 33.77 51.97 33.79"/>
        <polygon class="cls-158" points="51.97 33.81 47.36 33.43 47.36 33.41 51.97 33.79 51.97 33.81"/>
        <polygon class="cls-84" points="51.97 33.84 47.36 33.46 47.36 33.43 51.97 33.81 51.97 33.84"/>
        <polygon class="cls-13" points="51.97 33.86 47.36 33.48 47.36 33.46 51.97 33.84 51.97 33.86"/>
        <polygon class="cls-136" points="51.97 33.88 47.36 33.5 47.36 33.48 51.97 33.86 51.97 33.88"/>
        <polygon class="cls-64" points="51.97 33.9 47.36 33.52 47.36 33.5 51.97 33.88 51.97 33.9"/>
        <polygon class="cls-2" points="51.97 33.92 47.36 33.54 47.36 33.52 51.97 33.9 51.97 33.92"/>
        <polygon class="cls-12" points="51.97 33.94 47.36 33.56 47.36 33.54 51.97 33.92 51.97 33.94"/>
        <polygon class="cls-69" points="51.97 33.96 47.36 33.58 47.36 33.56 51.97 33.94 51.97 33.96"/>
        <polygon class="cls-48" points="51.97 33.99 47.36 33.6 47.36 33.58 51.97 33.96 51.97 33.99"/>
        <polygon class="cls-62" points="51.97 34.01 47.36 33.63 47.36 33.6 51.97 33.99 51.97 34.01"/>
        <polygon class="cls-109" points="51.97 34.03 47.36 33.65 47.36 33.63 51.97 34.01 51.97 34.03"/>
        <polygon class="cls-146" points="51.97 34.05 47.36 33.67 47.36 33.65 51.97 34.03 51.97 34.05"/>
        <polygon class="cls-143" points="51.97 34.07 47.36 33.69 47.36 33.67 51.97 34.05 51.97 34.07"/>
        <polygon class="cls-63" points="51.97 34.09 47.36 33.71 47.36 33.69 51.97 34.07 51.97 34.09"/>
        <polygon class="cls-49" points="51.97 34.11 47.36 33.73 47.36 33.71 51.97 34.09 51.97 34.11"/>
        <polygon class="cls-157" points="51.97 34.13 47.36 33.75 47.36 33.73 51.97 34.11 51.97 34.13"/>
        <polygon class="cls-149" points="51.97 34.16 47.36 33.77 47.36 33.75 51.97 34.13 51.97 34.16"/>
        <polygon class="cls-121" points="51.97 34.18 47.36 33.8 47.36 33.77 51.97 34.16 51.97 34.18"/>
        <polygon class="cls-144" points="51.97 34.2 47.36 33.82 47.36 33.8 51.97 34.18 51.97 34.2"/>
        <polygon class="cls-125" points="51.97 34.22 47.36 33.84 47.36 33.82 51.97 34.2 51.97 34.22"/>
        <polygon class="cls-16" points="51.97 34.24 47.36 33.86 47.36 33.84 51.97 34.22 51.97 34.24"/>
        <polygon class="cls-155" points="51.97 34.26 47.36 33.88 47.36 33.86 51.97 34.24 51.97 34.26"/>
        <polygon class="cls-17" points="51.97 34.28 47.36 33.9 47.36 33.88 51.97 34.26 51.97 34.28"/>
        <polygon class="cls-107" points="51.97 34.3 47.36 33.92 47.36 33.9 51.97 34.28 51.97 34.3"/>
        <polygon class="cls-27" points="51.97 34.33 47.36 33.94 47.36 33.92 51.97 34.3 51.97 34.33"/>
        <polygon class="cls-39" points="51.97 34.35 47.36 33.97 47.36 33.94 51.97 34.33 51.97 34.35"/>
        <polygon class="cls-159" points="51.97 34.37 47.36 33.99 47.36 33.97 51.97 34.35 51.97 34.37"/>
        <polygon class="cls-115" points="51.97 34.39 47.36 34.01 47.36 33.99 51.97 34.37 51.97 34.39"/>
        <polygon class="cls-106" points="51.97 34.41 47.36 34.03 47.36 34.01 51.97 34.39 51.97 34.41"/>
        <polygon class="cls-104" points="51.97 34.43 47.36 34.05 47.36 34.03 51.97 34.41 51.97 34.43"/>
        <polygon class="cls-100" points="51.97 34.45 47.36 34.07 47.36 34.05 51.97 34.43 51.97 34.45"/>
        <polygon class="cls-75" points="51.97 34.47 47.36 34.09 47.36 34.07 51.97 34.45 51.97 34.47"/>
        <polygon class="cls-6" points="51.97 34.5 47.36 34.11 47.36 34.09 51.97 34.47 51.97 34.5"/>
        <polygon class="cls-113" points="51.97 34.52 47.36 34.14 47.36 34.11 51.97 34.5 51.97 34.52"/>
        <polygon class="cls-123" points="51.97 34.54 47.36 34.16 47.36 34.14 51.97 34.52 51.97 34.54"/>
        <polygon class="cls-111" points="51.97 34.56 47.36 34.18 47.36 34.16 51.97 34.54 51.97 34.56"/>
        <polygon class="cls-151" points="51.97 34.58 47.36 34.2 47.36 34.18 51.97 34.56 51.97 34.58"/>
        <polygon class="cls-72" points="51.97 34.6 47.36 34.22 47.36 34.2 51.97 34.58 51.97 34.6"/>
        <polygon class="cls-98" points="51.97 34.62 47.36 34.24 47.36 34.22 51.97 34.6 51.97 34.62"/>
        <polygon class="cls-77" points="51.97 34.64 47.36 34.26 47.36 34.24 51.97 34.62 51.97 34.64"/>
        <polygon class="cls-128" points="51.97 34.67 47.36 34.28 47.36 34.26 51.97 34.64 51.97 34.67"/>
        <polygon class="cls-132" points="51.97 34.69 47.36 34.31 47.36 34.28 51.97 34.67 51.97 34.69"/>
        <polygon class="cls-101" points="51.97 34.71 47.36 34.33 47.36 34.31 51.97 34.69 51.97 34.71"/>
        <polygon class="cls-176" points="51.97 34.73 47.36 34.35 47.36 34.33 51.97 34.71 51.97 34.73"/>
        <polygon class="cls-23" points="51.97 34.75 47.36 34.37 47.36 34.35 51.97 34.73 51.97 34.75"/>
        <polygon class="cls-65" points="51.97 34.77 47.36 34.39 47.36 34.37 51.97 34.75 51.97 34.77"/>
        <polygon class="cls-33" points="51.97 34.79 47.36 34.41 47.36 34.39 51.97 34.77 51.97 34.79"/>
        <polygon class="cls-66" points="51.97 34.81 47.36 34.43 47.36 34.41 51.97 34.79 51.97 34.81"/>
        <polygon class="cls-153" points="51.97 34.84 47.36 34.45 47.36 34.43 51.97 34.81 51.97 34.84"/>
        <polygon class="cls-29" points="51.97 34.86 47.36 34.48 47.36 34.45 51.97 34.84 51.97 34.86"/>
        <polygon class="cls-53" points="51.97 34.88 47.36 34.5 47.36 34.48 51.97 34.86 51.97 34.88"/>
        <polygon class="cls-140" points="51.97 34.9 47.36 34.52 47.36 34.5 51.97 34.88 51.97 34.9"/>
        <polygon class="cls-162" points="51.97 34.92 47.36 34.54 47.36 34.52 51.97 34.9 51.97 34.92"/>
        <polygon class="cls-120" points="51.97 34.94 47.36 34.56 47.36 34.54 51.97 34.92 51.97 34.94"/>
        <polygon class="cls-99" points="51.97 34.96 47.36 34.58 47.36 34.56 51.97 34.94 51.97 34.96"/>
        <polygon class="cls-81" points="51.97 34.99 47.36 34.6 47.36 34.58 51.97 34.96 51.97 34.99"/>
        <polygon class="cls-171" points="51.97 35.01 47.36 34.63 47.36 34.6 51.97 34.99 51.97 35.01"/>
        <polygon class="cls-131" points="51.97 35.03 47.36 34.65 47.36 34.63 51.97 35.01 51.97 35.03"/>
        <polygon class="cls-160" points="51.97 35.05 47.36 34.67 47.36 34.65 51.97 35.03 51.97 35.05"/>
        <polygon class="cls-41" points="51.97 35.07 47.36 34.69 47.36 34.67 51.97 35.05 51.97 35.07"/>
        <polygon class="cls-177" points="51.97 35.09 47.36 34.71 47.36 34.69 51.97 35.07 51.97 35.09"/>
        <polygon class="cls-21" points="51.97 35.11 47.36 34.73 47.36 34.71 51.97 35.09 51.97 35.11"/>
        <polygon class="cls-142" points="51.97 35.13 47.36 34.75 47.36 34.73 51.97 35.11 51.97 35.13"/>
        <polygon class="cls-68" points="51.97 35.16 47.36 34.77 47.36 34.75 51.97 35.13 51.97 35.16"/>
        <polygon class="cls-93" points="51.97 35.18 47.36 34.8 47.36 34.77 51.97 35.16 51.97 35.18"/>
        <polygon class="cls-154" points="51.97 35.2 47.36 34.82 47.36 34.8 51.97 35.18 51.97 35.2"/>
        <polygon class="cls-44" points="51.97 35.22 47.36 34.84 47.36 34.82 51.97 35.2 51.97 35.22"/>
        <polygon class="cls-47" points="51.97 35.24 47.36 34.86 47.36 34.84 51.97 35.22 51.97 35.24"/>
        <polygon class="cls-134" points="51.97 35.26 47.36 34.88 47.36 34.86 51.97 35.24 51.97 35.26"/>
        <polygon class="cls-61" points="51.97 35.28 47.36 34.9 47.36 34.88 51.97 35.26 51.97 35.28"/>
        <polygon class="cls-10" points="51.97 35.3 47.36 34.92 47.36 34.9 51.97 35.28 51.97 35.3"/>
        <polygon class="cls-133" points="51.97 35.33 47.36 34.94 47.36 34.92 51.97 35.3 51.97 35.33"/>
        <polygon class="cls-50" points="51.97 35.35 47.36 34.97 47.36 34.94 51.97 35.33 51.97 35.35"/>
        <polygon class="cls-116" points="51.97 35.37 47.36 34.99 47.36 34.97 51.97 35.35 51.97 35.37"/>
        <polygon class="cls-141" points="51.97 35.39 47.36 35.01 47.36 34.99 51.97 35.37 51.97 35.39"/>
        <polygon class="cls-102" points="51.97 35.41 47.36 35.03 47.36 35.01 51.97 35.39 51.97 35.41"/>
        <polygon class="cls-87" points="51.97 35.43 47.36 35.05 47.36 35.03 51.97 35.41 51.97 35.43"/>
        <polygon class="cls-89" points="51.97 35.45 47.36 35.07 47.36 35.05 51.97 35.43 51.97 35.45"/>
        <polygon class="cls-92" points="51.97 35.47 47.36 35.09 47.36 35.07 51.97 35.45 51.97 35.47"/>
        <polygon class="cls-147" points="51.97 35.5 47.36 35.11 47.36 35.09 51.97 35.47 51.97 35.5"/>
        <polygon class="cls-58" points="51.97 35.52 47.36 35.14 47.36 35.11 51.97 35.5 51.97 35.52"/>
        <polygon class="cls-71" points="51.97 35.54 47.36 35.16 47.36 35.14 51.97 35.52 51.97 35.54"/>
        <polygon class="cls-15" points="51.97 35.56 47.36 35.18 47.36 35.16 51.97 35.54 51.97 35.56"/>
        <polygon class="cls-83" points="51.97 35.58 47.36 35.2 47.36 35.18 51.97 35.56 51.97 35.58"/>
        <polygon class="cls-83" points="51.97 35.6 47.36 35.22 47.36 35.2 51.97 35.58 51.97 35.6"/>
        <polygon class="cls-94" points="51.97 35.62 47.36 35.24 47.36 35.22 51.97 35.6 51.97 35.62"/>
        <polygon class="cls-28" points="51.97 35.64 47.36 35.26 47.36 35.24 51.97 35.62 51.97 35.64"/>
        <polygon class="cls-28" points="51.97 35.67 47.36 35.28 47.36 35.26 51.97 35.64 51.97 35.67"/>
        <polygon class="cls-166" points="51.97 35.69 47.36 35.31 47.36 35.28 51.97 35.67 51.97 35.69"/>
        <polygon class="cls-73" points="51.97 35.71 47.36 35.33 47.36 35.31 51.97 35.69 51.97 35.71"/>
        <polygon class="cls-161" points="51.97 35.73 47.36 35.35 47.36 35.33 51.97 35.71 51.97 35.73"/>
        <polygon class="cls-80" points="51.97 35.75 47.36 35.37 47.36 35.35 51.97 35.73 51.97 35.75"/>
        <polygon class="cls-35" points="51.97 35.77 47.36 35.39 47.36 35.37 51.97 35.75 51.97 35.77"/>
        <polygon class="cls-135" points="51.97 35.79 47.36 35.41 47.36 35.39 51.97 35.77 51.97 35.79"/>
        <polygon class="cls-175" points="51.97 35.81 47.36 35.43 47.36 35.41 51.97 35.79 51.97 35.81"/>
        <polygon class="cls-74" points="51.97 35.84 47.36 35.46 47.36 35.43 51.97 35.81 51.97 35.84"/>
        <polygon class="cls-38" points="51.97 35.86 47.36 35.48 47.36 35.46 51.97 35.84 51.97 35.86"/>
        <polygon class="cls-20" points="51.97 35.88 47.36 35.5 47.36 35.48 51.97 35.86 51.97 35.88"/>
        <polygon class="cls-34" points="51.97 35.9 47.36 35.52 47.36 35.5 51.97 35.88 51.97 35.9"/>
        <polygon class="cls-126" points="51.97 35.92 47.36 35.54 47.36 35.52 51.97 35.9 51.97 35.92"/>
        <polygon class="cls-88" points="51.97 35.94 47.36 35.56 47.36 35.54 51.97 35.92 51.97 35.94"/>
        <polygon class="cls-168" points="51.97 35.96 47.36 35.58 47.36 35.56 51.97 35.94 51.97 35.96"/>
        <polygon class="cls-32" points="51.97 35.99 47.36 35.6 47.36 35.58 51.97 35.96 51.97 35.99"/>
        <polygon class="cls-119" points="51.97 36.01 47.36 35.63 47.36 35.6 51.97 35.99 51.97 36.01"/>
        <polygon class="cls-108" points="51.97 36.03 47.36 35.65 47.36 35.63 51.97 36.01 51.97 36.03"/>
        <polygon class="cls-8" points="51.97 36.05 47.36 35.67 47.36 35.65 51.97 36.03 51.97 36.05"/>
        <polygon class="cls-138" points="51.97 36.07 47.36 35.69 47.36 35.67 51.97 36.05 51.97 36.07"/>
        <polygon class="cls-138" points="51.97 36.09 47.36 35.71 47.36 35.69 51.97 36.07 51.97 36.09"/>
        <polygon class="cls-30" points="51.97 36.11 47.36 35.73 47.36 35.71 51.97 36.09 51.97 36.11"/>
        <polygon class="cls-18" points="51.97 36.13 47.36 35.75 47.36 35.73 51.97 36.11 51.97 36.13"/>
        <polygon class="cls-124" points="51.97 36.16 47.36 35.77 47.36 35.75 51.97 36.13 51.97 36.16"/>
        <polygon class="cls-91" points="51.97 36.18 47.36 35.8 47.36 35.77 51.97 36.16 51.97 36.18"/>
        <polygon class="cls-127" points="51.97 36.2 47.36 35.82 47.36 35.8 51.97 36.18 51.97 36.2"/>
        <polygon class="cls-127" points="51.97 36.22 47.36 35.84 47.36 35.82 51.97 36.2 51.97 36.22"/>
        <polygon class="cls-56" points="51.97 36.24 47.36 35.86 47.36 35.84 51.97 36.22 51.97 36.24"/>
        <polygon class="cls-56" points="51.97 36.26 47.36 35.88 47.36 35.86 51.97 36.24 51.97 36.26"/>
        <polygon class="cls-54" points="51.97 36.28 47.36 35.9 47.36 35.88 51.97 36.26 51.97 36.28"/>
        <polygon class="cls-167" points="51.97 36.3 47.36 35.92 47.36 35.9 51.97 36.28 51.97 36.3"/>
        <polygon class="cls-167" points="51.97 36.33 47.36 35.94 47.36 35.92 51.97 36.3 51.97 36.33"/>
        <polygon class="cls-9" points="51.97 36.35 47.36 35.97 47.36 35.94 51.97 36.33 51.97 36.35"/>
        <polygon class="cls-70" points="51.97 36.37 47.36 35.99 47.36 35.97 51.97 36.35 51.97 36.37"/>
        <polygon class="cls-152" points="51.97 36.39 47.36 36.01 47.36 35.99 51.97 36.37 51.97 36.39"/>
        <polygon class="cls-59" points="51.97 36.41 47.36 36.03 47.36 36.01 51.97 36.39 51.97 36.41"/>
        <polygon class="cls-172" points="51.97 36.43 47.36 36.05 47.36 36.03 51.97 36.41 51.97 36.43"/>
        <polygon class="cls-112" points="51.97 36.45 47.36 36.07 47.36 36.05 51.97 36.43 51.97 36.45"/>
        <polygon class="cls-112" points="51.97 36.47 47.36 36.09 47.36 36.07 51.97 36.45 51.97 36.47"/>
        <polygon class="cls-3" points="51.97 36.5 47.36 36.11 47.36 36.09 51.97 36.47 51.97 36.5"/>
        <polygon class="cls-51" points="51.97 36.52 47.36 36.14 47.36 36.11 51.97 36.5 51.97 36.52"/>
        <polygon class="cls-156" points="51.97 36.54 47.36 36.16 47.36 36.14 51.97 36.52 51.97 36.54"/>
        <polygon class="cls-156" points="51.97 36.56 47.36 36.18 47.36 36.16 51.97 36.54 51.97 36.56"/>
        <polygon class="cls-86" points="51.97 36.58 47.36 36.2 47.36 36.18 51.97 36.56 51.97 36.58"/>
        <polygon class="cls-46" points="51.97 36.6 47.36 36.22 47.36 36.2 51.97 36.58 51.97 36.6"/>
        <polygon class="cls-46" points="51.97 36.62 47.36 36.24 47.36 36.22 51.97 36.6 51.97 36.62"/>
        <polygon class="cls-96" points="51.97 36.64 47.36 36.26 47.36 36.24 51.97 36.62 51.97 36.64"/>
        <polygon class="cls-96" points="51.97 36.67 47.36 36.28 47.36 36.26 51.97 36.64 51.97 36.67"/>
        <polygon class="cls-105" points="51.97 36.69 47.36 36.31 47.36 36.28 51.97 36.67 51.97 36.69"/>
        <polygon class="cls-14" points="51.97 36.71 47.36 36.33 47.36 36.31 51.97 36.69 51.97 36.71"/>
        <polygon class="cls-103" points="51.97 36.73 47.36 36.35 47.36 36.33 51.97 36.71 51.97 36.73"/>
        <polygon class="cls-103" points="51.97 36.75 47.36 36.37 47.36 36.35 51.97 36.73 51.97 36.75"/>
        <polygon class="cls-42" points="51.97 36.77 47.36 36.39 47.36 36.37 51.97 36.75 51.97 36.77"/>
        <polygon class="cls-173" points="51.97 36.79 47.36 36.41 47.36 36.39 51.97 36.77 51.97 36.79"/>
        <polygon class="cls-173" points="51.97 36.82 47.36 36.43 47.36 36.41 51.97 36.79 51.97 36.82"/>
        <polygon class="cls-114" points="51.97 36.84 47.36 36.46 47.36 36.43 51.97 36.82 51.97 36.84"/>
        <polygon class="cls-55" points="51.97 36.86 47.36 36.48 47.36 36.46 51.97 36.84 51.97 36.86"/>
        <polygon class="cls-31" points="51.97 36.88 47.36 36.5 47.36 36.48 51.97 36.86 51.97 36.88"/>
        <polygon class="cls-25" points="51.97 36.9 47.36 36.52 47.36 36.5 51.97 36.88 51.97 36.9"/>
        <polygon class="cls-25" points="51.97 36.92 47.36 36.54 47.36 36.52 51.97 36.9 51.97 36.92"/>
        <polygon class="cls-164" points="51.97 36.94 47.36 36.56 47.36 36.54 51.97 36.92 51.97 36.94"/>
        <polygon class="cls-129" points="51.97 36.96 47.36 36.58 47.36 36.56 51.97 36.94 51.97 36.96"/>
        <polygon class="cls-129" points="51.97 36.99 47.36 36.6 47.36 36.58 51.97 36.96 51.97 36.99"/>
        <polygon class="cls-129" points="51.97 37.01 47.36 36.63 47.36 36.6 51.97 36.99 51.97 37.01"/>
        <polygon class="cls-90" points="51.97 37.03 47.36 36.65 47.36 36.63 51.97 37.01 51.97 37.03"/>
        <polygon class="cls-90" points="51.97 37.05 47.36 36.67 47.36 36.65 51.97 37.03 51.97 37.05"/>
        <polygon class="cls-78" points="51.97 37.07 47.36 36.69 47.36 36.67 51.97 37.05 51.97 37.07"/>
        <polygon class="cls-78" points="51.97 37.09 47.36 36.71 47.36 36.69 51.97 37.07 51.97 37.09"/>
        <polygon class="cls-139" points="51.97 37.11 47.36 36.73 47.36 36.71 51.97 37.09 51.97 37.11"/>
        <polygon class="cls-4" points="51.97 37.13 47.36 36.75 47.36 36.73 51.97 37.11 51.97 37.13"/>
        <polygon class="cls-4" points="51.97 37.16 47.36 36.77 47.36 36.75 51.97 37.13 51.97 37.16"/>
        <polygon class="cls-45" points="51.97 37.18 47.36 36.8 47.36 36.77 51.97 37.16 51.97 37.18"/>
        <polygon class="cls-60" points="51.97 37.2 47.36 36.82 47.36 36.8 51.97 37.18 51.97 37.2"/>
        <polygon class="cls-85" points="51.97 37.22 47.36 36.84 47.36 36.82 51.97 37.2 51.97 37.22"/>
        <polygon class="cls-85" points="51.97 37.24 47.36 36.86 47.36 36.84 51.97 37.22 51.97 37.24"/>
        <polygon class="cls-85" points="51.97 37.26 47.36 36.88 47.36 36.86 51.97 37.24 51.97 37.26"/>
        <polygon class="cls-174" points="51.97 37.28 47.36 36.9 47.36 36.88 51.97 37.26 51.97 37.28"/>
        <polygon class="cls-11" points="51.97 37.3 47.36 36.92 47.36 36.9 51.97 37.28 51.97 37.3"/>
        <polygon class="cls-11" points="51.97 37.33 47.36 36.94 47.36 36.92 51.97 37.3 51.97 37.33"/>
        <polygon class="cls-169" points="51.97 37.35 47.36 36.97 47.36 36.94 51.97 37.33 51.97 37.35"/>
        <polygon class="cls-137" points="51.97 37.37 47.36 36.99 47.36 36.97 51.97 37.35 51.97 37.37"/>
        <polygon class="cls-137" points="51.97 37.39 47.36 37.01 47.36 36.99 51.97 37.37 51.97 37.39"/>
        <polygon class="cls-137" points="51.97 37.41 47.36 37.03 47.36 37.01 51.97 37.39 51.97 37.41"/>
        <polygon class="cls-137" points="51.97 37.43 47.36 37.05 47.36 37.03 51.97 37.41 51.97 37.43"/>
        <polygon class="cls-40" points="51.97 37.45 47.36 37.07 47.36 37.05 51.97 37.43 51.97 37.45"/>
        <polygon class="cls-97" points="51.97 37.47 47.36 37.09 47.36 37.07 51.97 37.45 51.97 37.47"/>
        <polygon class="cls-19" points="51.92 37.49 47.36 37.11 47.36 37.09 51.97 37.47 51.97 37.49 51.92 37.49"/>
        <polygon class="cls-19" points="51.66 37.49 47.36 37.14 47.36 37.11 51.92 37.49 51.66 37.49"/>
        <polygon class="cls-19" points="51.4 37.49 47.36 37.16 47.36 37.14 51.66 37.49 51.4 37.49"/>
        <polygon class="cls-19" points="51.14 37.49 47.36 37.18 47.36 37.16 51.4 37.49 51.14 37.49"/>
        <polygon class="cls-19" points="50.89 37.49 47.36 37.2 47.36 37.18 51.14 37.49 50.89 37.49"/>
        <polygon class="cls-19" points="50.63 37.49 47.36 37.22 47.36 37.2 50.89 37.49 50.63 37.49"/>
        <polygon class="cls-67" points="50.37 37.49 47.36 37.24 47.36 37.22 50.63 37.49 50.37 37.49"/>
        <polygon class="cls-148" points="50.11 37.49 47.36 37.26 47.36 37.24 50.37 37.49 50.11 37.49"/>
        <polygon class="cls-148" points="49.86 37.49 47.36 37.28 47.36 37.26 50.11 37.49 49.86 37.49"/>
        <polygon class="cls-148" points="49.6 37.49 47.36 37.31 47.36 37.28 49.86 37.49 49.6 37.49"/>
        <polygon class="cls-148" points="49.34 37.49 47.36 37.33 47.36 37.31 49.6 37.49 49.34 37.49"/>
        <polygon class="cls-148" points="49.08 37.49 47.36 37.35 47.36 37.33 49.34 37.49 49.08 37.49"/>
        <polygon class="cls-148" points="48.83 37.49 47.36 37.37 47.36 37.35 49.08 37.49 48.83 37.49"/>
        <polygon class="cls-148" points="48.57 37.49 47.36 37.39 47.36 37.37 48.83 37.49 48.57 37.49"/>
        <polygon class="cls-36" points="48.31 37.49 47.36 37.41 47.36 37.39 48.57 37.49 48.31 37.49"/>
        <polygon class="cls-36" points="48.05 37.49 47.36 37.43 47.36 37.41 48.31 37.49 48.05 37.49"/>
        <polygon class="cls-52" points="47.79 37.49 47.36 37.46 47.36 37.43 48.05 37.49 47.79 37.49"/>
        <polygon class="cls-52" points="47.54 37.49 47.36 37.48 47.36 37.46 47.79 37.49 47.54 37.49"/>
        <polygon class="cls-52" points="47.36 37.48 47.54 37.49 47.36 37.49 47.36 37.48"/>
      </g>
      <path class="cls-43" d="M49.56,36.71c-.65-.05-1.15-.71-1.09-1.42.06-.72.66-1.28,1.31-1.22.65.05,1.15.7,1.09,1.42-.06.72-.66,1.28-1.31,1.23Z"/>
      <path class="cls-130" d="M49.62,36.45c-.45-.04-.92-.53-.87-1.14.05-.61.59-1.02,1.05-.98.45.04.92.53.87,1.14-.05.61-.6,1.02-1.05.98Z"/>
      <path class="cls-95" d="M49.25,34.95c-.02.22-.25.38-.51.36-.26-.02-.46-.22-.44-.44.02-.22.24-.38.51-.36.26.02.46.22.44.44Z"/>
      <path class="cls-95" d="M50.71,36.22c0,.11-.12.19-.25.18-.13-.01-.23-.11-.22-.22,0-.11.12-.19.25-.18.13.01.23.11.22.22Z"/>
      <path class="cls-5" d="M23.02,37.24c.98-1.6,2.52-.93,2.91-.58.41.38.73.88.49,1.82-.13.53-.69.58-.55,1.38.16.9.58.96.82,1.16.24.2.54.35.69.74.15.38.17.78.1,1.13-.15.65-1.11.15-1.74-.14-.42-.19-1.76-1.3-2.1-1.67-.85-.95-1.26-2.78-.61-3.85"/>
      <path class="cls-26" d="M43.73,44.39c.35-.23.75-.12.75-.12,0,0,0,0-.01.02-.08.14-.55.88-.92.87,0,0-.08-.07-.1-.25-.03-.18.12-.41.28-.53Z"/>
      <path class="cls-110" d="M64.97,16.75c-.06.15-.17.29-.32.42.21-.26.32-.42.32-.42-.35.23-.68.42-1,.6-6.05,3.28-7.74-2.48-7.74-2.48.63-5.43,7.13-5.35,7.13-5.35,0,0-5.52-2.72-7.65,2.61-.28-2.87,1.24-5.65,1.24-5.65-2.46.53-3.5,2.56-3.93,4.3-1.52-2.98.05-5.19.05-5.19l-8.45,3.42c1.1-.89,2.81-2.53,2.81-2.53,0,0-2.62.27-6.67,1.44-2.85.82-4.55,2.28-5.51,2.95l-.03-2.43s-4.14,2.9-8.06,6.7c-3.92,3.8-5.42,7.38-5.42,11.4s1.76,8.05,2.91,9.25c1.15,1.2.78,2.93,1.13,2.93,0,0,.83.03.71-3.93.45-4.5,2.49-6.3,3.63-6.96,2-1.07,5.02-1.27,9.54,1.06h0c2.79,1.65,3.91-.55,7.85-1.65,6.72-1.89,9.5,3.06,8.94,5.62-.87,3.93.34,6.2.8,6.09,0,0,.02-1,.44-1.89,1.24-2.65,2.28-.81,2.47-4.4.22-4.21.95-5.75.72-8-.13-1.27-.58-2.78-.94-3.84,4.51-.07,5.03-4.07,5.03-4.07Z"/>
      <rect class="cls-95" x="34.64" y="69.7" width="14.14" height="9.17"/>
      <path class="cls-24" d="M33.37,58.8c-1.15,3.36-5.6,5.36-6.27,5.65-.05.02-.11.04-.16.05-.09.03-.18.06-.28.09-.99.33-1.94.63-2.7.88h-.01c-1.11.35-1.86.58-1.89.6-3.4,2.04-2.57,3.02-3.05,5.13h0v.04s-.03.08-.04.15h0c-.06.3-.11.88-.15,1.57h6.27c-.64,2.32-1.1,3.46-1.29,5.93h15.91v-13.69c0-3.51-2.83-6.37-6.35-6.39Z"/>
      <path class="cls-24" d="M50.44,58.8c1.15,3.36,5.6,5.36,6.27,5.65.05.02.11.04.16.05.09.03.18.06.28.09.99.33,1.94.63,2.7.88h.01c1.11.35,1.86.58,1.89.6,3.4,2.04,2.57,3.02,3.05,5.13h0v.04s.03.08.04.15h0c.06.3.11.88.15,1.57h-6.27c.64,2.32,1.1,3.46,1.29,5.93h-15.91v-13.69c0-3.51,2.83-6.37,6.35-6.39Z"/>
      <g>
        <path class="cls-79" d="M28.68,50.49c-.07-.01-.14-.01-.2,0,0-.03,0-.05-.01-.08.06-.02.12-.05.17-.09.4-.3.58-.73.4-.98-.18-.24-.64-.19-1.05.11-.05.04-.09.08-.13.12-.06-.03-.12-.07-.18-.09,0-.04.01-.08.01-.12,0-.4-.14-.72-.35-.85v-3.56c.25-.07.43-.29.43-.56,0-.33-.27-.59-.59-.59s-.59.27-.59.59c0,.27.18.49.43.56v3.54c-.23.1-.4.43-.41.85,0,.06,0,.12.02.17-.06.03-.11.06-.17.09-.04-.06-.09-.11-.15-.15-.4-.3-.87-.34-1.05-.11-.18.25,0,.68.4.98.07.05.15.09.24.12,0,.04-.01.08-.02.11-.07,0-.13,0-.2,0-.49.08-.86.38-.8.68.05.29.48.46.98.38.11-.02.21-.06.3-.12.03.04.07.08.1.11-.07.07-.13.14-.17.23-.22.45-.17.92.09,1.05.27.13.66-.13.88-.58.05-.1.07-.22.08-.33.01,0,.02,0,.04,0,.02,0,.05,0,.07,0,0,.11.03.22.08.33.22.45.62.71.88.58.27-.13.32-.6.1-1.05-.05-.1-.12-.18-.2-.25.04-.04.08-.09.11-.14.08.05.17.09.27.11.5.08.94-.09.99-.39.05-.29-.31-.6-.81-.68Z"/>
        <path class="cls-79" d="M58.17,50.64c-.07-.01-.14-.01-.2,0,0-.03,0-.05-.01-.08.06-.02.12-.05.17-.09.4-.3.58-.73.4-.97-.18-.24-.64-.19-1.05.11-.05.04-.09.08-.13.12-.06-.03-.12-.07-.18-.09,0-.04.01-.08.01-.12,0-.4-.14-.72-.35-.85v-3.56c.25-.07.43-.29.43-.56,0-.33-.27-.59-.59-.59s-.59.27-.59.59c0,.27.18.49.43.56v3.54c-.23.1-.4.43-.41.85,0,.06,0,.12.02.17-.06.03-.11.06-.17.09-.04-.06-.09-.11-.15-.15-.4-.3-.87-.35-1.05-.11-.18.25,0,.68.4.97.07.05.15.09.24.12,0,.04-.01.08-.02.11-.07,0-.13,0-.2,0-.49.08-.86.38-.8.68.05.29.48.46.98.38.11-.02.21-.06.3-.12.03.04.07.08.1.11-.07.07-.13.14-.17.23-.22.45-.17.92.09,1.05.27.13.66-.13.88-.58.05-.1.07-.22.08-.33.01,0,.02,0,.04,0,.02,0,.05,0,.07,0,0,.11.03.22.08.33.22.45.62.71.88.58.27-.13.32-.6.1-1.05-.05-.1-.12-.18-.2-.25.04-.04.08-.09.12-.14.08.05.17.09.27.11.5.08.94-.09.99-.39.05-.29-.31-.6-.81-.68Z"/>
      </g>
      <g>
        <path class="cls-22" d="M39.62,36.69c0,3.11-3.43,6.19-7.37,6.19-5.5,0-6.24-2.74-6.24-5.85s-1.36-5.63,6.7-5.63,6.92,2.19,6.92,5.29"/>
        <path class="cls-22" d="M45.14,36.69c0,3.11,3.43,6.19,7.37,6.19,5.5,0,6.24-2.74,6.24-5.85s1.36-5.63-6.69-5.63-6.92,2.19-6.92,5.29"/>
        <path class="cls-57" d="M29.4,42.08c1.44.44,6.83,1.06,9.07-3.1-4.5-2.31-9.03-1.06-11.66.1.77,2.34,2.06,2.84,2.6,3Z"/>
        <path class="cls-57" d="M55.3,42.08c.5-.15,1.66-.59,2.44-2.56-4.28-2.56-8.38-1.27-11.03.22,2.44,3.32,7.25,2.75,8.59,2.34Z"/>
        <path class="cls-95" d="M25.19,34.99c.18.67.89,5.5,2.48,6.82,2.61,2.17,11.41,2.27,12.93-5.65.21-1.08.48-1.71.95-1.89.19-.07.48-.12.77-.13.29,0,.57.06.76.13.47.18.75.81.96,1.89,1.51,7.92,10.31,7.82,12.93,5.65,1.59-1.32,2.3-6.15,2.48-6.82.18-.67.9-1.08,1.11-1.28.21-.2.05-2.1-.02-2.25-.1-.2-2.07-.5-4.64-.74-2.17-.2-5.65-.07-7.02.12-.56.08-1.59.27-2.6.54-1.13.31-2.25.7-2.71.8-.45.09-.8.13-1.17.12h0s-.06,0-.08,0c-.03,0-.06,0-.08,0h0c-.37.01-.72-.02-1.17-.12-.46-.1-1.58-.49-2.72-.8-1.01-.27-2.03-.47-2.6-.54-1.37-.19-4.86-.33-7.02-.12-2.57.24-4.53.53-4.64.74-.07.15-.23,2.04-.02,2.25.2.21.93.61,1.11,1.28ZM45.47,33.46c.27-.96,2.95-1.53,4.1-1.67,1.15-.15,2.85-.25,4.77,0,2.35.29,4.02.51,3.79,4.02-.33,5.05-2.39,5.86-3.09,6.07-1.61.49-8.23,1.21-9.6-4.99-.3-1.36-.23-2.45.04-3.41ZM30.32,31.78c1.92-.24,3.62-.14,4.76,0,1.15.15,3.84.71,4.11,1.67.26.96.33,2.06.03,3.41-1.37,6.21-8,5.48-9.6,4.99-.71-.21-2.77-1.02-3.09-6.07-.23-3.51,1.43-3.72,3.79-4.02Z"/>
      </g>
    </g>
  </g>
</svg>