<?xml version="1.0" encoding="UTF-8"?>
<svg id="Layer_2" data-name="Layer 2" xmlns="http://www.w3.org/2000/svg" xmlns:xlink="http://www.w3.org/1999/xlink" viewBox="0 0 78.88 78.88">
  <defs>
    <style>
      .cls-1 {
        fill: #dc8d00;
      }

      .cls-2 {
        fill: none;
      }

      .cls-3 {
        fill: #354148;
      }

      .cls-4 {
        fill: #7d99ae;
      }

      .cls-5 {
        fill: #84a2b8;
      }

      .cls-6 {
        fill: #debaad;
      }

      .cls-7 {
        fill: #4e606b;
      }

      .cls-8 {
        fill: #bf6c6c;
      }

      .cls-9 {
        fill: #ededeb;
        opacity: .55;
      }

      .cls-10 {
        fill: #7791a4;
      }

      .cls-11 {
        fill: #7b97ab;
      }

      .cls-12 {
        fill: #677e8d;
      }

      .cls-13 {
        fill: #86a3ba;
      }

      .cls-14 {
        fill: #364349;
      }

      .cls-15 {
        fill: #313d43;
      }

      .cls-16 {
        fill: #809cb2;
      }

      .cls-17 {
        fill: #6d8596;
      }

      .cls-18 {
        fill: #44545c;
      }

      .cls-19 {
        fill: #46565f;
      }

      .cls-20 {
        fill: #7893a6;
      }

      .cls-21 {
        fill: #2d4759;
      }

      .cls-22 {
        fill: #87a5bc;
      }

      .cls-23 {
        fill: #748d9f;
      }

      .cls-24 {
        fill: #627886;
      }

      .cls-25 {
        fill: #576b77;
      }

      .cls-26 {
        fill: #829fb5;
      }

      .cls-27 {
        fill: #b89388;
      }

      .cls-28 {
        fill: #485862;
      }

      .cls-29 {
        fill: #6f8899;
      }

      .cls-30 {
        fill: #5b6f7c;
      }

      .cls-31 {
        fill: #7892a6;
      }

      .cls-32 {
        fill: #829fb4;
      }

      .cls-33 {
        fill: #7690a2;
      }

      .cls-34 {
        fill: #596c79;
      }

      .cls-35 {
        fill: #748ea0;
      }

      .cls-36 {
        fill: #728b9c;
      }

      .cls-37 {
        fill: #88a6be;
      }

      .cls-38 {
        fill: #a88a6b;
      }

      .cls-39 {
        fill: #738d9f;
      }

      .cls-40 {
        fill: #495963;
      }

      .cls-41 {
        fill: #87a4bb;
      }

      .cls-42 {
        fill: #617785;
      }

      .cls-43 {
        fill: #819db3;
      }

      .cls-44 {
        fill: #95bacb;
      }

      .cls-45 {
        fill: #657b8a;
      }

      .cls-46 {
        fill: #85a2b8;
      }

      .cls-47 {
        fill: #7f9bb0;
      }

      .cls-48 {
        fill: #667c8b;
      }

      .cls-49 {
        fill: #38454c;
      }

      .cls-50 {
        fill: #3e4d54;
      }

      .cls-51 {
        fill: #687f8f;
      }

      .cls-52 {
        fill: #7e9aae;
      }

      .cls-53 {
        fill: #88a7be;
      }

      .cls-54 {
        fill: #5b707d;
      }

      .cls-55 {
        fill: #7a96a9;
      }

      .cls-56 {
        fill: #829eb4;
      }

      .cls-57 {
        fill: #7a95a9;
      }

      .cls-58 {
        fill: #6c8495;
      }

      .cls-59 {
        fill: #7c98ac;
      }

      .cls-60 {
        fill: #85a2b9;
      }

      .cls-61 {
        fill: #677d8d;
      }

      .cls-62 {
        fill: #39464e;
      }

      .cls-63 {
        fill: #3d4b53;
      }

      .cls-64 {
        fill: #344046;
      }

      .cls-65 {
        fill: #586c78;
      }

      .cls-66 {
        fill: #596d7a;
      }

      .cls-67 {
        fill: #87a6bd;
      }

      .cls-68 {
        fill: #637988;
      }

      .cls-69 {
        fill: #37444b;
      }

      .cls-70 {
        fill: #7c97ab;
      }

      .cls-71 {
        fill: #6d8595;
      }

      .cls-72 {
        fill: #526570;
      }

      .cls-73 {
        fill: #70899b;
      }

      .cls-74 {
        fill: #738c9e;
      }

      .cls-75 {
        fill: #4e5f6a;
      }

      .cls-76 {
        clip-path: url(#clippath-1);
      }

      .cls-77 {
        fill: #546672;
      }

      .cls-78 {
        fill: #84a1b7;
      }

      .cls-79 {
        fill: #718a9c;
      }

      .cls-80 {
        fill: #5f7481;
      }

      .cls-81 {
        fill: #f1d4c8;
      }

      .cls-82 {
        fill: #6e8697;
      }

      .cls-83 {
        fill: #303c42;
      }

      .cls-84 {
        fill: #85a3b9;
      }

      .cls-85 {
        fill: #1e1f1a;
        opacity: .4;
      }

      .cls-86 {
        fill: #7e9baf;
      }

      .cls-87 {
        fill: #6a8292;
      }

      .cls-88 {
        fill: #758fa1;
      }

      .cls-89 {
        fill: #6b8292;
      }

      .cls-90 {
        fill: #83a1b7;
      }

      .cls-91 {
        fill: #7994a7;
      }

      .cls-92 {
        fill: #6b8393;
      }

      .cls-93 {
        fill: #647a89;
      }

      .cls-94 {
        fill: #6e8798;
      }

      .cls-95 {
        fill: #fff;
      }

      .cls-96 {
        fill: #7f9cb1;
      }

      .cls-97 {
        fill: #87a5bb;
      }

      .cls-98 {
        fill: #536671;
      }

      .cls-99 {
        fill: #5e7380;
      }

      .cls-100 {
        fill: #4d5e69;
      }

      .cls-101 {
        fill: #566975;
      }

      .cls-102 {
        fill: #6a8191;
      }

      .cls-103 {
        fill: #809db2;
      }

      .cls-104 {
        fill: #4c5d68;
      }

      .cls-105 {
        fill: #809cb1;
      }

      .cls-106 {
        fill: #4b5c67;
      }

      .cls-107 {
        fill: #475760;
      }

      .cls-108 {
        fill: #7691a3;
      }

      .cls-109 {
        fill: #3a484f;
      }

      .cls-110 {
        fill: #51636e;
      }

      .cls-111 {
        fill: #7d99ad;
      }

      .cls-112 {
        fill: #4f616c;
      }

      .cls-113 {
        fill: #819eb4;
      }

      .cls-114 {
        fill: #4a5b65;
      }

      .cls-115 {
        fill: #698090;
      }

      .cls-116 {
        opacity: .3;
      }

      .cls-117 {
        fill: #7690a3;
      }

      .cls-118 {
        fill: #5d727f;
      }

      .cls-119 {
        fill: #415059;
      }

      .cls-120 {
        fill: #2d383d;
      }

      .cls-121 {
        fill: #50626d;
      }

      .cls-122 {
        fill: #7893a7;
      }

      .cls-123 {
        fill: #43525b;
      }

      .cls-124 {
        fill: #748ea1;
      }

      .cls-125 {
        fill: #7994a8;
      }

      .cls-126 {
        fill: #546773;
      }

      .cls-127 {
        fill: #83a0b6;
      }

      .cls-128 {
        fill: #26200c;
      }

      .cls-129 {
        fill: #607583;
      }

      .cls-130 {
        fill: #556874;
      }

      .cls-131 {
        fill: #687f8e;
      }

      .cls-132 {
        fill: #667d8c;
      }

      .cls-133 {
        fill: #728b9d;
      }

      .cls-134 {
        fill: #323f45;
      }

      .cls-135 {
        fill: #86a4bb;
      }

      .cls-136 {
        fill: #7792a5;
      }

      .cls-137 {
        fill: #84a1b8;
      }

      .cls-138 {
        fill: #5c707e;
      }

      .cls-139 {
        fill: #698190;
      }

      .cls-140 {
        fill: #637987;
      }

      .cls-141 {
        fill: #3c4a52;
      }

      .cls-142 {
        fill: #42515a;
      }

      .cls-143 {
        fill: #c6a095;
      }

      .cls-144 {
        fill: #3b4950;
      }

      .cls-145 {
        fill: #6c8494;
      }

      .cls-146 {
        fill: #88a6bd;
      }

      .cls-147 {
        fill: #404f57;
      }

      .cls-148 {
        fill: #47433b;
      }

      .cls-149 {
        fill: #51646f;
      }

      .cls-150 {
        fill: #7c97ac;
      }

      .cls-151 {
        fill: #5a6e7b;
      }

      .cls-152 {
        fill: #3b3c3a;
      }

      .cls-153 {
        fill: #647b8a;
      }

      .cls-154 {
        fill: #45555e;
      }

      .cls-155 {
        fill: #7e9aaf;
      }

      .cls-156 {
        fill: #f2f3f2;
      }

      .cls-157 {
        fill: #3f4e56;
      }

      .cls-158 {
        fill: #2f3b40;
      }

      .cls-159 {
        fill: #4a5a64;
      }

      .cls-160 {
        fill: #607684;
      }

      .cls-161 {
        fill: #49443b;
      }

      .cls-162 {
        fill: #718a9b;
      }

      .cls-163 {
        fill: #5d717f;
      }

      .cls-164 {
        fill: #477090;
      }

      .cls-165 {
        clip-path: url(#clippath);
      }

      .cls-166 {
        fill: #82a0b5;
      }

      .cls-167 {
        fill: #2e393f;
      }

      .cls-168 {
        fill: #70899a;
      }

      .cls-169 {
        fill: #7b96aa;
      }

      .cls-170 {
        fill: #758fa2;
      }

      .cls-171 {
        fill: #86a4ba;
      }

      .cls-172 {
        fill: #5f7482;
      }

      .cls-173 {
        fill: #7c98ad;
      }

      .cls-174 {
        fill: #819eb3;
      }

      .cls-175 {
        fill: #85a3ba;
      }

      .cls-176 {
        fill: #728c9e;
      }

      .cls-177 {
        fill: #e6ac3a;
      }

      .cls-178 {
        fill: #576a76;
      }

      .cls-179 {
        fill: #627786;
      }

      .cls-180 {
        fill: #ab5b64;
      }

      .cls-181 {
        fill: #cc4b1d;
      }
    </style>
    <clipPath id="clippath">
      <path class="cls-2" d="M34.59,36.08c-.1,1.18-1.15,2.06-2.36,1.96-1.2-.1-2.1-1.14-2-2.32.1-1.19,1.15-2.07,2.36-1.97,1.2.1,2.1,1.14,2,2.33Z"/>
    </clipPath>
    <clipPath id="clippath-1">
      <path class="cls-2" d="M49.99,35.96c-.1,1.18-1.15,2.06-2.36,1.96-1.2-.1-2.1-1.14-2-2.32.1-1.19,1.15-2.07,2.36-1.97,1.2.1,2.1,1.14,2,2.33Z"/>
    </clipPath>
  </defs>
  <g id="Layer_1-2" data-name="Layer 1">
    <g>
      <rect class="cls-1" width="78.88" height="78.88"/>
      <rect class="cls-164" x="22.79" y="78.88" width="12.83" height="0"/>
      <polygon class="cls-21" points="35.63 78.88 35.63 78.88 40.13 78.88 40.21 78.88 57.55 78.88 57.55 78.88 35.63 78.88"/>
      <path class="cls-161" d="M58.81,51.3c-.39-1.2-.7-1.64-2.34-3.31-1.65-1.68-.95-.82-1.84-2.52-.89-1.71-2.36-3.23-2.36-5.36,0,0-1.62-.96-3.2.85-.39.45-.79,1.33-1.17,2.4-.73.09-1.41.34-1.88.88-1.59,1.81-3.28,10.75-3.41,11.07-.86,2.13-.27,4.33,1.04,5.81.96,1.09,2.11.9,2.74,2.41.63,1.51-.32,3.31-.07,2.81.26-.5,2.04-1.61,1.18-5.68-.15-.71.1-1.35.46-1.91.58.31,1.11.62,1.48,1.49.64,1.51-.32,3.31-.07,2.82.25-.5,2.04-1.61,1.18-5.68-.31-1.45,1.08-2.64,1.53-3.36.21-.35.25-.78.24-1.14.07.35.17.78.35,1.24.38.99,1.07,1.5,1.43,2.67.54,1.74-.92,2.61-.92,2.61,0,0,1.37-.38,1.94-1.52.57-1.14.69-2.23.31-3.58-.31-1.12-.23-1.52-.12-2.57.34.17.74.33,1.23.47,2.55.74,1.59,5.26,1.78,4.69.19-.57,1.26-3.34.5-5.62Z"/>
      <path class="cls-161" d="M22.2,51.89c.39-1.2.7-1.64,2.34-3.31,1.65-1.68.95-.82,1.84-2.52.89-1.71,2.36-3.23,2.36-5.36,0,0,1.62-.96,3.2.85.39.45.79,1.33,1.17,2.4.73.09,1.41.34,1.88.88,1.59,1.81,3.28,10.75,3.41,11.07.86,2.13.27,4.33-1.04,5.81-.96,1.09-2.11.9-2.74,2.41-.63,1.51.32,3.31.07,2.81-.25-.5-2.04-1.61-1.18-5.68.15-.71-.1-1.35-.46-1.91-.58.31-1.11.62-1.48,1.49-.64,1.51.32,3.31.07,2.82-.25-.5-2.04-1.61-1.18-5.68.31-1.45-1.08-2.64-1.53-3.36-.21-.35-.25-.78-.24-1.14-.07.35-.17.78-.35,1.24-.38.99-1.07,1.5-1.43,2.67-.54,1.74.92,2.61.92,2.61,0,0-1.37-.38-1.94-1.52-.57-1.14-.69-2.23-.31-3.58.31-1.12.23-1.52.12-2.57-.34.17-.74.33-1.23.47-2.55.74-1.59,5.26-1.78,4.69-.19-.57-1.26-3.34-.5-5.62Z"/>
      <path class="cls-81" d="M40.5,70.44c2.89.03,6.12-1.81,9.32-7.33-.09-.04-.18-.07-.26-.11-.38-.16-.71-.32-.97-.45l-.07-.02c-.28-.14-.53-.26-.64-.36-.01-.01-.04-.05-.08-.09-.02-.04-.05-.06-.07-.1-.06-.35-1-1.89-1.32-3.56h0c-.07-.35-.11-.67-.12-1.01-.03-.49-.03-.97-.04-1.41-.01-.45-.02-.86-.04-1.2v-.29c-.01-.24-.01-.44-.01-.59-.01-.15-.01-.24-.01-.24,0,0,.35-.3.86-.75.64-.57,1.55-1.4,2.33-2.18.85-.85,1.59-1.66,1.75-2.09.01-.06.02-.11.02-.15,0,0-.02,0-.06.01-.4.06-2.55.44-4.86.8-1.37.21-2.81.43-3.98.57-.46.06-.89.1-1.25.14h-.01c-.34.04-.62.05-.84.05-.24,0-.56-.02-.95-.05h-.03c-.37-.05-.82-.1-1.31-.16-1.07-.14-2.36-.32-3.61-.51-1.15-.19-2.27-.36-3.16-.51-.21-.04-.4-.06-.57-.1-.85-.14-1.39-.24-1.39-.24,0,.16.15.41.4.74,0,0,0,.01.01.01.19.25.44.54.74.86.29.3.6.61.92.92.99.96,2.06,1.91,2.58,2.36.2.17.31.27.31.27,0,0,0,.09-.01.24,0,.15,0,.35-.01.59v.29c0,.1,0,.2-.01.3-.01.65-.04,1.46-.06,2.31-.01.34-.05.66-.12,1-.33,1.67-1.26,3.22-1.32,3.57-.03.04-.05.06-.07.1-.04.04-.06.08-.08.09-.05.05-.14.11-.24.18-.23.14-.48.34-.87.52-.24.1-.51.22-.79.33,1.21,1.85,5.12,7.19,10,7.24Z"/>
      <path class="cls-143" d="M46.42,58.41c-.07-.34-.11-.66-.12-1-.04-1.12-.06-2.2-.07-2.9-1.87.84-3.8,1.32-5.68,1.32-.11.02-.25.02-.38.02s-.27,0-.38-.02c-1.89,0-3.81-.49-5.68-1.32-.01.7-.04,1.77-.07,2.9-.01.34-.05.66-.12,1,1.81,1.51,4.26,3.07,5.88,3.07.1.02.23.02.34.02h0s.03,0,.04,0,.03,0,.04,0h0c.12,0,.24,0,.34-.03,1.62,0,4.07-1.56,5.88-3.07Z"/>
      <g>
        <path class="cls-81" d="M56.22,36c.31-1.73.56-3.05.63-3.31.04-.12.06-.25.1-.37.03-.15.06-.29.09-.42.06-.21.1-.43.15-.64.01-.1.04-.2.05-.3.04-.24.09-.48.12-.71.01-.1.03-.21.04-.31.04-.21.05-.42.08-.64.01-.16.02-.33.05-.47.01-.14.01-.28.02-.41.16-3.26-.54-6.58-2.67-9.59-2.59-3.62-5.56-7.45-12.01-7.99h-5.44c-6.46.54-9.43,4.37-12.01,7.99-2.13,3.01-2.83,6.33-2.67,9.59.01.14.01.27.02.41.02.15.04.31.05.47.02.21.04.42.07.64.01.1.03.21.04.31.04.24.09.47.13.71.01.1.04.2.05.3.05.21.09.43.15.64.03.14.06.27.09.42.04.12.06.25.1.37.08.26.32,1.57.63,3.29-1.72-.84-4.11.36-3.83,3.53.29,3.22,4.21,5.13,5.55,5.45.13.58.24,1.02.33,1.22,1.17,2.96,2.6,3.85,5.09,6.26,2.72,2.61,6.74,5.06,8.73,5.04.06.01.14.01.21.01s.15,0,.21-.01c1.99.01,6-2.43,8.73-5.04,2.5-2.41,3.92-3.3,5.09-6.26.08-.21.19-.63.32-1.21,1.29-.29,5.29-2.21,5.59-5.46.29-3.2-2.15-4.4-3.88-3.51Z"/>
        <path class="cls-6" d="M58.84,37.77c-.97-1.58-2.49-.91-2.87-.57-.4.37-.72.87-.48,1.8.13.52.68.57.54,1.37-.16.89-.57.95-.8,1.15-.23.2-.53.35-.68.73-.14.37-.17.77-.1,1.12.15.65,1.09.14,1.72-.14.42-.18,1.74-1.29,2.08-1.65.84-.94,1.25-2.74.6-3.8"/>
      </g>
      <path class="cls-6" d="M37.39,51.32c-.06-.82,2.31.17,3.09.2.62.02,2.49-.12,2.67-.19,1.31-.49-.07,1.38-2.7,1.48-1.21.05-3.02-.99-3.06-1.49Z"/>
      <g>
        <path class="cls-180" d="M45.22,50.25c-1.51-.28-4.68-.89-4.68-.89-2.62.43-4.67.88-4.68.9-.06,0,2.09,1.93,4.65,1.8h0c2.55.13,4.78-1.8,4.72-1.81Z"/>
        <path class="cls-8" d="M42.04,48.83c-.68-.07-1.15.32-1.49.29-.35.03-.82-.36-1.5-.29-.97.21-1.43.82-3.19,1.43.06.12,1.19-.15,3.3-.11.03,0,.6.32,1.4.31.5,0,1.19-.34,1.22-.34,2.11-.03,3.4.26,3.46.14-2.32-.71-2.23-1.23-3.2-1.44Z"/>
      </g>
      <path class="cls-38" d="M41.79,44.87c.34-.23.74-.12.74-.12,0,0,0,0-.01.02-.08.14-.54.87-.91.86,0,0-.08-.07-.1-.24-.03-.17.11-.4.28-.52Z"/>
      <path class="cls-6" d="M37.17,44.64c-.07-1.65,2.56-.6,3.43-.55.69.04,2.77-.52,2.95-.38,1.22.98-1.3,2.95-2.99,2.95-.45,0-3.34-1.03-3.38-2.03Z"/>
      <path class="cls-27" d="M39.16,44.84c-.34-.23-.74-.12-.74-.12,0,0,0,0,.01.02.08.14.54.87.91.86,0,0,.08-.07.1-.24.03-.17-.11-.4-.28-.52Z"/>
      <path class="cls-161" d="M36.72,32.41s-.4-.4-1.14-.89c-.35-.26-.81-.48-1.3-.71-.49-.23-1.04-.4-1.61-.5-.57-.13-1.15-.16-1.71-.15-.28.02-.55.04-.8.06-.26.01-.49.08-.72.11-.45.07-.82.18-1.09.24-.27.06-.42.1-.42.1,0,0,.13-.08.37-.23.24-.13.57-.37,1.02-.53.44-.19.98-.36,1.58-.48.6-.08,1.26-.12,1.92-.05.66.09,1.3.27,1.87.51.57.24,1.06.56,1.45.86.78.59,1.16,1.18,1.16,1.18h0c.12.18.07.42-.11.54-.15.1-.35.07-.48-.05Z"/>
      <path class="cls-95" d="M27.53,35.1s1.46,3.64,3.73,3.99c2.27.35,4.69-.16,4.69-.16,0,0,.06-4.22-1.12-4.81-1.18-.59-3.87-1.46-7.3.98Z"/>
      <g class="cls-165">
        <polygon class="cls-120" points="34.68 34.45 30.13 34.08 30.13 33.66 34.68 33.66 34.68 34.45"/>
        <polygon class="cls-120" points="34.68 34.47 30.13 34.1 30.13 34.08 34.68 34.45 34.68 34.47"/>
        <polygon class="cls-167" points="34.68 34.5 30.13 34.12 30.13 34.1 34.68 34.47 34.68 34.5"/>
        <polygon class="cls-158" points="34.68 34.52 30.13 34.14 30.13 34.12 34.68 34.5 34.68 34.52"/>
        <polygon class="cls-83" points="34.68 34.54 30.13 34.16 30.13 34.14 34.68 34.52 34.68 34.54"/>
        <polygon class="cls-15" points="34.68 34.56 30.13 34.18 30.13 34.16 34.68 34.54 34.68 34.56"/>
        <polygon class="cls-134" points="34.68 34.58 30.13 34.2 30.13 34.18 34.68 34.56 34.68 34.58"/>
        <polygon class="cls-64" points="34.68 34.6 30.13 34.22 30.13 34.2 34.68 34.58 34.68 34.6"/>
        <polygon class="cls-3" points="34.68 34.62 30.13 34.25 30.13 34.22 34.68 34.6 34.68 34.62"/>
        <polygon class="cls-14" points="34.68 34.64 30.13 34.27 30.13 34.25 34.68 34.62 34.68 34.64"/>
        <polygon class="cls-69" points="34.68 34.66 30.13 34.29 30.13 34.27 34.68 34.64 34.68 34.66"/>
        <polygon class="cls-49" points="34.68 34.68 30.13 34.31 30.13 34.29 34.68 34.66 34.68 34.68"/>
        <polygon class="cls-62" points="34.68 34.71 30.13 34.33 30.13 34.31 34.68 34.68 34.68 34.71"/>
        <polygon class="cls-109" points="34.68 34.73 30.13 34.35 30.13 34.33 34.68 34.71 34.68 34.73"/>
        <polygon class="cls-144" points="34.68 34.75 30.13 34.37 30.13 34.35 34.68 34.73 34.68 34.75"/>
        <polygon class="cls-141" points="34.68 34.77 30.13 34.39 30.13 34.37 34.68 34.75 34.68 34.77"/>
        <polygon class="cls-63" points="34.68 34.79 30.13 34.41 30.13 34.39 34.68 34.77 34.68 34.79"/>
        <polygon class="cls-50" points="34.68 34.81 30.13 34.43 30.13 34.41 34.68 34.79 34.68 34.81"/>
        <polygon class="cls-157" points="34.68 34.83 30.13 34.46 30.13 34.43 34.68 34.81 34.68 34.83"/>
        <polygon class="cls-147" points="34.68 34.85 30.13 34.48 30.13 34.46 34.68 34.83 34.68 34.85"/>
        <polygon class="cls-119" points="34.68 34.87 30.13 34.5 30.13 34.48 34.68 34.85 34.68 34.87"/>
        <polygon class="cls-142" points="34.68 34.89 30.13 34.52 30.13 34.5 34.68 34.87 34.68 34.89"/>
        <polygon class="cls-123" points="34.68 34.92 30.13 34.54 30.13 34.52 34.68 34.89 34.68 34.92"/>
        <polygon class="cls-18" points="34.68 34.94 30.13 34.56 30.13 34.54 34.68 34.92 34.68 34.94"/>
        <polygon class="cls-154" points="34.68 34.96 30.13 34.58 30.13 34.56 34.68 34.94 34.68 34.96"/>
        <polygon class="cls-19" points="34.68 34.98 30.13 34.6 30.13 34.58 34.68 34.96 34.68 34.98"/>
        <polygon class="cls-107" points="34.68 35 30.13 34.62 30.13 34.6 34.68 34.98 34.68 35"/>
        <polygon class="cls-28" points="34.68 35.02 30.13 34.64 30.13 34.62 34.68 35 34.68 35.02"/>
        <polygon class="cls-40" points="34.68 35.04 30.13 34.67 30.13 34.64 34.68 35.02 34.68 35.04"/>
        <polygon class="cls-159" points="34.68 35.06 30.13 34.69 30.13 34.67 34.68 35.04 34.68 35.06"/>
        <polygon class="cls-114" points="34.68 35.08 30.13 34.71 30.13 34.69 34.68 35.06 34.68 35.08"/>
        <polygon class="cls-106" points="34.68 35.1 30.13 34.73 30.13 34.71 34.68 35.08 34.68 35.1"/>
        <polygon class="cls-104" points="34.68 35.13 30.13 34.75 30.13 34.73 34.68 35.1 34.68 35.13"/>
        <polygon class="cls-100" points="34.68 35.15 30.13 34.77 30.13 34.75 34.68 35.13 34.68 35.15"/>
        <polygon class="cls-75" points="34.68 35.17 30.13 34.79 30.13 34.77 34.68 35.15 34.68 35.17"/>
        <polygon class="cls-7" points="34.68 35.19 30.13 34.81 30.13 34.79 34.68 35.17 34.68 35.19"/>
        <polygon class="cls-112" points="34.68 35.21 30.13 34.83 30.13 34.81 34.68 35.19 34.68 35.21"/>
        <polygon class="cls-121" points="34.68 35.23 30.13 34.85 30.13 34.83 34.68 35.21 34.68 35.23"/>
        <polygon class="cls-110" points="34.68 35.25 30.13 34.88 30.13 34.85 34.68 35.23 34.68 35.25"/>
        <polygon class="cls-149" points="34.68 35.27 30.13 34.9 30.13 34.88 34.68 35.25 34.68 35.27"/>
        <polygon class="cls-72" points="34.68 35.29 30.13 34.92 30.13 34.9 34.68 35.27 34.68 35.29"/>
        <polygon class="cls-98" points="34.68 35.31 30.13 34.94 30.13 34.92 34.68 35.29 34.68 35.31"/>
        <polygon class="cls-77" points="34.68 35.34 30.13 34.96 30.13 34.94 34.68 35.31 34.68 35.34"/>
        <polygon class="cls-126" points="34.68 35.36 30.13 34.98 30.13 34.96 34.68 35.34 34.68 35.36"/>
        <polygon class="cls-130" points="34.68 35.38 30.13 35 30.13 34.98 34.68 35.36 34.68 35.38"/>
        <polygon class="cls-101" points="34.68 35.4 30.13 35.02 30.13 35 34.68 35.38 34.68 35.4"/>
        <polygon class="cls-178" points="34.68 35.42 30.13 35.04 30.13 35.02 34.68 35.4 34.68 35.42"/>
        <polygon class="cls-25" points="34.68 35.44 30.13 35.06 30.13 35.04 34.68 35.42 34.68 35.44"/>
        <polygon class="cls-65" points="34.68 35.46 30.13 35.09 30.13 35.06 34.68 35.44 34.68 35.46"/>
        <polygon class="cls-34" points="34.68 35.48 30.13 35.11 30.13 35.09 34.68 35.46 34.68 35.48"/>
        <polygon class="cls-66" points="34.68 35.5 30.13 35.13 30.13 35.11 34.68 35.48 34.68 35.5"/>
        <polygon class="cls-151" points="34.68 35.52 30.13 35.15 30.13 35.13 34.68 35.5 34.68 35.52"/>
        <polygon class="cls-30" points="34.68 35.55 30.13 35.17 30.13 35.15 34.68 35.52 34.68 35.55"/>
        <polygon class="cls-54" points="34.68 35.57 30.13 35.19 30.13 35.17 34.68 35.55 34.68 35.57"/>
        <polygon class="cls-138" points="34.68 35.59 30.13 35.21 30.13 35.19 34.68 35.57 34.68 35.59"/>
        <polygon class="cls-163" points="34.68 35.61 30.13 35.23 30.13 35.21 34.68 35.59 34.68 35.61"/>
        <polygon class="cls-118" points="34.68 35.63 30.13 35.25 30.13 35.23 34.68 35.61 34.68 35.63"/>
        <polygon class="cls-99" points="34.68 35.65 30.13 35.27 30.13 35.25 34.68 35.63 34.68 35.65"/>
        <polygon class="cls-80" points="34.68 35.67 30.13 35.3 30.13 35.27 34.68 35.65 34.68 35.67"/>
        <polygon class="cls-172" points="34.68 35.69 30.13 35.32 30.13 35.3 34.68 35.67 34.68 35.69"/>
        <polygon class="cls-129" points="34.68 35.71 30.13 35.34 30.13 35.32 34.68 35.69 34.68 35.71"/>
        <polygon class="cls-160" points="34.68 35.73 30.13 35.36 30.13 35.34 34.68 35.71 34.68 35.73"/>
        <polygon class="cls-42" points="34.68 35.76 30.13 35.38 30.13 35.36 34.68 35.73 34.68 35.76"/>
        <polygon class="cls-179" points="34.68 35.78 30.13 35.4 30.13 35.38 34.68 35.76 34.68 35.78"/>
        <polygon class="cls-24" points="34.68 35.8 30.13 35.42 30.13 35.4 34.68 35.78 34.68 35.8"/>
        <polygon class="cls-140" points="34.68 35.82 30.13 35.44 30.13 35.42 34.68 35.8 34.68 35.82"/>
        <polygon class="cls-68" points="34.68 35.84 30.13 35.46 30.13 35.44 34.68 35.82 34.68 35.84"/>
        <polygon class="cls-93" points="34.68 35.86 30.13 35.48 30.13 35.46 34.68 35.84 34.68 35.86"/>
        <polygon class="cls-153" points="34.68 35.88 30.13 35.51 30.13 35.48 34.68 35.86 34.68 35.88"/>
        <polygon class="cls-45" points="34.68 35.9 30.13 35.53 30.13 35.51 34.68 35.88 34.68 35.9"/>
        <polygon class="cls-48" points="34.68 35.92 30.13 35.55 30.13 35.53 34.68 35.9 34.68 35.92"/>
        <polygon class="cls-132" points="34.68 35.94 30.13 35.57 30.13 35.55 34.68 35.92 34.68 35.94"/>
        <polygon class="cls-61" points="34.68 35.97 30.13 35.59 30.13 35.57 34.68 35.94 34.68 35.97"/>
        <polygon class="cls-12" points="34.68 35.99 30.13 35.61 30.13 35.59 34.68 35.97 34.68 35.99"/>
        <polygon class="cls-131" points="34.68 36.01 30.13 35.63 30.13 35.61 34.68 35.99 34.68 36.01"/>
        <polygon class="cls-51" points="34.68 36.03 30.13 35.65 30.13 35.63 34.68 36.01 34.68 36.03"/>
        <polygon class="cls-115" points="34.68 36.05 30.13 35.67 30.13 35.65 34.68 36.03 34.68 36.05"/>
        <polygon class="cls-139" points="34.68 36.07 30.13 35.69 30.13 35.67 34.68 36.05 34.68 36.07"/>
        <polygon class="cls-102" points="34.68 36.09 30.13 35.72 30.13 35.69 34.68 36.07 34.68 36.09"/>
        <polygon class="cls-87" points="34.68 36.11 30.13 35.74 30.13 35.72 34.68 36.09 34.68 36.11"/>
        <polygon class="cls-89" points="34.68 36.13 30.13 35.76 30.13 35.74 34.68 36.11 34.68 36.13"/>
        <polygon class="cls-92" points="34.68 36.15 30.13 35.78 30.13 35.76 34.68 36.13 34.68 36.15"/>
        <polygon class="cls-145" points="34.68 36.18 30.13 35.8 30.13 35.78 34.68 36.15 34.68 36.18"/>
        <polygon class="cls-58" points="34.68 36.2 30.13 35.82 30.13 35.8 34.68 36.18 34.68 36.2"/>
        <polygon class="cls-71" points="34.68 36.22 30.13 35.84 30.13 35.82 34.68 36.2 34.68 36.22"/>
        <polygon class="cls-17" points="34.68 36.24 30.13 35.86 30.13 35.84 34.68 36.22 34.68 36.24"/>
        <polygon class="cls-82" points="34.68 36.26 30.13 35.88 30.13 35.86 34.68 36.24 34.68 36.26"/>
        <polygon class="cls-82" points="34.68 36.28 30.13 35.9 30.13 35.88 34.68 36.26 34.68 36.28"/>
        <polygon class="cls-94" points="34.68 36.3 30.13 35.93 30.13 35.9 34.68 36.28 34.68 36.3"/>
        <polygon class="cls-29" points="34.68 36.32 30.13 35.95 30.13 35.93 34.68 36.3 34.68 36.32"/>
        <polygon class="cls-29" points="34.68 36.34 30.13 35.97 30.13 35.95 34.68 36.32 34.68 36.34"/>
        <polygon class="cls-168" points="34.68 36.36 30.13 35.99 30.13 35.97 34.68 36.34 34.68 36.36"/>
        <polygon class="cls-73" points="34.68 36.39 30.13 36.01 30.13 35.99 34.68 36.36 34.68 36.39"/>
        <polygon class="cls-162" points="34.68 36.41 30.13 36.03 30.13 36.01 34.68 36.39 34.68 36.41"/>
        <polygon class="cls-79" points="34.68 36.43 30.13 36.05 30.13 36.03 34.68 36.41 34.68 36.43"/>
        <polygon class="cls-36" points="34.68 36.45 30.13 36.07 30.13 36.05 34.68 36.43 34.68 36.45"/>
        <polygon class="cls-133" points="34.68 36.47 30.13 36.09 30.13 36.07 34.68 36.45 34.68 36.47"/>
        <polygon class="cls-176" points="34.68 36.49 30.13 36.11 30.13 36.09 34.68 36.47 34.68 36.49"/>
        <polygon class="cls-74" points="34.68 36.51 30.13 36.14 30.13 36.11 34.68 36.49 34.68 36.51"/>
        <polygon class="cls-39" points="34.68 36.53 30.13 36.16 30.13 36.14 34.68 36.51 34.68 36.53"/>
        <polygon class="cls-23" points="34.68 36.55 30.13 36.18 30.13 36.16 34.68 36.53 34.68 36.55"/>
        <polygon class="cls-35" points="34.68 36.57 30.13 36.2 30.13 36.18 34.68 36.55 34.68 36.57"/>
        <polygon class="cls-124" points="34.68 36.6 30.13 36.22 30.13 36.2 34.68 36.57 34.68 36.6"/>
        <polygon class="cls-88" points="34.68 36.62 30.13 36.24 30.13 36.22 34.68 36.6 34.68 36.62"/>
        <polygon class="cls-170" points="34.68 36.64 30.13 36.26 30.13 36.24 34.68 36.62 34.68 36.64"/>
        <polygon class="cls-33" points="34.68 36.66 30.13 36.28 30.13 36.26 34.68 36.64 34.68 36.66"/>
        <polygon class="cls-117" points="34.68 36.68 30.13 36.3 30.13 36.28 34.68 36.66 34.68 36.68"/>
        <polygon class="cls-108" points="34.68 36.7 30.13 36.32 30.13 36.3 34.68 36.68 34.68 36.7"/>
        <polygon class="cls-10" points="34.68 36.72 30.13 36.35 30.13 36.32 34.68 36.7 34.68 36.72"/>
        <polygon class="cls-136" points="34.68 36.74 30.13 36.37 30.13 36.35 34.68 36.72 34.68 36.74"/>
        <polygon class="cls-136" points="34.68 36.76 30.13 36.39 30.13 36.37 34.68 36.74 34.68 36.76"/>
        <polygon class="cls-31" points="34.68 36.78 30.13 36.41 30.13 36.39 34.68 36.76 34.68 36.78"/>
        <polygon class="cls-20" points="34.68 36.81 30.13 36.43 30.13 36.41 34.68 36.78 34.68 36.81"/>
        <polygon class="cls-122" points="34.68 36.83 30.13 36.45 30.13 36.43 34.68 36.81 34.68 36.83"/>
        <polygon class="cls-91" points="34.68 36.85 30.13 36.47 30.13 36.45 34.68 36.83 34.68 36.85"/>
        <polygon class="cls-125" points="34.68 36.87 30.13 36.49 30.13 36.47 34.68 36.85 34.68 36.87"/>
        <polygon class="cls-125" points="34.68 36.89 30.13 36.51 30.13 36.49 34.68 36.87 34.68 36.89"/>
        <polygon class="cls-57" points="34.68 36.91 30.13 36.53 30.13 36.51 34.68 36.89 34.68 36.91"/>
        <polygon class="cls-57" points="34.68 36.93 30.13 36.56 30.13 36.53 34.68 36.91 34.68 36.93"/>
        <polygon class="cls-55" points="34.68 36.95 30.13 36.58 30.13 36.56 34.68 36.93 34.68 36.95"/>
        <polygon class="cls-169" points="34.68 36.97 30.13 36.6 30.13 36.58 34.68 36.95 34.68 36.97"/>
        <polygon class="cls-169" points="34.68 36.99 30.13 36.62 30.13 36.6 34.68 36.97 34.68 36.99"/>
        <polygon class="cls-11" points="34.68 37.02 30.13 36.64 30.13 36.62 34.68 36.99 34.68 37.02"/>
        <polygon class="cls-70" points="34.68 37.04 30.13 36.66 30.13 36.64 34.68 37.02 34.68 37.04"/>
        <polygon class="cls-150" points="34.68 37.06 30.13 36.68 30.13 36.66 34.68 37.04 34.68 37.06"/>
        <polygon class="cls-59" points="34.68 37.08 30.13 36.7 30.13 36.68 34.68 37.06 34.68 37.08"/>
        <polygon class="cls-173" points="34.68 37.1 30.13 36.72 30.13 36.7 34.68 37.08 34.68 37.1"/>
        <polygon class="cls-111" points="34.68 37.12 30.13 36.74 30.13 36.72 34.68 37.1 34.68 37.12"/>
        <polygon class="cls-111" points="34.68 37.14 30.13 36.77 30.13 36.74 34.68 37.12 34.68 37.14"/>
        <polygon class="cls-4" points="34.68 37.16 30.13 36.79 30.13 36.77 34.68 37.14 34.68 37.16"/>
        <polygon class="cls-52" points="34.68 37.18 30.13 36.81 30.13 36.79 34.68 37.16 34.68 37.18"/>
        <polygon class="cls-155" points="34.68 37.2 30.13 36.83 30.13 36.81 34.68 37.18 34.68 37.2"/>
        <polygon class="cls-155" points="34.68 37.23 30.13 36.85 30.13 36.83 34.68 37.2 34.68 37.23"/>
        <polygon class="cls-86" points="34.68 37.25 30.13 36.87 30.13 36.85 34.68 37.23 34.68 37.25"/>
        <polygon class="cls-47" points="34.68 37.27 30.13 36.89 30.13 36.87 34.68 37.25 34.68 37.27"/>
        <polygon class="cls-47" points="34.68 37.29 30.13 36.91 30.13 36.89 34.68 37.27 34.68 37.29"/>
        <polygon class="cls-96" points="34.68 37.31 30.13 36.93 30.13 36.91 34.68 37.29 34.68 37.31"/>
        <polygon class="cls-96" points="34.68 37.33 30.13 36.95 30.13 36.93 34.68 37.31 34.68 37.33"/>
        <polygon class="cls-105" points="34.68 37.35 30.13 36.98 30.13 36.95 34.68 37.33 34.68 37.35"/>
        <polygon class="cls-16" points="34.68 37.37 30.13 37 30.13 36.98 34.68 37.35 34.68 37.37"/>
        <polygon class="cls-103" points="34.68 37.39 30.13 37.02 30.13 37 34.68 37.37 34.68 37.39"/>
        <polygon class="cls-103" points="34.68 37.41 30.13 37.04 30.13 37.02 34.68 37.39 34.68 37.41"/>
        <polygon class="cls-43" points="34.68 37.44 30.13 37.06 30.13 37.04 34.68 37.41 34.68 37.44"/>
        <polygon class="cls-174" points="34.68 37.46 30.13 37.08 30.13 37.06 34.68 37.44 34.68 37.46"/>
        <polygon class="cls-174" points="34.68 37.48 30.13 37.1 30.13 37.08 34.68 37.46 34.68 37.48"/>
        <polygon class="cls-113" points="34.68 37.5 30.13 37.12 30.13 37.1 34.68 37.48 34.68 37.5"/>
        <polygon class="cls-56" points="34.68 37.52 30.13 37.14 30.13 37.12 34.68 37.5 34.68 37.52"/>
        <polygon class="cls-32" points="34.68 37.54 30.13 37.16 30.13 37.14 34.68 37.52 34.68 37.54"/>
        <polygon class="cls-26" points="34.68 37.56 30.13 37.19 30.13 37.16 34.68 37.54 34.68 37.56"/>
        <polygon class="cls-26" points="34.68 37.58 30.13 37.21 30.13 37.19 34.68 37.56 34.68 37.58"/>
        <polygon class="cls-166" points="34.68 37.6 30.13 37.23 30.13 37.21 34.68 37.58 34.68 37.6"/>
        <polygon class="cls-127" points="34.68 37.62 30.13 37.25 30.13 37.23 34.68 37.6 34.68 37.62"/>
        <polygon class="cls-127" points="34.68 37.65 30.13 37.27 30.13 37.25 34.68 37.62 34.68 37.65"/>
        <polygon class="cls-127" points="34.68 37.67 30.13 37.29 30.13 37.27 34.68 37.65 34.68 37.67"/>
        <polygon class="cls-90" points="34.68 37.69 30.13 37.31 30.13 37.29 34.68 37.67 34.68 37.69"/>
        <polygon class="cls-90" points="34.68 37.71 30.13 37.33 30.13 37.31 34.68 37.69 34.68 37.71"/>
        <polygon class="cls-78" points="34.68 37.73 30.13 37.35 30.13 37.33 34.68 37.71 34.68 37.73"/>
        <polygon class="cls-78" points="34.68 37.75 30.13 37.37 30.13 37.35 34.68 37.73 34.68 37.75"/>
        <polygon class="cls-137" points="34.68 37.77 30.13 37.4 30.13 37.37 34.68 37.75 34.68 37.77"/>
        <polygon class="cls-5" points="34.68 37.79 30.13 37.42 30.13 37.4 34.68 37.77 34.68 37.79"/>
        <polygon class="cls-5" points="34.68 37.81 30.13 37.44 30.13 37.42 34.68 37.79 34.68 37.81"/>
        <polygon class="cls-46" points="34.68 37.83 30.13 37.46 30.13 37.44 34.68 37.81 34.68 37.83"/>
        <polygon class="cls-60" points="34.68 37.86 30.13 37.48 30.13 37.46 34.68 37.83 34.68 37.86"/>
        <polygon class="cls-84" points="34.68 37.88 30.13 37.5 30.13 37.48 34.68 37.86 34.68 37.88"/>
        <polygon class="cls-84" points="34.68 37.9 30.13 37.52 30.13 37.5 34.68 37.88 34.68 37.9"/>
        <polygon class="cls-84" points="34.68 37.92 30.13 37.54 30.13 37.52 34.68 37.9 34.68 37.92"/>
        <polygon class="cls-175" points="34.68 37.94 30.13 37.56 30.13 37.54 34.68 37.92 34.68 37.94"/>
        <polygon class="cls-13" points="34.68 37.96 30.13 37.58 30.13 37.56 34.68 37.94 34.68 37.96"/>
        <polygon class="cls-13" points="34.68 37.98 30.13 37.61 30.13 37.58 34.68 37.96 34.68 37.98"/>
        <polygon class="cls-171" points="34.68 38 30.13 37.63 30.13 37.61 34.68 37.98 34.68 38"/>
        <polygon class="cls-135" points="34.68 38.02 30.13 37.65 30.13 37.63 34.68 38 34.68 38.02"/>
        <polygon class="cls-135" points="34.68 38.05 30.13 37.67 30.13 37.65 34.68 38.02 34.68 38.05"/>
        <polygon class="cls-135" points="34.68 38.07 30.13 37.69 30.13 37.67 34.68 38.05 34.68 38.07"/>
        <polygon class="cls-135" points="34.68 38.09 30.13 37.71 30.13 37.69 34.68 38.07 34.68 38.09"/>
        <polygon class="cls-41" points="34.68 38.11 30.13 37.73 30.13 37.71 34.68 38.09 34.68 38.11"/>
        <polygon class="cls-97" points="34.68 38.13 30.13 37.75 30.13 37.73 34.68 38.11 34.68 38.13"/>
        <polygon class="cls-22" points="34.63 38.15 30.13 37.77 30.13 37.75 34.68 38.13 34.68 38.15 34.63 38.15"/>
        <polygon class="cls-22" points="34.37 38.15 30.13 37.79 30.13 37.77 34.63 38.15 34.37 38.15"/>
        <polygon class="cls-22" points="34.12 38.15 30.13 37.82 30.13 37.79 34.37 38.15 34.12 38.15"/>
        <polygon class="cls-22" points="33.87 38.15 30.13 37.84 30.13 37.82 34.12 38.15 33.87 38.15"/>
        <polygon class="cls-22" points="33.61 38.15 30.13 37.86 30.13 37.84 33.87 38.15 33.61 38.15"/>
        <polygon class="cls-22" points="33.36 38.15 30.13 37.88 30.13 37.86 33.61 38.15 33.36 38.15"/>
        <polygon class="cls-67" points="33.1 38.15 30.13 37.9 30.13 37.88 33.36 38.15 33.1 38.15"/>
        <polygon class="cls-146" points="32.85 38.15 30.13 37.92 30.13 37.9 33.1 38.15 32.85 38.15"/>
        <polygon class="cls-146" points="32.59 38.15 30.13 37.94 30.13 37.92 32.85 38.15 32.59 38.15"/>
        <polygon class="cls-146" points="32.34 38.15 30.13 37.96 30.13 37.94 32.59 38.15 32.34 38.15"/>
        <polygon class="cls-146" points="32.09 38.15 30.13 37.98 30.13 37.96 32.34 38.15 32.09 38.15"/>
        <polygon class="cls-146" points="31.83 38.15 30.13 38 30.13 37.98 32.09 38.15 31.83 38.15"/>
        <polygon class="cls-146" points="31.58 38.15 30.13 38.03 30.13 38 31.83 38.15 31.58 38.15"/>
        <polygon class="cls-146" points="31.32 38.15 30.13 38.05 30.13 38.03 31.58 38.15 31.32 38.15"/>
        <polygon class="cls-37" points="31.07 38.15 30.13 38.07 30.13 38.05 31.32 38.15 31.07 38.15"/>
        <polygon class="cls-37" points="30.81 38.15 30.13 38.09 30.13 38.07 31.07 38.15 30.81 38.15"/>
        <polygon class="cls-53" points="30.56 38.15 30.13 38.11 30.13 38.09 30.81 38.15 30.56 38.15"/>
        <polygon class="cls-53" points="30.31 38.15 30.13 38.13 30.13 38.11 30.56 38.15 30.31 38.15"/>
        <polygon class="cls-53" points="30.13 38.13 30.31 38.15 30.13 38.15 30.13 38.13"/>
      </g>
      <path class="cls-44" d="M32.3,37.37c-.64-.05-1.14-.7-1.08-1.4.06-.71.65-1.26,1.29-1.21.64.05,1.14.7,1.08,1.4-.06.71-.65,1.26-1.29,1.21Z"/>
      <path class="cls-128" d="M32.36,37.12c-.45-.04-.91-.53-.86-1.13.05-.6.59-1.01,1.03-.97.45.04.91.53.86,1.13-.05.6-.59,1.01-1.03.97Z"/>
      <g class="cls-116">
        <path class="cls-148" d="M35.95,38.92s-.05,0-.17.04c-.08-1.3-.33-3.09-1.07-3.45-1.09-.55-3.55-1.36-6.7.57-.32-.57-.48-.99-.48-.99,3.43-2.45,6.13-1.57,7.3-.99,1.18.59,1.12,4.81,1.12,4.81Z"/>
      </g>
      <path class="cls-95" d="M32,35.64c-.02.22-.24.38-.5.35-.26-.02-.45-.22-.43-.43.02-.22.24-.38.5-.36.26.02.45.21.44.43Z"/>
      <path class="cls-95" d="M33.44,36.89c0,.11-.12.19-.25.18-.13,0-.23-.11-.22-.22,0-.11.12-.19.25-.18.13,0,.23.11.22.22Z"/>
      <path class="cls-161" d="M42.9,31.93s.38-.58,1.16-1.18c.39-.3.88-.62,1.45-.86.57-.24,1.21-.42,1.87-.51.66-.07,1.32-.03,1.92.05.6.11,1.14.29,1.58.48.45.15.78.4,1.02.53.23.15.37.23.37.23,0,0-.15-.04-.42-.1-.26-.07-.63-.18-1.09-.24-.23-.03-.46-.1-.72-.11-.26-.02-.52-.04-.8-.06-.55,0-1.14.02-1.71.15-.57.1-1.12.28-1.61.5-.49.23-.94.46-1.3.71-.74.49-1.14.89-1.14.89-.15.15-.39.15-.54,0-.13-.13-.15-.33-.05-.48h0Z"/>
      <path class="cls-95" d="M52.67,35.1s-1.46,3.64-3.73,3.99c-2.27.35-4.68-.16-4.68-.16,0,0-.06-4.22,1.12-4.81,1.18-.59,3.87-1.46,7.3.98Z"/>
      <g class="cls-116">
        <path class="cls-148" d="M44.25,38.92s.05,0,.17.04c.08-1.3.34-3.09,1.07-3.45,1.09-.55,3.55-1.36,6.7.57.32-.57.48-.99.48-.99-3.43-2.45-6.13-1.57-7.3-.99-1.18.59-1.12,4.81-1.12,4.81Z"/>
      </g>
      <g class="cls-76">
        <polygon class="cls-120" points="50.08 34.33 45.53 33.96 45.53 33.53 50.08 33.53 50.08 34.33"/>
        <polygon class="cls-120" points="50.08 34.35 45.53 33.98 45.53 33.96 50.08 34.33 50.08 34.35"/>
        <polygon class="cls-167" points="50.08 34.37 45.53 34 45.53 33.98 50.08 34.35 50.08 34.37"/>
        <polygon class="cls-158" points="50.08 34.4 45.53 34.02 45.53 34 50.08 34.37 50.08 34.4"/>
        <polygon class="cls-83" points="50.08 34.42 45.53 34.04 45.53 34.02 50.08 34.4 50.08 34.42"/>
        <polygon class="cls-15" points="50.08 34.44 45.53 34.06 45.53 34.04 50.08 34.42 50.08 34.44"/>
        <polygon class="cls-134" points="50.08 34.46 45.53 34.08 45.53 34.06 50.08 34.44 50.08 34.46"/>
        <polygon class="cls-64" points="50.08 34.48 45.53 34.1 45.53 34.08 50.08 34.46 50.08 34.48"/>
        <polygon class="cls-3" points="50.08 34.5 45.53 34.12 45.53 34.1 50.08 34.48 50.08 34.5"/>
        <polygon class="cls-14" points="50.08 34.52 45.53 34.15 45.53 34.12 50.08 34.5 50.08 34.52"/>
        <polygon class="cls-69" points="50.08 34.54 45.53 34.17 45.53 34.15 50.08 34.52 50.08 34.54"/>
        <polygon class="cls-49" points="50.08 34.56 45.53 34.19 45.53 34.17 50.08 34.54 50.08 34.56"/>
        <polygon class="cls-62" points="50.08 34.58 45.53 34.21 45.53 34.19 50.08 34.56 50.08 34.58"/>
        <polygon class="cls-109" points="50.08 34.61 45.53 34.23 45.53 34.21 50.08 34.58 50.08 34.61"/>
        <polygon class="cls-144" points="50.08 34.63 45.53 34.25 45.53 34.23 50.08 34.61 50.08 34.63"/>
        <polygon class="cls-141" points="50.08 34.65 45.53 34.27 45.53 34.25 50.08 34.63 50.08 34.65"/>
        <polygon class="cls-63" points="50.08 34.67 45.53 34.29 45.53 34.27 50.08 34.65 50.08 34.67"/>
        <polygon class="cls-50" points="50.08 34.69 45.53 34.31 45.53 34.29 50.08 34.67 50.08 34.69"/>
        <polygon class="cls-157" points="50.08 34.71 45.53 34.33 45.53 34.31 50.08 34.69 50.08 34.71"/>
        <polygon class="cls-147" points="50.08 34.73 45.53 34.36 45.53 34.33 50.08 34.71 50.08 34.73"/>
        <polygon class="cls-119" points="50.08 34.75 45.53 34.38 45.53 34.36 50.08 34.73 50.08 34.75"/>
        <polygon class="cls-142" points="50.08 34.77 45.53 34.4 45.53 34.38 50.08 34.75 50.08 34.77"/>
        <polygon class="cls-123" points="50.08 34.79 45.53 34.42 45.53 34.4 50.08 34.77 50.08 34.79"/>
        <polygon class="cls-18" points="50.08 34.82 45.53 34.44 45.53 34.42 50.08 34.79 50.08 34.82"/>
        <polygon class="cls-154" points="50.08 34.84 45.53 34.46 45.53 34.44 50.08 34.82 50.08 34.84"/>
        <polygon class="cls-19" points="50.08 34.86 45.53 34.48 45.53 34.46 50.08 34.84 50.08 34.86"/>
        <polygon class="cls-107" points="50.08 34.88 45.53 34.5 45.53 34.48 50.08 34.86 50.08 34.88"/>
        <polygon class="cls-28" points="50.08 34.9 45.53 34.52 45.53 34.5 50.08 34.88 50.08 34.9"/>
        <polygon class="cls-40" points="50.08 34.92 45.53 34.54 45.53 34.52 50.08 34.9 50.08 34.92"/>
        <polygon class="cls-159" points="50.08 34.94 45.53 34.57 45.53 34.54 50.08 34.92 50.08 34.94"/>
        <polygon class="cls-114" points="50.08 34.96 45.53 34.59 45.53 34.57 50.08 34.94 50.08 34.96"/>
        <polygon class="cls-106" points="50.08 34.98 45.53 34.61 45.53 34.59 50.08 34.96 50.08 34.98"/>
        <polygon class="cls-104" points="50.08 35 45.53 34.63 45.53 34.61 50.08 34.98 50.08 35"/>
        <polygon class="cls-100" points="50.08 35.03 45.53 34.65 45.53 34.63 50.08 35 50.08 35.03"/>
        <polygon class="cls-75" points="50.08 35.05 45.53 34.67 45.53 34.65 50.08 35.03 50.08 35.05"/>
        <polygon class="cls-7" points="50.08 35.07 45.53 34.69 45.53 34.67 50.08 35.05 50.08 35.07"/>
        <polygon class="cls-112" points="50.08 35.09 45.53 34.71 45.53 34.69 50.08 35.07 50.08 35.09"/>
        <polygon class="cls-121" points="50.08 35.11 45.53 34.73 45.53 34.71 50.08 35.09 50.08 35.11"/>
        <polygon class="cls-110" points="50.08 35.13 45.53 34.75 45.53 34.73 50.08 35.11 50.08 35.13"/>
        <polygon class="cls-149" points="50.08 35.15 45.53 34.78 45.53 34.75 50.08 35.13 50.08 35.15"/>
        <polygon class="cls-72" points="50.08 35.17 45.53 34.8 45.53 34.78 50.08 35.15 50.08 35.17"/>
        <polygon class="cls-98" points="50.08 35.19 45.53 34.82 45.53 34.8 50.08 35.17 50.08 35.19"/>
        <polygon class="cls-77" points="50.08 35.21 45.53 34.84 45.53 34.82 50.08 35.19 50.08 35.21"/>
        <polygon class="cls-126" points="50.08 35.24 45.53 34.86 45.53 34.84 50.08 35.21 50.08 35.24"/>
        <polygon class="cls-130" points="50.08 35.26 45.53 34.88 45.53 34.86 50.08 35.24 50.08 35.26"/>
        <polygon class="cls-101" points="50.08 35.28 45.53 34.9 45.53 34.88 50.08 35.26 50.08 35.28"/>
        <polygon class="cls-178" points="50.08 35.3 45.53 34.92 45.53 34.9 50.08 35.28 50.08 35.3"/>
        <polygon class="cls-25" points="50.08 35.32 45.53 34.94 45.53 34.92 50.08 35.3 50.08 35.32"/>
        <polygon class="cls-65" points="50.08 35.34 45.53 34.96 45.53 34.94 50.08 35.32 50.08 35.34"/>
        <polygon class="cls-34" points="50.08 35.36 45.53 34.99 45.53 34.96 50.08 35.34 50.08 35.36"/>
        <polygon class="cls-66" points="50.08 35.38 45.53 35.01 45.53 34.99 50.08 35.36 50.08 35.38"/>
        <polygon class="cls-151" points="50.08 35.4 45.53 35.03 45.53 35.01 50.08 35.38 50.08 35.4"/>
        <polygon class="cls-30" points="50.08 35.42 45.53 35.05 45.53 35.03 50.08 35.4 50.08 35.42"/>
        <polygon class="cls-54" points="50.08 35.45 45.53 35.07 45.53 35.05 50.08 35.42 50.08 35.45"/>
        <polygon class="cls-138" points="50.08 35.47 45.53 35.09 45.53 35.07 50.08 35.45 50.08 35.47"/>
        <polygon class="cls-163" points="50.08 35.49 45.53 35.11 45.53 35.09 50.08 35.47 50.08 35.49"/>
        <polygon class="cls-118" points="50.08 35.51 45.53 35.13 45.53 35.11 50.08 35.49 50.08 35.51"/>
        <polygon class="cls-99" points="50.08 35.53 45.53 35.15 45.53 35.13 50.08 35.51 50.08 35.53"/>
        <polygon class="cls-80" points="50.08 35.55 45.53 35.17 45.53 35.15 50.08 35.53 50.08 35.55"/>
        <polygon class="cls-172" points="50.08 35.57 45.53 35.2 45.53 35.17 50.08 35.55 50.08 35.57"/>
        <polygon class="cls-129" points="50.08 35.59 45.53 35.22 45.53 35.2 50.08 35.57 50.08 35.59"/>
        <polygon class="cls-160" points="50.08 35.61 45.53 35.24 45.53 35.22 50.08 35.59 50.08 35.61"/>
        <polygon class="cls-42" points="50.08 35.63 45.53 35.26 45.53 35.24 50.08 35.61 50.08 35.63"/>
        <polygon class="cls-179" points="50.08 35.66 45.53 35.28 45.53 35.26 50.08 35.63 50.08 35.66"/>
        <polygon class="cls-24" points="50.08 35.68 45.53 35.3 45.53 35.28 50.08 35.66 50.08 35.68"/>
        <polygon class="cls-140" points="50.08 35.7 45.53 35.32 45.53 35.3 50.08 35.68 50.08 35.7"/>
        <polygon class="cls-68" points="50.08 35.72 45.53 35.34 45.53 35.32 50.08 35.7 50.08 35.72"/>
        <polygon class="cls-93" points="50.08 35.74 45.53 35.36 45.53 35.34 50.08 35.72 50.08 35.74"/>
        <polygon class="cls-153" points="50.08 35.76 45.53 35.38 45.53 35.36 50.08 35.74 50.08 35.76"/>
        <polygon class="cls-45" points="50.08 35.78 45.53 35.41 45.53 35.38 50.08 35.76 50.08 35.78"/>
        <polygon class="cls-48" points="50.08 35.8 45.53 35.43 45.53 35.41 50.08 35.78 50.08 35.8"/>
        <polygon class="cls-132" points="50.08 35.82 45.53 35.45 45.53 35.43 50.08 35.8 50.08 35.82"/>
        <polygon class="cls-61" points="50.08 35.84 45.53 35.47 45.53 35.45 50.08 35.82 50.08 35.84"/>
        <polygon class="cls-12" points="50.08 35.87 45.53 35.49 45.53 35.47 50.08 35.84 50.08 35.87"/>
        <polygon class="cls-131" points="50.08 35.89 45.53 35.51 45.53 35.49 50.08 35.87 50.08 35.89"/>
        <polygon class="cls-51" points="50.08 35.91 45.53 35.53 45.53 35.51 50.08 35.89 50.08 35.91"/>
        <polygon class="cls-115" points="50.08 35.93 45.53 35.55 45.53 35.53 50.08 35.91 50.08 35.93"/>
        <polygon class="cls-139" points="50.08 35.95 45.53 35.57 45.53 35.55 50.08 35.93 50.08 35.95"/>
        <polygon class="cls-102" points="50.08 35.97 45.53 35.59 45.53 35.57 50.08 35.95 50.08 35.97"/>
        <polygon class="cls-87" points="50.08 35.99 45.53 35.62 45.53 35.59 50.08 35.97 50.08 35.99"/>
        <polygon class="cls-89" points="50.08 36.01 45.53 35.64 45.53 35.62 50.08 35.99 50.08 36.01"/>
        <polygon class="cls-92" points="50.08 36.03 45.53 35.66 45.53 35.64 50.08 36.01 50.08 36.03"/>
        <polygon class="cls-145" points="50.08 36.05 45.53 35.68 45.53 35.66 50.08 36.03 50.08 36.05"/>
        <polygon class="cls-58" points="50.08 36.08 45.53 35.7 45.53 35.68 50.08 36.05 50.08 36.08"/>
        <polygon class="cls-71" points="50.08 36.1 45.53 35.72 45.53 35.7 50.08 36.08 50.08 36.1"/>
        <polygon class="cls-17" points="50.08 36.12 45.53 35.74 45.53 35.72 50.08 36.1 50.08 36.12"/>
        <polygon class="cls-82" points="50.08 36.14 45.53 35.76 45.53 35.74 50.08 36.12 50.08 36.14"/>
        <polygon class="cls-82" points="50.08 36.16 45.53 35.78 45.53 35.76 50.08 36.14 50.08 36.16"/>
        <polygon class="cls-94" points="50.08 36.18 45.53 35.8 45.53 35.78 50.08 36.16 50.08 36.18"/>
        <polygon class="cls-29" points="50.08 36.2 45.53 35.83 45.53 35.8 50.08 36.18 50.08 36.2"/>
        <polygon class="cls-29" points="50.08 36.22 45.53 35.85 45.53 35.83 50.08 36.2 50.08 36.22"/>
        <polygon class="cls-168" points="50.08 36.24 45.53 35.87 45.53 35.85 50.08 36.22 50.08 36.24"/>
        <polygon class="cls-73" points="50.08 36.26 45.53 35.89 45.53 35.87 50.08 36.24 50.08 36.26"/>
        <polygon class="cls-162" points="50.08 36.29 45.53 35.91 45.53 35.89 50.08 36.26 50.08 36.29"/>
        <polygon class="cls-79" points="50.08 36.31 45.53 35.93 45.53 35.91 50.08 36.29 50.08 36.31"/>
        <polygon class="cls-36" points="50.08 36.33 45.53 35.95 45.53 35.93 50.08 36.31 50.08 36.33"/>
        <polygon class="cls-133" points="50.08 36.35 45.53 35.97 45.53 35.95 50.08 36.33 50.08 36.35"/>
        <polygon class="cls-176" points="50.08 36.37 45.53 35.99 45.53 35.97 50.08 36.35 50.08 36.37"/>
        <polygon class="cls-74" points="50.08 36.39 45.53 36.01 45.53 35.99 50.08 36.37 50.08 36.39"/>
        <polygon class="cls-39" points="50.08 36.41 45.53 36.04 45.53 36.01 50.08 36.39 50.08 36.41"/>
        <polygon class="cls-23" points="50.08 36.43 45.53 36.06 45.53 36.04 50.08 36.41 50.08 36.43"/>
        <polygon class="cls-35" points="50.08 36.45 45.53 36.08 45.53 36.06 50.08 36.43 50.08 36.45"/>
        <polygon class="cls-124" points="50.08 36.47 45.53 36.1 45.53 36.08 50.08 36.45 50.08 36.47"/>
        <polygon class="cls-88" points="50.08 36.5 45.53 36.12 45.53 36.1 50.08 36.47 50.08 36.5"/>
        <polygon class="cls-170" points="50.08 36.52 45.53 36.14 45.53 36.12 50.08 36.5 50.08 36.52"/>
        <polygon class="cls-33" points="50.08 36.54 45.53 36.16 45.53 36.14 50.08 36.52 50.08 36.54"/>
        <polygon class="cls-117" points="50.08 36.56 45.53 36.18 45.53 36.16 50.08 36.54 50.08 36.56"/>
        <polygon class="cls-108" points="50.08 36.58 45.53 36.2 45.53 36.18 50.08 36.56 50.08 36.58"/>
        <polygon class="cls-10" points="50.08 36.6 45.53 36.22 45.53 36.2 50.08 36.58 50.08 36.6"/>
        <polygon class="cls-136" points="50.08 36.62 45.53 36.25 45.53 36.22 50.08 36.6 50.08 36.62"/>
        <polygon class="cls-136" points="50.08 36.64 45.53 36.27 45.53 36.25 50.08 36.62 50.08 36.64"/>
        <polygon class="cls-31" points="50.08 36.66 45.53 36.29 45.53 36.27 50.08 36.64 50.08 36.66"/>
        <polygon class="cls-20" points="50.08 36.68 45.53 36.31 45.53 36.29 50.08 36.66 50.08 36.68"/>
        <polygon class="cls-122" points="50.08 36.71 45.53 36.33 45.53 36.31 50.08 36.68 50.08 36.71"/>
        <polygon class="cls-91" points="50.08 36.73 45.53 36.35 45.53 36.33 50.08 36.71 50.08 36.73"/>
        <polygon class="cls-125" points="50.08 36.75 45.53 36.37 45.53 36.35 50.08 36.73 50.08 36.75"/>
        <polygon class="cls-125" points="50.08 36.77 45.53 36.39 45.53 36.37 50.08 36.75 50.08 36.77"/>
        <polygon class="cls-57" points="50.08 36.79 45.53 36.41 45.53 36.39 50.08 36.77 50.08 36.79"/>
        <polygon class="cls-57" points="50.08 36.81 45.53 36.43 45.53 36.41 50.08 36.79 50.08 36.81"/>
        <polygon class="cls-55" points="50.08 36.83 45.53 36.46 45.53 36.43 50.08 36.81 50.08 36.83"/>
        <polygon class="cls-169" points="50.08 36.85 45.53 36.48 45.53 36.46 50.08 36.83 50.08 36.85"/>
        <polygon class="cls-169" points="50.08 36.87 45.53 36.5 45.53 36.48 50.08 36.85 50.08 36.87"/>
        <polygon class="cls-11" points="50.08 36.89 45.53 36.52 45.53 36.5 50.08 36.87 50.08 36.89"/>
        <polygon class="cls-70" points="50.08 36.92 45.53 36.54 45.53 36.52 50.08 36.89 50.08 36.92"/>
        <polygon class="cls-150" points="50.08 36.94 45.53 36.56 45.53 36.54 50.08 36.92 50.08 36.94"/>
        <polygon class="cls-59" points="50.08 36.96 45.53 36.58 45.53 36.56 50.08 36.94 50.08 36.96"/>
        <polygon class="cls-173" points="50.08 36.98 45.53 36.6 45.53 36.58 50.08 36.96 50.08 36.98"/>
        <polygon class="cls-111" points="50.08 37 45.53 36.62 45.53 36.6 50.08 36.98 50.08 37"/>
        <polygon class="cls-111" points="50.08 37.02 45.53 36.64 45.53 36.62 50.08 37 50.08 37.02"/>
        <polygon class="cls-4" points="50.08 37.04 45.53 36.67 45.53 36.64 50.08 37.02 50.08 37.04"/>
        <polygon class="cls-52" points="50.08 37.06 45.53 36.69 45.53 36.67 50.08 37.04 50.08 37.06"/>
        <polygon class="cls-155" points="50.08 37.08 45.53 36.71 45.53 36.69 50.08 37.06 50.08 37.08"/>
        <polygon class="cls-155" points="50.08 37.1 45.53 36.73 45.53 36.71 50.08 37.08 50.08 37.1"/>
        <polygon class="cls-86" points="50.08 37.13 45.53 36.75 45.53 36.73 50.08 37.1 50.08 37.13"/>
        <polygon class="cls-47" points="50.08 37.15 45.53 36.77 45.53 36.75 50.08 37.13 50.08 37.15"/>
        <polygon class="cls-47" points="50.08 37.17 45.53 36.79 45.53 36.77 50.08 37.15 50.08 37.17"/>
        <polygon class="cls-96" points="50.08 37.19 45.53 36.81 45.53 36.79 50.08 37.17 50.08 37.19"/>
        <polygon class="cls-96" points="50.08 37.21 45.53 36.83 45.53 36.81 50.08 37.19 50.08 37.21"/>
        <polygon class="cls-105" points="50.08 37.23 45.53 36.85 45.53 36.83 50.08 37.21 50.08 37.23"/>
        <polygon class="cls-16" points="50.08 37.25 45.53 36.88 45.53 36.85 50.08 37.23 50.08 37.25"/>
        <polygon class="cls-103" points="50.08 37.27 45.53 36.9 45.53 36.88 50.08 37.25 50.08 37.27"/>
        <polygon class="cls-103" points="50.08 37.29 45.53 36.92 45.53 36.9 50.08 37.27 50.08 37.29"/>
        <polygon class="cls-43" points="50.08 37.31 45.53 36.94 45.53 36.92 50.08 37.29 50.08 37.31"/>
        <polygon class="cls-174" points="50.08 37.34 45.53 36.96 45.53 36.94 50.08 37.31 50.08 37.34"/>
        <polygon class="cls-174" points="50.08 37.36 45.53 36.98 45.53 36.96 50.08 37.34 50.08 37.36"/>
        <polygon class="cls-113" points="50.08 37.38 45.53 37 45.53 36.98 50.08 37.36 50.08 37.38"/>
        <polygon class="cls-56" points="50.08 37.4 45.53 37.02 45.53 37 50.08 37.38 50.08 37.4"/>
        <polygon class="cls-32" points="50.08 37.42 45.53 37.04 45.53 37.02 50.08 37.4 50.08 37.42"/>
        <polygon class="cls-26" points="50.08 37.44 45.53 37.06 45.53 37.04 50.08 37.42 50.08 37.44"/>
        <polygon class="cls-26" points="50.08 37.46 45.53 37.09 45.53 37.06 50.08 37.44 50.08 37.46"/>
        <polygon class="cls-166" points="50.08 37.48 45.53 37.11 45.53 37.09 50.08 37.46 50.08 37.48"/>
        <polygon class="cls-127" points="50.08 37.5 45.53 37.13 45.53 37.11 50.08 37.48 50.08 37.5"/>
        <polygon class="cls-127" points="50.08 37.52 45.53 37.15 45.53 37.13 50.08 37.5 50.08 37.52"/>
        <polygon class="cls-127" points="50.08 37.55 45.53 37.17 45.53 37.15 50.08 37.52 50.08 37.55"/>
        <polygon class="cls-90" points="50.08 37.57 45.53 37.19 45.53 37.17 50.08 37.55 50.08 37.57"/>
        <polygon class="cls-90" points="50.08 37.59 45.53 37.21 45.53 37.19 50.08 37.57 50.08 37.59"/>
        <polygon class="cls-78" points="50.08 37.61 45.53 37.23 45.53 37.21 50.08 37.59 50.08 37.61"/>
        <polygon class="cls-78" points="50.08 37.63 45.53 37.25 45.53 37.23 50.08 37.61 50.08 37.63"/>
        <polygon class="cls-137" points="50.08 37.65 45.53 37.27 45.53 37.25 50.08 37.63 50.08 37.65"/>
        <polygon class="cls-5" points="50.08 37.67 45.53 37.3 45.53 37.27 50.08 37.65 50.08 37.67"/>
        <polygon class="cls-5" points="50.08 37.69 45.53 37.32 45.53 37.3 50.08 37.67 50.08 37.69"/>
        <polygon class="cls-46" points="50.08 37.71 45.53 37.34 45.53 37.32 50.08 37.69 50.08 37.71"/>
        <polygon class="cls-60" points="50.08 37.73 45.53 37.36 45.53 37.34 50.08 37.71 50.08 37.73"/>
        <polygon class="cls-84" points="50.08 37.76 45.53 37.38 45.53 37.36 50.08 37.73 50.08 37.76"/>
        <polygon class="cls-84" points="50.08 37.78 45.53 37.4 45.53 37.38 50.08 37.76 50.08 37.78"/>
        <polygon class="cls-84" points="50.08 37.8 45.53 37.42 45.53 37.4 50.08 37.78 50.08 37.8"/>
        <polygon class="cls-175" points="50.08 37.82 45.53 37.44 45.53 37.42 50.08 37.8 50.08 37.82"/>
        <polygon class="cls-13" points="50.08 37.84 45.53 37.46 45.53 37.44 50.08 37.82 50.08 37.84"/>
        <polygon class="cls-13" points="50.08 37.86 45.53 37.48 45.53 37.46 50.08 37.84 50.08 37.86"/>
        <polygon class="cls-171" points="50.08 37.88 45.53 37.51 45.53 37.48 50.08 37.86 50.08 37.88"/>
        <polygon class="cls-135" points="50.08 37.9 45.53 37.53 45.53 37.51 50.08 37.88 50.08 37.9"/>
        <polygon class="cls-135" points="50.08 37.92 45.53 37.55 45.53 37.53 50.08 37.9 50.08 37.92"/>
        <polygon class="cls-135" points="50.08 37.94 45.53 37.57 45.53 37.55 50.08 37.92 50.08 37.94"/>
        <polygon class="cls-135" points="50.08 37.97 45.53 37.59 45.53 37.57 50.08 37.94 50.08 37.97"/>
        <polygon class="cls-41" points="50.08 37.99 45.53 37.61 45.53 37.59 50.08 37.97 50.08 37.99"/>
        <polygon class="cls-97" points="50.08 38.01 45.53 37.63 45.53 37.61 50.08 37.99 50.08 38.01"/>
        <polygon class="cls-22" points="50.03 38.02 45.53 37.65 45.53 37.63 50.08 38.01 50.08 38.02 50.03 38.02"/>
        <polygon class="cls-22" points="49.77 38.02 45.53 37.67 45.53 37.65 50.03 38.02 49.77 38.02"/>
        <polygon class="cls-22" points="49.52 38.02 45.53 37.69 45.53 37.67 49.77 38.02 49.52 38.02"/>
        <polygon class="cls-22" points="49.26 38.02 45.53 37.72 45.53 37.69 49.52 38.02 49.26 38.02"/>
        <polygon class="cls-22" points="49.01 38.02 45.53 37.74 45.53 37.72 49.26 38.02 49.01 38.02"/>
        <polygon class="cls-22" points="48.76 38.02 45.53 37.76 45.53 37.74 49.01 38.02 48.76 38.02"/>
        <polygon class="cls-67" points="48.5 38.02 45.53 37.78 45.53 37.76 48.76 38.02 48.5 38.02"/>
        <polygon class="cls-146" points="48.25 38.02 45.53 37.8 45.53 37.78 48.5 38.02 48.25 38.02"/>
        <polygon class="cls-146" points="47.99 38.02 45.53 37.82 45.53 37.8 48.25 38.02 47.99 38.02"/>
        <polygon class="cls-146" points="47.74 38.02 45.53 37.84 45.53 37.82 47.99 38.02 47.74 38.02"/>
        <polygon class="cls-146" points="47.48 38.02 45.53 37.86 45.53 37.84 47.74 38.02 47.48 38.02"/>
        <polygon class="cls-146" points="47.23 38.02 45.53 37.88 45.53 37.86 47.48 38.02 47.23 38.02"/>
        <polygon class="cls-146" points="46.98 38.02 45.53 37.9 45.53 37.88 47.23 38.02 46.98 38.02"/>
        <polygon class="cls-146" points="46.72 38.02 45.53 37.93 45.53 37.9 46.98 38.02 46.72 38.02"/>
        <polygon class="cls-37" points="46.47 38.02 45.53 37.95 45.53 37.93 46.72 38.02 46.47 38.02"/>
        <polygon class="cls-37" points="46.21 38.02 45.53 37.97 45.53 37.95 46.47 38.02 46.21 38.02"/>
        <polygon class="cls-53" points="45.96 38.02 45.53 37.99 45.53 37.97 46.21 38.02 45.96 38.02"/>
        <polygon class="cls-53" points="45.7 38.02 45.53 38.01 45.53 37.99 45.96 38.02 45.7 38.02"/>
        <polygon class="cls-53" points="45.53 38.01 45.7 38.02 45.53 38.02 45.53 38.01"/>
      </g>
      <path class="cls-44" d="M47.7,37.25c-.64-.05-1.14-.7-1.08-1.4.06-.71.65-1.26,1.29-1.21.64.05,1.14.7,1.08,1.4-.06.71-.65,1.26-1.29,1.21Z"/>
      <path class="cls-128" d="M47.76,37c-.45-.04-.91-.52-.86-1.12.05-.6.59-1.01,1.03-.97.45.04.91.53.86,1.13-.05.6-.59,1.01-1.03.97Z"/>
      <path class="cls-95" d="M47.4,35.52c-.02.22-.24.38-.5.35-.26-.02-.45-.22-.43-.43.02-.22.24-.38.5-.36.26.02.45.21.44.43Z"/>
      <path class="cls-95" d="M48.84,36.77c0,.11-.12.19-.25.18-.13-.01-.23-.11-.22-.22,0-.11.12-.19.25-.18.13,0,.23.11.22.22Z"/>
      <path class="cls-6" d="M21.5,37.77c.97-1.58,2.49-.91,2.87-.57.4.37.72.87.48,1.8-.13.52-.68.57-.54,1.37.16.89.57.95.8,1.15.23.2.53.35.68.73.14.37.17.77.1,1.12-.15.65-1.09.14-1.72-.14-.42-.18-1.74-1.29-2.08-1.65-.84-.94-1.25-2.74-.6-3.8"/>
      <path class="cls-27" d="M41.94,44.84c.34-.23.74-.12.74-.12,0,0,0,0-.01.02-.08.14-.54.87-.91.86,0,0-.08-.07-.1-.24-.03-.17.11-.4.28-.52Z"/>
      <path class="cls-81" d="M27.26,64.37c-.35.12-.7.24-1.05.36-.09.03-.17.06-.26.09-.94.32-1.84.62-2.56.86h-.01c-1.05.35-1.76.57-1.79.59-3.22,2.01-2.43,2.97-2.88,5.04h0v.04s-.03.07-.04.15h0c-.21,1.1-.3,6.39-.3,6.39,0,.32,0,.65,0,.99h4.44c.09-1.02.23-2.52.37-3.34.57-3.59,3.77-4.52,4.1-11.17Z"/>
      <path class="cls-81" d="M57.55,78.88h4.39c0-.34,0-.67-.01-.99,0,0-.1-6.02-.34-6.54-.46-2.1.36-3.06-2.88-5.08-.03-.01-.74-.24-1.8-.59t-.03-.01c-.69-.22-1.52-.5-2.4-.8-.34-.11-.67-.24-1.02-.35-.13-.04-.25-.09-.37-.13.33,6.64,3.53,7.57,4.1,11.15.14.81.28,2.32.37,3.34Z"/>
      <path class="cls-181" d="M40.5,70.44c-1.96-.02-3.76-.9-5.3-2.06l-10.5,10.5h7.82l8.45-8.45c-.16.01-.32.02-.48.01Z"/>
      <path class="cls-177" d="M53.09,64.38c-.31-.11-.63-.22-.93-.34-.38-.14-.76-.28-1.12-.42.01,0,.03-.02.04-.03-.45-.17-.86-.33-1.24-.49-3.03,5.22-6.08,7.14-8.84,7.32l-8.45,8.45h7.78l12.92-12.92c-.07-.49-.12-1-.15-1.57Z"/>
      <g>
        <path class="cls-161" d="M30.51,63.2c-.16.06-.31.13-.48.19h-.12c-.53.21-1.11.42-1.71.64-.31.11-.62.23-.94.34-.33,6.65-3.53,7.59-4.1,11.17-.14.81-.28,2.32-.37,3.34h1.92l10.5-10.5c-2.28-1.72-3.98-4.07-4.7-5.18Z"/>
        <path class="cls-161" d="M57.18,75.54c-.24-1.53-.97-2.58-1.74-3.79-.88-1.39-1.83-3-2.21-5.79l-12.92,12.92h17.24c-.09-1.02-.23-2.52-.37-3.34Z"/>
      </g>
      <g>
        <g>
          <path class="cls-85" d="M37.06,40.33c.33-.44.59-.92.75-1.44.82-2.64-.08-3.78-6.7-5.51-3.82-1-6.62-.61-7.1,1.66-.29,1.36.15,2.81,1.04,4.08,1.47-.8,3.24-1.27,5.15-1.27,2.73,0,5.17.96,6.85,2.48Z"/>
          <path class="cls-85" d="M55.67,39.58c1.12-1.38,1.71-3.01,1.38-4.53-.48-2.28-3.28-2.67-7.1-1.67-6.61,1.73-7.51,2.87-6.69,5.51.21.68.58,1.28,1.05,1.81,1.66-1.37,3.98-2.22,6.55-2.22,1.76,0,3.41.4,4.81,1.1Z"/>
          <path class="cls-9" d="M31.76,42.84c1.92.08,4.09-.89,5.29-2.51-1.68-1.52-4.12-2.48-6.85-2.48-1.91,0-3.68.47-5.15,1.27,1.42,2.02,3.99,3.6,6.71,3.71Z"/>
          <path class="cls-9" d="M55.67,39.58c-1.4-.69-3.05-1.1-4.81-1.1-2.57,0-4.89.85-6.55,2.22,1.25,1.4,3.22,2.21,4.99,2.14,2.52-.1,4.91-1.46,6.37-3.26Z"/>
        </g>
        <path class="cls-2" d="M31.11,33.38c-3.82-1-6.62-.61-7.1,1.66-.74,3.5,3.31,7.61,7.75,7.8,2.44.1,5.28-1.48,6.04-3.95.82-2.64-.08-3.78-6.7-5.51Z"/>
        <path class="cls-2" d="M49.94,33.38c-6.61,1.73-7.51,2.87-6.69,5.51.77,2.47,3.6,4.05,6.04,3.95,4.45-.18,8.5-4.29,7.76-7.79-.48-2.28-3.28-2.67-7.1-1.67Z"/>
        <path class="cls-156" d="M59.15,31.66c-2.3-.7-7.58.36-9.76.92-2.22.56-7.08,2.62-7.97,3.02-.38.17-.66.23-.88.25-.23-.02-.51-.09-.89-.26-.89-.4-5.75-2.45-7.97-3.01-2.18-.55-7.46-1.61-9.75-.92-.67.2-.87.83-.87.83.08.71,1.72,11.26,10.87,11.26,2.45,0,3.96-.97,4.99-1.83,1.03-.86,2.14-2.92,2.46-3.45.32-.53.66-.92,1.13-.88,0,0,.02-.01.02-.01.01,0,.02.01.03.01.48-.04.81.34,1.13.88.32.53,1.43,2.6,2.46,3.46,1.03.86,2.55,1.83,4.99,1.83,9.15,0,10.79-10.54,10.87-11.26,0,0-.2-.63-.86-.83ZM23.04,33.88c-.49,0-.89-.37-.89-.83s.4-.83.89-.83.89.37.89.83-.4.83-.89.83ZM37.81,38.88c-.76,2.47-3.61,4.05-6.04,3.95-4.44-.18-8.49-4.29-7.75-7.8.48-2.28,3.28-2.66,7.1-1.66,6.62,1.73,7.51,2.87,6.7,5.51ZM49.29,42.84c-2.43.1-5.27-1.48-6.04-3.95-.82-2.64.08-3.78,6.69-5.51,3.83-1,6.62-.61,7.1,1.67.74,3.5-3.3,7.61-7.76,7.79ZM58.25,33.88c-.49,0-.89-.37-.89-.83s.4-.83.89-.83.89.37.89.83-.4.83-.89.83Z"/>
      </g>
      <path class="cls-161" d="M60.69,44.68c5.15-8.03.85-23.26.85-23.26,0,0-.03.04-.09.11-1.32-4.8-3.53-7.39-3.53-7.39h0c-1.07-1.62-2.59-3.33-4.45-5.01-3.81-3.44-6.21-2.73-9.36-2.63,0,0-.01.02-.02.06-1.39-.3-8.84-1.79-13.27-.14-4.9,1.82-8.91,4.95-11.74,13.35-.72,2.12-1.1,4.14-1.27,6.03-.07-.07-.11-.1-.11-.1,0,0-3.01,15.61,2.79,23.07,0,0-1.39-4.49-.68-8.15,2.61,7.75,9.39,12.54,9.39,12.54,0,0-2.11-2.48-3.05-4.96-.73-1.92-1.82-5.22-1.82-10.07s4.76-10.87,4.76-10.87c0,0-2.2,3.77-2.63,7.92-.44,4.15,1.87,7.36,1.87,7.36,0,0-.46-4.92,1.15-8.85.81-1.97,2.14-3.69,4.31-4.4,0,0,0,0,0,0-1.17,3.18,1.18,5.85,1.18,5.85,0,0,0-.8.24-2.03.6-3.18,2.71-9.26,10.07-11.97l.23.33,5.18,7.52c.25.34.67.92,1.15,1.67,1.4,2.18,3.34,5.75,3.34,8.85,0,4.86-1.09,8.15-1.82,10.07-.94,2.48-3.05,4.96-3.05,4.96,0,0,6.26-4.42,9.06-11.64h0c.68-1.61,1.22-3.17,1.65-4.67.38,3.16-.34,6.43-.34,6.43Z"/>
      <g>
        <path class="cls-152" d="M34.31,61.62c0-.55-.47-1-1.06-1s-1.06.45-1.06,1,.47,1,1.06,1,1.06-.45,1.06-1Z"/>
        <path class="cls-152" d="M35.34,63.37c0-.55-.47-1-1.06-1s-1.06.45-1.06,1,.47,1,1.06,1,1.06-.45,1.06-1Z"/>
        <path class="cls-152" d="M36.62,64.97c0-.55-.47-1-1.06-1s-1.06.45-1.06,1,.47,1,1.06,1,1.06-.45,1.06-1Z"/>
        <path class="cls-152" d="M37.17,65.27c-.58,0-1.06.45-1.06,1s.47,1,1.06,1,1.06-.45,1.06-1-.47-1-1.06-1Z"/>
        <path class="cls-152" d="M39.14,66.01c-.59,0-1.06.45-1.06,1s.47,1,1.06,1,1.06-.45,1.06-1-.47-1-1.06-1Z"/>
        <path class="cls-152" d="M41.26,65.63c-.58,0-1.06.45-1.06,1s.47,1,1.06,1,1.06-.45,1.06-1-.47-1-1.06-1Z"/>
        <path class="cls-152" d="M43.11,64.66c-.58,0-1.06.45-1.06,1s.47,1,1.06,1,1.06-.45,1.06-1-.47-1-1.06-1Z"/>
        <path class="cls-152" d="M44.8,63.45c-.58,0-1.06.45-1.06,1s.47,1,1.06,1,1.06-.45,1.06-1-.47-1-1.06-1Z"/>
        <path class="cls-152" d="M46.17,61.92c-.58,0-1.06.45-1.06,1s.47,1,1.06,1,1.06-.45,1.06-1-.47-1-1.06-1Z"/>
        <path class="cls-152" d="M46.95,60.05c-.58,0-1.06.45-1.06,1s.47,1,1.06,1,1.06-.45,1.06-1-.47-1-1.06-1Z"/>
      </g>
    </g>
  </g>
</svg>