<?xml version="1.0" encoding="UTF-8"?>
<svg id="Layer_2" xmlns="http://www.w3.org/2000/svg" version="1.1" xmlns:xlink="http://www.w3.org/1999/xlink" viewBox="0 0 78.88 78.88">
  <!-- Generator: Adobe Illustrator 30.2.1, SVG Export Plug-In . SVG Version: 2.1.1 Build 1)  -->
  <defs>
    <style>
      .st0 {
        fill: #dac6a4;
      }

      .st1 {
        fill: #b5957e;
      }

      .st2 {
        fill: #a9cec8;
      }

      .st2, .st3, .st4 {
        isolation: isolate;
        opacity: .54;
      }

      .st5 {
        fill: #b8987d;
      }

      .st6 {
        fill: #714223;
      }

      .st7 {
        fill: #ccad8a;
      }

      .st8 {
        fill: #ecdab6;
      }

      .st9 {
        fill: #d7bd9d;
      }

      .st10 {
        fill: #fff;
      }

      .st11 {
        fill: #272213;
      }

      .st12 {
        fill: #7fa6ad;
      }

      .st13 {
        fill: #b7967d;
      }

      .st14 {
        fill: none;
      }

      .st15 {
        fill: #d2bb9b;
      }

      .st16 {
        fill: #ba9d82;
      }

      .st17 {
        fill: #dcc5a0;
      }

      .st18 {
        fill: #608789;
      }

      .st3 {
        fill: url(#linear-gradient);
      }

      .st19 {
        fill: #3c5b5a;
      }

      .st20 {
        fill: #c1a587;
      }

      .st21 {
        fill: #44361f;
      }

      .st4 {
        fill: url(#linear-gradient1);
      }

      .st22 {
        fill: #a98d76;
      }

      .st23 {
        fill: #462e1b;
      }

      .st24 {
        clip-path: url(#clippath);
      }

      .st25 {
        fill: #ebd9b5;
      }
    </style>
    <clipPath id="clippath">
      <rect class="st14" x="35.08" y="54.62" width="8.94" height="5.24"/>
    </clipPath>
    <linearGradient id="linear-gradient" x1="48.21" y1="50.21" x2="48.29" y2="35.65" gradientTransform="translate(0 81.28) scale(1 -1)" gradientUnits="userSpaceOnUse">
      <stop offset="0" stop-color="#fff"/>
      <stop offset="1" stop-color="#8dbdac"/>
    </linearGradient>
    <linearGradient id="linear-gradient1" x1="30.25" y1="50.11" x2="30.32" y2="35.56" gradientTransform="translate(0 81.28) scale(1 -1)" gradientUnits="userSpaceOnUse">
      <stop offset="0" stop-color="#fff"/>
      <stop offset="1" stop-color="#8dbdac"/>
    </linearGradient>
  </defs>
  <g id="Layer_1-2">
    <g>
      <rect class="st12" width="78.88" height="78.88"/>
      <path class="st17" d="M39.52,49.24v29.64h-16.14c-.26-.11-.4-.16-.4-.16,0-3.79.56-6.73,1.41-9.03,2.05-5.55,5.81-7.32,7.54-7.85.57-.18.92-.22.92-.22.06,0,.12,0,.18-.01.51-.08.92-.52,1.25-1.22.25-.52.45-1.18.62-1.95.07-.3.12-.6.17-.93.08-.55.16-1.12.22-1.72.02-.37.06-.72.1-1.1.14-1.81.19-3.8.19-5.68,0,0,2.17.22,3.92.22h0Z"/>
      <path class="st25" d="M56.12,78.72s-.15.05-.38.16h-16.22v-29.64h.04c1.75,0,3.94-.22,3.94-.22,0,1.87.04,3.82.18,5.64.04.35.08.72.1,1.07.07.63.15,1.21.24,1.76h0c.02.26.08.48.12.72.16.77.35,1.45.58,1.99.29.68.64,1.15,1.07,1.34.14.06.28.09.43.09,0,0,.62.07,1.55.44,1.9.74,5.09,2.68,6.92,7.63.85,2.3,1.41,5.25,1.41,9.03h0Z"/>
      <g class="st24">
        <path class="st16" d="M44.02,57.43h0c-.41.63-1.77,2.43-4.48,2.43h-.02c-2.56-.01-4.06-1.86-4.44-2.4.08-.54.16-1.11.22-1.71.02-.35.06-.71.1-1.09,1.25.31,2.61.5,4.06.53h.05c1.5-.02,2.87-.23,4.16-.57.04.35.08.71.11,1.06.06.62.15,1.21.24,1.75"/>
      </g>
      <path class="st7" d="M39.34,15.46c-17.1,0-17.19,14.2-16.43,23.49-1.17-2.2-4.65-1.53-4.36,1.94.27,3.34,5.25,5.05,5.11,4.68,2.59,6.88,9.44,12.06,15.68,12.06h.13V15.46h-.13"/>
      <path class="st22" d="M19.65,39.43c.84-1.35,2.15-.77,2.47-.47.34.32.62.74.41,1.53-.12.46-.59.49-.48,1.17.13.77.48.8.69.98.2.17.45.3.57.62.13.32.15.66.08.96-.13.54-.93.1-1.47-.13-.36-.17-1.49-1.11-1.77-1.43-.71-.8-1.05-2.36-.48-3.24"/>
      <path class="st9" d="M39.43,15.46c17.1,0,17.19,14.2,16.44,23.49,1.17-2.2,4.63-1.53,4.35,1.94-.26,3.34-5.24,5.05-5.11,4.68-2.52,6.88-9.44,12.06-15.68,12.06h-.09l-.04-42.18h.13"/>
      <path class="st22" d="M59.12,39.43c-.84-1.35-2.14-.77-2.47-.47-.34.32-.61.74-.41,1.53.12.46.59.49.48,1.17-.13.77-.48.8-.68.98-.2.17-.46.3-.58.62-.12.32-.15.66-.08.96.13.54.93.1,1.47-.13.37-.17,1.49-1.11,1.77-1.43.72-.8,1.05-2.36.48-3.24"/>
      <path class="st17" d="M39.2,19.47c-5.62,0-9.74,1.62-12.22,4.81-3.48,4.47-3.35,11.29-2.07,16.2.4,1.5.61,5.54.87,7.01,1.22,6.63,8.59,10.15,13.43,10.15h.13V19.47h-.08"/>
      <path class="st25" d="M51.41,24.29c-2.47-3.18-6.54-4.8-12.08-4.82v38.17c5.54-.06,12.17-3.93,13.3-10.15.27-1.48.47-5.51.87-7.01,1.29-4.89,1.42-11.69-2.09-16.18"/>
      <path class="st14" d="M38.65,49.48c-.08-.01-.15-.03-.21-.04.07.01.14.03.21.04Z"/>
      <path class="st14" d="M38.36,50.86s-.1-.02-.13-.03c.04.01.09.02.13.03Z"/>
      <path class="st13" d="M38.44,50.87s-.05-.01-.08-.02c.02,0,.05.01.08.02Z"/>
      <path class="st13" d="M38.23,50.83s-.05-.01-.07-.02h0s.03,0,.07.02h0Z"/>
      <path class="st9" d="M36.07,46.24c-.06-1.32,2.44-.48,3.26-.44.65.03,2.64-.42,2.81-.3,1.17.78-1.24,2.36-2.85,2.36-.43,0-3.18-.82-3.22-1.62h0Z"/>
      <path class="st14" d="M24.01,31.37c-.15.5-.26,1.06-.33,1.65,0,0,.22-.93.72-2.31-.21.29-.36.53-.39.66Z"/>
      <path class="st21" d="M34.56,19.56l-.07.07v.02s.05-.07.07-.1Z"/>
      <path class="st14" d="M38.7,50.14c-.08-.01-.15-.03-.22-.04.07.01.15.03.22.04Z"/>
      <path class="st14" d="M38.4,50.08s-.1-.02-.13-.03c.04.01.09.02.13.03Z"/>
      <path class="st1" d="M38.49,50.1s-.05-.01-.08-.02c.03,0,.05.01.08.02Z"/>
      <path class="st1" d="M38.27,50.05s-.05-.01-.07-.02h0s.03.01.07.02Z"/>
      <path class="st10" d="M27.07,34.36s1.3,5.32,3.54,5.75c2.24.43,4.66-.43,4.66-.43,0,0,.23-6.25-.92-7.06-1.15-.82-3.79-2-7.29,1.74Z"/>
      <path class="st15" d="M35.28,39.67s-.05.01-.17.06c-.03-1.92-.21-4.55-.92-5.05-1.06-.78-3.47-1.86-6.68,1.12-.29-.82-.44-1.45-.44-1.45,3.51-3.75,6.15-2.57,7.29-1.75,1.15.82.92,7.07.92,7.07h0Z"/>
      <ellipse class="st23" cx="31.75" cy="36.96" rx="2.2" ry="2.19"/>
      <path class="st6" d="M31.65,38.42c-.64-.05-1.13-.69-1.07-1.39s.64-1.25,1.28-1.2,1.13.69,1.07,1.39c-.06.7-.64,1.25-1.28,1.2Z"/>
      <path class="st11" d="M31.7,38.17c-.44-.04-.9-.52-.85-1.11.05-.6.58-1,1.03-.96.44.04.9.52.85,1.12-.05.6-.58,1-1.02.96Z"/>
      <path class="st10" d="M31.34,36.7c-.02.22-.24.37-.5.35-.26-.02-.45-.22-.43-.43.02-.22.24-.37.5-.35s.45.21.43.43Z"/>
      <path class="st10" d="M32.77,37.94c-.01.11-.12.19-.25.18-.13-.01-.22-.11-.22-.22.01-.11.12-.19.25-.18.13.01.22.11.22.22Z"/>
      <path class="st14" d="M38.74,50.77c-.08-.01-.15-.03-.22-.04.07.01.15.03.22.04Z"/>
      <path class="st14" d="M38.44,50.71s-.1-.02-.13-.03c.04.01.09.02.13.03Z"/>
      <path class="st1" d="M38.52,50.73s-.05-.01-.08-.02c.03,0,.05.01.08.02Z"/>
      <path class="st1" d="M38.31,50.68s-.05-.01-.07-.02h0s.03,0,.07.02Z"/>
      <path class="st14" d="M38.65,50.62c-.09-.01-.16-.03-.23-.04.08.02.16.03.23.04Z"/>
      <path class="st14" d="M38.33,50.56c-.05-.01-.11-.02-.14-.03.05.01.09.02.14.03Z"/>
      <path class="st13" d="M38.42,50.57s-.06-.01-.09-.02c.03,0,.05.01.09.02Z"/>
      <path class="st13" d="M38.19,50.52s-.05-.01-.08-.02h0s.03.01.08.02h0Z"/>
      <path class="st14" d="M38.59,50.4c-.09-.01-.16-.03-.23-.04.08.02.16.03.23.04Z"/>
      <path class="st14" d="M38.26,50.33c-.05-.01-.11-.02-.14-.03.05.01.09.02.14.03Z"/>
      <path class="st13" d="M38.35,50.35s-.06-.01-.09-.02c.03,0,.05.01.09.02Z"/>
      <path class="st13" d="M38.13,50.3s-.05-.01-.08-.02h0s.03.01.08.02h0Z"/>
      <path class="st14" d="M38.78,50.37c-.08-.01-.16-.03-.22-.04.07.02.15.03.22.04Z"/>
      <path class="st14" d="M38.47,50.31s-.1-.02-.14-.03c.05.01.09.02.14.03Z"/>
      <path class="st13" d="M38.56,50.32s-.06-.01-.09-.02c.03,0,.05.01.09.02Z"/>
      <path class="st13" d="M38.34,50.27s-.05-.01-.07-.02h0s.03.01.08.02h0Z"/>
      <path class="st10" d="M51.73,34.18s-1.3,5.32-3.54,5.75c-2.24.43-4.66-.43-4.66-.43,0,0-.23-6.25.92-7.06,1.15-.82,3.79-2,7.29,1.74Z"/>
      <path class="st15" d="M43.53,39.49s.05.01.17.06c.03-1.92.21-4.55.92-5.05,1.06-.78,3.47-1.86,6.68,1.12.29-.82.44-1.45.44-1.45-3.51-3.75-6.15-2.57-7.29-1.75-1.15.82-.92,7.07-.92,7.07h0Z"/>
      <path class="st23" d="M44.85,36.78c0,1.21.99,2.19,2.2,2.19s2.2-.98,2.2-2.19-.99-2.19-2.2-2.19-2.2.98-2.2,2.19Z"/>
      <path class="st6" d="M47.15,38.24c.64-.05,1.13-.69,1.07-1.39s-.64-1.25-1.28-1.2c-.64.05-1.13.69-1.07,1.39.06.7.64,1.25,1.28,1.2Z"/>
      <path class="st11" d="M47.1,37.99c.44-.04.9-.52.85-1.11-.05-.6-.58-1-1.03-.96-.44.04-.9.52-.85,1.12.05.6.58,1,1.02.96h0Z"/>
      <path class="st10" d="M47.46,36.52c.02.22.24.37.5.35.26-.02.45-.22.43-.43-.02-.22-.24-.37-.5-.35s-.45.21-.43.43Z"/>
      <path class="st10" d="M46.03,37.76c.01.11.12.19.25.18.13-.01.22-.11.22-.22-.01-.11-.12-.19-.25-.18-.13.01-.22.11-.22.22Z"/>
      <g>
        <path d="M36.62,34.28s-.42-.64-1.25-1.27c-.52-.4-1.03-.7-1.56-.92-.64-.27-1.34-.46-2.01-.55-.61-.07-1.28-.05-2.07.06-.6.11-1.18.29-1.68.51-.35.12-.63.29-.86.43-.09.05-.16.1-.24.14l-1.07.67,1.23-.29c.06-.01.12-.03.19-.05.26-.07.57-.15.94-.2.09-.01.17-.03.27-.05.16-.03.32-.06.48-.07.19-.01.38-.02.58-.04l.26-.02c.68,0,1.26.04,1.77.16.56.1,1.14.28,1.66.52.5.24.98.47,1.35.74.75.5,1.17.92,1.18.92h0c.1.1.24.16.38.16.1,0,.2-.03.29-.09.25-.16.32-.49.16-.73v-.02s-.01.01-.01.01Z"/>
        <path d="M51.95,32.66c-.07-.04-.15-.08-.24-.14-.22-.14-.5-.31-.85-.42-.51-.22-1.09-.4-1.7-.51-.78-.1-1.45-.12-2.06-.05-.67.09-1.36.28-2.01.55-.52.22-1.05.53-1.56.92-.82.62-1.22,1.22-1.25,1.27h0c-.14.22-.11.5.07.68.1.1.24.16.38.16h0c.14,0,.28-.06.38-.16h0s.45-.44,1.18-.92c.37-.27.84-.5,1.34-.74.53-.24,1.1-.42,1.67-.52.51-.12,1.08-.17,1.76-.16l.27.02c.2.01.39.03.58.04.16,0,.32.04.48.07.09.02.18.04.27.05.37.05.69.14.94.2.07.02.13.04.19.05l1.23.29-1.08-.67h0Z"/>
      </g>
      <path class="st14" d="M38.36,51.4c-.08-.01-.16-.03-.23-.04.08.02.15.03.23.04Z"/>
      <path class="st14" d="M38.05,51.34c-.05-.01-.1-.02-.14-.03.05.01.09.02.14.03Z"/>
      <path class="st5" d="M38.13,51.35s-.06-.01-.09-.02c.03,0,.05.01.09.02Z"/>
      <path class="st5" d="M37.91,51.3s-.05-.01-.08-.02h0s.03.01.08.02Z"/>
      <path class="st8" d="M36.18,52.45c-.06-.85,2.4.18,3.21.2.64.02,2.58-.13,2.76-.19,1.35-.5-.07,1.43-2.8,1.53-1.25.05-3.13-1.02-3.16-1.54h0Z"/>
      <path class="st0" d="M44.19,50.8c-.67-.03-1.35.52-2.16.44-.03-.02-.05-.02-.08-.02-.19-.03-.37,0-.57.05-.25.05-.5.15-.74.23-.4.13-.85.23-1.32.2h-.05c-.47.03-.92-.07-1.32-.2-.24-.08-.49-.18-.74-.23-.2-.05-.38-.08-.57-.05-.04,0-.05,0-.08.02-.8.08-1.49-.47-2.16-.44-.19.02-.45-.03-.6-.03.03.02.07.03.1.05,1.91.92,3.55,2.65,5.37,2.59h.05c1.82.06,3.46-1.67,5.37-2.59.04-.02.07-.03.1-.05-.15,0-.42.05-.6.03h0Z"/>
      <path class="st20" d="M44.75,50.75h0s-1.94-.74-3.31-.31c0,0-.51.2-1.04.32-.32.12-.72.16-1.09.14h0c-.29-.01-.57-.05-.79-.09-.07-.01-.15-.03-.23-.04-.03,0-.06-.01-.09-.02-.05-.01-.09-.02-.14-.03-.05-.01-.08-.02-.08-.02h0c-.44-.12-.82-.26-.82-.26-1.38-.43-3.31.31-3.31.31h0s-.04.02-.04.02c.15,0,.42.05.6.03.67-.03,1.35.52,2.16.44.03-.02.05-.02.08-.02.19-.03.37,0,.57.05.25.05.5.15.74.23.4.13.85.23,1.32.2h.05c.47.03.92-.07,1.32-.2.24-.08.49-.18.74-.23.2-.05.38-.08.57-.05.04,0,.05,0,.08.02.8.08,1.49-.47,2.16-.44.19.02.45-.03.6-.03,0,0-.02,0-.04-.02h0Z"/>
      <path class="st20" d="M36.04,51.2s3.63,1.1,6.44.02l-.32-.22h-3.8l-2.31.19h0Z"/>
      <path class="st19" d="M24.92,66.32s-2.38,5.06-2.35,8.02h3.04c-.01,2.03-.07,3.58-.14,4.53h14.08l-13.92-13.42c-.24.27-.47.55-.7.86Z"/>
      <path class="st19" d="M56.54,74.35c.11-4.53-2.31-8.02-2.31-8.02-.82-1.12-1.72-1.98-2.61-2.62-.07-.07-.16-.12-.23-.18-1.17-.84-2.29-1.31-3.12-1.58-.16-.06-.31-.1-.45-.15-.6-.17-.98-.2-.98-.2-.33,0-.63-.12-.89-.34,0,0,0-.01-.01-.01-.09-.08-.17-.18-.26-.28-.04.02-.1.12-.16.29-.17.41-.91,1.97-2.01,3.4l10.05,9.69h2.97Z"/>
      <path class="st18" d="M53.57,74.35l-10.05-9.69c-1.05,1.37-2.42,2.61-3.95,2.61-3.13,0-5.62-5.21-5.95-6.01-.06-.18-.12-.27-.16-.29-.09.1-.17.2-.26.28-.01,0-.01.01-.01.01-.26.21-.55.34-.89.34,0,0-.39.05-1.03.22-.14.04-.29.08-.45.14-.68.23-1.55.6-2.46,1.18-.2.13-.41.26-.61.41-.07.05-.16.1-.24.18-.63.47-1.27,1.04-1.89,1.74l13.92,13.42h14.15c-.07-.95-.14-2.5-.15-4.53h.04,0Z"/>
      <path d="M61.63,18.37c3.71,2.23,6.36-.41,6.36-.41-5.67-.25-5.63-3.34-5.63-3.34,1.08-1.58,3.6-.49,3.6-.49-2.43-5.8-9.01-.05-9.01-.05-1.39-1.75-3.05-1.23-3.05-1.23,2.07,1.18,2.06,3.04,1.63,4.48-2.05-1.98-4.39-3.15-6.99-3.99-1.08-.35-2.34-.54-3.64-.62l.29-.05s-.15-.03-.41-.08v-.19c-1.86-.28-3.66-.35-5.26-.31-1.6-.04-3.4.03-5.26.31v.19c-.26.05-.41.08-.41.08l.28.05c-1.31.08-2.56.27-3.65.62-2.59.84-4.94,2.01-6.99,3.99-.43-1.44-.44-3.3,1.63-4.48,0,0-1.66-.52-3.05,1.23,0,0-6.58-5.74-9,.05,0,0,2.52-1.09,3.6.49,0,0,.04,3.1-5.63,3.34,0,0,2.66,2.64,6.36.41,0,0-1.11,5.97-7.12,5.17,0,0,3.3,3.88,9.01.04-.2.46-.41.93-.6,1.44-2.84,7.34-.51,13.36.04,15.93,1.75,8.13,10.13,13.28,10.13,13.28,0,0-2.12-2.17-3.06-4.34-.73-1.68-1.34-4.6-1.83-8.81-.75-6.47,3.76-9.51,3.76-9.51,0,0-1.19,3.3-1.62,6.93-.32,2.62.8,4.81,1.45,5.82.12.23.27.44.43.61,0,0-2.27-6.55,5.17-9.8.09,1.93,1.5,3.34,1.5,3.34,0,0,0-.39.09-1,.01-.06.02-.13.03-.19h0c.13-.8.41-1.91.99-3.03h0c1.55-2.96,5.27-6.03,14.24-3.77,3.64.82,6.45,4.17,4.87,13.53-.34,2.69-1.1,4.63-1.65,5.89-.94,2.16-3.06,4.34-3.06,4.34,0,0,8.38-5.15,10.13-13.28.55-2.57,2.88-8.59.04-15.93-.2-.5-.4-.98-.6-1.44,5.72,3.85,9.01-.04,9.01-.04-6,.8-7.12-5.17-7.12-5.17h-.02Z"/>
      <g>
        <path class="st3" d="M54.23,38.15c-.02.28-.05.56-.11.86-2.91-1.45-7.03-2.25-11.59.62-.14-.47-.21-.94-.25-1.37-.07-.56-.09-1.23.04-1.87.36-3.02,5.67-3.13,6.43-3.13h.19c.67-.02,1.24,0,1.74.05.23.02.53.06.87.14,1.97.44,2.25,1.47,2.27,1.57.08.17.15.35.19.55.27.91.3,1.79.22,2.57h0Z"/>
        <path class="st4" d="M36.25,38.27h0c-.03.25-.07.48-.11.68-4.7-2.36-8.84-.96-11.53.69-.13-.43-.24-.94-.3-1.5-.1-1.35.19-2.35.19-2.35.01-.08.02-.15.04-.23.05-.18.11-.36.19-.54h0c.46-.96,1.46-1.39,2.28-1.58.25-.06.52-.1.83-.14h.02c.24-.02.39-.02.39-.02.49-.02.94-.04,1.37-.03h.16c3.7.07,5.09,1.2,5.09,1.2.8.43,1.19,1.16,1.35,1.93h0s.14.82.04,1.88h0Z"/>
        <path class="st2" d="M54.12,39.01c-.13.69-.37,1.43-.8,2.15-.03.06-.05.09-.05.09-.01.01-.02.03-.03.05-.12.2-.26.39-.42.58-.23.29-.5.53-.82.71-.23.14-.54.29-.94.43-1.86.73-4,.32-5.03.03-.03,0-.22-.05-.5-.15-.08-.03-.13-.05-.13-.05-1.7-.65-2.5-1.96-2.86-3.22,4.56-2.87,8.67-2.07,11.59-.62h0Z"/>
        <path class="st2" d="M36.13,38.95c-.05.24-.1.43-.13.53-.02.05-.02.08-.02.08-.52,2.16-2.13,3.02-2.97,3.33h0c-.11.04-.27.09-.49.15h-.01c-2.28.62-3.96.35-5.04-.04h0c-.81-.32-1.56-.86-2.15-1.72-.03-.04-.05-.09-.08-.13-.1-.18-.33-.63-.54-1.28-.02-.08-.05-.16-.07-.24,2.69-1.65,6.83-3.06,11.53-.69h0Z"/>
        <path class="st10" d="M56.7,33.77c-.05-.3-.27-.55-.57-.63-6.18-1.71-10.99-.71-10.99-.71-2.57.44-3.69,1.92-3.69,1.92-.73.77-2.2.44-2.2.44h0s-1.46.33-2.2-.44c0,0-1.11-1.47-3.69-1.92,0,0-4.81-1-10.99.71-.3.08-.52.33-.57.63-.1.64-.19,1.71.28,1.98,0,0,.94.19.94,1.5,0,0,.73,4.31,1.61,5.24,0,0,1.18,2.15,5.17,2.04,0,0,5.46.23,6.52-2.76.14-.4.34-.85.5-1.24l.91-2.6c.1-.28.27-.52.51-.69.23-.17.55-.3.99-.27h0c.44-.03.77.1.99.27.24.17.41.42.51.69l.91,2.6c.16.39.36.85.5,1.24,1.06,2.99,6.52,2.76,6.52,2.76,3.99.12,5.17-2.04,5.17-2.04.88-.93,1.61-5.24,1.61-5.24,0-1.31.94-1.5.94-1.5.47-.27.38-1.34.28-1.98h0ZM36.25,38.27h0c-.07.58-.2,1.03-.25,1.21,0,.01,0,.03-.01.04-.01.03-.01.05-.01.05-.52,2.16-2.13,3.02-2.97,3.33h0c-.07.02-.17.06-.29.09-.06.02-.13.04-.2.06h-.01c-.67.18-1.29.29-1.86.34-1.36.11-2.42-.1-3.18-.37h0c-.3-.12-.59-.26-.87-.45-.48-.31-.92-.73-1.29-1.27-.01-.02-.02-.04-.04-.06-.01-.02-.03-.05-.05-.07-.06-.11-.18-.34-.31-.65-.08-.18-.16-.4-.24-.63-.02-.08-.05-.16-.07-.24h0c-.13-.44-.24-.94-.3-1.5-.1-1.35.19-2.35.19-2.35.01-.08.02-.15.04-.23.05-.18.11-.36.19-.54h0c.46-.96,1.46-1.39,2.28-1.58.25-.06.52-.1.83-.13h.03c.24-.02.39-.02.39-.02.49-.02.94-.04,1.37-.03h.16c3.7.07,5.09,1.2,5.09,1.2.8.43,1.19,1.16,1.35,1.93h0s.14.82.04,1.88h0ZM54.23,38.15c-.02.32-.07.66-.14,1.01,0,.03-.01.07-.02.1-.02.11-.05.22-.08.33,0,.02-.01.05-.02.07-.03.1-.06.2-.09.29,0,.02-.01.04-.02.06-.04.12-.09.24-.14.36,0,.01-.01.02-.02.04-.05.11-.09.21-.15.31-.01.03-.03.06-.04.08-.06.11-.12.22-.18.33,0,0,0,.01-.01.02-.03.06-.05.09-.05.09,0,.01-.02.02-.02.04,0,0,0,0,0,0-.02.03-.04.06-.06.09-.11.17-.22.33-.36.49-.06.07-.12.14-.18.2-.19.2-.4.37-.64.51-.19.11-.43.24-.73.35-.07.03-.14.05-.21.08-.56.22-1.14.33-1.7.38-1.34.11-2.6-.15-3.33-.35-.01,0-.04,0-.07-.02-.05-.01-.12-.03-.21-.06-.06-.02-.14-.05-.22-.08-.08-.03-.13-.05-.13-.05-.01,0-.02-.01-.03-.01-.08-.03-.16-.06-.24-.1-.03-.01-.06-.02-.08-.04-.07-.04-.14-.07-.21-.11-.01,0-.03-.01-.04-.02-.08-.04-.16-.09-.23-.14-.02-.01-.04-.02-.06-.04-.06-.04-.12-.08-.19-.12-.01-.01-.03-.02-.04-.03-.07-.05-.14-.11-.2-.16-.01-.01-.03-.02-.04-.04-.05-.05-.11-.1-.16-.14l-.04-.04c-.06-.06-.12-.12-.17-.18,0-.01-.02-.02-.02-.03-.05-.05-.1-.11-.14-.17-.01-.01-.02-.02-.03-.04-.05-.06-.1-.13-.15-.2,0,0,0,0,0,0-.05-.06-.09-.13-.13-.2,0-.01-.01-.02-.02-.04-.09-.14-.17-.29-.24-.43,0,0,0-.01,0-.02-.15-.31-.27-.62-.36-.94h0c-.14-.47-.21-.94-.25-1.37-.07-.56-.09-1.23.04-1.87.36-3.02,5.67-3.13,6.43-3.13h.19c.67-.02,1.24,0,1.74.05.23.02.53.06.87.14,1.97.44,2.25,1.47,2.27,1.57.08.17.15.35.19.55.27.91.3,1.79.22,2.57h0Z"/>
      </g>
      <path class="st10" d="M63.52,25.45c-.07-.85-3.8-3.19-5.97-4.02.03-.36-.05-.74-.25-1.07-.2-.34-.5-.56-.82-.67.14-2.47-.4-7.07-1.1-7.47-.93-.53-3.34,2.36-3.34,2.36,0,0-3.43,1.24-3.34,2.36.07.85,3.8,3.19,5.97,4.02-.03.36.05.74.25,1.07s.5.56.82.67c-.14,2.47.4,7.06,1.1,7.46.93.53,3.34-2.36,3.34-2.36,0,0,3.43-1.24,3.34-2.36h0Z"/>
      <path class="st10" d="M17.62,25.17c-.09-.85,3.13-3.84,5.1-5.06-.1-.35-.09-.73.05-1.1.14-.37.38-.64.67-.81-.61-2.4-.95-7.01-.35-7.54.81-.69,3.73,1.7,3.73,1.7,0,0,3.6.58,3.73,1.7.09.85-3.13,3.84-5.1,5.06.1.35.1.73-.04,1.1-.14.37-.38.64-.68.81.61,2.4.95,7.01.34,7.54-.81.69-3.73-1.69-3.73-1.69,0,0-3.6-.58-3.73-1.7h0Z"/>
    </g>
  </g>
</svg>