<?xml version="1.0" encoding="UTF-8"?>
<svg id="Layer_2" xmlns="http://www.w3.org/2000/svg" version="1.1" xmlns:xlink="http://www.w3.org/1999/xlink" viewBox="0 0 78.88 78.88">
  <!-- Generator: Adobe Illustrator 30.2.1, SVG Export Plug-In . SVG Version: 2.1.1 Build 1)  -->
  <defs>
    <style>
      .st0 {
        fill: #b5957e;
      }

      .st1 {
        fill: #b8987d;
      }

      .st2 {
        fill: #714223;
      }

      .st3 {
        fill: #ccad8a;
      }

      .st4 {
        fill: #ecdab6;
      }

      .st5 {
        fill: #d7bd9d;
      }

      .st6 {
        fill: #fff;
      }

      .st7 {
        fill: #272213;
      }

      .st8 {
        fill: #e5b344;
      }

      .st9 {
        fill: #b7967d;
      }

      .st10 {
        fill: #c27976;
      }

      .st11 {
        fill: none;
      }

      .st12 {
        fill: #38362e;
      }

      .st13 {
        fill: #b12717;
      }

      .st14 {
        fill: #af6a6f;
      }

      .st15 {
        fill: #403317;
      }

      .st16 {
        fill: #d2bb9b;
      }

      .st17 {
        fill: #ba9d82;
      }

      .st18 {
        fill: #dcc5a0;
      }

      .st19 {
        fill: #d6bb9c;
      }

      .st20 {
        fill: #49463f;
      }

      .st21 {
        fill: #44361f;
      }

      .st22 {
        fill: #5b5051;
      }

      .st23 {
        fill: #523a38;
      }

      .st24 {
        fill: #a98d76;
      }

      .st25 {
        fill: #462e1b;
      }

      .st26 {
        clip-path: url(#clippath);
      }

      .st27 {
        fill: #827578;
      }

      .st28 {
        fill: #ebd9b5;
      }
    </style>
    <clipPath id="clippath">
      <rect class="st11" x="36.38" y="54.69" width="8.94" height="5.22"/>
    </clipPath>
  </defs>
  <g id="Layer_1-2">
    <g>
      <rect class="st27" width="78.88" height="78.88"/>
      <path class="st18" d="M40.82,49.33v29.54h-16.14c-.26-.1-.4-.16-.4-.16,0-1.88.14-3.57.39-5.06.11-.69.25-1.34.41-1.94.17-.72.38-1.39.61-2,.05-.12.09-.25.14-.37.05-.13.11-.26.16-.4s.11-.25.17-.38c.11-.25.23-.49.35-.73.21-.4.43-.78.66-1.13.06-.1.12-.19.18-.28.3-.43.6-.83.91-1.2.09-.1.17-.2.26-.29.09-.1.17-.19.26-.28.09-.09.18-.18.27-.26.09-.09.17-.17.26-.24.17-.16.36-.31.53-.45.86-.68,1.68-1.14,2.38-1.45.09-.04.17-.07.26-.11.27-.11.52-.19.74-.26.57-.18.92-.22.92-.22.06,0,.12,0,.18-.02.51-.08.92-.52,1.25-1.21.25-.52.45-1.18.62-1.94.06-.3.12-.6.17-.92.08-.55.16-1.12.22-1.72.03-.36.06-.72.1-1.09.15-1.81.19-3.79.19-5.66,0,0,2.17.22,3.92.22h0Z"/>
      <path class="st28" d="M57.42,78.72s-.14.05-.38.16h-16.22v-29.54h.04c1.75,0,3.94-.22,3.94-.22,0,1.86.04,3.81.18,5.62.04.35.08.72.11,1.07.06.62.14,1.21.24,1.75h0c.03.26.07.48.12.72.16.77.35,1.45.58,1.99.29.68.64,1.15,1.07,1.33.13.06.28.09.43.09,0,0,.62.07,1.55.43.49.19,1.07.46,1.69.84.12.07.26.16.38.25.1.06.21.14.31.22.09.06.19.13.27.2.19.14.39.31.58.49.08.06.15.13.22.2.09.07.17.16.26.25.06.05.11.11.17.17.11.12.24.25.35.38.06.06.12.13.17.2.26.3.52.63.77.99.11.15.21.31.31.47.21.33.41.68.61,1.05.24.47.47.96.68,1.5.05.12.1.24.14.37.23.62.44,1.28.62,2,.16.61.3,1.26.41,1.94.25,1.49.39,3.17.39,5.06h0Z"/>
      <g class="st26">
        <path class="st17" d="M45.33,57.5h0c-.41.63-1.77,2.42-4.48,2.42h-.02c-2.56-.01-4.06-1.85-4.44-2.39.08-.54.16-1.11.22-1.71.02-.35.06-.71.1-1.09,1.25.31,2.61.5,4.06.53h.05c1.5-.02,2.87-.23,4.16-.57.04.35.08.71.1,1.06.06.62.15,1.2.24,1.75"/>
      </g>
      <path class="st3" d="M40.64,15.66c-17.1,0-17.19,14.15-16.43,23.42-1.17-2.2-4.65-1.52-4.36,1.94.27,3.33,5.25,5.03,5.11,4.67,2.59,6.85,9.44,12.02,15.68,12.02h.13V15.66h-.13"/>
      <path class="st24" d="M20.95,39.56c.84-1.34,2.15-.76,2.47-.47.34.32.62.74.41,1.52-.12.45-.59.49-.48,1.16.13.76.48.8.69.98.2.17.45.3.57.62.13.32.15.66.08.96-.13.54-.93.1-1.47-.13-.36-.17-1.49-1.11-1.77-1.42-.71-.8-1.05-2.35-.48-3.23"/>
      <path class="st5" d="M40.73,15.66c17.1,0,17.19,14.15,16.44,23.42,1.17-2.2,4.63-1.52,4.35,1.94-.26,3.33-5.24,5.03-5.11,4.67-2.52,6.85-9.44,12.02-15.68,12.02h-.09l-.04-42.05h.13"/>
      <path class="st24" d="M60.42,39.56c-.84-1.34-2.14-.76-2.47-.47-.34.32-.61.74-.41,1.52.12.45.59.49.48,1.16-.13.76-.48.8-.68.98-.2.17-.46.3-.58.62-.12.32-.15.66-.08.96.13.54.93.1,1.47-.13.37-.17,1.49-1.11,1.77-1.42.72-.8,1.05-2.35.48-3.23"/>
      <path class="st18" d="M40.5,19.65c-5.62,0-9.74,1.62-12.22,4.79-3.48,4.46-3.35,11.26-2.07,16.14.4,1.5.61,5.52.87,6.99,1.22,6.6,8.59,10.12,13.43,10.12h.13V19.65h-.08"/>
      <path class="st28" d="M52.71,24.46c-2.47-3.17-6.54-4.78-12.08-4.81v38.05c5.54-.06,12.17-3.92,13.3-10.12.27-1.47.47-5.49.87-6.99,1.29-4.87,1.42-11.66-2.09-16.13"/>
      <path class="st11" d="M39.95,51c-.08-.01-.15-.03-.21-.04.07.01.14.03.21.04Z"/>
      <path class="st11" d="M39.66,50.94s-.1-.02-.13-.03c.04.01.09.02.13.03Z"/>
      <path class="st9" d="M39.74,50.96s-.05-.01-.08-.02c.02,0,.05.01.08.02Z"/>
      <path class="st9" d="M39.53,50.91s-.05-.01-.07-.02h0s.03,0,.07.02h0Z"/>
      <path class="st11" d="M25.31,31.51c-.15.5-.26,1.05-.33,1.64,0,0,.22-.93.72-2.3-.21.29-.36.53-.39.66Z"/>
      <path class="st21" d="M35.86,19.74l-.07.07v.02s.05-.07.07-.1Z"/>
      <path class="st11" d="M40,50.23c-.08-.01-.15-.03-.22-.04.07.01.15.03.22.04Z"/>
      <path class="st11" d="M39.7,50.17s-.1-.02-.13-.03c.04.01.09.02.13.03Z"/>
      <path class="st0" d="M39.79,50.19s-.05-.01-.08-.02c.03,0,.05.01.08.02Z"/>
      <path class="st0" d="M39.57,50.14s-.05-.01-.07-.02h0s.03,0,.07.02Z"/>
      <path class="st19" d="M37.3,45.99c-.07-1.35,2.5-.49,3.35-.45.67.04,2.71-.43,2.88-.31,1.2.8-1.27,2.41-2.92,2.41-.44,0-3.27-.84-3.31-1.65Z"/>
      <path class="st6" d="M28.37,34.5s1.3,5.3,3.54,5.73c2.24.43,4.66-.43,4.66-.43,0,0,.23-6.23-.92-7.04-1.15-.82-3.79-2-7.29,1.74Z"/>
      <path class="st16" d="M36.58,39.79s-.05.01-.17.06c-.03-1.91-.21-4.53-.92-5.04-1.06-.77-3.47-1.86-6.68,1.11-.29-.82-.44-1.44-.44-1.44,3.51-3.74,6.15-2.56,7.29-1.75,1.15.82.92,7.05.92,7.05h0Z"/>
      <ellipse class="st25" cx="33.05" cy="37.09" rx="2.2" ry="2.18"/>
      <path class="st2" d="M32.95,38.55c-.64-.05-1.13-.69-1.07-1.39s.64-1.25,1.28-1.19,1.13.69,1.07,1.39-.64,1.25-1.28,1.2h0Z"/>
      <path class="st7" d="M33,38.29c-.44-.04-.9-.52-.85-1.11.05-.6.58-.99,1.03-.96.44.04.9.52.85,1.11s-.58.99-1.02.96h0Z"/>
      <path class="st6" d="M32.64,36.83c-.02.22-.24.37-.5.35-.26-.02-.45-.21-.43-.43s.24-.37.5-.35c.26.02.45.21.43.43h0Z"/>
      <path class="st6" d="M34.07,38.07c-.01.11-.12.19-.25.18-.13-.01-.22-.11-.22-.21.01-.11.12-.19.25-.18.13.01.22.11.22.21Z"/>
      <path class="st11" d="M40.04,50.85c-.08-.01-.15-.03-.22-.04.07.01.15.03.22.04Z"/>
      <path class="st11" d="M39.74,50.8s-.1-.02-.13-.03c.04.01.09.02.13.03Z"/>
      <path class="st0" d="M39.82,50.81s-.05-.01-.08-.02c.03,0,.05.01.08.02Z"/>
      <path class="st0" d="M39.61,50.76s-.05-.01-.07-.02h0s.03,0,.07.02Z"/>
      <path class="st11" d="M39.95,50.71c-.09-.01-.16-.03-.23-.04.08.02.16.03.23.04Z"/>
      <path class="st11" d="M39.63,50.64c-.05-.01-.11-.02-.14-.03.05.01.09.02.14.03Z"/>
      <path class="st9" d="M39.72,50.66s-.06-.01-.09-.02c.03,0,.05.01.09.02Z"/>
      <path class="st9" d="M39.49,50.61s-.05-.01-.08-.02h0s.03.01.08.02h0Z"/>
      <path class="st11" d="M39.89,50.49c-.09-.01-.16-.03-.23-.04.08.02.16.03.23.04Z"/>
      <path class="st11" d="M39.56,50.42c-.05-.01-.11-.02-.14-.03.05.01.09.02.14.03Z"/>
      <path class="st9" d="M39.65,50.44s-.06-.01-.09-.02c.03,0,.05.01.09.02Z"/>
      <path class="st9" d="M39.43,50.39s-.05-.01-.08-.02h0s.03.01.08.02h0Z"/>
      <path class="st11" d="M40.08,50.45c-.08-.01-.16-.03-.22-.04.07.02.15.03.22.04Z"/>
      <path class="st11" d="M39.77,50.39s-.1-.02-.14-.03c.05.01.09.02.14.03Z"/>
      <path class="st9" d="M39.86,50.41s-.06-.01-.09-.02c.03,0,.05.01.09.02Z"/>
      <path class="st9" d="M39.64,50.36s-.05-.01-.07-.02h0s.03.01.08.02h0Z"/>
      <path class="st6" d="M53.03,34.32s-1.3,5.3-3.54,5.73c-2.24.43-4.66-.43-4.66-.43,0,0-.23-6.23.92-7.04,1.15-.82,3.79-2,7.29,1.74h0Z"/>
      <path class="st16" d="M44.82,39.61s.05.01.17.06c.03-1.91.21-4.53.92-5.04,1.06-.77,3.47-1.86,6.68,1.11.29-.82.44-1.44.44-1.44-3.51-3.74-6.15-2.56-7.29-1.75-1.15.82-.92,7.05-.92,7.05h0Z"/>
      <path class="st25" d="M46.15,36.91c0,1.21.99,2.18,2.2,2.18s2.2-.98,2.2-2.18-.99-2.18-2.2-2.18-2.2.98-2.2,2.18Z"/>
      <path class="st2" d="M48.46,38.37c.64-.05,1.13-.69,1.07-1.39s-.64-1.25-1.28-1.19c-.64.05-1.13.69-1.07,1.39s.64,1.25,1.28,1.2h0Z"/>
      <path class="st7" d="M48.4,38.11c.44-.04.9-.52.85-1.11-.05-.6-.58-.99-1.03-.96-.44.04-.9.52-.85,1.11s.58.99,1.02.96h0Z"/>
      <path class="st6" d="M48.76,36.65c.02.22.24.37.5.35.26-.02.45-.21.43-.43-.02-.22-.24-.37-.5-.35-.26.02-.45.21-.43.43h0Z"/>
      <path class="st6" d="M47.33,37.89c.01.11.12.19.25.18.13-.01.22-.11.22-.21-.01-.11-.12-.19-.25-.17-.13.01-.22.11-.22.21h0Z"/>
      <g>
        <path d="M37.92,34.42s-.42-.64-1.25-1.27c-.52-.4-1.03-.69-1.56-.92-.64-.27-1.34-.46-2.01-.55-.61-.07-1.28-.05-2.07.06-.6.11-1.18.29-1.68.5-.35.12-.63.29-.86.43-.09.05-.16.1-.24.14l-1.07.67,1.23-.29c.06-.01.12-.03.19-.05.26-.07.57-.15.94-.2.09-.01.17-.03.27-.05.16-.03.32-.06.48-.07.19-.01.38-.02.58-.04l.26-.02c.68,0,1.26.04,1.77.16.56.1,1.14.28,1.66.52.5.24.98.47,1.35.74.75.5,1.17.91,1.18.92h0c.1.1.24.16.38.16.1,0,.2-.03.29-.08.25-.16.32-.49.16-.73v-.02s-.01,0-.01,0Z"/>
        <path d="M53.25,32.81c-.07-.04-.15-.08-.24-.14-.22-.14-.5-.31-.85-.42-.51-.22-1.09-.4-1.7-.51-.78-.1-1.45-.12-2.06-.05-.67.09-1.36.28-2.01.55-.52.22-1.05.53-1.56.92-.82.62-1.22,1.22-1.25,1.27h0c-.14.22-.11.5.07.68.1.1.24.16.38.16h0c.14,0,.28-.06.38-.16h0s.45-.44,1.18-.92c.37-.27.84-.5,1.34-.74.53-.24,1.1-.42,1.67-.52.51-.12,1.08-.17,1.76-.16l.27.02c.2.01.39.03.58.04.16,0,.32.04.48.07.09.02.18.04.27.05.37.05.69.14.94.2.07.02.13.04.19.05l1.23.29-1.08-.67h0Z"/>
      </g>
      <path class="st11" d="M39.24,52.7c-.08-.01-.15-.03-.21-.04.07.01.14.03.21.04Z"/>
      <path class="st11" d="M38.95,52.64s-.1-.02-.13-.03c.04.01.09.02.13.03Z"/>
      <path class="st1" d="M39.03,52.66s-.05-.01-.08-.02c.03,0,.05.01.08.02Z"/>
      <path class="st1" d="M38.82,52.62s-.05-.01-.07-.02h0s.03,0,.07.02Z"/>
      <path class="st11" d="M39.18,52.5c-.08-.01-.15-.03-.21-.04.07.01.14.03.21.04Z"/>
      <path class="st11" d="M38.89,52.44s-.1-.02-.13-.03c.04.01.09.02.13.03Z"/>
      <path class="st1" d="M38.97,52.46s-.05-.01-.08-.02c.03,0,.05.01.08.02Z"/>
      <path class="st1" d="M38.76,52.41s-.05-.01-.07-.02h0s.03,0,.07.02Z"/>
      <path class="st11" d="M39.37,52.47c-.08-.01-.15-.03-.21-.04.07.01.14.03.21.04Z"/>
      <path class="st11" d="M39.08,52.41s-.1-.02-.12-.03c.04.01.08.02.12.03Z"/>
      <path class="st1" d="M39.16,52.43s-.05-.01-.08-.02c.02,0,.05.01.08.02Z"/>
      <path class="st1" d="M38.95,52.38s-.05-.01-.07-.02h0s.03,0,.07.02h0Z"/>
      <path class="st4" d="M37.37,53.06c-.06-.84,2.37.18,3.17.2.64.02,2.55-.12,2.73-.19,1.34-.49-.07,1.41-2.77,1.51-1.24.05-3.09-1.01-3.13-1.52h0Z"/>
      <path class="st14" d="M45.38,51.04c-1.54-.29-4.79.02-4.79.02-2.68.44-4.78-.03-4.79-.01-.06,0,2.14,2.9,4.75,2.77h0c2.61.13,4.89-2.77,4.83-2.78h0Z"/>
      <path class="st10" d="M42.14,50.43c-.69-.08-1.19.42-1.55.38-.36.03-.83-.29-1.53-.29-.98-.01-1.46-.1-3.26.53.06.12,1.21.78,3.37.82.03,0,.61.32,1.43.32.52,0,1.22-.34,1.25-.34,2.16-.03,3.48-.67,3.54-.79-2.38-.73-2.19-.63-3.26-.63h0Z"/>
      <path class="st15" d="M57.03,73.67h-2.48c-.57,0-1.02.48-.98,1.04.03.32.05.65.06.97.03.49.05.98.06,1.5.02.49.02.99.02,1.51,0,0-.1.05-.3.18h-12.65v-12.11h.06c.11,0,.23,0,.35,0,.82,0,1.6-.07,2.34-.21,3.19-.59,5.53-2.36,5.57-4.44,1.64.63,4.24,2.16,6.1,5.74.24.47.47.96.68,1.5.05.12.1.24.14.37h-1.02c-1.08,0-1.89.95-1.75,2h3.39c.16.61.3,1.26.41,1.94h0Z"/>
      <path class="st22" d="M40.76,66.77v12.11h-12.43c-.2-.13-.31-.18-.31-.18,0-.52,0-1.02.02-1.51.01-.52.03-1.01.06-1.5.02-.33.04-.66.06-.97.04-.56-.41-1.04-.98-1.04h-2.51c.11-.69.25-1.34.41-1.94h3.42c.14-1.05-.67-2-1.75-2h-1.05c.05-.12.09-.25.14-.37.21-.54.44-1.03.68-1.5,2.12-4.08,5.2-5.49,6.72-5.95,0,.05,0,.11,0,.16,0,1.94,1.97,3.6,4.79,4.32.85.22,1.77.35,2.73.38h0Z"/>
      <path class="st13" d="M58.65,46.34l-1.85-2.76c-.17-.26.01-.6.32-.6h.28c.21,0,.41.08.56.23l1.71,1.69c-.2.65-.66,1.14-1.02,1.44h0Z"/>
      <path class="st13" d="M57.12,47.64l-1.09-2.54c-.1-.24.1-.49.36-.44l.23.04c.17.03.32.13.42.27l1.14,1.64c-.26.5-.71.83-1.06,1.02h0Z"/>
      <path class="st8" d="M43.51,66.56v12.32h-5.49v-12.49c.85.22,1.77.35,2.73.38h.06c.11,0,.23,0,.35,0,.82,0,1.6-.07,2.34-.21h0Z"/>
      <path class="st23" d="M60.95,49.49c5.23-7.66.87-22.16.87-22.16,0,0-.03.04-.1.1-1.35-4.57-3.59-7.04-3.59-7.04h0c-1.09-1.55-2.63-3.17-4.52-4.77-3.87-3.28-6.31-2.6-9.52-2.51,0,0-.01.02-.02.05-1.41-.29-8.98-1.7-13.48-.13-4.98,1.74-9.05,4.72-11.93,12.72-.73,2.02-1.12,3.95-1.29,5.75-.07-.06-.11-.1-.11-.1,0,0-3.06,14.88,2.83,21.98,0,0-1.42-4.28-.69-7.77,2.65,7.39,9.54,11.95,9.54,11.95,0,0-2.14-2.36-3.1-4.72-.74-1.83-1.85-4.97-1.85-9.6s4.84-10.36,4.84-10.36c0,0-2.23,3.59-2.67,7.55-.45,3.95,1.89,7.01,1.89,7.01,0,0-.47-4.7,1.17-8.43.82-1.88,2.18-3.51,4.39-4.19,0,0,0,0,0,0-1.19,3.03,1.2,5.57,1.2,5.57,0,0,0-.76.25-1.93.61-3.03,2.75-8.83,10.23-11.41l.23.32,5.27,7.17c.26.33.68.88,1.17,1.59,1.43,2.07,3.4,5.48,3.4,8.43,0,4.63-1.11,7.77-1.85,9.6-.96,2.36-3.1,4.72-3.1,4.72,0,0,6.36-4.21,9.21-11.09h0c.69-1.54,1.24-3.02,1.68-4.45.38,3.01-.35,6.12-.35,6.12h0Z"/>
      <g>
        <path class="st20" d="M58.4,21.86s4.07,1.5,5.26,2.16c1.09.6,3.12,1.72,3.44,2.73.17.52.02,1.63-.43,2.01-1.46,1.21-6.15,2.02-8.27,2.13-3.13.16-9.11-.4-12.19-.85-5.12-.75-10.65-1.92-14.1-2.83s-9.57-2.32-13.22-4.84c-.91-.63-2.43-2.26-2.42-3.21,0-.28.63-.92.92-1.08.93-.52,3.32-.52,4.45-.58.67-.04,2.51.18,2.51.18l2.18-6.39s.98-2.92,1.83-3.62c.92-.76,2.19-1.56,4.74-1.87,1.36-.17,4.11-.14,5.48.01,1.28.14,4.75,1.08,5.09,1.09.33,0,2.47-.43,2.78-.46,1.28-.12,4.04-.02,5.26.39.7.24,1.88,1.08,2.32,1.58.92,1.04,2.28,4.77,2.28,4.77l2.09,8.69h0Z"/>
        <path class="st11" d="M58.4,21.86s4.07,1.5,5.26,2.16c1.09.6,3.12,1.72,3.44,2.73.17.52.02,1.63-.43,2.01-1.46,1.21-6.15,2.02-8.27,2.13-3.13.16-9.11-.4-12.19-.85-5.12-.75-10.65-1.92-14.1-2.83s-9.57-2.32-13.22-4.84c-.91-.63-2.43-2.26-2.42-3.21,0-.28.63-.92.92-1.08.93-.52,3.32-.52,4.45-.58.67-.04,2.51.18,2.51.18l2.18-6.39s.98-2.92,1.83-3.62c.92-.76,2.19-1.56,4.74-1.87,1.36-.17,4.11-.14,5.48.01,1.28.14,4.75,1.08,5.09,1.09.33,0,2.47-.43,2.78-.46,1.28-.12,4.04-.02,5.26.39.7.24,1.88,1.08,2.32,1.58.92,1.04,2.28,4.77,2.28,4.77l2.09,8.69h0Z"/>
        <path class="st12" d="M44.23,7.04s4.49,1.66,4.56,1.7,3.07.26,3.8,0c.36-.13.57-.67.45-.89-.23-.41-1.36-.84-1.89-.99-.86-.25-2.71-.37-3.62-.35-.84.03-3.3.53-3.3.53"/>
        <path class="st12" d="M58.47,24.33s4.03,1.43,4.07,1.43c.04,0,2.38.9,2.74.43.31-.41-1.07-1.17-1.52-1.49-.62-.44-2.81-1.45-2.81-1.45l-2.93-1.07.45,2.16h0Z"/>
        <path class="st12" d="M24.21,17.96s-1.73-.07-2.3-.06c-.87.02-2.64.08-3.47.28-.25.06-.83.2-.94.4-.22.37.2,1.24.44,1.61.3.45,1.24,1.16,1.73,1.48.86.58,2.97,1.7,3.11,1.75.13.06,2.79,1.27,3.54,1.58.99.41,3.1,1.01,4.17,1.26.94.22,2.88.46,3.91.36,1.03-.11,9.75-1.04,9.75-1.04,0,0-13.5-.9-17.37-2.6-1.05-.46-3.26-2.8-3.26-2.8l.69-2.22h0Z"/>
        <path class="st8" d="M58.7,24.56s-1.19.55-3.75.77c-3.12.28-9.13.53-12.27.46-3.27-.07-10.12-.59-13.33-1.06-1.31-.19-3.92-.75-5.1-1.25-.4-.17-1.46-.85-1.46-.85l1.02-3.53s2.37,1.04,5.76,1.5c3.06.42,9.19.87,12.29.93,2.95.06,9.35-.18,12.3-.35,1.05-.06,3.92-.6,3.92-.6l.61,3.98h0Z"/>
      </g>
    </g>
  </g>
</svg>