<?xml version="1.0" encoding="UTF-8"?>
<svg id="Layer_2" xmlns="http://www.w3.org/2000/svg" version="1.1" xmlns:xlink="http://www.w3.org/1999/xlink" viewBox="0 0 78.88 78.88">
  <!-- Generator: Adobe Illustrator 30.2.1, SVG Export Plug-In . SVG Version: 2.1.1 Build 1)  -->
  <defs>
    <style>
      .st0 {
        fill: #b5957e;
      }

      .st1 {
        fill: #b8987d;
      }

      .st2 {
        fill: #292620;
      }

      .st3 {
        fill: #714223;
      }

      .st4 {
        fill: #ccad8a;
      }

      .st5 {
        fill: #ecdab6;
      }

      .st6 {
        fill: #d7bd9d;
      }

      .st7 {
        fill: #fff;
      }

      .st8 {
        fill: #272213;
      }

      .st9 {
        fill: #c68c8f;
        fill-rule: evenodd;
      }

      .st10 {
        fill: #b7967d;
      }

      .st11 {
        fill: none;
      }

      .st12 {
        fill: #866fa8;
      }

      .st13 {
        fill: #413c38;
      }

      .st14 {
        fill: #d2bb9b;
      }

      .st15 {
        fill: #ba9d82;
      }

      .st16 {
        fill: #b11117;
        opacity: .54;
      }

      .st16, .st17 {
        isolation: isolate;
      }

      .st18 {
        fill: #dcc5a0;
      }

      .st19 {
        fill: #d6bb9c;
      }

      .st20 {
        fill: #44361f;
      }

      .st21 {
        fill: #8f4b63;
      }

      .st17 {
        fill: #a91319;
        opacity: .72;
      }

      .st22 {
        fill: #a98d76;
      }

      .st23 {
        fill: #462e1b;
      }

      .st24 {
        clip-path: url(#clippath);
      }

      .st25 {
        fill: #f7f7f7;
      }

      .st26 {
        fill: #ebd9b5;
      }
    </style>
    <clipPath id="clippath">
      <rect class="st11" x="36.69" y="54.69" width="8.94" height="5.22"/>
    </clipPath>
  </defs>
  <g id="Layer_1-2">
    <g>
      <rect class="st12" width="78.88" height="78.88"/>
      <path class="st18" d="M41.13,49.33v29.55h-16.14c-.26-.1-.4-.16-.4-.16,0-3.77.56-6.71,1.41-9.01,2.05-5.54,5.81-7.29,7.54-7.82.57-.17.92-.22.92-.22.06,0,.12,0,.18-.01.51-.08.92-.52,1.25-1.22.25-.52.45-1.18.62-1.94.07-.3.12-.6.17-.92.08-.55.16-1.12.22-1.72.02-.36.06-.72.1-1.09.14-1.81.19-3.79.19-5.66,0,0,2.17.22,3.92.22h0Z"/>
      <path class="st26" d="M57.72,78.72s-.15.05-.38.16h-16.22v-29.55h.04c1.75,0,3.94-.22,3.94-.22,0,1.86.04,3.81.18,5.62.04.35.08.72.1,1.07.07.62.15,1.21.24,1.76h0c.02.26.08.48.12.71.16.77.35,1.45.58,1.99.29.67.64,1.15,1.07,1.33.14.06.28.09.43.09,0,0,.62.07,1.55.44,1.9.74,5.09,2.67,6.92,7.6.85,2.29,1.41,5.24,1.41,9.01h0Z"/>
      <g class="st24">
        <path class="st15" d="M45.63,57.5h0c-.41.63-1.77,2.42-4.48,2.42h-.02c-2.56-.01-4.06-1.85-4.44-2.39.08-.54.16-1.11.22-1.71.02-.35.06-.71.1-1.09,1.25.31,2.61.5,4.06.53h.05c1.5-.02,2.87-.23,4.16-.57.04.35.08.71.1,1.06.06.62.15,1.2.24,1.75"/>
      </g>
      <path class="st4" d="M40.95,15.66c-17.1,0-17.19,14.15-16.43,23.42-1.17-2.2-4.65-1.52-4.36,1.94.27,3.33,5.25,5.03,5.11,4.67,2.59,6.85,9.44,12.02,15.68,12.02h.13V15.66h-.13"/>
      <path class="st22" d="M21.25,39.56c.84-1.34,2.15-.76,2.47-.47.34.32.62.74.41,1.52-.12.45-.59.49-.48,1.16.13.76.48.8.69.98.2.17.45.3.57.62.13.32.15.66.08.96-.13.54-.93.1-1.47-.13-.36-.17-1.49-1.11-1.77-1.42-.71-.8-1.05-2.35-.48-3.23"/>
      <path class="st6" d="M41.04,15.66c17.1,0,17.19,14.15,16.44,23.42,1.17-2.2,4.63-1.52,4.35,1.94-.26,3.33-5.24,5.03-5.11,4.67-2.52,6.85-9.44,12.02-15.68,12.02h-.09l-.04-42.05h.13"/>
      <path class="st22" d="M60.73,39.56c-.84-1.34-2.14-.76-2.47-.47-.34.32-.61.74-.41,1.52.12.45.59.49.48,1.16-.13.76-.48.8-.68.98-.2.17-.46.3-.58.62-.12.32-.15.66-.08.96.13.54.93.1,1.47-.13.37-.17,1.49-1.11,1.77-1.42.72-.8,1.05-2.35.48-3.23"/>
      <path class="st18" d="M40.81,19.65c-5.62,0-9.74,1.62-12.22,4.79-3.48,4.46-3.35,11.26-2.07,16.14.4,1.5.61,5.52.87,6.99,1.22,6.6,8.59,10.12,13.43,10.12h.13V19.65h-.08"/>
      <path class="st26" d="M53.02,24.46c-2.47-3.17-6.54-4.78-12.08-4.81v38.05c5.54-.06,12.17-3.92,13.3-10.12.27-1.47.47-5.49.87-6.99,1.29-4.87,1.42-11.66-2.09-16.13"/>
      <path class="st11" d="M40.26,51c-.08-.01-.15-.03-.21-.04.07.01.14.03.21.04Z"/>
      <path class="st11" d="M39.96,50.94s-.1-.02-.13-.03c.04.01.09.02.13.03Z"/>
      <path class="st10" d="M40.05,50.96s-.05-.01-.08-.02c.02,0,.05.01.08.02Z"/>
      <path class="st10" d="M39.84,50.92s-.05-.01-.07-.02h0s.03,0,.07.02h0Z"/>
      <path class="st11" d="M25.62,31.51c-.15.5-.26,1.05-.33,1.64,0,0,.22-.93.72-2.3-.21.29-.36.53-.39.66Z"/>
      <path class="st20" d="M36.17,19.75l-.07.07v.02s.05-.07.07-.1Z"/>
      <path class="st11" d="M40.31,50.23c-.08-.01-.15-.03-.22-.04.07.01.15.03.22.04Z"/>
      <path class="st11" d="M40.01,50.17s-.1-.02-.13-.03c.04.01.09.02.13.03Z"/>
      <path class="st0" d="M40.09,50.19s-.05-.01-.08-.02c.03,0,.05.01.08.02Z"/>
      <path class="st0" d="M39.88,50.14s-.05-.01-.07-.02h0s.03,0,.07.02Z"/>
      <path class="st19" d="M38,45.36c-.07-1.35,2.5-.49,3.35-.45.67.04,2.71-.43,2.88-.31,1.2.8-1.27,2.41-2.92,2.41-.44,0-3.27-.84-3.31-1.65Z"/>
      <path class="st7" d="M28.68,34.5s1.3,5.3,3.54,5.73c2.24.43,4.66-.43,4.66-.43,0,0,.23-6.23-.92-7.04-1.15-.82-3.79-2-7.29,1.74Z"/>
      <path class="st14" d="M36.89,39.79s-.05.01-.17.06c-.03-1.91-.21-4.53-.92-5.04-1.06-.77-3.47-1.86-6.68,1.11-.29-.82-.44-1.44-.44-1.44,3.51-3.74,6.15-2.56,7.29-1.75,1.15.82.92,7.05.92,7.05h0Z"/>
      <ellipse class="st23" cx="33.36" cy="37.09" rx="2.2" ry="2.18"/>
      <path class="st3" d="M33.26,38.55c-.64-.05-1.13-.69-1.07-1.39s.64-1.25,1.28-1.19,1.13.69,1.07,1.39-.64,1.25-1.28,1.2h0Z"/>
      <path class="st8" d="M33.31,38.3c-.44-.04-.9-.52-.85-1.11.05-.6.58-.99,1.03-.96.44.04.9.52.85,1.11s-.58.99-1.02.96h0Z"/>
      <path class="st7" d="M32.95,36.83c-.02.22-.24.37-.5.35-.26-.02-.45-.21-.43-.43s.24-.37.5-.35c.26.02.45.21.43.43h0Z"/>
      <path class="st7" d="M34.38,38.07c-.01.11-.12.19-.25.18-.13-.01-.22-.11-.22-.21.01-.11.12-.19.25-.18.13.01.22.11.22.21Z"/>
      <path class="st11" d="M40.34,50.86c-.08-.01-.15-.03-.22-.04.07.01.15.03.22.04Z"/>
      <path class="st11" d="M40.05,50.8s-.1-.02-.13-.03c.04.01.09.02.13.03Z"/>
      <path class="st0" d="M40.13,50.81s-.05-.01-.08-.02c.03,0,.05.01.08.02Z"/>
      <path class="st0" d="M39.91,50.77s-.05-.01-.07-.02h0s.03,0,.07.02Z"/>
      <path class="st11" d="M40.26,50.71c-.09-.01-.16-.03-.23-.04.08.02.16.03.23.04Z"/>
      <path class="st11" d="M39.94,50.64c-.05-.01-.11-.02-.14-.03.05.01.09.02.14.03Z"/>
      <path class="st10" d="M40.03,50.67s-.06-.01-.09-.02c.03,0,.05.01.09.02Z"/>
      <path class="st10" d="M39.8,50.61s-.05-.01-.08-.02h0s.03.01.08.02h0Z"/>
      <path class="st11" d="M40.2,50.49c-.09-.01-.16-.03-.23-.04.08.02.16.03.23.04Z"/>
      <path class="st11" d="M39.87,50.43c-.05-.01-.11-.02-.14-.03.05.01.09.02.14.03Z"/>
      <path class="st10" d="M39.96,50.44s-.06-.01-.09-.02c.03,0,.05.01.09.02Z"/>
      <path class="st10" d="M39.73,50.39s-.05-.01-.08-.02h0s.03.01.08.02h0Z"/>
      <path class="st11" d="M40.39,50.45c-.08-.01-.16-.03-.22-.04.07.02.15.03.22.04Z"/>
      <path class="st11" d="M40.08,50.39s-.1-.02-.14-.03c.05.01.09.02.14.03Z"/>
      <path class="st10" d="M40.17,50.41s-.06-.01-.09-.02c.03,0,.05.01.09.02Z"/>
      <path class="st10" d="M39.95,50.36s-.05-.01-.07-.02h0s.03.01.08.02h0Z"/>
      <path class="st7" d="M53.34,34.32s-1.3,5.3-3.54,5.73c-2.24.43-4.66-.43-4.66-.43,0,0-.23-6.23.92-7.04,1.15-.82,3.79-2,7.29,1.74h0Z"/>
      <path class="st14" d="M45.13,39.61s.05.01.17.06c.03-1.91.21-4.53.92-5.04,1.06-.77,3.47-1.86,6.68,1.11.29-.82.44-1.44.44-1.44-3.51-3.74-6.15-2.56-7.29-1.75-1.15.82-.92,7.05-.92,7.05h0Z"/>
      <path class="st23" d="M46.46,36.91c0,1.21.99,2.18,2.2,2.18s2.2-.98,2.2-2.18-.99-2.18-2.2-2.18-2.2.98-2.2,2.18Z"/>
      <path class="st3" d="M48.76,38.37c.64-.05,1.13-.69,1.07-1.39s-.64-1.25-1.28-1.19c-.64.05-1.13.69-1.07,1.39s.64,1.25,1.28,1.2h0Z"/>
      <path class="st8" d="M48.71,38.12c.44-.04.9-.52.85-1.11-.05-.6-.58-.99-1.03-.96-.44.04-.9.52-.85,1.11s.58.99,1.02.96h0Z"/>
      <path class="st7" d="M49.07,36.65c.02.22.24.37.5.35.26-.02.45-.21.43-.43-.02-.22-.24-.37-.5-.35-.26.02-.45.21-.43.43h0Z"/>
      <path class="st7" d="M47.64,37.89c.01.11.12.19.25.18.13-.01.22-.11.22-.21-.01-.11-.12-.19-.25-.17-.13.01-.22.11-.22.21h0Z"/>
      <g>
        <path d="M38.23,34.42s-.42-.64-1.25-1.27c-.52-.4-1.03-.69-1.56-.92-.64-.27-1.34-.46-2.01-.55-.61-.07-1.28-.05-2.06.06-.6.11-1.18.29-1.68.5-.35.12-.63.29-.86.43-.09.05-.16.1-.24.14l-1.07.67,1.23-.29c.06-.01.12-.03.19-.05.26-.07.57-.15.94-.2.09-.01.17-.03.27-.05.16-.03.32-.06.48-.07.19-.01.38-.02.58-.04l.26-.02c.68,0,1.26.04,1.77.16.56.1,1.14.28,1.66.52.5.24.98.47,1.35.74.75.5,1.17.91,1.18.92h0c.1.1.24.16.38.16.1,0,.2-.03.29-.08.25-.16.32-.49.16-.73v-.02s-.02,0-.02,0Z"/>
        <path d="M53.56,32.81c-.07-.04-.15-.08-.24-.14-.22-.14-.5-.31-.85-.42-.51-.22-1.09-.4-1.7-.51-.78-.1-1.45-.12-2.06-.05-.67.09-1.36.28-2.01.55-.52.22-1.05.53-1.56.92-.82.62-1.22,1.22-1.25,1.27h0c-.14.22-.11.5.07.68.1.1.24.16.38.16h0c.14,0,.28-.06.38-.16h0s.45-.44,1.18-.92c.37-.27.84-.5,1.34-.74.53-.24,1.1-.42,1.67-.52.51-.12,1.08-.17,1.76-.16l.27.02c.2.01.39.03.58.04.16,0,.32.04.48.07.09.02.18.04.27.05.37.05.69.14.94.2.07.02.13.04.19.05l1.23.29-1.08-.67h0Z"/>
      </g>
      <path class="st21" d="M53.17,69.72c.53,2.38.86,5.33.86,8.98,0,0-.1.05-.3.18h-25.09c-.2-.14-.3-.18-.3-.18,0-3.64.33-6.59.86-8.98h-3.18c2.05-5.54,5.81-7.29,7.54-7.82,0,.05,0,.11,0,.17,0,2.53,3.36,4.6,7.58,4.71.11,0,.23,0,.35,0,4.34,0,7.86-2.08,7.91-4.66,1.9.74,5.09,2.67,6.92,7.6h-3.15,0Z"/>
      <g>
        <polygon class="st9" points="35.72 71.11 34.77 70.17 33.7 71.23 32.63 70.17 31.69 71.11 32.76 72.17 31.69 73.23 32.63 74.17 33.7 73.11 34.77 74.17 35.72 73.23 34.65 72.17 35.72 71.11"/>
        <polygon class="st9" points="41.06 71.11 40.11 70.17 39.04 71.23 37.97 70.17 37.02 71.11 38.09 72.17 37.02 73.23 37.97 74.17 39.04 73.11 40.11 74.17 41.06 73.23 39.99 72.17 41.06 71.11"/>
        <polygon class="st9" points="46.4 71.11 45.45 70.17 44.38 71.23 43.3 70.17 42.36 71.11 43.43 72.17 42.36 73.23 43.3 74.17 44.38 73.11 45.45 74.17 46.4 73.23 45.32 72.17 46.4 71.11"/>
        <polygon class="st9" points="51.73 71.11 50.78 70.17 49.71 71.23 48.64 70.17 47.69 71.11 48.76 72.17 47.69 73.23 48.64 74.17 49.71 73.11 50.78 74.17 51.73 73.23 50.66 72.17 51.73 71.11"/>
      </g>
      <path class="st2" d="M62.68,16.28s-1.14,1.94-5.09.43c-3.85-1.47-3.75-6.28-9.29-8.96-2.82-1.37-4.52-1.2-5.5-.7,1-.93,3.03-.85,3.03-.85,0,0-2.52-1.61-6.41-.17-2.13.79-2.6.96-3.39,1.14-.48.11-.98-.1-1.28-.54-.87-1.25-2.25-1.92-3.64-1.7-.84.13-1.63.34-2.35.64-4.78,2.03-8.7,5.52-11.46,14.9-2.76,9.37-.52,17.21.01,20.49,1.69,10.38,12.52,20.48,12.52,20.48,0,0-4.71-6.46-5.63-9.23-.23-.69-.5-1.56-.76-2.59,1.97,3.77,4.46,6.09,4.46,6.09-4.67-11.58,1.88-23.05,5.26-27.86h0s.66-1.06,1.79-2.37c-.14-.12-.28-.23-.42-.33.14.1.28.21.42.33,2.96-3.4,9.22-8.45,15.89-.83.27.28.52.58.76.91h0c2.31,3.2,3.23,8.59,2.89,10.56-.83,4.85.32,7.64.77,7.51,0,0,.02-1.23.42-2.33,1.19-3.27,2.19-.99,2.38-5.43.21-5.19.91-7.09.69-9.86-.1-1.21-.38-2.6-.66-3.77h0c-.42-2.15.21-2.55.5-2.63.02,0,.05-.01.07-.01.04,0,.06,0,.06,0h0c2.55-.52,3.98-3.33,3.98-3.33h0Z"/>
      <path class="st11" d="M40.53,51.39c-.08-.01-.15-.03-.21-.04.07.01.14.03.21.04Z"/>
      <path class="st11" d="M40.23,51.33s-.1-.02-.13-.03c.04.01.09.02.13.03Z"/>
      <path class="st10" d="M40.32,51.35s-.05-.01-.08-.02c.02,0,.05.01.08.02Z"/>
      <path class="st10" d="M40.11,51.3s-.05-.01-.07-.02h0s.03,0,.07.02h0Z"/>
      <path class="st11" d="M40.58,50.62c-.08-.01-.15-.03-.22-.04.07.01.15.03.22.04Z"/>
      <path class="st11" d="M40.28,50.56s-.1-.02-.13-.03c.04.01.09.02.13.03Z"/>
      <path class="st0" d="M40.36,50.58s-.05-.01-.08-.02c.03,0,.05.01.08.02Z"/>
      <path class="st0" d="M40.15,50.53s-.05-.01-.07-.02h0s.03,0,.07.02Z"/>
      <path class="st11" d="M40.61,51.24c-.08-.01-.15-.03-.22-.04.07.01.15.03.22.04Z"/>
      <path class="st11" d="M40.31,51.18s-.1-.02-.13-.03c.04.01.09.02.13.03Z"/>
      <path class="st0" d="M40.39,51.2s-.05-.01-.08-.02c.03,0,.05.01.08.02Z"/>
      <path class="st0" d="M40.18,51.16s-.05-.01-.07-.02h0s.03,0,.07.02Z"/>
      <path class="st11" d="M40.53,51.1c-.09-.01-.16-.03-.23-.04.08.02.16.03.23.04Z"/>
      <path class="st11" d="M40.21,51.03c-.05-.01-.11-.02-.14-.03.05.01.09.02.14.03Z"/>
      <path class="st10" d="M40.29,51.05s-.06-.01-.09-.02c.03,0,.05.01.09.02Z"/>
      <path class="st10" d="M40.07,51s-.05-.01-.08-.02h0s.03.01.08.02h0Z"/>
      <path class="st11" d="M40.46,50.87c-.09-.01-.16-.03-.23-.04.08.02.16.03.23.04Z"/>
      <path class="st11" d="M40.14,50.81c-.05-.01-.11-.02-.14-.03.05.01.09.02.14.03Z"/>
      <path class="st10" d="M40.23,50.83s-.06-.01-.09-.02c.03,0,.05.01.09.02Z"/>
      <path class="st10" d="M40,50.78s-.05-.01-.08-.02h0s.03.01.08.02h0Z"/>
      <path class="st11" d="M40.66,50.84c-.08-.01-.16-.03-.22-.04.07.02.15.03.22.04Z"/>
      <path class="st11" d="M40.35,50.78s-.1-.02-.14-.03c.05.01.09.02.14.03Z"/>
      <path class="st10" d="M40.43,50.8s-.06-.01-.09-.02c.03,0,.05.01.09.02Z"/>
      <path class="st10" d="M40.21,50.75s-.05-.01-.07-.02h0s.03.01.08.02h0Z"/>
      <path class="st11" d="M39.82,53.09c-.08-.01-.15-.03-.21-.04.07.01.14.03.21.04Z"/>
      <path class="st11" d="M39.52,53.03s-.1-.02-.13-.03c.04.01.09.02.13.03Z"/>
      <path class="st1" d="M39.6,53.05s-.05-.01-.08-.02c.03,0,.05.01.08.02Z"/>
      <path class="st1" d="M39.39,53s-.05-.01-.07-.02h0s.03,0,.07.02Z"/>
      <path class="st11" d="M39.76,52.89c-.08-.01-.15-.03-.21-.04.07.01.14.03.21.04Z"/>
      <path class="st11" d="M39.46,52.83s-.1-.02-.13-.03c.04.01.09.02.13.03Z"/>
      <path class="st1" d="M39.54,52.85s-.05-.01-.08-.02c.03,0,.05.01.08.02Z"/>
      <path class="st1" d="M39.33,52.8s-.05-.01-.07-.02h0s.03,0,.07.02Z"/>
      <path class="st11" d="M39.94,52.86c-.08-.01-.15-.03-.21-.04.07.01.14.03.21.04Z"/>
      <path class="st11" d="M39.65,52.8s-.1-.02-.12-.03c.04.01.08.02.12.03Z"/>
      <path class="st1" d="M39.74,52.82s-.05-.01-.08-.02c.02,0,.05.01.08.02Z"/>
      <path class="st1" d="M39.53,52.77s-.05-.01-.07-.02h0s.03,0,.07.02h0Z"/>
      <g>
        <path class="st5" d="M37.77,53.13c-.06-.84,2.37.18,3.17.2.64.02,2.55-.12,2.73-.19,1.34-.49-.07,1.41-2.77,1.51-1.24.05-3.09-1.01-3.13-1.52h0Z"/>
        <path class="st13" d="M45.79,51.11c-1.54-.29-4.79.02-4.79.02-2.68.44-4.78-.03-4.79-.01-.06,0,2.14,2.9,4.75,2.77h0c2.61.13,4.89-2.77,4.83-2.78h0Z"/>
        <path class="st2" d="M42.55,50.5c-.69-.08-1.19.42-1.55.38-.36.03-.83-.29-1.53-.29-.98-.01-1.46-.1-3.26.53.06.12,1.21.78,3.37.82.03,0,.61.32,1.43.32.52,0,1.22-.34,1.25-.34,2.16-.03,3.48-.67,3.54-.79-2.38-.73-2.19-.63-3.26-.63h0Z"/>
      </g>
      <g>
        <g>
          <path class="st25" d="M38.32,35.92c-.31.07-.69.16-.96,0-.76-.47-1.84-1.58-1.84-1.58-4.61-3.4-12.13,0-12.13,0-.86,2.83.73,6.14,1.59,7.63.29.5.5.79.5.79,2.43,4.76,7.67,3.45,7.67,3.45,2.36-.42,3.81-2.44,4.62-4.1.61-1.25.85-2.29.85-2.29.47-1.58,1.54-1.48,1.54-1.48v-2.67c-.24-.08-1.26.12-1.83.25h0ZM31.46,45.55c-2.66,0-4.91-1.77-5.59-4.18-.14-.49-.21-1.01-.21-1.55,0-3.16,2.6-5.73,5.81-5.73s5.81,2.56,5.81,5.73c0,.58-.09,1.13-.25,1.65-.72,2.36-2.93,4.08-5.56,4.08Z"/>
          <path class="st17" d="M37.01,41.48c-.72,2.36-2.93,4.08-5.56,4.08s-4.91-1.77-5.59-4.18c2.47-1.54,6.85-3.24,11.15.1Z"/>
          <path class="st16" d="M37.26,39.83c0,.58-.09,1.13-.25,1.65-4.31-3.35-8.69-1.64-11.15-.1-.14-.49-.21-1.01-.21-1.55,0-3.16,2.6-5.73,5.81-5.73s5.81,2.56,5.81,5.73Z"/>
        </g>
        <g>
          <path class="st25" d="M56.91,34.34s-7.52-3.4-12.13,0c0,0-1.08,1.11-1.84,1.58-.27.17-.66.07-.96,0-.57-.13-1.58-.33-1.83-.25v2.67s1.08-.1,1.54,1.48c0,0,.25,1.09.89,2.37.81,1.64,2.25,3.6,4.57,4.01,0,0,5.24,1.31,7.67-3.45,0,0,.24-.34.56-.91.87-1.53,2.36-4.75,1.52-7.51h0ZM48.85,45.55c-2.56,0-4.73-1.63-5.51-3.9-.2-.57-.3-1.19-.3-1.82,0-3.16,2.6-5.73,5.81-5.73s5.81,2.56,5.81,5.73c0,.46-.05.91-.16,1.34-.61,2.52-2.91,4.39-5.65,4.39h0Z"/>
          <path class="st17" d="M54.5,41.17c-.61,2.52-2.91,4.39-5.65,4.39-2.56,0-4.73-1.63-5.51-3.9,2.29-1.54,6.72-3.59,11.15-.49h0Z"/>
          <path class="st16" d="M54.66,39.83c0,.46-.05.91-.16,1.34-4.43-3.1-8.86-1.05-11.15.49-.2-.57-.3-1.19-.3-1.82,0-3.16,2.6-5.73,5.81-5.73s5.81,2.56,5.81,5.73h0Z"/>
        </g>
      </g>
    </g>
  </g>
</svg>