<?xml version="1.0" encoding="UTF-8"?>
<svg id="Layer_2" xmlns="http://www.w3.org/2000/svg" version="1.1" xmlns:xlink="http://www.w3.org/1999/xlink" viewBox="0 0 78.88 78.88">
  <!-- Generator: Adobe Illustrator 30.2.1, SVG Export Plug-In . SVG Version: 2.1.1 Build 1)  -->
  <defs>
    <style>
      .st0 {
        fill: #b5957e;
      }

      .st1 {
        fill: #b8987d;
      }

      .st2 {
        fill: #714223;
      }

      .st3 {
        fill: #ccad8a;
      }

      .st4 {
        fill: #ecdab6;
      }

      .st5 {
        fill: #d7bd9d;
      }

      .st6 {
        fill: #fff;
      }

      .st7 {
        fill: #272213;
      }

      .st8 {
        fill: #b7967d;
      }

      .st9 {
        fill: #c27976;
      }

      .st10 {
        fill: none;
      }

      .st11 {
        fill: #685586;
      }

      .st12 {
        fill: #9177ad;
      }

      .st13 {
        opacity: .69;
      }

      .st13, .st14 {
        fill: #22231d;
        isolation: isolate;
      }

      .st15 {
        fill: #af6a6f;
      }

      .st16 {
        fill: #d2bb9b;
      }

      .st17 {
        fill: #ba9d82;
      }

      .st18 {
        fill: #dcc5a0;
      }

      .st14 {
        opacity: .86;
      }

      .st19 {
        fill: #d6bb9c;
      }

      .st20 {
        fill: #44361f;
      }

      .st21 {
        fill: #e3ad00;
      }

      .st22 {
        fill: #524766;
      }

      .st23 {
        fill: #a98d76;
      }

      .st24 {
        fill: #462e1b;
      }

      .st25 {
        clip-path: url(#clippath);
      }

      .st26 {
        fill: #ebd9b5;
      }
    </style>
    <clipPath id="clippath">
      <rect class="st10" x="34.2" y="54.7" width="8.94" height="5.22"/>
    </clipPath>
  </defs>
  <g id="Layer_1-2">
    <g>
      <rect class="st22" width="78.88" height="78.88"/>
      <path class="st18" d="M38.64,49.33v29.55h-16.14c-.26-.1-.4-.16-.4-.16,0-3.77.56-6.71,1.41-9.01,2.06-5.54,5.81-7.29,7.54-7.82.57-.17.92-.22.92-.22.06,0,.12,0,.18-.01.51-.08.92-.52,1.25-1.22.25-.52.45-1.18.62-1.94.07-.3.12-.6.17-.92.08-.55.16-1.12.22-1.72.02-.36.06-.72.1-1.09.14-1.81.19-3.79.19-5.66,0,0,2.17.22,3.92.22h0Z"/>
      <path class="st26" d="M55.23,78.72s-.15.05-.38.16h-16.22v-29.55h.04c1.75,0,3.94-.22,3.94-.22,0,1.86.04,3.81.18,5.62.04.35.08.72.1,1.07.07.62.15,1.21.24,1.76h0c.02.26.08.48.12.71.16.77.35,1.45.58,1.99.29.67.64,1.15,1.07,1.33.14.06.28.09.43.09,0,0,.62.07,1.55.44,1.9.74,5.09,2.67,6.92,7.6.85,2.29,1.41,5.24,1.41,9.01h0Z"/>
      <g class="st25">
        <path class="st17" d="M43.14,57.5h0c-.41.64-1.77,2.42-4.48,2.42h-.02c-2.56-.01-4.06-1.85-4.44-2.39.08-.54.16-1.11.22-1.71.02-.35.06-.71.1-1.09,1.25.31,2.61.5,4.06.53h.05c1.5-.02,2.87-.23,4.16-.57.04.35.08.71.1,1.06.06.62.15,1.2.24,1.75"/>
      </g>
      <path class="st3" d="M38.46,15.66c-17.1,0-17.19,14.15-16.43,23.42-1.17-2.2-4.65-1.52-4.36,1.94.27,3.33,5.25,5.03,5.11,4.67,2.59,6.85,9.44,12.02,15.68,12.02h.13V15.66h-.13"/>
      <path class="st23" d="M18.76,39.56c.84-1.34,2.15-.76,2.47-.47.34.32.62.74.41,1.52-.12.45-.59.49-.48,1.16.13.76.48.8.69.98.2.17.45.3.57.62.13.32.15.66.08.96-.13.54-.93.1-1.47-.13-.36-.17-1.49-1.11-1.77-1.42-.71-.8-1.05-2.35-.48-3.23"/>
      <path class="st5" d="M38.54,15.66c17.1,0,17.19,14.15,16.44,23.42,1.17-2.2,4.63-1.52,4.35,1.94-.26,3.33-5.24,5.03-5.11,4.67-2.52,6.85-9.44,12.02-15.68,12.02h-.09l-.04-42.05h.13"/>
      <path class="st23" d="M58.24,39.56c-.84-1.34-2.14-.76-2.47-.47-.34.32-.61.74-.41,1.52.12.45.59.49.48,1.16-.13.76-.48.8-.68.98-.2.17-.46.3-.58.62-.12.32-.15.66-.08.96.13.54.93.1,1.47-.13.37-.17,1.49-1.11,1.77-1.42.72-.8,1.05-2.35.48-3.23"/>
      <path class="st18" d="M38.32,19.65c-5.62,0-9.74,1.62-12.22,4.79-3.48,4.46-3.35,11.26-2.07,16.14.4,1.5.61,5.52.87,6.99,1.22,6.6,8.59,10.12,13.43,10.12h.13V19.65h-.08"/>
      <path class="st26" d="M50.53,24.46c-2.47-3.17-6.54-4.78-12.08-4.81v38.06c5.54-.06,12.17-3.92,13.3-10.12.27-1.47.47-5.49.87-6.99,1.29-4.87,1.42-11.66-2.09-16.13"/>
      <path class="st10" d="M37.76,51c-.08-.01-.15-.03-.21-.04.07.01.14.03.21.04Z"/>
      <path class="st10" d="M37.47,50.94s-.1-.02-.13-.03c.04.01.09.02.13.03Z"/>
      <path class="st8" d="M37.55,50.96s-.05-.01-.08-.02c.02,0,.05.01.08.02Z"/>
      <path class="st8" d="M37.34,50.91s-.05-.01-.07-.02h0s.03,0,.07.02h0Z"/>
      <path class="st10" d="M23.13,31.51c-.15.5-.26,1.05-.33,1.64,0,0,.22-.93.72-2.3-.21.29-.36.53-.39.66Z"/>
      <path class="st20" d="M33.68,19.75l-.07.07v.02s.05-.07.07-.1Z"/>
      <path class="st10" d="M37.82,50.23c-.08-.01-.15-.03-.22-.04.07.01.15.03.22.04Z"/>
      <path class="st10" d="M37.52,50.17s-.1-.02-.13-.03c.04.01.09.02.13.03Z"/>
      <path class="st0" d="M37.6,50.19s-.05-.01-.08-.02c.03,0,.05.01.08.02Z"/>
      <path class="st0" d="M37.39,50.14s-.05-.01-.07-.02h0s.03,0,.07.02Z"/>
      <path class="st19" d="M35.11,45.72c-.07-1.35,2.5-.49,3.35-.45.67.04,2.71-.43,2.88-.31,1.2.8-1.27,2.41-2.92,2.41-.44,0-3.27-.84-3.31-1.65Z"/>
      <path class="st6" d="M26.19,34.51s1.3,5.3,3.54,5.73c2.24.43,4.66-.43,4.66-.43,0,0,.23-6.23-.92-7.04-1.15-.82-3.79-2-7.29,1.74Z"/>
      <path class="st16" d="M34.39,39.79s-.05.01-.17.06c-.03-1.91-.21-4.53-.92-5.04-1.06-.77-3.47-1.86-6.68,1.11-.29-.82-.44-1.44-.44-1.44,3.51-3.74,6.15-2.56,7.29-1.75,1.15.82.92,7.05.92,7.05h0Z"/>
      <ellipse class="st24" cx="30.87" cy="37.1" rx="2.2" ry="2.18"/>
      <path class="st2" d="M30.76,38.55c-.64-.05-1.13-.69-1.07-1.39s.64-1.25,1.28-1.19,1.13.69,1.07,1.39-.64,1.25-1.28,1.2h0Z"/>
      <path class="st7" d="M30.82,38.3c-.44-.04-.9-.52-.85-1.11.05-.6.58-.99,1.03-.96.44.04.9.52.85,1.11s-.58.99-1.02.96h0Z"/>
      <path class="st6" d="M30.46,36.83c-.02.22-.24.37-.5.35-.26-.02-.45-.21-.43-.43s.24-.37.5-.35c.26.02.45.21.43.43h0Z"/>
      <path class="st6" d="M31.89,38.07c-.01.11-.12.19-.25.18-.13-.01-.22-.11-.22-.21.01-.11.12-.19.25-.18.13.01.22.11.22.21Z"/>
      <path class="st10" d="M37.85,50.85c-.08-.01-.15-.03-.22-.04.07.01.15.03.22.04Z"/>
      <path class="st10" d="M37.55,50.8s-.1-.02-.13-.03c.04.01.09.02.13.03Z"/>
      <path class="st0" d="M37.64,50.82s-.05-.01-.08-.02c.03,0,.05.01.08.02Z"/>
      <path class="st0" d="M37.42,50.77s-.05-.01-.07-.02h0s.03,0,.07.02Z"/>
      <path class="st10" d="M37.77,50.71c-.09-.01-.16-.03-.23-.04.08.02.16.03.23.04Z"/>
      <path class="st10" d="M37.45,50.65c-.05-.01-.11-.02-.14-.03.05.01.09.02.14.03Z"/>
      <path class="st8" d="M37.54,50.66s-.06-.01-.09-.02c.03,0,.05.01.09.02Z"/>
      <path class="st8" d="M37.3,50.61s-.05-.01-.08-.02h0s.03.01.08.02h0Z"/>
      <path class="st10" d="M37.7,50.49c-.09-.01-.16-.03-.23-.04.08.02.16.03.23.04Z"/>
      <path class="st10" d="M37.38,50.42c-.05-.01-.11-.02-.14-.03.05.01.09.02.14.03Z"/>
      <path class="st8" d="M37.47,50.44s-.06-.01-.09-.02c.03,0,.05.01.09.02Z"/>
      <path class="st8" d="M37.24,50.39s-.05-.01-.08-.02h0s.03.01.08.02h0Z"/>
      <path class="st10" d="M37.9,50.46c-.08-.01-.16-.03-.22-.04.07.02.15.03.22.04Z"/>
      <path class="st10" d="M37.59,50.4s-.1-.02-.14-.03c.05.01.09.02.14.03Z"/>
      <path class="st8" d="M37.68,50.41s-.06-.01-.09-.02c.03,0,.05.01.09.02Z"/>
      <path class="st8" d="M37.45,50.36s-.05-.01-.07-.02h0s.03.01.08.02h0Z"/>
      <path class="st6" d="M50.85,34.33s-1.3,5.3-3.54,5.73c-2.24.43-4.66-.43-4.66-.43,0,0-.23-6.23.92-7.04,1.15-.82,3.79-2,7.29,1.74Z"/>
      <path class="st16" d="M42.64,39.61s.05.01.17.06c.03-1.91.21-4.53.92-5.04,1.06-.77,3.47-1.86,6.68,1.11.29-.82.44-1.44.44-1.44-3.51-3.74-6.15-2.56-7.29-1.75-1.15.82-.92,7.05-.92,7.05h0Z"/>
      <path class="st24" d="M43.97,36.92c0,1.21.99,2.18,2.2,2.18s2.2-.98,2.2-2.18-.99-2.18-2.2-2.18-2.2.98-2.2,2.18Z"/>
      <path class="st2" d="M46.27,38.37c.64-.05,1.13-.69,1.07-1.39s-.64-1.25-1.28-1.19c-.64.05-1.13.69-1.07,1.39s.64,1.25,1.28,1.2h0Z"/>
      <path class="st7" d="M46.22,38.12c.44-.04.9-.52.85-1.11-.05-.6-.58-.99-1.03-.96-.44.04-.9.52-.85,1.11s.58.99,1.02.96h0Z"/>
      <path class="st6" d="M46.58,36.65c.02.22.24.37.5.35.26-.02.45-.21.43-.43-.02-.22-.24-.37-.5-.35-.26.02-.45.21-.43.43h0Z"/>
      <path class="st6" d="M45.15,37.89c.01.11.12.19.25.18.13-.01.22-.11.22-.21-.01-.11-.12-.19-.25-.17-.13.01-.22.11-.22.21h0Z"/>
      <g>
        <path d="M35.74,34.42s-.42-.64-1.25-1.27c-.52-.4-1.03-.69-1.56-.92-.64-.27-1.34-.46-2.01-.55-.61-.07-1.28-.05-2.06.06-.6.11-1.18.29-1.68.5-.35.12-.63.29-.86.43-.09.05-.16.1-.24.14l-1.07.67,1.23-.29c.06-.01.12-.03.19-.05.26-.07.57-.15.94-.2.09-.01.17-.03.27-.05.16-.03.32-.06.48-.07.19-.01.38-.02.58-.04l.26-.02c.68,0,1.26.04,1.77.16.56.1,1.14.28,1.66.52.5.24.98.47,1.35.74.75.5,1.17.91,1.18.92h0c.1.1.24.16.38.16.1,0,.2-.03.29-.08.25-.16.32-.49.16-.73v-.02s-.02,0-.02,0Z"/>
        <path d="M51.07,32.81c-.07-.04-.15-.08-.24-.14-.22-.14-.5-.31-.85-.42-.51-.22-1.09-.4-1.7-.51-.78-.1-1.45-.12-2.06-.05-.67.09-1.36.28-2.01.55-.52.22-1.05.53-1.56.92-.82.62-1.22,1.22-1.25,1.27h0c-.14.22-.11.5.07.68.1.1.24.16.38.16h0c.14,0,.28-.06.38-.16h0s.45-.44,1.18-.92c.37-.27.84-.5,1.34-.74.53-.24,1.1-.42,1.67-.52.51-.12,1.08-.17,1.76-.16l.27.02c.2.01.39.03.58.04.16,0,.32.04.48.07.09.02.18.04.27.05.37.05.69.14.94.2.07.02.13.04.19.05l1.23.29-1.08-.67h0Z"/>
      </g>
      <path class="st11" d="M50.94,78.88h-24.8c-.2-.13-.31-.18-.31-.18,0-3.64.33-6.58.86-8.98h-3.18c.81-2.17,1.87-3.76,2.98-4.92l24.44,14.08h0Z"/>
      <path class="st10" d="M37.06,52.7c-.08-.01-.15-.03-.21-.04.07.01.14.03.21.04Z"/>
      <path class="st10" d="M36.76,52.65s-.1-.02-.13-.03c.04.01.09.02.13.03Z"/>
      <path class="st1" d="M36.85,52.66s-.05-.01-.08-.02c.03,0,.05.01.08.02Z"/>
      <path class="st1" d="M36.63,52.62s-.05-.01-.07-.02h0s.03,0,.07.02Z"/>
      <path class="st10" d="M37,52.5c-.08-.01-.15-.03-.21-.04.07.01.14.03.21.04Z"/>
      <path class="st10" d="M36.7,52.44s-.1-.02-.13-.03c.04.01.09.02.13.03Z"/>
      <path class="st1" d="M36.78,52.46s-.05-.01-.08-.02c.03,0,.05.01.08.02Z"/>
      <path class="st1" d="M36.57,52.41s-.05-.01-.07-.02h0s.03,0,.07.02Z"/>
      <path class="st10" d="M37.18,52.47c-.08-.01-.15-.03-.21-.04.07.01.14.03.21.04Z"/>
      <path class="st10" d="M36.9,52.41s-.1-.02-.12-.03c.04.01.08.02.12.03Z"/>
      <path class="st1" d="M36.97,52.43s-.05-.01-.08-.02c.02,0,.05.01.08.02Z"/>
      <path class="st1" d="M36.77,52.39s-.05-.01-.07-.02h0s.03,0,.07.02h0Z"/>
      <path class="st4" d="M35.18,53.06c-.06-.84,2.37.18,3.17.2.64.02,2.55-.12,2.73-.19,1.34-.49-.07,1.41-2.77,1.51-1.24.05-3.09-1.01-3.13-1.52h0Z"/>
      <path class="st15" d="M43.2,51.04c-1.54-.29-4.79.02-4.79.02-2.68.44-4.78-.03-4.79-.01-.06,0,2.14,2.9,4.75,2.77h0c2.61.13,4.89-2.77,4.83-2.78h0Z"/>
      <path class="st9" d="M39.96,50.43c-.69-.08-1.19.42-1.55.38-.36.03-.83-.29-1.53-.29-.98-.01-1.46-.1-3.26.53.06.12,1.21.78,3.37.82.03,0,.61.32,1.43.32.52,0,1.22-.34,1.25-.34,2.16-.03,3.48-.67,3.54-.79-2.38-.73-2.19-.64-3.26-.63h0Z"/>
      <path class="st21" d="M57.04,15.01h0c-3.04-8.54-13.35-6.22-13.35-6.22l1.69,1.64c-3.87-.51-7.14.25-7.14.25l1.27,1.21c-2.1.15-3.91.53-5.05.84-.83.17-1.31.4-1.31.4.82.07,1.51.23,2.12.43-.84-.12-2.03-.03-3.6.45-5.03,1.09-7.85,3.97-9.42,6.97-.46.87-.81,1.76-1.08,2.61.44,0,.49,0,.5-.01,0,.01-1.13,2.83-1.35,4.93-.03.26-.04.51-.04.76v.05c0,.14,0,.28.01.41.07,1.61.54,3.2.71,6.42.19,3.44,1.18,1.68,2.36,4.21.4.85.42,1.81.42,1.81.44.1,1.59-2.06.77-5.83-.54-2.44,2.12-11.69,8.54-9.89.62.17,1.15.38,1.65.59-6.13,5.6-2.33,13.56-2.33,13.56-.15-6.72,6.05-11.22,7.97-12.45.18-.1.36-.21.56-.34.38-.26.78-.5,1.2-.72,1.27-.66,2.87-.05,3.21,1.25.28,1.07.36,2.23.13,3.46,0,0,.78-1.13,1.25-2.79.31-1.07,1.92-1.27,2.52-.31,1.05,1.68,1.84,3.86,1.38,6.3,0,0,1.94-2.83,1.57-6.1.97,1.65,1.41,3.93,1.13,6.88-.59,6.24.51,6.19.51,6.19.33,0-.02-1.66,1.08-2.8.25-.26.52-.66.8-1.16h0c5.48-11.56,1.34-23,1.34-23h0Z"/>
      <path class="st12" d="M50.68,69.72c.53,2.38.86,5.33.86,8.98,0,0-.1.05-.3.18h-.29l-24.44-14.08c1.71-1.8,3.51-2.57,4.57-2.9,0,.05,0,.11,0,.16,0,2.53,3.36,4.6,7.58,4.71.11,0,.24,0,.35,0,4.33,0,7.86-2.08,7.91-4.66,1.9.74,5.1,2.67,6.93,7.6h-3.15Z"/>
      <g>
        <path class="st14" d="M56.23,35.91c-.69.59-.92,1.41-.92,1.41-.23,1.61-.58,2.9-.99,3.95,0,0-.01,0-.02,0-.11-.03-.21-.05-.32-.08-.06-.01-.13-.03-.2-.05-.04-.01-.09-.02-.13-.03,0,0-.01,0-.02,0-.23-.05-.46-.1-.69-.15-.09-.02-.17-.04-.26-.05s-.18-.04-.27-.05-.18-.03-.27-.05c-.16-.03-.33-.05-.5-.08-.02,0-.04,0-.06-.01-.06-.01-.13-.02-.2-.03-.09-.01-.18-.02-.27-.04-.06,0-.12-.02-.19-.02-.05,0-.1-.01-.15-.02-.1-.01-.2-.02-.3-.03-.04,0-.08,0-.12-.01-.08,0-.16-.01-.25-.02-.09,0-.18-.01-.26-.02-.06,0-.12-.01-.18-.01-.12,0-.25-.01-.37-.02-.1,0-.21-.01-.31-.01h-.03c-.12,0-.23,0-.35-.01h-.91c-.06,0-.13,0-.2,0-.07,0-.14,0-.21,0-.1,0-.2,0-.3.01-.15.01-.3.02-.46.03-.06,0-.12,0-.17.01-.05,0-.11.01-.16.01h-.04c-.06,0-.13.01-.2.02-.05,0-.1.01-.15.02-.01,0-.03,0-.04,0-.07,0-.15.02-.22.02-.21.02-.42.06-.63.09-.06.01-.13.02-.2.03-.02,0-.05,0-.08.01-.05,0-.11.02-.16.03-.05,0-.1.02-.15.03-.1.02-.2.04-.31.06-.15.03-.31.06-.46.1-.06.01-.12.03-.18.04-.04,0-.07.02-.11.02-.07.02-.14.03-.21.05-.08.02-.17.04-.25.06-.26.07-.52.14-.78.22-.08.02-.15.05-.23.07-.05.02-.1.03-.15.05-.03.01-.07.02-.1.03-.1.03-.2.06-.29.1-.11.04-.21.07-.32.12-.63-1.07-.96-1.94-.96-1.94-.2-.54-.45-.85-.7-1.04-.1-.6-.14-1.16-.14-1.7,0-.12,0-.24,0-.36.88-.26,1.82-1.12,1.82-1.12,7.04-4.17,14.9-1.5,14.9-1.5.6.25.35,1.82.35,1.82h-.01Z"/>
        <path class="st13" d="M54.32,41.27c-1.61,4.03-4.18,4.28-4.18,4.28-3.82.84-6.19-.61-6.19-.61-1.31-.72-2.32-2.05-2.99-3.18.11-.04.21-.08.32-.12.1-.04.2-.07.29-.1.03-.01.06-.02.1-.03.05-.02.1-.03.15-.05.08-.02.15-.05.23-.07.26-.08.52-.15.78-.22.08-.02.17-.04.25-.06.07-.02.14-.04.21-.05.04,0,.07-.02.11-.02.06-.01.12-.03.18-.04.15-.04.31-.07.46-.1.1-.02.21-.04.31-.06.05,0,.1-.02.15-.03.05-.01.11-.02.16-.03.03,0,.05-.01.08-.01.06-.01.13-.02.2-.03.21-.03.42-.06.63-.09.07-.01.15-.02.22-.02.01,0,.03,0,.04,0,.05,0,.1-.01.15-.02.06,0,.13-.01.2-.02h.04c.05,0,.11-.01.16-.01.06,0,.12-.01.17-.01.15-.01.3-.02.46-.03.1,0,.2-.01.3-.01.07,0,.14,0,.21,0,.06,0,.13,0,.2,0h.91c.12,0,.23,0,.35.01h.03c.1,0,.21,0,.31.01.12,0,.25.01.37.02.06,0,.12,0,.18.01.09,0,.18.01.26.02.08,0,.16.01.25.02.04,0,.08,0,.12.01.1.01.2.02.3.03.05,0,.1.01.15.02.06,0,.13.01.19.02.09.01.18.02.27.04.07.01.14.02.2.03.02,0,.04,0,.06.01.17.02.33.05.5.08.09.01.18.03.27.05s.18.03.27.05.18.04.26.05c.24.05.46.1.69.15,0,0,.01,0,.02,0,.04.01.09.02.13.03.06.01.13.03.2.05.11.02.21.05.32.08,0,0,.01,0,.02,0h.01Z"/>
        <path class="st14" d="M38.48,38.53s0,.06-.01.09c-.31.14-.68.46-.95,1.19,0,0-.37.99-1.09,2.15h0c-.1-.04-.2-.07-.29-.1-.08-.03-.17-.05-.25-.08-.05-.02-.1-.03-.15-.05l-.08-.02c-.26-.08-.52-.15-.78-.22-.08-.02-.17-.04-.25-.06-.07-.02-.14-.04-.21-.05-.04,0-.07-.02-.11-.02-.06-.01-.12-.03-.19-.04-.15-.04-.31-.07-.46-.1-.1-.02-.2-.04-.31-.06-.05,0-.1-.02-.15-.03-.05-.01-.1-.02-.16-.03-.03,0-.05-.01-.08-.01-.06-.01-.13-.02-.2-.03-.21-.03-.42-.06-.63-.09-.07-.01-.15-.02-.22-.02-.01,0-.03,0-.04,0-.05,0-.1-.01-.15-.02-.06,0-.13-.01-.2-.02h-.03c-.05,0-.11-.01-.16-.01-.06,0-.12-.01-.17-.01-.15-.01-.3-.02-.46-.03-.1,0-.2-.01-.3-.01-.07,0-.14,0-.21,0-.06,0-.13,0-.2,0h-.9c-.12,0-.23,0-.35.01h-.03c-.1,0-.21,0-.31.01-.12,0-.25.01-.37.02-.06,0-.12,0-.18.01-.09,0-.18.01-.26.02-.08,0-.16.01-.25.02-.04,0-.08,0-.12.01-.1.01-.2.02-.3.03-.05,0-.1.01-.15.02-.06,0-.12.01-.19.02-.09.01-.18.02-.27.04-.07,0-.14.02-.2.03-.02,0-.04,0-.06.01-.17.02-.33.05-.5.08-.09.01-.18.03-.27.05s-.18.03-.27.05-.18.04-.26.05c-.23.05-.46.1-.69.15-.02,0-.04.01-.06.01-.03,0-.06.01-.09.02-.06.01-.13.03-.2.05-.11.02-.21.05-.32.08-.02,0-.05.01-.07.02-.48-1.1-.88-2.49-1.13-4.28,0,0-.23-.82-.92-1.41,0,0-.25-1.57.35-1.82,0,0,7.86-2.67,14.9,1.5,0,0,1.07.97,1.99,1.16v.02c.04.55.02,1.13-.04,1.75h-.01Z"/>
        <path class="st13" d="M36.44,41.96c-.67,1.08-1.63,2.3-2.87,2.97,0,0-2.37,1.46-6.19.61,0,0-2.43-.23-4.04-3.94.02,0,.05-.01.07-.02.11-.03.21-.05.32-.08.06-.01.13-.03.2-.05.03,0,.06-.01.09-.02.02,0,.04-.01.06-.01.23-.05.46-.1.69-.15.09-.02.17-.04.26-.05s.18-.04.27-.05.18-.03.27-.05c.16-.03.33-.05.5-.08.02,0,.04,0,.06-.01.06-.01.13-.02.2-.03.09-.01.18-.02.27-.04.06,0,.12-.02.19-.02.05,0,.1-.01.15-.02.1-.01.2-.02.3-.03.04,0,.08,0,.12-.01.08,0,.16-.01.25-.02.09,0,.18-.01.26-.02.06,0,.12,0,.18-.01.12,0,.25-.01.37-.02.1,0,.21-.01.31-.01h.03c.12,0,.23,0,.35-.01h.9c.06,0,.13,0,.2,0,.07,0,.14,0,.21,0,.1,0,.2,0,.3.01.15,0,.3.02.46.03.06,0,.12,0,.17.01.05,0,.11,0,.16.01h.03c.06,0,.13.01.2.02.05,0,.1.01.15.02.01,0,.03,0,.04,0,.07,0,.15.02.22.02.21.02.42.06.63.09.06.01.13.02.2.03.02,0,.05,0,.08.01.05.01.11.02.16.03.05,0,.1.02.15.03.1.02.2.04.31.06.15.03.31.06.46.1.06.01.12.03.19.04.04,0,.07.02.11.02.07.02.14.04.21.05.08.02.17.04.25.06.26.07.52.14.78.22l.08.02s.1.03.15.05c.09.03.17.05.25.08.1.03.2.07.29.1h.02Z"/>
        <path class="st6" d="M55.89,34.09s-7.86-2.67-14.9,1.5c0,0-.94.85-1.82,1.12-.14.04-.27.07-.4.07h0c-.07,0-.15-.01-.23-.03-.92-.19-1.99-1.16-1.99-1.16-7.04-4.17-14.9-1.5-14.9-1.5-.6.25-.35,1.82-.35,1.82.69.59.92,1.41.92,1.41.25,1.79.66,3.18,1.13,4.28,1.61,3.71,4.04,3.94,4.04,3.94,3.82.84,6.19-.61,6.19-.61,1.24-.67,2.2-1.89,2.87-2.97.71-1.15,1.09-2.15,1.09-2.15.27-.73.63-1.05.95-1.19.1-.05.2-.07.28-.08h0c.16.02.35.09.54.23.25.18.5.5.7,1.04,0,0,.33.88.96,1.94h0c.67,1.13,1.68,2.47,2.99,3.18,0,0,2.37,1.46,6.19.61,0,0,2.57-.24,4.18-4.28.42-1.04.77-2.34.99-3.95,0,0,.23-.82.92-1.41,0,0,.25-1.57-.35-1.82h0ZM35.73,41.73c-.04.08-.07.13-.09.16,0,.01-.01.02-.02.04-2.27,4.49-8.08,2.91-8.69,2.73-.03-.01-.06-.02-.1-.04-1.36-.57-2.26-1.95-2.82-3.19-.51-1.12-.73-2.12-.77-2.3,0-.02,0-.04-.01-.06-.42-1.49-.25-2.55.13-3.29.48-.93,1.42-1.56,2.48-1.68,6.7-.75,10.31,2.14,10.31,2.14,1.66,1.35.02,4.66-.42,5.47h0ZM54.28,39.08s-.01.04-.01.06c-.03.16-.22.99-.62,1.97-.54,1.31-1.47,2.89-2.96,3.51-.03.01-.06.02-.1.04-.61.18-6.42,1.76-8.69-2.73,0-.01-.01-.02-.02-.04-.03-.05-.1-.18-.21-.38-.55-1.07-1.84-3.99-.3-5.25,0,0,3.62-2.9,10.32-2.14,1.05.12,1.99.74,2.48,1.68.38.74.55,1.8.13,3.29h0Z"/>
      </g>
    </g>
  </g>
</svg>