<?xml version="1.0" encoding="UTF-8"?>
<svg id="Layer_2" xmlns="http://www.w3.org/2000/svg" version="1.1" xmlns:xlink="http://www.w3.org/1999/xlink" viewBox="0 0 78.88 78.88">
  <!-- Generator: Adobe Illustrator 30.2.1, SVG Export Plug-In . SVG Version: 2.1.1 Build 1)  -->
  <defs>
    <style>
      .st0 {
        fill: #dac6a4;
      }

      .st1 {
        fill: #b5957e;
      }

      .st2 {
        fill: #b8987d;
      }

      .st3 {
        fill: #714223;
      }

      .st4 {
        fill: #ccad8a;
      }

      .st5 {
        fill: #ecdab6;
      }

      .st6 {
        fill: #d7bd9d;
      }

      .st7 {
        fill: #fff;
      }

      .st8 {
        fill: #272213;
      }

      .st9 {
        fill: #b05d53;
      }

      .st10 {
        fill: url(#linear-gradient2);
      }

      .st10, .st11, .st12, .st13 {
        isolation: isolate;
      }

      .st10, .st13 {
        opacity: .66;
      }

      .st14 {
        fill: #e5b344;
      }

      .st11 {
        fill: url(#linear-gradient1);
      }

      .st11, .st12 {
        opacity: .62;
      }

      .st15 {
        fill: #b7967d;
      }

      .st16 {
        fill: none;
      }

      .st12 {
        fill: url(#linear-gradient3);
      }

      .st17 {
        fill: #d2bb9b;
      }

      .st18 {
        fill: #ba9d82;
      }

      .st19 {
        fill: #d3897e;
      }

      .st20 {
        fill: #dcc5a0;
      }

      .st13 {
        fill: url(#linear-gradient);
      }

      .st21 {
        fill: #90463e;
      }

      .st22 {
        fill: #f6f6f5;
      }

      .st23 {
        fill: #c1a587;
      }

      .st24 {
        fill: #44361f;
      }

      .st25 {
        fill: #52839e;
      }

      .st26 {
        fill: #a98d76;
      }

      .st27 {
        fill: #462e1b;
      }

      .st28 {
        clip-path: url(#clippath);
      }

      .st29 {
        fill: #ebd9b5;
      }

      .st30 {
        fill: #3c3d39;
      }
    </style>
    <clipPath id="clippath">
      <rect class="st16" x="35.08" y="54.48" width="8.94" height="5.22"/>
    </clipPath>
    <linearGradient id="linear-gradient" x1="30.11" y1="33.74" x2="30.18" y2="46.67" gradientTransform="translate(0 81.28) scale(1 -1)" gradientUnits="userSpaceOnUse">
      <stop offset="0" stop-color="#fff"/>
      <stop offset="1" stop-color="#6189ae"/>
    </linearGradient>
    <linearGradient id="linear-gradient1" x1="29.02" y1="31.95" x2="31.73" y2="57.32" gradientTransform="translate(0 81.28) scale(1 -1)" gradientUnits="userSpaceOnUse">
      <stop offset="0" stop-color="#fff"/>
      <stop offset="1" stop-color="#6189ae"/>
    </linearGradient>
    <linearGradient id="linear-gradient2" x1="48.41" y1="33.64" x2="48.48" y2="46.57" gradientTransform="translate(0 81.28) scale(1 -1)" gradientUnits="userSpaceOnUse">
      <stop offset="0" stop-color="#fff"/>
      <stop offset="1" stop-color="#6189ae"/>
    </linearGradient>
    <linearGradient id="linear-gradient3" x1="47.06" y1="30.03" x2="49.77" y2="55.42" gradientTransform="translate(0 81.28) scale(1 -1)" gradientUnits="userSpaceOnUse">
      <stop offset="0" stop-color="#fff"/>
      <stop offset="1" stop-color="#6189ae"/>
    </linearGradient>
  </defs>
  <g id="Layer_1-2">
    <g>
      <rect class="st14" width="78.88" height="78.88"/>
      <path class="st20" d="M39.52,49.12v29.55h-16.14c-.26-.1-.4-.16-.4-.16,0-3.77.56-6.71,1.41-9.01,2.05-5.54,5.81-7.29,7.54-7.82.57-.17.92-.22.92-.22.06,0,.12,0,.18-.01.51-.08.92-.52,1.25-1.22.25-.52.45-1.18.62-1.94.07-.3.12-.6.17-.92.08-.55.16-1.12.22-1.72.02-.36.06-.72.1-1.09.14-1.81.19-3.79.19-5.66,0,0,2.17.22,3.92.22h0Z"/>
      <path class="st29" d="M56.12,78.51s-.15.05-.38.16h-16.22v-29.55h.04c1.75,0,3.94-.22,3.94-.22,0,1.86.04,3.81.18,5.62.04.35.08.72.1,1.07.07.62.15,1.21.24,1.76h0c.02.26.08.48.12.71.16.77.35,1.45.58,1.99.29.67.64,1.15,1.07,1.33.14.06.28.09.43.09,0,0,.62.07,1.55.44,1.9.74,5.09,2.67,6.92,7.6.85,2.29,1.41,5.24,1.41,9.01h0Z"/>
      <g class="st28">
        <path class="st18" d="M44.02,57.29h0c-.41.63-1.77,2.42-4.48,2.42h-.02c-2.56-.01-4.06-1.85-4.44-2.39.08-.54.16-1.11.22-1.71.02-.35.06-.71.1-1.09,1.25.31,2.61.5,4.06.53h.05c1.5-.02,2.87-.23,4.16-.57.04.35.08.71.1,1.06.06.62.15,1.2.24,1.75"/>
      </g>
      <path class="st4" d="M39.34,15.44c-17.1,0-17.19,14.15-16.43,23.42-1.17-2.2-4.65-1.52-4.36,1.94.27,3.33,5.25,5.03,5.11,4.67,2.59,6.85,9.44,12.02,15.68,12.02h.13V15.44h-.13"/>
      <path class="st26" d="M19.65,39.34c.84-1.34,2.15-.76,2.47-.47.34.32.62.74.41,1.52-.12.45-.59.49-.48,1.16.13.76.48.8.69.98.2.17.45.3.57.62.13.32.15.66.08.96-.13.54-.93.1-1.47-.13-.36-.17-1.49-1.11-1.77-1.42-.71-.8-1.05-2.35-.48-3.23"/>
      <path class="st6" d="M39.43,15.44c17.1,0,17.19,14.15,16.44,23.42,1.17-2.2,4.63-1.52,4.35,1.94-.26,3.33-5.24,5.03-5.11,4.67-2.52,6.85-9.44,12.02-15.68,12.02h-.09l-.04-42.05h.13"/>
      <path class="st26" d="M59.12,39.34c-.84-1.34-2.14-.76-2.47-.47-.34.32-.61.74-.41,1.52.12.45.59.49.48,1.16-.13.76-.48.8-.68.98-.2.17-.46.3-.58.62s-.15.66-.08.96c.13.54.93.1,1.47-.13.37-.17,1.49-1.11,1.77-1.42.72-.8,1.05-2.35.48-3.23"/>
      <path class="st20" d="M39.2,19.44c-5.62,0-9.74,1.62-12.22,4.79-3.48,4.46-3.35,11.26-2.07,16.14.4,1.5.61,5.52.87,6.99,1.22,6.6,8.59,10.12,13.43,10.12h.13V19.44h-.08"/>
      <path class="st29" d="M51.41,24.25c-2.47-3.17-6.54-4.78-12.08-4.81v38.05c5.54-.06,12.17-3.92,13.3-10.12.27-1.47.47-5.49.87-6.99,1.29-4.87,1.42-11.66-2.09-16.13"/>
      <path class="st16" d="M38.65,49.36c-.08-.01-.15-.03-.21-.04.07.01.14.03.21.04Z"/>
      <path class="st16" d="M38.36,50.73s-.1-.02-.13-.03c.04.01.09.02.13.03Z"/>
      <path class="st15" d="M38.44,50.75s-.05-.01-.08-.02c.02,0,.05.01.08.02Z"/>
      <path class="st15" d="M38.23,50.7s-.05-.01-.07-.02h0s.03,0,.07.02h0Z"/>
      <path class="st6" d="M36.11,45.81c-.06-1.32,2.44-.48,3.26-.44.65.03,2.64-.41,2.81-.3,1.17.78-1.24,2.35-2.85,2.35-.43,0-3.18-.82-3.22-1.61h0Z"/>
      <path class="st16" d="M24.01,31.3c-.15.5-.26,1.05-.33,1.64,0,0,.22-.93.72-2.3-.21.29-.36.53-.39.66Z"/>
      <path class="st24" d="M34.56,19.53l-.07.07v.02s.05-.07.07-.1Z"/>
      <path class="st16" d="M38.7,50.02c-.08-.01-.15-.03-.22-.04.07.01.15.03.22.04Z"/>
      <path class="st16" d="M38.4,49.96s-.1-.02-.13-.03c.04.01.09.02.13.03Z"/>
      <path class="st1" d="M38.49,49.97s-.05-.01-.08-.02c.03,0,.05.01.08.02Z"/>
      <path class="st1" d="M38.27,49.93s-.05-.01-.07-.02h0s.03,0,.07.02Z"/>
      <path class="st7" d="M27.07,34.29s1.3,5.3,3.54,5.73c2.24.43,4.66-.43,4.66-.43,0,0,.23-6.23-.92-7.04-1.15-.82-3.79-2-7.29,1.74Z"/>
      <path class="st17" d="M35.28,39.58s-.05.01-.17.06c-.03-1.91-.21-4.53-.92-5.04-1.06-.77-3.47-1.86-6.68,1.11-.29-.82-.44-1.44-.44-1.44,3.51-3.74,6.15-2.56,7.29-1.75,1.15.82.92,7.05.92,7.05h0Z"/>
      <ellipse class="st27" cx="31.75" cy="36.88" rx="2.2" ry="2.18"/>
      <path class="st3" d="M31.65,38.34c-.64-.05-1.13-.69-1.07-1.39s.64-1.25,1.28-1.19,1.13.69,1.07,1.39-.64,1.25-1.28,1.2h0Z"/>
      <path class="st8" d="M31.7,38.08c-.44-.04-.9-.52-.85-1.11.05-.6.58-.99,1.03-.96.44.04.9.52.85,1.11s-.58.99-1.02.96h0Z"/>
      <path class="st7" d="M31.34,36.62c-.02.22-.24.37-.5.35-.26-.02-.45-.21-.43-.43s.24-.37.5-.35c.26.02.45.21.43.43h0Z"/>
      <path class="st7" d="M32.77,37.86c-.01.11-.12.19-.25.18-.13-.01-.22-.11-.22-.21.01-.11.12-.19.25-.18.13.01.22.11.22.21Z"/>
      <path class="st16" d="M38.73,50.64c-.08-.01-.15-.03-.22-.04.07.01.15.03.22.04Z"/>
      <path class="st16" d="M38.44,50.58s-.1-.02-.13-.03c.04.01.09.02.13.03Z"/>
      <path class="st1" d="M38.52,50.6s-.05-.01-.08-.02c.03,0,.05.01.08.02Z"/>
      <path class="st1" d="M38.3,50.55s-.05-.01-.07-.02h0s.03,0,.07.02Z"/>
      <path class="st16" d="M38.65,50.5c-.09-.01-.16-.03-.23-.04.08.02.16.03.23.04Z"/>
      <path class="st16" d="M38.33,50.43c-.05-.01-.11-.02-.14-.03.05.01.09.02.14.03Z"/>
      <path class="st15" d="M38.42,50.45s-.06-.01-.09-.02c.03,0,.05.01.09.02Z"/>
      <path class="st15" d="M38.19,50.4s-.05-.01-.08-.02h0s.03.01.08.02h0Z"/>
      <path class="st16" d="M38.59,50.27c-.09-.01-.16-.03-.23-.04.08.02.16.03.23.04Z"/>
      <path class="st16" d="M38.26,50.21c-.05-.01-.11-.02-.14-.03.05.01.09.02.14.03Z"/>
      <path class="st15" d="M38.35,50.23s-.06-.01-.09-.02c.03,0,.05.01.09.02Z"/>
      <path class="st15" d="M38.12,50.18s-.05-.01-.08-.02h0s.03.01.08.02h0Z"/>
      <path class="st16" d="M38.78,50.24c-.08-.01-.16-.03-.22-.04.07.02.15.03.22.04Z"/>
      <path class="st16" d="M38.47,50.18s-.1-.02-.14-.03c.05.01.09.02.14.03Z"/>
      <path class="st15" d="M38.56,50.2s-.06-.01-.09-.02c.03,0,.05.01.09.02Z"/>
      <path class="st15" d="M38.34,50.15s-.05-.01-.07-.02h0s.03.01.08.02h0Z"/>
      <path class="st7" d="M51.73,34.11s-1.3,5.3-3.54,5.73c-2.24.43-4.66-.43-4.66-.43,0,0-.23-6.23.92-7.04,1.15-.82,3.79-2,7.29,1.74Z"/>
      <path class="st17" d="M43.52,39.4s.05.01.17.06c.03-1.91.21-4.53.92-5.04,1.06-.77,3.47-1.86,6.68,1.11.29-.82.44-1.44.44-1.44-3.51-3.74-6.15-2.56-7.29-1.75-1.15.82-.92,7.05-.92,7.05h0Z"/>
      <path class="st27" d="M44.85,36.7c0,1.21.99,2.18,2.2,2.18s2.2-.98,2.2-2.18-.99-2.18-2.2-2.18-2.2.98-2.2,2.18Z"/>
      <path class="st3" d="M47.15,38.16c.64-.05,1.13-.69,1.07-1.39s-.64-1.25-1.28-1.19c-.64.05-1.13.69-1.07,1.39s.64,1.25,1.28,1.2h0Z"/>
      <path class="st8" d="M47.1,37.9c.44-.04.9-.52.85-1.11-.05-.6-.58-.99-1.03-.96-.44.04-.9.52-.85,1.11s.58.99,1.02.96h0Z"/>
      <path class="st7" d="M47.46,36.44c.02.22.24.37.5.35.26-.02.45-.21.43-.43-.02-.22-.24-.37-.5-.35-.26.02-.45.21-.43.43h0Z"/>
      <path class="st7" d="M46.03,37.68c.01.11.12.19.25.18.13-.01.22-.11.22-.21-.01-.11-.12-.19-.25-.17-.13.01-.22.11-.22.21h0Z"/>
      <g>
        <path d="M36.62,34.21s-.42-.64-1.25-1.27c-.52-.4-1.03-.69-1.56-.92-.64-.27-1.34-.46-2.01-.55-.61-.07-1.28-.05-2.06.06-.6.11-1.18.29-1.68.5-.35.12-.63.29-.86.43-.09.05-.16.1-.24.14l-1.07.67,1.23-.29c.06-.01.12-.03.19-.05.26-.07.57-.15.94-.2.09-.01.17-.03.27-.05.16-.03.32-.06.48-.07.19-.01.38-.02.58-.04l.26-.02c.68,0,1.26.04,1.77.16.56.1,1.14.28,1.66.52.5.24.98.47,1.35.74.75.5,1.17.91,1.18.92h0c.1.1.24.16.38.16.1,0,.2-.03.29-.08.25-.16.32-.49.16-.73v-.02s-.02,0-.02,0Z"/>
        <path d="M51.95,32.6c-.07-.04-.15-.08-.24-.14-.22-.14-.5-.31-.85-.42-.51-.22-1.09-.4-1.7-.51-.78-.1-1.45-.12-2.06-.05-.67.09-1.36.28-2.01.55-.52.22-1.05.53-1.56.92-.82.62-1.22,1.22-1.25,1.27h0c-.14.22-.11.5.07.68.1.1.24.16.38.16h0c.14,0,.28-.06.38-.16h0s.45-.44,1.18-.92c.37-.27.84-.5,1.34-.74.53-.24,1.1-.42,1.67-.52.51-.12,1.08-.17,1.76-.16l.27.02c.2.01.39.03.58.04.16,0,.32.04.48.07.09.02.18.04.27.05.37.05.69.14.94.2.07.02.13.04.19.05l1.23.29-1.08-.67h0Z"/>
      </g>
      <path class="st16" d="M38.36,51.27c-.08-.01-.16-.03-.23-.04.08.02.15.03.23.04Z"/>
      <path class="st16" d="M38.05,51.21c-.05-.01-.1-.02-.14-.03.05.01.09.02.14.03Z"/>
      <path class="st2" d="M38.13,51.23s-.06-.01-.09-.02c.03,0,.05.01.09.02Z"/>
      <path class="st2" d="M37.91,51.18s-.05-.01-.08-.02h0s.03.01.08.02Z"/>
      <path class="st5" d="M36.17,52.32c-.06-.85,2.4.18,3.2.2.64.02,2.58-.13,2.76-.19,1.35-.5-.07,1.43-2.8,1.52-1.25.05-3.13-1.02-3.16-1.53Z"/>
      <path class="st0" d="M44.18,50.68c-.67-.03-1.35.52-2.16.43-.03-.02-.05-.02-.08-.02-.19-.03-.37,0-.57.05-.25.05-.5.15-.74.23-.4.13-.85.23-1.32.2h-.05c-.47.03-.92-.07-1.32-.2-.24-.08-.49-.18-.74-.23-.2-.05-.38-.08-.57-.05-.04,0-.05,0-.08.02-.8.08-1.49-.47-2.16-.43-.19.02-.45-.03-.6-.03.03.02.07.03.1.05,1.91.92,3.55,2.64,5.37,2.59h.05c1.82.06,3.46-1.67,5.37-2.59.04-.02.07-.03.1-.05-.15,0-.42.05-.6.03h0Z"/>
      <path class="st23" d="M44.75,50.63h0s-1.94-.74-3.31-.31c0,0-.51.2-1.04.32-.32.12-.72.16-1.09.14h0c-.29-.01-.57-.05-.79-.09-.07-.01-.15-.03-.23-.04-.03,0-.06-.01-.09-.02-.05-.01-.09-.02-.14-.03-.05-.01-.08-.02-.08-.02h0c-.44-.12-.82-.26-.82-.26-1.38-.43-3.31.31-3.31.31h0s-.04.02-.04.02c.15,0,.42.05.6.03.67-.03,1.35.52,2.16.43.03-.02.05-.02.08-.02.19-.03.37,0,.57.05.25.05.5.15.74.23.4.13.85.23,1.32.2h.05c.47.03.92-.07,1.32-.2.24-.08.49-.18.74-.23.2-.05.38-.08.57-.05.04,0,.05,0,.08.02.8.08,1.49-.47,2.16-.43.19.02.45-.03.6-.03,0,0-.02,0-.04-.02h0Z"/>
      <path class="st23" d="M36.04,51.07s3.63,1.09,6.44.02l-.32-.22h-3.8l-2.31.19h0Z"/>
      <path class="st9" d="M56.11,78.88H22.79c0-.92.04-1.79.1-2.61.09-1.28.25-2.46.46-3.53,2.13-10.99,9.63-11.54,9.63-11.54l6.44,4.29,6.59-4.31c6.5,1.49,8.87,7.06,9.71,11.56.25,1.31.36,2.53.41,3.53.07,1.58-.01,2.61-.01,2.61h0Z"/>
      <path class="st22" d="M44.34,58.44c-.09.88-.92,3.35-2.63,4.78-1.14.95-1.91,1.56-2.12,1.9h-.01c-.2-.35-.98-.96-2.11-1.9-1.72-1.43-2.55-3.9-2.63-4.78-1.08.94-2.5,4.59-2.5,4.59.01-.01.03,0,.06.04.04.05.08.14.14.28.04.08.08.19.12.3.05.13.11.29.17.46h0s.03.08.05.13h0c.02.05.04.1.06.16.13.37.28.79.45,1.28h0c.02.07.04.13.06.19h0c.13.37.27.78.41,1.21,0,0,0,.01,0,.02.02.06.04.13.06.19,0,.01,0,.02.01.03.02.06.04.13.06.19,0,.01,0,.02.01.03.02.06.04.13.06.19,0,.01,0,.02.01.04.02.06.04.13.06.19,0,.01,0,.02.01.04.09.28.19.56.28.85,0,.03.02.05.02.08.02.05.04.11.05.17.01.03.02.06.03.09.02.05.04.1.05.16.01.04.02.08.04.12.01.05.03.09.05.14.01.04.03.08.04.12.01.05.03.1.05.15,0,0,0,.01,0,.02l-.55.55,3.44,8.45h3.8l3.91-7.61-1.1-1.16s.02-.07.04-.11c.01-.04.03-.08.04-.13.01-.05.03-.1.05-.15.01-.04.03-.08.04-.12.01-.05.03-.1.05-.14.01-.04.02-.08.04-.12.01-.05.04-.1.05-.16.01-.03.02-.06.03-.09.02-.06.04-.11.05-.17.01-.03.02-.06.02-.08.1-.29.19-.58.28-.85,0-.01,0-.02.01-.04.02-.07.04-.13.06-.19,0-.01,0-.02.01-.04.02-.07.04-.13.06-.19,0-.01,0-.02.01-.03.02-.06.04-.13.06-.19,0-.01,0-.02.01-.03.02-.07.04-.13.06-.19,0,0,0-.01,0-.02.14-.43.28-.83.41-1.21q.09-.25,0,0c.02-.06.04-.12.06-.18h0c.17-.49.32-.92.45-1.28.02-.05.04-.1.06-.15h0s.03-.09.05-.13h0c.06-.17.12-.32.17-.46.05-.12.09-.22.12-.3.06-.14.11-.23.15-.28.02-.04.05-.05.06-.04,0,0-1.42-3.64-2.5-4.59h.02Z"/>
      <path class="st21" d="M33.77,76.26h-9.99c.09-1.28.23-2.46.42-3.53h7.39c.46.74.97,1.56,1.5,2.43.22.36.45.73.68,1.1h0Z"/>
      <path class="st21" d="M54.33,76.26h-9.84c.23-.37.46-.74.68-1.1.53-.86,1.04-1.69,1.5-2.43h7.28c.22,1.31.33,2.53.38,3.53h0Z"/>
      <path class="st19" d="M37.16,77.28c-.11-.34-.22-.68-.33-1.02-.37-1.16-.76-2.36-1.14-3.53-.23-.7-.45-1.39-.67-2.06-.03-.09-.06-.18-.09-.27-.01-.04-.02-.08-.04-.12-.02-.05-.04-.1-.05-.16-.01-.05-.03-.09-.05-.14-.01-.04-.03-.08-.04-.13-.02-.05-.03-.1-.05-.15-.01-.04-.02-.08-.04-.12-.01-.05-.03-.09-.05-.14-.01-.04-.02-.08-.04-.12-.02-.05-.04-.1-.05-.16-.01-.03-.02-.06-.03-.1-.02-.06-.04-.11-.05-.16,0-.03-.02-.06-.02-.08-.1-.29-.2-.58-.29-.85,0-.01,0-.02-.01-.04-.02-.07-.04-.13-.06-.19,0-.01-.01-.03-.01-.04-.02-.06-.04-.13-.06-.19,0-.01,0-.02-.01-.03-.02-.07-.04-.13-.06-.19,0-.01,0-.02-.01-.03-.02-.07-.04-.13-.06-.2,0,0,0-.01,0-.01-.15-.43-.28-.83-.41-1.2h0c-.02-.06-.04-.12-.06-.18h0c-.17-.49-.32-.92-.46-1.28-.02-.05-.04-.1-.06-.15h0s-.03-.09-.05-.13h0c-.06-.17-.12-.32-.18-.46-.05-.12-.09-.22-.13-.3-.06-.13-.17-.27-.2-.32-1.2,1.46-2.01,3.47-2.01,3.47l1.1.94.62.53-.69.4-2.11,1.22s.88,1.3,2.13,3.14c.5.74,1.06,1.56,1.65,2.43.25.36.5.73.75,1.1.59.87,1.19,1.76,1.77,2.61h2.2c-.16-.52-.33-1.05-.51-1.59h-.01Z"/>
      <path class="st19" d="M47.89,68.37l-.69-.4.62-.53,1.11-.94s-.8-2.01-2.01-3.47c-.04.05-.14.18-.2.32-.04.08-.08.19-.13.3-.05.13-.11.29-.18.46h0s-.03.08-.05.13h0c-.02.05-.04.1-.06.16-.14.37-.29.79-.46,1.27h0c-.02.07-.04.13-.06.19h0c-.13.37-.27.78-.42,1.21,0,0,0,.01,0,.01-.02.07-.05.13-.07.2,0,.01,0,.02-.01.03-.02.06-.04.13-.06.19,0,.01,0,.02-.01.03-.02.06-.05.13-.07.19,0,.01,0,.03-.01.04-.02.06-.04.13-.06.19,0,.01,0,.02-.01.04-.09.28-.19.56-.28.85,0,.03-.02.06-.02.08-.02.05-.04.11-.06.16-.01.03-.02.06-.03.1-.02.05-.04.1-.05.16-.01.04-.02.08-.04.12-.02.05-.03.1-.05.14-.01.04-.02.08-.04.12-.02.05-.03.1-.05.15-.01.04-.03.08-.04.13-.01.05-.03.09-.05.14-.02.05-.04.11-.05.16-.01.04-.02.08-.04.12-.03.09-.06.18-.09.27-.22.67-.45,1.36-.67,2.06-.38,1.18-.77,2.37-1.14,3.53-.11.34-.22.68-.33,1.02-.17.54-.35,1.08-.51,1.59h2.2c.58-.86,1.19-1.74,1.77-2.61.25-.37.5-.74.75-1.1.58-.86,1.15-1.69,1.65-2.43,1.25-1.84,2.13-3.14,2.13-3.14l-2.11-1.22h0Z"/>
      <polygon class="st25" points="42.68 69.63 39.62 72.17 36.46 69.63 36.46 66.1 39.63 68.88 42.68 66.38 42.68 69.63"/>
      <path class="st30" d="M58.86,23.33v-.02c-.49-6.66-8.84-17.14-8.84-17.14v.6c-.15,1.51-.04,3.1.25,4.68-2.99-2.67-6.06-4.68-6.06-4.68l.15.46c.25,1.14.72,2.26,1.29,3.34-.98-.27-1.6-.36-1.6-.36,0,0-10.67-3.15-18.81,7.15-1.14.42-2.49.91-4.12,1.5,0,0,1.13.37,2.62.6-.31.48-.62,1-.92,1.53-.47.27-.99.51-1.63.68-4.13,1.08-5.33-.3-5.33-.3,0,0,1.79,2.42,4.97,2.43.51,0,.57,0,.57-.01,0,.01-1.19,2.6-1.42,4.54-.24,1.98.5,3.33.72,7.03.06,1.03.22,1.56.44,1.87.46.65,1.21.43,2.05,2,.42.78.44,1.66.44,1.66,0,0,.04.02.09.04.26.08,1.02.01,1.05-3.28,0,0-3.34-12.92,3.47-14.83,2.96-.84,6.94-.13,10.84.72,2.6.57,5.22,1.5,7.65,2.93,3.13,1.85,7.18,4.21,8.02,8.43v.02c-.12,1.13-.18,2.04-.19,2.78-.04,3.03.72,3.01.72,3.01.35,0-.02-1.53,1.14-2.58.32-.29.68-.77,1.05-1.39.95-1.62,1.88-4.18,1.88-6.75.18-2.52-.02-4.71-.48-6.64h0Z"/>
      <g>
        <path class="st13" d="M36.48,40.76c-.83,2.68-3.01,3.94-4.43,4.49-.79.31-1.64.42-2.48.34-3.61-.35-5.13-2.52-5.78-4.32,2.04-1.17,7.96-4,12.68-.5h0Z"/>
        <path class="st11" d="M37.14,36.92s-.03.04-.04.06l-.07.1c-.07.1-.17.16-.27.17.15,1.38.02,2.54-.28,3.51-4.72-3.5-10.64-.68-12.68.5-.38-1.07-.45-2.01-.47-2.38.42-3.31,3.07-5.91,6.4-6.27h0c.25-.02.51-.04.77-.04h.22c.11,0,.22,0,.33.02.06,0,.12.01.18.02.06,0,.12.01.18.02,2.57.33,4.72,2,5.72,4.29h0Z"/>
        <path class="st10" d="M54.79,41.27c-.64,1.81-2.17,3.97-5.77,4.32-.84.08-1.69-.03-2.48-.34-1.41-.55-3.6-1.81-4.43-4.49,4.72-3.5,10.64-.67,12.68.51h0Z"/>
        <path class="st12" d="M55.26,38.71s.02,1.17-.47,2.56c-2.04-1.17-7.96-4-12.68-.51-.21-.69-.34-1.47-.34-2.37,0-.36.02-.74.06-1.14-.1-.01-.2-.07-.27-.17l-.07-.1c-.04-.06-.09-.12-.15-.17.55-1.36,1.55-2.2,2.8-3.01,1.18-.76,2.81-.7,4.35-.7,1.09,0,1.89-.28,2.83.12,2.37,1.03,4.08,2.9,4.32,5.48h-.39Z"/>
        <path class="st7" d="M31.43,32.63c-.06,0-.12-.01-.18-.02-.06,0-.12-.01-.18-.02-.11-.01-.22-.01-.33-.02h-.15c-.15,0-.29,0-.43.02,0,0-.15,0-.41.02h0c-1.13.08-4.32.39-6.11,1.55-.19.12-.4.21-.62.26-.48.1-1.33.28-1.89.35-.33.05-.59.33-.62.68-.04.48,0,1.05.34,1.13,0,0,1.16-.16,1.35,1.46.04.38.36.67.73.67h.41s0,.06,0,.17c.04,1.01.51,6.16,6.24,6.71.84.08,1.69-.03,2.48-.34,1.93-.75,5.27-2.81,4.7-8,.1-.01.2-.07.27-.17l.07-.1s.03-.04.04-.06c.15-.19.36-.3.59-.32v-1.39s-3.28-2.2-6.31-2.58h0ZM36.28,39.93c-.61,3.05-2.83,4.43-4.28,5.01-.75.3-1.56.41-2.36.33-5.45-.54-5.91-5.57-5.95-6.57v-.18s.23-4.16,4.28-4.98c.64-.1,1.36-.14,2.18-.12,0,0,4.1-.2,5.84,2.86.65,1.29.35,3.32.3,3.64Z"/>
        <path class="st7" d="M58.09,35.44c-.03-.35-.28-.63-.62-.68-.56-.07-1.41-.25-1.89-.35-.22-.05-.43-.13-.62-.26-.98-.63-2.38-1.02-3.63-1.24-1.56-.28-2.89-.33-2.89-.33-1.4-.11-2.97.35-4.33.91-1.84.76-3.27,1.72-3.27,1.72v1.39c.18.01.36.09.49.21.06.05.11.1.15.17l.07.1c.07.1.17.16.27.17-.04.4-.06.78-.06,1.14,0,4.36,2.99,6.17,4.77,6.86.79.31,1.64.42,2.48.34,6.36-.61,6.25-6.88,6.25-6.88h.41c.37,0,.69-.29.73-.67.19-1.62,1.35-1.46,1.35-1.46.35-.07.38-.65.34-1.13h.01ZM54.91,38.71c-.04,1.01-.5,6.03-5.95,6.57-.8.08-1.61-.03-2.36-.33-1.45-.58-3.67-1.96-4.28-5.01-.05-.33-.35-2.35.3-3.64,1.74-3.06,5.84-2.86,5.84-2.86.82-.02,1.54.02,2.18.12,4.05.83,4.29,4.98,4.29,4.98v.18h0Z"/>
        <rect class="st7" x="37.3" y="35.44" width="3.82" height=".91"/>
        <path class="st7" d="M42.25,34.81c0,.12-1.36.23-3.05.23s-3.05-.1-3.05-.23,1.36-.23,3.05-.23,3.05.1,3.05.23Z"/>
      </g>
    </g>
  </g>
</svg>