<?xml version="1.0" encoding="UTF-8"?>
<svg id="Layer_2" data-name="Layer 2" xmlns="http://www.w3.org/2000/svg" xmlns:xlink="http://www.w3.org/1999/xlink" viewBox="0 0 221.48 223.59">
  <defs>
    <style>
      .cls-1 {
        fill: none;
      }

      .cls-2 {
        fill: #462e1b;
      }

      .cls-3 {
        fill: url(#Névtelen_színátmenet_2-4);
      }

      .cls-3, .cls-4 {
        opacity: .62;
      }

      .cls-4 {
        fill: url(#Névtelen_színátmenet_2-2);
      }

      .cls-5 {
        fill: url(#Névtelen_színátmenet_2-3);
      }

      .cls-5, .cls-6 {
        opacity: .66;
      }

      .cls-7 {
        fill: #ba9d82;
      }

      .cls-8 {
        fill: #ccad8a;
      }

      .cls-9 {
        fill: #44361f;
      }

      .cls-10 {
        fill: #d7bd9d;
      }

      .cls-6 {
        fill: url(#Névtelen_színátmenet_2);
      }

      .cls-11 {
        fill: #e5b344;
      }

      .cls-12 {
        fill: #c1a587;
      }

      .cls-13 {
        fill: #dac6a4;
      }

      .cls-14 {
        fill: #fff;
      }

      .cls-15 {
        fill: #dcc5a0;
      }

      .cls-16 {
        fill: #272213;
      }

      .cls-17 {
        fill: #52839e;
      }

      .cls-18 {
        fill: #ecdab6;
      }

      .cls-19 {
        fill: #3c3d39;
      }

      .cls-20 {
        fill: #b8987d;
      }

      .cls-21 {
        fill: #d3897e;
      }

      .cls-22 {
        fill: #90463e;
      }

      .cls-23 {
        fill: #f6f6f5;
      }

      .cls-24 {
        fill: #ebd9b5;
      }

      .cls-25 {
        fill: #b05d53;
      }

      .cls-26 {
        fill: #a98d76;
      }

      .cls-27 {
        fill: #714223;
      }

      .cls-28 {
        fill: #b7967d;
      }

      .cls-29 {
        clip-path: url(#clippath);
      }

      .cls-30 {
        fill: #d2bb9b;
      }

      .cls-31 {
        fill: #b5957e;
      }
    </style>
    <clipPath id="clippath">
      <rect class="cls-1" x="98.51" y="154.44" width="25.1" height="14.8"/>
    </clipPath>
    <linearGradient id="Névtelen_színátmenet_2" data-name="Névtelen színátmenet 2" x1="84.54" y1="134.75" x2="84.74" y2="98.12" gradientUnits="userSpaceOnUse">
      <stop offset="0" stop-color="#fff"/>
      <stop offset="1" stop-color="#6189ae"/>
    </linearGradient>
    <linearGradient id="Névtelen_színátmenet_2-2" data-name="Névtelen színátmenet 2" x1="81.45" y1="139.81" x2="89.13" y2="67.93" xlink:href="#Névtelen_színátmenet_2"/>
    <linearGradient id="Névtelen_színátmenet_2-3" data-name="Névtelen színátmenet 2" x1="135.93" y1="135.04" x2="136.13" y2="98.4" xlink:href="#Névtelen_színátmenet_2"/>
    <linearGradient id="Névtelen_színátmenet_2-4" data-name="Névtelen színátmenet 2" x1="132.09" y1="145.23" x2="139.77" y2="73.34" xlink:href="#Névtelen_színátmenet_2"/>
  </defs>
  <g id="Layer_1-2" data-name="Layer 1">
    <g>
      <rect class="cls-11" width="221.48" height="223.59"/>
      <path class="cls-15" d="M110.97,139.23v83.76h-45.31c-.74-.29-1.11-.44-1.11-.44,0-10.69,1.57-19.03,3.96-25.53,5.77-15.69,16.32-20.67,21.18-22.17,1.59-.49,2.58-.61,2.58-.61.17,0,.33-.02.5-.04,1.43-.23,2.58-1.47,3.51-3.45.69-1.47,1.27-3.34,1.74-5.51.19-.85.33-1.7.48-2.62.22-1.55.44-3.17.63-4.87.07-1.03.18-2.03.29-3.1.4-5.12.52-10.73.52-16.04,0,0,6.08.63,11.02.63Z"/>
      <path class="cls-24" d="M157.57,222.55s-.41.15-1.07.44h-45.53v-83.76h.11c4.9,0,11.06-.63,11.06-.63,0,5.27.11,10.81.51,15.93.11,1,.22,2.03.29,3.02.19,1.77.41,3.43.67,4.98v.03c.07.7.22,1.33.33,1.99.45,2.18.99,4.1,1.64,5.63.81,1.91,1.8,3.25,3.01,3.77.38.17.79.26,1.21.26,0,0,1.74.21,4.36,1.24,5.33,2.09,14.29,7.57,19.44,21.55,2.39,6.5,3.96,14.84,3.96,25.53Z"/>
      <g class="cls-29">
        <path class="cls-7" d="M123.61,162.39v.04c-1.14,1.76-4.98,6.81-12.57,6.81h-.07c-7.19-.04-11.39-5.24-12.46-6.78.22-1.54.44-3.15.63-4.84.07-.99.18-2.02.29-3.08,3.5.88,7.34,1.43,11.39,1.5h.15c4.2-.07,8.07-.66,11.69-1.61.11.99.22,2.02.29,3,.18,1.76.41,3.41.66,4.95"/>
      </g>
      <path class="cls-8" d="M110.45,43.78c-48,0-48.26,40.12-46.12,66.39-3.28-6.23-13.05-4.32-12.24,5.5.77,9.45,14.73,14.27,14.34,13.23,7.27,19.43,26.51,34.08,44.02,34.08h.37V43.78h-.37"/>
      <path class="cls-26" d="M55.16,111.53c2.36-3.81,6.05-2.16,6.93-1.32.96.92,1.73,2.09,1.14,4.32-.33,1.28-1.66,1.39-1.36,3.3.37,2.16,1.36,2.27,1.95,2.78.55.48,1.25.84,1.59,1.76.37.92.41,1.87.22,2.71-.37,1.54-2.62.29-4.13-.37-1-.48-4.17-3.15-4.98-4.03-1.99-2.27-2.95-6.67-1.36-9.16"/>
      <path class="cls-10" d="M110.71,43.78c48,0,48.26,40.12,46.15,66.39,3.28-6.23,13.01-4.32,12.2,5.5-.74,9.45-14.72,14.27-14.34,13.23-7.08,19.43-26.51,34.08-44.02,34.08h-.26l-.11-119.19h.37"/>
      <path class="cls-26" d="M166.01,111.53c-2.36-3.81-6.01-2.16-6.93-1.32-.96.92-1.7,2.09-1.14,4.32.33,1.28,1.66,1.39,1.36,3.3-.37,2.16-1.36,2.27-1.92,2.78-.55.48-1.29.84-1.62,1.76s-.41,1.87-.22,2.71c.37,1.54,2.62.29,4.13-.37,1.03-.48,4.17-3.15,4.98-4.03,2.03-2.27,2.95-6.67,1.36-9.16"/>
      <path class="cls-15" d="M110.07,55.1c-15.78,0-27.35,4.58-34.32,13.59-9.77,12.64-9.4,31.91-5.82,45.76,1.11,4.25,1.7,15.65,2.43,19.82,3.43,18.72,24.11,28.69,37.71,28.69h.37V55.1h-.22"/>
      <path class="cls-24" d="M144.36,68.73c-6.93-8.98-18.36-13.56-33.92-13.63v107.87c15.56-.18,34.17-11.1,37.34-28.69.77-4.18,1.33-15.57,2.43-19.82,3.61-13.81,3.98-33.05-5.86-45.73"/>
      <path class="cls-1" d="M108.52,139.92c-.22-.04-.42-.08-.59-.11.2.04.4.08.59.11Z"/>
      <path class="cls-1" d="M107.7,143.8c-.14-.03-.27-.06-.36-.08.12.03.24.05.36.08Z"/>
      <path class="cls-28" d="M107.93,143.85c-.08-.02-.15-.03-.23-.05.07.02.14.03.23.05Z"/>
      <path class="cls-28" d="M107.34,143.72c-.07-.02-.13-.04-.2-.06h0s.08.02.21.06Z"/>
      <path class="cls-10" d="M101.38,129.86c-.18-3.73,6.85-1.36,9.16-1.25,1.83.09,7.4-1.17,7.88-.85,3.28,2.21-3.47,6.66-8,6.66-1.21,0-8.94-2.32-9.05-4.57Z"/>
      <path class="cls-1" d="M67.41,88.73c-.43,1.43-.73,2.99-.93,4.66,0,0,.63-2.63,2.03-6.52-.6.83-1,1.5-1.1,1.86Z"/>
      <path class="cls-9" d="M97.04,55.37l-.2.2.03.07c.07-.1.1-.2.17-.27Z"/>
      <path class="cls-1" d="M108.67,141.78c-.22-.04-.43-.08-.61-.12.21.04.41.09.61.12Z"/>
      <path class="cls-1" d="M107.82,141.61c-.14-.03-.28-.06-.37-.08.12.03.24.06.37.08Z"/>
      <path class="cls-31" d="M108.06,141.66c-.08-.02-.15-.03-.23-.05.08.02.14.03.23.05Z"/>
      <path class="cls-31" d="M107.46,141.53c-.07-.02-.14-.04-.21-.06h0s.08.02.21.06Z"/>
      <path class="cls-14" d="M76.01,97.21s3.66,15.02,9.95,16.25c6.29,1.23,13.09-1.21,13.09-1.21,0,0,.65-17.65-2.57-19.96-3.22-2.32-10.63-5.66-20.47,4.92Z"/>
      <path class="cls-30" d="M99.06,112.2s-.14.04-.47.18c-.08-5.41-.58-12.85-2.59-14.28-2.99-2.19-9.74-5.27-18.75,3.16-.82-2.33-1.23-4.09-1.23-4.09,9.86-10.61,17.28-7.27,20.47-4.95,3.22,2.32,2.57,19.99,2.57,19.99Z"/>
      <circle class="cls-2" cx="89.15" cy="104.55" r="6.19"/>
      <path class="cls-27" d="M88.86,108.67c-1.79-.15-3.16-1.95-3-3.93.16-1.98,1.81-3.53,3.6-3.38,1.79.15,3.16,1.95,3,3.93-.16,1.98-1.81,3.54-3.6,3.39Z"/>
      <path class="cls-16" d="M89.02,107.95c-1.24-.11-2.53-1.47-2.4-3.15.14-1.69,1.63-2.82,2.88-2.72,1.24.11,2.53,1.48,2.39,3.16-.14,1.68-1.63,2.82-2.87,2.72Z"/>
      <path class="cls-14" d="M88.01,103.81c-.05.61-.68,1.05-1.39.99-.72-.06-1.26-.6-1.21-1.21.05-.61.67-1.05,1.39-1,.72.06,1.26.6,1.21,1.21Z"/>
      <path class="cls-14" d="M92.02,107.32c-.03.3-.34.53-.69.5-.36-.03-.63-.3-.61-.6.03-.3.34-.53.69-.5.36.03.63.3.61.6Z"/>
      <path class="cls-1" d="M108.76,143.55c-.22-.04-.43-.08-.61-.12.21.04.41.09.61.12Z"/>
      <path class="cls-1" d="M107.92,143.39c-.14-.03-.28-.06-.37-.08.12.03.24.06.37.08Z"/>
      <path class="cls-31" d="M108.15,143.44c-.08-.02-.15-.03-.23-.05.08.02.14.03.23.05Z"/>
      <path class="cls-31" d="M107.55,143.3c-.07-.02-.14-.04-.21-.06h0s.08.02.21.06Z"/>
      <path class="cls-1" d="M108.53,143.14c-.24-.04-.46-.08-.65-.12.22.05.44.09.65.12Z"/>
      <path class="cls-1" d="M107.62,142.96c-.15-.03-.3-.07-.4-.09.13.03.26.06.4.09Z"/>
      <path class="cls-28" d="M107.87,143.01c-.08-.02-.17-.03-.25-.05.08.02.15.03.25.05Z"/>
      <path class="cls-28" d="M107.23,142.87c-.08-.02-.15-.04-.22-.06h0s.09.03.23.06Z"/>
      <path class="cls-1" d="M108.34,142.51c-.24-.04-.46-.08-.65-.12.22.05.44.09.65.12Z"/>
      <path class="cls-1" d="M107.44,142.33c-.15-.03-.3-.07-.4-.09.13.03.26.06.4.09Z"/>
      <path class="cls-28" d="M107.69,142.38c-.08-.02-.17-.03-.25-.05.08.02.15.03.25.05Z"/>
      <path class="cls-28" d="M107.04,142.24c-.08-.02-.15-.04-.22-.06h0s.09.03.23.06Z"/>
      <path class="cls-1" d="M108.89,142.42c-.23-.04-.44-.08-.63-.12.21.05.42.09.63.12Z"/>
      <path class="cls-1" d="M108.02,142.25c-.14-.03-.29-.06-.38-.09.13.03.25.06.38.09Z"/>
      <path class="cls-28" d="M108.26,142.3c-.08-.02-.16-.03-.24-.05.08.02.15.03.24.05Z"/>
      <path class="cls-28" d="M107.64,142.16c-.07-.02-.14-.04-.21-.06h0s.08.03.22.06Z"/>
      <path class="cls-14" d="M145.25,96.69s-3.66,15.02-9.95,16.25c-6.29,1.23-13.09-1.21-13.09-1.21,0,0-.65-17.65,2.57-19.96,3.22-2.32,10.63-5.66,20.47,4.92Z"/>
      <path class="cls-30" d="M122.2,111.69s.14.04.47.18c.08-5.41.58-12.85,2.59-14.28,2.99-2.19,9.74-5.27,18.75,3.16.82-2.33,1.23-4.09,1.23-4.09-9.86-10.61-17.28-7.27-20.47-4.95-3.22,2.32-2.57,19.99-2.57,19.99Z"/>
      <path class="cls-2" d="M125.93,104.04c0,3.42,2.77,6.19,6.19,6.19s6.19-2.77,6.19-6.19-2.77-6.19-6.19-6.19-6.19,2.77-6.19,6.19Z"/>
      <path class="cls-27" d="M132.4,108.16c1.79-.15,3.16-1.95,3-3.93-.16-1.98-1.81-3.53-3.6-3.38-1.79.15-3.16,1.95-3,3.93.16,1.98,1.81,3.54,3.6,3.39Z"/>
      <path class="cls-16" d="M132.25,107.44c1.24-.11,2.53-1.47,2.4-3.15-.14-1.69-1.63-2.82-2.88-2.72-1.24.11-2.53,1.48-2.39,3.16.14,1.68,1.63,2.82,2.87,2.72Z"/>
      <path class="cls-14" d="M133.25,103.3c.05.61.68,1.05,1.39.99.72-.06,1.26-.6,1.21-1.21-.05-.61-.67-1.05-1.39-1-.72.06-1.26.6-1.21,1.21Z"/>
      <path class="cls-14" d="M129.24,106.81c.03.3.34.53.69.5.36-.03.63-.3.61-.6-.03-.3-.34-.53-.69-.49-.36.03-.63.3-.61.6Z"/>
      <g>
        <path d="M102.83,96.97c-.05-.07-1.19-1.81-3.52-3.6-1.46-1.12-2.89-1.97-4.38-2.61-1.81-.76-3.75-1.3-5.63-1.55-1.7-.19-3.59-.14-5.79.16-1.68.32-3.32.82-4.71,1.43-.99.34-1.78.82-2.41,1.21-.24.15-.46.28-.68.4l-3,1.89,3.46-.81c.16-.04.34-.09.52-.14.72-.19,1.61-.43,2.65-.58.24-.04.49-.09.75-.14.44-.09.89-.18,1.36-.2.52-.04,1.07-.07,1.63-.11l.73-.05c1.92-.02,3.54.12,4.97.45,1.57.27,3.19.78,4.67,1.46,1.4.67,2.74,1.33,3.79,2.1,2.11,1.41,3.29,2.59,3.3,2.6h0c.29.29.68.44,1.07.44.28,0,.57-.08.82-.24.7-.46.89-1.4.45-2.07l-.03-.05Z"/>
        <path d="M145.87,92.4c-.2-.11-.42-.24-.66-.39-.63-.39-1.41-.87-2.38-1.2-1.42-.63-3.06-1.13-4.76-1.45-2.18-.29-4.07-.34-5.78-.15-1.87.26-3.82.79-5.63,1.55-1.46.63-2.94,1.5-4.38,2.61-2.29,1.76-3.43,3.46-3.51,3.59l-.02.03c-.39.59-.3,1.39.2,1.89.28.29.66.44,1.07.44h0c.4,0,.78-.16,1.06-.44h.01c.11-.12,1.25-1.24,3.3-2.61,1.03-.76,2.37-1.42,3.77-2.09,1.49-.69,3.1-1.2,4.7-1.47,1.42-.33,3.04-.47,4.93-.45l.76.05c.55.04,1.09.08,1.62.11.46.02.91.11,1.35.2.25.05.5.1.75.14,1.05.15,1.94.39,2.65.58.19.05.36.1.53.14l3.46.81-3.03-1.9Z"/>
      </g>
      <path class="cls-1" d="M107.7,145.34c-.23-.04-.45-.08-.64-.12.22.05.43.09.64.12Z"/>
      <path class="cls-1" d="M106.83,145.16c-.15-.03-.29-.07-.39-.09.13.03.26.06.39.09Z"/>
      <path class="cls-20" d="M107.07,145.21c-.08-.02-.16-.03-.24-.05.08.02.15.03.24.05Z"/>
      <path class="cls-20" d="M106.44,145.07c-.07-.02-.14-.04-.22-.06h0s.08.03.22.06Z"/>
      <path class="cls-18" d="M101.57,148.31c-.18-2.41,6.73.51,8.99.58,1.81.06,7.25-.36,7.75-.55,3.8-1.42-.21,4.04-7.86,4.32-3.51.14-8.78-2.89-8.88-4.35Z"/>
      <path class="cls-13" d="M124.06,143.66c-1.88-.09-3.8,1.47-6.06,1.23-.09-.05-.14-.05-.23-.05-.52-.09-1.03,0-1.6.14-.7.15-1.41.43-2.07.66-1.13.37-2.4.66-3.7.56h0s-.05,0-.07,0-.05,0-.07,0h0c-1.31.09-2.58-.2-3.7-.57-.66-.23-1.37-.51-2.07-.66-.56-.14-1.08-.23-1.6-.14-.1,0-.14,0-.23.05-2.26.24-4.18-1.32-6.06-1.23-.52.05-1.27-.09-1.69-.09.09.05.19.09.28.14,5.35,2.61,9.96,7.49,15.07,7.33h.15c5.11.16,9.72-4.73,15.07-7.33.1-.05.19-.09.28-.14-.42,0-1.17.14-1.69.09Z"/>
      <path class="cls-12" d="M125.64,143.51h0s-5.44-2.09-9.3-.87c0,0-1.44.56-2.93.9-.91.35-2.01.46-3.07.41h0c-.81-.03-1.59-.14-2.22-.25-.21-.03-.42-.08-.64-.12-.09-.02-.16-.03-.24-.05-.13-.03-.26-.06-.39-.09-.14-.03-.22-.06-.22-.06h0c-1.24-.34-2.3-.75-2.3-.75-3.87-1.23-9.3.87-9.3.87h0c-.07.03-.12.06-.12.06.42,0,1.17.14,1.69.09,1.87-.09,3.8,1.47,6.06,1.23.09-.05.14-.05.23-.05.52-.09,1.03,0,1.6.14.7.15,1.41.43,2.07.66,1.13.37,2.4.66,3.7.56h0s.05,0,.07,0,.05,0,.07,0h0c1.31.09,2.58-.2,3.7-.57.66-.23,1.37-.51,2.07-.66.56-.14,1.08-.23,1.6-.14.1,0,.14,0,.23.05,2.26.24,4.18-1.32,6.06-1.23.52.05,1.27-.09,1.69-.09,0,0-.05-.02-.12-.06Z"/>
      <path class="cls-12" d="M101.2,144.78c.1.02,10.19,3.1,18.08.07l-.91-.61h-10.66l-6.5.54Z"/>
      <path class="cls-25" d="M157.55,223.59h-93.55c.01-2.6.11-5.07.28-7.41.26-3.64.7-6.97,1.29-10.01,5.99-31.16,27.04-32.71,27.04-32.71l18.07,12.16,18.5-12.21c18.24,4.21,24.9,20.01,27.26,32.76.69,3.72,1.01,7.17,1.15,10.01.21,4.47-.03,7.41-.03,7.41Z"/>
      <path class="cls-23" d="M124.51,165.65c-.24,2.49-2.57,9.5-7.39,13.55-3.19,2.68-5.36,4.41-5.94,5.4h-.04c-.57-.99-2.74-2.72-5.93-5.4-4.82-4.05-7.15-11.06-7.39-13.55-3.02,2.67-7.02,13-7.02,13,.03-.04.08,0,.16.1.1.14.23.41.4.8.1.24.22.53.35.86.15.38.31.81.49,1.29h0c.04.12.09.24.13.36,0,0,0,0,0,.01.05.14.11.28.16.43.37,1.04.8,2.25,1.27,3.62,0,0,0,.01,0,.02.06.17.12.34.18.52h0c.36,1.06.75,2.21,1.15,3.42,0,.02.01.03.01.05.06.18.12.37.18.55.01.03.02.06.03.08.06.18.12.37.18.55.01.03.02.06.03.09.06.18.12.37.18.55.01.04.02.07.04.11.06.18.12.37.18.55.01.03.02.06.03.1.26.79.53,1.6.8,2.42.02.08.05.15.07.23.05.15.1.31.15.47.03.09.06.18.09.26.05.15.1.29.14.44.04.11.07.23.11.34.04.13.09.26.13.4.04.12.08.23.11.35.04.14.09.28.14.42,0,.02.01.03.02.05l-1.55,1.56,9.65,23.94h10.66l10.97-21.57-3.08-3.3c.04-.11.07-.21.1-.32.04-.12.08-.24.12-.36.04-.14.09-.28.13-.42.04-.11.08-.23.11-.35.04-.13.09-.27.13-.4.04-.11.07-.23.11-.34.04-.15.1-.29.14-.44.03-.09.06-.17.09-.26.05-.16.1-.31.15-.47.03-.08.05-.16.07-.23.27-.83.54-1.64.8-2.42.01-.03.02-.07.03-.1.06-.19.12-.37.18-.55.01-.04.02-.07.04-.11.06-.19.12-.37.18-.55,0-.03.02-.06.03-.09.06-.18.12-.37.18-.55,0-.03.02-.06.03-.08.06-.19.12-.37.18-.55,0-.02.01-.03.02-.05.4-1.21.79-2.36,1.15-3.42t0,0c.06-.17.12-.35.18-.52,0,0,0-.01,0-.02.47-1.37.9-2.58,1.27-3.62.05-.15.11-.29.16-.43,0,0,0,0,0-.01.04-.12.09-.24.13-.36h0c.18-.48.35-.92.49-1.29.13-.33.25-.61.35-.86.17-.39.31-.66.41-.8.07-.1.13-.14.16-.1,0,0-3.99-10.33-7.02-13Z"/>
      <path class="cls-22" d="M94.82,216.18h-28.06c.24-3.64.65-6.97,1.18-10.01h20.76c1.28,2.09,2.71,4.43,4.2,6.88.63,1.03,1.26,2.07,1.91,3.13Z"/>
      <path class="cls-22" d="M152.55,216.18h-27.62c.65-1.05,1.28-2.1,1.91-3.13,1.5-2.45,2.93-4.79,4.2-6.88h20.45c.63,3.72.93,7.17,1.06,10.01Z"/>
      <path class="cls-21" d="M104.33,219.07c-.3-.95-.61-1.92-.92-2.89-1.05-3.28-2.13-6.68-3.21-10.01-.64-1.98-1.27-3.93-1.89-5.84-.08-.26-.17-.52-.25-.77-.03-.11-.07-.22-.1-.33-.05-.14-.1-.29-.14-.44-.04-.13-.09-.26-.13-.39-.04-.12-.08-.24-.12-.36-.05-.14-.09-.28-.14-.42-.03-.12-.07-.23-.11-.35-.04-.13-.09-.26-.13-.4-.04-.12-.07-.23-.11-.34-.05-.15-.1-.29-.14-.44-.03-.09-.06-.18-.09-.27-.05-.16-.1-.31-.15-.46-.02-.08-.05-.16-.07-.24-.27-.82-.55-1.63-.81-2.42-.01-.03-.02-.07-.03-.1-.06-.19-.12-.37-.18-.55-.02-.04-.03-.08-.04-.11-.06-.18-.12-.37-.18-.55,0-.03-.02-.06-.03-.09-.06-.19-.12-.37-.18-.55-.01-.03-.02-.06-.03-.08-.06-.19-.12-.37-.18-.56,0-.01,0-.03-.02-.04-.41-1.21-.8-2.35-1.16-3.41h0c-.06-.18-.12-.35-.18-.52,0,0,0-.01,0-.02-.48-1.36-.91-2.58-1.29-3.61-.05-.15-.11-.29-.16-.43,0,0,0,0,0-.01-.05-.12-.09-.24-.13-.36h0c-.18-.49-.35-.92-.5-1.29-.13-.33-.25-.61-.36-.86-.17-.38-.47-.76-.57-.9-3.38,4.13-5.63,9.84-5.63,9.84l3.1,2.67,1.74,1.5-1.94,1.14-5.93,3.47s2.46,3.68,5.97,8.9c1.4,2.09,2.98,4.43,4.62,6.88.69,1.03,1.39,2.07,2.1,3.13,1.66,2.47,3.35,4.98,4.98,7.41h6.19c-.46-1.46-.94-2.97-1.44-4.51Z"/>
      <path class="cls-21" d="M134.47,193.8l-1.94-1.14,1.74-1.5,3.11-2.67s-2.25-5.71-5.63-9.84c-.1.14-.4.52-.57.9-.11.24-.23.53-.36.86-.15.37-.32.81-.5,1.29h0c-.05.12-.09.24-.14.36,0,0,0,0,0,.01-.05.14-.11.28-.16.43-.38,1.04-.81,2.25-1.28,3.61,0,0,0,.01,0,.02-.07.17-.12.34-.18.52h0c-.37,1.06-.76,2.21-1.17,3.42,0,.01,0,.03-.01.04-.07.19-.13.37-.19.56,0,.03-.02.05-.03.08-.06.18-.12.36-.18.55-.01.03-.02.06-.03.09-.06.18-.13.37-.19.55-.01.04-.02.08-.04.11-.06.18-.12.37-.18.55-.01.03-.02.07-.04.1-.26.79-.53,1.6-.8,2.42-.02.08-.05.16-.07.24-.05.15-.1.31-.16.46-.03.09-.06.18-.09.27-.05.14-.1.29-.14.44-.04.11-.07.22-.11.34-.05.13-.09.27-.13.4-.04.12-.07.23-.11.35-.05.14-.09.28-.14.42-.04.12-.08.24-.12.36-.04.13-.08.26-.13.39-.05.15-.1.3-.14.44-.04.11-.07.22-.11.33-.09.25-.17.51-.25.77-.62,1.9-1.26,3.86-1.89,5.84-1.08,3.34-2.16,6.73-3.21,10.01-.31.97-.62,1.94-.92,2.89-.49,1.54-.97,3.05-1.43,4.51h6.19c1.63-2.43,3.33-4.94,4.98-7.41.71-1.05,1.41-2.1,2.1-3.13,1.64-2.45,3.22-4.79,4.62-6.88,3.5-5.22,5.97-8.9,5.97-8.9l-5.93-3.47Z"/>
      <polygon class="cls-17" points="119.84 197.38 111.24 204.58 102.36 197.38 102.36 187.38 111.28 195.24 119.84 188.16 119.84 197.38"/>
      <path class="cls-19" d="M165.26,66.12s0-.04,0-.07c-1.37-18.89-24.82-48.6-24.82-48.6v1.69c-.43,4.29-.12,8.8.69,13.28-8.39-7.57-17.01-13.28-17.01-13.28l.43,1.3c.71,3.22,2.01,6.4,3.63,9.48-2.76-.76-4.5-1.02-4.5-1.02,0,0-29.96-8.94-52.81,20.27-3.21,1.18-6.99,2.57-11.57,4.24,0,0,3.18,1.05,7.36,1.69-.88,1.37-1.73,2.83-2.58,4.34-1.33.77-2.79,1.45-4.59,1.93-11.59,3.06-14.96-.86-14.96-.86,0,0,5.03,6.87,13.96,6.89,1.44,0,1.59-.02,1.6-.03,0,.03-3.35,7.38-3.99,12.87-.66,5.61,1.39,9.45,2.02,19.94.18,2.93.61,4.41,1.24,5.31,1.29,1.85,3.39,1.23,5.75,5.68,1.18,2.22,1.23,4.71,1.23,4.71,0,0,.1.07.25.11.74.22,2.85.04,2.96-9.31,0,0-9.37-36.62,9.73-42.05,8.32-2.37,19.5-.38,30.43,2.05,7.3,1.62,14.65,4.25,21.47,8.31,8.8,5.24,20.16,11.93,22.53,23.89,0,.02,0,.04,0,.05-.35,3.21-.5,5.79-.53,7.87-.11,8.6,2.02,8.53,2.02,8.53.98,0-.06-4.33,3.19-7.31.9-.82,1.92-2.19,2.94-3.93,2.67-4.59,5.28-11.86,5.28-19.13.5-7.14-.07-13.36-1.36-18.82Z"/>
      <g>
        <path class="cls-6" d="M102.44,115.55c-2.34,7.6-8.46,11.17-12.43,12.72-2.22.87-4.6,1.18-6.95.95-10.13-.99-14.41-7.13-16.22-12.26,5.74-3.33,22.36-11.34,35.61-1.41Z"/>
        <path class="cls-4" d="M104.29,104.66s-.08.1-.12.16l-.19.28c-.2.29-.48.45-.77.49.43,3.92.07,7.21-.78,9.96-13.25-9.93-29.87-1.92-35.61,1.41-1.06-3.02-1.27-5.7-1.31-6.76,1.18-9.37,8.63-16.76,17.96-17.76,0,0,.02,0,.02,0,.71-.07,1.42-.11,2.15-.11.07,0,.13,0,.2,0,.14,0,.27,0,.41,0h.02c.31,0,.63.02.94.05.17.01.34.03.51.05.17.02.34.04.51.06,7.21.93,13.25,5.68,16.05,12.17Z"/>
        <path class="cls-5" d="M153.83,116.98c-1.81,5.13-6.1,11.26-16.21,12.25-2.36.23-4.74-.08-6.95-.95-3.97-1.56-10.1-5.12-12.43-12.73,13.26-9.92,29.88-1.89,35.6,1.44Z"/>
        <path class="cls-3" d="M155.16,109.72s.06,3.33-1.33,7.26c-5.72-3.33-22.35-11.35-35.6-1.44-.6-1.96-.95-4.18-.95-6.71,0-1.03.06-2.11.18-3.24-.29-.04-.57-.2-.76-.49l-.19-.28c-.12-.17-.26-.33-.42-.47,1.54-3.85,4.36-6.25,7.87-8.53,3.32-2.16,7.9-1.98,12.21-1.98,3.07,0,5.31-.8,7.94.35,6.65,2.91,11.46,8.21,12.14,15.53h-1.09Z"/>
        <path class="cls-14" d="M88.25,92.49c-.17-.02-.34-.04-.51-.06-.17-.02-.34-.03-.51-.05-.31-.03-.63-.04-.94-.05h-.02c-.14,0-.27,0-.41,0-.41,0-.81.01-1.21.05,0,0-.42.01-1.14.06,0,0-.02,0-.02,0-3.18.22-12.14,1.1-17.15,4.38-.53.35-1.11.59-1.73.73-1.34.29-3.73.78-5.31,1-.94.13-1.66.93-1.74,1.93-.1,1.35-.02,2.98.96,3.19,0,0,3.27-.44,3.79,4.15.12,1.09,1.02,1.9,2.06,1.9h1.14s0,.17.01.49c.1,2.86,1.44,17.45,17.53,19.02,2.36.23,4.74-.08,6.95-.95,5.41-2.12,14.81-7.96,13.21-22.68.29-.04.57-.2.77-.49l.19-.28c.04-.06.08-.11.12-.16.41-.53,1.02-.85,1.67-.91v-3.95s-9.22-6.24-17.72-7.32ZM101.87,113.2c-1.72,8.65-7.96,12.57-12.03,14.21-2.11.85-4.38,1.16-6.63.94-15.3-1.53-16.6-15.78-16.71-18.63v-.5s.65-11.78,12.03-14.12c1.79-.28,3.81-.41,6.12-.34,0,0,11.51-.56,16.39,8.11,1.82,3.67.98,9.4.83,10.33Z"/>
        <path class="cls-14" d="M163.11,100.47c-.08-1-.8-1.8-1.74-1.93-1.58-.21-3.97-.71-5.31-1-.61-.13-1.2-.38-1.73-.73-2.75-1.8-6.69-2.88-10.2-3.52-4.38-.8-8.12-.93-8.12-.93-3.92-.31-8.35.98-12.15,2.57-5.17,2.16-9.17,4.87-9.17,4.87v3.95c.51.04,1,.25,1.38.6.16.14.3.29.42.47l.19.28c.2.29.47.45.76.49-.12,1.13-.18,2.21-.18,3.24,0,12.36,8.39,17.49,13.39,19.44,2.22.87,4.6,1.18,6.95.95,17.85-1.74,17.54-19.5,17.54-19.5h1.14c1.04,0,1.94-.81,2.06-1.9.52-4.59,3.78-4.15,3.78-4.15.99-.21,1.07-1.84.96-3.19ZM154.17,109.72c-.1,2.85-1.4,17.1-16.71,18.63-2.25.22-4.52-.08-6.63-.94-4.06-1.64-10.31-5.56-12.03-14.21-.15-.93-.99-6.66.83-10.33,4.88-8.67,16.39-8.11,16.39-8.11,2.31-.07,4.33.06,6.12.34,11.38,2.35,12.04,14.12,12.04,14.12v.5Z"/>
        <rect class="cls-14" x="104.73" y="100.46" width="10.72" height="2.59"/>
        <path class="cls-14" d="M118.64,98.68c0,.35-3.83.64-8.55.64s-8.55-.29-8.55-.64,3.83-.64,8.55-.64,8.55.29,8.55.64Z"/>
      </g>
    </g>
  </g>
</svg>