<?xml version="1.0" encoding="UTF-8"?>
<svg id="Layer_2" xmlns="http://www.w3.org/2000/svg" version="1.1" xmlns:xlink="http://www.w3.org/1999/xlink" viewBox="0 0 78.88 78.88">
  <!-- Generator: Adobe Illustrator 30.2.1, SVG Export Plug-In . SVG Version: 2.1.1 Build 1)  -->
  <defs>
    <style>
      .st0 {
        fill: #dac6a4;
      }

      .st1 {
        fill: url(#linear-gradient2);
      }

      .st2 {
        fill: #b5957e;
      }

      .st3 {
        fill: #b8987d;
      }

      .st4 {
        fill: #714223;
      }

      .st5 {
        fill: #ccad8a;
      }

      .st6 {
        fill: #ecdab6;
      }

      .st7 {
        fill: #d7bd9d;
      }

      .st8 {
        fill: #fff;
      }

      .st9 {
        fill: #272213;
      }

      .st10 {
        fill: #e5b344;
      }

      .st11 {
        fill: #7fa6ad;
      }

      .st12 {
        fill: #b7967d;
      }

      .st13 {
        fill: none;
      }

      .st14 {
        fill: #a91319;
      }

      .st15 {
        fill: #d2bb9b;
      }

      .st16 {
        fill: #b86963;
      }

      .st17 {
        fill: #ba9d82;
      }

      .st18 {
        fill: #dcc5a0;
      }

      .st19 {
        fill: url(#linear-gradient);
      }

      .st19, .st20 {
        isolation: isolate;
        opacity: .57;
      }

      .st21 {
        fill: url(#linear-gradient3);
      }

      .st22 {
        opacity: .46;
      }

      .st20 {
        fill: url(#linear-gradient1);
      }

      .st23 {
        fill: #c1a587;
      }

      .st24 {
        fill: #44361f;
      }

      .st25 {
        fill: #8a5b59;
      }

      .st26 {
        fill: #a98d76;
      }

      .st27 {
        fill: #462e1b;
      }

      .st28 {
        clip-path: url(#clippath);
      }

      .st29 {
        fill: #f7f7f7;
      }

      .st30 {
        fill: #ebd9b5;
      }
    </style>
    <clipPath id="clippath">
      <rect class="st13" x="35.09" y="54.62" width="8.94" height="5.24"/>
    </clipPath>
    <linearGradient id="linear-gradient" x1="18.46" y1="42.91" x2="36.69" y2="42.91" gradientTransform="translate(0 81.29) scale(1 -1)" gradientUnits="userSpaceOnUse">
      <stop offset="0" stop-color="#fff"/>
      <stop offset="1" stop-color="#6189ae"/>
    </linearGradient>
    <linearGradient id="linear-gradient1" x1="41.64" y1="42.92" x2="59.86" y2="42.92" gradientTransform="translate(0 81.29) scale(1 -1)" gradientUnits="userSpaceOnUse">
      <stop offset="0" stop-color="#fff"/>
      <stop offset="1" stop-color="#6189ae"/>
    </linearGradient>
    <linearGradient id="linear-gradient2" x1="27.74" y1="35" x2="26.82" y2="44.8" gradientTransform="translate(0 81.29) scale(1 -1)" gradientUnits="userSpaceOnUse">
      <stop offset="0" stop-color="#fff"/>
      <stop offset="1" stop-color="#6189ae"/>
    </linearGradient>
    <linearGradient id="linear-gradient3" x1="51.36" y1="37.21" x2="50.44" y2="47.01" gradientTransform="translate(0 81.29) scale(1 -1)" gradientUnits="userSpaceOnUse">
      <stop offset="0" stop-color="#fff"/>
      <stop offset="1" stop-color="#6189ae"/>
    </linearGradient>
  </defs>
  <g id="Layer_1-2">
    <g>
      <rect class="st11" width="78.88" height="78.88"/>
      <path class="st18" d="M39.52,49.24v29.64h-16.14c-.26-.11-.4-.16-.4-.16,0-3.79.56-6.73,1.41-9.03,2.06-5.55,5.81-7.32,7.54-7.85.57-.18.92-.22.92-.22.06,0,.12,0,.18-.01.51-.08.92-.52,1.25-1.22.25-.52.45-1.18.62-1.95.07-.3.12-.6.17-.93.08-.55.16-1.12.22-1.72.02-.37.06-.72.1-1.1.14-1.81.19-3.8.19-5.68,0,0,2.17.22,3.92.22h0Z"/>
      <path class="st30" d="M56.12,78.72s-.15.05-.38.16h-16.22v-29.64h.04c1.75,0,3.94-.22,3.94-.22,0,1.87.04,3.82.18,5.64.04.35.08.72.1,1.07.07.63.15,1.21.24,1.76h0c.02.26.08.48.12.72.16.77.35,1.45.58,1.99.29.68.64,1.15,1.07,1.34.14.06.28.09.43.09,0,0,.62.07,1.55.44,1.9.74,5.09,2.68,6.92,7.63.85,2.3,1.41,5.25,1.41,9.03h0Z"/>
      <g class="st28">
        <path class="st17" d="M44.03,57.43h0c-.41.64-1.77,2.43-4.48,2.43h-.02c-2.56-.01-4.06-1.86-4.44-2.4.08-.54.16-1.11.22-1.71.02-.35.06-.71.11-1.09,1.25.31,2.61.5,4.06.53h.05c1.5-.02,2.87-.23,4.16-.57.04.35.08.71.11,1.06.06.62.15,1.21.24,1.75"/>
      </g>
      <path class="st5" d="M39.34,15.46c-17.1,0-17.19,14.2-16.43,23.5-1.17-2.2-4.65-1.53-4.36,1.94.27,3.34,5.25,5.05,5.11,4.68,2.59,6.88,9.44,12.06,15.68,12.06h.13V15.46h-.13"/>
      <path class="st26" d="M19.65,39.43c.84-1.35,2.15-.77,2.47-.47.34.32.62.74.41,1.53-.12.46-.59.49-.48,1.17.13.77.48.8.69.98.2.17.45.3.57.62.13.32.15.66.08.96-.13.54-.93.1-1.47-.13-.36-.17-1.49-1.11-1.77-1.43-.71-.8-1.05-2.36-.48-3.24"/>
      <path class="st7" d="M39.43,15.46c17.1,0,17.19,14.2,16.44,23.5,1.17-2.2,4.63-1.53,4.35,1.94-.26,3.34-5.24,5.05-5.11,4.68-2.52,6.88-9.44,12.06-15.68,12.06h-.09l-.04-42.18h.13"/>
      <path class="st26" d="M59.13,39.43c-.84-1.35-2.14-.77-2.47-.47-.34.32-.61.74-.41,1.53.12.46.59.49.48,1.17-.13.77-.48.8-.68.98-.2.17-.46.3-.58.62-.12.32-.15.66-.08.96.13.54.93.1,1.47-.13.37-.17,1.49-1.11,1.77-1.43.72-.8,1.05-2.36.48-3.24"/>
      <path class="st18" d="M39.2,19.47c-5.62,0-9.74,1.62-12.22,4.81-3.48,4.47-3.35,11.29-2.07,16.2.4,1.5.61,5.54.87,7.01,1.22,6.63,8.59,10.15,13.43,10.15h.13V19.47h-.08"/>
      <path class="st30" d="M51.42,24.29c-2.47-3.18-6.54-4.8-12.08-4.82v38.18c5.54-.06,12.17-3.93,13.3-10.15.27-1.48.47-5.51.87-7.01,1.29-4.89,1.42-11.69-2.09-16.18"/>
      <path class="st13" d="M38.65,49.49c-.08-.01-.15-.03-.21-.04.07.01.14.03.21.04Z"/>
      <path class="st13" d="M38.36,50.86s-.1-.02-.13-.03c.04.01.09.02.13.03Z"/>
      <path class="st12" d="M38.44,50.88s-.05-.01-.08-.02c.02,0,.05.01.08.02Z"/>
      <path class="st12" d="M38.23,50.83s-.05-.01-.07-.02h0s.03,0,.07.02h0Z"/>
      <path class="st7" d="M36.08,46.24c-.06-1.32,2.44-.48,3.26-.44.65.03,2.64-.42,2.81-.3,1.17.78-1.24,2.36-2.85,2.36-.43,0-3.18-.82-3.22-1.62h0Z"/>
      <path class="st13" d="M24.01,31.37c-.15.5-.26,1.06-.33,1.65,0,0,.22-.93.72-2.31-.21.29-.36.53-.39.66Z"/>
      <path class="st24" d="M34.56,19.56l-.07.07v.02s.05-.07.07-.1Z"/>
      <path class="st13" d="M38.7,50.14c-.08-.01-.15-.03-.22-.04.07.01.15.03.22.04Z"/>
      <path class="st13" d="M38.4,50.08s-.1-.02-.13-.03c.04.01.09.02.13.03Z"/>
      <path class="st2" d="M38.49,50.1s-.05-.01-.08-.02c.03,0,.05.01.08.02Z"/>
      <path class="st2" d="M38.27,50.05s-.05-.01-.07-.02h0s.03,0,.07.02Z"/>
      <path class="st8" d="M27.07,34.37s1.3,5.32,3.54,5.75c2.24.43,4.66-.43,4.66-.43,0,0,.23-6.25-.92-7.06-1.15-.82-3.79-2-7.29,1.74Z"/>
      <path class="st15" d="M35.28,39.67s-.05.01-.17.06c-.03-1.92-.21-4.55-.92-5.05-1.06-.78-3.47-1.86-6.68,1.12-.29-.82-.44-1.45-.44-1.45,3.51-3.75,6.15-2.57,7.29-1.75,1.15.82.92,7.07.92,7.07h0Z"/>
      <ellipse class="st27" cx="31.75" cy="36.97" rx="2.2" ry="2.19"/>
      <path class="st4" d="M31.65,38.42c-.64-.05-1.13-.69-1.07-1.39s.64-1.25,1.28-1.2,1.13.69,1.07,1.39c-.06.7-.64,1.25-1.28,1.2Z"/>
      <path class="st9" d="M31.71,38.17c-.44-.04-.9-.52-.85-1.11.05-.6.58-1,1.03-.96.44.04.9.52.85,1.12-.05.6-.58,1-1.02.96Z"/>
      <path class="st8" d="M31.35,36.7c-.02.22-.24.37-.5.35-.26-.02-.45-.22-.43-.43.02-.22.24-.37.5-.35s.45.21.43.43Z"/>
      <path class="st8" d="M32.77,37.95c-.01.11-.12.19-.25.18-.13-.01-.22-.11-.22-.22.01-.11.12-.19.25-.18.13.01.22.11.22.22Z"/>
      <path class="st13" d="M38.74,50.77c-.08-.01-.15-.03-.22-.04.07.01.15.03.22.04Z"/>
      <path class="st13" d="M38.44,50.71s-.1-.02-.13-.03c.04.01.09.02.13.03Z"/>
      <path class="st2" d="M38.52,50.73s-.05-.01-.08-.02c.03,0,.05.01.08.02Z"/>
      <path class="st2" d="M38.31,50.68s-.05-.01-.07-.02h0s.03,0,.07.02Z"/>
      <path class="st13" d="M38.65,50.62c-.09-.01-.16-.03-.23-.04.08.02.16.03.23.04Z"/>
      <path class="st13" d="M38.33,50.56c-.05-.01-.11-.02-.14-.03.05.01.09.02.14.03Z"/>
      <path class="st12" d="M38.42,50.58s-.06-.01-.09-.02c.03,0,.05.01.09.02Z"/>
      <path class="st12" d="M38.19,50.53s-.05-.01-.08-.02h0s.03.01.08.02h0Z"/>
      <path class="st13" d="M38.59,50.4c-.09-.01-.16-.03-.23-.04.08.02.16.03.23.04Z"/>
      <path class="st13" d="M38.27,50.34c-.05-.01-.11-.02-.14-.03.05.01.09.02.14.03Z"/>
      <path class="st12" d="M38.36,50.35s-.06-.01-.09-.02c.03,0,.05.01.09.02Z"/>
      <path class="st12" d="M38.12,50.3s-.05-.01-.08-.02h0s.03.01.08.02h0Z"/>
      <path class="st13" d="M38.78,50.37c-.08-.01-.16-.03-.22-.04.07.02.15.03.22.04Z"/>
      <path class="st13" d="M38.47,50.3s-.1-.02-.14-.03c.05.01.09.02.14.03Z"/>
      <path class="st12" d="M38.56,50.33s-.06-.01-.09-.02c.03,0,.05.01.09.02Z"/>
      <path class="st12" d="M38.34,50.28s-.05-.01-.07-.02h0s.03.01.08.02h0Z"/>
      <path class="st8" d="M51.73,34.19s-1.3,5.32-3.54,5.75c-2.24.43-4.66-.43-4.66-.43,0,0-.23-6.25.92-7.06,1.15-.82,3.79-2,7.29,1.74Z"/>
      <path class="st15" d="M43.52,39.49s.05.01.17.06c.03-1.92.21-4.55.92-5.05,1.06-.78,3.47-1.86,6.68,1.11.29-.82.44-1.45.44-1.45-3.51-3.75-6.15-2.57-7.29-1.75-1.15.82-.92,7.07-.92,7.07h0Z"/>
      <path class="st27" d="M44.85,36.78c0,1.21.99,2.19,2.2,2.19s2.2-.98,2.2-2.19-.99-2.19-2.2-2.19-2.2.98-2.2,2.19Z"/>
      <path class="st4" d="M47.16,38.24c.64-.05,1.13-.69,1.07-1.39s-.64-1.25-1.28-1.2c-.64.05-1.13.69-1.07,1.39.06.7.64,1.25,1.28,1.2Z"/>
      <path class="st9" d="M47.1,37.99c.44-.04.9-.52.85-1.11-.05-.6-.58-1-1.03-.96-.44.04-.9.52-.85,1.12.05.6.58,1,1.02.96h0Z"/>
      <path class="st8" d="M47.46,36.52c.02.22.24.37.5.35.26-.02.45-.22.43-.43-.02-.22-.24-.37-.5-.35s-.45.21-.43.43Z"/>
      <path class="st8" d="M46.03,37.77c.01.11.12.19.25.18.13-.01.22-.11.22-.22-.01-.11-.12-.19-.25-.18-.13.01-.22.11-.22.22Z"/>
      <g>
        <path d="M36.62,34.28s-.42-.64-1.25-1.27c-.52-.4-1.03-.7-1.56-.92-.64-.27-1.34-.46-2.01-.55-.61-.07-1.28-.05-2.06.06-.6.11-1.18.29-1.68.51-.35.12-.63.29-.86.43-.09.05-.16.1-.24.14l-1.07.67,1.23-.29c.06-.01.12-.03.19-.05.26-.07.57-.15.94-.2.09-.01.17-.03.27-.05.16-.03.32-.06.48-.07.19-.01.38-.02.58-.04l.26-.02c.68,0,1.26.04,1.77.16.56.1,1.14.28,1.66.52.5.24.98.47,1.35.74.75.5,1.17.92,1.18.92h0c.1.1.24.16.38.16.1,0,.2-.03.29-.09.25-.16.32-.49.16-.73v-.02s-.02.01-.02.01Z"/>
        <path d="M51.95,32.66c-.07-.04-.15-.08-.24-.14-.22-.14-.5-.31-.85-.42-.51-.22-1.09-.4-1.7-.51-.78-.1-1.45-.12-2.06-.05-.67.09-1.36.28-2.01.55-.52.22-1.05.53-1.56.92-.82.62-1.22,1.22-1.25,1.27h0c-.14.22-.11.5.07.68.1.1.24.16.38.16h0c.14,0,.28-.06.38-.16h0s.45-.44,1.18-.92c.37-.27.84-.5,1.34-.74.53-.24,1.1-.42,1.67-.52.51-.12,1.08-.17,1.76-.16l.27.02c.2.01.39.03.58.04.16,0,.32.04.48.07.09.02.18.04.27.05.37.05.69.14.94.2.07.02.13.04.19.05l1.23.29-1.08-.67h0Z"/>
      </g>
      <path class="st13" d="M38.36,51.4c-.08-.01-.16-.03-.23-.04.08.02.15.03.23.04Z"/>
      <path class="st13" d="M38.05,51.34c-.05-.01-.1-.02-.14-.03.05.01.09.02.14.03Z"/>
      <path class="st3" d="M38.13,51.36s-.06-.01-.09-.02c.03,0,.05.01.09.02Z"/>
      <path class="st3" d="M37.91,51.31s-.05-.01-.08-.02h0s.03.01.08.02Z"/>
      <path class="st6" d="M36.18,52.45c-.06-.85,2.4.18,3.21.2.64.02,2.58-.13,2.76-.19,1.35-.5-.07,1.43-2.8,1.53-1.25.05-3.13-1.02-3.16-1.54h0Z"/>
      <path class="st0" d="M44.19,50.81c-.67-.03-1.35.52-2.16.44-.03-.02-.05-.02-.08-.02-.19-.03-.37,0-.57.05-.25.05-.5.15-.74.23-.4.13-.85.23-1.32.2h-.05c-.47.03-.92-.07-1.32-.2-.24-.08-.49-.18-.74-.23-.2-.05-.38-.08-.57-.05-.04,0-.05,0-.08.02-.8.08-1.49-.47-2.16-.44-.19.02-.45-.03-.6-.03.03.02.07.03.1.05,1.91.92,3.55,2.65,5.37,2.59h.05c1.82.06,3.46-1.67,5.37-2.59.04-.02.07-.03.1-.05-.15,0-.42.05-.6.03h0Z"/>
      <path class="st23" d="M44.75,50.75h0s-1.94-.74-3.31-.31c0,0-.51.2-1.04.32-.32.12-.72.16-1.09.14h0c-.29-.01-.57-.05-.79-.09-.07-.01-.15-.03-.23-.04-.03,0-.06-.01-.09-.02-.05-.01-.09-.02-.14-.03-.05-.01-.08-.02-.08-.02h0c-.44-.12-.82-.26-.82-.26-1.38-.43-3.31.31-3.31.31h0s-.04.02-.04.02c.15,0,.42.05.6.03.67-.03,1.35.52,2.16.44.03-.02.05-.02.08-.02.19-.03.37,0,.57.05.25.05.5.15.74.23.4.13.85.23,1.32.2h.05c.47.03.92-.07,1.32-.2.24-.08.49-.18.74-.23.2-.05.38-.08.57-.05.04,0,.05,0,.08.02.8.08,1.49-.47,2.16-.44.19.02.45-.03.6-.03,0,0-.02,0-.04-.02h0Z"/>
      <path class="st23" d="M36.04,51.2s3.63,1.1,6.44.02l-.32-.22h-3.8l-2.32.19h0Z"/>
      <path class="st16" d="M24.92,66.33s-2.38,5.06-2.35,8.02h3.04c-.01,2.03-.07,3.58-.14,4.53h14.08l-13.92-13.42c-.24.27-.47.55-.7.86Z"/>
      <path class="st25" d="M56.54,74.35c.11-4.53-2.32-8.02-2.32-8.02-.82-1.12-1.72-1.98-2.61-2.62-.07-.07-.16-.12-.23-.18-1.17-.84-2.29-1.31-3.11-1.58-.16-.06-.31-.1-.45-.15-.6-.17-.98-.2-.98-.2-.33,0-.63-.12-.89-.34,0,0,0-.01-.01-.01-.09-.08-.17-.18-.26-.28-.04.02-.1.12-.16.29-.17.41-.91,1.97-2.01,3.4l10.05,9.69h2.97Z"/>
      <path class="st10" d="M53.57,74.35l-10.05-9.69c-1.05,1.37-2.42,2.61-3.95,2.61-3.13,0-5.62-5.21-5.96-6.01-.06-.18-.12-.27-.16-.29-.09.1-.17.2-.26.28-.01,0-.01.01-.01.01-.26.21-.55.34-.89.34,0,0-.39.05-1.03.22-.14.04-.29.08-.45.14-.68.23-1.55.6-2.46,1.18-.2.13-.41.26-.61.41-.07.05-.16.1-.24.18-.63.47-1.27,1.04-1.89,1.74l13.92,13.42h14.15c-.07-.95-.14-2.5-.15-4.53h.04,0Z"/>
      <path class="st29" d="M60.72,22.19c-2.72-8.21-6.59-11.27-11.31-13.05-.71-.27-1.49-.45-2.32-.56-1.37-.19-2.74.39-3.59,1.49-.3.38-.79.56-1.26.47-.78-.15-1.25-.3-3.35-.99-3.84-1.26-6.33.14-6.33.14,0,0,2.01-.07,2.99.75-.97-.43-2.64-.59-5.43.61-5.46,2.35-5.37,6.55-9.17,7.85-3.89,1.32-5.02-.37-5.02-.37,0,0,1.41,2.47,3.92,2.91h0s.02,0,.06,0c.02,0,.05.01.07.01.28.07.9.42.49,2.3h0c-.28,1.03-.55,2.25-.65,3.31-.22,2.43.47,4.09.68,8.63.18,3.88,1.17,1.89,2.34,4.76.4.96.41,2.04.41,2.04.44.11,1.58-2.33.76-6.58-.53-2.76,2.11-13.2,8.48-11.17h.02c.79.26,1.09,1.21.59,1.87-4.61,6.19-1.29,14.1-1.29,14.1-.09-4.58,2.12-8.24,4.3-10.74.63-.72,1.81-.22,1.75.73-.16,2.53.53,4.54.53,4.54.2-4.15,2.94-7.09,4.87-8.65,1.05-.85,2.5-1.04,3.71-.44,1.99.98,3.9,2.32,5.42,4.17,1.41,1.71,2.48,3.87,2.96,6.56.14.76.23,1.56.26,2.41.02.27.03.55.03.84,0,4.75-1.05,7.97-1.76,9.85-.9,2.42-5.55,8.08-5.55,8.08,0,0,10.68-8.85,12.35-17.94.53-2.87,2.74-9.73.01-17.94h0Z"/>
      <g>
        <path class="st14" d="M62.27,33.68c-.06-.44-.37-.8-.8-.92-6.7-1.76-14.18-1.17-15.71-1.02-.18.02-.36.05-.53.09-1.51.38-2.79.64-3.81.83-1.51.27-3.06.27-4.57,0-1-.18-2.25-.44-3.74-.82-.17-.04-.35-.07-.53-.09-1.53-.15-9.01-.74-15.71,1.02-.43.11-.75.48-.8.92-.08.63-.15,1.6.02,2.63.05.3.23.56.49.73.44.29,1.13.96,1.29,2.4,0,0,.64,2.95,1.15,3.54,0,0,1.35,2.01,7.22,1.85,0,0,8.64.4,9.66-2.5l.26-.75,1.23-3.12s.41-1.5,1.61-1.83h0c.11-.03.22-.04.33,0h.01c1.2.34,1.61,1.84,1.61,1.84l1.24,3.12c.1.25.17.5.26.75,1.02,2.89,9.66,2.5,9.66,2.5,5.87.16,7.22-1.85,7.22-1.85.52-.59,1.15-3.54,1.15-3.54.16-1.44.85-2.11,1.29-2.4.25-.17.44-.43.49-.73.17-1.03.1-2,.02-2.63h0ZM35.63,40.36c-.27.61-.62,1.23-1.06,1.83-.43.59-1.05,1.01-1.75,1.21-1.87.53-6.11,1.37-11.45.13-.08-.02-.16-.04-.25-.07-.47-.17-1.92-.81-2.21-2.13,0,0-.08-.41-.17-1.05-.16-1.13-.36-2.98-.22-4.51.13-1.43,1.22-2.6,2.65-2.85,1.84-.31,5.32-.61,11.01-.04.04,0,.09,0,.13.01.52.02,4.44.25,4.39,2.65,0,0,.07,2.31-1.06,4.82h0ZM59.5,40.85c-.05.31-.08.48-.08.48-.27,1.22-1.53,1.86-2.09,2.08-.14.06-.28.1-.43.13-4.96,1.14-8.96.49-10.98-.03-1.02-.26-1.91-.9-2.47-1.79-.38-.6-.69-1.2-.93-1.8-.94-2.34-.88-4.4-.88-4.4-.05-2.38,3.8-2.62,4.37-2.65.06,0,.11,0,.17-.01,4.89-.49,8.15-.33,10.13-.08,2.02.26,3.53,1.96,3.55,3.97.01,1.59-.22,3.27-.35,4.07h0Z"/>
        <g class="st22">
          <path class="st19" d="M35.63,40.36c-.27.61-.62,1.23-1.06,1.83-.43.59-1.05,1.01-1.75,1.21-1.87.53-6.11,1.37-11.45.13-.08-.02-.16-.04-.25-.07-.47-.17-1.92-.81-2.21-2.13,0,0-.08-.41-.17-1.05-.16-1.13-.36-2.98-.22-4.51.13-1.43,1.22-2.6,2.65-2.85,1.84-.31,5.32-.61,11.01-.04.04,0,.09,0,.13.01.52.02,4.44.25,4.39,2.65,0,0,.07,2.31-1.06,4.82h0Z"/>
          <path class="st20" d="M59.85,36.77c.01,1.59-.22,3.27-.35,4.07-.05.31-.08.48-.08.48-.27,1.22-1.53,1.86-2.09,2.08-.14.06-.28.1-.43.13-4.96,1.14-8.96.49-10.98-.03-1.02-.26-1.91-.9-2.47-1.79-.38-.6-.69-1.2-.93-1.8-.94-2.34-.88-4.4-.88-4.4-.05-2.38,3.8-2.62,4.37-2.65.06,0,.11,0,.17-.01,4.89-.49,8.15-.33,10.13-.08,2.02.26,3.53,1.96,3.55,3.97h0Z"/>
          <path class="st1" d="M35.63,40.36c-.27.61-.62,1.23-1.06,1.83-.43.59-1.05,1.01-1.75,1.21-1.87.53-6.11,1.37-11.45.13-.08-.02-.16-.04-.25-.07-.47-.17-1.92-.81-2.21-2.13,0,0-.08-.41-.17-1.05,2.24-.89,5.16-1.42,8.36-1.42s6.28.56,8.54,1.5h0Z"/>
          <path class="st21" d="M59.5,40.85c-.05.31-.08.48-.08.48-.27,1.22-1.53,1.86-2.09,2.08-.14.06-.28.1-.43.13-4.96,1.14-8.96.49-10.98-.03-1.02-.26-1.91-.9-2.47-1.79-.38-.6-.69-1.2-.93-1.8,2.09-.67,4.64-1.07,7.39-1.07,3.82,0,7.25.77,9.6,1.98h0Z"/>
        </g>
      </g>
    </g>
  </g>
</svg>