<?xml version="1.0" encoding="UTF-8"?>
<svg id="Layer_2" data-name="Layer 2" xmlns="http://www.w3.org/2000/svg" xmlns:xlink="http://www.w3.org/1999/xlink" viewBox="0 0 221.47 223.59">
  <defs>
    <style>
      .cls-1 {
        fill: none;
      }

      .cls-2 {
        fill: #462e1b;
      }

      .cls-3 {
        fill: url(#Névtelen_színátmenet_2-2);
      }

      .cls-3, .cls-4 {
        opacity: .57;
      }

      .cls-5 {
        fill: #ba9d82;
      }

      .cls-6 {
        fill: #ccad8a;
      }

      .cls-7 {
        fill: #44361f;
      }

      .cls-8 {
        fill: #d7bd9d;
      }

      .cls-4 {
        fill: url(#Névtelen_színátmenet_2);
      }

      .cls-9 {
        fill: #e5b344;
      }

      .cls-10 {
        fill: #c1a587;
      }

      .cls-11 {
        fill: #b86963;
      }

      .cls-12 {
        fill: #dac6a4;
      }

      .cls-13 {
        fill: url(#Névtelen_színátmenet_2-4);
      }

      .cls-14 {
        fill: url(#Névtelen_színátmenet_2-3);
      }

      .cls-15 {
        fill: #fff;
      }

      .cls-16 {
        fill: #dcc5a0;
      }

      .cls-17 {
        fill: #272213;
      }

      .cls-18 {
        fill: #ecdab6;
      }

      .cls-19 {
        fill: #b8987d;
      }

      .cls-20 {
        opacity: .46;
      }

      .cls-21 {
        fill: #f7f7f7;
      }

      .cls-22 {
        fill: #ebd9b5;
      }

      .cls-23 {
        fill: #a98d76;
      }

      .cls-24 {
        fill: #a91319;
      }

      .cls-25 {
        fill: #7fa6ad;
      }

      .cls-26 {
        fill: #714223;
      }

      .cls-27 {
        fill: #b7967d;
      }

      .cls-28 {
        clip-path: url(#clippath);
      }

      .cls-29 {
        fill: #d2bb9b;
      }

      .cls-30 {
        fill: #b5957e;
      }

      .cls-31 {
        fill: #8a5b59;
      }
    </style>
    <clipPath id="clippath">
      <rect class="cls-1" x="98.51" y="154.82" width="25.1" height="14.85"/>
    </clipPath>
    <linearGradient id="Névtelen_színátmenet_2" data-name="Névtelen színátmenet 2" x1="51.85" y1="108.77" x2="103.01" y2="108.77" gradientUnits="userSpaceOnUse">
      <stop offset="0" stop-color="#fff"/>
      <stop offset="1" stop-color="#6189ae"/>
    </linearGradient>
    <linearGradient id="Névtelen_színátmenet_2-2" data-name="Névtelen színátmenet 2" x1="116.89" y1="108.77" x2="168.05" y2="108.77" xlink:href="#Névtelen_színátmenet_2"/>
    <linearGradient id="Névtelen_színátmenet_2-3" data-name="Névtelen színátmenet 2" x1="77.91" y1="131.21" x2="75.29" y2="103.45" xlink:href="#Névtelen_színátmenet_2"/>
    <linearGradient id="Névtelen_színátmenet_2-4" data-name="Névtelen színátmenet 2" x1="144.2" y1="124.95" x2="141.58" y2="97.2" xlink:href="#Névtelen_színátmenet_2"/>
  </defs>
  <g id="Layer_1-2" data-name="Layer 1">
    <g>
      <rect class="cls-25" width="221.47" height="223.59"/>
      <path class="cls-16" d="M110.97,139.57v84.02h-45.31c-.74-.3-1.11-.44-1.11-.44,0-10.73,1.57-19.09,3.96-25.61,5.77-15.74,16.32-20.74,21.18-22.24,1.59-.5,2.58-.61,2.58-.61.17,0,.33-.02.5-.04,1.43-.23,2.58-1.47,3.51-3.46.69-1.47,1.27-3.35,1.74-5.53.19-.85.33-1.7.48-2.63.22-1.55.44-3.18.63-4.88.07-1.04.18-2.03.29-3.11.4-5.14.52-10.77.52-16.1,0,0,6.08.63,11.02.63Z"/>
      <path class="cls-22" d="M157.57,223.15s-.41.15-1.07.44h-45.53v-84.02h.11c4.9,0,11.06-.63,11.06-.63,0,5.29.11,10.84.51,15.98.11,1,.22,2.03.29,3.03.19,1.78.41,3.44.67,4.99v.03c.07.71.22,1.33.33,2,.45,2.19.99,4.11,1.64,5.65.81,1.92,1.8,3.26,3.01,3.79.38.17.79.26,1.21.26,0,0,1.74.21,4.36,1.24,5.33,2.09,14.29,7.59,19.44,21.62,2.39,6.52,3.96,14.88,3.96,25.61Z"/>
      <g class="cls-28">
        <path class="cls-5" d="M123.61,162.8v.04c-1.14,1.76-4.98,6.84-12.57,6.84h-.07c-7.19-.04-11.39-5.26-12.46-6.8.22-1.54.44-3.16.63-4.85.07-.99.18-2.02.3-3.09,3.5.88,7.34,1.43,11.39,1.51h.15c4.2-.07,8.07-.66,11.69-1.62.11.99.22,2.02.3,3.01.18,1.76.41,3.42.66,4.96"/>
      </g>
      <path class="cls-6" d="M110.45,43.82c-48,0-48.26,40.25-46.12,66.6-3.28-6.25-13.05-4.34-12.24,5.51.77,9.48,14.73,14.32,14.34,13.27,7.27,19.49,26.51,34.18,44.02,34.18h.37V43.82h-.37"/>
      <path class="cls-23" d="M55.16,111.78c2.36-3.82,6.05-2.17,6.93-1.32.96.92,1.73,2.09,1.14,4.34-.33,1.29-1.66,1.4-1.36,3.31.37,2.17,1.36,2.28,1.95,2.79.55.48,1.25.85,1.59,1.76.37.92.41,1.87.22,2.72-.37,1.54-2.62.29-4.13-.37-1-.48-4.17-3.16-4.98-4.04-1.99-2.28-2.95-6.69-1.36-9.19"/>
      <path class="cls-8" d="M110.71,43.82c48,0,48.26,40.25,46.15,66.6,3.28-6.25,13.01-4.34,12.2,5.51-.74,9.48-14.72,14.32-14.34,13.27-7.08,19.49-26.51,34.18-44.02,34.18h-.26l-.11-119.56h.37"/>
      <path class="cls-23" d="M166.01,111.78c-2.36-3.82-6.01-2.17-6.93-1.32-.96.92-1.7,2.09-1.14,4.34.33,1.29,1.66,1.4,1.36,3.31-.37,2.17-1.36,2.28-1.92,2.79-.55.48-1.29.85-1.62,1.76-.33.92-.41,1.87-.22,2.72.37,1.54,2.62.29,4.13-.37,1.03-.48,4.17-3.16,4.98-4.04,2.03-2.28,2.95-6.69,1.36-9.19"/>
      <path class="cls-16" d="M110.07,55.18c-15.78,0-27.35,4.59-34.32,13.64-9.77,12.68-9.4,32.01-5.82,45.91,1.11,4.26,1.7,15.69,2.43,19.88,3.43,18.78,24.11,28.78,37.71,28.78h.37V55.18h-.22"/>
      <path class="cls-22" d="M144.36,68.85c-6.93-9.01-18.36-13.6-33.92-13.67v108.21c15.56-.18,34.17-11.14,37.34-28.78.77-4.19,1.33-15.62,2.43-19.88,3.61-13.86,3.98-33.15-5.86-45.87"/>
      <path class="cls-1" d="M108.52,140.27c-.22-.04-.42-.08-.59-.11.2.04.4.08.59.11Z"/>
      <path class="cls-1" d="M107.7,144.16c-.14-.03-.27-.06-.36-.08.12.03.24.05.36.08Z"/>
      <path class="cls-27" d="M107.93,144.21c-.08-.02-.15-.03-.23-.05.07.02.14.03.23.05Z"/>
      <path class="cls-27" d="M107.34,144.07c-.07-.02-.13-.04-.2-.06h0s.08.02.21.06Z"/>
      <path class="cls-8" d="M101.29,131.06c-.18-3.74,6.85-1.37,9.16-1.25,1.83.09,7.4-1.18,7.88-.85,3.28,2.22-3.47,6.68-8,6.68-1.21,0-8.94-2.33-9.05-4.58Z"/>
      <path class="cls-1" d="M67.41,88.91c-.43,1.43-.73,3-.93,4.67,0,0,.63-2.64,2.03-6.54-.6.83-1,1.5-1.1,1.87Z"/>
      <path class="cls-7" d="M97.04,55.45l-.2.2.03.07c.07-.1.1-.2.17-.27Z"/>
      <path class="cls-1" d="M108.67,142.13c-.22-.04-.43-.08-.61-.12.21.04.41.09.61.12Z"/>
      <path class="cls-1" d="M107.82,141.96c-.14-.03-.28-.06-.37-.09.12.03.24.06.37.09Z"/>
      <path class="cls-30" d="M108.06,142.01c-.08-.02-.15-.03-.23-.05.08.02.14.03.23.05Z"/>
      <path class="cls-30" d="M107.45,141.88c-.07-.02-.14-.04-.21-.06h0s.08.02.21.06Z"/>
      <path class="cls-15" d="M76.01,97.41s3.66,15.07,9.95,16.3c6.29,1.23,13.09-1.22,13.09-1.22,0,0,.65-17.71-2.57-20.02-3.22-2.32-10.63-5.68-20.47,4.94Z"/>
      <path class="cls-29" d="M99.06,112.45s-.14.04-.47.18c-.08-5.43-.58-12.89-2.59-14.32-2.99-2.2-9.74-5.28-18.75,3.17-.82-2.33-1.23-4.1-1.23-4.1,9.86-10.64,17.28-7.29,20.47-4.96,3.22,2.32,2.57,20.05,2.57,20.05Z"/>
      <ellipse class="cls-2" cx="89.15" cy="104.78" rx="6.19" ry="6.21"/>
      <path class="cls-26" d="M88.86,108.91c-1.79-.15-3.16-1.96-3-3.95.16-1.99,1.81-3.54,3.6-3.39,1.79.15,3.16,1.95,3,3.94-.16,1.99-1.81,3.55-3.6,3.4Z"/>
      <path class="cls-17" d="M89.02,108.19c-1.24-.11-2.53-1.48-2.4-3.16.14-1.69,1.63-2.83,2.88-2.73,1.24.11,2.53,1.48,2.39,3.17-.14,1.69-1.63,2.83-2.87,2.72Z"/>
      <path class="cls-15" d="M88.01,104.03c-.05.61-.68,1.05-1.39,1-.72-.06-1.26-.61-1.21-1.21.05-.61.67-1.06,1.39-1,.72.06,1.26.6,1.21,1.21Z"/>
      <path class="cls-15" d="M92.02,107.56c-.03.3-.34.53-.69.5-.36-.03-.63-.3-.61-.61.03-.3.34-.53.69-.5.36.03.63.3.61.61Z"/>
      <path class="cls-1" d="M108.76,143.9c-.22-.04-.43-.08-.61-.12.21.04.41.09.61.12Z"/>
      <path class="cls-1" d="M107.92,143.74c-.14-.03-.28-.06-.37-.09.12.03.24.06.37.09Z"/>
      <path class="cls-30" d="M108.15,143.79c-.08-.02-.15-.03-.23-.05.08.02.14.03.23.05Z"/>
      <path class="cls-30" d="M107.55,143.65c-.07-.02-.14-.04-.21-.06h0s.08.02.21.06Z"/>
      <path class="cls-1" d="M108.53,143.49c-.24-.04-.46-.08-.65-.12.22.05.44.09.65.12Z"/>
      <path class="cls-1" d="M107.62,143.31c-.15-.03-.3-.07-.4-.09.13.03.26.06.4.09Z"/>
      <path class="cls-27" d="M107.87,143.36c-.08-.02-.17-.03-.25-.05.08.02.15.03.25.05Z"/>
      <path class="cls-27" d="M107.23,143.22c-.08-.02-.15-.04-.22-.06h0s.09.03.23.06Z"/>
      <path class="cls-1" d="M108.34,142.86c-.24-.04-.46-.08-.65-.12.22.05.44.09.65.12Z"/>
      <path class="cls-1" d="M107.44,142.68c-.15-.03-.3-.07-.4-.09.13.03.26.06.4.09Z"/>
      <path class="cls-27" d="M107.69,142.73c-.08-.02-.17-.03-.25-.05.08.02.15.03.25.05Z"/>
      <path class="cls-27" d="M107.04,142.59c-.08-.02-.15-.04-.22-.06h0s.09.03.23.06Z"/>
      <path class="cls-1" d="M108.89,142.77c-.23-.04-.44-.08-.63-.12.21.05.42.09.63.12Z"/>
      <path class="cls-1" d="M108.02,142.59c-.14-.03-.29-.06-.38-.09.13.03.25.06.38.09Z"/>
      <path class="cls-27" d="M108.26,142.65c-.08-.02-.16-.03-.24-.05.08.02.15.03.24.05Z"/>
      <path class="cls-27" d="M107.64,142.51c-.07-.02-.14-.04-.21-.06h0s.08.03.22.06Z"/>
      <path class="cls-15" d="M145.25,96.9s-3.66,15.07-9.95,16.3c-6.29,1.23-13.09-1.22-13.09-1.22,0,0-.65-17.71,2.57-20.02,3.22-2.32,10.63-5.68,20.47,4.94Z"/>
      <path class="cls-29" d="M122.2,111.94s.14.04.47.18c.08-5.43.58-12.89,2.59-14.32,2.99-2.2,9.74-5.28,18.75,3.16.82-2.33,1.23-4.1,1.23-4.1-9.86-10.64-17.28-7.29-20.47-4.96-3.22,2.32-2.57,20.05-2.57,20.05Z"/>
      <path class="cls-2" d="M125.93,104.26c0,3.43,2.77,6.21,6.19,6.21s6.19-2.78,6.19-6.21-2.77-6.21-6.19-6.21-6.19,2.78-6.19,6.21Z"/>
      <path class="cls-26" d="M132.4,108.4c1.79-.15,3.16-1.96,3-3.95-.16-1.99-1.81-3.54-3.6-3.39-1.79.15-3.16,1.95-3,3.94.16,1.99,1.81,3.55,3.6,3.4Z"/>
      <path class="cls-17" d="M132.25,107.68c1.24-.11,2.53-1.47,2.4-3.16-.14-1.69-1.63-2.83-2.88-2.73-1.24.11-2.53,1.48-2.39,3.17.14,1.69,1.63,2.83,2.87,2.72Z"/>
      <path class="cls-15" d="M133.25,103.52c.05.61.68,1.05,1.39,1,.72-.06,1.26-.61,1.21-1.21-.05-.61-.67-1.06-1.39-1-.72.06-1.26.6-1.21,1.21Z"/>
      <path class="cls-15" d="M129.24,107.05c.03.3.34.53.69.5.36-.03.63-.3.61-.61-.03-.3-.34-.53-.69-.5-.36.03-.63.3-.61.61Z"/>
      <g>
        <path d="M102.83,97.17c-.05-.07-1.19-1.81-3.52-3.61-1.46-1.12-2.89-1.98-4.38-2.62-1.81-.76-3.75-1.3-5.63-1.56-1.7-.19-3.59-.14-5.79.16-1.68.32-3.32.82-4.71,1.44-.99.34-1.78.82-2.41,1.21-.24.15-.46.28-.68.4l-3,1.89,3.46-.82c.16-.04.34-.09.52-.14.72-.19,1.61-.43,2.65-.58.24-.04.49-.09.75-.14.44-.09.89-.18,1.36-.2.52-.04,1.07-.07,1.63-.11l.73-.05c1.92-.02,3.54.12,4.97.45,1.57.27,3.19.78,4.67,1.47,1.4.67,2.74,1.34,3.79,2.11,2.11,1.42,3.29,2.6,3.3,2.61h0c.29.29.68.44,1.07.44.28,0,.57-.08.82-.25.7-.46.89-1.4.45-2.08l-.03-.05Z"/>
        <path d="M145.87,92.59c-.2-.11-.42-.24-.66-.39-.63-.39-1.41-.87-2.38-1.2-1.42-.63-3.06-1.13-4.76-1.45-2.18-.29-4.07-.35-5.78-.15-1.87.26-3.82.8-5.63,1.56-1.46.63-2.94,1.51-4.38,2.62-2.29,1.76-3.43,3.47-3.51,3.6l-.02.03c-.39.6-.3,1.4.2,1.9.28.29.66.45,1.06.45h0c.4,0,.78-.16,1.06-.45h.01c.11-.12,1.25-1.24,3.3-2.62,1.03-.76,2.37-1.43,3.77-2.1,1.49-.69,3.1-1.2,4.7-1.48,1.42-.33,3.04-.47,4.93-.45l.76.05c.55.04,1.09.08,1.62.11.46.02.91.11,1.35.2.25.05.5.1.75.14,1.05.15,1.94.39,2.65.58.19.05.36.1.53.14l3.46.82-3.03-1.91Z"/>
      </g>
      <path class="cls-1" d="M107.7,145.69c-.23-.04-.45-.08-.64-.12.22.05.43.09.64.12Z"/>
      <path class="cls-1" d="M106.83,145.52c-.15-.03-.29-.07-.39-.09.13.03.26.06.39.09Z"/>
      <path class="cls-19" d="M107.07,145.57c-.08-.02-.16-.03-.24-.05.08.02.15.03.24.05Z"/>
      <path class="cls-19" d="M106.44,145.43c-.07-.02-.14-.04-.22-.06h0s.08.03.22.06Z"/>
      <path class="cls-18" d="M101.57,148.68c-.18-2.42,6.73.51,9,.58,1.81.06,7.25-.36,7.75-.55,3.8-1.43-.21,4.05-7.86,4.34-3.51.14-8.78-2.9-8.88-4.36Z"/>
      <path class="cls-12" d="M124.06,144.01c-1.88-.09-3.8,1.48-6.06,1.24-.09-.05-.14-.05-.23-.05-.52-.09-1.03,0-1.6.14-.7.15-1.41.43-2.07.66-1.13.37-2.4.66-3.7.56h0s-.05,0-.07,0-.05,0-.07,0h0c-1.31.09-2.58-.2-3.7-.57-.66-.23-1.37-.52-2.07-.66-.56-.14-1.08-.23-1.6-.14-.1,0-.14,0-.23.05-2.26.24-4.18-1.33-6.06-1.24-.52.05-1.27-.09-1.69-.09.09.05.19.09.28.14,5.35,2.61,9.96,7.51,15.07,7.35h.15c5.11.16,9.72-4.74,15.07-7.35.1-.05.19-.09.28-.14-.42,0-1.17.14-1.69.09Z"/>
      <path class="cls-10" d="M125.64,143.86h0s-5.44-2.1-9.3-.87c0,0-1.44.56-2.93.91-.91.35-2.01.46-3.07.41h0c-.81-.03-1.59-.14-2.22-.25-.21-.03-.42-.08-.64-.12-.09-.02-.16-.03-.24-.05-.13-.03-.26-.06-.39-.09-.14-.03-.22-.06-.22-.06h0c-1.24-.34-2.3-.75-2.3-.75-3.87-1.23-9.3.87-9.3.87h0c-.07.03-.12.06-.12.06.42,0,1.17.14,1.69.09,1.88-.09,3.8,1.48,6.06,1.24.09-.05.14-.05.23-.05.52-.09,1.03,0,1.6.14.7.15,1.41.43,2.07.66,1.13.37,2.4.66,3.7.56h0s.05,0,.07,0,.05,0,.07,0h0c1.31.09,2.58-.2,3.7-.57.66-.23,1.37-.52,2.07-.66.56-.14,1.08-.23,1.6-.14.1,0,.14,0,.23.05,2.26.24,4.18-1.33,6.06-1.24.52.05,1.27-.09,1.69-.09,0,0-.05-.02-.12-.06Z"/>
      <path class="cls-10" d="M101.2,145.14c.1.02,10.19,3.11,18.08.07l-.91-.61h-10.66l-6.5.55Z"/>
      <path class="cls-11" d="M69.97,188.01s-6.69,14.33-6.61,22.73h8.53c-.03,5.76-.21,10.15-.39,12.85h39.52l-39.08-38.03c-.67.76-1.33,1.57-1.97,2.45Z"/>
      <path class="cls-31" d="M158.75,210.74c.3-12.85-6.5-22.73-6.5-22.73-2.31-3.18-4.84-5.6-7.34-7.43-.2-.19-.44-.35-.65-.52-3.29-2.38-6.43-3.72-8.74-4.48-.46-.16-.87-.29-1.25-.42-1.69-.47-2.74-.56-2.74-.56-.93,0-1.77-.35-2.49-.96,0,0,0-.03-.04-.03-.24-.23-.49-.5-.72-.79-.11.07-.28.33-.46.83-.48,1.16-2.55,5.59-5.63,9.64l28.22,27.46h8.34Z"/>
      <path class="cls-9" d="M150.41,210.74l-28.22-27.46c-2.94,3.87-6.79,7.39-11.08,7.39-8.79,0-15.78-14.77-16.72-17.03-.17-.5-.35-.76-.44-.83-.25.29-.49.56-.74.79-.03,0-.03.03-.03.03-.73.6-1.55.96-2.49.96,0,0-1.1.13-2.89.63-.39.1-.81.23-1.25.39-1.9.65-4.34,1.7-6.92,3.34-.57.36-1.14.75-1.72,1.17-.21.13-.45.29-.66.5-1.78,1.32-3.57,2.95-5.3,4.94l39.08,38.03h39.72c-.19-2.7-.39-7.09-.42-12.85h.1Z"/>
      <path class="cls-21" d="M170.49,62.91c-7.65-23.27-18.5-31.94-31.75-36.99-1.98-.76-4.19-1.27-6.51-1.6-3.85-.55-7.68,1.1-10.08,4.22-.83,1.08-2.21,1.6-3.55,1.33-2.19-.43-3.5-.86-9.4-2.82-10.79-3.57-17.77.41-17.77.41,0,0,5.63-.2,8.39,2.12-2.72-1.23-7.41-1.66-15.24,1.74-15.34,6.65-15.07,18.58-25.74,22.24-10.93,3.75-14.1-1.06-14.1-1.06,0,0,3.95,6.99,11.02,8.25l-.02.02s.06,0,.16,0c.07.01.13.03.19.04.79.19,2.54,1.19,1.37,6.53h0c-.78,2.91-1.55,6.37-1.82,9.37-.62,6.88,1.31,11.59,1.91,24.47.51,11.01,3.28,5.36,6.58,13.48,1.11,2.72,1.16,5.78,1.16,5.78,1.23.32,4.44-6.61,2.13-18.64-1.5-7.81,5.92-37.43,23.81-31.66l.05.02c2.23.72,3.05,3.4,1.67,5.28-12.94,17.56-3.62,39.96-3.62,39.96-.25-12.98,5.95-23.36,12.08-30.43,1.77-2.04,5.09-.63,4.92,2.06-.46,7.16,1.5,12.88,1.5,12.88.55-11.76,8.26-20.09,13.68-24.53,2.94-2.4,7.02-2.94,10.42-1.25,5.58,2.77,10.94,6.58,15.21,11.83,3.95,4.86,6.96,10.96,8.31,18.6.38,2.15.64,4.43.74,6.83.05.76.09,1.55.09,2.39,0,13.46-2.95,22.6-4.93,27.91-2.54,6.86-15.59,22.9-15.59,22.9,0,0,29.99-25.08,34.68-50.84,1.48-8.13,7.7-27.59.04-50.86Z"/>
      <g>
        <path class="cls-24" d="M174.84,95.46c-.16-1.25-1.05-2.28-2.26-2.6-18.8-4.98-39.81-3.31-44.11-2.89-.5.05-1,.14-1.49.26-4.23,1.07-7.83,1.82-10.71,2.34-4.25.77-8.59.76-12.83-.02-2.81-.52-6.33-1.26-10.51-2.32-.48-.12-.98-.21-1.48-.26-4.3-.42-25.31-2.09-44.11,2.89-1.21.32-2.1,1.36-2.26,2.6-.23,1.79-.41,4.53.06,7.45.14.85.65,1.59,1.37,2.06,1.24.82,3.17,2.73,3.61,6.81,0,0,1.79,8.36,3.23,10.03,0,0,3.79,5.69,20.28,5.24,0,0,24.26,1.12,27.12-7.08l.74-2.13,3.46-8.84s1.14-4.24,4.53-5.2h0c.3-.09.63-.1.93-.01h.04c3.38.97,4.52,5.21,4.52,5.21l3.47,8.84c.27.7.49,1.42.74,2.12,2.85,8.2,27.11,7.08,27.11,7.08,16.49.45,20.28-5.24,20.28-5.24,1.45-1.67,3.23-10.03,3.23-10.03.45-4.09,2.38-5.99,3.62-6.81.71-.47,1.23-1.21,1.37-2.06.47-2.92.29-5.66.06-7.45ZM100.03,114.41c-.77,1.73-1.75,3.49-2.98,5.2-1.2,1.67-2.94,2.87-4.92,3.44-5.25,1.51-17.15,3.87-32.16.36-.23-.06-.46-.12-.69-.21-1.31-.49-5.4-2.29-6.21-6.03,0,0-.22-1.17-.48-2.97-.45-3.21-1-8.44-.62-12.78.36-4.06,3.43-7.37,7.45-8.07,5.18-.89,14.94-1.73,30.9-.12.12.01.24.02.36.03,1.47.06,12.46.7,12.32,7.5,0,0,.2,6.56-2.98,13.66ZM167.06,115.8c-.14.87-.23,1.37-.23,1.37-.75,3.45-4.3,5.26-5.87,5.89-.39.16-.79.28-1.2.38-13.93,3.22-25.15,1.39-30.84-.09-2.87-.74-5.35-2.56-6.94-5.06-1.08-1.69-1.93-3.41-2.6-5.09-2.65-6.63-2.47-12.47-2.47-12.47-.14-6.74,10.66-7.43,12.28-7.5.16,0,.31-.02.47-.03,13.74-1.38,22.87-.94,28.44-.23,5.66.73,9.92,5.55,9.96,11.25.03,4.5-.63,9.27-.99,11.55Z"/>
        <g class="cls-20">
          <path class="cls-4" d="M100.03,114.41c-.77,1.73-1.75,3.49-2.98,5.2-1.2,1.67-2.94,2.87-4.92,3.44-5.25,1.51-17.15,3.87-32.16.36-.23-.06-.46-.12-.69-.21-1.31-.49-5.4-2.29-6.21-6.03,0,0-.22-1.17-.48-2.97-.45-3.21-1-8.44-.62-12.78.36-4.06,3.43-7.37,7.45-8.07,5.18-.89,14.94-1.73,30.9-.12.12.01.24.02.36.03,1.47.06,12.46.7,12.32,7.5,0,0,.2,6.56-2.98,13.66Z"/>
          <path class="cls-3" d="M168.05,104.24c.03,4.5-.63,9.27-.99,11.55-.14.87-.23,1.37-.23,1.37-.75,3.45-4.3,5.26-5.87,5.89-.39.16-.79.28-1.2.38-13.93,3.22-25.15,1.39-30.84-.09-2.87-.74-5.35-2.56-6.94-5.06-1.08-1.69-1.93-3.41-2.6-5.09-2.65-6.63-2.47-12.47-2.47-12.47-.14-6.74,10.66-7.43,12.28-7.5.16,0,.31-.02.47-.03,13.74-1.38,22.87-.94,28.44-.23,5.66.73,9.92,5.55,9.96,11.25Z"/>
          <path class="cls-14" d="M100.03,114.41c-.77,1.73-1.75,3.49-2.98,5.2-1.2,1.67-2.94,2.87-4.92,3.44-5.25,1.51-17.15,3.87-32.16.36-.23-.06-.46-.12-.69-.21-1.31-.49-5.4-2.29-6.21-6.03,0,0-.22-1.17-.48-2.97,6.29-2.51,14.49-4.03,23.46-4.03s17.62,1.6,23.97,4.24Z"/>
          <path class="cls-13" d="M167.06,115.8c-.14.87-.23,1.37-.23,1.37-.75,3.45-4.3,5.26-5.87,5.89-.39.16-.79.28-1.2.38-13.93,3.22-25.15,1.39-30.84-.09-2.87-.74-5.35-2.56-6.94-5.06-1.08-1.69-1.93-3.41-2.6-5.09,5.86-1.91,13.02-3.04,20.74-3.04,10.73,0,20.36,2.17,26.95,5.62Z"/>
        </g>
      </g>
    </g>
  </g>
</svg>