<?xml version="1.0" encoding="UTF-8"?>
<svg id="Layer_2" data-name="Layer 2" xmlns="http://www.w3.org/2000/svg" xmlns:xlink="http://www.w3.org/1999/xlink" viewBox="0 0 221.47 223.59">
  <defs>
    <style>
      .cls-1 {
        fill: none;
      }

      .cls-2 {
        fill: #462e1b;
      }

      .cls-3 {
        fill: #ba9d82;
      }

      .cls-4 {
        fill: #ccad8a;
      }

      .cls-5 {
        fill: url(#Névtelen_színátmenet_11);
      }

      .cls-5, .cls-6, .cls-7 {
        opacity: .54;
      }

      .cls-8 {
        fill: #44361f;
      }

      .cls-9 {
        fill: #d7bd9d;
      }

      .cls-10 {
        fill: #c1a587;
      }

      .cls-6 {
        fill: url(#Névtelen_színátmenet_11-2);
      }

      .cls-11 {
        fill: #dac6a4;
      }

      .cls-12 {
        fill: #fff;
      }

      .cls-13 {
        fill: #dcc5a0;
      }

      .cls-14 {
        fill: #272213;
      }

      .cls-15 {
        fill: #ecdab6;
      }

      .cls-16 {
        fill: #3c3d39;
      }

      .cls-17 {
        fill: #b8987d;
      }

      .cls-18 {
        fill: #d3897e;
      }

      .cls-19 {
        fill: #ebd9b5;
      }

      .cls-20 {
        fill: #524766;
      }

      .cls-21 {
        fill: #a98d76;
      }

      .cls-22 {
        fill: #a91319;
      }

      .cls-23 {
        fill: #7fa6ad;
      }

      .cls-7 {
        fill: #a9cec8;
      }

      .cls-24 {
        fill: #714223;
      }

      .cls-25 {
        fill: #b7967d;
      }

      .cls-26 {
        clip-path: url(#clippath);
      }

      .cls-27 {
        fill: #d2bb9b;
      }

      .cls-28 {
        fill: #b5957e;
      }
    </style>
    <clipPath id="clippath">
      <rect class="cls-1" x="98.51" y="154.82" width="25.1" height="14.85"/>
    </clipPath>
    <linearGradient id="Névtelen_színátmenet_11" data-name="Névtelen színátmenet 11" x1="135.02" y1="87.96" x2="135.24" y2="129.23" gradientUnits="userSpaceOnUse">
      <stop offset="0" stop-color="#fff"/>
      <stop offset="1" stop-color="#8dbdac"/>
    </linearGradient>
    <linearGradient id="Névtelen_színátmenet_11-2" data-name="Névtelen színátmenet 11" x1="84.59" y1="88.23" x2="84.81" y2="129.5" xlink:href="#Névtelen_színátmenet_11"/>
  </defs>
  <g id="Layer_1-2" data-name="Layer 1">
    <g>
      <rect class="cls-18" width="221.47" height="223.59"/>
      <path class="cls-16" d="M86.93,140.92c-.79-.63-15.12-10.13-15.12-10.13.98,5.91,1.72,8.33.28,12.34-1.3,3.61-3.78,5.01-5.15,6.27-1.38,1.27-4.17,2.22-5.14,2.22s-2.1-.19-2.1-.19c0,0,2.28,1.35,7.99,1.08,2.4-.11,3.92-.76,4.91-1.5-1.13,1.96-2.19,4.76-1,7.37,4.31,9.46-1.44,12.54-1.44,12.54,0,0,5.1-.55,8.02-3.31.01.07,0,.17.02.23,1.3,4.73,4.72,5.26,4.72,5.26,0,0-2.16-.39-1.75-4.78.11-1.17,1.24-1.63,2.65-2.42.55,4.25,2.33,8.57-1.36,10.34,0,0,6.23-1.33,7.37-5.31.2-.73.32-1.4.42-2.08.1.37.23.72.3,1.11.88,5.07-2.7,9.98-2.7,9.98,0,0,12.94-1.48,13.04-6.99.01-.83.17-4.2.57-5.47.39-1.27,1.18-7.59,1.18-7.59,0,0-14.93-18.34-15.72-18.97Z"/>
      <path class="cls-16" d="M137.53,140.92c.79-.63,15.13-10.13,15.13-10.13-.98,5.91-1.72,8.33-.28,12.34,1.3,3.61,3.78,5.01,5.15,6.27,1.38,1.27,4.17,2.22,5.15,2.22s2.09-.19,2.09-.19c0,0-2.28,1.35-7.99,1.08-2.4-.11-3.92-.76-4.91-1.5,1.13,1.96,2.19,4.76,1,7.37-4.31,9.46,1.44,12.54,1.44,12.54,0,0-5.1-.55-8.03-3.31-.01.07,0,.17-.02.23-1.3,4.73-4.72,5.26-4.72,5.26,0,0,2.16-.39,1.75-4.78-.11-1.17-1.24-1.63-2.65-2.42-.55,4.25-2.33,8.57,1.35,10.34,0,0-6.23-1.33-7.37-5.31-.21-.73-.32-1.4-.42-2.08-.1.37-.23.72-.3,1.11-.88,5.07,2.7,9.98,2.7,9.98,0,0-12.94-1.48-13.04-6.99,0-.83-.17-4.2-.56-5.47-.4-1.27-1.18-7.59-1.18-7.59,0,0,14.93-18.34,15.71-18.97Z"/>
      <path class="cls-13" d="M110.97,139.57v84.02h-45.31c-.74-.3-1.11-.44-1.11-.44,0-10.73,1.57-19.09,3.96-25.61,5.77-15.74,16.32-20.74,21.18-22.24,1.59-.5,2.58-.61,2.58-.61.17,0,.33-.02.5-.04,1.43-.23,2.58-1.47,3.51-3.46.69-1.47,1.27-3.35,1.74-5.53.19-.85.33-1.7.48-2.63.22-1.55.44-3.18.63-4.88.07-1.04.18-2.03.29-3.11.4-5.14.52-10.77.52-16.1,0,0,6.08.63,11.02.63Z"/>
      <path class="cls-19" d="M157.57,223.15s-.41.15-1.07.44h-45.53v-84.02h.11c4.9,0,11.06-.63,11.06-.63,0,5.29.11,10.84.51,15.98.11,1,.22,2.03.29,3.03.19,1.78.41,3.44.67,4.99v.03c.07.71.22,1.33.33,2,.45,2.19.99,4.11,1.64,5.65.81,1.92,1.8,3.26,3.01,3.79.38.17.79.26,1.21.26,0,0,1.74.21,4.36,1.24,5.33,2.09,14.29,7.59,19.44,21.62,2.39,6.52,3.96,14.88,3.96,25.61Z"/>
      <g class="cls-26">
        <path class="cls-3" d="M123.61,162.8v.04c-1.14,1.76-4.98,6.84-12.57,6.84h-.07c-7.19-.04-11.39-5.26-12.46-6.8.22-1.54.44-3.16.63-4.85.07-.99.18-2.02.29-3.09,3.5.88,7.34,1.43,11.39,1.51h.15c4.2-.07,8.07-.66,11.69-1.62.11.99.22,2.02.29,3.01.18,1.76.41,3.42.66,4.96"/>
      </g>
      <path class="cls-4" d="M110.45,43.82c-48,0-48.26,40.25-46.12,66.6-3.28-6.25-13.05-4.34-12.24,5.51.77,9.48,14.73,14.32,14.34,13.27,7.27,19.49,26.51,34.18,44.02,34.18h.37V43.82h-.37"/>
      <path class="cls-21" d="M55.16,111.78c2.36-3.82,6.05-2.17,6.93-1.32.96.92,1.73,2.09,1.14,4.34-.33,1.29-1.66,1.4-1.36,3.31.37,2.17,1.36,2.28,1.95,2.79.55.48,1.25.85,1.59,1.76.37.92.41,1.87.22,2.72-.37,1.54-2.62.29-4.13-.37-1-.48-4.17-3.16-4.98-4.04-1.99-2.28-2.95-6.69-1.36-9.19"/>
      <path class="cls-9" d="M110.71,43.82c48,0,48.26,40.25,46.15,66.6,3.28-6.25,13.01-4.34,12.2,5.51-.74,9.48-14.72,14.32-14.34,13.27-7.08,19.49-26.51,34.18-44.02,34.18h-.26l-.11-119.56h.37"/>
      <path class="cls-21" d="M166.01,111.78c-2.36-3.82-6.01-2.17-6.93-1.32-.96.92-1.7,2.09-1.14,4.34.33,1.29,1.66,1.4,1.36,3.31-.37,2.17-1.36,2.28-1.92,2.79-.55.48-1.29.85-1.62,1.76-.33.92-.41,1.87-.22,2.72.37,1.54,2.62.29,4.13-.37,1.03-.48,4.17-3.16,4.98-4.04,2.03-2.28,2.95-6.69,1.36-9.19"/>
      <path class="cls-13" d="M110.07,55.18c-15.78,0-27.35,4.59-34.32,13.64-9.77,12.68-9.4,32.01-5.82,45.91,1.11,4.26,1.7,15.69,2.43,19.88,3.43,18.78,24.11,28.78,37.71,28.78h.37V55.18h-.22"/>
      <path class="cls-19" d="M144.36,68.85c-6.93-9.01-18.36-13.6-33.92-13.67v108.21c15.56-.18,34.17-11.14,37.34-28.78.77-4.19,1.33-15.62,2.43-19.88,3.61-13.86,3.98-33.15-5.86-45.87"/>
      <path class="cls-1" d="M108.52,140.27c-.22-.04-.42-.08-.59-.11.2.04.4.08.59.11Z"/>
      <path class="cls-1" d="M107.7,144.16c-.14-.03-.27-.06-.36-.08.12.03.24.05.36.08Z"/>
      <path class="cls-25" d="M107.93,144.21c-.08-.02-.15-.03-.23-.05.07.02.14.03.23.05Z"/>
      <path class="cls-25" d="M107.34,144.07c-.07-.02-.13-.04-.2-.06h0s.08.02.21.06Z"/>
      <path class="cls-9" d="M101.29,129.4c-.18-3.74,6.85-1.37,9.16-1.25,1.83.09,7.4-1.18,7.88-.85,3.28,2.22-3.47,6.68-8,6.68-1.21,0-8.94-2.33-9.05-4.58Z"/>
      <path class="cls-1" d="M67.41,88.91c-.43,1.43-.73,3-.93,4.67,0,0,.63-2.64,2.03-6.54-.6.83-1,1.5-1.1,1.87Z"/>
      <path class="cls-8" d="M97.04,55.45l-.2.2.03.07c.07-.1.1-.2.17-.27Z"/>
      <path class="cls-1" d="M108.67,142.13c-.22-.04-.43-.08-.61-.12.21.04.41.09.61.12Z"/>
      <path class="cls-1" d="M107.82,141.96c-.14-.03-.28-.06-.37-.09.12.03.24.06.37.09Z"/>
      <path class="cls-28" d="M108.06,142.01c-.08-.02-.15-.03-.23-.05.08.02.14.03.23.05Z"/>
      <path class="cls-28" d="M107.45,141.88c-.07-.02-.14-.04-.21-.06h0s.08.02.21.06Z"/>
      <path class="cls-12" d="M76.01,97.41s3.66,15.07,9.95,16.3c6.29,1.23,13.09-1.22,13.09-1.22,0,0,.65-17.71-2.57-20.02-3.22-2.32-10.63-5.68-20.47,4.94Z"/>
      <path class="cls-27" d="M99.06,112.45s-.14.04-.47.18c-.08-5.43-.58-12.89-2.59-14.32-2.99-2.2-9.74-5.28-18.75,3.17-.82-2.33-1.23-4.1-1.23-4.1,9.86-10.64,17.28-7.29,20.47-4.96,3.22,2.32,2.57,20.05,2.57,20.05Z"/>
      <ellipse class="cls-2" cx="89.15" cy="104.78" rx="6.19" ry="6.21"/>
      <path class="cls-24" d="M88.86,108.91c-1.79-.15-3.16-1.96-3-3.95.16-1.99,1.81-3.54,3.6-3.39,1.79.15,3.16,1.95,3,3.94-.16,1.99-1.81,3.55-3.6,3.4Z"/>
      <path class="cls-14" d="M89.02,108.19c-1.24-.11-2.53-1.48-2.4-3.16.14-1.69,1.63-2.83,2.88-2.73,1.24.11,2.53,1.48,2.39,3.17-.14,1.69-1.63,2.83-2.87,2.72Z"/>
      <path class="cls-12" d="M88.01,104.03c-.05.61-.68,1.05-1.39,1-.72-.06-1.26-.61-1.21-1.21.05-.61.67-1.06,1.39-1,.72.06,1.26.6,1.21,1.21Z"/>
      <path class="cls-12" d="M92.02,107.56c-.03.3-.34.53-.69.5-.36-.03-.63-.3-.61-.61.03-.3.34-.53.69-.5.36.03.63.3.61.61Z"/>
      <path class="cls-1" d="M108.76,143.9c-.22-.04-.43-.08-.61-.12.21.04.41.09.61.12Z"/>
      <path class="cls-1" d="M107.92,143.74c-.14-.03-.28-.06-.37-.09.12.03.24.06.37.09Z"/>
      <path class="cls-28" d="M108.15,143.79c-.08-.02-.15-.03-.23-.05.08.02.14.03.23.05Z"/>
      <path class="cls-28" d="M107.55,143.65c-.07-.02-.14-.04-.21-.06h0s.08.02.21.06Z"/>
      <path class="cls-1" d="M108.53,143.49c-.24-.04-.46-.08-.65-.12.22.05.44.09.65.12Z"/>
      <path class="cls-1" d="M107.62,143.31c-.15-.03-.3-.07-.4-.09.13.03.26.06.4.09Z"/>
      <path class="cls-25" d="M107.87,143.36c-.08-.02-.17-.03-.25-.05.08.02.15.03.25.05Z"/>
      <path class="cls-25" d="M107.23,143.22c-.08-.02-.15-.04-.22-.06h0s.09.03.23.06Z"/>
      <path class="cls-1" d="M108.34,142.86c-.24-.04-.46-.08-.65-.12.22.05.44.09.65.12Z"/>
      <path class="cls-1" d="M107.44,142.68c-.15-.03-.3-.07-.4-.09.13.03.26.06.4.09Z"/>
      <path class="cls-25" d="M107.69,142.73c-.08-.02-.17-.03-.25-.05.08.02.15.03.25.05Z"/>
      <path class="cls-25" d="M107.04,142.59c-.08-.02-.15-.04-.22-.06h0s.09.03.23.06Z"/>
      <path class="cls-1" d="M108.89,142.77c-.23-.04-.44-.08-.63-.12.21.05.42.09.63.12Z"/>
      <path class="cls-1" d="M108.02,142.59c-.14-.03-.29-.06-.38-.09.13.03.25.06.38.09Z"/>
      <path class="cls-25" d="M108.26,142.65c-.08-.02-.16-.03-.24-.05.08.02.15.03.24.05Z"/>
      <path class="cls-25" d="M107.64,142.51c-.07-.02-.14-.04-.21-.06h0s.08.03.22.06Z"/>
      <path class="cls-12" d="M145.25,96.9s-3.66,15.07-9.95,16.3c-6.29,1.23-13.09-1.22-13.09-1.22,0,0-.65-17.71,2.57-20.02,3.22-2.32,10.63-5.68,20.47,4.94Z"/>
      <path class="cls-27" d="M122.2,111.94s.14.04.47.18c.08-5.43.58-12.89,2.59-14.32,2.99-2.2,9.74-5.28,18.75,3.16.82-2.33,1.23-4.1,1.23-4.1-9.86-10.64-17.28-7.29-20.47-4.96-3.22,2.32-2.57,20.05-2.57,20.05Z"/>
      <path class="cls-2" d="M125.93,104.26c0,3.43,2.77,6.21,6.19,6.21s6.19-2.78,6.19-6.21-2.77-6.21-6.19-6.21-6.19,2.78-6.19,6.21Z"/>
      <path class="cls-24" d="M132.4,108.4c1.79-.15,3.16-1.96,3-3.95-.16-1.99-1.81-3.54-3.6-3.39-1.79.15-3.16,1.95-3,3.94.16,1.99,1.81,3.55,3.6,3.4Z"/>
      <path class="cls-14" d="M132.25,107.68c1.24-.11,2.53-1.47,2.4-3.16-.14-1.69-1.63-2.83-2.88-2.73-1.24.11-2.53,1.48-2.39,3.17.14,1.69,1.63,2.83,2.87,2.72Z"/>
      <path class="cls-12" d="M133.25,103.52c.05.61.68,1.05,1.39,1,.72-.06,1.26-.61,1.21-1.21-.05-.61-.67-1.06-1.39-1-.72.06-1.26.6-1.21,1.21Z"/>
      <path class="cls-12" d="M129.24,107.05c.03.3.34.53.69.5.36-.03.63-.3.61-.61-.03-.3-.34-.53-.69-.5-.36.03-.63.3-.61.61Z"/>
      <g>
        <path d="M102.83,97.17c-.05-.07-1.19-1.81-3.52-3.61-1.46-1.12-2.89-1.98-4.38-2.62-1.81-.76-3.75-1.3-5.63-1.56-1.7-.19-3.59-.14-5.79.16-1.68.32-3.32.82-4.71,1.44-.99.34-1.78.82-2.41,1.21-.24.15-.46.28-.68.4l-3,1.89,3.46-.82c.16-.04.34-.09.52-.14.72-.19,1.61-.43,2.65-.58.24-.04.49-.09.75-.14.44-.09.89-.18,1.36-.2.52-.04,1.07-.07,1.63-.11l.73-.05c1.92-.02,3.54.12,4.97.45,1.57.27,3.19.78,4.67,1.47,1.4.67,2.74,1.34,3.79,2.11,2.11,1.42,3.29,2.6,3.3,2.61h0c.29.29.68.44,1.07.44.28,0,.57-.08.82-.25.7-.46.89-1.4.45-2.08l-.03-.05Z"/>
        <path d="M145.87,92.59c-.2-.11-.42-.24-.66-.39-.63-.39-1.41-.87-2.38-1.2-1.42-.63-3.06-1.13-4.76-1.45-2.18-.29-4.07-.35-5.78-.15-1.87.26-3.82.8-5.63,1.56-1.46.63-2.94,1.51-4.38,2.62-2.29,1.76-3.43,3.47-3.51,3.6l-.02.03c-.39.6-.3,1.4.2,1.9.28.29.66.45,1.07.45h0c.4,0,.78-.16,1.06-.45h.01c.11-.12,1.25-1.24,3.3-2.62,1.03-.76,2.37-1.43,3.77-2.1,1.49-.69,3.1-1.2,4.7-1.48,1.42-.33,3.04-.47,4.93-.45l.76.05c.55.04,1.09.08,1.62.11.46.02.91.11,1.35.2.25.05.5.1.75.14,1.05.15,1.94.39,2.65.58.19.05.36.1.53.14l3.46.82-3.03-1.91Z"/>
      </g>
      <path class="cls-1" d="M107.7,145.69c-.23-.04-.45-.08-.64-.12.22.05.43.09.64.12Z"/>
      <path class="cls-1" d="M106.83,145.52c-.15-.03-.29-.07-.39-.09.13.03.26.06.39.09Z"/>
      <path class="cls-17" d="M107.07,145.57c-.08-.02-.16-.03-.24-.05.08.02.15.03.24.05Z"/>
      <path class="cls-17" d="M106.44,145.43c-.07-.02-.14-.04-.22-.06h0s.08.03.22.06Z"/>
      <path class="cls-15" d="M101.57,148.68c-.18-2.42,6.73.51,9,.58,1.81.06,7.25-.36,7.75-.55,3.8-1.43-.21,4.05-7.86,4.34-3.51.14-8.78-2.9-8.88-4.36Z"/>
      <path class="cls-11" d="M124.06,144.01c-1.88-.09-3.8,1.48-6.06,1.24-.09-.05-.14-.05-.23-.05-.52-.09-1.03,0-1.6.14-.7.15-1.41.43-2.07.66-1.13.37-2.4.66-3.7.56h0s-.05,0-.07,0-.05,0-.07,0h0c-1.31.09-2.58-.2-3.7-.57-.66-.23-1.37-.52-2.07-.66-.56-.14-1.08-.23-1.6-.14-.1,0-.14,0-.23.05-2.26.24-4.18-1.33-6.06-1.24-.52.05-1.27-.09-1.69-.09.09.05.19.09.28.14,5.35,2.61,9.96,7.51,15.07,7.35h.15c5.11.16,9.72-4.74,15.07-7.35.1-.05.19-.09.28-.14-.42,0-1.17.14-1.69.09Z"/>
      <path class="cls-10" d="M125.64,143.86h0s-5.44-2.1-9.3-.87c0,0-1.44.56-2.93.91-.91.35-2.01.46-3.07.41h0c-.81-.03-1.59-.14-2.22-.25-.21-.03-.42-.08-.64-.12-.09-.02-.16-.03-.24-.05-.13-.03-.26-.06-.39-.09-.14-.03-.22-.06-.22-.06h0c-1.24-.34-2.3-.75-2.3-.75-3.87-1.23-9.3.87-9.3.87h0c-.07.03-.12.06-.12.06.42,0,1.17.14,1.69.09,1.88-.09,3.8,1.48,6.06,1.24.09-.05.14-.05.23-.05.52-.09,1.03,0,1.6.14.7.15,1.41.43,2.07.66,1.13.37,2.4.66,3.7.56h0s.05,0,.07,0,.05,0,.07,0h0c1.31.09,2.58-.2,3.7-.57.66-.23,1.37-.52,2.07-.66.56-.14,1.08-.23,1.6-.14.1,0,.14,0,.23.05,2.26.24,4.18-1.33,6.06-1.24.52.05,1.27-.09,1.69-.09,0,0-.05-.02-.12-.06Z"/>
      <path class="cls-10" d="M101.2,145.14c.1.02,10.19,3.11,18.08.07l-.91-.61h-10.66l-6.5.55Z"/>
      <path class="cls-23" d="M158.75,210.74h-8.44c.02,3.1.09,5.8.17,8.04.08,1.95.17,3.55.26,4.8h-79.23c.09-1.24.17-2.85.23-4.8.08-2.24.14-4.94.15-8.04h-8.52c0-.31,0-.61.02-.92.08-1.84.43-3.9.94-6,.74-3.09,1.81-6.28,2.82-8.96,1-2.67,1.93-4.87,2.46-6,.23-.54.37-.84.37-.84.64-.87,1.3-1.67,1.96-2.44,1.73-2,3.53-3.62,5.31-4.94.2-.21.45-.37.66-.51.11-.08.23-.17.34-.23.46-.34.92-.64,1.38-.94,2.58-1.64,5.02-2.69,6.92-3.33.45-.17.86-.29,1.26-.4,1.78-.49,2.89-.63,2.89-.63.95,0,1.77-.35,2.5-.95,0,0,0-.03.03-.03.25-.23.49-.51.74-.8.09.08.28.34.43.83.34.84,1.52,3.38,3.3,6.25,2,3.21,4.74,6.83,7.95,8.96,1.7,1.12,3.55,1.83,5.46,1.83s3.76-.71,5.45-1.83c2.1-1.4,4.01-3.44,5.63-5.57.86-1.14,1.64-2.29,2.33-3.39,1.78-2.87,2.96-5.4,3.3-6.25.17-.49.35-.75.46-.83.23.29.48.57.72.8.03,0,.03.03.03.03.72.6,1.57.95,2.49.95,0,0,1.06.11,2.75.57.37.14.78.26,1.24.41,2.26.75,5.31,2.04,8.5,4.31.08.05.17.11.25.17.21.17.46.32.64.52,2.5,1.84,5.03,4.25,7.34,7.43,0,0,.2.29.54.84.64,1.07,1.83,3.18,2.95,6,1,2.49,1.96,5.53,2.53,8.96.31,1.89.51,3.9.51,6,0,.31-.02.61-.02.92Z"/>
      <path class="cls-16" d="M155.15,55.07c-10.07-19.35-27.54-32.18-47.46-32.18-30.28,0-54.92,29.61-56.37,66.79-.03.88-.1,1.76-.11,2.65,0,.27.02.53.04.79.64,8.16,6.85,15.61,11.37,16.43,5.8,1.05,5.35,9.82,5.35,9.82l2.83,1.25c.48-19.28,15.89-17.4,21.2-16.31,4.35.89,8.75.51,12.57-1.74,4.51-2.66,8.22-5.98,11.24-9.45,3.14-3.59,5.54-7.34,7.33-10.65,1.02-1.89,3.95-.93,3.6,1.18-.57,3.47-1.44,6.66-2.42,9.47-.32.92-.65,1.81-.99,2.65-1,2.49,2.11,4.56,4.12,2.75,2.04-1.83,3.79-3.63,5.3-5.4,1.41-1.64,2.62-3.25,3.63-4.83,1.7-2.66,5.94-1.56,6.05,1.59.04,1.13,0,2.2-.05,3.25-.07,1.37-.19,2.67-.37,3.82-.25,1.64,1.93,2.47,2.89,1.1.05-.06.09-.13.13-.19,2.59-3.77,8.5-2.03,8.66,2.52.01.38.02.77.02,1.17,0,4.23-1.36,6.6-1.36,6.6-3.63,6.32-2.53,8.6-2.53,8.6h3.89s0-4.77,5.53-7.76c4.4-2.39,5.53-10.5,5.53-13.85,0-20.03-5.21-34.25-9.62-40.06Z"/>
      <g>
        <path class="cls-5" d="M151.92,108.02c-.06.78-.15,1.59-.31,2.44-8.18-4.1-19.73-6.38-32.53,1.76-.39-1.34-.6-2.67-.7-3.88-.2-1.58-.26-3.48.11-5.29,1.01-8.55,15.93-8.87,18.05-8.87.17,0,.35,0,.52,0,1.87-.07,3.49,0,4.89.14.64.06,1.49.17,2.44.4,5.54,1.26,6.31,4.17,6.37,4.46.23.47.41,1,.53,1.57.75,2.58.85,5.07.63,7.29Z"/>
        <path class="cls-6" d="M101.43,108.37h0c-.09.72-.21,1.37-.32,1.92-13.21-6.69-24.82-2.71-32.38,1.97-.36-1.23-.68-2.67-.84-4.24-.27-3.83.53-6.66.53-6.66.03-.22.07-.43.11-.64.15-.5.32-1.01.52-1.52,0,0,0,0,0-.02,1.29-2.7,4.1-3.92,6.4-4.46.7-.16,1.47-.29,2.34-.39.03,0,.05,0,.07,0,.68-.06,1.1-.06,1.1-.06,1.37-.07,2.65-.1,3.85-.08.07,0,.14,0,.2,0h.24c10.38.21,14.29,3.39,14.29,3.39,2.24,1.23,3.33,3.29,3.78,5.47,0,.01,0,.03,0,.04,0,0,.38,2.29.11,5.3Z"/>
        <path class="cls-7" d="M151.61,110.46c-.36,1.96-1.05,4.06-2.26,6.1-.09.16-.14.25-.14.25-.03.04-.06.09-.09.13-.35.56-.74,1.11-1.17,1.65-.64.81-1.41,1.5-2.3,2.02-.65.39-1.53.83-2.63,1.22-5.23,2.07-11.22.9-14.13.09-.09-.02-.63-.14-1.41-.43-.23-.08-.36-.13-.36-.13-4.77-1.84-7.02-5.55-8.04-9.14,12.8-8.14,24.35-5.86,32.53-1.76Z"/>
        <path class="cls-7" d="M101.11,110.29c-.14.69-.29,1.22-.37,1.5-.05.15-.07.24-.07.24-1.45,6.11-5.99,8.57-8.33,9.45,0,0,0,0,0,0-.3.1-.77.25-1.38.43,0,0-.01,0-.02,0s-.01,0-.01,0c-6.4,1.76-11.13,1-14.15-.11,0,0,0,0-.02,0-2.27-.91-4.39-2.44-6.04-4.87-.08-.12-.15-.25-.23-.38-.28-.5-.94-1.8-1.53-3.63-.07-.22-.14-.44-.21-.67,7.56-4.68,19.17-8.66,32.38-1.97Z"/>
        <path class="cls-22" d="M158.87,95.63c-.13-.86-.75-1.57-1.59-1.8-17.35-4.85-30.86-2.01-30.86-2.01-7.23,1.26-10.35,5.44-10.35,5.44-2.06,2.19-6.17,1.26-6.17,1.26h0s-4.11.93-6.17-1.26c0,0-3.12-4.18-10.35-5.44,0,0-13.51-2.84-30.86,2.01-.84.23-1.45.94-1.59,1.8-.28,1.82-.52,4.84.8,5.61,0,0,2.65.53,2.65,4.25,0,0,2.06,12.21,4.51,14.86,0,0,3.32,6.1,14.53,5.77,0,0,15.34.64,18.32-7.83.39-1.12.95-2.42,1.39-3.52l2.56-7.36c.27-.78.75-1.47,1.42-1.96.64-.47,1.55-.85,2.79-.76h0c1.24-.08,2.15.29,2.79.76.66.49,1.15,1.18,1.42,1.96l2.56,7.36c.44,1.1,1,2.4,1.39,3.52,2.98,8.47,18.32,7.83,18.32,7.83,11.21.33,14.53-5.77,14.53-5.77,2.45-2.65,4.51-14.86,4.51-14.86,0-3.72,2.65-4.25,2.65-4.25,1.32-.77,1.08-3.79.8-5.61ZM101.43,108.37h0c-.21,1.63-.55,2.91-.7,3.42-.01.04-.02.08-.03.11-.03.09-.04.13-.04.13-1.45,6.11-5.99,8.57-8.33,9.45,0,0,0,0,0,0-.2.07-.48.16-.82.26-.17.05-.36.11-.56.16,0,0-.01,0-.02,0h0s0,0,0,0c0,0-.01,0-.01,0-1.89.52-3.63.81-5.23.95-3.81.32-6.79-.28-8.92-1.05,0,0,0,0,0,0s0,0,0,0c-.83-.33-1.65-.75-2.43-1.27-1.34-.89-2.57-2.06-3.62-3.6-.03-.05-.07-.11-.1-.16-.04-.07-.09-.14-.13-.21-.17-.32-.5-.95-.87-1.84-.22-.52-.44-1.12-.66-1.8-.07-.22-.14-.44-.21-.67,0,0,0,0,0,0-.36-1.24-.68-2.67-.84-4.25-.27-3.83.53-6.66.53-6.66.03-.22.06-.43.11-.64.15-.5.32-1.01.52-1.52,0,0,0,0,0-.03,1.29-2.7,4.1-3.91,6.4-4.46.7-.16,1.47-.29,2.33-.38.03,0,.05,0,.08,0,.68-.06,1.1-.06,1.1-.06,1.37-.07,2.65-.1,3.85-.08.07,0,.13,0,.2,0,0,0,.08,0,.24,0h0c10.38.21,14.29,3.39,14.29,3.39,2.24,1.23,3.33,3.29,3.78,5.46,0,.01,0,.03,0,.04,0,0,.38,2.29.11,5.3ZM151.92,108.02c-.06.9-.19,1.86-.4,2.85-.02.09-.04.19-.06.28-.07.31-.15.62-.23.94-.02.07-.04.14-.06.21-.08.28-.17.56-.26.84-.02.06-.04.12-.06.18-.12.34-.25.67-.39,1.01-.01.03-.03.07-.05.1-.13.3-.26.59-.41.89-.04.08-.08.16-.12.24-.16.31-.33.63-.51.94,0,.02-.02.03-.03.05-.09.16-.14.25-.14.25-.02.04-.05.07-.07.11,0,0-.01.01-.02.02-.05.09-.11.17-.17.26-.31.47-.63.94-1,1.4-.16.2-.33.4-.51.58-.53.56-1.13,1.04-1.8,1.44-.53.31-1.22.67-2.05,1-.19.08-.38.15-.58.23-1.56.62-3.19.94-4.78,1.08-3.75.32-7.31-.42-9.35-.99-.03,0-.1-.02-.2-.05-.14-.03-.33-.09-.58-.17-.18-.06-.39-.13-.63-.22-.23-.08-.36-.13-.36-.13-.03-.01-.06-.03-.09-.04-.23-.09-.45-.18-.66-.28-.08-.04-.16-.07-.23-.11-.2-.1-.4-.2-.59-.3-.04-.02-.08-.04-.12-.06-.23-.12-.44-.25-.65-.39-.06-.04-.11-.07-.17-.11-.18-.12-.35-.23-.52-.35-.04-.03-.08-.05-.12-.08-.2-.15-.39-.3-.57-.45-.04-.03-.08-.07-.12-.1-.15-.13-.3-.27-.45-.41-.03-.03-.07-.07-.1-.1-.17-.17-.34-.34-.49-.51-.02-.03-.05-.05-.07-.08-.14-.15-.27-.31-.4-.47-.03-.04-.06-.07-.09-.11-.15-.18-.29-.37-.42-.56,0,0-.01-.02-.02-.02-.13-.18-.25-.37-.37-.56-.02-.03-.04-.06-.06-.1-.25-.4-.48-.82-.68-1.23,0-.02-.02-.03-.02-.05-.42-.87-.75-1.77-1-2.66h0c-.38-1.34-.59-2.67-.7-3.88-.2-1.58-.26-3.48.11-5.29,1.02-8.55,15.93-8.87,18.06-8.87.17,0,.35,0,.52,0,1.87-.07,3.49,0,4.88.14.64.06,1.49.17,2.44.4,5.54,1.26,6.31,4.18,6.37,4.46.23.47.41,1,.53,1.57.75,2.58.85,5.07.63,7.29Z"/>
      </g>
      <path class="cls-20" d="M158.26,203.82h-93.94c.74-3.09,1.81-6.28,2.82-8.96h88.58c1,2.49,1.96,5.53,2.53,8.96Z"/>
      <path class="cls-20" d="M158.75,210.74h-8.44c.02,3.1.09,5.8.17,8.04h-78.74c.08-2.24.14-4.94.15-8.04h-8.52c0-.31,0-.61.02-.92h95.38c0,.31-.02.61-.02.92Z"/>
      <path class="cls-20" d="M105.64,188.85h-36.04c.23-.54.37-.84.37-.84.64-.87,1.3-1.67,1.96-2.44,1.73-2,3.53-3.62,5.31-4.94.2-.21.45-.37.66-.51.11-.08.23-.17.34-.23h19.45c2,3.21,4.74,6.83,7.95,8.96Z"/>
      <path class="cls-20" d="M152.78,188.85h-36.22c2.1-1.4,4.01-3.44,5.63-5.57.86-1.14,1.64-2.29,2.33-3.39h19.49c.08.05.17.11.25.17.21.17.46.32.64.52,2.5,1.84,5.03,4.25,7.34,7.43,0,0,.2.29.54.84Z"/>
    </g>
  </g>
</svg>