<?xml version="1.0" encoding="UTF-8"?>
<svg id="Layer_2" xmlns="http://www.w3.org/2000/svg" version="1.1" xmlns:xlink="http://www.w3.org/1999/xlink" viewBox="0 0 78.88 78.88">
  <!-- Generator: Adobe Illustrator 30.2.1, SVG Export Plug-In . SVG Version: 2.1.1 Build 1)  -->
  <defs>
    <style>
      .st0 {
        fill: #dac6a4;
      }

      .st1 {
        fill: #b5957e;
      }

      .st2 {
        fill: #a9cec8;
      }

      .st2, .st3, .st4 {
        isolation: isolate;
        opacity: .54;
      }

      .st5 {
        fill: #b8987d;
      }

      .st6 {
        fill: #714223;
      }

      .st7 {
        fill: #ccad8a;
      }

      .st8 {
        fill: #ecdab6;
      }

      .st9 {
        fill: #d7bd9d;
      }

      .st10 {
        fill: #fff;
      }

      .st11 {
        fill: #272213;
      }

      .st12 {
        fill: #7fa6ad;
      }

      .st13 {
        fill: #b7967d;
      }

      .st14 {
        fill: none;
      }

      .st15 {
        fill: #a91319;
      }

      .st16 {
        fill: #d2bb9b;
      }

      .st17 {
        fill: #ba9d82;
      }

      .st18 {
        fill: #d3897e;
      }

      .st19 {
        fill: #dcc5a0;
      }

      .st3 {
        fill: url(#linear-gradient);
      }

      .st20 {
        fill: #c1a587;
      }

      .st21 {
        fill: #44361f;
      }

      .st4 {
        fill: url(#linear-gradient1);
      }

      .st22 {
        fill: #524766;
      }

      .st23 {
        fill: #a98d76;
      }

      .st24 {
        fill: #462e1b;
      }

      .st25 {
        clip-path: url(#clippath);
      }

      .st26 {
        fill: #ebd9b5;
      }

      .st27 {
        fill: #3c3d39;
      }
    </style>
    <clipPath id="clippath">
      <rect class="st14" x="35.09" y="54.62" width="8.94" height="5.24"/>
    </clipPath>
    <linearGradient id="linear-gradient" x1="48.09" y1="50.26" x2="48.17" y2="35.7" gradientTransform="translate(0 81.29) scale(1 -1)" gradientUnits="userSpaceOnUse">
      <stop offset="0" stop-color="#fff"/>
      <stop offset="1" stop-color="#8dbdac"/>
    </linearGradient>
    <linearGradient id="linear-gradient1" x1="30.13" y1="50.16" x2="30.2" y2="35.6" gradientTransform="translate(0 81.29) scale(1 -1)" gradientUnits="userSpaceOnUse">
      <stop offset="0" stop-color="#fff"/>
      <stop offset="1" stop-color="#8dbdac"/>
    </linearGradient>
  </defs>
  <g id="Layer_1-2">
    <g>
      <rect class="st18" width="78.88" height="78.88"/>
      <path class="st27" d="M30.96,49.71c-.28-.22-5.39-3.57-5.39-3.57.35,2.08.61,2.94.1,4.35-.46,1.27-1.35,1.77-1.83,2.21-.49.45-1.49.78-1.83.78s-.75-.07-.75-.07c0,0,.81.48,2.85.38.85-.04,1.4-.27,1.75-.53-.4.69-.78,1.68-.36,2.6,1.54,3.34-.51,4.42-.51,4.42,0,0,1.82-.19,2.86-1.17,0,.02,0,.06,0,.08.46,1.67,1.68,1.86,1.68,1.86,0,0-.77-.14-.62-1.69.04-.41.44-.58.94-.85.2,1.5.83,3.02-.48,3.65,0,0,2.22-.47,2.62-1.87.07-.26.11-.49.15-.73.04.13.08.25.11.39.31,1.79-.96,3.52-.96,3.52,0,0,4.61-.52,4.64-2.47,0-.29.06-1.48.2-1.93.14-.45.42-2.68.42-2.68,0,0-5.32-6.47-5.6-6.69h0Z"/>
      <path class="st27" d="M48.98,49.71c.28-.22,5.39-3.57,5.39-3.57-.35,2.08-.61,2.94-.1,4.35.46,1.27,1.35,1.77,1.83,2.21.49.45,1.49.78,1.83.78s.74-.07.74-.07c0,0-.81.48-2.85.38-.85-.04-1.4-.27-1.75-.53.4.69.78,1.68.36,2.6-1.54,3.34.51,4.42.51,4.42,0,0-1.82-.19-2.86-1.17,0,.02,0,.06,0,.08-.46,1.67-1.68,1.86-1.68,1.86,0,0,.77-.14.62-1.69-.04-.41-.44-.58-.94-.85-.2,1.5-.83,3.02.48,3.65,0,0-2.22-.47-2.62-1.87-.07-.26-.11-.49-.15-.73-.04.13-.08.25-.11.39-.31,1.79.96,3.52.96,3.52,0,0-4.61-.52-4.64-2.47,0-.29-.06-1.48-.2-1.93-.14-.45-.42-2.68-.42-2.68,0,0,5.32-6.47,5.6-6.69h0Z"/>
      <path class="st19" d="M39.52,49.24v29.64h-16.14c-.26-.11-.4-.16-.4-.16,0-3.79.56-6.73,1.41-9.03,2.06-5.55,5.81-7.32,7.54-7.85.57-.18.92-.22.92-.22.06,0,.12,0,.18-.01.51-.08.92-.52,1.25-1.22.25-.52.45-1.18.62-1.95.07-.3.12-.6.17-.93.08-.55.16-1.12.22-1.72.02-.37.06-.72.1-1.1.14-1.81.19-3.8.19-5.68,0,0,2.17.22,3.92.22h0Z"/>
      <path class="st26" d="M56.12,78.72s-.15.05-.38.16h-16.22v-29.64h.04c1.75,0,3.94-.22,3.94-.22,0,1.87.04,3.82.18,5.64.04.35.08.72.1,1.07.07.63.15,1.21.24,1.76h0c.02.26.08.48.12.72.16.77.35,1.45.58,1.99.29.68.64,1.15,1.07,1.34.14.06.28.09.43.09,0,0,.62.07,1.55.44,1.9.74,5.09,2.68,6.92,7.63.85,2.3,1.41,5.25,1.41,9.03h0Z"/>
      <g class="st25">
        <path class="st17" d="M44.03,57.43h0c-.41.64-1.77,2.43-4.48,2.43h-.02c-2.56-.01-4.06-1.86-4.44-2.4.08-.54.16-1.11.22-1.71.02-.35.06-.71.1-1.09,1.25.31,2.61.5,4.06.53h.05c1.5-.02,2.87-.23,4.16-.57.04.35.08.71.1,1.06.06.62.15,1.21.24,1.75"/>
      </g>
      <path class="st7" d="M39.34,15.46c-17.1,0-17.19,14.2-16.43,23.5-1.17-2.2-4.65-1.53-4.36,1.94.27,3.34,5.25,5.05,5.11,4.68,2.59,6.88,9.44,12.06,15.68,12.06h.13V15.46h-.13"/>
      <path class="st23" d="M19.65,39.43c.84-1.35,2.15-.77,2.47-.47.34.32.62.74.41,1.53-.12.46-.59.49-.48,1.17.13.77.48.8.69.98.2.17.45.3.57.62.13.32.15.66.08.96-.13.54-.93.1-1.47-.13-.36-.17-1.49-1.11-1.77-1.43-.71-.8-1.05-2.36-.48-3.24"/>
      <path class="st9" d="M39.43,15.46c17.1,0,17.19,14.2,16.44,23.5,1.17-2.2,4.63-1.53,4.35,1.94-.26,3.34-5.24,5.05-5.11,4.68-2.52,6.88-9.44,12.06-15.68,12.06h-.09l-.04-42.18h.13"/>
      <path class="st23" d="M59.13,39.43c-.84-1.35-2.14-.77-2.47-.47-.34.32-.61.74-.41,1.53.12.46.59.49.48,1.17-.13.77-.48.8-.68.98-.2.17-.46.3-.58.62-.12.32-.15.66-.08.96.13.54.93.1,1.47-.13.37-.17,1.49-1.11,1.77-1.43.72-.8,1.05-2.36.48-3.24"/>
      <path class="st19" d="M39.2,19.47c-5.62,0-9.74,1.62-12.22,4.81-3.48,4.47-3.35,11.29-2.07,16.2.4,1.5.61,5.54.87,7.01,1.22,6.63,8.59,10.15,13.43,10.15h.13V19.47h-.08"/>
      <path class="st26" d="M51.42,24.29c-2.47-3.18-6.54-4.8-12.08-4.82v38.18c5.54-.06,12.17-3.93,13.3-10.15.27-1.48.47-5.51.87-7.01,1.29-4.89,1.42-11.69-2.09-16.18"/>
      <path class="st14" d="M38.65,49.49c-.08-.01-.15-.03-.21-.04.07.01.14.03.21.04Z"/>
      <path class="st14" d="M38.36,50.86s-.1-.02-.13-.03c.04.01.09.02.13.03Z"/>
      <path class="st13" d="M38.44,50.88s-.05-.01-.08-.02c.02,0,.05.01.08.02Z"/>
      <path class="st13" d="M38.23,50.83s-.05-.01-.07-.02h0s.03,0,.07.02h0Z"/>
      <path class="st9" d="M36.08,45.65c-.06-1.32,2.44-.48,3.26-.44.65.03,2.64-.42,2.81-.3,1.17.78-1.24,2.36-2.85,2.36-.43,0-3.18-.82-3.22-1.62h0Z"/>
      <path class="st14" d="M24.01,31.37c-.15.5-.26,1.06-.33,1.65,0,0,.22-.93.72-2.31-.21.29-.36.53-.39.66Z"/>
      <path class="st21" d="M34.56,19.56l-.07.07v.02s.05-.07.07-.1Z"/>
      <path class="st14" d="M38.7,50.14c-.08-.01-.15-.03-.22-.04.07.01.15.03.22.04Z"/>
      <path class="st14" d="M38.4,50.08s-.1-.02-.13-.03c.04.01.09.02.13.03Z"/>
      <path class="st1" d="M38.49,50.1s-.05-.01-.08-.02c.03,0,.05.01.08.02Z"/>
      <path class="st1" d="M38.27,50.05s-.05-.01-.07-.02h0s.03,0,.07.02Z"/>
      <path class="st10" d="M27.07,34.37s1.3,5.32,3.54,5.75c2.24.43,4.66-.43,4.66-.43,0,0,.23-6.25-.92-7.06-1.15-.82-3.79-2-7.29,1.74Z"/>
      <path class="st16" d="M35.28,39.67s-.05.01-.17.06c-.03-1.92-.21-4.55-.92-5.05-1.06-.78-3.47-1.86-6.68,1.12-.29-.82-.44-1.45-.44-1.45,3.51-3.75,6.15-2.57,7.29-1.75,1.15.82.92,7.07.92,7.07h0Z"/>
      <ellipse class="st24" cx="31.75" cy="36.97" rx="2.2" ry="2.19"/>
      <path class="st6" d="M31.65,38.42c-.64-.05-1.13-.69-1.07-1.39s.64-1.25,1.28-1.2,1.13.69,1.07,1.39c-.06.7-.64,1.25-1.28,1.2Z"/>
      <path class="st11" d="M31.71,38.17c-.44-.04-.9-.52-.85-1.11.05-.6.58-1,1.03-.96.44.04.9.52.85,1.12-.05.6-.58,1-1.02.96Z"/>
      <path class="st10" d="M31.35,36.7c-.02.22-.24.37-.5.35-.26-.02-.45-.22-.43-.43.02-.22.24-.37.5-.35s.45.21.43.43Z"/>
      <path class="st10" d="M32.77,37.95c-.01.11-.12.19-.25.18-.13-.01-.22-.11-.22-.22.01-.11.12-.19.25-.18.13.01.22.11.22.22Z"/>
      <path class="st14" d="M38.74,50.77c-.08-.01-.15-.03-.22-.04.07.01.15.03.22.04Z"/>
      <path class="st14" d="M38.44,50.71s-.1-.02-.13-.03c.04.01.09.02.13.03Z"/>
      <path class="st1" d="M38.52,50.73s-.05-.01-.08-.02c.03,0,.05.01.08.02Z"/>
      <path class="st1" d="M38.31,50.68s-.05-.01-.07-.02h0s.03,0,.07.02Z"/>
      <path class="st14" d="M38.65,50.62c-.09-.01-.16-.03-.23-.04.08.02.16.03.23.04Z"/>
      <path class="st14" d="M38.33,50.56c-.05-.01-.11-.02-.14-.03.05.01.09.02.14.03Z"/>
      <path class="st13" d="M38.42,50.58s-.06-.01-.09-.02c.03,0,.05.01.09.02Z"/>
      <path class="st13" d="M38.19,50.53s-.05-.01-.08-.02h0s.03.01.08.02h0Z"/>
      <path class="st14" d="M38.59,50.4c-.09-.01-.16-.03-.23-.04.08.02.16.03.23.04Z"/>
      <path class="st14" d="M38.27,50.34c-.05-.01-.11-.02-.14-.03.05.01.09.02.14.03Z"/>
      <path class="st13" d="M38.36,50.35s-.06-.01-.09-.02c.03,0,.05.01.09.02Z"/>
      <path class="st13" d="M38.12,50.3s-.05-.01-.08-.02h0s.03.01.08.02h0Z"/>
      <path class="st14" d="M38.78,50.37c-.08-.01-.16-.03-.22-.04.07.02.15.03.22.04Z"/>
      <path class="st14" d="M38.47,50.3s-.1-.02-.14-.03c.05.01.09.02.14.03Z"/>
      <path class="st13" d="M38.56,50.33s-.06-.01-.09-.02c.03,0,.05.01.09.02Z"/>
      <path class="st13" d="M38.34,50.28s-.05-.01-.07-.02h0s.03.01.08.02h0Z"/>
      <path class="st10" d="M51.73,34.19s-1.3,5.32-3.54,5.75c-2.24.43-4.66-.43-4.66-.43,0,0-.23-6.25.92-7.06,1.15-.82,3.79-2,7.29,1.74Z"/>
      <path class="st16" d="M43.52,39.49s.05.01.17.06c.03-1.92.21-4.55.92-5.05,1.06-.78,3.47-1.86,6.68,1.11.29-.82.44-1.45.44-1.45-3.51-3.75-6.15-2.57-7.29-1.75-1.15.82-.92,7.07-.92,7.07h0Z"/>
      <path class="st24" d="M44.85,36.78c0,1.21.99,2.19,2.2,2.19s2.2-.98,2.2-2.19-.99-2.19-2.2-2.19-2.2.98-2.2,2.19Z"/>
      <path class="st6" d="M47.16,38.24c.64-.05,1.13-.69,1.07-1.39s-.64-1.25-1.28-1.2c-.64.05-1.13.69-1.07,1.39.06.7.64,1.25,1.28,1.2Z"/>
      <path class="st11" d="M47.1,37.99c.44-.04.9-.52.85-1.11-.05-.6-.58-1-1.03-.96-.44.04-.9.52-.85,1.12.05.6.58,1,1.02.96h0Z"/>
      <path class="st10" d="M47.46,36.52c.02.22.24.37.5.35.26-.02.45-.22.43-.43-.02-.22-.24-.37-.5-.35s-.45.21-.43.43Z"/>
      <path class="st10" d="M46.03,37.77c.01.11.12.19.25.18.13-.01.22-.11.22-.22-.01-.11-.12-.19-.25-.18-.13.01-.22.11-.22.22Z"/>
      <g>
        <path d="M36.62,34.28s-.42-.64-1.25-1.27c-.52-.4-1.03-.7-1.56-.92-.64-.27-1.34-.46-2.01-.55-.61-.07-1.28-.05-2.06.06-.6.11-1.18.29-1.68.51-.35.12-.63.29-.86.43-.09.05-.16.1-.24.14l-1.07.67,1.23-.29c.06-.01.12-.03.19-.05.26-.07.57-.15.94-.2.09-.01.17-.03.27-.05.16-.03.32-.06.48-.07.19-.01.38-.02.58-.04l.26-.02c.68,0,1.26.04,1.77.16.56.1,1.14.28,1.66.52.5.24.98.47,1.35.74.75.5,1.17.92,1.18.92h0c.1.1.24.16.38.16.1,0,.2-.03.29-.09.25-.16.32-.49.16-.73v-.02s-.02.01-.02.01Z"/>
        <path d="M51.95,32.66c-.07-.04-.15-.08-.24-.14-.22-.14-.5-.31-.85-.42-.51-.22-1.09-.4-1.7-.51-.78-.1-1.45-.12-2.06-.05-.67.09-1.36.28-2.01.55-.52.22-1.05.53-1.56.92-.82.62-1.22,1.22-1.25,1.27h0c-.14.22-.11.5.07.68.1.1.24.16.38.16h0c.14,0,.28-.06.38-.16h0s.45-.44,1.18-.92c.37-.27.84-.5,1.34-.74.53-.24,1.1-.42,1.67-.52.51-.12,1.08-.17,1.76-.16l.27.02c.2.01.39.03.58.04.16,0,.32.04.48.07.09.02.18.04.27.05.37.05.69.14.94.2.07.02.13.04.19.05l1.23.29-1.08-.67h0Z"/>
      </g>
      <path class="st14" d="M38.36,51.4c-.08-.01-.16-.03-.23-.04.08.02.15.03.23.04Z"/>
      <path class="st14" d="M38.05,51.34c-.05-.01-.1-.02-.14-.03.05.01.09.02.14.03Z"/>
      <path class="st5" d="M38.13,51.36s-.06-.01-.09-.02c.03,0,.05.01.09.02Z"/>
      <path class="st5" d="M37.91,51.31s-.05-.01-.08-.02h0s.03.01.08.02Z"/>
      <path class="st8" d="M36.18,52.45c-.06-.85,2.4.18,3.21.2.64.02,2.58-.13,2.76-.19,1.35-.5-.07,1.43-2.8,1.53-1.25.05-3.13-1.02-3.16-1.54h0Z"/>
      <path class="st0" d="M44.19,50.81c-.67-.03-1.35.52-2.16.44-.03-.02-.05-.02-.08-.02-.19-.03-.37,0-.57.05-.25.05-.5.15-.74.23-.4.13-.85.23-1.32.2h-.05c-.47.03-.92-.07-1.32-.2-.24-.08-.49-.18-.74-.23-.2-.05-.38-.08-.57-.05-.04,0-.05,0-.08.02-.8.08-1.49-.47-2.16-.44-.19.02-.45-.03-.6-.03.03.02.07.03.1.05,1.91.92,3.55,2.65,5.37,2.59h.05c1.82.06,3.46-1.67,5.37-2.59.04-.02.07-.03.1-.05-.15,0-.42.05-.6.03h0Z"/>
      <path class="st20" d="M44.75,50.75h0s-1.94-.74-3.31-.31c0,0-.51.2-1.04.32-.32.12-.72.16-1.09.14h0c-.29-.01-.57-.05-.79-.09-.07-.01-.15-.03-.23-.04-.03,0-.06-.01-.09-.02-.05-.01-.09-.02-.14-.03-.05-.01-.08-.02-.08-.02h0c-.44-.12-.82-.26-.82-.26-1.38-.43-3.31.31-3.31.31h0s-.04.02-.04.02c.15,0,.42.05.6.03.67-.03,1.35.52,2.16.44.03-.02.05-.02.08-.02.19-.03.37,0,.57.05.25.05.5.15.74.23.4.13.85.23,1.32.2h.05c.47.03.92-.07,1.32-.2.24-.08.49-.18.74-.23.2-.05.38-.08.57-.05.04,0,.05,0,.08.02.8.08,1.49-.47,2.16-.44.19.02.45-.03.6-.03,0,0-.02,0-.04-.02h0Z"/>
      <path class="st20" d="M36.04,51.2s3.63,1.1,6.44.02l-.32-.22h-3.8l-2.32.19h0Z"/>
      <path class="st12" d="M56.54,74.35h-3.01c0,1.09.03,2.05.06,2.84.03.69.06,1.25.09,1.69h-28.22c.03-.44.06-1.01.08-1.69.03-.79.05-1.74.05-2.84h-3.03c0-.11,0-.22,0-.32.03-.65.15-1.38.33-2.12.26-1.09.64-2.22,1-3.16.36-.94.69-1.72.88-2.12.08-.19.13-.3.13-.3.23-.31.46-.59.7-.86.62-.71,1.26-1.28,1.89-1.74.07-.07.16-.13.24-.18.04-.03.08-.06.12-.08.16-.12.33-.23.49-.33.92-.58,1.79-.95,2.46-1.17.16-.06.31-.1.45-.14.63-.17,1.03-.22,1.03-.22.34,0,.63-.12.89-.34,0,0,0-.01.01-.01.09-.08.17-.18.26-.28.03.03.1.12.15.29.12.3.54,1.19,1.18,2.2.71,1.13,1.69,2.41,2.83,3.16.61.4,1.26.65,1.94.65s1.34-.25,1.94-.65c.75-.49,1.43-1.21,2.01-1.97.31-.4.58-.81.83-1.2.63-1.01,1.05-1.91,1.18-2.2.06-.17.12-.26.16-.29.08.1.17.2.26.28.01,0,.01.01.01.01.26.21.56.34.89.34,0,0,.38.04.98.2.13.05.28.09.44.14.8.26,1.89.72,3.03,1.52.03.02.06.04.09.06.07.06.16.11.23.18.89.65,1.79,1.5,2.61,2.62,0,0,.07.1.19.3.23.38.65,1.12,1.05,2.12.36.88.7,1.95.9,3.16.11.67.18,1.38.18,2.12,0,.11,0,.22,0,.32h0Z"/>
      <path class="st27" d="M55.26,19.43c-3.59-6.83-9.81-11.35-16.9-11.35-10.78,0-19.56,10.45-20.08,23.56-.01.31-.04.62-.04.93,0,.1,0,.19.01.28.23,2.88,2.44,5.51,4.05,5.8,2.07.37,1.91,3.46,1.91,3.46l1.01.44c.17-6.8,5.66-6.14,7.55-5.75,1.55.31,3.12.18,4.48-.61,1.61-.94,2.93-2.11,4-3.33,1.12-1.27,1.97-2.59,2.61-3.76.36-.67,1.41-.33,1.28.42-.2,1.22-.51,2.35-.86,3.34-.11.32-.23.64-.35.93-.36.88.75,1.61,1.47.97.73-.65,1.35-1.28,1.89-1.91.5-.58.93-1.15,1.29-1.7.61-.94,2.12-.55,2.15.56.01.4,0,.78-.02,1.15-.02.48-.07.94-.13,1.35-.09.58.69.87,1.03.39.02-.02.03-.05.05-.07.92-1.33,3.03-.72,3.08.89,0,.13,0,.27,0,.41,0,1.49-.48,2.33-.48,2.33-1.29,2.23-.9,3.03-.9,3.03h1.39s0-1.68,1.97-2.74c1.57-.84,1.97-3.7,1.97-4.89,0-7.07-1.86-12.08-3.43-14.13h0Z"/>
      <g>
        <path class="st3" d="M54.11,38.11c-.02.28-.05.56-.11.86-2.91-1.45-7.03-2.25-11.59.62-.14-.47-.21-.94-.25-1.37-.07-.56-.09-1.23.04-1.87.36-3.02,5.67-3.13,6.43-3.13h.19c.67-.02,1.24,0,1.74.05.23.02.53.06.87.14,1.97.44,2.25,1.47,2.27,1.57.08.17.15.35.19.55.27.91.3,1.79.22,2.57h0Z"/>
        <path class="st4" d="M36.13,38.23h0c-.03.25-.07.48-.11.68-4.7-2.36-8.84-.96-11.53.69-.13-.43-.24-.94-.3-1.5-.1-1.35.19-2.35.19-2.35.01-.08.02-.15.04-.23.05-.18.11-.36.19-.54h0c.46-.96,1.46-1.39,2.28-1.58.25-.06.52-.1.83-.14h.02c.24-.02.39-.02.39-.02.49-.02.94-.04,1.37-.03h.16c3.7.07,5.09,1.2,5.09,1.2.8.43,1.19,1.16,1.35,1.93h0s.14.82.04,1.88h0Z"/>
        <path class="st2" d="M54,38.97c-.13.69-.37,1.43-.8,2.15-.03.06-.05.09-.05.09-.01.01-.02.03-.03.05-.12.2-.26.39-.42.58-.23.29-.5.53-.82.71-.23.14-.54.29-.94.43-1.86.73-4,.32-5.03.03-.03,0-.22-.05-.5-.15-.08-.03-.13-.05-.13-.05-1.7-.65-2.5-1.96-2.86-3.22,4.56-2.87,8.67-2.07,11.59-.62h0Z"/>
        <path class="st2" d="M36.01,38.91c-.05.24-.1.43-.13.53-.02.05-.02.08-.02.08-.52,2.16-2.13,3.02-2.97,3.33h0c-.11.04-.27.09-.49.15h-.01c-2.28.62-3.96.35-5.04-.04h0c-.81-.32-1.56-.86-2.15-1.72-.03-.04-.05-.09-.08-.13-.1-.18-.33-.64-.54-1.28-.02-.08-.05-.16-.07-.24,2.69-1.65,6.83-3.06,11.53-.69h0Z"/>
        <path class="st15" d="M56.58,33.74c-.05-.3-.27-.55-.57-.64-6.18-1.71-10.99-.71-10.99-.71-2.58.44-3.69,1.92-3.69,1.92-.73.77-2.2.44-2.2.44h0s-1.46.33-2.2-.44c0,0-1.11-1.47-3.69-1.92,0,0-4.81-1-10.99.71-.3.08-.52.33-.57.64-.1.64-.19,1.71.28,1.98,0,0,.94.19.94,1.5,0,0,.73,4.31,1.61,5.24,0,0,1.18,2.15,5.18,2.04,0,0,5.46.23,6.52-2.76.14-.4.34-.85.5-1.24l.91-2.6c.1-.28.27-.52.51-.69.23-.17.55-.3.99-.27h0c.44-.03.77.1.99.27.24.17.41.42.51.69l.91,2.6c.16.39.36.85.5,1.24,1.06,2.99,6.52,2.76,6.52,2.76,3.99.12,5.18-2.04,5.18-2.04.87-.93,1.61-5.24,1.61-5.24,0-1.31.94-1.5.94-1.5.47-.27.38-1.34.28-1.98ZM36.13,38.23h0c-.07.58-.2,1.03-.25,1.21,0,.01,0,.03-.01.04-.01.03-.01.05-.01.05-.52,2.16-2.13,3.02-2.97,3.33h0c-.07.02-.17.06-.29.09-.06.02-.13.04-.2.06h-.01c-.67.18-1.29.29-1.86.34-1.36.11-2.42-.1-3.18-.37h0c-.3-.12-.59-.26-.87-.45-.48-.31-.92-.73-1.29-1.27-.01-.02-.02-.04-.04-.06-.01-.02-.03-.05-.05-.07-.06-.11-.18-.34-.31-.65-.08-.18-.16-.4-.24-.64-.02-.08-.05-.16-.07-.24h0c-.13-.44-.24-.94-.3-1.5-.1-1.35.19-2.35.19-2.35.01-.08.02-.15.04-.23.05-.18.11-.36.19-.54h0c.46-.96,1.46-1.39,2.28-1.58.25-.06.52-.1.83-.13h.03c.24-.02.39-.02.39-.02.49-.02.94-.04,1.37-.03h.16c3.7.07,5.09,1.2,5.09,1.2.8.43,1.19,1.16,1.35,1.93h0s.14.82.04,1.88h0ZM54.11,38.11c-.02.32-.07.66-.14,1.01,0,.03-.01.07-.02.1-.02.11-.05.22-.08.33,0,.02-.01.05-.02.07-.03.1-.06.2-.09.3,0,.02-.01.04-.02.06-.04.12-.09.24-.14.36,0,.01-.01.02-.02.04-.05.11-.09.21-.15.31-.01.03-.03.06-.04.08-.06.11-.12.22-.18.33,0,0,0,.01-.01.02-.03.06-.05.09-.05.09,0,.01-.02.02-.02.04,0,0,0,0,0,0-.02.03-.04.06-.06.09-.11.17-.22.33-.36.49-.06.07-.12.14-.18.2-.19.2-.4.37-.64.51-.19.11-.43.24-.73.35-.07.03-.14.05-.21.08-.56.22-1.14.33-1.7.38-1.34.11-2.6-.15-3.33-.35-.01,0-.04,0-.07-.02-.05-.01-.12-.03-.21-.06-.06-.02-.14-.05-.22-.08-.08-.03-.13-.05-.13-.05-.01,0-.02-.01-.03-.01-.08-.03-.16-.06-.24-.1-.03-.01-.06-.02-.08-.04-.07-.04-.14-.07-.21-.11-.01,0-.03-.01-.04-.02-.08-.04-.16-.09-.23-.14-.02-.01-.04-.02-.06-.04-.06-.04-.12-.08-.19-.12-.01-.01-.03-.02-.04-.03-.07-.05-.14-.11-.2-.16-.01-.01-.03-.02-.04-.04-.05-.05-.11-.1-.16-.14l-.04-.04c-.06-.06-.12-.12-.17-.18,0-.01-.02-.02-.02-.03-.05-.05-.1-.11-.14-.17-.01-.01-.02-.02-.03-.04-.05-.06-.1-.13-.15-.2,0,0,0,0,0,0-.05-.06-.09-.13-.13-.2,0-.01-.01-.02-.02-.04-.09-.14-.17-.29-.24-.43,0,0,0-.01,0-.02-.15-.31-.27-.62-.36-.94h0c-.14-.47-.21-.94-.25-1.37-.07-.56-.09-1.23.04-1.87.36-3.02,5.67-3.13,6.43-3.13h.19c.67-.02,1.24,0,1.74.05.23.02.53.06.87.14,1.97.44,2.25,1.47,2.27,1.57.08.17.15.35.19.55.27.91.3,1.79.22,2.57h0Z"/>
      </g>
      <path class="st22" d="M56.37,71.91H22.91c.26-1.09.64-2.22,1-3.16h31.55c.36.88.7,1.95.9,3.16h0Z"/>
      <path class="st22" d="M56.54,74.35h-3.01c0,1.09.03,2.05.06,2.84h-28.04c.03-.79.05-1.74.05-2.84h-3.03c0-.11,0-.22,0-.32h33.97c0,.11,0,.22,0,.32h0Z"/>
      <path class="st22" d="M37.63,66.62h-12.84c.08-.19.13-.3.13-.3.23-.31.46-.59.7-.86.62-.71,1.26-1.28,1.89-1.74.07-.07.16-.13.24-.18.04-.03.08-.06.12-.08h6.93c.71,1.13,1.69,2.41,2.83,3.16h0Z"/>
      <path class="st22" d="M54.41,66.62h-12.9c.75-.49,1.43-1.21,2.01-1.97.31-.4.58-.81.83-1.2h6.94s.06.04.09.06c.07.06.16.11.23.18.89.65,1.79,1.5,2.61,2.62,0,0,.07.1.19.3h0Z"/>
    </g>
  </g>
</svg>