<?xml version="1.0" encoding="UTF-8"?>
<svg id="Layer_2" data-name="Layer 2" xmlns="http://www.w3.org/2000/svg" xmlns:xlink="http://www.w3.org/1999/xlink" viewBox="0 0 221.47 223.59">
  <defs>
    <style>
      .cls-1 {
        fill: none;
      }

      .cls-2 {
        fill: #d6bb9c;
      }

      .cls-3 {
        fill: #462e1b;
      }

      .cls-4 {
        fill: url(#Névtelen_színátmenet_6-2);
      }

      .cls-4, .cls-5, .cls-6 {
        opacity: .54;
      }

      .cls-7 {
        fill: #ba9d82;
      }

      .cls-8 {
        fill: #ccad8a;
      }

      .cls-9 {
        fill: #44361f;
      }

      .cls-10 {
        fill: #d7bd9d;
      }

      .cls-11 {
        fill: #b7326f;
      }

      .cls-5 {
        fill: url(#Névtelen_színátmenet_6);
      }

      .cls-12 {
        fill: #c27976;
      }

      .cls-6 {
        fill: #924991;
      }

      .cls-13 {
        fill: #fff;
      }

      .cls-14 {
        fill: #dcc5a0;
      }

      .cls-15 {
        fill: #272213;
      }

      .cls-16 {
        fill: #ecdab6;
      }

      .cls-17 {
        fill: #af6a6f;
      }

      .cls-18 {
        fill: #b8987d;
      }

      .cls-19 {
        fill: #f7f7f7;
      }

      .cls-20 {
        fill: #ebd9b5;
      }

      .cls-21 {
        fill: #524766;
      }

      .cls-22 {
        fill: #a98d76;
      }

      .cls-23 {
        fill: #a91319;
      }

      .cls-24 {
        fill: #714223;
      }

      .cls-25 {
        fill: #b7967d;
      }

      .cls-26 {
        clip-path: url(#clippath);
      }

      .cls-27 {
        fill: #d2bb9b;
      }

      .cls-28 {
        fill: #b5957e;
      }
    </style>
    <clipPath id="clippath">
      <rect class="cls-1" x="102.16" y="155.04" width="25.1" height="14.8"/>
    </clipPath>
    <linearGradient id="Névtelen_színátmenet_6" data-name="Névtelen színátmenet 6" x1="137.18" y1="126.22" x2="139.14" y2="91.69" gradientUnits="userSpaceOnUse">
      <stop offset="0" stop-color="#fff"/>
      <stop offset="1" stop-color="#ae68a1"/>
    </linearGradient>
    <linearGradient id="Névtelen_színátmenet_6-2" data-name="Névtelen színátmenet 6" x1="88.56" y1="123.45" x2="90.52" y2="88.93" xlink:href="#Névtelen_színátmenet_6"/>
  </defs>
  <g id="Layer_1-2" data-name="Layer 1">
    <g>
      <rect class="cls-21" width="221.47" height="223.59"/>
      <path class="cls-19" d="M170.5,143.19c-1.85-8.14-.72-5.19,1.64-12.6,0,0-.31.15-.81.4,3.47-7.5,5.44-15.78,5.44-24.53,0-33.19-27.77-60.09-62.03-60.09s-62.03,26.9-62.03,60.09c0,8.65,1.92,16.84,5.31,24.26-.17-.08-.29-.14-.29-.14,2.36,7.41,3.49,4.46,1.63,12.6-1.6,7.04-6.35,8.88-6.35,8.88,0,0,7.33-2.67,9.1-4.5.87-.9,3.16-3.35,3.84-4.08.02.02.04.04.05.07-.4.8-1.37,3.41-.02,8.46,1.77,6.59,9.04,11.03,9.04,11.03,0,0-4.37-5.24-3.15-10.98,0,0-.26,2.31,6.82,8.7,7.08,6.39,20.31,12,20.31,12,0,0-.26-3.98-.42-8.33,5.16,1.35,10.55,2.13,16.14,2.13s11.27-.81,16.54-2.23c-.15,4.41-.42,8.43-.42,8.43,0,0,13.24-5.61,20.3-12,7.08-6.39,6.82-8.7,6.82-8.7,1.21,5.74-3.15,10.98-3.15,10.98,0,0,7.28-4.44,9.04-11.03,1.65-6.16-.16-8.74-.17-8.75,0,0,3.03,3.24,4.06,4.3,1.77,1.82,9.09,4.5,9.09,4.5,0,0-4.75-1.84-6.35-8.88"/>
      <path class="cls-14" d="M114.62,139.83v83.76h-45.31c-.74-.29-1.11-.44-1.11-.44,0-10.69,1.57-19.03,3.96-25.53,5.77-15.69,16.32-20.67,21.18-22.17,1.59-.49,2.58-.61,2.58-.61.17,0,.33-.02.5-.04,1.43-.23,2.58-1.47,3.51-3.45.69-1.47,1.27-3.34,1.74-5.51.19-.85.33-1.7.48-2.62.22-1.55.44-3.17.63-4.87.07-1.03.18-2.03.29-3.1.4-5.12.52-10.73.52-16.05,0,0,6.08.63,11.02.63Z"/>
      <path class="cls-20" d="M161.22,223.15s-.41.15-1.07.44h-45.53v-83.76h.11c4.9,0,11.06-.63,11.06-.63,0,5.27.11,10.81.51,15.93.11,1,.22,2.03.29,3.02.19,1.77.41,3.43.67,4.98v.03c.07.7.22,1.33.33,1.99.45,2.18.99,4.1,1.64,5.63.81,1.91,1.8,3.25,3.01,3.77.38.17.79.26,1.21.26,0,0,1.74.21,4.36,1.24,5.33,2.09,14.29,7.57,19.44,21.55,2.39,6.5,3.96,14.84,3.96,25.53Z"/>
      <g class="cls-26">
        <path class="cls-7" d="M127.27,162.99v.04c-1.14,1.76-4.98,6.81-12.57,6.81h-.07c-7.19-.04-11.39-5.24-12.46-6.78.22-1.54.44-3.15.63-4.84.07-.99.18-2.02.3-3.08,3.5.88,7.34,1.43,11.39,1.5h.15c4.2-.07,8.07-.66,11.69-1.61.11.99.22,2.02.29,3,.18,1.76.41,3.41.66,4.95"/>
      </g>
      <path class="cls-8" d="M114.11,44.38c-48,0-48.26,40.12-46.12,66.39-3.28-6.23-13.05-4.32-12.24,5.5.77,9.45,14.73,14.27,14.34,13.23,7.27,19.43,26.51,34.08,44.02,34.08h.37V44.38h-.37"/>
      <path class="cls-22" d="M58.81,112.13c2.36-3.81,6.05-2.16,6.93-1.32.96.92,1.73,2.09,1.14,4.32-.33,1.28-1.66,1.39-1.36,3.3.37,2.16,1.36,2.27,1.95,2.78.55.48,1.25.84,1.59,1.76.37.92.41,1.87.22,2.71-.37,1.54-2.62.29-4.13-.37-1-.48-4.17-3.15-4.98-4.03-1.99-2.27-2.95-6.67-1.36-9.16"/>
      <path class="cls-10" d="M114.36,44.38c48,0,48.26,40.12,46.15,66.39,3.28-6.23,13.01-4.32,12.2,5.5-.74,9.45-14.72,14.27-14.34,13.23-7.08,19.43-26.51,34.08-44.02,34.08h-.26l-.11-119.19h.37"/>
      <path class="cls-22" d="M169.66,112.13c-2.36-3.81-6.01-2.16-6.93-1.32-.96.92-1.7,2.09-1.14,4.32.33,1.28,1.66,1.39,1.36,3.3-.37,2.16-1.36,2.27-1.92,2.78-.55.48-1.29.84-1.62,1.76-.33.92-.41,1.87-.22,2.71.37,1.54,2.62.29,4.13-.37,1.03-.48,4.17-3.15,4.98-4.03,2.03-2.27,2.95-6.67,1.36-9.16"/>
      <path class="cls-14" d="M113.73,55.7c-15.78,0-27.35,4.58-34.32,13.59-9.77,12.64-9.4,31.91-5.82,45.76,1.11,4.25,1.7,15.65,2.43,19.82,3.43,18.72,24.11,28.69,37.71,28.69h.37V55.7h-.22"/>
      <path class="cls-20" d="M148.01,69.34c-6.93-8.98-18.36-13.56-33.92-13.63v107.87c15.56-.18,34.17-11.1,37.34-28.69.77-4.18,1.33-15.57,2.43-19.82,3.61-13.81,3.98-33.05-5.86-45.73"/>
      <path class="cls-1" d="M112.17,144.57c-.22-.04-.42-.08-.59-.11.2.04.4.08.59.11Z"/>
      <path class="cls-1" d="M111.35,144.4c-.14-.03-.27-.06-.36-.08.12.03.24.05.36.08Z"/>
      <path class="cls-25" d="M111.58,144.45c-.08-.02-.15-.03-.23-.05.07.02.14.03.23.05Z"/>
      <path class="cls-25" d="M110.99,144.32c-.07-.02-.13-.04-.2-.06h0s.08.02.21.06Z"/>
      <path class="cls-1" d="M71.07,89.33c-.43,1.43-.73,2.99-.93,4.66,0,0,.63-2.63,2.03-6.52-.6.83-1,1.5-1.1,1.86Z"/>
      <path class="cls-9" d="M100.7,55.97l-.2.2.03.07c.07-.1.1-.2.17-.27Z"/>
      <path class="cls-1" d="M112.32,142.38c-.22-.04-.43-.08-.61-.12.21.04.41.09.61.12Z"/>
      <path class="cls-1" d="M111.48,142.21c-.14-.03-.28-.06-.37-.08.12.03.24.06.37.08Z"/>
      <path class="cls-28" d="M111.71,142.26c-.08-.02-.15-.03-.23-.05.08.02.14.03.23.05Z"/>
      <path class="cls-28" d="M111.11,142.13c-.07-.02-.14-.04-.21-.06h0s.08.02.21.06Z"/>
      <path class="cls-2" d="M104.72,130.87c-.19-3.83,7.03-1.4,9.41-1.28,1.88.1,7.6-1.21,8.09-.87,3.37,2.27-3.57,6.84-8.21,6.84-1.24,0-9.18-2.38-9.29-4.69Z"/>
      <path class="cls-13" d="M79.66,97.81s3.66,15.02,9.95,16.25c6.29,1.23,13.09-1.21,13.09-1.21,0,0,.65-17.65-2.57-19.96-3.22-2.32-10.63-5.66-20.47,4.92Z"/>
      <path class="cls-27" d="M102.71,112.8s-.14.04-.47.18c-.08-5.41-.58-12.85-2.59-14.28-2.99-2.19-9.74-5.27-18.75,3.16-.82-2.33-1.23-4.09-1.23-4.09,9.86-10.61,17.28-7.27,20.47-4.95,3.22,2.32,2.57,19.99,2.57,19.99Z"/>
      <circle class="cls-3" cx="92.8" cy="105.15" r="6.19" transform="translate(-33.61 44.42) rotate(-22.91)"/>
      <path class="cls-24" d="M92.51,109.27c-1.79-.15-3.16-1.95-3-3.93.16-1.98,1.81-3.53,3.6-3.38,1.79.15,3.16,1.95,3,3.93-.16,1.98-1.81,3.54-3.6,3.39Z"/>
      <path class="cls-15" d="M92.67,108.55c-1.24-.11-2.53-1.47-2.4-3.15.14-1.69,1.63-2.82,2.88-2.72,1.24.11,2.53,1.48,2.39,3.16-.14,1.68-1.63,2.82-2.87,2.72Z"/>
      <path class="cls-13" d="M91.66,104.41c-.05.61-.68,1.05-1.39.99-.72-.06-1.26-.6-1.21-1.21.05-.61.67-1.05,1.39-1,.72.06,1.26.6,1.21,1.21Z"/>
      <path class="cls-13" d="M95.67,107.92c-.03.3-.34.53-.69.5-.36-.03-.63-.3-.61-.6.03-.3.34-.53.69-.5.36.03.63.3.61.6Z"/>
      <path class="cls-1" d="M112.42,144.15c-.22-.04-.43-.08-.61-.12.21.04.41.08.61.12Z"/>
      <path class="cls-1" d="M111.58,143.99c-.14-.03-.28-.06-.37-.08.12.03.24.06.37.08Z"/>
      <path class="cls-28" d="M111.81,144.04c-.08-.02-.15-.03-.23-.05.08.02.14.03.23.05Z"/>
      <path class="cls-28" d="M111.21,143.9c-.07-.02-.14-.04-.21-.06h0s.08.02.21.06Z"/>
      <path class="cls-1" d="M112.18,143.74c-.24-.04-.46-.08-.65-.12.22.05.44.09.65.12Z"/>
      <path class="cls-1" d="M111.28,143.56c-.15-.03-.3-.07-.4-.09.13.03.26.06.4.09Z"/>
      <path class="cls-25" d="M111.53,143.61c-.08-.02-.17-.03-.25-.05.08.02.15.03.25.05Z"/>
      <path class="cls-25" d="M110.88,143.47c-.08-.02-.15-.04-.22-.06h0s.09.03.23.06Z"/>
      <path class="cls-1" d="M111.99,143.11c-.24-.04-.46-.08-.65-.12.22.05.44.09.65.12Z"/>
      <path class="cls-1" d="M111.09,142.93c-.15-.03-.3-.07-.4-.09.13.03.26.06.4.09Z"/>
      <path class="cls-25" d="M111.34,142.98c-.08-.02-.17-.03-.25-.05.08.02.15.03.25.05Z"/>
      <path class="cls-25" d="M110.7,142.84c-.08-.02-.15-.04-.22-.06h0s.09.03.23.06Z"/>
      <path class="cls-1" d="M112.55,143.02c-.23-.04-.44-.08-.63-.12.21.05.42.09.63.12Z"/>
      <path class="cls-1" d="M111.68,142.85c-.14-.03-.29-.06-.38-.09.13.03.25.06.38.09Z"/>
      <path class="cls-25" d="M111.92,142.9c-.08-.02-.16-.03-.24-.05.08.02.15.03.24.05Z"/>
      <path class="cls-25" d="M111.29,142.76c-.07-.02-.14-.04-.21-.06h0s.08.03.22.06Z"/>
      <path class="cls-13" d="M148.91,97.3s-3.66,15.02-9.95,16.25c-6.29,1.23-13.09-1.21-13.09-1.21,0,0-.65-17.65,2.57-19.96,3.22-2.32,10.63-5.66,20.47,4.92Z"/>
      <path class="cls-27" d="M125.86,112.29s.14.04.47.18c.08-5.41.58-12.85,2.59-14.28,2.99-2.19,9.74-5.27,18.75,3.16.82-2.33,1.23-4.09,1.23-4.09-9.86-10.61-17.28-7.27-20.47-4.95-3.22,2.32-2.57,19.99-2.57,19.99Z"/>
      <path class="cls-3" d="M129.58,104.64c0,3.42,2.77,6.19,6.19,6.19s6.19-2.77,6.19-6.19-2.77-6.19-6.19-6.19-6.19,2.77-6.19,6.19Z"/>
      <path class="cls-24" d="M136.05,108.76c1.79-.15,3.16-1.95,3-3.93-.16-1.98-1.81-3.53-3.6-3.38-1.79.15-3.16,1.95-3,3.93.16,1.98,1.81,3.54,3.6,3.39Z"/>
      <path class="cls-15" d="M135.9,108.04c1.24-.11,2.53-1.47,2.4-3.15-.14-1.69-1.63-2.82-2.88-2.72-1.24.11-2.53,1.48-2.39,3.16.14,1.68,1.63,2.82,2.87,2.72Z"/>
      <path class="cls-13" d="M136.91,103.9c.05.61.68,1.05,1.39.99.72-.06,1.26-.6,1.21-1.21-.05-.61-.67-1.05-1.39-1-.72.06-1.26.6-1.21,1.21Z"/>
      <path class="cls-13" d="M132.9,107.41c.03.3.34.53.69.5.36-.03.63-.3.61-.6-.03-.3-.34-.53-.69-.49-.36.03-.63.3-.61.6Z"/>
      <g>
        <path d="M106.48,97.57c-.05-.07-1.19-1.81-3.52-3.6-1.46-1.12-2.89-1.97-4.38-2.61-1.81-.76-3.75-1.3-5.63-1.55-1.7-.19-3.59-.14-5.79.16-1.68.32-3.32.82-4.71,1.43-.99.34-1.78.82-2.41,1.21-.24.15-.46.28-.68.4l-3,1.89,3.46-.81c.16-.04.34-.09.52-.14.72-.19,1.61-.43,2.65-.58.24-.04.49-.08.75-.14.44-.09.89-.18,1.36-.2.52-.03,1.07-.07,1.63-.11l.73-.05c1.92-.02,3.54.12,4.97.45,1.57.27,3.19.78,4.67,1.46,1.4.67,2.74,1.33,3.79,2.1,2.11,1.41,3.29,2.59,3.3,2.6h0c.29.29.68.44,1.07.44.28,0,.57-.08.82-.24.7-.46.89-1.4.45-2.07l-.03-.05Z"/>
        <path d="M149.52,93c-.2-.11-.42-.24-.66-.39-.63-.39-1.41-.87-2.38-1.2-1.42-.63-3.06-1.13-4.76-1.45-2.18-.29-4.07-.34-5.78-.15-1.87.26-3.82.79-5.63,1.55-1.46.63-2.94,1.5-4.38,2.61-2.29,1.76-3.43,3.46-3.51,3.59l-.02.03c-.39.59-.3,1.39.2,1.89.28.29.66.44,1.06.44h0c.4,0,.78-.16,1.06-.44h.01c.11-.12,1.25-1.24,3.3-2.61,1.03-.76,2.37-1.42,3.77-2.09,1.49-.69,3.1-1.2,4.7-1.47,1.42-.33,3.04-.47,4.93-.45l.76.05c.55.04,1.09.08,1.62.11.46.02.91.11,1.35.2.25.05.5.1.75.14,1.05.15,1.94.39,2.65.58.19.05.36.1.53.14l3.46.81-3.03-1.9Z"/>
      </g>
      <path class="cls-23" d="M148.42,197.62c1.5,6.75,2.42,15.1,2.42,25.45,0,0-.28.14-.85.52h-70.44c-.57-.39-.85-.52-.85-.52,0-10.33.92-18.68,2.41-25.45h-8.93c5.77-15.69,16.32-20.67,21.18-22.17-.01.15-.02.31-.02.47,0,7.18,9.43,13.04,21.28,13.34.32.01.65.02.97.02,12.18,0,22.08-5.89,22.22-13.2,5.33,2.09,14.29,7.57,19.44,21.55h-8.84Z"/>
      <path class="cls-1" d="M110.19,149.39c-.22-.04-.43-.08-.6-.12.2.04.4.08.6.12Z"/>
      <path class="cls-1" d="M109.36,149.23c-.14-.03-.28-.06-.37-.08.12.03.24.06.37.08Z"/>
      <path class="cls-18" d="M109.59,149.28c-.08-.02-.15-.03-.23-.05.08.02.14.03.23.05Z"/>
      <path class="cls-18" d="M108.99,149.15c-.07-.02-.14-.04-.21-.06h0s.08.02.21.06Z"/>
      <path class="cls-1" d="M110.02,148.81c-.22-.04-.43-.08-.6-.12.21.04.4.08.6.12Z"/>
      <path class="cls-1" d="M109.19,148.65c-.14-.03-.28-.06-.37-.08.12.03.24.06.37.08Z"/>
      <path class="cls-18" d="M109.42,148.7c-.08-.02-.15-.03-.23-.05.08.02.14.03.23.05Z"/>
      <path class="cls-18" d="M108.82,148.56c-.07-.02-.14-.04-.21-.06h0s.08.02.21.06Z"/>
      <path class="cls-1" d="M110.53,148.73c-.22-.04-.41-.08-.58-.11.2.04.39.08.58.11Z"/>
      <path class="cls-1" d="M109.73,148.57c-.13-.03-.27-.06-.35-.08.12.03.23.05.35.08Z"/>
      <path class="cls-18" d="M109.95,148.62c-.07-.02-.15-.03-.22-.05.07.02.14.03.22.05Z"/>
      <path class="cls-18" d="M109.37,148.49c-.07-.02-.13-.04-.2-.06h0s.08.02.21.06Z"/>
      <path class="cls-16" d="M104.92,150.4c-.18-2.39,6.65.5,8.89.57,1.79.06,7.16-.35,7.66-.54,3.76-1.4-.21,3.99-7.77,4.27-3.47.14-8.68-2.85-8.78-4.3Z"/>
      <path class="cls-17" d="M127.43,144.67c-4.33-.81-13.45.05-13.45.05-7.52,1.25-13.41-.08-13.45-.03-.18.02,6.01,8.22,13.35,7.85h0c7.34.38,13.73-7.85,13.55-7.87Z"/>
      <path class="cls-12" d="M118.33,142.94c-1.95-.22-3.34,1.19-4.34,1.09-1.02.09-2.34-.81-4.3-.83-2.76-.03-4.11-.27-9.16,1.5.18.34,3.41,2.22,9.47,2.32.09,0,1.71.92,4.02.91,1.45,0,3.43-.97,3.51-.97,6.07-.09,9.77-1.9,9.94-2.23-6.67-2.07-6.14-1.8-9.14-1.78Z"/>
      <path class="cls-19" d="M163.19,75.83s0-.04,0-.07c-1-18.74-18.21-48.21-18.21-48.21v1.67c-.32,4.26-.09,8.73.51,13.17-6.15-7.51-12.47-13.17-12.47-13.17l.31,1.29c.33,2.01.87,4,1.49,5.97-.31-.12-.61-.27-.93-.39-1.71-.65-3.61-1.09-5.61-1.38-3.31-.47-6.62.95-8.69,3.63-.72.93-1.9,1.38-3.06,1.15-1.89-.37-3.01-.74-8.1-2.43-9.3-3.08-15.32.35-15.32.35,0,0,4.85-.17,7.23,1.83-2.35-1.06-6.39-1.43-13.14,1.5-13.22,5.73-12.98,16.01-22.19,19.16-9.42,3.23-12.15-.92-12.15-.92,0,0,3.4,6.02,9.5,7.11h-.02s.05.01.14.02c.06,0,.11.02.17.03.68.16,2.19,1.03,1.18,5.62h0c-.67,2.51-1.34,5.49-1.57,8.08-.53,5.93,1.13,9.99,1.64,21.09.44,9.49,2.83,4.62,5.67,11.62.96,2.34,1,4.98,1,4.98,1.06.28,3.82-5.69,1.83-16.06-1.29-6.73,5.1-32.26,20.52-27.28h.04c1.92.64,2.63,2.94,1.44,4.57-11.15,15.14-3.12,34.44-3.12,34.44-.21-11.19,5.13-20.14,10.41-26.22,1.52-1.75,4.39-.54,4.24,1.78-.39,6.17,1.29,11.1,1.29,11.1.47-10.13,7.12-17.31,11.79-21.14,1.39-1.13,3.07-1.73,4.79-1.85,4.89,1.63,9.79,4.07,14.36,7.75,6.46,5.2,14.79,11.84,16.52,23.69,0,.02,0,.04,0,.05-.25,3.19-.37,5.75-.39,7.81-.08,8.53,1.49,8.46,1.49,8.46.72,0-.05-4.29,2.34-7.26.66-.81,1.41-2.17,2.15-3.9,1.96-4.56,3.87-11.77,3.87-18.98.37-7.08-.05-13.25-1-18.67Z"/>
      <g>
        <path class="cls-5" d="M157.09,105.11s-.36,3.59-1.85,7.66c-7.69-4.24-19.21-7.03-31.98,2.02-1.13-2.07-2.11-4.56-2.9-7.55,0,0-2.78-7.45,3.27-10.55,0,0,14.4-6.54,29.2-1.23,0,0,5.32,1.39,4.25,9.66Z"/>
        <path class="cls-6" d="M155.24,112.77c-1.7,4.63-4.87,9.85-10.66,11.07,0,0-13.79,4.76-21.32-9.05,12.77-9.06,24.29-6.26,31.98-2.02Z"/>
        <path class="cls-11" d="M160.12,94.72s-24.54-8.51-39.02.66c0,0-4.63,3.47-6.81,3.06v-.12c-.06.03-.13.05-.19.07h0c-.07-.02-.13-.04-.19-.07v.12c-2.18.4-6.81-3.06-6.81-3.06-14.48-9.17-39.02-.66-39.02-.66-2.32.66-1.79,2.93-1.51,3.77.05.16.13.31.21.46.73,1.31,2.3,8.34,2.83,10.79.14.66.31,1.31.52,1.96,5.3,16.53,18.16,14.97,21.41,14.29.58-.12,1.17-.2,1.75-.27,12.81-1.64,17.24-19.21,17.24-19.21.93-3.1,2.62-3.38,3.37-3.33v.06s.07-.02.2-.04c.12.02.19.04.19.04v-.06c.75-.05,2.44.23,3.37,3.33,0,0,4.43,17.57,17.24,19.21.59.07,1.17.15,1.75.27,3.24.68,16.11,2.24,21.41-14.29.2-.64.38-1.3.52-1.96.53-2.46,2.11-9.48,2.83-10.79.08-.15.16-.29.21-.46.29-.84.81-3.11-1.51-3.77ZM107.83,107.24c-5.97,22.9-24.21,16.6-24.21,16.6-10.88-2.29-12.52-18.73-12.52-18.73-1.06-8.26,4.25-9.66,4.25-9.66,14.81-5.32,29.2,1.23,29.2,1.23,6.05,3.11,3.27,10.55,3.27,10.55ZM157.09,105.11s-1.64,16.44-12.52,18.73c0,0-18.24,6.3-24.21-16.6,0,0-2.78-7.45,3.27-10.55,0,0,14.4-6.54,29.2-1.23,0,0,5.32,1.39,4.25,9.66Z"/>
        <path class="cls-4" d="M107.83,107.24c-.59,2.28-1.31,4.27-2.12,6-13.3-8.04-25.02-3.63-32.15,1.06-2.01-4.64-2.46-9.18-2.46-9.18-1.06-8.26,4.25-9.66,4.25-9.66,14.81-5.32,29.2,1.23,29.2,1.23,6.05,3.11,3.27,10.55,3.27,10.55Z"/>
        <path class="cls-6" d="M105.71,113.24c-7.3,15.71-22.09,10.6-22.09,10.6-5.16-1.09-8.24-5.36-10.05-9.55,7.13-4.68,18.84-9.1,32.15-1.06Z"/>
      </g>
    </g>
  </g>
</svg>