<?xml version="1.0" encoding="UTF-8"?>
<svg id="Layer_2" xmlns="http://www.w3.org/2000/svg" version="1.1" xmlns:xlink="http://www.w3.org/1999/xlink" viewBox="0 0 78.88 78.88">
  <!-- Generator: Adobe Illustrator 30.2.1, SVG Export Plug-In . SVG Version: 2.1.1 Build 1)  -->
  <defs>
    <style>
      .st0 {
        fill: #b5957e;
      }

      .st1 {
        fill: #b8987d;
      }

      .st2 {
        fill: #714223;
      }

      .st3 {
        fill: #ccad8a;
      }

      .st4 {
        fill: #ecdab6;
      }

      .st5 {
        fill: #d7bd9d;
      }

      .st6 {
        fill: #fff;
      }

      .st7 {
        fill: #272213;
      }

      .st8 {
        fill: #b7967d;
      }

      .st9 {
        fill: #c27976;
      }

      .st10 {
        fill: none;
      }

      .st11 {
        fill: #a91319;
      }

      .st12 {
        fill: #af6a6f;
      }

      .st13 {
        fill: #d2bb9b;
      }

      .st14 {
        fill: #ba9d82;
      }

      .st15 {
        fill: #dcc5a0;
      }

      .st16 {
        fill: #b7326f;
      }

      .st17 {
        fill: #d6bb9c;
      }

      .st18 {
        fill: url(#linear-gradient);
      }

      .st18, .st19, .st20 {
        isolation: isolate;
        opacity: .54;
      }

      .st21 {
        fill: #44361f;
      }

      .st19 {
        fill: url(#linear-gradient1);
      }

      .st22 {
        fill: #524766;
      }

      .st23 {
        fill: #a98d76;
      }

      .st24 {
        fill: #462e1b;
      }

      .st20 {
        fill: #924991;
      }

      .st25 {
        clip-path: url(#clippath);
      }

      .st26 {
        fill: #f7f7f7;
      }

      .st27 {
        fill: #ebd9b5;
      }
    </style>
    <clipPath id="clippath">
      <rect class="st10" x="36.39" y="54.7" width="8.94" height="5.22"/>
    </clipPath>
    <linearGradient id="linear-gradient" x1="48.86" y1="36.76" x2="49.55" y2="48.94" gradientTransform="translate(0 81.29) scale(1 -1)" gradientUnits="userSpaceOnUse">
      <stop offset="0" stop-color="#fff"/>
      <stop offset="1" stop-color="#ae68a1"/>
    </linearGradient>
    <linearGradient id="linear-gradient1" x1="31.55" y1="37.73" x2="32.24" y2="49.92" gradientTransform="translate(0 81.29) scale(1 -1)" gradientUnits="userSpaceOnUse">
      <stop offset="0" stop-color="#fff"/>
      <stop offset="1" stop-color="#ae68a1"/>
    </linearGradient>
  </defs>
  <g id="Layer_1-2">
    <g>
      <rect class="st22" width="78.88" height="78.88"/>
      <path class="st26" d="M60.73,50.52c-.66-2.87-.26-1.83.58-4.45,0,0-.11.05-.29.14,1.24-2.65,1.94-5.57,1.94-8.65,0-11.71-9.89-21.2-22.09-21.2s-22.09,9.49-22.09,21.2c0,3.05.68,5.94,1.89,8.56-.06-.03-.1-.05-.1-.05.84,2.61,1.24,1.57.58,4.45-.57,2.48-2.26,3.13-2.26,3.13,0,0,2.61-.94,3.24-1.59.31-.32,1.13-1.18,1.37-1.44,0,0,.01.01.02.02-.14.28-.49,1.2,0,2.98.63,2.32,3.22,3.89,3.22,3.89,0,0-1.56-1.85-1.12-3.87,0,0-.09.81,2.43,3.07s7.23,4.23,7.23,4.23c0,0-.09-1.4-.15-2.94,1.84.48,3.76.75,5.75.75s4.01-.29,5.89-.79c-.05,1.56-.15,2.97-.15,2.97,0,0,4.72-1.98,7.23-4.23,2.52-2.25,2.43-3.07,2.43-3.07.43,2.03-1.12,3.87-1.12,3.87,0,0,2.59-1.57,3.22-3.89.59-2.17-.06-3.08-.06-3.09,0,0,1.08,1.14,1.45,1.52.63.64,3.24,1.59,3.24,1.59,0,0-1.69-.65-2.26-3.13"/>
      <path class="st15" d="M40.82,49.33v29.55h-16.14c-.26-.1-.4-.16-.4-.16,0-3.77.56-6.71,1.41-9.01,2.06-5.54,5.81-7.29,7.54-7.82.57-.17.92-.22.92-.22.06,0,.12,0,.18-.01.51-.08.92-.52,1.25-1.22.25-.52.45-1.18.62-1.94.07-.3.12-.6.17-.92.08-.55.16-1.12.22-1.72.02-.36.06-.72.1-1.09.14-1.81.19-3.79.19-5.66,0,0,2.17.22,3.92.22h0Z"/>
      <path class="st27" d="M57.42,78.72s-.15.05-.38.16h-16.22v-29.55h.04c1.75,0,3.94-.22,3.94-.22,0,1.86.04,3.81.18,5.62.04.35.08.72.1,1.07.07.62.15,1.21.24,1.76h0c.02.26.08.48.12.71.16.77.35,1.45.58,1.99.29.67.64,1.15,1.07,1.33.14.06.28.09.43.09,0,0,.62.07,1.55.44,1.9.74,5.09,2.67,6.92,7.6.85,2.29,1.41,5.24,1.41,9.01h0Z"/>
      <g class="st25">
        <path class="st14" d="M45.33,57.5h0c-.41.64-1.77,2.42-4.48,2.42h-.02c-2.56-.01-4.06-1.85-4.44-2.39.08-.54.16-1.11.22-1.71.02-.35.06-.71.11-1.09,1.25.31,2.61.5,4.06.53h.05c1.5-.02,2.87-.23,4.16-.57.04.35.08.71.1,1.06.06.62.15,1.2.24,1.75"/>
      </g>
      <path class="st3" d="M40.64,15.66c-17.1,0-17.19,14.15-16.43,23.42-1.17-2.2-4.65-1.52-4.36,1.94.27,3.33,5.25,5.03,5.11,4.67,2.59,6.85,9.44,12.02,15.68,12.02h.13V15.66h-.13"/>
      <path class="st23" d="M20.95,39.56c.84-1.34,2.15-.76,2.47-.47.34.32.62.74.41,1.52-.12.45-.59.49-.48,1.16.13.76.48.8.69.98.2.17.45.3.57.62.13.32.15.66.08.96-.13.54-.93.1-1.47-.13-.36-.17-1.49-1.11-1.77-1.42-.71-.8-1.05-2.35-.48-3.23"/>
      <path class="st5" d="M40.73,15.66c17.1,0,17.19,14.15,16.44,23.42,1.17-2.2,4.63-1.52,4.35,1.94-.26,3.33-5.24,5.03-5.11,4.67-2.52,6.85-9.44,12.02-15.68,12.02h-.09l-.04-42.05h.13"/>
      <path class="st23" d="M60.43,39.56c-.84-1.34-2.14-.76-2.47-.47-.34.32-.61.74-.41,1.52.12.45.59.49.48,1.16-.13.76-.48.8-.68.98-.2.17-.46.3-.58.62-.12.32-.15.66-.08.96.13.54.93.1,1.47-.13.37-.17,1.49-1.11,1.77-1.42.72-.8,1.05-2.35.48-3.23"/>
      <path class="st15" d="M40.51,19.65c-5.62,0-9.74,1.62-12.22,4.79-3.48,4.46-3.35,11.26-2.07,16.14.4,1.5.61,5.52.87,6.99,1.22,6.6,8.59,10.12,13.43,10.12h.13V19.65h-.08"/>
      <path class="st27" d="M52.72,24.46c-2.47-3.17-6.54-4.78-12.08-4.81v38.06c5.54-.06,12.17-3.92,13.3-10.12.27-1.47.47-5.49.87-6.99,1.29-4.87,1.42-11.66-2.09-16.13"/>
      <path class="st10" d="M39.95,51c-.08-.01-.15-.03-.21-.04.07.01.14.03.21.04Z"/>
      <path class="st10" d="M39.66,50.94s-.1-.02-.13-.03c.04.01.09.02.13.03Z"/>
      <path class="st8" d="M39.74,50.96s-.05-.01-.08-.02c.02,0,.05.01.08.02Z"/>
      <path class="st8" d="M39.53,50.91s-.05-.01-.07-.02h0s.03,0,.07.02h0Z"/>
      <path class="st10" d="M25.31,31.51c-.15.5-.26,1.05-.33,1.64,0,0,.22-.93.72-2.3-.21.29-.36.53-.39.66Z"/>
      <path class="st21" d="M35.87,19.75l-.07.07v.02s.05-.07.07-.1Z"/>
      <path class="st10" d="M40,50.23c-.08-.01-.15-.03-.22-.04.07.01.15.03.22.04Z"/>
      <path class="st10" d="M39.71,50.17s-.1-.02-.13-.03c.04.01.09.02.13.03Z"/>
      <path class="st0" d="M39.79,50.19s-.05-.01-.08-.02c.03,0,.05.01.08.02Z"/>
      <path class="st0" d="M39.57,50.14s-.05-.01-.07-.02h0s.03,0,.07.02Z"/>
      <path class="st17" d="M37.3,46.17c-.07-1.35,2.5-.49,3.35-.45.67.04,2.71-.43,2.88-.31,1.2.8-1.27,2.41-2.92,2.41-.44,0-3.27-.84-3.31-1.65Z"/>
      <path class="st6" d="M28.37,34.51s1.3,5.3,3.54,5.73c2.24.43,4.66-.43,4.66-.43,0,0,.23-6.23-.92-7.04-1.15-.82-3.79-2-7.29,1.74Z"/>
      <path class="st13" d="M36.58,39.79s-.05.01-.17.06c-.03-1.91-.21-4.53-.92-5.04-1.06-.77-3.47-1.86-6.68,1.11-.29-.82-.44-1.44-.44-1.44,3.51-3.74,6.15-2.56,7.29-1.75,1.15.82.92,7.05.92,7.05h0Z"/>
      <ellipse class="st24" cx="33.05" cy="37.1" rx="2.2" ry="2.18"/>
      <path class="st2" d="M32.95,38.55c-.64-.05-1.13-.69-1.07-1.39s.64-1.25,1.28-1.19,1.13.69,1.07,1.39-.64,1.25-1.28,1.2h0Z"/>
      <path class="st7" d="M33.01,38.3c-.44-.04-.9-.52-.85-1.11.05-.6.58-.99,1.03-.96.44.04.9.52.85,1.11s-.58.99-1.02.96h0Z"/>
      <path class="st6" d="M32.65,36.83c-.02.22-.24.37-.5.35-.26-.02-.45-.21-.43-.43s.24-.37.5-.35c.26.02.45.21.43.43h0Z"/>
      <path class="st6" d="M34.07,38.07c-.01.11-.12.19-.25.18-.13-.01-.22-.11-.22-.21.01-.11.12-.19.25-.18.13.01.22.11.22.21Z"/>
      <path class="st10" d="M40.04,50.85c-.08-.01-.15-.03-.22-.04.07.01.15.03.22.04Z"/>
      <path class="st10" d="M39.74,50.8s-.1-.02-.13-.03c.04.01.09.02.13.03Z"/>
      <path class="st0" d="M39.82,50.82s-.05-.01-.08-.02c.03,0,.05.01.08.02Z"/>
      <path class="st0" d="M39.61,50.77s-.05-.01-.07-.02h0s.03,0,.07.02Z"/>
      <path class="st10" d="M39.95,50.71c-.09-.01-.16-.03-.23-.04.08.02.16.03.23.04Z"/>
      <path class="st10" d="M39.63,50.65c-.05-.01-.11-.02-.14-.03.05.01.09.02.14.03Z"/>
      <path class="st8" d="M39.72,50.66s-.06-.01-.09-.02c.03,0,.05.01.09.02Z"/>
      <path class="st8" d="M39.49,50.61s-.05-.01-.08-.02h0s.03.01.08.02h0Z"/>
      <path class="st10" d="M39.89,50.49c-.09-.01-.16-.03-.23-.04.08.02.16.03.23.04Z"/>
      <path class="st10" d="M39.57,50.42c-.05-.01-.11-.02-.14-.03.05.01.09.02.14.03Z"/>
      <path class="st8" d="M39.66,50.44s-.06-.01-.09-.02c.03,0,.05.01.09.02Z"/>
      <path class="st8" d="M39.43,50.39s-.05-.01-.08-.02h0s.03.01.08.02h0Z"/>
      <path class="st10" d="M40.09,50.46c-.08-.01-.16-.03-.22-.04.07.02.15.03.22.04Z"/>
      <path class="st10" d="M39.78,50.4s-.1-.02-.14-.03c.05.01.09.02.14.03Z"/>
      <path class="st8" d="M39.86,50.41s-.06-.01-.09-.02c.03,0,.05.01.09.02Z"/>
      <path class="st8" d="M39.64,50.36s-.05-.01-.07-.02h0s.03.01.08.02h0Z"/>
      <path class="st6" d="M53.04,34.33s-1.3,5.3-3.54,5.73c-2.24.43-4.66-.43-4.66-.43,0,0-.23-6.23.92-7.04,1.15-.82,3.79-2,7.29,1.74h0Z"/>
      <path class="st13" d="M44.83,39.61s.05.01.17.06c.03-1.91.21-4.53.92-5.04,1.06-.77,3.47-1.86,6.68,1.11.29-.82.44-1.44.44-1.44-3.51-3.74-6.15-2.56-7.29-1.75-1.15.82-.92,7.05-.92,7.05h0Z"/>
      <path class="st24" d="M46.15,36.92c0,1.21.99,2.18,2.2,2.18s2.2-.98,2.2-2.18-.99-2.18-2.2-2.18-2.2.98-2.2,2.18Z"/>
      <path class="st2" d="M48.46,38.37c.64-.05,1.13-.69,1.07-1.39s-.64-1.25-1.28-1.19c-.64.05-1.13.69-1.07,1.39s.64,1.25,1.28,1.2h0Z"/>
      <path class="st7" d="M48.4,38.12c.44-.04.9-.52.85-1.11-.05-.6-.58-.99-1.03-.96-.44.04-.9.52-.85,1.11s.58.99,1.02.96h0Z"/>
      <path class="st6" d="M48.76,36.65c.02.22.24.37.5.35.26-.02.45-.21.43-.43-.02-.22-.24-.37-.5-.35-.26.02-.45.21-.43.43h0Z"/>
      <path class="st6" d="M47.33,37.89c.01.11.12.19.25.18.13-.01.22-.11.22-.21-.01-.11-.12-.19-.25-.17-.13.01-.22.11-.22.21h0Z"/>
      <g>
        <path d="M37.92,34.42s-.42-.64-1.25-1.27c-.52-.4-1.03-.69-1.56-.92-.64-.27-1.34-.46-2.01-.55-.61-.07-1.28-.05-2.06.06-.6.11-1.18.29-1.68.5-.35.12-.63.29-.86.43-.09.05-.16.1-.24.14l-1.07.67,1.23-.29c.06-.01.12-.03.19-.05.26-.07.57-.15.94-.2.09-.01.17-.03.27-.05.16-.03.32-.06.48-.07.19-.01.38-.02.58-.04l.26-.02c.68,0,1.26.04,1.77.16.56.1,1.14.28,1.66.52.5.24.98.47,1.35.74.75.5,1.17.91,1.18.92h0c.1.1.24.16.38.16.1,0,.2-.03.29-.08.25-.16.32-.49.16-.73v-.02s-.02,0-.02,0Z"/>
        <path d="M53.25,32.81c-.07-.04-.15-.08-.24-.14-.22-.14-.5-.31-.85-.42-.51-.22-1.09-.4-1.7-.51-.78-.1-1.45-.12-2.06-.05-.67.09-1.36.28-2.01.55-.52.22-1.05.53-1.56.92-.82.62-1.22,1.22-1.25,1.27h0c-.14.22-.11.5.07.68.1.1.24.16.38.16h0c.14,0,.28-.06.38-.16h0s.45-.44,1.18-.92c.37-.27.84-.5,1.34-.74.53-.24,1.1-.42,1.67-.52.51-.12,1.08-.17,1.76-.16l.27.02c.2.01.39.03.58.04.16,0,.32.04.48.07.09.02.18.04.27.05.37.05.69.14.94.2.07.02.13.04.19.05l1.23.29-1.08-.67h0Z"/>
      </g>
      <path class="st11" d="M52.86,69.72c.53,2.38.86,5.33.86,8.98,0,0-.1.05-.3.18h-25.09c-.2-.14-.3-.18-.3-.18,0-3.64.33-6.59.86-8.98h-3.18c2.06-5.54,5.81-7.29,7.54-7.82,0,.05,0,.11,0,.17,0,2.53,3.36,4.6,7.58,4.71.11,0,.23,0,.35,0,4.34,0,7.86-2.08,7.91-4.66,1.9.74,5.09,2.67,6.92,7.6h-3.15,0Z"/>
      <path class="st10" d="M39.25,52.7c-.08-.01-.15-.03-.21-.04.07.01.14.03.21.04Z"/>
      <path class="st10" d="M38.95,52.65s-.1-.02-.13-.03c.04.01.09.02.13.03Z"/>
      <path class="st1" d="M39.03,52.66s-.05-.01-.08-.02c.03,0,.05.01.08.02Z"/>
      <path class="st1" d="M38.82,52.62s-.05-.01-.07-.02h0s.03,0,.07.02Z"/>
      <path class="st10" d="M39.19,52.5c-.08-.01-.15-.03-.21-.04.07.01.14.03.21.04Z"/>
      <path class="st10" d="M38.89,52.44s-.1-.02-.13-.03c.04.01.09.02.13.03Z"/>
      <path class="st1" d="M38.97,52.46s-.05-.01-.08-.02c.03,0,.05.01.08.02Z"/>
      <path class="st1" d="M38.76,52.41s-.05-.01-.07-.02h0s.03,0,.07.02Z"/>
      <path class="st10" d="M39.37,52.47c-.08-.01-.15-.03-.21-.04.07.01.14.03.21.04Z"/>
      <path class="st10" d="M39.08,52.41s-.1-.02-.12-.03c.04.01.08.02.12.03Z"/>
      <path class="st1" d="M39.16,52.43s-.05-.01-.08-.02c.02,0,.05.01.08.02Z"/>
      <path class="st1" d="M38.95,52.39s-.05-.01-.07-.02h0s.03,0,.07.02h0Z"/>
      <path class="st4" d="M37.37,53.06c-.06-.84,2.37.18,3.17.2.64.02,2.55-.12,2.73-.19,1.34-.49-.07,1.41-2.77,1.51-1.24.05-3.09-1.01-3.13-1.52h0Z"/>
      <path class="st12" d="M45.39,51.04c-1.54-.29-4.79.02-4.79.02-2.68.44-4.78-.03-4.79-.01-.06,0,2.14,2.9,4.75,2.77h0c2.61.13,4.89-2.77,4.83-2.78h0Z"/>
      <path class="st9" d="M42.15,50.43c-.69-.08-1.19.42-1.55.38-.36.03-.83-.29-1.53-.29-.98-.01-1.46-.1-3.26.53.06.12,1.21.78,3.37.82.03,0,.61.32,1.43.32.52,0,1.22-.34,1.25-.34,2.16-.03,3.48-.67,3.54-.79-2.38-.73-2.19-.64-3.26-.63h0Z"/>
      <path class="st26" d="M58.12,26.75v-.02c-.36-6.61-6.49-17.01-6.49-17.01v.59c-.11,1.5-.03,3.08.18,4.65-2.19-2.65-4.44-4.65-4.44-4.65l.11.46c.12.71.31,1.41.53,2.11-.11-.04-.22-.1-.33-.14-.61-.23-1.29-.38-2-.49-1.18-.17-2.36.34-3.1,1.28-.26.33-.68.49-1.09.41-.67-.13-1.07-.26-2.88-.86-3.31-1.09-5.46.12-5.46.12,0,0,1.73-.06,2.58.65-.84-.37-2.28-.5-4.68.53-4.71,2.02-4.62,5.65-7.9,6.76-3.36,1.14-4.33-.32-4.33-.32,0,0,1.21,2.12,3.38,2.51h0s.02,0,.05,0c.02,0,.04,0,.06.01.24.06.78.36.42,1.98h0c-.24.89-.48,1.94-.56,2.85-.19,2.09.4,3.52.58,7.44.16,3.35,1.01,1.63,2.02,4.1.34.83.36,1.76.36,1.76.38.1,1.36-2.01.65-5.67-.46-2.37,1.82-11.38,7.31-9.62h.01c.68.23.94,1.04.51,1.61-3.97,5.34-1.11,12.15-1.11,12.15-.07-3.95,1.83-7.11,3.71-9.25.54-.62,1.56-.19,1.51.63-.14,2.18.46,3.92.46,3.92.17-3.57,2.54-6.11,4.2-7.46.5-.4,1.09-.61,1.71-.65,1.74.58,3.49,1.44,5.11,2.73,2.3,1.83,5.27,4.18,5.88,8.36v.02c-.09,1.13-.13,2.03-.14,2.76-.03,3.01.53,2.98.53,2.98.26,0-.02-1.51.83-2.56.24-.29.5-.77.77-1.38.7-1.61,1.38-4.15,1.38-6.7.13-2.5-.02-4.67-.36-6.59h.02Z"/>
      <g>
        <path class="st18" d="M55.95,37.08s-.13,1.27-.66,2.7c-2.74-1.5-6.84-2.48-11.39.71-.4-.73-.75-1.61-1.03-2.66,0,0-.99-2.63,1.16-3.72,0,0,5.13-2.31,10.4-.43,0,0,1.89.49,1.51,3.41h0Z"/>
        <path class="st20" d="M55.29,39.78c-.61,1.63-1.73,3.47-3.8,3.91,0,0-4.91,1.68-7.59-3.19,4.55-3.2,8.65-2.21,11.39-.71Z"/>
        <path class="st16" d="M57.03,33.42s-8.74-3-13.9.23c0,0-1.65,1.22-2.43,1.08v-.04s-.05.02-.07.02h0s-.05-.01-.07-.02v.04c-.78.14-2.43-1.08-2.43-1.08-5.16-3.24-13.9-.23-13.9-.23-.83.23-.64,1.03-.54,1.33.02.06.05.11.07.16.26.46.82,2.94,1.01,3.81.05.23.11.46.19.69,1.89,5.83,6.47,5.28,7.63,5.04.21-.04.42-.07.62-.1,4.56-.58,6.14-6.78,6.14-6.78.33-1.09.93-1.19,1.2-1.17v.02s.02,0,.07-.01c.04,0,.07.01.07.01v-.02c.27-.02.87.08,1.2,1.17,0,0,1.58,6.2,6.14,6.78.21.02.42.05.62.1,1.15.24,5.74.79,7.63-5.04.07-.23.14-.46.19-.69.19-.87.75-3.34,1.01-3.81.03-.05.06-.1.07-.16.1-.3.29-1.1-.54-1.33h0ZM38.41,37.83c-2.13,8.08-8.62,5.86-8.62,5.86-3.88-.81-4.46-6.61-4.46-6.61-.38-2.91,1.51-3.41,1.51-3.41,5.27-1.88,10.4.43,10.4.43,2.15,1.1,1.16,3.72,1.16,3.72h0ZM55.95,37.08s-.58,5.8-4.46,6.61c0,0-6.5,2.22-8.62-5.86,0,0-.99-2.63,1.16-3.72,0,0,5.13-2.31,10.4-.43,0,0,1.89.49,1.51,3.41h0Z"/>
        <path class="st19" d="M38.41,37.83c-.21.8-.47,1.51-.76,2.12-4.74-2.84-8.91-1.28-11.45.37-.72-1.64-.88-3.24-.88-3.24-.38-2.91,1.51-3.41,1.51-3.41,5.27-1.88,10.4.43,10.4.43,2.15,1.1,1.16,3.72,1.16,3.72h0Z"/>
        <path class="st20" d="M37.65,39.95c-2.6,5.54-7.87,3.74-7.87,3.74-1.84-.38-2.93-1.89-3.58-3.37,2.54-1.65,6.71-3.21,11.45-.37h0Z"/>
      </g>
    </g>
  </g>
</svg>