<?xml version="1.0" encoding="UTF-8"?>
<svg id="Layer_2" xmlns="http://www.w3.org/2000/svg" version="1.1" xmlns:xlink="http://www.w3.org/1999/xlink" viewBox="0 0 78.88 78.88">
  <!-- Generator: Adobe Illustrator 30.2.1, SVG Export Plug-In . SVG Version: 2.1.1 Build 1)  -->
  <defs>
    <style>
      .st0 {
        fill: #a20d49;
      }

      .st1 {
        fill: #b5957e;
      }

      .st2 {
        fill: #b8987d;
      }

      .st3 {
        fill: #714223;
      }

      .st4 {
        fill: #ccad8a;
      }

      .st5 {
        fill: #ecdab6;
      }

      .st6 {
        fill: #d7bd9d;
      }

      .st7 {
        fill: #fff;
      }

      .st8 {
        fill: #272213;
      }

      .st9 {
        fill: #b7967d;
      }

      .st10 {
        fill: #c27976;
      }

      .st11 {
        fill: none;
      }

      .st12 {
        fill: url(#linear-gradient3);
      }

      .st12, .st13 {
        opacity: .62;
      }

      .st12, .st13, .st14, .st15 {
        isolation: isolate;
      }

      .st13 {
        fill: url(#linear-gradient2);
      }

      .st16 {
        fill: #af6a6f;
      }

      .st17 {
        fill: #403317;
      }

      .st18 {
        fill: #d2bb9b;
      }

      .st19 {
        fill: #ba9d82;
      }

      .st20 {
        fill: #dcc5a0;
      }

      .st21 {
        fill: #d6bb9c;
      }

      .st14 {
        fill: url(#linear-gradient);
      }

      .st14, .st15 {
        opacity: .66;
      }

      .st15 {
        fill: url(#linear-gradient1);
      }

      .st22 {
        fill: #44361f;
      }

      .st23 {
        fill: #d99100;
      }

      .st24 {
        fill: #a98d76;
      }

      .st25 {
        fill: #462e1b;
      }

      .st26 {
        clip-path: url(#clippath);
      }

      .st27 {
        fill: #ebd9b5;
      }

      .st28 {
        fill: #3c3d39;
      }
    </style>
    <clipPath id="clippath">
      <rect class="st11" x="36.18" y="54.69" width="8.86" height="5.22"/>
    </clipPath>
    <linearGradient id="linear-gradient" x1="31.36" y1="33.58" x2="30.47" y2="59.83" gradientTransform="translate(0 81.28) scale(1 -1)" gradientUnits="userSpaceOnUse">
      <stop offset="0" stop-color="#fff"/>
      <stop offset="1" stop-color="#6189ae"/>
    </linearGradient>
    <linearGradient id="linear-gradient1" x1="49.31" y1="34.3" x2="48.42" y2="60.47" gradientTransform="translate(0 81.28) scale(1 -1)" gradientUnits="userSpaceOnUse">
      <stop offset="0" stop-color="#fff"/>
      <stop offset="1" stop-color="#6189ae"/>
    </linearGradient>
    <linearGradient id="linear-gradient2" x1="30.94" y1="38.48" x2="31.24" y2="47.68" gradientTransform="translate(0 81.28) scale(1 -1)" gradientUnits="userSpaceOnUse">
      <stop offset="0" stop-color="#fff"/>
      <stop offset="1" stop-color="#6189ae"/>
    </linearGradient>
    <linearGradient id="linear-gradient3" x1="48.81" y1="37.74" x2="49.11" y2="47.01" gradientTransform="translate(0 81.28) scale(1 -1)" gradientUnits="userSpaceOnUse">
      <stop offset="0" stop-color="#fff"/>
      <stop offset="1" stop-color="#6189ae"/>
    </linearGradient>
  </defs>
  <g id="Layer_1-2">
    <g>
      <rect class="st0" width="78.88" height="78.88"/>
      <path class="st20" d="M40.58,49.33v29.55h-16c-.26-.1-.39-.16-.39-.16,0-3.77.55-6.71,1.4-9.01,2.04-5.54,5.76-7.29,7.48-7.82.56-.17.91-.22.91-.22.06,0,.12,0,.18-.01.51-.08.91-.52,1.24-1.22.24-.52.45-1.18.61-1.94.07-.3.12-.6.17-.92.08-.55.16-1.12.22-1.72.02-.36.06-.72.1-1.09.14-1.81.18-3.79.18-5.66,0,0,2.15.22,3.89.22h0Z"/>
      <path class="st27" d="M57.04,78.72s-.14.05-.38.16h-16.08v-29.55h.04c1.73,0,3.91-.22,3.91-.22,0,1.86.04,3.81.18,5.62.04.35.08.72.1,1.07.07.62.14,1.21.24,1.76h0c.02.26.08.48.12.71.16.77.35,1.45.58,1.99.29.67.64,1.15,1.06,1.33.13.06.28.09.43.09,0,0,.61.07,1.54.44,1.88.74,5.05,2.67,6.87,7.6.84,2.29,1.4,5.24,1.4,9.01h0Z"/>
      <g class="st26">
        <path class="st19" d="M45.05,57.5h0c-.4.63-1.76,2.42-4.44,2.42h-.02c-2.54-.01-4.02-1.85-4.4-2.39.08-.54.16-1.11.22-1.71.02-.35.06-.71.1-1.09,1.24.31,2.59.5,4.02.53h.05c1.48-.02,2.85-.23,4.13-.57.04.35.08.71.1,1.06.06.62.14,1.2.23,1.75"/>
      </g>
      <path class="st4" d="M40.4,15.66c-16.95,0-17.04,14.15-16.29,23.42-1.16-2.2-4.61-1.52-4.32,1.94.27,3.33,5.2,5.03,5.06,4.67,2.57,6.85,9.36,12.02,15.55,12.02h.13V15.66h-.13"/>
      <path class="st24" d="M20.87,39.56c.83-1.34,2.14-.76,2.45-.47.34.32.61.74.4,1.52-.12.45-.59.49-.48,1.16.13.76.48.8.69.98.19.17.44.3.56.62.13.32.14.66.08.96-.13.54-.93.1-1.46-.13-.35-.17-1.47-1.11-1.76-1.42-.7-.8-1.04-2.35-.48-3.23"/>
      <path class="st6" d="M40.49,15.66c16.95,0,17.04,14.15,16.3,23.42,1.16-2.2,4.59-1.52,4.31,1.94-.26,3.33-5.2,5.03-5.06,4.67-2.5,6.85-9.36,12.02-15.55,12.02h-.09l-.04-42.05h.13"/>
      <path class="st24" d="M60.02,39.56c-.83-1.34-2.12-.76-2.45-.47-.34.32-.6.74-.4,1.52.12.45.59.49.48,1.16-.13.76-.48.8-.68.98-.19.17-.46.3-.57.62-.12.32-.14.66-.08.96.13.54.93.1,1.46-.13.36-.17,1.47-1.11,1.76-1.42.72-.8,1.04-2.35.48-3.23"/>
      <path class="st20" d="M40.26,19.65c-5.57,0-9.66,1.62-12.12,4.79-3.45,4.46-3.32,11.26-2.06,16.14.39,1.5.6,5.52.86,6.99,1.21,6.6,8.52,10.12,13.32,10.12h.13V19.65h-.08"/>
      <path class="st27" d="M52.37,24.46c-2.45-3.17-6.48-4.78-11.98-4.81v38.05c5.5-.06,12.07-3.92,13.19-10.12.27-1.47.47-5.49.86-6.99,1.27-4.87,1.41-11.66-2.07-16.13"/>
      <path class="st11" d="M39.72,51c-.08-.01-.15-.03-.21-.04.07.01.14.03.21.04Z"/>
      <path class="st11" d="M39.43,50.94s-.1-.02-.13-.03c.04.01.08.02.13.03Z"/>
      <path class="st9" d="M39.5,50.96s-.05-.01-.08-.02c.02,0,.05.01.08.02Z"/>
      <path class="st9" d="M39.3,50.91s-.05-.01-.07-.02h0s.03,0,.07.02h0Z"/>
      <path class="st11" d="M25.2,31.51c-.15.5-.26,1.05-.33,1.64,0,0,.22-.93.72-2.3-.21.29-.35.53-.39.66Z"/>
      <path class="st22" d="M34.04,19.74l-.07.07v.02s.05-.07.07-.1Z"/>
      <path class="st11" d="M39.76,50.23c-.08-.01-.15-.03-.22-.04.07.01.14.03.22.04Z"/>
      <path class="st11" d="M39.47,50.17s-.1-.02-.13-.03c.04.01.08.02.13.03Z"/>
      <path class="st1" d="M39.55,50.19s-.05-.01-.08-.02c.03,0,.05.01.08.02Z"/>
      <path class="st1" d="M39.34,50.14s-.05-.01-.07-.02h0s.03,0,.07.02Z"/>
      <path class="st21" d="M37.08,45.35c-.07-1.35,2.48-.49,3.32-.45.66.04,2.68-.43,2.86-.31,1.19.8-1.26,2.41-2.9,2.41-.44,0-3.24-.84-3.28-1.65Z"/>
      <path class="st7" d="M28.23,34.5s1.29,5.3,3.51,5.73c2.22.43,4.62-.43,4.62-.43,0,0,.23-6.23-.91-7.04-1.14-.82-3.75-2-7.23,1.74Z"/>
      <path class="st18" d="M36.37,39.79s-.05.01-.17.06c-.03-1.91-.2-4.53-.91-5.04-1.06-.77-3.44-1.86-6.62,1.11-.29-.82-.43-1.44-.43-1.44,3.48-3.74,6.1-2.56,7.23-1.75,1.14.82.91,7.05.91,7.05h0Z"/>
      <circle class="st25" cx="32.87" cy="37.09" r="2.19"/>
      <path class="st3" d="M32.77,38.55c-.63-.05-1.12-.69-1.06-1.39s.64-1.25,1.27-1.19,1.12.69,1.06,1.39-.64,1.25-1.27,1.2h0Z"/>
      <path class="st8" d="M32.82,38.29c-.44-.04-.89-.52-.85-1.11.05-.6.58-.99,1.02-.96.44.04.89.52.84,1.11s-.58.99-1.01.96h0Z"/>
      <path class="st7" d="M32.47,36.83c-.02.22-.24.37-.49.35-.25-.02-.45-.21-.43-.43s.24-.37.49-.35c.25.02.45.21.43.43h0Z"/>
      <path class="st7" d="M33.89,38.07c-.01.11-.12.19-.24.18-.13-.01-.22-.11-.22-.21.01-.11.12-.19.24-.18.13.01.22.11.22.21Z"/>
      <path class="st11" d="M39.8,50.85c-.08-.01-.15-.03-.22-.04.07.01.14.03.22.04Z"/>
      <path class="st11" d="M39.5,50.8s-.1-.02-.13-.03c.04.01.08.02.13.03Z"/>
      <path class="st1" d="M39.58,50.81s-.05-.01-.08-.02c.03,0,.05.01.08.02Z"/>
      <path class="st1" d="M39.37,50.76s-.05-.01-.07-.02h0s.03,0,.07.02Z"/>
      <path class="st11" d="M39.72,50.71c-.08-.01-.16-.03-.23-.04.08.02.16.03.23.04Z"/>
      <path class="st11" d="M39.4,50.64c-.05-.01-.11-.02-.14-.03.05.01.09.02.14.03Z"/>
      <path class="st9" d="M39.49,50.66s-.06-.01-.09-.02c.03,0,.05.01.09.02Z"/>
      <path class="st9" d="M39.26,50.61s-.05-.01-.08-.02h0s.03.01.08.02h0Z"/>
      <path class="st11" d="M39.65,50.49c-.08-.01-.16-.03-.23-.04.08.02.16.03.23.04Z"/>
      <path class="st11" d="M39.33,50.42c-.05-.01-.11-.02-.14-.03.05.01.09.02.14.03Z"/>
      <path class="st9" d="M39.42,50.44s-.06-.01-.09-.02c.03,0,.05.01.09.02Z"/>
      <path class="st9" d="M39.19,50.39s-.05-.01-.08-.02h0s.03.01.08.02h0Z"/>
      <path class="st11" d="M39.85,50.45c-.08-.01-.16-.03-.22-.04.07.02.15.03.22.04Z"/>
      <path class="st11" d="M39.54,50.39s-.1-.02-.13-.03c.05.01.09.02.13.03Z"/>
      <path class="st9" d="M39.62,50.41s-.06-.01-.08-.02c.03,0,.05.01.08.02Z"/>
      <path class="st9" d="M39.4,50.36s-.05-.01-.07-.02h0s.03.01.08.02h0Z"/>
      <path class="st7" d="M52.69,34.32s-1.29,5.3-3.51,5.73c-2.22.43-4.62-.43-4.62-.43,0,0-.23-6.23.91-7.04,1.14-.82,3.75-2,7.23,1.74h0Z"/>
      <path class="st18" d="M44.55,39.61s.05.01.17.06c.03-1.91.2-4.53.91-5.04,1.06-.77,3.44-1.86,6.62,1.11.29-.82.43-1.44.43-1.44-3.48-3.74-6.1-2.56-7.23-1.75-1.14.82-.91,7.05-.91,7.05h0Z"/>
      <path class="st25" d="M45.86,36.91c0,1.21.98,2.18,2.19,2.18s2.19-.98,2.19-2.18-.98-2.18-2.19-2.18-2.19.98-2.19,2.18Z"/>
      <path class="st3" d="M48.15,38.37c.63-.05,1.12-.69,1.06-1.39s-.64-1.25-1.27-1.19c-.63.05-1.12.69-1.06,1.39s.64,1.25,1.27,1.2h0Z"/>
      <path class="st8" d="M48.1,38.11c.44-.04.89-.52.85-1.11-.05-.6-.58-.99-1.02-.96-.44.04-.89.52-.84,1.11s.58.99,1.01.96h0Z"/>
      <path class="st7" d="M48.45,36.65c.02.22.24.37.49.35.25-.02.45-.21.43-.43-.02-.22-.24-.37-.49-.35-.25.02-.45.21-.43.43h0Z"/>
      <path class="st7" d="M47.03,37.89c.01.11.12.19.24.18.13-.01.22-.11.22-.21-.01-.11-.12-.19-.24-.17-.13.01-.22.11-.22.21h0Z"/>
      <g>
        <path d="M37.7,31.71s-.42-.64-1.24-1.27c-.52-.4-1.02-.69-1.55-.92-.64-.27-1.32-.46-1.99-.55-.6-.07-1.27-.05-2.04.06-.59.11-1.17.29-1.66.5-.35.12-.63.29-.85.43-.08.05-.16.1-.24.14l-1.06.67,1.22-.29c.06-.01.12-.03.18-.05.25-.07.57-.15.94-.2.08-.01.17-.03.26-.05.16-.03.31-.06.48-.07.18-.01.38-.02.58-.04l.26-.02c.68,0,1.25.04,1.76.16.55.1,1.13.28,1.65.52.49.24.97.47,1.34.74.75.5,1.16.91,1.17.92h0c.1.1.24.16.38.16.1,0,.2-.03.29-.08.25-.16.31-.49.16-.73v-.02s-.02,0-.02,0Z"/>
        <path d="M52.91,30.1c-.07-.04-.15-.08-.23-.14-.22-.14-.5-.31-.84-.42-.5-.22-1.08-.4-1.68-.51-.77-.1-1.44-.12-2.04-.05-.66.09-1.35.28-1.99.55-.52.22-1.04.53-1.55.92-.81.62-1.21,1.22-1.24,1.27h0c-.14.22-.11.5.07.68.1.1.23.16.38.16h0c.14,0,.28-.06.37-.16h0s.44-.44,1.17-.92c.36-.27.84-.5,1.33-.74.53-.24,1.09-.42,1.66-.52.5-.12,1.07-.17,1.74-.16l.27.02c.19.01.38.03.57.04.16,0,.32.04.48.07.09.02.18.04.26.05.37.05.69.14.94.2.07.02.13.04.19.05l1.22.29-1.07-.67h0Z"/>
      </g>
      <path class="st11" d="M39.02,52.7c-.08-.01-.15-.03-.21-.04.07.01.14.03.21.04Z"/>
      <path class="st11" d="M38.72,52.64s-.1-.02-.13-.03c.04.01.08.02.13.03Z"/>
      <path class="st2" d="M38.8,52.66s-.05-.01-.08-.02c.03,0,.05.01.08.02Z"/>
      <path class="st2" d="M38.59,52.62s-.05-.01-.07-.02h0s.03,0,.07.02Z"/>
      <path class="st11" d="M38.96,52.5c-.08-.01-.15-.03-.21-.04.07.01.14.03.21.04Z"/>
      <path class="st11" d="M38.66,52.44s-.1-.02-.13-.03c.04.01.08.02.13.03Z"/>
      <path class="st2" d="M38.74,52.46s-.05-.01-.08-.02c.03,0,.05.01.08.02Z"/>
      <path class="st2" d="M38.53,52.41s-.05-.01-.07-.02h0s.03,0,.07.02Z"/>
      <path class="st11" d="M39.14,52.47c-.08-.01-.14-.03-.2-.04.07.01.14.03.2.04Z"/>
      <path class="st11" d="M38.85,52.41s-.1-.02-.12-.03c.04.01.08.02.12.03Z"/>
      <path class="st2" d="M38.93,52.43s-.05-.01-.08-.02c.02,0,.05.01.08.02Z"/>
      <path class="st2" d="M38.73,52.38s-.05-.01-.07-.02h0s.03,0,.07.02h0Z"/>
      <path class="st5" d="M37.15,53.06c-.06-.84,2.35.18,3.14.2.63.02,2.53-.12,2.71-.19,1.33-.49-.07,1.41-2.74,1.51-1.23.05-3.07-1.01-3.1-1.52h0Z"/>
      <path class="st16" d="M45.1,51.04c-1.53-.29-4.75.02-4.75.02-2.66.44-4.74-.03-4.75-.01-.06,0,2.12,2.9,4.71,2.77h0c2.59.13,4.85-2.77,4.79-2.78h0Z"/>
      <path class="st10" d="M41.89,50.43c-.69-.08-1.18.42-1.53.38-.36.03-.83-.29-1.52-.29-.97-.01-1.45-.1-3.24.53.06.12,1.2.78,3.34.82.03,0,.6.32,1.42.32.51,0,1.21-.34,1.24-.34,2.14-.03,3.45-.67,3.51-.79-2.36-.73-2.17-.63-3.23-.63h0Z"/>
      <g>
        <path class="st14" d="M27.63,43.79c1.58.48,7.84,1.16,9.78-4.16-4.68-1.86-9.18-.97-12.63.5.76,2.9,2.26,3.47,2.85,3.67Z"/>
        <path class="st15" d="M52.53,43.79c-1.58.48-7.84,1.16-9.78-4.16,4.68-1.86,9.18-.97,12.63.5-.77,2.9-2.26,3.47-2.85,3.67h0Z"/>
        <path class="st13" d="M37.41,39.63c.07-.2.14-.41.2-.63.04-.15.08-.3.12-.46.32-1.43.24-2.58-.04-3.59-.27-.99-3.09-1.59-4.32-1.76-1.21-.13-3-.24-5.01,0-2.48.31-4.23.55-4.01,4.21.04.59.1,1.12.18,1.6.07.41.15.79.24,1.13,3.45-1.47,7.95-2.36,12.63-.5h0Z"/>
        <path class="st12" d="M42.75,39.63c-.07-.2-.14-.41-.2-.63-.04-.15-.08-.3-.12-.46-.32-1.43-.24-2.58.04-3.59.27-.99,3.09-1.59,4.32-1.76,1.21-.13,3-.24,5.01,0,2.48.31,4.23.55,4.01,4.21-.04.59-.1,1.12-.18,1.6-.07.41-.15.79-.24,1.13-3.45-1.47-7.95-2.36-12.63-.5h0Z"/>
        <path class="st28" d="M57.5,33.2c-.1-.21-1.97-.48-4.41-.72-2.06-.19-5.38-.06-6.68.12-.54.08-1.51.27-2.48.54-1.07.29-2.13.68-2.57.79-.43.09-.76.13-1.12.11h0s-.05,0-.08,0c-.03,0-.05,0-.08,0-.03,0-.05,0-.08,0-.02,0-.05,0-.08,0h0c-.35.02-.69-.01-1.12-.11-.44-.1-1.51-.5-2.57-.79-.97-.27-1.94-.46-2.48-.54-1.3-.19-4.62-.31-6.68-.12-2.44.25-4.32.52-4.41.72-.06.14-.21,2.03-.01,2.22.2.21.88.6,1.05,1.26.05.23.17.92.36,1.8.06.29.26.49.49.49.3,0,.53-.34.48-.73-.03-.25-.05-.5-.07-.78-.21-3.44,1.37-3.66,3.62-3.95,1.82-.23,3.43-.12,4.52,0,1.1.17,3.65.72,3.9,1.65.26.95.33,2.03.04,3.37h0c-.05.22.08.43.24.43h.8c.11-.36.21-.74.28-1.15.18-1.05.45-1.68.91-1.86.18-.06.45-.11.73-.12.03,0,.05,0,.08,0s.05,0,.08,0c.28.01.55.06.73.12.45.19.72.81.91,1.86.07.41.17.79.28,1.15h.8c.17,0,.29-.21.24-.42h0c-.29-1.35-.22-2.43.04-3.38.24-.93,2.79-1.49,3.9-1.65,1.09-.12,2.71-.23,4.52,0,2.24.29,3.82.52,3.62,3.95-.02.27-.04.53-.07.78-.04.38.19.73.48.73.23,0,.42-.2.49-.49.19-.88.3-1.58.36-1.8.17-.66.86-1.05,1.05-1.26.2-.19.05-2.07-.01-2.22h0Z"/>
      </g>
      <path d="M57.8,75.96c-.09-1.23-.23-2.36-.43-3.4-.34-1.83-.83-3.38-1.42-4.7-.82-1.86-1.82-3.25-2.83-4.3h0s-.06-.06-.1-.09c-.01-.01-.02-.02-.04-.04h0c-1.95-1.89-3.91-2.54-4.75-2.74.01.05-.53-.18-.64-.39-.33-.55-.72-1.1-1.19-1.67-.04-.04-.08-.08-.11-.12l-.18,1.04-3.3,3.89h-.24l-1.8,2.13-1.72-2h.02l-3.3-3.83-.26-1.22s-.04.05-.07.07c-.69.82-1.88,2.17-1.87,2.12-.84.2-3.07.85-5.02,2.74h0c-1.06,1.06-2.1,2.49-2.96,4.43-.58,1.32-1.07,2.87-1.42,4.7-.19,1.04-.34,2.17-.43,3.4-.06.86-.1,1.77-.1,2.73,0,0,.14.06.41.18h33.4c.26-.12.4-.18.4-.18,0-.96-.04-1.87-.1-2.73h0Z"/>
      <path class="st23" d="M48.29,61.72h0c-.19-2.97-1.73-3.54-1.73-3.54h0c-.09-.07-.19-.13-.3-.18-.47-.23-1.03.02-1.18.52-.18.6-.41,1.34-.61,1.88-.15.39-.36.75-.62,1.07-.42.51-1.1,1.34-1.71,2.1-.7.87-2.02.87-2.72.01-.66-.81-1.4-1.69-1.82-2.19-.23-.27-.41-.57-.56-.9-.19-.42-.31-1.14-.41-1.75-.08-.52-.61-.83-1.11-.66-.11.04-.2.07-.29.1-.15.02-1.77.36-1.98,3.25h0c-.16,1.16-.23,2.85-.25,4.21-.01.76.91,1.15,1.44.6.32-.33.62-.62.84-.78.13-.1.3-.2.48-.3.42-.23.94-.04,1.15.38l3.25,6.82c.3.63,1.19.64,1.51.02l3.35-6.61c.23-.44.8-.61,1.2-.32,0,0,0,0,0,0,.22.16.52.45.84.78.53.55,1.46.16,1.44-.61-.02-1.25-.08-2.78-.22-3.92h0Z"/>
      <path class="st17" d="M17.48,30.63c.42-4.89,1.52-8.79,1.52-8.79,0,0,.03.04.09.11,1.32-4.78,3.52-7.37,3.52-7.37h0c1.07-1.62,2.59-3.32,4.44-4.99,3.8-3.43,6.19-2.72,9.34-2.62,0,0,.01.02.02.06,1.38-.3,8.82-1.78,13.24-.14,4.89,1.82,8.89,4.94,11.72,13.31.43,1.29.75,2.54.96,3.75.64,1.4.93,2.77,1.05,3.9h.07s2.46,13.16,9.4,15.79c0,0-5.27,1.31-9.44-5.45-.1,1.34-.27,2.7-.54,4.01.23,1.74.51,3.17.51,4.1,0,6.55-4.9,11.98-4.14,18.57.5,4.35,2.5,7.72,2.5,7.72,0,0-2.3-2.98-3.24-5.77s-.63-7.81.94-11.81c.8-2.05,1.03-4.3.93-6.47-.13.2-.27.39-.41.58,0,0,.17-.55.36-1.42-.09-1.08-.25-2.13-.45-3.13-.04-.17-.07-.35-.11-.52-.05-.2-.1-.38-.14-.58-.43.9-.91,1.75-1.42,2.54-.03.11-.06.22-.1.32-.32,1.05-.77,2.03-1.16,2.95-.38.93-.77,1.8-1.06,2.64-.27.84-.52,1.64-.64,2.4-.07.38-.11.75-.14,1.09-.05.35-.06.68-.06,1-.03.63.03,1.19.05,1.65.11.92.17,1.45.17,1.45,0,0-.06-.12-.17-.35-.1-.24-.28-.57-.45-1.03-.14-.46-.36-1.01-.47-1.67-.14-.66-.24-1.41-.23-2.24-.02-1.11.19-2.34.53-3.59-1.8,1.84-3.23,2.85-3.23,2.85,0,0,2.1-2.47,3.04-4.94.73-1.92,1.82-5.2,1.82-10.04,0-.23-.01-.45-.03-.68-.06-.26-.12-.53-.19-.79-.49-1.75-1.11-3.39-1.65-4.83-1.33-2.58-2.88-4.54-2.88-4.54,0,0,2.19,3.76,2.62,7.9.44,4.13-1.86,7.33-1.86,7.33,0,0,.46-4.91-1.15-8.82-.81-1.96-2.13-3.68-4.31-4.38h0c1.17,3.18-1.18,5.84-1.18,5.84,0,0,0-.79-.24-2.02-.6-3.17-2.7-9.23-10.04-11.93l-.23.33-5.17,7.5c-.25.34-.67.92-1.15,1.66-1.4,2.17-3.34,5.73-3.34,8.82,0,4.84,1.09,8.13,1.82,10.04.94,2.47,3.04,4.94,3.04,4.94,0,0-1.14-.81-2.67-2.29.08.56.13,1.11.12,1.64.02.83-.08,1.59-.23,2.24-.11.66-.33,1.21-.47,1.67-.16.46-.35.79-.45,1.03-.11.23-.17.35-.17.35,0,0,.06-.53.17-1.45.02-.46.08-1.02.05-1.65,0-.32-.01-.65-.06-1-.03-.35-.06-.72-.14-1.09-.12-.76-.37-1.55-.64-2.4-.27-.77-.61-1.56-.96-2.39-1.09-1.4-2.17-3.04-3.04-4.9-.65,3.23-.86,7.06.44,10.38,1.56,4,1.88,9.02.94,11.81-.94,2.79-3.24,5.77-3.24,5.77,0,0,2.01-3.37,2.5-7.72.76-6.59-4.14-12.02-4.14-18.57,0-.84.23-2.08.44-3.59-.46-1.17-.78-2.43-1-3.73-4.08,5.85-8.92,4.65-8.92,4.65,4.9-1.86,7.57-8.97,8.71-12.99h.02Z"/>
      <polygon class="st20" points="29.47 71.3 35.64 71.3 35.64 72.45 32.55 74.41 29.47 72.45 29.47 71.3"/>
      <polygon class="st20" points="44.93 71.02 51.09 71.02 51.09 72.17 48.01 74.13 44.93 72.17 44.93 71.02"/>
    </g>
  </g>
</svg>