<?xml version="1.0" encoding="UTF-8"?>
<svg id="Layer_2" xmlns="http://www.w3.org/2000/svg" version="1.1" xmlns:xlink="http://www.w3.org/1999/xlink" viewBox="0 0 78.88 78.88">
  <!-- Generator: Adobe Illustrator 30.2.1, SVG Export Plug-In . SVG Version: 2.1.1 Build 1)  -->
  <defs>
    <style>
      .st0 {
        fill: #8cc0e4;
      }

      .st1 {
        fill: #b5957e;
      }

      .st2 {
        fill: #b8987d;
      }

      .st3 {
        fill: #714223;
      }

      .st4 {
        fill: #ccad8a;
      }

      .st5 {
        fill: #ecdab6;
      }

      .st6 {
        fill: #d7bd9d;
      }

      .st7 {
        fill: #fff;
      }

      .st8 {
        fill: #272213;
      }

      .st9 {
        opacity: .4;
      }

      .st10 {
        fill: #b7967d;
      }

      .st11 {
        fill: #c27976;
      }

      .st12 {
        fill: none;
      }

      .st13 {
        fill: #af6a6f;
      }

      .st14 {
        fill: #d2bb9b;
      }

      .st15 {
        fill: #ba9d82;
      }

      .st16 {
        fill: #dcc5a0;
      }

      .st17 {
        isolation: isolate;
        opacity: .86;
      }

      .st17, .st18 {
        fill: #22231d;
      }

      .st19 {
        fill: #d6bb9c;
      }

      .st20 {
        fill: #44361f;
      }

      .st21 {
        fill: #d99100;
      }

      .st22 {
        fill: #a98d76;
      }

      .st23 {
        fill: #462e1b;
      }

      .st24 {
        fill: #c01f13;
      }

      .st25 {
        clip-path: url(#clippath);
      }

      .st26 {
        fill: #ebd9b5;
      }
    </style>
    <clipPath id="clippath">
      <rect class="st12" x="36.72" y="54.69" width="8.86" height="5.22"/>
    </clipPath>
  </defs>
  <g id="Layer_1-2">
    <g>
      <rect class="st21" width="78.88" height="78.88"/>
      <path class="st16" d="M41.12,49.33v29.55h-16c-.26-.1-.39-.16-.39-.16,0-3.77.55-6.71,1.4-9.01,2.04-5.54,5.76-7.29,7.48-7.82.56-.17.91-.22.91-.22.06,0,.12,0,.18-.01.51-.08.91-.52,1.24-1.22.24-.52.45-1.18.61-1.94.07-.3.12-.6.17-.92.08-.55.16-1.12.22-1.72.02-.36.06-.72.1-1.09.14-1.81.18-3.79.18-5.66,0,0,2.15.22,3.89.22h0Z"/>
      <path class="st26" d="M57.58,78.72s-.14.05-.38.16h-16.08v-29.55h.04c1.73,0,3.91-.22,3.91-.22,0,1.86.04,3.81.18,5.62.04.35.08.72.1,1.07.07.62.14,1.21.24,1.76h0c.02.26.08.48.12.71.16.77.35,1.45.58,1.99.29.67.64,1.15,1.06,1.33.13.06.28.09.43.09,0,0,.61.07,1.54.44,1.88.74,5.05,2.67,6.87,7.6.84,2.29,1.4,5.24,1.4,9.01h0Z"/>
      <g class="st25">
        <path class="st15" d="M45.59,57.5h0c-.4.63-1.76,2.42-4.44,2.42h-.02c-2.54-.01-4.02-1.85-4.4-2.39.08-.54.16-1.11.22-1.71.02-.35.06-.71.1-1.09,1.24.31,2.59.5,4.02.53h.05c1.48-.02,2.85-.23,4.13-.57.04.35.08.71.1,1.06.06.62.14,1.2.23,1.75"/>
      </g>
      <path class="st4" d="M40.94,15.66c-16.95,0-17.04,14.15-16.29,23.42-1.16-2.2-4.61-1.52-4.32,1.94.27,3.33,5.2,5.03,5.06,4.67,2.57,6.85,9.36,12.02,15.55,12.02h.13V15.66h-.13"/>
      <path class="st22" d="M21.41,39.56c.83-1.34,2.14-.76,2.45-.47.34.32.61.74.4,1.52-.12.45-.59.49-.48,1.16.13.76.48.8.69.98.19.17.44.3.56.62.13.32.14.66.08.96-.13.54-.93.1-1.46-.13-.35-.17-1.47-1.11-1.76-1.42-.7-.8-1.04-2.35-.48-3.23"/>
      <path class="st6" d="M41.03,15.66c16.95,0,17.04,14.15,16.3,23.42,1.16-2.2,4.59-1.52,4.31,1.94-.26,3.33-5.2,5.03-5.06,4.67-2.5,6.85-9.36,12.02-15.55,12.02h-.09l-.04-42.05h.13"/>
      <path class="st22" d="M60.56,39.56c-.83-1.34-2.12-.76-2.45-.47-.34.32-.6.74-.4,1.52.12.45.59.49.48,1.16-.13.76-.48.8-.68.98-.19.17-.46.3-.57.62-.12.32-.14.66-.08.96.13.54.93.1,1.46-.13.36-.17,1.47-1.11,1.76-1.42.72-.8,1.04-2.35.48-3.23"/>
      <path class="st16" d="M40.81,19.65c-5.57,0-9.66,1.62-12.12,4.79-3.45,4.46-3.32,11.26-2.06,16.14.39,1.5.6,5.52.86,6.99,1.21,6.6,8.52,10.12,13.32,10.12h.13V19.65h-.08"/>
      <path class="st26" d="M52.91,24.46c-2.45-3.17-6.48-4.78-11.98-4.81v38.05c5.5-.06,12.07-3.92,13.19-10.12.27-1.47.47-5.49.86-6.99,1.27-4.87,1.41-11.66-2.07-16.13"/>
      <path class="st12" d="M40.26,51c-.08-.01-.15-.03-.21-.04.07.01.14.03.21.04Z"/>
      <path class="st12" d="M39.97,50.94s-.1-.02-.13-.03c.04.01.08.02.13.03Z"/>
      <path class="st10" d="M40.05,50.96s-.05-.01-.08-.02c.02,0,.05.01.08.02Z"/>
      <path class="st10" d="M39.84,50.91s-.05-.01-.07-.02h0s.03,0,.07.02h0Z"/>
      <path class="st12" d="M25.74,31.51c-.15.5-.26,1.05-.33,1.64,0,0,.22-.93.72-2.3-.21.29-.35.53-.39.66Z"/>
      <path class="st20" d="M36.2,19.74l-.07.07v.02s.05-.07.07-.1Z"/>
      <path class="st12" d="M40.31,50.23c-.08-.01-.15-.03-.22-.04.07.01.14.03.22.04Z"/>
      <path class="st12" d="M40.01,50.17s-.1-.02-.13-.03c.04.01.08.02.13.03Z"/>
      <path class="st1" d="M40.09,50.19s-.05-.01-.08-.02c.03,0,.05.01.08.02Z"/>
      <path class="st1" d="M39.88,50.14s-.05-.01-.07-.02h0s.03.01.07.02Z"/>
      <path class="st19" d="M38.02,45.35c-.07-1.35,2.48-.49,3.32-.45.66.04,2.68-.43,2.86-.31,1.19.8-1.26,2.41-2.9,2.41-.44,0-3.24-.84-3.28-1.65Z"/>
      <path class="st12" d="M40.34,50.85c-.08-.01-.15-.03-.22-.04.07.01.14.03.22.04Z"/>
      <path class="st12" d="M40.05,50.8s-.1-.02-.13-.03c.04.01.08.02.13.03Z"/>
      <path class="st1" d="M40.13,50.81s-.05-.01-.08-.02c.03,0,.05.01.08.02Z"/>
      <path class="st1" d="M39.92,50.76s-.05-.01-.07-.02h0s.03,0,.07.02Z"/>
      <path class="st12" d="M40.26,50.71c-.08-.01-.16-.03-.23-.04.08.02.16.03.23.04Z"/>
      <path class="st12" d="M39.94,50.64c-.05-.01-.11-.02-.14-.03.05.01.09.02.14.03Z"/>
      <path class="st10" d="M40.03,50.66s-.06-.01-.09-.02c.03,0,.05.01.09.02Z"/>
      <path class="st10" d="M39.8,50.61s-.05-.01-.08-.02h0s.03.01.08.02h0Z"/>
      <path class="st12" d="M40.2,50.49c-.08-.01-.16-.03-.23-.04.08.02.16.03.23.04Z"/>
      <path class="st12" d="M39.87,50.42c-.05-.01-.11-.02-.14-.03.05.01.09.02.14.03Z"/>
      <path class="st10" d="M39.96,50.44s-.06-.01-.09-.02c.03,0,.05.01.09.02Z"/>
      <path class="st10" d="M39.74,50.39s-.05-.01-.08-.02h0s.03.01.08.02h0Z"/>
      <path class="st12" d="M40.39,50.45c-.08-.01-.16-.03-.22-.04.07.02.15.03.22.04Z"/>
      <path class="st12" d="M40.08,50.39s-.1-.02-.13-.03c.05.01.09.02.13.03Z"/>
      <path class="st10" d="M40.17,50.41s-.06-.01-.08-.02c.03,0,.05.01.08.02Z"/>
      <path class="st10" d="M39.95,50.36s-.05-.01-.07-.02h0s.03.01.08.02h0Z"/>
      <path class="st12" d="M39.56,52.7c-.08-.01-.15-.03-.21-.04.07.01.14.03.21.04Z"/>
      <path class="st12" d="M39.26,52.64s-.1-.02-.13-.03c.04.01.08.02.13.03Z"/>
      <path class="st2" d="M39.34,52.66s-.05-.01-.08-.02c.03,0,.05.01.08.02Z"/>
      <path class="st2" d="M39.13,52.62s-.05-.01-.07-.02h0s.03,0,.07.02Z"/>
      <path class="st12" d="M39.5,52.5c-.08-.01-.15-.03-.21-.04.07.01.14.03.21.04Z"/>
      <path class="st12" d="M39.2,52.44s-.1-.02-.13-.03c.04.01.08.02.13.03Z"/>
      <path class="st2" d="M39.28,52.46s-.05-.01-.08-.02c.03,0,.05.01.08.02Z"/>
      <path class="st2" d="M39.07,52.41s-.05-.01-.07-.02h0s.03,0,.07.02Z"/>
      <path class="st12" d="M39.68,52.47c-.08-.01-.14-.03-.2-.04.07.01.14.03.2.04Z"/>
      <path class="st12" d="M39.39,52.41s-.1-.02-.12-.03c.04.01.08.02.12.03Z"/>
      <path class="st2" d="M39.47,52.43s-.05-.01-.08-.02c.02,0,.05.01.08.02Z"/>
      <path class="st2" d="M39.27,52.38s-.05-.01-.07-.02h0s.03,0,.07.02h0Z"/>
      <path class="st5" d="M37.7,53.06c-.06-.84,2.35.18,3.14.2.63.02,2.53-.12,2.71-.19,1.33-.49-.07,1.41-2.74,1.51-1.23.05-3.07-1.01-3.1-1.52h0Z"/>
      <path class="st13" d="M45.65,51.04c-1.53-.29-4.75.02-4.75.02-2.66.44-4.74-.03-4.75-.01-.06,0,2.12,2.9,4.71,2.77h0c2.59.13,4.85-2.77,4.79-2.78h0Z"/>
      <path class="st11" d="M42.43,50.43c-.69-.08-1.18.42-1.53.38-.36.03-.83-.29-1.52-.29-.97-.01-1.45-.1-3.24.53.06.12,1.2.78,3.34.82.03,0,.6.32,1.42.32.51,0,1.21-.34,1.24-.34,2.14-.03,3.45-.67,3.51-.79-2.36-.73-2.17-.63-3.23-.63h0Z"/>
      <path d="M38.44,63.72l-3.89-2.53s-7.68.55-9.86,11.54c-.09.46-.17.93-.24,1.43l4.32,1.15v3.57h11.44v-12.33c0-1.13-.6-2.15-1.54-2.69-.07-.04-.14-.09-.22-.13h0Z"/>
      <path d="M57.83,72.73c-.86-4.5-3.29-10.07-9.94-11.55l-4.04,2.58s-.01,0-.01,0c-.88.56-1.44,1.55-1.44,2.64v12.48h11.29v-3.57l4.37-1.16c-.06-.46-.13-.93-.23-1.41h0Z"/>
      <path class="st0" d="M40.2,71.93v6.94h2.2v-6.97c-.72.09-1.47.1-2.2.03h0Z"/>
      <path class="st7" d="M28.78,34.4s1.29,5.32,3.51,5.75c2.22.43,4.62-.43,4.62-.43,0,0,.23-6.25-.91-7.06-1.14-.82-3.75-2-7.23,1.74Z"/>
      <path class="st14" d="M36.91,39.7s-.05.01-.17.06c-.03-1.92-.2-4.55-.91-5.05-1.06-.78-3.44-1.86-6.62,1.12-.29-.82-.43-1.45-.43-1.45,3.48-3.75,6.1-2.57,7.23-1.75,1.14.82.91,7.07.91,7.07h0Z"/>
      <ellipse class="st23" cx="33.41" cy="37" rx="2.19" ry="2.19"/>
      <path class="st3" d="M33.32,38.46c-.63-.05-1.12-.69-1.06-1.39s.64-1.25,1.27-1.2,1.12.69,1.06,1.39c-.06.7-.64,1.25-1.27,1.2Z"/>
      <path class="st8" d="M33.37,38.2c-.44-.04-.89-.52-.85-1.11.05-.6.58-1,1.02-.96.44.04.89.52.84,1.12-.05.6-.58,1-1.01.96Z"/>
      <path class="st7" d="M33.01,35.65c-.02.22-.24.37-.49.35-.25-.02-.45-.22-.43-.43.02-.22.24-.37.49-.35s.45.21.43.43Z"/>
      <path class="st7" d="M34.43,37.98c-.01.11-.12.19-.24.18-.13-.01-.22-.11-.22-.22.01-.11.12-.19.24-.18.13.01.22.11.22.22Z"/>
      <path class="st7" d="M53.23,34.22s-1.29,5.32-3.51,5.75-4.62-.43-4.62-.43c0,0-.23-6.25.91-7.06,1.14-.82,3.75-2,7.23,1.74h0Z"/>
      <path class="st14" d="M45.09,39.52s.05.01.17.06c.03-1.92.2-4.55.91-5.05,1.06-.78,3.44-1.86,6.62,1.11.29-.82.43-1.45.43-1.45-3.48-3.75-6.1-2.57-7.23-1.75-1.14.82-.91,7.07-.91,7.07h0Z"/>
      <path class="st23" d="M46.4,36.82c0,1.21.98,2.19,2.19,2.19s2.19-.98,2.19-2.19-.98-2.19-2.19-2.19-2.19.98-2.19,2.19Z"/>
      <path class="st3" d="M48.69,38.28c.63-.05,1.12-.69,1.06-1.39s-.64-1.25-1.27-1.2c-.63.05-1.12.69-1.06,1.39.06.7.64,1.25,1.27,1.2Z"/>
      <path class="st8" d="M48.64,38.02c.44-.04.89-.52.85-1.11-.05-.6-.58-1-1.02-.96-.44.04-.89.52-.84,1.12.05.6.58,1,1.01.96h0Z"/>
      <path class="st7" d="M48.99,36.55c.02.22.24.37.49.35.25-.02.45-.22.43-.43-.02-.22-.24-.37-.49-.35s-.45.21-.43.43Z"/>
      <path class="st7" d="M47.58,37.8c.01.11.12.19.24.18.13-.01.22-.11.22-.22-.01-.11-.12-.19-.24-.18-.13.01-.22.11-.22.22Z"/>
      <g>
        <path d="M38.25,34.31s-.42-.64-1.24-1.27c-.52-.4-1.02-.7-1.55-.92-.64-.27-1.32-.46-1.99-.55-.6-.07-1.27-.05-2.04.06-.59.11-1.17.29-1.66.51-.35.12-.63.29-.85.43-.08.05-.16.1-.24.14l-1.06.67,1.22-.29c.06-.01.12-.03.18-.05.25-.07.57-.15.94-.2.08-.01.17-.03.26-.05.16-.03.31-.06.48-.07.18-.01.38-.02.58-.04l.26-.02c.68,0,1.25.04,1.76.16.55.1,1.13.28,1.65.52.49.24.97.47,1.34.74.75.5,1.16.92,1.17.92h0c.1.1.24.16.38.16.1,0,.2-.03.29-.09.25-.16.31-.49.16-.73v-.02s-.02.01-.02.01Z"/>
        <path d="M53.45,32.7c-.07-.04-.15-.08-.23-.14-.22-.14-.5-.31-.84-.42-.5-.22-1.08-.4-1.68-.51-.77-.1-1.44-.12-2.04-.05-.66.09-1.35.28-1.99.55-.52.22-1.04.53-1.55.92-.81.62-1.21,1.22-1.24,1.27h0c-.14.22-.11.5.07.68.1.1.23.16.38.16h0c.14,0,.28-.06.37-.16h0s.44-.44,1.17-.92c.36-.27.84-.5,1.33-.74.53-.24,1.09-.42,1.66-.52.5-.12,1.07-.17,1.74-.16l.27.02c.19.01.38.03.57.04.16,0,.32.04.48.07.09.02.18.04.26.05.37.05.69.14.94.2.07.02.13.04.19.05l1.22.29-1.07-.67h0Z"/>
      </g>
      <path class="st24" d="M56.86,41.37c.34,0-.02-1.9,1.12-3.21,1.14-1.31,2.87-5.72,2.87-10.12s-1.48-8.32-5.35-12.48c-3.87-4.17-9.56-6.18-9.56-6.18l2.62,2.5s-1.41-2.03-6.48-3.65c-4-1.28-6.59.15-6.59.15,0,0,2.64-.1,3.44,1.1.2.31.94.77.94.77,0,0-1.23-2.88-6.92-.49-5.69,2.38-5.59,6.65-9.55,7.96-4.05,1.34-5.23-.38-5.23-.38,0,0,1.76,3.02,4.88,3.03.6,0,.56-.01.56-.01,0,0-1.17,3.23-1.4,5.65-.23,2.46.49,4.15.71,8.75.19,3.94,1.22,1.92,2.44,4.82.41.97.43,2.07.43,2.07.46.11,1.65-2.36.79-6.67-.56-2.79,2.2-13.39,8.83-11.32,4.06,1.26,5.08,3.84,8.12,1.55,2.62-1.97,6.28-3.1,9.01-1.55,2.73,1.56,4.27,5.06,3.8,10.65-.61,7.14.53,7.09.53,7.09h0Z"/>
      <g>
        <g>
          <g class="st9">
            <path class="st18" d="M38.63,39.22c0,2.43-3.35,4.83-7.22,4.83-5.38,0-6.11-2.14-6.11-4.55s-1.34-4.4,6.56-4.4,6.76,1.7,6.76,4.13"/>
          </g>
          <g class="st9">
            <path class="st18" d="M44.05,39.22c0,2.43,3.35,4.83,7.2,4.83,5.39,0,6.11-2.14,6.11-4.55s1.34-4.4-6.55-4.4-6.76,1.7-6.76,4.13"/>
          </g>
        </g>
        <path class="st17" d="M37.8,40.64c-1.95,3.63-7.7,3.15-9.18,2.81-.59-.14-2.12-.6-2.8-2.98,0,0,.02,0,.02-.01.07-.02.14-.05.21-.08.05-.02.11-.04.16-.06.07-.02.13-.05.2-.07.08-.02.15-.05.23-.07.09-.03.18-.06.27-.08.05-.02.11-.04.17-.05.04-.01.08-.02.13-.04.19-.06.39-.11.59-.16.07-.02.15-.04.23-.05.07-.02.15-.04.23-.05.07-.01.15-.04.23-.05.14-.03.28-.06.42-.08.02,0,.03,0,.05-.01.06-.01.11-.02.17-.03.08-.01.15-.02.23-.04.05,0,.11-.02.16-.02.04,0,.08-.01.12-.02.08-.01.17-.02.25-.03.03,0,.07,0,.1-.01.07,0,.14-.01.21-.02.07,0,.15-.01.23-.02.05,0,.1,0,.15-.01.11,0,.21-.01.31-.02.09,0,.18-.01.26-.01h.02c.1,0,.2,0,.29-.01h.53s.09,0,.13,0h.1c.06,0,.11,0,.17,0,.06,0,.12,0,.18,0,.08,0,.17.01.25.01.13.01.26.02.38.04.05,0,.1,0,.15.01.05,0,.09.01.14.01.01,0,.02,0,.03,0,.05,0,.11.01.17.02.04,0,.08.01.13.02.01,0,.02,0,.04,0,.06.01.12.02.18.03.18.02.35.06.53.09.05.01.11.02.17.04.02,0,.05,0,.07.01.05.01.09.02.13.03.04.01.08.02.13.03.08.02.17.04.26.06.13.03.26.07.39.1.05.01.1.03.16.05.03,0,.06.02.1.03.06.02.12.04.18.05.07.02.14.05.21.07.22.07.44.15.66.23.07.02.13.05.2.08.07.03.14.06.22.09.08.04.17.07.25.11.05.02.09.04.13.06h0Z"/>
        <path class="st7" d="M59.51,35.53c-.11-.16-2.07-.37-4.63-.56-2.18-.16-5.66-.06-7.03.1-.54.06-1.58.21-2.59.41-1.14.23-2.24.54-2.71.62-.45.07-.81.09-1.17.08h0s-.05,0-.08,0h-.08c-.36.01-.72,0-1.17-.07-.47-.08-1.58-.39-2.71-.62-1.01-.19-2.04-.35-2.6-.41-1.36-.16-4.83-.25-7.01-.1-2.56.19-4.52.41-4.63.56-.06.12-.22,1.55-.01,1.72.2.14.94.47,1.11.97.09.26.33,1.42.77,2.59.4,1.05.95,2.11,1.7,2.58,2.14,1.36,8.38,1.66,11.43-1.56.69-.72,1.21-1.62,1.49-2.73.2-.83.47-1.31.95-1.45.18-.05.48-.09.76-.1.29,0,.58.04.76.1.48.13.75.62.97,1.45.35,1.4,1.09,2.47,2.06,3.26,3.19,2.64,8.84,2.3,10.85,1.02.84-.52,1.43-1.79,1.83-2.95.36-1.04.56-1.98.65-2.22.17-.5.9-.83,1.11-.97.2-.17.05-1.6-.02-1.72h0ZM38.21,39.65c-.11.36-.24.69-.41.99-1.95,3.63-7.7,3.15-9.18,2.81-.59-.14-2.12-.6-2.8-2.98-.13-.47-.24-1.02-.29-1.65-.23-2.65,1.43-2.82,3.79-3.05,1.9-.17,3.6-.1,4.75,0,1.15.11,3.83.56,4.1,1.27.26.73.33,1.56.03,2.6h0ZM53.99,43.45c-1.52.35-7.51.85-9.32-3.08-.1-.23-.19-.47-.27-.72-.3-1.04-.23-1.87.03-2.6.26-.72,2.95-1.16,4.1-1.27,1.15-.1,2.84-.17,4.75,0,2.37.23,4.02.41,3.79,3.05-.04.47-.11.89-.19,1.27-.62,2.72-2.28,3.21-2.9,3.36h0Z"/>
        <path class="st17" d="M56.89,40.09c-.62,2.72-2.28,3.21-2.9,3.36-1.52.35-7.51.85-9.32-3.08,4.41-2.06,8.68-1.59,12.21-.28h0Z"/>
      </g>
    </g>
  </g>
</svg>