<?xml version="1.0" encoding="UTF-8"?>
<svg id="Layer_2" xmlns="http://www.w3.org/2000/svg" version="1.1" xmlns:xlink="http://www.w3.org/1999/xlink" viewBox="0 0 78.88 78.88">
  <!-- Generator: Adobe Illustrator 30.2.1, SVG Export Plug-In . SVG Version: 2.1.1 Build 1)  -->
  <defs>
    <style>
      .st0 {
        fill: #b5957e;
      }

      .st1 {
        fill: #714223;
      }

      .st2 {
        fill: #ccad8a;
      }

      .st3 {
        fill: #d7bd9d;
      }

      .st4 {
        fill: #a38ebc;
      }

      .st5 {
        fill: #fff;
      }

      .st6 {
        fill: #272213;
      }

      .st7 {
        fill: #b7967d;
      }

      .st8 {
        fill: none;
      }

      .st9 {
        fill: #f7f8f7;
        opacity: .55;
      }

      .st9, .st10 {
        isolation: isolate;
      }

      .st11 {
        fill: #866fa8;
      }

      .st12 {
        fill: #af6a6f;
      }

      .st13 {
        fill: #d2bb9b;
      }

      .st14 {
        fill: #ba9d82;
      }

      .st15 {
        fill: #dcc5a0;
      }

      .st16 {
        fill: #c27c3e;
      }

      .st10 {
        fill: #22231d;
        opacity: .4;
      }

      .st17 {
        fill: #44361f;
      }

      .st18 {
        fill: #a98d76;
      }

      .st19 {
        fill: #462e1b;
      }

      .st20 {
        clip-path: url(#clippath);
      }

      .st21 {
        fill: #c17976;
      }

      .st22 {
        fill: #ebd9b5;
      }

      .st23 {
        fill: #3c3d39;
      }
    </style>
    <clipPath id="clippath">
      <rect class="st8" x="34.93" y="54.69" width="8.94" height="5.22"/>
    </clipPath>
  </defs>
  <g id="Layer_1-2">
    <g>
      <rect class="st16" width="78.88" height="78.88"/>
      <path class="st15" d="M39.37,49.33v29.55h-16.14c-.26-.1-.4-.16-.4-.16,0-3.77.56-6.71,1.41-9.01,2.05-5.54,5.81-7.29,7.54-7.82.57-.17.92-.22.92-.22.06,0,.12,0,.18-.01.51-.08.92-.52,1.25-1.22.25-.52.45-1.18.62-1.94.07-.3.12-.6.17-.92.08-.55.16-1.12.22-1.72.02-.36.06-.72.1-1.09.14-1.81.19-3.79.19-5.66,0,0,2.17.22,3.92.22h0Z"/>
      <path class="st22" d="M55.96,78.72s-.15.05-.38.16h-16.22v-29.55h.04c1.75,0,3.94-.22,3.94-.22,0,1.86.04,3.81.18,5.62.04.35.08.72.1,1.07.07.62.15,1.21.24,1.76h0c.02.26.08.48.12.71.16.77.35,1.45.58,1.99.29.67.64,1.15,1.07,1.33.14.06.28.09.43.09,0,0,.62.07,1.55.44,1.9.74,5.09,2.67,6.92,7.6.85,2.29,1.41,5.24,1.41,9.01h0Z"/>
      <g class="st20">
        <path class="st14" d="M43.87,57.5h0c-.41.63-1.77,2.42-4.48,2.42h-.02c-2.56-.01-4.06-1.85-4.44-2.39.08-.54.16-1.11.22-1.71.02-.35.06-.71.1-1.09,1.25.31,2.61.5,4.06.53h.05c1.5-.02,2.87-.23,4.16-.57.04.35.08.71.1,1.06.06.62.15,1.2.24,1.75"/>
      </g>
      <path class="st11" d="M51.91,72.7c.22,1.75.35,3.74.35,6,0,0-.1.05-.31.18h-25.09c-.2-.13-.31-.18-.31-.18,0-2.26.13-4.24.35-6,.2-1.58-1.03-2.98-2.64-2.98h-.03c2.05-5.54,5.81-7.3,7.54-7.82,0,.05,0,.11,0,.17,0,2.53,3.35,4.6,7.58,4.71.09,0,.19,0,.28,0h.06c4.34,0,7.87-2.08,7.92-4.66,1.34.52,3.33,1.64,5.03,3.99.7.97,1.35,2.16,1.89,3.61-1.61,0-2.83,1.4-2.64,2.98h0Z"/>
      <path class="st2" d="M39.18,15.66c-17.1,0-17.19,14.15-16.43,23.42-1.17-2.2-4.65-1.52-4.36,1.94.27,3.33,5.25,5.03,5.11,4.67,2.59,6.85,9.44,12.02,15.68,12.02h.13V15.66h-.13"/>
      <path class="st3" d="M39.27,15.66c17.1,0,17.19,14.15,16.44,23.42,1.17-2.2,4.63-1.52,4.35,1.94-.26,3.33-5.24,5.03-5.11,4.67-2.52,6.85-9.44,12.02-15.68,12.02h-.09l-.04-42.05h.13"/>
      <path class="st15" d="M39.04,19.65c-5.62,0-9.74,1.62-12.22,4.79-3.48,4.46-3.35,11.26-2.07,16.14.4,1.5.61,5.52.87,6.99,1.22,6.6,8.59,10.12,13.43,10.12h.13V19.65h-.08"/>
      <path class="st22" d="M51.26,24.46c-2.47-3.17-6.54-4.78-12.08-4.81v38.05c5.54-.06,12.17-3.92,13.3-10.12.27-1.47.47-5.49.87-6.99,1.29-4.87,1.42-11.66-2.09-16.13"/>
      <path class="st17" d="M34.51,19.88l-.07.07v.02s.05-.07.07-.1Z"/>
      <path class="st5" d="M26.91,34.5s1.3,5.3,3.54,5.73c2.24.43,4.66-.43,4.66-.43,0,0,.23-6.23-.92-7.04-1.15-.82-3.79-2-7.29,1.74Z"/>
      <path class="st5" d="M51.57,34.32s-1.3,5.3-3.54,5.73c-2.24.43-4.66-.43-4.66-.43,0,0-.23-6.23.92-7.04,1.15-.82,3.79-2,7.29,1.74Z"/>
      <path class="st18" d="M19.48,39.56c.84-1.34,2.15-.76,2.47-.47.34.32.62.74.41,1.52-.12.45-.59.49-.48,1.16.13.76.48.8.69.98.2.17.45.3.57.62.13.32.15.66.08.96-.13.54-.93.1-1.47-.13-.36-.17-1.49-1.11-1.77-1.42-.71-.8-1.05-2.35-.48-3.23"/>
      <path class="st18" d="M58.97,39.56c-.84-1.34-2.14-.76-2.47-.47-.34.32-.61.74-.41,1.52.12.45.59.49.48,1.16-.13.76-.48.8-.68.98-.2.17-.46.3-.58.62-.12.32-.15.66-.08.96.13.54.93.1,1.47-.13.37-.17,1.49-1.11,1.77-1.42.72-.8,1.05-2.35.48-3.23"/>
      <path class="st8" d="M38.49,51c-.08-.01-.15-.03-.21-.04.07.01.14.03.21.04Z"/>
      <path class="st8" d="M38.2,50.94s-.1-.02-.13-.03c.04.01.09.02.13.03Z"/>
      <path class="st7" d="M38.28,50.96s-.05-.01-.08-.02c.02,0,.05.01.08.02Z"/>
      <path class="st7" d="M38.07,50.91s-.05-.01-.07-.02h0s.03,0,.07.02h0Z"/>
      <path class="st3" d="M35.99,45.36c-.06-1.32,2.44-.48,3.26-.44.65.03,2.64-.41,2.81-.3,1.17.78-1.24,2.35-2.85,2.35-.43,0-3.18-.82-3.22-1.61h0Z"/>
      <path class="st8" d="M23.85,31.51c-.15.5-.26,1.05-.33,1.64,0,0,.22-.93.72-2.3-.21.29-.36.53-.39.66Z"/>
      <path class="st8" d="M38.54,50.23c-.08-.01-.15-.03-.22-.04.07.01.15.03.22.04Z"/>
      <path class="st8" d="M38.24,50.17s-.1-.02-.13-.03c.04.01.09.02.13.03Z"/>
      <path class="st0" d="M38.33,50.19s-.05-.01-.08-.02c.03,0,.05.01.08.02Z"/>
      <path class="st0" d="M38.11,50.14s-.05-.01-.07-.02h0s.03,0,.07.02Z"/>
      <path class="st13" d="M35.12,39.79s-.05.01-.17.06c-.03-1.91-.21-4.53-.92-5.04-1.06-.77-3.47-1.86-6.68,1.11-.29-.82-.44-1.44-.44-1.44,3.51-3.74,6.15-2.56,7.29-1.75,1.15.82.92,7.05.92,7.05h0Z"/>
      <ellipse class="st19" cx="31.59" cy="37.09" rx="2.2" ry="2.18"/>
      <path class="st1" d="M31.49,38.55c-.64-.05-1.13-.69-1.07-1.39s.64-1.25,1.28-1.19,1.13.69,1.07,1.39-.64,1.25-1.28,1.2h0Z"/>
      <path class="st6" d="M31.54,38.29c-.44-.04-.9-.52-.85-1.11.05-.6.58-.99,1.03-.96.44.04.9.52.85,1.11s-.58.99-1.02.96h0Z"/>
      <path class="st8" d="M38.58,50.85c-.08-.01-.15-.03-.22-.04.07.01.15.03.22.04Z"/>
      <path class="st8" d="M38.28,50.8s-.1-.02-.13-.03c.04.01.09.02.13.03Z"/>
      <path class="st0" d="M38.36,50.81s-.05-.01-.08-.02c.03,0,.05.01.08.02Z"/>
      <path class="st0" d="M38.15,50.76s-.05-.01-.07-.02h0s.03,0,.07.02Z"/>
      <path class="st8" d="M38.5,50.71c-.09-.01-.16-.03-.23-.04.08.02.16.03.23.04Z"/>
      <path class="st8" d="M38.17,50.64c-.05-.01-.11-.02-.14-.03.05.01.09.02.14.03Z"/>
      <path class="st7" d="M38.26,50.66s-.06-.01-.09-.02c.03,0,.05.01.09.02Z"/>
      <path class="st7" d="M38.03,50.61s-.05-.01-.08-.02h0s.03.01.08.02h0Z"/>
      <path class="st8" d="M38.43,50.49c-.09-.01-.16-.03-.23-.04.08.02.16.03.23.04Z"/>
      <path class="st8" d="M38.11,50.42c-.05-.01-.11-.02-.14-.03.05.01.09.02.14.03Z"/>
      <path class="st7" d="M38.2,50.44s-.06-.01-.09-.02c.03,0,.05.01.09.02Z"/>
      <path class="st7" d="M37.97,50.39s-.05-.01-.08-.02h0s.03.01.08.02h0Z"/>
      <path class="st8" d="M38.62,50.45c-.08-.01-.16-.03-.22-.04.07.02.15.03.22.04Z"/>
      <path class="st8" d="M38.31,50.39s-.1-.02-.14-.03c.05.01.09.02.14.03Z"/>
      <path class="st7" d="M38.4,50.41s-.06-.01-.09-.02c.03,0,.05.01.09.02Z"/>
      <path class="st7" d="M38.18,50.36s-.05-.01-.07-.02h0s.03.01.08.02h0Z"/>
      <path class="st13" d="M43.36,39.61s.05.01.17.06c.03-1.91.21-4.53.92-5.04,1.06-.77,3.47-1.86,6.68,1.11.29-.82.44-1.44.44-1.44-3.51-3.74-6.15-2.56-7.29-1.75-1.15.82-.92,7.05-.92,7.05h0Z"/>
      <path class="st19" d="M44.69,36.91c0,1.21.99,2.18,2.2,2.18s2.2-.98,2.2-2.18-.99-2.18-2.2-2.18-2.2.98-2.2,2.18Z"/>
      <path class="st1" d="M47,38.37c.64-.05,1.13-.69,1.07-1.39s-.64-1.25-1.28-1.19c-.64.05-1.13.69-1.07,1.39s.64,1.25,1.28,1.2h0Z"/>
      <path class="st6" d="M46.94,38.11c.44-.04.9-.52.85-1.11-.05-.6-.58-.99-1.03-.96-.44.04-.9.52-.85,1.11s.58.99,1.02.96h0Z"/>
      <g>
        <path d="M36.46,34.42s-.42-.64-1.25-1.27c-.52-.4-1.03-.69-1.56-.92-.64-.27-1.34-.46-2.01-.55-.61-.07-1.28-.05-2.06.06-.6.11-1.18.29-1.68.5-.35.12-.63.29-.86.43-.09.05-.16.1-.24.14l-1.07.67,1.23-.29c.06-.01.12-.03.19-.05.26-.07.57-.15.94-.2.09-.01.17-.03.27-.05.16-.03.32-.06.48-.07.19-.01.38-.02.58-.04l.26-.02c.68,0,1.26.04,1.77.16.56.1,1.14.28,1.66.52.5.24.98.47,1.35.74.75.5,1.17.91,1.18.92h0c.1.1.24.16.38.16.1,0,.2-.03.29-.08.25-.16.32-.49.16-.73v-.02s-.02,0-.02,0Z"/>
        <path d="M51.79,32.81c-.07-.04-.15-.08-.24-.14-.22-.14-.5-.31-.85-.42-.51-.22-1.09-.4-1.7-.51-.78-.1-1.45-.12-2.06-.05-.67.09-1.36.28-2.01.55-.52.22-1.05.53-1.56.92-.82.62-1.22,1.22-1.25,1.27h0c-.14.22-.11.5.07.68.1.1.24.16.38.16h0c.14,0,.28-.06.38-.16h0s.45-.44,1.18-.92c.37-.27.84-.5,1.34-.74.53-.24,1.1-.42,1.67-.52.51-.12,1.08-.17,1.76-.16l.27.02c.2.01.39.03.58.04.16,0,.32.04.48.07.09.02.18.04.27.05.37.05.69.14.94.2.07.02.13.04.19.05l1.23.29-1.08-.67h0Z"/>
      </g>
      <path class="st12" d="M44.7,50.47c-1.55-.45-5.56-1.26-5.56-1.26-2.91.44-5.18,1.25-5.2,1.26-.07,0,2.61,2.77,5.45,2.64h0c2.84.13,5.37-2.63,5.3-2.64Z"/>
      <path class="st5" d="M31.19,36.83c-.02.22-.24.37-.5.35-.26-.02-.45-.21-.43-.43s.24-.37.5-.35c.26.02.45.21.43.43h0Z"/>
      <path class="st5" d="M32.62,38.07c-.01.11-.12.19-.25.18-.13-.01-.22-.11-.22-.21.01-.11.12-.19.25-.18.13.01.22.11.22.21Z"/>
      <path class="st5" d="M39.26,49.37h-.06c-.42.03-.84-.04-1.22-.15h0c-1.3-.4-2.55.71-2.71.86-.1.1-.21.17-.37.2l.06.13c.24.49.79.74,1.32.61.71-.18,1.79-.38,3.02-.44v-1.21h-.06Z"/>
      <path class="st5" d="M39.38,49.37h.06c.42.03.84-.04,1.22-.15h0c1.3-.4,2.55.71,2.71.86.1.1.21.17.37.2l-.06.13c-.24.49-.79.74-1.32.61-.71-.18-1.79-.38-3.02-.44v-1.21h.06Z"/>
      <path class="st21" d="M41.79,47.98s-.42.16-.91.29h0s-.03.01-.09.02c-.05.01-.1.02-.15.04-.03,0-.06.01-.1.02-.09.02-.17.04-.25.05-.25.04-.56.08-.88.1h-.18c-.32-.01-.63-.05-.88-.1-.08-.01-.17-.03-.25-.05-.04,0-.06-.01-.1-.02-.05-.01-.1-.02-.15-.04-.06-.01-.09-.02-.09-.02h0c-.49-.13-.91-.3-.91-.3-1.53-.48-2.91,2.5-2.91,2.5h0l.16.02c-.05.25.07-.09.07-.09.17,0,.4-.09.6-.11.05,0,.09,0,.13-.02.15-.03.26-.1.36-.19h0s0,0,.02-.01c.16-.15,1.41-1.26,2.71-.86h0c.38.11.79.18,1.22.14h.24c.42.03.84-.04,1.22-.15h0c1.3-.4,2.55.71,2.71.86l.02.02h0c.09.08.2.16.36.18.04,0,.09.01.13.02.21.02.44.11.6.11,0,0,.11.35.07.09l.16-.02h0s-1.38-2.98-2.91-2.5h0Z"/>
      <path class="st5" d="M47.3,36.65c.02.22.24.37.5.35.26-.02.45-.21.43-.43-.02-.22-.24-.37-.5-.35-.26.02-.45.21-.43.43h0Z"/>
      <path class="st5" d="M45.87,37.89c.01.11.12.19.25.18.13-.01.22-.11.22-.21-.01-.11-.12-.19-.25-.17-.13.01-.22.11-.22.21h0Z"/>
      <path class="st5" d="M39.43,52.43h.04c.25-.02.5.02.73.09h0c.78.24,1.53-.43,1.63-.52.06-.06.12-.1.22-.12l-.04-.08c-.15-.29-.48-.45-.79-.37-.43.11-1.07.23-1.82.26v.73h.04,0Z"/>
      <path class="st5" d="M39.36,52.43h-.04c-.25-.02-.5.02-.73.09h0c-.78.24-1.53-.43-1.63-.52-.06-.06-.12-.1-.22-.12l.04-.08c.15-.29.48-.45.79-.37.43.11,1.07.23,1.82.26v.73h-.04,0Z"/>
      <path class="st23" d="M58.01,24.47c-2.56-8.11-6.19-11.13-10.62-12.89-4.01-1.59-10.75-.15-12.01.13-.01-.03-.02-.05-.02-.05-.71-.02-1.32.05-1.89.22h0s-1.75-1.02-3.97-1.69l2.1-2.52c.55.24,1.2.1,1.62-.4.52-.63.47-1.58-.13-2.13-.59-.55-1.5-.49-2.02.13-.42.5-.46,1.2-.16,1.75l-2.42,2.9c-4.06-.93-8.96-.18-7.92,9.48l-3.99,4.78c-.55-.24-1.2-.11-1.62.39-.52.63-.47,1.58.13,2.13.59.55,1.5.49,2.02-.13.41-.5.46-1.2.16-1.75l3.45-4.14c.13.89.31,1.85.54,2.88,0,.09-.47,1.54-.69,2.24-2.56,8.11-1.19,15.02.04,17.59,3.11,6.5,5.39,6.54,5.39,6.54,0,0-.68-1.7-.68-6.4,0-3,1.76-6.44,3.03-8.54.43-.72.81-1.28,1.04-1.61l4.9-7.59c.04.32.09.65.2,1.01.76,2.62,1.61,3.97,6.97,7.23,2.2,1.34,1.87,9.85,1.87,9.85,0,0,2.42-7.16,1.36-10.23h0c.9,1.16,2.02,2.46,3.37,3.69,4.22,3.88,1.58,9.09,1.58,9.09,0,0,2.08-3.1,1.69-7.11-.19-1.88-.33-2.66-.42-2.98.56.37,2.35,1.87,2.35,5.83,0,4.69-.99,7.88-1.65,9.73-.85,2.39-5.21,7.98-5.21,7.98,0,0,10.01-8.88,11.58-17.85.5-2.84,2.6-9.48.04-17.59h0Z"/>
      <path class="st4" d="M52.66,66.11l-12.9,12.77h-10.8l10.69-12.11h.06c4.34,0,7.87-2.08,7.92-4.66,1.34.52,3.33,1.64,5.03,3.99Z"/>
      <g>
        <g>
          <path class="st10" d="M35.84,39.55c.16-.54.25-1.11.25-1.71,0-3.34-2.72-6.05-6.09-6.05s-6.08,2.71-6.08,6.05c0,.74.14,1.45.38,2.11,2.77-1.23,7.11-2.37,11.54-.4Z"/>
          <path class="st10" d="M53.61,40.85c.51-.89.81-1.92.81-3.01,0-3.34-2.72-6.05-6.08-6.05s-6.09,2.71-6.09,6.05c0,1.17.34,2.26.92,3.18,2.74-1.4,6.49-2.3,10.45-.17Z"/>
          <path class="st10" d="M36.79,40.02c-.02.06-.04.12-.06.18.03-.06.06-.1.09-.16-.01,0-.02-.01-.04-.02Z"/>
          <path class="st9" d="M36.79,40.02c-.02.06-.04.12-.06.18.03-.06.06-.1.09-.16-.01,0-.02-.01-.04-.02Z"/>
          <path class="st10" d="M30,43.9c2.76,0,5.1-1.83,5.84-4.35-4.42-1.96-8.76-.83-11.54.4.86,2.3,3.08,3.95,5.7,3.95h0Z"/>
          <path class="st9" d="M30,43.9c2.76,0,5.1-1.83,5.84-4.35-4.42-1.96-8.76-.83-11.54.4.86,2.3,3.08,3.95,5.7,3.95h0Z"/>
          <path class="st10" d="M42.15,41.58c.09.13.2.25.3.37-.09-.13-.19-.26-.27-.39-.01,0-.02.01-.03.01h0Z"/>
          <path class="st9" d="M42.15,41.58c.09.13.2.25.3.37-.09-.13-.19-.26-.27-.39-.01,0-.02.01-.03.01h0Z"/>
          <path class="st10" d="M48.34,43.9c2.25,0,4.22-1.23,5.27-3.04-3.96-2.13-7.71-1.23-10.45.17,1.08,1.72,2.98,2.87,5.17,2.87Z"/>
          <path class="st9" d="M48.34,43.9c2.25,0,4.22-1.23,5.27-3.04-3.96-2.13-7.71-1.23-10.45.17,1.08,1.72,2.98,2.87,5.17,2.87Z"/>
        </g>
        <path class="st5" d="M55.27,36.14s-.06,0-.09,0c-.43-1.72-1.48-3.2-2.91-4.17-1.14-.78-2.52-1.24-4.01-1.24s-2.74.42-3.85,1.13c-1.43.92-2.51,2.33-3,3.99h-4.56c-.68-2.31-2.5-4.13-4.81-4.82-.65-.19-1.34-.3-2.04-.3-.8,0-1.57.14-2.29.38-2.29.78-4.05,2.67-4.63,5.03-.03,0-.06-.01-.1-.01-.36,0-.65.29-.65.65v1.89c0,.36.29.65.65.65h.06c.01.06.03.13.04.19.54,2.23,2.12,4.06,4.22,4.92.83.34,1.75.53,2.71.53,1.9,0,3.63-.74,4.91-1.95.82-.77,1.45-1.73,1.83-2.81.02-.06.04-.12.06-.18.17-.53.29-1.09.33-1.67.3-.13.62-.22.94-.29.82-.17,1.65-.14,2.36.09.26.08.51.19.72.33.1,1.13.47,2.18,1.03,3.1.08.13.17.26.27.39,1.29,1.81,3.4,2.99,5.81,2.99.68,0,1.34-.1,1.96-.28,1.73-.49,3.18-1.61,4.1-3.1.42-.68.74-1.45.91-2.26h.04c.36,0,.64-.29.64-.65v-1.89c0-.36-.29-.65-.64-.65h0ZM35.84,39.55c-.74,2.51-3.07,4.35-5.84,4.35-2.61,0-4.84-1.64-5.7-3.95-.25-.66-.38-1.37-.38-2.11,0-3.34,2.72-6.05,6.08-6.05s6.09,2.71,6.09,6.05c0,.59-.09,1.16-.25,1.71h0ZM41.13,37.61c-.22-.1-.47-.18-.73-.24-.71-.18-1.5-.2-2.29-.07-.33.06-.67.14-.99.26-.01-.36-.06-.72-.13-1.07h4.26c-.07.37-.12.74-.13,1.13h0ZM53.61,40.85c-1.05,1.81-3.02,3.04-5.27,3.04s-4.1-1.15-5.17-2.87c-.58-.92-.92-2.01-.92-3.18,0-3.34,2.72-6.05,6.09-6.05s6.08,2.71,6.08,6.05c0,1.1-.3,2.12-.81,3.01Z"/>
      </g>
    </g>
  </g>
</svg>