<?xml version="1.0" encoding="UTF-8"?>
<svg id="Layer_2" xmlns="http://www.w3.org/2000/svg" version="1.1" xmlns:xlink="http://www.w3.org/1999/xlink" viewBox="0 0 78.88 78.88">
  <!-- Generator: Adobe Illustrator 30.2.1, SVG Export Plug-In . SVG Version: 2.1.1 Build 1)  -->
  <defs>
    <style>
      .st0 {
        fill: #b5957e;
      }

      .st1 {
        fill: #b8987d;
      }

      .st2 {
        fill: #714223;
      }

      .st3 {
        fill: #ccad8a;
      }

      .st4 {
        fill: #ecdab6;
      }

      .st5 {
        fill: #873a32;
      }

      .st6 {
        fill: #d7bd9d;
      }

      .st7 {
        fill: #fff;
      }

      .st8 {
        fill: #272213;
      }

      .st9 {
        fill: #b7967d;
      }

      .st10 {
        fill: #c27976;
      }

      .st11 {
        fill: none;
      }

      .st12 {
        fill: #af6a6f;
      }

      .st13 {
        fill: #d2bb9b;
      }

      .st14 {
        fill: #ba9d82;
      }

      .st15 {
        fill: #d29e0f;
      }

      .st16 {
        fill: #dcc5a0;
      }

      .st17 {
        fill: #c76f10;
      }

      .st18 {
        fill: #d6bb9c;
      }

      .st19 {
        fill: #a4b1c6;
      }

      .st20 {
        fill: #44361f;
      }

      .st21 {
        fill: #a98d76;
      }

      .st22 {
        fill: #462e1b;
      }

      .st23 {
        clip-path: url(#clippath);
      }

      .st24 {
        fill: #ebd9b5;
      }
    </style>
    <clipPath id="clippath">
      <rect class="st11" x="36.72" y="54.7" width="8.86" height="5.22"/>
    </clipPath>
  </defs>
  <g id="Layer_1-2">
    <g>
      <rect class="st19" width="78.88" height="78.88"/>
      <path class="st17" d="M57.78,54.2c-.17-1.17-.26-1.83-.27-2.3h-.17c.58-1.17,1.01-2.41,1.3-3.7h0c.01-.07.02-.13.04-.2.11-.52.19-1.05.25-1.58.96-7.87-1.62-18.13-1.62-18.13.26,2.49.01,5.55-.41,8.41-.33,2.27-.77,4.42-1.14,6.07-.35,1.54-.64,2.65-.74,3.02-1.34,4.26-3.72,7.74-6.72,9.9.2-.83.32-1.77.32-2.78,0-.44-.03-.87-.07-1.29.3-.05.58-.11.85-.22.42-.12.81-.33,1.14-.66.69-.68,1.14-1.87,1.22-3.77,0,0-1.77,4.3-4.53.49,0,0-3.17-5.87-5.97-3.52-2.8-2.35-5.97,3.52-5.97,3.52-2.75,3.8-4.53-.49-4.53-.49.05,1.36.27,2.3.65,3.01l.02.03s.07.1.17.24c.1.14.25.31.47.49,0,0,0,0,.01.01.21.17.48.34.82.46.27.12.64.14,1.09.12-.06.5-.1,1.03-.1,1.58,0,1.01.12,1.95.32,2.78-3-2.15-5.38-5.63-6.72-9.9-.1-.37-.39-1.47-.74-3.02-.37-1.65-.81-3.8-1.14-6.07-.42-2.86-.66-5.92-.41-8.41,0,0-2.59,10.26-1.62,18.13.06.54.14,1.07.25,1.58.01.07.03.14.04.2h0c.29,1.29.72,2.53,1.3,3.7h-.17c-.01.47-.1,1.13-.27,2.3-.47,3.21-1.85,4.05-1.85,4.05,0,0,2.14-1.22,2.66-2.06.25-.4.91-1.51,1.12-1.86,0,.01.01.01.02.02-.12.37-.4,1.56,0,3.86.52,3.01,2.65,5.03,2.65,5.03,0,0-1.27-2.39-.92-5.01,0,0-.07,1.05,2,3.97,1.98,2.79,5.59,6.89,5.91,6.93-.03-.09-.06-4.07-.09-5.25,1.51.61,3.09,4.6,4.73,4.6.1,0,.19,0,.29-.01h0c.1,0,.19.01.29.01,1.64,0,3.21-3.98,4.73-4.6-.02,1.18-.06,5.89-.09,5.98.32-.04,3.93-4.86,5.91-7.66,2.07-2.92,2-3.97,2-3.97.35,2.62-.92,5.01-.92,5.01,0,0,2.13-2.03,2.65-5.03.4-2.3.12-3.49,0-3.86,0-.01.01-.02.02-.02.2.35.87,1.45,1.12,1.86.52.83,2.66,2.06,2.66,2.06,0,0-1.39-.84-1.85-4.05h.02Z"/>
      <path class="st20" d="M36.2,19.75l-.07.07v.02s.05-.07.07-.1Z"/>
      <path class="st16" d="M41.12,49.33v29.55h-16c-.26-.1-.39-.16-.39-.16,0-3.77.55-6.71,1.4-9.01,2.04-5.54,5.76-7.29,7.48-7.82.56-.17.91-.22.91-.22.06,0,.12,0,.18-.01.51-.08.91-.52,1.24-1.22.24-.52.45-1.18.61-1.94.07-.3.12-.6.17-.92.08-.55.16-1.12.22-1.72.02-.36.06-.72.1-1.09.14-1.81.18-3.79.18-5.66,0,0,2.15.22,3.89.22h0Z"/>
      <path class="st24" d="M57.58,78.72s-.14.05-.38.16h-16.08v-29.55h.04c1.73,0,3.91-.22,3.91-.22,0,1.86.04,3.81.18,5.62.04.35.08.72.1,1.07.07.62.14,1.21.24,1.76h0c.02.26.08.48.12.71.16.77.35,1.45.58,1.99.29.67.64,1.15,1.06,1.33.13.06.28.09.43.09,0,0,.61.07,1.54.44,1.88.74,5.05,2.67,6.87,7.6.84,2.29,1.4,5.24,1.4,9.01h0Z"/>
      <g class="st23">
        <path class="st14" d="M45.59,57.5h0c-.4.64-1.76,2.42-4.44,2.42h-.02c-2.54-.01-4.02-1.85-4.4-2.39.08-.54.16-1.11.22-1.71.02-.35.06-.71.1-1.09,1.24.31,2.59.5,4.02.53h.05c1.48-.02,2.85-.23,4.13-.57.04.35.08.71.1,1.06.06.62.14,1.2.23,1.75"/>
      </g>
      <path class="st3" d="M40.94,15.66c-16.95,0-17.04,14.15-16.29,23.42-1.16-2.2-4.61-1.52-4.32,1.94.27,3.33,5.2,5.03,5.06,4.67,2.57,6.85,9.36,12.02,15.55,12.02h.13V15.66h-.13"/>
      <path class="st21" d="M21.41,39.56c.83-1.34,2.14-.76,2.45-.47.34.32.61.74.4,1.52-.12.45-.59.49-.48,1.16.13.76.48.8.69.98.19.17.44.3.56.62.13.32.14.66.08.96-.13.54-.93.1-1.46-.13-.35-.17-1.47-1.11-1.76-1.42-.7-.8-1.04-2.35-.48-3.23"/>
      <path class="st6" d="M41.03,15.66c16.95,0,17.04,14.15,16.3,23.42,1.16-2.2,4.59-1.52,4.31,1.94-.26,3.33-5.2,5.03-5.06,4.67-2.5,6.85-9.36,12.02-15.55,12.02h-.09l-.04-42.05h.13"/>
      <path class="st21" d="M60.56,39.56c-.83-1.34-2.12-.76-2.45-.47-.34.32-.6.74-.4,1.52.12.45.59.49.48,1.16-.13.76-.48.8-.68.98-.19.17-.46.3-.57.62-.12.32-.14.66-.08.96.13.54.93.1,1.46-.13.36-.17,1.47-1.11,1.76-1.42.72-.8,1.04-2.35.48-3.23"/>
      <path class="st16" d="M40.81,19.65c-5.57,0-9.66,1.62-12.12,4.79-3.45,4.46-3.32,11.26-2.06,16.14.39,1.5.6,5.52.86,6.99,1.21,6.6,8.52,10.12,13.32,10.12h.13V19.65h-.08"/>
      <path class="st24" d="M52.91,24.46c-2.45-3.17-6.48-4.78-11.98-4.81v38.06c5.5-.06,12.07-3.92,13.19-10.12.27-1.47.47-5.49.86-6.99,1.27-4.87,1.41-11.66-2.07-16.13"/>
      <path class="st11" d="M40.26,51c-.08-.01-.15-.03-.21-.04.07.01.14.03.21.04Z"/>
      <path class="st11" d="M39.97,50.94s-.1-.02-.13-.03c.04.01.08.02.13.03Z"/>
      <path class="st9" d="M40.05,50.96s-.05-.01-.08-.02c.02,0,.05.01.08.02Z"/>
      <path class="st9" d="M39.84,50.91s-.05-.01-.07-.02h0s.03,0,.07.02h0Z"/>
      <path class="st11" d="M25.74,31.51c-.15.5-.26,1.05-.33,1.64,0,0,.22-.93.72-2.3-.21.29-.35.53-.39.66Z"/>
      <path class="st11" d="M40.31,50.23c-.08-.01-.15-.03-.22-.04.07.01.14.03.22.04Z"/>
      <path class="st11" d="M40.01,50.17s-.1-.02-.13-.03c.04.01.08.02.13.03Z"/>
      <path class="st0" d="M40.09,50.19s-.05-.01-.08-.02c.03,0,.05.01.08.02Z"/>
      <path class="st0" d="M39.88,50.14s-.05-.01-.07-.02h0s.03,0,.07.02Z"/>
      <path class="st18" d="M38.02,45.35c-.07-1.35,2.48-.49,3.32-.45.66.04,2.68-.43,2.86-.31,1.19.8-1.26,2.41-2.9,2.41-.44,0-3.24-.84-3.28-1.65Z"/>
      <path class="st11" d="M40.34,50.85c-.08-.01-.15-.03-.22-.04.07.01.14.03.22.04Z"/>
      <path class="st11" d="M40.05,50.8s-.1-.02-.13-.03c.04.01.08.02.13.03Z"/>
      <path class="st0" d="M40.13,50.82s-.05-.01-.08-.02c.03,0,.05.01.08.02Z"/>
      <path class="st0" d="M39.92,50.77s-.05-.01-.07-.02h0s.03,0,.07.02Z"/>
      <path class="st11" d="M40.26,50.71c-.08-.01-.16-.03-.23-.04.08.02.16.03.23.04Z"/>
      <path class="st11" d="M39.94,50.65c-.05-.01-.11-.02-.14-.03.05.01.09.02.14.03Z"/>
      <path class="st9" d="M40.03,50.66s-.06-.01-.09-.02c.03,0,.05.01.09.02Z"/>
      <path class="st9" d="M39.8,50.61s-.05-.01-.08-.02h0s.03.01.08.02h0Z"/>
      <path class="st11" d="M40.2,50.49c-.08-.01-.16-.03-.23-.04.08.02.16.03.23.04Z"/>
      <path class="st11" d="M39.87,50.42c-.05-.01-.11-.02-.14-.03.05.01.09.02.14.03Z"/>
      <path class="st9" d="M39.96,50.44s-.06-.01-.09-.02c.03,0,.05.01.09.02Z"/>
      <path class="st9" d="M39.74,50.39s-.05-.01-.08-.02h0s.03.01.08.02h0Z"/>
      <path class="st11" d="M40.39,50.46c-.08-.01-.16-.03-.22-.04.07.02.15.03.22.04Z"/>
      <path class="st11" d="M40.08,50.4s-.1-.02-.13-.03c.05.01.09.02.13.03Z"/>
      <path class="st9" d="M40.17,50.41s-.06-.01-.08-.02c.03,0,.05.01.08.02Z"/>
      <path class="st9" d="M39.95,50.36s-.05-.01-.07-.02h0s.03.01.08.02h0Z"/>
      <path class="st11" d="M39.56,52.7c-.08-.01-.15-.03-.21-.04.07.01.14.03.21.04Z"/>
      <path class="st11" d="M39.26,52.65s-.1-.02-.13-.03c.04.01.08.02.13.03Z"/>
      <path class="st1" d="M39.34,52.66s-.05-.01-.08-.02c.03,0,.05.01.08.02Z"/>
      <path class="st1" d="M39.13,52.62s-.05-.01-.07-.02h0s.03,0,.07.02Z"/>
      <path class="st11" d="M39.5,52.5c-.08-.01-.15-.03-.21-.04.07.01.14.03.21.04Z"/>
      <path class="st11" d="M39.2,52.44s-.1-.02-.13-.03c.04.01.08.02.13.03Z"/>
      <path class="st1" d="M39.28,52.46s-.05-.01-.08-.02c.03,0,.05.01.08.02Z"/>
      <path class="st1" d="M39.07,52.41s-.05-.01-.07-.02h0s.03,0,.07.02Z"/>
      <path class="st11" d="M39.68,52.47c-.08-.01-.14-.03-.2-.04.07.01.14.03.2.04Z"/>
      <path class="st11" d="M39.39,52.41s-.1-.02-.12-.03c.04.01.08.02.12.03Z"/>
      <path class="st1" d="M39.47,52.43s-.05-.01-.08-.02c.02,0,.05.01.08.02Z"/>
      <path class="st1" d="M39.27,52.39s-.05-.01-.07-.02h0s.03,0,.07.02h0Z"/>
      <path class="st4" d="M37.7,53.06c-.06-.84,2.35.18,3.14.2.63.02,2.53-.12,2.71-.19,1.33-.49-.07,1.41-2.74,1.51-1.23.05-3.07-1.01-3.1-1.52h0Z"/>
      <path class="st12" d="M45.65,51.04c-1.53-.29-4.75.02-4.75.02-2.66.44-4.74-.03-4.75-.01-.06,0,2.12,2.9,4.71,2.77h0c2.59.13,4.85-2.77,4.79-2.78h0Z"/>
      <path class="st10" d="M42.43,50.43c-.69-.08-1.18.42-1.53.38-.36.03-.83-.29-1.52-.29-.97-.01-1.45-.1-3.24.53.06.12,1.2.78,3.34.82.03,0,.6.32,1.42.32.51,0,1.21-.34,1.24-.34,2.14-.03,3.45-.67,3.51-.79-2.36-.73-2.17-.64-3.23-.63h0Z"/>
      <path class="st7" d="M28.78,34.4s1.29,5.32,3.51,5.75c2.22.43,4.62-.43,4.62-.43,0,0,.23-6.25-.91-7.06-1.14-.82-3.75-2-7.23,1.74Z"/>
      <path class="st13" d="M36.91,39.71s-.05.01-.17.06c-.03-1.92-.2-4.55-.91-5.05-1.06-.78-3.44-1.86-6.62,1.12-.29-.82-.43-1.45-.43-1.45,3.48-3.75,6.1-2.57,7.23-1.75,1.14.82.91,7.07.91,7.07h0Z"/>
      <ellipse class="st22" cx="33.41" cy="37" rx="2.19" ry="2.19"/>
      <path class="st2" d="M33.32,38.46c-.63-.05-1.12-.69-1.06-1.39s.64-1.25,1.27-1.2,1.12.69,1.06,1.39c-.06.7-.64,1.25-1.27,1.2Z"/>
      <path class="st8" d="M33.37,38.2c-.44-.04-.89-.52-.85-1.11.05-.6.58-1,1.02-.96.44.04.89.52.84,1.12-.05.6-.58,1-1.01.96Z"/>
      <path class="st7" d="M33.01,35.65c-.02.22-.24.37-.49.35-.25-.02-.45-.22-.43-.43.02-.22.24-.37.49-.35s.45.21.43.43Z"/>
      <path class="st7" d="M34.43,37.98c-.01.11-.12.19-.24.18-.13-.01-.22-.11-.22-.22.01-.11.12-.19.24-.18.13.01.22.11.22.22Z"/>
      <path class="st7" d="M53.23,34.22s-1.29,5.32-3.51,5.75-4.62-.43-4.62-.43c0,0-.23-6.25.91-7.06,1.14-.82,3.75-2,7.23,1.74h0Z"/>
      <path class="st13" d="M45.09,39.53s.05.01.17.06c.03-1.92.2-4.55.91-5.05,1.06-.78,3.44-1.86,6.62,1.11.29-.82.43-1.45.43-1.45-3.48-3.75-6.1-2.57-7.23-1.75-1.14.82-.91,7.07-.91,7.07h0Z"/>
      <path class="st22" d="M46.4,36.82c0,1.21.98,2.19,2.19,2.19s2.19-.98,2.19-2.19-.98-2.19-2.19-2.19-2.19.98-2.19,2.19Z"/>
      <path class="st2" d="M48.69,38.28c.63-.05,1.12-.69,1.06-1.39s-.64-1.25-1.27-1.2c-.63.05-1.12.69-1.06,1.39.06.7.64,1.25,1.27,1.2Z"/>
      <path class="st8" d="M48.64,38.02c.44-.04.89-.52.85-1.11-.05-.6-.58-1-1.02-.96-.44.04-.89.52-.84,1.12.05.6.58,1,1.01.96h0Z"/>
      <path class="st7" d="M48.99,36.56c.02.22.24.37.49.35.25-.02.45-.22.43-.43-.02-.22-.24-.37-.49-.35s-.45.21-.43.43h0Z"/>
      <path class="st7" d="M47.58,37.8c.01.11.12.19.24.18.13-.01.22-.11.22-.22-.01-.11-.12-.19-.24-.18-.13.01-.22.11-.22.22Z"/>
      <g>
        <path d="M38.25,34.32s-.42-.64-1.24-1.27c-.52-.4-1.02-.7-1.55-.92-.64-.27-1.32-.46-1.99-.55-.6-.07-1.27-.05-2.04.06-.59.11-1.17.29-1.66.51-.35.12-.63.29-.85.43-.08.05-.16.1-.24.14l-1.06.67,1.22-.29c.06-.01.12-.03.18-.05.25-.07.57-.15.94-.2.08-.01.17-.03.26-.05.16-.03.31-.06.48-.07.18-.01.38-.02.58-.04l.26-.02c.68,0,1.25.04,1.76.16.55.1,1.13.28,1.65.52.49.24.97.47,1.34.74.75.5,1.16.92,1.17.92h0c.1.1.24.16.38.16.1,0,.2-.03.29-.09.25-.16.31-.49.16-.73v-.02s-.02.01-.02.01Z"/>
        <path d="M53.45,32.7c-.07-.04-.15-.08-.23-.14-.22-.14-.5-.31-.84-.42-.5-.22-1.08-.4-1.68-.51-.77-.1-1.44-.12-2.04-.05-.66.09-1.35.28-1.99.55-.52.22-1.04.53-1.55.92-.81.62-1.21,1.22-1.24,1.27h0c-.14.22-.11.5.07.68.1.1.23.16.38.16h0c.14,0,.28-.06.37-.16h0s.44-.44,1.17-.92c.36-.27.84-.5,1.33-.74.53-.24,1.09-.42,1.66-.52.5-.12,1.07-.17,1.74-.16l.27.02c.19.01.38.03.57.04.16,0,.32.04.48.07.09.02.18.04.26.05.37.05.69.14.94.2.07.02.13.04.19.05l1.22.29-1.07-.67h0Z"/>
      </g>
      <path class="st5" d="M58.07,75.94c-.09-1.24-.23-2.38-.43-3.43-.34-1.85-.83-3.41-1.42-4.74-.82-1.88-1.82-3.28-2.83-4.34h0l-.1-.1s-.02-.02-.04-.04h0c-1.95-1.91-3.91-2.56-4.75-2.76.01.05-.53-.18-.64-.4-.33-.56-.72-1.1-1.19-1.69-.04-.05-.08-.08-.11-.13l-.18,1.04-3.3,3.92h-.24l-1.8,2.14-1.72-2.01h.02l-3.3-3.86-.26-1.23s-.04.05-.07.07c-.69.83-1.88,2.19-1.87,2.13-.84.2-3.07.86-5.02,2.76h0c-1.06,1.07-2.1,2.51-2.96,4.47-.58,1.33-1.07,2.9-1.42,4.74-.19,1.05-.34,2.19-.43,3.43-.06.87-.1,1.79-.1,2.76,0,0,.14.07.41.18h33.4c.26-.12.4-.18.4-.18,0-.97-.04-1.89-.1-2.76h0Z"/>
      <path class="st7" d="M48.56,61.55h0c-.19-2.97-1.73-3.54-1.73-3.54h0c-.09-.07-.19-.13-.3-.18-.47-.23-1.03.02-1.18.52-.18.6-.41,1.34-.61,1.88-.15.39-.36.75-.62,1.07-.42.51-1.1,1.34-1.71,2.1-.7.87-2.02.87-2.72.01-.66-.81-1.4-1.69-1.82-2.19-.23-.27-.41-.57-.56-.9-.19-.42-.31-1.14-.41-1.75-.08-.52-.61-.83-1.11-.66-.11.04-.2.07-.29.1-.15.02-1.77.36-1.98,3.25h0c-.16,1.16-.23,2.85-.25,4.21-.01.76.91,1.15,1.44.6.32-.33.62-.62.84-.78.13-.1.3-.2.48-.3.42-.23.94-.04,1.15.38l3.25,6.82c.3.63,1.19.64,1.51.02l3.35-6.61c.23-.44.8-.61,1.2-.32,0,0,0,0,0,0,.22.16.52.45.84.78.53.55,1.46.16,1.44-.61-.02-1.25-.08-2.78-.22-3.92h0Z"/>
      <path class="st15" d="M41.91,28.64c.49.46,1.12,1.04,1.84,1.69,3.45,3.16,10.68,9.75,12.82,11.55l.04.03c.11.17.2.19.23.2l6.6,5.68-4.91-8.59,2.63,2.26-2.27-3.98c.98-1.97,1.98-5.27,1.98-8.56,0-4.36-1.49-8.23-5.39-12.35-.14-.15-.29-.31-.45-.46.19-1.34-.48-3.08-4.14-4.59,0,0,1.15,1.17,2.04,2.79-3.45-2.6-7.08-3.86-7.08-3.86l1.59,1.49c-.95-.73-2.65-1.74-5.47-2.62-4.03-1.27-6.63.14-6.63.14,0,0,2.1-.07,3.13.75-1.02-.44-2.77-.59-5.69.62-.18.07-.36.15-.53.23-1.06-.15-2.18-.42-3.33-.85,0,0,.73.79,1.96,1.58-.95.59-1.7,1.25-2.32,1.91-1.49.05-3.18-.09-4.98-.61,0,0,1.49,1.37,3.7,2.13-.34.43-.65.84-.99,1.23-1.45.37-3.13.59-5.04.48,0,0,1.35.77,3.25,1.15-.39.25-.83.46-1.33.62-4.08,1.33-5.26-.38-5.26-.38,0,0,1.77,2.98,4.92,3,.51,0,.56-.01.56-.01,0,.01-.77,2.08-1.18,4.13-.94.35-1.97.64-3.12.82,0,0,1.24.37,2.92.41,0,.07-.02.15-.02.22-.23,2.44.49,4.1.71,8.66.19,3.89,1.23,1.9,2.46,4.77.42.96.43,2.05.43,2.05.46.11,1.66-2.34.79-6.6-.25-1.22.16-3.95,1.26-6.44h0s1.64-3.05,4.45-4.36l14.39,12.23-6.2-10.12c.16.15.31.29.47.45.06.06.11.12.17.17,0,0,0,0,0,0h0s.37.36.97.92h0s.01.01.02.02h0Z"/>
    </g>
  </g>
</svg>