<?xml version="1.0" encoding="UTF-8"?>
<svg id="Layer_2" data-name="Layer 2" xmlns="http://www.w3.org/2000/svg" xmlns:xlink="http://www.w3.org/1999/xlink" viewBox="0 0 78.88 78.88">
  <defs>
    <style>
      .cls-1 {
        fill: none;
      }

      .cls-2 {
        fill: #354148;
      }

      .cls-3 {
        fill: #7d99ae;
      }

      .cls-4 {
        fill: #84a2b8;
      }

      .cls-5 {
        fill: #d0665f;
      }

      .cls-6 {
        fill: #debaad;
      }

      .cls-7 {
        fill: #4e606b;
      }

      .cls-8 {
        fill: #bf6c6c;
      }

      .cls-9 {
        fill: #7791a4;
      }

      .cls-10 {
        fill: #7b97ab;
      }

      .cls-11 {
        fill: #677e8d;
      }

      .cls-12 {
        fill: #86a3ba;
      }

      .cls-13 {
        fill: #364349;
      }

      .cls-14 {
        fill: #313d43;
      }

      .cls-15 {
        fill: #809cb2;
      }

      .cls-16 {
        fill: #6d8596;
      }

      .cls-17 {
        fill: #44545c;
      }

      .cls-18 {
        fill: #46565f;
      }

      .cls-19 {
        fill: #7893a6;
      }

      .cls-20 {
        fill: #87a5bc;
      }

      .cls-21 {
        fill: #748d9f;
      }

      .cls-22 {
        fill: #627886;
      }

      .cls-23 {
        fill: #576b77;
      }

      .cls-24 {
        fill: #829fb5;
      }

      .cls-25 {
        fill: #b89388;
      }

      .cls-26 {
        fill: #485862;
      }

      .cls-27 {
        fill: #6f8899;
      }

      .cls-28 {
        fill: #5b6f7c;
      }

      .cls-29 {
        fill: #7892a6;
      }

      .cls-30 {
        fill: #829fb4;
      }

      .cls-31 {
        fill: #7690a2;
      }

      .cls-32 {
        fill: #596c79;
      }

      .cls-33 {
        fill: #748ea0;
      }

      .cls-34 {
        fill: #728b9c;
      }

      .cls-35 {
        fill: #ae1d1e;
      }

      .cls-36 {
        fill: #88a6be;
      }

      .cls-37 {
        fill: #a88a6b;
      }

      .cls-38 {
        fill: #738d9f;
      }

      .cls-39 {
        fill: #495963;
      }

      .cls-40 {
        fill: #87a4bb;
      }

      .cls-41 {
        fill: #617785;
      }

      .cls-42 {
        fill: #819db3;
      }

      .cls-43 {
        fill: #95bacb;
      }

      .cls-44 {
        fill: #657b8a;
      }

      .cls-45 {
        fill: #85a2b8;
      }

      .cls-46 {
        fill: #7f9bb0;
      }

      .cls-47 {
        fill: #667c8b;
      }

      .cls-48 {
        fill: #38454c;
      }

      .cls-49 {
        fill: #3e4d54;
      }

      .cls-50 {
        fill: #687f8f;
      }

      .cls-51 {
        fill: #7e9aae;
      }

      .cls-52 {
        fill: #88a7be;
      }

      .cls-53 {
        fill: #5b707d;
      }

      .cls-54 {
        fill: #7a96a9;
      }

      .cls-55 {
        fill: #829eb4;
      }

      .cls-56 {
        fill: #7a95a9;
      }

      .cls-57 {
        fill: #6c8495;
      }

      .cls-58 {
        fill: #7c98ac;
      }

      .cls-59 {
        fill: #85a2b9;
      }

      .cls-60 {
        fill: #677d8d;
      }

      .cls-61 {
        fill: #39464e;
      }

      .cls-62 {
        fill: #3d4b53;
      }

      .cls-63 {
        fill: #344046;
      }

      .cls-64 {
        fill: #586c78;
      }

      .cls-65 {
        fill: #596d7a;
      }

      .cls-66 {
        fill: #87a6bd;
      }

      .cls-67 {
        fill: #637988;
      }

      .cls-68 {
        fill: #37444b;
      }

      .cls-69 {
        fill: #7c97ab;
      }

      .cls-70 {
        fill: #6d8595;
      }

      .cls-71 {
        fill: #526570;
      }

      .cls-72 {
        fill: #662925;
      }

      .cls-73 {
        fill: #70899b;
      }

      .cls-74 {
        fill: #738c9e;
      }

      .cls-75 {
        fill: #4e5f6a;
      }

      .cls-76 {
        clip-path: url(#clippath-1);
      }

      .cls-77 {
        fill: #546672;
      }

      .cls-78 {
        fill: #84a1b7;
      }

      .cls-79 {
        fill: #718a9c;
      }

      .cls-80 {
        fill: #5f7481;
      }

      .cls-81 {
        fill: #f1d4c8;
      }

      .cls-82 {
        fill: #6e8697;
      }

      .cls-83 {
        fill: #303c42;
      }

      .cls-84 {
        fill: #85a3b9;
      }

      .cls-85 {
        fill: #7e9baf;
      }

      .cls-86 {
        fill: #6a8292;
      }

      .cls-87 {
        fill: #758fa1;
      }

      .cls-88 {
        fill: #6b8292;
      }

      .cls-89 {
        fill: #83a1b7;
      }

      .cls-90 {
        fill: #7994a7;
      }

      .cls-91 {
        fill: #6b8393;
      }

      .cls-92 {
        fill: #647a89;
      }

      .cls-93 {
        fill: #6e8798;
      }

      .cls-94 {
        fill: #fff;
      }

      .cls-95 {
        fill: #7f9cb1;
      }

      .cls-96 {
        fill: #87a5bb;
      }

      .cls-97 {
        fill: #536671;
      }

      .cls-98 {
        fill: #5e7380;
      }

      .cls-99 {
        fill: #4d5e69;
      }

      .cls-100 {
        fill: #566975;
      }

      .cls-101 {
        fill: #6a8191;
      }

      .cls-102 {
        fill: #809db2;
      }

      .cls-103 {
        fill: #4c5d68;
      }

      .cls-104 {
        fill: #809cb1;
      }

      .cls-105 {
        fill: #4b5c67;
      }

      .cls-106 {
        fill: #475760;
      }

      .cls-107 {
        fill: #7691a3;
      }

      .cls-108 {
        fill: #3a484f;
      }

      .cls-109 {
        fill: #51636e;
      }

      .cls-110 {
        fill: #7d99ad;
      }

      .cls-111 {
        fill: #4f616c;
      }

      .cls-112 {
        fill: #819eb4;
      }

      .cls-113 {
        fill: #4a5b65;
      }

      .cls-114 {
        fill: #698090;
      }

      .cls-115 {
        opacity: .3;
      }

      .cls-116 {
        fill: #7690a3;
      }

      .cls-117 {
        fill: #5d727f;
      }

      .cls-118 {
        fill: #415059;
      }

      .cls-119 {
        fill: #2d383d;
      }

      .cls-120 {
        fill: #50626d;
      }

      .cls-121 {
        fill: #7893a7;
      }

      .cls-122 {
        fill: #43525b;
      }

      .cls-123 {
        fill: #748ea1;
      }

      .cls-124 {
        fill: #7994a8;
      }

      .cls-125 {
        fill: #546773;
      }

      .cls-126 {
        fill: #83a0b6;
      }

      .cls-127 {
        fill: #26200c;
      }

      .cls-128 {
        fill: #607583;
      }

      .cls-129 {
        fill: #556874;
      }

      .cls-130 {
        fill: #687f8e;
      }

      .cls-131 {
        fill: #667d8c;
      }

      .cls-132 {
        fill: #728b9d;
      }

      .cls-133 {
        fill: #323f45;
      }

      .cls-134 {
        fill: #86a4bb;
      }

      .cls-135 {
        fill: #7792a5;
      }

      .cls-136 {
        fill: #84a1b8;
      }

      .cls-137 {
        fill: #5c707e;
      }

      .cls-138 {
        fill: #698190;
      }

      .cls-139 {
        fill: #637987;
      }

      .cls-140 {
        fill: #3c4a52;
      }

      .cls-141 {
        fill: #42515a;
      }

      .cls-142 {
        fill: #c6a095;
      }

      .cls-143 {
        fill: #3b4950;
      }

      .cls-144 {
        fill: #6c8494;
      }

      .cls-145 {
        fill: #88a6bd;
      }

      .cls-146 {
        fill: #404f57;
      }

      .cls-147 {
        fill: #47433b;
      }

      .cls-148 {
        fill: #51646f;
      }

      .cls-149 {
        fill: #7c97ac;
      }

      .cls-150 {
        fill: #5a6e7b;
      }

      .cls-151 {
        fill: #647b8a;
      }

      .cls-152 {
        fill: #45555e;
      }

      .cls-153 {
        fill: #7e9aaf;
      }

      .cls-154 {
        fill: #3f4e56;
      }

      .cls-155 {
        fill: #2f3b40;
      }

      .cls-156 {
        fill: #4a5a64;
      }

      .cls-157 {
        fill: #607684;
      }

      .cls-158 {
        fill: #49443b;
      }

      .cls-159 {
        fill: #718a9b;
      }

      .cls-160 {
        fill: #5d717f;
      }

      .cls-161 {
        clip-path: url(#clippath);
      }

      .cls-162 {
        fill: #82a0b5;
      }

      .cls-163 {
        fill: #2e393f;
      }

      .cls-164 {
        fill: #70899a;
      }

      .cls-165 {
        fill: #7b96aa;
      }

      .cls-166 {
        fill: #758fa2;
      }

      .cls-167 {
        fill: #86a4ba;
      }

      .cls-168 {
        fill: #5f7482;
      }

      .cls-169 {
        fill: #7c98ad;
      }

      .cls-170 {
        fill: #819eb3;
      }

      .cls-171 {
        fill: #85a3ba;
      }

      .cls-172 {
        fill: #728c9e;
      }

      .cls-173 {
        fill: #576a76;
      }

      .cls-174 {
        fill: #627786;
      }

      .cls-175 {
        fill: #ab5b64;
      }
    </style>
    <clipPath id="clippath">
      <path class="cls-1" d="M34.34,36.08c-.1,1.18-1.15,2.06-2.36,1.96-1.2-.1-2.1-1.14-2-2.32.1-1.19,1.15-2.07,2.36-1.97,1.2.1,2.1,1.14,2,2.33Z"/>
    </clipPath>
    <clipPath id="clippath-1">
      <path class="cls-1" d="M49.74,35.96c-.1,1.18-1.15,2.06-2.36,1.96-1.2-.1-2.1-1.14-2-2.32.1-1.19,1.15-2.07,2.36-1.97,1.2.1,2.1,1.14,2,2.33Z"/>
    </clipPath>
  </defs>
  <g id="Layer_1-2" data-name="Layer 1">
    <g>
      <rect class="cls-5" width="78.88" height="78.88"/>
      <path class="cls-35" d="M63.76,36.18c0-2.23-.58-5.11-1.71-7.4-.92-1.86-2.35-3.69-2.35-4.46s-.26-.59-.85-4.07c-.6-3.49-.43-5.07-4.57-9.53-4.15-4.45-14.98-4.42-14.98-4.42,0,0,2.15.02,4.08,1.61.92.75,1.36,1.07,1.58,1.2-.81-.44-4.24-2.19-7.94-2.11-7.46.17-8.48-1.76-8.48-1.76,0,0,.17,1.18,1.81,2.83-.92-.18-1.78-.27-2.39-.16-7.91,1.38-10.59-1.5-10.59-1.5,0,0,1.6,2.85,4.66,4.51,1.21.66,2.39,1.02,3.44,1.23-.61.04-1.3.09-2.08.17-3.86.41-6.76-2.66-6.76-2.66,0,0,1.29,3.7,3.98,5.24-1.08.1-2.16.15-3.15.11-2.54-.09-3.2-1.23-3.2-1.23.85,1.62,2.57,2.58,5,3.21,1.02.26,2.17.46,3.43.63-2.51.96-7.31,1.67-12.82-3.29,0,0,1.44,5.1,8.11,7.29,0,0-4.01,2.82-9.26-1,0,0,2.25,7.29,7.11,8.79v.07c-5.75,2.16-8.34-2.77-8.34-2.77.16,5.44,8.13,8.58,8.13,8.58,0,0-5.65-.55-7.42,6.29,0,0,6.71-4.12,9.29-1.42,0,0-10.17,4.01-10,10.46,0,0,3.25-6.65,11.7-7.35h.01c.35-.06,1.6-.14,2.75.77-7.28-.27-9.53,3.62-9.53,3.62l.39-.26c.47-.25,1.38-.53,2.97-.42,1.03.07,2.15.23,3.27.43-2.91,1.04-4.53,4.09-4.53,4.09,0,0,3.24-2.34,7.21-1.58.81.15,1.51.27,2.15.37-1.11.07-2.36.26-3.67.7-3.3,1.11-5.17,3.39-5.17,3.39,0,0,2.99-2.19,11.1-.18.62.15,1.52.16,2.49.1-.4.28-.72.54-.99.78-1.22-.13-2.25-.7-2.15-.63.09.07.65.6,1.61,1.19-.46.55-.56.91-.56.91,0,0,.24-.3,1.16-.56,1.82.98,4.67,1.93,8.26,1.1,1.26-.29,2.57-.74,3.81-1.23.08-.01.15-.02.23-.03-.67,1.97-.61,4.51-.61,4.51,0,0,.59-2.52,3.89-4.07,3.3-1.54,4.59-.99,6.59-1.57,1.93-.56,3.29-1.77,4.1-2.74-.03.06-.05.11-.08.17-2.04,4.17-3.84,4.36-4.06,4.37.25,0,4.03-.08,6.32-3.86.55-.9,1.07-2.07,1.54-3.31-.16,5.4,2.43,9.04,2.43,9.04,0,0-2.25-6.06,0-12.19,1.31-3.59,3.64-7.77,3.64-10Z"/>
      <path class="cls-81" d="M61.68,77.89s-.1-6.02-.34-6.54c-.46-2.1.36-3.06-2.88-5.08-.03-.01-.74-.24-1.8-.59t-.03-.01c-.69-.22-1.52-.5-2.4-.8-.34-.11-.67-.24-1.02-.35-1.46-.51-2.93-1.06-4.02-1.51-.77-.34-1.35-.62-1.56-.84-.01-.01-.04-.05-.08-.09-.02-.04-.05-.06-.07-.1-.06-.35-1-1.89-1.32-3.56h0c-.07-.35-.11-.67-.12-1.01-.03-.49-.03-.97-.04-1.41-.01-.45-.02-.86-.04-1.2v-.29c-.01-.24-.01-.44-.01-.59-.01-.15-.01-.24-.01-.24,0,0,.35-.3.86-.75.64-.57,1.55-1.4,2.33-2.19.85-.85,1.59-1.66,1.75-2.09.01-.06.02-.11.02-.15,0,0-.02,0-.06.01-.4.06-2.55.44-4.86.8-1.37.21-2.81.43-3.98.57-.46.06-.89.1-1.25.14h-.01c-.34.04-.62.05-.84.05-.24,0-.56-.02-.95-.05h-.03c-.37-.05-.82-.1-1.31-.16-1.07-.14-2.36-.32-3.61-.51-1.15-.19-2.27-.36-3.16-.51-.21-.04-.4-.06-.57-.1-.85-.14-1.39-.24-1.39-.24,0,.16.15.41.4.74,0,0,0,.01.01.01.19.25.44.54.74.86.29.3.6.61.92.92.99.96,2.06,1.91,2.58,2.36.2.17.31.27.31.27,0,0,0,.09-.01.24,0,.15,0,.35-.01.59v.29c0,.1,0,.2-.01.3-.01.65-.04,1.46-.06,2.31-.01.34-.05.66-.12,1-.33,1.67-1.26,3.22-1.32,3.57-.03.04-.05.06-.07.1-.04.04-.06.08-.08.09-.17.17-.62.41-1.24.7-1.24.55-3.17,1.25-4.97,1.86-.09.03-.17.06-.26.09-.94.32-1.84.62-2.56.86h-.01c-1.05.35-1.76.57-1.78.59-3.22,2.01-2.43,2.97-2.88,5.04h0v.04s-.03.07-.04.15h0c-.21,1.1-.3,6.39-.3,6.39,0,.32,0,.65,0,.99h43.58c0-.34,0-.67-.01-.99Z"/>
      <path class="cls-142" d="M46.17,58.41c-.07-.34-.11-.66-.12-1-.04-1.12-.06-2.2-.07-2.9-1.87.84-3.8,1.32-5.68,1.32-.11.02-.25.02-.38.02s-.27,0-.38-.02c-1.89,0-3.81-.49-5.68-1.32-.01.7-.04,1.77-.07,2.9-.01.34-.05.66-.12,1,1.81,1.51,4.26,3.07,5.88,3.07.1.02.23.02.34.02h0s.03,0,.04,0,.03,0,.04,0h0c.12,0,.24,0,.34-.03,1.62,0,4.07-1.56,5.88-3.07Z"/>
      <g>
        <path class="cls-81" d="M55.98,36c.31-1.73.56-3.05.63-3.31.04-.12.06-.25.1-.37.03-.15.06-.29.09-.42.06-.21.1-.43.15-.64.01-.1.04-.2.05-.3.04-.24.09-.48.12-.71.01-.1.03-.21.04-.31.04-.21.05-.42.08-.64.01-.16.02-.33.05-.47.01-.14.01-.28.02-.41.16-3.26-.54-6.58-2.67-9.59-2.58-3.62-5.56-7.45-12.01-7.99h-5.44c-6.46.54-9.43,4.37-12.01,7.99-2.13,3.01-2.83,6.33-2.67,9.59.01.14.01.27.02.41.02.15.04.31.05.47.02.21.04.42.07.64.01.1.03.21.04.31.04.24.09.47.13.71.01.1.04.2.05.3.05.21.09.43.15.64.03.14.06.27.09.42.04.12.06.25.1.37.08.26.32,1.57.63,3.29-1.72-.84-4.11.36-3.83,3.53.29,3.22,4.21,5.13,5.55,5.45.13.58.24,1.02.33,1.22,1.17,2.96,2.6,3.85,5.09,6.26,2.72,2.61,6.74,5.06,8.73,5.04.06.01.14.01.21.01s.15,0,.21-.01c1.98.01,6-2.44,8.73-5.04,2.5-2.41,3.92-3.3,5.09-6.26.08-.21.19-.64.32-1.21,1.29-.29,5.29-2.21,5.59-5.46.29-3.2-2.15-4.4-3.88-3.51Z"/>
        <path class="cls-6" d="M58.6,37.77c-.97-1.58-2.49-.91-2.87-.57-.4.37-.72.87-.48,1.8.13.52.68.57.54,1.37-.16.89-.57.95-.8,1.15-.23.2-.53.35-.68.73-.14.37-.17.77-.1,1.12.15.65,1.09.14,1.72-.14.42-.18,1.74-1.29,2.08-1.65.84-.94,1.25-2.74.6-3.8"/>
      </g>
      <path class="cls-6" d="M37.15,51.32c-.06-.82,2.31.17,3.09.2.62.02,2.49-.12,2.67-.19,1.31-.49-.07,1.38-2.7,1.48-1.21.05-3.02-.99-3.06-1.49Z"/>
      <g>
        <path class="cls-175" d="M44.98,50.25c-1.51-.28-4.68-.89-4.68-.89-2.62.43-4.67.88-4.68.9-.06,0,2.09,1.93,4.65,1.8h0c2.55.13,4.78-1.8,4.72-1.81Z"/>
        <path class="cls-8" d="M41.79,48.83c-.68-.07-1.15.32-1.49.29-.35.03-.82-.36-1.5-.29-.97.21-1.43.82-3.19,1.43.06.12,1.19-.15,3.3-.11.03,0,.6.32,1.4.31.5,0,1.19-.34,1.22-.34,2.11-.03,3.4.26,3.46.14-2.32-.71-2.23-1.23-3.2-1.44Z"/>
      </g>
      <path class="cls-37" d="M41.55,44.87c.34-.23.74-.12.74-.12,0,0,0,0-.01.02-.08.14-.54.87-.91.86,0,0-.08-.07-.1-.24-.03-.17.11-.4.28-.52Z"/>
      <path class="cls-6" d="M36.92,44.64c-.07-1.65,2.56-.6,3.43-.55.69.04,2.77-.52,2.95-.38,1.22.98-1.3,2.95-2.99,2.95-.45,0-3.34-1.03-3.38-2.03Z"/>
      <path class="cls-25" d="M38.91,44.84c-.34-.23-.74-.12-.74-.12,0,0,0,0,.01.02.08.14.54.87.91.86,0,0,.08-.07.1-.24.03-.17-.11-.4-.28-.52Z"/>
      <path class="cls-158" d="M36.47,34.27s-.4-.4-1.14-.89c-.35-.26-.81-.48-1.3-.71-.49-.23-1.04-.4-1.61-.5-.57-.13-1.15-.16-1.71-.15-.28.02-.55.04-.8.06-.26.01-.5.08-.72.11-.45.07-.82.18-1.09.24-.27.06-.42.1-.42.1,0,0,.13-.08.37-.23.24-.13.57-.37,1.02-.53.44-.19.98-.36,1.58-.48.6-.08,1.26-.12,1.92-.05.66.09,1.3.27,1.87.51.57.24,1.06.56,1.45.86.78.59,1.16,1.18,1.16,1.18h0c.12.18.07.42-.11.54-.15.1-.35.07-.48-.05Z"/>
      <path class="cls-94" d="M27.29,35.1s1.46,3.64,3.73,3.99c2.27.35,4.69-.16,4.69-.16,0,0,.06-4.22-1.12-4.81-1.18-.59-3.87-1.46-7.3.98Z"/>
      <g class="cls-161">
        <polygon class="cls-119" points="34.44 34.45 29.88 34.08 29.88 33.66 34.44 33.66 34.44 34.45"/>
        <polygon class="cls-119" points="34.44 34.47 29.88 34.1 29.88 34.08 34.44 34.45 34.44 34.47"/>
        <polygon class="cls-163" points="34.44 34.5 29.88 34.12 29.88 34.1 34.44 34.47 34.44 34.5"/>
        <polygon class="cls-155" points="34.44 34.52 29.88 34.14 29.88 34.12 34.44 34.5 34.44 34.52"/>
        <polygon class="cls-83" points="34.44 34.54 29.88 34.16 29.88 34.14 34.44 34.52 34.44 34.54"/>
        <polygon class="cls-14" points="34.44 34.56 29.88 34.18 29.88 34.16 34.44 34.54 34.44 34.56"/>
        <polygon class="cls-133" points="34.44 34.58 29.88 34.2 29.88 34.18 34.44 34.56 34.44 34.58"/>
        <polygon class="cls-63" points="34.44 34.6 29.88 34.22 29.88 34.2 34.44 34.58 34.44 34.6"/>
        <polygon class="cls-2" points="34.44 34.62 29.88 34.25 29.88 34.22 34.44 34.6 34.44 34.62"/>
        <polygon class="cls-13" points="34.44 34.64 29.88 34.27 29.88 34.25 34.44 34.62 34.44 34.64"/>
        <polygon class="cls-68" points="34.44 34.66 29.88 34.29 29.88 34.27 34.44 34.64 34.44 34.66"/>
        <polygon class="cls-48" points="34.44 34.68 29.88 34.31 29.88 34.29 34.44 34.66 34.44 34.68"/>
        <polygon class="cls-61" points="34.44 34.71 29.88 34.33 29.88 34.31 34.44 34.68 34.44 34.71"/>
        <polygon class="cls-108" points="34.44 34.73 29.88 34.35 29.88 34.33 34.44 34.71 34.44 34.73"/>
        <polygon class="cls-143" points="34.44 34.75 29.88 34.37 29.88 34.35 34.44 34.73 34.44 34.75"/>
        <polygon class="cls-140" points="34.44 34.77 29.88 34.39 29.88 34.37 34.44 34.75 34.44 34.77"/>
        <polygon class="cls-62" points="34.44 34.79 29.88 34.41 29.88 34.39 34.44 34.77 34.44 34.79"/>
        <polygon class="cls-49" points="34.44 34.81 29.88 34.43 29.88 34.41 34.44 34.79 34.44 34.81"/>
        <polygon class="cls-154" points="34.44 34.83 29.88 34.46 29.88 34.43 34.44 34.81 34.44 34.83"/>
        <polygon class="cls-146" points="34.44 34.85 29.88 34.48 29.88 34.46 34.44 34.83 34.44 34.85"/>
        <polygon class="cls-118" points="34.44 34.87 29.88 34.5 29.88 34.48 34.44 34.85 34.44 34.87"/>
        <polygon class="cls-141" points="34.44 34.89 29.88 34.52 29.88 34.5 34.44 34.87 34.44 34.89"/>
        <polygon class="cls-122" points="34.44 34.92 29.88 34.54 29.88 34.52 34.44 34.89 34.44 34.92"/>
        <polygon class="cls-17" points="34.44 34.94 29.88 34.56 29.88 34.54 34.44 34.92 34.44 34.94"/>
        <polygon class="cls-152" points="34.44 34.96 29.88 34.58 29.88 34.56 34.44 34.94 34.44 34.96"/>
        <polygon class="cls-18" points="34.44 34.98 29.88 34.6 29.88 34.58 34.44 34.96 34.44 34.98"/>
        <polygon class="cls-106" points="34.44 35 29.88 34.62 29.88 34.6 34.44 34.98 34.44 35"/>
        <polygon class="cls-26" points="34.44 35.02 29.88 34.64 29.88 34.62 34.44 35 34.44 35.02"/>
        <polygon class="cls-39" points="34.44 35.04 29.88 34.67 29.88 34.64 34.44 35.02 34.44 35.04"/>
        <polygon class="cls-156" points="34.44 35.06 29.88 34.69 29.88 34.67 34.44 35.04 34.44 35.06"/>
        <polygon class="cls-113" points="34.44 35.08 29.88 34.71 29.88 34.69 34.44 35.06 34.44 35.08"/>
        <polygon class="cls-105" points="34.44 35.1 29.88 34.73 29.88 34.71 34.44 35.08 34.44 35.1"/>
        <polygon class="cls-103" points="34.44 35.13 29.88 34.75 29.88 34.73 34.44 35.1 34.44 35.13"/>
        <polygon class="cls-99" points="34.44 35.15 29.88 34.77 29.88 34.75 34.44 35.13 34.44 35.15"/>
        <polygon class="cls-75" points="34.44 35.17 29.88 34.79 29.88 34.77 34.44 35.15 34.44 35.17"/>
        <polygon class="cls-7" points="34.44 35.19 29.88 34.81 29.88 34.79 34.44 35.17 34.44 35.19"/>
        <polygon class="cls-111" points="34.44 35.21 29.88 34.83 29.88 34.81 34.44 35.19 34.44 35.21"/>
        <polygon class="cls-120" points="34.44 35.23 29.88 34.85 29.88 34.83 34.44 35.21 34.44 35.23"/>
        <polygon class="cls-109" points="34.44 35.25 29.88 34.88 29.88 34.85 34.44 35.23 34.44 35.25"/>
        <polygon class="cls-148" points="34.44 35.27 29.88 34.9 29.88 34.88 34.44 35.25 34.44 35.27"/>
        <polygon class="cls-71" points="34.44 35.29 29.88 34.92 29.88 34.9 34.44 35.27 34.44 35.29"/>
        <polygon class="cls-97" points="34.44 35.31 29.88 34.94 29.88 34.92 34.44 35.29 34.44 35.31"/>
        <polygon class="cls-77" points="34.44 35.34 29.88 34.96 29.88 34.94 34.44 35.31 34.44 35.34"/>
        <polygon class="cls-125" points="34.44 35.36 29.88 34.98 29.88 34.96 34.44 35.34 34.44 35.36"/>
        <polygon class="cls-129" points="34.44 35.38 29.88 35 29.88 34.98 34.44 35.36 34.44 35.38"/>
        <polygon class="cls-100" points="34.44 35.4 29.88 35.02 29.88 35 34.44 35.38 34.44 35.4"/>
        <polygon class="cls-173" points="34.44 35.42 29.88 35.04 29.88 35.02 34.44 35.4 34.44 35.42"/>
        <polygon class="cls-23" points="34.44 35.44 29.88 35.06 29.88 35.04 34.44 35.42 34.44 35.44"/>
        <polygon class="cls-64" points="34.44 35.46 29.88 35.09 29.88 35.06 34.44 35.44 34.44 35.46"/>
        <polygon class="cls-32" points="34.44 35.48 29.88 35.11 29.88 35.09 34.44 35.46 34.44 35.48"/>
        <polygon class="cls-65" points="34.44 35.5 29.88 35.13 29.88 35.11 34.44 35.48 34.44 35.5"/>
        <polygon class="cls-150" points="34.44 35.52 29.88 35.15 29.88 35.13 34.44 35.5 34.44 35.52"/>
        <polygon class="cls-28" points="34.44 35.55 29.88 35.17 29.88 35.15 34.44 35.52 34.44 35.55"/>
        <polygon class="cls-53" points="34.44 35.57 29.88 35.19 29.88 35.17 34.44 35.55 34.44 35.57"/>
        <polygon class="cls-137" points="34.44 35.59 29.88 35.21 29.88 35.19 34.44 35.57 34.44 35.59"/>
        <polygon class="cls-160" points="34.44 35.61 29.88 35.23 29.88 35.21 34.44 35.59 34.44 35.61"/>
        <polygon class="cls-117" points="34.44 35.63 29.88 35.25 29.88 35.23 34.44 35.61 34.44 35.63"/>
        <polygon class="cls-98" points="34.44 35.65 29.88 35.27 29.88 35.25 34.44 35.63 34.44 35.65"/>
        <polygon class="cls-80" points="34.44 35.67 29.88 35.3 29.88 35.27 34.44 35.65 34.44 35.67"/>
        <polygon class="cls-168" points="34.44 35.69 29.88 35.32 29.88 35.3 34.44 35.67 34.44 35.69"/>
        <polygon class="cls-128" points="34.44 35.71 29.88 35.34 29.88 35.32 34.44 35.69 34.44 35.71"/>
        <polygon class="cls-157" points="34.44 35.73 29.88 35.36 29.88 35.34 34.44 35.71 34.44 35.73"/>
        <polygon class="cls-41" points="34.44 35.76 29.88 35.38 29.88 35.36 34.44 35.73 34.44 35.76"/>
        <polygon class="cls-174" points="34.44 35.78 29.88 35.4 29.88 35.38 34.44 35.76 34.44 35.78"/>
        <polygon class="cls-22" points="34.44 35.8 29.88 35.42 29.88 35.4 34.44 35.78 34.44 35.8"/>
        <polygon class="cls-139" points="34.44 35.82 29.88 35.44 29.88 35.42 34.44 35.8 34.44 35.82"/>
        <polygon class="cls-67" points="34.44 35.84 29.88 35.46 29.88 35.44 34.44 35.82 34.44 35.84"/>
        <polygon class="cls-92" points="34.44 35.86 29.88 35.48 29.88 35.46 34.44 35.84 34.44 35.86"/>
        <polygon class="cls-151" points="34.44 35.88 29.88 35.51 29.88 35.48 34.44 35.86 34.44 35.88"/>
        <polygon class="cls-44" points="34.44 35.9 29.88 35.53 29.88 35.51 34.44 35.88 34.44 35.9"/>
        <polygon class="cls-47" points="34.44 35.92 29.88 35.55 29.88 35.53 34.44 35.9 34.44 35.92"/>
        <polygon class="cls-131" points="34.44 35.94 29.88 35.57 29.88 35.55 34.44 35.92 34.44 35.94"/>
        <polygon class="cls-60" points="34.44 35.97 29.88 35.59 29.88 35.57 34.44 35.94 34.44 35.97"/>
        <polygon class="cls-11" points="34.44 35.99 29.88 35.61 29.88 35.59 34.44 35.97 34.44 35.99"/>
        <polygon class="cls-130" points="34.44 36.01 29.88 35.63 29.88 35.61 34.44 35.99 34.44 36.01"/>
        <polygon class="cls-50" points="34.44 36.03 29.88 35.65 29.88 35.63 34.44 36.01 34.44 36.03"/>
        <polygon class="cls-114" points="34.44 36.05 29.88 35.67 29.88 35.65 34.44 36.03 34.44 36.05"/>
        <polygon class="cls-138" points="34.44 36.07 29.88 35.69 29.88 35.67 34.44 36.05 34.44 36.07"/>
        <polygon class="cls-101" points="34.44 36.09 29.88 35.72 29.88 35.69 34.44 36.07 34.44 36.09"/>
        <polygon class="cls-86" points="34.44 36.11 29.88 35.74 29.88 35.72 34.44 36.09 34.44 36.11"/>
        <polygon class="cls-88" points="34.44 36.13 29.88 35.76 29.88 35.74 34.44 36.11 34.44 36.13"/>
        <polygon class="cls-91" points="34.44 36.15 29.88 35.78 29.88 35.76 34.44 36.13 34.44 36.15"/>
        <polygon class="cls-144" points="34.44 36.18 29.88 35.8 29.88 35.78 34.44 36.15 34.44 36.18"/>
        <polygon class="cls-57" points="34.44 36.2 29.88 35.82 29.88 35.8 34.44 36.18 34.44 36.2"/>
        <polygon class="cls-70" points="34.44 36.22 29.88 35.84 29.88 35.82 34.44 36.2 34.44 36.22"/>
        <polygon class="cls-16" points="34.44 36.24 29.88 35.86 29.88 35.84 34.44 36.22 34.44 36.24"/>
        <polygon class="cls-82" points="34.44 36.26 29.88 35.88 29.88 35.86 34.44 36.24 34.44 36.26"/>
        <polygon class="cls-82" points="34.44 36.28 29.88 35.9 29.88 35.88 34.44 36.26 34.44 36.28"/>
        <polygon class="cls-93" points="34.44 36.3 29.88 35.93 29.88 35.9 34.44 36.28 34.44 36.3"/>
        <polygon class="cls-27" points="34.44 36.32 29.88 35.95 29.88 35.93 34.44 36.3 34.44 36.32"/>
        <polygon class="cls-27" points="34.44 36.34 29.88 35.97 29.88 35.95 34.44 36.32 34.44 36.34"/>
        <polygon class="cls-164" points="34.44 36.36 29.88 35.99 29.88 35.97 34.44 36.34 34.44 36.36"/>
        <polygon class="cls-73" points="34.44 36.39 29.88 36.01 29.88 35.99 34.44 36.36 34.44 36.39"/>
        <polygon class="cls-159" points="34.44 36.41 29.88 36.03 29.88 36.01 34.44 36.39 34.44 36.41"/>
        <polygon class="cls-79" points="34.44 36.43 29.88 36.05 29.88 36.03 34.44 36.41 34.44 36.43"/>
        <polygon class="cls-34" points="34.44 36.45 29.88 36.07 29.88 36.05 34.44 36.43 34.44 36.45"/>
        <polygon class="cls-132" points="34.44 36.47 29.88 36.09 29.88 36.07 34.44 36.45 34.44 36.47"/>
        <polygon class="cls-172" points="34.44 36.49 29.88 36.11 29.88 36.09 34.44 36.47 34.44 36.49"/>
        <polygon class="cls-74" points="34.44 36.51 29.88 36.14 29.88 36.11 34.44 36.49 34.44 36.51"/>
        <polygon class="cls-38" points="34.44 36.53 29.88 36.16 29.88 36.14 34.44 36.51 34.44 36.53"/>
        <polygon class="cls-21" points="34.44 36.55 29.88 36.18 29.88 36.16 34.44 36.53 34.44 36.55"/>
        <polygon class="cls-33" points="34.44 36.57 29.88 36.2 29.88 36.18 34.44 36.55 34.44 36.57"/>
        <polygon class="cls-123" points="34.44 36.6 29.88 36.22 29.88 36.2 34.44 36.57 34.44 36.6"/>
        <polygon class="cls-87" points="34.44 36.62 29.88 36.24 29.88 36.22 34.44 36.6 34.44 36.62"/>
        <polygon class="cls-166" points="34.44 36.64 29.88 36.26 29.88 36.24 34.44 36.62 34.44 36.64"/>
        <polygon class="cls-31" points="34.44 36.66 29.88 36.28 29.88 36.26 34.44 36.64 34.44 36.66"/>
        <polygon class="cls-116" points="34.44 36.68 29.88 36.3 29.88 36.28 34.44 36.66 34.44 36.68"/>
        <polygon class="cls-107" points="34.44 36.7 29.88 36.32 29.88 36.3 34.44 36.68 34.44 36.7"/>
        <polygon class="cls-9" points="34.44 36.72 29.88 36.35 29.88 36.32 34.44 36.7 34.44 36.72"/>
        <polygon class="cls-135" points="34.44 36.74 29.88 36.37 29.88 36.35 34.44 36.72 34.44 36.74"/>
        <polygon class="cls-135" points="34.44 36.76 29.88 36.39 29.88 36.37 34.44 36.74 34.44 36.76"/>
        <polygon class="cls-29" points="34.44 36.78 29.88 36.41 29.88 36.39 34.44 36.76 34.44 36.78"/>
        <polygon class="cls-19" points="34.44 36.81 29.88 36.43 29.88 36.41 34.44 36.78 34.44 36.81"/>
        <polygon class="cls-121" points="34.44 36.83 29.88 36.45 29.88 36.43 34.44 36.81 34.44 36.83"/>
        <polygon class="cls-90" points="34.44 36.85 29.88 36.47 29.88 36.45 34.44 36.83 34.44 36.85"/>
        <polygon class="cls-124" points="34.44 36.87 29.88 36.49 29.88 36.47 34.44 36.85 34.44 36.87"/>
        <polygon class="cls-124" points="34.44 36.89 29.88 36.51 29.88 36.49 34.44 36.87 34.44 36.89"/>
        <polygon class="cls-56" points="34.44 36.91 29.88 36.53 29.88 36.51 34.44 36.89 34.44 36.91"/>
        <polygon class="cls-56" points="34.44 36.93 29.88 36.56 29.88 36.53 34.44 36.91 34.44 36.93"/>
        <polygon class="cls-54" points="34.44 36.95 29.88 36.58 29.88 36.56 34.44 36.93 34.44 36.95"/>
        <polygon class="cls-165" points="34.44 36.97 29.88 36.6 29.88 36.58 34.44 36.95 34.44 36.97"/>
        <polygon class="cls-165" points="34.44 36.99 29.88 36.62 29.88 36.6 34.44 36.97 34.44 36.99"/>
        <polygon class="cls-10" points="34.44 37.02 29.88 36.64 29.88 36.62 34.44 36.99 34.44 37.02"/>
        <polygon class="cls-69" points="34.44 37.04 29.88 36.66 29.88 36.64 34.44 37.02 34.44 37.04"/>
        <polygon class="cls-149" points="34.44 37.06 29.88 36.68 29.88 36.66 34.44 37.04 34.44 37.06"/>
        <polygon class="cls-58" points="34.44 37.08 29.88 36.7 29.88 36.68 34.44 37.06 34.44 37.08"/>
        <polygon class="cls-169" points="34.44 37.1 29.88 36.72 29.88 36.7 34.44 37.08 34.44 37.1"/>
        <polygon class="cls-110" points="34.44 37.12 29.88 36.74 29.88 36.72 34.44 37.1 34.44 37.12"/>
        <polygon class="cls-110" points="34.44 37.14 29.88 36.77 29.88 36.74 34.44 37.12 34.44 37.14"/>
        <polygon class="cls-3" points="34.44 37.16 29.88 36.79 29.88 36.77 34.44 37.14 34.44 37.16"/>
        <polygon class="cls-51" points="34.44 37.18 29.88 36.81 29.88 36.79 34.44 37.16 34.44 37.18"/>
        <polygon class="cls-153" points="34.44 37.2 29.88 36.83 29.88 36.81 34.44 37.18 34.44 37.2"/>
        <polygon class="cls-153" points="34.44 37.23 29.88 36.85 29.88 36.83 34.44 37.2 34.44 37.23"/>
        <polygon class="cls-85" points="34.44 37.25 29.88 36.87 29.88 36.85 34.44 37.23 34.44 37.25"/>
        <polygon class="cls-46" points="34.44 37.27 29.88 36.89 29.88 36.87 34.44 37.25 34.44 37.27"/>
        <polygon class="cls-46" points="34.44 37.29 29.88 36.91 29.88 36.89 34.44 37.27 34.44 37.29"/>
        <polygon class="cls-95" points="34.44 37.31 29.88 36.93 29.88 36.91 34.44 37.29 34.44 37.31"/>
        <polygon class="cls-95" points="34.44 37.33 29.88 36.95 29.88 36.93 34.44 37.31 34.44 37.33"/>
        <polygon class="cls-104" points="34.44 37.35 29.88 36.98 29.88 36.95 34.44 37.33 34.44 37.35"/>
        <polygon class="cls-15" points="34.44 37.37 29.88 37 29.88 36.98 34.44 37.35 34.44 37.37"/>
        <polygon class="cls-102" points="34.44 37.39 29.88 37.02 29.88 37 34.44 37.37 34.44 37.39"/>
        <polygon class="cls-102" points="34.44 37.41 29.88 37.04 29.88 37.02 34.44 37.39 34.44 37.41"/>
        <polygon class="cls-42" points="34.44 37.44 29.88 37.06 29.88 37.04 34.44 37.41 34.44 37.44"/>
        <polygon class="cls-170" points="34.44 37.46 29.88 37.08 29.88 37.06 34.44 37.44 34.44 37.46"/>
        <polygon class="cls-170" points="34.44 37.48 29.88 37.1 29.88 37.08 34.44 37.46 34.44 37.48"/>
        <polygon class="cls-112" points="34.44 37.5 29.88 37.12 29.88 37.1 34.44 37.48 34.44 37.5"/>
        <polygon class="cls-55" points="34.44 37.52 29.88 37.14 29.88 37.12 34.44 37.5 34.44 37.52"/>
        <polygon class="cls-30" points="34.44 37.54 29.88 37.16 29.88 37.14 34.44 37.52 34.44 37.54"/>
        <polygon class="cls-24" points="34.44 37.56 29.88 37.19 29.88 37.16 34.44 37.54 34.44 37.56"/>
        <polygon class="cls-24" points="34.44 37.58 29.88 37.21 29.88 37.19 34.44 37.56 34.44 37.58"/>
        <polygon class="cls-162" points="34.44 37.6 29.88 37.23 29.88 37.21 34.44 37.58 34.44 37.6"/>
        <polygon class="cls-126" points="34.44 37.62 29.88 37.25 29.88 37.23 34.44 37.6 34.44 37.62"/>
        <polygon class="cls-126" points="34.44 37.65 29.88 37.27 29.88 37.25 34.44 37.62 34.44 37.65"/>
        <polygon class="cls-126" points="34.44 37.67 29.88 37.29 29.88 37.27 34.44 37.65 34.44 37.67"/>
        <polygon class="cls-89" points="34.44 37.69 29.88 37.31 29.88 37.29 34.44 37.67 34.44 37.69"/>
        <polygon class="cls-89" points="34.44 37.71 29.88 37.33 29.88 37.31 34.44 37.69 34.44 37.71"/>
        <polygon class="cls-78" points="34.44 37.73 29.88 37.35 29.88 37.33 34.44 37.71 34.44 37.73"/>
        <polygon class="cls-78" points="34.44 37.75 29.88 37.37 29.88 37.35 34.44 37.73 34.44 37.75"/>
        <polygon class="cls-136" points="34.44 37.77 29.88 37.4 29.88 37.37 34.44 37.75 34.44 37.77"/>
        <polygon class="cls-4" points="34.44 37.79 29.88 37.42 29.88 37.4 34.44 37.77 34.44 37.79"/>
        <polygon class="cls-4" points="34.44 37.81 29.88 37.44 29.88 37.42 34.44 37.79 34.44 37.81"/>
        <polygon class="cls-45" points="34.44 37.83 29.88 37.46 29.88 37.44 34.44 37.81 34.44 37.83"/>
        <polygon class="cls-59" points="34.44 37.86 29.88 37.48 29.88 37.46 34.44 37.83 34.44 37.86"/>
        <polygon class="cls-84" points="34.44 37.88 29.88 37.5 29.88 37.48 34.44 37.86 34.44 37.88"/>
        <polygon class="cls-84" points="34.44 37.9 29.88 37.52 29.88 37.5 34.44 37.88 34.44 37.9"/>
        <polygon class="cls-84" points="34.44 37.92 29.88 37.54 29.88 37.52 34.44 37.9 34.44 37.92"/>
        <polygon class="cls-171" points="34.44 37.94 29.88 37.56 29.88 37.54 34.44 37.92 34.44 37.94"/>
        <polygon class="cls-12" points="34.44 37.96 29.88 37.58 29.88 37.56 34.44 37.94 34.44 37.96"/>
        <polygon class="cls-12" points="34.44 37.98 29.88 37.61 29.88 37.58 34.44 37.96 34.44 37.98"/>
        <polygon class="cls-167" points="34.44 38 29.88 37.63 29.88 37.61 34.44 37.98 34.44 38"/>
        <polygon class="cls-134" points="34.44 38.02 29.88 37.65 29.88 37.63 34.44 38 34.44 38.02"/>
        <polygon class="cls-134" points="34.44 38.05 29.88 37.67 29.88 37.65 34.44 38.02 34.44 38.05"/>
        <polygon class="cls-134" points="34.44 38.07 29.88 37.69 29.88 37.67 34.44 38.05 34.44 38.07"/>
        <polygon class="cls-134" points="34.44 38.09 29.88 37.71 29.88 37.69 34.44 38.07 34.44 38.09"/>
        <polygon class="cls-40" points="34.44 38.11 29.88 37.73 29.88 37.71 34.44 38.09 34.44 38.11"/>
        <polygon class="cls-96" points="34.44 38.13 29.88 37.75 29.88 37.73 34.44 38.11 34.44 38.13"/>
        <polygon class="cls-20" points="34.38 38.15 29.88 37.77 29.88 37.75 34.44 38.13 34.44 38.15 34.38 38.15"/>
        <polygon class="cls-20" points="34.13 38.15 29.88 37.79 29.88 37.77 34.38 38.15 34.13 38.15"/>
        <polygon class="cls-20" points="33.88 38.15 29.88 37.82 29.88 37.79 34.13 38.15 33.88 38.15"/>
        <polygon class="cls-20" points="33.62 38.15 29.88 37.84 29.88 37.82 33.88 38.15 33.62 38.15"/>
        <polygon class="cls-20" points="33.37 38.15 29.88 37.86 29.88 37.84 33.62 38.15 33.37 38.15"/>
        <polygon class="cls-20" points="33.11 38.15 29.88 37.88 29.88 37.86 33.37 38.15 33.11 38.15"/>
        <polygon class="cls-66" points="32.86 38.15 29.88 37.9 29.88 37.88 33.11 38.15 32.86 38.15"/>
        <polygon class="cls-145" points="32.6 38.15 29.88 37.92 29.88 37.9 32.86 38.15 32.6 38.15"/>
        <polygon class="cls-145" points="32.35 38.15 29.88 37.94 29.88 37.92 32.6 38.15 32.35 38.15"/>
        <polygon class="cls-145" points="32.1 38.15 29.88 37.96 29.88 37.94 32.35 38.15 32.1 38.15"/>
        <polygon class="cls-145" points="31.84 38.15 29.88 37.98 29.88 37.96 32.1 38.15 31.84 38.15"/>
        <polygon class="cls-145" points="31.59 38.15 29.88 38 29.88 37.98 31.84 38.15 31.59 38.15"/>
        <polygon class="cls-145" points="31.33 38.15 29.88 38.03 29.88 38 31.59 38.15 31.33 38.15"/>
        <polygon class="cls-145" points="31.08 38.15 29.88 38.05 29.88 38.03 31.33 38.15 31.08 38.15"/>
        <polygon class="cls-36" points="30.82 38.15 29.88 38.07 29.88 38.05 31.08 38.15 30.82 38.15"/>
        <polygon class="cls-36" points="30.57 38.15 29.88 38.09 29.88 38.07 30.82 38.15 30.57 38.15"/>
        <polygon class="cls-52" points="30.32 38.15 29.88 38.11 29.88 38.09 30.57 38.15 30.32 38.15"/>
        <polygon class="cls-52" points="30.06 38.15 29.88 38.13 29.88 38.11 30.32 38.15 30.06 38.15"/>
        <polygon class="cls-52" points="29.88 38.13 30.06 38.15 29.88 38.15 29.88 38.13"/>
      </g>
      <path class="cls-43" d="M32.06,37.37c-.64-.05-1.14-.7-1.08-1.4.06-.71.65-1.26,1.29-1.21.64.05,1.14.7,1.08,1.4-.06.71-.65,1.26-1.29,1.21Z"/>
      <path class="cls-127" d="M32.11,37.12c-.45-.04-.91-.52-.86-1.13.05-.6.59-1.01,1.03-.97.45.04.91.53.86,1.13-.05.6-.59,1.01-1.03.97Z"/>
      <g class="cls-115">
        <path class="cls-147" d="M35.7,38.92s-.05,0-.17.04c-.08-1.3-.33-3.09-1.07-3.45-1.09-.55-3.55-1.36-6.7.57-.32-.57-.48-.99-.48-.99,3.43-2.45,6.13-1.57,7.3-.99,1.18.59,1.12,4.81,1.12,4.81Z"/>
      </g>
      <path class="cls-94" d="M31.75,35.64c-.02.22-.24.38-.5.35-.26-.02-.45-.22-.43-.43.02-.22.24-.38.5-.36.26.02.45.21.44.43Z"/>
      <path class="cls-94" d="M33.2,36.89c0,.11-.12.19-.25.18-.13-.01-.23-.11-.22-.22,0-.11.12-.19.25-.18.13,0,.23.11.22.22Z"/>
      <path class="cls-158" d="M42.66,33.79s.38-.58,1.16-1.18c.39-.3.88-.62,1.45-.86.57-.24,1.21-.42,1.87-.51.66-.07,1.32-.03,1.92.05.6.11,1.14.29,1.58.48.45.15.78.4,1.02.53.23.15.37.23.37.23,0,0-.15-.04-.42-.1-.26-.07-.63-.18-1.09-.24-.23-.03-.46-.1-.72-.11-.26-.02-.52-.04-.8-.06-.55,0-1.14.02-1.71.15-.57.1-1.12.28-1.61.5-.49.23-.94.46-1.3.71-.74.49-1.14.89-1.14.89-.15.15-.39.15-.54,0-.13-.13-.15-.33-.05-.48h0Z"/>
      <path class="cls-94" d="M52.42,35.1s-1.46,3.64-3.73,3.99c-2.27.35-4.68-.16-4.68-.16,0,0-.06-4.22,1.12-4.81,1.18-.59,3.87-1.46,7.3.98Z"/>
      <g class="cls-115">
        <path class="cls-147" d="M44.01,38.92s.05,0,.17.04c.08-1.3.34-3.09,1.07-3.45,1.09-.55,3.55-1.36,6.7.57.32-.57.48-.99.48-.99-3.43-2.45-6.13-1.57-7.3-.99-1.18.59-1.12,4.81-1.12,4.81Z"/>
      </g>
      <g class="cls-76">
        <polygon class="cls-119" points="49.84 34.33 45.28 33.96 45.28 33.53 49.84 33.53 49.84 34.33"/>
        <polygon class="cls-119" points="49.84 34.35 45.28 33.98 45.28 33.96 49.84 34.33 49.84 34.35"/>
        <polygon class="cls-163" points="49.84 34.37 45.28 34 45.28 33.98 49.84 34.35 49.84 34.37"/>
        <polygon class="cls-155" points="49.84 34.4 45.28 34.02 45.28 34 49.84 34.37 49.84 34.4"/>
        <polygon class="cls-83" points="49.84 34.42 45.28 34.04 45.28 34.02 49.84 34.4 49.84 34.42"/>
        <polygon class="cls-14" points="49.84 34.44 45.28 34.06 45.28 34.04 49.84 34.42 49.84 34.44"/>
        <polygon class="cls-133" points="49.84 34.46 45.28 34.08 45.28 34.06 49.84 34.44 49.84 34.46"/>
        <polygon class="cls-63" points="49.84 34.48 45.28 34.1 45.28 34.08 49.84 34.46 49.84 34.48"/>
        <polygon class="cls-2" points="49.84 34.5 45.28 34.12 45.28 34.1 49.84 34.48 49.84 34.5"/>
        <polygon class="cls-13" points="49.84 34.52 45.28 34.15 45.28 34.12 49.84 34.5 49.84 34.52"/>
        <polygon class="cls-68" points="49.84 34.54 45.28 34.17 45.28 34.15 49.84 34.52 49.84 34.54"/>
        <polygon class="cls-48" points="49.84 34.56 45.28 34.19 45.28 34.17 49.84 34.54 49.84 34.56"/>
        <polygon class="cls-61" points="49.84 34.58 45.28 34.21 45.28 34.19 49.84 34.56 49.84 34.58"/>
        <polygon class="cls-108" points="49.84 34.61 45.28 34.23 45.28 34.21 49.84 34.58 49.84 34.61"/>
        <polygon class="cls-143" points="49.84 34.63 45.28 34.25 45.28 34.23 49.84 34.61 49.84 34.63"/>
        <polygon class="cls-140" points="49.84 34.65 45.28 34.27 45.28 34.25 49.84 34.63 49.84 34.65"/>
        <polygon class="cls-62" points="49.84 34.67 45.28 34.29 45.28 34.27 49.84 34.65 49.84 34.67"/>
        <polygon class="cls-49" points="49.84 34.69 45.28 34.31 45.28 34.29 49.84 34.67 49.84 34.69"/>
        <polygon class="cls-154" points="49.84 34.71 45.28 34.33 45.28 34.31 49.84 34.69 49.84 34.71"/>
        <polygon class="cls-146" points="49.84 34.73 45.28 34.36 45.28 34.33 49.84 34.71 49.84 34.73"/>
        <polygon class="cls-118" points="49.84 34.75 45.28 34.38 45.28 34.36 49.84 34.73 49.84 34.75"/>
        <polygon class="cls-141" points="49.84 34.77 45.28 34.4 45.28 34.38 49.84 34.75 49.84 34.77"/>
        <polygon class="cls-122" points="49.84 34.79 45.28 34.42 45.28 34.4 49.84 34.77 49.84 34.79"/>
        <polygon class="cls-17" points="49.84 34.82 45.28 34.44 45.28 34.42 49.84 34.79 49.84 34.82"/>
        <polygon class="cls-152" points="49.84 34.84 45.28 34.46 45.28 34.44 49.84 34.82 49.84 34.84"/>
        <polygon class="cls-18" points="49.84 34.86 45.28 34.48 45.28 34.46 49.84 34.84 49.84 34.86"/>
        <polygon class="cls-106" points="49.84 34.88 45.28 34.5 45.28 34.48 49.84 34.86 49.84 34.88"/>
        <polygon class="cls-26" points="49.84 34.9 45.28 34.52 45.28 34.5 49.84 34.88 49.84 34.9"/>
        <polygon class="cls-39" points="49.84 34.92 45.28 34.54 45.28 34.52 49.84 34.9 49.84 34.92"/>
        <polygon class="cls-156" points="49.84 34.94 45.28 34.57 45.28 34.54 49.84 34.92 49.84 34.94"/>
        <polygon class="cls-113" points="49.84 34.96 45.28 34.59 45.28 34.57 49.84 34.94 49.84 34.96"/>
        <polygon class="cls-105" points="49.84 34.98 45.28 34.61 45.28 34.59 49.84 34.96 49.84 34.98"/>
        <polygon class="cls-103" points="49.84 35 45.28 34.63 45.28 34.61 49.84 34.98 49.84 35"/>
        <polygon class="cls-99" points="49.84 35.03 45.28 34.65 45.28 34.63 49.84 35 49.84 35.03"/>
        <polygon class="cls-75" points="49.84 35.05 45.28 34.67 45.28 34.65 49.84 35.03 49.84 35.05"/>
        <polygon class="cls-7" points="49.84 35.07 45.28 34.69 45.28 34.67 49.84 35.05 49.84 35.07"/>
        <polygon class="cls-111" points="49.84 35.09 45.28 34.71 45.28 34.69 49.84 35.07 49.84 35.09"/>
        <polygon class="cls-120" points="49.84 35.11 45.28 34.73 45.28 34.71 49.84 35.09 49.84 35.11"/>
        <polygon class="cls-109" points="49.84 35.13 45.28 34.75 45.28 34.73 49.84 35.11 49.84 35.13"/>
        <polygon class="cls-148" points="49.84 35.15 45.28 34.78 45.28 34.75 49.84 35.13 49.84 35.15"/>
        <polygon class="cls-71" points="49.84 35.17 45.28 34.8 45.28 34.78 49.84 35.15 49.84 35.17"/>
        <polygon class="cls-97" points="49.84 35.19 45.28 34.82 45.28 34.8 49.84 35.17 49.84 35.19"/>
        <polygon class="cls-77" points="49.84 35.21 45.28 34.84 45.28 34.82 49.84 35.19 49.84 35.21"/>
        <polygon class="cls-125" points="49.84 35.24 45.28 34.86 45.28 34.84 49.84 35.21 49.84 35.24"/>
        <polygon class="cls-129" points="49.84 35.26 45.28 34.88 45.28 34.86 49.84 35.24 49.84 35.26"/>
        <polygon class="cls-100" points="49.84 35.28 45.28 34.9 45.28 34.88 49.84 35.26 49.84 35.28"/>
        <polygon class="cls-173" points="49.84 35.3 45.28 34.92 45.28 34.9 49.84 35.28 49.84 35.3"/>
        <polygon class="cls-23" points="49.84 35.32 45.28 34.94 45.28 34.92 49.84 35.3 49.84 35.32"/>
        <polygon class="cls-64" points="49.84 35.34 45.28 34.96 45.28 34.94 49.84 35.32 49.84 35.34"/>
        <polygon class="cls-32" points="49.84 35.36 45.28 34.99 45.28 34.96 49.84 35.34 49.84 35.36"/>
        <polygon class="cls-65" points="49.84 35.38 45.28 35.01 45.28 34.99 49.84 35.36 49.84 35.38"/>
        <polygon class="cls-150" points="49.84 35.4 45.28 35.03 45.28 35.01 49.84 35.38 49.84 35.4"/>
        <polygon class="cls-28" points="49.84 35.42 45.28 35.05 45.28 35.03 49.84 35.4 49.84 35.42"/>
        <polygon class="cls-53" points="49.84 35.45 45.28 35.07 45.28 35.05 49.84 35.42 49.84 35.45"/>
        <polygon class="cls-137" points="49.84 35.47 45.28 35.09 45.28 35.07 49.84 35.45 49.84 35.47"/>
        <polygon class="cls-160" points="49.84 35.49 45.28 35.11 45.28 35.09 49.84 35.47 49.84 35.49"/>
        <polygon class="cls-117" points="49.84 35.51 45.28 35.13 45.28 35.11 49.84 35.49 49.84 35.51"/>
        <polygon class="cls-98" points="49.84 35.53 45.28 35.15 45.28 35.13 49.84 35.51 49.84 35.53"/>
        <polygon class="cls-80" points="49.84 35.55 45.28 35.17 45.28 35.15 49.84 35.53 49.84 35.55"/>
        <polygon class="cls-168" points="49.84 35.57 45.28 35.2 45.28 35.17 49.84 35.55 49.84 35.57"/>
        <polygon class="cls-128" points="49.84 35.59 45.28 35.22 45.28 35.2 49.84 35.57 49.84 35.59"/>
        <polygon class="cls-157" points="49.84 35.61 45.28 35.24 45.28 35.22 49.84 35.59 49.84 35.61"/>
        <polygon class="cls-41" points="49.84 35.63 45.28 35.26 45.28 35.24 49.84 35.61 49.84 35.63"/>
        <polygon class="cls-174" points="49.84 35.66 45.28 35.28 45.28 35.26 49.84 35.63 49.84 35.66"/>
        <polygon class="cls-22" points="49.84 35.68 45.28 35.3 45.28 35.28 49.84 35.66 49.84 35.68"/>
        <polygon class="cls-139" points="49.84 35.7 45.28 35.32 45.28 35.3 49.84 35.68 49.84 35.7"/>
        <polygon class="cls-67" points="49.84 35.72 45.28 35.34 45.28 35.32 49.84 35.7 49.84 35.72"/>
        <polygon class="cls-92" points="49.84 35.74 45.28 35.36 45.28 35.34 49.84 35.72 49.84 35.74"/>
        <polygon class="cls-151" points="49.84 35.76 45.28 35.38 45.28 35.36 49.84 35.74 49.84 35.76"/>
        <polygon class="cls-44" points="49.84 35.78 45.28 35.41 45.28 35.38 49.84 35.76 49.84 35.78"/>
        <polygon class="cls-47" points="49.84 35.8 45.28 35.43 45.28 35.41 49.84 35.78 49.84 35.8"/>
        <polygon class="cls-131" points="49.84 35.82 45.28 35.45 45.28 35.43 49.84 35.8 49.84 35.82"/>
        <polygon class="cls-60" points="49.84 35.84 45.28 35.47 45.28 35.45 49.84 35.82 49.84 35.84"/>
        <polygon class="cls-11" points="49.84 35.87 45.28 35.49 45.28 35.47 49.84 35.84 49.84 35.87"/>
        <polygon class="cls-130" points="49.84 35.89 45.28 35.51 45.28 35.49 49.84 35.87 49.84 35.89"/>
        <polygon class="cls-50" points="49.84 35.91 45.28 35.53 45.28 35.51 49.84 35.89 49.84 35.91"/>
        <polygon class="cls-114" points="49.84 35.93 45.28 35.55 45.28 35.53 49.84 35.91 49.84 35.93"/>
        <polygon class="cls-138" points="49.84 35.95 45.28 35.57 45.28 35.55 49.84 35.93 49.84 35.95"/>
        <polygon class="cls-101" points="49.84 35.97 45.28 35.59 45.28 35.57 49.84 35.95 49.84 35.97"/>
        <polygon class="cls-86" points="49.84 35.99 45.28 35.62 45.28 35.59 49.84 35.97 49.84 35.99"/>
        <polygon class="cls-88" points="49.84 36.01 45.28 35.64 45.28 35.62 49.84 35.99 49.84 36.01"/>
        <polygon class="cls-91" points="49.84 36.03 45.28 35.66 45.28 35.64 49.84 36.01 49.84 36.03"/>
        <polygon class="cls-144" points="49.84 36.05 45.28 35.68 45.28 35.66 49.84 36.03 49.84 36.05"/>
        <polygon class="cls-57" points="49.84 36.08 45.28 35.7 45.28 35.68 49.84 36.05 49.84 36.08"/>
        <polygon class="cls-70" points="49.84 36.1 45.28 35.72 45.28 35.7 49.84 36.08 49.84 36.1"/>
        <polygon class="cls-16" points="49.84 36.12 45.28 35.74 45.28 35.72 49.84 36.1 49.84 36.12"/>
        <polygon class="cls-82" points="49.84 36.14 45.28 35.76 45.28 35.74 49.84 36.12 49.84 36.14"/>
        <polygon class="cls-82" points="49.84 36.16 45.28 35.78 45.28 35.76 49.84 36.14 49.84 36.16"/>
        <polygon class="cls-93" points="49.84 36.18 45.28 35.8 45.28 35.78 49.84 36.16 49.84 36.18"/>
        <polygon class="cls-27" points="49.84 36.2 45.28 35.83 45.28 35.8 49.84 36.18 49.84 36.2"/>
        <polygon class="cls-27" points="49.84 36.22 45.28 35.85 45.28 35.83 49.84 36.2 49.84 36.22"/>
        <polygon class="cls-164" points="49.84 36.24 45.28 35.87 45.28 35.85 49.84 36.22 49.84 36.24"/>
        <polygon class="cls-73" points="49.84 36.26 45.28 35.89 45.28 35.87 49.84 36.24 49.84 36.26"/>
        <polygon class="cls-159" points="49.84 36.29 45.28 35.91 45.28 35.89 49.84 36.26 49.84 36.29"/>
        <polygon class="cls-79" points="49.84 36.31 45.28 35.93 45.28 35.91 49.84 36.29 49.84 36.31"/>
        <polygon class="cls-34" points="49.84 36.33 45.28 35.95 45.28 35.93 49.84 36.31 49.84 36.33"/>
        <polygon class="cls-132" points="49.84 36.35 45.28 35.97 45.28 35.95 49.84 36.33 49.84 36.35"/>
        <polygon class="cls-172" points="49.84 36.37 45.28 35.99 45.28 35.97 49.84 36.35 49.84 36.37"/>
        <polygon class="cls-74" points="49.84 36.39 45.28 36.01 45.28 35.99 49.84 36.37 49.84 36.39"/>
        <polygon class="cls-38" points="49.84 36.41 45.28 36.04 45.28 36.01 49.84 36.39 49.84 36.41"/>
        <polygon class="cls-21" points="49.84 36.43 45.28 36.06 45.28 36.04 49.84 36.41 49.84 36.43"/>
        <polygon class="cls-33" points="49.84 36.45 45.28 36.08 45.28 36.06 49.84 36.43 49.84 36.45"/>
        <polygon class="cls-123" points="49.84 36.47 45.28 36.1 45.28 36.08 49.84 36.45 49.84 36.47"/>
        <polygon class="cls-87" points="49.84 36.5 45.28 36.12 45.28 36.1 49.84 36.47 49.84 36.5"/>
        <polygon class="cls-166" points="49.84 36.52 45.28 36.14 45.28 36.12 49.84 36.5 49.84 36.52"/>
        <polygon class="cls-31" points="49.84 36.54 45.28 36.16 45.28 36.14 49.84 36.52 49.84 36.54"/>
        <polygon class="cls-116" points="49.84 36.56 45.28 36.18 45.28 36.16 49.84 36.54 49.84 36.56"/>
        <polygon class="cls-107" points="49.84 36.58 45.28 36.2 45.28 36.18 49.84 36.56 49.84 36.58"/>
        <polygon class="cls-9" points="49.84 36.6 45.28 36.22 45.28 36.2 49.84 36.58 49.84 36.6"/>
        <polygon class="cls-135" points="49.84 36.62 45.28 36.25 45.28 36.22 49.84 36.6 49.84 36.62"/>
        <polygon class="cls-135" points="49.84 36.64 45.28 36.27 45.28 36.25 49.84 36.62 49.84 36.64"/>
        <polygon class="cls-29" points="49.84 36.66 45.28 36.29 45.28 36.27 49.84 36.64 49.84 36.66"/>
        <polygon class="cls-19" points="49.84 36.68 45.28 36.31 45.28 36.29 49.84 36.66 49.84 36.68"/>
        <polygon class="cls-121" points="49.84 36.71 45.28 36.33 45.28 36.31 49.84 36.68 49.84 36.71"/>
        <polygon class="cls-90" points="49.84 36.73 45.28 36.35 45.28 36.33 49.84 36.71 49.84 36.73"/>
        <polygon class="cls-124" points="49.84 36.75 45.28 36.37 45.28 36.35 49.84 36.73 49.84 36.75"/>
        <polygon class="cls-124" points="49.84 36.77 45.28 36.39 45.28 36.37 49.84 36.75 49.84 36.77"/>
        <polygon class="cls-56" points="49.84 36.79 45.28 36.41 45.28 36.39 49.84 36.77 49.84 36.79"/>
        <polygon class="cls-56" points="49.84 36.81 45.28 36.43 45.28 36.41 49.84 36.79 49.84 36.81"/>
        <polygon class="cls-54" points="49.84 36.83 45.28 36.46 45.28 36.43 49.84 36.81 49.84 36.83"/>
        <polygon class="cls-165" points="49.84 36.85 45.28 36.48 45.28 36.46 49.84 36.83 49.84 36.85"/>
        <polygon class="cls-165" points="49.84 36.87 45.28 36.5 45.28 36.48 49.84 36.85 49.84 36.87"/>
        <polygon class="cls-10" points="49.84 36.89 45.28 36.52 45.28 36.5 49.84 36.87 49.84 36.89"/>
        <polygon class="cls-69" points="49.84 36.92 45.28 36.54 45.28 36.52 49.84 36.89 49.84 36.92"/>
        <polygon class="cls-149" points="49.84 36.94 45.28 36.56 45.28 36.54 49.84 36.92 49.84 36.94"/>
        <polygon class="cls-58" points="49.84 36.96 45.28 36.58 45.28 36.56 49.84 36.94 49.84 36.96"/>
        <polygon class="cls-169" points="49.84 36.98 45.28 36.6 45.28 36.58 49.84 36.96 49.84 36.98"/>
        <polygon class="cls-110" points="49.84 37 45.28 36.62 45.28 36.6 49.84 36.98 49.84 37"/>
        <polygon class="cls-110" points="49.84 37.02 45.28 36.64 45.28 36.62 49.84 37 49.84 37.02"/>
        <polygon class="cls-3" points="49.84 37.04 45.28 36.67 45.28 36.64 49.84 37.02 49.84 37.04"/>
        <polygon class="cls-51" points="49.84 37.06 45.28 36.69 45.28 36.67 49.84 37.04 49.84 37.06"/>
        <polygon class="cls-153" points="49.84 37.08 45.28 36.71 45.28 36.69 49.84 37.06 49.84 37.08"/>
        <polygon class="cls-153" points="49.84 37.1 45.28 36.73 45.28 36.71 49.84 37.08 49.84 37.1"/>
        <polygon class="cls-85" points="49.84 37.13 45.28 36.75 45.28 36.73 49.84 37.1 49.84 37.13"/>
        <polygon class="cls-46" points="49.84 37.15 45.28 36.77 45.28 36.75 49.84 37.13 49.84 37.15"/>
        <polygon class="cls-46" points="49.84 37.17 45.28 36.79 45.28 36.77 49.84 37.15 49.84 37.17"/>
        <polygon class="cls-95" points="49.84 37.19 45.28 36.81 45.28 36.79 49.84 37.17 49.84 37.19"/>
        <polygon class="cls-95" points="49.84 37.21 45.28 36.83 45.28 36.81 49.84 37.19 49.84 37.21"/>
        <polygon class="cls-104" points="49.84 37.23 45.28 36.85 45.28 36.83 49.84 37.21 49.84 37.23"/>
        <polygon class="cls-15" points="49.84 37.25 45.28 36.88 45.28 36.85 49.84 37.23 49.84 37.25"/>
        <polygon class="cls-102" points="49.84 37.27 45.28 36.9 45.28 36.88 49.84 37.25 49.84 37.27"/>
        <polygon class="cls-102" points="49.84 37.29 45.28 36.92 45.28 36.9 49.84 37.27 49.84 37.29"/>
        <polygon class="cls-42" points="49.84 37.32 45.28 36.94 45.28 36.92 49.84 37.29 49.84 37.32"/>
        <polygon class="cls-170" points="49.84 37.34 45.28 36.96 45.28 36.94 49.84 37.32 49.84 37.34"/>
        <polygon class="cls-170" points="49.84 37.36 45.28 36.98 45.28 36.96 49.84 37.34 49.84 37.36"/>
        <polygon class="cls-112" points="49.84 37.38 45.28 37 45.28 36.98 49.84 37.36 49.84 37.38"/>
        <polygon class="cls-55" points="49.84 37.4 45.28 37.02 45.28 37 49.84 37.38 49.84 37.4"/>
        <polygon class="cls-30" points="49.84 37.42 45.28 37.04 45.28 37.02 49.84 37.4 49.84 37.42"/>
        <polygon class="cls-24" points="49.84 37.44 45.28 37.06 45.28 37.04 49.84 37.42 49.84 37.44"/>
        <polygon class="cls-24" points="49.84 37.46 45.28 37.09 45.28 37.06 49.84 37.44 49.84 37.46"/>
        <polygon class="cls-162" points="49.84 37.48 45.28 37.11 45.28 37.09 49.84 37.46 49.84 37.48"/>
        <polygon class="cls-126" points="49.84 37.5 45.28 37.13 45.28 37.11 49.84 37.48 49.84 37.5"/>
        <polygon class="cls-126" points="49.84 37.53 45.28 37.15 45.28 37.13 49.84 37.5 49.84 37.53"/>
        <polygon class="cls-126" points="49.84 37.55 45.28 37.17 45.28 37.15 49.84 37.53 49.84 37.55"/>
        <polygon class="cls-89" points="49.84 37.57 45.28 37.19 45.28 37.17 49.84 37.55 49.84 37.57"/>
        <polygon class="cls-89" points="49.84 37.59 45.28 37.21 45.28 37.19 49.84 37.57 49.84 37.59"/>
        <polygon class="cls-78" points="49.84 37.61 45.28 37.23 45.28 37.21 49.84 37.59 49.84 37.61"/>
        <polygon class="cls-78" points="49.84 37.63 45.28 37.25 45.28 37.23 49.84 37.61 49.84 37.63"/>
        <polygon class="cls-136" points="49.84 37.65 45.28 37.27 45.28 37.25 49.84 37.63 49.84 37.65"/>
        <polygon class="cls-4" points="49.84 37.67 45.28 37.3 45.28 37.27 49.84 37.65 49.84 37.67"/>
        <polygon class="cls-4" points="49.84 37.69 45.28 37.32 45.28 37.3 49.84 37.67 49.84 37.69"/>
        <polygon class="cls-45" points="49.84 37.71 45.28 37.34 45.28 37.32 49.84 37.69 49.84 37.71"/>
        <polygon class="cls-59" points="49.84 37.74 45.28 37.36 45.28 37.34 49.84 37.71 49.84 37.74"/>
        <polygon class="cls-84" points="49.84 37.76 45.28 37.38 45.28 37.36 49.84 37.74 49.84 37.76"/>
        <polygon class="cls-84" points="49.84 37.78 45.28 37.4 45.28 37.38 49.84 37.76 49.84 37.78"/>
        <polygon class="cls-84" points="49.84 37.8 45.28 37.42 45.28 37.4 49.84 37.78 49.84 37.8"/>
        <polygon class="cls-171" points="49.84 37.82 45.28 37.44 45.28 37.42 49.84 37.8 49.84 37.82"/>
        <polygon class="cls-12" points="49.84 37.84 45.28 37.46 45.28 37.44 49.84 37.82 49.84 37.84"/>
        <polygon class="cls-12" points="49.84 37.86 45.28 37.48 45.28 37.46 49.84 37.84 49.84 37.86"/>
        <polygon class="cls-167" points="49.84 37.88 45.28 37.51 45.28 37.48 49.84 37.86 49.84 37.88"/>
        <polygon class="cls-134" points="49.84 37.9 45.28 37.53 45.28 37.51 49.84 37.88 49.84 37.9"/>
        <polygon class="cls-134" points="49.84 37.92 45.28 37.55 45.28 37.53 49.84 37.9 49.84 37.92"/>
        <polygon class="cls-134" points="49.84 37.95 45.28 37.57 45.28 37.55 49.84 37.92 49.84 37.95"/>
        <polygon class="cls-134" points="49.84 37.97 45.28 37.59 45.28 37.57 49.84 37.95 49.84 37.97"/>
        <polygon class="cls-40" points="49.84 37.99 45.28 37.61 45.28 37.59 49.84 37.97 49.84 37.99"/>
        <polygon class="cls-96" points="49.84 38.01 45.28 37.63 45.28 37.61 49.84 37.99 49.84 38.01"/>
        <polygon class="cls-20" points="49.78 38.02 45.28 37.65 45.28 37.63 49.84 38.01 49.84 38.02 49.78 38.02"/>
        <polygon class="cls-20" points="49.53 38.02 45.28 37.67 45.28 37.65 49.78 38.02 49.53 38.02"/>
        <polygon class="cls-20" points="49.27 38.02 45.28 37.69 45.28 37.67 49.53 38.02 49.27 38.02"/>
        <polygon class="cls-20" points="49.02 38.02 45.28 37.72 45.28 37.69 49.27 38.02 49.02 38.02"/>
        <polygon class="cls-20" points="48.77 38.02 45.28 37.74 45.28 37.72 49.02 38.02 48.77 38.02"/>
        <polygon class="cls-20" points="48.51 38.02 45.28 37.76 45.28 37.74 48.77 38.02 48.51 38.02"/>
        <polygon class="cls-66" points="48.26 38.02 45.28 37.78 45.28 37.76 48.51 38.02 48.26 38.02"/>
        <polygon class="cls-145" points="48 38.02 45.28 37.8 45.28 37.78 48.26 38.02 48 38.02"/>
        <polygon class="cls-145" points="47.75 38.02 45.28 37.82 45.28 37.8 48 38.02 47.75 38.02"/>
        <polygon class="cls-145" points="47.49 38.02 45.28 37.84 45.28 37.82 47.75 38.02 47.49 38.02"/>
        <polygon class="cls-145" points="47.24 38.02 45.28 37.86 45.28 37.84 47.49 38.02 47.24 38.02"/>
        <polygon class="cls-145" points="46.99 38.02 45.28 37.88 45.28 37.86 47.24 38.02 46.99 38.02"/>
        <polygon class="cls-145" points="46.73 38.02 45.28 37.9 45.28 37.88 46.99 38.02 46.73 38.02"/>
        <polygon class="cls-145" points="46.48 38.02 45.28 37.93 45.28 37.9 46.73 38.02 46.48 38.02"/>
        <polygon class="cls-36" points="46.22 38.02 45.28 37.95 45.28 37.93 46.48 38.02 46.22 38.02"/>
        <polygon class="cls-36" points="45.97 38.02 45.28 37.97 45.28 37.95 46.22 38.02 45.97 38.02"/>
        <polygon class="cls-52" points="45.71 38.02 45.28 37.99 45.28 37.97 45.97 38.02 45.71 38.02"/>
        <polygon class="cls-52" points="45.46 38.02 45.28 38.01 45.28 37.99 45.71 38.02 45.46 38.02"/>
        <polygon class="cls-52" points="45.28 38.01 45.46 38.02 45.28 38.02 45.28 38.01"/>
      </g>
      <path class="cls-43" d="M47.46,37.25c-.64-.05-1.14-.7-1.08-1.4.06-.71.65-1.26,1.29-1.21.64.05,1.14.7,1.08,1.4-.06.71-.65,1.26-1.29,1.21Z"/>
      <path class="cls-127" d="M47.51,37c-.45-.04-.91-.53-.86-1.13.05-.6.59-1.01,1.03-.97.45.04.91.53.86,1.13-.05.6-.59,1.01-1.03.97Z"/>
      <path class="cls-94" d="M47.15,35.52c-.02.22-.24.38-.5.35-.26-.02-.45-.22-.43-.43.02-.22.24-.38.5-.36.26.02.45.21.44.43Z"/>
      <path class="cls-94" d="M48.59,36.77c0,.11-.12.19-.25.18-.13-.01-.23-.11-.22-.22,0-.11.12-.19.25-.18.13.01.23.11.22.22Z"/>
      <path class="cls-6" d="M21.26,37.77c.97-1.58,2.49-.91,2.87-.57.4.37.72.87.48,1.8-.13.52-.68.57-.54,1.37.16.89.57.95.8,1.15.23.2.53.35.68.73.14.37.17.77.1,1.12-.15.65-1.09.14-1.72-.14-.42-.18-1.74-1.29-2.08-1.65-.84-.94-1.25-2.74-.6-3.8"/>
      <path class="cls-25" d="M41.7,44.84c.34-.23.74-.12.74-.12,0,0,0,0-.01.02-.08.14-.54.87-.91.86,0,0-.08-.07-.1-.24-.03-.17.11-.4.28-.52Z"/>
      <path class="cls-35" d="M50.71,63.36c-.55-.21-1.07-.42-1.51-.6-.38-.17-.71-.32-.97-.46-3.02,1.91-5.85,2.51-8.32,2.45-3.65-.09-6.51-1.64-7.98-2.66-.23.15-.57.33-.99.53-.37.17-.8.35-1.27.53-.33.13-.68.26-1.04.4,1.74,1.49,5.81,4.35,11.28,4.32,3.34-.02,7.21-1.12,11.38-4.29-.19-.07-.39-.15-.58-.22Z"/>
      <path class="cls-35" d="M54.74,16.63c-.15-.13-.3-.26-.46-.38.2-1.13-.5-2.61-4.27-3.88,0,0,1.19.99,2.1,2.36-3.56-2.2-5.3-4.27-5.3-4.27l-.36.26c-.98-.61-2.73.53-5.65-.22-4.15-1.07-6.84.12-6.84.12,0,0,.59-.48,1.65.22-1.05-.37-1.28-.08-4.29.94-.18.06-.37.13-.54.19-1.09-.13-2.24-.36-3.44-.72,0,0,.75.67,2.03,1.34-.99.5-1.75,1.05-2.4,1.61-1.54.04-3.27-.08-5.14-.52,0,0,1.53,1.16,3.82,1.8-.35.36-.68.71-1.02,1.04-1.49.31-3.23.5-5.19.4,0,0,1.39.65,3.35.97-.4.21-.86.38-1.37.52-4.21,1.12-5.43-.32-5.43-.32,0,0,1.83,2.53,5.07,2.53.52,0,.57,0,.58-.01,0,0-.79,1.76-1.22,3.5-.96.29-2.03.54-3.21.7,0,0,1.28.32,3.01.35,0,.06-.02.12-.03.18-.24,2.06.5,3.47.73,7.33.2,3.3,1.26,1.61,2.54,4.04.43.81.45,1.73.45,1.73.47.1,1.71-1.98.82-5.58-.26-1.03.16-3.34,1.3-5.45,0,0,.19-.42.58-1h0c.41-.63,1.04-1.44,1.89-2.15,6.69-6.84,9.07-.43,9.07-.43v.03s1.72,3.41,6.14,3.93l11.92,1.42c.11.93.12,1.96,0,3.1-.63,5.97.56,5.93.56,5.93.35,0-.03-1.59,1.16-2.69,1.18-1.1,2.98-4.79,2.98-8.47s-1.54-6.96-5.56-10.45Z"/>
      <path class="cls-72" d="M61.39,71.42c-.02-.09-.03-.16-.05-.19-.11-.49-.14-.91-.18-1.31-.07-.77-.13-1.41-.65-2.12-.38-.52-1-1.07-2.05-1.73-.03-.01-.74-.24-1.8-.6t-.03-.01c-.69-.23-1.52-.51-2.4-.81-.34-.11-.67-.24-1.02-.36-.66-.24-1.31-.47-1.93-.71-4.18,3.16-8.04,4.27-11.38,4.29-5.47.03-9.54-2.83-11.28-4.32-.85.32-1.77.65-2.66.96-.09.03-.17.06-.26.09-.94.33-1.84.63-2.56.88h-.01c-1.05.35-1.76.58-1.79.6-1.05.67-1.67,1.22-2.05,1.73-.52.71-.59,1.35-.66,2.12-.04.38-.07.8-.17,1.27h0v.04s-.03.08-.04.15h0s0,.03,0,.04c-.03.18-.06.46-.09.81h43.15c-.03-.34-.05-.63-.09-.81Z"/>
      <path class="cls-72" d="M18.12,77.87c0,.33,0,.66,0,1h43.58c0-.34,0-.68-.01-1,0,0-.02-1.24-.06-2.64H18.19c-.04,1.41-.06,2.64-.06,2.64Z"/>
      <path class="cls-35" d="M61.53,73.11c-.02-.32-.04-.61-.06-.87H18.33c-.02.26-.04.55-.06.87-.04.66-.06,1.41-.09,2.12,0,0,0,0,0,0h43.43s0,0,0,0c-.02-.71-.05-1.46-.09-2.12Z"/>
    </g>
  </g>
</svg>