<?xml version="1.0" encoding="UTF-8"?>
<svg id="Layer_2" data-name="Layer 2" xmlns="http://www.w3.org/2000/svg" xmlns:xlink="http://www.w3.org/1999/xlink" viewBox="0 0 78.88 78.88">
  <defs>
    <style>
      .cls-1 {
        fill: none;
      }

      .cls-2 {
        fill: #354148;
      }

      .cls-3 {
        fill: #7d99ae;
      }

      .cls-4 {
        fill: #84a2b8;
      }

      .cls-5 {
        fill: #debaad;
      }

      .cls-6 {
        fill: #4e606b;
      }

      .cls-7 {
        fill: #bf6c6c;
      }

      .cls-8 {
        fill: #7791a4;
      }

      .cls-9 {
        fill: #7b97ab;
      }

      .cls-10 {
        fill: #677e8d;
      }

      .cls-11 {
        fill: #86a3ba;
      }

      .cls-12 {
        fill: #364349;
      }

      .cls-13 {
        fill: #313d43;
      }

      .cls-14 {
        fill: #809cb2;
      }

      .cls-15 {
        fill: #6d8596;
      }

      .cls-16 {
        fill: #44545c;
      }

      .cls-17 {
        fill: #46565f;
      }

      .cls-18 {
        fill: #7893a6;
      }

      .cls-19 {
        fill: #87a5bc;
      }

      .cls-20 {
        fill: #748d9f;
      }

      .cls-21 {
        fill: #627886;
      }

      .cls-22 {
        fill: #576b77;
      }

      .cls-23 {
        fill: #829fb5;
      }

      .cls-24 {
        fill: #b89388;
      }

      .cls-25 {
        fill: #485862;
      }

      .cls-26 {
        fill: #6f8899;
      }

      .cls-27 {
        fill: #5b6f7c;
      }

      .cls-28 {
        fill: #7892a6;
      }

      .cls-29 {
        fill: #829fb4;
      }

      .cls-30 {
        fill: #7690a2;
      }

      .cls-31 {
        fill: #596c79;
      }

      .cls-32 {
        fill: #748ea0;
      }

      .cls-33 {
        fill: #728b9c;
      }

      .cls-34 {
        fill: #88a6be;
      }

      .cls-35 {
        fill: #a88a6b;
      }

      .cls-36 {
        fill: #738d9f;
      }

      .cls-37 {
        fill: #495963;
      }

      .cls-38 {
        fill: #87a4bb;
      }

      .cls-39 {
        fill: #617785;
      }

      .cls-40 {
        fill: #819db3;
      }

      .cls-41 {
        fill: #95bacb;
      }

      .cls-42 {
        fill: #657b8a;
      }

      .cls-43 {
        fill: #85a2b8;
      }

      .cls-44 {
        fill: #7f9bb0;
      }

      .cls-45 {
        fill: #667c8b;
      }

      .cls-46 {
        fill: #38454c;
      }

      .cls-47 {
        fill: #3e4d54;
      }

      .cls-48 {
        fill: #687f8f;
      }

      .cls-49 {
        fill: #7e9aae;
      }

      .cls-50 {
        fill: #88a7be;
      }

      .cls-51 {
        fill: #365863;
      }

      .cls-52 {
        fill: #5b707d;
      }

      .cls-53 {
        fill: #7a96a9;
      }

      .cls-54 {
        fill: #829eb4;
      }

      .cls-55 {
        fill: #7a95a9;
      }

      .cls-56 {
        fill: #6c8495;
      }

      .cls-57 {
        fill: #7c98ac;
      }

      .cls-58 {
        fill: #85a2b9;
      }

      .cls-59 {
        fill: #677d8d;
      }

      .cls-60 {
        fill: #39464e;
      }

      .cls-61 {
        fill: #3d4b53;
      }

      .cls-62 {
        fill: #344046;
      }

      .cls-63 {
        fill: #586c78;
      }

      .cls-64 {
        fill: #596d7a;
      }

      .cls-65 {
        fill: #87a6bd;
      }

      .cls-66 {
        fill: #637988;
      }

      .cls-67 {
        fill: #37444b;
      }

      .cls-68 {
        fill: #7c97ab;
      }

      .cls-69 {
        fill: #6d8595;
      }

      .cls-70 {
        fill: #526570;
      }

      .cls-71 {
        fill: #70899b;
      }

      .cls-72 {
        fill: #738c9e;
      }

      .cls-73 {
        fill: #4e5f6a;
      }

      .cls-74 {
        clip-path: url(#clippath-1);
      }

      .cls-75 {
        fill: #546672;
      }

      .cls-76 {
        fill: #84a1b7;
      }

      .cls-77 {
        fill: #718a9c;
      }

      .cls-78 {
        fill: #5f7481;
      }

      .cls-79 {
        fill: #f1d4c8;
      }

      .cls-80 {
        fill: #6e8697;
      }

      .cls-81 {
        fill: #303c42;
      }

      .cls-82 {
        fill: #85a3b9;
      }

      .cls-83 {
        fill: #7e9baf;
      }

      .cls-84 {
        fill: #6a8292;
      }

      .cls-85 {
        fill: #758fa1;
      }

      .cls-86 {
        fill: #6b8292;
      }

      .cls-87 {
        fill: #83a1b7;
      }

      .cls-88 {
        fill: #7994a7;
      }

      .cls-89 {
        fill: #6b8393;
      }

      .cls-90 {
        fill: #647a89;
      }

      .cls-91 {
        fill: #6e8798;
      }

      .cls-92 {
        fill: #fff;
      }

      .cls-93 {
        fill: #7f9cb1;
      }

      .cls-94 {
        fill: #87a5bb;
      }

      .cls-95 {
        fill: #536671;
      }

      .cls-96 {
        fill: #5e7380;
      }

      .cls-97 {
        fill: #4d5e69;
      }

      .cls-98 {
        fill: #566975;
      }

      .cls-99 {
        fill: #6a8191;
      }

      .cls-100 {
        fill: #809db2;
      }

      .cls-101 {
        fill: #4c5d68;
      }

      .cls-102 {
        fill: #809cb1;
      }

      .cls-103 {
        fill: #4b5c67;
      }

      .cls-104 {
        fill: #475760;
      }

      .cls-105 {
        fill: #7691a3;
      }

      .cls-106 {
        fill: #3a484f;
      }

      .cls-107 {
        fill: #51636e;
      }

      .cls-108 {
        fill: #7d99ad;
      }

      .cls-109 {
        fill: #4f616c;
      }

      .cls-110 {
        fill: #819eb4;
      }

      .cls-111 {
        fill: #4a5b65;
      }

      .cls-112 {
        fill: #698090;
      }

      .cls-113 {
        opacity: .3;
      }

      .cls-114 {
        fill: #7690a3;
      }

      .cls-115 {
        fill: #5d727f;
      }

      .cls-116 {
        fill: #415059;
      }

      .cls-117 {
        fill: #2d383d;
      }

      .cls-118 {
        fill: #50626d;
      }

      .cls-119 {
        fill: #7893a7;
      }

      .cls-120 {
        fill: #43525b;
      }

      .cls-121 {
        fill: #748ea1;
      }

      .cls-122 {
        fill: #7994a8;
      }

      .cls-123 {
        fill: #396c69;
      }

      .cls-124 {
        fill: #546773;
      }

      .cls-125 {
        fill: #83a0b6;
      }

      .cls-126 {
        fill: #26200c;
      }

      .cls-127 {
        fill: #607583;
      }

      .cls-128 {
        fill: #556874;
      }

      .cls-129 {
        fill: #687f8e;
      }

      .cls-130 {
        fill: #667d8c;
      }

      .cls-131 {
        fill: #728b9d;
      }

      .cls-132 {
        fill: #323f45;
      }

      .cls-133 {
        fill: #86a4bb;
      }

      .cls-134 {
        fill: #7792a5;
      }

      .cls-135 {
        fill: #84a1b8;
      }

      .cls-136 {
        fill: #5c707e;
      }

      .cls-137 {
        fill: #698190;
      }

      .cls-138 {
        fill: #637987;
      }

      .cls-139 {
        fill: #3c4a52;
      }

      .cls-140 {
        fill: #42515a;
      }

      .cls-141 {
        fill: #c6a095;
      }

      .cls-142 {
        fill: #3b4950;
      }

      .cls-143 {
        fill: #6c8494;
      }

      .cls-144 {
        fill: #88a6bd;
      }

      .cls-145 {
        fill: #404f57;
      }

      .cls-146 {
        fill: #47433b;
      }

      .cls-147 {
        fill: #51646f;
      }

      .cls-148 {
        fill: #7c97ac;
      }

      .cls-149 {
        fill: #5a6e7b;
      }

      .cls-150 {
        fill: #647b8a;
      }

      .cls-151 {
        fill: #45555e;
      }

      .cls-152 {
        fill: #7e9aaf;
      }

      .cls-153 {
        fill: #f2f3f2;
      }

      .cls-154 {
        fill: #3f4e56;
      }

      .cls-155 {
        fill: #2f3b40;
      }

      .cls-156 {
        fill: #4a5a64;
      }

      .cls-157 {
        fill: #607684;
      }

      .cls-158 {
        fill: #49443b;
      }

      .cls-159 {
        fill: #718a9b;
      }

      .cls-160 {
        fill: #5d717f;
      }

      .cls-161 {
        clip-path: url(#clippath);
      }

      .cls-162 {
        fill: #82a0b5;
      }

      .cls-163 {
        fill: #2e393f;
      }

      .cls-164 {
        fill: #70899a;
      }

      .cls-165 {
        fill: #7b96aa;
      }

      .cls-166 {
        fill: #758fa2;
      }

      .cls-167 {
        fill: #86a4ba;
      }

      .cls-168 {
        fill: #9abc30;
      }

      .cls-169 {
        fill: #5f7482;
      }

      .cls-170 {
        fill: #7c98ad;
      }

      .cls-171 {
        fill: #819eb3;
      }

      .cls-172 {
        fill: #85a3ba;
      }

      .cls-173 {
        fill: #728c9e;
      }

      .cls-174 {
        fill: #576a76;
      }

      .cls-175 {
        fill: #627786;
      }

      .cls-176 {
        fill: #ab5b64;
      }
    </style>
    <clipPath id="clippath">
      <path class="cls-1" d="M33.55,36.08c-.1,1.18-1.15,2.06-2.36,1.96-1.2-.1-2.1-1.14-2-2.32.1-1.19,1.15-2.07,2.36-1.97,1.2.1,2.1,1.14,2,2.33Z"/>
    </clipPath>
    <clipPath id="clippath-1">
      <path class="cls-1" d="M48.95,35.96c-.1,1.18-1.15,2.06-2.36,1.96-1.2-.1-2.1-1.14-2-2.32.1-1.19,1.15-2.07,2.36-1.97,1.2.1,2.1,1.14,2,2.33Z"/>
    </clipPath>
  </defs>
  <g id="Layer_1-2" data-name="Layer 1">
    <g>
      <rect class="cls-51" width="78.88" height="78.81"/>
      <path class="cls-153" d="M60.83,31.01c0-1.09-.85-1.98-1.89-1.98-.08,0-.15.01-.23.02,1.24-.56,2.11-1.87,2.11-3.4,0-1.31-.64-2.46-1.61-3.11.13-.38.2-.81.2-1.26,0-1.78-1.14-3.22-2.53-3.22-.21,0-.41.04-.61.1-.1-.19-.21-.35-.32-.51.1-.4.16-.83.16-1.28,0-2.38-1.41-4.31-3.15-4.31-.45,0-.87.13-1.26.36-.27-2.15-1.79-3.81-3.65-3.81-.78,0-1.5.29-2.09.78-.63-.48-1.47-.78-2.38-.78s-1.67.28-2.3.72c-.57-.98-1.5-1.72-2.62-2.03-1.12.31-2.05,1.05-2.62,2.03-.62-.44-1.42-.72-2.3-.72s-1.75.3-2.39.78c-.59-.49-1.31-.78-2.09-.78-1.87,0-3.39,1.66-3.66,3.81-.38-.23-.81-.36-1.26-.36-1.74,0-3.15,1.93-3.15,4.31,0,.45.06.88.15,1.28-.11.16-.22.32-.32.51-.19-.06-.39-.1-.6-.1-1.4,0-2.53,1.44-2.53,3.22,0,.44.07.87.2,1.26-.96.66-1.61,1.8-1.61,3.11,0,1.53.87,2.84,2.11,3.4-.08,0-.15-.02-.23-.02-1.04,0-1.88.89-1.88,1.98,0,.83.49,1.53,1.17,1.83-.71.45-1.17,1.21-1.17,2.06,0,.92.54,1.71,1.33,2.14-.41.33-.68.81-.68,1.36,0,.99.85,1.79,1.89,1.79.08,0,.15-.01.23-.02-.15.3-.23.64-.23,1,0,1.4,1.25,2.53,2.8,2.53.31,0,.6-.05.89-.14.43.94,1.54,1.61,2.85,1.61.56,0,1.08-.14,1.53-.35l24.68.35c1.31,0,2.41-.67,2.85-1.61.28.09.58.14.89.14,1.54,0,2.8-1.13,2.8-2.53,0-.35-.08-.69-.23-1,.08,0,.15.02.23.02,1.04,0,1.88-.8,1.88-1.79,0-.55-.27-1.04-.68-1.36.8-.43,1.33-1.22,1.33-2.14,0-.86-.47-1.61-1.17-2.06.69-.29,1.17-1,1.17-1.83Z"/>
      <path class="cls-79" d="M47.44,62.55c-.28-.14-.48-.27-.59-.38-.01-.01-.04-.05-.08-.09-.02-.04-.05-.06-.07-.1-.06-.35-1-1.89-1.32-3.56h0c-.07-.35-.11-.67-.12-1.01-.03-.49-.03-.97-.04-1.41-.01-.45-.02-.86-.04-1.2v-.29c-.01-.24-.01-.44-.01-.59-.01-.15-.01-.24-.01-.24,0,0,.35-.3.86-.75.64-.57,1.55-1.4,2.33-2.18.85-.85,1.59-1.66,1.75-2.08.01-.06.02-.11.02-.15,0,0-.02,0-.06.01-.4.06-2.55.44-4.86.8-1.37.21-2.81.43-3.98.57-.46.06-.89.1-1.25.14h-.01c-.34.04-.62.05-.84.05-.24,0-.56-.02-.95-.05h-.03c-.37-.05-.82-.1-1.31-.16-1.07-.14-2.36-.32-3.61-.51-1.15-.19-2.27-.36-3.16-.51-.21-.04-.4-.06-.57-.1-.85-.14-1.39-.24-1.39-.24,0,.16.15.41.4.74,0,0,0,.01.01.01.19.25.44.54.74.86.29.3.6.61.92.92.99.96,2.06,1.91,2.58,2.36.2.17.31.27.31.27,0,0,0,.09-.01.24,0,.15,0,.35-.01.59v.29c0,.1,0,.2-.01.3-.01.65-.04,1.46-.06,2.31-.01.34-.05.66-.12,1-.33,1.67-1.26,3.22-1.32,3.57-.03.04-.05.06-.07.1-.04.04-.06.08-.08.09-.05.05-.14.11-.24.18,2.47,1.67,8.82,4.87,16.3.2Z"/>
      <path class="cls-141" d="M45.38,58.41c-.07-.34-.11-.66-.12-1-.04-1.12-.06-2.2-.07-2.9-1.87.84-3.8,1.32-5.68,1.32-.11.02-.25.02-.38.02s-.27,0-.38-.02c-1.89,0-3.81-.49-5.68-1.32-.01.7-.04,1.77-.07,2.9-.01.34-.05.66-.12,1,1.81,1.51,4.26,3.07,5.88,3.07.1.02.23.02.34.02h0s.03,0,.04,0,.03,0,.04,0h0c.12,0,.24,0,.34-.03,1.62,0,4.07-1.56,5.88-3.07Z"/>
      <g>
        <path class="cls-79" d="M55.19,36c.31-1.73.56-3.05.63-3.31.04-.12.06-.25.1-.37.03-.15.06-.29.09-.42.06-.21.1-.43.15-.64.01-.1.04-.2.05-.3.04-.24.09-.48.12-.71.01-.1.03-.21.04-.31.04-.21.05-.42.08-.64.01-.16.02-.33.05-.47.01-.14.01-.28.02-.41.16-3.26-.54-6.58-2.67-9.59-2.58-3.62-5.56-7.45-12.01-7.99h-5.44c-6.46.54-9.43,4.37-12.01,7.99-2.13,3.01-2.83,6.33-2.67,9.59.01.14.01.27.02.41.02.15.04.31.05.47.02.21.04.42.07.64.01.1.03.21.04.31.04.24.09.47.13.71.01.1.04.2.05.3.05.21.09.43.15.64.03.14.06.27.09.42.04.12.06.25.1.37.08.26.32,1.57.63,3.29-1.72-.84-4.11.36-3.83,3.53.29,3.22,4.21,5.13,5.55,5.45.13.58.24,1.02.33,1.22,1.17,2.96,2.6,3.85,5.09,6.26,2.72,2.61,6.74,5.06,8.73,5.04.06.01.14.01.21.01s.15,0,.21-.01c1.98.01,6-2.44,8.73-5.04,2.5-2.41,3.92-3.3,5.09-6.26.08-.21.19-.63.32-1.21,1.29-.29,5.29-2.21,5.59-5.46.29-3.2-2.15-4.4-3.88-3.51Z"/>
        <path class="cls-5" d="M57.81,37.77c-.97-1.58-2.49-.91-2.87-.57-.4.37-.72.87-.48,1.8.13.52.68.57.54,1.37-.16.89-.57.95-.8,1.15-.23.2-.53.35-.68.73-.14.37-.17.77-.1,1.12.15.65,1.09.14,1.72-.14.42-.18,1.74-1.29,2.08-1.65.84-.94,1.25-2.74.6-3.8"/>
      </g>
      <path class="cls-5" d="M36.35,51.32c-.06-.82,2.31.17,3.09.2.62.02,2.49-.12,2.67-.19,1.31-.49-.07,1.38-2.7,1.48-1.21.05-3.02-.99-3.06-1.49Z"/>
      <g>
        <path class="cls-176" d="M44.19,50.25c-1.51-.28-4.68-.89-4.68-.89-2.62.43-4.67.88-4.68.9-.06,0,2.09,1.93,4.65,1.8h0c2.55.13,4.78-1.8,4.72-1.81Z"/>
        <path class="cls-7" d="M41,48.83c-.68-.07-1.15.32-1.49.29-.35.03-.82-.36-1.5-.29-.97.21-1.43.82-3.19,1.43.06.12,1.19-.15,3.3-.11.03,0,.6.32,1.4.31.5,0,1.19-.34,1.22-.34,2.11-.03,3.4.26,3.46.14-2.32-.71-2.23-1.23-3.2-1.44Z"/>
      </g>
      <path class="cls-35" d="M40.76,44.87c.34-.23.74-.12.74-.12,0,0,0,0-.01.02-.08.14-.54.87-.91.86,0,0-.08-.07-.1-.24-.03-.17.11-.4.28-.52Z"/>
      <path class="cls-5" d="M36.13,44.64c-.07-1.65,2.56-.6,3.43-.55.69.04,2.77-.52,2.95-.38,1.22.98-1.3,2.95-2.99,2.95-.45,0-3.34-1.03-3.38-2.03Z"/>
      <path class="cls-24" d="M38.12,44.84c-.34-.23-.74-.12-.74-.12,0,0,0,0,.01.02.08.14.54.87.91.86,0,0,.08-.07.1-.24.03-.17-.11-.4-.28-.52Z"/>
      <path class="cls-158" d="M35.68,33.34s-.4-.4-1.14-.89c-.35-.26-.81-.48-1.3-.71-.49-.23-1.04-.4-1.61-.5-.57-.13-1.15-.16-1.71-.15-.28.02-.55.04-.8.06-.26.01-.5.08-.72.11-.45.07-.82.18-1.09.24-.27.06-.42.1-.42.1,0,0,.13-.08.37-.23.24-.13.57-.37,1.02-.53.44-.19.98-.36,1.58-.48.6-.08,1.26-.12,1.92-.05.66.09,1.3.27,1.87.51.57.24,1.06.56,1.45.86.78.59,1.16,1.18,1.16,1.18h0c.12.18.07.42-.11.54-.15.1-.35.07-.48-.05Z"/>
      <path class="cls-92" d="M26.49,35.1s1.46,3.64,3.73,3.99c2.27.35,4.69-.16,4.69-.16,0,0,.06-4.22-1.12-4.81-1.18-.59-3.87-1.46-7.3.98Z"/>
      <g class="cls-161">
        <polygon class="cls-117" points="33.65 34.45 29.09 34.08 29.09 33.66 33.65 33.66 33.65 34.45"/>
        <polygon class="cls-117" points="33.65 34.47 29.09 34.1 29.09 34.08 33.65 34.45 33.65 34.47"/>
        <polygon class="cls-163" points="33.65 34.5 29.09 34.12 29.09 34.1 33.65 34.47 33.65 34.5"/>
        <polygon class="cls-155" points="33.65 34.52 29.09 34.14 29.09 34.12 33.65 34.5 33.65 34.52"/>
        <polygon class="cls-81" points="33.65 34.54 29.09 34.16 29.09 34.14 33.65 34.52 33.65 34.54"/>
        <polygon class="cls-13" points="33.65 34.56 29.09 34.18 29.09 34.16 33.65 34.54 33.65 34.56"/>
        <polygon class="cls-132" points="33.65 34.58 29.09 34.2 29.09 34.18 33.65 34.56 33.65 34.58"/>
        <polygon class="cls-62" points="33.65 34.6 29.09 34.22 29.09 34.2 33.65 34.58 33.65 34.6"/>
        <polygon class="cls-2" points="33.65 34.62 29.09 34.25 29.09 34.22 33.65 34.6 33.65 34.62"/>
        <polygon class="cls-12" points="33.65 34.64 29.09 34.27 29.09 34.25 33.65 34.62 33.65 34.64"/>
        <polygon class="cls-67" points="33.65 34.66 29.09 34.29 29.09 34.27 33.65 34.64 33.65 34.66"/>
        <polygon class="cls-46" points="33.65 34.68 29.09 34.31 29.09 34.29 33.65 34.66 33.65 34.68"/>
        <polygon class="cls-60" points="33.65 34.71 29.09 34.33 29.09 34.31 33.65 34.68 33.65 34.71"/>
        <polygon class="cls-106" points="33.65 34.73 29.09 34.35 29.09 34.33 33.65 34.71 33.65 34.73"/>
        <polygon class="cls-142" points="33.65 34.75 29.09 34.37 29.09 34.35 33.65 34.73 33.65 34.75"/>
        <polygon class="cls-139" points="33.65 34.77 29.09 34.39 29.09 34.37 33.65 34.75 33.65 34.77"/>
        <polygon class="cls-61" points="33.65 34.79 29.09 34.41 29.09 34.39 33.65 34.77 33.65 34.79"/>
        <polygon class="cls-47" points="33.65 34.81 29.09 34.43 29.09 34.41 33.65 34.79 33.65 34.81"/>
        <polygon class="cls-154" points="33.65 34.83 29.09 34.46 29.09 34.43 33.65 34.81 33.65 34.83"/>
        <polygon class="cls-145" points="33.65 34.85 29.09 34.48 29.09 34.46 33.65 34.83 33.65 34.85"/>
        <polygon class="cls-116" points="33.65 34.87 29.09 34.5 29.09 34.48 33.65 34.85 33.65 34.87"/>
        <polygon class="cls-140" points="33.65 34.89 29.09 34.52 29.09 34.5 33.65 34.87 33.65 34.89"/>
        <polygon class="cls-120" points="33.65 34.92 29.09 34.54 29.09 34.52 33.65 34.89 33.65 34.92"/>
        <polygon class="cls-16" points="33.65 34.94 29.09 34.56 29.09 34.54 33.65 34.92 33.65 34.94"/>
        <polygon class="cls-151" points="33.65 34.96 29.09 34.58 29.09 34.56 33.65 34.94 33.65 34.96"/>
        <polygon class="cls-17" points="33.65 34.98 29.09 34.6 29.09 34.58 33.65 34.96 33.65 34.98"/>
        <polygon class="cls-104" points="33.65 35 29.09 34.62 29.09 34.6 33.65 34.98 33.65 35"/>
        <polygon class="cls-25" points="33.65 35.02 29.09 34.64 29.09 34.62 33.65 35 33.65 35.02"/>
        <polygon class="cls-37" points="33.65 35.04 29.09 34.67 29.09 34.64 33.65 35.02 33.65 35.04"/>
        <polygon class="cls-156" points="33.65 35.06 29.09 34.69 29.09 34.67 33.65 35.04 33.65 35.06"/>
        <polygon class="cls-111" points="33.65 35.08 29.09 34.71 29.09 34.69 33.65 35.06 33.65 35.08"/>
        <polygon class="cls-103" points="33.65 35.1 29.09 34.73 29.09 34.71 33.65 35.08 33.65 35.1"/>
        <polygon class="cls-101" points="33.65 35.13 29.09 34.75 29.09 34.73 33.65 35.1 33.65 35.13"/>
        <polygon class="cls-97" points="33.65 35.15 29.09 34.77 29.09 34.75 33.65 35.13 33.65 35.15"/>
        <polygon class="cls-73" points="33.65 35.17 29.09 34.79 29.09 34.77 33.65 35.15 33.65 35.17"/>
        <polygon class="cls-6" points="33.65 35.19 29.09 34.81 29.09 34.79 33.65 35.17 33.65 35.19"/>
        <polygon class="cls-109" points="33.65 35.21 29.09 34.83 29.09 34.81 33.65 35.19 33.65 35.21"/>
        <polygon class="cls-118" points="33.65 35.23 29.09 34.85 29.09 34.83 33.65 35.21 33.65 35.23"/>
        <polygon class="cls-107" points="33.65 35.25 29.09 34.88 29.09 34.85 33.65 35.23 33.65 35.25"/>
        <polygon class="cls-147" points="33.65 35.27 29.09 34.9 29.09 34.88 33.65 35.25 33.65 35.27"/>
        <polygon class="cls-70" points="33.65 35.29 29.09 34.92 29.09 34.9 33.65 35.27 33.65 35.29"/>
        <polygon class="cls-95" points="33.65 35.31 29.09 34.94 29.09 34.92 33.65 35.29 33.65 35.31"/>
        <polygon class="cls-75" points="33.65 35.34 29.09 34.96 29.09 34.94 33.65 35.31 33.65 35.34"/>
        <polygon class="cls-124" points="33.65 35.36 29.09 34.98 29.09 34.96 33.65 35.34 33.65 35.36"/>
        <polygon class="cls-128" points="33.65 35.38 29.09 35 29.09 34.98 33.65 35.36 33.65 35.38"/>
        <polygon class="cls-98" points="33.65 35.4 29.09 35.02 29.09 35 33.65 35.38 33.65 35.4"/>
        <polygon class="cls-174" points="33.65 35.42 29.09 35.04 29.09 35.02 33.65 35.4 33.65 35.42"/>
        <polygon class="cls-22" points="33.65 35.44 29.09 35.06 29.09 35.04 33.65 35.42 33.65 35.44"/>
        <polygon class="cls-63" points="33.65 35.46 29.09 35.09 29.09 35.06 33.65 35.44 33.65 35.46"/>
        <polygon class="cls-31" points="33.65 35.48 29.09 35.11 29.09 35.09 33.65 35.46 33.65 35.48"/>
        <polygon class="cls-64" points="33.65 35.5 29.09 35.13 29.09 35.11 33.65 35.48 33.65 35.5"/>
        <polygon class="cls-149" points="33.65 35.52 29.09 35.15 29.09 35.13 33.65 35.5 33.65 35.52"/>
        <polygon class="cls-27" points="33.65 35.55 29.09 35.17 29.09 35.15 33.65 35.52 33.65 35.55"/>
        <polygon class="cls-52" points="33.65 35.57 29.09 35.19 29.09 35.17 33.65 35.55 33.65 35.57"/>
        <polygon class="cls-136" points="33.65 35.59 29.09 35.21 29.09 35.19 33.65 35.57 33.65 35.59"/>
        <polygon class="cls-160" points="33.65 35.61 29.09 35.23 29.09 35.21 33.65 35.59 33.65 35.61"/>
        <polygon class="cls-115" points="33.65 35.63 29.09 35.25 29.09 35.23 33.65 35.61 33.65 35.63"/>
        <polygon class="cls-96" points="33.65 35.65 29.09 35.27 29.09 35.25 33.65 35.63 33.65 35.65"/>
        <polygon class="cls-78" points="33.65 35.67 29.09 35.3 29.09 35.27 33.65 35.65 33.65 35.67"/>
        <polygon class="cls-169" points="33.65 35.69 29.09 35.32 29.09 35.3 33.65 35.67 33.65 35.69"/>
        <polygon class="cls-127" points="33.65 35.71 29.09 35.34 29.09 35.32 33.65 35.69 33.65 35.71"/>
        <polygon class="cls-157" points="33.65 35.73 29.09 35.36 29.09 35.34 33.65 35.71 33.65 35.73"/>
        <polygon class="cls-39" points="33.65 35.76 29.09 35.38 29.09 35.36 33.65 35.73 33.65 35.76"/>
        <polygon class="cls-175" points="33.65 35.78 29.09 35.4 29.09 35.38 33.65 35.76 33.65 35.78"/>
        <polygon class="cls-21" points="33.65 35.8 29.09 35.42 29.09 35.4 33.65 35.78 33.65 35.8"/>
        <polygon class="cls-138" points="33.65 35.82 29.09 35.44 29.09 35.42 33.65 35.8 33.65 35.82"/>
        <polygon class="cls-66" points="33.65 35.84 29.09 35.46 29.09 35.44 33.65 35.82 33.65 35.84"/>
        <polygon class="cls-90" points="33.65 35.86 29.09 35.48 29.09 35.46 33.65 35.84 33.65 35.86"/>
        <polygon class="cls-150" points="33.65 35.88 29.09 35.51 29.09 35.48 33.65 35.86 33.65 35.88"/>
        <polygon class="cls-42" points="33.65 35.9 29.09 35.53 29.09 35.51 33.65 35.88 33.65 35.9"/>
        <polygon class="cls-45" points="33.65 35.92 29.09 35.55 29.09 35.53 33.65 35.9 33.65 35.92"/>
        <polygon class="cls-130" points="33.65 35.94 29.09 35.57 29.09 35.55 33.65 35.92 33.65 35.94"/>
        <polygon class="cls-59" points="33.65 35.97 29.09 35.59 29.09 35.57 33.65 35.94 33.65 35.97"/>
        <polygon class="cls-10" points="33.65 35.99 29.09 35.61 29.09 35.59 33.65 35.97 33.65 35.99"/>
        <polygon class="cls-129" points="33.65 36.01 29.09 35.63 29.09 35.61 33.65 35.99 33.65 36.01"/>
        <polygon class="cls-48" points="33.65 36.03 29.09 35.65 29.09 35.63 33.65 36.01 33.65 36.03"/>
        <polygon class="cls-112" points="33.65 36.05 29.09 35.67 29.09 35.65 33.65 36.03 33.65 36.05"/>
        <polygon class="cls-137" points="33.65 36.07 29.09 35.69 29.09 35.67 33.65 36.05 33.65 36.07"/>
        <polygon class="cls-99" points="33.65 36.09 29.09 35.72 29.09 35.69 33.65 36.07 33.65 36.09"/>
        <polygon class="cls-84" points="33.65 36.11 29.09 35.74 29.09 35.72 33.65 36.09 33.65 36.11"/>
        <polygon class="cls-86" points="33.65 36.13 29.09 35.76 29.09 35.74 33.65 36.11 33.65 36.13"/>
        <polygon class="cls-89" points="33.65 36.15 29.09 35.78 29.09 35.76 33.65 36.13 33.65 36.15"/>
        <polygon class="cls-143" points="33.65 36.18 29.09 35.8 29.09 35.78 33.65 36.15 33.65 36.18"/>
        <polygon class="cls-56" points="33.65 36.2 29.09 35.82 29.09 35.8 33.65 36.18 33.65 36.2"/>
        <polygon class="cls-69" points="33.65 36.22 29.09 35.84 29.09 35.82 33.65 36.2 33.65 36.22"/>
        <polygon class="cls-15" points="33.65 36.24 29.09 35.86 29.09 35.84 33.65 36.22 33.65 36.24"/>
        <polygon class="cls-80" points="33.65 36.26 29.09 35.88 29.09 35.86 33.65 36.24 33.65 36.26"/>
        <polygon class="cls-80" points="33.65 36.28 29.09 35.9 29.09 35.88 33.65 36.26 33.65 36.28"/>
        <polygon class="cls-91" points="33.65 36.3 29.09 35.93 29.09 35.9 33.65 36.28 33.65 36.3"/>
        <polygon class="cls-26" points="33.65 36.32 29.09 35.95 29.09 35.93 33.65 36.3 33.65 36.32"/>
        <polygon class="cls-26" points="33.65 36.34 29.09 35.97 29.09 35.95 33.65 36.32 33.65 36.34"/>
        <polygon class="cls-164" points="33.65 36.36 29.09 35.99 29.09 35.97 33.65 36.34 33.65 36.36"/>
        <polygon class="cls-71" points="33.65 36.39 29.09 36.01 29.09 35.99 33.65 36.36 33.65 36.39"/>
        <polygon class="cls-159" points="33.65 36.41 29.09 36.03 29.09 36.01 33.65 36.39 33.65 36.41"/>
        <polygon class="cls-77" points="33.65 36.43 29.09 36.05 29.09 36.03 33.65 36.41 33.65 36.43"/>
        <polygon class="cls-33" points="33.65 36.45 29.09 36.07 29.09 36.05 33.65 36.43 33.65 36.45"/>
        <polygon class="cls-131" points="33.65 36.47 29.09 36.09 29.09 36.07 33.65 36.45 33.65 36.47"/>
        <polygon class="cls-173" points="33.65 36.49 29.09 36.11 29.09 36.09 33.65 36.47 33.65 36.49"/>
        <polygon class="cls-72" points="33.65 36.51 29.09 36.14 29.09 36.11 33.65 36.49 33.65 36.51"/>
        <polygon class="cls-36" points="33.65 36.53 29.09 36.16 29.09 36.14 33.65 36.51 33.65 36.53"/>
        <polygon class="cls-20" points="33.65 36.55 29.09 36.18 29.09 36.16 33.65 36.53 33.65 36.55"/>
        <polygon class="cls-32" points="33.65 36.57 29.09 36.2 29.09 36.18 33.65 36.55 33.65 36.57"/>
        <polygon class="cls-121" points="33.65 36.6 29.09 36.22 29.09 36.2 33.65 36.57 33.65 36.6"/>
        <polygon class="cls-85" points="33.65 36.62 29.09 36.24 29.09 36.22 33.65 36.6 33.65 36.62"/>
        <polygon class="cls-166" points="33.65 36.64 29.09 36.26 29.09 36.24 33.65 36.62 33.65 36.64"/>
        <polygon class="cls-30" points="33.65 36.66 29.09 36.28 29.09 36.26 33.65 36.64 33.65 36.66"/>
        <polygon class="cls-114" points="33.65 36.68 29.09 36.3 29.09 36.28 33.65 36.66 33.65 36.68"/>
        <polygon class="cls-105" points="33.65 36.7 29.09 36.32 29.09 36.3 33.65 36.68 33.65 36.7"/>
        <polygon class="cls-8" points="33.65 36.72 29.09 36.35 29.09 36.32 33.65 36.7 33.65 36.72"/>
        <polygon class="cls-134" points="33.65 36.74 29.09 36.37 29.09 36.35 33.65 36.72 33.65 36.74"/>
        <polygon class="cls-134" points="33.65 36.76 29.09 36.39 29.09 36.37 33.65 36.74 33.65 36.76"/>
        <polygon class="cls-28" points="33.65 36.78 29.09 36.41 29.09 36.39 33.65 36.76 33.65 36.78"/>
        <polygon class="cls-18" points="33.65 36.81 29.09 36.43 29.09 36.41 33.65 36.78 33.65 36.81"/>
        <polygon class="cls-119" points="33.65 36.83 29.09 36.45 29.09 36.43 33.65 36.81 33.65 36.83"/>
        <polygon class="cls-88" points="33.65 36.85 29.09 36.47 29.09 36.45 33.65 36.83 33.65 36.85"/>
        <polygon class="cls-122" points="33.65 36.87 29.09 36.49 29.09 36.47 33.65 36.85 33.65 36.87"/>
        <polygon class="cls-122" points="33.65 36.89 29.09 36.51 29.09 36.49 33.65 36.87 33.65 36.89"/>
        <polygon class="cls-55" points="33.65 36.91 29.09 36.53 29.09 36.51 33.65 36.89 33.65 36.91"/>
        <polygon class="cls-55" points="33.65 36.93 29.09 36.56 29.09 36.53 33.65 36.91 33.65 36.93"/>
        <polygon class="cls-53" points="33.65 36.95 29.09 36.58 29.09 36.56 33.65 36.93 33.65 36.95"/>
        <polygon class="cls-165" points="33.65 36.97 29.09 36.6 29.09 36.58 33.65 36.95 33.65 36.97"/>
        <polygon class="cls-165" points="33.65 36.99 29.09 36.62 29.09 36.6 33.65 36.97 33.65 36.99"/>
        <polygon class="cls-9" points="33.65 37.02 29.09 36.64 29.09 36.62 33.65 36.99 33.65 37.02"/>
        <polygon class="cls-68" points="33.65 37.04 29.09 36.66 29.09 36.64 33.65 37.02 33.65 37.04"/>
        <polygon class="cls-148" points="33.65 37.06 29.09 36.68 29.09 36.66 33.65 37.04 33.65 37.06"/>
        <polygon class="cls-57" points="33.65 37.08 29.09 36.7 29.09 36.68 33.65 37.06 33.65 37.08"/>
        <polygon class="cls-170" points="33.65 37.1 29.09 36.72 29.09 36.7 33.65 37.08 33.65 37.1"/>
        <polygon class="cls-108" points="33.65 37.12 29.09 36.74 29.09 36.72 33.65 37.1 33.65 37.12"/>
        <polygon class="cls-108" points="33.65 37.14 29.09 36.77 29.09 36.74 33.65 37.12 33.65 37.14"/>
        <polygon class="cls-3" points="33.65 37.16 29.09 36.79 29.09 36.77 33.65 37.14 33.65 37.16"/>
        <polygon class="cls-49" points="33.65 37.18 29.09 36.81 29.09 36.79 33.65 37.16 33.65 37.18"/>
        <polygon class="cls-152" points="33.65 37.2 29.09 36.83 29.09 36.81 33.65 37.18 33.65 37.2"/>
        <polygon class="cls-152" points="33.65 37.23 29.09 36.85 29.09 36.83 33.65 37.2 33.65 37.23"/>
        <polygon class="cls-83" points="33.65 37.25 29.09 36.87 29.09 36.85 33.65 37.23 33.65 37.25"/>
        <polygon class="cls-44" points="33.65 37.27 29.09 36.89 29.09 36.87 33.65 37.25 33.65 37.27"/>
        <polygon class="cls-44" points="33.65 37.29 29.09 36.91 29.09 36.89 33.65 37.27 33.65 37.29"/>
        <polygon class="cls-93" points="33.65 37.31 29.09 36.93 29.09 36.91 33.65 37.29 33.65 37.31"/>
        <polygon class="cls-93" points="33.65 37.33 29.09 36.95 29.09 36.93 33.65 37.31 33.65 37.33"/>
        <polygon class="cls-102" points="33.65 37.35 29.09 36.98 29.09 36.95 33.65 37.33 33.65 37.35"/>
        <polygon class="cls-14" points="33.65 37.37 29.09 37 29.09 36.98 33.65 37.35 33.65 37.37"/>
        <polygon class="cls-100" points="33.65 37.39 29.09 37.02 29.09 37 33.65 37.37 33.65 37.39"/>
        <polygon class="cls-100" points="33.65 37.41 29.09 37.04 29.09 37.02 33.65 37.39 33.65 37.41"/>
        <polygon class="cls-40" points="33.65 37.44 29.09 37.06 29.09 37.04 33.65 37.41 33.65 37.44"/>
        <polygon class="cls-171" points="33.65 37.46 29.09 37.08 29.09 37.06 33.65 37.44 33.65 37.46"/>
        <polygon class="cls-171" points="33.65 37.48 29.09 37.1 29.09 37.08 33.65 37.46 33.65 37.48"/>
        <polygon class="cls-110" points="33.65 37.5 29.09 37.12 29.09 37.1 33.65 37.48 33.65 37.5"/>
        <polygon class="cls-54" points="33.65 37.52 29.09 37.14 29.09 37.12 33.65 37.5 33.65 37.52"/>
        <polygon class="cls-29" points="33.65 37.54 29.09 37.16 29.09 37.14 33.65 37.52 33.65 37.54"/>
        <polygon class="cls-23" points="33.65 37.56 29.09 37.19 29.09 37.16 33.65 37.54 33.65 37.56"/>
        <polygon class="cls-23" points="33.65 37.58 29.09 37.21 29.09 37.19 33.65 37.56 33.65 37.58"/>
        <polygon class="cls-162" points="33.65 37.6 29.09 37.23 29.09 37.21 33.65 37.58 33.65 37.6"/>
        <polygon class="cls-125" points="33.65 37.62 29.09 37.25 29.09 37.23 33.65 37.6 33.65 37.62"/>
        <polygon class="cls-125" points="33.65 37.65 29.09 37.27 29.09 37.25 33.65 37.62 33.65 37.65"/>
        <polygon class="cls-125" points="33.65 37.67 29.09 37.29 29.09 37.27 33.65 37.65 33.65 37.67"/>
        <polygon class="cls-87" points="33.65 37.69 29.09 37.31 29.09 37.29 33.65 37.67 33.65 37.69"/>
        <polygon class="cls-87" points="33.65 37.71 29.09 37.33 29.09 37.31 33.65 37.69 33.65 37.71"/>
        <polygon class="cls-76" points="33.65 37.73 29.09 37.35 29.09 37.33 33.65 37.71 33.65 37.73"/>
        <polygon class="cls-76" points="33.65 37.75 29.09 37.37 29.09 37.35 33.65 37.73 33.65 37.75"/>
        <polygon class="cls-135" points="33.65 37.77 29.09 37.4 29.09 37.37 33.65 37.75 33.65 37.77"/>
        <polygon class="cls-4" points="33.65 37.79 29.09 37.42 29.09 37.4 33.65 37.77 33.65 37.79"/>
        <polygon class="cls-4" points="33.65 37.81 29.09 37.44 29.09 37.42 33.65 37.79 33.65 37.81"/>
        <polygon class="cls-43" points="33.65 37.83 29.09 37.46 29.09 37.44 33.65 37.81 33.65 37.83"/>
        <polygon class="cls-58" points="33.65 37.86 29.09 37.48 29.09 37.46 33.65 37.83 33.65 37.86"/>
        <polygon class="cls-82" points="33.65 37.88 29.09 37.5 29.09 37.48 33.65 37.86 33.65 37.88"/>
        <polygon class="cls-82" points="33.65 37.9 29.09 37.52 29.09 37.5 33.65 37.88 33.65 37.9"/>
        <polygon class="cls-82" points="33.65 37.92 29.09 37.54 29.09 37.52 33.65 37.9 33.65 37.92"/>
        <polygon class="cls-172" points="33.65 37.94 29.09 37.56 29.09 37.54 33.65 37.92 33.65 37.94"/>
        <polygon class="cls-11" points="33.65 37.96 29.09 37.58 29.09 37.56 33.65 37.94 33.65 37.96"/>
        <polygon class="cls-11" points="33.65 37.98 29.09 37.61 29.09 37.58 33.65 37.96 33.65 37.98"/>
        <polygon class="cls-167" points="33.65 38 29.09 37.63 29.09 37.61 33.65 37.98 33.65 38"/>
        <polygon class="cls-133" points="33.65 38.02 29.09 37.65 29.09 37.63 33.65 38 33.65 38.02"/>
        <polygon class="cls-133" points="33.65 38.05 29.09 37.67 29.09 37.65 33.65 38.02 33.65 38.05"/>
        <polygon class="cls-133" points="33.65 38.07 29.09 37.69 29.09 37.67 33.65 38.05 33.65 38.07"/>
        <polygon class="cls-133" points="33.65 38.09 29.09 37.71 29.09 37.69 33.65 38.07 33.65 38.09"/>
        <polygon class="cls-38" points="33.65 38.11 29.09 37.73 29.09 37.71 33.65 38.09 33.65 38.11"/>
        <polygon class="cls-94" points="33.65 38.13 29.09 37.75 29.09 37.73 33.65 38.11 33.65 38.13"/>
        <polygon class="cls-19" points="33.59 38.15 29.09 37.77 29.09 37.75 33.65 38.13 33.65 38.15 33.59 38.15"/>
        <polygon class="cls-19" points="33.34 38.15 29.09 37.79 29.09 37.77 33.59 38.15 33.34 38.15"/>
        <polygon class="cls-19" points="33.08 38.15 29.09 37.82 29.09 37.79 33.34 38.15 33.08 38.15"/>
        <polygon class="cls-19" points="32.83 38.15 29.09 37.84 29.09 37.82 33.08 38.15 32.83 38.15"/>
        <polygon class="cls-19" points="32.58 38.15 29.09 37.86 29.09 37.84 32.83 38.15 32.58 38.15"/>
        <polygon class="cls-19" points="32.32 38.15 29.09 37.88 29.09 37.86 32.58 38.15 32.32 38.15"/>
        <polygon class="cls-65" points="32.07 38.15 29.09 37.9 29.09 37.88 32.32 38.15 32.07 38.15"/>
        <polygon class="cls-144" points="31.81 38.15 29.09 37.92 29.09 37.9 32.07 38.15 31.81 38.15"/>
        <polygon class="cls-144" points="31.56 38.15 29.09 37.94 29.09 37.92 31.81 38.15 31.56 38.15"/>
        <polygon class="cls-144" points="31.3 38.15 29.09 37.96 29.09 37.94 31.56 38.15 31.3 38.15"/>
        <polygon class="cls-144" points="31.05 38.15 29.09 37.98 29.09 37.96 31.3 38.15 31.05 38.15"/>
        <polygon class="cls-144" points="30.8 38.15 29.09 38 29.09 37.98 31.05 38.15 30.8 38.15"/>
        <polygon class="cls-144" points="30.54 38.15 29.09 38.03 29.09 38 30.8 38.15 30.54 38.15"/>
        <polygon class="cls-144" points="30.29 38.15 29.09 38.05 29.09 38.03 30.54 38.15 30.29 38.15"/>
        <polygon class="cls-34" points="30.03 38.15 29.09 38.07 29.09 38.05 30.29 38.15 30.03 38.15"/>
        <polygon class="cls-34" points="29.78 38.15 29.09 38.09 29.09 38.07 30.03 38.15 29.78 38.15"/>
        <polygon class="cls-50" points="29.52 38.15 29.09 38.11 29.09 38.09 29.78 38.15 29.52 38.15"/>
        <polygon class="cls-50" points="29.27 38.15 29.09 38.13 29.09 38.11 29.52 38.15 29.27 38.15"/>
        <polygon class="cls-50" points="29.09 38.13 29.27 38.15 29.09 38.15 29.09 38.13"/>
      </g>
      <path class="cls-41" d="M31.27,37.37c-.64-.05-1.14-.7-1.08-1.4.06-.71.65-1.26,1.29-1.21.64.05,1.14.7,1.08,1.4-.06.71-.65,1.26-1.29,1.21Z"/>
      <path class="cls-126" d="M31.32,37.12c-.45-.04-.91-.52-.86-1.12.05-.6.59-1.01,1.03-.97.45.04.91.53.86,1.13-.05.6-.59,1.01-1.03.97Z"/>
      <g class="cls-113">
        <path class="cls-146" d="M34.91,38.92s-.05,0-.17.04c-.08-1.3-.33-3.09-1.07-3.45-1.09-.55-3.55-1.36-6.7.57-.32-.57-.48-.99-.48-.99,3.43-2.45,6.13-1.57,7.3-.99,1.18.59,1.12,4.81,1.12,4.81Z"/>
      </g>
      <path class="cls-92" d="M30.96,35.64c-.02.22-.24.38-.5.35-.26-.02-.45-.22-.43-.43.02-.22.24-.38.5-.36.26.02.45.21.44.43Z"/>
      <path class="cls-92" d="M32.4,36.89c0,.11-.12.19-.25.18-.13,0-.23-.11-.22-.22,0-.11.12-.19.25-.18.13,0,.23.11.22.22Z"/>
      <path class="cls-158" d="M41.87,32.86s.38-.58,1.16-1.18c.39-.3.88-.62,1.45-.86.57-.24,1.21-.42,1.87-.51.66-.07,1.32-.03,1.92.05.6.11,1.14.29,1.58.48.45.15.78.4,1.02.53.23.15.37.23.37.23,0,0-.15-.04-.42-.1-.26-.07-.63-.18-1.09-.24-.23-.03-.46-.1-.72-.11-.26-.02-.52-.04-.8-.06-.55,0-1.14.02-1.71.15-.57.1-1.12.28-1.61.5-.49.23-.94.46-1.3.71-.74.49-1.14.89-1.14.89-.15.15-.39.15-.54,0-.13-.13-.15-.33-.05-.48h0Z"/>
      <path class="cls-92" d="M51.63,35.1s-1.46,3.64-3.73,3.99c-2.27.35-4.68-.16-4.68-.16,0,0-.06-4.22,1.12-4.81,1.18-.59,3.87-1.46,7.3.98Z"/>
      <g class="cls-113">
        <path class="cls-146" d="M43.22,38.92s.05,0,.17.04c.08-1.3.34-3.09,1.07-3.45,1.09-.55,3.55-1.36,6.7.57.32-.57.48-.99.48-.99-3.43-2.45-6.13-1.57-7.3-.99-1.18.59-1.12,4.81-1.12,4.81Z"/>
      </g>
      <g class="cls-74">
        <polygon class="cls-117" points="49.05 34.33 44.49 33.96 44.49 33.53 49.05 33.53 49.05 34.33"/>
        <polygon class="cls-117" points="49.05 34.35 44.49 33.98 44.49 33.96 49.05 34.33 49.05 34.35"/>
        <polygon class="cls-163" points="49.05 34.37 44.49 34 44.49 33.98 49.05 34.35 49.05 34.37"/>
        <polygon class="cls-155" points="49.05 34.4 44.49 34.02 44.49 34 49.05 34.37 49.05 34.4"/>
        <polygon class="cls-81" points="49.05 34.42 44.49 34.04 44.49 34.02 49.05 34.4 49.05 34.42"/>
        <polygon class="cls-13" points="49.05 34.44 44.49 34.06 44.49 34.04 49.05 34.42 49.05 34.44"/>
        <polygon class="cls-132" points="49.05 34.46 44.49 34.08 44.49 34.06 49.05 34.44 49.05 34.46"/>
        <polygon class="cls-62" points="49.05 34.48 44.49 34.1 44.49 34.08 49.05 34.46 49.05 34.48"/>
        <polygon class="cls-2" points="49.05 34.5 44.49 34.12 44.49 34.1 49.05 34.48 49.05 34.5"/>
        <polygon class="cls-12" points="49.05 34.52 44.49 34.15 44.49 34.12 49.05 34.5 49.05 34.52"/>
        <polygon class="cls-67" points="49.05 34.54 44.49 34.17 44.49 34.15 49.05 34.52 49.05 34.54"/>
        <polygon class="cls-46" points="49.05 34.56 44.49 34.19 44.49 34.17 49.05 34.54 49.05 34.56"/>
        <polygon class="cls-60" points="49.05 34.58 44.49 34.21 44.49 34.19 49.05 34.56 49.05 34.58"/>
        <polygon class="cls-106" points="49.05 34.61 44.49 34.23 44.49 34.21 49.05 34.58 49.05 34.61"/>
        <polygon class="cls-142" points="49.05 34.63 44.49 34.25 44.49 34.23 49.05 34.61 49.05 34.63"/>
        <polygon class="cls-139" points="49.05 34.65 44.49 34.27 44.49 34.25 49.05 34.63 49.05 34.65"/>
        <polygon class="cls-61" points="49.05 34.67 44.49 34.29 44.49 34.27 49.05 34.65 49.05 34.67"/>
        <polygon class="cls-47" points="49.05 34.69 44.49 34.31 44.49 34.29 49.05 34.67 49.05 34.69"/>
        <polygon class="cls-154" points="49.05 34.71 44.49 34.33 44.49 34.31 49.05 34.69 49.05 34.71"/>
        <polygon class="cls-145" points="49.05 34.73 44.49 34.36 44.49 34.33 49.05 34.71 49.05 34.73"/>
        <polygon class="cls-116" points="49.05 34.75 44.49 34.38 44.49 34.36 49.05 34.73 49.05 34.75"/>
        <polygon class="cls-140" points="49.05 34.77 44.49 34.4 44.49 34.38 49.05 34.75 49.05 34.77"/>
        <polygon class="cls-120" points="49.05 34.79 44.49 34.42 44.49 34.4 49.05 34.77 49.05 34.79"/>
        <polygon class="cls-16" points="49.05 34.82 44.49 34.44 44.49 34.42 49.05 34.79 49.05 34.82"/>
        <polygon class="cls-151" points="49.05 34.84 44.49 34.46 44.49 34.44 49.05 34.82 49.05 34.84"/>
        <polygon class="cls-17" points="49.05 34.86 44.49 34.48 44.49 34.46 49.05 34.84 49.05 34.86"/>
        <polygon class="cls-104" points="49.05 34.88 44.49 34.5 44.49 34.48 49.05 34.86 49.05 34.88"/>
        <polygon class="cls-25" points="49.05 34.9 44.49 34.52 44.49 34.5 49.05 34.88 49.05 34.9"/>
        <polygon class="cls-37" points="49.05 34.92 44.49 34.54 44.49 34.52 49.05 34.9 49.05 34.92"/>
        <polygon class="cls-156" points="49.05 34.94 44.49 34.57 44.49 34.54 49.05 34.92 49.05 34.94"/>
        <polygon class="cls-111" points="49.05 34.96 44.49 34.59 44.49 34.57 49.05 34.94 49.05 34.96"/>
        <polygon class="cls-103" points="49.05 34.98 44.49 34.61 44.49 34.59 49.05 34.96 49.05 34.98"/>
        <polygon class="cls-101" points="49.05 35 44.49 34.63 44.49 34.61 49.05 34.98 49.05 35"/>
        <polygon class="cls-97" points="49.05 35.03 44.49 34.65 44.49 34.63 49.05 35 49.05 35.03"/>
        <polygon class="cls-73" points="49.05 35.05 44.49 34.67 44.49 34.65 49.05 35.03 49.05 35.05"/>
        <polygon class="cls-6" points="49.05 35.07 44.49 34.69 44.49 34.67 49.05 35.05 49.05 35.07"/>
        <polygon class="cls-109" points="49.05 35.09 44.49 34.71 44.49 34.69 49.05 35.07 49.05 35.09"/>
        <polygon class="cls-118" points="49.05 35.11 44.49 34.73 44.49 34.71 49.05 35.09 49.05 35.11"/>
        <polygon class="cls-107" points="49.05 35.13 44.49 34.75 44.49 34.73 49.05 35.11 49.05 35.13"/>
        <polygon class="cls-147" points="49.05 35.15 44.49 34.78 44.49 34.75 49.05 35.13 49.05 35.15"/>
        <polygon class="cls-70" points="49.05 35.17 44.49 34.8 44.49 34.78 49.05 35.15 49.05 35.17"/>
        <polygon class="cls-95" points="49.05 35.19 44.49 34.82 44.49 34.8 49.05 35.17 49.05 35.19"/>
        <polygon class="cls-75" points="49.05 35.21 44.49 34.84 44.49 34.82 49.05 35.19 49.05 35.21"/>
        <polygon class="cls-124" points="49.05 35.24 44.49 34.86 44.49 34.84 49.05 35.21 49.05 35.24"/>
        <polygon class="cls-128" points="49.05 35.26 44.49 34.88 44.49 34.86 49.05 35.24 49.05 35.26"/>
        <polygon class="cls-98" points="49.05 35.28 44.49 34.9 44.49 34.88 49.05 35.26 49.05 35.28"/>
        <polygon class="cls-174" points="49.05 35.3 44.49 34.92 44.49 34.9 49.05 35.28 49.05 35.3"/>
        <polygon class="cls-22" points="49.05 35.32 44.49 34.94 44.49 34.92 49.05 35.3 49.05 35.32"/>
        <polygon class="cls-63" points="49.05 35.34 44.49 34.96 44.49 34.94 49.05 35.32 49.05 35.34"/>
        <polygon class="cls-31" points="49.05 35.36 44.49 34.99 44.49 34.96 49.05 35.34 49.05 35.36"/>
        <polygon class="cls-64" points="49.05 35.38 44.49 35.01 44.49 34.99 49.05 35.36 49.05 35.38"/>
        <polygon class="cls-149" points="49.05 35.4 44.49 35.03 44.49 35.01 49.05 35.38 49.05 35.4"/>
        <polygon class="cls-27" points="49.05 35.42 44.49 35.05 44.49 35.03 49.05 35.4 49.05 35.42"/>
        <polygon class="cls-52" points="49.05 35.45 44.49 35.07 44.49 35.05 49.05 35.42 49.05 35.45"/>
        <polygon class="cls-136" points="49.05 35.47 44.49 35.09 44.49 35.07 49.05 35.45 49.05 35.47"/>
        <polygon class="cls-160" points="49.05 35.49 44.49 35.11 44.49 35.09 49.05 35.47 49.05 35.49"/>
        <polygon class="cls-115" points="49.05 35.51 44.49 35.13 44.49 35.11 49.05 35.49 49.05 35.51"/>
        <polygon class="cls-96" points="49.05 35.53 44.49 35.15 44.49 35.13 49.05 35.51 49.05 35.53"/>
        <polygon class="cls-78" points="49.05 35.55 44.49 35.17 44.49 35.15 49.05 35.53 49.05 35.55"/>
        <polygon class="cls-169" points="49.05 35.57 44.49 35.2 44.49 35.17 49.05 35.55 49.05 35.57"/>
        <polygon class="cls-127" points="49.05 35.59 44.49 35.22 44.49 35.2 49.05 35.57 49.05 35.59"/>
        <polygon class="cls-157" points="49.05 35.61 44.49 35.24 44.49 35.22 49.05 35.59 49.05 35.61"/>
        <polygon class="cls-39" points="49.05 35.63 44.49 35.26 44.49 35.24 49.05 35.61 49.05 35.63"/>
        <polygon class="cls-175" points="49.05 35.66 44.49 35.28 44.49 35.26 49.05 35.63 49.05 35.66"/>
        <polygon class="cls-21" points="49.05 35.68 44.49 35.3 44.49 35.28 49.05 35.66 49.05 35.68"/>
        <polygon class="cls-138" points="49.05 35.7 44.49 35.32 44.49 35.3 49.05 35.68 49.05 35.7"/>
        <polygon class="cls-66" points="49.05 35.72 44.49 35.34 44.49 35.32 49.05 35.7 49.05 35.72"/>
        <polygon class="cls-90" points="49.05 35.74 44.49 35.36 44.49 35.34 49.05 35.72 49.05 35.74"/>
        <polygon class="cls-150" points="49.05 35.76 44.49 35.38 44.49 35.36 49.05 35.74 49.05 35.76"/>
        <polygon class="cls-42" points="49.05 35.78 44.49 35.41 44.49 35.38 49.05 35.76 49.05 35.78"/>
        <polygon class="cls-45" points="49.05 35.8 44.49 35.43 44.49 35.41 49.05 35.78 49.05 35.8"/>
        <polygon class="cls-130" points="49.05 35.82 44.49 35.45 44.49 35.43 49.05 35.8 49.05 35.82"/>
        <polygon class="cls-59" points="49.05 35.84 44.49 35.47 44.49 35.45 49.05 35.82 49.05 35.84"/>
        <polygon class="cls-10" points="49.05 35.87 44.49 35.49 44.49 35.47 49.05 35.84 49.05 35.87"/>
        <polygon class="cls-129" points="49.05 35.89 44.49 35.51 44.49 35.49 49.05 35.87 49.05 35.89"/>
        <polygon class="cls-48" points="49.05 35.91 44.49 35.53 44.49 35.51 49.05 35.89 49.05 35.91"/>
        <polygon class="cls-112" points="49.05 35.93 44.49 35.55 44.49 35.53 49.05 35.91 49.05 35.93"/>
        <polygon class="cls-137" points="49.05 35.95 44.49 35.57 44.49 35.55 49.05 35.93 49.05 35.95"/>
        <polygon class="cls-99" points="49.05 35.97 44.49 35.59 44.49 35.57 49.05 35.95 49.05 35.97"/>
        <polygon class="cls-84" points="49.05 35.99 44.49 35.62 44.49 35.59 49.05 35.97 49.05 35.99"/>
        <polygon class="cls-86" points="49.05 36.01 44.49 35.64 44.49 35.62 49.05 35.99 49.05 36.01"/>
        <polygon class="cls-89" points="49.05 36.03 44.49 35.66 44.49 35.64 49.05 36.01 49.05 36.03"/>
        <polygon class="cls-143" points="49.05 36.05 44.49 35.68 44.49 35.66 49.05 36.03 49.05 36.05"/>
        <polygon class="cls-56" points="49.05 36.08 44.49 35.7 44.49 35.68 49.05 36.05 49.05 36.08"/>
        <polygon class="cls-69" points="49.05 36.1 44.49 35.72 44.49 35.7 49.05 36.08 49.05 36.1"/>
        <polygon class="cls-15" points="49.05 36.12 44.49 35.74 44.49 35.72 49.05 36.1 49.05 36.12"/>
        <polygon class="cls-80" points="49.05 36.14 44.49 35.76 44.49 35.74 49.05 36.12 49.05 36.14"/>
        <polygon class="cls-80" points="49.05 36.16 44.49 35.78 44.49 35.76 49.05 36.14 49.05 36.16"/>
        <polygon class="cls-91" points="49.05 36.18 44.49 35.8 44.49 35.78 49.05 36.16 49.05 36.18"/>
        <polygon class="cls-26" points="49.05 36.2 44.49 35.83 44.49 35.8 49.05 36.18 49.05 36.2"/>
        <polygon class="cls-26" points="49.05 36.22 44.49 35.85 44.49 35.83 49.05 36.2 49.05 36.22"/>
        <polygon class="cls-164" points="49.05 36.24 44.49 35.87 44.49 35.85 49.05 36.22 49.05 36.24"/>
        <polygon class="cls-71" points="49.05 36.26 44.49 35.89 44.49 35.87 49.05 36.24 49.05 36.26"/>
        <polygon class="cls-159" points="49.05 36.29 44.49 35.91 44.49 35.89 49.05 36.26 49.05 36.29"/>
        <polygon class="cls-77" points="49.05 36.31 44.49 35.93 44.49 35.91 49.05 36.29 49.05 36.31"/>
        <polygon class="cls-33" points="49.05 36.33 44.49 35.95 44.49 35.93 49.05 36.31 49.05 36.33"/>
        <polygon class="cls-131" points="49.05 36.35 44.49 35.97 44.49 35.95 49.05 36.33 49.05 36.35"/>
        <polygon class="cls-173" points="49.05 36.37 44.49 35.99 44.49 35.97 49.05 36.35 49.05 36.37"/>
        <polygon class="cls-72" points="49.05 36.39 44.49 36.01 44.49 35.99 49.05 36.37 49.05 36.39"/>
        <polygon class="cls-36" points="49.05 36.41 44.49 36.04 44.49 36.01 49.05 36.39 49.05 36.41"/>
        <polygon class="cls-20" points="49.05 36.43 44.49 36.06 44.49 36.04 49.05 36.41 49.05 36.43"/>
        <polygon class="cls-32" points="49.05 36.45 44.49 36.08 44.49 36.06 49.05 36.43 49.05 36.45"/>
        <polygon class="cls-121" points="49.05 36.47 44.49 36.1 44.49 36.08 49.05 36.45 49.05 36.47"/>
        <polygon class="cls-85" points="49.05 36.5 44.49 36.12 44.49 36.1 49.05 36.47 49.05 36.5"/>
        <polygon class="cls-166" points="49.05 36.52 44.49 36.14 44.49 36.12 49.05 36.5 49.05 36.52"/>
        <polygon class="cls-30" points="49.05 36.54 44.49 36.16 44.49 36.14 49.05 36.52 49.05 36.54"/>
        <polygon class="cls-114" points="49.05 36.56 44.49 36.18 44.49 36.16 49.05 36.54 49.05 36.56"/>
        <polygon class="cls-105" points="49.05 36.58 44.49 36.2 44.49 36.18 49.05 36.56 49.05 36.58"/>
        <polygon class="cls-8" points="49.05 36.6 44.49 36.22 44.49 36.2 49.05 36.58 49.05 36.6"/>
        <polygon class="cls-134" points="49.05 36.62 44.49 36.25 44.49 36.22 49.05 36.6 49.05 36.62"/>
        <polygon class="cls-134" points="49.05 36.64 44.49 36.27 44.49 36.25 49.05 36.62 49.05 36.64"/>
        <polygon class="cls-28" points="49.05 36.66 44.49 36.29 44.49 36.27 49.05 36.64 49.05 36.66"/>
        <polygon class="cls-18" points="49.05 36.68 44.49 36.31 44.49 36.29 49.05 36.66 49.05 36.68"/>
        <polygon class="cls-119" points="49.05 36.71 44.49 36.33 44.49 36.31 49.05 36.68 49.05 36.71"/>
        <polygon class="cls-88" points="49.05 36.73 44.49 36.35 44.49 36.33 49.05 36.71 49.05 36.73"/>
        <polygon class="cls-122" points="49.05 36.75 44.49 36.37 44.49 36.35 49.05 36.73 49.05 36.75"/>
        <polygon class="cls-122" points="49.05 36.77 44.49 36.39 44.49 36.37 49.05 36.75 49.05 36.77"/>
        <polygon class="cls-55" points="49.05 36.79 44.49 36.41 44.49 36.39 49.05 36.77 49.05 36.79"/>
        <polygon class="cls-55" points="49.05 36.81 44.49 36.43 44.49 36.41 49.05 36.79 49.05 36.81"/>
        <polygon class="cls-53" points="49.05 36.83 44.49 36.46 44.49 36.43 49.05 36.81 49.05 36.83"/>
        <polygon class="cls-165" points="49.05 36.85 44.49 36.48 44.49 36.46 49.05 36.83 49.05 36.85"/>
        <polygon class="cls-165" points="49.05 36.87 44.49 36.5 44.49 36.48 49.05 36.85 49.05 36.87"/>
        <polygon class="cls-9" points="49.05 36.89 44.49 36.52 44.49 36.5 49.05 36.87 49.05 36.89"/>
        <polygon class="cls-68" points="49.05 36.92 44.49 36.54 44.49 36.52 49.05 36.89 49.05 36.92"/>
        <polygon class="cls-148" points="49.05 36.94 44.49 36.56 44.49 36.54 49.05 36.92 49.05 36.94"/>
        <polygon class="cls-57" points="49.05 36.96 44.49 36.58 44.49 36.56 49.05 36.94 49.05 36.96"/>
        <polygon class="cls-170" points="49.05 36.98 44.49 36.6 44.49 36.58 49.05 36.96 49.05 36.98"/>
        <polygon class="cls-108" points="49.05 37 44.49 36.62 44.49 36.6 49.05 36.98 49.05 37"/>
        <polygon class="cls-108" points="49.05 37.02 44.49 36.64 44.49 36.62 49.05 37 49.05 37.02"/>
        <polygon class="cls-3" points="49.05 37.04 44.49 36.67 44.49 36.64 49.05 37.02 49.05 37.04"/>
        <polygon class="cls-49" points="49.05 37.06 44.49 36.69 44.49 36.67 49.05 37.04 49.05 37.06"/>
        <polygon class="cls-152" points="49.05 37.08 44.49 36.71 44.49 36.69 49.05 37.06 49.05 37.08"/>
        <polygon class="cls-152" points="49.05 37.1 44.49 36.73 44.49 36.71 49.05 37.08 49.05 37.1"/>
        <polygon class="cls-83" points="49.05 37.13 44.49 36.75 44.49 36.73 49.05 37.1 49.05 37.13"/>
        <polygon class="cls-44" points="49.05 37.15 44.49 36.77 44.49 36.75 49.05 37.13 49.05 37.15"/>
        <polygon class="cls-44" points="49.05 37.17 44.49 36.79 44.49 36.77 49.05 37.15 49.05 37.17"/>
        <polygon class="cls-93" points="49.05 37.19 44.49 36.81 44.49 36.79 49.05 37.17 49.05 37.19"/>
        <polygon class="cls-93" points="49.05 37.21 44.49 36.83 44.49 36.81 49.05 37.19 49.05 37.21"/>
        <polygon class="cls-102" points="49.05 37.23 44.49 36.85 44.49 36.83 49.05 37.21 49.05 37.23"/>
        <polygon class="cls-14" points="49.05 37.25 44.49 36.88 44.49 36.85 49.05 37.23 49.05 37.25"/>
        <polygon class="cls-100" points="49.05 37.27 44.49 36.9 44.49 36.88 49.05 37.25 49.05 37.27"/>
        <polygon class="cls-100" points="49.05 37.29 44.49 36.92 44.49 36.9 49.05 37.27 49.05 37.29"/>
        <polygon class="cls-40" points="49.05 37.31 44.49 36.94 44.49 36.92 49.05 37.29 49.05 37.31"/>
        <polygon class="cls-171" points="49.05 37.34 44.49 36.96 44.49 36.94 49.05 37.31 49.05 37.34"/>
        <polygon class="cls-171" points="49.05 37.36 44.49 36.98 44.49 36.96 49.05 37.34 49.05 37.36"/>
        <polygon class="cls-110" points="49.05 37.38 44.49 37 44.49 36.98 49.05 37.36 49.05 37.38"/>
        <polygon class="cls-54" points="49.05 37.4 44.49 37.02 44.49 37 49.05 37.38 49.05 37.4"/>
        <polygon class="cls-29" points="49.05 37.42 44.49 37.04 44.49 37.02 49.05 37.4 49.05 37.42"/>
        <polygon class="cls-23" points="49.05 37.44 44.49 37.06 44.49 37.04 49.05 37.42 49.05 37.44"/>
        <polygon class="cls-23" points="49.05 37.46 44.49 37.09 44.49 37.06 49.05 37.44 49.05 37.46"/>
        <polygon class="cls-162" points="49.05 37.48 44.49 37.11 44.49 37.09 49.05 37.46 49.05 37.48"/>
        <polygon class="cls-125" points="49.05 37.5 44.49 37.13 44.49 37.11 49.05 37.48 49.05 37.5"/>
        <polygon class="cls-125" points="49.05 37.52 44.49 37.15 44.49 37.13 49.05 37.5 49.05 37.52"/>
        <polygon class="cls-125" points="49.05 37.55 44.49 37.17 44.49 37.15 49.05 37.52 49.05 37.55"/>
        <polygon class="cls-87" points="49.05 37.57 44.49 37.19 44.49 37.17 49.05 37.55 49.05 37.57"/>
        <polygon class="cls-87" points="49.05 37.59 44.49 37.21 44.49 37.19 49.05 37.57 49.05 37.59"/>
        <polygon class="cls-76" points="49.05 37.61 44.49 37.23 44.49 37.21 49.05 37.59 49.05 37.61"/>
        <polygon class="cls-76" points="49.05 37.63 44.49 37.25 44.49 37.23 49.05 37.61 49.05 37.63"/>
        <polygon class="cls-135" points="49.05 37.65 44.49 37.27 44.49 37.25 49.05 37.63 49.05 37.65"/>
        <polygon class="cls-4" points="49.05 37.67 44.49 37.3 44.49 37.27 49.05 37.65 49.05 37.67"/>
        <polygon class="cls-4" points="49.05 37.69 44.49 37.32 44.49 37.3 49.05 37.67 49.05 37.69"/>
        <polygon class="cls-43" points="49.05 37.71 44.49 37.34 44.49 37.32 49.05 37.69 49.05 37.71"/>
        <polygon class="cls-58" points="49.05 37.73 44.49 37.36 44.49 37.34 49.05 37.71 49.05 37.73"/>
        <polygon class="cls-82" points="49.05 37.76 44.49 37.38 44.49 37.36 49.05 37.73 49.05 37.76"/>
        <polygon class="cls-82" points="49.05 37.78 44.49 37.4 44.49 37.38 49.05 37.76 49.05 37.78"/>
        <polygon class="cls-82" points="49.05 37.8 44.49 37.42 44.49 37.4 49.05 37.78 49.05 37.8"/>
        <polygon class="cls-172" points="49.05 37.82 44.49 37.44 44.49 37.42 49.05 37.8 49.05 37.82"/>
        <polygon class="cls-11" points="49.05 37.84 44.49 37.46 44.49 37.44 49.05 37.82 49.05 37.84"/>
        <polygon class="cls-11" points="49.05 37.86 44.49 37.48 44.49 37.46 49.05 37.84 49.05 37.86"/>
        <polygon class="cls-167" points="49.05 37.88 44.49 37.51 44.49 37.48 49.05 37.86 49.05 37.88"/>
        <polygon class="cls-133" points="49.05 37.9 44.49 37.53 44.49 37.51 49.05 37.88 49.05 37.9"/>
        <polygon class="cls-133" points="49.05 37.92 44.49 37.55 44.49 37.53 49.05 37.9 49.05 37.92"/>
        <polygon class="cls-133" points="49.05 37.95 44.49 37.57 44.49 37.55 49.05 37.92 49.05 37.95"/>
        <polygon class="cls-133" points="49.05 37.97 44.49 37.59 44.49 37.57 49.05 37.95 49.05 37.97"/>
        <polygon class="cls-38" points="49.05 37.99 44.49 37.61 44.49 37.59 49.05 37.97 49.05 37.99"/>
        <polygon class="cls-94" points="49.05 38.01 44.49 37.63 44.49 37.61 49.05 37.99 49.05 38.01"/>
        <polygon class="cls-19" points="48.99 38.02 44.49 37.65 44.49 37.63 49.05 38.01 49.05 38.02 48.99 38.02"/>
        <polygon class="cls-19" points="48.74 38.02 44.49 37.67 44.49 37.65 48.99 38.02 48.74 38.02"/>
        <polygon class="cls-19" points="48.48 38.02 44.49 37.69 44.49 37.67 48.74 38.02 48.48 38.02"/>
        <polygon class="cls-19" points="48.23 38.02 44.49 37.72 44.49 37.69 48.48 38.02 48.23 38.02"/>
        <polygon class="cls-19" points="47.97 38.02 44.49 37.74 44.49 37.72 48.23 38.02 47.97 38.02"/>
        <polygon class="cls-19" points="47.72 38.02 44.49 37.76 44.49 37.74 47.97 38.02 47.72 38.02"/>
        <polygon class="cls-65" points="47.47 38.02 44.49 37.78 44.49 37.76 47.72 38.02 47.47 38.02"/>
        <polygon class="cls-144" points="47.21 38.02 44.49 37.8 44.49 37.78 47.47 38.02 47.21 38.02"/>
        <polygon class="cls-144" points="46.96 38.02 44.49 37.82 44.49 37.8 47.21 38.02 46.96 38.02"/>
        <polygon class="cls-144" points="46.7 38.02 44.49 37.84 44.49 37.82 46.96 38.02 46.7 38.02"/>
        <polygon class="cls-144" points="46.45 38.02 44.49 37.86 44.49 37.84 46.7 38.02 46.45 38.02"/>
        <polygon class="cls-144" points="46.19 38.02 44.49 37.88 44.49 37.86 46.45 38.02 46.19 38.02"/>
        <polygon class="cls-144" points="45.94 38.02 44.49 37.9 44.49 37.88 46.19 38.02 45.94 38.02"/>
        <polygon class="cls-144" points="45.69 38.02 44.49 37.93 44.49 37.9 45.94 38.02 45.69 38.02"/>
        <polygon class="cls-34" points="45.43 38.02 44.49 37.95 44.49 37.93 45.69 38.02 45.43 38.02"/>
        <polygon class="cls-34" points="45.18 38.02 44.49 37.97 44.49 37.95 45.43 38.02 45.18 38.02"/>
        <polygon class="cls-50" points="44.92 38.02 44.49 37.99 44.49 37.97 45.18 38.02 44.92 38.02"/>
        <polygon class="cls-50" points="44.67 38.02 44.49 38.01 44.49 37.99 44.92 38.02 44.67 38.02"/>
        <polygon class="cls-50" points="44.49 38.01 44.67 38.02 44.49 38.02 44.49 38.01"/>
      </g>
      <path class="cls-41" d="M46.67,37.25c-.64-.05-1.14-.7-1.08-1.4.06-.71.65-1.26,1.29-1.21.64.05,1.14.7,1.08,1.4-.06.71-.65,1.26-1.29,1.21Z"/>
      <path class="cls-126" d="M46.72,37c-.45-.04-.91-.52-.86-1.12.05-.6.59-1.01,1.03-.97.45.04.91.53.86,1.13-.05.6-.59,1.01-1.03.97Z"/>
      <path class="cls-92" d="M46.36,35.51c-.02.22-.24.38-.5.35-.26-.02-.45-.22-.43-.43.02-.22.24-.38.5-.36.26.02.45.21.44.43Z"/>
      <path class="cls-92" d="M47.8,36.77c0,.11-.12.19-.25.18-.13,0-.23-.11-.22-.22,0-.11.12-.19.25-.18.13,0,.23.11.22.22Z"/>
      <path class="cls-5" d="M20.47,37.77c.97-1.58,2.49-.91,2.87-.57.4.37.72.87.48,1.8-.13.52-.68.57-.54,1.37.16.89.57.95.8,1.15.24.2.53.35.68.73.14.37.17.77.1,1.12-.15.65-1.09.14-1.72-.14-.42-.18-1.74-1.29-2.08-1.65-.84-.94-1.25-2.74-.6-3.8"/>
      <path class="cls-24" d="M40.91,44.84c.34-.23.74-.12.74-.12,0,0,0,0-.01.02-.08.14-.54.87-.91.86,0,0-.08-.07-.1-.24-.03-.17.11-.4.28-.52Z"/>
      <path class="cls-168" d="M60.89,77.89s-.02-1.22-.06-2.61c-.02-.7-.05-1.44-.09-2.09-.04-.73-.09-1.34-.14-1.66-.02-.09-.03-.15-.05-.19-.11-.48-.14-.9-.18-1.29-.07-.76-.13-1.39-.65-2.09-.38-.51-1-1.05-2.05-1.71-.03-.01-.74-.24-1.8-.59t-.03-.01c-.69-.22-1.52-.5-2.4-.8-.34-.11-.67-.24-1.02-.35-.02,0-.03-.01-.05-.02-13.34,8.23-22.35,2.1-25.24-.46-.65.23-1.31.47-1.97.69-.09.03-.17.06-.26.09-.94.32-1.84.62-2.56.86h-.01c-1.05.35-1.76.57-1.79.59-1.05.66-1.67,1.2-2.05,1.71-.52.7-.59,1.33-.66,2.09-.04.38-.07.78-.17,1.25h0v.04s-.03.07-.04.15h0s0,.03,0,.04c-.06.31-.1.93-.14,1.66-.04.65-.06,1.39-.09,2.09-.04,1.39-.06,2.61-.06,2.61,0,.32,0,.65,0,.99h43.58c0-.34,0-.67-.01-.99Z"/>
      <path class="cls-123" d="M49.92,63.6c-.49-.19-.96-.37-1.37-.54-.04-.02-.09-.04-.14-.05-.38-.16-.71-.32-.97-.45-.3.19-.6.35-.9.51-1.54.84-3.03,1.38-4.43,1.66-2.33.57-5.28,0-5.28,0-1.83-.35-3.37-1.02-4.52-1.66-.45-.25-.85-.49-1.17-.71-.23.15-.57.32-.99.52-.14.06-.29.13-.45.19-.26.11-.53.22-.82.33-.54.21-1.13.43-1.73.65,2.88,2.56,11.9,8.69,25.24.46-.85-.3-1.68-.6-2.46-.9Z"/>
      <path class="cls-153" d="M53.27,17.23c-1.65-2.35-5.51-6-10.72-6.62-5.21-.62-11.7.64-11.7.64,0,0-1.03,1.83-1.72,1.48-.69-.35-1.73,1.11-1.73,1.11,0,0,.01.33.28.67.5.65-.45-.16-.45-.16,0,0,.47.8-.22.79-1.26-.04-2.68,1.54-2.68,1.54,0,0,1.18-.82,2.31-.79.37.01-1.11.52-1.11.52,0,0,.64.16-2.86,3.92-2.64,2.84-2.64,6.59-2.64,6.59l2.21-1.25s-.57.66-.85,1.34c-1.63,3.99.6,7.99.6,7.99,0,0,.73.07,1.39,1.61.9,2.08,1.46,4.65,1.46,4.65h.78s-1.68-6.42-.55-9.91c.27-.84.95-2.46,1.91-2.89-.16,5.57,1.83,10.94,1.83,10.94.11-19.55,11.72-17.12,11.99-17.06.72.83,1.22,1.86,1.5,2.58.6,1.52.29,2.29.29,2.29,0,0,1.17-1.87,1.04-3.74-.04-.6-.17-1.06-.32-1.42.36.18,1.17.3,1.49,4.3.15,1.9-1.06,2.79-1.06,2.79,0,0,4.1-.87,3.3-5.74,0,0,9.08,4.67,4.8,17.88h.78s.56-2.57,1.46-4.65c0,0,9.66-5.98-.83-19.4ZM42.94,21.33s-.04-.05-.06-.08l.06.06v.02Z"/>
    </g>
  </g>
</svg>