<?xml version="1.0" encoding="UTF-8"?>
<svg id="Layer_2" data-name="Layer 2" xmlns="http://www.w3.org/2000/svg" xmlns:xlink="http://www.w3.org/1999/xlink" viewBox="0 0 78.88 78.88">
  <defs>
    <style>
      .cls-1 {
        fill: none;
      }

      .cls-2 {
        fill: #354148;
      }

      .cls-3 {
        fill: #7d99ae;
      }

      .cls-4 {
        fill: #413f39;
      }

      .cls-5 {
        fill: #84a2b8;
      }

      .cls-6 {
        fill: #debaad;
      }

      .cls-7 {
        fill: #4e606b;
      }

      .cls-8 {
        fill: #bf6c6c;
      }

      .cls-9 {
        fill: #7791a4;
      }

      .cls-10 {
        fill: #7b97ab;
      }

      .cls-11 {
        fill: #677e8d;
      }

      .cls-12 {
        fill: #86a3ba;
      }

      .cls-13 {
        fill: #364349;
      }

      .cls-14 {
        fill: #313d43;
      }

      .cls-15 {
        fill: #809cb2;
      }

      .cls-16 {
        fill: #6d8596;
      }

      .cls-17 {
        fill: #44545c;
      }

      .cls-18 {
        fill: #46565f;
      }

      .cls-19 {
        fill: #7893a6;
      }

      .cls-20 {
        fill: #87a5bc;
      }

      .cls-21 {
        fill: #748d9f;
      }

      .cls-22 {
        fill: #627886;
      }

      .cls-23 {
        fill: #24241d;
        opacity: .4;
      }

      .cls-24 {
        fill: #576b77;
      }

      .cls-25 {
        fill: #829fb5;
      }

      .cls-26 {
        fill: #b89388;
      }

      .cls-27 {
        fill: #485862;
      }

      .cls-28 {
        fill: #6f8899;
      }

      .cls-29 {
        fill: #5b6f7c;
      }

      .cls-30 {
        fill: #7892a6;
      }

      .cls-31 {
        fill: #252318;
      }

      .cls-32 {
        fill: #829fb4;
      }

      .cls-33 {
        fill: #7690a2;
      }

      .cls-34 {
        fill: #596c79;
      }

      .cls-35 {
        fill: #748ea0;
      }

      .cls-36 {
        fill: #728b9c;
      }

      .cls-37 {
        fill: #88a6be;
      }

      .cls-38 {
        fill: #a88a6b;
      }

      .cls-39 {
        fill: #738d9f;
      }

      .cls-40 {
        fill: #495963;
      }

      .cls-41 {
        fill: #87a4bb;
      }

      .cls-42 {
        fill: #617785;
      }

      .cls-43 {
        fill: #819db3;
      }

      .cls-44 {
        fill: #95bacb;
      }

      .cls-45 {
        fill: #657b8a;
      }

      .cls-46 {
        fill: #85a2b8;
      }

      .cls-47 {
        fill: #7f9bb0;
      }

      .cls-48, .cls-49 {
        fill: #f3f3f2;
      }

      .cls-50 {
        fill: #667c8b;
      }

      .cls-51 {
        fill: #38454c;
      }

      .cls-52 {
        fill: #3e4d54;
      }

      .cls-53 {
        fill: #687f8f;
      }

      .cls-54 {
        fill: #7e9aae;
      }

      .cls-55 {
        fill: #88a7be;
      }

      .cls-56 {
        fill: #5b707d;
      }

      .cls-57 {
        fill: #7a96a9;
      }

      .cls-58 {
        fill: #829eb4;
      }

      .cls-59 {
        fill: #7a95a9;
      }

      .cls-49 {
        opacity: .55;
      }

      .cls-60 {
        fill: #6c8495;
      }

      .cls-61 {
        fill: #7c98ac;
      }

      .cls-62 {
        fill: #85a2b9;
      }

      .cls-63 {
        fill: #677d8d;
      }

      .cls-64 {
        fill: #39464e;
      }

      .cls-65 {
        fill: #3d4b53;
      }

      .cls-66 {
        fill: #344046;
      }

      .cls-67 {
        fill: #586c78;
      }

      .cls-68 {
        fill: #596d7a;
      }

      .cls-69 {
        fill: #87a6bd;
      }

      .cls-70 {
        fill: #637988;
      }

      .cls-71 {
        fill: #37444b;
      }

      .cls-72 {
        fill: #7c97ab;
      }

      .cls-73 {
        fill: #6d8595;
      }

      .cls-74 {
        fill: #526570;
      }

      .cls-75 {
        fill: #70899b;
      }

      .cls-76 {
        fill: #738c9e;
      }

      .cls-77 {
        fill: #4e5f6a;
      }

      .cls-78 {
        clip-path: url(#clippath-1);
      }

      .cls-79 {
        fill: #546672;
      }

      .cls-80 {
        fill: #84a1b7;
      }

      .cls-81 {
        fill: #718a9c;
      }

      .cls-82 {
        fill: #5f7481;
      }

      .cls-83 {
        fill: #f1d4c8;
      }

      .cls-84 {
        fill: #6e8697;
      }

      .cls-85 {
        fill: #303c42;
      }

      .cls-86 {
        fill: #85a3b9;
      }

      .cls-87 {
        fill: #7e9baf;
      }

      .cls-88 {
        fill: #6a8292;
      }

      .cls-89 {
        fill: #ae5d66;
      }

      .cls-90 {
        fill: #758fa1;
      }

      .cls-91 {
        fill: #6b8292;
      }

      .cls-92 {
        fill: #83a1b7;
      }

      .cls-93 {
        fill: #7994a7;
      }

      .cls-94 {
        fill: #6b8393;
      }

      .cls-95 {
        fill: #647a89;
      }

      .cls-96 {
        fill: #6e8798;
      }

      .cls-97 {
        fill: #fff;
      }

      .cls-98 {
        fill: #7f9cb1;
      }

      .cls-99 {
        fill: #87a5bb;
      }

      .cls-100 {
        fill: #536671;
      }

      .cls-101 {
        fill: #5e7380;
      }

      .cls-102 {
        fill: #4d5e69;
      }

      .cls-103 {
        fill: #566975;
      }

      .cls-104 {
        fill: #6a8191;
      }

      .cls-105 {
        fill: #809db2;
      }

      .cls-106 {
        fill: #4c5d68;
      }

      .cls-107 {
        fill: #809cb1;
      }

      .cls-108 {
        fill: #4b5c67;
      }

      .cls-109 {
        fill: #475760;
      }

      .cls-110 {
        fill: #7691a3;
      }

      .cls-111 {
        fill: #3a484f;
      }

      .cls-112 {
        fill: #51636e;
      }

      .cls-113 {
        fill: #7d99ad;
      }

      .cls-114 {
        fill: #4f616c;
      }

      .cls-115 {
        fill: #819eb4;
      }

      .cls-116 {
        fill: #4a5b65;
      }

      .cls-117 {
        fill: #698090;
      }

      .cls-118 {
        opacity: .3;
      }

      .cls-119 {
        fill: #7690a3;
      }

      .cls-120 {
        fill: #5d727f;
      }

      .cls-121 {
        fill: #415059;
      }

      .cls-122 {
        fill: #2d383d;
      }

      .cls-123 {
        fill: #50626d;
      }

      .cls-124 {
        fill: #7893a7;
      }

      .cls-125 {
        fill: #43525b;
      }

      .cls-126 {
        fill: #748ea1;
      }

      .cls-127 {
        fill: #7994a8;
      }

      .cls-128 {
        fill: #546773;
      }

      .cls-129 {
        fill: #83a0b6;
      }

      .cls-130 {
        fill: #26200c;
      }

      .cls-131 {
        fill: #607583;
      }

      .cls-132 {
        fill: #556874;
      }

      .cls-133 {
        fill: #687f8e;
      }

      .cls-134 {
        fill: #667d8c;
      }

      .cls-135 {
        fill: #728b9d;
      }

      .cls-136 {
        fill: #323f45;
      }

      .cls-137 {
        fill: #86a4bb;
      }

      .cls-138 {
        fill: #7792a5;
      }

      .cls-139 {
        fill: #84a1b8;
      }

      .cls-140 {
        fill: #5c707e;
      }

      .cls-141 {
        fill: #698190;
      }

      .cls-142 {
        fill: #637987;
      }

      .cls-143 {
        fill: #3c4a52;
      }

      .cls-144 {
        fill: #42515a;
      }

      .cls-145 {
        fill: #c6a095;
      }

      .cls-146 {
        fill: #3b4950;
      }

      .cls-147 {
        fill: #6c8494;
      }

      .cls-148 {
        fill: #88a6bd;
      }

      .cls-149 {
        fill: #404f57;
      }

      .cls-150 {
        fill: #47433b;
      }

      .cls-151 {
        fill: #51646f;
      }

      .cls-152 {
        fill: #7c97ac;
      }

      .cls-153 {
        fill: #5a6e7b;
      }

      .cls-154 {
        fill: #647b8a;
      }

      .cls-155 {
        fill: #45555e;
      }

      .cls-156 {
        fill: #7e9aaf;
      }

      .cls-157 {
        fill: #c6186d;
      }

      .cls-158 {
        fill: #3f4e56;
      }

      .cls-159 {
        fill: #2f3b40;
      }

      .cls-160 {
        fill: #4a5a64;
      }

      .cls-161 {
        fill: #607684;
      }

      .cls-162 {
        fill: #718a9b;
      }

      .cls-163 {
        fill: #5d717f;
      }

      .cls-164 {
        clip-path: url(#clippath);
      }

      .cls-165 {
        fill: #82a0b5;
      }

      .cls-166 {
        fill: #2e393f;
      }

      .cls-167 {
        fill: #70899a;
      }

      .cls-168 {
        fill: #7b96aa;
      }

      .cls-169 {
        fill: #758fa2;
      }

      .cls-170 {
        fill: #86a4ba;
      }

      .cls-171 {
        fill: #5f7482;
      }

      .cls-172 {
        fill: #7c98ad;
      }

      .cls-173 {
        fill: #819eb3;
      }

      .cls-174 {
        fill: #85a3ba;
      }

      .cls-175 {
        fill: #728c9e;
      }

      .cls-176 {
        fill: #576a76;
      }

      .cls-177 {
        fill: #627786;
      }

      .cls-178 {
        fill: #5e5d59;
      }

      .cls-179 {
        fill: #ab5b64;
      }
    </style>
    <clipPath id="clippath">
      <path class="cls-1" d="M33.56,35.06c-.1,1.21-1.18,2.11-2.41,2.01-1.23-.1-2.15-1.17-2.05-2.38.1-1.21,1.18-2.12,2.41-2.01,1.23.1,2.15,1.17,2.05,2.38Z"/>
    </clipPath>
    <clipPath id="clippath-1">
      <path class="cls-1" d="M49.32,34.93c-.1,1.21-1.18,2.11-2.41,2.01-1.23-.1-2.15-1.17-2.05-2.38.1-1.22,1.18-2.12,2.41-2.01,1.23.1,2.15,1.17,2.05,2.38Z"/>
    </clipPath>
  </defs>
  <g id="Layer_1-2" data-name="Layer 1">
    <g>
      <rect class="cls-179" width="78.88" height="78.88"/>
      <path class="cls-83" d="M61.55,77.87s-.1-6.16-.35-6.7c-.47-2.15.37-3.13-2.95-5.2-.03-.01-.75-.24-1.84-.6t-.03-.01c-.7-.23-1.56-.51-2.45-.82-.35-.11-.69-.24-1.05-.36-1.5-.52-3-1.09-4.12-1.55-.79-.34-1.38-.64-1.6-.86-.01-.01-.04-.05-.08-.09-.02-.04-.05-.06-.08-.1-.06-.36-1.02-1.93-1.36-3.64h0c-.08-.36-.11-.69-.13-1.04-.03-.5-.03-1-.04-1.44-.01-.46-.02-.88-.04-1.23v-.29c-.01-.24-.01-.45-.01-.6-.01-.15-.01-.24-.01-.24,0,0,.36-.31.88-.77.65-.59,1.58-1.43,2.39-2.24.87-.87,1.62-1.7,1.79-2.13.01-.06.02-.11.02-.15,0,0-.02,0-.06.01-.41.06-2.61.45-4.97.82-1.41.22-2.88.44-4.08.59-.47.07-.91.1-1.28.14h-.01c-.35.04-.64.05-.86.05-.24,0-.58-.03-.97-.05h-.03c-.38-.05-.84-.1-1.34-.17-1.1-.14-2.42-.33-3.69-.52-1.18-.19-2.33-.37-3.23-.52-.22-.04-.41-.06-.59-.1-.87-.14-1.42-.24-1.42-.24,0,.17.15.42.41.75,0,0,0,.01.01.01.19.26.45.55.75.88.29.31.61.63.95.95,1.01.98,2.11,1.96,2.65,2.42.2.18.32.28.32.28,0,0,0,.09-.01.24,0,.15,0,.36-.01.6v.29c0,.1,0,.2-.01.31-.01.67-.04,1.5-.06,2.37-.01.34-.05.68-.13,1.02-.33,1.71-1.29,3.3-1.36,3.66-.03.04-.05.06-.08.1-.04.04-.06.08-.08.09-.18.18-.64.42-1.27.72-1.26.56-3.25,1.28-5.09,1.9-.09.03-.18.06-.27.09-.96.33-1.88.64-2.62.88h-.01c-1.07.36-1.8.59-1.83.6-3.3,2.06-2.49,3.04-2.95,5.16h0v.04s-.03.08-.04.15h0c-.22,1.13-.31,6.55-.31,6.55,0,.33,0,.67,0,1.01h44.62c0-.34,0-.68-.01-1.01Z"/>
      <path class="cls-145" d="M45.67,57.92c-.08-.34-.11-.68-.13-1.02-.04-1.15-.06-2.25-.08-2.97-1.92.86-3.89,1.36-5.82,1.36-.11.02-.26.02-.39.02s-.28,0-.39-.02c-1.93,0-3.9-.5-5.82-1.36-.01.72-.04,1.82-.08,2.97-.01.34-.05.68-.13,1.02,1.85,1.55,4.36,3.14,6.02,3.14.1.02.23.02.35.02h0s.03,0,.04,0,.03,0,.04,0h0c.12,0,.25,0,.35-.03,1.66,0,4.17-1.6,6.02-3.14Z"/>
      <g>
        <path class="cls-83" d="M55.71,34.98c.32-1.77.57-3.13.65-3.39.04-.13.06-.26.1-.38.03-.15.06-.29.09-.43.06-.22.1-.44.15-.65.01-.1.04-.2.05-.31.04-.24.09-.49.13-.73.01-.1.03-.22.04-.32.04-.22.05-.43.08-.65.01-.17.02-.33.05-.49.01-.14.01-.28.02-.42.17-3.34-.55-6.74-2.74-9.82-2.65-3.71-5.69-7.63-12.3-8.18h-5.57c-6.61.55-9.65,4.47-12.3,8.18-2.19,3.08-2.9,6.48-2.74,9.82.01.14.01.28.02.42.03.15.04.32.05.49.02.22.04.43.08.65.01.1.03.22.04.32.04.24.09.49.13.73.01.1.04.2.05.31.05.22.09.44.15.65.03.14.06.28.09.43.04.13.06.26.1.38.08.26.32,1.61.64,3.36-1.76-.86-4.21.37-3.92,3.62.3,3.3,4.31,5.25,5.68,5.58.14.6.25,1.04.33,1.25,1.2,3.03,2.66,3.94,5.22,6.41,2.79,2.67,6.9,5.18,8.94,5.16.06.01.14.01.22.01s.15,0,.22-.01c2.03.01,6.15-2.49,8.93-5.16,2.56-2.47,4.01-3.38,5.22-6.41.08-.21.2-.65.33-1.24,1.33-.3,5.42-2.26,5.72-5.6.29-3.28-2.2-4.5-3.97-3.59Z"/>
        <path class="cls-6" d="M58.39,36.79c-.99-1.61-2.55-.94-2.94-.58-.41.38-.74.89-.49,1.84.13.54.7.58.55,1.4-.16.91-.58.97-.82,1.17-.24.2-.54.36-.7.75-.15.38-.17.79-.1,1.14.15.66,1.12.15,1.76-.14.43-.19,1.78-1.32,2.13-1.69.86-.96,1.28-2.81.61-3.89"/>
      </g>
      <path class="cls-6" d="M36.43,50.66c-.06-.84,2.37.18,3.17.2.64.02,2.55-.13,2.73-.19,1.34-.5-.07,1.41-2.77,1.51-1.23.05-3.09-1.01-3.13-1.52Z"/>
      <g>
        <path class="cls-179" d="M44.44,49.57c-1.54-.29-4.79-.91-4.79-.91-2.68.44-4.78.91-4.79.92-.06,0,2.14,1.98,4.76,1.84h0c2.62.13,4.89-1.84,4.83-1.85Z"/>
        <path class="cls-8" d="M41.19,48.11c-.7-.08-1.17.33-1.53.29-.36.03-.84-.37-1.53-.29-.99.21-1.46.84-3.26,1.46.06.12,1.22-.15,3.38-.11.03,0,.61.33,1.43.32.52,0,1.22-.34,1.25-.34,2.16-.03,3.48.26,3.54.14-2.38-.73-2.29-1.26-3.27-1.47Z"/>
      </g>
      <path class="cls-38" d="M40.93,44.05c.35-.23.76-.12.76-.12,0,0,0,0-.01.02-.08.14-.55.89-.93.88,0,0-.08-.07-.11-.25-.03-.18.12-.41.29-.53Z"/>
      <path class="cls-6" d="M36.2,43.82c-.07-1.69,2.62-.62,3.51-.56.7.04,2.83-.53,3.02-.39,1.25,1-1.33,3.03-3.06,3.03-.46,0-3.42-1.05-3.46-2.08Z"/>
      <path class="cls-26" d="M38.23,44.03c-.35-.23-.76-.12-.76-.12,0,0,0,0,.01.02.08.14.55.89.93.88,0,0,.08-.07.11-.25.03-.18-.12-.41-.29-.53Z"/>
      <path class="cls-178" d="M35.73,33.26s-.41-.41-1.16-.91c-.36-.26-.83-.49-1.33-.73-.5-.23-1.07-.41-1.65-.51-.58-.13-1.18-.16-1.75-.16-.29.02-.56.04-.82.06-.26.01-.51.08-.74.12-.46.07-.84.18-1.11.25-.27.06-.43.1-.43.1,0,0,.14-.08.37-.23.25-.13.58-.38,1.04-.54.45-.2,1-.37,1.61-.49.62-.08,1.29-.13,1.97-.05.67.09,1.33.28,1.91.52.59.25,1.09.57,1.49.88.8.61,1.19,1.2,1.19,1.2h0c.12.19.07.43-.11.55-.16.1-.36.08-.49-.05Z"/>
      <path class="cls-97" d="M26.33,34.06s1.5,3.72,3.82,4.09c2.32.36,4.8-.17,4.8-.17,0,0,.06-4.33-1.14-4.92-1.2-.6-3.96-1.5-7.47,1.01Z"/>
      <g class="cls-164">
        <polygon class="cls-122" points="33.66 33.39 28.99 33.01 28.99 32.57 33.66 32.57 33.66 33.39"/>
        <polygon class="cls-122" points="33.66 33.41 28.99 33.03 28.99 33.01 33.66 33.39 33.66 33.41"/>
        <polygon class="cls-166" points="33.66 33.44 28.99 33.05 28.99 33.03 33.66 33.41 33.66 33.44"/>
        <polygon class="cls-159" points="33.66 33.46 28.99 33.07 28.99 33.05 33.66 33.44 33.66 33.46"/>
        <polygon class="cls-85" points="33.66 33.48 28.99 33.09 28.99 33.07 33.66 33.46 33.66 33.48"/>
        <polygon class="cls-14" points="33.66 33.5 28.99 33.11 28.99 33.09 33.66 33.48 33.66 33.5"/>
        <polygon class="cls-136" points="33.66 33.52 28.99 33.14 28.99 33.11 33.66 33.5 33.66 33.52"/>
        <polygon class="cls-66" points="33.66 33.54 28.99 33.16 28.99 33.14 33.66 33.52 33.66 33.54"/>
        <polygon class="cls-2" points="33.66 33.56 28.99 33.18 28.99 33.16 33.66 33.54 33.66 33.56"/>
        <polygon class="cls-13" points="33.66 33.59 28.99 33.2 28.99 33.18 33.66 33.56 33.66 33.59"/>
        <polygon class="cls-71" points="33.66 33.61 28.99 33.22 28.99 33.2 33.66 33.59 33.66 33.61"/>
        <polygon class="cls-51" points="33.66 33.63 28.99 33.24 28.99 33.22 33.66 33.61 33.66 33.63"/>
        <polygon class="cls-64" points="33.66 33.65 28.99 33.26 28.99 33.24 33.66 33.63 33.66 33.65"/>
        <polygon class="cls-111" points="33.66 33.67 28.99 33.29 28.99 33.26 33.66 33.65 33.66 33.67"/>
        <polygon class="cls-146" points="33.66 33.69 28.99 33.31 28.99 33.29 33.66 33.67 33.66 33.69"/>
        <polygon class="cls-143" points="33.66 33.71 28.99 33.33 28.99 33.31 33.66 33.69 33.66 33.71"/>
        <polygon class="cls-65" points="33.66 33.74 28.99 33.35 28.99 33.33 33.66 33.71 33.66 33.74"/>
        <polygon class="cls-52" points="33.66 33.76 28.99 33.37 28.99 33.35 33.66 33.74 33.66 33.76"/>
        <polygon class="cls-158" points="33.66 33.78 28.99 33.39 28.99 33.37 33.66 33.76 33.66 33.78"/>
        <polygon class="cls-149" points="33.66 33.8 28.99 33.42 28.99 33.39 33.66 33.78 33.66 33.8"/>
        <polygon class="cls-121" points="33.66 33.82 28.99 33.44 28.99 33.42 33.66 33.8 33.66 33.82"/>
        <polygon class="cls-144" points="33.66 33.84 28.99 33.46 28.99 33.44 33.66 33.82 33.66 33.84"/>
        <polygon class="cls-125" points="33.66 33.87 28.99 33.48 28.99 33.46 33.66 33.84 33.66 33.87"/>
        <polygon class="cls-17" points="33.66 33.89 28.99 33.5 28.99 33.48 33.66 33.87 33.66 33.89"/>
        <polygon class="cls-155" points="33.66 33.91 28.99 33.52 28.99 33.5 33.66 33.89 33.66 33.91"/>
        <polygon class="cls-18" points="33.66 33.93 28.99 33.54 28.99 33.52 33.66 33.91 33.66 33.93"/>
        <polygon class="cls-109" points="33.66 33.95 28.99 33.57 28.99 33.54 33.66 33.93 33.66 33.95"/>
        <polygon class="cls-27" points="33.66 33.97 28.99 33.59 28.99 33.57 33.66 33.95 33.66 33.97"/>
        <polygon class="cls-40" points="33.66 33.99 28.99 33.61 28.99 33.59 33.66 33.97 33.66 33.99"/>
        <polygon class="cls-160" points="33.66 34.02 28.99 33.63 28.99 33.61 33.66 33.99 33.66 34.02"/>
        <polygon class="cls-116" points="33.66 34.04 28.99 33.65 28.99 33.63 33.66 34.02 33.66 34.04"/>
        <polygon class="cls-108" points="33.66 34.06 28.99 33.67 28.99 33.65 33.66 34.04 33.66 34.06"/>
        <polygon class="cls-106" points="33.66 34.08 28.99 33.69 28.99 33.67 33.66 34.06 33.66 34.08"/>
        <polygon class="cls-102" points="33.66 34.1 28.99 33.72 28.99 33.69 33.66 34.08 33.66 34.1"/>
        <polygon class="cls-77" points="33.66 34.12 28.99 33.74 28.99 33.72 33.66 34.1 33.66 34.12"/>
        <polygon class="cls-7" points="33.66 34.14 28.99 33.76 28.99 33.74 33.66 34.12 33.66 34.14"/>
        <polygon class="cls-114" points="33.66 34.17 28.99 33.78 28.99 33.76 33.66 34.14 33.66 34.17"/>
        <polygon class="cls-123" points="33.66 34.19 28.99 33.8 28.99 33.78 33.66 34.17 33.66 34.19"/>
        <polygon class="cls-112" points="33.66 34.21 28.99 33.82 28.99 33.8 33.66 34.19 33.66 34.21"/>
        <polygon class="cls-151" points="33.66 34.23 28.99 33.85 28.99 33.82 33.66 34.21 33.66 34.23"/>
        <polygon class="cls-74" points="33.66 34.25 28.99 33.87 28.99 33.85 33.66 34.23 33.66 34.25"/>
        <polygon class="cls-100" points="33.66 34.27 28.99 33.89 28.99 33.87 33.66 34.25 33.66 34.27"/>
        <polygon class="cls-79" points="33.66 34.3 28.99 33.91 28.99 33.89 33.66 34.27 33.66 34.3"/>
        <polygon class="cls-128" points="33.66 34.32 28.99 33.93 28.99 33.91 33.66 34.3 33.66 34.32"/>
        <polygon class="cls-132" points="33.66 34.34 28.99 33.95 28.99 33.93 33.66 34.32 33.66 34.34"/>
        <polygon class="cls-103" points="33.66 34.36 28.99 33.97 28.99 33.95 33.66 34.34 33.66 34.36"/>
        <polygon class="cls-176" points="33.66 34.38 28.99 34 28.99 33.97 33.66 34.36 33.66 34.38"/>
        <polygon class="cls-24" points="33.66 34.4 28.99 34.02 28.99 34 33.66 34.38 33.66 34.4"/>
        <polygon class="cls-67" points="33.66 34.42 28.99 34.04 28.99 34.02 33.66 34.4 33.66 34.42"/>
        <polygon class="cls-34" points="33.66 34.45 28.99 34.06 28.99 34.04 33.66 34.42 33.66 34.45"/>
        <polygon class="cls-68" points="33.66 34.47 28.99 34.08 28.99 34.06 33.66 34.45 33.66 34.47"/>
        <polygon class="cls-153" points="33.66 34.49 28.99 34.1 28.99 34.08 33.66 34.47 33.66 34.49"/>
        <polygon class="cls-29" points="33.66 34.51 28.99 34.12 28.99 34.1 33.66 34.49 33.66 34.51"/>
        <polygon class="cls-56" points="33.66 34.53 28.99 34.15 28.99 34.12 33.66 34.51 33.66 34.53"/>
        <polygon class="cls-140" points="33.66 34.55 28.99 34.17 28.99 34.15 33.66 34.53 33.66 34.55"/>
        <polygon class="cls-163" points="33.66 34.57 28.99 34.19 28.99 34.17 33.66 34.55 33.66 34.57"/>
        <polygon class="cls-120" points="33.66 34.6 28.99 34.21 28.99 34.19 33.66 34.57 33.66 34.6"/>
        <polygon class="cls-101" points="33.66 34.62 28.99 34.23 28.99 34.21 33.66 34.6 33.66 34.62"/>
        <polygon class="cls-82" points="33.66 34.64 28.99 34.25 28.99 34.23 33.66 34.62 33.66 34.64"/>
        <polygon class="cls-171" points="33.66 34.66 28.99 34.28 28.99 34.25 33.66 34.64 33.66 34.66"/>
        <polygon class="cls-131" points="33.66 34.68 28.99 34.3 28.99 34.28 33.66 34.66 33.66 34.68"/>
        <polygon class="cls-161" points="33.66 34.7 28.99 34.32 28.99 34.3 33.66 34.68 33.66 34.7"/>
        <polygon class="cls-42" points="33.66 34.73 28.99 34.34 28.99 34.32 33.66 34.7 33.66 34.73"/>
        <polygon class="cls-177" points="33.66 34.75 28.99 34.36 28.99 34.34 33.66 34.73 33.66 34.75"/>
        <polygon class="cls-22" points="33.66 34.77 28.99 34.38 28.99 34.36 33.66 34.75 33.66 34.77"/>
        <polygon class="cls-142" points="33.66 34.79 28.99 34.4 28.99 34.38 33.66 34.77 33.66 34.79"/>
        <polygon class="cls-70" points="33.66 34.81 28.99 34.43 28.99 34.4 33.66 34.79 33.66 34.81"/>
        <polygon class="cls-95" points="33.66 34.83 28.99 34.45 28.99 34.43 33.66 34.81 33.66 34.83"/>
        <polygon class="cls-154" points="33.66 34.85 28.99 34.47 28.99 34.45 33.66 34.83 33.66 34.85"/>
        <polygon class="cls-45" points="33.66 34.88 28.99 34.49 28.99 34.47 33.66 34.85 33.66 34.88"/>
        <polygon class="cls-50" points="33.66 34.9 28.99 34.51 28.99 34.49 33.66 34.88 33.66 34.9"/>
        <polygon class="cls-134" points="33.66 34.92 28.99 34.53 28.99 34.51 33.66 34.9 33.66 34.92"/>
        <polygon class="cls-63" points="33.66 34.94 28.99 34.56 28.99 34.53 33.66 34.92 33.66 34.94"/>
        <polygon class="cls-11" points="33.66 34.96 28.99 34.58 28.99 34.56 33.66 34.94 33.66 34.96"/>
        <polygon class="cls-133" points="33.66 34.98 28.99 34.6 28.99 34.58 33.66 34.96 33.66 34.98"/>
        <polygon class="cls-53" points="33.66 35 28.99 34.62 28.99 34.6 33.66 34.98 33.66 35"/>
        <polygon class="cls-117" points="33.66 35.03 28.99 34.64 28.99 34.62 33.66 35 33.66 35.03"/>
        <polygon class="cls-141" points="33.66 35.05 28.99 34.66 28.99 34.64 33.66 35.03 33.66 35.05"/>
        <polygon class="cls-104" points="33.66 35.07 28.99 34.68 28.99 34.66 33.66 35.05 33.66 35.07"/>
        <polygon class="cls-88" points="33.66 35.09 28.99 34.71 28.99 34.68 33.66 35.07 33.66 35.09"/>
        <polygon class="cls-91" points="33.66 35.11 28.99 34.73 28.99 34.71 33.66 35.09 33.66 35.11"/>
        <polygon class="cls-94" points="33.66 35.13 28.99 34.75 28.99 34.73 33.66 35.11 33.66 35.13"/>
        <polygon class="cls-147" points="33.66 35.16 28.99 34.77 28.99 34.75 33.66 35.13 33.66 35.16"/>
        <polygon class="cls-60" points="33.66 35.18 28.99 34.79 28.99 34.77 33.66 35.16 33.66 35.18"/>
        <polygon class="cls-73" points="33.66 35.2 28.99 34.81 28.99 34.79 33.66 35.18 33.66 35.2"/>
        <polygon class="cls-16" points="33.66 35.22 28.99 34.83 28.99 34.81 33.66 35.2 33.66 35.22"/>
        <polygon class="cls-84" points="33.66 35.24 28.99 34.86 28.99 34.83 33.66 35.22 33.66 35.24"/>
        <polygon class="cls-84" points="33.66 35.26 28.99 34.88 28.99 34.86 33.66 35.24 33.66 35.26"/>
        <polygon class="cls-96" points="33.66 35.28 28.99 34.9 28.99 34.88 33.66 35.26 33.66 35.28"/>
        <polygon class="cls-28" points="33.66 35.31 28.99 34.92 28.99 34.9 33.66 35.28 33.66 35.31"/>
        <polygon class="cls-28" points="33.66 35.33 28.99 34.94 28.99 34.92 33.66 35.31 33.66 35.33"/>
        <polygon class="cls-167" points="33.66 35.35 28.99 34.96 28.99 34.94 33.66 35.33 33.66 35.35"/>
        <polygon class="cls-75" points="33.66 35.37 28.99 34.99 28.99 34.96 33.66 35.35 33.66 35.37"/>
        <polygon class="cls-162" points="33.66 35.39 28.99 35.01 28.99 34.99 33.66 35.37 33.66 35.39"/>
        <polygon class="cls-81" points="33.66 35.41 28.99 35.03 28.99 35.01 33.66 35.39 33.66 35.41"/>
        <polygon class="cls-36" points="33.66 35.44 28.99 35.05 28.99 35.03 33.66 35.41 33.66 35.44"/>
        <polygon class="cls-135" points="33.66 35.46 28.99 35.07 28.99 35.05 33.66 35.44 33.66 35.46"/>
        <polygon class="cls-175" points="33.66 35.48 28.99 35.09 28.99 35.07 33.66 35.46 33.66 35.48"/>
        <polygon class="cls-76" points="33.66 35.5 28.99 35.11 28.99 35.09 33.66 35.48 33.66 35.5"/>
        <polygon class="cls-39" points="33.66 35.52 28.99 35.14 28.99 35.11 33.66 35.5 33.66 35.52"/>
        <polygon class="cls-21" points="33.66 35.54 28.99 35.16 28.99 35.14 33.66 35.52 33.66 35.54"/>
        <polygon class="cls-35" points="33.66 35.56 28.99 35.18 28.99 35.16 33.66 35.54 33.66 35.56"/>
        <polygon class="cls-126" points="33.66 35.59 28.99 35.2 28.99 35.18 33.66 35.56 33.66 35.59"/>
        <polygon class="cls-90" points="33.66 35.61 28.99 35.22 28.99 35.2 33.66 35.59 33.66 35.61"/>
        <polygon class="cls-169" points="33.66 35.63 28.99 35.24 28.99 35.22 33.66 35.61 33.66 35.63"/>
        <polygon class="cls-33" points="33.66 35.65 28.99 35.26 28.99 35.24 33.66 35.63 33.66 35.65"/>
        <polygon class="cls-119" points="33.66 35.67 28.99 35.29 28.99 35.26 33.66 35.65 33.66 35.67"/>
        <polygon class="cls-110" points="33.66 35.69 28.99 35.31 28.99 35.29 33.66 35.67 33.66 35.69"/>
        <polygon class="cls-9" points="33.66 35.71 28.99 35.33 28.99 35.31 33.66 35.69 33.66 35.71"/>
        <polygon class="cls-138" points="33.66 35.74 28.99 35.35 28.99 35.33 33.66 35.71 33.66 35.74"/>
        <polygon class="cls-138" points="33.66 35.76 28.99 35.37 28.99 35.35 33.66 35.74 33.66 35.76"/>
        <polygon class="cls-30" points="33.66 35.78 28.99 35.39 28.99 35.37 33.66 35.76 33.66 35.78"/>
        <polygon class="cls-19" points="33.66 35.8 28.99 35.42 28.99 35.39 33.66 35.78 33.66 35.8"/>
        <polygon class="cls-124" points="33.66 35.82 28.99 35.44 28.99 35.42 33.66 35.8 33.66 35.82"/>
        <polygon class="cls-93" points="33.66 35.84 28.99 35.46 28.99 35.44 33.66 35.82 33.66 35.84"/>
        <polygon class="cls-127" points="33.66 35.86 28.99 35.48 28.99 35.46 33.66 35.84 33.66 35.86"/>
        <polygon class="cls-127" points="33.66 35.89 28.99 35.5 28.99 35.48 33.66 35.86 33.66 35.89"/>
        <polygon class="cls-59" points="33.66 35.91 28.99 35.52 28.99 35.5 33.66 35.89 33.66 35.91"/>
        <polygon class="cls-59" points="33.66 35.93 28.99 35.54 28.99 35.52 33.66 35.91 33.66 35.93"/>
        <polygon class="cls-57" points="33.66 35.95 28.99 35.57 28.99 35.54 33.66 35.93 33.66 35.95"/>
        <polygon class="cls-168" points="33.66 35.97 28.99 35.59 28.99 35.57 33.66 35.95 33.66 35.97"/>
        <polygon class="cls-168" points="33.66 35.99 28.99 35.61 28.99 35.59 33.66 35.97 33.66 35.99"/>
        <polygon class="cls-10" points="33.66 36.02 28.99 35.63 28.99 35.61 33.66 35.99 33.66 36.02"/>
        <polygon class="cls-72" points="33.66 36.04 28.99 35.65 28.99 35.63 33.66 36.02 33.66 36.04"/>
        <polygon class="cls-152" points="33.66 36.06 28.99 35.67 28.99 35.65 33.66 36.04 33.66 36.06"/>
        <polygon class="cls-61" points="33.66 36.08 28.99 35.7 28.99 35.67 33.66 36.06 33.66 36.08"/>
        <polygon class="cls-172" points="33.66 36.1 28.99 35.72 28.99 35.7 33.66 36.08 33.66 36.1"/>
        <polygon class="cls-113" points="33.66 36.12 28.99 35.74 28.99 35.72 33.66 36.1 33.66 36.12"/>
        <polygon class="cls-113" points="33.66 36.14 28.99 35.76 28.99 35.74 33.66 36.12 33.66 36.14"/>
        <polygon class="cls-3" points="33.66 36.17 28.99 35.78 28.99 35.76 33.66 36.14 33.66 36.17"/>
        <polygon class="cls-54" points="33.66 36.19 28.99 35.8 28.99 35.78 33.66 36.17 33.66 36.19"/>
        <polygon class="cls-156" points="33.66 36.21 28.99 35.82 28.99 35.8 33.66 36.19 33.66 36.21"/>
        <polygon class="cls-156" points="33.66 36.23 28.99 35.85 28.99 35.82 33.66 36.21 33.66 36.23"/>
        <polygon class="cls-87" points="33.66 36.25 28.99 35.87 28.99 35.85 33.66 36.23 33.66 36.25"/>
        <polygon class="cls-47" points="33.66 36.27 28.99 35.89 28.99 35.87 33.66 36.25 33.66 36.27"/>
        <polygon class="cls-47" points="33.66 36.3 28.99 35.91 28.99 35.89 33.66 36.27 33.66 36.3"/>
        <polygon class="cls-98" points="33.66 36.32 28.99 35.93 28.99 35.91 33.66 36.3 33.66 36.32"/>
        <polygon class="cls-98" points="33.66 36.34 28.99 35.95 28.99 35.93 33.66 36.32 33.66 36.34"/>
        <polygon class="cls-107" points="33.66 36.36 28.99 35.97 28.99 35.95 33.66 36.34 33.66 36.36"/>
        <polygon class="cls-15" points="33.66 36.38 28.99 36 28.99 35.97 33.66 36.36 33.66 36.38"/>
        <polygon class="cls-105" points="33.66 36.4 28.99 36.02 28.99 36 33.66 36.38 33.66 36.4"/>
        <polygon class="cls-105" points="33.66 36.42 28.99 36.04 28.99 36.02 33.66 36.4 33.66 36.42"/>
        <polygon class="cls-43" points="33.66 36.45 28.99 36.06 28.99 36.04 33.66 36.42 33.66 36.45"/>
        <polygon class="cls-173" points="33.66 36.47 28.99 36.08 28.99 36.06 33.66 36.45 33.66 36.47"/>
        <polygon class="cls-173" points="33.66 36.49 28.99 36.1 28.99 36.08 33.66 36.47 33.66 36.49"/>
        <polygon class="cls-115" points="33.66 36.51 28.99 36.13 28.99 36.1 33.66 36.49 33.66 36.51"/>
        <polygon class="cls-58" points="33.66 36.53 28.99 36.15 28.99 36.13 33.66 36.51 33.66 36.53"/>
        <polygon class="cls-32" points="33.66 36.55 28.99 36.17 28.99 36.15 33.66 36.53 33.66 36.55"/>
        <polygon class="cls-25" points="33.66 36.57 28.99 36.19 28.99 36.17 33.66 36.55 33.66 36.57"/>
        <polygon class="cls-25" points="33.66 36.6 28.99 36.21 28.99 36.19 33.66 36.57 33.66 36.6"/>
        <polygon class="cls-165" points="33.66 36.62 28.99 36.23 28.99 36.21 33.66 36.6 33.66 36.62"/>
        <polygon class="cls-129" points="33.66 36.64 28.99 36.25 28.99 36.23 33.66 36.62 33.66 36.64"/>
        <polygon class="cls-129" points="33.66 36.66 28.99 36.28 28.99 36.25 33.66 36.64 33.66 36.66"/>
        <polygon class="cls-129" points="33.66 36.68 28.99 36.3 28.99 36.28 33.66 36.66 33.66 36.68"/>
        <polygon class="cls-92" points="33.66 36.7 28.99 36.32 28.99 36.3 33.66 36.68 33.66 36.7"/>
        <polygon class="cls-92" points="33.66 36.73 28.99 36.34 28.99 36.32 33.66 36.7 33.66 36.73"/>
        <polygon class="cls-80" points="33.66 36.75 28.99 36.36 28.99 36.34 33.66 36.73 33.66 36.75"/>
        <polygon class="cls-80" points="33.66 36.77 28.99 36.38 28.99 36.36 33.66 36.75 33.66 36.77"/>
        <polygon class="cls-139" points="33.66 36.79 28.99 36.4 28.99 36.38 33.66 36.77 33.66 36.79"/>
        <polygon class="cls-5" points="33.66 36.81 28.99 36.43 28.99 36.4 33.66 36.79 33.66 36.81"/>
        <polygon class="cls-5" points="33.66 36.83 28.99 36.45 28.99 36.43 33.66 36.81 33.66 36.83"/>
        <polygon class="cls-46" points="33.66 36.85 28.99 36.47 28.99 36.45 33.66 36.83 33.66 36.85"/>
        <polygon class="cls-62" points="33.66 36.88 28.99 36.49 28.99 36.47 33.66 36.85 33.66 36.88"/>
        <polygon class="cls-86" points="33.66 36.9 28.99 36.51 28.99 36.49 33.66 36.88 33.66 36.9"/>
        <polygon class="cls-86" points="33.66 36.92 28.99 36.53 28.99 36.51 33.66 36.9 33.66 36.92"/>
        <polygon class="cls-86" points="33.66 36.94 28.99 36.56 28.99 36.53 33.66 36.92 33.66 36.94"/>
        <polygon class="cls-174" points="33.66 36.96 28.99 36.58 28.99 36.56 33.66 36.94 33.66 36.96"/>
        <polygon class="cls-12" points="33.66 36.98 28.99 36.6 28.99 36.58 33.66 36.96 33.66 36.98"/>
        <polygon class="cls-12" points="33.66 37 28.99 36.62 28.99 36.6 33.66 36.98 33.66 37"/>
        <polygon class="cls-170" points="33.66 37.03 28.99 36.64 28.99 36.62 33.66 37 33.66 37.03"/>
        <polygon class="cls-137" points="33.66 37.05 28.99 36.66 28.99 36.64 33.66 37.03 33.66 37.05"/>
        <polygon class="cls-137" points="33.66 37.07 28.99 36.68 28.99 36.66 33.66 37.05 33.66 37.07"/>
        <polygon class="cls-137" points="33.66 37.09 28.99 36.71 28.99 36.68 33.66 37.07 33.66 37.09"/>
        <polygon class="cls-137" points="33.66 37.11 28.99 36.73 28.99 36.71 33.66 37.09 33.66 37.11"/>
        <polygon class="cls-41" points="33.66 37.13 28.99 36.75 28.99 36.73 33.66 37.11 33.66 37.13"/>
        <polygon class="cls-99" points="33.66 37.16 28.99 36.77 28.99 36.75 33.66 37.13 33.66 37.16"/>
        <polygon class="cls-20" points="33.6 37.17 28.99 36.79 28.99 36.77 33.66 37.16 33.66 37.17 33.6 37.17"/>
        <polygon class="cls-20" points="33.34 37.17 28.99 36.81 28.99 36.79 33.6 37.17 33.34 37.17"/>
        <polygon class="cls-20" points="33.08 37.17 28.99 36.83 28.99 36.81 33.34 37.17 33.08 37.17"/>
        <polygon class="cls-20" points="32.82 37.17 28.99 36.86 28.99 36.83 33.08 37.17 32.82 37.17"/>
        <polygon class="cls-20" points="32.56 37.17 28.99 36.88 28.99 36.86 32.82 37.17 32.56 37.17"/>
        <polygon class="cls-20" points="32.3 37.17 28.99 36.9 28.99 36.88 32.56 37.17 32.3 37.17"/>
        <polygon class="cls-69" points="32.04 37.17 28.99 36.92 28.99 36.9 32.3 37.17 32.04 37.17"/>
        <polygon class="cls-148" points="31.78 37.17 28.99 36.94 28.99 36.92 32.04 37.17 31.78 37.17"/>
        <polygon class="cls-148" points="31.52 37.17 28.99 36.96 28.99 36.94 31.78 37.17 31.52 37.17"/>
        <polygon class="cls-148" points="31.25 37.17 28.99 36.99 28.99 36.96 31.52 37.17 31.25 37.17"/>
        <polygon class="cls-148" points="30.99 37.17 28.99 37.01 28.99 36.99 31.25 37.17 30.99 37.17"/>
        <polygon class="cls-148" points="30.73 37.17 28.99 37.03 28.99 37.01 30.99 37.17 30.73 37.17"/>
        <polygon class="cls-148" points="30.47 37.17 28.99 37.05 28.99 37.03 30.73 37.17 30.47 37.17"/>
        <polygon class="cls-148" points="30.21 37.17 28.99 37.07 28.99 37.05 30.47 37.17 30.21 37.17"/>
        <polygon class="cls-37" points="29.95 37.17 28.99 37.09 28.99 37.07 30.21 37.17 29.95 37.17"/>
        <polygon class="cls-37" points="29.69 37.17 28.99 37.11 28.99 37.09 29.95 37.17 29.69 37.17"/>
        <polygon class="cls-55" points="29.43 37.17 28.99 37.14 28.99 37.11 29.69 37.17 29.43 37.17"/>
        <polygon class="cls-55" points="29.17 37.17 28.99 37.16 28.99 37.14 29.43 37.17 29.17 37.17"/>
        <polygon class="cls-55" points="28.99 37.16 29.17 37.17 28.99 37.17 28.99 37.16"/>
      </g>
      <path class="cls-44" d="M31.22,36.38c-.66-.05-1.16-.71-1.1-1.44.06-.72.67-1.29,1.32-1.24.66.05,1.16.71,1.1,1.44-.06.72-.67,1.29-1.32,1.24Z"/>
      <path class="cls-130" d="M31.27,36.12c-.46-.04-.93-.54-.88-1.15.05-.62.6-1.03,1.06-1,.46.04.93.54.88,1.15-.05.62-.6,1.03-1.06.99Z"/>
      <g class="cls-118">
        <path class="cls-150" d="M34.95,37.96s-.05,0-.17.04c-.08-1.33-.34-3.16-1.09-3.53-1.12-.57-3.63-1.39-6.86.59-.32-.58-.49-1.02-.49-1.02,3.52-2.51,6.28-1.61,7.47-1.01,1.21.6,1.14,4.93,1.14,4.93Z"/>
      </g>
      <path class="cls-97" d="M30.9,34.6c-.02.22-.25.38-.51.36-.26-.02-.46-.22-.44-.44.02-.22.25-.39.51-.36.26.02.46.22.45.44Z"/>
      <path class="cls-97" d="M32.38,35.89c0,.11-.12.19-.26.18-.13-.01-.23-.11-.22-.22,0-.11.12-.19.26-.18.13.01.23.11.22.22Z"/>
      <path class="cls-178" d="M42.07,32.76s.39-.6,1.19-1.2c.4-.31.9-.63,1.49-.88.59-.24,1.24-.43,1.91-.52.67-.07,1.35-.03,1.97.05.61.12,1.17.29,1.61.49.46.16.8.41,1.04.54.24.15.37.23.37.23,0,0-.16-.04-.43-.1-.27-.07-.65-.18-1.11-.25-.23-.03-.47-.1-.74-.12-.26-.02-.54-.04-.82-.06-.57,0-1.17.03-1.75.16-.58.1-1.15.28-1.65.51-.5.24-.97.47-1.33.73-.75.5-1.16.91-1.16.91-.15.15-.4.15-.55,0-.13-.13-.15-.34-.05-.49h0Z"/>
      <path class="cls-97" d="M52.07,34.06s-1.5,3.72-3.82,4.09c-2.32.36-4.8-.17-4.8-.17,0,0-.06-4.33,1.14-4.92,1.21-.6,3.96-1.5,7.47,1.01Z"/>
      <g class="cls-118">
        <path class="cls-150" d="M43.45,37.96s.05,0,.17.04c.08-1.33.34-3.16,1.09-3.53,1.12-.57,3.63-1.39,6.86.59.32-.58.49-1.02.49-1.02-3.52-2.51-6.28-1.61-7.47-1.01-1.21.6-1.15,4.93-1.15,4.93Z"/>
      </g>
      <g class="cls-78">
        <polygon class="cls-122" points="49.42 33.27 44.76 32.88 44.76 32.45 49.42 32.45 49.42 33.27"/>
        <polygon class="cls-122" points="49.42 33.29 44.76 32.9 44.76 32.88 49.42 33.27 49.42 33.29"/>
        <polygon class="cls-166" points="49.42 33.31 44.76 32.93 44.76 32.9 49.42 33.29 49.42 33.31"/>
        <polygon class="cls-159" points="49.42 33.33 44.76 32.95 44.76 32.93 49.42 33.31 49.42 33.33"/>
        <polygon class="cls-85" points="49.42 33.35 44.76 32.97 44.76 32.95 49.42 33.33 49.42 33.35"/>
        <polygon class="cls-14" points="49.42 33.38 44.76 32.99 44.76 32.97 49.42 33.35 49.42 33.38"/>
        <polygon class="cls-136" points="49.42 33.4 44.76 33.01 44.76 32.99 49.42 33.38 49.42 33.4"/>
        <polygon class="cls-66" points="49.42 33.42 44.76 33.03 44.76 33.01 49.42 33.4 49.42 33.42"/>
        <polygon class="cls-2" points="49.42 33.44 44.76 33.05 44.76 33.03 49.42 33.42 49.42 33.44"/>
        <polygon class="cls-13" points="49.42 33.46 44.76 33.08 44.76 33.05 49.42 33.44 49.42 33.46"/>
        <polygon class="cls-71" points="49.42 33.48 44.76 33.1 44.76 33.08 49.42 33.46 49.42 33.48"/>
        <polygon class="cls-51" points="49.42 33.5 44.76 33.12 44.76 33.1 49.42 33.48 49.42 33.5"/>
        <polygon class="cls-64" points="49.42 33.53 44.76 33.14 44.76 33.12 49.42 33.5 49.42 33.53"/>
        <polygon class="cls-111" points="49.42 33.55 44.76 33.16 44.76 33.14 49.42 33.53 49.42 33.55"/>
        <polygon class="cls-146" points="49.42 33.57 44.76 33.18 44.76 33.16 49.42 33.55 49.42 33.57"/>
        <polygon class="cls-143" points="49.42 33.59 44.76 33.21 44.76 33.18 49.42 33.57 49.42 33.59"/>
        <polygon class="cls-65" points="49.42 33.61 44.76 33.23 44.76 33.21 49.42 33.59 49.42 33.61"/>
        <polygon class="cls-52" points="49.42 33.63 44.76 33.25 44.76 33.23 49.42 33.61 49.42 33.63"/>
        <polygon class="cls-158" points="49.42 33.66 44.76 33.27 44.76 33.25 49.42 33.63 49.42 33.66"/>
        <polygon class="cls-149" points="49.42 33.68 44.76 33.29 44.76 33.27 49.42 33.66 49.42 33.68"/>
        <polygon class="cls-121" points="49.42 33.7 44.76 33.31 44.76 33.29 49.42 33.68 49.42 33.7"/>
        <polygon class="cls-144" points="49.42 33.72 44.76 33.33 44.76 33.31 49.42 33.7 49.42 33.72"/>
        <polygon class="cls-125" points="49.42 33.74 44.76 33.36 44.76 33.33 49.42 33.72 49.42 33.74"/>
        <polygon class="cls-17" points="49.42 33.76 44.76 33.38 44.76 33.36 49.42 33.74 49.42 33.76"/>
        <polygon class="cls-155" points="49.42 33.78 44.76 33.4 44.76 33.38 49.42 33.76 49.42 33.78"/>
        <polygon class="cls-18" points="49.42 33.81 44.76 33.42 44.76 33.4 49.42 33.78 49.42 33.81"/>
        <polygon class="cls-109" points="49.42 33.83 44.76 33.44 44.76 33.42 49.42 33.81 49.42 33.83"/>
        <polygon class="cls-27" points="49.42 33.85 44.76 33.46 44.76 33.44 49.42 33.83 49.42 33.85"/>
        <polygon class="cls-40" points="49.42 33.87 44.76 33.49 44.76 33.46 49.42 33.85 49.42 33.87"/>
        <polygon class="cls-160" points="49.42 33.89 44.76 33.51 44.76 33.49 49.42 33.87 49.42 33.89"/>
        <polygon class="cls-116" points="49.42 33.91 44.76 33.53 44.76 33.51 49.42 33.89 49.42 33.91"/>
        <polygon class="cls-108" points="49.42 33.93 44.76 33.55 44.76 33.53 49.42 33.91 49.42 33.93"/>
        <polygon class="cls-106" points="49.42 33.96 44.76 33.57 44.76 33.55 49.42 33.93 49.42 33.96"/>
        <polygon class="cls-102" points="49.42 33.98 44.76 33.59 44.76 33.57 49.42 33.96 49.42 33.98"/>
        <polygon class="cls-77" points="49.42 34 44.76 33.61 44.76 33.59 49.42 33.98 49.42 34"/>
        <polygon class="cls-7" points="49.42 34.02 44.76 33.64 44.76 33.61 49.42 34 49.42 34.02"/>
        <polygon class="cls-114" points="49.42 34.04 44.76 33.66 44.76 33.64 49.42 34.02 49.42 34.04"/>
        <polygon class="cls-123" points="49.42 34.06 44.76 33.68 44.76 33.66 49.42 34.04 49.42 34.06"/>
        <polygon class="cls-112" points="49.42 34.09 44.76 33.7 44.76 33.68 49.42 34.06 49.42 34.09"/>
        <polygon class="cls-151" points="49.42 34.11 44.76 33.72 44.76 33.7 49.42 34.09 49.42 34.11"/>
        <polygon class="cls-74" points="49.42 34.13 44.76 33.74 44.76 33.72 49.42 34.11 49.42 34.13"/>
        <polygon class="cls-100" points="49.42 34.15 44.76 33.76 44.76 33.74 49.42 34.13 49.42 34.15"/>
        <polygon class="cls-79" points="49.42 34.17 44.76 33.79 44.76 33.76 49.42 34.15 49.42 34.17"/>
        <polygon class="cls-128" points="49.42 34.19 44.76 33.81 44.76 33.79 49.42 34.17 49.42 34.19"/>
        <polygon class="cls-132" points="49.42 34.21 44.76 33.83 44.76 33.81 49.42 34.19 49.42 34.21"/>
        <polygon class="cls-103" points="49.42 34.24 44.76 33.85 44.76 33.83 49.42 34.21 49.42 34.24"/>
        <polygon class="cls-176" points="49.42 34.26 44.76 33.87 44.76 33.85 49.42 34.24 49.42 34.26"/>
        <polygon class="cls-24" points="49.42 34.28 44.76 33.89 44.76 33.87 49.42 34.26 49.42 34.28"/>
        <polygon class="cls-67" points="49.42 34.3 44.76 33.92 44.76 33.89 49.42 34.28 49.42 34.3"/>
        <polygon class="cls-34" points="49.42 34.32 44.76 33.94 44.76 33.92 49.42 34.3 49.42 34.32"/>
        <polygon class="cls-68" points="49.42 34.34 44.76 33.96 44.76 33.94 49.42 34.32 49.42 34.34"/>
        <polygon class="cls-153" points="49.42 34.36 44.76 33.98 44.76 33.96 49.42 34.34 49.42 34.36"/>
        <polygon class="cls-29" points="49.42 34.39 44.76 34 44.76 33.98 49.42 34.36 49.42 34.39"/>
        <polygon class="cls-56" points="49.42 34.41 44.76 34.02 44.76 34 49.42 34.39 49.42 34.41"/>
        <polygon class="cls-140" points="49.42 34.43 44.76 34.04 44.76 34.02 49.42 34.41 49.42 34.43"/>
        <polygon class="cls-163" points="49.42 34.45 44.76 34.07 44.76 34.04 49.42 34.43 49.42 34.45"/>
        <polygon class="cls-120" points="49.42 34.47 44.76 34.09 44.76 34.07 49.42 34.45 49.42 34.47"/>
        <polygon class="cls-101" points="49.42 34.49 44.76 34.11 44.76 34.09 49.42 34.47 49.42 34.49"/>
        <polygon class="cls-82" points="49.42 34.52 44.76 34.13 44.76 34.11 49.42 34.49 49.42 34.52"/>
        <polygon class="cls-171" points="49.42 34.54 44.76 34.15 44.76 34.13 49.42 34.52 49.42 34.54"/>
        <polygon class="cls-131" points="49.42 34.56 44.76 34.17 44.76 34.15 49.42 34.54 49.42 34.56"/>
        <polygon class="cls-161" points="49.42 34.58 44.76 34.19 44.76 34.17 49.42 34.56 49.42 34.58"/>
        <polygon class="cls-42" points="49.42 34.6 44.76 34.22 44.76 34.19 49.42 34.58 49.42 34.6"/>
        <polygon class="cls-177" points="49.42 34.62 44.76 34.24 44.76 34.22 49.42 34.6 49.42 34.62"/>
        <polygon class="cls-22" points="49.42 34.64 44.76 34.26 44.76 34.24 49.42 34.62 49.42 34.64"/>
        <polygon class="cls-142" points="49.42 34.67 44.76 34.28 44.76 34.26 49.42 34.64 49.42 34.67"/>
        <polygon class="cls-70" points="49.42 34.69 44.76 34.3 44.76 34.28 49.42 34.67 49.42 34.69"/>
        <polygon class="cls-95" points="49.42 34.71 44.76 34.32 44.76 34.3 49.42 34.69 49.42 34.71"/>
        <polygon class="cls-154" points="49.42 34.73 44.76 34.35 44.76 34.32 49.42 34.71 49.42 34.73"/>
        <polygon class="cls-45" points="49.42 34.75 44.76 34.37 44.76 34.35 49.42 34.73 49.42 34.75"/>
        <polygon class="cls-50" points="49.42 34.77 44.76 34.39 44.76 34.37 49.42 34.75 49.42 34.77"/>
        <polygon class="cls-134" points="49.42 34.8 44.76 34.41 44.76 34.39 49.42 34.77 49.42 34.8"/>
        <polygon class="cls-63" points="49.42 34.82 44.76 34.43 44.76 34.41 49.42 34.8 49.42 34.82"/>
        <polygon class="cls-11" points="49.42 34.84 44.76 34.45 44.76 34.43 49.42 34.82 49.42 34.84"/>
        <polygon class="cls-133" points="49.42 34.86 44.76 34.47 44.76 34.45 49.42 34.84 49.42 34.86"/>
        <polygon class="cls-53" points="49.42 34.88 44.76 34.5 44.76 34.47 49.42 34.86 49.42 34.88"/>
        <polygon class="cls-117" points="49.42 34.9 44.76 34.52 44.76 34.5 49.42 34.88 49.42 34.9"/>
        <polygon class="cls-141" points="49.42 34.92 44.76 34.54 44.76 34.52 49.42 34.9 49.42 34.92"/>
        <polygon class="cls-104" points="49.42 34.95 44.76 34.56 44.76 34.54 49.42 34.92 49.42 34.95"/>
        <polygon class="cls-88" points="49.42 34.97 44.76 34.58 44.76 34.56 49.42 34.95 49.42 34.97"/>
        <polygon class="cls-91" points="49.42 34.99 44.76 34.6 44.76 34.58 49.42 34.97 49.42 34.99"/>
        <polygon class="cls-94" points="49.42 35.01 44.76 34.62 44.76 34.6 49.42 34.99 49.42 35.01"/>
        <polygon class="cls-147" points="49.42 35.03 44.76 34.65 44.76 34.62 49.42 35.01 49.42 35.03"/>
        <polygon class="cls-60" points="49.42 35.05 44.76 34.67 44.76 34.65 49.42 35.03 49.42 35.05"/>
        <polygon class="cls-73" points="49.42 35.07 44.76 34.69 44.76 34.67 49.42 35.05 49.42 35.07"/>
        <polygon class="cls-16" points="49.42 35.1 44.76 34.71 44.76 34.69 49.42 35.07 49.42 35.1"/>
        <polygon class="cls-84" points="49.42 35.12 44.76 34.73 44.76 34.71 49.42 35.1 49.42 35.12"/>
        <polygon class="cls-84" points="49.42 35.14 44.76 34.75 44.76 34.73 49.42 35.12 49.42 35.14"/>
        <polygon class="cls-96" points="49.42 35.16 44.76 34.78 44.76 34.75 49.42 35.14 49.42 35.16"/>
        <polygon class="cls-28" points="49.42 35.18 44.76 34.8 44.76 34.78 49.42 35.16 49.42 35.18"/>
        <polygon class="cls-28" points="49.42 35.2 44.76 34.82 44.76 34.8 49.42 35.18 49.42 35.2"/>
        <polygon class="cls-167" points="49.42 35.23 44.76 34.84 44.76 34.82 49.42 35.2 49.42 35.23"/>
        <polygon class="cls-75" points="49.42 35.25 44.76 34.86 44.76 34.84 49.42 35.23 49.42 35.25"/>
        <polygon class="cls-162" points="49.42 35.27 44.76 34.88 44.76 34.86 49.42 35.25 49.42 35.27"/>
        <polygon class="cls-81" points="49.42 35.29 44.76 34.9 44.76 34.88 49.42 35.27 49.42 35.29"/>
        <polygon class="cls-36" points="49.42 35.31 44.76 34.93 44.76 34.9 49.42 35.29 49.42 35.31"/>
        <polygon class="cls-135" points="49.42 35.33 44.76 34.95 44.76 34.93 49.42 35.31 49.42 35.33"/>
        <polygon class="cls-175" points="49.42 35.35 44.76 34.97 44.76 34.95 49.42 35.33 49.42 35.35"/>
        <polygon class="cls-76" points="49.42 35.38 44.76 34.99 44.76 34.97 49.42 35.35 49.42 35.38"/>
        <polygon class="cls-39" points="49.42 35.4 44.76 35.01 44.76 34.99 49.42 35.38 49.42 35.4"/>
        <polygon class="cls-21" points="49.42 35.42 44.76 35.03 44.76 35.01 49.42 35.4 49.42 35.42"/>
        <polygon class="cls-35" points="49.42 35.44 44.76 35.05 44.76 35.03 49.42 35.42 49.42 35.44"/>
        <polygon class="cls-126" points="49.42 35.46 44.76 35.08 44.76 35.05 49.42 35.44 49.42 35.46"/>
        <polygon class="cls-90" points="49.42 35.48 44.76 35.1 44.76 35.08 49.42 35.46 49.42 35.48"/>
        <polygon class="cls-169" points="49.42 35.5 44.76 35.12 44.76 35.1 49.42 35.48 49.42 35.5"/>
        <polygon class="cls-33" points="49.42 35.53 44.76 35.14 44.76 35.12 49.42 35.5 49.42 35.53"/>
        <polygon class="cls-119" points="49.42 35.55 44.76 35.16 44.76 35.14 49.42 35.53 49.42 35.55"/>
        <polygon class="cls-110" points="49.42 35.57 44.76 35.18 44.76 35.16 49.42 35.55 49.42 35.57"/>
        <polygon class="cls-9" points="49.42 35.59 44.76 35.21 44.76 35.18 49.42 35.57 49.42 35.59"/>
        <polygon class="cls-138" points="49.42 35.61 44.76 35.23 44.76 35.21 49.42 35.59 49.42 35.61"/>
        <polygon class="cls-138" points="49.42 35.63 44.76 35.25 44.76 35.23 49.42 35.61 49.42 35.63"/>
        <polygon class="cls-30" points="49.42 35.66 44.76 35.27 44.76 35.25 49.42 35.63 49.42 35.66"/>
        <polygon class="cls-19" points="49.42 35.68 44.76 35.29 44.76 35.27 49.42 35.66 49.42 35.68"/>
        <polygon class="cls-124" points="49.42 35.7 44.76 35.31 44.76 35.29 49.42 35.68 49.42 35.7"/>
        <polygon class="cls-93" points="49.42 35.72 44.76 35.33 44.76 35.31 49.42 35.7 49.42 35.72"/>
        <polygon class="cls-127" points="49.42 35.74 44.76 35.36 44.76 35.33 49.42 35.72 49.42 35.74"/>
        <polygon class="cls-127" points="49.42 35.76 44.76 35.38 44.76 35.36 49.42 35.74 49.42 35.76"/>
        <polygon class="cls-59" points="49.42 35.78 44.76 35.4 44.76 35.38 49.42 35.76 49.42 35.78"/>
        <polygon class="cls-59" points="49.42 35.81 44.76 35.42 44.76 35.4 49.42 35.78 49.42 35.81"/>
        <polygon class="cls-57" points="49.42 35.83 44.76 35.44 44.76 35.42 49.42 35.81 49.42 35.83"/>
        <polygon class="cls-168" points="49.42 35.85 44.76 35.46 44.76 35.44 49.42 35.83 49.42 35.85"/>
        <polygon class="cls-168" points="49.42 35.87 44.76 35.49 44.76 35.46 49.42 35.85 49.42 35.87"/>
        <polygon class="cls-10" points="49.42 35.89 44.76 35.51 44.76 35.49 49.42 35.87 49.42 35.89"/>
        <polygon class="cls-72" points="49.42 35.91 44.76 35.53 44.76 35.51 49.42 35.89 49.42 35.91"/>
        <polygon class="cls-152" points="49.42 35.93 44.76 35.55 44.76 35.53 49.42 35.91 49.42 35.93"/>
        <polygon class="cls-61" points="49.42 35.96 44.76 35.57 44.76 35.55 49.42 35.93 49.42 35.96"/>
        <polygon class="cls-172" points="49.42 35.98 44.76 35.59 44.76 35.57 49.42 35.96 49.42 35.98"/>
        <polygon class="cls-113" points="49.42 36 44.76 35.61 44.76 35.59 49.42 35.98 49.42 36"/>
        <polygon class="cls-113" points="49.42 36.02 44.76 35.64 44.76 35.61 49.42 36 49.42 36.02"/>
        <polygon class="cls-3" points="49.42 36.04 44.76 35.66 44.76 35.64 49.42 36.02 49.42 36.04"/>
        <polygon class="cls-54" points="49.42 36.06 44.76 35.68 44.76 35.66 49.42 36.04 49.42 36.06"/>
        <polygon class="cls-156" points="49.42 36.09 44.76 35.7 44.76 35.68 49.42 36.06 49.42 36.09"/>
        <polygon class="cls-156" points="49.42 36.11 44.76 35.72 44.76 35.7 49.42 36.09 49.42 36.11"/>
        <polygon class="cls-87" points="49.42 36.13 44.76 35.74 44.76 35.72 49.42 36.11 49.42 36.13"/>
        <polygon class="cls-47" points="49.42 36.15 44.76 35.76 44.76 35.74 49.42 36.13 49.42 36.15"/>
        <polygon class="cls-47" points="49.42 36.17 44.76 35.79 44.76 35.76 49.42 36.15 49.42 36.17"/>
        <polygon class="cls-98" points="49.42 36.19 44.76 35.81 44.76 35.79 49.42 36.17 49.42 36.19"/>
        <polygon class="cls-98" points="49.42 36.21 44.76 35.83 44.76 35.81 49.42 36.19 49.42 36.21"/>
        <polygon class="cls-107" points="49.42 36.24 44.76 35.85 44.76 35.83 49.42 36.21 49.42 36.24"/>
        <polygon class="cls-15" points="49.42 36.26 44.76 35.87 44.76 35.85 49.42 36.24 49.42 36.26"/>
        <polygon class="cls-105" points="49.42 36.28 44.76 35.89 44.76 35.87 49.42 36.26 49.42 36.28"/>
        <polygon class="cls-105" points="49.42 36.3 44.76 35.92 44.76 35.89 49.42 36.28 49.42 36.3"/>
        <polygon class="cls-43" points="49.42 36.32 44.76 35.94 44.76 35.92 49.42 36.3 49.42 36.32"/>
        <polygon class="cls-173" points="49.42 36.34 44.76 35.96 44.76 35.94 49.42 36.32 49.42 36.34"/>
        <polygon class="cls-173" points="49.42 36.36 44.76 35.98 44.76 35.96 49.42 36.34 49.42 36.36"/>
        <polygon class="cls-115" points="49.42 36.39 44.76 36 44.76 35.98 49.42 36.36 49.42 36.39"/>
        <polygon class="cls-58" points="49.42 36.41 44.76 36.02 44.76 36 49.42 36.39 49.42 36.41"/>
        <polygon class="cls-32" points="49.42 36.43 44.76 36.04 44.76 36.02 49.42 36.41 49.42 36.43"/>
        <polygon class="cls-25" points="49.42 36.45 44.76 36.07 44.76 36.04 49.42 36.43 49.42 36.45"/>
        <polygon class="cls-25" points="49.42 36.47 44.76 36.09 44.76 36.07 49.42 36.45 49.42 36.47"/>
        <polygon class="cls-165" points="49.42 36.49 44.76 36.11 44.76 36.09 49.42 36.47 49.42 36.49"/>
        <polygon class="cls-129" points="49.42 36.52 44.76 36.13 44.76 36.11 49.42 36.49 49.42 36.52"/>
        <polygon class="cls-129" points="49.42 36.54 44.76 36.15 44.76 36.13 49.42 36.52 49.42 36.54"/>
        <polygon class="cls-129" points="49.42 36.56 44.76 36.17 44.76 36.15 49.42 36.54 49.42 36.56"/>
        <polygon class="cls-92" points="49.42 36.58 44.76 36.19 44.76 36.17 49.42 36.56 49.42 36.58"/>
        <polygon class="cls-92" points="49.42 36.6 44.76 36.22 44.76 36.19 49.42 36.58 49.42 36.6"/>
        <polygon class="cls-80" points="49.42 36.62 44.76 36.24 44.76 36.22 49.42 36.6 49.42 36.62"/>
        <polygon class="cls-80" points="49.42 36.64 44.76 36.26 44.76 36.24 49.42 36.62 49.42 36.64"/>
        <polygon class="cls-139" points="49.42 36.67 44.76 36.28 44.76 36.26 49.42 36.64 49.42 36.67"/>
        <polygon class="cls-5" points="49.42 36.69 44.76 36.3 44.76 36.28 49.42 36.67 49.42 36.69"/>
        <polygon class="cls-5" points="49.42 36.71 44.76 36.32 44.76 36.3 49.42 36.69 49.42 36.71"/>
        <polygon class="cls-46" points="49.42 36.73 44.76 36.35 44.76 36.32 49.42 36.71 49.42 36.73"/>
        <polygon class="cls-62" points="49.42 36.75 44.76 36.37 44.76 36.35 49.42 36.73 49.42 36.75"/>
        <polygon class="cls-86" points="49.42 36.77 44.76 36.39 44.76 36.37 49.42 36.75 49.42 36.77"/>
        <polygon class="cls-86" points="49.42 36.8 44.76 36.41 44.76 36.39 49.42 36.77 49.42 36.8"/>
        <polygon class="cls-86" points="49.42 36.82 44.76 36.43 44.76 36.41 49.42 36.8 49.42 36.82"/>
        <polygon class="cls-174" points="49.42 36.84 44.76 36.45 44.76 36.43 49.42 36.82 49.42 36.84"/>
        <polygon class="cls-12" points="49.42 36.86 44.76 36.47 44.76 36.45 49.42 36.84 49.42 36.86"/>
        <polygon class="cls-12" points="49.42 36.88 44.76 36.5 44.76 36.47 49.42 36.86 49.42 36.88"/>
        <polygon class="cls-170" points="49.42 36.9 44.76 36.52 44.76 36.5 49.42 36.88 49.42 36.9"/>
        <polygon class="cls-137" points="49.42 36.92 44.76 36.54 44.76 36.52 49.42 36.9 49.42 36.92"/>
        <polygon class="cls-137" points="49.42 36.95 44.76 36.56 44.76 36.54 49.42 36.92 49.42 36.95"/>
        <polygon class="cls-137" points="49.42 36.97 44.76 36.58 44.76 36.56 49.42 36.95 49.42 36.97"/>
        <polygon class="cls-137" points="49.42 36.99 44.76 36.6 44.76 36.58 49.42 36.97 49.42 36.99"/>
        <polygon class="cls-41" points="49.42 37.01 44.76 36.62 44.76 36.6 49.42 36.99 49.42 37.01"/>
        <polygon class="cls-99" points="49.42 37.03 44.76 36.65 44.76 36.62 49.42 37.01 49.42 37.03"/>
        <polygon class="cls-20" points="49.36 37.05 44.76 36.67 44.76 36.65 49.42 37.03 49.42 37.05 49.36 37.05"/>
        <polygon class="cls-20" points="49.1 37.05 44.76 36.69 44.76 36.67 49.36 37.05 49.1 37.05"/>
        <polygon class="cls-20" points="48.84 37.05 44.76 36.71 44.76 36.69 49.1 37.05 48.84 37.05"/>
        <polygon class="cls-20" points="48.58 37.05 44.76 36.73 44.76 36.71 48.84 37.05 48.58 37.05"/>
        <polygon class="cls-20" points="48.32 37.05 44.76 36.75 44.76 36.73 48.58 37.05 48.32 37.05"/>
        <polygon class="cls-20" points="48.06 37.05 44.76 36.78 44.76 36.75 48.32 37.05 48.06 37.05"/>
        <polygon class="cls-69" points="47.8 37.05 44.76 36.8 44.76 36.78 48.06 37.05 47.8 37.05"/>
        <polygon class="cls-148" points="47.54 37.05 44.76 36.82 44.76 36.8 47.8 37.05 47.54 37.05"/>
        <polygon class="cls-148" points="47.28 37.05 44.76 36.84 44.76 36.82 47.54 37.05 47.28 37.05"/>
        <polygon class="cls-148" points="47.02 37.05 44.76 36.86 44.76 36.84 47.28 37.05 47.02 37.05"/>
        <polygon class="cls-148" points="46.76 37.05 44.76 36.88 44.76 36.86 47.02 37.05 46.76 37.05"/>
        <polygon class="cls-148" points="46.5 37.05 44.76 36.9 44.76 36.88 46.76 37.05 46.5 37.05"/>
        <polygon class="cls-148" points="46.24 37.05 44.76 36.93 44.76 36.9 46.5 37.05 46.24 37.05"/>
        <polygon class="cls-148" points="45.98 37.05 44.76 36.95 44.76 36.93 46.24 37.05 45.98 37.05"/>
        <polygon class="cls-37" points="45.72 37.05 44.76 36.97 44.76 36.95 45.98 37.05 45.72 37.05"/>
        <polygon class="cls-37" points="45.46 37.05 44.76 36.99 44.76 36.97 45.72 37.05 45.46 37.05"/>
        <polygon class="cls-55" points="45.2 37.05 44.76 37.01 44.76 36.99 45.46 37.05 45.2 37.05"/>
        <polygon class="cls-55" points="44.94 37.05 44.76 37.03 44.76 37.01 45.2 37.05 44.94 37.05"/>
        <polygon class="cls-55" points="44.76 37.03 44.94 37.05 44.76 37.05 44.76 37.03"/>
      </g>
      <path class="cls-44" d="M46.98,36.26c-.66-.05-1.16-.71-1.1-1.44.06-.72.67-1.29,1.32-1.24.66.05,1.16.71,1.1,1.44-.06.72-.67,1.29-1.33,1.24Z"/>
      <path class="cls-130" d="M47.04,35.99c-.46-.04-.93-.54-.88-1.15.05-.62.6-1.03,1.06-1,.46.04.93.54.88,1.15-.05.62-.6,1.03-1.06.99Z"/>
      <path class="cls-97" d="M46.67,34.48c-.02.22-.25.38-.51.36-.26-.02-.46-.22-.44-.44.02-.22.25-.39.51-.36.26.02.46.22.45.44Z"/>
      <path class="cls-97" d="M48.15,35.76c0,.11-.12.19-.26.18-.13-.01-.23-.11-.22-.22,0-.11.12-.19.26-.18.13.01.23.11.22.22Z"/>
      <path class="cls-6" d="M20.16,36.79c.99-1.61,2.55-.94,2.94-.58.41.38.74.89.49,1.84-.13.54-.7.58-.55,1.4.16.91.58.97.82,1.17.24.2.54.36.7.75.15.38.17.79.1,1.14-.15.66-1.12.15-1.76-.14-.43-.19-1.78-1.32-2.13-1.69-.86-.96-1.28-2.81-.61-3.89"/>
      <path class="cls-26" d="M41.09,44.03c.35-.23.76-.12.76-.12,0,0,0,0-.01.02-.08.14-.55.89-.93.88,0,0-.08-.07-.11-.25-.03-.18.12-.41.29-.53Z"/>
      <path class="cls-31" d="M21.73,21.44s-.06,0-.16,0c.05.02.11.04.16.06v-.05Z"/>
      <path class="cls-1" d="M30.9,20.33c-.01-.31-.01-.63,0-.95-.47.51-1.04,1.21-1.6,2.06,0,0,.2-.17.58-.44.26-.18.6-.41,1.01-.66Z"/>
      <path class="cls-89" d="M49.62,21.38s.04.06.06.09v-.04s-.04-.04-.06-.05Z"/>
      <path class="cls-23" d="M36.18,36.46c0,2.93-2.97,5.82-6.64,5.82-5.11,0-5.8-2.58-5.8-5.51s-1.27-7.3,6.23-7.3,5.83,4.14,6.21,6.99"/>
      <path class="cls-23" d="M42.11,36.29c0,2.93,2.7,5.99,6.5,5.99,5.3,0,6.01-2.58,6.01-5.51s1.31-7.3-6.45-7.3-6.07,3.9-6.07,6.82"/>
      <path class="cls-49" d="M26.89,41.52c1.33.41,6.35,1,8.43-2.92-4.18-2.18-8.4-1-10.84.09.71,2.21,1.92,2.67,2.41,2.83Z"/>
      <path class="cls-49" d="M51.3,41.52c.48-.14,1.6-.56,2.35-2.41-4.13-2.41-8.07-1.2-10.62.21,2.35,3.12,6.98,2.59,8.27,2.2Z"/>
      <path class="cls-1" d="M54.08,37.44c-.03.08-.05.17-.08.25.03-.08.06-.17.08-.25Z"/>
      <path class="cls-1" d="M54.33,36.23c-.04.4-.12.79-.24,1.16.11-.37.19-.76.24-1.16Z"/>
      <path class="cls-1" d="M54.33,36.23c.02-.2.03-.41.03-.62,0-.31-.03-.62-.07-.92.04.3.07.6.07.91,0,.21-.01.42-.03.62Z"/>
      <path class="cls-1" d="M53.98,37.74c-.09.25-.2.49-.33.72.12-.23.23-.47.33-.72Z"/>
      <path class="cls-1" d="M54.24,34.39c.02.09.03.18.05.27-.01-.09-.03-.18-.05-.27Z"/>
      <path class="cls-1" d="M53.69,32.82s0,0,0,.01c0,0,0,0,0-.01Z"/>
      <path class="cls-1" d="M53.83,33.11s.02.03.02.05c0-.02-.02-.03-.02-.05Z"/>
      <path class="cls-1" d="M54.07,33.73c.03.09.06.19.08.28-.03-.09-.05-.19-.08-.28Z"/>
      <path class="cls-1" d="M53.95,33.41s.02.05.03.08c0-.03-.02-.05-.03-.08Z"/>
      <path class="cls-1" d="M54.17,34.09c.02.08.04.16.06.25-.02-.08-.04-.17-.06-.25Z"/>
      <path class="cls-1" d="M26.28,30.7s-.05,0-.07,0c-1.5,1.11-2.48,2.89-2.48,4.91,0,.11,0,.22,0,.33,0-.09,0-.18,0-.27,0-2.04,1.01-3.85,2.55-4.96Z"/>
      <path class="cls-1" d="M35.08,32.52s.02.01.04.02c-.33-.56-.75-1.07-1.23-1.5-.02,0-.05,0-.07-.01.5.43.93.93,1.27,1.5Z"/>
      <path class="cls-1" d="M53.33,39.01c.08-.12.16-.24.23-.36.02-.03.04-.07.06-.11-.09.16-.18.31-.28.46h0Z"/>
      <path class="cls-1" d="M48.72,29.52s.04,0,.06,0c-.02,0-.04,0-.06,0Z"/>
      <path class="cls-1" d="M49,29.54s.03,0,.04,0c-.01,0-.03,0-.04,0Z"/>
      <path class="cls-1" d="M29.84,29.55c1.52,0,2.9.55,3.97,1.47.02,0,.05,0,.07.01-1.08-.95-2.49-1.54-4.04-1.54-1.36,0-2.62.45-3.63,1.21.02,0,.05,0,.07,0,1-.72,2.23-1.15,3.56-1.15Z"/>
      <path class="cls-1" d="M39.72,34.12c-.18-.07-.45-.12-.73-.12-.28,0-.55.05-.73.12-.32.12-.54.47-.72,1.03.15-.04.29-.07.44-.1.79-.14,1.58-.11,2.3.07.06.01.11.03.17.05-.18-.58-.4-.94-.73-1.06Z"/>
      <path class="cls-1" d="M35.93,36.08s0-.03,0-.05c0,.02,0,.03,0,.05Z"/>
      <path class="cls-1" d="M35.95,35.66c0,.09,0,.18,0,.27,0-.11,0-.21,0-.32,0-1.12-.31-2.17-.84-3.07-.01,0-.02-.01-.04-.02.55.92.87,1.99.87,3.14Z"/>
      <path class="cls-1" d="M52.95,39.51c-.05.06-.1.12-.15.17.05-.06.1-.11.15-.17Z"/>
      <path class="cls-1" d="M42.6,37.91s-.02-.06-.04-.09c.01.03.02.06.04.09Z"/>
      <path class="cls-1" d="M48.45,41.72c1.6-.05,3.04-.72,4.11-1.77-1.08,1.07-2.56,1.74-4.2,1.77.03,0,.06,0,.1,0Z"/>
      <path class="cls-1" d="M52.75,39.74c-.05.06-.11.12-.17.18.06-.06.11-.12.17-.18Z"/>
      <path class="cls-1" d="M53.15,39.26c-.05.06-.09.12-.14.18.05-.06.1-.12.14-.18Z"/>
      <path class="cls-1" d="M42.36,33.99s.01-.04.02-.07c0,.02-.01.04-.02.07Z"/>
      <path class="cls-1" d="M42.33,34.12c-.12.48-.19.97-.19,1.49,0,.62.1,1.22.27,1.79-.17-.57-.27-1.17-.27-1.79,0-.51.06-1.01.18-1.48Z"/>
      <path class="cls-1" d="M53.16,39.25c.06-.08.11-.16.17-.24h0c-.06.08-.11.16-.17.24Z"/>
      <path class="cls-1" d="M42.5,37.65c-.02-.07-.05-.13-.07-.2.02.07.04.13.07.2Z"/>
      <path class="cls-1" d="M42.68,38.11s0-.01,0-.02c0,0,0,.01,0,.02Z"/>
      <path class="cls-157" d="M35.94,35.93s0,.07,0,.1c0-.03,0-.07,0-.1Z"/>
      <path class="cls-157" d="M54.33,36.23h0s0,0,0,0Z"/>
      <path class="cls-157" d="M54.09,37.4s0,.03-.01.05c0-.02,0-.03.01-.05Z"/>
      <path class="cls-157" d="M54.29,34.66v.03s0-.02,0-.03Z"/>
      <path class="cls-157" d="M54.23,34.34s0,.04.01.06c0-.02,0-.04-.01-.06Z"/>
      <path class="cls-157" d="M54,37.69s-.01.03-.02.05c0-.02.01-.03.02-.05Z"/>
      <path class="cls-157" d="M54.15,34.01s.01.05.02.08c0-.03-.01-.05-.02-.08Z"/>
      <path class="cls-157" d="M53.61,38.55s.03-.05.04-.08c-.01.03-.03.05-.04.08Z"/>
      <path class="cls-157" d="M42.67,38.09c-.03-.06-.05-.11-.07-.17.02.06.05.11.07.17Z"/>
      <path class="cls-157" d="M48.78,29.52c.07,0,.14.01.21.02-.07,0-.14-.02-.21-.02Z"/>
      <path class="cls-157" d="M42.33,34.12s.02-.09.04-.14c-.01.05-.03.09-.04.14Z"/>
      <path class="cls-157" d="M42.56,37.82c-.02-.06-.04-.12-.07-.17.02.06.04.12.07.17Z"/>
      <path class="cls-157" d="M52.58,39.92s-.02.02-.03.03c0,0,.02-.02.03-.03Z"/>
      <path class="cls-157" d="M42.43,37.45s-.01-.03-.02-.05c0,.02.01.03.02.05Z"/>
      <path class="cls-157" d="M53.16,39.25s0,0,0,.01c0,0,0,0,0-.01Z"/>
      <path class="cls-157" d="M53.98,33.49c.03.08.06.16.08.24-.03-.08-.05-.16-.08-.24Z"/>
      <path class="cls-157" d="M53.01,39.44s-.04.04-.05.07c.02-.02.04-.04.05-.07Z"/>
      <path class="cls-157" d="M52.8,39.68s-.03.04-.05.06c.02-.02.03-.04.05-.06Z"/>
      <path class="cls-157" d="M53.85,33.17c.04.08.07.16.1.25-.03-.08-.07-.17-.1-.25Z"/>
      <path class="cls-157" d="M53.7,32.83c.05.09.09.19.13.28-.04-.09-.09-.19-.13-.28Z"/>
      <path class="cls-4" d="M59.97,25.99c-.05-.33-.11-.65-.17-.97-1.24-6.7-5.47-13.17-9.48-15.94-2.76-1.9-7.53-2.34-10.98-2.24-3.46-.1-8.23.33-10.98,2.24-4.02,2.77-8.23,9.24-9.48,15.94-.06.33-.12.66-.17,1-2.21.3-3.82,3.59-3.64,7.53.17,3.8,1.95,6.84,4.07,7.15.61,2.23,1.55,4.23,2.9,5.76,4.36,4.92,7.96,5.67,7.96,5.67,0,0-8.16-5.04-4.36-18.84,1.31-4.75,11-12.56,12.46-13.39.5-.29.89-.45,1.24-.61.34.16.73.32,1.24.61,1.46.83,11.15,8.64,12.45,13.39,3.8,13.81-4.35,18.84-4.35,18.84,0,0,3.6-.75,7.96-5.67,1.35-1.53,2.29-3.52,2.9-5.74,2.21-.13,4.1-3.24,4.28-7.16.19-4.06-1.53-7.44-3.84-7.55Z"/>
      <g>
        <path class="cls-48" d="M56.39,33.1h-.02c.06-.56-.04-1.75-.1-1.87-.07-.15-1.16-.34-2.75-.53-.4-.45-.85-.86-1.34-1.2-1.14-.79-2.53-1.25-4.02-1.25s-2.75.42-3.86,1.14c-.78.5-1.44,1.15-1.97,1.9-.92.27-1.76.56-2.14.64-.43.09-.76.12-1.11.11h0s-.05,0-.08,0c-.03,0-.05,0-.08,0h0c-.35.01-.69-.02-1.11-.11-.37-.08-1.2-.37-2.1-.63-.91-1.3-2.25-2.29-3.81-2.75-.65-.19-1.34-.3-2.05-.3-.81,0-1.58.14-2.3.39-1.2.41-2.25,1.13-3.07,2.06-1.59.19-2.69.39-2.77.53-.05.11-.16,1.33-.09,1.89l-.02-.02s-.11,4.98,2.78,7.56h0s3.22,3.23,7.85,1.51h0s.03,0,.04-.01h0c.94-.34,1.79-.87,2.5-1.54.41-.39.78-.83,1.09-1.32.69-.92,1.21-2.08,1.49-3.51.19-.06.39-.12.59-.16.82-.17,1.66-.14,2.37.09.12.04.24.08.35.13.3,1.52.89,2.72,1.64,3.66.01.02.03.04.04.06,1.23,1.73,3.22,2.9,5.48,3h0s4,.65,6.52-2.83h0c.99-1.26,2.11-3.41,2.05-6.64ZM35.95,35.73s0,.07,0,.1c0,.02,0,.03,0,.05-.22,3.17-2.86,5.68-6.08,5.68s-5.95-2.58-6.09-5.82c0-.11,0-.22,0-.32,0-2.01.98-3.79,2.47-4.9,1.01-.75,2.27-1.2,3.63-1.2,1.55,0,2.96.58,4.03,1.53.49.43.9.93,1.23,1.5.53.9.83,1.95.83,3.07,0,.11,0,.22,0,.32ZM40.29,34.93c-.71-.18-1.51-.21-2.29-.07-.15.03-.29.06-.44.1.17-.56.4-.91.71-1.03.18-.07.45-.12.73-.12.27,0,.54.05.73.12.32.12.55.48.73,1.06-.06-.02-.11-.03-.17-.05ZM54.31,36.03c-.04.4-.12.79-.23,1.16,0,.02,0,.03-.01.05-.03.08-.05.17-.08.25,0,.02-.01.03-.02.05-.09.25-.2.49-.33.72-.01.03-.03.05-.04.08-.02.03-.04.07-.06.11-.07.12-.15.24-.23.36-.05.08-.11.16-.17.24,0,0,0,0,0,.01-.05.06-.09.12-.14.18-.02.02-.04.04-.05.07-.05.06-.1.12-.15.17-.02.02-.03.04-.05.06-.05.06-.11.12-.17.18,0,0-.02.02-.03.03-1.06,1.05-2.5,1.72-4.1,1.77-.03,0-.06,0-.1,0-.59-.02-1.23-.1-1.86-.26-1.16-.35-2.18-1.04-2.93-1.95,0,0-.01-.01-.02-.02-.05-.06-.1-.12-.15-.19,0,0-.01-.02-.02-.02-.11-.14-.2-.28-.3-.43,0,0-.01-.02-.02-.02-.14-.23-.26-.46-.37-.7,0,0,0-.01,0-.02-.02-.06-.05-.11-.07-.17-.01-.03-.02-.06-.04-.09-.02-.06-.04-.12-.07-.17-.02-.07-.05-.13-.07-.2,0-.02-.01-.03-.02-.05-.17-.56-.27-1.16-.27-1.78,0-.51.06-1.01.19-1.48.01-.05.02-.09.04-.14,0-.02.01-.04.02-.07.07-.25.16-.49.26-.72,0-.02.01-.03.02-.05.1-.23.22-.46.35-.68.33-.55.74-1.04,1.22-1.46.4-.35.85-.65,1.33-.88,0,0,0,0,0,0,.16-.08.31-.14.47-.21.01,0,.03-.01.04-.02.15-.06.3-.11.46-.15.02,0,.04-.01.06-.02.15-.04.31-.08.46-.11.02,0,.05-.01.07-.01.17-.03.34-.05.51-.07.01,0,.02,0,.03,0,.19-.02.37-.03.56-.03.16,0,.31,0,.47.02.02,0,.04,0,.06,0,.07,0,.14.01.21.02.01,0,.03,0,.04,0,.26.03.52.09.77.15h0s.05.02.08.03c0,0,0,0,0,0,.13.04.25.08.38.12-.12-.04-.25-.09-.37-.12.23.06.45.14.66.22.02,0,.04.02.06.03.22.09.43.19.64.31-.14-.08-.29-.15-.44-.22.15.07.3.14.44.22h0s.03.02.05.03h0c.2.12.4.24.59.38h0s.06.05.09.07h0c.13.1.26.2.38.31-.12-.11-.25-.21-.38-.31.15.12.31.24.45.38.02.02.04.05.07.07.15.14.29.28.42.44.02.03.04.06.06.08.13.15.25.31.36.47.13.19.25.39.36.6h0c.05.1.09.2.13.29,0,.02.02.03.02.05.04.08.07.16.1.25,0,.03.02.05.03.08.03.08.06.16.08.24.03.09.06.19.08.28,0,.03.01.05.02.08.02.08.04.16.06.25,0,.02,0,.04.01.06.02.09.03.18.05.27,0,0,0,.02,0,.03.05.3.07.6.07.92,0,.21-.01.41-.03.62h0Z"/>
        <path class="cls-48" d="M49.02,29.36c.26.03.52.09.77.15-.25-.07-.51-.12-.77-.15Z"/>
        <path class="cls-48" d="M51.28,30.13c.2.12.4.24.59.38-.19-.14-.38-.27-.59-.38Z"/>
      </g>
      <path class="cls-1" d="M35.94,72.7h0s.62.76.62.76c1.58,1.94,4.55,1.94,6.12-.02l1.03-1.28h0l-.43.54h-7.34Z"/>
      <polygon class="cls-1" points="44.64 71 46.48 68.72 46.47 68.72 44.64 71 44.64 71"/>
      <polygon class="cls-1" points="47.41 67.56 49.25 65.28 49.22 65.28 47.39 67.56 47.41 67.56"/>
      <path class="cls-48" d="M56.89,75.57c-.6-3.66-4.07-4.51-4.23-11.65-.62-.22-1.22-.44-1.8-.66l-.69.85h-.03l-.93,1.16h.02l-1.84,2.28h-.02l-.93,1.16h.01l-1.84,2.28h0l-.93,1.16h0l-1.03,1.28c-1.57,1.95-4.54,1.96-6.12.02l-.62-.76-7.81-9.56c-.59.22-1.2.45-1.84.67-.12,7.25-3.62,8.09-4.23,11.76-.14.81-.28,2.29-.38,3.31h35.59c-.09-1.01-.23-2.5-.38-3.31Z"/>
    </g>
  </g>
</svg>