<?xml version="1.0" encoding="UTF-8"?>
<svg id="Layer_2" data-name="Layer 2" xmlns="http://www.w3.org/2000/svg" xmlns:xlink="http://www.w3.org/1999/xlink" viewBox="0 0 78.88 81.36">
  <defs>
    <style>
      .cls-1 {
        fill: none;
      }

      .cls-2 {
        fill: #354148;
      }

      .cls-3 {
        fill: #7d99ae;
      }

      .cls-4 {
        fill: #84a2b8;
      }

      .cls-5 {
        fill: #debaad;
      }

      .cls-6 {
        fill: #4e606b;
      }

      .cls-7 {
        fill: #bf6c6c;
      }

      .cls-8 {
        fill: #7791a4;
      }

      .cls-9 {
        fill: #7b97ab;
      }

      .cls-10 {
        fill: #677e8d;
      }

      .cls-11 {
        fill: #86a3ba;
      }

      .cls-12 {
        fill: #364349;
      }

      .cls-13 {
        fill: #313d43;
      }

      .cls-14 {
        fill: #809cb2;
      }

      .cls-15 {
        fill: #6d8596;
      }

      .cls-16 {
        fill: #44545c;
      }

      .cls-17 {
        fill: #46565f;
      }

      .cls-18 {
        fill: #7893a6;
      }

      .cls-19 {
        fill: #87a5bc;
      }

      .cls-20 {
        fill: #748d9f;
      }

      .cls-21 {
        fill: #627886;
      }

      .cls-22 {
        fill: #24241d;
        opacity: .4;
      }

      .cls-23 {
        fill: #576b77;
      }

      .cls-24 {
        fill: #829fb5;
      }

      .cls-25 {
        fill: #b89388;
      }

      .cls-26 {
        fill: #485862;
      }

      .cls-27 {
        fill: #6f8899;
      }

      .cls-28 {
        fill: #5b6f7c;
      }

      .cls-29 {
        fill: #7892a6;
      }

      .cls-30 {
        fill: #829fb4;
      }

      .cls-31 {
        fill: #7690a2;
      }

      .cls-32 {
        fill: #596c79;
      }

      .cls-33 {
        fill: #748ea0;
      }

      .cls-34 {
        fill: #728b9c;
      }

      .cls-35 {
        fill: #88a6be;
      }

      .cls-36 {
        fill: #a88a6b;
      }

      .cls-37 {
        fill: #738d9f;
      }

      .cls-38 {
        fill: #495963;
      }

      .cls-39 {
        fill: #87a4bb;
      }

      .cls-40 {
        fill: #617785;
      }

      .cls-41 {
        fill: #819db3;
      }

      .cls-42 {
        fill: #95bacb;
      }

      .cls-43 {
        fill: #657b8a;
      }

      .cls-44 {
        fill: #85a2b8;
      }

      .cls-45 {
        fill: #7f9bb0;
      }

      .cls-46 {
        fill: #667c8b;
      }

      .cls-47 {
        fill: #38454c;
      }

      .cls-48 {
        fill: #3e4d54;
      }

      .cls-49 {
        fill: #687f8f;
      }

      .cls-50 {
        fill: #7e9aae;
      }

      .cls-51 {
        fill: #88a7be;
      }

      .cls-52 {
        fill: #5b707d;
      }

      .cls-53 {
        fill: #7a96a9;
      }

      .cls-54 {
        fill: #829eb4;
      }

      .cls-55 {
        fill: #7a95a9;
      }

      .cls-56 {
        fill: #f3f3f2;
        opacity: .55;
      }

      .cls-57 {
        fill: #6c8495;
      }

      .cls-58 {
        fill: #7c98ac;
      }

      .cls-59 {
        fill: #85a2b9;
      }

      .cls-60 {
        fill: #677d8d;
      }

      .cls-61 {
        fill: #39464e;
      }

      .cls-62 {
        fill: #3d4b53;
      }

      .cls-63 {
        fill: #344046;
      }

      .cls-64 {
        fill: #586c78;
      }

      .cls-65 {
        fill: #596d7a;
      }

      .cls-66 {
        fill: #87a6bd;
      }

      .cls-67 {
        fill: #637988;
      }

      .cls-68 {
        fill: #37444b;
      }

      .cls-69 {
        fill: #7c97ab;
      }

      .cls-70 {
        fill: #6d8595;
      }

      .cls-71 {
        fill: #526570;
      }

      .cls-72 {
        fill: #70899b;
      }

      .cls-73 {
        fill: #738c9e;
      }

      .cls-74 {
        fill: #4e5f6a;
      }

      .cls-75 {
        clip-path: url(#clippath-1);
      }

      .cls-76 {
        fill: #546672;
      }

      .cls-77 {
        fill: #84a1b7;
      }

      .cls-78 {
        fill: #718a9c;
      }

      .cls-79 {
        fill: #5f7481;
      }

      .cls-80 {
        fill: #f1d4c8;
      }

      .cls-81 {
        fill: #6e8697;
      }

      .cls-82 {
        fill: #303c42;
      }

      .cls-83 {
        fill: #85a3b9;
      }

      .cls-84 {
        fill: #7e9baf;
      }

      .cls-85 {
        fill: #6a8292;
      }

      .cls-86 {
        fill: #758fa1;
      }

      .cls-87 {
        fill: #6b8292;
      }

      .cls-88 {
        fill: #83a1b7;
      }

      .cls-89 {
        fill: #7994a7;
      }

      .cls-90 {
        fill: #6b8393;
      }

      .cls-91 {
        fill: #647a89;
      }

      .cls-92 {
        fill: #6e8798;
      }

      .cls-93 {
        fill: #fff;
      }

      .cls-94 {
        fill: #7f9cb1;
      }

      .cls-95 {
        fill: #87a5bb;
      }

      .cls-96 {
        fill: #536671;
      }

      .cls-97 {
        fill: #5e7380;
      }

      .cls-98 {
        fill: #4d5e69;
      }

      .cls-99 {
        fill: #566975;
      }

      .cls-100 {
        fill: #6a8191;
      }

      .cls-101 {
        fill: #809db2;
      }

      .cls-102 {
        fill: #4c5d68;
      }

      .cls-103 {
        fill: #809cb1;
      }

      .cls-104 {
        fill: #4b5c67;
      }

      .cls-105 {
        fill: #475760;
      }

      .cls-106 {
        fill: #7691a3;
      }

      .cls-107 {
        fill: #3a484f;
      }

      .cls-108 {
        fill: #3b3b36;
      }

      .cls-109 {
        fill: #51636e;
      }

      .cls-110 {
        fill: #7d99ad;
      }

      .cls-111 {
        fill: #4f616c;
      }

      .cls-112 {
        fill: #819eb4;
      }

      .cls-113 {
        fill: #4a5b65;
      }

      .cls-114 {
        fill: #698090;
      }

      .cls-115 {
        opacity: .58;
      }

      .cls-116 {
        opacity: .3;
      }

      .cls-117 {
        fill: #7690a3;
      }

      .cls-118 {
        fill: #5d727f;
      }

      .cls-119 {
        fill: #415059;
      }

      .cls-120 {
        fill: #2d383d;
      }

      .cls-121 {
        fill: #50626d;
      }

      .cls-122 {
        fill: #7893a7;
      }

      .cls-123 {
        fill: #43525b;
      }

      .cls-124 {
        fill: #748ea1;
      }

      .cls-125 {
        fill: #7994a8;
      }

      .cls-126 {
        fill: #546773;
      }

      .cls-127 {
        fill: #83a0b6;
      }

      .cls-128 {
        fill: #26200c;
      }

      .cls-129 {
        fill: #607583;
      }

      .cls-130 {
        fill: #556874;
      }

      .cls-131 {
        fill: #687f8e;
      }

      .cls-132 {
        fill: #667d8c;
      }

      .cls-133 {
        fill: #728b9d;
      }

      .cls-134 {
        fill: #323f45;
      }

      .cls-135 {
        fill: #86a4bb;
      }

      .cls-136 {
        fill: #7792a5;
      }

      .cls-137 {
        fill: #84a1b8;
      }

      .cls-138 {
        fill: #5c707e;
      }

      .cls-139 {
        fill: #698190;
      }

      .cls-140 {
        fill: #637987;
      }

      .cls-141 {
        fill: #3c4a52;
      }

      .cls-142 {
        fill: #42515a;
      }

      .cls-143 {
        fill: #c6a095;
      }

      .cls-144 {
        fill: #3b4950;
      }

      .cls-145 {
        fill: #6c8494;
      }

      .cls-146 {
        fill: #88a6bd;
      }

      .cls-147 {
        fill: #404f57;
      }

      .cls-148 {
        fill: #47433b;
      }

      .cls-149 {
        fill: #51646f;
      }

      .cls-150 {
        fill: #7c97ac;
      }

      .cls-151 {
        fill: #5a6e7b;
      }

      .cls-152 {
        fill: #647b8a;
      }

      .cls-153 {
        fill: #45555e;
      }

      .cls-154 {
        fill: #7e9aaf;
      }

      .cls-155 {
        fill: #3f4e56;
      }

      .cls-156 {
        fill: #2f3b40;
      }

      .cls-157 {
        fill: #4a5a64;
      }

      .cls-158 {
        fill: #607684;
      }

      .cls-159 {
        fill: #718a9b;
      }

      .cls-160 {
        fill: #5d717f;
      }

      .cls-161 {
        clip-path: url(#clippath);
      }

      .cls-162 {
        fill: #82a0b5;
      }

      .cls-163 {
        fill: #2e393f;
      }

      .cls-164 {
        fill: #70899a;
      }

      .cls-165 {
        fill: #7b96aa;
      }

      .cls-166 {
        fill: #758fa2;
      }

      .cls-167 {
        fill: #86a4ba;
      }

      .cls-168 {
        fill: #9abc30;
      }

      .cls-169 {
        fill: #5f7482;
      }

      .cls-170 {
        fill: #7c98ad;
      }

      .cls-171 {
        fill: #819eb3;
      }

      .cls-172 {
        fill: #85a3ba;
      }

      .cls-173 {
        fill: #728c9e;
      }

      .cls-174 {
        fill: #7d251d;
      }

      .cls-175 {
        fill: #576a76;
      }

      .cls-176 {
        fill: #627786;
      }

      .cls-177 {
        fill: #ab5b64;
      }
    </style>
    <clipPath id="clippath">
      <path class="cls-1" d="M36.28,38c-.1,1.2-1.17,2.09-2.39,1.99-1.22-.1-2.13-1.16-2.03-2.35.1-1.2,1.17-2.09,2.39-1.99,1.22.1,2.13,1.16,2.03,2.36Z"/>
    </clipPath>
    <clipPath id="clippath-1">
      <path class="cls-1" d="M51.88,37.88c-.1,1.2-1.17,2.09-2.39,1.99-1.22-.1-2.13-1.16-2.03-2.35.1-1.2,1.17-2.09,2.39-1.99,1.22.1,2.13,1.16,2.03,2.36Z"/>
    </clipPath>
  </defs>
  <g id="Layer_1-2" data-name="Layer 1">
    <g>
      <rect class="cls-168" y="2.48" width="78.88" height="78.88"/>
      <path class="cls-80" d="M63.97,80.36s-.1-6.1-.34-6.63c-.47-2.13.37-3.1-2.92-5.15-.03-.01-.75-.24-1.82-.59t-.03-.01c-.7-.23-1.54-.51-2.43-.81-.34-.11-.68-.24-1.04-.35-.87-.31-1.74-.62-2.54-.93-.55-.21-1.08-.42-1.53-.6-.38-.17-.72-.32-.98-.46-.28-.15-.49-.28-.6-.39-.01-.01-.04-.05-.08-.09-.02-.04-.05-.06-.08-.1-.06-.35-1.01-1.91-1.34-3.61h0c-.08-.35-.11-.68-.13-1.02-.03-.49-.03-.99-.04-1.43-.01-.46-.02-.87-.04-1.21v-.29c-.01-.24-.01-.44-.01-.59-.01-.15-.01-.24-.01-.24,0,0,.35-.3.87-.76.64-.58,1.57-1.42,2.36-2.21.86-.86,1.61-1.68,1.77-2.11.01-.06.02-.11.02-.15,0,0-.02,0-.06.01-.4.06-2.58.44-4.92.81-1.39.21-2.85.43-4.04.58-.47.06-.9.1-1.26.14h-.01c-.34.04-.63.05-.85.05-.24,0-.57-.03-.96-.05h-.03c-.38-.05-.83-.1-1.33-.16-1.09-.14-2.39-.33-3.65-.52-1.16-.19-2.3-.37-3.2-.52-.21-.04-.41-.06-.58-.1-.86-.14-1.4-.24-1.4-.24,0,.16.15.42.41.75,0,0,0,.01.01.01.19.25.44.54.75.87.29.3.61.62.94.94,1,.97,2.09,1.93,2.62,2.39.2.18.32.28.32.28,0,0,0,.09-.01.24,0,.15,0,.35-.01.59v.29c0,.1,0,.2-.01.3-.01.66-.04,1.48-.06,2.34-.01.34-.05.67-.13,1.01-.33,1.69-1.28,3.26-1.34,3.62-.03.04-.05.06-.08.1-.04.04-.06.08-.08.09-.05.05-.14.12-.25.18-.23.15-.58.32-1.01.53-.37.17-.81.34-1.29.53-1.12.44-2.47.92-3.75,1.35-.09.03-.18.06-.27.09-.95.33-1.86.63-2.59.87h-.01c-1.06.35-1.78.58-1.81.59-3.26,2.04-2.47,3.01-2.92,5.11h0v.04s-.03.08-.04.15h0c-.22,1.11-.3,6.48-.3,6.48,0,.32,0,.66,0,1h44.15c0-.34,0-.68-.01-1Z"/>
      <g class="cls-115">
        <path class="cls-143" d="M48.26,60.63c-.08-.34-.11-.67-.13-1.01-.04-1.14-.06-2.23-.08-2.93-1.9.85-3.85,1.34-5.76,1.34-.11.02-.26.02-.39.02s-.27,0-.39-.02c-1.91,0-3.86-.49-5.76-1.34-.01.71-.04,1.8-.08,2.93-.01.34-.05.67-.13,1.01,1.83,1.53,4.31,3.11,5.96,3.11.1.02.23.02.35.02h0s.03,0,.04,0,.03,0,.04,0h0c.12,0,.24,0,.35-.03,1.64,0,4.12-1.58,5.96-3.11Z"/>
      </g>
      <g>
        <path class="cls-80" d="M58.2,37.92c.32-1.75.56-3.09.64-3.35.04-.13.06-.25.1-.38.03-.15.06-.29.09-.43.06-.22.1-.43.15-.65.01-.1.04-.2.05-.3.04-.24.09-.48.13-.72.01-.1.03-.22.04-.32.04-.21.05-.43.08-.64.01-.16.02-.33.05-.48.01-.14.01-.28.02-.42.16-3.3-.54-6.67-2.71-9.72-2.62-3.67-5.63-7.55-12.17-8.09h-5.51c-6.54.54-9.55,4.43-12.17,8.09-2.16,3.05-2.87,6.41-2.71,9.72.01.14.01.28.02.42.02.15.04.32.05.48.02.22.04.43.08.64.01.1.03.21.04.32.04.24.09.48.13.72.01.1.04.2.05.3.05.21.09.43.15.65.03.14.06.28.09.43.04.13.06.25.1.38.08.26.32,1.59.64,3.33-1.75-.85-4.17.37-3.88,3.58.3,3.26,4.26,5.19,5.62,5.53.13.59.25,1.03.33,1.24,1.19,3,2.63,3.9,5.16,6.34,2.76,2.64,6.83,5.12,8.84,5.11.06.01.14.01.22.01s.15,0,.22-.01c2.01.01,6.08-2.47,8.84-5.11,2.53-2.44,3.97-3.34,5.16-6.34.08-.21.2-.64.33-1.23,1.31-.3,5.36-2.24,5.66-5.54.29-3.24-2.18-4.45-3.93-3.55Z"/>
        <path class="cls-5" d="M60.85,39.72c-.98-1.6-2.52-.93-2.91-.58-.41.38-.73.88-.49,1.82.13.53.69.58.55,1.38-.16.9-.58.96-.82,1.16-.24.2-.54.35-.69.74-.15.38-.17.78-.1,1.13.15.65,1.11.15,1.74-.14.42-.19,1.76-1.3,2.1-1.67.85-.95,1.26-2.78.61-3.85"/>
      </g>
      <path class="cls-5" d="M39.11,53.44c-.06-.84,2.34.18,3.13.2.63.02,2.52-.12,2.7-.19,1.32-.49-.07,1.4-2.74,1.5-1.22.05-3.06-1-3.09-1.51Z"/>
      <g>
        <path class="cls-177" d="M47.05,52.36c-1.53-.28-4.74-.9-4.74-.9-2.65.44-4.73.9-4.74.91-.06,0,2.12,1.95,4.71,1.82h0c2.59.13,4.84-1.82,4.78-1.83Z"/>
        <path class="cls-7" d="M43.82,50.92c-.69-.08-1.16.33-1.51.29-.36.03-.83-.37-1.52-.29-.98.21-1.45.83-3.23,1.45.06.12,1.2-.15,3.34-.11.03,0,.6.32,1.42.32.51,0,1.21-.34,1.24-.34,2.14-.03,3.44.26,3.51.14-2.35-.72-2.26-1.24-3.24-1.45Z"/>
      </g>
      <path class="cls-36" d="M43.57,46.9c.35-.23.75-.12.75-.12,0,0,0,0-.01.02-.08.14-.55.88-.92.87,0,0-.08-.07-.1-.25-.03-.18.12-.41.28-.53Z"/>
      <path class="cls-5" d="M38.89,46.67c-.07-1.67,2.59-.61,3.47-.56.7.04,2.8-.53,2.98-.38,1.24.99-1.32,2.99-3.03,2.99-.46,0-3.39-1.04-3.43-2.05Z"/>
      <path class="cls-25" d="M40.9,46.88c-.35-.23-.75-.12-.75-.12,0,0,0,0,.01.02.08.14.55.88.92.87,0,0,.08-.07.1-.25.03-.18-.12-.41-.28-.53Z"/>
      <path class="cls-108" d="M38.43,35.11s-.41-.41-1.15-.9c-.36-.26-.82-.49-1.31-.72-.5-.23-1.06-.41-1.63-.51-.57-.13-1.17-.16-1.73-.16-.28.02-.55.04-.81.06-.26.01-.5.08-.73.11-.46.07-.83.18-1.1.25-.27.06-.43.1-.43.1,0,0,.13-.08.37-.23.24-.13.57-.38,1.03-.53.44-.19.99-.37,1.6-.48.61-.08,1.28-.13,1.95-.05.66.09,1.31.28,1.89.52.58.25,1.07.57,1.47.87.79.6,1.18,1.19,1.18,1.19h0c.12.19.07.43-.11.54-.15.1-.36.08-.48-.05Z"/>
      <path class="cls-93" d="M29.13,37.01s1.48,3.68,3.78,4.04c2.3.36,4.75-.17,4.75-.17,0,0,.06-4.28-1.13-4.87-1.19-.59-3.92-1.48-7.39.99Z"/>
      <g class="cls-161">
        <polygon class="cls-120" points="36.37 36.36 31.76 35.97 31.76 35.55 36.37 35.55 36.37 36.36"/>
        <polygon class="cls-120" points="36.37 36.38 31.76 36 31.76 35.97 36.37 36.36 36.37 36.38"/>
        <polygon class="cls-163" points="36.37 36.4 31.76 36.02 31.76 36 36.37 36.38 36.37 36.4"/>
        <polygon class="cls-156" points="36.37 36.42 31.76 36.04 31.76 36.02 36.37 36.4 36.37 36.42"/>
        <polygon class="cls-82" points="36.37 36.44 31.76 36.06 31.76 36.04 36.37 36.42 36.37 36.44"/>
        <polygon class="cls-13" points="36.37 36.46 31.76 36.08 31.76 36.06 36.37 36.44 36.37 36.46"/>
        <polygon class="cls-134" points="36.37 36.48 31.76 36.1 31.76 36.08 36.37 36.46 36.37 36.48"/>
        <polygon class="cls-63" points="36.37 36.5 31.76 36.12 31.76 36.1 36.37 36.48 36.37 36.5"/>
        <polygon class="cls-2" points="36.37 36.53 31.76 36.14 31.76 36.12 36.37 36.5 36.37 36.53"/>
        <polygon class="cls-12" points="36.37 36.55 31.76 36.17 31.76 36.14 36.37 36.53 36.37 36.55"/>
        <polygon class="cls-68" points="36.37 36.57 31.76 36.19 31.76 36.17 36.37 36.55 36.37 36.57"/>
        <polygon class="cls-47" points="36.37 36.59 31.76 36.21 31.76 36.19 36.37 36.57 36.37 36.59"/>
        <polygon class="cls-61" points="36.37 36.61 31.76 36.23 31.76 36.21 36.37 36.59 36.37 36.61"/>
        <polygon class="cls-107" points="36.37 36.63 31.76 36.25 31.76 36.23 36.37 36.61 36.37 36.63"/>
        <polygon class="cls-144" points="36.37 36.65 31.76 36.27 31.76 36.25 36.37 36.63 36.37 36.65"/>
        <polygon class="cls-141" points="36.37 36.67 31.76 36.29 31.76 36.27 36.37 36.65 36.37 36.67"/>
        <polygon class="cls-62" points="36.37 36.7 31.76 36.31 31.76 36.29 36.37 36.67 36.37 36.7"/>
        <polygon class="cls-48" points="36.37 36.72 31.76 36.34 31.76 36.31 36.37 36.7 36.37 36.72"/>
        <polygon class="cls-155" points="36.37 36.74 31.76 36.36 31.76 36.34 36.37 36.72 36.37 36.74"/>
        <polygon class="cls-147" points="36.37 36.76 31.76 36.38 31.76 36.36 36.37 36.74 36.37 36.76"/>
        <polygon class="cls-119" points="36.37 36.78 31.76 36.4 31.76 36.38 36.37 36.76 36.37 36.78"/>
        <polygon class="cls-142" points="36.37 36.8 31.76 36.42 31.76 36.4 36.37 36.78 36.37 36.8"/>
        <polygon class="cls-123" points="36.37 36.82 31.76 36.44 31.76 36.42 36.37 36.8 36.37 36.82"/>
        <polygon class="cls-16" points="36.37 36.84 31.76 36.46 31.76 36.44 36.37 36.82 36.37 36.84"/>
        <polygon class="cls-153" points="36.37 36.87 31.76 36.48 31.76 36.46 36.37 36.84 36.37 36.87"/>
        <polygon class="cls-17" points="36.37 36.89 31.76 36.51 31.76 36.48 36.37 36.87 36.37 36.89"/>
        <polygon class="cls-105" points="36.37 36.91 31.76 36.53 31.76 36.51 36.37 36.89 36.37 36.91"/>
        <polygon class="cls-26" points="36.37 36.93 31.76 36.55 31.76 36.53 36.37 36.91 36.37 36.93"/>
        <polygon class="cls-38" points="36.37 36.95 31.76 36.57 31.76 36.55 36.37 36.93 36.37 36.95"/>
        <polygon class="cls-157" points="36.37 36.97 31.76 36.59 31.76 36.57 36.37 36.95 36.37 36.97"/>
        <polygon class="cls-113" points="36.37 36.99 31.76 36.61 31.76 36.59 36.37 36.97 36.37 36.99"/>
        <polygon class="cls-104" points="36.37 37.01 31.76 36.63 31.76 36.61 36.37 36.99 36.37 37.01"/>
        <polygon class="cls-102" points="36.37 37.04 31.76 36.65 31.76 36.63 36.37 37.01 36.37 37.04"/>
        <polygon class="cls-98" points="36.37 37.06 31.76 36.68 31.76 36.65 36.37 37.04 36.37 37.06"/>
        <polygon class="cls-74" points="36.37 37.08 31.76 36.7 31.76 36.68 36.37 37.06 36.37 37.08"/>
        <polygon class="cls-6" points="36.37 37.1 31.76 36.72 31.76 36.7 36.37 37.08 36.37 37.1"/>
        <polygon class="cls-111" points="36.37 37.12 31.76 36.74 31.76 36.72 36.37 37.1 36.37 37.12"/>
        <polygon class="cls-121" points="36.37 37.14 31.76 36.76 31.76 36.74 36.37 37.12 36.37 37.14"/>
        <polygon class="cls-109" points="36.37 37.16 31.76 36.78 31.76 36.76 36.37 37.14 36.37 37.16"/>
        <polygon class="cls-149" points="36.37 37.19 31.76 36.8 31.76 36.78 36.37 37.16 36.37 37.19"/>
        <polygon class="cls-71" points="36.37 37.21 31.76 36.83 31.76 36.8 36.37 37.19 36.37 37.21"/>
        <polygon class="cls-96" points="36.37 37.23 31.76 36.85 31.76 36.83 36.37 37.21 36.37 37.23"/>
        <polygon class="cls-76" points="36.37 37.25 31.76 36.87 31.76 36.85 36.37 37.23 36.37 37.25"/>
        <polygon class="cls-126" points="36.37 37.27 31.76 36.89 31.76 36.87 36.37 37.25 36.37 37.27"/>
        <polygon class="cls-130" points="36.37 37.29 31.76 36.91 31.76 36.89 36.37 37.27 36.37 37.29"/>
        <polygon class="cls-99" points="36.37 37.31 31.76 36.93 31.76 36.91 36.37 37.29 36.37 37.31"/>
        <polygon class="cls-175" points="36.37 37.33 31.76 36.95 31.76 36.93 36.37 37.31 36.37 37.33"/>
        <polygon class="cls-23" points="36.37 37.36 31.76 36.97 31.76 36.95 36.37 37.33 36.37 37.36"/>
        <polygon class="cls-64" points="36.37 37.38 31.76 37 31.76 36.97 36.37 37.36 36.37 37.38"/>
        <polygon class="cls-32" points="36.37 37.4 31.76 37.02 31.76 37 36.37 37.38 36.37 37.4"/>
        <polygon class="cls-65" points="36.37 37.42 31.76 37.04 31.76 37.02 36.37 37.4 36.37 37.42"/>
        <polygon class="cls-151" points="36.37 37.44 31.76 37.06 31.76 37.04 36.37 37.42 36.37 37.44"/>
        <polygon class="cls-28" points="36.37 37.46 31.76 37.08 31.76 37.06 36.37 37.44 36.37 37.46"/>
        <polygon class="cls-52" points="36.37 37.48 31.76 37.1 31.76 37.08 36.37 37.46 36.37 37.48"/>
        <polygon class="cls-138" points="36.37 37.5 31.76 37.12 31.76 37.1 36.37 37.48 36.37 37.5"/>
        <polygon class="cls-160" points="36.37 37.53 31.76 37.14 31.76 37.12 36.37 37.5 36.37 37.53"/>
        <polygon class="cls-118" points="36.37 37.55 31.76 37.17 31.76 37.14 36.37 37.53 36.37 37.55"/>
        <polygon class="cls-97" points="36.37 37.57 31.76 37.19 31.76 37.17 36.37 37.55 36.37 37.57"/>
        <polygon class="cls-79" points="36.37 37.59 31.76 37.21 31.76 37.19 36.37 37.57 36.37 37.59"/>
        <polygon class="cls-169" points="36.37 37.61 31.76 37.23 31.76 37.21 36.37 37.59 36.37 37.61"/>
        <polygon class="cls-129" points="36.37 37.63 31.76 37.25 31.76 37.23 36.37 37.61 36.37 37.63"/>
        <polygon class="cls-158" points="36.37 37.65 31.76 37.27 31.76 37.25 36.37 37.63 36.37 37.65"/>
        <polygon class="cls-40" points="36.37 37.67 31.76 37.29 31.76 37.27 36.37 37.65 36.37 37.67"/>
        <polygon class="cls-176" points="36.37 37.7 31.76 37.31 31.76 37.29 36.37 37.67 36.37 37.7"/>
        <polygon class="cls-21" points="36.37 37.72 31.76 37.34 31.76 37.31 36.37 37.7 36.37 37.72"/>
        <polygon class="cls-140" points="36.37 37.74 31.76 37.36 31.76 37.34 36.37 37.72 36.37 37.74"/>
        <polygon class="cls-67" points="36.37 37.76 31.76 37.38 31.76 37.36 36.37 37.74 36.37 37.76"/>
        <polygon class="cls-91" points="36.37 37.78 31.76 37.4 31.76 37.38 36.37 37.76 36.37 37.78"/>
        <polygon class="cls-152" points="36.37 37.8 31.76 37.42 31.76 37.4 36.37 37.78 36.37 37.8"/>
        <polygon class="cls-43" points="36.37 37.82 31.76 37.44 31.76 37.42 36.37 37.8 36.37 37.82"/>
        <polygon class="cls-46" points="36.37 37.84 31.76 37.46 31.76 37.44 36.37 37.82 36.37 37.84"/>
        <polygon class="cls-132" points="36.37 37.87 31.76 37.48 31.76 37.46 36.37 37.84 36.37 37.87"/>
        <polygon class="cls-60" points="36.37 37.89 31.76 37.51 31.76 37.48 36.37 37.87 36.37 37.89"/>
        <polygon class="cls-10" points="36.37 37.91 31.76 37.53 31.76 37.51 36.37 37.89 36.37 37.91"/>
        <polygon class="cls-131" points="36.37 37.93 31.76 37.55 31.76 37.53 36.37 37.91 36.37 37.93"/>
        <polygon class="cls-49" points="36.37 37.95 31.76 37.57 31.76 37.55 36.37 37.93 36.37 37.95"/>
        <polygon class="cls-114" points="36.37 37.97 31.76 37.59 31.76 37.57 36.37 37.95 36.37 37.97"/>
        <polygon class="cls-139" points="36.37 37.99 31.76 37.61 31.76 37.59 36.37 37.97 36.37 37.99"/>
        <polygon class="cls-100" points="36.37 38.01 31.76 37.63 31.76 37.61 36.37 37.99 36.37 38.01"/>
        <polygon class="cls-85" points="36.37 38.04 31.76 37.66 31.76 37.63 36.37 38.01 36.37 38.04"/>
        <polygon class="cls-87" points="36.37 38.06 31.76 37.68 31.76 37.66 36.37 38.04 36.37 38.06"/>
        <polygon class="cls-90" points="36.37 38.08 31.76 37.7 31.76 37.68 36.37 38.06 36.37 38.08"/>
        <polygon class="cls-145" points="36.37 38.1 31.76 37.72 31.76 37.7 36.37 38.08 36.37 38.1"/>
        <polygon class="cls-57" points="36.37 38.12 31.76 37.74 31.76 37.72 36.37 38.1 36.37 38.12"/>
        <polygon class="cls-70" points="36.37 38.14 31.76 37.76 31.76 37.74 36.37 38.12 36.37 38.14"/>
        <polygon class="cls-15" points="36.37 38.16 31.76 37.78 31.76 37.76 36.37 38.14 36.37 38.16"/>
        <polygon class="cls-81" points="36.37 38.19 31.76 37.8 31.76 37.78 36.37 38.16 36.37 38.19"/>
        <polygon class="cls-81" points="36.37 38.21 31.76 37.83 31.76 37.8 36.37 38.19 36.37 38.21"/>
        <polygon class="cls-92" points="36.37 38.23 31.76 37.85 31.76 37.83 36.37 38.21 36.37 38.23"/>
        <polygon class="cls-27" points="36.37 38.25 31.76 37.87 31.76 37.85 36.37 38.23 36.37 38.25"/>
        <polygon class="cls-27" points="36.37 38.27 31.76 37.89 31.76 37.87 36.37 38.25 36.37 38.27"/>
        <polygon class="cls-164" points="36.37 38.29 31.76 37.91 31.76 37.89 36.37 38.27 36.37 38.29"/>
        <polygon class="cls-72" points="36.37 38.31 31.76 37.93 31.76 37.91 36.37 38.29 36.37 38.31"/>
        <polygon class="cls-159" points="36.37 38.33 31.76 37.95 31.76 37.93 36.37 38.31 36.37 38.33"/>
        <polygon class="cls-78" points="36.37 38.36 31.76 37.97 31.76 37.95 36.37 38.33 36.37 38.36"/>
        <polygon class="cls-34" points="36.37 38.38 31.76 38 31.76 37.97 36.37 38.36 36.37 38.38"/>
        <polygon class="cls-133" points="36.37 38.4 31.76 38.02 31.76 38 36.37 38.38 36.37 38.4"/>
        <polygon class="cls-173" points="36.37 38.42 31.76 38.04 31.76 38.02 36.37 38.4 36.37 38.42"/>
        <polygon class="cls-73" points="36.37 38.44 31.76 38.06 31.76 38.04 36.37 38.42 36.37 38.44"/>
        <polygon class="cls-37" points="36.37 38.46 31.76 38.08 31.76 38.06 36.37 38.44 36.37 38.46"/>
        <polygon class="cls-20" points="36.37 38.48 31.76 38.1 31.76 38.08 36.37 38.46 36.37 38.48"/>
        <polygon class="cls-33" points="36.37 38.5 31.76 38.12 31.76 38.1 36.37 38.48 36.37 38.5"/>
        <polygon class="cls-124" points="36.37 38.53 31.76 38.14 31.76 38.12 36.37 38.5 36.37 38.53"/>
        <polygon class="cls-86" points="36.37 38.55 31.76 38.17 31.76 38.14 36.37 38.53 36.37 38.55"/>
        <polygon class="cls-166" points="36.37 38.57 31.76 38.19 31.76 38.17 36.37 38.55 36.37 38.57"/>
        <polygon class="cls-31" points="36.37 38.59 31.76 38.21 31.76 38.19 36.37 38.57 36.37 38.59"/>
        <polygon class="cls-117" points="36.37 38.61 31.76 38.23 31.76 38.21 36.37 38.59 36.37 38.61"/>
        <polygon class="cls-106" points="36.37 38.63 31.76 38.25 31.76 38.23 36.37 38.61 36.37 38.63"/>
        <polygon class="cls-8" points="36.37 38.65 31.76 38.27 31.76 38.25 36.37 38.63 36.37 38.65"/>
        <polygon class="cls-136" points="36.37 38.67 31.76 38.29 31.76 38.27 36.37 38.65 36.37 38.67"/>
        <polygon class="cls-136" points="36.37 38.7 31.76 38.31 31.76 38.29 36.37 38.67 36.37 38.7"/>
        <polygon class="cls-29" points="36.37 38.72 31.76 38.34 31.76 38.31 36.37 38.7 36.37 38.72"/>
        <polygon class="cls-18" points="36.37 38.74 31.76 38.36 31.76 38.34 36.37 38.72 36.37 38.74"/>
        <polygon class="cls-122" points="36.37 38.76 31.76 38.38 31.76 38.36 36.37 38.74 36.37 38.76"/>
        <polygon class="cls-89" points="36.37 38.78 31.76 38.4 31.76 38.38 36.37 38.76 36.37 38.78"/>
        <polygon class="cls-125" points="36.37 38.8 31.76 38.42 31.76 38.4 36.37 38.78 36.37 38.8"/>
        <polygon class="cls-125" points="36.37 38.82 31.76 38.44 31.76 38.42 36.37 38.8 36.37 38.82"/>
        <polygon class="cls-55" points="36.37 38.84 31.76 38.46 31.76 38.44 36.37 38.82 36.37 38.84"/>
        <polygon class="cls-55" points="36.37 38.87 31.76 38.48 31.76 38.46 36.37 38.84 36.37 38.87"/>
        <polygon class="cls-53" points="36.37 38.89 31.76 38.51 31.76 38.48 36.37 38.87 36.37 38.89"/>
        <polygon class="cls-165" points="36.37 38.91 31.76 38.53 31.76 38.51 36.37 38.89 36.37 38.91"/>
        <polygon class="cls-165" points="36.37 38.93 31.76 38.55 31.76 38.53 36.37 38.91 36.37 38.93"/>
        <polygon class="cls-9" points="36.37 38.95 31.76 38.57 31.76 38.55 36.37 38.93 36.37 38.95"/>
        <polygon class="cls-69" points="36.37 38.97 31.76 38.59 31.76 38.57 36.37 38.95 36.37 38.97"/>
        <polygon class="cls-150" points="36.37 38.99 31.76 38.61 31.76 38.59 36.37 38.97 36.37 38.99"/>
        <polygon class="cls-58" points="36.37 39.01 31.76 38.63 31.76 38.61 36.37 38.99 36.37 39.01"/>
        <polygon class="cls-170" points="36.37 39.04 31.76 38.66 31.76 38.63 36.37 39.01 36.37 39.04"/>
        <polygon class="cls-110" points="36.37 39.06 31.76 38.68 31.76 38.66 36.37 39.04 36.37 39.06"/>
        <polygon class="cls-110" points="36.37 39.08 31.76 38.7 31.76 38.68 36.37 39.06 36.37 39.08"/>
        <polygon class="cls-3" points="36.37 39.1 31.76 38.72 31.76 38.7 36.37 39.08 36.37 39.1"/>
        <polygon class="cls-50" points="36.37 39.12 31.76 38.74 31.76 38.72 36.37 39.1 36.37 39.12"/>
        <polygon class="cls-154" points="36.37 39.14 31.76 38.76 31.76 38.74 36.37 39.12 36.37 39.14"/>
        <polygon class="cls-154" points="36.37 39.16 31.76 38.78 31.76 38.76 36.37 39.14 36.37 39.16"/>
        <polygon class="cls-84" points="36.37 39.19 31.76 38.8 31.76 38.78 36.37 39.16 36.37 39.19"/>
        <polygon class="cls-45" points="36.37 39.21 31.76 38.83 31.76 38.8 36.37 39.19 36.37 39.21"/>
        <polygon class="cls-45" points="36.37 39.23 31.76 38.85 31.76 38.83 36.37 39.21 36.37 39.23"/>
        <polygon class="cls-94" points="36.37 39.25 31.76 38.87 31.76 38.85 36.37 39.23 36.37 39.25"/>
        <polygon class="cls-94" points="36.37 39.27 31.76 38.89 31.76 38.87 36.37 39.25 36.37 39.27"/>
        <polygon class="cls-103" points="36.37 39.29 31.76 38.91 31.76 38.89 36.37 39.27 36.37 39.29"/>
        <polygon class="cls-14" points="36.37 39.31 31.76 38.93 31.76 38.91 36.37 39.29 36.37 39.31"/>
        <polygon class="cls-101" points="36.37 39.33 31.76 38.95 31.76 38.93 36.37 39.31 36.37 39.33"/>
        <polygon class="cls-101" points="36.37 39.36 31.76 38.97 31.76 38.95 36.37 39.33 36.37 39.36"/>
        <polygon class="cls-41" points="36.37 39.38 31.76 39 31.76 38.97 36.37 39.36 36.37 39.38"/>
        <polygon class="cls-171" points="36.37 39.4 31.76 39.02 31.76 39 36.37 39.38 36.37 39.4"/>
        <polygon class="cls-171" points="36.37 39.42 31.76 39.04 31.76 39.02 36.37 39.4 36.37 39.42"/>
        <polygon class="cls-112" points="36.37 39.44 31.76 39.06 31.76 39.04 36.37 39.42 36.37 39.44"/>
        <polygon class="cls-54" points="36.37 39.46 31.76 39.08 31.76 39.06 36.37 39.44 36.37 39.46"/>
        <polygon class="cls-30" points="36.37 39.48 31.76 39.1 31.76 39.08 36.37 39.46 36.37 39.48"/>
        <polygon class="cls-24" points="36.37 39.5 31.76 39.12 31.76 39.1 36.37 39.48 36.37 39.5"/>
        <polygon class="cls-24" points="36.37 39.53 31.76 39.14 31.76 39.12 36.37 39.5 36.37 39.53"/>
        <polygon class="cls-162" points="36.37 39.55 31.76 39.17 31.76 39.14 36.37 39.53 36.37 39.55"/>
        <polygon class="cls-127" points="36.37 39.57 31.76 39.19 31.76 39.17 36.37 39.55 36.37 39.57"/>
        <polygon class="cls-127" points="36.37 39.59 31.76 39.21 31.76 39.19 36.37 39.57 36.37 39.59"/>
        <polygon class="cls-127" points="36.37 39.61 31.76 39.23 31.76 39.21 36.37 39.59 36.37 39.61"/>
        <polygon class="cls-88" points="36.37 39.63 31.76 39.25 31.76 39.23 36.37 39.61 36.37 39.63"/>
        <polygon class="cls-88" points="36.37 39.65 31.76 39.27 31.76 39.25 36.37 39.63 36.37 39.65"/>
        <polygon class="cls-77" points="36.37 39.67 31.76 39.29 31.76 39.27 36.37 39.65 36.37 39.67"/>
        <polygon class="cls-77" points="36.37 39.7 31.76 39.31 31.76 39.29 36.37 39.67 36.37 39.7"/>
        <polygon class="cls-137" points="36.37 39.72 31.76 39.34 31.76 39.31 36.37 39.7 36.37 39.72"/>
        <polygon class="cls-4" points="36.37 39.74 31.76 39.36 31.76 39.34 36.37 39.72 36.37 39.74"/>
        <polygon class="cls-4" points="36.37 39.76 31.76 39.38 31.76 39.36 36.37 39.74 36.37 39.76"/>
        <polygon class="cls-44" points="36.37 39.78 31.76 39.4 31.76 39.38 36.37 39.76 36.37 39.78"/>
        <polygon class="cls-59" points="36.37 39.8 31.76 39.42 31.76 39.4 36.37 39.78 36.37 39.8"/>
        <polygon class="cls-83" points="36.37 39.82 31.76 39.44 31.76 39.42 36.37 39.8 36.37 39.82"/>
        <polygon class="cls-83" points="36.37 39.84 31.76 39.46 31.76 39.44 36.37 39.82 36.37 39.84"/>
        <polygon class="cls-83" points="36.37 39.87 31.76 39.48 31.76 39.46 36.37 39.84 36.37 39.87"/>
        <polygon class="cls-172" points="36.37 39.89 31.76 39.51 31.76 39.48 36.37 39.87 36.37 39.89"/>
        <polygon class="cls-11" points="36.37 39.91 31.76 39.53 31.76 39.51 36.37 39.89 36.37 39.91"/>
        <polygon class="cls-11" points="36.37 39.93 31.76 39.55 31.76 39.53 36.37 39.91 36.37 39.93"/>
        <polygon class="cls-167" points="36.37 39.95 31.76 39.57 31.76 39.55 36.37 39.93 36.37 39.95"/>
        <polygon class="cls-135" points="36.37 39.97 31.76 39.59 31.76 39.57 36.37 39.95 36.37 39.97"/>
        <polygon class="cls-135" points="36.37 39.99 31.76 39.61 31.76 39.59 36.37 39.97 36.37 39.99"/>
        <polygon class="cls-135" points="36.37 40.02 31.76 39.63 31.76 39.61 36.37 39.99 36.37 40.02"/>
        <polygon class="cls-135" points="36.37 40.04 31.76 39.66 31.76 39.63 36.37 40.02 36.37 40.04"/>
        <polygon class="cls-39" points="36.37 40.06 31.76 39.68 31.76 39.66 36.37 40.04 36.37 40.06"/>
        <polygon class="cls-95" points="36.37 40.08 31.76 39.7 31.76 39.68 36.37 40.06 36.37 40.08"/>
        <polygon class="cls-19" points="36.32 40.1 31.76 39.72 31.76 39.7 36.37 40.08 36.37 40.1 36.32 40.1"/>
        <polygon class="cls-19" points="36.06 40.1 31.76 39.74 31.76 39.72 36.32 40.1 36.06 40.1"/>
        <polygon class="cls-19" points="35.8 40.1 31.76 39.76 31.76 39.74 36.06 40.1 35.8 40.1"/>
        <polygon class="cls-19" points="35.54 40.1 31.76 39.78 31.76 39.76 35.8 40.1 35.54 40.1"/>
        <polygon class="cls-19" points="35.29 40.1 31.76 39.8 31.76 39.78 35.54 40.1 35.29 40.1"/>
        <polygon class="cls-19" points="35.03 40.1 31.76 39.83 31.76 39.8 35.29 40.1 35.03 40.1"/>
        <polygon class="cls-66" points="34.77 40.1 31.76 39.85 31.76 39.83 35.03 40.1 34.77 40.1"/>
        <polygon class="cls-146" points="34.51 40.1 31.76 39.87 31.76 39.85 34.77 40.1 34.51 40.1"/>
        <polygon class="cls-146" points="34.26 40.1 31.76 39.89 31.76 39.87 34.51 40.1 34.26 40.1"/>
        <polygon class="cls-146" points="34 40.1 31.76 39.91 31.76 39.89 34.26 40.1 34 40.1"/>
        <polygon class="cls-146" points="33.74 40.1 31.76 39.93 31.76 39.91 34 40.1 33.74 40.1"/>
        <polygon class="cls-146" points="33.48 40.1 31.76 39.95 31.76 39.93 33.74 40.1 33.48 40.1"/>
        <polygon class="cls-146" points="33.23 40.1 31.76 39.97 31.76 39.95 33.48 40.1 33.23 40.1"/>
        <polygon class="cls-146" points="32.97 40.1 31.76 40 31.76 39.97 33.23 40.1 32.97 40.1"/>
        <polygon class="cls-35" points="32.71 40.1 31.76 40.02 31.76 40 32.97 40.1 32.71 40.1"/>
        <polygon class="cls-35" points="32.45 40.1 31.76 40.04 31.76 40.02 32.71 40.1 32.45 40.1"/>
        <polygon class="cls-51" points="32.2 40.1 31.76 40.06 31.76 40.04 32.45 40.1 32.2 40.1"/>
        <polygon class="cls-51" points="31.94 40.1 31.76 40.08 31.76 40.06 32.2 40.1 31.94 40.1"/>
        <polygon class="cls-51" points="31.76 40.08 31.94 40.1 31.76 40.1 31.76 40.08"/>
      </g>
      <path class="cls-42" d="M33.96,39.31c-.65-.05-1.15-.71-1.09-1.42.06-.72.66-1.28,1.31-1.22.65.05,1.15.7,1.09,1.42-.06.72-.66,1.28-1.31,1.22Z"/>
      <path class="cls-128" d="M34.02,39.05c-.45-.04-.92-.53-.87-1.14.05-.61.6-1.02,1.05-.98.45.04.92.53.87,1.14-.05.61-.59,1.02-1.05.98Z"/>
      <g class="cls-116">
        <path class="cls-148" d="M37.65,40.88s-.05,0-.17.04c-.08-1.32-.34-3.13-1.08-3.49-1.11-.56-3.59-1.37-6.79.58-.32-.57-.49-1.01-.49-1.01,3.48-2.48,6.21-1.59,7.39-1,1.19.59,1.13,4.88,1.13,4.88Z"/>
      </g>
      <path class="cls-93" d="M33.65,37.55c-.02.22-.25.38-.51.36-.26-.02-.46-.22-.44-.44.02-.22.24-.38.51-.36.26.02.46.22.44.44Z"/>
      <path class="cls-93" d="M35.11,38.82c0,.11-.12.19-.25.18-.13,0-.23-.11-.22-.22,0-.11.12-.19.25-.18.13.01.23.11.22.22Z"/>
      <path class="cls-108" d="M44.7,34.62s.38-.59,1.18-1.19c.4-.3.89-.63,1.47-.87.58-.24,1.23-.43,1.89-.52.67-.07,1.33-.03,1.95.05.61.11,1.15.29,1.6.48.46.16.79.41,1.03.53.24.15.37.23.37.23,0,0-.15-.04-.43-.1-.27-.07-.64-.18-1.1-.25-.23-.03-.47-.1-.73-.11-.26-.02-.53-.04-.81-.06-.56,0-1.15.02-1.73.16-.58.1-1.14.28-1.63.51-.49.23-.96.46-1.31.72-.75.49-1.15.9-1.15.9-.15.15-.39.15-.54,0-.13-.13-.15-.33-.05-.48h0Z"/>
      <path class="cls-93" d="M54.59,37.01s-1.48,3.68-3.78,4.04c-2.3.36-4.75-.17-4.75-.17,0,0-.06-4.28,1.13-4.87,1.19-.59,3.92-1.48,7.39.99Z"/>
      <g class="cls-116">
        <path class="cls-148" d="M46.07,40.88s.05,0,.17.04c.08-1.32.34-3.13,1.08-3.49,1.11-.56,3.59-1.37,6.79.58.32-.57.49-1.01.49-1.01-3.48-2.48-6.21-1.59-7.39-1-1.2.59-1.13,4.88-1.13,4.88Z"/>
      </g>
      <g class="cls-75">
        <polygon class="cls-120" points="51.97 36.23 47.36 35.85 47.36 35.42 51.97 35.42 51.97 36.23"/>
        <polygon class="cls-120" points="51.97 36.25 47.36 35.87 47.36 35.85 51.97 36.23 51.97 36.25"/>
        <polygon class="cls-163" points="51.97 36.28 47.36 35.89 47.36 35.87 51.97 36.25 51.97 36.28"/>
        <polygon class="cls-156" points="51.97 36.3 47.36 35.92 47.36 35.89 51.97 36.28 51.97 36.3"/>
        <polygon class="cls-82" points="51.97 36.32 47.36 35.94 47.36 35.92 51.97 36.3 51.97 36.32"/>
        <polygon class="cls-13" points="51.97 36.34 47.36 35.96 47.36 35.94 51.97 36.32 51.97 36.34"/>
        <polygon class="cls-134" points="51.97 36.36 47.36 35.98 47.36 35.96 51.97 36.34 51.97 36.36"/>
        <polygon class="cls-63" points="51.97 36.38 47.36 36 47.36 35.98 51.97 36.36 51.97 36.38"/>
        <polygon class="cls-2" points="51.97 36.4 47.36 36.02 47.36 36 51.97 36.38 51.97 36.4"/>
        <polygon class="cls-12" points="51.97 36.42 47.36 36.04 47.36 36.02 51.97 36.4 51.97 36.42"/>
        <polygon class="cls-68" points="51.97 36.45 47.36 36.06 47.36 36.04 51.97 36.42 51.97 36.45"/>
        <polygon class="cls-47" points="51.97 36.47 47.36 36.09 47.36 36.06 51.97 36.45 51.97 36.47"/>
        <polygon class="cls-61" points="51.97 36.49 47.36 36.11 47.36 36.09 51.97 36.47 51.97 36.49"/>
        <polygon class="cls-107" points="51.97 36.51 47.36 36.13 47.36 36.11 51.97 36.49 51.97 36.51"/>
        <polygon class="cls-144" points="51.97 36.53 47.36 36.15 47.36 36.13 51.97 36.51 51.97 36.53"/>
        <polygon class="cls-141" points="51.97 36.55 47.36 36.17 47.36 36.15 51.97 36.53 51.97 36.55"/>
        <polygon class="cls-62" points="51.97 36.57 47.36 36.19 47.36 36.17 51.97 36.55 51.97 36.57"/>
        <polygon class="cls-48" points="51.97 36.59 47.36 36.21 47.36 36.19 51.97 36.57 51.97 36.59"/>
        <polygon class="cls-155" points="51.97 36.62 47.36 36.23 47.36 36.21 51.97 36.59 51.97 36.62"/>
        <polygon class="cls-147" points="51.97 36.64 47.36 36.26 47.36 36.23 51.97 36.62 51.97 36.64"/>
        <polygon class="cls-119" points="51.97 36.66 47.36 36.28 47.36 36.26 51.97 36.64 51.97 36.66"/>
        <polygon class="cls-142" points="51.97 36.68 47.36 36.3 47.36 36.28 51.97 36.66 51.97 36.68"/>
        <polygon class="cls-123" points="51.97 36.7 47.36 36.32 47.36 36.3 51.97 36.68 51.97 36.7"/>
        <polygon class="cls-16" points="51.97 36.72 47.36 36.34 47.36 36.32 51.97 36.7 51.97 36.72"/>
        <polygon class="cls-153" points="51.97 36.74 47.36 36.36 47.36 36.34 51.97 36.72 51.97 36.74"/>
        <polygon class="cls-17" points="51.97 36.76 47.36 36.38 47.36 36.36 51.97 36.74 51.97 36.76"/>
        <polygon class="cls-105" points="51.97 36.79 47.36 36.4 47.36 36.38 51.97 36.76 51.97 36.79"/>
        <polygon class="cls-26" points="51.97 36.81 47.36 36.43 47.36 36.4 51.97 36.79 51.97 36.81"/>
        <polygon class="cls-38" points="51.97 36.83 47.36 36.45 47.36 36.43 51.97 36.81 51.97 36.83"/>
        <polygon class="cls-157" points="51.97 36.85 47.36 36.47 47.36 36.45 51.97 36.83 51.97 36.85"/>
        <polygon class="cls-113" points="51.97 36.87 47.36 36.49 47.36 36.47 51.97 36.85 51.97 36.87"/>
        <polygon class="cls-104" points="51.97 36.89 47.36 36.51 47.36 36.49 51.97 36.87 51.97 36.89"/>
        <polygon class="cls-102" points="51.97 36.91 47.36 36.53 47.36 36.51 51.97 36.89 51.97 36.91"/>
        <polygon class="cls-98" points="51.97 36.93 47.36 36.55 47.36 36.53 51.97 36.91 51.97 36.93"/>
        <polygon class="cls-74" points="51.97 36.96 47.36 36.58 47.36 36.55 51.97 36.93 51.97 36.96"/>
        <polygon class="cls-6" points="51.97 36.98 47.36 36.6 47.36 36.58 51.97 36.96 51.97 36.98"/>
        <polygon class="cls-111" points="51.97 37 47.36 36.62 47.36 36.6 51.97 36.98 51.97 37"/>
        <polygon class="cls-121" points="51.97 37.02 47.36 36.64 47.36 36.62 51.97 37 51.97 37.02"/>
        <polygon class="cls-109" points="51.97 37.04 47.36 36.66 47.36 36.64 51.97 37.02 51.97 37.04"/>
        <polygon class="cls-149" points="51.97 37.06 47.36 36.68 47.36 36.66 51.97 37.04 51.97 37.06"/>
        <polygon class="cls-71" points="51.97 37.08 47.36 36.7 47.36 36.68 51.97 37.06 51.97 37.08"/>
        <polygon class="cls-96" points="51.97 37.11 47.36 36.72 47.36 36.7 51.97 37.08 51.97 37.11"/>
        <polygon class="cls-76" points="51.97 37.13 47.36 36.75 47.36 36.72 51.97 37.11 51.97 37.13"/>
        <polygon class="cls-126" points="51.97 37.15 47.36 36.77 47.36 36.75 51.97 37.13 51.97 37.15"/>
        <polygon class="cls-130" points="51.97 37.17 47.36 36.79 47.36 36.77 51.97 37.15 51.97 37.17"/>
        <polygon class="cls-99" points="51.97 37.19 47.36 36.81 47.36 36.79 51.97 37.17 51.97 37.19"/>
        <polygon class="cls-175" points="51.97 37.21 47.36 36.83 47.36 36.81 51.97 37.19 51.97 37.21"/>
        <polygon class="cls-23" points="51.97 37.23 47.36 36.85 47.36 36.83 51.97 37.21 51.97 37.23"/>
        <polygon class="cls-64" points="51.97 37.25 47.36 36.87 47.36 36.85 51.97 37.23 51.97 37.25"/>
        <polygon class="cls-32" points="51.97 37.28 47.36 36.89 47.36 36.87 51.97 37.25 51.97 37.28"/>
        <polygon class="cls-65" points="51.97 37.3 47.36 36.92 47.36 36.89 51.97 37.28 51.97 37.3"/>
        <polygon class="cls-151" points="51.97 37.32 47.36 36.94 47.36 36.92 51.97 37.3 51.97 37.32"/>
        <polygon class="cls-28" points="51.97 37.34 47.36 36.96 47.36 36.94 51.97 37.32 51.97 37.34"/>
        <polygon class="cls-52" points="51.97 37.36 47.36 36.98 47.36 36.96 51.97 37.34 51.97 37.36"/>
        <polygon class="cls-138" points="51.97 37.38 47.36 37 47.36 36.98 51.97 37.36 51.97 37.38"/>
        <polygon class="cls-160" points="51.97 37.4 47.36 37.02 47.36 37 51.97 37.38 51.97 37.4"/>
        <polygon class="cls-118" points="51.97 37.42 47.36 37.04 47.36 37.02 51.97 37.4 51.97 37.42"/>
        <polygon class="cls-97" points="51.97 37.45 47.36 37.06 47.36 37.04 51.97 37.42 51.97 37.45"/>
        <polygon class="cls-79" points="51.97 37.47 47.36 37.09 47.36 37.06 51.97 37.45 51.97 37.47"/>
        <polygon class="cls-169" points="51.97 37.49 47.36 37.11 47.36 37.09 51.97 37.47 51.97 37.49"/>
        <polygon class="cls-129" points="51.97 37.51 47.36 37.13 47.36 37.11 51.97 37.49 51.97 37.51"/>
        <polygon class="cls-158" points="51.97 37.53 47.36 37.15 47.36 37.13 51.97 37.51 51.97 37.53"/>
        <polygon class="cls-40" points="51.97 37.55 47.36 37.17 47.36 37.15 51.97 37.53 51.97 37.55"/>
        <polygon class="cls-176" points="51.97 37.57 47.36 37.19 47.36 37.17 51.97 37.55 51.97 37.57"/>
        <polygon class="cls-21" points="51.97 37.59 47.36 37.21 47.36 37.19 51.97 37.57 51.97 37.59"/>
        <polygon class="cls-140" points="51.97 37.62 47.36 37.23 47.36 37.21 51.97 37.59 51.97 37.62"/>
        <polygon class="cls-67" points="51.97 37.64 47.36 37.26 47.36 37.23 51.97 37.62 51.97 37.64"/>
        <polygon class="cls-91" points="51.97 37.66 47.36 37.28 47.36 37.26 51.97 37.64 51.97 37.66"/>
        <polygon class="cls-152" points="51.97 37.68 47.36 37.3 47.36 37.28 51.97 37.66 51.97 37.68"/>
        <polygon class="cls-43" points="51.97 37.7 47.36 37.32 47.36 37.3 51.97 37.68 51.97 37.7"/>
        <polygon class="cls-46" points="51.97 37.72 47.36 37.34 47.36 37.32 51.97 37.7 51.97 37.72"/>
        <polygon class="cls-132" points="51.97 37.74 47.36 37.36 47.36 37.34 51.97 37.72 51.97 37.74"/>
        <polygon class="cls-60" points="51.97 37.76 47.36 37.38 47.36 37.36 51.97 37.74 51.97 37.76"/>
        <polygon class="cls-10" points="51.97 37.79 47.36 37.4 47.36 37.38 51.97 37.76 51.97 37.79"/>
        <polygon class="cls-131" points="51.97 37.81 47.36 37.43 47.36 37.4 51.97 37.79 51.97 37.81"/>
        <polygon class="cls-49" points="51.97 37.83 47.36 37.45 47.36 37.43 51.97 37.81 51.97 37.83"/>
        <polygon class="cls-114" points="51.97 37.85 47.36 37.47 47.36 37.45 51.97 37.83 51.97 37.85"/>
        <polygon class="cls-139" points="51.97 37.87 47.36 37.49 47.36 37.47 51.97 37.85 51.97 37.87"/>
        <polygon class="cls-100" points="51.97 37.89 47.36 37.51 47.36 37.49 51.97 37.87 51.97 37.89"/>
        <polygon class="cls-85" points="51.97 37.91 47.36 37.53 47.36 37.51 51.97 37.89 51.97 37.91"/>
        <polygon class="cls-87" points="51.97 37.94 47.36 37.55 47.36 37.53 51.97 37.91 51.97 37.94"/>
        <polygon class="cls-90" points="51.97 37.96 47.36 37.57 47.36 37.55 51.97 37.94 51.97 37.96"/>
        <polygon class="cls-145" points="51.97 37.98 47.36 37.6 47.36 37.57 51.97 37.96 51.97 37.98"/>
        <polygon class="cls-57" points="51.97 38 47.36 37.62 47.36 37.6 51.97 37.98 51.97 38"/>
        <polygon class="cls-70" points="51.97 38.02 47.36 37.64 47.36 37.62 51.97 38 51.97 38.02"/>
        <polygon class="cls-15" points="51.97 38.04 47.36 37.66 47.36 37.64 51.97 38.02 51.97 38.04"/>
        <polygon class="cls-81" points="51.97 38.06 47.36 37.68 47.36 37.66 51.97 38.04 51.97 38.06"/>
        <polygon class="cls-81" points="51.97 38.08 47.36 37.7 47.36 37.68 51.97 38.06 51.97 38.08"/>
        <polygon class="cls-92" points="51.97 38.11 47.36 37.72 47.36 37.7 51.97 38.08 51.97 38.11"/>
        <polygon class="cls-27" points="51.97 38.13 47.36 37.75 47.36 37.72 51.97 38.11 51.97 38.13"/>
        <polygon class="cls-27" points="51.97 38.15 47.36 37.77 47.36 37.75 51.97 38.13 51.97 38.15"/>
        <polygon class="cls-164" points="51.97 38.17 47.36 37.79 47.36 37.77 51.97 38.15 51.97 38.17"/>
        <polygon class="cls-72" points="51.97 38.19 47.36 37.81 47.36 37.79 51.97 38.17 51.97 38.19"/>
        <polygon class="cls-159" points="51.97 38.21 47.36 37.83 47.36 37.81 51.97 38.19 51.97 38.21"/>
        <polygon class="cls-78" points="51.97 38.23 47.36 37.85 47.36 37.83 51.97 38.21 51.97 38.23"/>
        <polygon class="cls-34" points="51.97 38.25 47.36 37.87 47.36 37.85 51.97 38.23 51.97 38.25"/>
        <polygon class="cls-133" points="51.97 38.28 47.36 37.89 47.36 37.87 51.97 38.25 51.97 38.28"/>
        <polygon class="cls-173" points="51.97 38.3 47.36 37.92 47.36 37.89 51.97 38.28 51.97 38.3"/>
        <polygon class="cls-73" points="51.97 38.32 47.36 37.94 47.36 37.92 51.97 38.3 51.97 38.32"/>
        <polygon class="cls-37" points="51.97 38.34 47.36 37.96 47.36 37.94 51.97 38.32 51.97 38.34"/>
        <polygon class="cls-20" points="51.97 38.36 47.36 37.98 47.36 37.96 51.97 38.34 51.97 38.36"/>
        <polygon class="cls-33" points="51.97 38.38 47.36 38 47.36 37.98 51.97 38.36 51.97 38.38"/>
        <polygon class="cls-124" points="51.97 38.4 47.36 38.02 47.36 38 51.97 38.38 51.97 38.4"/>
        <polygon class="cls-86" points="51.97 38.42 47.36 38.04 47.36 38.02 51.97 38.4 51.97 38.42"/>
        <polygon class="cls-166" points="51.97 38.45 47.36 38.06 47.36 38.04 51.97 38.42 51.97 38.45"/>
        <polygon class="cls-31" points="51.97 38.47 47.36 38.09 47.36 38.06 51.97 38.45 51.97 38.47"/>
        <polygon class="cls-117" points="51.97 38.49 47.36 38.11 47.36 38.09 51.97 38.47 51.97 38.49"/>
        <polygon class="cls-106" points="51.97 38.51 47.36 38.13 47.36 38.11 51.97 38.49 51.97 38.51"/>
        <polygon class="cls-8" points="51.97 38.53 47.36 38.15 47.36 38.13 51.97 38.51 51.97 38.53"/>
        <polygon class="cls-136" points="51.97 38.55 47.36 38.17 47.36 38.15 51.97 38.53 51.97 38.55"/>
        <polygon class="cls-136" points="51.97 38.57 47.36 38.19 47.36 38.17 51.97 38.55 51.97 38.57"/>
        <polygon class="cls-29" points="51.97 38.59 47.36 38.21 47.36 38.19 51.97 38.57 51.97 38.59"/>
        <polygon class="cls-18" points="51.97 38.62 47.36 38.23 47.36 38.21 51.97 38.59 51.97 38.62"/>
        <polygon class="cls-122" points="51.97 38.64 47.36 38.26 47.36 38.23 51.97 38.62 51.97 38.64"/>
        <polygon class="cls-89" points="51.97 38.66 47.36 38.28 47.36 38.26 51.97 38.64 51.97 38.66"/>
        <polygon class="cls-125" points="51.97 38.68 47.36 38.3 47.36 38.28 51.97 38.66 51.97 38.68"/>
        <polygon class="cls-125" points="51.97 38.7 47.36 38.32 47.36 38.3 51.97 38.68 51.97 38.7"/>
        <polygon class="cls-55" points="51.97 38.72 47.36 38.34 47.36 38.32 51.97 38.7 51.97 38.72"/>
        <polygon class="cls-55" points="51.97 38.74 47.36 38.36 47.36 38.34 51.97 38.72 51.97 38.74"/>
        <polygon class="cls-53" points="51.97 38.76 47.36 38.38 47.36 38.36 51.97 38.74 51.97 38.76"/>
        <polygon class="cls-165" points="51.97 38.79 47.36 38.4 47.36 38.38 51.97 38.76 51.97 38.79"/>
        <polygon class="cls-165" points="51.97 38.81 47.36 38.43 47.36 38.4 51.97 38.79 51.97 38.81"/>
        <polygon class="cls-9" points="51.97 38.83 47.36 38.45 47.36 38.43 51.97 38.81 51.97 38.83"/>
        <polygon class="cls-69" points="51.97 38.85 47.36 38.47 47.36 38.45 51.97 38.83 51.97 38.85"/>
        <polygon class="cls-150" points="51.97 38.87 47.36 38.49 47.36 38.47 51.97 38.85 51.97 38.87"/>
        <polygon class="cls-58" points="51.97 38.89 47.36 38.51 47.36 38.49 51.97 38.87 51.97 38.89"/>
        <polygon class="cls-170" points="51.97 38.91 47.36 38.53 47.36 38.51 51.97 38.89 51.97 38.91"/>
        <polygon class="cls-110" points="51.97 38.93 47.36 38.55 47.36 38.53 51.97 38.91 51.97 38.93"/>
        <polygon class="cls-110" points="51.97 38.96 47.36 38.58 47.36 38.55 51.97 38.93 51.97 38.96"/>
        <polygon class="cls-3" points="51.97 38.98 47.36 38.6 47.36 38.58 51.97 38.96 51.97 38.98"/>
        <polygon class="cls-50" points="51.97 39 47.36 38.62 47.36 38.6 51.97 38.98 51.97 39"/>
        <polygon class="cls-154" points="51.97 39.02 47.36 38.64 47.36 38.62 51.97 39 51.97 39.02"/>
        <polygon class="cls-154" points="51.97 39.04 47.36 38.66 47.36 38.64 51.97 39.02 51.97 39.04"/>
        <polygon class="cls-84" points="51.97 39.06 47.36 38.68 47.36 38.66 51.97 39.04 51.97 39.06"/>
        <polygon class="cls-45" points="51.97 39.08 47.36 38.7 47.36 38.68 51.97 39.06 51.97 39.08"/>
        <polygon class="cls-45" points="51.97 39.11 47.36 38.72 47.36 38.7 51.97 39.08 51.97 39.11"/>
        <polygon class="cls-94" points="51.97 39.13 47.36 38.75 47.36 38.72 51.97 39.11 51.97 39.13"/>
        <polygon class="cls-94" points="51.97 39.15 47.36 38.77 47.36 38.75 51.97 39.13 51.97 39.15"/>
        <polygon class="cls-103" points="51.97 39.17 47.36 38.79 47.36 38.77 51.97 39.15 51.97 39.17"/>
        <polygon class="cls-14" points="51.97 39.19 47.36 38.81 47.36 38.79 51.97 39.17 51.97 39.19"/>
        <polygon class="cls-101" points="51.97 39.21 47.36 38.83 47.36 38.81 51.97 39.19 51.97 39.21"/>
        <polygon class="cls-101" points="51.97 39.23 47.36 38.85 47.36 38.83 51.97 39.21 51.97 39.23"/>
        <polygon class="cls-41" points="51.97 39.25 47.36 38.87 47.36 38.85 51.97 39.23 51.97 39.25"/>
        <polygon class="cls-171" points="51.97 39.28 47.36 38.89 47.36 38.87 51.97 39.25 51.97 39.28"/>
        <polygon class="cls-171" points="51.97 39.3 47.36 38.92 47.36 38.89 51.97 39.28 51.97 39.3"/>
        <polygon class="cls-112" points="51.97 39.32 47.36 38.94 47.36 38.92 51.97 39.3 51.97 39.32"/>
        <polygon class="cls-54" points="51.97 39.34 47.36 38.96 47.36 38.94 51.97 39.32 51.97 39.34"/>
        <polygon class="cls-30" points="51.97 39.36 47.36 38.98 47.36 38.96 51.97 39.34 51.97 39.36"/>
        <polygon class="cls-24" points="51.97 39.38 47.36 39 47.36 38.98 51.97 39.36 51.97 39.38"/>
        <polygon class="cls-24" points="51.97 39.4 47.36 39.02 47.36 39 51.97 39.38 51.97 39.4"/>
        <polygon class="cls-162" points="51.97 39.42 47.36 39.04 47.36 39.02 51.97 39.4 51.97 39.42"/>
        <polygon class="cls-127" points="51.97 39.45 47.36 39.06 47.36 39.04 51.97 39.42 51.97 39.45"/>
        <polygon class="cls-127" points="51.97 39.47 47.36 39.09 47.36 39.06 51.97 39.45 51.97 39.47"/>
        <polygon class="cls-127" points="51.97 39.49 47.36 39.11 47.36 39.09 51.97 39.47 51.97 39.49"/>
        <polygon class="cls-88" points="51.97 39.51 47.36 39.13 47.36 39.11 51.97 39.49 51.97 39.51"/>
        <polygon class="cls-88" points="51.97 39.53 47.36 39.15 47.36 39.13 51.97 39.51 51.97 39.53"/>
        <polygon class="cls-77" points="51.97 39.55 47.36 39.17 47.36 39.15 51.97 39.53 51.97 39.55"/>
        <polygon class="cls-77" points="51.97 39.57 47.36 39.19 47.36 39.17 51.97 39.55 51.97 39.57"/>
        <polygon class="cls-137" points="51.97 39.59 47.36 39.21 47.36 39.19 51.97 39.57 51.97 39.59"/>
        <polygon class="cls-4" points="51.97 39.62 47.36 39.23 47.36 39.21 51.97 39.59 51.97 39.62"/>
        <polygon class="cls-4" points="51.97 39.64 47.36 39.26 47.36 39.23 51.97 39.62 51.97 39.64"/>
        <polygon class="cls-44" points="51.97 39.66 47.36 39.28 47.36 39.26 51.97 39.64 51.97 39.66"/>
        <polygon class="cls-59" points="51.97 39.68 47.36 39.3 47.36 39.28 51.97 39.66 51.97 39.68"/>
        <polygon class="cls-83" points="51.97 39.7 47.36 39.32 47.36 39.3 51.97 39.68 51.97 39.7"/>
        <polygon class="cls-83" points="51.97 39.72 47.36 39.34 47.36 39.32 51.97 39.7 51.97 39.72"/>
        <polygon class="cls-83" points="51.97 39.74 47.36 39.36 47.36 39.34 51.97 39.72 51.97 39.74"/>
        <polygon class="cls-172" points="51.97 39.76 47.36 39.38 47.36 39.36 51.97 39.74 51.97 39.76"/>
        <polygon class="cls-11" points="51.97 39.79 47.36 39.4 47.36 39.38 51.97 39.76 51.97 39.79"/>
        <polygon class="cls-11" points="51.97 39.81 47.36 39.43 47.36 39.4 51.97 39.79 51.97 39.81"/>
        <polygon class="cls-167" points="51.97 39.83 47.36 39.45 47.36 39.43 51.97 39.81 51.97 39.83"/>
        <polygon class="cls-135" points="51.97 39.85 47.36 39.47 47.36 39.45 51.97 39.83 51.97 39.85"/>
        <polygon class="cls-135" points="51.97 39.87 47.36 39.49 47.36 39.47 51.97 39.85 51.97 39.87"/>
        <polygon class="cls-135" points="51.97 39.89 47.36 39.51 47.36 39.49 51.97 39.87 51.97 39.89"/>
        <polygon class="cls-135" points="51.97 39.91 47.36 39.53 47.36 39.51 51.97 39.89 51.97 39.91"/>
        <polygon class="cls-39" points="51.97 39.93 47.36 39.55 47.36 39.53 51.97 39.91 51.97 39.93"/>
        <polygon class="cls-95" points="51.97 39.96 47.36 39.58 47.36 39.55 51.97 39.93 51.97 39.96"/>
        <polygon class="cls-19" points="51.92 39.97 47.36 39.6 47.36 39.58 51.97 39.96 51.97 39.97 51.92 39.97"/>
        <polygon class="cls-19" points="51.66 39.97 47.36 39.62 47.36 39.6 51.92 39.97 51.66 39.97"/>
        <polygon class="cls-19" points="51.4 39.97 47.36 39.64 47.36 39.62 51.66 39.97 51.4 39.97"/>
        <polygon class="cls-19" points="51.14 39.97 47.36 39.66 47.36 39.64 51.4 39.97 51.14 39.97"/>
        <polygon class="cls-19" points="50.89 39.97 47.36 39.68 47.36 39.66 51.14 39.97 50.89 39.97"/>
        <polygon class="cls-19" points="50.63 39.97 47.36 39.7 47.36 39.68 50.89 39.97 50.63 39.97"/>
        <polygon class="cls-66" points="50.37 39.97 47.36 39.72 47.36 39.7 50.63 39.97 50.37 39.97"/>
        <polygon class="cls-146" points="50.11 39.97 47.36 39.75 47.36 39.72 50.37 39.97 50.11 39.97"/>
        <polygon class="cls-146" points="49.86 39.97 47.36 39.77 47.36 39.75 50.11 39.97 49.86 39.97"/>
        <polygon class="cls-146" points="49.6 39.97 47.36 39.79 47.36 39.77 49.86 39.97 49.6 39.97"/>
        <polygon class="cls-146" points="49.34 39.97 47.36 39.81 47.36 39.79 49.6 39.97 49.34 39.97"/>
        <polygon class="cls-146" points="49.08 39.97 47.36 39.83 47.36 39.81 49.34 39.97 49.08 39.97"/>
        <polygon class="cls-146" points="48.83 39.97 47.36 39.85 47.36 39.83 49.08 39.97 48.83 39.97"/>
        <polygon class="cls-146" points="48.57 39.97 47.36 39.87 47.36 39.85 48.83 39.97 48.57 39.97"/>
        <polygon class="cls-35" points="48.31 39.97 47.36 39.89 47.36 39.87 48.57 39.97 48.31 39.97"/>
        <polygon class="cls-35" points="48.05 39.97 47.36 39.92 47.36 39.89 48.31 39.97 48.05 39.97"/>
        <polygon class="cls-51" points="47.79 39.97 47.36 39.94 47.36 39.92 48.05 39.97 47.79 39.97"/>
        <polygon class="cls-51" points="47.54 39.97 47.36 39.96 47.36 39.94 47.79 39.97 47.54 39.97"/>
        <polygon class="cls-51" points="47.36 39.96 47.54 39.97 47.36 39.97 47.36 39.96"/>
      </g>
      <path class="cls-42" d="M49.56,39.19c-.65-.05-1.15-.71-1.09-1.42.06-.72.66-1.28,1.31-1.22.65.05,1.15.7,1.09,1.42-.06.72-.66,1.28-1.31,1.23Z"/>
      <path class="cls-128" d="M49.62,38.93c-.45-.04-.92-.53-.87-1.14.05-.61.59-1.02,1.05-.98.45.04.92.53.87,1.14-.05.61-.6,1.02-1.05.98Z"/>
      <path class="cls-93" d="M49.25,37.43c-.02.22-.25.38-.51.36-.26-.02-.46-.22-.44-.44.02-.22.24-.38.51-.36.26.02.46.22.44.44Z"/>
      <path class="cls-93" d="M50.71,38.7c0,.11-.12.19-.25.18-.13-.01-.23-.11-.22-.22,0-.11.12-.19.25-.18.13.01.23.11.22.22Z"/>
      <path class="cls-5" d="M23.02,39.72c.98-1.6,2.52-.93,2.91-.58.41.38.73.88.49,1.82-.13.53-.69.58-.55,1.38.16.9.58.96.82,1.16.24.2.54.35.69.74.15.38.17.78.1,1.13-.15.65-1.11.15-1.74-.14-.42-.19-1.76-1.3-2.1-1.67-.85-.95-1.26-2.78-.61-3.85"/>
      <path class="cls-25" d="M43.73,46.88c.35-.23.75-.12.75-.12,0,0,0,0-.01.02-.08.14-.55.88-.92.87,0,0-.08-.07-.1-.25-.03-.18.12-.41.28-.53Z"/>
      <rect class="cls-108" x="34.64" y="72.18" width="14.14" height="9.17"/>
      <path class="cls-174" d="M33.37,61.28c-1.15,3.36-5.6,5.36-6.27,5.65-.05.02-.11.04-.16.05-.09.03-.18.06-.28.09-.99.33-1.94.63-2.7.88h-.01c-1.11.35-1.86.58-1.89.6-3.4,2.04-2.57,3.02-3.05,5.13h0v.04s-.03.08-.04.15h0c-.06.3-.11.88-.15,1.57h6.27c-.64,2.32-1.1,3.46-1.29,5.93h15.91v-13.69c0-3.51-2.83-6.37-6.35-6.39Z"/>
      <path class="cls-174" d="M50.44,61.28c1.15,3.36,5.6,5.36,6.27,5.65.05.02.11.04.16.05.09.03.18.06.28.09.99.33,1.94.63,2.7.88h.01c1.11.35,1.86.58,1.89.6,3.4,2.04,2.57,3.02,3.05,5.13h0v.04s.03.08.04.15h0c.06.3.11.88.15,1.57h-6.27c.64,2.32,1.1,3.46,1.29,5.93h-15.91v-13.69c0-3.51,2.83-6.37,6.35-6.39Z"/>
      <g>
        <path class="cls-22" d="M39.62,39.17c0,3.11-3.43,6.19-7.37,6.19-5.5,0-6.24-2.74-6.24-5.85s-1.36-5.63,6.7-5.63,6.92,2.19,6.92,5.29"/>
        <path class="cls-22" d="M45.14,39.17c0,3.11,3.43,6.19,7.37,6.19,5.5,0,6.24-2.74,6.24-5.85s1.36-5.63-6.69-5.63-6.92,2.19-6.92,5.29"/>
        <path class="cls-56" d="M29.4,44.56c1.44.44,6.83,1.06,9.07-3.1-4.5-2.31-9.03-1.06-11.66.1.77,2.34,2.06,2.84,2.6,3Z"/>
        <path class="cls-56" d="M55.3,44.56c.5-.15,1.66-.59,2.44-2.56-4.28-2.56-8.38-1.27-11.03.22,2.44,3.32,7.25,2.75,8.59,2.34Z"/>
        <path class="cls-93" d="M25.19,37.47c.18.67.89,5.5,2.48,6.82,2.61,2.17,11.41,2.27,12.93-5.65.21-1.08.48-1.71.95-1.89.19-.07.48-.12.77-.13.29,0,.57.06.76.13.47.18.75.81.96,1.89,1.51,7.92,10.31,7.82,12.93,5.65,1.59-1.32,2.3-6.15,2.48-6.82.18-.67.9-1.08,1.11-1.28.21-.2.05-2.1-.02-2.25-.1-.2-2.07-.5-4.64-.74-2.17-.2-5.65-.07-7.02.12-.56.08-1.59.27-2.6.54-1.13.31-2.25.7-2.71.8-.45.09-.8.13-1.17.12h0s-.06,0-.08,0c-.03,0-.06,0-.08,0h0c-.37.01-.72-.02-1.17-.12-.46-.1-1.58-.49-2.72-.8-1.01-.27-2.03-.47-2.6-.54-1.37-.19-4.86-.33-7.02-.12-2.57.24-4.53.53-4.64.74-.07.15-.23,2.04-.02,2.25.2.21.93.61,1.11,1.28ZM45.47,35.94c.27-.96,2.95-1.53,4.1-1.67,1.15-.15,2.85-.25,4.77,0,2.35.29,4.02.51,3.79,4.02-.33,5.05-2.39,5.86-3.09,6.07-1.61.49-8.23,1.21-9.6-4.99-.3-1.36-.23-2.45.04-3.41ZM30.32,34.26c1.92-.24,3.62-.14,4.76,0,1.15.15,3.84.71,4.11,1.67.26.96.33,2.06.03,3.41-1.37,6.21-8,5.48-9.6,4.99-.71-.21-2.77-1.02-3.09-6.07-.23-3.51,1.43-3.72,3.79-4.02Z"/>
      </g>
      <path class="cls-93" d="M69.39,13.61s-4.66-.61-8.35,2.56c-.09-.63-.24-1.27-.48-1.89.2-.82.45-1.49.45-1.93,0-3.08-4.33-5.63-3.66-8.73.44-2.04,2.21-3.63,2.21-3.63,0,0-2.03,1.4-2.86,2.71-.83,1.31-.55,3.67.83,5.55.71.96.91,2.02.82,3.04-.12-.09-.24-.18-.36-.27,0,0,.15.26.32.67-.08.51-.22,1-.4,1.47-.03.08-.06.16-.1.24-.04.09-.08.18-.12.27-.38-.42-.81-.82-1.26-1.19-.03-.05-.06-.1-.09-.15-.28-.49-.68-.95-1.02-1.39-.33-.44-.68-.85-.94-1.24-.24-.4-.45-.77-.56-1.13-.07-.18-.1-.35-.12-.51-.04-.17-.05-.32-.05-.47-.02-.3.03-.56.04-.78.1-.43.15-.68.15-.68,0,0-.05.06-.15.17-.09.11-.25.27-.39.48-.12.21-.32.47-.41.78-.13.31-.22.66-.2,1.05-.02.52.17,1.1.46,1.69-1.59-.87-2.86-1.34-2.86-1.34,0,0,1.86,1.16,2.69,2.32.44.62,1.03,1.55,1.36,2.8-.94-.41-1.96-.82-3.06-1.23-.96-.87-1.86-1.09-2.46-1.12.45.22.84.44,1.19.65-.59-.21-1.2-.43-1.83-.65-1.99-.7-3.57-1.05-5.01-1.18-2.44-.21-4.5.26-7.45.91-1.41.31-3.01.66-4.97,1-.7.12-1.36.29-1.99.5-.39.13-.76.27-1.12.43.33-1.24.91-2.16,1.35-2.77.83-1.16,2.69-2.32,2.69-2.32,0,0-1.01.38-2.36,1.08.07-.27.11-.52.1-.77.02-.39-.07-.75-.2-1.05-.09-.31-.29-.57-.41-.78-.14-.21-.31-.37-.39-.48-.1-.11-.15-.17-.15-.17,0,0,.06.25.15.68.02.22.07.48.05.78,0,.15,0,.31-.05.47-.03.16-.06.34-.12.51-.11.36-.33.73-.57,1.13-.23.36-.54.73-.84,1.12-.97.66-1.92,1.43-2.69,2.3-.57-1.52-.76-3.32.39-4.88,1.38-1.88,1.66-4.24.83-5.55-.83-1.31-2.86-2.71-2.86-2.71,0,0,1.77,1.58,2.21,3.63.67,3.1-3.66,5.65-3.66,8.73,0,.39.2.98.39,1.69-.4.55-.69,1.14-.88,1.75-3.6-2.75-7.88-2.19-7.88-2.19,4.33.87,6.69,4.22,7.7,6.11.02.13.04.25.07.38-1.22,2.16-1.87,4.3-2.12,5.74-.04.26-.09.5-.13.75-.55,3.48-.4,5.63-.04,7.04.02.31.05.64.08,1.02.06.66.15,1.26.27,1.82.35,2.22.97,3.96,1.22,5.06,1.81,7.82,10.5,12.77,10.5,12.77,0,0-1.11-2.15-2.09-4.24-.76-1.62-2.98-4.32-2.98-8.41s4.96-9.14,4.96-9.14c0,0-2.29,3.18-2.74,6.66-.45,3.49,1.94,6.19,1.94,6.19,0,0-3.04-4.53,1.81-7.91,1.55-1.08,2.84-2.2,3.88-3.23,0,0,0,0,0,0-1.22,2.67,1.23,4.92,1.23,4.92,0,0-.04-3.43,2.49-4.6,3.02-1.39,4.8-2.38,5.92-3.3,1.17-.95,1.65-1.83,2.09-3,.05-.13.08-.24.11-.36.19,0,.38,0,.56,0l2.39,2.8,2.81,3.29c.26.29.69.78,1.2,1.4,1.46,1.83,3.48,4.83,3.48,7.44,0,4.09-1.13,6.86-1.9,8.47-.98,2.08-3.17,4.17-3.17,4.17,0,0,8.69-4.95,10.5-12.77.41-1.76,1.74-5.2,1.42-9.59.01-.24.02-.46.02-.65,0-.67-.13-3.12-.59-5.87-.37-2.3-.99-4.78-1.95-6.62-.02-.03-.04-.06-.05-.09.96-1.85,3.32-5.36,7.78-6.26Z"/>
    </g>
  </g>
</svg>