<?xml version="1.0" encoding="UTF-8"?>
<svg id="Layer_2" data-name="Layer 2" xmlns="http://www.w3.org/2000/svg" xmlns:xlink="http://www.w3.org/1999/xlink" viewBox="0 0 78.88 78.88">
  <defs>
    <style>
      .cls-1 {
        fill: none;
      }

      .cls-2 {
        fill: #354148;
      }

      .cls-3 {
        fill: #7d99ae;
      }

      .cls-4 {
        fill: #84a2b8;
      }

      .cls-5 {
        fill: #d0665f;
      }

      .cls-6 {
        fill: #debaad;
      }

      .cls-7 {
        fill: #4e606b;
      }

      .cls-8 {
        fill: #bf6c6c;
      }

      .cls-9 {
        fill: #7791a4;
      }

      .cls-10 {
        fill: #7b97ab;
      }

      .cls-11 {
        fill: #677e8d;
      }

      .cls-12 {
        fill: #86a3ba;
      }

      .cls-13 {
        fill: #364349;
      }

      .cls-14 {
        fill: #313d43;
      }

      .cls-15 {
        fill: #809cb2;
      }

      .cls-16 {
        fill: #6d8596;
      }

      .cls-17 {
        fill: #44545c;
      }

      .cls-18 {
        fill: #46565f;
      }

      .cls-19 {
        fill: #7893a6;
      }

      .cls-20 {
        fill: #2d4759;
      }

      .cls-21 {
        fill: #87a5bc;
      }

      .cls-22 {
        fill: #748d9f;
      }

      .cls-23 {
        fill: #627886;
      }

      .cls-24 {
        fill: #24241d;
        opacity: .4;
      }

      .cls-25 {
        fill: #576b77;
      }

      .cls-26 {
        fill: #829fb5;
      }

      .cls-27 {
        fill: #b89388;
      }

      .cls-28 {
        fill: #485862;
      }

      .cls-29 {
        fill: #6f8899;
      }

      .cls-30 {
        fill: #5b6f7c;
      }

      .cls-31 {
        fill: #7892a6;
      }

      .cls-32 {
        fill: #829fb4;
      }

      .cls-33 {
        fill: #7690a2;
      }

      .cls-34 {
        fill: #596c79;
      }

      .cls-35 {
        fill: #748ea0;
      }

      .cls-36 {
        fill: #728b9c;
      }

      .cls-37 {
        fill: #88a6be;
      }

      .cls-38 {
        fill: #a88a6b;
      }

      .cls-39 {
        fill: #738d9f;
      }

      .cls-40 {
        fill: #495963;
      }

      .cls-41 {
        fill: #87a4bb;
      }

      .cls-42 {
        fill: #617785;
      }

      .cls-43 {
        fill: #819db3;
      }

      .cls-44 {
        fill: #95bacb;
      }

      .cls-45 {
        fill: #657b8a;
      }

      .cls-46 {
        fill: #85a2b8;
      }

      .cls-47 {
        fill: #7f9bb0;
      }

      .cls-48 {
        fill: #667c8b;
      }

      .cls-49 {
        fill: #38454c;
      }

      .cls-50 {
        fill: #61b0d8;
      }

      .cls-51 {
        fill: #3e4d54;
      }

      .cls-52 {
        fill: #687f8f;
      }

      .cls-53 {
        fill: #7e9aae;
      }

      .cls-54 {
        fill: #88a7be;
      }

      .cls-55 {
        fill: #5b707d;
      }

      .cls-56 {
        fill: #7a96a9;
      }

      .cls-57 {
        fill: #829eb4;
      }

      .cls-58 {
        fill: #7a95a9;
      }

      .cls-59 {
        fill: #f3f3f2;
        opacity: .55;
      }

      .cls-60 {
        fill: #6c8495;
      }

      .cls-61 {
        fill: #7c98ac;
      }

      .cls-62 {
        fill: #85a2b9;
      }

      .cls-63 {
        fill: #677d8d;
      }

      .cls-64 {
        fill: #39464e;
      }

      .cls-65 {
        fill: #461f15;
      }

      .cls-66 {
        fill: #3d4b53;
      }

      .cls-67 {
        fill: #344046;
      }

      .cls-68 {
        fill: #586c78;
      }

      .cls-69 {
        fill: #596d7a;
      }

      .cls-70 {
        fill: #87a6bd;
      }

      .cls-71 {
        fill: #637988;
      }

      .cls-72 {
        fill: #37444b;
      }

      .cls-73 {
        fill: #7c97ab;
      }

      .cls-74 {
        fill: #6d8595;
      }

      .cls-75 {
        fill: #526570;
      }

      .cls-76 {
        fill: #70899b;
      }

      .cls-77 {
        fill: #738c9e;
      }

      .cls-78 {
        fill: #4e5f6a;
      }

      .cls-79 {
        clip-path: url(#clippath-1);
      }

      .cls-80 {
        fill: #546672;
      }

      .cls-81 {
        fill: #84a1b7;
      }

      .cls-82 {
        fill: #718a9c;
      }

      .cls-83 {
        fill: #5f7481;
      }

      .cls-84 {
        fill: #f1d4c8;
      }

      .cls-85 {
        fill: #6e8697;
      }

      .cls-86 {
        fill: #303c42;
      }

      .cls-87 {
        fill: #85a3b9;
      }

      .cls-88 {
        fill: #7e9baf;
      }

      .cls-89 {
        fill: #6a8292;
      }

      .cls-90 {
        fill: #758fa1;
      }

      .cls-91 {
        fill: #6b8292;
      }

      .cls-92 {
        fill: #83a1b7;
      }

      .cls-93 {
        fill: #7994a7;
      }

      .cls-94 {
        fill: #6b8393;
      }

      .cls-95 {
        fill: #647a89;
      }

      .cls-96 {
        fill: #6e8798;
      }

      .cls-97 {
        fill: #fff;
      }

      .cls-98 {
        fill: #7f9cb1;
      }

      .cls-99 {
        fill: #87a5bb;
      }

      .cls-100 {
        fill: #536671;
      }

      .cls-101 {
        fill: #5e7380;
      }

      .cls-102 {
        fill: #4d5e69;
      }

      .cls-103 {
        fill: #566975;
      }

      .cls-104 {
        fill: #6a8191;
      }

      .cls-105 {
        fill: #809db2;
      }

      .cls-106 {
        fill: #4c5d68;
      }

      .cls-107 {
        fill: #809cb1;
      }

      .cls-108 {
        fill: #4b5c67;
      }

      .cls-109 {
        fill: #475760;
      }

      .cls-110 {
        fill: #7691a3;
      }

      .cls-111 {
        fill: #3a484f;
      }

      .cls-112 {
        fill: #51636e;
      }

      .cls-113 {
        fill: #7d99ad;
      }

      .cls-114 {
        fill: #4f616c;
      }

      .cls-115 {
        fill: #819eb4;
      }

      .cls-116 {
        fill: #4a5b65;
      }

      .cls-117 {
        fill: #698090;
      }

      .cls-118 {
        opacity: .3;
      }

      .cls-119 {
        fill: #7690a3;
      }

      .cls-120 {
        fill: #5d727f;
      }

      .cls-121 {
        fill: #415059;
      }

      .cls-122 {
        fill: #2d383d;
      }

      .cls-123 {
        fill: #50626d;
      }

      .cls-124 {
        fill: #7893a7;
      }

      .cls-125 {
        fill: #43525b;
      }

      .cls-126 {
        fill: #748ea1;
      }

      .cls-127 {
        fill: #7994a8;
      }

      .cls-128 {
        fill: #546773;
      }

      .cls-129 {
        fill: #83a0b6;
      }

      .cls-130 {
        fill: #26200c;
      }

      .cls-131 {
        fill: #607583;
      }

      .cls-132 {
        fill: #556874;
      }

      .cls-133 {
        fill: #687f8e;
      }

      .cls-134 {
        fill: #667d8c;
      }

      .cls-135 {
        fill: #728b9d;
      }

      .cls-136 {
        fill: #323f45;
      }

      .cls-137 {
        fill: #86a4bb;
      }

      .cls-138 {
        fill: #7792a5;
      }

      .cls-139 {
        fill: #84a1b8;
      }

      .cls-140 {
        fill: #5c707e;
      }

      .cls-141 {
        fill: #698190;
      }

      .cls-142 {
        fill: #637987;
      }

      .cls-143 {
        fill: #3c4a52;
      }

      .cls-144 {
        fill: #42515a;
      }

      .cls-145 {
        fill: #c6a095;
      }

      .cls-146 {
        fill: #3b4950;
      }

      .cls-147 {
        fill: #6c8494;
      }

      .cls-148 {
        fill: #88a6bd;
      }

      .cls-149 {
        fill: #404f57;
      }

      .cls-150 {
        fill: #47433b;
      }

      .cls-151 {
        fill: #51646f;
      }

      .cls-152 {
        fill: #7c97ac;
      }

      .cls-153 {
        fill: #5a6e7b;
      }

      .cls-154 {
        fill: #647b8a;
      }

      .cls-155 {
        fill: #45555e;
      }

      .cls-156 {
        fill: #7e9aaf;
      }

      .cls-157 {
        fill: #3f4e56;
      }

      .cls-158 {
        fill: #2f3b40;
      }

      .cls-159 {
        fill: #4a5a64;
      }

      .cls-160 {
        fill: #607684;
      }

      .cls-161 {
        fill: #49443b;
      }

      .cls-162 {
        fill: #718a9b;
      }

      .cls-163 {
        fill: #5d717f;
      }

      .cls-164 {
        fill: #477090;
      }

      .cls-165 {
        clip-path: url(#clippath);
      }

      .cls-166 {
        fill: #82a0b5;
      }

      .cls-167 {
        fill: #2e393f;
      }

      .cls-168 {
        fill: #70899a;
      }

      .cls-169 {
        fill: #7b96aa;
      }

      .cls-170 {
        fill: #758fa2;
      }

      .cls-171 {
        fill: #86a4ba;
      }

      .cls-172 {
        fill: #5f7482;
      }

      .cls-173 {
        fill: #7c98ad;
      }

      .cls-174 {
        fill: #819eb3;
      }

      .cls-175 {
        fill: #85a3ba;
      }

      .cls-176 {
        fill: #728c9e;
      }

      .cls-177 {
        fill: #7d251d;
      }

      .cls-178 {
        fill: #576a76;
      }

      .cls-179 {
        fill: #627786;
      }

      .cls-180 {
        fill: #ab5b64;
      }
    </style>
    <clipPath id="clippath">
      <path class="cls-1" d="M35.36,34.23c-.1,1.24-1.2,2.15-2.46,2.05-1.26-.1-2.19-1.19-2.09-2.42.1-1.24,1.2-2.16,2.46-2.05,1.26.1,2.19,1.19,2.09,2.43Z"/>
    </clipPath>
    <clipPath id="clippath-1">
      <path class="cls-1" d="M51.42,34.11c-.1,1.24-1.2,2.15-2.46,2.05-1.26-.1-2.19-1.19-2.09-2.42.1-1.24,1.2-2.16,2.46-2.05,1.26.1,2.19,1.19,2.09,2.43Z"/>
    </clipPath>
  </defs>
  <g id="Layer_1-2" data-name="Layer 1">
    <g>
      <rect class="cls-50" width="78.88" height="78.88"/>
      <rect class="cls-164" x="22.79" y="78.88" width="12.83" height="0"/>
      <polygon class="cls-20" points="35.63 78.88 35.63 78.88 40.13 78.88 40.21 78.88 57.55 78.88 57.55 78.88 35.63 78.88"/>
      <path class="cls-161" d="M16.8,36.17c0,1.13.93,2.05,2.06,2.05.09,0,.17-.01.25-.02-1.35.58-2.31,1.94-2.31,3.52,0,1.36.7,2.54,1.77,3.23-.14.4-.22.84-.22,1.3,0,1.85,1.24,3.34,2.77,3.34.23,0,.45-.04.66-.11.11.19.23.37.35.53-.11.42-.17.86-.17,1.33,0,2.46,1.54,4.46,3.44,4.46.49,0,.96-.14,1.38-.38.29,2.23,1.96,3.95,4,3.95.85,0,1.64-.3,2.29-.81.69.49,1.6.81,2.6.81s1.83-.28,2.51-.75c.62,1.01,1.64,1.78,2.87,2.1,1.23-.32,2.25-1.09,2.86-2.1.68.46,1.55.75,2.51.75s1.91-.31,2.61-.81c.65.51,1.43.81,2.28.81,2.04,0,3.71-1.72,4-3.95.42.24.88.38,1.38.38,1.9,0,3.44-2,3.44-4.46,0-.46-.06-.91-.17-1.33.12-.16.24-.34.35-.53.21.07.43.11.66.11,1.53,0,2.77-1.49,2.77-3.34,0-.46-.08-.9-.22-1.3,1.05-.68,1.76-1.87,1.76-3.23,0-1.59-.95-2.94-2.31-3.52.09,0,.17.02.26.02,1.14,0,2.06-.92,2.06-2.05,0-.86-.53-1.59-1.28-1.89.78-.46,1.28-1.25,1.28-2.14,0-.95-.59-1.78-1.45-2.22.45-.34.75-.84.75-1.41,0-1.02-.93-1.85-2.06-1.85-.09,0-.17.01-.25.02.16-.32.25-.67.25-1.03,0-1.45-1.37-2.62-3.06-2.62-.34,0-.66.06-.97.15-.47-.97-1.69-1.67-3.12-1.67-.61,0-1.18.14-1.67.36l-26.98-.36c-1.43,0-2.64.7-3.12,1.67-.31-.09-.63-.15-.97-.15-1.69,0-3.06,1.17-3.06,2.62,0,.37.09.72.25,1.03-.08,0-.16-.02-.25-.02-1.14,0-2.06.83-2.06,1.85,0,.57.29,1.08.75,1.41-.87.45-1.46,1.27-1.46,2.22,0,.89.51,1.67,1.28,2.14-.75.31-1.28,1.04-1.28,1.89Z"/>
      <path class="cls-84" d="M41.53,70.08c3.02.03,6.38-1.89,9.73-7.65-.09-.04-.19-.08-.28-.11-.39-.17-.74-.33-1.01-.47l-.07-.02c-.29-.15-.55-.27-.67-.38-.01-.01-.04-.05-.08-.09-.03-.04-.05-.06-.08-.1-.06-.37-1.04-1.97-1.38-3.71h0c-.08-.37-.12-.7-.13-1.05-.03-.51-.03-1.02-.04-1.47-.01-.47-.03-.9-.04-1.25v-.3c-.01-.25-.01-.46-.01-.61-.01-.16-.01-.25-.01-.25,0,0,.36-.31.9-.78.66-.6,1.61-1.46,2.43-2.28.89-.89,1.65-1.73,1.82-2.17.01-.07.03-.12.03-.16,0,0-.03,0-.06.01-.42.06-2.66.46-5.07.83-1.43.22-2.93.44-4.16.6-.48.07-.92.1-1.3.14h-.01c-.35.04-.65.05-.87.05-.25,0-.59-.03-.99-.05h-.03c-.39-.05-.86-.1-1.37-.17-1.12-.14-2.46-.34-3.76-.53-1.2-.19-2.37-.38-3.3-.53-.22-.04-.42-.06-.6-.1-.89-.14-1.45-.25-1.45-.25,0,.17.16.43.42.77,0,0,0,.01.01.01.2.26.46.56.77.9.3.31.63.64.96.96,1.03,1,2.15,1.99,2.7,2.46.21.18.33.29.33.29,0,0,0,.09-.01.25,0,.16,0,.36-.01.61v.3c0,.1,0,.21-.01.31-.01.68-.04,1.52-.06,2.41-.01.35-.05.69-.13,1.04-.34,1.75-1.32,3.36-1.38,3.73-.03.04-.05.06-.08.1-.04.04-.07.08-.08.09-.06.06-.15.12-.25.19-.24.15-.5.35-.91.54-.25.11-.53.23-.82.35,1.26,1.93,5.34,7.5,10.43,7.55Z"/>
      <path class="cls-145" d="M47.69,57.53c-.08-.35-.12-.69-.13-1.04-.04-1.17-.06-2.29-.08-3.02-1.95.87-3.96,1.38-5.93,1.38-.12.02-.27.02-.4.02s-.28,0-.4-.02c-1.97,0-3.97-.51-5.93-1.38-.01.73-.04,1.85-.08,3.02-.01.35-.05.69-.13,1.04,1.89,1.58,4.44,3.2,6.14,3.2.1.02.24.02.36.02h0s.03,0,.04,0,.03,0,.04,0h0c.12,0,.25,0,.36-.03,1.69,0,4.25-1.63,6.13-3.2Z"/>
      <g>
        <path class="cls-84" d="M57.93,34.15c.33-1.8.58-3.18.66-3.45.04-.13.06-.26.1-.39.03-.16.07-.3.09-.44.06-.22.1-.44.16-.67.01-.1.04-.21.05-.31.04-.25.09-.5.13-.74.01-.1.03-.22.04-.33.04-.22.05-.44.08-.66.01-.17.02-.34.05-.49.01-.14.01-.29.03-.43.17-3.4-.56-6.86-2.79-10-2.7-3.78-5.8-7.78-12.53-8.34h-5.68c-6.73.56-9.83,4.56-12.53,8.34-2.23,3.14-2.96,6.6-2.79,10,.01.14.01.29.03.43.03.16.04.33.05.49.03.22.04.44.08.66.01.1.03.22.04.33.04.25.09.49.13.74.01.1.04.21.05.31.05.22.09.44.16.67.03.14.07.29.09.44.04.13.06.26.1.39.08.27.33,1.64.66,3.43-1.8-.88-4.29.38-3.99,3.69.31,3.36,4.39,5.35,5.79,5.69.14.61.25,1.06.34,1.28,1.22,3.09,2.71,4.01,5.31,6.53,2.84,2.72,7.03,5.27,9.1,5.26.06.01.14.01.22.01s.16,0,.22-.01c2.07.01,6.26-2.54,9.1-5.26,2.6-2.51,4.09-3.44,5.31-6.53.09-.21.2-.66.34-1.26,1.35-.31,5.52-2.3,5.83-5.7.3-3.34-2.24-4.59-4.04-3.66Z"/>
        <path class="cls-6" d="M60.66,36c-1.01-1.64-2.6-.95-2.99-.59-.42.39-.75.9-.5,1.88.13.55.71.59.56,1.42-.16.93-.59.99-.84,1.2-.25.21-.55.36-.71.76-.15.39-.18.81-.1,1.17.16.67,1.14.15,1.79-.14.43-.19,1.81-1.34,2.17-1.72.88-.98,1.3-2.86.63-3.97"/>
      </g>
      <path class="cls-6" d="M38.28,50.13c-.07-.86,2.41.18,3.23.2.65.02,2.6-.13,2.78-.2,1.36-.51-.07,1.44-2.82,1.54-1.26.05-3.15-1.03-3.19-1.55Z"/>
      <g>
        <path class="cls-180" d="M46.45,49.01c-1.57-.29-4.88-.93-4.88-.93-2.73.45-4.87.92-4.88.94-.07,0,2.18,2.01,4.85,1.88h0c2.67.14,4.99-1.88,4.92-1.89Z"/>
        <path class="cls-8" d="M43.13,47.53c-.71-.08-1.2.34-1.56.3-.37.03-.85-.38-1.56-.3-1.01.21-1.49.85-3.32,1.49.07.12,1.24-.15,3.44-.11.03,0,.62.33,1.46.33.52,0,1.25-.35,1.27-.35,2.2-.03,3.55.27,3.61.15-2.42-.75-2.33-1.28-3.34-1.5Z"/>
      </g>
      <path class="cls-38" d="M42.87,43.4c.36-.24.78-.13.78-.13,0,0,0,0-.01.02-.08.14-.56.91-.95.9,0,0-.08-.07-.11-.26-.03-.18.12-.42.29-.54Z"/>
      <path class="cls-6" d="M38.05,43.16c-.07-1.72,2.67-.63,3.57-.58.72.04,2.89-.54,3.07-.39,1.28,1.02-1.36,3.08-3.12,3.08-.47,0-3.49-1.07-3.53-2.11Z"/>
      <path class="cls-27" d="M40.12,43.37c-.36-.24-.78-.13-.78-.13,0,0,0,0,.01.02.08.14.56.91.95.9,0,0,.08-.07.11-.26.03-.18-.12-.42-.29-.54Z"/>
      <path class="cls-161" d="M37.58,31.45s-.42-.42-1.19-.93c-.37-.27-.84-.5-1.35-.75-.51-.24-1.09-.42-1.68-.52-.59-.13-1.2-.17-1.78-.16-.29.02-.57.04-.84.06-.27.01-.52.08-.75.12-.47.07-.86.18-1.13.25-.28.07-.44.1-.44.1,0,0,.14-.09.38-.24.25-.13.59-.39,1.06-.55.46-.2,1.02-.38,1.64-.5.63-.08,1.32-.13,2-.05.68.09,1.35.28,1.95.53.6.25,1.11.59,1.51.9.81.62,1.21,1.23,1.21,1.23h0c.12.19.07.44-.12.56-.16.1-.37.08-.5-.05Z"/>
      <path class="cls-97" d="M27.99,33.21s1.52,3.79,3.89,4.16c2.37.37,4.89-.17,4.89-.17,0,0,.06-4.41-1.16-5.02-1.23-.61-4.04-1.52-7.61,1.02Z"/>
      <g class="cls-165">
        <polygon class="cls-122" points="35.46 32.53 30.7 32.14 30.7 31.7 35.46 31.7 35.46 32.53"/>
        <polygon class="cls-122" points="35.46 32.56 30.7 32.16 30.7 32.14 35.46 32.53 35.46 32.56"/>
        <polygon class="cls-167" points="35.46 32.58 30.7 32.19 30.7 32.16 35.46 32.56 35.46 32.58"/>
        <polygon class="cls-158" points="35.46 32.6 30.7 32.21 30.7 32.19 35.46 32.58 35.46 32.6"/>
        <polygon class="cls-86" points="35.46 32.62 30.7 32.23 30.7 32.21 35.46 32.6 35.46 32.62"/>
        <polygon class="cls-14" points="35.46 32.64 30.7 32.25 30.7 32.23 35.46 32.62 35.46 32.64"/>
        <polygon class="cls-136" points="35.46 32.67 30.7 32.27 30.7 32.25 35.46 32.64 35.46 32.67"/>
        <polygon class="cls-67" points="35.46 32.69 30.7 32.3 30.7 32.27 35.46 32.67 35.46 32.69"/>
        <polygon class="cls-2" points="35.46 32.71 30.7 32.32 30.7 32.3 35.46 32.69 35.46 32.71"/>
        <polygon class="cls-13" points="35.46 32.73 30.7 32.34 30.7 32.32 35.46 32.71 35.46 32.73"/>
        <polygon class="cls-72" points="35.46 32.75 30.7 32.36 30.7 32.34 35.46 32.73 35.46 32.75"/>
        <polygon class="cls-49" points="35.46 32.78 30.7 32.38 30.7 32.36 35.46 32.75 35.46 32.78"/>
        <polygon class="cls-64" points="35.46 32.8 30.7 32.41 30.7 32.38 35.46 32.78 35.46 32.8"/>
        <polygon class="cls-111" points="35.46 32.82 30.7 32.43 30.7 32.41 35.46 32.8 35.46 32.82"/>
        <polygon class="cls-146" points="35.46 32.84 30.7 32.45 30.7 32.43 35.46 32.82 35.46 32.84"/>
        <polygon class="cls-143" points="35.46 32.86 30.7 32.47 30.7 32.45 35.46 32.84 35.46 32.86"/>
        <polygon class="cls-66" points="35.46 32.89 30.7 32.49 30.7 32.47 35.46 32.86 35.46 32.89"/>
        <polygon class="cls-51" points="35.46 32.91 30.7 32.51 30.7 32.49 35.46 32.89 35.46 32.91"/>
        <polygon class="cls-157" points="35.46 32.93 30.7 32.54 30.7 32.51 35.46 32.91 35.46 32.93"/>
        <polygon class="cls-149" points="35.46 32.95 30.7 32.56 30.7 32.54 35.46 32.93 35.46 32.95"/>
        <polygon class="cls-121" points="35.46 32.97 30.7 32.58 30.7 32.56 35.46 32.95 35.46 32.97"/>
        <polygon class="cls-144" points="35.46 32.99 30.7 32.6 30.7 32.58 35.46 32.97 35.46 32.99"/>
        <polygon class="cls-125" points="35.46 33.02 30.7 32.62 30.7 32.6 35.46 32.99 35.46 33.02"/>
        <polygon class="cls-17" points="35.46 33.04 30.7 32.65 30.7 32.62 35.46 33.02 35.46 33.04"/>
        <polygon class="cls-155" points="35.46 33.06 30.7 32.67 30.7 32.65 35.46 33.04 35.46 33.06"/>
        <polygon class="cls-18" points="35.46 33.08 30.7 32.69 30.7 32.67 35.46 33.06 35.46 33.08"/>
        <polygon class="cls-109" points="35.46 33.1 30.7 32.71 30.7 32.69 35.46 33.08 35.46 33.1"/>
        <polygon class="cls-28" points="35.46 33.13 30.7 32.73 30.7 32.71 35.46 33.1 35.46 33.13"/>
        <polygon class="cls-40" points="35.46 33.15 30.7 32.76 30.7 32.73 35.46 33.13 35.46 33.15"/>
        <polygon class="cls-159" points="35.46 33.17 30.7 32.78 30.7 32.76 35.46 33.15 35.46 33.17"/>
        <polygon class="cls-116" points="35.46 33.19 30.7 32.8 30.7 32.78 35.46 33.17 35.46 33.19"/>
        <polygon class="cls-108" points="35.46 33.21 30.7 32.82 30.7 32.8 35.46 33.19 35.46 33.21"/>
        <polygon class="cls-106" points="35.46 33.24 30.7 32.84 30.7 32.82 35.46 33.21 35.46 33.24"/>
        <polygon class="cls-102" points="35.46 33.26 30.7 32.87 30.7 32.84 35.46 33.24 35.46 33.26"/>
        <polygon class="cls-78" points="35.46 33.28 30.7 32.89 30.7 32.87 35.46 33.26 35.46 33.28"/>
        <polygon class="cls-7" points="35.46 33.3 30.7 32.91 30.7 32.89 35.46 33.28 35.46 33.3"/>
        <polygon class="cls-114" points="35.46 33.32 30.7 32.93 30.7 32.91 35.46 33.3 35.46 33.32"/>
        <polygon class="cls-123" points="35.46 33.35 30.7 32.95 30.7 32.93 35.46 33.32 35.46 33.35"/>
        <polygon class="cls-112" points="35.46 33.37 30.7 32.97 30.7 32.95 35.46 33.35 35.46 33.37"/>
        <polygon class="cls-151" points="35.46 33.39 30.7 33 30.7 32.97 35.46 33.37 35.46 33.39"/>
        <polygon class="cls-75" points="35.46 33.41 30.7 33.02 30.7 33 35.46 33.39 35.46 33.41"/>
        <polygon class="cls-100" points="35.46 33.43 30.7 33.04 30.7 33.02 35.46 33.41 35.46 33.43"/>
        <polygon class="cls-80" points="35.46 33.45 30.7 33.06 30.7 33.04 35.46 33.43 35.46 33.45"/>
        <polygon class="cls-128" points="35.46 33.48 30.7 33.08 30.7 33.06 35.46 33.45 35.46 33.48"/>
        <polygon class="cls-132" points="35.46 33.5 30.7 33.11 30.7 33.08 35.46 33.48 35.46 33.5"/>
        <polygon class="cls-103" points="35.46 33.52 30.7 33.13 30.7 33.11 35.46 33.5 35.46 33.52"/>
        <polygon class="cls-178" points="35.46 33.54 30.7 33.15 30.7 33.13 35.46 33.52 35.46 33.54"/>
        <polygon class="cls-25" points="35.46 33.56 30.7 33.17 30.7 33.15 35.46 33.54 35.46 33.56"/>
        <polygon class="cls-68" points="35.46 33.59 30.7 33.19 30.7 33.17 35.46 33.56 35.46 33.59"/>
        <polygon class="cls-34" points="35.46 33.61 30.7 33.22 30.7 33.19 35.46 33.59 35.46 33.61"/>
        <polygon class="cls-69" points="35.46 33.63 30.7 33.24 30.7 33.22 35.46 33.61 35.46 33.63"/>
        <polygon class="cls-153" points="35.46 33.65 30.7 33.26 30.7 33.24 35.46 33.63 35.46 33.65"/>
        <polygon class="cls-30" points="35.46 33.67 30.7 33.28 30.7 33.26 35.46 33.65 35.46 33.67"/>
        <polygon class="cls-55" points="35.46 33.7 30.7 33.3 30.7 33.28 35.46 33.67 35.46 33.7"/>
        <polygon class="cls-140" points="35.46 33.72 30.7 33.33 30.7 33.3 35.46 33.7 35.46 33.72"/>
        <polygon class="cls-163" points="35.46 33.74 30.7 33.35 30.7 33.33 35.46 33.72 35.46 33.74"/>
        <polygon class="cls-120" points="35.46 33.76 30.7 33.37 30.7 33.35 35.46 33.74 35.46 33.76"/>
        <polygon class="cls-101" points="35.46 33.78 30.7 33.39 30.7 33.37 35.46 33.76 35.46 33.78"/>
        <polygon class="cls-83" points="35.46 33.81 30.7 33.41 30.7 33.39 35.46 33.78 35.46 33.81"/>
        <polygon class="cls-172" points="35.46 33.83 30.7 33.43 30.7 33.41 35.46 33.81 35.46 33.83"/>
        <polygon class="cls-131" points="35.46 33.85 30.7 33.46 30.7 33.43 35.46 33.83 35.46 33.85"/>
        <polygon class="cls-160" points="35.46 33.87 30.7 33.48 30.7 33.46 35.46 33.85 35.46 33.87"/>
        <polygon class="cls-42" points="35.46 33.89 30.7 33.5 30.7 33.48 35.46 33.87 35.46 33.89"/>
        <polygon class="cls-179" points="35.46 33.91 30.7 33.52 30.7 33.5 35.46 33.89 35.46 33.91"/>
        <polygon class="cls-23" points="35.46 33.94 30.7 33.54 30.7 33.52 35.46 33.91 35.46 33.94"/>
        <polygon class="cls-142" points="35.46 33.96 30.7 33.57 30.7 33.54 35.46 33.94 35.46 33.96"/>
        <polygon class="cls-71" points="35.46 33.98 30.7 33.59 30.7 33.57 35.46 33.96 35.46 33.98"/>
        <polygon class="cls-95" points="35.46 34 30.7 33.61 30.7 33.59 35.46 33.98 35.46 34"/>
        <polygon class="cls-154" points="35.46 34.02 30.7 33.63 30.7 33.61 35.46 34 35.46 34.02"/>
        <polygon class="cls-45" points="35.46 34.05 30.7 33.65 30.7 33.63 35.46 34.02 35.46 34.05"/>
        <polygon class="cls-48" points="35.46 34.07 30.7 33.68 30.7 33.65 35.46 34.05 35.46 34.07"/>
        <polygon class="cls-134" points="35.46 34.09 30.7 33.7 30.7 33.68 35.46 34.07 35.46 34.09"/>
        <polygon class="cls-63" points="35.46 34.11 30.7 33.72 30.7 33.7 35.46 34.09 35.46 34.11"/>
        <polygon class="cls-11" points="35.46 34.13 30.7 33.74 30.7 33.72 35.46 34.11 35.46 34.13"/>
        <polygon class="cls-133" points="35.46 34.16 30.7 33.76 30.7 33.74 35.46 34.13 35.46 34.16"/>
        <polygon class="cls-52" points="35.46 34.18 30.7 33.79 30.7 33.76 35.46 34.16 35.46 34.18"/>
        <polygon class="cls-117" points="35.46 34.2 30.7 33.81 30.7 33.79 35.46 34.18 35.46 34.2"/>
        <polygon class="cls-141" points="35.46 34.22 30.7 33.83 30.7 33.81 35.46 34.2 35.46 34.22"/>
        <polygon class="cls-104" points="35.46 34.24 30.7 33.85 30.7 33.83 35.46 34.22 35.46 34.24"/>
        <polygon class="cls-89" points="35.46 34.27 30.7 33.87 30.7 33.85 35.46 34.24 35.46 34.27"/>
        <polygon class="cls-91" points="35.46 34.29 30.7 33.89 30.7 33.87 35.46 34.27 35.46 34.29"/>
        <polygon class="cls-94" points="35.46 34.31 30.7 33.92 30.7 33.89 35.46 34.29 35.46 34.31"/>
        <polygon class="cls-147" points="35.46 34.33 30.7 33.94 30.7 33.92 35.46 34.31 35.46 34.33"/>
        <polygon class="cls-60" points="35.46 34.35 30.7 33.96 30.7 33.94 35.46 34.33 35.46 34.35"/>
        <polygon class="cls-74" points="35.46 34.38 30.7 33.98 30.7 33.96 35.46 34.35 35.46 34.38"/>
        <polygon class="cls-16" points="35.46 34.4 30.7 34 30.7 33.98 35.46 34.38 35.46 34.4"/>
        <polygon class="cls-85" points="35.46 34.42 30.7 34.03 30.7 34 35.46 34.4 35.46 34.42"/>
        <polygon class="cls-85" points="35.46 34.44 30.7 34.05 30.7 34.03 35.46 34.42 35.46 34.44"/>
        <polygon class="cls-96" points="35.46 34.46 30.7 34.07 30.7 34.05 35.46 34.44 35.46 34.46"/>
        <polygon class="cls-29" points="35.46 34.48 30.7 34.09 30.7 34.07 35.46 34.46 35.46 34.48"/>
        <polygon class="cls-29" points="35.46 34.51 30.7 34.11 30.7 34.09 35.46 34.48 35.46 34.51"/>
        <polygon class="cls-168" points="35.46 34.53 30.7 34.14 30.7 34.11 35.46 34.51 35.46 34.53"/>
        <polygon class="cls-76" points="35.46 34.55 30.7 34.16 30.7 34.14 35.46 34.53 35.46 34.55"/>
        <polygon class="cls-162" points="35.46 34.57 30.7 34.18 30.7 34.16 35.46 34.55 35.46 34.57"/>
        <polygon class="cls-82" points="35.46 34.59 30.7 34.2 30.7 34.18 35.46 34.57 35.46 34.59"/>
        <polygon class="cls-36" points="35.46 34.62 30.7 34.22 30.7 34.2 35.46 34.59 35.46 34.62"/>
        <polygon class="cls-135" points="35.46 34.64 30.7 34.25 30.7 34.22 35.46 34.62 35.46 34.64"/>
        <polygon class="cls-176" points="35.46 34.66 30.7 34.27 30.7 34.25 35.46 34.64 35.46 34.66"/>
        <polygon class="cls-77" points="35.46 34.68 30.7 34.29 30.7 34.27 35.46 34.66 35.46 34.68"/>
        <polygon class="cls-39" points="35.46 34.7 30.7 34.31 30.7 34.29 35.46 34.68 35.46 34.7"/>
        <polygon class="cls-22" points="35.46 34.73 30.7 34.33 30.7 34.31 35.46 34.7 35.46 34.73"/>
        <polygon class="cls-35" points="35.46 34.75 30.7 34.36 30.7 34.33 35.46 34.73 35.46 34.75"/>
        <polygon class="cls-126" points="35.46 34.77 30.7 34.38 30.7 34.36 35.46 34.75 35.46 34.77"/>
        <polygon class="cls-90" points="35.46 34.79 30.7 34.4 30.7 34.38 35.46 34.77 35.46 34.79"/>
        <polygon class="cls-170" points="35.46 34.81 30.7 34.42 30.7 34.4 35.46 34.79 35.46 34.81"/>
        <polygon class="cls-33" points="35.46 34.84 30.7 34.44 30.7 34.42 35.46 34.81 35.46 34.84"/>
        <polygon class="cls-119" points="35.46 34.86 30.7 34.46 30.7 34.44 35.46 34.84 35.46 34.86"/>
        <polygon class="cls-110" points="35.46 34.88 30.7 34.49 30.7 34.46 35.46 34.86 35.46 34.88"/>
        <polygon class="cls-9" points="35.46 34.9 30.7 34.51 30.7 34.49 35.46 34.88 35.46 34.9"/>
        <polygon class="cls-138" points="35.46 34.92 30.7 34.53 30.7 34.51 35.46 34.9 35.46 34.92"/>
        <polygon class="cls-138" points="35.46 34.94 30.7 34.55 30.7 34.53 35.46 34.92 35.46 34.94"/>
        <polygon class="cls-31" points="35.46 34.97 30.7 34.57 30.7 34.55 35.46 34.94 35.46 34.97"/>
        <polygon class="cls-19" points="35.46 34.99 30.7 34.6 30.7 34.57 35.46 34.97 35.46 34.99"/>
        <polygon class="cls-124" points="35.46 35.01 30.7 34.62 30.7 34.6 35.46 34.99 35.46 35.01"/>
        <polygon class="cls-93" points="35.46 35.03 30.7 34.64 30.7 34.62 35.46 35.01 35.46 35.03"/>
        <polygon class="cls-127" points="35.46 35.05 30.7 34.66 30.7 34.64 35.46 35.03 35.46 35.05"/>
        <polygon class="cls-127" points="35.46 35.08 30.7 34.68 30.7 34.66 35.46 35.05 35.46 35.08"/>
        <polygon class="cls-58" points="35.46 35.1 30.7 34.71 30.7 34.68 35.46 35.08 35.46 35.1"/>
        <polygon class="cls-58" points="35.46 35.12 30.7 34.73 30.7 34.71 35.46 35.1 35.46 35.12"/>
        <polygon class="cls-56" points="35.46 35.14 30.7 34.75 30.7 34.73 35.46 35.12 35.46 35.14"/>
        <polygon class="cls-169" points="35.46 35.16 30.7 34.77 30.7 34.75 35.46 35.14 35.46 35.16"/>
        <polygon class="cls-169" points="35.46 35.19 30.7 34.79 30.7 34.77 35.46 35.16 35.46 35.19"/>
        <polygon class="cls-10" points="35.46 35.21 30.7 34.82 30.7 34.79 35.46 35.19 35.46 35.21"/>
        <polygon class="cls-73" points="35.46 35.23 30.7 34.84 30.7 34.82 35.46 35.21 35.46 35.23"/>
        <polygon class="cls-152" points="35.46 35.25 30.7 34.86 30.7 34.84 35.46 35.23 35.46 35.25"/>
        <polygon class="cls-61" points="35.46 35.27 30.7 34.88 30.7 34.86 35.46 35.25 35.46 35.27"/>
        <polygon class="cls-173" points="35.46 35.3 30.7 34.9 30.7 34.88 35.46 35.27 35.46 35.3"/>
        <polygon class="cls-113" points="35.46 35.32 30.7 34.92 30.7 34.9 35.46 35.3 35.46 35.32"/>
        <polygon class="cls-113" points="35.46 35.34 30.7 34.95 30.7 34.92 35.46 35.32 35.46 35.34"/>
        <polygon class="cls-3" points="35.46 35.36 30.7 34.97 30.7 34.95 35.46 35.34 35.46 35.36"/>
        <polygon class="cls-53" points="35.46 35.38 30.7 34.99 30.7 34.97 35.46 35.36 35.46 35.38"/>
        <polygon class="cls-156" points="35.46 35.4 30.7 35.01 30.7 34.99 35.46 35.38 35.46 35.4"/>
        <polygon class="cls-156" points="35.46 35.43 30.7 35.03 30.7 35.01 35.46 35.4 35.46 35.43"/>
        <polygon class="cls-88" points="35.46 35.45 30.7 35.06 30.7 35.03 35.46 35.43 35.46 35.45"/>
        <polygon class="cls-47" points="35.46 35.47 30.7 35.08 30.7 35.06 35.46 35.45 35.46 35.47"/>
        <polygon class="cls-47" points="35.46 35.49 30.7 35.1 30.7 35.08 35.46 35.47 35.46 35.49"/>
        <polygon class="cls-98" points="35.46 35.51 30.7 35.12 30.7 35.1 35.46 35.49 35.46 35.51"/>
        <polygon class="cls-98" points="35.46 35.54 30.7 35.14 30.7 35.12 35.46 35.51 35.46 35.54"/>
        <polygon class="cls-107" points="35.46 35.56 30.7 35.17 30.7 35.14 35.46 35.54 35.46 35.56"/>
        <polygon class="cls-15" points="35.46 35.58 30.7 35.19 30.7 35.17 35.46 35.56 35.46 35.58"/>
        <polygon class="cls-105" points="35.46 35.6 30.7 35.21 30.7 35.19 35.46 35.58 35.46 35.6"/>
        <polygon class="cls-105" points="35.46 35.62 30.7 35.23 30.7 35.21 35.46 35.6 35.46 35.62"/>
        <polygon class="cls-43" points="35.46 35.65 30.7 35.25 30.7 35.23 35.46 35.62 35.46 35.65"/>
        <polygon class="cls-174" points="35.46 35.67 30.7 35.28 30.7 35.25 35.46 35.65 35.46 35.67"/>
        <polygon class="cls-174" points="35.46 35.69 30.7 35.3 30.7 35.28 35.46 35.67 35.46 35.69"/>
        <polygon class="cls-115" points="35.46 35.71 30.7 35.32 30.7 35.3 35.46 35.69 35.46 35.71"/>
        <polygon class="cls-57" points="35.46 35.73 30.7 35.34 30.7 35.32 35.46 35.71 35.46 35.73"/>
        <polygon class="cls-32" points="35.46 35.76 30.7 35.36 30.7 35.34 35.46 35.73 35.46 35.76"/>
        <polygon class="cls-26" points="35.46 35.78 30.7 35.39 30.7 35.36 35.46 35.76 35.46 35.78"/>
        <polygon class="cls-26" points="35.46 35.8 30.7 35.41 30.7 35.39 35.46 35.78 35.46 35.8"/>
        <polygon class="cls-166" points="35.46 35.82 30.7 35.43 30.7 35.41 35.46 35.8 35.46 35.82"/>
        <polygon class="cls-129" points="35.46 35.84 30.7 35.45 30.7 35.43 35.46 35.82 35.46 35.84"/>
        <polygon class="cls-129" points="35.46 35.87 30.7 35.47 30.7 35.45 35.46 35.84 35.46 35.87"/>
        <polygon class="cls-129" points="35.46 35.89 30.7 35.49 30.7 35.47 35.46 35.87 35.46 35.89"/>
        <polygon class="cls-92" points="35.46 35.91 30.7 35.52 30.7 35.49 35.46 35.89 35.46 35.91"/>
        <polygon class="cls-92" points="35.46 35.93 30.7 35.54 30.7 35.52 35.46 35.91 35.46 35.93"/>
        <polygon class="cls-81" points="35.46 35.95 30.7 35.56 30.7 35.54 35.46 35.93 35.46 35.95"/>
        <polygon class="cls-81" points="35.46 35.97 30.7 35.58 30.7 35.56 35.46 35.95 35.46 35.97"/>
        <polygon class="cls-139" points="35.46 36 30.7 35.6 30.7 35.58 35.46 35.97 35.46 36"/>
        <polygon class="cls-4" points="35.46 36.02 30.7 35.63 30.7 35.6 35.46 36 35.46 36.02"/>
        <polygon class="cls-4" points="35.46 36.04 30.7 35.65 30.7 35.63 35.46 36.02 35.46 36.04"/>
        <polygon class="cls-46" points="35.46 36.06 30.7 35.67 30.7 35.65 35.46 36.04 35.46 36.06"/>
        <polygon class="cls-62" points="35.46 36.08 30.7 35.69 30.7 35.67 35.46 36.06 35.46 36.08"/>
        <polygon class="cls-87" points="35.46 36.11 30.7 35.71 30.7 35.69 35.46 36.08 35.46 36.11"/>
        <polygon class="cls-87" points="35.46 36.13 30.7 35.74 30.7 35.71 35.46 36.11 35.46 36.13"/>
        <polygon class="cls-87" points="35.46 36.15 30.7 35.76 30.7 35.74 35.46 36.13 35.46 36.15"/>
        <polygon class="cls-175" points="35.46 36.17 30.7 35.78 30.7 35.76 35.46 36.15 35.46 36.17"/>
        <polygon class="cls-12" points="35.46 36.19 30.7 35.8 30.7 35.78 35.46 36.17 35.46 36.19"/>
        <polygon class="cls-12" points="35.46 36.22 30.7 35.82 30.7 35.8 35.46 36.19 35.46 36.22"/>
        <polygon class="cls-171" points="35.46 36.24 30.7 35.85 30.7 35.82 35.46 36.22 35.46 36.24"/>
        <polygon class="cls-137" points="35.46 36.26 30.7 35.87 30.7 35.85 35.46 36.24 35.46 36.26"/>
        <polygon class="cls-137" points="35.46 36.28 30.7 35.89 30.7 35.87 35.46 36.26 35.46 36.28"/>
        <polygon class="cls-137" points="35.46 36.3 30.7 35.91 30.7 35.89 35.46 36.28 35.46 36.3"/>
        <polygon class="cls-137" points="35.46 36.33 30.7 35.93 30.7 35.91 35.46 36.3 35.46 36.33"/>
        <polygon class="cls-41" points="35.46 36.35 30.7 35.95 30.7 35.93 35.46 36.33 35.46 36.35"/>
        <polygon class="cls-99" points="35.46 36.37 30.7 35.98 30.7 35.95 35.46 36.35 35.46 36.37"/>
        <polygon class="cls-21" points="35.4 36.39 30.7 36 30.7 35.98 35.46 36.37 35.46 36.39 35.4 36.39"/>
        <polygon class="cls-21" points="35.13 36.39 30.7 36.02 30.7 36 35.4 36.39 35.13 36.39"/>
        <polygon class="cls-21" points="34.87 36.39 30.7 36.04 30.7 36.02 35.13 36.39 34.87 36.39"/>
        <polygon class="cls-21" points="34.6 36.39 30.7 36.06 30.7 36.04 34.87 36.39 34.6 36.39"/>
        <polygon class="cls-21" points="34.34 36.39 30.7 36.09 30.7 36.06 34.6 36.39 34.34 36.39"/>
        <polygon class="cls-21" points="34.07 36.39 30.7 36.11 30.7 36.09 34.34 36.39 34.07 36.39"/>
        <polygon class="cls-70" points="33.81 36.39 30.7 36.13 30.7 36.11 34.07 36.39 33.81 36.39"/>
        <polygon class="cls-148" points="33.54 36.39 30.7 36.15 30.7 36.13 33.81 36.39 33.54 36.39"/>
        <polygon class="cls-148" points="33.28 36.39 30.7 36.17 30.7 36.15 33.54 36.39 33.28 36.39"/>
        <polygon class="cls-148" points="33.01 36.39 30.7 36.2 30.7 36.17 33.28 36.39 33.01 36.39"/>
        <polygon class="cls-148" points="32.75 36.39 30.7 36.22 30.7 36.2 33.01 36.39 32.75 36.39"/>
        <polygon class="cls-148" points="32.48 36.39 30.7 36.24 30.7 36.22 32.75 36.39 32.48 36.39"/>
        <polygon class="cls-148" points="32.22 36.39 30.7 36.26 30.7 36.24 32.48 36.39 32.22 36.39"/>
        <polygon class="cls-148" points="31.95 36.39 30.7 36.28 30.7 36.26 32.22 36.39 31.95 36.39"/>
        <polygon class="cls-37" points="31.68 36.39 30.7 36.31 30.7 36.28 31.95 36.39 31.68 36.39"/>
        <polygon class="cls-37" points="31.42 36.39 30.7 36.33 30.7 36.31 31.68 36.39 31.42 36.39"/>
        <polygon class="cls-54" points="31.15 36.39 30.7 36.35 30.7 36.33 31.42 36.39 31.15 36.39"/>
        <polygon class="cls-54" points="30.89 36.39 30.7 36.37 30.7 36.35 31.15 36.39 30.89 36.39"/>
        <polygon class="cls-54" points="30.7 36.37 30.89 36.39 30.7 36.39 30.7 36.37"/>
      </g>
      <path class="cls-44" d="M32.97,35.58c-.67-.05-1.18-.73-1.12-1.46.06-.74.68-1.32,1.35-1.26.67.05,1.18.73,1.13,1.46-.06.74-.68,1.32-1.35,1.26Z"/>
      <path class="cls-130" d="M33.03,35.31c-.47-.04-.95-.55-.9-1.17.05-.63.61-1.05,1.08-1.01.47.04.95.55.9,1.18-.05.63-.61,1.05-1.08,1.01Z"/>
      <g class="cls-118">
        <path class="cls-150" d="M36.77,37.19s-.05,0-.17.04c-.09-1.35-.35-3.22-1.12-3.6-1.14-.58-3.7-1.42-6.99.6-.33-.59-.5-1.04-.5-1.04,3.58-2.55,6.39-1.64,7.61-1.03,1.23.61,1.17,5.02,1.17,5.02Z"/>
      </g>
      <path class="cls-97" d="M32.65,33.77c-.02.23-.25.39-.52.37-.27-.02-.47-.22-.45-.45.02-.23.25-.39.52-.37.27.02.47.22.45.45Z"/>
      <path class="cls-97" d="M34.16,35.08c0,.11-.13.2-.26.18-.13-.01-.24-.11-.23-.22,0-.11.13-.2.26-.18.13.01.24.11.23.23Z"/>
      <path class="cls-161" d="M44.03,30.95s.4-.61,1.21-1.23c.41-.31.92-.64,1.51-.9.6-.25,1.27-.44,1.95-.53.69-.08,1.37-.03,2,.05.63.12,1.19.3,1.64.5.47.16.81.42,1.06.55.24.15.38.24.38.24,0,0-.16-.04-.44-.1-.28-.07-.66-.18-1.13-.25-.24-.03-.48-.11-.75-.12-.27-.02-.55-.04-.84-.06-.58,0-1.19.03-1.78.16-.59.1-1.17.29-1.68.52-.51.24-.98.48-1.35.75-.77.51-1.18.93-1.19.93-.15.16-.41.16-.56,0-.14-.13-.15-.34-.05-.5h0Z"/>
      <path class="cls-97" d="M54.22,33.21s-1.52,3.79-3.89,4.16c-2.36.37-4.89-.17-4.89-.17,0,0-.06-4.41,1.16-5.02,1.23-.61,4.04-1.52,7.61,1.02Z"/>
      <g class="cls-118">
        <path class="cls-150" d="M45.44,37.19s.05,0,.17.04c.09-1.35.35-3.22,1.12-3.6,1.14-.58,3.7-1.42,6.99.6.33-.59.5-1.04.5-1.04-3.58-2.55-6.39-1.64-7.61-1.03-1.23.61-1.17,5.02-1.17,5.02Z"/>
      </g>
      <g class="cls-79">
        <polygon class="cls-122" points="51.52 32.41 46.77 32.02 46.77 31.58 51.52 31.58 51.52 32.41"/>
        <polygon class="cls-122" points="51.52 32.43 46.77 32.04 46.77 32.02 51.52 32.41 51.52 32.43"/>
        <polygon class="cls-167" points="51.52 32.45 46.77 32.06 46.77 32.04 51.52 32.43 51.52 32.45"/>
        <polygon class="cls-158" points="51.52 32.47 46.77 32.08 46.77 32.06 51.52 32.45 51.52 32.47"/>
        <polygon class="cls-86" points="51.52 32.5 46.77 32.1 46.77 32.08 51.52 32.47 51.52 32.5"/>
        <polygon class="cls-14" points="51.52 32.52 46.77 32.13 46.77 32.1 51.52 32.5 51.52 32.52"/>
        <polygon class="cls-136" points="51.52 32.54 46.77 32.15 46.77 32.13 51.52 32.52 51.52 32.54"/>
        <polygon class="cls-67" points="51.52 32.56 46.77 32.17 46.77 32.15 51.52 32.54 51.52 32.56"/>
        <polygon class="cls-2" points="51.52 32.58 46.77 32.19 46.77 32.17 51.52 32.56 51.52 32.58"/>
        <polygon class="cls-13" points="51.52 32.61 46.77 32.21 46.77 32.19 51.52 32.58 51.52 32.61"/>
        <polygon class="cls-72" points="51.52 32.63 46.77 32.24 46.77 32.21 51.52 32.61 51.52 32.63"/>
        <polygon class="cls-49" points="51.52 32.65 46.77 32.26 46.77 32.24 51.52 32.63 51.52 32.65"/>
        <polygon class="cls-64" points="51.52 32.67 46.77 32.28 46.77 32.26 51.52 32.65 51.52 32.67"/>
        <polygon class="cls-111" points="51.52 32.69 46.77 32.3 46.77 32.28 51.52 32.67 51.52 32.69"/>
        <polygon class="cls-146" points="51.52 32.72 46.77 32.32 46.77 32.3 51.52 32.69 51.52 32.72"/>
        <polygon class="cls-143" points="51.52 32.74 46.77 32.34 46.77 32.32 51.52 32.72 51.52 32.74"/>
        <polygon class="cls-66" points="51.52 32.76 46.77 32.37 46.77 32.34 51.52 32.74 51.52 32.76"/>
        <polygon class="cls-51" points="51.52 32.78 46.77 32.39 46.77 32.37 51.52 32.76 51.52 32.78"/>
        <polygon class="cls-157" points="51.52 32.8 46.77 32.41 46.77 32.39 51.52 32.78 51.52 32.8"/>
        <polygon class="cls-149" points="51.52 32.82 46.77 32.43 46.77 32.41 51.52 32.8 51.52 32.82"/>
        <polygon class="cls-121" points="51.52 32.85 46.77 32.45 46.77 32.43 51.52 32.82 51.52 32.85"/>
        <polygon class="cls-144" points="51.52 32.87 46.77 32.48 46.77 32.45 51.52 32.85 51.52 32.87"/>
        <polygon class="cls-125" points="51.52 32.89 46.77 32.5 46.77 32.48 51.52 32.87 51.52 32.89"/>
        <polygon class="cls-17" points="51.52 32.91 46.77 32.52 46.77 32.5 51.52 32.89 51.52 32.91"/>
        <polygon class="cls-155" points="51.52 32.93 46.77 32.54 46.77 32.52 51.52 32.91 51.52 32.93"/>
        <polygon class="cls-18" points="51.52 32.96 46.77 32.56 46.77 32.54 51.52 32.93 51.52 32.96"/>
        <polygon class="cls-109" points="51.52 32.98 46.77 32.59 46.77 32.56 51.52 32.96 51.52 32.98"/>
        <polygon class="cls-28" points="51.52 33 46.77 32.61 46.77 32.59 51.52 32.98 51.52 33"/>
        <polygon class="cls-40" points="51.52 33.02 46.77 32.63 46.77 32.61 51.52 33 51.52 33.02"/>
        <polygon class="cls-159" points="51.52 33.04 46.77 32.65 46.77 32.63 51.52 33.02 51.52 33.04"/>
        <polygon class="cls-116" points="51.52 33.07 46.77 32.67 46.77 32.65 51.52 33.04 51.52 33.07"/>
        <polygon class="cls-108" points="51.52 33.09 46.77 32.7 46.77 32.67 51.52 33.07 51.52 33.09"/>
        <polygon class="cls-106" points="51.52 33.11 46.77 32.72 46.77 32.7 51.52 33.09 51.52 33.11"/>
        <polygon class="cls-102" points="51.52 33.13 46.77 32.74 46.77 32.72 51.52 33.11 51.52 33.13"/>
        <polygon class="cls-78" points="51.52 33.15 46.77 32.76 46.77 32.74 51.52 33.13 51.52 33.15"/>
        <polygon class="cls-7" points="51.52 33.18 46.77 32.78 46.77 32.76 51.52 33.15 51.52 33.18"/>
        <polygon class="cls-114" points="51.52 33.2 46.77 32.8 46.77 32.78 51.52 33.18 51.52 33.2"/>
        <polygon class="cls-123" points="51.52 33.22 46.77 32.83 46.77 32.8 51.52 33.2 51.52 33.22"/>
        <polygon class="cls-112" points="51.52 33.24 46.77 32.85 46.77 32.83 51.52 33.22 51.52 33.24"/>
        <polygon class="cls-151" points="51.52 33.26 46.77 32.87 46.77 32.85 51.52 33.24 51.52 33.26"/>
        <polygon class="cls-75" points="51.52 33.28 46.77 32.89 46.77 32.87 51.52 33.26 51.52 33.28"/>
        <polygon class="cls-100" points="51.52 33.31 46.77 32.91 46.77 32.89 51.52 33.28 51.52 33.31"/>
        <polygon class="cls-80" points="51.52 33.33 46.77 32.94 46.77 32.91 51.52 33.31 51.52 33.33"/>
        <polygon class="cls-128" points="51.52 33.35 46.77 32.96 46.77 32.94 51.52 33.33 51.52 33.35"/>
        <polygon class="cls-132" points="51.52 33.37 46.77 32.98 46.77 32.96 51.52 33.35 51.52 33.37"/>
        <polygon class="cls-103" points="51.52 33.39 46.77 33 46.77 32.98 51.52 33.37 51.52 33.39"/>
        <polygon class="cls-178" points="51.52 33.42 46.77 33.02 46.77 33 51.52 33.39 51.52 33.42"/>
        <polygon class="cls-25" points="51.52 33.44 46.77 33.05 46.77 33.02 51.52 33.42 51.52 33.44"/>
        <polygon class="cls-68" points="51.52 33.46 46.77 33.07 46.77 33.05 51.52 33.44 51.52 33.46"/>
        <polygon class="cls-34" points="51.52 33.48 46.77 33.09 46.77 33.07 51.52 33.46 51.52 33.48"/>
        <polygon class="cls-69" points="51.52 33.5 46.77 33.11 46.77 33.09 51.52 33.48 51.52 33.5"/>
        <polygon class="cls-153" points="51.52 33.53 46.77 33.13 46.77 33.11 51.52 33.5 51.52 33.53"/>
        <polygon class="cls-30" points="51.52 33.55 46.77 33.16 46.77 33.13 51.52 33.53 51.52 33.55"/>
        <polygon class="cls-55" points="51.52 33.57 46.77 33.18 46.77 33.16 51.52 33.55 51.52 33.57"/>
        <polygon class="cls-140" points="51.52 33.59 46.77 33.2 46.77 33.18 51.52 33.57 51.52 33.59"/>
        <polygon class="cls-163" points="51.52 33.61 46.77 33.22 46.77 33.2 51.52 33.59 51.52 33.61"/>
        <polygon class="cls-120" points="51.52 33.64 46.77 33.24 46.77 33.22 51.52 33.61 51.52 33.64"/>
        <polygon class="cls-101" points="51.52 33.66 46.77 33.26 46.77 33.24 51.52 33.64 51.52 33.66"/>
        <polygon class="cls-83" points="51.52 33.68 46.77 33.29 46.77 33.26 51.52 33.66 51.52 33.68"/>
        <polygon class="cls-172" points="51.52 33.7 46.77 33.31 46.77 33.29 51.52 33.68 51.52 33.7"/>
        <polygon class="cls-131" points="51.52 33.72 46.77 33.33 46.77 33.31 51.52 33.7 51.52 33.72"/>
        <polygon class="cls-160" points="51.52 33.74 46.77 33.35 46.77 33.33 51.52 33.72 51.52 33.74"/>
        <polygon class="cls-42" points="51.52 33.77 46.77 33.37 46.77 33.35 51.52 33.74 51.52 33.77"/>
        <polygon class="cls-179" points="51.52 33.79 46.77 33.4 46.77 33.37 51.52 33.77 51.52 33.79"/>
        <polygon class="cls-23" points="51.52 33.81 46.77 33.42 46.77 33.4 51.52 33.79 51.52 33.81"/>
        <polygon class="cls-142" points="51.52 33.83 46.77 33.44 46.77 33.42 51.52 33.81 51.52 33.83"/>
        <polygon class="cls-71" points="51.52 33.85 46.77 33.46 46.77 33.44 51.52 33.83 51.52 33.85"/>
        <polygon class="cls-95" points="51.52 33.88 46.77 33.48 46.77 33.46 51.52 33.85 51.52 33.88"/>
        <polygon class="cls-154" points="51.52 33.9 46.77 33.51 46.77 33.48 51.52 33.88 51.52 33.9"/>
        <polygon class="cls-45" points="51.52 33.92 46.77 33.53 46.77 33.51 51.52 33.9 51.52 33.92"/>
        <polygon class="cls-48" points="51.52 33.94 46.77 33.55 46.77 33.53 51.52 33.92 51.52 33.94"/>
        <polygon class="cls-134" points="51.52 33.96 46.77 33.57 46.77 33.55 51.52 33.94 51.52 33.96"/>
        <polygon class="cls-63" points="51.52 33.99 46.77 33.59 46.77 33.57 51.52 33.96 51.52 33.99"/>
        <polygon class="cls-11" points="51.52 34.01 46.77 33.62 46.77 33.59 51.52 33.99 51.52 34.01"/>
        <polygon class="cls-133" points="51.52 34.03 46.77 33.64 46.77 33.62 51.52 34.01 51.52 34.03"/>
        <polygon class="cls-52" points="51.52 34.05 46.77 33.66 46.77 33.64 51.52 34.03 51.52 34.05"/>
        <polygon class="cls-117" points="51.52 34.07 46.77 33.68 46.77 33.66 51.52 34.05 51.52 34.07"/>
        <polygon class="cls-141" points="51.52 34.1 46.77 33.7 46.77 33.68 51.52 34.07 51.52 34.1"/>
        <polygon class="cls-104" points="51.52 34.12 46.77 33.72 46.77 33.7 51.52 34.1 51.52 34.12"/>
        <polygon class="cls-89" points="51.52 34.14 46.77 33.75 46.77 33.72 51.52 34.12 51.52 34.14"/>
        <polygon class="cls-91" points="51.52 34.16 46.77 33.77 46.77 33.75 51.52 34.14 51.52 34.16"/>
        <polygon class="cls-94" points="51.52 34.18 46.77 33.79 46.77 33.77 51.52 34.16 51.52 34.18"/>
        <polygon class="cls-147" points="51.52 34.21 46.77 33.81 46.77 33.79 51.52 34.18 51.52 34.21"/>
        <polygon class="cls-60" points="51.52 34.23 46.77 33.83 46.77 33.81 51.52 34.21 51.52 34.23"/>
        <polygon class="cls-74" points="51.52 34.25 46.77 33.86 46.77 33.83 51.52 34.23 51.52 34.25"/>
        <polygon class="cls-16" points="51.52 34.27 46.77 33.88 46.77 33.86 51.52 34.25 51.52 34.27"/>
        <polygon class="cls-85" points="51.52 34.29 46.77 33.9 46.77 33.88 51.52 34.27 51.52 34.29"/>
        <polygon class="cls-85" points="51.52 34.31 46.77 33.92 46.77 33.9 51.52 34.29 51.52 34.31"/>
        <polygon class="cls-96" points="51.52 34.34 46.77 33.94 46.77 33.92 51.52 34.31 51.52 34.34"/>
        <polygon class="cls-29" points="51.52 34.36 46.77 33.97 46.77 33.94 51.52 34.34 51.52 34.36"/>
        <polygon class="cls-29" points="51.52 34.38 46.77 33.99 46.77 33.97 51.52 34.36 51.52 34.38"/>
        <polygon class="cls-168" points="51.52 34.4 46.77 34.01 46.77 33.99 51.52 34.38 51.52 34.4"/>
        <polygon class="cls-76" points="51.52 34.42 46.77 34.03 46.77 34.01 51.52 34.4 51.52 34.42"/>
        <polygon class="cls-162" points="51.52 34.45 46.77 34.05 46.77 34.03 51.52 34.42 51.52 34.45"/>
        <polygon class="cls-82" points="51.52 34.47 46.77 34.08 46.77 34.05 51.52 34.45 51.52 34.47"/>
        <polygon class="cls-36" points="51.52 34.49 46.77 34.1 46.77 34.08 51.52 34.47 51.52 34.49"/>
        <polygon class="cls-135" points="51.52 34.51 46.77 34.12 46.77 34.1 51.52 34.49 51.52 34.51"/>
        <polygon class="cls-176" points="51.52 34.53 46.77 34.14 46.77 34.12 51.52 34.51 51.52 34.53"/>
        <polygon class="cls-77" points="51.52 34.56 46.77 34.16 46.77 34.14 51.52 34.53 51.52 34.56"/>
        <polygon class="cls-39" points="51.52 34.58 46.77 34.19 46.77 34.16 51.52 34.56 51.52 34.58"/>
        <polygon class="cls-22" points="51.52 34.6 46.77 34.21 46.77 34.19 51.52 34.58 51.52 34.6"/>
        <polygon class="cls-35" points="51.52 34.62 46.77 34.23 46.77 34.21 51.52 34.6 51.52 34.62"/>
        <polygon class="cls-126" points="51.52 34.64 46.77 34.25 46.77 34.23 51.52 34.62 51.52 34.64"/>
        <polygon class="cls-90" points="51.52 34.67 46.77 34.27 46.77 34.25 51.52 34.64 51.52 34.67"/>
        <polygon class="cls-170" points="51.52 34.69 46.77 34.29 46.77 34.27 51.52 34.67 51.52 34.69"/>
        <polygon class="cls-33" points="51.52 34.71 46.77 34.32 46.77 34.29 51.52 34.69 51.52 34.71"/>
        <polygon class="cls-119" points="51.52 34.73 46.77 34.34 46.77 34.32 51.52 34.71 51.52 34.73"/>
        <polygon class="cls-110" points="51.52 34.75 46.77 34.36 46.77 34.34 51.52 34.73 51.52 34.75"/>
        <polygon class="cls-9" points="51.52 34.77 46.77 34.38 46.77 34.36 51.52 34.75 51.52 34.77"/>
        <polygon class="cls-138" points="51.52 34.8 46.77 34.4 46.77 34.38 51.52 34.77 51.52 34.8"/>
        <polygon class="cls-138" points="51.52 34.82 46.77 34.43 46.77 34.4 51.52 34.8 51.52 34.82"/>
        <polygon class="cls-31" points="51.52 34.84 46.77 34.45 46.77 34.43 51.52 34.82 51.52 34.84"/>
        <polygon class="cls-19" points="51.52 34.86 46.77 34.47 46.77 34.45 51.52 34.84 51.52 34.86"/>
        <polygon class="cls-124" points="51.52 34.88 46.77 34.49 46.77 34.47 51.52 34.86 51.52 34.88"/>
        <polygon class="cls-93" points="51.52 34.91 46.77 34.51 46.77 34.49 51.52 34.88 51.52 34.91"/>
        <polygon class="cls-127" points="51.52 34.93 46.77 34.54 46.77 34.51 51.52 34.91 51.52 34.93"/>
        <polygon class="cls-127" points="51.52 34.95 46.77 34.56 46.77 34.54 51.52 34.93 51.52 34.95"/>
        <polygon class="cls-58" points="51.52 34.97 46.77 34.58 46.77 34.56 51.52 34.95 51.52 34.97"/>
        <polygon class="cls-58" points="51.52 34.99 46.77 34.6 46.77 34.58 51.52 34.97 51.52 34.99"/>
        <polygon class="cls-56" points="51.52 35.02 46.77 34.62 46.77 34.6 51.52 34.99 51.52 35.02"/>
        <polygon class="cls-169" points="51.52 35.04 46.77 34.65 46.77 34.62 51.52 35.02 51.52 35.04"/>
        <polygon class="cls-169" points="51.52 35.06 46.77 34.67 46.77 34.65 51.52 35.04 51.52 35.06"/>
        <polygon class="cls-10" points="51.52 35.08 46.77 34.69 46.77 34.67 51.52 35.06 51.52 35.08"/>
        <polygon class="cls-73" points="51.52 35.1 46.77 34.71 46.77 34.69 51.52 35.08 51.52 35.1"/>
        <polygon class="cls-152" points="51.52 35.13 46.77 34.73 46.77 34.71 51.52 35.1 51.52 35.13"/>
        <polygon class="cls-61" points="51.52 35.15 46.77 34.75 46.77 34.73 51.52 35.13 51.52 35.15"/>
        <polygon class="cls-173" points="51.52 35.17 46.77 34.78 46.77 34.75 51.52 35.15 51.52 35.17"/>
        <polygon class="cls-113" points="51.52 35.19 46.77 34.8 46.77 34.78 51.52 35.17 51.52 35.19"/>
        <polygon class="cls-113" points="51.52 35.21 46.77 34.82 46.77 34.8 51.52 35.19 51.52 35.21"/>
        <polygon class="cls-3" points="51.52 35.23 46.77 34.84 46.77 34.82 51.52 35.21 51.52 35.23"/>
        <polygon class="cls-53" points="51.52 35.26 46.77 34.86 46.77 34.84 51.52 35.23 51.52 35.26"/>
        <polygon class="cls-156" points="51.52 35.28 46.77 34.89 46.77 34.86 51.52 35.26 51.52 35.28"/>
        <polygon class="cls-156" points="51.52 35.3 46.77 34.91 46.77 34.89 51.52 35.28 51.52 35.3"/>
        <polygon class="cls-88" points="51.52 35.32 46.77 34.93 46.77 34.91 51.52 35.3 51.52 35.32"/>
        <polygon class="cls-47" points="51.52 35.34 46.77 34.95 46.77 34.93 51.52 35.32 51.52 35.34"/>
        <polygon class="cls-47" points="51.52 35.37 46.77 34.97 46.77 34.95 51.52 35.34 51.52 35.37"/>
        <polygon class="cls-98" points="51.52 35.39 46.77 35 46.77 34.97 51.52 35.37 51.52 35.39"/>
        <polygon class="cls-98" points="51.52 35.41 46.77 35.02 46.77 35 51.52 35.39 51.52 35.41"/>
        <polygon class="cls-107" points="51.52 35.43 46.77 35.04 46.77 35.02 51.52 35.41 51.52 35.43"/>
        <polygon class="cls-15" points="51.52 35.45 46.77 35.06 46.77 35.04 51.52 35.43 51.52 35.45"/>
        <polygon class="cls-105" points="51.52 35.48 46.77 35.08 46.77 35.06 51.52 35.45 51.52 35.48"/>
        <polygon class="cls-105" points="51.52 35.5 46.77 35.11 46.77 35.08 51.52 35.48 51.52 35.5"/>
        <polygon class="cls-43" points="51.52 35.52 46.77 35.13 46.77 35.11 51.52 35.5 51.52 35.52"/>
        <polygon class="cls-174" points="51.52 35.54 46.77 35.15 46.77 35.13 51.52 35.52 51.52 35.54"/>
        <polygon class="cls-174" points="51.52 35.56 46.77 35.17 46.77 35.15 51.52 35.54 51.52 35.56"/>
        <polygon class="cls-115" points="51.52 35.59 46.77 35.19 46.77 35.17 51.52 35.56 51.52 35.59"/>
        <polygon class="cls-57" points="51.52 35.61 46.77 35.21 46.77 35.19 51.52 35.59 51.52 35.61"/>
        <polygon class="cls-32" points="51.52 35.63 46.77 35.24 46.77 35.21 51.52 35.61 51.52 35.63"/>
        <polygon class="cls-26" points="51.52 35.65 46.77 35.26 46.77 35.24 51.52 35.63 51.52 35.65"/>
        <polygon class="cls-26" points="51.52 35.67 46.77 35.28 46.77 35.26 51.52 35.65 51.52 35.67"/>
        <polygon class="cls-166" points="51.52 35.69 46.77 35.3 46.77 35.28 51.52 35.67 51.52 35.69"/>
        <polygon class="cls-129" points="51.52 35.72 46.77 35.32 46.77 35.3 51.52 35.69 51.52 35.72"/>
        <polygon class="cls-129" points="51.52 35.74 46.77 35.35 46.77 35.32 51.52 35.72 51.52 35.74"/>
        <polygon class="cls-129" points="51.52 35.76 46.77 35.37 46.77 35.35 51.52 35.74 51.52 35.76"/>
        <polygon class="cls-92" points="51.52 35.78 46.77 35.39 46.77 35.37 51.52 35.76 51.52 35.78"/>
        <polygon class="cls-92" points="51.52 35.8 46.77 35.41 46.77 35.39 51.52 35.78 51.52 35.8"/>
        <polygon class="cls-81" points="51.52 35.83 46.77 35.43 46.77 35.41 51.52 35.8 51.52 35.83"/>
        <polygon class="cls-81" points="51.52 35.85 46.77 35.46 46.77 35.43 51.52 35.83 51.52 35.85"/>
        <polygon class="cls-139" points="51.52 35.87 46.77 35.48 46.77 35.46 51.52 35.85 51.52 35.87"/>
        <polygon class="cls-4" points="51.52 35.89 46.77 35.5 46.77 35.48 51.52 35.87 51.52 35.89"/>
        <polygon class="cls-4" points="51.52 35.91 46.77 35.52 46.77 35.5 51.52 35.89 51.52 35.91"/>
        <polygon class="cls-46" points="51.52 35.94 46.77 35.54 46.77 35.52 51.52 35.91 51.52 35.94"/>
        <polygon class="cls-62" points="51.52 35.96 46.77 35.57 46.77 35.54 51.52 35.94 51.52 35.96"/>
        <polygon class="cls-87" points="51.52 35.98 46.77 35.59 46.77 35.57 51.52 35.96 51.52 35.98"/>
        <polygon class="cls-87" points="51.52 36 46.77 35.61 46.77 35.59 51.52 35.98 51.52 36"/>
        <polygon class="cls-87" points="51.52 36.02 46.77 35.63 46.77 35.61 51.52 36 51.52 36.02"/>
        <polygon class="cls-175" points="51.52 36.05 46.77 35.65 46.77 35.63 51.52 36.02 51.52 36.05"/>
        <polygon class="cls-12" points="51.52 36.07 46.77 35.68 46.77 35.65 51.52 36.05 51.52 36.07"/>
        <polygon class="cls-12" points="51.52 36.09 46.77 35.7 46.77 35.68 51.52 36.07 51.52 36.09"/>
        <polygon class="cls-171" points="51.52 36.11 46.77 35.72 46.77 35.7 51.52 36.09 51.52 36.11"/>
        <polygon class="cls-137" points="51.52 36.13 46.77 35.74 46.77 35.72 51.52 36.11 51.52 36.13"/>
        <polygon class="cls-137" points="51.52 36.16 46.77 35.76 46.77 35.74 51.52 36.13 51.52 36.16"/>
        <polygon class="cls-137" points="51.52 36.18 46.77 35.78 46.77 35.76 51.52 36.16 51.52 36.18"/>
        <polygon class="cls-137" points="51.52 36.2 46.77 35.81 46.77 35.78 51.52 36.18 51.52 36.2"/>
        <polygon class="cls-41" points="51.52 36.22 46.77 35.83 46.77 35.81 51.52 36.2 51.52 36.22"/>
        <polygon class="cls-99" points="51.52 36.24 46.77 35.85 46.77 35.83 51.52 36.22 51.52 36.24"/>
        <polygon class="cls-21" points="51.46 36.26 46.77 35.87 46.77 35.85 51.52 36.24 51.52 36.26 51.46 36.26"/>
        <polygon class="cls-21" points="51.2 36.26 46.77 35.89 46.77 35.87 51.46 36.26 51.2 36.26"/>
        <polygon class="cls-21" points="50.93 36.26 46.77 35.92 46.77 35.89 51.2 36.26 50.93 36.26"/>
        <polygon class="cls-21" points="50.67 36.26 46.77 35.94 46.77 35.92 50.93 36.26 50.67 36.26"/>
        <polygon class="cls-21" points="50.4 36.26 46.77 35.96 46.77 35.94 50.67 36.26 50.4 36.26"/>
        <polygon class="cls-21" points="50.14 36.26 46.77 35.98 46.77 35.96 50.4 36.26 50.14 36.26"/>
        <polygon class="cls-70" points="49.87 36.26 46.77 36 46.77 35.98 50.14 36.26 49.87 36.26"/>
        <polygon class="cls-148" points="49.61 36.26 46.77 36.03 46.77 36 49.87 36.26 49.61 36.26"/>
        <polygon class="cls-148" points="49.34 36.26 46.77 36.05 46.77 36.03 49.61 36.26 49.34 36.26"/>
        <polygon class="cls-148" points="49.07 36.26 46.77 36.07 46.77 36.05 49.34 36.26 49.07 36.26"/>
        <polygon class="cls-148" points="48.81 36.26 46.77 36.09 46.77 36.07 49.07 36.26 48.81 36.26"/>
        <polygon class="cls-148" points="48.54 36.26 46.77 36.11 46.77 36.09 48.81 36.26 48.54 36.26"/>
        <polygon class="cls-148" points="48.28 36.26 46.77 36.14 46.77 36.11 48.54 36.26 48.28 36.26"/>
        <polygon class="cls-148" points="48.01 36.26 46.77 36.16 46.77 36.14 48.28 36.26 48.01 36.26"/>
        <polygon class="cls-37" points="47.75 36.26 46.77 36.18 46.77 36.16 48.01 36.26 47.75 36.26"/>
        <polygon class="cls-37" points="47.48 36.26 46.77 36.2 46.77 36.18 47.75 36.26 47.48 36.26"/>
        <polygon class="cls-54" points="47.22 36.26 46.77 36.22 46.77 36.2 47.48 36.26 47.22 36.26"/>
        <polygon class="cls-54" points="46.95 36.26 46.77 36.24 46.77 36.22 47.22 36.26 46.95 36.26"/>
        <polygon class="cls-54" points="46.77 36.24 46.95 36.26 46.77 36.26 46.77 36.24"/>
      </g>
      <path class="cls-44" d="M49.04,35.45c-.67-.05-1.18-.73-1.12-1.47.06-.74.68-1.32,1.35-1.26.67.05,1.18.73,1.12,1.46-.06.74-.68,1.32-1.35,1.26Z"/>
      <path class="cls-130" d="M49.09,35.19c-.47-.04-.95-.55-.9-1.17.05-.63.61-1.05,1.08-1.01.47.04.95.55.9,1.18-.05.63-.61,1.05-1.08,1.01Z"/>
      <path class="cls-97" d="M48.72,33.64c-.02.23-.25.39-.52.37-.27-.02-.47-.23-.45-.45.02-.23.25-.39.52-.37.27.02.47.22.45.45Z"/>
      <path class="cls-97" d="M50.22,34.95c0,.11-.13.2-.26.18-.13-.01-.24-.11-.23-.23,0-.11.13-.2.26-.18.13.01.24.11.23.23Z"/>
      <path class="cls-6" d="M21.71,36c1.01-1.64,2.6-.95,2.99-.59.42.39.75.9.5,1.88-.13.55-.71.59-.56,1.42.16.93.59.99.84,1.2.25.21.55.36.71.76.15.39.18.81.1,1.17-.16.67-1.14.15-1.79-.14-.43-.19-1.81-1.34-2.17-1.72-.88-.98-1.3-2.86-.63-3.97"/>
      <path class="cls-27" d="M43.03,43.37c.36-.24.78-.13.78-.13,0,0,0,0-.01.02-.08.14-.56.91-.95.9.01,0-.08-.07-.11-.26-.03-.18.12-.42.29-.54Z"/>
      <path class="cls-84" d="M27.71,63.74c-.37.13-.73.26-1.1.38-.09.03-.18.07-.27.09-.98.34-1.91.65-2.67.9h-.01c-1.09.36-1.84.6-1.86.61-3.36,2.1-2.54,3.1-3.01,5.26h0v.04s-.03.08-.04.16h0c-.22,1.15-.31,6.67-.31,6.67,0,.33,0,.68,0,1.03h4.63c.09-1.07.24-2.63.38-3.48.6-3.74,3.93-4.71,4.27-11.65Z"/>
      <path class="cls-84" d="M59.31,78.88h4.57c0-.35,0-.7-.01-1.03,0,0-.1-6.28-.35-6.82-.48-2.19.38-3.19-3.01-5.3-.03-.01-.77-.25-1.88-.61t-.03-.01c-.72-.23-1.59-.52-2.5-.83-.35-.12-.7-.25-1.07-.36-.13-.05-.26-.09-.39-.14.35,6.93,3.68,7.9,4.27,11.64.14.85.29,2.42.38,3.48Z"/>
      <path class="cls-65" d="M41.18,70.06c-1.91-.11-3.67-.99-5.18-2.13-2.38-1.8-4.15-4.25-4.91-5.4-.16.07-.33.13-.5.2h-.13c-.55.22-1.16.44-1.78.66-.33.12-.65.24-.98.35-.34,6.88-3.61,7.9-4.25,11.55h17.73v-5.23Z"/>
      <path class="cls-177" d="M58.9,75.29c-.27-1.54-1-2.61-1.79-3.85-.92-1.45-1.91-3.13-2.3-6.04-.07-.51-.13-1.05-.16-1.64-.33-.12-.65-.23-.97-.35-.4-.15-.79-.29-1.17-.43.01-.01.03-.02.04-.03-.46-.18-.9-.35-1.3-.51-3.16,5.44-6.34,7.45-9.22,7.63-.17.01-.34.02-.5.02-.12,0-.23-.02-.34-.02v5.23h17.72Z"/>
      <path class="cls-5" d="M58.93,75.39s-.02-.07-.03-.1H23.46s-.02.07-.02.1c-.14.85-.29,2.42-.38,3.48h36.26c-.09-1.07-.24-2.63-.38-3.48Z"/>
      <path class="cls-161" d="M56.89,12.76c-1.7-1.55-3.78-3.81-3.78-3.81,0,0-2.32-2.02-7.45-3.08-3.91-.81-10.55.47-13.61,1.24-3.06.78-6.71,5.03-7.84,7.36-1.13,2.33-3.95,7.39-4.86,11.04-.9,3.66,2.14,7.21,4.05,7.96,1.24.49,1.31,3.34,1.31,3.34l1.35.58s-.83-1.98-.71-3.99c.08-1.33-.14-5.34-.14-5.34,0,0,6.62-1.29,10.94-2.49,3.19.82,6.65,2.97,8.56,8.11,0,0-.23-5.68-3.51-10.04.48-.23.97-.47,1.45-.73,1.78,1.3,3.4,3.26,4.51,6.23,0,0-.15-3.71-1.94-7.44,3.44,1.55,7.98,5.03,7.59,12.58,0,0,2.19-5.69.61-11.17,1.79,1.5,3.52,3.63,3.52,7.4,0,1.56-.71,6.1-.71,6.1l.71-.5s0-1.76,2.04-2.86c1.62-.88,2.03-3.87,2.03-5.1,0-8.26-2.41-13.85-4.11-15.4Z"/>
      <g>
        <path class="cls-24" d="M38.83,36.41c0,3.11-3.43,6.19-7.37,6.19-5.5,0-6.24-2.74-6.24-5.85s-1.36-5.63,6.7-5.63,6.92,2.19,6.92,5.29"/>
        <path class="cls-24" d="M44.36,36.41c0,3.11,3.43,6.19,7.37,6.19,5.5,0,6.24-2.74,6.24-5.85s1.36-5.63-6.69-5.63-6.92,2.19-6.92,5.29"/>
        <path class="cls-59" d="M28.61,41.8c1.44.44,6.83,1.06,9.07-3.1-4.5-2.32-9.03-1.06-11.66.1.77,2.34,2.06,2.84,2.6,3Z"/>
        <path class="cls-59" d="M54.51,41.8c.5-.15,1.66-.59,2.44-2.56-4.28-2.56-8.38-1.27-11.03.22,2.44,3.32,7.25,2.75,8.59,2.34Z"/>
        <path class="cls-97" d="M24.4,34.71c.18.67.89,5.5,2.48,6.82,2.61,2.17,11.41,2.27,12.93-5.65.21-1.08.48-1.71.95-1.89.19-.07.48-.12.77-.13.29,0,.57.06.76.13.47.18.75.81.96,1.89,1.51,7.92,10.31,7.82,12.93,5.65,1.59-1.32,2.3-6.15,2.48-6.82.18-.67.9-1.08,1.11-1.28.21-.2.05-2.1-.02-2.25-.1-.2-2.07-.5-4.64-.74-2.17-.2-5.65-.07-7.02.12-.56.08-1.59.27-2.6.54-1.13.31-2.25.7-2.71.8-.45.09-.8.13-1.17.12h0s-.06,0-.08,0c-.03,0-.06,0-.08,0h0c-.37.01-.72-.02-1.17-.12-.46-.1-1.58-.49-2.72-.8-1.01-.27-2.03-.47-2.6-.54-1.37-.19-4.86-.33-7.02-.12-2.57.24-4.53.53-4.64.74-.07.15-.23,2.04-.02,2.25.2.21.93.61,1.11,1.28ZM44.68,33.18c.27-.96,2.95-1.53,4.1-1.67,1.15-.15,2.85-.25,4.77,0,2.35.29,4.02.51,3.79,4.02-.33,5.05-2.39,5.86-3.09,6.07-1.61.49-8.23,1.21-9.6-4.99-.3-1.36-.23-2.45.04-3.41ZM29.53,31.5c1.92-.24,3.62-.14,4.76,0,1.15.15,3.84.71,4.11,1.67.26.96.33,2.06.03,3.41-1.37,6.21-8,5.48-9.6,4.99-.71-.21-2.77-1.02-3.09-6.07-.23-3.51,1.43-3.72,3.79-4.02Z"/>
      </g>
    </g>
  </g>
</svg>