<?xml version="1.0" encoding="UTF-8"?>
<svg id="Layer_2" data-name="Layer 2" xmlns="http://www.w3.org/2000/svg" xmlns:xlink="http://www.w3.org/1999/xlink" viewBox="0 0 78.88 78.88">
  <defs>
    <style>
      .cls-1 {
        fill: none;
      }

      .cls-2 {
        fill: #354148;
      }

      .cls-3 {
        fill: #7d99ae;
      }

      .cls-4 {
        fill: #84a2b8;
      }

      .cls-5 {
        fill: #9b2c1b;
      }

      .cls-6 {
        fill: #debaad;
      }

      .cls-7 {
        fill: #4e606b;
      }

      .cls-8 {
        fill: #bf6c6c;
      }

      .cls-9 {
        fill: #7791a4;
      }

      .cls-10 {
        fill: #7b97ab;
      }

      .cls-11 {
        fill: #677e8d;
      }

      .cls-12 {
        fill: #86a3ba;
      }

      .cls-13 {
        fill: #364349;
      }

      .cls-14 {
        fill: #313d43;
      }

      .cls-15 {
        fill: #809cb2;
      }

      .cls-16 {
        fill: #6d8596;
      }

      .cls-17 {
        fill: #44545c;
      }

      .cls-18 {
        fill: #46565f;
      }

      .cls-19 {
        fill: #7893a6;
      }

      .cls-20 {
        fill-rule: evenodd;
      }

      .cls-20, .cls-21 {
        fill: #fff;
      }

      .cls-22 {
        fill: #87a5bc;
      }

      .cls-23 {
        fill: #e4a529;
      }

      .cls-24 {
        fill: #748d9f;
      }

      .cls-25 {
        fill: #627886;
      }

      .cls-26 {
        fill: #576b77;
      }

      .cls-27 {
        fill: #829fb5;
      }

      .cls-28 {
        fill: #b89388;
      }

      .cls-29 {
        fill: #485862;
      }

      .cls-30 {
        fill: #6f8899;
      }

      .cls-31 {
        fill: #5b6f7c;
      }

      .cls-32 {
        fill: #7892a6;
      }

      .cls-33 {
        fill: #252318;
      }

      .cls-34 {
        fill: #829fb4;
      }

      .cls-35 {
        fill: #7690a2;
      }

      .cls-36 {
        fill: #596c79;
      }

      .cls-37 {
        fill: #748ea0;
      }

      .cls-38 {
        fill: #728b9c;
      }

      .cls-39 {
        fill: #88a6be;
      }

      .cls-40 {
        fill: #a88a6b;
      }

      .cls-41 {
        fill: #738d9f;
      }

      .cls-42 {
        fill: #495963;
      }

      .cls-43 {
        fill: #87a4bb;
      }

      .cls-44 {
        fill: #617785;
      }

      .cls-45 {
        fill: #819db3;
      }

      .cls-46 {
        fill: #95bacb;
      }

      .cls-47 {
        fill: #657b8a;
      }

      .cls-48 {
        fill: #85a2b8;
      }

      .cls-49 {
        fill: #7f9bb0;
      }

      .cls-50 {
        fill: #f3f3f2;
      }

      .cls-51 {
        fill: #667c8b;
      }

      .cls-52 {
        fill: #38454c;
      }

      .cls-53 {
        fill: #3e4d54;
      }

      .cls-54 {
        fill: #687f8f;
      }

      .cls-55 {
        fill: #7e9aae;
      }

      .cls-56 {
        fill: #88a7be;
      }

      .cls-57 {
        fill: #5b707d;
      }

      .cls-58 {
        fill: #7a96a9;
      }

      .cls-59 {
        fill: #829eb4;
      }

      .cls-60 {
        fill: #7a95a9;
      }

      .cls-61 {
        fill: #6c8495;
      }

      .cls-62 {
        fill: #7c98ac;
      }

      .cls-63 {
        fill: #85a2b9;
      }

      .cls-64 {
        fill: #677d8d;
      }

      .cls-65 {
        fill: #39464e;
      }

      .cls-66 {
        fill: #3d4b53;
      }

      .cls-67 {
        fill: #344046;
      }

      .cls-68 {
        fill: #586c78;
      }

      .cls-69 {
        fill: #596d7a;
      }

      .cls-70 {
        fill: #87a6bd;
      }

      .cls-71 {
        fill: #637988;
      }

      .cls-72 {
        fill: #37444b;
      }

      .cls-73 {
        fill: #7c97ab;
      }

      .cls-74 {
        fill: #6d8595;
      }

      .cls-75 {
        fill: #526570;
      }

      .cls-76 {
        fill: #70899b;
      }

      .cls-77 {
        fill: #738c9e;
      }

      .cls-78 {
        fill: #4e5f6a;
      }

      .cls-79 {
        clip-path: url(#clippath-1);
      }

      .cls-80 {
        fill: #546672;
      }

      .cls-81 {
        fill: #84a1b7;
      }

      .cls-82 {
        fill: #718a9c;
      }

      .cls-83 {
        fill: #5f7481;
      }

      .cls-84 {
        fill: #f1d4c8;
      }

      .cls-85 {
        fill: #6e8697;
      }

      .cls-86 {
        fill: #303c42;
      }

      .cls-87 {
        fill: #85a3b9;
      }

      .cls-88 {
        opacity: .65;
      }

      .cls-88, .cls-89 {
        fill: #1e1f1a;
      }

      .cls-89 {
        opacity: .4;
      }

      .cls-90 {
        fill: #7e9baf;
      }

      .cls-91 {
        fill: #6a8292;
      }

      .cls-92 {
        fill: #758fa1;
      }

      .cls-93 {
        fill: #6b8292;
      }

      .cls-94 {
        fill: #83a1b7;
      }

      .cls-95 {
        fill: #7994a7;
      }

      .cls-96 {
        fill: #6b8393;
      }

      .cls-97 {
        fill: #647a89;
      }

      .cls-98 {
        fill: #6e8798;
      }

      .cls-99 {
        fill: #7f9cb1;
      }

      .cls-100 {
        fill: #87a5bb;
      }

      .cls-101 {
        fill: #536671;
      }

      .cls-102 {
        fill: #5e7380;
      }

      .cls-103 {
        fill: #4d5e69;
      }

      .cls-104 {
        fill: #566975;
      }

      .cls-105 {
        fill: #6a8191;
      }

      .cls-106 {
        fill: #809db2;
      }

      .cls-107 {
        fill: #4c5d68;
      }

      .cls-108 {
        fill: #809cb1;
      }

      .cls-109 {
        fill: #4b5c67;
      }

      .cls-110 {
        fill: #475760;
      }

      .cls-111 {
        fill: #7691a3;
      }

      .cls-112 {
        fill: #3a484f;
      }

      .cls-113 {
        fill: #3b3b36;
      }

      .cls-114 {
        fill: #51636e;
      }

      .cls-115 {
        fill: #7d99ad;
      }

      .cls-116 {
        fill: #4f616c;
      }

      .cls-117 {
        fill: #819eb4;
      }

      .cls-118 {
        fill: #4a5b65;
      }

      .cls-119 {
        fill: #698090;
      }

      .cls-120 {
        opacity: .3;
      }

      .cls-121 {
        fill: #7690a3;
      }

      .cls-122 {
        fill: #5d727f;
      }

      .cls-123 {
        fill: #415059;
      }

      .cls-124 {
        fill: #2d383d;
      }

      .cls-125 {
        fill: #50626d;
      }

      .cls-126 {
        fill: #7893a7;
      }

      .cls-127 {
        fill: #43525b;
      }

      .cls-128 {
        fill: #748ea1;
      }

      .cls-129 {
        fill: #7994a8;
      }

      .cls-130 {
        fill: #546773;
      }

      .cls-131 {
        fill: #83a0b6;
      }

      .cls-132 {
        fill: #26200c;
      }

      .cls-133 {
        fill: #607583;
      }

      .cls-134 {
        fill: #556874;
      }

      .cls-135 {
        fill: #687f8e;
      }

      .cls-136 {
        fill: #667d8c;
      }

      .cls-137 {
        fill: #728b9d;
      }

      .cls-138 {
        fill: #323f45;
      }

      .cls-139 {
        fill: #86a4bb;
      }

      .cls-140 {
        fill: #7792a5;
      }

      .cls-141 {
        fill: #84a1b8;
      }

      .cls-142 {
        fill: #5d2d34;
      }

      .cls-143 {
        fill: #5c707e;
      }

      .cls-144 {
        fill: #698190;
      }

      .cls-145 {
        fill: #637987;
      }

      .cls-146 {
        fill: #3c4a52;
      }

      .cls-147 {
        fill: #42515a;
      }

      .cls-148 {
        fill: #c6a095;
      }

      .cls-149 {
        fill: #3b4950;
      }

      .cls-150 {
        fill: #6c8494;
      }

      .cls-151 {
        fill: #88a6bd;
      }

      .cls-152 {
        fill: #404f57;
      }

      .cls-153 {
        fill: #47433b;
      }

      .cls-154 {
        fill: #51646f;
      }

      .cls-155 {
        fill: #7c97ac;
      }

      .cls-156 {
        fill: #5a6e7b;
      }

      .cls-157 {
        fill: #647b8a;
      }

      .cls-158 {
        fill: #45555e;
      }

      .cls-159 {
        fill: #7e9aaf;
      }

      .cls-160 {
        fill: #3f4e56;
      }

      .cls-161 {
        fill: #2f3b40;
      }

      .cls-162 {
        fill: #4a5a64;
      }

      .cls-163 {
        fill: #607684;
      }

      .cls-164 {
        fill: #718a9b;
      }

      .cls-165 {
        fill: #5d717f;
      }

      .cls-166 {
        clip-path: url(#clippath);
      }

      .cls-167 {
        fill: #82a0b5;
      }

      .cls-168 {
        fill: #2e393f;
      }

      .cls-169 {
        fill: #70899a;
      }

      .cls-170 {
        fill: #7b96aa;
      }

      .cls-171 {
        fill: #758fa2;
      }

      .cls-172 {
        fill: #86a4ba;
      }

      .cls-173 {
        fill: #5f7482;
      }

      .cls-174 {
        fill: #7c98ad;
      }

      .cls-175 {
        fill: #819eb3;
      }

      .cls-176 {
        fill: #85a3ba;
      }

      .cls-177 {
        fill: #728c9e;
      }

      .cls-178 {
        fill: #576a76;
      }

      .cls-179 {
        fill: #627786;
      }

      .cls-180 {
        fill: #5e5d59;
      }

      .cls-181 {
        fill: #ab5b64;
      }
    </style>
    <clipPath id="clippath">
      <path class="cls-1" d="M34.1,36c-.1,1.19-1.16,2.07-2.36,1.97-1.21-.1-2.1-1.14-2.01-2.33.1-1.19,1.16-2.07,2.36-1.97,1.21.1,2.1,1.14,2.01,2.33Z"/>
    </clipPath>
    <clipPath id="clippath-1">
      <path class="cls-1" d="M49.53,35.88c-.1,1.19-1.16,2.07-2.36,1.97-1.21-.1-2.1-1.14-2.01-2.33.1-1.19,1.16-2.07,2.36-1.97,1.21.1,2.1,1.14,2.01,2.33Z"/>
    </clipPath>
  </defs>
  <g id="Layer_1-2" data-name="Layer 1">
    <g>
      <rect class="cls-142" width="78.88" height="78.88"/>
      <path class="cls-84" d="M61.49,77.89s-.1-6.03-.34-6.55c-.46-2.1.36-3.06-2.89-5.09-.03-.01-.74-.24-1.8-.59t-.03-.01c-.69-.22-1.53-.5-2.4-.8-.34-.11-.68-.24-1.03-.35-1.46-.51-2.94-1.06-4.03-1.51-.78-.34-1.35-.63-1.56-.84-.01-.01-.04-.05-.08-.09-.02-.04-.05-.06-.07-.1-.06-.35-1-1.89-1.33-3.57h0c-.07-.35-.11-.68-.12-1.01-.03-.49-.03-.98-.04-1.41-.01-.45-.02-.86-.04-1.2v-.29c-.01-.24-.01-.44-.01-.59-.01-.15-.01-.24-.01-.24,0,0,.35-.3.86-.75.64-.58,1.55-1.4,2.34-2.19.85-.85,1.59-1.66,1.75-2.09.01-.06.02-.11.02-.15,0,0-.02,0-.06.01-.4.06-2.55.44-4.87.8-1.38.21-2.81.43-3.99.58-.46.06-.89.1-1.25.14h-.01c-.34.04-.63.05-.84.05-.24,0-.56-.02-.95-.05h-.03c-.37-.05-.83-.1-1.31-.16-1.08-.14-2.36-.32-3.61-.51-1.15-.19-2.28-.36-3.16-.51-.21-.04-.4-.06-.58-.1-.85-.14-1.39-.24-1.39-.24,0,.16.15.41.4.74,0,0,0,.01.01.01.19.25.44.54.74.86.29.3.6.61.93.93.99.96,2.06,1.91,2.59,2.36.2.17.31.27.31.27,0,0,0,.09-.01.24,0,.15,0,.35-.01.59v.29c0,.1,0,.2-.01.3-.01.65-.04,1.46-.06,2.31-.01.34-.05.66-.12,1-.33,1.68-1.26,3.23-1.33,3.58-.03.04-.05.06-.07.1-.04.04-.06.08-.08.09-.17.17-.63.41-1.24.7-1.24.55-3.18,1.25-4.98,1.86-.09.03-.17.06-.26.09-.94.33-1.84.63-2.56.86h-.01c-1.05.35-1.76.58-1.79.59-3.23,2.01-2.44,2.98-2.89,5.05h0v.04s-.03.07-.04.15h0c-.21,1.1-.3,6.4-.3,6.4,0,.32,0,.65,0,.99h43.66c0-.34,0-.67-.01-.99Z"/>
      <path class="cls-148" d="M45.95,58.38c-.07-.34-.11-.66-.12-1-.04-1.13-.06-2.2-.07-2.9-1.88.84-3.8,1.33-5.69,1.33-.11.02-.26.02-.38.02s-.27,0-.38-.02c-1.89,0-3.82-.49-5.69-1.33-.01.7-.04,1.78-.07,2.9-.01.34-.05.66-.13,1,1.81,1.51,4.26,3.08,5.89,3.08.1.02.23.02.34.02h0s.03,0,.04,0,.03,0,.04,0h0c.12,0,.24,0,.34-.03,1.63,0,4.08-1.56,5.89-3.08Z"/>
      <g>
        <path class="cls-84" d="M55.78,35.92c.31-1.73.56-3.06.63-3.32.04-.12.06-.25.1-.38.03-.15.06-.29.09-.43.06-.21.1-.43.15-.64.01-.1.04-.2.05-.3.04-.24.09-.48.12-.71.01-.1.03-.21.04-.31.04-.21.05-.42.08-.64.01-.16.02-.33.05-.48.01-.14.01-.28.02-.41.16-3.27-.54-6.59-2.68-9.61-2.59-3.63-5.57-7.47-12.03-8h-5.45c-6.47.54-9.44,4.38-12.03,8-2.14,3.01-2.84,6.34-2.68,9.61.01.14.01.27.02.41.02.15.04.31.05.48.02.21.04.43.07.64.01.1.03.21.04.31.04.24.09.48.13.71.01.1.04.2.05.3.05.21.09.43.15.64.03.14.06.27.09.43.04.12.06.25.1.38.08.26.32,1.57.63,3.29-1.73-.84-4.12.36-3.84,3.54.29,3.22,4.21,5.14,5.56,5.46.13.58.24,1.02.33,1.23,1.18,2.96,2.6,3.85,5.1,6.27,2.73,2.61,6.75,5.07,8.74,5.05.06.01.14.01.21.01s.15,0,.21-.01c1.99.01,6.02-2.44,8.74-5.05,2.5-2.42,3.93-3.3,5.1-6.27.08-.21.19-.64.32-1.21,1.3-.29,5.3-2.21,5.6-5.47.29-3.21-2.15-4.4-3.88-3.51Z"/>
        <path class="cls-6" d="M58.4,37.7c-.97-1.58-2.5-.92-2.88-.57-.4.37-.72.87-.48,1.8.13.52.68.57.54,1.37-.16.89-.57.95-.81,1.15-.24.2-.53.35-.68.73-.14.37-.17.78-.1,1.12.15.65,1.09.14,1.72-.14.42-.18,1.74-1.29,2.08-1.65.84-.94,1.25-2.75.6-3.81"/>
      </g>
      <path class="cls-6" d="M36.91,51.27c-.06-.83,2.32.17,3.1.2.62.02,2.5-.12,2.67-.19,1.31-.49-.07,1.38-2.71,1.48-1.21.05-3.02-.99-3.06-1.49Z"/>
      <g>
        <path class="cls-181" d="M44.76,50.2c-1.51-.28-4.69-.89-4.69-.89-2.62.43-4.67.89-4.69.9-.06,0,2.09,1.93,4.65,1.8h0c2.56.13,4.79-1.8,4.73-1.81Z"/>
        <path class="cls-8" d="M41.57,48.78c-.68-.07-1.15.32-1.5.29-.36.03-.82-.36-1.5-.29-.97.21-1.43.82-3.19,1.43.06.12,1.19-.15,3.3-.11.03,0,.6.32,1.4.31.5,0,1.2-.34,1.22-.34,2.12-.03,3.41.26,3.47.14-2.33-.72-2.24-1.23-3.2-1.44Z"/>
      </g>
      <path class="cls-40" d="M41.32,44.8c.34-.23.74-.12.74-.12,0,0,0,0-.01.02-.08.14-.54.87-.91.86,0,0-.08-.07-.1-.25-.03-.18.11-.4.28-.52Z"/>
      <path class="cls-6" d="M36.69,44.57c-.07-1.66,2.56-.6,3.43-.55.69.04,2.77-.52,2.95-.38,1.23.98-1.3,2.96-2.99,2.96-.45,0-3.35-1.03-3.39-2.03Z"/>
      <path class="cls-28" d="M38.68,44.78c-.34-.23-.74-.12-.74-.12,0,0,0,0,.01.02.08.14.54.87.91.86,0,0,.08-.07.1-.25.03-.17-.11-.4-.28-.52Z"/>
      <path class="cls-180" d="M36.24,33.26s-.4-.4-1.14-.89c-.35-.26-.81-.48-1.3-.72-.49-.23-1.04-.41-1.62-.5-.57-.13-1.15-.16-1.71-.15-.28.02-.55.04-.8.06-.26.01-.5.08-.72.11-.45.07-.82.18-1.09.24-.27.06-.42.1-.42.1,0,0,.13-.08.37-.23.24-.13.57-.37,1.02-.53.44-.19.98-.36,1.58-.48.6-.08,1.26-.12,1.92-.05.66.09,1.3.27,1.87.51.57.24,1.06.56,1.45.86.78.59,1.16,1.18,1.16,1.18h0c.12.18.07.42-.11.54-.15.1-.35.07-.48-.05Z"/>
      <path class="cls-21" d="M27.03,35.02s1.46,3.64,3.74,4c2.27.36,4.69-.16,4.69-.16,0,0,.06-4.23-1.12-4.82-1.18-.59-3.88-1.46-7.31.98Z"/>
      <g class="cls-166">
        <polygon class="cls-124" points="34.2 34.37 29.64 34 29.64 33.57 34.2 33.57 34.2 34.37"/>
        <polygon class="cls-124" points="34.2 34.39 29.64 34.02 29.64 34 34.2 34.37 34.2 34.39"/>
        <polygon class="cls-168" points="34.2 34.41 29.64 34.04 29.64 34.02 34.2 34.39 34.2 34.41"/>
        <polygon class="cls-161" points="34.2 34.44 29.64 34.06 29.64 34.04 34.2 34.41 34.2 34.44"/>
        <polygon class="cls-86" points="34.2 34.46 29.64 34.08 29.64 34.06 34.2 34.44 34.2 34.46"/>
        <polygon class="cls-14" points="34.2 34.48 29.64 34.1 29.64 34.08 34.2 34.46 34.2 34.48"/>
        <polygon class="cls-138" points="34.2 34.5 29.64 34.12 29.64 34.1 34.2 34.48 34.2 34.5"/>
        <polygon class="cls-67" points="34.2 34.52 29.64 34.14 29.64 34.12 34.2 34.5 34.2 34.52"/>
        <polygon class="cls-2" points="34.2 34.54 29.64 34.16 29.64 34.14 34.2 34.52 34.2 34.54"/>
        <polygon class="cls-13" points="34.2 34.56 29.64 34.19 29.64 34.16 34.2 34.54 34.2 34.56"/>
        <polygon class="cls-72" points="34.2 34.58 29.64 34.21 29.64 34.19 34.2 34.56 34.2 34.58"/>
        <polygon class="cls-52" points="34.2 34.6 29.64 34.23 29.64 34.21 34.2 34.58 34.2 34.6"/>
        <polygon class="cls-65" points="34.2 34.63 29.64 34.25 29.64 34.23 34.2 34.6 34.2 34.63"/>
        <polygon class="cls-112" points="34.2 34.65 29.64 34.27 29.64 34.25 34.2 34.63 34.2 34.65"/>
        <polygon class="cls-149" points="34.2 34.67 29.64 34.29 29.64 34.27 34.2 34.65 34.2 34.67"/>
        <polygon class="cls-146" points="34.2 34.69 29.64 34.31 29.64 34.29 34.2 34.67 34.2 34.69"/>
        <polygon class="cls-66" points="34.2 34.71 29.64 34.33 29.64 34.31 34.2 34.69 34.2 34.71"/>
        <polygon class="cls-53" points="34.2 34.73 29.64 34.35 29.64 34.33 34.2 34.71 34.2 34.73"/>
        <polygon class="cls-160" points="34.2 34.75 29.64 34.37 29.64 34.35 34.2 34.73 34.2 34.75"/>
        <polygon class="cls-152" points="34.2 34.77 29.64 34.4 29.64 34.37 34.2 34.75 34.2 34.77"/>
        <polygon class="cls-123" points="34.2 34.79 29.64 34.42 29.64 34.4 34.2 34.77 34.2 34.79"/>
        <polygon class="cls-147" points="34.2 34.81 29.64 34.44 29.64 34.42 34.2 34.79 34.2 34.81"/>
        <polygon class="cls-127" points="34.2 34.84 29.64 34.46 29.64 34.44 34.2 34.81 34.2 34.84"/>
        <polygon class="cls-17" points="34.2 34.86 29.64 34.48 29.64 34.46 34.2 34.84 34.2 34.86"/>
        <polygon class="cls-158" points="34.2 34.88 29.64 34.5 29.64 34.48 34.2 34.86 34.2 34.88"/>
        <polygon class="cls-18" points="34.2 34.9 29.64 34.52 29.64 34.5 34.2 34.88 34.2 34.9"/>
        <polygon class="cls-110" points="34.2 34.92 29.64 34.54 29.64 34.52 34.2 34.9 34.2 34.92"/>
        <polygon class="cls-29" points="34.2 34.94 29.64 34.56 29.64 34.54 34.2 34.92 34.2 34.94"/>
        <polygon class="cls-42" points="34.2 34.96 29.64 34.59 29.64 34.56 34.2 34.94 34.2 34.96"/>
        <polygon class="cls-162" points="34.2 34.98 29.64 34.61 29.64 34.59 34.2 34.96 34.2 34.98"/>
        <polygon class="cls-118" points="34.2 35 29.64 34.63 29.64 34.61 34.2 34.98 34.2 35"/>
        <polygon class="cls-109" points="34.2 35.03 29.64 34.65 29.64 34.63 34.2 35 34.2 35.03"/>
        <polygon class="cls-107" points="34.2 35.05 29.64 34.67 29.64 34.65 34.2 35.03 34.2 35.05"/>
        <polygon class="cls-103" points="34.2 35.07 29.64 34.69 29.64 34.67 34.2 35.05 34.2 35.07"/>
        <polygon class="cls-78" points="34.2 35.09 29.64 34.71 29.64 34.69 34.2 35.07 34.2 35.09"/>
        <polygon class="cls-7" points="34.2 35.11 29.64 34.73 29.64 34.71 34.2 35.09 34.2 35.11"/>
        <polygon class="cls-116" points="34.2 35.13 29.64 34.75 29.64 34.73 34.2 35.11 34.2 35.13"/>
        <polygon class="cls-125" points="34.2 35.15 29.64 34.77 29.64 34.75 34.2 35.13 34.2 35.15"/>
        <polygon class="cls-114" points="34.2 35.17 29.64 34.8 29.64 34.77 34.2 35.15 34.2 35.17"/>
        <polygon class="cls-154" points="34.2 35.19 29.64 34.82 29.64 34.8 34.2 35.17 34.2 35.19"/>
        <polygon class="cls-75" points="34.2 35.21 29.64 34.84 29.64 34.82 34.2 35.19 34.2 35.21"/>
        <polygon class="cls-101" points="34.2 35.24 29.64 34.86 29.64 34.84 34.2 35.21 34.2 35.24"/>
        <polygon class="cls-80" points="34.2 35.26 29.64 34.88 29.64 34.86 34.2 35.24 34.2 35.26"/>
        <polygon class="cls-130" points="34.2 35.28 29.64 34.9 29.64 34.88 34.2 35.26 34.2 35.28"/>
        <polygon class="cls-134" points="34.2 35.3 29.64 34.92 29.64 34.9 34.2 35.28 34.2 35.3"/>
        <polygon class="cls-104" points="34.2 35.32 29.64 34.94 29.64 34.92 34.2 35.3 34.2 35.32"/>
        <polygon class="cls-178" points="34.2 35.34 29.64 34.96 29.64 34.94 34.2 35.32 34.2 35.34"/>
        <polygon class="cls-26" points="34.2 35.36 29.64 34.98 29.64 34.96 34.2 35.34 34.2 35.36"/>
        <polygon class="cls-68" points="34.2 35.38 29.64 35.01 29.64 34.98 34.2 35.36 34.2 35.38"/>
        <polygon class="cls-36" points="34.2 35.4 29.64 35.03 29.64 35.01 34.2 35.38 34.2 35.4"/>
        <polygon class="cls-69" points="34.2 35.42 29.64 35.05 29.64 35.03 34.2 35.4 34.2 35.42"/>
        <polygon class="cls-156" points="34.2 35.45 29.64 35.07 29.64 35.05 34.2 35.42 34.2 35.45"/>
        <polygon class="cls-31" points="34.2 35.47 29.64 35.09 29.64 35.07 34.2 35.45 34.2 35.47"/>
        <polygon class="cls-57" points="34.2 35.49 29.64 35.11 29.64 35.09 34.2 35.47 34.2 35.49"/>
        <polygon class="cls-143" points="34.2 35.51 29.64 35.13 29.64 35.11 34.2 35.49 34.2 35.51"/>
        <polygon class="cls-165" points="34.2 35.53 29.64 35.15 29.64 35.13 34.2 35.51 34.2 35.53"/>
        <polygon class="cls-122" points="34.2 35.55 29.64 35.17 29.64 35.15 34.2 35.53 34.2 35.55"/>
        <polygon class="cls-102" points="34.2 35.57 29.64 35.2 29.64 35.17 34.2 35.55 34.2 35.57"/>
        <polygon class="cls-83" points="34.2 35.59 29.64 35.22 29.64 35.2 34.2 35.57 34.2 35.59"/>
        <polygon class="cls-173" points="34.2 35.61 29.64 35.24 29.64 35.22 34.2 35.59 34.2 35.61"/>
        <polygon class="cls-133" points="34.2 35.64 29.64 35.26 29.64 35.24 34.2 35.61 34.2 35.64"/>
        <polygon class="cls-163" points="34.2 35.66 29.64 35.28 29.64 35.26 34.2 35.64 34.2 35.66"/>
        <polygon class="cls-44" points="34.2 35.68 29.64 35.3 29.64 35.28 34.2 35.66 34.2 35.68"/>
        <polygon class="cls-179" points="34.2 35.7 29.64 35.32 29.64 35.3 34.2 35.68 34.2 35.7"/>
        <polygon class="cls-25" points="34.2 35.72 29.64 35.34 29.64 35.32 34.2 35.7 34.2 35.72"/>
        <polygon class="cls-145" points="34.2 35.74 29.64 35.36 29.64 35.34 34.2 35.72 34.2 35.74"/>
        <polygon class="cls-71" points="34.2 35.76 29.64 35.38 29.64 35.36 34.2 35.74 34.2 35.76"/>
        <polygon class="cls-97" points="34.2 35.78 29.64 35.41 29.64 35.38 34.2 35.76 34.2 35.78"/>
        <polygon class="cls-157" points="34.2 35.8 29.64 35.43 29.64 35.41 34.2 35.78 34.2 35.8"/>
        <polygon class="cls-47" points="34.2 35.82 29.64 35.45 29.64 35.43 34.2 35.8 34.2 35.82"/>
        <polygon class="cls-51" points="34.2 35.85 29.64 35.47 29.64 35.45 34.2 35.82 34.2 35.85"/>
        <polygon class="cls-136" points="34.2 35.87 29.64 35.49 29.64 35.47 34.2 35.85 34.2 35.87"/>
        <polygon class="cls-64" points="34.2 35.89 29.64 35.51 29.64 35.49 34.2 35.87 34.2 35.89"/>
        <polygon class="cls-11" points="34.2 35.91 29.64 35.53 29.64 35.51 34.2 35.89 34.2 35.91"/>
        <polygon class="cls-135" points="34.2 35.93 29.64 35.55 29.64 35.53 34.2 35.91 34.2 35.93"/>
        <polygon class="cls-54" points="34.2 35.95 29.64 35.57 29.64 35.55 34.2 35.93 34.2 35.95"/>
        <polygon class="cls-119" points="34.2 35.97 29.64 35.6 29.64 35.57 34.2 35.95 34.2 35.97"/>
        <polygon class="cls-144" points="34.2 35.99 29.64 35.62 29.64 35.6 34.2 35.97 34.2 35.99"/>
        <polygon class="cls-105" points="34.2 36.01 29.64 35.64 29.64 35.62 34.2 35.99 34.2 36.01"/>
        <polygon class="cls-91" points="34.2 36.04 29.64 35.66 29.64 35.64 34.2 36.01 34.2 36.04"/>
        <polygon class="cls-93" points="34.2 36.06 29.64 35.68 29.64 35.66 34.2 36.04 34.2 36.06"/>
        <polygon class="cls-96" points="34.2 36.08 29.64 35.7 29.64 35.68 34.2 36.06 34.2 36.08"/>
        <polygon class="cls-150" points="34.2 36.1 29.64 35.72 29.64 35.7 34.2 36.08 34.2 36.1"/>
        <polygon class="cls-61" points="34.2 36.12 29.64 35.74 29.64 35.72 34.2 36.1 34.2 36.12"/>
        <polygon class="cls-74" points="34.2 36.14 29.64 35.76 29.64 35.74 34.2 36.12 34.2 36.14"/>
        <polygon class="cls-16" points="34.2 36.16 29.64 35.78 29.64 35.76 34.2 36.14 34.2 36.16"/>
        <polygon class="cls-85" points="34.2 36.18 29.64 35.81 29.64 35.78 34.2 36.16 34.2 36.18"/>
        <polygon class="cls-85" points="34.2 36.2 29.64 35.83 29.64 35.81 34.2 36.18 34.2 36.2"/>
        <polygon class="cls-98" points="34.2 36.22 29.64 35.85 29.64 35.83 34.2 36.2 34.2 36.22"/>
        <polygon class="cls-30" points="34.2 36.25 29.64 35.87 29.64 35.85 34.2 36.22 34.2 36.25"/>
        <polygon class="cls-30" points="34.2 36.27 29.64 35.89 29.64 35.87 34.2 36.25 34.2 36.27"/>
        <polygon class="cls-169" points="34.2 36.29 29.64 35.91 29.64 35.89 34.2 36.27 34.2 36.29"/>
        <polygon class="cls-76" points="34.2 36.31 29.64 35.93 29.64 35.91 34.2 36.29 34.2 36.31"/>
        <polygon class="cls-164" points="34.2 36.33 29.64 35.95 29.64 35.93 34.2 36.31 34.2 36.33"/>
        <polygon class="cls-82" points="34.2 36.35 29.64 35.97 29.64 35.95 34.2 36.33 34.2 36.35"/>
        <polygon class="cls-38" points="34.2 36.37 29.64 35.99 29.64 35.97 34.2 36.35 34.2 36.37"/>
        <polygon class="cls-137" points="34.2 36.39 29.64 36.02 29.64 35.99 34.2 36.37 34.2 36.39"/>
        <polygon class="cls-177" points="34.2 36.41 29.64 36.04 29.64 36.02 34.2 36.39 34.2 36.41"/>
        <polygon class="cls-77" points="34.2 36.43 29.64 36.06 29.64 36.04 34.2 36.41 34.2 36.43"/>
        <polygon class="cls-41" points="34.2 36.46 29.64 36.08 29.64 36.06 34.2 36.43 34.2 36.46"/>
        <polygon class="cls-24" points="34.2 36.48 29.64 36.1 29.64 36.08 34.2 36.46 34.2 36.48"/>
        <polygon class="cls-37" points="34.2 36.5 29.64 36.12 29.64 36.1 34.2 36.48 34.2 36.5"/>
        <polygon class="cls-128" points="34.2 36.52 29.64 36.14 29.64 36.12 34.2 36.5 34.2 36.52"/>
        <polygon class="cls-92" points="34.2 36.54 29.64 36.16 29.64 36.14 34.2 36.52 34.2 36.54"/>
        <polygon class="cls-171" points="34.2 36.56 29.64 36.18 29.64 36.16 34.2 36.54 34.2 36.56"/>
        <polygon class="cls-35" points="34.2 36.58 29.64 36.21 29.64 36.18 34.2 36.56 34.2 36.58"/>
        <polygon class="cls-121" points="34.2 36.6 29.64 36.23 29.64 36.21 34.2 36.58 34.2 36.6"/>
        <polygon class="cls-111" points="34.2 36.62 29.64 36.25 29.64 36.23 34.2 36.6 34.2 36.62"/>
        <polygon class="cls-9" points="34.2 36.65 29.64 36.27 29.64 36.25 34.2 36.62 34.2 36.65"/>
        <polygon class="cls-140" points="34.2 36.67 29.64 36.29 29.64 36.27 34.2 36.65 34.2 36.67"/>
        <polygon class="cls-140" points="34.2 36.69 29.64 36.31 29.64 36.29 34.2 36.67 34.2 36.69"/>
        <polygon class="cls-32" points="34.2 36.71 29.64 36.33 29.64 36.31 34.2 36.69 34.2 36.71"/>
        <polygon class="cls-19" points="34.2 36.73 29.64 36.35 29.64 36.33 34.2 36.71 34.2 36.73"/>
        <polygon class="cls-126" points="34.2 36.75 29.64 36.37 29.64 36.35 34.2 36.73 34.2 36.75"/>
        <polygon class="cls-95" points="34.2 36.77 29.64 36.39 29.64 36.37 34.2 36.75 34.2 36.77"/>
        <polygon class="cls-129" points="34.2 36.79 29.64 36.42 29.64 36.39 34.2 36.77 34.2 36.79"/>
        <polygon class="cls-129" points="34.2 36.81 29.64 36.44 29.64 36.42 34.2 36.79 34.2 36.81"/>
        <polygon class="cls-60" points="34.2 36.83 29.64 36.46 29.64 36.44 34.2 36.81 34.2 36.83"/>
        <polygon class="cls-60" points="34.2 36.86 29.64 36.48 29.64 36.46 34.2 36.83 34.2 36.86"/>
        <polygon class="cls-58" points="34.2 36.88 29.64 36.5 29.64 36.48 34.2 36.86 34.2 36.88"/>
        <polygon class="cls-170" points="34.2 36.9 29.64 36.52 29.64 36.5 34.2 36.88 34.2 36.9"/>
        <polygon class="cls-170" points="34.2 36.92 29.64 36.54 29.64 36.52 34.2 36.9 34.2 36.92"/>
        <polygon class="cls-10" points="34.2 36.94 29.64 36.56 29.64 36.54 34.2 36.92 34.2 36.94"/>
        <polygon class="cls-73" points="34.2 36.96 29.64 36.58 29.64 36.56 34.2 36.94 34.2 36.96"/>
        <polygon class="cls-155" points="34.2 36.98 29.64 36.61 29.64 36.58 34.2 36.96 34.2 36.98"/>
        <polygon class="cls-62" points="34.2 37 29.64 36.63 29.64 36.61 34.2 36.98 34.2 37"/>
        <polygon class="cls-174" points="34.2 37.02 29.64 36.65 29.64 36.63 34.2 37 34.2 37.02"/>
        <polygon class="cls-115" points="34.2 37.05 29.64 36.67 29.64 36.65 34.2 37.02 34.2 37.05"/>
        <polygon class="cls-115" points="34.2 37.07 29.64 36.69 29.64 36.67 34.2 37.05 34.2 37.07"/>
        <polygon class="cls-3" points="34.2 37.09 29.64 36.71 29.64 36.69 34.2 37.07 34.2 37.09"/>
        <polygon class="cls-55" points="34.2 37.11 29.64 36.73 29.64 36.71 34.2 37.09 34.2 37.11"/>
        <polygon class="cls-159" points="34.2 37.13 29.64 36.75 29.64 36.73 34.2 37.11 34.2 37.13"/>
        <polygon class="cls-159" points="34.2 37.15 29.64 36.77 29.64 36.75 34.2 37.13 34.2 37.15"/>
        <polygon class="cls-90" points="34.2 37.17 29.64 36.79 29.64 36.77 34.2 37.15 34.2 37.17"/>
        <polygon class="cls-49" points="34.2 37.19 29.64 36.82 29.64 36.79 34.2 37.17 34.2 37.19"/>
        <polygon class="cls-49" points="34.2 37.21 29.64 36.84 29.64 36.82 34.2 37.19 34.2 37.21"/>
        <polygon class="cls-99" points="34.2 37.23 29.64 36.86 29.64 36.84 34.2 37.21 34.2 37.23"/>
        <polygon class="cls-99" points="34.2 37.26 29.64 36.88 29.64 36.86 34.2 37.23 34.2 37.26"/>
        <polygon class="cls-108" points="34.2 37.28 29.64 36.9 29.64 36.88 34.2 37.26 34.2 37.28"/>
        <polygon class="cls-15" points="34.2 37.3 29.64 36.92 29.64 36.9 34.2 37.28 34.2 37.3"/>
        <polygon class="cls-106" points="34.2 37.32 29.64 36.94 29.64 36.92 34.2 37.3 34.2 37.32"/>
        <polygon class="cls-106" points="34.2 37.34 29.64 36.96 29.64 36.94 34.2 37.32 34.2 37.34"/>
        <polygon class="cls-45" points="34.2 37.36 29.64 36.98 29.64 36.96 34.2 37.34 34.2 37.36"/>
        <polygon class="cls-175" points="34.2 37.38 29.64 37 29.64 36.98 34.2 37.36 34.2 37.38"/>
        <polygon class="cls-175" points="34.2 37.4 29.64 37.03 29.64 37 34.2 37.38 34.2 37.4"/>
        <polygon class="cls-117" points="34.2 37.42 29.64 37.05 29.64 37.03 34.2 37.4 34.2 37.42"/>
        <polygon class="cls-59" points="34.2 37.44 29.64 37.07 29.64 37.05 34.2 37.42 34.2 37.44"/>
        <polygon class="cls-34" points="34.2 37.47 29.64 37.09 29.64 37.07 34.2 37.44 34.2 37.47"/>
        <polygon class="cls-27" points="34.2 37.49 29.64 37.11 29.64 37.09 34.2 37.47 34.2 37.49"/>
        <polygon class="cls-27" points="34.2 37.51 29.64 37.13 29.64 37.11 34.2 37.49 34.2 37.51"/>
        <polygon class="cls-167" points="34.2 37.53 29.64 37.15 29.64 37.13 34.2 37.51 34.2 37.53"/>
        <polygon class="cls-131" points="34.2 37.55 29.64 37.17 29.64 37.15 34.2 37.53 34.2 37.55"/>
        <polygon class="cls-131" points="34.2 37.57 29.64 37.19 29.64 37.17 34.2 37.55 34.2 37.57"/>
        <polygon class="cls-131" points="34.2 37.59 29.64 37.22 29.64 37.19 34.2 37.57 34.2 37.59"/>
        <polygon class="cls-94" points="34.2 37.61 29.64 37.24 29.64 37.22 34.2 37.59 34.2 37.61"/>
        <polygon class="cls-94" points="34.2 37.63 29.64 37.26 29.64 37.24 34.2 37.61 34.2 37.63"/>
        <polygon class="cls-81" points="34.2 37.66 29.64 37.28 29.64 37.26 34.2 37.63 34.2 37.66"/>
        <polygon class="cls-81" points="34.2 37.68 29.64 37.3 29.64 37.28 34.2 37.66 34.2 37.68"/>
        <polygon class="cls-141" points="34.2 37.7 29.64 37.32 29.64 37.3 34.2 37.68 34.2 37.7"/>
        <polygon class="cls-4" points="34.2 37.72 29.64 37.34 29.64 37.32 34.2 37.7 34.2 37.72"/>
        <polygon class="cls-4" points="34.2 37.74 29.64 37.36 29.64 37.34 34.2 37.72 34.2 37.74"/>
        <polygon class="cls-48" points="34.2 37.76 29.64 37.38 29.64 37.36 34.2 37.74 34.2 37.76"/>
        <polygon class="cls-63" points="34.2 37.78 29.64 37.4 29.64 37.38 34.2 37.76 34.2 37.78"/>
        <polygon class="cls-87" points="34.2 37.8 29.64 37.43 29.64 37.4 34.2 37.78 34.2 37.8"/>
        <polygon class="cls-87" points="34.2 37.82 29.64 37.45 29.64 37.43 34.2 37.8 34.2 37.82"/>
        <polygon class="cls-87" points="34.2 37.84 29.64 37.47 29.64 37.45 34.2 37.82 34.2 37.84"/>
        <polygon class="cls-176" points="34.2 37.87 29.64 37.49 29.64 37.47 34.2 37.84 34.2 37.87"/>
        <polygon class="cls-12" points="34.2 37.89 29.64 37.51 29.64 37.49 34.2 37.87 34.2 37.89"/>
        <polygon class="cls-12" points="34.2 37.91 29.64 37.53 29.64 37.51 34.2 37.89 34.2 37.91"/>
        <polygon class="cls-172" points="34.2 37.93 29.64 37.55 29.64 37.53 34.2 37.91 34.2 37.93"/>
        <polygon class="cls-139" points="34.2 37.95 29.64 37.57 29.64 37.55 34.2 37.93 34.2 37.95"/>
        <polygon class="cls-139" points="34.2 37.97 29.64 37.59 29.64 37.57 34.2 37.95 34.2 37.97"/>
        <polygon class="cls-139" points="34.2 37.99 29.64 37.62 29.64 37.59 34.2 37.97 34.2 37.99"/>
        <polygon class="cls-139" points="34.2 38.01 29.64 37.64 29.64 37.62 34.2 37.99 34.2 38.01"/>
        <polygon class="cls-43" points="34.2 38.03 29.64 37.66 29.64 37.64 34.2 38.01 34.2 38.03"/>
        <polygon class="cls-100" points="34.2 38.06 29.64 37.68 29.64 37.66 34.2 38.03 34.2 38.06"/>
        <polygon class="cls-22" points="34.15 38.07 29.64 37.7 29.64 37.68 34.2 38.06 34.2 38.07 34.15 38.07"/>
        <polygon class="cls-22" points="33.89 38.07 29.64 37.72 29.64 37.7 34.15 38.07 33.89 38.07"/>
        <polygon class="cls-22" points="33.64 38.07 29.64 37.74 29.64 37.72 33.89 38.07 33.64 38.07"/>
        <polygon class="cls-22" points="33.38 38.07 29.64 37.76 29.64 37.74 33.64 38.07 33.38 38.07"/>
        <polygon class="cls-22" points="33.13 38.07 29.64 37.78 29.64 37.76 33.38 38.07 33.13 38.07"/>
        <polygon class="cls-22" points="32.87 38.07 29.64 37.8 29.64 37.78 33.13 38.07 32.87 38.07"/>
        <polygon class="cls-70" points="32.62 38.07 29.64 37.83 29.64 37.8 32.87 38.07 32.62 38.07"/>
        <polygon class="cls-151" points="32.36 38.07 29.64 37.85 29.64 37.83 32.62 38.07 32.36 38.07"/>
        <polygon class="cls-151" points="32.11 38.07 29.64 37.87 29.64 37.85 32.36 38.07 32.11 38.07"/>
        <polygon class="cls-151" points="31.85 38.07 29.64 37.89 29.64 37.87 32.11 38.07 31.85 38.07"/>
        <polygon class="cls-151" points="31.6 38.07 29.64 37.91 29.64 37.89 31.85 38.07 31.6 38.07"/>
        <polygon class="cls-151" points="31.34 38.07 29.64 37.93 29.64 37.91 31.6 38.07 31.34 38.07"/>
        <polygon class="cls-151" points="31.09 38.07 29.64 37.95 29.64 37.93 31.34 38.07 31.09 38.07"/>
        <polygon class="cls-151" points="30.83 38.07 29.64 37.97 29.64 37.95 31.09 38.07 30.83 38.07"/>
        <polygon class="cls-39" points="30.58 38.07 29.64 37.99 29.64 37.97 30.83 38.07 30.58 38.07"/>
        <polygon class="cls-39" points="30.32 38.07 29.64 38.01 29.64 37.99 30.58 38.07 30.32 38.07"/>
        <polygon class="cls-56" points="30.07 38.07 29.64 38.04 29.64 38.01 30.32 38.07 30.07 38.07"/>
        <polygon class="cls-56" points="29.82 38.07 29.64 38.06 29.64 38.04 30.07 38.07 29.82 38.07"/>
        <polygon class="cls-56" points="29.64 38.06 29.82 38.07 29.64 38.07 29.64 38.06"/>
      </g>
      <path class="cls-46" d="M31.82,37.3c-.64-.05-1.14-.7-1.08-1.41.06-.71.65-1.26,1.3-1.21.64.05,1.14.7,1.08,1.41-.06.71-.65,1.27-1.3,1.21Z"/>
      <path class="cls-132" d="M31.87,37.04c-.45-.04-.91-.53-.86-1.13.05-.6.59-1.01,1.04-.97.45.04.91.53.86,1.13-.05.6-.59,1.01-1.04.97Z"/>
      <g class="cls-120">
        <path class="cls-153" d="M35.47,38.85s-.05,0-.17.04c-.08-1.3-.33-3.09-1.07-3.45-1.1-.55-3.55-1.36-6.71.58-.32-.57-.48-.99-.48-.99,3.44-2.45,6.14-1.58,7.31-.99,1.18.59,1.12,4.82,1.12,4.82Z"/>
      </g>
      <path class="cls-21" d="M31.51,35.56c-.02.22-.24.38-.5.36-.26-.02-.45-.22-.43-.43.02-.22.24-.38.5-.36.26.02.45.21.44.43Z"/>
      <path class="cls-21" d="M32.95,36.81c0,.11-.12.19-.25.18-.13,0-.23-.11-.22-.22,0-.11.12-.19.25-.18.13,0,.23.11.22.22Z"/>
      <path class="cls-180" d="M42.43,32.77s.38-.58,1.16-1.18c.39-.3.88-.62,1.45-.86.57-.24,1.22-.42,1.87-.51.66-.07,1.32-.03,1.92.05.6.11,1.14.29,1.58.48.45.16.78.4,1.02.53.23.15.37.23.37.23,0,0-.15-.04-.42-.1-.26-.07-.63-.18-1.09-.24-.23-.03-.46-.1-.72-.11-.26-.02-.53-.04-.8-.06-.56,0-1.14.02-1.71.15-.57.1-1.12.28-1.62.5-.49.23-.94.46-1.3.72-.74.49-1.14.89-1.14.89-.15.15-.39.15-.54,0-.13-.13-.15-.33-.05-.48h0Z"/>
      <path class="cls-21" d="M52.22,35.02s-1.46,3.64-3.74,4c-2.27.36-4.69-.16-4.69-.16,0,0-.06-4.23,1.12-4.82,1.18-.59,3.88-1.46,7.31.98Z"/>
      <g class="cls-120">
        <path class="cls-153" d="M43.79,38.85s.05,0,.17.04c.08-1.3.34-3.09,1.07-3.45,1.1-.55,3.55-1.36,6.71.58.32-.57.48-.99.48-.99-3.44-2.45-6.14-1.58-7.31-.99-1.18.59-1.12,4.82-1.12,4.82Z"/>
      </g>
      <g class="cls-79">
        <polygon class="cls-124" points="49.63 34.25 45.06 33.87 45.06 33.45 49.63 33.45 49.63 34.25"/>
        <polygon class="cls-124" points="49.63 34.27 45.06 33.9 45.06 33.87 49.63 34.25 49.63 34.27"/>
        <polygon class="cls-168" points="49.63 34.29 45.06 33.92 45.06 33.9 49.63 34.27 49.63 34.29"/>
        <polygon class="cls-161" points="49.63 34.31 45.06 33.94 45.06 33.92 49.63 34.29 49.63 34.31"/>
        <polygon class="cls-86" points="49.63 34.34 45.06 33.96 45.06 33.94 49.63 34.31 49.63 34.34"/>
        <polygon class="cls-14" points="49.63 34.36 45.06 33.98 45.06 33.96 49.63 34.34 49.63 34.36"/>
        <polygon class="cls-138" points="49.63 34.38 45.06 34 45.06 33.98 49.63 34.36 49.63 34.38"/>
        <polygon class="cls-67" points="49.63 34.4 45.06 34.02 45.06 34 49.63 34.38 49.63 34.4"/>
        <polygon class="cls-2" points="49.63 34.42 45.06 34.04 45.06 34.02 49.63 34.4 49.63 34.42"/>
        <polygon class="cls-13" points="49.63 34.44 45.06 34.06 45.06 34.04 49.63 34.42 49.63 34.44"/>
        <polygon class="cls-72" points="49.63 34.46 45.06 34.09 45.06 34.06 49.63 34.44 49.63 34.46"/>
        <polygon class="cls-52" points="49.63 34.48 45.06 34.11 45.06 34.09 49.63 34.46 49.63 34.48"/>
        <polygon class="cls-65" points="49.63 34.5 45.06 34.13 45.06 34.11 49.63 34.48 49.63 34.5"/>
        <polygon class="cls-112" points="49.63 34.53 45.06 34.15 45.06 34.13 49.63 34.5 49.63 34.53"/>
        <polygon class="cls-149" points="49.63 34.55 45.06 34.17 45.06 34.15 49.63 34.53 49.63 34.55"/>
        <polygon class="cls-146" points="49.63 34.57 45.06 34.19 45.06 34.17 49.63 34.55 49.63 34.57"/>
        <polygon class="cls-66" points="49.63 34.59 45.06 34.21 45.06 34.19 49.63 34.57 49.63 34.59"/>
        <polygon class="cls-53" points="49.63 34.61 45.06 34.23 45.06 34.21 49.63 34.59 49.63 34.61"/>
        <polygon class="cls-160" points="49.63 34.63 45.06 34.25 45.06 34.23 49.63 34.61 49.63 34.63"/>
        <polygon class="cls-152" points="49.63 34.65 45.06 34.27 45.06 34.25 49.63 34.63 49.63 34.65"/>
        <polygon class="cls-123" points="49.63 34.67 45.06 34.3 45.06 34.27 49.63 34.65 49.63 34.67"/>
        <polygon class="cls-147" points="49.63 34.69 45.06 34.32 45.06 34.3 49.63 34.67 49.63 34.69"/>
        <polygon class="cls-127" points="49.63 34.71 45.06 34.34 45.06 34.32 49.63 34.69 49.63 34.71"/>
        <polygon class="cls-17" points="49.63 34.74 45.06 34.36 45.06 34.34 49.63 34.71 49.63 34.74"/>
        <polygon class="cls-158" points="49.63 34.76 45.06 34.38 45.06 34.36 49.63 34.74 49.63 34.76"/>
        <polygon class="cls-18" points="49.63 34.78 45.06 34.4 45.06 34.38 49.63 34.76 49.63 34.78"/>
        <polygon class="cls-110" points="49.63 34.8 45.06 34.42 45.06 34.4 49.63 34.78 49.63 34.8"/>
        <polygon class="cls-29" points="49.63 34.82 45.06 34.44 45.06 34.42 49.63 34.8 49.63 34.82"/>
        <polygon class="cls-42" points="49.63 34.84 45.06 34.46 45.06 34.44 49.63 34.82 49.63 34.84"/>
        <polygon class="cls-162" points="49.63 34.86 45.06 34.49 45.06 34.46 49.63 34.84 49.63 34.86"/>
        <polygon class="cls-118" points="49.63 34.88 45.06 34.51 45.06 34.49 49.63 34.86 49.63 34.88"/>
        <polygon class="cls-109" points="49.63 34.9 45.06 34.53 45.06 34.51 49.63 34.88 49.63 34.9"/>
        <polygon class="cls-107" points="49.63 34.92 45.06 34.55 45.06 34.53 49.63 34.9 49.63 34.92"/>
        <polygon class="cls-103" points="49.63 34.95 45.06 34.57 45.06 34.55 49.63 34.92 49.63 34.95"/>
        <polygon class="cls-78" points="49.63 34.97 45.06 34.59 45.06 34.57 49.63 34.95 49.63 34.97"/>
        <polygon class="cls-7" points="49.63 34.99 45.06 34.61 45.06 34.59 49.63 34.97 49.63 34.99"/>
        <polygon class="cls-116" points="49.63 35.01 45.06 34.63 45.06 34.61 49.63 34.99 49.63 35.01"/>
        <polygon class="cls-125" points="49.63 35.03 45.06 34.65 45.06 34.63 49.63 35.01 49.63 35.03"/>
        <polygon class="cls-114" points="49.63 35.05 45.06 34.67 45.06 34.65 49.63 35.03 49.63 35.05"/>
        <polygon class="cls-154" points="49.63 35.07 45.06 34.7 45.06 34.67 49.63 35.05 49.63 35.07"/>
        <polygon class="cls-75" points="49.63 35.09 45.06 34.72 45.06 34.7 49.63 35.07 49.63 35.09"/>
        <polygon class="cls-101" points="49.63 35.11 45.06 34.74 45.06 34.72 49.63 35.09 49.63 35.11"/>
        <polygon class="cls-80" points="49.63 35.14 45.06 34.76 45.06 34.74 49.63 35.11 49.63 35.14"/>
        <polygon class="cls-130" points="49.63 35.16 45.06 34.78 45.06 34.76 49.63 35.14 49.63 35.16"/>
        <polygon class="cls-134" points="49.63 35.18 45.06 34.8 45.06 34.78 49.63 35.16 49.63 35.18"/>
        <polygon class="cls-104" points="49.63 35.2 45.06 34.82 45.06 34.8 49.63 35.18 49.63 35.2"/>
        <polygon class="cls-178" points="49.63 35.22 45.06 34.84 45.06 34.82 49.63 35.2 49.63 35.22"/>
        <polygon class="cls-26" points="49.63 35.24 45.06 34.86 45.06 34.84 49.63 35.22 49.63 35.24"/>
        <polygon class="cls-68" points="49.63 35.26 45.06 34.88 45.06 34.86 49.63 35.24 49.63 35.26"/>
        <polygon class="cls-36" points="49.63 35.28 45.06 34.91 45.06 34.88 49.63 35.26 49.63 35.28"/>
        <polygon class="cls-69" points="49.63 35.3 45.06 34.93 45.06 34.91 49.63 35.28 49.63 35.3"/>
        <polygon class="cls-156" points="49.63 35.32 45.06 34.95 45.06 34.93 49.63 35.3 49.63 35.32"/>
        <polygon class="cls-31" points="49.63 35.35 45.06 34.97 45.06 34.95 49.63 35.32 49.63 35.35"/>
        <polygon class="cls-57" points="49.63 35.37 45.06 34.99 45.06 34.97 49.63 35.35 49.63 35.37"/>
        <polygon class="cls-143" points="49.63 35.39 45.06 35.01 45.06 34.99 49.63 35.37 49.63 35.39"/>
        <polygon class="cls-165" points="49.63 35.41 45.06 35.03 45.06 35.01 49.63 35.39 49.63 35.41"/>
        <polygon class="cls-122" points="49.63 35.43 45.06 35.05 45.06 35.03 49.63 35.41 49.63 35.43"/>
        <polygon class="cls-102" points="49.63 35.45 45.06 35.07 45.06 35.05 49.63 35.43 49.63 35.45"/>
        <polygon class="cls-83" points="49.63 35.47 45.06 35.1 45.06 35.07 49.63 35.45 49.63 35.47"/>
        <polygon class="cls-173" points="49.63 35.49 45.06 35.12 45.06 35.1 49.63 35.47 49.63 35.49"/>
        <polygon class="cls-133" points="49.63 35.51 45.06 35.14 45.06 35.12 49.63 35.49 49.63 35.51"/>
        <polygon class="cls-163" points="49.63 35.54 45.06 35.16 45.06 35.14 49.63 35.51 49.63 35.54"/>
        <polygon class="cls-44" points="49.63 35.56 45.06 35.18 45.06 35.16 49.63 35.54 49.63 35.56"/>
        <polygon class="cls-179" points="49.63 35.58 45.06 35.2 45.06 35.18 49.63 35.56 49.63 35.58"/>
        <polygon class="cls-25" points="49.63 35.6 45.06 35.22 45.06 35.2 49.63 35.58 49.63 35.6"/>
        <polygon class="cls-145" points="49.63 35.62 45.06 35.24 45.06 35.22 49.63 35.6 49.63 35.62"/>
        <polygon class="cls-71" points="49.63 35.64 45.06 35.26 45.06 35.24 49.63 35.62 49.63 35.64"/>
        <polygon class="cls-97" points="49.63 35.66 45.06 35.28 45.06 35.26 49.63 35.64 49.63 35.66"/>
        <polygon class="cls-157" points="49.63 35.68 45.06 35.31 45.06 35.28 49.63 35.66 49.63 35.68"/>
        <polygon class="cls-47" points="49.63 35.7 45.06 35.33 45.06 35.31 49.63 35.68 49.63 35.7"/>
        <polygon class="cls-51" points="49.63 35.72 45.06 35.35 45.06 35.33 49.63 35.7 49.63 35.72"/>
        <polygon class="cls-136" points="49.63 35.75 45.06 35.37 45.06 35.35 49.63 35.72 49.63 35.75"/>
        <polygon class="cls-64" points="49.63 35.77 45.06 35.39 45.06 35.37 49.63 35.75 49.63 35.77"/>
        <polygon class="cls-11" points="49.63 35.79 45.06 35.41 45.06 35.39 49.63 35.77 49.63 35.79"/>
        <polygon class="cls-135" points="49.63 35.81 45.06 35.43 45.06 35.41 49.63 35.79 49.63 35.81"/>
        <polygon class="cls-54" points="49.63 35.83 45.06 35.45 45.06 35.43 49.63 35.81 49.63 35.83"/>
        <polygon class="cls-119" points="49.63 35.85 45.06 35.47 45.06 35.45 49.63 35.83 49.63 35.85"/>
        <polygon class="cls-144" points="49.63 35.87 45.06 35.5 45.06 35.47 49.63 35.85 49.63 35.87"/>
        <polygon class="cls-105" points="49.63 35.89 45.06 35.52 45.06 35.5 49.63 35.87 49.63 35.89"/>
        <polygon class="cls-91" points="49.63 35.91 45.06 35.54 45.06 35.52 49.63 35.89 49.63 35.91"/>
        <polygon class="cls-93" points="49.63 35.94 45.06 35.56 45.06 35.54 49.63 35.91 49.63 35.94"/>
        <polygon class="cls-96" points="49.63 35.96 45.06 35.58 45.06 35.56 49.63 35.94 49.63 35.96"/>
        <polygon class="cls-150" points="49.63 35.98 45.06 35.6 45.06 35.58 49.63 35.96 49.63 35.98"/>
        <polygon class="cls-61" points="49.63 36 45.06 35.62 45.06 35.6 49.63 35.98 49.63 36"/>
        <polygon class="cls-74" points="49.63 36.02 45.06 35.64 45.06 35.62 49.63 36 49.63 36.02"/>
        <polygon class="cls-16" points="49.63 36.04 45.06 35.66 45.06 35.64 49.63 36.02 49.63 36.04"/>
        <polygon class="cls-85" points="49.63 36.06 45.06 35.68 45.06 35.66 49.63 36.04 49.63 36.06"/>
        <polygon class="cls-85" points="49.63 36.08 45.06 35.71 45.06 35.68 49.63 36.06 49.63 36.08"/>
        <polygon class="cls-98" points="49.63 36.1 45.06 35.73 45.06 35.71 49.63 36.08 49.63 36.1"/>
        <polygon class="cls-30" points="49.63 36.12 45.06 35.75 45.06 35.73 49.63 36.1 49.63 36.12"/>
        <polygon class="cls-30" points="49.63 36.15 45.06 35.77 45.06 35.75 49.63 36.12 49.63 36.15"/>
        <polygon class="cls-169" points="49.63 36.17 45.06 35.79 45.06 35.77 49.63 36.15 49.63 36.17"/>
        <polygon class="cls-76" points="49.63 36.19 45.06 35.81 45.06 35.79 49.63 36.17 49.63 36.19"/>
        <polygon class="cls-164" points="49.63 36.21 45.06 35.83 45.06 35.81 49.63 36.19 49.63 36.21"/>
        <polygon class="cls-82" points="49.63 36.23 45.06 35.85 45.06 35.83 49.63 36.21 49.63 36.23"/>
        <polygon class="cls-38" points="49.63 36.25 45.06 35.87 45.06 35.85 49.63 36.23 49.63 36.25"/>
        <polygon class="cls-137" points="49.63 36.27 45.06 35.89 45.06 35.87 49.63 36.25 49.63 36.27"/>
        <polygon class="cls-177" points="49.63 36.29 45.06 35.92 45.06 35.89 49.63 36.27 49.63 36.29"/>
        <polygon class="cls-77" points="49.63 36.31 45.06 35.94 45.06 35.92 49.63 36.29 49.63 36.31"/>
        <polygon class="cls-41" points="49.63 36.33 45.06 35.96 45.06 35.94 49.63 36.31 49.63 36.33"/>
        <polygon class="cls-24" points="49.63 36.36 45.06 35.98 45.06 35.96 49.63 36.33 49.63 36.36"/>
        <polygon class="cls-37" points="49.63 36.38 45.06 36 45.06 35.98 49.63 36.36 49.63 36.38"/>
        <polygon class="cls-128" points="49.63 36.4 45.06 36.02 45.06 36 49.63 36.38 49.63 36.4"/>
        <polygon class="cls-92" points="49.63 36.42 45.06 36.04 45.06 36.02 49.63 36.4 49.63 36.42"/>
        <polygon class="cls-171" points="49.63 36.44 45.06 36.06 45.06 36.04 49.63 36.42 49.63 36.44"/>
        <polygon class="cls-35" points="49.63 36.46 45.06 36.08 45.06 36.06 49.63 36.44 49.63 36.46"/>
        <polygon class="cls-121" points="49.63 36.48 45.06 36.11 45.06 36.08 49.63 36.46 49.63 36.48"/>
        <polygon class="cls-111" points="49.63 36.5 45.06 36.13 45.06 36.11 49.63 36.48 49.63 36.5"/>
        <polygon class="cls-9" points="49.63 36.52 45.06 36.15 45.06 36.13 49.63 36.5 49.63 36.52"/>
        <polygon class="cls-140" points="49.63 36.55 45.06 36.17 45.06 36.15 49.63 36.52 49.63 36.55"/>
        <polygon class="cls-140" points="49.63 36.57 45.06 36.19 45.06 36.17 49.63 36.55 49.63 36.57"/>
        <polygon class="cls-32" points="49.63 36.59 45.06 36.21 45.06 36.19 49.63 36.57 49.63 36.59"/>
        <polygon class="cls-19" points="49.63 36.61 45.06 36.23 45.06 36.21 49.63 36.59 49.63 36.61"/>
        <polygon class="cls-126" points="49.63 36.63 45.06 36.25 45.06 36.23 49.63 36.61 49.63 36.63"/>
        <polygon class="cls-95" points="49.63 36.65 45.06 36.27 45.06 36.25 49.63 36.63 49.63 36.65"/>
        <polygon class="cls-129" points="49.63 36.67 45.06 36.29 45.06 36.27 49.63 36.65 49.63 36.67"/>
        <polygon class="cls-129" points="49.63 36.69 45.06 36.32 45.06 36.29 49.63 36.67 49.63 36.69"/>
        <polygon class="cls-60" points="49.63 36.71 45.06 36.34 45.06 36.32 49.63 36.69 49.63 36.71"/>
        <polygon class="cls-60" points="49.63 36.73 45.06 36.36 45.06 36.34 49.63 36.71 49.63 36.73"/>
        <polygon class="cls-58" points="49.63 36.76 45.06 36.38 45.06 36.36 49.63 36.73 49.63 36.76"/>
        <polygon class="cls-170" points="49.63 36.78 45.06 36.4 45.06 36.38 49.63 36.76 49.63 36.78"/>
        <polygon class="cls-170" points="49.63 36.8 45.06 36.42 45.06 36.4 49.63 36.78 49.63 36.8"/>
        <polygon class="cls-10" points="49.63 36.82 45.06 36.44 45.06 36.42 49.63 36.8 49.63 36.82"/>
        <polygon class="cls-73" points="49.63 36.84 45.06 36.46 45.06 36.44 49.63 36.82 49.63 36.84"/>
        <polygon class="cls-155" points="49.63 36.86 45.06 36.48 45.06 36.46 49.63 36.84 49.63 36.86"/>
        <polygon class="cls-62" points="49.63 36.88 45.06 36.5 45.06 36.48 49.63 36.86 49.63 36.88"/>
        <polygon class="cls-174" points="49.63 36.9 45.06 36.53 45.06 36.5 49.63 36.88 49.63 36.9"/>
        <polygon class="cls-115" points="49.63 36.92 45.06 36.55 45.06 36.53 49.63 36.9 49.63 36.92"/>
        <polygon class="cls-115" points="49.63 36.94 45.06 36.57 45.06 36.55 49.63 36.92 49.63 36.94"/>
        <polygon class="cls-3" points="49.63 36.97 45.06 36.59 45.06 36.57 49.63 36.94 49.63 36.97"/>
        <polygon class="cls-55" points="49.63 36.99 45.06 36.61 45.06 36.59 49.63 36.97 49.63 36.99"/>
        <polygon class="cls-159" points="49.63 37.01 45.06 36.63 45.06 36.61 49.63 36.99 49.63 37.01"/>
        <polygon class="cls-159" points="49.63 37.03 45.06 36.65 45.06 36.63 49.63 37.01 49.63 37.03"/>
        <polygon class="cls-90" points="49.63 37.05 45.06 36.67 45.06 36.65 49.63 37.03 49.63 37.05"/>
        <polygon class="cls-49" points="49.63 37.07 45.06 36.69 45.06 36.67 49.63 37.05 49.63 37.07"/>
        <polygon class="cls-49" points="49.63 37.09 45.06 36.72 45.06 36.69 49.63 37.07 49.63 37.09"/>
        <polygon class="cls-99" points="49.63 37.11 45.06 36.74 45.06 36.72 49.63 37.09 49.63 37.11"/>
        <polygon class="cls-99" points="49.63 37.13 45.06 36.76 45.06 36.74 49.63 37.11 49.63 37.13"/>
        <polygon class="cls-108" points="49.63 37.16 45.06 36.78 45.06 36.76 49.63 37.13 49.63 37.16"/>
        <polygon class="cls-15" points="49.63 37.18 45.06 36.8 45.06 36.78 49.63 37.16 49.63 37.18"/>
        <polygon class="cls-106" points="49.63 37.2 45.06 36.82 45.06 36.8 49.63 37.18 49.63 37.2"/>
        <polygon class="cls-106" points="49.63 37.22 45.06 36.84 45.06 36.82 49.63 37.2 49.63 37.22"/>
        <polygon class="cls-45" points="49.63 37.24 45.06 36.86 45.06 36.84 49.63 37.22 49.63 37.24"/>
        <polygon class="cls-175" points="49.63 37.26 45.06 36.88 45.06 36.86 49.63 37.24 49.63 37.26"/>
        <polygon class="cls-175" points="49.63 37.28 45.06 36.9 45.06 36.88 49.63 37.26 49.63 37.28"/>
        <polygon class="cls-117" points="49.63 37.3 45.06 36.93 45.06 36.9 49.63 37.28 49.63 37.3"/>
        <polygon class="cls-59" points="49.63 37.32 45.06 36.95 45.06 36.93 49.63 37.3 49.63 37.32"/>
        <polygon class="cls-34" points="49.63 37.34 45.06 36.97 45.06 36.95 49.63 37.32 49.63 37.34"/>
        <polygon class="cls-27" points="49.63 37.37 45.06 36.99 45.06 36.97 49.63 37.34 49.63 37.37"/>
        <polygon class="cls-27" points="49.63 37.39 45.06 37.01 45.06 36.99 49.63 37.37 49.63 37.39"/>
        <polygon class="cls-167" points="49.63 37.41 45.06 37.03 45.06 37.01 49.63 37.39 49.63 37.41"/>
        <polygon class="cls-131" points="49.63 37.43 45.06 37.05 45.06 37.03 49.63 37.41 49.63 37.43"/>
        <polygon class="cls-131" points="49.63 37.45 45.06 37.07 45.06 37.05 49.63 37.43 49.63 37.45"/>
        <polygon class="cls-131" points="49.63 37.47 45.06 37.09 45.06 37.07 49.63 37.45 49.63 37.47"/>
        <polygon class="cls-94" points="49.63 37.49 45.06 37.12 45.06 37.09 49.63 37.47 49.63 37.49"/>
        <polygon class="cls-94" points="49.63 37.51 45.06 37.14 45.06 37.12 49.63 37.49 49.63 37.51"/>
        <polygon class="cls-81" points="49.63 37.53 45.06 37.16 45.06 37.14 49.63 37.51 49.63 37.53"/>
        <polygon class="cls-81" points="49.63 37.56 45.06 37.18 45.06 37.16 49.63 37.53 49.63 37.56"/>
        <polygon class="cls-141" points="49.63 37.58 45.06 37.2 45.06 37.18 49.63 37.56 49.63 37.58"/>
        <polygon class="cls-4" points="49.63 37.6 45.06 37.22 45.06 37.2 49.63 37.58 49.63 37.6"/>
        <polygon class="cls-4" points="49.63 37.62 45.06 37.24 45.06 37.22 49.63 37.6 49.63 37.62"/>
        <polygon class="cls-48" points="49.63 37.64 45.06 37.26 45.06 37.24 49.63 37.62 49.63 37.64"/>
        <polygon class="cls-63" points="49.63 37.66 45.06 37.28 45.06 37.26 49.63 37.64 49.63 37.66"/>
        <polygon class="cls-87" points="49.63 37.68 45.06 37.3 45.06 37.28 49.63 37.66 49.63 37.68"/>
        <polygon class="cls-87" points="49.63 37.7 45.06 37.33 45.06 37.3 49.63 37.68 49.63 37.7"/>
        <polygon class="cls-87" points="49.63 37.72 45.06 37.35 45.06 37.33 49.63 37.7 49.63 37.72"/>
        <polygon class="cls-176" points="49.63 37.74 45.06 37.37 45.06 37.35 49.63 37.72 49.63 37.74"/>
        <polygon class="cls-12" points="49.63 37.77 45.06 37.39 45.06 37.37 49.63 37.74 49.63 37.77"/>
        <polygon class="cls-12" points="49.63 37.79 45.06 37.41 45.06 37.39 49.63 37.77 49.63 37.79"/>
        <polygon class="cls-172" points="49.63 37.81 45.06 37.43 45.06 37.41 49.63 37.79 49.63 37.81"/>
        <polygon class="cls-139" points="49.63 37.83 45.06 37.45 45.06 37.43 49.63 37.81 49.63 37.83"/>
        <polygon class="cls-139" points="49.63 37.85 45.06 37.47 45.06 37.45 49.63 37.83 49.63 37.85"/>
        <polygon class="cls-139" points="49.63 37.87 45.06 37.49 45.06 37.47 49.63 37.85 49.63 37.87"/>
        <polygon class="cls-139" points="49.63 37.89 45.06 37.51 45.06 37.49 49.63 37.87 49.63 37.89"/>
        <polygon class="cls-43" points="49.63 37.91 45.06 37.54 45.06 37.51 49.63 37.89 49.63 37.91"/>
        <polygon class="cls-100" points="49.63 37.93 45.06 37.56 45.06 37.54 49.63 37.91 49.63 37.93"/>
        <polygon class="cls-22" points="49.57 37.95 45.06 37.58 45.06 37.56 49.63 37.93 49.63 37.95 49.57 37.95"/>
        <polygon class="cls-22" points="49.32 37.95 45.06 37.6 45.06 37.58 49.57 37.95 49.32 37.95"/>
        <polygon class="cls-22" points="49.06 37.95 45.06 37.62 45.06 37.6 49.32 37.95 49.06 37.95"/>
        <polygon class="cls-22" points="48.81 37.95 45.06 37.64 45.06 37.62 49.06 37.95 48.81 37.95"/>
        <polygon class="cls-22" points="48.55 37.95 45.06 37.66 45.06 37.64 48.81 37.95 48.55 37.95"/>
        <polygon class="cls-22" points="48.3 37.95 45.06 37.68 45.06 37.66 48.55 37.95 48.3 37.95"/>
        <polygon class="cls-70" points="48.04 37.95 45.06 37.7 45.06 37.68 48.3 37.95 48.04 37.95"/>
        <polygon class="cls-151" points="47.79 37.95 45.06 37.73 45.06 37.7 48.04 37.95 47.79 37.95"/>
        <polygon class="cls-151" points="47.53 37.95 45.06 37.75 45.06 37.73 47.79 37.95 47.53 37.95"/>
        <polygon class="cls-151" points="47.28 37.95 45.06 37.77 45.06 37.75 47.53 37.95 47.28 37.95"/>
        <polygon class="cls-151" points="47.03 37.95 45.06 37.79 45.06 37.77 47.28 37.95 47.03 37.95"/>
        <polygon class="cls-151" points="46.77 37.95 45.06 37.81 45.06 37.79 47.03 37.95 46.77 37.95"/>
        <polygon class="cls-151" points="46.52 37.95 45.06 37.83 45.06 37.81 46.77 37.95 46.52 37.95"/>
        <polygon class="cls-151" points="46.26 37.95 45.06 37.85 45.06 37.83 46.52 37.95 46.26 37.95"/>
        <polygon class="cls-39" points="46.01 37.95 45.06 37.87 45.06 37.85 46.26 37.95 46.01 37.95"/>
        <polygon class="cls-39" points="45.75 37.95 45.06 37.89 45.06 37.87 46.01 37.95 45.75 37.95"/>
        <polygon class="cls-56" points="45.5 37.95 45.06 37.91 45.06 37.89 45.75 37.95 45.5 37.95"/>
        <polygon class="cls-56" points="45.24 37.95 45.06 37.94 45.06 37.91 45.5 37.95 45.24 37.95"/>
        <polygon class="cls-56" points="45.06 37.94 45.24 37.95 45.06 37.95 45.06 37.94"/>
      </g>
      <path class="cls-46" d="M47.24,37.18c-.64-.05-1.14-.7-1.08-1.41.06-.71.65-1.26,1.3-1.21.64.05,1.14.7,1.08,1.41-.06.71-.65,1.26-1.3,1.21Z"/>
      <path class="cls-132" d="M47.3,36.92c-.45-.04-.91-.53-.86-1.13.05-.6.59-1.01,1.04-.97.45.04.91.53.86,1.13-.05.6-.59,1.01-1.04.97Z"/>
      <path class="cls-21" d="M46.94,35.44c-.02.22-.24.38-.5.36-.26-.02-.45-.22-.43-.43.02-.22.24-.38.5-.36.26.02.45.22.44.43Z"/>
      <path class="cls-21" d="M48.38,36.69c0,.11-.12.19-.25.18-.13-.01-.23-.11-.22-.22,0-.11.12-.19.25-.18.13,0,.23.11.22.22Z"/>
      <path class="cls-6" d="M21,37.7c.97-1.58,2.5-.92,2.88-.57.4.37.72.87.48,1.8-.13.52-.68.57-.54,1.37.16.89.57.95.81,1.15.24.2.53.35.68.73.14.37.17.78.1,1.12-.15.65-1.09.14-1.72-.14-.42-.18-1.74-1.29-2.08-1.65-.84-.94-1.25-2.75-.6-3.81"/>
      <path class="cls-28" d="M41.48,44.78c.34-.23.74-.12.74-.12,0,0,0,0-.01.02-.08.14-.54.87-.91.86,0,0-.08-.07-.1-.25-.03-.17.11-.4.28-.52Z"/>
      <path class="cls-33" d="M22.54,22.68s-.06,0-.16,0c.05.02.1.04.16.06v-.05Z"/>
      <path class="cls-113" d="M35.03,47.76c0,.19-.16.35-.35.35s-.35-.16-.35-.35.16-.35.35-.35.35.16.35.35Z"/>
      <path class="cls-23" d="M53.39,11.61c-.14-.16-.29-.32-.44-.48.19-1.41-.48-3.26-4.09-4.86,0,0,1.14,1.24,2.02,2.95-3.41-2.75-7.01-4.09-7.01-4.09l1.57,1.57c-.94-.77-2.61-1.84-5.41-2.78-3.98-1.34-6.56.15-6.56.15,0,0,2.08-.08,3.1.79-1-.46-2.74-.62-5.63.65-.18.08-.35.16-.52.24-1.04-.16-2.15-.44-3.3-.9,0,0,.72.84,1.94,1.68-.94.63-1.68,1.32-2.3,2.02-1.48.05-3.14-.1-4.93-.65,0,0,1.47,1.45,3.66,2.26-.33.45-.65.89-.97,1.3-1.43.39-3.1.63-4.98.5,0,0,1.34.82,3.21,1.22-.39.26-.82.48-1.32.66-4.03,1.41-5.21-.4-5.21-.4,0,0,1.75,3.16,4.86,3.17.5,0,.55-.01.55-.01,0,.01-.76,2.2-1.17,4.37-.93.37-1.95.68-3.08.87,0,0,1.23.4,2.89.43,0,.08-.02.16-.03.23-.23,2.58.49,4.34.7,9.16.19,4.12,1.21,2.01,2.43,5.05.41,1.02.43,2.17.43,2.17.45.12,1.64-2.48.79-6.98-.25-1.29.15-4.18,1.25-6.81h0s2.02-5.7,6.01-5.84c.4-.01.82.03,1.26.14,0,0,1.85.1,3.79,1.26l-.02-.02s4.61-3.07,3.05-6.47c0,0,2.93,3.26-.75,8.46.29.36.55.76.8,1.21.06.11.12.22.18.34.05.1.09.21.13.31v-.05s3.68-1.72,4.07-3.03c0,0-.07,2.34-1.57,4.16l11.43,1.78c.11,1.16.11,2.45,0,3.87-.6,7.47.53,7.41.53,7.41.34,0-.03-1.99,1.11-3.36,1.13-1.37,2.86-5.99,2.86-10.6s-1.48-8.7-5.33-13.06Z"/>
      <g>
        <path class="cls-89" d="M40.6,29.85c-.14,0-.47,0-.81,0-.18,0-.35,0-.5,0l-7.04,13.58c.5.05.97.07,1.36.07.32,0,.55-.01.7-.03.18-.27.39-.63.6-.99,1.12-1.93,2.52-4.33,4.86-4.33h.05c1.57,0,2.71,1.08,3.63,2.37l5.06-9.76c-2.49-.65-5.39-.87-7.9-.92Z"/>
        <path class="cls-89" d="M53.44,33.5c-.29-.38-.65-.72-1.06-1.03l-5.7,11.01c1.27-.07,2.97-.32,4.48-.79,2.03-.63,2.56-1.29,2.58-1.42.89-5.68,0-7.38-.3-7.77Z"/>
        <g>
          <path class="cls-50" d="M59.14,36.67c-.27-1.48-1.18-2.17-1.18-2.17l-2.73-1c-.13-.34-.29-.66-.49-.92-.02-.03-.05-.06-.07-.09-1.3-1.65-4.45-4.03-14.04-4.2-.29,0-1.4,0-1.69,0-9.85.17-12.86,2.63-14.11,4.29-.17.23-.32.5-.44.79,0,.02-.02.03-.02.05l-2.92,1.07s-.92.7-1.18,2.17c-.74,4.11,2.56,5.83,2.56,5.83l1.57-.22.18-.02c1.79,2.5,10.07,3.31,10.77,2.5.99-1.16,2.48-5.08,4.45-5.04,1.97-.03,3.46,3.88,4.45,5.04.66.78,8.13.09,10.44-2.12.12-.12.23-.23.32-.36l1.59.23s3.3-1.72,2.56-5.83ZM53.74,41.27c-.02.13-.54.79-2.58,1.42-1.81.56-3.92.81-5.2.81-.33,0-.55-.01-.7-.03-.17-.27-.39-.63-.6-.99-1.12-1.93-2.52-4.33-4.86-4.33h-.05c-2.33,0-3.73,2.4-4.86,4.33-.21.36-.42.72-.6.99-.15.02-.37.03-.7.03-1.28,0-3.39-.25-5.2-.81-2.03-.63-2.56-1.29-2.58-1.42-.89-5.68,0-7.38.3-7.77,1.75-2.31,6.07-3.54,12.85-3.65.14,0,.48,0,.82,0s.67,0,.81,0c4.66.08,10.67.78,12.85,3.65.29.39,1.18,2.1.3,7.77Z"/>
          <path class="cls-89" d="M34.36,30.14c-4.16.5-6.93,1.63-8.24,3.36-.29.39-1.18,2.1-.3,7.77.02.12.47.69,2.13,1.27.02-.05.03-.1.06-.14l6.35-12.26Z"/>
          <path class="cls-88" d="M38.97,29.85c-1.69.03-3.22.13-4.61.29l-6.35,12.26s-.04.09-.06.14c.14.05.29.1.45.15,1.27.39,2.67.63,3.84.74l7.04-13.58c-.14,0-.25,0-.32,0Z"/>
          <path class="cls-88" d="M48.5,30.77l-5.06,9.76c.45.63.85,1.32,1.23,1.96.21.36.42.72.6.99.15.02.37.03.7.03.22,0,.46,0,.72-.02l5.7-11.01c-1.02-.76-2.37-1.31-3.89-1.71Z"/>
        </g>
      </g>
      <path class="cls-5" d="M56.94,75.64c-.59-3.58-3.98-4.41-4.14-11.4-.61-.21-1.19-.43-1.76-.64v.02s0-.15,0-.15c-12.34,12.05-22.23,0-22.23,0-.58.22-1.19.44-1.82.67-.12,7.09-3.55,7.91-4.14,11.51-.14.79-.28,2.24-.37,3.23h34.82c-.09-.99-.23-2.45-.37-3.23Z"/>
      <polygon class="cls-20" points="32.3 73.51 31.3 72.51 30.17 73.64 29.04 72.51 28.04 73.51 29.17 74.64 28.04 75.77 29.04 76.77 30.17 75.64 31.3 76.77 32.3 75.77 31.17 74.64 32.3 73.51"/>
      <polygon class="cls-20" points="39.1 73.51 38.1 72.51 36.97 73.64 35.84 72.51 34.84 73.51 35.97 74.64 34.84 75.77 35.84 76.77 36.97 75.64 38.1 76.77 39.1 75.77 37.97 74.64 39.1 73.51"/>
      <polygon class="cls-20" points="45.9 73.51 44.9 72.51 43.77 73.64 42.64 72.51 41.64 73.51 42.77 74.64 41.64 75.77 42.64 76.77 43.77 75.64 44.9 76.77 45.9 75.77 44.77 74.64 45.9 73.51"/>
      <polygon class="cls-20" points="52.7 73.51 51.7 72.51 50.57 73.64 49.44 72.51 48.44 73.51 49.57 74.64 48.44 75.77 49.44 76.77 50.57 75.64 51.7 76.77 52.7 75.77 51.57 74.64 52.7 73.51"/>
    </g>
  </g>
</svg>