<?xml version="1.0" encoding="UTF-8"?>
<svg id="Layer_2" data-name="Layer 2" xmlns="http://www.w3.org/2000/svg" xmlns:xlink="http://www.w3.org/1999/xlink" viewBox="0 0 78.88 78.88">
  <defs>
    <style>
      .cls-1 {
        fill: none;
      }

      .cls-2 {
        fill: #354148;
      }

      .cls-3 {
        fill: #7d99ae;
      }

      .cls-4 {
        fill: #84a2b8;
      }

      .cls-5 {
        fill: #d0665f;
      }

      .cls-6 {
        fill: #debaad;
      }

      .cls-7 {
        fill: #4e606b;
      }

      .cls-8 {
        fill: #bf6c6c;
      }

      .cls-9 {
        fill: #7791a4;
      }

      .cls-10 {
        fill: #7b97ab;
      }

      .cls-11 {
        fill: #677e8d;
      }

      .cls-12 {
        fill: #86a3ba;
      }

      .cls-13 {
        fill: #364349;
      }

      .cls-14 {
        fill: #313d43;
      }

      .cls-15 {
        fill: #809cb2;
      }

      .cls-16 {
        fill: #6d8596;
      }

      .cls-17 {
        fill: #44545c;
      }

      .cls-18 {
        fill: #46565f;
      }

      .cls-19 {
        fill: #7893a6;
      }

      .cls-20 {
        fill: #87a5bc;
      }

      .cls-21 {
        fill: #e4a529;
      }

      .cls-22 {
        fill: #748d9f;
      }

      .cls-23 {
        fill: #627886;
      }

      .cls-24 {
        fill: #576b77;
      }

      .cls-25 {
        fill: #829fb5;
      }

      .cls-26 {
        fill: #b89388;
      }

      .cls-27 {
        fill: #485862;
      }

      .cls-28 {
        fill: #6f8899;
      }

      .cls-29 {
        fill: #5b6f7c;
      }

      .cls-30 {
        fill: #7892a6;
      }

      .cls-31 {
        fill: #829fb4;
      }

      .cls-32 {
        fill: #7690a2;
      }

      .cls-33 {
        fill: #596c79;
      }

      .cls-34 {
        fill: #748ea0;
      }

      .cls-35 {
        fill: #728b9c;
      }

      .cls-36 {
        fill: #88a6be;
      }

      .cls-37 {
        fill: #a88a6b;
      }

      .cls-38 {
        fill: #738d9f;
      }

      .cls-39 {
        fill: #495963;
      }

      .cls-40 {
        fill: #87a4bb;
      }

      .cls-41 {
        fill: #617785;
      }

      .cls-42 {
        fill: #819db3;
      }

      .cls-43 {
        fill: #95bacb;
      }

      .cls-44 {
        fill: #657b8a;
      }

      .cls-45 {
        fill: #85a2b8;
      }

      .cls-46 {
        fill: #7f9bb0;
      }

      .cls-47 {
        fill: #667c8b;
      }

      .cls-48 {
        fill: #38454c;
      }

      .cls-49 {
        fill: #3e4d54;
      }

      .cls-50 {
        fill: #687f8f;
      }

      .cls-51 {
        fill: #7e9aae;
      }

      .cls-52 {
        fill: #88a7be;
      }

      .cls-53 {
        fill: #5b707d;
      }

      .cls-54 {
        fill: #7a96a9;
      }

      .cls-55 {
        fill: #829eb4;
      }

      .cls-56 {
        fill: #7a95a9;
      }

      .cls-57 {
        fill: #6c8495;
      }

      .cls-58 {
        fill: #7c98ac;
      }

      .cls-59 {
        fill: #85a2b9;
      }

      .cls-60 {
        fill: #677d8d;
      }

      .cls-61 {
        fill: #39464e;
      }

      .cls-62 {
        fill: #3d4b53;
      }

      .cls-63 {
        fill: #344046;
      }

      .cls-64 {
        fill: #586c78;
      }

      .cls-65 {
        fill: #596d7a;
      }

      .cls-66 {
        fill: #87a6bd;
      }

      .cls-67 {
        fill: #637988;
      }

      .cls-68 {
        fill: #37444b;
      }

      .cls-69 {
        fill: #7c97ab;
      }

      .cls-70 {
        fill: #6d8595;
      }

      .cls-71 {
        fill: #526570;
      }

      .cls-72 {
        fill: #70899b;
      }

      .cls-73 {
        fill: #738c9e;
      }

      .cls-74 {
        fill: #4e5f6a;
      }

      .cls-75 {
        clip-path: url(#clippath-1);
      }

      .cls-76 {
        fill: #546672;
      }

      .cls-77 {
        fill: #84a1b7;
      }

      .cls-78 {
        fill: #718a9c;
      }

      .cls-79 {
        fill: #5f7481;
      }

      .cls-80 {
        fill: #f1d4c8;
      }

      .cls-81 {
        fill: #6e8697;
      }

      .cls-82 {
        fill: #303c42;
      }

      .cls-83 {
        fill: #85a3b9;
      }

      .cls-84 {
        fill: #7e9baf;
      }

      .cls-85 {
        fill: #6a8292;
      }

      .cls-86 {
        fill: #758fa1;
      }

      .cls-87 {
        fill: #6b8292;
      }

      .cls-88 {
        fill: #83a1b7;
      }

      .cls-89 {
        fill: #7994a7;
      }

      .cls-90 {
        fill: #6b8393;
      }

      .cls-91 {
        fill: #647a89;
      }

      .cls-92 {
        fill: #6e8798;
      }

      .cls-93 {
        fill: #fff;
      }

      .cls-94 {
        fill: #7f9cb1;
      }

      .cls-95 {
        fill: #87a5bb;
      }

      .cls-96 {
        fill: #536671;
      }

      .cls-97 {
        fill: #5e7380;
      }

      .cls-98 {
        fill: #4d5e69;
      }

      .cls-99 {
        fill: #566975;
      }

      .cls-100 {
        fill: #6a8191;
      }

      .cls-101 {
        fill: #809db2;
      }

      .cls-102 {
        fill: #4c5d68;
      }

      .cls-103 {
        fill: #809cb1;
      }

      .cls-104 {
        fill: #4b5c67;
      }

      .cls-105 {
        fill: #475760;
      }

      .cls-106 {
        fill: #7691a3;
      }

      .cls-107 {
        fill: #3a484f;
      }

      .cls-108 {
        fill: #3b3b36;
      }

      .cls-109 {
        fill: #51636e;
      }

      .cls-110 {
        fill: #7d99ad;
      }

      .cls-111 {
        fill: #4f616c;
      }

      .cls-112 {
        fill: #819eb4;
      }

      .cls-113 {
        fill: #4a5b65;
      }

      .cls-114 {
        fill: #698090;
      }

      .cls-115 {
        opacity: .58;
      }

      .cls-116 {
        opacity: .3;
      }

      .cls-117 {
        fill: #7690a3;
      }

      .cls-118 {
        fill: #5d727f;
      }

      .cls-119 {
        fill: #415059;
      }

      .cls-120 {
        fill: #2d383d;
      }

      .cls-121 {
        fill: #50626d;
      }

      .cls-122 {
        fill: #7893a7;
      }

      .cls-123 {
        fill: #43525b;
      }

      .cls-124 {
        fill: #748ea1;
      }

      .cls-125 {
        fill: #7994a8;
      }

      .cls-126 {
        fill: #546773;
      }

      .cls-127 {
        fill: #83a0b6;
      }

      .cls-128 {
        fill: #26200c;
      }

      .cls-129 {
        fill: #607583;
      }

      .cls-130 {
        fill: #556874;
      }

      .cls-131 {
        fill: #687f8e;
      }

      .cls-132 {
        fill: #667d8c;
      }

      .cls-133 {
        fill: #728b9d;
      }

      .cls-134 {
        fill: #323f45;
      }

      .cls-135 {
        fill: #86a4bb;
      }

      .cls-136 {
        fill: #7792a5;
      }

      .cls-137 {
        fill: #84a1b8;
      }

      .cls-138 {
        fill: #5c707e;
      }

      .cls-139 {
        fill: #698190;
      }

      .cls-140 {
        fill: #637987;
      }

      .cls-141 {
        fill: #3c4a52;
      }

      .cls-142 {
        fill: #42515a;
      }

      .cls-143 {
        fill: #c6a095;
      }

      .cls-144 {
        fill: #3b4950;
      }

      .cls-145 {
        fill: #6c8494;
      }

      .cls-146 {
        fill: #88a6bd;
      }

      .cls-147 {
        fill: #404f57;
      }

      .cls-148 {
        fill: #47433b;
      }

      .cls-149 {
        fill: #51646f;
      }

      .cls-150 {
        fill: #7c97ac;
      }

      .cls-151 {
        fill: #5a6e7b;
      }

      .cls-152 {
        fill: #647b8a;
      }

      .cls-153 {
        fill: #45555e;
      }

      .cls-154 {
        fill: #7e9aaf;
      }

      .cls-155 {
        fill: #f2f3f2;
      }

      .cls-156 {
        fill: #3f4e56;
      }

      .cls-157 {
        fill: #2f3b40;
      }

      .cls-158 {
        fill: #4a5a64;
      }

      .cls-159 {
        fill: #607684;
      }

      .cls-160 {
        fill: #49443b;
      }

      .cls-161 {
        fill: #718a9b;
      }

      .cls-162 {
        fill: #5d717f;
      }

      .cls-163 {
        clip-path: url(#clippath);
      }

      .cls-164 {
        fill: #82a0b5;
      }

      .cls-165 {
        fill: #2e393f;
      }

      .cls-166 {
        fill: #70899a;
      }

      .cls-167 {
        fill: #7b96aa;
      }

      .cls-168 {
        fill: #758fa2;
      }

      .cls-169 {
        fill: #86a4ba;
      }

      .cls-170 {
        fill: #5f7482;
      }

      .cls-171 {
        fill: #7c98ad;
      }

      .cls-172 {
        fill: #819eb3;
      }

      .cls-173 {
        fill: #85a3ba;
      }

      .cls-174 {
        fill: #728c9e;
      }

      .cls-175 {
        fill: #576a76;
      }

      .cls-176 {
        fill: #627786;
      }

      .cls-177 {
        fill: #ab5b64;
      }
    </style>
    <clipPath id="clippath">
      <path class="cls-1" d="M36.22,38.15c-.09,1.13-1.1,1.96-2.24,1.87-1.15-.1-2-1.09-1.91-2.21.09-1.13,1.1-1.97,2.24-1.87,1.15.09,2,1.09,1.91,2.21Z"/>
    </clipPath>
    <clipPath id="clippath-1">
      <path class="cls-1" d="M50.87,38.03c-.09,1.13-1.1,1.96-2.24,1.87-1.15-.1-2-1.09-1.91-2.21.09-1.13,1.1-1.97,2.24-1.87,1.15.09,2,1.09,1.91,2.21Z"/>
    </clipPath>
  </defs>
  <g id="Layer_1-2" data-name="Layer 1">
    <g>
      <rect class="cls-21" width="78.88" height="78.88"/>
      <path class="cls-80" d="M62.24,77.94s-.1-5.73-.32-6.23c-.44-2,.34-2.91-2.74-4.84-.02-.01-.7-.23-1.71-.56t-.02-.01c-.65-.21-1.45-.47-2.28-.76-.32-.11-.64-.23-.97-.33-.82-.29-1.64-.59-2.39-.87-.52-.2-1.01-.39-1.44-.57-.36-.16-.67-.3-.92-.43-.26-.14-.46-.26-.56-.36-.01-.01-.04-.05-.07-.08-.02-.03-.05-.06-.07-.09-.06-.33-.95-1.8-1.26-3.39h0c-.07-.33-.11-.64-.12-.96-.02-.46-.02-.93-.04-1.34-.01-.43-.02-.82-.04-1.14v-.27c-.01-.23-.01-.42-.01-.56-.01-.14-.01-.23-.01-.23,0,0,.33-.29.82-.71.61-.55,1.47-1.33,2.22-2.08.81-.81,1.51-1.58,1.66-1.98.01-.06.02-.11.02-.14,0,0-.02,0-.06.01-.38.06-2.42.42-4.62.76-1.31.2-2.67.41-3.79.55-.44.06-.84.1-1.19.13h-.01c-.32.04-.59.05-.8.05-.23,0-.53-.02-.9-.05h-.02c-.36-.05-.78-.09-1.25-.15-1.02-.13-2.25-.31-3.43-.49-1.09-.18-2.16-.34-3.01-.49-.2-.03-.38-.06-.55-.1-.81-.13-1.32-.23-1.32-.23,0,.15.14.39.38.7,0,0,0,.01.01.01.18.24.42.51.7.82.27.29.57.58.88.88.94.91,1.96,1.82,2.46,2.25.19.17.3.26.3.26,0,0,0,.08-.01.23,0,.14,0,.33-.01.56v.27c0,.09,0,.19-.01.28-.01.62-.04,1.39-.06,2.2-.01.32-.05.63-.12.95-.31,1.59-1.2,3.07-1.26,3.4-.02.03-.05.06-.07.09-.04.04-.06.07-.07.08-.05.05-.13.11-.23.17-.22.14-.54.31-.95.49-.35.16-.76.32-1.21.5-1.06.41-2.32.86-3.52,1.27-.08.02-.17.06-.25.08-.89.31-1.75.59-2.44.82h-.01c-1,.33-1.67.55-1.7.56-3.07,1.91-2.32,2.83-2.74,4.8h0v.04s-.02.07-.04.14h0c-.2,1.05-.29,6.08-.29,6.08,0,.31,0,.62,0,.94h41.48c0-.32,0-.63,0-.94Z"/>
      <g class="cls-115">
        <path class="cls-143" d="M47.48,59.4c-.07-.32-.11-.63-.12-.95-.04-1.07-.06-2.09-.07-2.76-1.78.8-3.61,1.26-5.41,1.26-.11.02-.24.02-.36.02s-.26,0-.36-.02c-1.8,0-3.62-.46-5.41-1.26-.01.67-.03,1.69-.07,2.76-.01.32-.05.63-.12.95,1.72,1.44,4.05,2.92,5.6,2.92.1.02.21.02.32.02h0s.03,0,.04,0,.03,0,.04,0h0c.11,0,.23,0,.32-.02,1.54,0,3.87-1.49,5.6-2.92Z"/>
      </g>
      <g>
        <path class="cls-80" d="M56.81,38.07c.3-1.64.53-2.9.6-3.15.03-.12.06-.24.09-.36.02-.14.06-.27.08-.4.06-.2.09-.41.14-.61.01-.1.04-.19.05-.28.04-.23.08-.45.12-.68.01-.1.02-.2.04-.3.04-.2.05-.4.07-.61.01-.15.02-.31.05-.45.01-.13.01-.26.02-.39.15-3.1-.51-6.26-2.54-9.13-2.46-3.45-5.29-7.09-11.43-7.6h-5.18c-6.14.51-8.97,4.16-11.43,7.6-2.03,2.86-2.7,6.02-2.54,9.13.01.13.01.26.02.39.02.14.04.3.05.45.02.2.04.4.07.61.01.1.02.2.04.3.04.23.08.45.12.68.01.1.03.19.05.28.05.2.08.4.14.61.02.13.06.26.08.4.04.12.06.24.1.36.07.24.3,1.49.6,3.13-1.64-.8-3.91.34-3.64,3.36.28,3.06,4,4.88,5.28,5.19.13.55.23.97.31,1.16,1.12,2.82,2.47,3.66,4.85,5.95,2.59,2.48,6.42,4.81,8.31,4.8.06.01.13.01.2.01s.14,0,.2-.01c1.89.01,5.71-2.32,8.3-4.8,2.38-2.29,3.73-3.14,4.85-5.95.08-.2.18-.6.31-1.15,1.23-.28,5.04-2.1,5.32-5.2.27-3.05-2.05-4.18-3.69-3.34Z"/>
        <path class="cls-6" d="M59.3,39.76c-.92-1.5-2.37-.87-2.73-.54-.38.35-.68.82-.46,1.71.12.5.65.54.51,1.3-.15.85-.54.9-.77,1.09-.22.19-.51.33-.65.7-.14.36-.16.74-.09,1.06.14.61,1.04.14,1.64-.13.4-.18,1.66-1.22,1.98-1.57.8-.89,1.19-2.61.57-3.62"/>
      </g>
      <path class="cls-6" d="M38.89,52.65c-.06-.78,2.2.16,2.94.19.59.02,2.37-.12,2.54-.18,1.24-.46-.07,1.31-2.57,1.41-1.15.05-2.87-.94-2.91-1.41Z"/>
      <g>
        <path class="cls-177" d="M46.34,51.63c-1.43-.27-4.46-.85-4.46-.85-2.49.41-4.44.84-4.45.86-.06,0,1.99,1.84,4.42,1.71h0c2.43.12,4.55-1.71,4.49-1.72Z"/>
        <path class="cls-8" d="M43.31,50.28c-.65-.07-1.09.31-1.42.27-.34.03-.78-.34-1.43-.27-.92.2-1.36.78-3.03,1.36.06.11,1.13-.14,3.14-.1.03,0,.57.3,1.33.3.48,0,1.14-.32,1.16-.32,2.01-.03,3.24.24,3.29.13-2.21-.68-2.13-1.17-3.04-1.37Z"/>
      </g>
      <path class="cls-37" d="M43.07,46.51c.33-.22.71-.11.71-.11,0,0,0,0-.01.02-.08.13-.51.83-.86.82,0,0-.08-.06-.1-.23-.03-.17.11-.38.27-.49Z"/>
      <path class="cls-6" d="M38.67,46.29c-.06-1.57,2.44-.57,3.26-.53.65.04,2.63-.49,2.8-.36,1.17.93-1.24,2.81-2.84,2.81-.43,0-3.18-.98-3.22-1.93Z"/>
      <path class="cls-26" d="M40.57,46.48c-.33-.22-.71-.11-.71-.11,0,0,0,0,.01.02.08.13.51.83.86.82,0,0,.08-.06.1-.23.03-.17-.11-.38-.27-.49Z"/>
      <path class="cls-160" d="M38.31,35.71s-.38-.38-1.08-.85c-.34-.24-.77-.46-1.23-.68-.47-.21-.99-.39-1.53-.48-.54-.12-1.09-.15-1.62-.15-.27.02-.52.04-.76.05-.25.01-.47.08-.69.11-.43.06-.78.17-1.03.23-.26.06-.4.09-.4.09,0,0,.13-.08.35-.22.23-.12.54-.36.97-.5.42-.18.93-.35,1.5-.45.57-.08,1.2-.12,1.83-.05.62.08,1.23.26,1.78.49.54.23,1.01.53,1.38.82.74.57,1.1,1.12,1.1,1.12h0c.11.18.06.4-.11.51-.15.1-.34.07-.45-.05Z"/>
      <path class="cls-93" d="M29.5,37.22s1.39,3.46,3.55,3.8c2.16.34,4.46-.16,4.46-.16,0,0,.06-4.02-1.06-4.58-1.12-.56-3.68-1.39-6.94.93Z"/>
      <g class="cls-163">
        <polygon class="cls-120" points="36.31 36.6 31.97 36.24 31.97 35.84 36.31 35.84 36.31 36.6"/>
        <polygon class="cls-120" points="36.31 36.62 31.97 36.26 31.97 36.24 36.31 36.6 36.31 36.62"/>
        <polygon class="cls-165" points="36.31 36.64 31.97 36.28 31.97 36.26 36.31 36.62 36.31 36.64"/>
        <polygon class="cls-157" points="36.31 36.66 31.97 36.3 31.97 36.28 36.31 36.64 36.31 36.66"/>
        <polygon class="cls-82" points="36.31 36.68 31.97 36.32 31.97 36.3 36.31 36.66 36.31 36.68"/>
        <polygon class="cls-14" points="36.31 36.7 31.97 36.34 31.97 36.32 36.31 36.68 36.31 36.7"/>
        <polygon class="cls-134" points="36.31 36.72 31.97 36.36 31.97 36.34 36.31 36.7 36.31 36.72"/>
        <polygon class="cls-63" points="36.31 36.74 31.97 36.38 31.97 36.36 36.31 36.72 36.31 36.74"/>
        <polygon class="cls-2" points="36.31 36.76 31.97 36.4 31.97 36.38 36.31 36.74 36.31 36.76"/>
        <polygon class="cls-13" points="36.31 36.78 31.97 36.42 31.97 36.4 36.31 36.76 36.31 36.78"/>
        <polygon class="cls-68" points="36.31 36.8 31.97 36.44 31.97 36.42 36.31 36.78 36.31 36.8"/>
        <polygon class="cls-48" points="36.31 36.82 31.97 36.46 31.97 36.44 36.31 36.8 36.31 36.82"/>
        <polygon class="cls-61" points="36.31 36.84 31.97 36.48 31.97 36.46 36.31 36.82 36.31 36.84"/>
        <polygon class="cls-107" points="36.31 36.86 31.97 36.5 31.97 36.48 36.31 36.84 36.31 36.86"/>
        <polygon class="cls-144" points="36.31 36.88 31.97 36.52 31.97 36.5 36.31 36.86 36.31 36.88"/>
        <polygon class="cls-141" points="36.31 36.9 31.97 36.54 31.97 36.52 36.31 36.88 36.31 36.9"/>
        <polygon class="cls-62" points="36.31 36.92 31.97 36.56 31.97 36.54 36.31 36.9 36.31 36.92"/>
        <polygon class="cls-49" points="36.31 36.94 31.97 36.58 31.97 36.56 36.31 36.92 36.31 36.94"/>
        <polygon class="cls-156" points="36.31 36.96 31.97 36.6 31.97 36.58 36.31 36.94 36.31 36.96"/>
        <polygon class="cls-147" points="36.31 36.98 31.97 36.62 31.97 36.6 36.31 36.96 36.31 36.98"/>
        <polygon class="cls-119" points="36.31 37 31.97 36.64 31.97 36.62 36.31 36.98 36.31 37"/>
        <polygon class="cls-142" points="36.31 37.02 31.97 36.66 31.97 36.64 36.31 37 36.31 37.02"/>
        <polygon class="cls-123" points="36.31 37.04 31.97 36.68 31.97 36.66 36.31 37.02 36.31 37.04"/>
        <polygon class="cls-17" points="36.31 37.06 31.97 36.7 31.97 36.68 36.31 37.04 36.31 37.06"/>
        <polygon class="cls-153" points="36.31 37.08 31.97 36.72 31.97 36.7 36.31 37.06 36.31 37.08"/>
        <polygon class="cls-18" points="36.31 37.1 31.97 36.74 31.97 36.72 36.31 37.08 36.31 37.1"/>
        <polygon class="cls-105" points="36.31 37.12 31.97 36.76 31.97 36.74 36.31 37.1 36.31 37.12"/>
        <polygon class="cls-27" points="36.31 37.14 31.97 36.78 31.97 36.76 36.31 37.12 36.31 37.14"/>
        <polygon class="cls-39" points="36.31 37.16 31.97 36.8 31.97 36.78 36.31 37.14 36.31 37.16"/>
        <polygon class="cls-158" points="36.31 37.18 31.97 36.82 31.97 36.8 36.31 37.16 36.31 37.18"/>
        <polygon class="cls-113" points="36.31 37.2 31.97 36.84 31.97 36.82 36.31 37.18 36.31 37.2"/>
        <polygon class="cls-104" points="36.31 37.22 31.97 36.86 31.97 36.84 36.31 37.2 36.31 37.22"/>
        <polygon class="cls-102" points="36.31 37.24 31.97 36.88 31.97 36.86 36.31 37.22 36.31 37.24"/>
        <polygon class="cls-98" points="36.31 37.26 31.97 36.9 31.97 36.88 36.31 37.24 36.31 37.26"/>
        <polygon class="cls-74" points="36.31 37.28 31.97 36.92 31.97 36.9 36.31 37.26 36.31 37.28"/>
        <polygon class="cls-7" points="36.31 37.3 31.97 36.94 31.97 36.92 36.31 37.28 36.31 37.3"/>
        <polygon class="cls-111" points="36.31 37.32 31.97 36.96 31.97 36.94 36.31 37.3 36.31 37.32"/>
        <polygon class="cls-121" points="36.31 37.34 31.97 36.98 31.97 36.96 36.31 37.32 36.31 37.34"/>
        <polygon class="cls-109" points="36.31 37.36 31.97 37 31.97 36.98 36.31 37.34 36.31 37.36"/>
        <polygon class="cls-149" points="36.31 37.38 31.97 37.02 31.97 37 36.31 37.36 36.31 37.38"/>
        <polygon class="cls-71" points="36.31 37.4 31.97 37.04 31.97 37.02 36.31 37.38 36.31 37.4"/>
        <polygon class="cls-96" points="36.31 37.42 31.97 37.06 31.97 37.04 36.31 37.4 36.31 37.42"/>
        <polygon class="cls-76" points="36.31 37.44 31.97 37.08 31.97 37.06 36.31 37.42 36.31 37.44"/>
        <polygon class="cls-126" points="36.31 37.46 31.97 37.1 31.97 37.08 36.31 37.44 36.31 37.46"/>
        <polygon class="cls-130" points="36.31 37.48 31.97 37.12 31.97 37.1 36.31 37.46 36.31 37.48"/>
        <polygon class="cls-99" points="36.31 37.5 31.97 37.14 31.97 37.12 36.31 37.48 36.31 37.5"/>
        <polygon class="cls-175" points="36.31 37.52 31.97 37.16 31.97 37.14 36.31 37.5 36.31 37.52"/>
        <polygon class="cls-24" points="36.31 37.54 31.97 37.18 31.97 37.16 36.31 37.52 36.31 37.54"/>
        <polygon class="cls-64" points="36.31 37.56 31.97 37.2 31.97 37.18 36.31 37.54 36.31 37.56"/>
        <polygon class="cls-33" points="36.31 37.58 31.97 37.22 31.97 37.2 36.31 37.56 36.31 37.58"/>
        <polygon class="cls-65" points="36.31 37.6 31.97 37.24 31.97 37.22 36.31 37.58 36.31 37.6"/>
        <polygon class="cls-151" points="36.31 37.62 31.97 37.26 31.97 37.24 36.31 37.6 36.31 37.62"/>
        <polygon class="cls-29" points="36.31 37.64 31.97 37.28 31.97 37.26 36.31 37.62 36.31 37.64"/>
        <polygon class="cls-53" points="36.31 37.66 31.97 37.3 31.97 37.28 36.31 37.64 36.31 37.66"/>
        <polygon class="cls-138" points="36.31 37.68 31.97 37.32 31.97 37.3 36.31 37.66 36.31 37.68"/>
        <polygon class="cls-162" points="36.31 37.7 31.97 37.34 31.97 37.32 36.31 37.68 36.31 37.7"/>
        <polygon class="cls-118" points="36.31 37.72 31.97 37.36 31.97 37.34 36.31 37.7 36.31 37.72"/>
        <polygon class="cls-97" points="36.31 37.74 31.97 37.38 31.97 37.36 36.31 37.72 36.31 37.74"/>
        <polygon class="cls-79" points="36.31 37.76 31.97 37.4 31.97 37.38 36.31 37.74 36.31 37.76"/>
        <polygon class="cls-170" points="36.31 37.78 31.97 37.42 31.97 37.4 36.31 37.76 36.31 37.78"/>
        <polygon class="cls-129" points="36.31 37.8 31.97 37.44 31.97 37.42 36.31 37.78 36.31 37.8"/>
        <polygon class="cls-159" points="36.31 37.82 31.97 37.46 31.97 37.44 36.31 37.8 36.31 37.82"/>
        <polygon class="cls-41" points="36.31 37.84 31.97 37.48 31.97 37.46 36.31 37.82 36.31 37.84"/>
        <polygon class="cls-176" points="36.31 37.86 31.97 37.5 31.97 37.48 36.31 37.84 36.31 37.86"/>
        <polygon class="cls-23" points="36.31 37.88 31.97 37.52 31.97 37.5 36.31 37.86 36.31 37.88"/>
        <polygon class="cls-140" points="36.31 37.9 31.97 37.54 31.97 37.52 36.31 37.88 36.31 37.9"/>
        <polygon class="cls-67" points="36.31 37.92 31.97 37.56 31.97 37.54 36.31 37.9 36.31 37.92"/>
        <polygon class="cls-91" points="36.31 37.94 31.97 37.58 31.97 37.56 36.31 37.92 36.31 37.94"/>
        <polygon class="cls-152" points="36.31 37.96 31.97 37.6 31.97 37.58 36.31 37.94 36.31 37.96"/>
        <polygon class="cls-44" points="36.31 37.98 31.97 37.62 31.97 37.6 36.31 37.96 36.31 37.98"/>
        <polygon class="cls-47" points="36.31 38 31.97 37.64 31.97 37.62 36.31 37.98 36.31 38"/>
        <polygon class="cls-132" points="36.31 38.02 31.97 37.66 31.97 37.64 36.31 38 36.31 38.02"/>
        <polygon class="cls-60" points="36.31 38.04 31.97 37.68 31.97 37.66 36.31 38.02 36.31 38.04"/>
        <polygon class="cls-11" points="36.31 38.06 31.97 37.7 31.97 37.68 36.31 38.04 36.31 38.06"/>
        <polygon class="cls-131" points="36.31 38.08 31.97 37.72 31.97 37.7 36.31 38.06 36.31 38.08"/>
        <polygon class="cls-50" points="36.31 38.1 31.97 37.74 31.97 37.72 36.31 38.08 36.31 38.1"/>
        <polygon class="cls-114" points="36.31 38.12 31.97 37.76 31.97 37.74 36.31 38.1 36.31 38.12"/>
        <polygon class="cls-139" points="36.31 38.14 31.97 37.78 31.97 37.76 36.31 38.12 36.31 38.14"/>
        <polygon class="cls-100" points="36.31 38.16 31.97 37.8 31.97 37.78 36.31 38.14 36.31 38.16"/>
        <polygon class="cls-85" points="36.31 38.18 31.97 37.82 31.97 37.8 36.31 38.16 36.31 38.18"/>
        <polygon class="cls-87" points="36.31 38.2 31.97 37.84 31.97 37.82 36.31 38.18 36.31 38.2"/>
        <polygon class="cls-90" points="36.31 38.22 31.97 37.86 31.97 37.84 36.31 38.2 36.31 38.22"/>
        <polygon class="cls-145" points="36.31 38.24 31.97 37.88 31.97 37.86 36.31 38.22 36.31 38.24"/>
        <polygon class="cls-57" points="36.31 38.26 31.97 37.9 31.97 37.88 36.31 38.24 36.31 38.26"/>
        <polygon class="cls-70" points="36.31 38.28 31.97 37.92 31.97 37.9 36.31 38.26 36.31 38.28"/>
        <polygon class="cls-16" points="36.31 38.3 31.97 37.94 31.97 37.92 36.31 38.28 36.31 38.3"/>
        <polygon class="cls-81" points="36.31 38.32 31.97 37.96 31.97 37.94 36.31 38.3 36.31 38.32"/>
        <polygon class="cls-81" points="36.31 38.34 31.97 37.98 31.97 37.96 36.31 38.32 36.31 38.34"/>
        <polygon class="cls-92" points="36.31 38.36 31.97 38 31.97 37.98 36.31 38.34 36.31 38.36"/>
        <polygon class="cls-28" points="36.31 38.38 31.97 38.02 31.97 38 36.31 38.36 36.31 38.38"/>
        <polygon class="cls-28" points="36.31 38.4 31.97 38.04 31.97 38.02 36.31 38.38 36.31 38.4"/>
        <polygon class="cls-166" points="36.31 38.42 31.97 38.06 31.97 38.04 36.31 38.4 36.31 38.42"/>
        <polygon class="cls-72" points="36.31 38.44 31.97 38.08 31.97 38.06 36.31 38.42 36.31 38.44"/>
        <polygon class="cls-161" points="36.31 38.46 31.97 38.1 31.97 38.08 36.31 38.44 36.31 38.46"/>
        <polygon class="cls-78" points="36.31 38.48 31.97 38.12 31.97 38.1 36.31 38.46 36.31 38.48"/>
        <polygon class="cls-35" points="36.31 38.5 31.97 38.14 31.97 38.12 36.31 38.48 36.31 38.5"/>
        <polygon class="cls-133" points="36.31 38.52 31.97 38.16 31.97 38.14 36.31 38.5 36.31 38.52"/>
        <polygon class="cls-174" points="36.31 38.54 31.97 38.18 31.97 38.16 36.31 38.52 36.31 38.54"/>
        <polygon class="cls-73" points="36.31 38.56 31.97 38.2 31.97 38.18 36.31 38.54 36.31 38.56"/>
        <polygon class="cls-38" points="36.31 38.58 31.97 38.22 31.97 38.2 36.31 38.56 36.31 38.58"/>
        <polygon class="cls-22" points="36.31 38.6 31.97 38.24 31.97 38.22 36.31 38.58 36.31 38.6"/>
        <polygon class="cls-34" points="36.31 38.62 31.97 38.26 31.97 38.24 36.31 38.6 36.31 38.62"/>
        <polygon class="cls-124" points="36.31 38.64 31.97 38.28 31.97 38.26 36.31 38.62 36.31 38.64"/>
        <polygon class="cls-86" points="36.31 38.66 31.97 38.3 31.97 38.28 36.31 38.64 36.31 38.66"/>
        <polygon class="cls-168" points="36.31 38.68 31.97 38.32 31.97 38.3 36.31 38.66 36.31 38.68"/>
        <polygon class="cls-32" points="36.31 38.7 31.97 38.34 31.97 38.32 36.31 38.68 36.31 38.7"/>
        <polygon class="cls-117" points="36.31 38.72 31.97 38.36 31.97 38.34 36.31 38.7 36.31 38.72"/>
        <polygon class="cls-106" points="36.31 38.74 31.97 38.38 31.97 38.36 36.31 38.72 36.31 38.74"/>
        <polygon class="cls-9" points="36.31 38.76 31.97 38.4 31.97 38.38 36.31 38.74 36.31 38.76"/>
        <polygon class="cls-136" points="36.31 38.78 31.97 38.42 31.97 38.4 36.31 38.76 36.31 38.78"/>
        <polygon class="cls-136" points="36.31 38.8 31.97 38.44 31.97 38.42 36.31 38.78 36.31 38.8"/>
        <polygon class="cls-30" points="36.31 38.82 31.97 38.46 31.97 38.44 36.31 38.8 36.31 38.82"/>
        <polygon class="cls-19" points="36.31 38.84 31.97 38.48 31.97 38.46 36.31 38.82 36.31 38.84"/>
        <polygon class="cls-122" points="36.31 38.86 31.97 38.5 31.97 38.48 36.31 38.84 36.31 38.86"/>
        <polygon class="cls-89" points="36.31 38.88 31.97 38.52 31.97 38.5 36.31 38.86 36.31 38.88"/>
        <polygon class="cls-125" points="36.31 38.9 31.97 38.54 31.97 38.52 36.31 38.88 36.31 38.9"/>
        <polygon class="cls-125" points="36.31 38.92 31.97 38.56 31.97 38.54 36.31 38.9 36.31 38.92"/>
        <polygon class="cls-56" points="36.31 38.94 31.97 38.58 31.97 38.56 36.31 38.92 36.31 38.94"/>
        <polygon class="cls-56" points="36.31 38.96 31.97 38.6 31.97 38.58 36.31 38.94 36.31 38.96"/>
        <polygon class="cls-54" points="36.31 38.98 31.97 38.62 31.97 38.6 36.31 38.96 36.31 38.98"/>
        <polygon class="cls-167" points="36.31 39 31.97 38.64 31.97 38.62 36.31 38.98 36.31 39"/>
        <polygon class="cls-167" points="36.31 39.02 31.97 38.66 31.97 38.64 36.31 39 36.31 39.02"/>
        <polygon class="cls-10" points="36.31 39.04 31.97 38.68 31.97 38.66 36.31 39.02 36.31 39.04"/>
        <polygon class="cls-69" points="36.31 39.06 31.97 38.7 31.97 38.68 36.31 39.04 36.31 39.06"/>
        <polygon class="cls-150" points="36.31 39.08 31.97 38.72 31.97 38.7 36.31 39.06 36.31 39.08"/>
        <polygon class="cls-58" points="36.31 39.1 31.97 38.74 31.97 38.72 36.31 39.08 36.31 39.1"/>
        <polygon class="cls-171" points="36.31 39.12 31.97 38.76 31.97 38.74 36.31 39.1 36.31 39.12"/>
        <polygon class="cls-110" points="36.31 39.14 31.97 38.78 31.97 38.76 36.31 39.12 36.31 39.14"/>
        <polygon class="cls-110" points="36.31 39.16 31.97 38.8 31.97 38.78 36.31 39.14 36.31 39.16"/>
        <polygon class="cls-3" points="36.31 39.18 31.97 38.82 31.97 38.8 36.31 39.16 36.31 39.18"/>
        <polygon class="cls-51" points="36.31 39.2 31.97 38.84 31.97 38.82 36.31 39.18 36.31 39.2"/>
        <polygon class="cls-154" points="36.31 39.22 31.97 38.86 31.97 38.84 36.31 39.2 36.31 39.22"/>
        <polygon class="cls-154" points="36.31 39.24 31.97 38.88 31.97 38.86 36.31 39.22 36.31 39.24"/>
        <polygon class="cls-84" points="36.31 39.26 31.97 38.9 31.97 38.88 36.31 39.24 36.31 39.26"/>
        <polygon class="cls-46" points="36.31 39.28 31.97 38.92 31.97 38.9 36.31 39.26 36.31 39.28"/>
        <polygon class="cls-46" points="36.31 39.3 31.97 38.94 31.97 38.92 36.31 39.28 36.31 39.3"/>
        <polygon class="cls-94" points="36.31 39.32 31.97 38.96 31.97 38.94 36.31 39.3 36.31 39.32"/>
        <polygon class="cls-94" points="36.31 39.34 31.97 38.98 31.97 38.96 36.31 39.32 36.31 39.34"/>
        <polygon class="cls-103" points="36.31 39.36 31.97 39 31.97 38.98 36.31 39.34 36.31 39.36"/>
        <polygon class="cls-15" points="36.31 39.38 31.97 39.02 31.97 39 36.31 39.36 36.31 39.38"/>
        <polygon class="cls-101" points="36.31 39.4 31.97 39.04 31.97 39.02 36.31 39.38 36.31 39.4"/>
        <polygon class="cls-101" points="36.31 39.42 31.97 39.06 31.97 39.04 36.31 39.4 36.31 39.42"/>
        <polygon class="cls-42" points="36.31 39.44 31.97 39.08 31.97 39.06 36.31 39.42 36.31 39.44"/>
        <polygon class="cls-172" points="36.31 39.46 31.97 39.1 31.97 39.08 36.31 39.44 36.31 39.46"/>
        <polygon class="cls-172" points="36.31 39.48 31.97 39.12 31.97 39.1 36.31 39.46 36.31 39.48"/>
        <polygon class="cls-112" points="36.31 39.5 31.97 39.14 31.97 39.12 36.31 39.48 36.31 39.5"/>
        <polygon class="cls-55" points="36.31 39.52 31.97 39.16 31.97 39.14 36.31 39.5 36.31 39.52"/>
        <polygon class="cls-31" points="36.31 39.54 31.97 39.18 31.97 39.16 36.31 39.52 36.31 39.54"/>
        <polygon class="cls-25" points="36.31 39.56 31.97 39.2 31.97 39.18 36.31 39.54 36.31 39.56"/>
        <polygon class="cls-25" points="36.31 39.58 31.97 39.22 31.97 39.2 36.31 39.56 36.31 39.58"/>
        <polygon class="cls-164" points="36.31 39.6 31.97 39.24 31.97 39.22 36.31 39.58 36.31 39.6"/>
        <polygon class="cls-127" points="36.31 39.62 31.97 39.26 31.97 39.24 36.31 39.6 36.31 39.62"/>
        <polygon class="cls-127" points="36.31 39.64 31.97 39.28 31.97 39.26 36.31 39.62 36.31 39.64"/>
        <polygon class="cls-127" points="36.31 39.66 31.97 39.3 31.97 39.28 36.31 39.64 36.31 39.66"/>
        <polygon class="cls-88" points="36.31 39.68 31.97 39.32 31.97 39.3 36.31 39.66 36.31 39.68"/>
        <polygon class="cls-88" points="36.31 39.7 31.97 39.34 31.97 39.32 36.31 39.68 36.31 39.7"/>
        <polygon class="cls-77" points="36.31 39.72 31.97 39.36 31.97 39.34 36.31 39.7 36.31 39.72"/>
        <polygon class="cls-77" points="36.31 39.74 31.97 39.38 31.97 39.36 36.31 39.72 36.31 39.74"/>
        <polygon class="cls-137" points="36.31 39.76 31.97 39.4 31.97 39.38 36.31 39.74 36.31 39.76"/>
        <polygon class="cls-4" points="36.31 39.78 31.97 39.42 31.97 39.4 36.31 39.76 36.31 39.78"/>
        <polygon class="cls-4" points="36.31 39.8 31.97 39.44 31.97 39.42 36.31 39.78 36.31 39.8"/>
        <polygon class="cls-45" points="36.31 39.82 31.97 39.46 31.97 39.44 36.31 39.8 36.31 39.82"/>
        <polygon class="cls-59" points="36.31 39.84 31.97 39.48 31.97 39.46 36.31 39.82 36.31 39.84"/>
        <polygon class="cls-83" points="36.31 39.86 31.97 39.5 31.97 39.48 36.31 39.84 36.31 39.86"/>
        <polygon class="cls-83" points="36.31 39.88 31.97 39.52 31.97 39.5 36.31 39.86 36.31 39.88"/>
        <polygon class="cls-83" points="36.31 39.9 31.97 39.54 31.97 39.52 36.31 39.88 36.31 39.9"/>
        <polygon class="cls-173" points="36.31 39.92 31.97 39.56 31.97 39.54 36.31 39.9 36.31 39.92"/>
        <polygon class="cls-12" points="36.31 39.94 31.97 39.58 31.97 39.56 36.31 39.92 36.31 39.94"/>
        <polygon class="cls-12" points="36.31 39.96 31.97 39.6 31.97 39.58 36.31 39.94 36.31 39.96"/>
        <polygon class="cls-169" points="36.31 39.98 31.97 39.62 31.97 39.6 36.31 39.96 36.31 39.98"/>
        <polygon class="cls-135" points="36.31 40 31.97 39.64 31.97 39.62 36.31 39.98 36.31 40"/>
        <polygon class="cls-135" points="36.31 40.02 31.97 39.66 31.97 39.64 36.31 40 36.31 40.02"/>
        <polygon class="cls-135" points="36.31 40.04 31.97 39.68 31.97 39.66 36.31 40.02 36.31 40.04"/>
        <polygon class="cls-135" points="36.31 40.06 31.97 39.7 31.97 39.68 36.31 40.04 36.31 40.06"/>
        <polygon class="cls-40" points="36.31 40.08 31.97 39.72 31.97 39.7 36.31 40.06 36.31 40.08"/>
        <polygon class="cls-95" points="36.31 40.1 31.97 39.74 31.97 39.72 36.31 40.08 36.31 40.1"/>
        <polygon class="cls-20" points="36.26 40.11 31.97 39.76 31.97 39.74 36.31 40.1 36.31 40.11 36.26 40.11"/>
        <polygon class="cls-20" points="36.02 40.11 31.97 39.78 31.97 39.76 36.26 40.11 36.02 40.11"/>
        <polygon class="cls-20" points="35.77 40.11 31.97 39.8 31.97 39.78 36.02 40.11 35.77 40.11"/>
        <polygon class="cls-20" points="35.53 40.11 31.97 39.82 31.97 39.8 35.77 40.11 35.53 40.11"/>
        <polygon class="cls-20" points="35.29 40.11 31.97 39.84 31.97 39.82 35.53 40.11 35.29 40.11"/>
        <polygon class="cls-20" points="35.05 40.11 31.97 39.86 31.97 39.84 35.29 40.11 35.05 40.11"/>
        <polygon class="cls-66" points="34.81 40.11 31.97 39.88 31.97 39.86 35.05 40.11 34.81 40.11"/>
        <polygon class="cls-146" points="34.56 40.11 31.97 39.9 31.97 39.88 34.81 40.11 34.56 40.11"/>
        <polygon class="cls-146" points="34.32 40.11 31.97 39.92 31.97 39.9 34.56 40.11 34.32 40.11"/>
        <polygon class="cls-146" points="34.08 40.11 31.97 39.94 31.97 39.92 34.32 40.11 34.08 40.11"/>
        <polygon class="cls-146" points="33.84 40.11 31.97 39.96 31.97 39.94 34.08 40.11 33.84 40.11"/>
        <polygon class="cls-146" points="33.6 40.11 31.97 39.98 31.97 39.96 33.84 40.11 33.6 40.11"/>
        <polygon class="cls-146" points="33.35 40.11 31.97 40 31.97 39.98 33.6 40.11 33.35 40.11"/>
        <polygon class="cls-146" points="33.11 40.11 31.97 40.02 31.97 40 33.35 40.11 33.11 40.11"/>
        <polygon class="cls-36" points="32.87 40.11 31.97 40.04 31.97 40.02 33.11 40.11 32.87 40.11"/>
        <polygon class="cls-36" points="32.63 40.11 31.97 40.06 31.97 40.04 32.87 40.11 32.63 40.11"/>
        <polygon class="cls-52" points="32.39 40.11 31.97 40.08 31.97 40.06 32.63 40.11 32.39 40.11"/>
        <polygon class="cls-52" points="32.14 40.11 31.97 40.1 31.97 40.08 32.39 40.11 32.14 40.11"/>
        <polygon class="cls-52" points="31.97 40.1 32.14 40.11 31.97 40.11 31.97 40.1"/>
      </g>
      <path class="cls-43" d="M34.04,39.38c-.61-.05-1.08-.66-1.03-1.34.05-.67.62-1.2,1.23-1.15.61.05,1.08.66,1.03,1.34-.06.67-.62,1.2-1.23,1.15Z"/>
      <path class="cls-128" d="M34.1,39.13c-.43-.04-.87-.5-.82-1.07.05-.57.56-.96.98-.92.43.04.87.5.82,1.07-.05.57-.56.96-.98.92Z"/>
      <g class="cls-116">
        <path class="cls-148" d="M37.51,40.85s-.05,0-.16.04c-.08-1.24-.32-2.94-1.02-3.28-1.04-.53-3.37-1.29-6.38.55-.3-.54-.46-.94-.46-.94,3.27-2.33,5.83-1.5,6.95-.94,1.12.56,1.06,4.58,1.06,4.58Z"/>
      </g>
      <path class="cls-93" d="M33.75,37.73c-.02.21-.23.36-.48.34-.24-.02-.43-.21-.41-.41.02-.21.23-.36.47-.34.25.02.43.2.41.41Z"/>
      <path class="cls-93" d="M35.13,38.92c0,.1-.12.18-.24.17-.12,0-.21-.1-.21-.21,0-.1.12-.18.24-.17.12,0,.22.1.21.21Z"/>
      <path class="cls-160" d="M44.2,35.24s.36-.55,1.1-1.12c.37-.28.84-.59,1.38-.82.54-.23,1.16-.4,1.78-.49.63-.07,1.25-.03,1.83.05.57.11,1.08.27,1.5.45.43.15.74.38.97.5.22.14.35.22.35.22,0,0-.15-.03-.4-.09-.25-.06-.6-.17-1.03-.23-.22-.03-.44-.1-.69-.11-.24-.02-.5-.03-.76-.05-.53,0-1.08.02-1.62.15-.54.09-1.07.26-1.53.48-.46.22-.9.44-1.23.68-.7.46-1.08.84-1.08.85-.14.14-.37.14-.51,0-.12-.12-.14-.31-.05-.45h0Z"/>
      <path class="cls-93" d="M53.43,37.22s-1.39,3.46-3.55,3.8c-2.16.34-4.46-.16-4.46-.16,0,0-.06-4.02,1.06-4.58,1.12-.56,3.68-1.39,6.95.93Z"/>
      <g class="cls-116">
        <path class="cls-148" d="M45.42,40.85s.05,0,.16.04c.08-1.24.32-2.94,1.02-3.28,1.04-.53,3.37-1.29,6.38.55.3-.54.46-.94.46-.94-3.27-2.33-5.83-1.5-6.94-.94-1.12.56-1.07,4.58-1.07,4.58Z"/>
      </g>
      <g class="cls-75">
        <polygon class="cls-120" points="50.97 36.48 46.63 36.13 46.63 35.72 50.97 35.72 50.97 36.48"/>
        <polygon class="cls-120" points="50.97 36.5 46.63 36.15 46.63 36.13 50.97 36.48 50.97 36.5"/>
        <polygon class="cls-165" points="50.97 36.52 46.63 36.17 46.63 36.15 50.97 36.5 50.97 36.52"/>
        <polygon class="cls-157" points="50.97 36.54 46.63 36.19 46.63 36.17 50.97 36.52 50.97 36.54"/>
        <polygon class="cls-82" points="50.97 36.56 46.63 36.21 46.63 36.19 50.97 36.54 50.97 36.56"/>
        <polygon class="cls-14" points="50.97 36.58 46.63 36.23 46.63 36.21 50.97 36.56 50.97 36.58"/>
        <polygon class="cls-134" points="50.97 36.6 46.63 36.25 46.63 36.23 50.97 36.58 50.97 36.6"/>
        <polygon class="cls-63" points="50.97 36.62 46.63 36.27 46.63 36.25 50.97 36.6 50.97 36.62"/>
        <polygon class="cls-2" points="50.97 36.64 46.63 36.29 46.63 36.27 50.97 36.62 50.97 36.64"/>
        <polygon class="cls-13" points="50.97 36.66 46.63 36.31 46.63 36.29 50.97 36.64 50.97 36.66"/>
        <polygon class="cls-68" points="50.97 36.68 46.63 36.33 46.63 36.31 50.97 36.66 50.97 36.68"/>
        <polygon class="cls-48" points="50.97 36.7 46.63 36.35 46.63 36.33 50.97 36.68 50.97 36.7"/>
        <polygon class="cls-61" points="50.97 36.72 46.63 36.37 46.63 36.35 50.97 36.7 50.97 36.72"/>
        <polygon class="cls-107" points="50.97 36.74 46.63 36.39 46.63 36.37 50.97 36.72 50.97 36.74"/>
        <polygon class="cls-144" points="50.97 36.76 46.63 36.41 46.63 36.39 50.97 36.74 50.97 36.76"/>
        <polygon class="cls-141" points="50.97 36.78 46.63 36.43 46.63 36.41 50.97 36.76 50.97 36.78"/>
        <polygon class="cls-62" points="50.97 36.8 46.63 36.45 46.63 36.43 50.97 36.78 50.97 36.8"/>
        <polygon class="cls-49" points="50.97 36.82 46.63 36.47 46.63 36.45 50.97 36.8 50.97 36.82"/>
        <polygon class="cls-156" points="50.97 36.84 46.63 36.49 46.63 36.47 50.97 36.82 50.97 36.84"/>
        <polygon class="cls-147" points="50.97 36.86 46.63 36.51 46.63 36.49 50.97 36.84 50.97 36.86"/>
        <polygon class="cls-119" points="50.97 36.88 46.63 36.53 46.63 36.51 50.97 36.86 50.97 36.88"/>
        <polygon class="cls-142" points="50.97 36.9 46.63 36.55 46.63 36.53 50.97 36.88 50.97 36.9"/>
        <polygon class="cls-123" points="50.97 36.92 46.63 36.57 46.63 36.55 50.97 36.9 50.97 36.92"/>
        <polygon class="cls-17" points="50.97 36.94 46.63 36.59 46.63 36.57 50.97 36.92 50.97 36.94"/>
        <polygon class="cls-153" points="50.97 36.96 46.63 36.61 46.63 36.59 50.97 36.94 50.97 36.96"/>
        <polygon class="cls-18" points="50.97 36.98 46.63 36.63 46.63 36.61 50.97 36.96 50.97 36.98"/>
        <polygon class="cls-105" points="50.97 37 46.63 36.65 46.63 36.63 50.97 36.98 50.97 37"/>
        <polygon class="cls-27" points="50.97 37.02 46.63 36.67 46.63 36.65 50.97 37 50.97 37.02"/>
        <polygon class="cls-39" points="50.97 37.04 46.63 36.69 46.63 36.67 50.97 37.02 50.97 37.04"/>
        <polygon class="cls-158" points="50.97 37.06 46.63 36.71 46.63 36.69 50.97 37.04 50.97 37.06"/>
        <polygon class="cls-113" points="50.97 37.08 46.63 36.73 46.63 36.71 50.97 37.06 50.97 37.08"/>
        <polygon class="cls-104" points="50.97 37.1 46.63 36.75 46.63 36.73 50.97 37.08 50.97 37.1"/>
        <polygon class="cls-102" points="50.97 37.12 46.63 36.77 46.63 36.75 50.97 37.1 50.97 37.12"/>
        <polygon class="cls-98" points="50.97 37.14 46.63 36.79 46.63 36.77 50.97 37.12 50.97 37.14"/>
        <polygon class="cls-74" points="50.97 37.16 46.63 36.81 46.63 36.79 50.97 37.14 50.97 37.16"/>
        <polygon class="cls-7" points="50.97 37.18 46.63 36.83 46.63 36.81 50.97 37.16 50.97 37.18"/>
        <polygon class="cls-111" points="50.97 37.2 46.63 36.85 46.63 36.83 50.97 37.18 50.97 37.2"/>
        <polygon class="cls-121" points="50.97 37.22 46.63 36.87 46.63 36.85 50.97 37.2 50.97 37.22"/>
        <polygon class="cls-109" points="50.97 37.24 46.63 36.89 46.63 36.87 50.97 37.22 50.97 37.24"/>
        <polygon class="cls-149" points="50.97 37.26 46.63 36.91 46.63 36.89 50.97 37.24 50.97 37.26"/>
        <polygon class="cls-71" points="50.97 37.28 46.63 36.93 46.63 36.91 50.97 37.26 50.97 37.28"/>
        <polygon class="cls-96" points="50.97 37.3 46.63 36.95 46.63 36.93 50.97 37.28 50.97 37.3"/>
        <polygon class="cls-76" points="50.97 37.32 46.63 36.97 46.63 36.95 50.97 37.3 50.97 37.32"/>
        <polygon class="cls-126" points="50.97 37.34 46.63 36.99 46.63 36.97 50.97 37.32 50.97 37.34"/>
        <polygon class="cls-130" points="50.97 37.36 46.63 37.01 46.63 36.99 50.97 37.34 50.97 37.36"/>
        <polygon class="cls-99" points="50.97 37.38 46.63 37.03 46.63 37.01 50.97 37.36 50.97 37.38"/>
        <polygon class="cls-175" points="50.97 37.4 46.63 37.05 46.63 37.03 50.97 37.38 50.97 37.4"/>
        <polygon class="cls-24" points="50.97 37.42 46.63 37.07 46.63 37.05 50.97 37.4 50.97 37.42"/>
        <polygon class="cls-64" points="50.97 37.44 46.63 37.09 46.63 37.07 50.97 37.42 50.97 37.44"/>
        <polygon class="cls-33" points="50.97 37.46 46.63 37.11 46.63 37.09 50.97 37.44 50.97 37.46"/>
        <polygon class="cls-65" points="50.97 37.48 46.63 37.13 46.63 37.11 50.97 37.46 50.97 37.48"/>
        <polygon class="cls-151" points="50.97 37.5 46.63 37.15 46.63 37.13 50.97 37.48 50.97 37.5"/>
        <polygon class="cls-29" points="50.97 37.52 46.63 37.17 46.63 37.15 50.97 37.5 50.97 37.52"/>
        <polygon class="cls-53" points="50.97 37.54 46.63 37.19 46.63 37.17 50.97 37.52 50.97 37.54"/>
        <polygon class="cls-138" points="50.97 37.56 46.63 37.21 46.63 37.19 50.97 37.54 50.97 37.56"/>
        <polygon class="cls-162" points="50.97 37.58 46.63 37.23 46.63 37.21 50.97 37.56 50.97 37.58"/>
        <polygon class="cls-118" points="50.97 37.6 46.63 37.25 46.63 37.23 50.97 37.58 50.97 37.6"/>
        <polygon class="cls-97" points="50.97 37.62 46.63 37.27 46.63 37.25 50.97 37.6 50.97 37.62"/>
        <polygon class="cls-79" points="50.97 37.64 46.63 37.29 46.63 37.27 50.97 37.62 50.97 37.64"/>
        <polygon class="cls-170" points="50.97 37.66 46.63 37.31 46.63 37.29 50.97 37.64 50.97 37.66"/>
        <polygon class="cls-129" points="50.97 37.68 46.63 37.33 46.63 37.31 50.97 37.66 50.97 37.68"/>
        <polygon class="cls-159" points="50.97 37.7 46.63 37.35 46.63 37.33 50.97 37.68 50.97 37.7"/>
        <polygon class="cls-41" points="50.97 37.72 46.63 37.37 46.63 37.35 50.97 37.7 50.97 37.72"/>
        <polygon class="cls-176" points="50.97 37.74 46.63 37.39 46.63 37.37 50.97 37.72 50.97 37.74"/>
        <polygon class="cls-23" points="50.97 37.76 46.63 37.41 46.63 37.39 50.97 37.74 50.97 37.76"/>
        <polygon class="cls-140" points="50.97 37.78 46.63 37.43 46.63 37.41 50.97 37.76 50.97 37.78"/>
        <polygon class="cls-67" points="50.97 37.8 46.63 37.45 46.63 37.43 50.97 37.78 50.97 37.8"/>
        <polygon class="cls-91" points="50.97 37.82 46.63 37.47 46.63 37.45 50.97 37.8 50.97 37.82"/>
        <polygon class="cls-152" points="50.97 37.84 46.63 37.49 46.63 37.47 50.97 37.82 50.97 37.84"/>
        <polygon class="cls-44" points="50.97 37.86 46.63 37.51 46.63 37.49 50.97 37.84 50.97 37.86"/>
        <polygon class="cls-47" points="50.97 37.88 46.63 37.53 46.63 37.51 50.97 37.86 50.97 37.88"/>
        <polygon class="cls-132" points="50.97 37.9 46.63 37.55 46.63 37.53 50.97 37.88 50.97 37.9"/>
        <polygon class="cls-60" points="50.97 37.92 46.63 37.57 46.63 37.55 50.97 37.9 50.97 37.92"/>
        <polygon class="cls-11" points="50.97 37.94 46.63 37.59 46.63 37.57 50.97 37.92 50.97 37.94"/>
        <polygon class="cls-131" points="50.97 37.96 46.63 37.61 46.63 37.59 50.97 37.94 50.97 37.96"/>
        <polygon class="cls-50" points="50.97 37.98 46.63 37.63 46.63 37.61 50.97 37.96 50.97 37.98"/>
        <polygon class="cls-114" points="50.97 38 46.63 37.65 46.63 37.63 50.97 37.98 50.97 38"/>
        <polygon class="cls-139" points="50.97 38.02 46.63 37.67 46.63 37.65 50.97 38 50.97 38.02"/>
        <polygon class="cls-100" points="50.97 38.04 46.63 37.69 46.63 37.67 50.97 38.02 50.97 38.04"/>
        <polygon class="cls-85" points="50.97 38.06 46.63 37.71 46.63 37.69 50.97 38.04 50.97 38.06"/>
        <polygon class="cls-87" points="50.97 38.08 46.63 37.73 46.63 37.71 50.97 38.06 50.97 38.08"/>
        <polygon class="cls-90" points="50.97 38.1 46.63 37.75 46.63 37.73 50.97 38.08 50.97 38.1"/>
        <polygon class="cls-145" points="50.97 38.12 46.63 37.77 46.63 37.75 50.97 38.1 50.97 38.12"/>
        <polygon class="cls-57" points="50.97 38.14 46.63 37.79 46.63 37.77 50.97 38.12 50.97 38.14"/>
        <polygon class="cls-70" points="50.97 38.16 46.63 37.81 46.63 37.79 50.97 38.14 50.97 38.16"/>
        <polygon class="cls-16" points="50.97 38.18 46.63 37.83 46.63 37.81 50.97 38.16 50.97 38.18"/>
        <polygon class="cls-81" points="50.97 38.2 46.63 37.85 46.63 37.83 50.97 38.18 50.97 38.2"/>
        <polygon class="cls-81" points="50.97 38.22 46.63 37.87 46.63 37.85 50.97 38.2 50.97 38.22"/>
        <polygon class="cls-92" points="50.97 38.24 46.63 37.89 46.63 37.87 50.97 38.22 50.97 38.24"/>
        <polygon class="cls-28" points="50.97 38.26 46.63 37.91 46.63 37.89 50.97 38.24 50.97 38.26"/>
        <polygon class="cls-28" points="50.97 38.28 46.63 37.93 46.63 37.91 50.97 38.26 50.97 38.28"/>
        <polygon class="cls-166" points="50.97 38.3 46.63 37.95 46.63 37.93 50.97 38.28 50.97 38.3"/>
        <polygon class="cls-72" points="50.97 38.32 46.63 37.97 46.63 37.95 50.97 38.3 50.97 38.32"/>
        <polygon class="cls-161" points="50.97 38.34 46.63 37.99 46.63 37.97 50.97 38.32 50.97 38.34"/>
        <polygon class="cls-78" points="50.97 38.36 46.63 38.01 46.63 37.99 50.97 38.34 50.97 38.36"/>
        <polygon class="cls-35" points="50.97 38.38 46.63 38.03 46.63 38.01 50.97 38.36 50.97 38.38"/>
        <polygon class="cls-133" points="50.97 38.4 46.63 38.05 46.63 38.03 50.97 38.38 50.97 38.4"/>
        <polygon class="cls-174" points="50.97 38.42 46.63 38.07 46.63 38.05 50.97 38.4 50.97 38.42"/>
        <polygon class="cls-73" points="50.97 38.44 46.63 38.09 46.63 38.07 50.97 38.42 50.97 38.44"/>
        <polygon class="cls-38" points="50.97 38.46 46.63 38.11 46.63 38.09 50.97 38.44 50.97 38.46"/>
        <polygon class="cls-22" points="50.97 38.48 46.63 38.13 46.63 38.11 50.97 38.46 50.97 38.48"/>
        <polygon class="cls-34" points="50.97 38.5 46.63 38.15 46.63 38.13 50.97 38.48 50.97 38.5"/>
        <polygon class="cls-124" points="50.97 38.52 46.63 38.17 46.63 38.15 50.97 38.5 50.97 38.52"/>
        <polygon class="cls-86" points="50.97 38.54 46.63 38.19 46.63 38.17 50.97 38.52 50.97 38.54"/>
        <polygon class="cls-168" points="50.97 38.56 46.63 38.21 46.63 38.19 50.97 38.54 50.97 38.56"/>
        <polygon class="cls-32" points="50.97 38.58 46.63 38.23 46.63 38.21 50.97 38.56 50.97 38.58"/>
        <polygon class="cls-117" points="50.97 38.6 46.63 38.25 46.63 38.23 50.97 38.58 50.97 38.6"/>
        <polygon class="cls-106" points="50.97 38.62 46.63 38.27 46.63 38.25 50.97 38.6 50.97 38.62"/>
        <polygon class="cls-9" points="50.97 38.64 46.63 38.29 46.63 38.27 50.97 38.62 50.97 38.64"/>
        <polygon class="cls-136" points="50.97 38.66 46.63 38.31 46.63 38.29 50.97 38.64 50.97 38.66"/>
        <polygon class="cls-136" points="50.97 38.68 46.63 38.33 46.63 38.31 50.97 38.66 50.97 38.68"/>
        <polygon class="cls-30" points="50.97 38.7 46.63 38.35 46.63 38.33 50.97 38.68 50.97 38.7"/>
        <polygon class="cls-19" points="50.97 38.72 46.63 38.37 46.63 38.35 50.97 38.7 50.97 38.72"/>
        <polygon class="cls-122" points="50.97 38.74 46.63 38.39 46.63 38.37 50.97 38.72 50.97 38.74"/>
        <polygon class="cls-89" points="50.97 38.76 46.63 38.41 46.63 38.39 50.97 38.74 50.97 38.76"/>
        <polygon class="cls-125" points="50.97 38.78 46.63 38.43 46.63 38.41 50.97 38.76 50.97 38.78"/>
        <polygon class="cls-125" points="50.97 38.8 46.63 38.45 46.63 38.43 50.97 38.78 50.97 38.8"/>
        <polygon class="cls-56" points="50.97 38.82 46.63 38.47 46.63 38.45 50.97 38.8 50.97 38.82"/>
        <polygon class="cls-56" points="50.97 38.84 46.63 38.49 46.63 38.47 50.97 38.82 50.97 38.84"/>
        <polygon class="cls-54" points="50.97 38.86 46.63 38.51 46.63 38.49 50.97 38.84 50.97 38.86"/>
        <polygon class="cls-167" points="50.97 38.88 46.63 38.53 46.63 38.51 50.97 38.86 50.97 38.88"/>
        <polygon class="cls-167" points="50.97 38.9 46.63 38.55 46.63 38.53 50.97 38.88 50.97 38.9"/>
        <polygon class="cls-10" points="50.97 38.92 46.63 38.57 46.63 38.55 50.97 38.9 50.97 38.92"/>
        <polygon class="cls-69" points="50.97 38.94 46.63 38.59 46.63 38.57 50.97 38.92 50.97 38.94"/>
        <polygon class="cls-150" points="50.97 38.96 46.63 38.61 46.63 38.59 50.97 38.94 50.97 38.96"/>
        <polygon class="cls-58" points="50.97 38.98 46.63 38.62 46.63 38.61 50.97 38.96 50.97 38.98"/>
        <polygon class="cls-171" points="50.97 39 46.63 38.65 46.63 38.62 50.97 38.98 50.97 39"/>
        <polygon class="cls-110" points="50.97 39.02 46.63 38.67 46.63 38.65 50.97 39 50.97 39.02"/>
        <polygon class="cls-110" points="50.97 39.04 46.63 38.68 46.63 38.67 50.97 39.02 50.97 39.04"/>
        <polygon class="cls-3" points="50.97 39.06 46.63 38.71 46.63 38.68 50.97 39.04 50.97 39.06"/>
        <polygon class="cls-51" points="50.97 39.08 46.63 38.73 46.63 38.71 50.97 39.06 50.97 39.08"/>
        <polygon class="cls-154" points="50.97 39.1 46.63 38.75 46.63 38.73 50.97 39.08 50.97 39.1"/>
        <polygon class="cls-154" points="50.97 39.12 46.63 38.76 46.63 38.75 50.97 39.1 50.97 39.12"/>
        <polygon class="cls-84" points="50.97 39.14 46.63 38.78 46.63 38.76 50.97 39.12 50.97 39.14"/>
        <polygon class="cls-46" points="50.97 39.16 46.63 38.8 46.63 38.78 50.97 39.14 50.97 39.16"/>
        <polygon class="cls-46" points="50.97 39.18 46.63 38.82 46.63 38.8 50.97 39.16 50.97 39.18"/>
        <polygon class="cls-94" points="50.97 39.2 46.63 38.84 46.63 38.82 50.97 39.18 50.97 39.2"/>
        <polygon class="cls-94" points="50.97 39.22 46.63 38.86 46.63 38.84 50.97 39.2 50.97 39.22"/>
        <polygon class="cls-103" points="50.97 39.24 46.63 38.89 46.63 38.86 50.97 39.22 50.97 39.24"/>
        <polygon class="cls-15" points="50.97 39.26 46.63 38.9 46.63 38.89 50.97 39.24 50.97 39.26"/>
        <polygon class="cls-101" points="50.97 39.28 46.63 38.92 46.63 38.9 50.97 39.26 50.97 39.28"/>
        <polygon class="cls-101" points="50.97 39.3 46.63 38.94 46.63 38.92 50.97 39.28 50.97 39.3"/>
        <polygon class="cls-42" points="50.97 39.32 46.63 38.96 46.63 38.94 50.97 39.3 50.97 39.32"/>
        <polygon class="cls-172" points="50.97 39.34 46.63 38.98 46.63 38.96 50.97 39.32 50.97 39.34"/>
        <polygon class="cls-172" points="50.97 39.36 46.63 39 46.63 38.98 50.97 39.34 50.97 39.36"/>
        <polygon class="cls-112" points="50.97 39.38 46.63 39.02 46.63 39 50.97 39.36 50.97 39.38"/>
        <polygon class="cls-55" points="50.97 39.4 46.63 39.04 46.63 39.02 50.97 39.38 50.97 39.4"/>
        <polygon class="cls-31" points="50.97 39.42 46.63 39.06 46.63 39.04 50.97 39.4 50.97 39.42"/>
        <polygon class="cls-25" points="50.97 39.44 46.63 39.08 46.63 39.06 50.97 39.42 50.97 39.44"/>
        <polygon class="cls-25" points="50.97 39.46 46.63 39.1 46.63 39.08 50.97 39.44 50.97 39.46"/>
        <polygon class="cls-164" points="50.97 39.48 46.63 39.12 46.63 39.1 50.97 39.46 50.97 39.48"/>
        <polygon class="cls-127" points="50.97 39.5 46.63 39.14 46.63 39.12 50.97 39.48 50.97 39.5"/>
        <polygon class="cls-127" points="50.97 39.52 46.63 39.16 46.63 39.14 50.97 39.5 50.97 39.52"/>
        <polygon class="cls-127" points="50.97 39.54 46.63 39.18 46.63 39.16 50.97 39.52 50.97 39.54"/>
        <polygon class="cls-88" points="50.97 39.56 46.63 39.2 46.63 39.18 50.97 39.54 50.97 39.56"/>
        <polygon class="cls-88" points="50.97 39.58 46.63 39.22 46.63 39.2 50.97 39.56 50.97 39.58"/>
        <polygon class="cls-77" points="50.97 39.6 46.63 39.24 46.63 39.22 50.97 39.58 50.97 39.6"/>
        <polygon class="cls-77" points="50.97 39.62 46.63 39.26 46.63 39.24 50.97 39.6 50.97 39.62"/>
        <polygon class="cls-137" points="50.97 39.64 46.63 39.28 46.63 39.26 50.97 39.62 50.97 39.64"/>
        <polygon class="cls-4" points="50.97 39.66 46.63 39.3 46.63 39.28 50.97 39.64 50.97 39.66"/>
        <polygon class="cls-4" points="50.97 39.68 46.63 39.32 46.63 39.3 50.97 39.66 50.97 39.68"/>
        <polygon class="cls-45" points="50.97 39.7 46.63 39.34 46.63 39.32 50.97 39.68 50.97 39.7"/>
        <polygon class="cls-59" points="50.97 39.72 46.63 39.36 46.63 39.34 50.97 39.7 50.97 39.72"/>
        <polygon class="cls-83" points="50.97 39.74 46.63 39.38 46.63 39.36 50.97 39.72 50.97 39.74"/>
        <polygon class="cls-83" points="50.97 39.76 46.63 39.4 46.63 39.38 50.97 39.74 50.97 39.76"/>
        <polygon class="cls-83" points="50.97 39.78 46.63 39.42 46.63 39.4 50.97 39.76 50.97 39.78"/>
        <polygon class="cls-173" points="50.97 39.8 46.63 39.44 46.63 39.42 50.97 39.78 50.97 39.8"/>
        <polygon class="cls-12" points="50.97 39.82 46.63 39.46 46.63 39.44 50.97 39.8 50.97 39.82"/>
        <polygon class="cls-12" points="50.97 39.84 46.63 39.48 46.63 39.46 50.97 39.82 50.97 39.84"/>
        <polygon class="cls-169" points="50.97 39.86 46.63 39.5 46.63 39.48 50.97 39.84 50.97 39.86"/>
        <polygon class="cls-135" points="50.97 39.88 46.63 39.52 46.63 39.5 50.97 39.86 50.97 39.88"/>
        <polygon class="cls-135" points="50.97 39.9 46.63 39.54 46.63 39.52 50.97 39.88 50.97 39.9"/>
        <polygon class="cls-135" points="50.97 39.92 46.63 39.56 46.63 39.54 50.97 39.9 50.97 39.92"/>
        <polygon class="cls-135" points="50.97 39.94 46.63 39.58 46.63 39.56 50.97 39.92 50.97 39.94"/>
        <polygon class="cls-40" points="50.97 39.96 46.63 39.6 46.63 39.58 50.97 39.94 50.97 39.96"/>
        <polygon class="cls-95" points="50.97 39.98 46.63 39.62 46.63 39.6 50.97 39.96 50.97 39.98"/>
        <polygon class="cls-20" points="50.91 40 46.63 39.64 46.63 39.62 50.97 39.98 50.97 40 50.91 40"/>
        <polygon class="cls-20" points="50.67 40 46.63 39.66 46.63 39.64 50.91 40 50.67 40"/>
        <polygon class="cls-20" points="50.43 40 46.63 39.68 46.63 39.66 50.67 40 50.43 40"/>
        <polygon class="cls-20" points="50.19 40 46.63 39.7 46.63 39.68 50.43 40 50.19 40"/>
        <polygon class="cls-20" points="49.94 40 46.63 39.72 46.63 39.7 50.19 40 49.94 40"/>
        <polygon class="cls-20" points="49.7 40 46.63 39.74 46.63 39.72 49.94 40 49.7 40"/>
        <polygon class="cls-66" points="49.46 40 46.63 39.76 46.63 39.74 49.7 40 49.46 40"/>
        <polygon class="cls-146" points="49.22 40 46.63 39.78 46.63 39.76 49.46 40 49.22 40"/>
        <polygon class="cls-146" points="48.98 40 46.63 39.8 46.63 39.78 49.22 40 48.98 40"/>
        <polygon class="cls-146" points="48.73 40 46.63 39.82 46.63 39.8 48.98 40 48.73 40"/>
        <polygon class="cls-146" points="48.49 40 46.63 39.84 46.63 39.82 48.73 40 48.49 40"/>
        <polygon class="cls-146" points="48.25 40 46.63 39.86 46.63 39.84 48.49 40 48.25 40"/>
        <polygon class="cls-146" points="48.01 40 46.63 39.88 46.63 39.86 48.25 40 48.01 40"/>
        <polygon class="cls-146" points="47.77 40 46.63 39.9 46.63 39.88 48.01 40 47.77 40"/>
        <polygon class="cls-36" points="47.52 40 46.63 39.92 46.63 39.9 47.77 40 47.52 40"/>
        <polygon class="cls-36" points="47.28 40 46.63 39.94 46.63 39.92 47.52 40 47.28 40"/>
        <polygon class="cls-52" points="47.04 40 46.63 39.96 46.63 39.94 47.28 40 47.04 40"/>
        <polygon class="cls-52" points="46.8 40 46.63 39.98 46.63 39.96 47.04 40 46.8 40"/>
        <polygon class="cls-52" points="46.63 39.98 46.8 40 46.63 40 46.63 39.98"/>
      </g>
      <path class="cls-43" d="M48.7,39.26c-.61-.05-1.08-.66-1.03-1.34.05-.67.62-1.2,1.23-1.15.61.05,1.08.66,1.03,1.34-.06.67-.62,1.2-1.23,1.15Z"/>
      <path class="cls-128" d="M48.75,39.02c-.43-.04-.87-.5-.82-1.07.05-.57.56-.96.98-.92.43.04.87.5.82,1.07-.05.57-.56.96-.98.92Z"/>
      <path class="cls-93" d="M48.41,37.61c-.02.21-.23.36-.48.34-.25-.02-.43-.21-.41-.41.02-.21.23-.36.47-.34.25.02.43.2.41.41Z"/>
      <path class="cls-93" d="M49.78,38.8c0,.1-.12.18-.24.17-.12,0-.21-.1-.21-.21,0-.1.12-.18.24-.17.12,0,.22.1.21.21Z"/>
      <path class="cls-6" d="M23.76,39.76c.92-1.5,2.37-.87,2.73-.54.38.35.68.82.46,1.71-.12.5-.65.54-.51,1.3.15.85.54.9.77,1.09.22.19.51.33.65.7.14.36.16.74.09,1.06-.14.61-1.04.14-1.64-.13-.4-.18-1.66-1.22-1.98-1.57-.8-.89-1.19-2.61-.57-3.62"/>
      <path class="cls-26" d="M43.22,46.48c.33-.22.71-.11.71-.11,0,0,0,0-.01.02-.08.13-.51.83-.86.82,0,0-.08-.06-.1-.23-.03-.17.11-.38.27-.49Z"/>
      <path class="cls-108" d="M28.54,46.8c0,.57-.46,1.02-1.02,1.02s-1.02-.46-1.02-1.02.46-1.02,1.02-1.02,1.02.46,1.02,1.02Z"/>
      <rect class="cls-5" x="34.68" y="70.26" width="13.28" height="8.62"/>
      <path class="cls-155" d="M33.49,60.01c-1.08,3.15-5.26,5.03-5.89,5.3-.05.02-.1.03-.15.05-.09.02-.17.06-.26.08-.93.31-1.82.6-2.54.82h-.01c-1.04.33-1.75.55-1.77.56-3.2,1.92-2.42,2.84-2.86,4.82h0v.04s-.03.07-.04.14h0c-.05.28-.1.82-.14,1.48h5.89c-.6,2.18-1.04,3.25-1.21,5.57h14.94v-12.86c0-3.3-2.66-5.98-5.96-6.01Z"/>
      <path class="cls-155" d="M49.53,60.01c1.08,3.15,5.26,5.03,5.89,5.3.05.02.1.03.15.05.09.02.17.06.26.08.93.31,1.82.6,2.54.82h.01c1.04.33,1.75.55,1.77.56,3.2,1.92,2.42,2.84,2.86,4.82h0v.04s.03.07.04.14h0c.05.28.1.82.14,1.48h-5.89c.6,2.18,1.04,3.25,1.21,5.57h-14.94v-12.86c0-3.3,2.66-5.98,5.96-6.01Z"/>
      <path class="cls-108" d="M56.11,46.78c0,.57-.46,1.02-1.02,1.02s-1.02-.46-1.02-1.02.46-1.02,1.02-1.02,1.02.46,1.02,1.02Z"/>
      <path class="cls-160" d="M25.28,37.99c.46,1.05,1.05,2.04,1.77,2.96-.07-.71-.11-1.42-.11-2.16,0-3.72.98-7.14,2.65-9.93,1.51-1.34,2.88-1.2,3.94-.69-.66.29-1.25.77-1.63,1.52,0,0-.65,1.38.3,1.21,0,0,.24-1.46,2.32-1.41,0,0,1.59-.05,1.67,1.21.03-.04-.3,1.51.88,1.98.51.21,1.16.41,1.99.53,0,0,.87.15,2.25.17h0c1.39-.01,2.25-.17,2.25-.17.84-.12,1.48-.32,1.99-.53,1.18-.47.85-2.02.88-1.98.08-1.26,1.67-1.21,1.67-1.21,2.08-.05,2.32,1.41,2.32,1.41.95.17.3-1.21.3-1.21-.38-.75-.96-1.23-1.63-1.52,1.06-.52,2.43-.66,3.94.69,1.67,2.78,2.65,6.2,2.65,9.93,0,.73-.04,1.45-.11,2.16.72-.92,1.32-1.91,1.77-2.96,4.11-7.6,11.91-27.65-16.04-33.33h0s0,0,0,0c-27.95,5.68-20.15,25.72-16.04,33.33Z"/>
    </g>
  </g>
</svg>