<?xml version="1.0" encoding="UTF-8"?>
<svg id="Layer_2" data-name="Layer 2" xmlns="http://www.w3.org/2000/svg" xmlns:xlink="http://www.w3.org/1999/xlink" viewBox="0 0 78.88 78.88">
  <defs>
    <style>
      .cls-1 {
        fill: none;
      }

      .cls-2 {
        fill: #354148;
      }

      .cls-3 {
        fill: #7d99ae;
      }

      .cls-4 {
        fill: #84a2b8;
      }

      .cls-5 {
        fill: #debaad;
      }

      .cls-6 {
        fill: #4e606b;
      }

      .cls-7 {
        fill: #bf6c6c;
      }

      .cls-8 {
        fill: #7791a4;
      }

      .cls-9 {
        fill: #7b97ab;
      }

      .cls-10 {
        fill: #677e8d;
      }

      .cls-11 {
        fill: #86a3ba;
      }

      .cls-12 {
        fill: #364349;
      }

      .cls-13 {
        fill: #313d43;
      }

      .cls-14 {
        fill: #809cb2;
      }

      .cls-15 {
        fill: #6d8596;
      }

      .cls-16 {
        fill: #44545c;
      }

      .cls-17 {
        fill: #46565f;
      }

      .cls-18 {
        fill: #7893a6;
      }

      .cls-19 {
        fill: #71434b;
      }

      .cls-20 {
        fill: #87a5bc;
      }

      .cls-21 {
        fill: #748d9f;
      }

      .cls-22 {
        fill: #627886;
      }

      .cls-23 {
        fill: #576b77;
      }

      .cls-24 {
        fill: #24241d;
        opacity: .8;
      }

      .cls-25 {
        fill: #829fb5;
      }

      .cls-26 {
        fill: #b89388;
      }

      .cls-27 {
        fill: #485862;
      }

      .cls-28 {
        fill: #6f8899;
      }

      .cls-29 {
        fill: #5b6f7c;
      }

      .cls-30 {
        fill: #7892a6;
      }

      .cls-31 {
        fill: #829fb4;
      }

      .cls-32 {
        fill: #7690a2;
      }

      .cls-33 {
        fill: #596c79;
      }

      .cls-34 {
        fill: #748ea0;
      }

      .cls-35 {
        fill: #728b9c;
      }

      .cls-36 {
        fill: #88a6be;
      }

      .cls-37 {
        fill: #a88a6b;
      }

      .cls-38 {
        fill: #48443b;
      }

      .cls-39 {
        fill: #738d9f;
      }

      .cls-40 {
        fill: #495963;
      }

      .cls-41 {
        fill: #87a4bb;
      }

      .cls-42 {
        fill: #617785;
      }

      .cls-43 {
        fill: #819db3;
      }

      .cls-44 {
        fill: #95bacb;
      }

      .cls-45 {
        fill: #657b8a;
      }

      .cls-46 {
        fill: #85a2b8;
      }

      .cls-47 {
        fill: #7f9bb0;
      }

      .cls-48 {
        fill: #f3f3f2;
      }

      .cls-49 {
        fill: #667c8b;
      }

      .cls-50 {
        fill: #38454c;
      }

      .cls-51 {
        fill: #3e4d54;
      }

      .cls-52 {
        fill: #687f8f;
      }

      .cls-53 {
        fill: #7e9aae;
      }

      .cls-54 {
        fill: #88a7be;
      }

      .cls-55 {
        fill: #5b707d;
      }

      .cls-56 {
        fill: #7a96a9;
      }

      .cls-57 {
        fill: #829eb4;
      }

      .cls-58 {
        fill: #7a95a9;
      }

      .cls-59 {
        fill: #6c8495;
      }

      .cls-60 {
        fill: #7c98ac;
      }

      .cls-61 {
        fill: #85a2b9;
      }

      .cls-62 {
        fill: #677d8d;
      }

      .cls-63 {
        fill: #39464e;
      }

      .cls-64 {
        fill: #3d4b53;
      }

      .cls-65 {
        fill: #344046;
      }

      .cls-66 {
        fill: #586c78;
      }

      .cls-67 {
        fill: #596d7a;
      }

      .cls-68 {
        fill: #87a6bd;
      }

      .cls-69 {
        fill: #637988;
      }

      .cls-70 {
        fill: #37444b;
      }

      .cls-71 {
        fill: #7c97ab;
      }

      .cls-72 {
        fill: #6d8595;
      }

      .cls-73 {
        fill: #526570;
      }

      .cls-74 {
        fill: #70899b;
      }

      .cls-75 {
        fill: #738c9e;
      }

      .cls-76 {
        fill: #4e5f6a;
      }

      .cls-77 {
        clip-path: url(#clippath-1);
      }

      .cls-78 {
        fill: #546672;
      }

      .cls-79 {
        fill: #84a1b7;
      }

      .cls-80 {
        fill: #718a9c;
      }

      .cls-81 {
        fill: #5f7481;
      }

      .cls-82 {
        fill: #f1d4c8;
      }

      .cls-83 {
        fill: #6e8697;
      }

      .cls-84 {
        fill: #34606c;
      }

      .cls-85 {
        fill: #303c42;
      }

      .cls-86 {
        fill: #85a3b9;
      }

      .cls-87 {
        fill: #7e9baf;
      }

      .cls-88 {
        fill: #6a8292;
      }

      .cls-89 {
        fill: #758fa1;
      }

      .cls-90 {
        fill: #6b8292;
      }

      .cls-91 {
        fill: #83a1b7;
      }

      .cls-92 {
        fill: #7994a7;
      }

      .cls-93 {
        fill: #6b8393;
      }

      .cls-94 {
        fill: #647a89;
      }

      .cls-95 {
        fill: #6e8798;
      }

      .cls-96 {
        fill: #fff;
      }

      .cls-97 {
        fill: #7f9cb1;
      }

      .cls-98 {
        fill: #87a5bb;
      }

      .cls-99 {
        fill: #536671;
      }

      .cls-100 {
        fill: #5e7380;
      }

      .cls-101 {
        fill: #4d5e69;
      }

      .cls-102 {
        fill: #566975;
      }

      .cls-103 {
        fill: #6a8191;
      }

      .cls-104 {
        fill: #809db2;
      }

      .cls-105 {
        fill: #4c5d68;
      }

      .cls-106 {
        fill: #809cb1;
      }

      .cls-107 {
        fill: #7a8ca9;
      }

      .cls-108 {
        fill: #4b5c67;
      }

      .cls-109 {
        fill: #475760;
      }

      .cls-110 {
        fill: #7691a3;
      }

      .cls-111 {
        fill: #3a484f;
      }

      .cls-112 {
        fill: #3b3b36;
      }

      .cls-113 {
        fill: #51636e;
      }

      .cls-114 {
        fill: #7d99ad;
      }

      .cls-115 {
        fill: #4f616c;
      }

      .cls-116 {
        fill: #819eb4;
      }

      .cls-117 {
        fill: #4a5b65;
      }

      .cls-118 {
        fill: #698090;
      }

      .cls-119 {
        opacity: .3;
      }

      .cls-120 {
        fill: #7690a3;
      }

      .cls-121 {
        fill: #5d727f;
      }

      .cls-122 {
        fill: #415059;
      }

      .cls-123 {
        fill: #2d383d;
      }

      .cls-124 {
        fill: #50626d;
      }

      .cls-125 {
        fill: #7893a7;
      }

      .cls-126 {
        fill: #43525b;
      }

      .cls-127 {
        fill: #748ea1;
      }

      .cls-128 {
        fill: #7994a8;
      }

      .cls-129 {
        fill: #546773;
      }

      .cls-130 {
        fill: #83a0b6;
      }

      .cls-131 {
        fill: #26200c;
      }

      .cls-132 {
        fill: #607583;
      }

      .cls-133 {
        fill: #556874;
      }

      .cls-134 {
        fill: #687f8e;
      }

      .cls-135 {
        fill: #667d8c;
      }

      .cls-136 {
        fill: #728b9d;
      }

      .cls-137 {
        fill: #323f45;
      }

      .cls-138 {
        fill: #86a4bb;
      }

      .cls-139 {
        fill: #af2f53;
      }

      .cls-140 {
        fill: #7792a5;
      }

      .cls-141 {
        fill: #84a1b8;
      }

      .cls-142 {
        fill: #5c707e;
      }

      .cls-143 {
        fill: #698190;
      }

      .cls-144 {
        fill: #637987;
      }

      .cls-145 {
        fill: #3c4a52;
      }

      .cls-146 {
        fill: #42515a;
      }

      .cls-147 {
        fill: #c6a095;
      }

      .cls-148 {
        fill: #3b4950;
      }

      .cls-149 {
        fill: #6c8494;
      }

      .cls-150 {
        fill: #88a6bd;
      }

      .cls-151 {
        fill: #404f57;
      }

      .cls-152 {
        fill: #47433b;
      }

      .cls-153 {
        fill: #51646f;
      }

      .cls-154 {
        fill: #7c97ac;
      }

      .cls-155 {
        fill: #5a6e7b;
      }

      .cls-156 {
        fill: #647b8a;
      }

      .cls-157 {
        fill: #45555e;
      }

      .cls-158 {
        fill: #7e9aaf;
      }

      .cls-159 {
        fill: #3f4e56;
      }

      .cls-160 {
        fill: #2f3b40;
      }

      .cls-161 {
        fill: #4a5a64;
      }

      .cls-162 {
        fill: #607684;
      }

      .cls-163 {
        fill: #49443b;
      }

      .cls-164 {
        fill: #718a9b;
      }

      .cls-165 {
        fill: #5d717f;
      }

      .cls-166 {
        clip-path: url(#clippath);
      }

      .cls-167 {
        fill: #82a0b5;
      }

      .cls-168 {
        fill: #2e393f;
      }

      .cls-169 {
        fill: #70899a;
      }

      .cls-170 {
        fill: #7b96aa;
      }

      .cls-171 {
        fill: #758fa2;
      }

      .cls-172 {
        fill: #86a4ba;
      }

      .cls-173 {
        fill: #5f7482;
      }

      .cls-174 {
        fill: #7c98ad;
      }

      .cls-175 {
        fill: #819eb3;
      }

      .cls-176 {
        fill: #85a3ba;
      }

      .cls-177 {
        fill: #4886a4;
      }

      .cls-178 {
        fill: #728c9e;
      }

      .cls-179 {
        fill: #576a76;
      }

      .cls-180 {
        fill: #627786;
      }

      .cls-181 {
        fill: #ab5b64;
      }
    </style>
    <clipPath id="clippath">
      <path class="cls-1" d="M33.61,36.08c-.1,1.18-1.15,2.06-2.36,1.96-1.2-.1-2.1-1.14-2-2.32.1-1.19,1.15-2.07,2.36-1.97,1.2.1,2.1,1.14,2,2.33Z"/>
    </clipPath>
    <clipPath id="clippath-1">
      <path class="cls-1" d="M49.01,35.96c-.1,1.18-1.15,2.06-2.36,1.96-1.2-.1-2.1-1.14-2-2.32.1-1.19,1.15-2.07,2.36-1.97,1.2.1,2.1,1.14,2,2.33Z"/>
    </clipPath>
  </defs>
  <g id="Layer_1-2" data-name="Layer 1">
    <g>
      <rect class="cls-19" width="78.88" height="78.88"/>
      <path class="cls-82" d="M60.95,77.89s-.1-6.02-.34-6.54c-.46-2.1.36-3.06-2.88-5.08-.03-.01-.74-.24-1.8-.59t-.03-.01c-.69-.22-1.52-.5-2.4-.8-.34-.11-.67-.24-1.02-.35-.86-.3-1.72-.62-2.51-.92-.55-.21-1.07-.41-1.51-.59-.38-.16-.71-.32-.97-.45-.28-.14-.48-.27-.59-.38-.01-.01-.04-.05-.08-.09-.02-.04-.05-.06-.07-.1-.06-.35-1-1.89-1.32-3.56h0c-.07-.35-.11-.67-.12-1.01-.03-.49-.03-.97-.04-1.41-.01-.45-.02-.86-.04-1.2v-.29c-.01-.24-.01-.44-.01-.59-.01-.15-.01-.24-.01-.24,0,0,.35-.3.86-.75.64-.57,1.55-1.4,2.33-2.18.85-.85,1.59-1.66,1.75-2.08.01-.06.02-.11.02-.15,0,0-.02,0-.06.01-.4.06-2.55.44-4.86.8-1.37.21-2.81.43-3.98.57-.46.06-.89.1-1.25.14h-.01c-.34.04-.62.05-.84.05-.24,0-.56-.02-.95-.05h-.03c-.37-.05-.82-.1-1.31-.16-1.07-.14-2.36-.32-3.61-.51-1.15-.19-2.27-.36-3.16-.51-.21-.04-.4-.06-.57-.1-.85-.14-1.39-.24-1.39-.24,0,.16.15.41.4.74,0,0,0,.01.01.01.19.25.44.54.74.86.29.3.6.61.92.92.99.96,2.06,1.91,2.58,2.36.2.17.31.27.31.27,0,0,0,.09-.01.24,0,.15,0,.35-.01.59v.29c0,.1,0,.2-.01.3-.01.65-.04,1.46-.06,2.31-.01.34-.05.66-.12,1-.33,1.67-1.26,3.22-1.32,3.57-.03.04-.05.06-.07.1-.04.04-.06.08-.08.09-.05.05-.14.11-.24.18-.23.15-.57.32-.99.52-.37.16-.8.34-1.27.52-1.11.43-2.43.91-3.7,1.34-.09.03-.17.06-.26.09-.94.32-1.84.62-2.56.86h-.01c-1.05.35-1.76.57-1.78.59-3.22,2.01-2.43,2.97-2.88,5.04h0v.04s-.03.07-.04.15h0c-.21,1.1-.3,6.39-.3,6.39,0,.32,0,.65,0,.99h43.58c0-.34,0-.67-.01-.99Z"/>
      <path class="cls-147" d="M45.44,58.41c-.07-.34-.11-.66-.12-1-.04-1.12-.06-2.2-.07-2.9-1.87.84-3.8,1.32-5.68,1.32-.11.02-.25.02-.38.02s-.27,0-.38-.02c-1.89,0-3.81-.49-5.68-1.32-.01.7-.04,1.77-.07,2.9-.01.34-.05.66-.12,1,1.81,1.51,4.26,3.07,5.88,3.07.1.02.23.02.34.02h0s.03,0,.04,0,.03,0,.04,0h0c.12,0,.24,0,.34-.03,1.62,0,4.07-1.56,5.88-3.07Z"/>
      <g>
        <path class="cls-82" d="M55.25,36c.31-1.73.56-3.05.63-3.31.04-.12.06-.25.1-.37.03-.15.06-.29.09-.42.06-.21.1-.43.15-.64.01-.1.04-.2.05-.3.04-.24.09-.48.12-.71.01-.1.03-.21.04-.31.04-.21.05-.42.08-.64.01-.16.02-.33.05-.47.01-.14.01-.28.02-.41.16-3.26-.54-6.58-2.67-9.59-2.58-3.62-5.56-7.45-12.01-7.99h-5.44c-6.46.54-9.43,4.37-12.01,7.99-2.13,3.01-2.83,6.33-2.67,9.59.01.14.01.27.02.41.02.15.04.31.05.47.02.21.04.42.07.64.01.1.03.21.04.31.04.24.09.47.13.71.01.1.04.2.05.3.05.21.09.43.15.64.03.14.06.27.09.42.04.12.06.25.1.37.08.26.32,1.57.63,3.29-1.72-.84-4.11.36-3.83,3.53.29,3.22,4.21,5.13,5.55,5.45.13.58.24,1.02.33,1.22,1.17,2.96,2.6,3.85,5.09,6.26,2.72,2.61,6.74,5.06,8.73,5.04.06.01.14.01.21.01s.15,0,.21-.01c1.98.01,6-2.44,8.73-5.04,2.5-2.41,3.92-3.3,5.09-6.26.08-.21.19-.63.32-1.21,1.29-.29,5.29-2.21,5.59-5.46.29-3.2-2.15-4.4-3.88-3.51Z"/>
        <path class="cls-5" d="M57.87,37.77c-.97-1.58-2.49-.91-2.87-.57-.4.37-.72.87-.48,1.8.13.52.68.57.54,1.37-.16.89-.57.95-.8,1.15-.23.2-.53.35-.68.73-.14.37-.17.77-.1,1.12.15.65,1.09.14,1.72-.14.42-.18,1.74-1.29,2.08-1.65.84-.94,1.25-2.74.6-3.8"/>
      </g>
      <path class="cls-5" d="M36.42,51.32c-.06-.82,2.31.17,3.09.2.62.02,2.49-.12,2.67-.19,1.31-.49-.07,1.38-2.7,1.48-1.21.05-3.02-.99-3.06-1.49Z"/>
      <g>
        <path class="cls-181" d="M44.25,50.25c-1.51-.28-4.68-.89-4.68-.89-2.62.43-4.67.88-4.68.9-.06,0,2.09,1.93,4.65,1.8h0c2.56.13,4.78-1.8,4.72-1.81Z"/>
        <path class="cls-7" d="M41.06,48.83c-.68-.07-1.15.32-1.49.29-.35.03-.82-.36-1.5-.29-.97.21-1.43.82-3.19,1.43.06.12,1.19-.15,3.3-.11.03,0,.6.32,1.4.31.5,0,1.19-.34,1.22-.34,2.11-.03,3.4.26,3.46.14-2.32-.71-2.23-1.23-3.2-1.44Z"/>
      </g>
      <path class="cls-37" d="M40.82,44.87c.34-.23.74-.12.74-.12,0,0,0,0-.01.02-.08.14-.54.87-.91.86,0,0-.08-.07-.1-.24-.03-.17.11-.4.28-.52Z"/>
      <path class="cls-5" d="M36.19,44.64c-.07-1.65,2.56-.6,3.43-.55.69.04,2.77-.52,2.95-.38,1.22.98-1.3,2.95-2.99,2.95-.45,0-3.34-1.03-3.38-2.03Z"/>
      <path class="cls-26" d="M38.18,44.84c-.34-.23-.74-.12-.74-.12,0,0,0,0,.01.02.08.14.54.87.91.86,0,0,.08-.07.1-.24.03-.17-.11-.4-.28-.52Z"/>
      <path class="cls-38" d="M35.79,33.11s-.4-.4-1.14-.89c-.35-.26-.81-.48-1.3-.71-.49-.23-1.04-.4-1.61-.5-.57-.13-1.15-.16-1.71-.15-.28.02-.55.04-.8.06-.26.01-.49.08-.72.11-.45.07-.82.18-1.09.24-.27.06-.42.1-.42.1,0,0,.13-.08.37-.23.24-.13.57-.37,1.02-.53.44-.19.98-.36,1.58-.48.6-.08,1.26-.12,1.92-.05.66.09,1.3.27,1.87.51.57.24,1.06.56,1.45.86.78.59,1.16,1.18,1.16,1.18h0c.12.18.07.42-.11.54-.15.1-.35.07-.48-.05Z"/>
      <path class="cls-96" d="M26.56,35.1s1.46,3.64,3.73,3.99c2.27.35,4.69-.16,4.69-.16,0,0,.06-4.22-1.12-4.81-1.18-.59-3.87-1.46-7.3.98Z"/>
      <g class="cls-166">
        <polygon class="cls-123" points="33.71 34.45 29.15 34.08 29.15 33.66 33.71 33.66 33.71 34.45"/>
        <polygon class="cls-123" points="33.71 34.47 29.15 34.1 29.15 34.08 33.71 34.45 33.71 34.47"/>
        <polygon class="cls-168" points="33.71 34.5 29.15 34.12 29.15 34.1 33.71 34.47 33.71 34.5"/>
        <polygon class="cls-160" points="33.71 34.52 29.15 34.14 29.15 34.12 33.71 34.5 33.71 34.52"/>
        <polygon class="cls-85" points="33.71 34.54 29.15 34.16 29.15 34.14 33.71 34.52 33.71 34.54"/>
        <polygon class="cls-13" points="33.71 34.56 29.15 34.18 29.15 34.16 33.71 34.54 33.71 34.56"/>
        <polygon class="cls-137" points="33.71 34.58 29.15 34.2 29.15 34.18 33.71 34.56 33.71 34.58"/>
        <polygon class="cls-65" points="33.71 34.6 29.15 34.22 29.15 34.2 33.71 34.58 33.71 34.6"/>
        <polygon class="cls-2" points="33.71 34.62 29.15 34.25 29.15 34.22 33.71 34.6 33.71 34.62"/>
        <polygon class="cls-12" points="33.71 34.64 29.15 34.27 29.15 34.25 33.71 34.62 33.71 34.64"/>
        <polygon class="cls-70" points="33.71 34.66 29.15 34.29 29.15 34.27 33.71 34.64 33.71 34.66"/>
        <polygon class="cls-50" points="33.71 34.68 29.15 34.31 29.15 34.29 33.71 34.66 33.71 34.68"/>
        <polygon class="cls-63" points="33.71 34.71 29.15 34.33 29.15 34.31 33.71 34.68 33.71 34.71"/>
        <polygon class="cls-111" points="33.71 34.73 29.15 34.35 29.15 34.33 33.71 34.71 33.71 34.73"/>
        <polygon class="cls-148" points="33.71 34.75 29.15 34.37 29.15 34.35 33.71 34.73 33.71 34.75"/>
        <polygon class="cls-145" points="33.71 34.77 29.15 34.39 29.15 34.37 33.71 34.75 33.71 34.77"/>
        <polygon class="cls-64" points="33.71 34.79 29.15 34.41 29.15 34.39 33.71 34.77 33.71 34.79"/>
        <polygon class="cls-51" points="33.71 34.81 29.15 34.43 29.15 34.41 33.71 34.79 33.71 34.81"/>
        <polygon class="cls-159" points="33.71 34.83 29.15 34.46 29.15 34.43 33.71 34.81 33.71 34.83"/>
        <polygon class="cls-151" points="33.71 34.85 29.15 34.48 29.15 34.46 33.71 34.83 33.71 34.85"/>
        <polygon class="cls-122" points="33.71 34.87 29.15 34.5 29.15 34.48 33.71 34.85 33.71 34.87"/>
        <polygon class="cls-146" points="33.71 34.89 29.15 34.52 29.15 34.5 33.71 34.87 33.71 34.89"/>
        <polygon class="cls-126" points="33.71 34.92 29.15 34.54 29.15 34.52 33.71 34.89 33.71 34.92"/>
        <polygon class="cls-16" points="33.71 34.94 29.15 34.56 29.15 34.54 33.71 34.92 33.71 34.94"/>
        <polygon class="cls-157" points="33.71 34.96 29.15 34.58 29.15 34.56 33.71 34.94 33.71 34.96"/>
        <polygon class="cls-17" points="33.71 34.98 29.15 34.6 29.15 34.58 33.71 34.96 33.71 34.98"/>
        <polygon class="cls-109" points="33.71 35 29.15 34.62 29.15 34.6 33.71 34.98 33.71 35"/>
        <polygon class="cls-27" points="33.71 35.02 29.15 34.64 29.15 34.62 33.71 35 33.71 35.02"/>
        <polygon class="cls-40" points="33.71 35.04 29.15 34.67 29.15 34.64 33.71 35.02 33.71 35.04"/>
        <polygon class="cls-161" points="33.71 35.06 29.15 34.69 29.15 34.67 33.71 35.04 33.71 35.06"/>
        <polygon class="cls-117" points="33.71 35.08 29.15 34.71 29.15 34.69 33.71 35.06 33.71 35.08"/>
        <polygon class="cls-108" points="33.71 35.1 29.15 34.73 29.15 34.71 33.71 35.08 33.71 35.1"/>
        <polygon class="cls-105" points="33.71 35.13 29.15 34.75 29.15 34.73 33.71 35.1 33.71 35.13"/>
        <polygon class="cls-101" points="33.71 35.15 29.15 34.77 29.15 34.75 33.71 35.13 33.71 35.15"/>
        <polygon class="cls-76" points="33.71 35.17 29.15 34.79 29.15 34.77 33.71 35.15 33.71 35.17"/>
        <polygon class="cls-6" points="33.71 35.19 29.15 34.81 29.15 34.79 33.71 35.17 33.71 35.19"/>
        <polygon class="cls-115" points="33.71 35.21 29.15 34.83 29.15 34.81 33.71 35.19 33.71 35.21"/>
        <polygon class="cls-124" points="33.71 35.23 29.15 34.85 29.15 34.83 33.71 35.21 33.71 35.23"/>
        <polygon class="cls-113" points="33.71 35.25 29.15 34.88 29.15 34.85 33.71 35.23 33.71 35.25"/>
        <polygon class="cls-153" points="33.71 35.27 29.15 34.9 29.15 34.88 33.71 35.25 33.71 35.27"/>
        <polygon class="cls-73" points="33.71 35.29 29.15 34.92 29.15 34.9 33.71 35.27 33.71 35.29"/>
        <polygon class="cls-99" points="33.71 35.31 29.15 34.94 29.15 34.92 33.71 35.29 33.71 35.31"/>
        <polygon class="cls-78" points="33.71 35.34 29.15 34.96 29.15 34.94 33.71 35.31 33.71 35.34"/>
        <polygon class="cls-129" points="33.71 35.36 29.15 34.98 29.15 34.96 33.71 35.34 33.71 35.36"/>
        <polygon class="cls-133" points="33.71 35.38 29.15 35 29.15 34.98 33.71 35.36 33.71 35.38"/>
        <polygon class="cls-102" points="33.71 35.4 29.15 35.02 29.15 35 33.71 35.38 33.71 35.4"/>
        <polygon class="cls-179" points="33.71 35.42 29.15 35.04 29.15 35.02 33.71 35.4 33.71 35.42"/>
        <polygon class="cls-23" points="33.71 35.44 29.15 35.06 29.15 35.04 33.71 35.42 33.71 35.44"/>
        <polygon class="cls-66" points="33.71 35.46 29.15 35.09 29.15 35.06 33.71 35.44 33.71 35.46"/>
        <polygon class="cls-33" points="33.71 35.48 29.15 35.11 29.15 35.09 33.71 35.46 33.71 35.48"/>
        <polygon class="cls-67" points="33.71 35.5 29.15 35.13 29.15 35.11 33.71 35.48 33.71 35.5"/>
        <polygon class="cls-155" points="33.71 35.52 29.15 35.15 29.15 35.13 33.71 35.5 33.71 35.52"/>
        <polygon class="cls-29" points="33.71 35.55 29.15 35.17 29.15 35.15 33.71 35.52 33.71 35.55"/>
        <polygon class="cls-55" points="33.71 35.57 29.15 35.19 29.15 35.17 33.71 35.55 33.71 35.57"/>
        <polygon class="cls-142" points="33.71 35.59 29.15 35.21 29.15 35.19 33.71 35.57 33.71 35.59"/>
        <polygon class="cls-165" points="33.71 35.61 29.15 35.23 29.15 35.21 33.71 35.59 33.71 35.61"/>
        <polygon class="cls-121" points="33.71 35.63 29.15 35.25 29.15 35.23 33.71 35.61 33.71 35.63"/>
        <polygon class="cls-100" points="33.71 35.65 29.15 35.27 29.15 35.25 33.71 35.63 33.71 35.65"/>
        <polygon class="cls-81" points="33.71 35.67 29.15 35.3 29.15 35.27 33.71 35.65 33.71 35.67"/>
        <polygon class="cls-173" points="33.71 35.69 29.15 35.32 29.15 35.3 33.71 35.67 33.71 35.69"/>
        <polygon class="cls-132" points="33.71 35.71 29.15 35.34 29.15 35.32 33.71 35.69 33.71 35.71"/>
        <polygon class="cls-162" points="33.71 35.73 29.15 35.36 29.15 35.34 33.71 35.71 33.71 35.73"/>
        <polygon class="cls-42" points="33.71 35.76 29.15 35.38 29.15 35.36 33.71 35.73 33.71 35.76"/>
        <polygon class="cls-180" points="33.71 35.78 29.15 35.4 29.15 35.38 33.71 35.76 33.71 35.78"/>
        <polygon class="cls-22" points="33.71 35.8 29.15 35.42 29.15 35.4 33.71 35.78 33.71 35.8"/>
        <polygon class="cls-144" points="33.71 35.82 29.15 35.44 29.15 35.42 33.71 35.8 33.71 35.82"/>
        <polygon class="cls-69" points="33.71 35.84 29.15 35.46 29.15 35.44 33.71 35.82 33.71 35.84"/>
        <polygon class="cls-94" points="33.71 35.86 29.15 35.48 29.15 35.46 33.71 35.84 33.71 35.86"/>
        <polygon class="cls-156" points="33.71 35.88 29.15 35.51 29.15 35.48 33.71 35.86 33.71 35.88"/>
        <polygon class="cls-45" points="33.71 35.9 29.15 35.53 29.15 35.51 33.71 35.88 33.71 35.9"/>
        <polygon class="cls-49" points="33.71 35.92 29.15 35.55 29.15 35.53 33.71 35.9 33.71 35.92"/>
        <polygon class="cls-135" points="33.71 35.94 29.15 35.57 29.15 35.55 33.71 35.92 33.71 35.94"/>
        <polygon class="cls-62" points="33.71 35.97 29.15 35.59 29.15 35.57 33.71 35.94 33.71 35.97"/>
        <polygon class="cls-10" points="33.71 35.99 29.15 35.61 29.15 35.59 33.71 35.97 33.71 35.99"/>
        <polygon class="cls-134" points="33.71 36.01 29.15 35.63 29.15 35.61 33.71 35.99 33.71 36.01"/>
        <polygon class="cls-52" points="33.71 36.03 29.15 35.65 29.15 35.63 33.71 36.01 33.71 36.03"/>
        <polygon class="cls-118" points="33.71 36.05 29.15 35.67 29.15 35.65 33.71 36.03 33.71 36.05"/>
        <polygon class="cls-143" points="33.71 36.07 29.15 35.69 29.15 35.67 33.71 36.05 33.71 36.07"/>
        <polygon class="cls-103" points="33.71 36.09 29.15 35.72 29.15 35.69 33.71 36.07 33.71 36.09"/>
        <polygon class="cls-88" points="33.71 36.11 29.15 35.74 29.15 35.72 33.71 36.09 33.71 36.11"/>
        <polygon class="cls-90" points="33.71 36.13 29.15 35.76 29.15 35.74 33.71 36.11 33.71 36.13"/>
        <polygon class="cls-93" points="33.71 36.15 29.15 35.78 29.15 35.76 33.71 36.13 33.71 36.15"/>
        <polygon class="cls-149" points="33.71 36.18 29.15 35.8 29.15 35.78 33.71 36.15 33.71 36.18"/>
        <polygon class="cls-59" points="33.71 36.2 29.15 35.82 29.15 35.8 33.71 36.18 33.71 36.2"/>
        <polygon class="cls-72" points="33.71 36.22 29.15 35.84 29.15 35.82 33.71 36.2 33.71 36.22"/>
        <polygon class="cls-15" points="33.71 36.24 29.15 35.86 29.15 35.84 33.71 36.22 33.71 36.24"/>
        <polygon class="cls-83" points="33.71 36.26 29.15 35.88 29.15 35.86 33.71 36.24 33.71 36.26"/>
        <polygon class="cls-83" points="33.71 36.28 29.15 35.9 29.15 35.88 33.71 36.26 33.71 36.28"/>
        <polygon class="cls-95" points="33.71 36.3 29.15 35.93 29.15 35.9 33.71 36.28 33.71 36.3"/>
        <polygon class="cls-28" points="33.71 36.32 29.15 35.95 29.15 35.93 33.71 36.3 33.71 36.32"/>
        <polygon class="cls-28" points="33.71 36.34 29.15 35.97 29.15 35.95 33.71 36.32 33.71 36.34"/>
        <polygon class="cls-169" points="33.71 36.36 29.15 35.99 29.15 35.97 33.71 36.34 33.71 36.36"/>
        <polygon class="cls-74" points="33.71 36.39 29.15 36.01 29.15 35.99 33.71 36.36 33.71 36.39"/>
        <polygon class="cls-164" points="33.71 36.41 29.15 36.03 29.15 36.01 33.71 36.39 33.71 36.41"/>
        <polygon class="cls-80" points="33.71 36.43 29.15 36.05 29.15 36.03 33.71 36.41 33.71 36.43"/>
        <polygon class="cls-35" points="33.71 36.45 29.15 36.07 29.15 36.05 33.71 36.43 33.71 36.45"/>
        <polygon class="cls-136" points="33.71 36.47 29.15 36.09 29.15 36.07 33.71 36.45 33.71 36.47"/>
        <polygon class="cls-178" points="33.71 36.49 29.15 36.11 29.15 36.09 33.71 36.47 33.71 36.49"/>
        <polygon class="cls-75" points="33.71 36.51 29.15 36.14 29.15 36.11 33.71 36.49 33.71 36.51"/>
        <polygon class="cls-39" points="33.71 36.53 29.15 36.16 29.15 36.14 33.71 36.51 33.71 36.53"/>
        <polygon class="cls-21" points="33.71 36.55 29.15 36.18 29.15 36.16 33.71 36.53 33.71 36.55"/>
        <polygon class="cls-34" points="33.71 36.57 29.15 36.2 29.15 36.18 33.71 36.55 33.71 36.57"/>
        <polygon class="cls-127" points="33.71 36.6 29.15 36.22 29.15 36.2 33.71 36.57 33.71 36.6"/>
        <polygon class="cls-89" points="33.71 36.62 29.15 36.24 29.15 36.22 33.71 36.6 33.71 36.62"/>
        <polygon class="cls-171" points="33.71 36.64 29.15 36.26 29.15 36.24 33.71 36.62 33.71 36.64"/>
        <polygon class="cls-32" points="33.71 36.66 29.15 36.28 29.15 36.26 33.71 36.64 33.71 36.66"/>
        <polygon class="cls-120" points="33.71 36.68 29.15 36.3 29.15 36.28 33.71 36.66 33.71 36.68"/>
        <polygon class="cls-110" points="33.71 36.7 29.15 36.32 29.15 36.3 33.71 36.68 33.71 36.7"/>
        <polygon class="cls-8" points="33.71 36.72 29.15 36.35 29.15 36.32 33.71 36.7 33.71 36.72"/>
        <polygon class="cls-140" points="33.71 36.74 29.15 36.37 29.15 36.35 33.71 36.72 33.71 36.74"/>
        <polygon class="cls-140" points="33.71 36.76 29.15 36.39 29.15 36.37 33.71 36.74 33.71 36.76"/>
        <polygon class="cls-30" points="33.71 36.78 29.15 36.41 29.15 36.39 33.71 36.76 33.71 36.78"/>
        <polygon class="cls-18" points="33.71 36.81 29.15 36.43 29.15 36.41 33.71 36.78 33.71 36.81"/>
        <polygon class="cls-125" points="33.71 36.83 29.15 36.45 29.15 36.43 33.71 36.81 33.71 36.83"/>
        <polygon class="cls-92" points="33.71 36.85 29.15 36.47 29.15 36.45 33.71 36.83 33.71 36.85"/>
        <polygon class="cls-128" points="33.71 36.87 29.15 36.49 29.15 36.47 33.71 36.85 33.71 36.87"/>
        <polygon class="cls-128" points="33.71 36.89 29.15 36.51 29.15 36.49 33.71 36.87 33.71 36.89"/>
        <polygon class="cls-58" points="33.71 36.91 29.15 36.53 29.15 36.51 33.71 36.89 33.71 36.91"/>
        <polygon class="cls-58" points="33.71 36.93 29.15 36.56 29.15 36.53 33.71 36.91 33.71 36.93"/>
        <polygon class="cls-56" points="33.71 36.95 29.15 36.58 29.15 36.56 33.71 36.93 33.71 36.95"/>
        <polygon class="cls-170" points="33.71 36.97 29.15 36.6 29.15 36.58 33.71 36.95 33.71 36.97"/>
        <polygon class="cls-170" points="33.71 36.99 29.15 36.62 29.15 36.6 33.71 36.97 33.71 36.99"/>
        <polygon class="cls-9" points="33.71 37.02 29.15 36.64 29.15 36.62 33.71 36.99 33.71 37.02"/>
        <polygon class="cls-71" points="33.71 37.04 29.15 36.66 29.15 36.64 33.71 37.02 33.71 37.04"/>
        <polygon class="cls-154" points="33.71 37.06 29.15 36.68 29.15 36.66 33.71 37.04 33.71 37.06"/>
        <polygon class="cls-60" points="33.71 37.08 29.15 36.7 29.15 36.68 33.71 37.06 33.71 37.08"/>
        <polygon class="cls-174" points="33.71 37.1 29.15 36.72 29.15 36.7 33.71 37.08 33.71 37.1"/>
        <polygon class="cls-114" points="33.71 37.12 29.15 36.74 29.15 36.72 33.71 37.1 33.71 37.12"/>
        <polygon class="cls-114" points="33.71 37.14 29.15 36.77 29.15 36.74 33.71 37.12 33.71 37.14"/>
        <polygon class="cls-3" points="33.71 37.16 29.15 36.79 29.15 36.77 33.71 37.14 33.71 37.16"/>
        <polygon class="cls-53" points="33.71 37.18 29.15 36.81 29.15 36.79 33.71 37.16 33.71 37.18"/>
        <polygon class="cls-158" points="33.71 37.2 29.15 36.83 29.15 36.81 33.71 37.18 33.71 37.2"/>
        <polygon class="cls-158" points="33.71 37.23 29.15 36.85 29.15 36.83 33.71 37.2 33.71 37.23"/>
        <polygon class="cls-87" points="33.71 37.25 29.15 36.87 29.15 36.85 33.71 37.23 33.71 37.25"/>
        <polygon class="cls-47" points="33.71 37.27 29.15 36.89 29.15 36.87 33.71 37.25 33.71 37.27"/>
        <polygon class="cls-47" points="33.71 37.29 29.15 36.91 29.15 36.89 33.71 37.27 33.71 37.29"/>
        <polygon class="cls-97" points="33.71 37.31 29.15 36.93 29.15 36.91 33.71 37.29 33.71 37.31"/>
        <polygon class="cls-97" points="33.71 37.33 29.15 36.95 29.15 36.93 33.71 37.31 33.71 37.33"/>
        <polygon class="cls-106" points="33.71 37.35 29.15 36.98 29.15 36.95 33.71 37.33 33.71 37.35"/>
        <polygon class="cls-14" points="33.71 37.37 29.15 37 29.15 36.98 33.71 37.35 33.71 37.37"/>
        <polygon class="cls-104" points="33.71 37.39 29.15 37.02 29.15 37 33.71 37.37 33.71 37.39"/>
        <polygon class="cls-104" points="33.71 37.41 29.15 37.04 29.15 37.02 33.71 37.39 33.71 37.41"/>
        <polygon class="cls-43" points="33.71 37.44 29.15 37.06 29.15 37.04 33.71 37.41 33.71 37.44"/>
        <polygon class="cls-175" points="33.71 37.46 29.15 37.08 29.15 37.06 33.71 37.44 33.71 37.46"/>
        <polygon class="cls-175" points="33.71 37.48 29.15 37.1 29.15 37.08 33.71 37.46 33.71 37.48"/>
        <polygon class="cls-116" points="33.71 37.5 29.15 37.12 29.15 37.1 33.71 37.48 33.71 37.5"/>
        <polygon class="cls-57" points="33.71 37.52 29.15 37.14 29.15 37.12 33.71 37.5 33.71 37.52"/>
        <polygon class="cls-31" points="33.71 37.54 29.15 37.16 29.15 37.14 33.71 37.52 33.71 37.54"/>
        <polygon class="cls-25" points="33.71 37.56 29.15 37.19 29.15 37.16 33.71 37.54 33.71 37.56"/>
        <polygon class="cls-25" points="33.71 37.58 29.15 37.21 29.15 37.19 33.71 37.56 33.71 37.58"/>
        <polygon class="cls-167" points="33.71 37.6 29.15 37.23 29.15 37.21 33.71 37.58 33.71 37.6"/>
        <polygon class="cls-130" points="33.71 37.62 29.15 37.25 29.15 37.23 33.71 37.6 33.71 37.62"/>
        <polygon class="cls-130" points="33.71 37.65 29.15 37.27 29.15 37.25 33.71 37.62 33.71 37.65"/>
        <polygon class="cls-130" points="33.71 37.67 29.15 37.29 29.15 37.27 33.71 37.65 33.71 37.67"/>
        <polygon class="cls-91" points="33.71 37.69 29.15 37.31 29.15 37.29 33.71 37.67 33.71 37.69"/>
        <polygon class="cls-91" points="33.71 37.71 29.15 37.33 29.15 37.31 33.71 37.69 33.71 37.71"/>
        <polygon class="cls-79" points="33.71 37.73 29.15 37.35 29.15 37.33 33.71 37.71 33.71 37.73"/>
        <polygon class="cls-79" points="33.71 37.75 29.15 37.37 29.15 37.35 33.71 37.73 33.71 37.75"/>
        <polygon class="cls-141" points="33.71 37.77 29.15 37.4 29.15 37.37 33.71 37.75 33.71 37.77"/>
        <polygon class="cls-4" points="33.71 37.79 29.15 37.42 29.15 37.4 33.71 37.77 33.71 37.79"/>
        <polygon class="cls-4" points="33.71 37.81 29.15 37.44 29.15 37.42 33.71 37.79 33.71 37.81"/>
        <polygon class="cls-46" points="33.71 37.84 29.15 37.46 29.15 37.44 33.71 37.81 33.71 37.84"/>
        <polygon class="cls-61" points="33.71 37.86 29.15 37.48 29.15 37.46 33.71 37.84 33.71 37.86"/>
        <polygon class="cls-86" points="33.71 37.88 29.15 37.5 29.15 37.48 33.71 37.86 33.71 37.88"/>
        <polygon class="cls-86" points="33.71 37.9 29.15 37.52 29.15 37.5 33.71 37.88 33.71 37.9"/>
        <polygon class="cls-86" points="33.71 37.92 29.15 37.54 29.15 37.52 33.71 37.9 33.71 37.92"/>
        <polygon class="cls-176" points="33.71 37.94 29.15 37.56 29.15 37.54 33.71 37.92 33.71 37.94"/>
        <polygon class="cls-11" points="33.71 37.96 29.15 37.58 29.15 37.56 33.71 37.94 33.71 37.96"/>
        <polygon class="cls-11" points="33.71 37.98 29.15 37.61 29.15 37.58 33.71 37.96 33.71 37.98"/>
        <polygon class="cls-172" points="33.71 38 29.15 37.63 29.15 37.61 33.71 37.98 33.71 38"/>
        <polygon class="cls-138" points="33.71 38.02 29.15 37.65 29.15 37.63 33.71 38 33.71 38.02"/>
        <polygon class="cls-138" points="33.71 38.05 29.15 37.67 29.15 37.65 33.71 38.02 33.71 38.05"/>
        <polygon class="cls-138" points="33.71 38.07 29.15 37.69 29.15 37.67 33.71 38.05 33.71 38.07"/>
        <polygon class="cls-138" points="33.71 38.09 29.15 37.71 29.15 37.69 33.71 38.07 33.71 38.09"/>
        <polygon class="cls-41" points="33.71 38.11 29.15 37.73 29.15 37.71 33.71 38.09 33.71 38.11"/>
        <polygon class="cls-98" points="33.71 38.13 29.15 37.75 29.15 37.73 33.71 38.11 33.71 38.13"/>
        <polygon class="cls-20" points="33.66 38.15 29.15 37.77 29.15 37.75 33.71 38.13 33.71 38.15 33.66 38.15"/>
        <polygon class="cls-20" points="33.4 38.15 29.15 37.79 29.15 37.77 33.66 38.15 33.4 38.15"/>
        <polygon class="cls-20" points="33.15 38.15 29.15 37.82 29.15 37.79 33.4 38.15 33.15 38.15"/>
        <polygon class="cls-20" points="32.89 38.15 29.15 37.84 29.15 37.82 33.15 38.15 32.89 38.15"/>
        <polygon class="cls-20" points="32.64 38.15 29.15 37.86 29.15 37.84 32.89 38.15 32.64 38.15"/>
        <polygon class="cls-20" points="32.38 38.15 29.15 37.88 29.15 37.86 32.64 38.15 32.38 38.15"/>
        <polygon class="cls-68" points="32.13 38.15 29.15 37.9 29.15 37.88 32.38 38.15 32.13 38.15"/>
        <polygon class="cls-150" points="31.87 38.15 29.15 37.92 29.15 37.9 32.13 38.15 31.87 38.15"/>
        <polygon class="cls-150" points="31.62 38.15 29.15 37.94 29.15 37.92 31.87 38.15 31.62 38.15"/>
        <polygon class="cls-150" points="31.37 38.15 29.15 37.96 29.15 37.94 31.62 38.15 31.37 38.15"/>
        <polygon class="cls-150" points="31.11 38.15 29.15 37.98 29.15 37.96 31.37 38.15 31.11 38.15"/>
        <polygon class="cls-150" points="30.86 38.15 29.15 38 29.15 37.98 31.11 38.15 30.86 38.15"/>
        <polygon class="cls-150" points="30.6 38.15 29.15 38.03 29.15 38 30.86 38.15 30.6 38.15"/>
        <polygon class="cls-150" points="30.35 38.15 29.15 38.05 29.15 38.03 30.6 38.15 30.35 38.15"/>
        <polygon class="cls-36" points="30.09 38.15 29.15 38.07 29.15 38.05 30.35 38.15 30.09 38.15"/>
        <polygon class="cls-36" points="29.84 38.15 29.15 38.09 29.15 38.07 30.09 38.15 29.84 38.15"/>
        <polygon class="cls-54" points="29.59 38.15 29.15 38.11 29.15 38.09 29.84 38.15 29.59 38.15"/>
        <polygon class="cls-54" points="29.33 38.15 29.15 38.13 29.15 38.11 29.59 38.15 29.33 38.15"/>
        <polygon class="cls-54" points="29.15 38.13 29.33 38.15 29.15 38.15 29.15 38.13"/>
      </g>
      <path class="cls-44" d="M31.33,37.37c-.64-.05-1.14-.7-1.08-1.4.06-.71.65-1.26,1.29-1.21.64.05,1.14.7,1.08,1.4-.06.71-.65,1.26-1.29,1.21Z"/>
      <path class="cls-131" d="M31.38,37.12c-.45-.04-.91-.52-.86-1.12.05-.6.59-1.01,1.03-.97.45.04.91.53.86,1.13-.05.6-.59,1.01-1.03.97Z"/>
      <g class="cls-119">
        <path class="cls-152" d="M34.97,38.92s-.05,0-.17.04c-.08-1.3-.33-3.09-1.07-3.45-1.09-.55-3.55-1.36-6.7.57-.32-.57-.48-.99-.48-.99,3.43-2.45,6.13-1.57,7.3-.99,1.18.59,1.12,4.81,1.12,4.81Z"/>
      </g>
      <path class="cls-96" d="M31.02,35.64c-.02.22-.24.38-.5.35-.26-.02-.45-.22-.43-.43.02-.22.24-.38.5-.36.26.02.45.21.44.43Z"/>
      <path class="cls-96" d="M32.47,36.89c0,.11-.12.19-.25.18-.13,0-.23-.11-.22-.22,0-.11.12-.19.25-.18.13,0,.23.11.22.22Z"/>
      <path class="cls-38" d="M41.98,32.62s.38-.58,1.16-1.18c.39-.3.88-.62,1.45-.86.57-.24,1.21-.42,1.87-.51.66-.07,1.32-.03,1.92.05.6.11,1.14.29,1.58.48.45.15.78.4,1.02.53.23.15.37.23.37.23,0,0-.15-.04-.42-.1-.26-.07-.63-.18-1.09-.24-.23-.03-.46-.1-.72-.11-.26-.02-.52-.04-.8-.06-.55,0-1.14.02-1.71.15-.57.1-1.12.28-1.61.5-.49.23-.94.46-1.3.71-.74.49-1.14.89-1.14.89-.15.15-.39.15-.54,0-.13-.13-.15-.33-.05-.48h0Z"/>
      <path class="cls-96" d="M51.69,35.1s-1.46,3.64-3.73,3.99c-2.27.35-4.68-.16-4.68-.16,0,0-.06-4.22,1.12-4.81,1.18-.59,3.87-1.46,7.3.98Z"/>
      <g class="cls-119">
        <path class="cls-152" d="M43.28,38.92s.05,0,.17.04c.08-1.3.34-3.09,1.07-3.45,1.09-.55,3.55-1.36,6.7.57.32-.57.48-.99.48-.99-3.43-2.45-6.13-1.57-7.3-.99-1.18.59-1.12,4.81-1.12,4.81Z"/>
      </g>
      <g class="cls-77">
        <polygon class="cls-123" points="49.11 34.33 44.55 33.96 44.55 33.53 49.11 33.53 49.11 34.33"/>
        <polygon class="cls-123" points="49.11 34.35 44.55 33.98 44.55 33.96 49.11 34.33 49.11 34.35"/>
        <polygon class="cls-168" points="49.11 34.37 44.55 34 44.55 33.98 49.11 34.35 49.11 34.37"/>
        <polygon class="cls-160" points="49.11 34.4 44.55 34.02 44.55 34 49.11 34.37 49.11 34.4"/>
        <polygon class="cls-85" points="49.11 34.42 44.55 34.04 44.55 34.02 49.11 34.4 49.11 34.42"/>
        <polygon class="cls-13" points="49.11 34.44 44.55 34.06 44.55 34.04 49.11 34.42 49.11 34.44"/>
        <polygon class="cls-137" points="49.11 34.46 44.55 34.08 44.55 34.06 49.11 34.44 49.11 34.46"/>
        <polygon class="cls-65" points="49.11 34.48 44.55 34.1 44.55 34.08 49.11 34.46 49.11 34.48"/>
        <polygon class="cls-2" points="49.11 34.5 44.55 34.12 44.55 34.1 49.11 34.48 49.11 34.5"/>
        <polygon class="cls-12" points="49.11 34.52 44.55 34.15 44.55 34.12 49.11 34.5 49.11 34.52"/>
        <polygon class="cls-70" points="49.11 34.54 44.55 34.17 44.55 34.15 49.11 34.52 49.11 34.54"/>
        <polygon class="cls-50" points="49.11 34.56 44.55 34.19 44.55 34.17 49.11 34.54 49.11 34.56"/>
        <polygon class="cls-63" points="49.11 34.58 44.55 34.21 44.55 34.19 49.11 34.56 49.11 34.58"/>
        <polygon class="cls-111" points="49.11 34.61 44.55 34.23 44.55 34.21 49.11 34.58 49.11 34.61"/>
        <polygon class="cls-148" points="49.11 34.63 44.55 34.25 44.55 34.23 49.11 34.61 49.11 34.63"/>
        <polygon class="cls-145" points="49.11 34.65 44.55 34.27 44.55 34.25 49.11 34.63 49.11 34.65"/>
        <polygon class="cls-64" points="49.11 34.67 44.55 34.29 44.55 34.27 49.11 34.65 49.11 34.67"/>
        <polygon class="cls-51" points="49.11 34.69 44.55 34.31 44.55 34.29 49.11 34.67 49.11 34.69"/>
        <polygon class="cls-159" points="49.11 34.71 44.55 34.33 44.55 34.31 49.11 34.69 49.11 34.71"/>
        <polygon class="cls-151" points="49.11 34.73 44.55 34.36 44.55 34.33 49.11 34.71 49.11 34.73"/>
        <polygon class="cls-122" points="49.11 34.75 44.55 34.38 44.55 34.36 49.11 34.73 49.11 34.75"/>
        <polygon class="cls-146" points="49.11 34.77 44.55 34.4 44.55 34.38 49.11 34.75 49.11 34.77"/>
        <polygon class="cls-126" points="49.11 34.79 44.55 34.42 44.55 34.4 49.11 34.77 49.11 34.79"/>
        <polygon class="cls-16" points="49.11 34.82 44.55 34.44 44.55 34.42 49.11 34.79 49.11 34.82"/>
        <polygon class="cls-157" points="49.11 34.84 44.55 34.46 44.55 34.44 49.11 34.82 49.11 34.84"/>
        <polygon class="cls-17" points="49.11 34.86 44.55 34.48 44.55 34.46 49.11 34.84 49.11 34.86"/>
        <polygon class="cls-109" points="49.11 34.88 44.55 34.5 44.55 34.48 49.11 34.86 49.11 34.88"/>
        <polygon class="cls-27" points="49.11 34.9 44.55 34.52 44.55 34.5 49.11 34.88 49.11 34.9"/>
        <polygon class="cls-40" points="49.11 34.92 44.55 34.54 44.55 34.52 49.11 34.9 49.11 34.92"/>
        <polygon class="cls-161" points="49.11 34.94 44.55 34.57 44.55 34.54 49.11 34.92 49.11 34.94"/>
        <polygon class="cls-117" points="49.11 34.96 44.55 34.59 44.55 34.57 49.11 34.94 49.11 34.96"/>
        <polygon class="cls-108" points="49.11 34.98 44.55 34.61 44.55 34.59 49.11 34.96 49.11 34.98"/>
        <polygon class="cls-105" points="49.11 35 44.55 34.63 44.55 34.61 49.11 34.98 49.11 35"/>
        <polygon class="cls-101" points="49.11 35.03 44.55 34.65 44.55 34.63 49.11 35 49.11 35.03"/>
        <polygon class="cls-76" points="49.11 35.05 44.55 34.67 44.55 34.65 49.11 35.03 49.11 35.05"/>
        <polygon class="cls-6" points="49.11 35.07 44.55 34.69 44.55 34.67 49.11 35.05 49.11 35.07"/>
        <polygon class="cls-115" points="49.11 35.09 44.55 34.71 44.55 34.69 49.11 35.07 49.11 35.09"/>
        <polygon class="cls-124" points="49.11 35.11 44.55 34.73 44.55 34.71 49.11 35.09 49.11 35.11"/>
        <polygon class="cls-113" points="49.11 35.13 44.55 34.75 44.55 34.73 49.11 35.11 49.11 35.13"/>
        <polygon class="cls-153" points="49.11 35.15 44.55 34.78 44.55 34.75 49.11 35.13 49.11 35.15"/>
        <polygon class="cls-73" points="49.11 35.17 44.55 34.8 44.55 34.78 49.11 35.15 49.11 35.17"/>
        <polygon class="cls-99" points="49.11 35.19 44.55 34.82 44.55 34.8 49.11 35.17 49.11 35.19"/>
        <polygon class="cls-78" points="49.11 35.21 44.55 34.84 44.55 34.82 49.11 35.19 49.11 35.21"/>
        <polygon class="cls-129" points="49.11 35.24 44.55 34.86 44.55 34.84 49.11 35.21 49.11 35.24"/>
        <polygon class="cls-133" points="49.11 35.26 44.55 34.88 44.55 34.86 49.11 35.24 49.11 35.26"/>
        <polygon class="cls-102" points="49.11 35.28 44.55 34.9 44.55 34.88 49.11 35.26 49.11 35.28"/>
        <polygon class="cls-179" points="49.11 35.3 44.55 34.92 44.55 34.9 49.11 35.28 49.11 35.3"/>
        <polygon class="cls-23" points="49.11 35.32 44.55 34.94 44.55 34.92 49.11 35.3 49.11 35.32"/>
        <polygon class="cls-66" points="49.11 35.34 44.55 34.96 44.55 34.94 49.11 35.32 49.11 35.34"/>
        <polygon class="cls-33" points="49.11 35.36 44.55 34.99 44.55 34.96 49.11 35.34 49.11 35.36"/>
        <polygon class="cls-67" points="49.11 35.38 44.55 35.01 44.55 34.99 49.11 35.36 49.11 35.38"/>
        <polygon class="cls-155" points="49.11 35.4 44.55 35.03 44.55 35.01 49.11 35.38 49.11 35.4"/>
        <polygon class="cls-29" points="49.11 35.42 44.55 35.05 44.55 35.03 49.11 35.4 49.11 35.42"/>
        <polygon class="cls-55" points="49.11 35.45 44.55 35.07 44.55 35.05 49.11 35.42 49.11 35.45"/>
        <polygon class="cls-142" points="49.11 35.47 44.55 35.09 44.55 35.07 49.11 35.45 49.11 35.47"/>
        <polygon class="cls-165" points="49.11 35.49 44.55 35.11 44.55 35.09 49.11 35.47 49.11 35.49"/>
        <polygon class="cls-121" points="49.11 35.51 44.55 35.13 44.55 35.11 49.11 35.49 49.11 35.51"/>
        <polygon class="cls-100" points="49.11 35.53 44.55 35.15 44.55 35.13 49.11 35.51 49.11 35.53"/>
        <polygon class="cls-81" points="49.11 35.55 44.55 35.17 44.55 35.15 49.11 35.53 49.11 35.55"/>
        <polygon class="cls-173" points="49.11 35.57 44.55 35.2 44.55 35.17 49.11 35.55 49.11 35.57"/>
        <polygon class="cls-132" points="49.11 35.59 44.55 35.22 44.55 35.2 49.11 35.57 49.11 35.59"/>
        <polygon class="cls-162" points="49.11 35.61 44.55 35.24 44.55 35.22 49.11 35.59 49.11 35.61"/>
        <polygon class="cls-42" points="49.11 35.63 44.55 35.26 44.55 35.24 49.11 35.61 49.11 35.63"/>
        <polygon class="cls-180" points="49.11 35.66 44.55 35.28 44.55 35.26 49.11 35.63 49.11 35.66"/>
        <polygon class="cls-22" points="49.11 35.68 44.55 35.3 44.55 35.28 49.11 35.66 49.11 35.68"/>
        <polygon class="cls-144" points="49.11 35.7 44.55 35.32 44.55 35.3 49.11 35.68 49.11 35.7"/>
        <polygon class="cls-69" points="49.11 35.72 44.55 35.34 44.55 35.32 49.11 35.7 49.11 35.72"/>
        <polygon class="cls-94" points="49.11 35.74 44.55 35.36 44.55 35.34 49.11 35.72 49.11 35.74"/>
        <polygon class="cls-156" points="49.11 35.76 44.55 35.38 44.55 35.36 49.11 35.74 49.11 35.76"/>
        <polygon class="cls-45" points="49.11 35.78 44.55 35.41 44.55 35.38 49.11 35.76 49.11 35.78"/>
        <polygon class="cls-49" points="49.11 35.8 44.55 35.43 44.55 35.41 49.11 35.78 49.11 35.8"/>
        <polygon class="cls-135" points="49.11 35.82 44.55 35.45 44.55 35.43 49.11 35.8 49.11 35.82"/>
        <polygon class="cls-62" points="49.11 35.84 44.55 35.47 44.55 35.45 49.11 35.82 49.11 35.84"/>
        <polygon class="cls-10" points="49.11 35.87 44.55 35.49 44.55 35.47 49.11 35.84 49.11 35.87"/>
        <polygon class="cls-134" points="49.11 35.89 44.55 35.51 44.55 35.49 49.11 35.87 49.11 35.89"/>
        <polygon class="cls-52" points="49.11 35.91 44.55 35.53 44.55 35.51 49.11 35.89 49.11 35.91"/>
        <polygon class="cls-118" points="49.11 35.93 44.55 35.55 44.55 35.53 49.11 35.91 49.11 35.93"/>
        <polygon class="cls-143" points="49.11 35.95 44.55 35.57 44.55 35.55 49.11 35.93 49.11 35.95"/>
        <polygon class="cls-103" points="49.11 35.97 44.55 35.59 44.55 35.57 49.11 35.95 49.11 35.97"/>
        <polygon class="cls-88" points="49.11 35.99 44.55 35.62 44.55 35.59 49.11 35.97 49.11 35.99"/>
        <polygon class="cls-90" points="49.11 36.01 44.55 35.64 44.55 35.62 49.11 35.99 49.11 36.01"/>
        <polygon class="cls-93" points="49.11 36.03 44.55 35.66 44.55 35.64 49.11 36.01 49.11 36.03"/>
        <polygon class="cls-149" points="49.11 36.05 44.55 35.68 44.55 35.66 49.11 36.03 49.11 36.05"/>
        <polygon class="cls-59" points="49.11 36.08 44.55 35.7 44.55 35.68 49.11 36.05 49.11 36.08"/>
        <polygon class="cls-72" points="49.11 36.1 44.55 35.72 44.55 35.7 49.11 36.08 49.11 36.1"/>
        <polygon class="cls-15" points="49.11 36.12 44.55 35.74 44.55 35.72 49.11 36.1 49.11 36.12"/>
        <polygon class="cls-83" points="49.11 36.14 44.55 35.76 44.55 35.74 49.11 36.12 49.11 36.14"/>
        <polygon class="cls-83" points="49.11 36.16 44.55 35.78 44.55 35.76 49.11 36.14 49.11 36.16"/>
        <polygon class="cls-95" points="49.11 36.18 44.55 35.8 44.55 35.78 49.11 36.16 49.11 36.18"/>
        <polygon class="cls-28" points="49.11 36.2 44.55 35.83 44.55 35.8 49.11 36.18 49.11 36.2"/>
        <polygon class="cls-28" points="49.11 36.22 44.55 35.85 44.55 35.83 49.11 36.2 49.11 36.22"/>
        <polygon class="cls-169" points="49.11 36.24 44.55 35.87 44.55 35.85 49.11 36.22 49.11 36.24"/>
        <polygon class="cls-74" points="49.11 36.26 44.55 35.89 44.55 35.87 49.11 36.24 49.11 36.26"/>
        <polygon class="cls-164" points="49.11 36.29 44.55 35.91 44.55 35.89 49.11 36.26 49.11 36.29"/>
        <polygon class="cls-80" points="49.11 36.31 44.55 35.93 44.55 35.91 49.11 36.29 49.11 36.31"/>
        <polygon class="cls-35" points="49.11 36.33 44.55 35.95 44.55 35.93 49.11 36.31 49.11 36.33"/>
        <polygon class="cls-136" points="49.11 36.35 44.55 35.97 44.55 35.95 49.11 36.33 49.11 36.35"/>
        <polygon class="cls-178" points="49.11 36.37 44.55 35.99 44.55 35.97 49.11 36.35 49.11 36.37"/>
        <polygon class="cls-75" points="49.11 36.39 44.55 36.01 44.55 35.99 49.11 36.37 49.11 36.39"/>
        <polygon class="cls-39" points="49.11 36.41 44.55 36.04 44.55 36.01 49.11 36.39 49.11 36.41"/>
        <polygon class="cls-21" points="49.11 36.43 44.55 36.06 44.55 36.04 49.11 36.41 49.11 36.43"/>
        <polygon class="cls-34" points="49.11 36.45 44.55 36.08 44.55 36.06 49.11 36.43 49.11 36.45"/>
        <polygon class="cls-127" points="49.11 36.47 44.55 36.1 44.55 36.08 49.11 36.45 49.11 36.47"/>
        <polygon class="cls-89" points="49.11 36.5 44.55 36.12 44.55 36.1 49.11 36.47 49.11 36.5"/>
        <polygon class="cls-171" points="49.11 36.52 44.55 36.14 44.55 36.12 49.11 36.5 49.11 36.52"/>
        <polygon class="cls-32" points="49.11 36.54 44.55 36.16 44.55 36.14 49.11 36.52 49.11 36.54"/>
        <polygon class="cls-120" points="49.11 36.56 44.55 36.18 44.55 36.16 49.11 36.54 49.11 36.56"/>
        <polygon class="cls-110" points="49.11 36.58 44.55 36.2 44.55 36.18 49.11 36.56 49.11 36.58"/>
        <polygon class="cls-8" points="49.11 36.6 44.55 36.22 44.55 36.2 49.11 36.58 49.11 36.6"/>
        <polygon class="cls-140" points="49.11 36.62 44.55 36.25 44.55 36.22 49.11 36.6 49.11 36.62"/>
        <polygon class="cls-140" points="49.11 36.64 44.55 36.27 44.55 36.25 49.11 36.62 49.11 36.64"/>
        <polygon class="cls-30" points="49.11 36.66 44.55 36.29 44.55 36.27 49.11 36.64 49.11 36.66"/>
        <polygon class="cls-18" points="49.11 36.68 44.55 36.31 44.55 36.29 49.11 36.66 49.11 36.68"/>
        <polygon class="cls-125" points="49.11 36.71 44.55 36.33 44.55 36.31 49.11 36.68 49.11 36.71"/>
        <polygon class="cls-92" points="49.11 36.73 44.55 36.35 44.55 36.33 49.11 36.71 49.11 36.73"/>
        <polygon class="cls-128" points="49.11 36.75 44.55 36.37 44.55 36.35 49.11 36.73 49.11 36.75"/>
        <polygon class="cls-128" points="49.11 36.77 44.55 36.39 44.55 36.37 49.11 36.75 49.11 36.77"/>
        <polygon class="cls-58" points="49.11 36.79 44.55 36.41 44.55 36.39 49.11 36.77 49.11 36.79"/>
        <polygon class="cls-58" points="49.11 36.81 44.55 36.43 44.55 36.41 49.11 36.79 49.11 36.81"/>
        <polygon class="cls-56" points="49.11 36.83 44.55 36.46 44.55 36.43 49.11 36.81 49.11 36.83"/>
        <polygon class="cls-170" points="49.11 36.85 44.55 36.48 44.55 36.46 49.11 36.83 49.11 36.85"/>
        <polygon class="cls-170" points="49.11 36.87 44.55 36.5 44.55 36.48 49.11 36.85 49.11 36.87"/>
        <polygon class="cls-9" points="49.11 36.89 44.55 36.52 44.55 36.5 49.11 36.87 49.11 36.89"/>
        <polygon class="cls-71" points="49.11 36.92 44.55 36.54 44.55 36.52 49.11 36.89 49.11 36.92"/>
        <polygon class="cls-154" points="49.11 36.94 44.55 36.56 44.55 36.54 49.11 36.92 49.11 36.94"/>
        <polygon class="cls-60" points="49.11 36.96 44.55 36.58 44.55 36.56 49.11 36.94 49.11 36.96"/>
        <polygon class="cls-174" points="49.11 36.98 44.55 36.6 44.55 36.58 49.11 36.96 49.11 36.98"/>
        <polygon class="cls-114" points="49.11 37 44.55 36.62 44.55 36.6 49.11 36.98 49.11 37"/>
        <polygon class="cls-114" points="49.11 37.02 44.55 36.64 44.55 36.62 49.11 37 49.11 37.02"/>
        <polygon class="cls-3" points="49.11 37.04 44.55 36.67 44.55 36.64 49.11 37.02 49.11 37.04"/>
        <polygon class="cls-53" points="49.11 37.06 44.55 36.69 44.55 36.67 49.11 37.04 49.11 37.06"/>
        <polygon class="cls-158" points="49.11 37.08 44.55 36.71 44.55 36.69 49.11 37.06 49.11 37.08"/>
        <polygon class="cls-158" points="49.11 37.1 44.55 36.73 44.55 36.71 49.11 37.08 49.11 37.1"/>
        <polygon class="cls-87" points="49.11 37.13 44.55 36.75 44.55 36.73 49.11 37.1 49.11 37.13"/>
        <polygon class="cls-47" points="49.11 37.15 44.55 36.77 44.55 36.75 49.11 37.13 49.11 37.15"/>
        <polygon class="cls-47" points="49.11 37.17 44.55 36.79 44.55 36.77 49.11 37.15 49.11 37.17"/>
        <polygon class="cls-97" points="49.11 37.19 44.55 36.81 44.55 36.79 49.11 37.17 49.11 37.19"/>
        <polygon class="cls-97" points="49.11 37.21 44.55 36.83 44.55 36.81 49.11 37.19 49.11 37.21"/>
        <polygon class="cls-106" points="49.11 37.23 44.55 36.85 44.55 36.83 49.11 37.21 49.11 37.23"/>
        <polygon class="cls-14" points="49.11 37.25 44.55 36.88 44.55 36.85 49.11 37.23 49.11 37.25"/>
        <polygon class="cls-104" points="49.11 37.27 44.55 36.9 44.55 36.88 49.11 37.25 49.11 37.27"/>
        <polygon class="cls-104" points="49.11 37.29 44.55 36.92 44.55 36.9 49.11 37.27 49.11 37.29"/>
        <polygon class="cls-43" points="49.11 37.31 44.55 36.94 44.55 36.92 49.11 37.29 49.11 37.31"/>
        <polygon class="cls-175" points="49.11 37.34 44.55 36.96 44.55 36.94 49.11 37.31 49.11 37.34"/>
        <polygon class="cls-175" points="49.11 37.36 44.55 36.98 44.55 36.96 49.11 37.34 49.11 37.36"/>
        <polygon class="cls-116" points="49.11 37.38 44.55 37 44.55 36.98 49.11 37.36 49.11 37.38"/>
        <polygon class="cls-57" points="49.11 37.4 44.55 37.02 44.55 37 49.11 37.38 49.11 37.4"/>
        <polygon class="cls-31" points="49.11 37.42 44.55 37.04 44.55 37.02 49.11 37.4 49.11 37.42"/>
        <polygon class="cls-25" points="49.11 37.44 44.55 37.06 44.55 37.04 49.11 37.42 49.11 37.44"/>
        <polygon class="cls-25" points="49.11 37.46 44.55 37.09 44.55 37.06 49.11 37.44 49.11 37.46"/>
        <polygon class="cls-167" points="49.11 37.48 44.55 37.11 44.55 37.09 49.11 37.46 49.11 37.48"/>
        <polygon class="cls-130" points="49.11 37.5 44.55 37.13 44.55 37.11 49.11 37.48 49.11 37.5"/>
        <polygon class="cls-130" points="49.11 37.52 44.55 37.15 44.55 37.13 49.11 37.5 49.11 37.52"/>
        <polygon class="cls-130" points="49.11 37.55 44.55 37.17 44.55 37.15 49.11 37.52 49.11 37.55"/>
        <polygon class="cls-91" points="49.11 37.57 44.55 37.19 44.55 37.17 49.11 37.55 49.11 37.57"/>
        <polygon class="cls-91" points="49.11 37.59 44.55 37.21 44.55 37.19 49.11 37.57 49.11 37.59"/>
        <polygon class="cls-79" points="49.11 37.61 44.55 37.23 44.55 37.21 49.11 37.59 49.11 37.61"/>
        <polygon class="cls-79" points="49.11 37.63 44.55 37.25 44.55 37.23 49.11 37.61 49.11 37.63"/>
        <polygon class="cls-141" points="49.11 37.65 44.55 37.27 44.55 37.25 49.11 37.63 49.11 37.65"/>
        <polygon class="cls-4" points="49.11 37.67 44.55 37.3 44.55 37.27 49.11 37.65 49.11 37.67"/>
        <polygon class="cls-4" points="49.11 37.69 44.55 37.32 44.55 37.3 49.11 37.67 49.11 37.69"/>
        <polygon class="cls-46" points="49.11 37.71 44.55 37.34 44.55 37.32 49.11 37.69 49.11 37.71"/>
        <polygon class="cls-61" points="49.11 37.74 44.55 37.36 44.55 37.34 49.11 37.71 49.11 37.74"/>
        <polygon class="cls-86" points="49.11 37.76 44.55 37.38 44.55 37.36 49.11 37.74 49.11 37.76"/>
        <polygon class="cls-86" points="49.11 37.78 44.55 37.4 44.55 37.38 49.11 37.76 49.11 37.78"/>
        <polygon class="cls-86" points="49.11 37.8 44.55 37.42 44.55 37.4 49.11 37.78 49.11 37.8"/>
        <polygon class="cls-176" points="49.11 37.82 44.55 37.44 44.55 37.42 49.11 37.8 49.11 37.82"/>
        <polygon class="cls-11" points="49.11 37.84 44.55 37.46 44.55 37.44 49.11 37.82 49.11 37.84"/>
        <polygon class="cls-11" points="49.11 37.86 44.55 37.48 44.55 37.46 49.11 37.84 49.11 37.86"/>
        <polygon class="cls-172" points="49.11 37.88 44.55 37.51 44.55 37.48 49.11 37.86 49.11 37.88"/>
        <polygon class="cls-138" points="49.11 37.9 44.55 37.53 44.55 37.51 49.11 37.88 49.11 37.9"/>
        <polygon class="cls-138" points="49.11 37.92 44.55 37.55 44.55 37.53 49.11 37.9 49.11 37.92"/>
        <polygon class="cls-138" points="49.11 37.94 44.55 37.57 44.55 37.55 49.11 37.92 49.11 37.94"/>
        <polygon class="cls-138" points="49.11 37.97 44.55 37.59 44.55 37.57 49.11 37.94 49.11 37.97"/>
        <polygon class="cls-41" points="49.11 37.99 44.55 37.61 44.55 37.59 49.11 37.97 49.11 37.99"/>
        <polygon class="cls-98" points="49.11 38.01 44.55 37.63 44.55 37.61 49.11 37.99 49.11 38.01"/>
        <polygon class="cls-20" points="49.05 38.02 44.55 37.65 44.55 37.63 49.11 38.01 49.11 38.02 49.05 38.02"/>
        <polygon class="cls-20" points="48.8 38.02 44.55 37.67 44.55 37.65 49.05 38.02 48.8 38.02"/>
        <polygon class="cls-20" points="48.55 38.02 44.55 37.69 44.55 37.67 48.8 38.02 48.55 38.02"/>
        <polygon class="cls-20" points="48.29 38.02 44.55 37.72 44.55 37.69 48.55 38.02 48.29 38.02"/>
        <polygon class="cls-20" points="48.04 38.02 44.55 37.74 44.55 37.72 48.29 38.02 48.04 38.02"/>
        <polygon class="cls-20" points="47.78 38.02 44.55 37.76 44.55 37.74 48.04 38.02 47.78 38.02"/>
        <polygon class="cls-68" points="47.53 38.02 44.55 37.78 44.55 37.76 47.78 38.02 47.53 38.02"/>
        <polygon class="cls-150" points="47.27 38.02 44.55 37.8 44.55 37.78 47.53 38.02 47.27 38.02"/>
        <polygon class="cls-150" points="47.02 38.02 44.55 37.82 44.55 37.8 47.27 38.02 47.02 38.02"/>
        <polygon class="cls-150" points="46.76 38.02 44.55 37.84 44.55 37.82 47.02 38.02 46.76 38.02"/>
        <polygon class="cls-150" points="46.51 38.02 44.55 37.86 44.55 37.84 46.76 38.02 46.51 38.02"/>
        <polygon class="cls-150" points="46.26 38.02 44.55 37.88 44.55 37.86 46.51 38.02 46.26 38.02"/>
        <polygon class="cls-150" points="46 38.02 44.55 37.9 44.55 37.88 46.26 38.02 46 38.02"/>
        <polygon class="cls-150" points="45.75 38.02 44.55 37.93 44.55 37.9 46 38.02 45.75 38.02"/>
        <polygon class="cls-36" points="45.49 38.02 44.55 37.95 44.55 37.93 45.75 38.02 45.49 38.02"/>
        <polygon class="cls-36" points="45.24 38.02 44.55 37.97 44.55 37.95 45.49 38.02 45.24 38.02"/>
        <polygon class="cls-54" points="44.98 38.02 44.55 37.99 44.55 37.97 45.24 38.02 44.98 38.02"/>
        <polygon class="cls-54" points="44.73 38.02 44.55 38.01 44.55 37.99 44.98 38.02 44.73 38.02"/>
        <polygon class="cls-54" points="44.55 38.01 44.73 38.02 44.55 38.02 44.55 38.01"/>
      </g>
      <path class="cls-44" d="M46.73,37.25c-.64-.05-1.14-.7-1.08-1.4.06-.71.65-1.26,1.29-1.21.64.05,1.14.7,1.08,1.4-.06.71-.65,1.26-1.29,1.21Z"/>
      <path class="cls-131" d="M46.78,37c-.45-.04-.91-.52-.86-1.12.05-.6.59-1.01,1.03-.97.45.04.91.53.86,1.13-.05.6-.59,1.01-1.03.97Z"/>
      <path class="cls-96" d="M46.42,35.51c-.02.22-.24.38-.5.35-.26-.02-.45-.22-.43-.43.02-.22.24-.38.5-.36.26.02.45.21.44.43Z"/>
      <path class="cls-96" d="M47.86,36.77c0,.11-.12.19-.25.18-.13,0-.23-.11-.22-.22,0-.11.12-.19.25-.18.13,0,.23.11.22.22Z"/>
      <path class="cls-5" d="M20.53,37.77c.97-1.58,2.49-.91,2.87-.57.4.37.72.87.48,1.8-.13.52-.68.57-.54,1.37.16.89.57.95.8,1.15.23.2.53.35.68.73.14.37.17.77.1,1.12-.15.65-1.09.14-1.72-.14-.42-.18-1.74-1.29-2.08-1.65-.84-.94-1.25-2.74-.6-3.8"/>
      <path class="cls-26" d="M40.97,44.84c.34-.23.74-.12.74-.12,0,0,0,0-.01.02-.08.14-.54.87-.91.86,0,0-.08-.07-.1-.24-.03-.17.11-.4.28-.52Z"/>
      <path class="cls-1" d="M27.2,25.04c-.07.11-.14.23-.2.34h0c-.36.65-.54,1.12-.54,1.12-.58,1.27-.95,2.61-1.14,3.75.57-2.4,1.23-4.05,1.88-5.19,0,0,0-.01,0-.02Z"/>
      <path class="cls-163" d="M25.32,30.27h0s0-.01,0-.02c0,0,0,.01,0,.02Z"/>
      <path class="cls-1" d="M29.15,51.91s-.01,0-.02-.01c0,0,.01,0,.02.01Z"/>
      <path class="cls-1" d="M28.99,51.8s-.09-.07-.15-.11c.05.04.1.07.15.11Z"/>
      <path class="cls-1" d="M27.13,50.12c.57.67,1.19,1.18,1.62,1.51-.41-.31-1.01-.82-1.62-1.51Z"/>
      <path class="cls-112" d="M29.3,52.01s-.06-.04-.15-.1c.09.06.15.1.15.1Z"/>
      <path class="cls-112" d="M29.13,51.89s-.09-.06-.14-.1c.05.04.1.07.14.1Z"/>
      <path class="cls-112" d="M28.84,51.69s-.06-.04-.09-.07c.03.03.06.04.09.07Z"/>
      <path class="cls-1" d="M21.03,41.17s.01.06.02.09c0-.03-.01-.06-.02-.09Z"/>
      <path class="cls-19" d="M21.21,42.11c.43,2.17,1.45,4.3,2.92,6-1.73-2.34-2.65-4.69-3.08-6.85.05.25.1.53.17.85Z"/>
      <path class="cls-84" d="M46.83,62.08c-2.71,2.85-5.22,3.9-7.39,3.99-4.74.21-7.85-4.09-7.85-4.09l-4.33.74c1.47,1.84,6.1,6.91,12.18,6.95,3.61.02,7.74-1.73,12.02-7.01l-4.62-.58Z"/>
      <path class="cls-177" d="M27.26,62.72c-1.02.2-2.34.55-3.73,1.15-1.54.67-3.16,1.64-4.57,3.09-.83.85-1.79,4.34-2.62,7.12-.28.94-.55,1.79-.79,2.44h7.13s0,.02,0,.04c.05,2.99-.08,1.09-.2,2.32h16.96v-9.2c-6.08-.04-10.7-5.12-12.18-6.95Z"/>
      <path class="cls-139" d="M55.96,76.56s0-.02,0-.04h6.45c-.07-.45-.24-1.36-.49-2.44-.59-2.63-1.57-6.31-2.26-7.12-1.24-1.46-2.75-2.45-4.21-3.12-1.46-.66-2.89-1.01-3.99-1.19-4.28,5.28-8.41,7.04-12.02,7.01v9.2h16.7c-.12-1.23-.25.67-.19-2.32Z"/>
      <path class="cls-48" d="M63.8,20.83c0-2.42-2.1-4.38-4.7-4.38-.66,0-1.28.13-1.85.35-.15-.11-.31-.19-.49-.25.03-.18.05-.36.05-.55,0-1.93-1.68-3.5-3.75-3.5-.35,0-.68.05-1,.13-.13-1.87-1.79-3.35-3.83-3.35-.84,0-1.61.25-2.24.68-.78-1.54-2.46-2.6-4.4-2.6-.63,0-1.24.12-1.79.32-.79-.74-1.89-1.2-3.11-1.2-1.35,0-2.55.57-3.35,1.46-.08,0-.16-.01-.25-.01-2.13,0-3.91,1.39-4.37,3.24-1.86.21-3.31,1.68-3.31,3.47,0,.14.01.28.03.42-.48-.19-1-.3-1.55-.3-2.26,0-4.09,1.8-4.09,4.01,0,.51.1.99.28,1.44-1.2.71-2,1.96-2,3.39,0,1.17.54,2.21,1.39,2.95-1.43.26-2.51,1.43-2.51,2.84,0,1.53,1.28,2.78,2.89,2.88-.03.14-.05.28-.05.42,0,1.22,1.06,2.21,2.37,2.21.11,0,.22-.02.34-.03.28.48.56.87.81,1.12,1.1,1.1.75,2.69,1.08,2.69,0,0,1.1.04.51-5.94-.46-4.69,1.03-3.29,3.68-4.59,2.64-1.31,6.19-.36,8.72,1.3,2.94,1.92,3.93-.24,7.86-1.3,6.42-1.73,9.09,2.81,8.55,5.16-.83,3.61.32,5.69.76,5.59,0,0,.02-.92.42-1.73.8-1.65,1.52-1.4,1.96-2.11.29.13.6.2.94.2,1.21,0,2.2-.92,2.2-2.05,0-.39-.12-.76-.33-1.07,1.24-.38,2.14-1.47,2.14-2.75,0-1.09-.65-2.04-1.61-2.53.78-.44,1.3-1.22,1.3-2.13,0-.05-.01-.09-.01-.14,1.38-.76,2.3-2.16,2.3-3.76Z"/>
      <g>
        <path class="cls-24" d="M30.08,44.36c-3.19,0-5.68-2.97-5.68-6.75,0-3.43,2.01-5.1,6.16-5.1,3.85,0,7.61.28,7.61,3.7,0,3.77-4.9,8.15-8.09,8.15Z"/>
        <path class="cls-24" d="M49.06,44.36c-3.19,0-8.09-4.38-8.09-8.15,0-3.41,3.78-3.7,7.62-3.7,4.15,0,6.16,1.67,6.16,5.1,0,3.77-2.5,6.75-5.69,6.75Z"/>
        <path class="cls-107" d="M48.59,32.29c-2.14,0-4.67.05-6.26,1.01-3.23.9-5.48,0-5.5,0-1.59-.97-4.12-1.02-6.27-1.02-4.02,0-6.39,1.53-6.39,5.32s2.49,6.97,5.91,6.97c3.03,0,7.21-3.6,8.12-7.06h0s0,0,0,0c.12-.44.18-.88.18-1.31,0-.01,0-.02,0-.04.21-.58.6-.83,1.18-.83s.99.24,1.2.85h0c0,.43.06.85.17,1.28,0,.02,0,.03,0,.05h.01c.91,3.46,5.08,7.06,8.11,7.06,3.43,0,5.91-3.17,5.91-6.97s-2.36-5.32-6.39-5.32ZM30.09,44.36c-3.19,0-5.69-2.97-5.69-6.75,0-3.43,2.02-5.1,6.16-5.1,3.85,0,7.61.28,7.61,3.7,0,.34-.04.68-.11,1.02-.03.09-.06.18-.06.26-.9,3.42-5.07,6.87-7.91,6.87ZM39.57,34.79c-.76,0-1.1.22-1.24.69-.14-.77-.49-1.35-.99-1.79,1.8.53,3.83.15,4.47,0-.53.47-.9,1.11-1.01,1.96-.13-.49-.44-.85-1.23-.85ZM49.06,44.36c-3.19,0-8.08-4.38-8.08-8.15,0-3.41,3.76-3.7,7.61-3.7,4.15,0,6.16,1.67,6.16,5.1,0,3.77-2.5,6.75-5.69,6.75Z"/>
      </g>
    </g>
  </g>
</svg>