<?xml version="1.0" encoding="UTF-8"?>
<svg id="Layer_2" data-name="Layer 2" xmlns="http://www.w3.org/2000/svg" xmlns:xlink="http://www.w3.org/1999/xlink" viewBox="0 0 78.88 78.88">
  <defs>
    <style>
      .cls-1 {
        fill: none;
      }

      .cls-2 {
        fill: #354148;
      }

      .cls-3 {
        fill: #7d99ae;
      }

      .cls-4 {
        fill: #84a2b8;
      }

      .cls-5 {
        fill: #debaad;
      }

      .cls-6 {
        fill: #4e606b;
      }

      .cls-7 {
        fill: #bf6c6c;
      }

      .cls-8 {
        fill: #7791a4;
      }

      .cls-9 {
        fill: #7b97ab;
      }

      .cls-10 {
        fill: #677e8d;
      }

      .cls-11 {
        fill: #86a3ba;
      }

      .cls-12 {
        fill: #364349;
      }

      .cls-13 {
        fill: #313d43;
      }

      .cls-14 {
        fill: #809cb2;
      }

      .cls-15 {
        fill: #6d8596;
      }

      .cls-16 {
        fill: #44545c;
      }

      .cls-17 {
        fill: #46565f;
      }

      .cls-18 {
        fill: #66a5d9;
      }

      .cls-19 {
        fill: #7893a6;
      }

      .cls-20 {
        fill: #87a5bc;
      }

      .cls-21 {
        fill: #748d9f;
      }

      .cls-22 {
        fill: #627886;
      }

      .cls-23 {
        fill: #576b77;
      }

      .cls-24 {
        fill: #829fb5;
      }

      .cls-25 {
        fill: #b89388;
      }

      .cls-26 {
        fill: #485862;
      }

      .cls-27 {
        fill: #6f8899;
      }

      .cls-28 {
        fill: #5b6f7c;
      }

      .cls-29 {
        fill: #7892a6;
      }

      .cls-30 {
        fill: #829fb4;
      }

      .cls-31 {
        fill: #7690a2;
      }

      .cls-32 {
        fill: #596c79;
      }

      .cls-33 {
        fill: #748ea0;
      }

      .cls-34 {
        fill: #728b9c;
      }

      .cls-35 {
        fill: #88a6be;
      }

      .cls-36 {
        fill: #a88a6b;
      }

      .cls-37 {
        fill: #738d9f;
      }

      .cls-38 {
        fill: #495963;
      }

      .cls-39 {
        fill: #87a4bb;
      }

      .cls-40 {
        fill: #617785;
      }

      .cls-41 {
        fill: #819db3;
      }

      .cls-42 {
        fill: #95bacb;
      }

      .cls-43 {
        fill: #657b8a;
      }

      .cls-44 {
        fill: #85a2b8;
      }

      .cls-45 {
        fill: #27271f;
      }

      .cls-46 {
        fill: #7f9bb0;
      }

      .cls-47 {
        fill: #667c8b;
      }

      .cls-48 {
        fill: #38454c;
      }

      .cls-49 {
        fill: #3e4d54;
      }

      .cls-50 {
        fill: #687f8f;
      }

      .cls-51 {
        fill: #7e9aae;
      }

      .cls-52 {
        fill: #88a7be;
      }

      .cls-53 {
        fill: #5b707d;
      }

      .cls-54 {
        fill: #7a96a9;
      }

      .cls-55 {
        fill: #829eb4;
      }

      .cls-56 {
        fill: #7a95a9;
      }

      .cls-57 {
        fill: #6c8495;
      }

      .cls-58 {
        fill: #7c98ac;
      }

      .cls-59 {
        fill: #85a2b9;
      }

      .cls-60 {
        fill: #677d8d;
      }

      .cls-61 {
        fill: #39464e;
      }

      .cls-62 {
        fill: #3d4b53;
      }

      .cls-63 {
        fill: #344046;
      }

      .cls-64 {
        fill: #586c78;
      }

      .cls-65 {
        fill: #596d7a;
      }

      .cls-66 {
        fill: #87a6bd;
      }

      .cls-67 {
        fill: #637988;
      }

      .cls-68 {
        fill: #37444b;
      }

      .cls-69 {
        fill: #7c97ab;
      }

      .cls-70 {
        fill: #6d8595;
      }

      .cls-71 {
        fill: #526570;
      }

      .cls-72 {
        fill: #70899b;
      }

      .cls-73 {
        fill: #738c9e;
      }

      .cls-74 {
        fill: #4e5f6a;
      }

      .cls-75 {
        clip-path: url(#clippath-1);
      }

      .cls-76 {
        fill: #546672;
      }

      .cls-77 {
        fill: #84a1b7;
      }

      .cls-78 {
        fill: #718a9c;
      }

      .cls-79 {
        fill: #5f7481;
      }

      .cls-80 {
        fill: #f1d4c8;
      }

      .cls-81 {
        fill: #6e8697;
      }

      .cls-82 {
        fill: #303c42;
      }

      .cls-83 {
        fill: #85a3b9;
      }

      .cls-84 {
        fill: #7e9baf;
      }

      .cls-85 {
        fill: #6a8292;
      }

      .cls-86 {
        fill: #758fa1;
      }

      .cls-87 {
        fill: #6b8292;
      }

      .cls-88 {
        fill: #83a1b7;
      }

      .cls-89 {
        fill: #7994a7;
      }

      .cls-90 {
        fill: #6b8393;
      }

      .cls-91 {
        fill: #647a89;
      }

      .cls-92 {
        fill: #6e8798;
      }

      .cls-93 {
        fill: #fff;
      }

      .cls-94 {
        fill: #7f9cb1;
      }

      .cls-95 {
        fill: #87a5bb;
      }

      .cls-96 {
        fill: #536671;
      }

      .cls-97 {
        fill: #5e7380;
      }

      .cls-98 {
        fill: #4d5e69;
      }

      .cls-99 {
        fill: #566975;
      }

      .cls-100 {
        fill: #6a8191;
      }

      .cls-101 {
        fill: #809db2;
      }

      .cls-102 {
        fill: #4c5d68;
      }

      .cls-103 {
        fill: #809cb1;
      }

      .cls-104 {
        fill: #4b5c67;
      }

      .cls-105 {
        fill: #475760;
      }

      .cls-106 {
        fill: #7691a3;
      }

      .cls-107 {
        fill: #3a484f;
      }

      .cls-108 {
        fill: #2d5765;
      }

      .cls-109 {
        fill: #51636e;
      }

      .cls-110 {
        fill: #7d99ad;
      }

      .cls-111 {
        fill: #4f616c;
      }

      .cls-112 {
        fill: #819eb4;
      }

      .cls-113 {
        fill: #4a5b65;
      }

      .cls-114 {
        fill: #698090;
      }

      .cls-115 {
        opacity: .3;
      }

      .cls-116 {
        fill: #7690a3;
      }

      .cls-117 {
        fill: #5d727f;
      }

      .cls-118 {
        fill: #415059;
      }

      .cls-119 {
        fill: #2d383d;
      }

      .cls-120 {
        fill: #50626d;
      }

      .cls-121 {
        fill: #7893a7;
      }

      .cls-122 {
        fill: #43525b;
      }

      .cls-123 {
        fill: #748ea1;
      }

      .cls-124 {
        fill: #7994a8;
      }

      .cls-125 {
        fill: #546773;
      }

      .cls-126 {
        fill: #83a0b6;
      }

      .cls-127 {
        fill: #26200c;
      }

      .cls-128 {
        fill: #607583;
      }

      .cls-129 {
        fill: #556874;
      }

      .cls-130 {
        fill: #687f8e;
      }

      .cls-131 {
        fill: #667d8c;
      }

      .cls-132 {
        fill: #728b9d;
      }

      .cls-133 {
        fill: #323f45;
      }

      .cls-134 {
        fill: #86a4bb;
      }

      .cls-135 {
        fill: #7792a5;
      }

      .cls-136 {
        fill: #84a1b8;
      }

      .cls-137 {
        fill: #5c707e;
      }

      .cls-138 {
        fill: #698190;
      }

      .cls-139 {
        fill: #637987;
      }

      .cls-140 {
        fill: #3c4a52;
      }

      .cls-141 {
        fill: #42515a;
      }

      .cls-142 {
        fill: #c6a095;
      }

      .cls-143 {
        fill: #3b4950;
      }

      .cls-144 {
        fill: #6c8494;
      }

      .cls-145 {
        fill: #88a6bd;
      }

      .cls-146 {
        fill: #404f57;
      }

      .cls-147 {
        fill: #47433b;
      }

      .cls-148 {
        fill: #51646f;
      }

      .cls-149 {
        fill: #7c97ac;
      }

      .cls-150 {
        fill: #5a6e7b;
      }

      .cls-151 {
        fill: #647b8a;
      }

      .cls-152 {
        fill: #45555e;
      }

      .cls-153 {
        fill: #7e9aaf;
      }

      .cls-154 {
        fill: #3f4e56;
      }

      .cls-155 {
        fill: #2f3b40;
      }

      .cls-156 {
        fill: #4a5a64;
      }

      .cls-157 {
        fill: #607684;
      }

      .cls-158 {
        fill: #49443b;
      }

      .cls-159 {
        fill: #718a9b;
      }

      .cls-160 {
        fill: #5d717f;
      }

      .cls-161 {
        clip-path: url(#clippath);
      }

      .cls-162 {
        fill: #82a0b5;
      }

      .cls-163 {
        fill: #2e393f;
      }

      .cls-164 {
        fill: #70899a;
      }

      .cls-165 {
        fill: #7b96aa;
      }

      .cls-166 {
        fill: #758fa2;
      }

      .cls-167 {
        fill: #86a4ba;
      }

      .cls-168 {
        fill: #5f7482;
      }

      .cls-169 {
        fill: #7c98ad;
      }

      .cls-170 {
        fill: #819eb3;
      }

      .cls-171 {
        fill: #85a3ba;
      }

      .cls-172 {
        fill: #728c9e;
      }

      .cls-173 {
        fill: #576a76;
      }

      .cls-174 {
        fill: #627786;
      }

      .cls-175 {
        fill: #ab5b64;
      }
    </style>
    <clipPath id="clippath">
      <path class="cls-1" d="M34.52,36.08c-.1,1.18-1.15,2.06-2.36,1.96-1.2-.1-2.1-1.14-2-2.32.1-1.19,1.15-2.07,2.36-1.97,1.2.1,2.1,1.14,2,2.33Z"/>
    </clipPath>
    <clipPath id="clippath-1">
      <path class="cls-1" d="M49.92,35.96c-.1,1.18-1.15,2.06-2.36,1.96-1.2-.1-2.1-1.14-2-2.32.1-1.19,1.15-2.07,2.36-1.97,1.2.1,2.1,1.14,2,2.33Z"/>
    </clipPath>
  </defs>
  <g id="Layer_1-2" data-name="Layer 1">
    <g>
      <rect class="cls-108" width="78.88" height="78.88"/>
      <path class="cls-45" d="M58.21,41.72h-5.42c.33-1.33.91-2.58,1.85-3.71h-29.85s.54,1.47.91,3.71h-3.72s3.35,4.61.05,9.01c-1.06,1.41.14,2.88,2.49,3.61.08,2.36,1.97,4.42,4.6,4.68.42,1.45,1.8,2.58,3.58,2.58h14.21c1.79,0,3.2-1.18,3.57-2.65,2.3-.43,3.95-2.29,4.07-4.41,2.79-.63,4.35-2.22,3.16-3.74-2.2-2.81-3.7-6.51.5-9.08Z"/>
      <path class="cls-80" d="M61.86,77.89s-.02-1.22-.06-2.61c-.02-.7-.05-1.44-.09-2.09-.04-.73-.09-1.34-.14-1.66-.02-.09-.03-.15-.05-.19-.11-.48-.14-.9-.18-1.29-.07-.76-.13-1.39-.65-2.09-.38-.51-1-1.05-2.05-1.71-.03-.01-.74-.24-1.8-.59t-.02-.01c-.52-.17-1.14-.38-1.79-.59-.2-.07-.4-.13-.61-.21-.34-.11-.67-.24-1.02-.35-.86-.3-1.72-.62-2.51-.92-.55-.21-1.07-.41-1.51-.59-.38-.16-.71-.32-.97-.46h0c-.28-.14-.48-.27-.59-.38-.01-.01-.04-.05-.08-.09-.02-.04-.05-.06-.07-.1-.06-.35-1-1.89-1.32-3.56h0c-.07-.35-.11-.67-.12-1.01-.03-.49-.03-.97-.04-1.41-.01-.45-.02-.86-.04-1.2v-.29c-.01-.24-.01-.44-.01-.59-.01-.15-.01-.24-.01-.24,0,0,.35-.3.86-.75.64-.57,1.55-1.4,2.33-2.18.85-.85,1.59-1.66,1.75-2.08.01-.06.02-.11.02-.15,0,0-.02,0-.06.01-.4.06-2.55.44-4.86.8-1.37.21-2.81.43-3.98.57-.46.06-.89.1-1.25.14h-.01c-.34.04-.62.05-.84.05-.24,0-.56-.02-.95-.05h-.03c-.37-.05-.82-.1-1.31-.16-1.07-.14-2.36-.32-3.61-.51-1.15-.19-2.27-.36-3.16-.51-.21-.04-.4-.06-.57-.1-.85-.14-1.39-.24-1.39-.24,0,.16.15.41.4.74,0,0,0,.01.01.01.19.25.44.54.74.86.29.3.6.61.92.92.99.96,2.06,1.91,2.58,2.36.2.17.31.27.31.27,0,0,0,.09-.01.24,0,.15,0,.35-.01.59v.29c0,.1,0,.2-.01.3-.01.65-.04,1.46-.06,2.31-.01.34-.05.66-.12,1-.33,1.67-1.26,3.22-1.32,3.57-.03.04-.05.06-.07.1-.04.04-.06.08-.08.09-.05.05-.14.11-.24.18h0c-.23.15-.57.32-.99.52-.37.16-.8.34-1.27.52-1.11.43-2.43.91-3.7,1.34-.09.03-.17.06-.26.09,0,0-.01,0-.02,0-.93.32-1.82.62-2.54.86h-.01c-1.05.35-1.76.57-1.79.59-1.05.66-1.67,1.2-2.05,1.71-.52.7-.59,1.33-.66,2.09-.04.38-.07.78-.17,1.25h0v.04s-.03.07-.04.15h0s0,.03,0,.04c-.06.31-.1.93-.14,1.66-.04.65-.06,1.39-.09,2.09-.04,1.39-.06,2.61-.06,2.61,0,.32,0,.65,0,.99h43.58c0-.34,0-.67-.01-.99Z"/>
      <path class="cls-142" d="M46.35,58.41c-.07-.34-.11-.66-.12-1-.04-1.12-.06-2.2-.07-2.9-1.87.84-3.8,1.32-5.68,1.32-.11.02-.25.02-.38.02s-.27,0-.38-.02c-1.89,0-3.81-.49-5.68-1.32-.01.7-.04,1.77-.07,2.9-.01.34-.05.66-.12,1,1.81,1.51,4.26,3.07,5.88,3.07.1.02.23.02.34.02h0s.03,0,.04,0,.03,0,.04,0h0c.12,0,.24,0,.34-.03,1.62,0,4.07-1.56,5.88-3.07Z"/>
      <g>
        <path class="cls-80" d="M56.16,36c.31-1.73.56-3.05.63-3.31.04-.12.06-.25.1-.37.03-.15.06-.29.09-.42.06-.21.1-.43.15-.64.01-.1.04-.2.05-.3.04-.24.09-.48.12-.71.01-.1.03-.21.04-.31.04-.21.05-.42.08-.64.01-.16.02-.33.05-.47.01-.14.01-.28.02-.41.16-3.26-.54-6.58-2.67-9.59-2.58-3.62-5.56-7.45-12.01-7.99h-5.44c-6.46.54-9.43,4.37-12.01,7.99-2.13,3.01-2.83,6.33-2.67,9.59.01.14.01.27.02.41.02.15.04.31.05.47.02.21.04.42.07.64.01.1.03.21.04.31.04.24.09.47.13.71.01.1.04.2.05.3.05.21.09.43.15.64.03.14.06.27.09.42.04.12.06.25.1.37.08.26.32,1.57.63,3.29-1.72-.84-4.11.36-3.83,3.53.29,3.22,4.21,5.13,5.55,5.45.13.58.24,1.02.33,1.22,1.17,2.96,2.6,3.85,5.09,6.26,2.72,2.61,6.74,5.06,8.73,5.04.06.01.14.01.21.01s.15,0,.21-.01c1.98.01,6-2.44,8.73-5.04,2.5-2.41,3.92-3.3,5.09-6.26.08-.21.19-.63.32-1.21,1.29-.29,5.29-2.21,5.59-5.46.29-3.2-2.15-4.4-3.88-3.51Z"/>
        <path class="cls-5" d="M58.78,37.77c-.97-1.58-2.49-.91-2.87-.57-.4.37-.72.87-.48,1.8.13.52.68.57.54,1.37-.16.89-.57.95-.8,1.15-.23.2-.53.35-.68.73-.14.37-.17.77-.1,1.12.15.65,1.09.14,1.72-.14.42-.18,1.74-1.29,2.08-1.65.84-.94,1.25-2.74.6-3.8"/>
      </g>
      <path class="cls-5" d="M37.32,51.32c-.06-.82,2.31.17,3.09.2.62.02,2.49-.12,2.67-.19,1.31-.49-.07,1.38-2.7,1.48-1.21.05-3.02-.99-3.06-1.49Z"/>
      <g>
        <path class="cls-175" d="M45.15,50.25c-1.51-.28-4.68-.89-4.68-.89-2.62.43-4.67.88-4.68.9-.06,0,2.09,1.93,4.65,1.8h0c2.55.13,4.78-1.8,4.72-1.81Z"/>
        <path class="cls-7" d="M41.97,48.83c-.68-.07-1.15.32-1.49.29-.35.03-.82-.36-1.5-.29-.97.21-1.43.82-3.19,1.43.06.12,1.19-.15,3.3-.11.03,0,.6.32,1.4.31.5,0,1.19-.34,1.22-.34,2.11-.03,3.4.26,3.46.14-2.32-.71-2.23-1.23-3.2-1.44Z"/>
      </g>
      <path class="cls-36" d="M41.72,44.87c.34-.23.74-.12.74-.12,0,0,0,0-.01.02-.08.14-.54.87-.91.86,0,0-.08-.07-.1-.24-.03-.17.11-.4.28-.52Z"/>
      <path class="cls-5" d="M37.1,44.64c-.07-1.65,2.56-.6,3.43-.55.69.04,2.77-.52,2.95-.38,1.22.98-1.3,2.95-2.99,2.95-.45,0-3.34-1.03-3.38-2.03Z"/>
      <path class="cls-25" d="M39.09,44.84c-.34-.23-.74-.12-.74-.12,0,0,0,0,.01.02.08.14.54.87.91.86,0,0,.08-.07.1-.24.03-.17-.11-.4-.28-.52Z"/>
      <path class="cls-158" d="M36.65,33.34s-.4-.4-1.14-.89c-.35-.26-.81-.48-1.3-.71-.49-.23-1.04-.4-1.61-.5-.57-.13-1.15-.16-1.71-.15-.28.02-.55.04-.8.06-.26.01-.5.08-.72.11-.45.07-.82.18-1.09.24-.27.06-.42.1-.42.1,0,0,.13-.08.37-.23.24-.13.57-.37,1.02-.53.44-.19.98-.36,1.58-.48.6-.08,1.26-.12,1.92-.05.66.09,1.3.27,1.87.51.57.24,1.06.56,1.45.86.78.59,1.16,1.18,1.16,1.18h0c.12.18.07.42-.11.54-.15.1-.35.07-.48-.05Z"/>
      <path class="cls-93" d="M27.46,35.1s1.46,3.64,3.73,3.99c2.27.35,4.69-.16,4.69-.16,0,0,.06-4.22-1.12-4.81-1.18-.59-3.87-1.46-7.3.98Z"/>
      <g class="cls-161">
        <polygon class="cls-119" points="34.62 34.45 30.06 34.08 30.06 33.66 34.62 33.66 34.62 34.45"/>
        <polygon class="cls-119" points="34.62 34.47 30.06 34.1 30.06 34.08 34.62 34.45 34.62 34.47"/>
        <polygon class="cls-163" points="34.62 34.5 30.06 34.12 30.06 34.1 34.62 34.47 34.62 34.5"/>
        <polygon class="cls-155" points="34.62 34.52 30.06 34.14 30.06 34.12 34.62 34.5 34.62 34.52"/>
        <polygon class="cls-82" points="34.62 34.54 30.06 34.16 30.06 34.14 34.62 34.52 34.62 34.54"/>
        <polygon class="cls-13" points="34.62 34.56 30.06 34.18 30.06 34.16 34.62 34.54 34.62 34.56"/>
        <polygon class="cls-133" points="34.62 34.58 30.06 34.2 30.06 34.18 34.62 34.56 34.62 34.58"/>
        <polygon class="cls-63" points="34.62 34.6 30.06 34.22 30.06 34.2 34.62 34.58 34.62 34.6"/>
        <polygon class="cls-2" points="34.62 34.62 30.06 34.25 30.06 34.22 34.62 34.6 34.62 34.62"/>
        <polygon class="cls-12" points="34.62 34.64 30.06 34.27 30.06 34.25 34.62 34.62 34.62 34.64"/>
        <polygon class="cls-68" points="34.62 34.66 30.06 34.29 30.06 34.27 34.62 34.64 34.62 34.66"/>
        <polygon class="cls-48" points="34.62 34.68 30.06 34.31 30.06 34.29 34.62 34.66 34.62 34.68"/>
        <polygon class="cls-61" points="34.62 34.71 30.06 34.33 30.06 34.31 34.62 34.68 34.62 34.71"/>
        <polygon class="cls-107" points="34.62 34.73 30.06 34.35 30.06 34.33 34.62 34.71 34.62 34.73"/>
        <polygon class="cls-143" points="34.62 34.75 30.06 34.37 30.06 34.35 34.62 34.73 34.62 34.75"/>
        <polygon class="cls-140" points="34.62 34.77 30.06 34.39 30.06 34.37 34.62 34.75 34.62 34.77"/>
        <polygon class="cls-62" points="34.62 34.79 30.06 34.41 30.06 34.39 34.62 34.77 34.62 34.79"/>
        <polygon class="cls-49" points="34.62 34.81 30.06 34.43 30.06 34.41 34.62 34.79 34.62 34.81"/>
        <polygon class="cls-154" points="34.62 34.83 30.06 34.46 30.06 34.43 34.62 34.81 34.62 34.83"/>
        <polygon class="cls-146" points="34.62 34.85 30.06 34.48 30.06 34.46 34.62 34.83 34.62 34.85"/>
        <polygon class="cls-118" points="34.62 34.87 30.06 34.5 30.06 34.48 34.62 34.85 34.62 34.87"/>
        <polygon class="cls-141" points="34.62 34.89 30.06 34.52 30.06 34.5 34.62 34.87 34.62 34.89"/>
        <polygon class="cls-122" points="34.62 34.92 30.06 34.54 30.06 34.52 34.62 34.89 34.62 34.92"/>
        <polygon class="cls-16" points="34.62 34.94 30.06 34.56 30.06 34.54 34.62 34.92 34.62 34.94"/>
        <polygon class="cls-152" points="34.62 34.96 30.06 34.58 30.06 34.56 34.62 34.94 34.62 34.96"/>
        <polygon class="cls-17" points="34.62 34.98 30.06 34.6 30.06 34.58 34.62 34.96 34.62 34.98"/>
        <polygon class="cls-105" points="34.62 35 30.06 34.62 30.06 34.6 34.62 34.98 34.62 35"/>
        <polygon class="cls-26" points="34.62 35.02 30.06 34.64 30.06 34.62 34.62 35 34.62 35.02"/>
        <polygon class="cls-38" points="34.62 35.04 30.06 34.67 30.06 34.64 34.62 35.02 34.62 35.04"/>
        <polygon class="cls-156" points="34.62 35.06 30.06 34.69 30.06 34.67 34.62 35.04 34.62 35.06"/>
        <polygon class="cls-113" points="34.62 35.08 30.06 34.71 30.06 34.69 34.62 35.06 34.62 35.08"/>
        <polygon class="cls-104" points="34.62 35.1 30.06 34.73 30.06 34.71 34.62 35.08 34.62 35.1"/>
        <polygon class="cls-102" points="34.62 35.13 30.06 34.75 30.06 34.73 34.62 35.1 34.62 35.13"/>
        <polygon class="cls-98" points="34.62 35.15 30.06 34.77 30.06 34.75 34.62 35.13 34.62 35.15"/>
        <polygon class="cls-74" points="34.62 35.17 30.06 34.79 30.06 34.77 34.62 35.15 34.62 35.17"/>
        <polygon class="cls-6" points="34.62 35.19 30.06 34.81 30.06 34.79 34.62 35.17 34.62 35.19"/>
        <polygon class="cls-111" points="34.62 35.21 30.06 34.83 30.06 34.81 34.62 35.19 34.62 35.21"/>
        <polygon class="cls-120" points="34.62 35.23 30.06 34.85 30.06 34.83 34.62 35.21 34.62 35.23"/>
        <polygon class="cls-109" points="34.62 35.25 30.06 34.88 30.06 34.85 34.62 35.23 34.62 35.25"/>
        <polygon class="cls-148" points="34.62 35.27 30.06 34.9 30.06 34.88 34.62 35.25 34.62 35.27"/>
        <polygon class="cls-71" points="34.62 35.29 30.06 34.92 30.06 34.9 34.62 35.27 34.62 35.29"/>
        <polygon class="cls-96" points="34.62 35.31 30.06 34.94 30.06 34.92 34.62 35.29 34.62 35.31"/>
        <polygon class="cls-76" points="34.62 35.34 30.06 34.96 30.06 34.94 34.62 35.31 34.62 35.34"/>
        <polygon class="cls-125" points="34.62 35.36 30.06 34.98 30.06 34.96 34.62 35.34 34.62 35.36"/>
        <polygon class="cls-129" points="34.62 35.38 30.06 35 30.06 34.98 34.62 35.36 34.62 35.38"/>
        <polygon class="cls-99" points="34.62 35.4 30.06 35.02 30.06 35 34.62 35.38 34.62 35.4"/>
        <polygon class="cls-173" points="34.62 35.42 30.06 35.04 30.06 35.02 34.62 35.4 34.62 35.42"/>
        <polygon class="cls-23" points="34.62 35.44 30.06 35.06 30.06 35.04 34.62 35.42 34.62 35.44"/>
        <polygon class="cls-64" points="34.62 35.46 30.06 35.09 30.06 35.06 34.62 35.44 34.62 35.46"/>
        <polygon class="cls-32" points="34.62 35.48 30.06 35.11 30.06 35.09 34.62 35.46 34.62 35.48"/>
        <polygon class="cls-65" points="34.62 35.5 30.06 35.13 30.06 35.11 34.62 35.48 34.62 35.5"/>
        <polygon class="cls-150" points="34.62 35.52 30.06 35.15 30.06 35.13 34.62 35.5 34.62 35.52"/>
        <polygon class="cls-28" points="34.62 35.55 30.06 35.17 30.06 35.15 34.62 35.52 34.62 35.55"/>
        <polygon class="cls-53" points="34.62 35.57 30.06 35.19 30.06 35.17 34.62 35.55 34.62 35.57"/>
        <polygon class="cls-137" points="34.62 35.59 30.06 35.21 30.06 35.19 34.62 35.57 34.62 35.59"/>
        <polygon class="cls-160" points="34.62 35.61 30.06 35.23 30.06 35.21 34.62 35.59 34.62 35.61"/>
        <polygon class="cls-117" points="34.62 35.63 30.06 35.25 30.06 35.23 34.62 35.61 34.62 35.63"/>
        <polygon class="cls-97" points="34.62 35.65 30.06 35.27 30.06 35.25 34.62 35.63 34.62 35.65"/>
        <polygon class="cls-79" points="34.62 35.67 30.06 35.3 30.06 35.27 34.62 35.65 34.62 35.67"/>
        <polygon class="cls-168" points="34.62 35.69 30.06 35.32 30.06 35.3 34.62 35.67 34.62 35.69"/>
        <polygon class="cls-128" points="34.62 35.71 30.06 35.34 30.06 35.32 34.62 35.69 34.62 35.71"/>
        <polygon class="cls-157" points="34.62 35.73 30.06 35.36 30.06 35.34 34.62 35.71 34.62 35.73"/>
        <polygon class="cls-40" points="34.62 35.76 30.06 35.38 30.06 35.36 34.62 35.73 34.62 35.76"/>
        <polygon class="cls-174" points="34.62 35.78 30.06 35.4 30.06 35.38 34.62 35.76 34.62 35.78"/>
        <polygon class="cls-22" points="34.62 35.8 30.06 35.42 30.06 35.4 34.62 35.78 34.62 35.8"/>
        <polygon class="cls-139" points="34.62 35.82 30.06 35.44 30.06 35.42 34.62 35.8 34.62 35.82"/>
        <polygon class="cls-67" points="34.62 35.84 30.06 35.46 30.06 35.44 34.62 35.82 34.62 35.84"/>
        <polygon class="cls-91" points="34.62 35.86 30.06 35.48 30.06 35.46 34.62 35.84 34.62 35.86"/>
        <polygon class="cls-151" points="34.62 35.88 30.06 35.51 30.06 35.48 34.62 35.86 34.62 35.88"/>
        <polygon class="cls-43" points="34.62 35.9 30.06 35.53 30.06 35.51 34.62 35.88 34.62 35.9"/>
        <polygon class="cls-47" points="34.62 35.92 30.06 35.55 30.06 35.53 34.62 35.9 34.62 35.92"/>
        <polygon class="cls-131" points="34.62 35.94 30.06 35.57 30.06 35.55 34.62 35.92 34.62 35.94"/>
        <polygon class="cls-60" points="34.62 35.97 30.06 35.59 30.06 35.57 34.62 35.94 34.62 35.97"/>
        <polygon class="cls-10" points="34.62 35.99 30.06 35.61 30.06 35.59 34.62 35.97 34.62 35.99"/>
        <polygon class="cls-130" points="34.62 36.01 30.06 35.63 30.06 35.61 34.62 35.99 34.62 36.01"/>
        <polygon class="cls-50" points="34.62 36.03 30.06 35.65 30.06 35.63 34.62 36.01 34.62 36.03"/>
        <polygon class="cls-114" points="34.62 36.05 30.06 35.67 30.06 35.65 34.62 36.03 34.62 36.05"/>
        <polygon class="cls-138" points="34.62 36.07 30.06 35.69 30.06 35.67 34.62 36.05 34.62 36.07"/>
        <polygon class="cls-100" points="34.62 36.09 30.06 35.72 30.06 35.69 34.62 36.07 34.62 36.09"/>
        <polygon class="cls-85" points="34.62 36.11 30.06 35.74 30.06 35.72 34.62 36.09 34.62 36.11"/>
        <polygon class="cls-87" points="34.62 36.13 30.06 35.76 30.06 35.74 34.62 36.11 34.62 36.13"/>
        <polygon class="cls-90" points="34.62 36.15 30.06 35.78 30.06 35.76 34.62 36.13 34.62 36.15"/>
        <polygon class="cls-144" points="34.62 36.18 30.06 35.8 30.06 35.78 34.62 36.15 34.62 36.18"/>
        <polygon class="cls-57" points="34.62 36.2 30.06 35.82 30.06 35.8 34.62 36.18 34.62 36.2"/>
        <polygon class="cls-70" points="34.62 36.22 30.06 35.84 30.06 35.82 34.62 36.2 34.62 36.22"/>
        <polygon class="cls-15" points="34.62 36.24 30.06 35.86 30.06 35.84 34.62 36.22 34.62 36.24"/>
        <polygon class="cls-81" points="34.62 36.26 30.06 35.88 30.06 35.86 34.62 36.24 34.62 36.26"/>
        <polygon class="cls-81" points="34.62 36.28 30.06 35.9 30.06 35.88 34.62 36.26 34.62 36.28"/>
        <polygon class="cls-92" points="34.62 36.3 30.06 35.93 30.06 35.9 34.62 36.28 34.62 36.3"/>
        <polygon class="cls-27" points="34.62 36.32 30.06 35.95 30.06 35.93 34.62 36.3 34.62 36.32"/>
        <polygon class="cls-27" points="34.62 36.34 30.06 35.97 30.06 35.95 34.62 36.32 34.62 36.34"/>
        <polygon class="cls-164" points="34.62 36.36 30.06 35.99 30.06 35.97 34.62 36.34 34.62 36.36"/>
        <polygon class="cls-72" points="34.62 36.39 30.06 36.01 30.06 35.99 34.62 36.36 34.62 36.39"/>
        <polygon class="cls-159" points="34.62 36.41 30.06 36.03 30.06 36.01 34.62 36.39 34.62 36.41"/>
        <polygon class="cls-78" points="34.62 36.43 30.06 36.05 30.06 36.03 34.62 36.41 34.62 36.43"/>
        <polygon class="cls-34" points="34.62 36.45 30.06 36.07 30.06 36.05 34.62 36.43 34.62 36.45"/>
        <polygon class="cls-132" points="34.62 36.47 30.06 36.09 30.06 36.07 34.62 36.45 34.62 36.47"/>
        <polygon class="cls-172" points="34.62 36.49 30.06 36.11 30.06 36.09 34.62 36.47 34.62 36.49"/>
        <polygon class="cls-73" points="34.62 36.51 30.06 36.14 30.06 36.11 34.62 36.49 34.62 36.51"/>
        <polygon class="cls-37" points="34.62 36.53 30.06 36.16 30.06 36.14 34.62 36.51 34.62 36.53"/>
        <polygon class="cls-21" points="34.62 36.55 30.06 36.18 30.06 36.16 34.62 36.53 34.62 36.55"/>
        <polygon class="cls-33" points="34.62 36.57 30.06 36.2 30.06 36.18 34.62 36.55 34.62 36.57"/>
        <polygon class="cls-123" points="34.62 36.6 30.06 36.22 30.06 36.2 34.62 36.57 34.62 36.6"/>
        <polygon class="cls-86" points="34.62 36.62 30.06 36.24 30.06 36.22 34.62 36.6 34.62 36.62"/>
        <polygon class="cls-166" points="34.62 36.64 30.06 36.26 30.06 36.24 34.62 36.62 34.62 36.64"/>
        <polygon class="cls-31" points="34.62 36.66 30.06 36.28 30.06 36.26 34.62 36.64 34.62 36.66"/>
        <polygon class="cls-116" points="34.62 36.68 30.06 36.3 30.06 36.28 34.62 36.66 34.62 36.68"/>
        <polygon class="cls-106" points="34.62 36.7 30.06 36.32 30.06 36.3 34.62 36.68 34.62 36.7"/>
        <polygon class="cls-8" points="34.62 36.72 30.06 36.35 30.06 36.32 34.62 36.7 34.62 36.72"/>
        <polygon class="cls-135" points="34.62 36.74 30.06 36.37 30.06 36.35 34.62 36.72 34.62 36.74"/>
        <polygon class="cls-135" points="34.62 36.76 30.06 36.39 30.06 36.37 34.62 36.74 34.62 36.76"/>
        <polygon class="cls-29" points="34.62 36.78 30.06 36.41 30.06 36.39 34.62 36.76 34.62 36.78"/>
        <polygon class="cls-19" points="34.62 36.81 30.06 36.43 30.06 36.41 34.62 36.78 34.62 36.81"/>
        <polygon class="cls-121" points="34.62 36.83 30.06 36.45 30.06 36.43 34.62 36.81 34.62 36.83"/>
        <polygon class="cls-89" points="34.62 36.85 30.06 36.47 30.06 36.45 34.62 36.83 34.62 36.85"/>
        <polygon class="cls-124" points="34.62 36.87 30.06 36.49 30.06 36.47 34.62 36.85 34.62 36.87"/>
        <polygon class="cls-124" points="34.62 36.89 30.06 36.51 30.06 36.49 34.62 36.87 34.62 36.89"/>
        <polygon class="cls-56" points="34.62 36.91 30.06 36.53 30.06 36.51 34.62 36.89 34.62 36.91"/>
        <polygon class="cls-56" points="34.62 36.93 30.06 36.56 30.06 36.53 34.62 36.91 34.62 36.93"/>
        <polygon class="cls-54" points="34.62 36.95 30.06 36.58 30.06 36.56 34.62 36.93 34.62 36.95"/>
        <polygon class="cls-165" points="34.62 36.97 30.06 36.6 30.06 36.58 34.62 36.95 34.62 36.97"/>
        <polygon class="cls-165" points="34.62 36.99 30.06 36.62 30.06 36.6 34.62 36.97 34.62 36.99"/>
        <polygon class="cls-9" points="34.62 37.02 30.06 36.64 30.06 36.62 34.62 36.99 34.62 37.02"/>
        <polygon class="cls-69" points="34.62 37.04 30.06 36.66 30.06 36.64 34.62 37.02 34.62 37.04"/>
        <polygon class="cls-149" points="34.62 37.06 30.06 36.68 30.06 36.66 34.62 37.04 34.62 37.06"/>
        <polygon class="cls-58" points="34.62 37.08 30.06 36.7 30.06 36.68 34.62 37.06 34.62 37.08"/>
        <polygon class="cls-169" points="34.62 37.1 30.06 36.72 30.06 36.7 34.62 37.08 34.62 37.1"/>
        <polygon class="cls-110" points="34.62 37.12 30.06 36.74 30.06 36.72 34.62 37.1 34.62 37.12"/>
        <polygon class="cls-110" points="34.62 37.14 30.06 36.77 30.06 36.74 34.62 37.12 34.62 37.14"/>
        <polygon class="cls-3" points="34.62 37.16 30.06 36.79 30.06 36.77 34.62 37.14 34.62 37.16"/>
        <polygon class="cls-51" points="34.62 37.18 30.06 36.81 30.06 36.79 34.62 37.16 34.62 37.18"/>
        <polygon class="cls-153" points="34.62 37.2 30.06 36.83 30.06 36.81 34.62 37.18 34.62 37.2"/>
        <polygon class="cls-153" points="34.62 37.23 30.06 36.85 30.06 36.83 34.62 37.2 34.62 37.23"/>
        <polygon class="cls-84" points="34.62 37.25 30.06 36.87 30.06 36.85 34.62 37.23 34.62 37.25"/>
        <polygon class="cls-46" points="34.62 37.27 30.06 36.89 30.06 36.87 34.62 37.25 34.62 37.27"/>
        <polygon class="cls-46" points="34.62 37.29 30.06 36.91 30.06 36.89 34.62 37.27 34.62 37.29"/>
        <polygon class="cls-94" points="34.62 37.31 30.06 36.93 30.06 36.91 34.62 37.29 34.62 37.31"/>
        <polygon class="cls-94" points="34.62 37.33 30.06 36.95 30.06 36.93 34.62 37.31 34.62 37.33"/>
        <polygon class="cls-103" points="34.62 37.35 30.06 36.98 30.06 36.95 34.62 37.33 34.62 37.35"/>
        <polygon class="cls-14" points="34.62 37.37 30.06 37 30.06 36.98 34.62 37.35 34.62 37.37"/>
        <polygon class="cls-101" points="34.62 37.39 30.06 37.02 30.06 37 34.62 37.37 34.62 37.39"/>
        <polygon class="cls-101" points="34.62 37.42 30.06 37.04 30.06 37.02 34.62 37.39 34.62 37.42"/>
        <polygon class="cls-41" points="34.62 37.44 30.06 37.06 30.06 37.04 34.62 37.42 34.62 37.44"/>
        <polygon class="cls-170" points="34.62 37.46 30.06 37.08 30.06 37.06 34.62 37.44 34.62 37.46"/>
        <polygon class="cls-170" points="34.62 37.48 30.06 37.1 30.06 37.08 34.62 37.46 34.62 37.48"/>
        <polygon class="cls-112" points="34.62 37.5 30.06 37.12 30.06 37.1 34.62 37.48 34.62 37.5"/>
        <polygon class="cls-55" points="34.62 37.52 30.06 37.14 30.06 37.12 34.62 37.5 34.62 37.52"/>
        <polygon class="cls-30" points="34.62 37.54 30.06 37.16 30.06 37.14 34.62 37.52 34.62 37.54"/>
        <polygon class="cls-24" points="34.62 37.56 30.06 37.19 30.06 37.16 34.62 37.54 34.62 37.56"/>
        <polygon class="cls-24" points="34.62 37.58 30.06 37.21 30.06 37.19 34.62 37.56 34.62 37.58"/>
        <polygon class="cls-162" points="34.62 37.6 30.06 37.23 30.06 37.21 34.62 37.58 34.62 37.6"/>
        <polygon class="cls-126" points="34.62 37.62 30.06 37.25 30.06 37.23 34.62 37.6 34.62 37.62"/>
        <polygon class="cls-126" points="34.62 37.65 30.06 37.27 30.06 37.25 34.62 37.62 34.62 37.65"/>
        <polygon class="cls-126" points="34.62 37.67 30.06 37.29 30.06 37.27 34.62 37.65 34.62 37.67"/>
        <polygon class="cls-88" points="34.62 37.69 30.06 37.31 30.06 37.29 34.62 37.67 34.62 37.69"/>
        <polygon class="cls-88" points="34.62 37.71 30.06 37.33 30.06 37.31 34.62 37.69 34.62 37.71"/>
        <polygon class="cls-77" points="34.62 37.73 30.06 37.35 30.06 37.33 34.62 37.71 34.62 37.73"/>
        <polygon class="cls-77" points="34.62 37.75 30.06 37.37 30.06 37.35 34.62 37.73 34.62 37.75"/>
        <polygon class="cls-136" points="34.62 37.77 30.06 37.4 30.06 37.37 34.62 37.75 34.62 37.77"/>
        <polygon class="cls-4" points="34.62 37.79 30.06 37.42 30.06 37.4 34.62 37.77 34.62 37.79"/>
        <polygon class="cls-4" points="34.62 37.81 30.06 37.44 30.06 37.42 34.62 37.79 34.62 37.81"/>
        <polygon class="cls-44" points="34.62 37.84 30.06 37.46 30.06 37.44 34.62 37.81 34.62 37.84"/>
        <polygon class="cls-59" points="34.62 37.86 30.06 37.48 30.06 37.46 34.62 37.84 34.62 37.86"/>
        <polygon class="cls-83" points="34.62 37.88 30.06 37.5 30.06 37.48 34.62 37.86 34.62 37.88"/>
        <polygon class="cls-83" points="34.62 37.9 30.06 37.52 30.06 37.5 34.62 37.88 34.62 37.9"/>
        <polygon class="cls-83" points="34.62 37.92 30.06 37.54 30.06 37.52 34.62 37.9 34.62 37.92"/>
        <polygon class="cls-171" points="34.62 37.94 30.06 37.56 30.06 37.54 34.62 37.92 34.62 37.94"/>
        <polygon class="cls-11" points="34.62 37.96 30.06 37.58 30.06 37.56 34.62 37.94 34.62 37.96"/>
        <polygon class="cls-11" points="34.62 37.98 30.06 37.61 30.06 37.58 34.62 37.96 34.62 37.98"/>
        <polygon class="cls-167" points="34.62 38 30.06 37.63 30.06 37.61 34.62 37.98 34.62 38"/>
        <polygon class="cls-134" points="34.62 38.02 30.06 37.65 30.06 37.63 34.62 38 34.62 38.02"/>
        <polygon class="cls-134" points="34.62 38.05 30.06 37.67 30.06 37.65 34.62 38.02 34.62 38.05"/>
        <polygon class="cls-134" points="34.62 38.07 30.06 37.69 30.06 37.67 34.62 38.05 34.62 38.07"/>
        <polygon class="cls-134" points="34.62 38.09 30.06 37.71 30.06 37.69 34.62 38.07 34.62 38.09"/>
        <polygon class="cls-39" points="34.62 38.11 30.06 37.73 30.06 37.71 34.62 38.09 34.62 38.11"/>
        <polygon class="cls-95" points="34.62 38.13 30.06 37.75 30.06 37.73 34.62 38.11 34.62 38.13"/>
        <polygon class="cls-20" points="34.56 38.15 30.06 37.77 30.06 37.75 34.62 38.13 34.62 38.15 34.56 38.15"/>
        <polygon class="cls-20" points="34.31 38.15 30.06 37.79 30.06 37.77 34.56 38.15 34.31 38.15"/>
        <polygon class="cls-20" points="34.05 38.15 30.06 37.82 30.06 37.79 34.31 38.15 34.05 38.15"/>
        <polygon class="cls-20" points="33.8 38.15 30.06 37.84 30.06 37.82 34.05 38.15 33.8 38.15"/>
        <polygon class="cls-20" points="33.54 38.15 30.06 37.86 30.06 37.84 33.8 38.15 33.54 38.15"/>
        <polygon class="cls-20" points="33.29 38.15 30.06 37.88 30.06 37.86 33.54 38.15 33.29 38.15"/>
        <polygon class="cls-66" points="33.03 38.15 30.06 37.9 30.06 37.88 33.29 38.15 33.03 38.15"/>
        <polygon class="cls-145" points="32.78 38.15 30.06 37.92 30.06 37.9 33.03 38.15 32.78 38.15"/>
        <polygon class="cls-145" points="32.53 38.15 30.06 37.94 30.06 37.92 32.78 38.15 32.53 38.15"/>
        <polygon class="cls-145" points="32.27 38.15 30.06 37.96 30.06 37.94 32.53 38.15 32.27 38.15"/>
        <polygon class="cls-145" points="32.02 38.15 30.06 37.98 30.06 37.96 32.27 38.15 32.02 38.15"/>
        <polygon class="cls-145" points="31.76 38.15 30.06 38 30.06 37.98 32.02 38.15 31.76 38.15"/>
        <polygon class="cls-145" points="31.51 38.15 30.06 38.03 30.06 38 31.76 38.15 31.51 38.15"/>
        <polygon class="cls-145" points="31.25 38.15 30.06 38.05 30.06 38.03 31.51 38.15 31.25 38.15"/>
        <polygon class="cls-35" points="31 38.15 30.06 38.07 30.06 38.05 31.25 38.15 31 38.15"/>
        <polygon class="cls-35" points="30.75 38.15 30.06 38.09 30.06 38.07 31 38.15 30.75 38.15"/>
        <polygon class="cls-52" points="30.49 38.15 30.06 38.11 30.06 38.09 30.75 38.15 30.49 38.15"/>
        <polygon class="cls-52" points="30.24 38.15 30.06 38.13 30.06 38.11 30.49 38.15 30.24 38.15"/>
        <polygon class="cls-52" points="30.06 38.13 30.24 38.15 30.06 38.15 30.06 38.13"/>
      </g>
      <path class="cls-42" d="M32.24,37.37c-.64-.05-1.14-.7-1.08-1.4.06-.71.65-1.26,1.29-1.21.64.05,1.14.7,1.08,1.4-.06.71-.65,1.26-1.29,1.21Z"/>
      <path class="cls-127" d="M32.29,37.12c-.45-.04-.91-.52-.86-1.12.05-.6.59-1.01,1.03-.97.45.04.91.53.86,1.13-.05.6-.59,1.01-1.03.97Z"/>
      <g class="cls-115">
        <path class="cls-147" d="M35.88,38.92s-.05,0-.17.04c-.08-1.3-.33-3.09-1.07-3.45-1.09-.55-3.55-1.36-6.7.57-.32-.57-.48-.99-.48-.99,3.43-2.45,6.13-1.57,7.3-.99,1.18.59,1.12,4.81,1.12,4.81Z"/>
      </g>
      <path class="cls-93" d="M31.93,35.64c-.02.22-.24.38-.5.35-.26-.02-.45-.22-.43-.43.02-.22.24-.38.5-.36.26.02.45.21.44.43Z"/>
      <path class="cls-93" d="M33.37,36.89c0,.11-.12.19-.25.18-.13,0-.23-.11-.22-.22,0-.11.12-.19.25-.18.13,0,.23.11.22.22Z"/>
      <path class="cls-158" d="M42.83,32.86s.38-.58,1.16-1.18c.39-.3.88-.62,1.45-.86.57-.24,1.21-.42,1.87-.51.66-.07,1.32-.03,1.92.05.6.11,1.14.29,1.58.48.45.15.78.4,1.02.53.23.15.37.23.37.23,0,0-.15-.04-.42-.1-.26-.07-.63-.18-1.09-.24-.23-.03-.46-.1-.72-.11-.26-.02-.52-.04-.8-.06-.55,0-1.14.02-1.71.15-.57.1-1.12.28-1.61.5-.49.23-.94.46-1.3.71-.74.49-1.14.89-1.14.89-.15.15-.39.15-.54,0-.13-.13-.15-.33-.05-.48h0Z"/>
      <path class="cls-93" d="M52.6,35.1s-1.46,3.64-3.73,3.99c-2.27.35-4.68-.16-4.68-.16,0,0-.06-4.22,1.12-4.81,1.18-.59,3.87-1.46,7.3.98Z"/>
      <g class="cls-115">
        <path class="cls-147" d="M44.18,38.92s.05,0,.17.04c.08-1.3.34-3.09,1.07-3.45,1.09-.55,3.55-1.36,6.7.57.32-.57.48-.99.48-.99-3.43-2.45-6.13-1.57-7.3-.99-1.18.59-1.12,4.81-1.12,4.81Z"/>
      </g>
      <g class="cls-75">
        <polygon class="cls-119" points="50.01 34.33 45.46 33.96 45.46 33.53 50.01 33.53 50.01 34.33"/>
        <polygon class="cls-119" points="50.01 34.35 45.46 33.98 45.46 33.96 50.01 34.33 50.01 34.35"/>
        <polygon class="cls-163" points="50.01 34.37 45.46 34 45.46 33.98 50.01 34.35 50.01 34.37"/>
        <polygon class="cls-155" points="50.01 34.4 45.46 34.02 45.46 34 50.01 34.37 50.01 34.4"/>
        <polygon class="cls-82" points="50.01 34.42 45.46 34.04 45.46 34.02 50.01 34.4 50.01 34.42"/>
        <polygon class="cls-13" points="50.01 34.44 45.46 34.06 45.46 34.04 50.01 34.42 50.01 34.44"/>
        <polygon class="cls-133" points="50.01 34.46 45.46 34.08 45.46 34.06 50.01 34.44 50.01 34.46"/>
        <polygon class="cls-63" points="50.01 34.48 45.46 34.1 45.46 34.08 50.01 34.46 50.01 34.48"/>
        <polygon class="cls-2" points="50.01 34.5 45.46 34.12 45.46 34.1 50.01 34.48 50.01 34.5"/>
        <polygon class="cls-12" points="50.01 34.52 45.46 34.15 45.46 34.12 50.01 34.5 50.01 34.52"/>
        <polygon class="cls-68" points="50.01 34.54 45.46 34.17 45.46 34.15 50.01 34.52 50.01 34.54"/>
        <polygon class="cls-48" points="50.01 34.56 45.46 34.19 45.46 34.17 50.01 34.54 50.01 34.56"/>
        <polygon class="cls-61" points="50.01 34.58 45.46 34.21 45.46 34.19 50.01 34.56 50.01 34.58"/>
        <polygon class="cls-107" points="50.01 34.61 45.46 34.23 45.46 34.21 50.01 34.58 50.01 34.61"/>
        <polygon class="cls-143" points="50.01 34.63 45.46 34.25 45.46 34.23 50.01 34.61 50.01 34.63"/>
        <polygon class="cls-140" points="50.01 34.65 45.46 34.27 45.46 34.25 50.01 34.63 50.01 34.65"/>
        <polygon class="cls-62" points="50.01 34.67 45.46 34.29 45.46 34.27 50.01 34.65 50.01 34.67"/>
        <polygon class="cls-49" points="50.01 34.69 45.46 34.31 45.46 34.29 50.01 34.67 50.01 34.69"/>
        <polygon class="cls-154" points="50.01 34.71 45.46 34.33 45.46 34.31 50.01 34.69 50.01 34.71"/>
        <polygon class="cls-146" points="50.01 34.73 45.46 34.36 45.46 34.33 50.01 34.71 50.01 34.73"/>
        <polygon class="cls-118" points="50.01 34.75 45.46 34.38 45.46 34.36 50.01 34.73 50.01 34.75"/>
        <polygon class="cls-141" points="50.01 34.77 45.46 34.4 45.46 34.38 50.01 34.75 50.01 34.77"/>
        <polygon class="cls-122" points="50.01 34.79 45.46 34.42 45.46 34.4 50.01 34.77 50.01 34.79"/>
        <polygon class="cls-16" points="50.01 34.82 45.46 34.44 45.46 34.42 50.01 34.79 50.01 34.82"/>
        <polygon class="cls-152" points="50.01 34.84 45.46 34.46 45.46 34.44 50.01 34.82 50.01 34.84"/>
        <polygon class="cls-17" points="50.01 34.86 45.46 34.48 45.46 34.46 50.01 34.84 50.01 34.86"/>
        <polygon class="cls-105" points="50.01 34.88 45.46 34.5 45.46 34.48 50.01 34.86 50.01 34.88"/>
        <polygon class="cls-26" points="50.01 34.9 45.46 34.52 45.46 34.5 50.01 34.88 50.01 34.9"/>
        <polygon class="cls-38" points="50.01 34.92 45.46 34.54 45.46 34.52 50.01 34.9 50.01 34.92"/>
        <polygon class="cls-156" points="50.01 34.94 45.46 34.57 45.46 34.54 50.01 34.92 50.01 34.94"/>
        <polygon class="cls-113" points="50.01 34.96 45.46 34.59 45.46 34.57 50.01 34.94 50.01 34.96"/>
        <polygon class="cls-104" points="50.01 34.98 45.46 34.61 45.46 34.59 50.01 34.96 50.01 34.98"/>
        <polygon class="cls-102" points="50.01 35 45.46 34.63 45.46 34.61 50.01 34.98 50.01 35"/>
        <polygon class="cls-98" points="50.01 35.03 45.46 34.65 45.46 34.63 50.01 35 50.01 35.03"/>
        <polygon class="cls-74" points="50.01 35.05 45.46 34.67 45.46 34.65 50.01 35.03 50.01 35.05"/>
        <polygon class="cls-6" points="50.01 35.07 45.46 34.69 45.46 34.67 50.01 35.05 50.01 35.07"/>
        <polygon class="cls-111" points="50.01 35.09 45.46 34.71 45.46 34.69 50.01 35.07 50.01 35.09"/>
        <polygon class="cls-120" points="50.01 35.11 45.46 34.73 45.46 34.71 50.01 35.09 50.01 35.11"/>
        <polygon class="cls-109" points="50.01 35.13 45.46 34.75 45.46 34.73 50.01 35.11 50.01 35.13"/>
        <polygon class="cls-148" points="50.01 35.15 45.46 34.78 45.46 34.75 50.01 35.13 50.01 35.15"/>
        <polygon class="cls-71" points="50.01 35.17 45.46 34.8 45.46 34.78 50.01 35.15 50.01 35.17"/>
        <polygon class="cls-96" points="50.01 35.19 45.46 34.82 45.46 34.8 50.01 35.17 50.01 35.19"/>
        <polygon class="cls-76" points="50.01 35.21 45.46 34.84 45.46 34.82 50.01 35.19 50.01 35.21"/>
        <polygon class="cls-125" points="50.01 35.24 45.46 34.86 45.46 34.84 50.01 35.21 50.01 35.24"/>
        <polygon class="cls-129" points="50.01 35.26 45.46 34.88 45.46 34.86 50.01 35.24 50.01 35.26"/>
        <polygon class="cls-99" points="50.01 35.28 45.46 34.9 45.46 34.88 50.01 35.26 50.01 35.28"/>
        <polygon class="cls-173" points="50.01 35.3 45.46 34.92 45.46 34.9 50.01 35.28 50.01 35.3"/>
        <polygon class="cls-23" points="50.01 35.32 45.46 34.94 45.46 34.92 50.01 35.3 50.01 35.32"/>
        <polygon class="cls-64" points="50.01 35.34 45.46 34.96 45.46 34.94 50.01 35.32 50.01 35.34"/>
        <polygon class="cls-32" points="50.01 35.36 45.46 34.99 45.46 34.96 50.01 35.34 50.01 35.36"/>
        <polygon class="cls-65" points="50.01 35.38 45.46 35.01 45.46 34.99 50.01 35.36 50.01 35.38"/>
        <polygon class="cls-150" points="50.01 35.4 45.46 35.03 45.46 35.01 50.01 35.38 50.01 35.4"/>
        <polygon class="cls-28" points="50.01 35.42 45.46 35.05 45.46 35.03 50.01 35.4 50.01 35.42"/>
        <polygon class="cls-53" points="50.01 35.45 45.46 35.07 45.46 35.05 50.01 35.42 50.01 35.45"/>
        <polygon class="cls-137" points="50.01 35.47 45.46 35.09 45.46 35.07 50.01 35.45 50.01 35.47"/>
        <polygon class="cls-160" points="50.01 35.49 45.46 35.11 45.46 35.09 50.01 35.47 50.01 35.49"/>
        <polygon class="cls-117" points="50.01 35.51 45.46 35.13 45.46 35.11 50.01 35.49 50.01 35.51"/>
        <polygon class="cls-97" points="50.01 35.53 45.46 35.15 45.46 35.13 50.01 35.51 50.01 35.53"/>
        <polygon class="cls-79" points="50.01 35.55 45.46 35.17 45.46 35.15 50.01 35.53 50.01 35.55"/>
        <polygon class="cls-168" points="50.01 35.57 45.46 35.2 45.46 35.17 50.01 35.55 50.01 35.57"/>
        <polygon class="cls-128" points="50.01 35.59 45.46 35.22 45.46 35.2 50.01 35.57 50.01 35.59"/>
        <polygon class="cls-157" points="50.01 35.61 45.46 35.24 45.46 35.22 50.01 35.59 50.01 35.61"/>
        <polygon class="cls-40" points="50.01 35.63 45.46 35.26 45.46 35.24 50.01 35.61 50.01 35.63"/>
        <polygon class="cls-174" points="50.01 35.66 45.46 35.28 45.46 35.26 50.01 35.63 50.01 35.66"/>
        <polygon class="cls-22" points="50.01 35.68 45.46 35.3 45.46 35.28 50.01 35.66 50.01 35.68"/>
        <polygon class="cls-139" points="50.01 35.7 45.46 35.32 45.46 35.3 50.01 35.68 50.01 35.7"/>
        <polygon class="cls-67" points="50.01 35.72 45.46 35.34 45.46 35.32 50.01 35.7 50.01 35.72"/>
        <polygon class="cls-91" points="50.01 35.74 45.46 35.36 45.46 35.34 50.01 35.72 50.01 35.74"/>
        <polygon class="cls-151" points="50.01 35.76 45.46 35.38 45.46 35.36 50.01 35.74 50.01 35.76"/>
        <polygon class="cls-43" points="50.01 35.78 45.46 35.41 45.46 35.38 50.01 35.76 50.01 35.78"/>
        <polygon class="cls-47" points="50.01 35.8 45.46 35.43 45.46 35.41 50.01 35.78 50.01 35.8"/>
        <polygon class="cls-131" points="50.01 35.82 45.46 35.45 45.46 35.43 50.01 35.8 50.01 35.82"/>
        <polygon class="cls-60" points="50.01 35.84 45.46 35.47 45.46 35.45 50.01 35.82 50.01 35.84"/>
        <polygon class="cls-10" points="50.01 35.87 45.46 35.49 45.46 35.47 50.01 35.84 50.01 35.87"/>
        <polygon class="cls-130" points="50.01 35.89 45.46 35.51 45.46 35.49 50.01 35.87 50.01 35.89"/>
        <polygon class="cls-50" points="50.01 35.91 45.46 35.53 45.46 35.51 50.01 35.89 50.01 35.91"/>
        <polygon class="cls-114" points="50.01 35.93 45.46 35.55 45.46 35.53 50.01 35.91 50.01 35.93"/>
        <polygon class="cls-138" points="50.01 35.95 45.46 35.57 45.46 35.55 50.01 35.93 50.01 35.95"/>
        <polygon class="cls-100" points="50.01 35.97 45.46 35.59 45.46 35.57 50.01 35.95 50.01 35.97"/>
        <polygon class="cls-85" points="50.01 35.99 45.46 35.62 45.46 35.59 50.01 35.97 50.01 35.99"/>
        <polygon class="cls-87" points="50.01 36.01 45.46 35.64 45.46 35.62 50.01 35.99 50.01 36.01"/>
        <polygon class="cls-90" points="50.01 36.03 45.46 35.66 45.46 35.64 50.01 36.01 50.01 36.03"/>
        <polygon class="cls-144" points="50.01 36.05 45.46 35.68 45.46 35.66 50.01 36.03 50.01 36.05"/>
        <polygon class="cls-57" points="50.01 36.08 45.46 35.7 45.46 35.68 50.01 36.05 50.01 36.08"/>
        <polygon class="cls-70" points="50.01 36.1 45.46 35.72 45.46 35.7 50.01 36.08 50.01 36.1"/>
        <polygon class="cls-15" points="50.01 36.12 45.46 35.74 45.46 35.72 50.01 36.1 50.01 36.12"/>
        <polygon class="cls-81" points="50.01 36.14 45.46 35.76 45.46 35.74 50.01 36.12 50.01 36.14"/>
        <polygon class="cls-81" points="50.01 36.16 45.46 35.78 45.46 35.76 50.01 36.14 50.01 36.16"/>
        <polygon class="cls-92" points="50.01 36.18 45.46 35.8 45.46 35.78 50.01 36.16 50.01 36.18"/>
        <polygon class="cls-27" points="50.01 36.2 45.46 35.83 45.46 35.8 50.01 36.18 50.01 36.2"/>
        <polygon class="cls-27" points="50.01 36.22 45.46 35.85 45.46 35.83 50.01 36.2 50.01 36.22"/>
        <polygon class="cls-164" points="50.01 36.24 45.46 35.87 45.46 35.85 50.01 36.22 50.01 36.24"/>
        <polygon class="cls-72" points="50.01 36.26 45.46 35.89 45.46 35.87 50.01 36.24 50.01 36.26"/>
        <polygon class="cls-159" points="50.01 36.29 45.46 35.91 45.46 35.89 50.01 36.26 50.01 36.29"/>
        <polygon class="cls-78" points="50.01 36.31 45.46 35.93 45.46 35.91 50.01 36.29 50.01 36.31"/>
        <polygon class="cls-34" points="50.01 36.33 45.46 35.95 45.46 35.93 50.01 36.31 50.01 36.33"/>
        <polygon class="cls-132" points="50.01 36.35 45.46 35.97 45.46 35.95 50.01 36.33 50.01 36.35"/>
        <polygon class="cls-172" points="50.01 36.37 45.46 35.99 45.46 35.97 50.01 36.35 50.01 36.37"/>
        <polygon class="cls-73" points="50.01 36.39 45.46 36.01 45.46 35.99 50.01 36.37 50.01 36.39"/>
        <polygon class="cls-37" points="50.01 36.41 45.46 36.04 45.46 36.01 50.01 36.39 50.01 36.41"/>
        <polygon class="cls-21" points="50.01 36.43 45.46 36.06 45.46 36.04 50.01 36.41 50.01 36.43"/>
        <polygon class="cls-33" points="50.01 36.45 45.46 36.08 45.46 36.06 50.01 36.43 50.01 36.45"/>
        <polygon class="cls-123" points="50.01 36.47 45.46 36.1 45.46 36.08 50.01 36.45 50.01 36.47"/>
        <polygon class="cls-86" points="50.01 36.5 45.46 36.12 45.46 36.1 50.01 36.47 50.01 36.5"/>
        <polygon class="cls-166" points="50.01 36.52 45.46 36.14 45.46 36.12 50.01 36.5 50.01 36.52"/>
        <polygon class="cls-31" points="50.01 36.54 45.46 36.16 45.46 36.14 50.01 36.52 50.01 36.54"/>
        <polygon class="cls-116" points="50.01 36.56 45.46 36.18 45.46 36.16 50.01 36.54 50.01 36.56"/>
        <polygon class="cls-106" points="50.01 36.58 45.46 36.2 45.46 36.18 50.01 36.56 50.01 36.58"/>
        <polygon class="cls-8" points="50.01 36.6 45.46 36.22 45.46 36.2 50.01 36.58 50.01 36.6"/>
        <polygon class="cls-135" points="50.01 36.62 45.46 36.25 45.46 36.22 50.01 36.6 50.01 36.62"/>
        <polygon class="cls-135" points="50.01 36.64 45.46 36.27 45.46 36.25 50.01 36.62 50.01 36.64"/>
        <polygon class="cls-29" points="50.01 36.66 45.46 36.29 45.46 36.27 50.01 36.64 50.01 36.66"/>
        <polygon class="cls-19" points="50.01 36.68 45.46 36.31 45.46 36.29 50.01 36.66 50.01 36.68"/>
        <polygon class="cls-121" points="50.01 36.71 45.46 36.33 45.46 36.31 50.01 36.68 50.01 36.71"/>
        <polygon class="cls-89" points="50.01 36.73 45.46 36.35 45.46 36.33 50.01 36.71 50.01 36.73"/>
        <polygon class="cls-124" points="50.01 36.75 45.46 36.37 45.46 36.35 50.01 36.73 50.01 36.75"/>
        <polygon class="cls-124" points="50.01 36.77 45.46 36.39 45.46 36.37 50.01 36.75 50.01 36.77"/>
        <polygon class="cls-56" points="50.01 36.79 45.46 36.41 45.46 36.39 50.01 36.77 50.01 36.79"/>
        <polygon class="cls-56" points="50.01 36.81 45.46 36.43 45.46 36.41 50.01 36.79 50.01 36.81"/>
        <polygon class="cls-54" points="50.01 36.83 45.46 36.46 45.46 36.43 50.01 36.81 50.01 36.83"/>
        <polygon class="cls-165" points="50.01 36.85 45.46 36.48 45.46 36.46 50.01 36.83 50.01 36.85"/>
        <polygon class="cls-165" points="50.01 36.87 45.46 36.5 45.46 36.48 50.01 36.85 50.01 36.87"/>
        <polygon class="cls-9" points="50.01 36.89 45.46 36.52 45.46 36.5 50.01 36.87 50.01 36.89"/>
        <polygon class="cls-69" points="50.01 36.92 45.46 36.54 45.46 36.52 50.01 36.89 50.01 36.92"/>
        <polygon class="cls-149" points="50.01 36.94 45.46 36.56 45.46 36.54 50.01 36.92 50.01 36.94"/>
        <polygon class="cls-58" points="50.01 36.96 45.46 36.58 45.46 36.56 50.01 36.94 50.01 36.96"/>
        <polygon class="cls-169" points="50.01 36.98 45.46 36.6 45.46 36.58 50.01 36.96 50.01 36.98"/>
        <polygon class="cls-110" points="50.01 37 45.46 36.62 45.46 36.6 50.01 36.98 50.01 37"/>
        <polygon class="cls-110" points="50.01 37.02 45.46 36.64 45.46 36.62 50.01 37 50.01 37.02"/>
        <polygon class="cls-3" points="50.01 37.04 45.46 36.67 45.46 36.64 50.01 37.02 50.01 37.04"/>
        <polygon class="cls-51" points="50.01 37.06 45.46 36.69 45.46 36.67 50.01 37.04 50.01 37.06"/>
        <polygon class="cls-153" points="50.01 37.08 45.46 36.71 45.46 36.69 50.01 37.06 50.01 37.08"/>
        <polygon class="cls-153" points="50.01 37.1 45.46 36.73 45.46 36.71 50.01 37.08 50.01 37.1"/>
        <polygon class="cls-84" points="50.01 37.13 45.46 36.75 45.46 36.73 50.01 37.1 50.01 37.13"/>
        <polygon class="cls-46" points="50.01 37.15 45.46 36.77 45.46 36.75 50.01 37.13 50.01 37.15"/>
        <polygon class="cls-46" points="50.01 37.17 45.46 36.79 45.46 36.77 50.01 37.15 50.01 37.17"/>
        <polygon class="cls-94" points="50.01 37.19 45.46 36.81 45.46 36.79 50.01 37.17 50.01 37.19"/>
        <polygon class="cls-94" points="50.01 37.21 45.46 36.83 45.46 36.81 50.01 37.19 50.01 37.21"/>
        <polygon class="cls-103" points="50.01 37.23 45.46 36.85 45.46 36.83 50.01 37.21 50.01 37.23"/>
        <polygon class="cls-14" points="50.01 37.25 45.46 36.88 45.46 36.85 50.01 37.23 50.01 37.25"/>
        <polygon class="cls-101" points="50.01 37.27 45.46 36.9 45.46 36.88 50.01 37.25 50.01 37.27"/>
        <polygon class="cls-101" points="50.01 37.29 45.46 36.92 45.46 36.9 50.01 37.27 50.01 37.29"/>
        <polygon class="cls-41" points="50.01 37.32 45.46 36.94 45.46 36.92 50.01 37.29 50.01 37.32"/>
        <polygon class="cls-170" points="50.01 37.34 45.46 36.96 45.46 36.94 50.01 37.32 50.01 37.34"/>
        <polygon class="cls-170" points="50.01 37.36 45.46 36.98 45.46 36.96 50.01 37.34 50.01 37.36"/>
        <polygon class="cls-112" points="50.01 37.38 45.46 37 45.46 36.98 50.01 37.36 50.01 37.38"/>
        <polygon class="cls-55" points="50.01 37.4 45.46 37.02 45.46 37 50.01 37.38 50.01 37.4"/>
        <polygon class="cls-30" points="50.01 37.42 45.46 37.04 45.46 37.02 50.01 37.4 50.01 37.42"/>
        <polygon class="cls-24" points="50.01 37.44 45.46 37.06 45.46 37.04 50.01 37.42 50.01 37.44"/>
        <polygon class="cls-24" points="50.01 37.46 45.46 37.09 45.46 37.06 50.01 37.44 50.01 37.46"/>
        <polygon class="cls-162" points="50.01 37.48 45.46 37.11 45.46 37.09 50.01 37.46 50.01 37.48"/>
        <polygon class="cls-126" points="50.01 37.5 45.46 37.13 45.46 37.11 50.01 37.48 50.01 37.5"/>
        <polygon class="cls-126" points="50.01 37.52 45.46 37.15 45.46 37.13 50.01 37.5 50.01 37.52"/>
        <polygon class="cls-126" points="50.01 37.55 45.46 37.17 45.46 37.15 50.01 37.52 50.01 37.55"/>
        <polygon class="cls-88" points="50.01 37.57 45.46 37.19 45.46 37.17 50.01 37.55 50.01 37.57"/>
        <polygon class="cls-88" points="50.01 37.59 45.46 37.21 45.46 37.19 50.01 37.57 50.01 37.59"/>
        <polygon class="cls-77" points="50.01 37.61 45.46 37.23 45.46 37.21 50.01 37.59 50.01 37.61"/>
        <polygon class="cls-77" points="50.01 37.63 45.46 37.25 45.46 37.23 50.01 37.61 50.01 37.63"/>
        <polygon class="cls-136" points="50.01 37.65 45.46 37.27 45.46 37.25 50.01 37.63 50.01 37.65"/>
        <polygon class="cls-4" points="50.01 37.67 45.46 37.3 45.46 37.27 50.01 37.65 50.01 37.67"/>
        <polygon class="cls-4" points="50.01 37.69 45.46 37.32 45.46 37.3 50.01 37.67 50.01 37.69"/>
        <polygon class="cls-44" points="50.01 37.71 45.46 37.34 45.46 37.32 50.01 37.69 50.01 37.71"/>
        <polygon class="cls-59" points="50.01 37.74 45.46 37.36 45.46 37.34 50.01 37.71 50.01 37.74"/>
        <polygon class="cls-83" points="50.01 37.76 45.46 37.38 45.46 37.36 50.01 37.74 50.01 37.76"/>
        <polygon class="cls-83" points="50.01 37.78 45.46 37.4 45.46 37.38 50.01 37.76 50.01 37.78"/>
        <polygon class="cls-83" points="50.01 37.8 45.46 37.42 45.46 37.4 50.01 37.78 50.01 37.8"/>
        <polygon class="cls-171" points="50.01 37.82 45.46 37.44 45.46 37.42 50.01 37.8 50.01 37.82"/>
        <polygon class="cls-11" points="50.01 37.84 45.46 37.46 45.46 37.44 50.01 37.82 50.01 37.84"/>
        <polygon class="cls-11" points="50.01 37.86 45.46 37.48 45.46 37.46 50.01 37.84 50.01 37.86"/>
        <polygon class="cls-167" points="50.01 37.88 45.46 37.51 45.46 37.48 50.01 37.86 50.01 37.88"/>
        <polygon class="cls-134" points="50.01 37.9 45.46 37.53 45.46 37.51 50.01 37.88 50.01 37.9"/>
        <polygon class="cls-134" points="50.01 37.92 45.46 37.55 45.46 37.53 50.01 37.9 50.01 37.92"/>
        <polygon class="cls-134" points="50.01 37.95 45.46 37.57 45.46 37.55 50.01 37.92 50.01 37.95"/>
        <polygon class="cls-134" points="50.01 37.97 45.46 37.59 45.46 37.57 50.01 37.95 50.01 37.97"/>
        <polygon class="cls-39" points="50.01 37.99 45.46 37.61 45.46 37.59 50.01 37.97 50.01 37.99"/>
        <polygon class="cls-95" points="50.01 38.01 45.46 37.63 45.46 37.61 50.01 37.99 50.01 38.01"/>
        <polygon class="cls-20" points="49.96 38.02 45.46 37.65 45.46 37.63 50.01 38.01 50.01 38.02 49.96 38.02"/>
        <polygon class="cls-20" points="49.71 38.02 45.46 37.67 45.46 37.65 49.96 38.02 49.71 38.02"/>
        <polygon class="cls-20" points="49.45 38.02 45.46 37.69 45.46 37.67 49.71 38.02 49.45 38.02"/>
        <polygon class="cls-20" points="49.2 38.02 45.46 37.72 45.46 37.69 49.45 38.02 49.2 38.02"/>
        <polygon class="cls-20" points="48.94 38.02 45.46 37.74 45.46 37.72 49.2 38.02 48.94 38.02"/>
        <polygon class="cls-20" points="48.69 38.02 45.46 37.76 45.46 37.74 48.94 38.02 48.69 38.02"/>
        <polygon class="cls-66" points="48.43 38.02 45.46 37.78 45.46 37.76 48.69 38.02 48.43 38.02"/>
        <polygon class="cls-145" points="48.18 38.02 45.46 37.8 45.46 37.78 48.43 38.02 48.18 38.02"/>
        <polygon class="cls-145" points="47.92 38.02 45.46 37.82 45.46 37.8 48.18 38.02 47.92 38.02"/>
        <polygon class="cls-145" points="47.67 38.02 45.46 37.84 45.46 37.82 47.92 38.02 47.67 38.02"/>
        <polygon class="cls-145" points="47.42 38.02 45.46 37.86 45.46 37.84 47.67 38.02 47.42 38.02"/>
        <polygon class="cls-145" points="47.16 38.02 45.46 37.88 45.46 37.86 47.42 38.02 47.16 38.02"/>
        <polygon class="cls-145" points="46.91 38.02 45.46 37.9 45.46 37.88 47.16 38.02 46.91 38.02"/>
        <polygon class="cls-145" points="46.65 38.02 45.46 37.93 45.46 37.9 46.91 38.02 46.65 38.02"/>
        <polygon class="cls-35" points="46.4 38.02 45.46 37.95 45.46 37.93 46.65 38.02 46.4 38.02"/>
        <polygon class="cls-35" points="46.14 38.02 45.46 37.97 45.46 37.95 46.4 38.02 46.14 38.02"/>
        <polygon class="cls-52" points="45.89 38.02 45.46 37.99 45.46 37.97 46.14 38.02 45.89 38.02"/>
        <polygon class="cls-52" points="45.64 38.02 45.46 38.01 45.46 37.99 45.89 38.02 45.64 38.02"/>
        <polygon class="cls-52" points="45.46 38.01 45.64 38.02 45.46 38.02 45.46 38.01"/>
      </g>
      <path class="cls-42" d="M47.63,37.25c-.64-.05-1.14-.7-1.08-1.4.06-.71.65-1.26,1.29-1.21.64.05,1.14.7,1.08,1.4-.06.71-.65,1.26-1.29,1.21Z"/>
      <path class="cls-127" d="M47.69,37c-.45-.04-.91-.52-.86-1.12.05-.6.59-1.01,1.03-.97.45.04.91.53.86,1.13-.05.6-.59,1.01-1.03.97Z"/>
      <path class="cls-93" d="M47.33,35.51c-.02.22-.24.38-.5.35-.26-.02-.45-.22-.43-.43.02-.22.24-.38.5-.36.26.02.45.21.44.43Z"/>
      <path class="cls-93" d="M48.77,36.77c0,.11-.12.19-.25.18-.13,0-.23-.11-.22-.22,0-.11.12-.19.25-.18.13,0,.23.11.22.22Z"/>
      <path class="cls-5" d="M21.43,37.77c.97-1.58,2.49-.91,2.87-.57.4.37.72.87.48,1.8-.13.52-.68.57-.54,1.37.16.89.57.95.8,1.15.24.2.53.35.68.73.14.37.17.77.1,1.12-.15.65-1.09.14-1.72-.14-.42-.18-1.74-1.29-2.08-1.65-.84-.94-1.25-2.74-.6-3.8"/>
      <path class="cls-25" d="M41.88,44.84c.34-.23.74-.12.74-.12,0,0,0,0-.01.02-.08.14-.54.87-.91.86,0,0-.08-.07-.1-.24-.03-.17.11-.4.28-.52Z"/>
      <path class="cls-18" d="M63.71,72.98h-1.15c-.05-.84-.11-1.51-.19-1.67,0-.04-.02-.08-.02-.12-.29-1.37-.03-2.25-.87-3.3-.4-.5-1.04-1.03-2.11-1.67-.03-.01-.77-.24-1.87-.59t-.03-.01c-.56-.18-1.22-.38-1.91-.61-.07-.02-.15-.05-.22-.07-5.63,5.19-10.66,7.25-14.97,7.59-8.55.67-14.21-5.46-15.86-7.52-.72.23-1.39.45-1.96.63h-.01c-1.09.35-1.83.58-1.86.59-1.15.69-1.8,1.25-2.19,1.78-.73.99-.53,1.85-.79,3.14,0,.04-.02.08-.02.13h0v.04s-.03.07-.04.15h0c-.06.29-.1.85-.14,1.52h-.97c-.57,0-1.03.46-1.03,1.03s.46,1.03,1.03,1.03h3.79c-.33,1.17-.57,2.21-.69,3.81h40.73c-.12-1.6-.36-2.64-.7-3.81h4.06c.57,0,1.03-.46,1.03-1.03s-.46-1.03-1.03-1.03Z"/>
      <path class="cls-45" d="M23.93,14.65c1.7-1.56,3.85-2.12,3.85-2.12,0,0,4.75-2.35,8.37-4.03,3.62-1.68,9.51-.33,12.56.45,3.05.78,6.7,5.07,7.83,7.42,1.13,2.35,3.94,7.45,4.85,11.14.91,3.69-2.14,7.27-4.03,8.03-1.23.5-1.31,3.36-1.31,3.36l-1.35.59s.17-4.54-1.92-8.09c-2.76,1.13-5.15,1.51-7.22,1.39.72.58,1.57,1.06,2.57,1.35,0,0-2.7.76-6.38-2.24-.29-.12-.57-.26-.84-.4.57,1.86,1.67,3.69,3.72,4.82,0,0-5.51.32-9.12-10.2,0,0-1.69-9.56-9.54.43-1.17,1.4-2.07,3.28-2.07,6.02,0,1.57.71,6.14.71,6.14l-.71-.5s0-1.77-2.03-2.88c-1.62-.89-2.03-3.9-2.03-5.15,0-8.33,2.4-13.96,4.1-15.53Z"/>
    </g>
  </g>
</svg>