<?xml version="1.0" encoding="UTF-8"?>
<svg id="Layer_2" data-name="Layer 2" xmlns="http://www.w3.org/2000/svg" xmlns:xlink="http://www.w3.org/1999/xlink" viewBox="0 0 78.88 78.95">
  <defs>
    <style>
      .cls-1 {
        fill: none;
      }

      .cls-2 {
        fill: #354148;
      }

      .cls-3 {
        fill: #7d99ae;
      }

      .cls-4 {
        fill: #84a2b8;
      }

      .cls-5 {
        fill: #debaad;
      }

      .cls-6 {
        fill: #4e606b;
      }

      .cls-7 {
        fill: #bf6c6c;
      }

      .cls-8 {
        fill: #ededeb;
        opacity: .55;
      }

      .cls-9 {
        fill: #7791a4;
      }

      .cls-10 {
        fill: #7b97ab;
      }

      .cls-11 {
        fill: #677e8d;
      }

      .cls-12 {
        fill: #86a3ba;
      }

      .cls-13 {
        fill: #66a8a9;
      }

      .cls-14 {
        fill: #364349;
      }

      .cls-15 {
        fill: #313d43;
      }

      .cls-16 {
        fill: #809cb2;
      }

      .cls-17 {
        fill: #6d8596;
      }

      .cls-18 {
        fill: #44545c;
      }

      .cls-19 {
        fill: #46565f;
      }

      .cls-20 {
        fill: #7893a6;
      }

      .cls-21 {
        fill: #87a5bc;
      }

      .cls-22 {
        fill: #748d9f;
      }

      .cls-23 {
        fill: #627886;
      }

      .cls-24 {
        fill: #576b77;
      }

      .cls-25 {
        fill: #829fb5;
      }

      .cls-26 {
        fill: #b89388;
      }

      .cls-27 {
        fill: #485862;
      }

      .cls-28 {
        fill: #6f8899;
      }

      .cls-29 {
        fill: #5b6f7c;
      }

      .cls-30 {
        fill: #7892a6;
      }

      .cls-31 {
        fill: #829fb4;
      }

      .cls-32 {
        fill: #7690a2;
      }

      .cls-33 {
        fill: #596c79;
      }

      .cls-34 {
        fill: #748ea0;
      }

      .cls-35 {
        fill: #728b9c;
      }

      .cls-36 {
        fill: #88a6be;
      }

      .cls-37 {
        fill: #a88a6b;
      }

      .cls-38 {
        fill: #48443b;
      }

      .cls-39 {
        fill: #738d9f;
      }

      .cls-40 {
        fill: #495963;
      }

      .cls-41 {
        fill: #87a4bb;
      }

      .cls-42 {
        fill: #617785;
      }

      .cls-43 {
        fill: #819db3;
      }

      .cls-44 {
        fill: #95bacb;
      }

      .cls-45 {
        fill: #657b8a;
      }

      .cls-46 {
        fill: #85a2b8;
      }

      .cls-47 {
        fill: #7f9bb0;
      }

      .cls-48 {
        fill: #667c8b;
      }

      .cls-49 {
        fill: #38454c;
      }

      .cls-50 {
        fill: #3e4d54;
      }

      .cls-51 {
        fill: #687f8f;
      }

      .cls-52 {
        fill: #7e9aae;
      }

      .cls-53 {
        fill: #88a7be;
      }

      .cls-54 {
        fill: #5b707d;
      }

      .cls-55 {
        fill: #7a96a9;
      }

      .cls-56 {
        fill: #829eb4;
      }

      .cls-57 {
        fill: #7a95a9;
      }

      .cls-58 {
        fill: #6c8495;
      }

      .cls-59 {
        fill: #7c98ac;
      }

      .cls-60 {
        fill: #85a2b9;
      }

      .cls-61 {
        fill: #677d8d;
      }

      .cls-62 {
        fill: #39464e;
      }

      .cls-63 {
        fill: #3d4b53;
      }

      .cls-64 {
        fill: #344046;
      }

      .cls-65 {
        fill: #586c78;
      }

      .cls-66 {
        fill: #596d7a;
      }

      .cls-67 {
        fill: #87a6bd;
      }

      .cls-68 {
        fill: #637988;
      }

      .cls-69 {
        fill: #37444b;
      }

      .cls-70 {
        fill: #7c97ab;
      }

      .cls-71 {
        fill: #6d8595;
      }

      .cls-72 {
        fill: #526570;
      }

      .cls-73 {
        fill: #70899b;
      }

      .cls-74 {
        fill: #738c9e;
      }

      .cls-75 {
        fill: #4e5f6a;
      }

      .cls-76 {
        clip-path: url(#clippath-1);
      }

      .cls-77 {
        fill: #546672;
      }

      .cls-78 {
        fill: #84a1b7;
      }

      .cls-79 {
        fill: #718a9c;
      }

      .cls-80 {
        fill: #5f7481;
      }

      .cls-81 {
        fill: #f1d4c8;
      }

      .cls-82 {
        fill: #6e8697;
      }

      .cls-83 {
        fill: #303c42;
      }

      .cls-84 {
        fill: #85a3b9;
      }

      .cls-85 {
        fill: #1e1f1a;
        opacity: .4;
      }

      .cls-86 {
        fill: #7e9baf;
      }

      .cls-87 {
        fill: #6a8292;
      }

      .cls-88 {
        fill: #758fa1;
      }

      .cls-89 {
        fill: #6b8292;
      }

      .cls-90 {
        fill: #83a1b7;
      }

      .cls-91 {
        fill: #7994a7;
      }

      .cls-92 {
        fill: #6b8393;
      }

      .cls-93 {
        fill: url(#Fading_Sky_2);
      }

      .cls-94 {
        fill: #647a89;
      }

      .cls-95 {
        fill: #6e8798;
      }

      .cls-96 {
        fill: #fff;
      }

      .cls-97 {
        fill: #7f9cb1;
      }

      .cls-98 {
        fill: #87a5bb;
      }

      .cls-99 {
        fill: #536671;
      }

      .cls-100 {
        fill: #5e7380;
      }

      .cls-101 {
        fill: #4d5e69;
      }

      .cls-102 {
        fill: #566975;
      }

      .cls-103 {
        fill: #6a8191;
      }

      .cls-104 {
        fill: #809db2;
      }

      .cls-105 {
        fill: #4c5d68;
      }

      .cls-106 {
        fill: #809cb1;
      }

      .cls-107 {
        fill: #4b5c67;
      }

      .cls-108 {
        fill: #475760;
      }

      .cls-109 {
        fill: #7691a3;
      }

      .cls-110 {
        fill: #3a484f;
      }

      .cls-111 {
        fill: #51636e;
      }

      .cls-112 {
        fill: #7d99ad;
      }

      .cls-113 {
        fill: #4f616c;
      }

      .cls-114 {
        fill: #819eb4;
      }

      .cls-115 {
        fill: #4a5b65;
      }

      .cls-116 {
        fill: #698090;
      }

      .cls-117 {
        opacity: .3;
      }

      .cls-118 {
        fill: #7690a3;
      }

      .cls-119 {
        fill: #5d727f;
      }

      .cls-120 {
        fill: #415059;
      }

      .cls-121 {
        fill: #2d383d;
      }

      .cls-122 {
        fill: #50626d;
      }

      .cls-123 {
        fill: #7893a7;
      }

      .cls-124 {
        fill: #43525b;
      }

      .cls-125 {
        fill: #748ea1;
      }

      .cls-126 {
        fill: #7994a8;
      }

      .cls-127 {
        fill: #546773;
      }

      .cls-128 {
        fill: #83a0b6;
      }

      .cls-129 {
        fill: #26200c;
      }

      .cls-130 {
        fill: #607583;
      }

      .cls-131 {
        fill: #556874;
      }

      .cls-132 {
        fill: #687f8e;
      }

      .cls-133 {
        fill: #667d8c;
      }

      .cls-134 {
        fill: #728b9d;
      }

      .cls-135 {
        fill: #323f45;
      }

      .cls-136 {
        fill: #86a4bb;
      }

      .cls-137 {
        fill: #7792a5;
      }

      .cls-138 {
        fill: #84a1b8;
      }

      .cls-139 {
        fill: #346360;
      }

      .cls-140 {
        fill: #5c707e;
      }

      .cls-141 {
        fill: #698190;
      }

      .cls-142 {
        fill: #637987;
      }

      .cls-143 {
        fill: #3c4a52;
      }

      .cls-144 {
        fill: #42515a;
      }

      .cls-145 {
        fill: #c6a095;
      }

      .cls-146 {
        fill: #3b4950;
      }

      .cls-147 {
        fill: #6c8494;
      }

      .cls-148 {
        fill: #88a6bd;
      }

      .cls-149 {
        fill: #404f57;
      }

      .cls-150 {
        fill: #47433b;
      }

      .cls-151 {
        fill: #51646f;
      }

      .cls-152 {
        fill: #7c97ac;
      }

      .cls-153 {
        fill: #5a6e7b;
      }

      .cls-154 {
        fill: #647b8a;
      }

      .cls-155 {
        fill: #45555e;
      }

      .cls-156 {
        fill: #7e9aaf;
      }

      .cls-157 {
        fill: #f2f3f2;
      }

      .cls-158 {
        fill: #3f4e56;
      }

      .cls-159 {
        fill: #2f3b40;
      }

      .cls-160 {
        fill: #4a5a64;
      }

      .cls-161 {
        fill: #607684;
      }

      .cls-162 {
        fill: #49443b;
      }

      .cls-163 {
        fill: #718a9b;
      }

      .cls-164 {
        fill: #5d717f;
      }

      .cls-165 {
        clip-path: url(#clippath);
      }

      .cls-166 {
        fill: #82a0b5;
      }

      .cls-167 {
        fill: #2e393f;
      }

      .cls-168 {
        fill: #70899a;
      }

      .cls-169 {
        fill: #7b96aa;
      }

      .cls-170 {
        fill: #758fa2;
      }

      .cls-171 {
        fill: #86a4ba;
      }

      .cls-172 {
        fill: #5f7482;
      }

      .cls-173 {
        fill: #7c98ad;
      }

      .cls-174 {
        fill: #819eb3;
      }

      .cls-175 {
        fill: #85a3ba;
      }

      .cls-176 {
        fill: #728c9e;
      }

      .cls-177 {
        fill: #576a76;
      }

      .cls-178 {
        fill: #627786;
      }

      .cls-179 {
        fill: #ab5b64;
      }
    </style>
    <linearGradient id="Fading_Sky_2" data-name="Fading Sky 2" x1="0" y1="39.48" x2="78.88" y2="39.48" gradientUnits="userSpaceOnUse">
      <stop offset="0" stop-color="#4b7dbc"/>
      <stop offset="1" stop-color="#4b7dbc"/>
    </linearGradient>
    <clipPath id="clippath">
      <path class="cls-1" d="M33.97,36.16c-.1,1.18-1.15,2.06-2.36,1.96-1.2-.1-2.1-1.14-2-2.32.1-1.19,1.15-2.07,2.36-1.97,1.2.1,2.1,1.14,2,2.33Z"/>
    </clipPath>
    <clipPath id="clippath-1">
      <path class="cls-1" d="M49.36,36.04c-.1,1.18-1.15,2.06-2.36,1.96-1.2-.1-2.1-1.14-2-2.32.1-1.19,1.15-2.07,2.36-1.97,1.2.1,2.1,1.14,2,2.33Z"/>
    </clipPath>
  </defs>
  <g id="Layer_1-2" data-name="Layer 1">
    <g>
      <rect class="cls-93" width="78.88" height="78.95"/>
      <path class="cls-162" d="M29.68,47.93s1.86,5.31.03,10.39c-.83,2.3.82,4.72,3.26,4.72h13.31c2.4,0,4.06-2.39,3.22-4.64-1.22-3.24-2.05-7.5.28-10.48h-20.09Z"/>
      <path class="cls-162" d="M22.92,43.16s3.13,4.61.05,9.01c-1.39,1.99,1.39,4.09,5.51,4.09h22.5c4.05,0,6.86-2.08,5.43-4.02-2.06-2.81-3.46-6.51.46-9.08H22.92Z"/>
      <path class="cls-162" d="M25.55,39.45s2.58,7.4.04,14.47c-1.15,3.2,1.14,6.57,4.54,6.57h18.54c3.34,0,5.66-3.33,4.48-6.46-1.7-4.51-2.85-10.45.38-14.58h-27.98Z"/>
      <path class="cls-81" d="M61.31,77.97s-.1-6.02-.34-6.54c-.46-2.1.36-3.06-2.88-5.08-.03-.01-.74-.24-1.8-.59t-.02-.01c-.69-.22-1.52-.5-2.4-.8-.34-.11-.67-.24-1.02-.35-.86-.3-1.72-.62-2.51-.92-.55-.21-1.07-.41-1.51-.59-.38-.16-.71-.32-.97-.46-.28-.14-.48-.27-.59-.38-.01-.01-.04-.05-.08-.09-.02-.04-.05-.06-.07-.1-.06-.35-1-1.89-1.32-3.56h0c-.07-.35-.11-.67-.12-1.01-.03-.49-.03-.97-.04-1.41-.01-.45-.02-.86-.04-1.2v-.29c-.01-.24-.01-.44-.01-.59-.01-.15-.01-.24-.01-.24,0,0,.35-.3.86-.75.64-.57,1.55-1.4,2.33-2.18.85-.85,1.59-1.66,1.75-2.09.01-.06.02-.11.02-.15,0,0-.02,0-.06.01-.4.06-2.55.44-4.86.8-1.37.21-2.81.43-3.98.57-.46.06-.89.1-1.25.14h-.01c-.34.04-.62.05-.84.05-.24,0-.56-.02-.95-.05h-.03c-.37-.05-.82-.1-1.31-.16-1.07-.14-2.36-.32-3.61-.51-1.15-.19-2.27-.36-3.16-.51-.21-.04-.4-.06-.57-.1-.85-.14-1.39-.24-1.39-.24,0,.16.15.41.4.74,0,0,0,.01.01.01.19.25.44.54.74.86.29.3.6.61.92.92.99.96,2.06,1.91,2.58,2.36.2.17.31.27.31.27,0,0,0,.09-.01.24,0,.15,0,.35-.01.59v.29c0,.1,0,.2-.01.3-.01.65-.04,1.46-.06,2.31-.01.34-.05.66-.12,1-.33,1.67-1.26,3.22-1.32,3.57-.03.04-.05.06-.07.1-.04.04-.06.08-.08.09-.05.05-.14.11-.24.18-.23.15-.57.32-.99.52-.37.16-.8.34-1.27.52-1.11.43-2.43.91-3.7,1.34-.09.03-.17.06-.26.09-.94.32-1.84.62-2.56.86h-.01c-1.05.35-1.76.57-1.79.59-3.22,2.01-2.44,2.97-2.88,5.04h0v.04s-.03.07-.04.15h0c-.21,1.1-.3,6.39-.3,6.39,0,.32,0,.65,0,.99h43.58c0-.34,0-.67-.01-.99Z"/>
      <path class="cls-145" d="M45.79,58.49c-.07-.34-.11-.66-.12-1-.04-1.12-.06-2.2-.07-2.9-1.87.84-3.8,1.32-5.68,1.32-.11.02-.25.02-.38.02s-.27,0-.38-.02c-1.89,0-3.81-.49-5.68-1.32-.01.7-.04,1.77-.07,2.9-.01.34-.05.66-.12,1,1.81,1.51,4.26,3.07,5.88,3.07.1.02.23.02.34.02h0s.03,0,.04,0,.03,0,.04,0h0c.12,0,.24,0,.34-.03,1.62,0,4.07-1.56,5.88-3.07Z"/>
      <g>
        <path class="cls-81" d="M55.6,36.08c.31-1.73.56-3.05.63-3.31.04-.12.06-.25.1-.37.03-.15.06-.29.09-.42.06-.21.1-.43.15-.64.01-.1.04-.2.05-.3.04-.24.09-.48.12-.71.01-.1.03-.21.04-.31.04-.21.05-.42.08-.64.01-.16.02-.33.05-.47.01-.14.01-.28.02-.41.16-3.26-.54-6.58-2.67-9.59-2.58-3.62-5.56-7.45-12.01-7.99h-5.44c-6.46.54-9.43,4.37-12.01,7.99-2.13,3.01-2.83,6.33-2.67,9.59.01.14.01.27.02.41.02.15.04.31.05.47.02.21.04.42.07.64.01.1.03.21.04.31.04.24.09.47.13.71.01.1.04.2.05.3.05.21.09.43.15.64.03.14.06.27.09.42.04.12.06.25.1.37.08.26.32,1.57.63,3.29-1.72-.84-4.11.36-3.83,3.53.29,3.22,4.21,5.13,5.55,5.45.13.58.24,1.02.33,1.22,1.17,2.96,2.6,3.85,5.09,6.26,2.72,2.61,6.74,5.06,8.73,5.04.06.01.14.01.21.01s.15,0,.21-.01c1.98.01,6-2.43,8.73-5.04,2.5-2.41,3.92-3.3,5.09-6.26.08-.21.19-.63.32-1.21,1.29-.29,5.29-2.21,5.59-5.46.29-3.2-2.15-4.4-3.88-3.51Z"/>
        <path class="cls-5" d="M58.22,37.85c-.97-1.58-2.49-.91-2.87-.57-.4.37-.72.87-.48,1.8.13.52.68.57.54,1.37-.16.89-.57.95-.8,1.15-.23.2-.53.35-.68.73-.14.37-.17.77-.1,1.12.15.65,1.09.14,1.72-.14.42-.18,1.74-1.29,2.08-1.65.84-.94,1.25-2.74.6-3.8"/>
      </g>
      <path class="cls-5" d="M36.77,51.4c-.06-.82,2.31.17,3.09.2.62.02,2.49-.12,2.67-.19,1.31-.49-.07,1.38-2.7,1.48-1.21.05-3.02-.99-3.06-1.49Z"/>
      <g>
        <path class="cls-179" d="M44.6,50.33c-1.51-.28-4.68-.89-4.68-.89-2.62.43-4.67.88-4.68.9-.06,0,2.09,1.93,4.65,1.8h0c2.55.13,4.78-1.8,4.72-1.81Z"/>
        <path class="cls-7" d="M41.42,48.91c-.68-.07-1.15.32-1.49.29-.35.03-.82-.36-1.5-.29-.97.21-1.43.82-3.19,1.43.06.12,1.19-.15,3.3-.11.03,0,.6.32,1.4.31.5,0,1.19-.34,1.22-.34,2.11-.03,3.4.26,3.46.14-2.32-.71-2.23-1.23-3.2-1.44Z"/>
      </g>
      <path class="cls-37" d="M41.17,44.94c.34-.23.74-.12.74-.12,0,0,0,0-.01.02-.08.14-.54.87-.91.86,0,0-.08-.07-.1-.24-.03-.17.11-.4.28-.52Z"/>
      <path class="cls-5" d="M36.55,44.71c-.07-1.65,2.56-.6,3.43-.55.69.04,2.77-.52,2.95-.38,1.22.98-1.3,2.95-2.99,2.95-.45,0-3.34-1.03-3.38-2.03Z"/>
      <path class="cls-26" d="M38.53,44.92c-.34-.23-.74-.12-.74-.12,0,0,0,0,.01.02.08.14.54.87.91.86,0,0,.08-.07.1-.24.03-.17-.11-.4-.28-.52Z"/>
      <path class="cls-38" d="M36.09,32.42s-.4-.4-1.14-.89c-.35-.26-.81-.48-1.3-.71-.49-.23-1.04-.4-1.61-.5-.56-.13-1.15-.16-1.71-.15-.28.02-.55.04-.8.06-.26.01-.5.08-.72.11-.45.07-.82.18-1.09.24-.27.06-.42.1-.42.1,0,0,.13-.08.37-.23.24-.13.57-.37,1.02-.53.44-.19.98-.36,1.58-.48.6-.08,1.26-.12,1.92-.05.66.09,1.3.27,1.87.51.57.24,1.06.56,1.45.86.78.59,1.16,1.18,1.16,1.18h0c.12.18.07.42-.11.54-.15.1-.35.07-.48-.05Z"/>
      <path class="cls-96" d="M26.91,35.18s1.46,3.64,3.73,3.99c2.27.35,4.69-.16,4.69-.16,0,0,.06-4.22-1.12-4.81-1.18-.59-3.87-1.46-7.3.98Z"/>
      <g class="cls-165">
        <polygon class="cls-121" points="34.06 34.53 29.51 34.15 29.51 33.73 34.06 33.73 34.06 34.53"/>
        <polygon class="cls-121" points="34.06 34.55 29.51 34.17 29.51 34.15 34.06 34.53 34.06 34.55"/>
        <polygon class="cls-167" points="34.06 34.57 29.51 34.2 29.51 34.17 34.06 34.55 34.06 34.57"/>
        <polygon class="cls-159" points="34.06 34.59 29.51 34.22 29.51 34.2 34.06 34.57 34.06 34.59"/>
        <polygon class="cls-83" points="34.06 34.61 29.51 34.24 29.51 34.22 34.06 34.59 34.06 34.61"/>
        <polygon class="cls-15" points="34.06 34.63 29.51 34.26 29.51 34.24 34.06 34.61 34.06 34.63"/>
        <polygon class="cls-135" points="34.06 34.66 29.51 34.28 29.51 34.26 34.06 34.63 34.06 34.66"/>
        <polygon class="cls-64" points="34.06 34.68 29.51 34.3 29.51 34.28 34.06 34.66 34.06 34.68"/>
        <polygon class="cls-2" points="34.06 34.7 29.51 34.32 29.51 34.3 34.06 34.68 34.06 34.7"/>
        <polygon class="cls-14" points="34.06 34.72 29.51 34.34 29.51 34.32 34.06 34.7 34.06 34.72"/>
        <polygon class="cls-69" points="34.06 34.74 29.51 34.36 29.51 34.34 34.06 34.72 34.06 34.74"/>
        <polygon class="cls-49" points="34.06 34.76 29.51 34.38 29.51 34.36 34.06 34.74 34.06 34.76"/>
        <polygon class="cls-62" points="34.06 34.78 29.51 34.41 29.51 34.38 34.06 34.76 34.06 34.78"/>
        <polygon class="cls-110" points="34.06 34.8 29.51 34.43 29.51 34.41 34.06 34.78 34.06 34.8"/>
        <polygon class="cls-146" points="34.06 34.82 29.51 34.45 29.51 34.43 34.06 34.8 34.06 34.82"/>
        <polygon class="cls-143" points="34.06 34.84 29.51 34.47 29.51 34.45 34.06 34.82 34.06 34.84"/>
        <polygon class="cls-63" points="34.06 34.87 29.51 34.49 29.51 34.47 34.06 34.84 34.06 34.87"/>
        <polygon class="cls-50" points="34.06 34.89 29.51 34.51 29.51 34.49 34.06 34.87 34.06 34.89"/>
        <polygon class="cls-158" points="34.06 34.91 29.51 34.53 29.51 34.51 34.06 34.89 34.06 34.91"/>
        <polygon class="cls-149" points="34.06 34.93 29.51 34.55 29.51 34.53 34.06 34.91 34.06 34.93"/>
        <polygon class="cls-120" points="34.06 34.95 29.51 34.57 29.51 34.55 34.06 34.93 34.06 34.95"/>
        <polygon class="cls-144" points="34.06 34.97 29.51 34.59 29.51 34.57 34.06 34.95 34.06 34.97"/>
        <polygon class="cls-124" points="34.06 34.99 29.51 34.62 29.51 34.59 34.06 34.97 34.06 34.99"/>
        <polygon class="cls-18" points="34.06 35.01 29.51 34.64 29.51 34.62 34.06 34.99 34.06 35.01"/>
        <polygon class="cls-155" points="34.06 35.03 29.51 34.66 29.51 34.64 34.06 35.01 34.06 35.03"/>
        <polygon class="cls-19" points="34.06 35.06 29.51 34.68 29.51 34.66 34.06 35.03 34.06 35.06"/>
        <polygon class="cls-108" points="34.06 35.08 29.51 34.7 29.51 34.68 34.06 35.06 34.06 35.08"/>
        <polygon class="cls-27" points="34.06 35.1 29.51 34.72 29.51 34.7 34.06 35.08 34.06 35.1"/>
        <polygon class="cls-40" points="34.06 35.12 29.51 34.74 29.51 34.72 34.06 35.1 34.06 35.12"/>
        <polygon class="cls-160" points="34.06 35.14 29.51 34.76 29.51 34.74 34.06 35.12 34.06 35.14"/>
        <polygon class="cls-115" points="34.06 35.16 29.51 34.78 29.51 34.76 34.06 35.14 34.06 35.16"/>
        <polygon class="cls-107" points="34.06 35.18 29.51 34.8 29.51 34.78 34.06 35.16 34.06 35.18"/>
        <polygon class="cls-105" points="34.06 35.2 29.51 34.83 29.51 34.8 34.06 35.18 34.06 35.2"/>
        <polygon class="cls-101" points="34.06 35.22 29.51 34.85 29.51 34.83 34.06 35.2 34.06 35.22"/>
        <polygon class="cls-75" points="34.06 35.24 29.51 34.87 29.51 34.85 34.06 35.22 34.06 35.24"/>
        <polygon class="cls-6" points="34.06 35.27 29.51 34.89 29.51 34.87 34.06 35.24 34.06 35.27"/>
        <polygon class="cls-113" points="34.06 35.29 29.51 34.91 29.51 34.89 34.06 35.27 34.06 35.29"/>
        <polygon class="cls-122" points="34.06 35.31 29.51 34.93 29.51 34.91 34.06 35.29 34.06 35.31"/>
        <polygon class="cls-111" points="34.06 35.33 29.51 34.95 29.51 34.93 34.06 35.31 34.06 35.33"/>
        <polygon class="cls-151" points="34.06 35.35 29.51 34.97 29.51 34.95 34.06 35.33 34.06 35.35"/>
        <polygon class="cls-72" points="34.06 35.37 29.51 34.99 29.51 34.97 34.06 35.35 34.06 35.37"/>
        <polygon class="cls-99" points="34.06 35.39 29.51 35.01 29.51 34.99 34.06 35.37 34.06 35.39"/>
        <polygon class="cls-77" points="34.06 35.41 29.51 35.04 29.51 35.01 34.06 35.39 34.06 35.41"/>
        <polygon class="cls-127" points="34.06 35.43 29.51 35.06 29.51 35.04 34.06 35.41 34.06 35.43"/>
        <polygon class="cls-131" points="34.06 35.45 29.51 35.08 29.51 35.06 34.06 35.43 34.06 35.45"/>
        <polygon class="cls-102" points="34.06 35.47 29.51 35.1 29.51 35.08 34.06 35.45 34.06 35.47"/>
        <polygon class="cls-177" points="34.06 35.5 29.51 35.12 29.51 35.1 34.06 35.47 34.06 35.5"/>
        <polygon class="cls-24" points="34.06 35.52 29.51 35.14 29.51 35.12 34.06 35.5 34.06 35.52"/>
        <polygon class="cls-65" points="34.06 35.54 29.51 35.16 29.51 35.14 34.06 35.52 34.06 35.54"/>
        <polygon class="cls-33" points="34.06 35.56 29.51 35.18 29.51 35.16 34.06 35.54 34.06 35.56"/>
        <polygon class="cls-66" points="34.06 35.58 29.51 35.2 29.51 35.18 34.06 35.56 34.06 35.58"/>
        <polygon class="cls-153" points="34.06 35.6 29.51 35.22 29.51 35.2 34.06 35.58 34.06 35.6"/>
        <polygon class="cls-29" points="34.06 35.62 29.51 35.25 29.51 35.22 34.06 35.6 34.06 35.62"/>
        <polygon class="cls-54" points="34.06 35.64 29.51 35.27 29.51 35.25 34.06 35.62 34.06 35.64"/>
        <polygon class="cls-140" points="34.06 35.66 29.51 35.29 29.51 35.27 34.06 35.64 34.06 35.66"/>
        <polygon class="cls-164" points="34.06 35.69 29.51 35.31 29.51 35.29 34.06 35.66 34.06 35.69"/>
        <polygon class="cls-119" points="34.06 35.71 29.51 35.33 29.51 35.31 34.06 35.69 34.06 35.71"/>
        <polygon class="cls-100" points="34.06 35.73 29.51 35.35 29.51 35.33 34.06 35.71 34.06 35.73"/>
        <polygon class="cls-80" points="34.06 35.75 29.51 35.37 29.51 35.35 34.06 35.73 34.06 35.75"/>
        <polygon class="cls-172" points="34.06 35.77 29.51 35.39 29.51 35.37 34.06 35.75 34.06 35.77"/>
        <polygon class="cls-130" points="34.06 35.79 29.51 35.41 29.51 35.39 34.06 35.77 34.06 35.79"/>
        <polygon class="cls-161" points="34.06 35.81 29.51 35.43 29.51 35.41 34.06 35.79 34.06 35.81"/>
        <polygon class="cls-42" points="34.06 35.83 29.51 35.46 29.51 35.43 34.06 35.81 34.06 35.83"/>
        <polygon class="cls-178" points="34.06 35.85 29.51 35.48 29.51 35.46 34.06 35.83 34.06 35.85"/>
        <polygon class="cls-23" points="34.06 35.87 29.51 35.5 29.51 35.48 34.06 35.85 34.06 35.87"/>
        <polygon class="cls-142" points="34.06 35.9 29.51 35.52 29.51 35.5 34.06 35.87 34.06 35.9"/>
        <polygon class="cls-68" points="34.06 35.92 29.51 35.54 29.51 35.52 34.06 35.9 34.06 35.92"/>
        <polygon class="cls-94" points="34.06 35.94 29.51 35.56 29.51 35.54 34.06 35.92 34.06 35.94"/>
        <polygon class="cls-154" points="34.06 35.96 29.51 35.58 29.51 35.56 34.06 35.94 34.06 35.96"/>
        <polygon class="cls-45" points="34.06 35.98 29.51 35.6 29.51 35.58 34.06 35.96 34.06 35.98"/>
        <polygon class="cls-48" points="34.06 36 29.51 35.62 29.51 35.6 34.06 35.98 34.06 36"/>
        <polygon class="cls-133" points="34.06 36.02 29.51 35.64 29.51 35.62 34.06 36 34.06 36.02"/>
        <polygon class="cls-61" points="34.06 36.04 29.51 35.67 29.51 35.64 34.06 36.02 34.06 36.04"/>
        <polygon class="cls-11" points="34.06 36.06 29.51 35.69 29.51 35.67 34.06 36.04 34.06 36.06"/>
        <polygon class="cls-132" points="34.06 36.08 29.51 35.71 29.51 35.69 34.06 36.06 34.06 36.08"/>
        <polygon class="cls-51" points="34.06 36.11 29.51 35.73 29.51 35.71 34.06 36.08 34.06 36.11"/>
        <polygon class="cls-116" points="34.06 36.13 29.51 35.75 29.51 35.73 34.06 36.11 34.06 36.13"/>
        <polygon class="cls-141" points="34.06 36.15 29.51 35.77 29.51 35.75 34.06 36.13 34.06 36.15"/>
        <polygon class="cls-103" points="34.06 36.17 29.51 35.79 29.51 35.77 34.06 36.15 34.06 36.17"/>
        <polygon class="cls-87" points="34.06 36.19 29.51 35.81 29.51 35.79 34.06 36.17 34.06 36.19"/>
        <polygon class="cls-89" points="34.06 36.21 29.51 35.83 29.51 35.81 34.06 36.19 34.06 36.21"/>
        <polygon class="cls-92" points="34.06 36.23 29.51 35.85 29.51 35.83 34.06 36.21 34.06 36.23"/>
        <polygon class="cls-147" points="34.06 36.25 29.51 35.88 29.51 35.85 34.06 36.23 34.06 36.25"/>
        <polygon class="cls-58" points="34.06 36.27 29.51 35.9 29.51 35.88 34.06 36.25 34.06 36.27"/>
        <polygon class="cls-71" points="34.06 36.29 29.51 35.92 29.51 35.9 34.06 36.27 34.06 36.29"/>
        <polygon class="cls-17" points="34.06 36.32 29.51 35.94 29.51 35.92 34.06 36.29 34.06 36.32"/>
        <polygon class="cls-82" points="34.06 36.34 29.51 35.96 29.51 35.94 34.06 36.32 34.06 36.34"/>
        <polygon class="cls-82" points="34.06 36.36 29.51 35.98 29.51 35.96 34.06 36.34 34.06 36.36"/>
        <polygon class="cls-95" points="34.06 36.38 29.51 36 29.51 35.98 34.06 36.36 34.06 36.38"/>
        <polygon class="cls-28" points="34.06 36.4 29.51 36.02 29.51 36 34.06 36.38 34.06 36.4"/>
        <polygon class="cls-28" points="34.06 36.42 29.51 36.04 29.51 36.02 34.06 36.4 34.06 36.42"/>
        <polygon class="cls-168" points="34.06 36.44 29.51 36.06 29.51 36.04 34.06 36.42 34.06 36.44"/>
        <polygon class="cls-73" points="34.06 36.46 29.51 36.09 29.51 36.06 34.06 36.44 34.06 36.46"/>
        <polygon class="cls-163" points="34.06 36.48 29.51 36.11 29.51 36.09 34.06 36.46 34.06 36.48"/>
        <polygon class="cls-79" points="34.06 36.5 29.51 36.13 29.51 36.11 34.06 36.48 34.06 36.5"/>
        <polygon class="cls-35" points="34.06 36.53 29.51 36.15 29.51 36.13 34.06 36.5 34.06 36.53"/>
        <polygon class="cls-134" points="34.06 36.55 29.51 36.17 29.51 36.15 34.06 36.53 34.06 36.55"/>
        <polygon class="cls-176" points="34.06 36.57 29.51 36.19 29.51 36.17 34.06 36.55 34.06 36.57"/>
        <polygon class="cls-74" points="34.06 36.59 29.51 36.21 29.51 36.19 34.06 36.57 34.06 36.59"/>
        <polygon class="cls-39" points="34.06 36.61 29.51 36.23 29.51 36.21 34.06 36.59 34.06 36.61"/>
        <polygon class="cls-22" points="34.06 36.63 29.51 36.25 29.51 36.23 34.06 36.61 34.06 36.63"/>
        <polygon class="cls-34" points="34.06 36.65 29.51 36.27 29.51 36.25 34.06 36.63 34.06 36.65"/>
        <polygon class="cls-125" points="34.06 36.67 29.51 36.3 29.51 36.27 34.06 36.65 34.06 36.67"/>
        <polygon class="cls-88" points="34.06 36.69 29.51 36.32 29.51 36.3 34.06 36.67 34.06 36.69"/>
        <polygon class="cls-170" points="34.06 36.71 29.51 36.34 29.51 36.32 34.06 36.69 34.06 36.71"/>
        <polygon class="cls-32" points="34.06 36.74 29.51 36.36 29.51 36.34 34.06 36.71 34.06 36.74"/>
        <polygon class="cls-118" points="34.06 36.76 29.51 36.38 29.51 36.36 34.06 36.74 34.06 36.76"/>
        <polygon class="cls-109" points="34.06 36.78 29.51 36.4 29.51 36.38 34.06 36.76 34.06 36.78"/>
        <polygon class="cls-9" points="34.06 36.8 29.51 36.42 29.51 36.4 34.06 36.78 34.06 36.8"/>
        <polygon class="cls-137" points="34.06 36.82 29.51 36.44 29.51 36.42 34.06 36.8 34.06 36.82"/>
        <polygon class="cls-137" points="34.06 36.84 29.51 36.46 29.51 36.44 34.06 36.82 34.06 36.84"/>
        <polygon class="cls-30" points="34.06 36.86 29.51 36.48 29.51 36.46 34.06 36.84 34.06 36.86"/>
        <polygon class="cls-20" points="34.06 36.88 29.51 36.51 29.51 36.48 34.06 36.86 34.06 36.88"/>
        <polygon class="cls-123" points="34.06 36.9 29.51 36.53 29.51 36.51 34.06 36.88 34.06 36.9"/>
        <polygon class="cls-91" points="34.06 36.92 29.51 36.55 29.51 36.53 34.06 36.9 34.06 36.92"/>
        <polygon class="cls-126" points="34.06 36.95 29.51 36.57 29.51 36.55 34.06 36.92 34.06 36.95"/>
        <polygon class="cls-126" points="34.06 36.97 29.51 36.59 29.51 36.57 34.06 36.95 34.06 36.97"/>
        <polygon class="cls-57" points="34.06 36.99 29.51 36.61 29.51 36.59 34.06 36.97 34.06 36.99"/>
        <polygon class="cls-57" points="34.06 37.01 29.51 36.63 29.51 36.61 34.06 36.99 34.06 37.01"/>
        <polygon class="cls-55" points="34.06 37.03 29.51 36.65 29.51 36.63 34.06 37.01 34.06 37.03"/>
        <polygon class="cls-169" points="34.06 37.05 29.51 36.67 29.51 36.65 34.06 37.03 34.06 37.05"/>
        <polygon class="cls-169" points="34.06 37.07 29.51 36.69 29.51 36.67 34.06 37.05 34.06 37.07"/>
        <polygon class="cls-10" points="34.06 37.09 29.51 36.72 29.51 36.69 34.06 37.07 34.06 37.09"/>
        <polygon class="cls-70" points="34.06 37.11 29.51 36.74 29.51 36.72 34.06 37.09 34.06 37.11"/>
        <polygon class="cls-152" points="34.06 37.13 29.51 36.76 29.51 36.74 34.06 37.11 34.06 37.13"/>
        <polygon class="cls-59" points="34.06 37.16 29.51 36.78 29.51 36.76 34.06 37.13 34.06 37.16"/>
        <polygon class="cls-173" points="34.06 37.18 29.51 36.8 29.51 36.78 34.06 37.16 34.06 37.18"/>
        <polygon class="cls-112" points="34.06 37.2 29.51 36.82 29.51 36.8 34.06 37.18 34.06 37.2"/>
        <polygon class="cls-112" points="34.06 37.22 29.51 36.84 29.51 36.82 34.06 37.2 34.06 37.22"/>
        <polygon class="cls-3" points="34.06 37.24 29.51 36.86 29.51 36.84 34.06 37.22 34.06 37.24"/>
        <polygon class="cls-52" points="34.06 37.26 29.51 36.88 29.51 36.86 34.06 37.24 34.06 37.26"/>
        <polygon class="cls-156" points="34.06 37.28 29.51 36.91 29.51 36.88 34.06 37.26 34.06 37.28"/>
        <polygon class="cls-156" points="34.06 37.3 29.51 36.93 29.51 36.91 34.06 37.28 34.06 37.3"/>
        <polygon class="cls-86" points="34.06 37.32 29.51 36.95 29.51 36.93 34.06 37.3 34.06 37.32"/>
        <polygon class="cls-47" points="34.06 37.34 29.51 36.97 29.51 36.95 34.06 37.32 34.06 37.34"/>
        <polygon class="cls-47" points="34.06 37.37 29.51 36.99 29.51 36.97 34.06 37.34 34.06 37.37"/>
        <polygon class="cls-97" points="34.06 37.39 29.51 37.01 29.51 36.99 34.06 37.37 34.06 37.39"/>
        <polygon class="cls-97" points="34.06 37.41 29.51 37.03 29.51 37.01 34.06 37.39 34.06 37.41"/>
        <polygon class="cls-106" points="34.06 37.43 29.51 37.05 29.51 37.03 34.06 37.41 34.06 37.43"/>
        <polygon class="cls-16" points="34.06 37.45 29.51 37.07 29.51 37.05 34.06 37.43 34.06 37.45"/>
        <polygon class="cls-104" points="34.06 37.47 29.51 37.09 29.51 37.07 34.06 37.45 34.06 37.47"/>
        <polygon class="cls-104" points="34.06 37.49 29.51 37.12 29.51 37.09 34.06 37.47 34.06 37.49"/>
        <polygon class="cls-43" points="34.06 37.51 29.51 37.14 29.51 37.12 34.06 37.49 34.06 37.51"/>
        <polygon class="cls-174" points="34.06 37.53 29.51 37.16 29.51 37.14 34.06 37.51 34.06 37.53"/>
        <polygon class="cls-174" points="34.06 37.55 29.51 37.18 29.51 37.16 34.06 37.53 34.06 37.55"/>
        <polygon class="cls-114" points="34.06 37.58 29.51 37.2 29.51 37.18 34.06 37.55 34.06 37.58"/>
        <polygon class="cls-56" points="34.06 37.6 29.51 37.22 29.51 37.2 34.06 37.58 34.06 37.6"/>
        <polygon class="cls-31" points="34.06 37.62 29.51 37.24 29.51 37.22 34.06 37.6 34.06 37.62"/>
        <polygon class="cls-25" points="34.06 37.64 29.51 37.26 29.51 37.24 34.06 37.62 34.06 37.64"/>
        <polygon class="cls-25" points="34.06 37.66 29.51 37.28 29.51 37.26 34.06 37.64 34.06 37.66"/>
        <polygon class="cls-166" points="34.06 37.68 29.51 37.3 29.51 37.28 34.06 37.66 34.06 37.68"/>
        <polygon class="cls-128" points="34.06 37.7 29.51 37.33 29.51 37.3 34.06 37.68 34.06 37.7"/>
        <polygon class="cls-128" points="34.06 37.72 29.51 37.35 29.51 37.33 34.06 37.7 34.06 37.72"/>
        <polygon class="cls-128" points="34.06 37.74 29.51 37.37 29.51 37.35 34.06 37.72 34.06 37.74"/>
        <polygon class="cls-90" points="34.06 37.76 29.51 37.39 29.51 37.37 34.06 37.74 34.06 37.76"/>
        <polygon class="cls-90" points="34.06 37.79 29.51 37.41 29.51 37.39 34.06 37.76 34.06 37.79"/>
        <polygon class="cls-78" points="34.06 37.81 29.51 37.43 29.51 37.41 34.06 37.79 34.06 37.81"/>
        <polygon class="cls-78" points="34.06 37.83 29.51 37.45 29.51 37.43 34.06 37.81 34.06 37.83"/>
        <polygon class="cls-138" points="34.06 37.85 29.51 37.47 29.51 37.45 34.06 37.83 34.06 37.85"/>
        <polygon class="cls-4" points="34.06 37.87 29.51 37.49 29.51 37.47 34.06 37.85 34.06 37.87"/>
        <polygon class="cls-4" points="34.06 37.89 29.51 37.51 29.51 37.49 34.06 37.87 34.06 37.89"/>
        <polygon class="cls-46" points="34.06 37.91 29.51 37.54 29.51 37.51 34.06 37.89 34.06 37.91"/>
        <polygon class="cls-60" points="34.06 37.93 29.51 37.56 29.51 37.54 34.06 37.91 34.06 37.93"/>
        <polygon class="cls-84" points="34.06 37.95 29.51 37.58 29.51 37.56 34.06 37.93 34.06 37.95"/>
        <polygon class="cls-84" points="34.06 37.97 29.51 37.6 29.51 37.58 34.06 37.95 34.06 37.97"/>
        <polygon class="cls-84" points="34.06 38 29.51 37.62 29.51 37.6 34.06 37.97 34.06 38"/>
        <polygon class="cls-175" points="34.06 38.02 29.51 37.64 29.51 37.62 34.06 38 34.06 38.02"/>
        <polygon class="cls-12" points="34.06 38.04 29.51 37.66 29.51 37.64 34.06 38.02 34.06 38.04"/>
        <polygon class="cls-12" points="34.06 38.06 29.51 37.68 29.51 37.66 34.06 38.04 34.06 38.06"/>
        <polygon class="cls-171" points="34.06 38.08 29.51 37.7 29.51 37.68 34.06 38.06 34.06 38.08"/>
        <polygon class="cls-136" points="34.06 38.1 29.51 37.72 29.51 37.7 34.06 38.08 34.06 38.1"/>
        <polygon class="cls-136" points="34.06 38.12 29.51 37.75 29.51 37.72 34.06 38.1 34.06 38.12"/>
        <polygon class="cls-136" points="34.06 38.14 29.51 37.77 29.51 37.75 34.06 38.12 34.06 38.14"/>
        <polygon class="cls-136" points="34.06 38.16 29.51 37.79 29.51 37.77 34.06 38.14 34.06 38.16"/>
        <polygon class="cls-41" points="34.06 38.18 29.51 37.81 29.51 37.79 34.06 38.16 34.06 38.18"/>
        <polygon class="cls-98" points="34.06 38.21 29.51 37.83 29.51 37.81 34.06 38.18 34.06 38.21"/>
        <polygon class="cls-21" points="34.01 38.22 29.51 37.85 29.51 37.83 34.06 38.21 34.06 38.22 34.01 38.22"/>
        <polygon class="cls-21" points="33.75 38.22 29.51 37.87 29.51 37.85 34.01 38.22 33.75 38.22"/>
        <polygon class="cls-21" points="33.5 38.22 29.51 37.89 29.51 37.87 33.75 38.22 33.5 38.22"/>
        <polygon class="cls-21" points="33.24 38.22 29.51 37.91 29.51 37.89 33.5 38.22 33.24 38.22"/>
        <polygon class="cls-21" points="32.99 38.22 29.51 37.93 29.51 37.91 33.24 38.22 32.99 38.22"/>
        <polygon class="cls-21" points="32.74 38.22 29.51 37.96 29.51 37.93 32.99 38.22 32.74 38.22"/>
        <polygon class="cls-67" points="32.48 38.22 29.51 37.98 29.51 37.96 32.74 38.22 32.48 38.22"/>
        <polygon class="cls-148" points="32.23 38.22 29.51 38 29.51 37.98 32.48 38.22 32.23 38.22"/>
        <polygon class="cls-148" points="31.97 38.22 29.51 38.02 29.51 38 32.23 38.22 31.97 38.22"/>
        <polygon class="cls-148" points="31.72 38.22 29.51 38.04 29.51 38.02 31.97 38.22 31.72 38.22"/>
        <polygon class="cls-148" points="31.46 38.22 29.51 38.06 29.51 38.04 31.72 38.22 31.46 38.22"/>
        <polygon class="cls-148" points="31.21 38.22 29.51 38.08 29.51 38.06 31.46 38.22 31.21 38.22"/>
        <polygon class="cls-148" points="30.96 38.22 29.51 38.1 29.51 38.08 31.21 38.22 30.96 38.22"/>
        <polygon class="cls-148" points="30.7 38.22 29.51 38.12 29.51 38.1 30.96 38.22 30.7 38.22"/>
        <polygon class="cls-36" points="30.45 38.22 29.51 38.14 29.51 38.12 30.7 38.22 30.45 38.22"/>
        <polygon class="cls-36" points="30.19 38.22 29.51 38.17 29.51 38.14 30.45 38.22 30.19 38.22"/>
        <polygon class="cls-53" points="29.94 38.22 29.51 38.19 29.51 38.17 30.19 38.22 29.94 38.22"/>
        <polygon class="cls-53" points="29.68 38.22 29.51 38.21 29.51 38.19 29.94 38.22 29.68 38.22"/>
        <polygon class="cls-53" points="29.51 38.21 29.68 38.22 29.51 38.22 29.51 38.21"/>
      </g>
      <path class="cls-44" d="M31.68,37.45c-.64-.05-1.14-.7-1.08-1.4.06-.71.65-1.26,1.29-1.21.64.05,1.14.7,1.08,1.4-.06.71-.65,1.26-1.29,1.21Z"/>
      <path class="cls-129" d="M31.74,37.19c-.45-.04-.91-.53-.86-1.13.05-.6.59-1.01,1.03-.97.45.04.91.53.86,1.13-.05.6-.59,1.01-1.03.97Z"/>
      <g class="cls-117">
        <path class="cls-150" d="M35.33,39s-.05,0-.17.04c-.08-1.3-.33-3.09-1.07-3.45-1.09-.55-3.55-1.36-6.7.57-.32-.57-.48-.99-.48-.99,3.43-2.45,6.13-1.57,7.3-.99,1.18.59,1.12,4.81,1.12,4.81Z"/>
      </g>
      <path class="cls-96" d="M31.38,35.71c-.02.22-.24.38-.5.35-.26-.02-.45-.22-.43-.43.02-.22.24-.38.5-.36.26.02.45.21.44.43Z"/>
      <path class="cls-96" d="M32.82,36.97c0,.11-.12.19-.25.18-.13,0-.23-.11-.22-.22,0-.11.12-.19.25-.18.13,0,.23.11.22.22Z"/>
      <path class="cls-38" d="M42.28,31.93s.38-.58,1.16-1.18c.39-.3.88-.62,1.45-.86.57-.24,1.21-.42,1.87-.51.66-.07,1.32-.03,1.92.05.6.11,1.14.29,1.58.48.45.15.78.4,1.02.53.23.15.37.23.37.23,0,0-.15-.04-.42-.1-.26-.07-.63-.18-1.09-.24-.23-.03-.46-.1-.72-.11-.26-.02-.52-.04-.8-.06-.55,0-1.14.02-1.71.15-.57.1-1.12.28-1.61.5-.49.23-.94.46-1.3.71-.74.49-1.14.89-1.14.89-.15.15-.39.15-.54,0-.13-.13-.15-.33-.05-.48h0Z"/>
      <path class="cls-96" d="M52.05,35.18s-1.46,3.64-3.73,3.99c-2.27.35-4.68-.16-4.68-.16,0,0-.06-4.22,1.12-4.81,1.18-.59,3.87-1.46,7.3.98Z"/>
      <g class="cls-117">
        <path class="cls-150" d="M43.63,39s.05,0,.17.04c.08-1.3.34-3.09,1.07-3.45,1.09-.55,3.55-1.36,6.7.57.32-.57.48-.99.48-.99-3.43-2.45-6.13-1.57-7.3-.99-1.18.59-1.12,4.81-1.12,4.81Z"/>
      </g>
      <g class="cls-76">
        <polygon class="cls-121" points="49.46 34.41 44.91 34.03 44.91 33.61 49.46 33.61 49.46 34.41"/>
        <polygon class="cls-121" points="49.46 34.43 44.91 34.05 44.91 34.03 49.46 34.41 49.46 34.43"/>
        <polygon class="cls-167" points="49.46 34.45 44.91 34.07 44.91 34.05 49.46 34.43 49.46 34.45"/>
        <polygon class="cls-159" points="49.46 34.47 44.91 34.1 44.91 34.07 49.46 34.45 49.46 34.47"/>
        <polygon class="cls-83" points="49.46 34.49 44.91 34.12 44.91 34.1 49.46 34.47 49.46 34.49"/>
        <polygon class="cls-15" points="49.46 34.51 44.91 34.14 44.91 34.12 49.46 34.49 49.46 34.51"/>
        <polygon class="cls-135" points="49.46 34.53 44.91 34.16 44.91 34.14 49.46 34.51 49.46 34.53"/>
        <polygon class="cls-64" points="49.46 34.56 44.91 34.18 44.91 34.16 49.46 34.53 49.46 34.56"/>
        <polygon class="cls-2" points="49.46 34.58 44.91 34.2 44.91 34.18 49.46 34.56 49.46 34.58"/>
        <polygon class="cls-14" points="49.46 34.6 44.91 34.22 44.91 34.2 49.46 34.58 49.46 34.6"/>
        <polygon class="cls-69" points="49.46 34.62 44.91 34.24 44.91 34.22 49.46 34.6 49.46 34.62"/>
        <polygon class="cls-49" points="49.46 34.64 44.91 34.26 44.91 34.24 49.46 34.62 49.46 34.64"/>
        <polygon class="cls-62" points="49.46 34.66 44.91 34.28 44.91 34.26 49.46 34.64 49.46 34.66"/>
        <polygon class="cls-110" points="49.46 34.68 44.91 34.31 44.91 34.28 49.46 34.66 49.46 34.68"/>
        <polygon class="cls-146" points="49.46 34.7 44.91 34.33 44.91 34.31 49.46 34.68 49.46 34.7"/>
        <polygon class="cls-143" points="49.46 34.72 44.91 34.35 44.91 34.33 49.46 34.7 49.46 34.72"/>
        <polygon class="cls-63" points="49.46 34.74 44.91 34.37 44.91 34.35 49.46 34.72 49.46 34.74"/>
        <polygon class="cls-50" points="49.46 34.77 44.91 34.39 44.91 34.37 49.46 34.74 49.46 34.77"/>
        <polygon class="cls-158" points="49.46 34.79 44.91 34.41 44.91 34.39 49.46 34.77 49.46 34.79"/>
        <polygon class="cls-149" points="49.46 34.81 44.91 34.43 44.91 34.41 49.46 34.79 49.46 34.81"/>
        <polygon class="cls-120" points="49.46 34.83 44.91 34.45 44.91 34.43 49.46 34.81 49.46 34.83"/>
        <polygon class="cls-144" points="49.46 34.85 44.91 34.47 44.91 34.45 49.46 34.83 49.46 34.85"/>
        <polygon class="cls-124" points="49.46 34.87 44.91 34.49 44.91 34.47 49.46 34.85 49.46 34.87"/>
        <polygon class="cls-18" points="49.46 34.89 44.91 34.52 44.91 34.49 49.46 34.87 49.46 34.89"/>
        <polygon class="cls-155" points="49.46 34.91 44.91 34.54 44.91 34.52 49.46 34.89 49.46 34.91"/>
        <polygon class="cls-19" points="49.46 34.93 44.91 34.56 44.91 34.54 49.46 34.91 49.46 34.93"/>
        <polygon class="cls-108" points="49.46 34.95 44.91 34.58 44.91 34.56 49.46 34.93 49.46 34.95"/>
        <polygon class="cls-27" points="49.46 34.98 44.91 34.6 44.91 34.58 49.46 34.95 49.46 34.98"/>
        <polygon class="cls-40" points="49.46 35 44.91 34.62 44.91 34.6 49.46 34.98 49.46 35"/>
        <polygon class="cls-160" points="49.46 35.02 44.91 34.64 44.91 34.62 49.46 35 49.46 35.02"/>
        <polygon class="cls-115" points="49.46 35.04 44.91 34.66 44.91 34.64 49.46 35.02 49.46 35.04"/>
        <polygon class="cls-107" points="49.46 35.06 44.91 34.68 44.91 34.66 49.46 35.04 49.46 35.06"/>
        <polygon class="cls-105" points="49.46 35.08 44.91 34.7 44.91 34.68 49.46 35.06 49.46 35.08"/>
        <polygon class="cls-101" points="49.46 35.1 44.91 34.73 44.91 34.7 49.46 35.08 49.46 35.1"/>
        <polygon class="cls-75" points="49.46 35.12 44.91 34.75 44.91 34.73 49.46 35.1 49.46 35.12"/>
        <polygon class="cls-6" points="49.46 35.14 44.91 34.77 44.91 34.75 49.46 35.12 49.46 35.14"/>
        <polygon class="cls-113" points="49.46 35.17 44.91 34.79 44.91 34.77 49.46 35.14 49.46 35.17"/>
        <polygon class="cls-122" points="49.46 35.19 44.91 34.81 44.91 34.79 49.46 35.17 49.46 35.19"/>
        <polygon class="cls-111" points="49.46 35.21 44.91 34.83 44.91 34.81 49.46 35.19 49.46 35.21"/>
        <polygon class="cls-151" points="49.46 35.23 44.91 34.85 44.91 34.83 49.46 35.21 49.46 35.23"/>
        <polygon class="cls-72" points="49.46 35.25 44.91 34.87 44.91 34.85 49.46 35.23 49.46 35.25"/>
        <polygon class="cls-99" points="49.46 35.27 44.91 34.89 44.91 34.87 49.46 35.25 49.46 35.27"/>
        <polygon class="cls-77" points="49.46 35.29 44.91 34.91 44.91 34.89 49.46 35.27 49.46 35.29"/>
        <polygon class="cls-127" points="49.46 35.31 44.91 34.94 44.91 34.91 49.46 35.29 49.46 35.31"/>
        <polygon class="cls-131" points="49.46 35.33 44.91 34.96 44.91 34.94 49.46 35.31 49.46 35.33"/>
        <polygon class="cls-102" points="49.46 35.35 44.91 34.98 44.91 34.96 49.46 35.33 49.46 35.35"/>
        <polygon class="cls-177" points="49.46 35.38 44.91 35 44.91 34.98 49.46 35.35 49.46 35.38"/>
        <polygon class="cls-24" points="49.46 35.4 44.91 35.02 44.91 35 49.46 35.38 49.46 35.4"/>
        <polygon class="cls-65" points="49.46 35.42 44.91 35.04 44.91 35.02 49.46 35.4 49.46 35.42"/>
        <polygon class="cls-33" points="49.46 35.44 44.91 35.06 44.91 35.04 49.46 35.42 49.46 35.44"/>
        <polygon class="cls-66" points="49.46 35.46 44.91 35.08 44.91 35.06 49.46 35.44 49.46 35.46"/>
        <polygon class="cls-153" points="49.46 35.48 44.91 35.1 44.91 35.08 49.46 35.46 49.46 35.48"/>
        <polygon class="cls-29" points="49.46 35.5 44.91 35.12 44.91 35.1 49.46 35.48 49.46 35.5"/>
        <polygon class="cls-54" points="49.46 35.52 44.91 35.15 44.91 35.12 49.46 35.5 49.46 35.52"/>
        <polygon class="cls-140" points="49.46 35.54 44.91 35.17 44.91 35.15 49.46 35.52 49.46 35.54"/>
        <polygon class="cls-164" points="49.46 35.56 44.91 35.19 44.91 35.17 49.46 35.54 49.46 35.56"/>
        <polygon class="cls-119" points="49.46 35.59 44.91 35.21 44.91 35.19 49.46 35.56 49.46 35.59"/>
        <polygon class="cls-100" points="49.46 35.61 44.91 35.23 44.91 35.21 49.46 35.59 49.46 35.61"/>
        <polygon class="cls-80" points="49.46 35.63 44.91 35.25 44.91 35.23 49.46 35.61 49.46 35.63"/>
        <polygon class="cls-172" points="49.46 35.65 44.91 35.27 44.91 35.25 49.46 35.63 49.46 35.65"/>
        <polygon class="cls-130" points="49.46 35.67 44.91 35.29 44.91 35.27 49.46 35.65 49.46 35.67"/>
        <polygon class="cls-161" points="49.46 35.69 44.91 35.31 44.91 35.29 49.46 35.67 49.46 35.69"/>
        <polygon class="cls-42" points="49.46 35.71 44.91 35.33 44.91 35.31 49.46 35.69 49.46 35.71"/>
        <polygon class="cls-178" points="49.46 35.73 44.91 35.36 44.91 35.33 49.46 35.71 49.46 35.73"/>
        <polygon class="cls-23" points="49.46 35.75 44.91 35.38 44.91 35.36 49.46 35.73 49.46 35.75"/>
        <polygon class="cls-142" points="49.46 35.77 44.91 35.4 44.91 35.38 49.46 35.75 49.46 35.77"/>
        <polygon class="cls-68" points="49.46 35.8 44.91 35.42 44.91 35.4 49.46 35.77 49.46 35.8"/>
        <polygon class="cls-94" points="49.46 35.82 44.91 35.44 44.91 35.42 49.46 35.8 49.46 35.82"/>
        <polygon class="cls-154" points="49.46 35.84 44.91 35.46 44.91 35.44 49.46 35.82 49.46 35.84"/>
        <polygon class="cls-45" points="49.46 35.86 44.91 35.48 44.91 35.46 49.46 35.84 49.46 35.86"/>
        <polygon class="cls-48" points="49.46 35.88 44.91 35.5 44.91 35.48 49.46 35.86 49.46 35.88"/>
        <polygon class="cls-133" points="49.46 35.9 44.91 35.52 44.91 35.5 49.46 35.88 49.46 35.9"/>
        <polygon class="cls-61" points="49.46 35.92 44.91 35.55 44.91 35.52 49.46 35.9 49.46 35.92"/>
        <polygon class="cls-11" points="49.46 35.94 44.91 35.57 44.91 35.55 49.46 35.92 49.46 35.94"/>
        <polygon class="cls-132" points="49.46 35.96 44.91 35.59 44.91 35.57 49.46 35.94 49.46 35.96"/>
        <polygon class="cls-51" points="49.46 35.98 44.91 35.61 44.91 35.59 49.46 35.96 49.46 35.98"/>
        <polygon class="cls-116" points="49.46 36.01 44.91 35.63 44.91 35.61 49.46 35.98 49.46 36.01"/>
        <polygon class="cls-141" points="49.46 36.03 44.91 35.65 44.91 35.63 49.46 36.01 49.46 36.03"/>
        <polygon class="cls-103" points="49.46 36.05 44.91 35.67 44.91 35.65 49.46 36.03 49.46 36.05"/>
        <polygon class="cls-87" points="49.46 36.07 44.91 35.69 44.91 35.67 49.46 36.05 49.46 36.07"/>
        <polygon class="cls-89" points="49.46 36.09 44.91 35.71 44.91 35.69 49.46 36.07 49.46 36.09"/>
        <polygon class="cls-92" points="49.46 36.11 44.91 35.73 44.91 35.71 49.46 36.09 49.46 36.11"/>
        <polygon class="cls-147" points="49.46 36.13 44.91 35.76 44.91 35.73 49.46 36.11 49.46 36.13"/>
        <polygon class="cls-58" points="49.46 36.15 44.91 35.78 44.91 35.76 49.46 36.13 49.46 36.15"/>
        <polygon class="cls-71" points="49.46 36.17 44.91 35.8 44.91 35.78 49.46 36.15 49.46 36.17"/>
        <polygon class="cls-17" points="49.46 36.19 44.91 35.82 44.91 35.8 49.46 36.17 49.46 36.19"/>
        <polygon class="cls-82" points="49.46 36.22 44.91 35.84 44.91 35.82 49.46 36.19 49.46 36.22"/>
        <polygon class="cls-82" points="49.46 36.24 44.91 35.86 44.91 35.84 49.46 36.22 49.46 36.24"/>
        <polygon class="cls-95" points="49.46 36.26 44.91 35.88 44.91 35.86 49.46 36.24 49.46 36.26"/>
        <polygon class="cls-28" points="49.46 36.28 44.91 35.9 44.91 35.88 49.46 36.26 49.46 36.28"/>
        <polygon class="cls-28" points="49.46 36.3 44.91 35.92 44.91 35.9 49.46 36.28 49.46 36.3"/>
        <polygon class="cls-168" points="49.46 36.32 44.91 35.94 44.91 35.92 49.46 36.3 49.46 36.32"/>
        <polygon class="cls-73" points="49.46 36.34 44.91 35.97 44.91 35.94 49.46 36.32 49.46 36.34"/>
        <polygon class="cls-163" points="49.46 36.36 44.91 35.99 44.91 35.97 49.46 36.34 49.46 36.36"/>
        <polygon class="cls-79" points="49.46 36.38 44.91 36.01 44.91 35.99 49.46 36.36 49.46 36.38"/>
        <polygon class="cls-35" points="49.46 36.4 44.91 36.03 44.91 36.01 49.46 36.38 49.46 36.4"/>
        <polygon class="cls-134" points="49.46 36.43 44.91 36.05 44.91 36.03 49.46 36.4 49.46 36.43"/>
        <polygon class="cls-176" points="49.46 36.45 44.91 36.07 44.91 36.05 49.46 36.43 49.46 36.45"/>
        <polygon class="cls-74" points="49.46 36.47 44.91 36.09 44.91 36.07 49.46 36.45 49.46 36.47"/>
        <polygon class="cls-39" points="49.46 36.49 44.91 36.11 44.91 36.09 49.46 36.47 49.46 36.49"/>
        <polygon class="cls-22" points="49.46 36.51 44.91 36.13 44.91 36.11 49.46 36.49 49.46 36.51"/>
        <polygon class="cls-34" points="49.46 36.53 44.91 36.15 44.91 36.13 49.46 36.51 49.46 36.53"/>
        <polygon class="cls-125" points="49.46 36.55 44.91 36.18 44.91 36.15 49.46 36.53 49.46 36.55"/>
        <polygon class="cls-88" points="49.46 36.57 44.91 36.2 44.91 36.18 49.46 36.55 49.46 36.57"/>
        <polygon class="cls-170" points="49.46 36.59 44.91 36.22 44.91 36.2 49.46 36.57 49.46 36.59"/>
        <polygon class="cls-32" points="49.46 36.61 44.91 36.24 44.91 36.22 49.46 36.59 49.46 36.61"/>
        <polygon class="cls-118" points="49.46 36.64 44.91 36.26 44.91 36.24 49.46 36.61 49.46 36.64"/>
        <polygon class="cls-109" points="49.46 36.66 44.91 36.28 44.91 36.26 49.46 36.64 49.46 36.66"/>
        <polygon class="cls-9" points="49.46 36.68 44.91 36.3 44.91 36.28 49.46 36.66 49.46 36.68"/>
        <polygon class="cls-137" points="49.46 36.7 44.91 36.32 44.91 36.3 49.46 36.68 49.46 36.7"/>
        <polygon class="cls-137" points="49.46 36.72 44.91 36.34 44.91 36.32 49.46 36.7 49.46 36.72"/>
        <polygon class="cls-30" points="49.46 36.74 44.91 36.36 44.91 36.34 49.46 36.72 49.46 36.74"/>
        <polygon class="cls-20" points="49.46 36.76 44.91 36.39 44.91 36.36 49.46 36.74 49.46 36.76"/>
        <polygon class="cls-123" points="49.46 36.78 44.91 36.41 44.91 36.39 49.46 36.76 49.46 36.78"/>
        <polygon class="cls-91" points="49.46 36.8 44.91 36.43 44.91 36.41 49.46 36.78 49.46 36.8"/>
        <polygon class="cls-126" points="49.46 36.82 44.91 36.45 44.91 36.43 49.46 36.8 49.46 36.82"/>
        <polygon class="cls-126" points="49.46 36.85 44.91 36.47 44.91 36.45 49.46 36.82 49.46 36.85"/>
        <polygon class="cls-57" points="49.46 36.87 44.91 36.49 44.91 36.47 49.46 36.85 49.46 36.87"/>
        <polygon class="cls-57" points="49.46 36.89 44.91 36.51 44.91 36.49 49.46 36.87 49.46 36.89"/>
        <polygon class="cls-55" points="49.46 36.91 44.91 36.53 44.91 36.51 49.46 36.89 49.46 36.91"/>
        <polygon class="cls-169" points="49.46 36.93 44.91 36.55 44.91 36.53 49.46 36.91 49.46 36.93"/>
        <polygon class="cls-169" points="49.46 36.95 44.91 36.57 44.91 36.55 49.46 36.93 49.46 36.95"/>
        <polygon class="cls-10" points="49.46 36.97 44.91 36.6 44.91 36.57 49.46 36.95 49.46 36.97"/>
        <polygon class="cls-70" points="49.46 36.99 44.91 36.62 44.91 36.6 49.46 36.97 49.46 36.99"/>
        <polygon class="cls-152" points="49.46 37.01 44.91 36.64 44.91 36.62 49.46 36.99 49.46 37.01"/>
        <polygon class="cls-59" points="49.46 37.03 44.91 36.66 44.91 36.64 49.46 37.01 49.46 37.03"/>
        <polygon class="cls-173" points="49.46 37.06 44.91 36.68 44.91 36.66 49.46 37.03 49.46 37.06"/>
        <polygon class="cls-112" points="49.46 37.08 44.91 36.7 44.91 36.68 49.46 37.06 49.46 37.08"/>
        <polygon class="cls-112" points="49.46 37.1 44.91 36.72 44.91 36.7 49.46 37.08 49.46 37.1"/>
        <polygon class="cls-3" points="49.46 37.12 44.91 36.74 44.91 36.72 49.46 37.1 49.46 37.12"/>
        <polygon class="cls-52" points="49.46 37.14 44.91 36.76 44.91 36.74 49.46 37.12 49.46 37.14"/>
        <polygon class="cls-156" points="49.46 37.16 44.91 36.78 44.91 36.76 49.46 37.14 49.46 37.16"/>
        <polygon class="cls-156" points="49.46 37.18 44.91 36.81 44.91 36.78 49.46 37.16 49.46 37.18"/>
        <polygon class="cls-86" points="49.46 37.2 44.91 36.83 44.91 36.81 49.46 37.18 49.46 37.2"/>
        <polygon class="cls-47" points="49.46 37.22 44.91 36.85 44.91 36.83 49.46 37.2 49.46 37.22"/>
        <polygon class="cls-47" points="49.46 37.24 44.91 36.87 44.91 36.85 49.46 37.22 49.46 37.24"/>
        <polygon class="cls-97" points="49.46 37.27 44.91 36.89 44.91 36.87 49.46 37.24 49.46 37.27"/>
        <polygon class="cls-97" points="49.46 37.29 44.91 36.91 44.91 36.89 49.46 37.27 49.46 37.29"/>
        <polygon class="cls-106" points="49.46 37.31 44.91 36.93 44.91 36.91 49.46 37.29 49.46 37.31"/>
        <polygon class="cls-16" points="49.46 37.33 44.91 36.95 44.91 36.93 49.46 37.31 49.46 37.33"/>
        <polygon class="cls-104" points="49.46 37.35 44.91 36.97 44.91 36.95 49.46 37.33 49.46 37.35"/>
        <polygon class="cls-104" points="49.46 37.37 44.91 36.99 44.91 36.97 49.46 37.35 49.46 37.37"/>
        <polygon class="cls-43" points="49.46 37.39 44.91 37.02 44.91 36.99 49.46 37.37 49.46 37.39"/>
        <polygon class="cls-174" points="49.46 37.41 44.91 37.04 44.91 37.02 49.46 37.39 49.46 37.41"/>
        <polygon class="cls-174" points="49.46 37.43 44.91 37.06 44.91 37.04 49.46 37.41 49.46 37.43"/>
        <polygon class="cls-114" points="49.46 37.45 44.91 37.08 44.91 37.06 49.46 37.43 49.46 37.45"/>
        <polygon class="cls-56" points="49.46 37.48 44.91 37.1 44.91 37.08 49.46 37.45 49.46 37.48"/>
        <polygon class="cls-31" points="49.46 37.5 44.91 37.12 44.91 37.1 49.46 37.48 49.46 37.5"/>
        <polygon class="cls-25" points="49.46 37.52 44.91 37.14 44.91 37.12 49.46 37.5 49.46 37.52"/>
        <polygon class="cls-25" points="49.46 37.54 44.91 37.16 44.91 37.14 49.46 37.52 49.46 37.54"/>
        <polygon class="cls-166" points="49.46 37.56 44.91 37.18 44.91 37.16 49.46 37.54 49.46 37.56"/>
        <polygon class="cls-128" points="49.46 37.58 44.91 37.2 44.91 37.18 49.46 37.56 49.46 37.58"/>
        <polygon class="cls-128" points="49.46 37.6 44.91 37.23 44.91 37.2 49.46 37.58 49.46 37.6"/>
        <polygon class="cls-128" points="49.46 37.62 44.91 37.25 44.91 37.23 49.46 37.6 49.46 37.62"/>
        <polygon class="cls-90" points="49.46 37.64 44.91 37.27 44.91 37.25 49.46 37.62 49.46 37.64"/>
        <polygon class="cls-90" points="49.46 37.66 44.91 37.29 44.91 37.27 49.46 37.64 49.46 37.66"/>
        <polygon class="cls-78" points="49.46 37.69 44.91 37.31 44.91 37.29 49.46 37.66 49.46 37.69"/>
        <polygon class="cls-78" points="49.46 37.71 44.91 37.33 44.91 37.31 49.46 37.69 49.46 37.71"/>
        <polygon class="cls-138" points="49.46 37.73 44.91 37.35 44.91 37.33 49.46 37.71 49.46 37.73"/>
        <polygon class="cls-4" points="49.46 37.75 44.91 37.37 44.91 37.35 49.46 37.73 49.46 37.75"/>
        <polygon class="cls-4" points="49.46 37.77 44.91 37.39 44.91 37.37 49.46 37.75 49.46 37.77"/>
        <polygon class="cls-46" points="49.46 37.79 44.91 37.41 44.91 37.39 49.46 37.77 49.46 37.79"/>
        <polygon class="cls-60" points="49.46 37.81 44.91 37.44 44.91 37.41 49.46 37.79 49.46 37.81"/>
        <polygon class="cls-84" points="49.46 37.83 44.91 37.46 44.91 37.44 49.46 37.81 49.46 37.83"/>
        <polygon class="cls-84" points="49.46 37.85 44.91 37.48 44.91 37.46 49.46 37.83 49.46 37.85"/>
        <polygon class="cls-84" points="49.46 37.87 44.91 37.5 44.91 37.48 49.46 37.85 49.46 37.87"/>
        <polygon class="cls-175" points="49.46 37.9 44.91 37.52 44.91 37.5 49.46 37.87 49.46 37.9"/>
        <polygon class="cls-12" points="49.46 37.92 44.91 37.54 44.91 37.52 49.46 37.9 49.46 37.92"/>
        <polygon class="cls-12" points="49.46 37.94 44.91 37.56 44.91 37.54 49.46 37.92 49.46 37.94"/>
        <polygon class="cls-171" points="49.46 37.96 44.91 37.58 44.91 37.56 49.46 37.94 49.46 37.96"/>
        <polygon class="cls-136" points="49.46 37.98 44.91 37.6 44.91 37.58 49.46 37.96 49.46 37.98"/>
        <polygon class="cls-136" points="49.46 38 44.91 37.62 44.91 37.6 49.46 37.98 49.46 38"/>
        <polygon class="cls-136" points="49.46 38.02 44.91 37.65 44.91 37.62 49.46 38 49.46 38.02"/>
        <polygon class="cls-136" points="49.46 38.04 44.91 37.67 44.91 37.65 49.46 38.02 49.46 38.04"/>
        <polygon class="cls-41" points="49.46 38.06 44.91 37.69 44.91 37.67 49.46 38.04 49.46 38.06"/>
        <polygon class="cls-98" points="49.46 38.08 44.91 37.71 44.91 37.69 49.46 38.06 49.46 38.08"/>
        <polygon class="cls-21" points="49.41 38.1 44.91 37.73 44.91 37.71 49.46 38.08 49.46 38.1 49.41 38.1"/>
        <polygon class="cls-21" points="49.15 38.1 44.91 37.75 44.91 37.73 49.41 38.1 49.15 38.1"/>
        <polygon class="cls-21" points="48.9 38.1 44.91 37.77 44.91 37.75 49.15 38.1 48.9 38.1"/>
        <polygon class="cls-21" points="48.64 38.1 44.91 37.79 44.91 37.77 48.9 38.1 48.64 38.1"/>
        <polygon class="cls-21" points="48.39 38.1 44.91 37.81 44.91 37.79 48.64 38.1 48.39 38.1"/>
        <polygon class="cls-21" points="48.13 38.1 44.91 37.83 44.91 37.81 48.39 38.1 48.13 38.1"/>
        <polygon class="cls-67" points="47.88 38.1 44.91 37.86 44.91 37.83 48.13 38.1 47.88 38.1"/>
        <polygon class="cls-148" points="47.63 38.1 44.91 37.88 44.91 37.86 47.88 38.1 47.63 38.1"/>
        <polygon class="cls-148" points="47.37 38.1 44.91 37.9 44.91 37.88 47.63 38.1 47.37 38.1"/>
        <polygon class="cls-148" points="47.12 38.1 44.91 37.92 44.91 37.9 47.37 38.1 47.12 38.1"/>
        <polygon class="cls-148" points="46.86 38.1 44.91 37.94 44.91 37.92 47.12 38.1 46.86 38.1"/>
        <polygon class="cls-148" points="46.61 38.1 44.91 37.96 44.91 37.94 46.86 38.1 46.61 38.1"/>
        <polygon class="cls-148" points="46.35 38.1 44.91 37.98 44.91 37.96 46.61 38.1 46.35 38.1"/>
        <polygon class="cls-148" points="46.1 38.1 44.91 38 44.91 37.98 46.35 38.1 46.1 38.1"/>
        <polygon class="cls-36" points="45.85 38.1 44.91 38.02 44.91 38 46.1 38.1 45.85 38.1"/>
        <polygon class="cls-36" points="45.59 38.1 44.91 38.04 44.91 38.02 45.85 38.1 45.59 38.1"/>
        <polygon class="cls-53" points="45.34 38.1 44.91 38.07 44.91 38.04 45.59 38.1 45.34 38.1"/>
        <polygon class="cls-53" points="45.08 38.1 44.91 38.09 44.91 38.07 45.34 38.1 45.08 38.1"/>
        <polygon class="cls-53" points="44.91 38.09 45.08 38.1 44.91 38.1 44.91 38.09"/>
      </g>
      <path class="cls-44" d="M47.08,37.33c-.64-.05-1.14-.7-1.08-1.4.06-.71.65-1.26,1.29-1.21.64.05,1.14.7,1.08,1.4-.06.71-.65,1.26-1.29,1.21Z"/>
      <path class="cls-129" d="M47.14,37.07c-.45-.04-.91-.53-.86-1.12.05-.6.59-1.01,1.03-.97.45.04.91.53.86,1.13-.05.6-.59,1.01-1.03.97Z"/>
      <path class="cls-96" d="M46.77,35.59c-.02.22-.24.38-.5.35-.26-.02-.45-.22-.43-.43.02-.22.24-.38.5-.36.26.02.45.21.44.43Z"/>
      <path class="cls-96" d="M48.22,36.85c0,.11-.12.19-.25.18-.13,0-.23-.11-.22-.22,0-.11.12-.19.25-.18.13,0,.23.11.22.22Z"/>
      <path class="cls-5" d="M20.88,37.85c.97-1.58,2.49-.91,2.87-.57.4.37.72.87.48,1.8-.13.52-.68.57-.54,1.37.16.89.57.95.8,1.15.23.2.53.35.68.73.14.37.17.77.1,1.12-.15.65-1.09.14-1.72-.14-.42-.18-1.74-1.29-2.08-1.65-.84-.94-1.25-2.74-.6-3.8"/>
      <path class="cls-26" d="M41.32,44.92c.34-.23.74-.12.74-.12,0,0,0,0-.01.02-.08.14-.54.87-.91.86,0,0-.08-.07-.1-.24-.03-.17.11-.4.28-.52Z"/>
      <path class="cls-162" d="M25.67,30.35h0s0-.01,0-.02c0,0,0,.01,0,.02Z"/>
      <path class="cls-13" d="M61.62,71.19c-.47-2.15.36-3.15-2.88-5.21-.01,0-.03-.02-.04-.03-.03-.01-.75-.25-1.82-.6t-.03-.01c-.7-.23-1.55-.51-2.43-.82-.34-.12-.68-.25-1.04-.36-.11-.04-.22-.08-.33-.12-.16-.06-.32-.12-.48-.17v3.99c0,6.27-5.82,8.53-12.94,8.53s-12.94-2.27-12.94-8.53v-3.81c-.32.11-.64.23-.96.34-.09.03-.18.07-.27.09-.95.33-1.86.64-2.6.89h-.01c-1.06.36-1.78.59-1.81.6-.04.03-.08.05-.12.08-3.12,2.01-2.35,3.01-2.8,5.12h0v.04s-.03.08-.04.15h0c-.07.37-.61,3.96-.65,4.87l6.39.08v2.66h32.5v-2.66h5.5c-.05-1.11-.12-4.91-.21-5.1Z"/>
      <path class="cls-139" d="M39.63,76.38c7.12,0,12.94-2.27,12.94-8.53v-3.99c-.24-.09-.49-.18-.73-.27l-1.6-.38c0,.16,0,1.33,0,1.65,0,6.79-4.62,8.56-10.32,8.56s-10.32-1.77-10.32-8.56c0-.28.01-1.55.03-1.82l-1.44.44c-.42.16-.85.31-1.29.47-.07.03-.14.05-.21.08v3.81c0,6.27,5.82,8.53,12.94,8.53Z"/>
      <path class="cls-162" d="M57.94,23.12c-.19-2.7-2.01-5.9-2.01-5.9-.43-.78-.86-1.36-1.25-1.72-1.63-1.46-3.68-1.99-3.68-1.99,0,0-1.33-.64-3.1-1.48-1.5-.71-3.32-1.56-4.91-2.28-3.46-1.57-9.09-.32-12.01.42-2.92.73-6.4,4.74-7.49,6.94-1.08,2.2-3.77,6.96-4.64,10.41-.86,3.45,2.04,6.79,3.86,7.51,1.18.47,1.25,3.14,1.25,3.14l1.29.55c4.05-10.35,9.41-4.87,9.41-4.87,7.45-2.45,10.25-9.98,10.75-11.53-.14,1.89-.29,3.36-.33,3.79-.25.68-.57,1.35-.95,1.99-.05.08-.09.15-.14.23-1.9,3.1-4.11,5.04-5.52,6.07-.52.43-.94.76-1.21.96.55.07,1.09.11,1.61.14,1.89-.17,4.83-.63,7.26-1.91-.06.07-.1.11-.1.11,3.64-2.02,5.7-4.03,6.77-5.16-1.34,3.02-2.59,5.24-2.59,5.24,1.38-.15,2.63-1.08,3.69-2.3.29,1.56.45,3.72.13,6.49l.68-.47s0-1.66,1.94-2.7c1.55-.83,1.94-3.65,1.94-4.81,0-2.6-.26-4.91-.66-6.9ZM44.67,27.15s-.03.05-.04.08c.01-.03.03-.05.04-.08ZM45.14,26.23h0s0,0,0,0Z"/>
      <g>
        <path class="cls-85" d="M36.58,39.43c.15-.52.24-1.08.24-1.65,0-3.23-2.63-5.85-5.87-5.85s-5.87,2.62-5.87,5.85c0,.72.14,1.4.37,2.04,2.67-1.19,6.86-2.29,11.13-.39Z"/>
        <path class="cls-85" d="M53.72,40.69c.49-.86.78-1.85.78-2.91,0-3.23-2.63-5.85-5.87-5.85s-5.87,2.62-5.87,5.85c0,1.13.33,2.18.88,3.07,2.64-1.35,6.26-2.22,10.07-.17Z"/>
        <path class="cls-85" d="M37.5,39.89c-.02.06-.04.12-.06.17.03-.05.06-.1.09-.16-.01,0-.02-.01-.03-.02Z"/>
        <path class="cls-8" d="M37.5,39.89c-.02.06-.04.12-.06.17.03-.05.06-.1.09-.16-.01,0-.02-.01-.03-.02Z"/>
        <path class="cls-85" d="M30.96,43.63c2.67,0,4.91-1.77,5.63-4.2-4.27-1.9-8.45-.8-11.13.39.83,2.22,2.98,3.81,5.5,3.81Z"/>
        <path class="cls-8" d="M30.96,43.63c2.67,0,4.91-1.77,5.63-4.2-4.27-1.9-8.45-.8-11.13.39.83,2.22,2.98,3.81,5.5,3.81Z"/>
        <path class="cls-85" d="M42.67,41.4c.09.13.19.24.28.36-.09-.12-.18-.25-.26-.38,0,0-.02.01-.03.01Z"/>
        <path class="cls-8" d="M42.67,41.4c.09.13.19.24.28.36-.09-.12-.18-.25-.26-.38,0,0-.02.01-.03.01Z"/>
        <path class="cls-85" d="M48.64,43.63c2.18,0,4.07-1.18,5.09-2.94-3.82-2.05-7.44-1.19-10.07.17,1.04,1.66,2.88,2.77,4.99,2.77Z"/>
        <path class="cls-8" d="M48.64,43.63c2.18,0,4.07-1.18,5.09-2.94-3.82-2.05-7.44-1.19-10.07.17,1.04,1.66,2.88,2.77,4.99,2.77Z"/>
        <path class="cls-157" d="M55.32,36.14s-.06,0-.08,0c-.41-1.66-1.43-3.09-2.81-4.03-1.1-.75-2.43-1.2-3.87-1.2s-2.65.4-3.72,1.09c-1.84,1.18-3.08,3.22-3.16,5.55-.22-.1-.45-.17-.7-.24-.68-.17-1.45-.2-2.2-.07-.32.06-.64.14-.95.25-.12-2.98-2.15-5.48-4.91-6.3-.63-.19-1.29-.29-1.97-.29-.78,0-1.52.13-2.21.37-2.21.75-3.9,2.58-4.46,4.86-.03,0-.06,0-.1,0-.34,0-.62.28-.62.62v1.83c0,.34.28.62.62.62.02,0,.04,0,.05,0,.01.06.03.12.04.18.52,2.16,2.05,3.92,4.07,4.75.8.33,1.68.51,2.61.51,1.83,0,3.5-.72,4.73-1.88.79-.74,1.4-1.67,1.76-2.71.02-.06.04-.12.06-.17.17-.52.28-1.05.32-1.61.29-.13.6-.22.91-.28.79-.17,1.59-.13,2.28.09.25.08.49.18.7.32.1,1.09.45,2.11,1,2.99.08.13.17.25.26.38,1.25,1.74,3.29,2.89,5.6,2.89.66,0,1.29-.09,1.89-.27,1.66-.47,3.07-1.56,3.96-2.99.41-.66.71-1.4.88-2.18.01,0,.02,0,.04,0,.34,0,.62-.28.62-.62v-1.83c0-.34-.28-.62-.62-.62ZM36.58,39.43c-.72,2.43-2.96,4.2-5.63,4.2-2.52,0-4.66-1.59-5.5-3.81-.24-.64-.37-1.32-.37-2.04,0-3.23,2.63-5.85,5.87-5.85s5.87,2.62,5.87,5.85c0,.57-.09,1.13-.24,1.65ZM53.72,40.69c-1.01,1.75-2.91,2.94-5.09,2.94s-3.95-1.11-4.99-2.77c-.56-.89-.88-1.95-.88-3.07,0-3.23,2.63-5.85,5.87-5.85s5.87,2.62,5.87,5.85c0,1.06-.29,2.05-.78,2.91Z"/>
      </g>
      <path class="cls-96" d="M54.21,45.48l.59-.59-1.02-1.02-1.02,1.02.59.59c-.84.19-1.47.94-1.47,1.84,0,1.05.85,1.9,1.9,1.9s1.9-.85,1.9-1.9c0-.9-.63-1.65-1.47-1.84ZM53.79,48.58c-.67,0-1.21-.54-1.21-1.21s.54-1.21,1.21-1.21,1.21.54,1.21,1.21-.54,1.21-1.21,1.21Z"/>
      <path class="cls-96" d="M25.72,45.48l.59-.59-1.02-1.02-1.02,1.02.59.59c-.84.19-1.47.94-1.47,1.84,0,1.05.85,1.9,1.9,1.9s1.9-.85,1.9-1.9c0-.9-.63-1.65-1.47-1.84ZM25.29,48.58c-.67,0-1.21-.54-1.21-1.21s.54-1.21,1.21-1.21,1.21.54,1.21,1.21-.54,1.21-1.21,1.21Z"/>
    </g>
  </g>
</svg>