<?xml version="1.0" encoding="UTF-8"?>
<svg id="Layer_2" data-name="Layer 2" xmlns="http://www.w3.org/2000/svg" xmlns:xlink="http://www.w3.org/1999/xlink" viewBox="0 0 221.48 223.6">
  <defs>
    <style>
      .cls-1 {
        fill: none;
      }

      .cls-2 {
        fill: #d6bb9c;
      }

      .cls-3 {
        fill: #462e1b;
      }

      .cls-4 {
        fill: #ba9d82;
      }

      .cls-5 {
        fill: #ccad8a;
      }

      .cls-6 {
        fill: #44361f;
      }

      .cls-7 {
        fill: #d7bd9d;
      }

      .cls-8 {
        fill: #5b5051;
      }

      .cls-9 {
        fill: #e5b344;
      }

      .cls-10 {
        fill: #c27976;
      }

      .cls-11 {
        fill: #fff;
      }

      .cls-12 {
        fill: #dcc5a0;
      }

      .cls-13 {
        fill: #272213;
      }

      .cls-14 {
        fill: #ecdab6;
      }

      .cls-15 {
        fill: #49463f;
      }

      .cls-16 {
        fill: #b12717;
      }

      .cls-17 {
        fill: #af6a6f;
      }

      .cls-18 {
        fill: #b8987d;
      }

      .cls-19 {
        fill: #403317;
      }

      .cls-20 {
        fill: #ebd9b5;
      }

      .cls-21 {
        fill: #523a38;
      }

      .cls-22 {
        fill: #a98d76;
      }

      .cls-23 {
        fill: #827578;
      }

      .cls-24 {
        fill: #714223;
      }

      .cls-25 {
        fill: #b7967d;
      }

      .cls-26 {
        clip-path: url(#clippath);
      }

      .cls-27 {
        fill: #d2bb9b;
      }

      .cls-28 {
        fill: #38362e;
      }

      .cls-29 {
        fill: #b5957e;
      }
    </style>
    <clipPath id="clippath">
      <rect class="cls-1" x="102.16" y="155.04" width="25.11" height="14.8"/>
    </clipPath>
  </defs>
  <g id="Layer_1-2" data-name="Layer 1">
    <g>
      <rect class="cls-23" width="221.48" height="223.6"/>
      <path class="cls-12" d="M114.62,139.84v83.75h-45.31c-.74-.29-1.11-.45-1.11-.45,0-5.34.4-10.12,1.09-14.34.32-1.95.71-3.79,1.15-5.51.49-2.04,1.07-3.93,1.72-5.68.14-.35.26-.71.4-1.04.15-.38.31-.75.46-1.12.15-.37.31-.72.48-1.07.31-.72.64-1.4.98-2.06.58-1.14,1.2-2.21,1.84-3.21.17-.28.34-.54.51-.78.83-1.23,1.69-2.36,2.56-3.39.25-.28.49-.57.74-.83.25-.28.49-.54.74-.8.25-.25.51-.51.75-.74.25-.25.49-.48.74-.69.49-.46,1-.89,1.49-1.27,2.41-1.93,4.73-3.24,6.69-4.1.25-.11.49-.21.74-.32.77-.31,1.46-.55,2.07-.74,1.6-.51,2.58-.61,2.58-.61.18,0,.34-.02.51-.05,1.43-.23,2.58-1.47,3.52-3.44.69-1.47,1.26-3.35,1.73-5.51.18-.86.34-1.7.48-2.62.23-1.55.44-3.18.63-4.87.08-1.03.18-2.03.29-3.1.41-5.13.52-10.73.52-16.04,0,0,6.08.63,11.02.63Z"/>
      <path class="cls-20" d="M161.22,223.15s-.4.15-1.07.45h-45.53v-83.75h.11c4.91,0,11.07-.63,11.07-.63,0,5.26.11,10.81.51,15.93.12,1,.23,2.03.31,3.02.18,1.77.4,3.42.66,4.97v.03c.08.71.21,1.34.34,2,.45,2.18.98,4.1,1.64,5.63.81,1.92,1.8,3.25,3.01,3.78.37.17.78.26,1.21.26,0,0,1.73.2,4.34,1.23,1.38.54,3.01,1.3,4.74,2.39.35.21.72.46,1.07.71.29.18.58.4.87.61.25.18.52.38.77.58.54.41,1.09.87,1.64,1.38.22.18.41.38.63.58.25.21.48.45.72.71.17.15.32.31.48.48.32.34.66.71.98,1.09.17.18.34.37.49.57.74.86,1.46,1.8,2.15,2.82.31.43.58.87.87,1.34.58.94,1.15,1.93,1.7,2.99.68,1.32,1.32,2.73,1.92,4.25.14.34.28.69.4,1.04.64,1.75,1.23,3.64,1.73,5.68.45,1.72.83,3.56,1.14,5.51.69,4.22,1.09,8.99,1.09,14.34Z"/>
      <g class="cls-26">
        <path class="cls-4" d="M127.27,162.99v.04c-1.14,1.76-4.98,6.82-12.57,6.82h-.07c-7.19-.04-11.39-5.24-12.46-6.78.22-1.54.44-3.15.63-4.84.07-.99.18-2.02.29-3.08,3.5.88,7.34,1.43,11.39,1.5h.15c4.2-.07,8.07-.66,11.69-1.61.11.99.22,2.02.29,3,.18,1.76.41,3.41.66,4.95"/>
      </g>
      <path class="cls-5" d="M114.11,44.38c-48,0-48.26,40.12-46.12,66.39-3.28-6.23-13.05-4.32-12.24,5.5.77,9.45,14.73,14.27,14.34,13.23,7.27,19.43,26.51,34.08,44.02,34.08h.37V44.38h-.37"/>
      <path class="cls-22" d="M58.81,112.13c2.36-3.81,6.05-2.16,6.93-1.32.96.92,1.73,2.09,1.14,4.32-.33,1.28-1.66,1.39-1.36,3.3.37,2.16,1.36,2.27,1.95,2.78.55.48,1.25.84,1.59,1.76.37.92.41,1.87.22,2.71-.37,1.54-2.62.29-4.13-.37-1-.48-4.17-3.15-4.98-4.03-1.99-2.27-2.95-6.67-1.36-9.16"/>
      <path class="cls-7" d="M114.36,44.38c48,0,48.26,40.12,46.15,66.39,3.28-6.23,13.01-4.32,12.2,5.5-.74,9.45-14.72,14.27-14.34,13.23-7.08,19.43-26.51,34.08-44.02,34.08h-.26l-.11-119.19h.37"/>
      <path class="cls-22" d="M169.66,112.13c-2.36-3.81-6.01-2.16-6.93-1.32-.96.92-1.7,2.09-1.14,4.32.33,1.28,1.66,1.39,1.36,3.3-.37,2.16-1.36,2.27-1.92,2.78-.55.48-1.29.84-1.62,1.76-.33.92-.41,1.87-.22,2.71.37,1.54,2.62.29,4.13-.37,1.03-.48,4.17-3.15,4.98-4.03,2.03-2.27,2.95-6.67,1.36-9.16"/>
      <path class="cls-12" d="M113.73,55.71c-15.78,0-27.35,4.58-34.32,13.59-9.77,12.64-9.4,31.91-5.82,45.76,1.11,4.25,1.7,15.65,2.43,19.82,3.43,18.72,24.11,28.69,37.71,28.69h.37V55.71h-.22"/>
      <path class="cls-20" d="M148.01,69.34c-6.93-8.98-18.36-13.56-33.92-13.63v107.87c15.56-.18,34.17-11.1,37.34-28.69.77-4.18,1.33-15.57,2.43-19.82,3.61-13.81,3.98-33.05-5.86-45.73"/>
      <path class="cls-1" d="M112.17,144.57c-.22-.04-.42-.08-.59-.11.2.04.4.08.59.11Z"/>
      <path class="cls-1" d="M111.35,144.41c-.14-.03-.27-.06-.36-.08.12.03.24.05.36.08Z"/>
      <path class="cls-25" d="M111.58,144.45c-.08-.02-.15-.03-.23-.05.07.02.14.03.23.05Z"/>
      <path class="cls-25" d="M110.99,144.32c-.07-.02-.13-.04-.2-.06h0s.08.02.21.06Z"/>
      <path class="cls-1" d="M71.07,89.33c-.43,1.43-.73,2.99-.93,4.66,0,0,.63-2.63,2.03-6.52-.6.83-1,1.5-1.1,1.86Z"/>
      <path class="cls-6" d="M100.7,55.97l-.2.2.03.07c.07-.1.1-.2.17-.27Z"/>
      <path class="cls-1" d="M112.32,142.38c-.22-.04-.43-.08-.61-.12.21.04.41.09.61.12Z"/>
      <path class="cls-1" d="M111.48,142.22c-.14-.03-.28-.06-.37-.08.12.03.24.06.37.08Z"/>
      <path class="cls-29" d="M111.71,142.27c-.08-.02-.15-.03-.23-.05.08.02.14.03.23.05Z"/>
      <path class="cls-29" d="M111.11,142.13c-.07-.02-.14-.04-.21-.06h0s.08.02.21.06Z"/>
      <path class="cls-2" d="M104.72,130.36c-.19-3.83,7.03-1.4,9.41-1.28,1.88.1,7.6-1.21,8.09-.87,3.37,2.27-3.57,6.84-8.21,6.84-1.24,0-9.18-2.38-9.29-4.69Z"/>
      <path class="cls-11" d="M79.67,97.81s3.66,15.02,9.95,16.25c6.29,1.23,13.09-1.21,13.09-1.21,0,0,.65-17.65-2.57-19.96-3.22-2.32-10.63-5.66-20.47,4.92Z"/>
      <path class="cls-27" d="M102.71,112.8s-.14.04-.47.18c-.08-5.41-.58-12.85-2.59-14.28-2.99-2.19-9.74-5.27-18.75,3.16-.82-2.33-1.23-4.09-1.23-4.09,9.86-10.61,17.28-7.27,20.47-4.95,3.22,2.32,2.57,19.99,2.57,19.99Z"/>
      <circle class="cls-3" cx="92.8" cy="105.15" r="6.19"/>
      <path class="cls-24" d="M92.52,109.27c-1.79-.15-3.16-1.95-3-3.93.16-1.98,1.81-3.53,3.6-3.38,1.79.15,3.16,1.95,3,3.93-.16,1.98-1.81,3.54-3.6,3.39Z"/>
      <path class="cls-13" d="M92.67,108.55c-1.24-.11-2.53-1.47-2.4-3.15.14-1.69,1.63-2.82,2.88-2.72,1.24.11,2.53,1.48,2.39,3.16-.14,1.68-1.63,2.82-2.87,2.72Z"/>
      <path class="cls-11" d="M91.66,104.41c-.05.61-.68,1.05-1.39.99-.72-.06-1.26-.6-1.21-1.21.05-.61.67-1.05,1.39-1,.72.06,1.26.6,1.21,1.21Z"/>
      <path class="cls-11" d="M95.67,107.92c-.03.3-.34.53-.69.5-.36-.03-.63-.3-.61-.6.03-.3.34-.53.69-.5.36.03.63.3.61.6Z"/>
      <path class="cls-1" d="M112.42,144.15c-.22-.04-.43-.08-.61-.12.21.04.41.09.61.12Z"/>
      <path class="cls-1" d="M111.58,143.99c-.14-.03-.28-.06-.37-.08.12.03.24.06.37.08Z"/>
      <path class="cls-29" d="M111.81,144.04c-.08-.02-.15-.03-.23-.05.08.02.14.03.23.05Z"/>
      <path class="cls-29" d="M111.21,143.9c-.07-.02-.14-.04-.21-.06h0s.08.02.21.06Z"/>
      <path class="cls-1" d="M112.18,143.74c-.24-.04-.46-.08-.65-.12.22.05.44.09.65.12Z"/>
      <path class="cls-1" d="M111.28,143.56c-.15-.03-.3-.07-.4-.09.13.03.26.06.4.09Z"/>
      <path class="cls-25" d="M111.53,143.61c-.08-.02-.17-.03-.25-.05.08.02.15.03.25.05Z"/>
      <path class="cls-25" d="M110.88,143.47c-.08-.02-.15-.04-.22-.06h0s.09.03.23.06Z"/>
      <path class="cls-1" d="M112,143.11c-.24-.04-.46-.08-.65-.12.22.05.44.09.65.12Z"/>
      <path class="cls-1" d="M111.09,142.93c-.15-.03-.3-.07-.4-.09.13.03.26.06.4.09Z"/>
      <path class="cls-25" d="M111.34,142.99c-.08-.02-.17-.03-.25-.05.08.02.15.03.25.05Z"/>
      <path class="cls-25" d="M110.7,142.84c-.08-.02-.15-.04-.22-.06h0s.09.03.23.06Z"/>
      <path class="cls-1" d="M112.55,143.02c-.23-.04-.44-.08-.63-.12.21.05.42.09.63.12Z"/>
      <path class="cls-1" d="M111.68,142.85c-.14-.03-.29-.06-.38-.09.13.03.25.06.38.09Z"/>
      <path class="cls-25" d="M111.92,142.9c-.08-.02-.16-.03-.24-.05.08.02.15.03.24.05Z"/>
      <path class="cls-25" d="M111.3,142.76c-.07-.02-.14-.04-.21-.06h0s.08.03.22.06Z"/>
      <path class="cls-11" d="M148.91,97.3s-3.66,15.02-9.95,16.25c-6.29,1.23-13.09-1.21-13.09-1.21,0,0-.65-17.65,2.57-19.96,3.22-2.32,10.63-5.66,20.47,4.92Z"/>
      <path class="cls-27" d="M125.86,112.29s.14.04.47.18c.08-5.41.58-12.85,2.59-14.28,2.99-2.19,9.74-5.27,18.75,3.16.82-2.33,1.23-4.09,1.23-4.09-9.86-10.61-17.28-7.27-20.47-4.95-3.22,2.32-2.57,19.99-2.57,19.99Z"/>
      <path class="cls-3" d="M129.58,104.64c0,3.42,2.77,6.19,6.19,6.19s6.19-2.77,6.19-6.19-2.77-6.19-6.19-6.19-6.19,2.77-6.19,6.19Z"/>
      <path class="cls-24" d="M136.06,108.76c1.79-.15,3.16-1.95,3-3.93-.16-1.98-1.81-3.53-3.6-3.38-1.79.15-3.16,1.95-3,3.93.16,1.98,1.81,3.54,3.6,3.39Z"/>
      <path class="cls-13" d="M135.9,108.04c1.24-.11,2.53-1.47,2.4-3.15-.14-1.69-1.63-2.82-2.88-2.72-1.24.11-2.53,1.48-2.39,3.16.14,1.68,1.63,2.82,2.87,2.72Z"/>
      <path class="cls-11" d="M136.91,103.9c.05.61.68,1.05,1.39.99.72-.06,1.26-.6,1.21-1.21-.05-.61-.67-1.05-1.39-1-.72.06-1.26.6-1.21,1.21Z"/>
      <path class="cls-11" d="M132.9,107.41c.03.3.34.53.69.5.36-.03.63-.3.61-.6-.03-.3-.34-.53-.69-.49-.36.03-.63.3-.61.6Z"/>
      <g>
        <path d="M106.48,97.57c-.05-.07-1.19-1.81-3.52-3.6-1.46-1.12-2.89-1.97-4.38-2.61-1.81-.76-3.75-1.3-5.63-1.55-1.7-.19-3.59-.14-5.8.16-1.68.32-3.32.82-4.71,1.43-.99.34-1.78.82-2.41,1.21-.24.15-.46.28-.68.4l-3,1.89,3.46-.81c.16-.04.34-.09.52-.14.72-.19,1.61-.43,2.65-.58.24-.04.49-.09.75-.14.44-.09.89-.18,1.36-.2.52-.04,1.07-.07,1.63-.11l.73-.05c1.92-.02,3.54.12,4.97.45,1.57.27,3.19.78,4.67,1.46,1.4.67,2.74,1.33,3.79,2.1,2.11,1.41,3.29,2.59,3.3,2.6h0c.29.29.68.44,1.07.44.28,0,.57-.08.82-.24.7-.46.89-1.4.45-2.07l-.03-.05Z"/>
        <path d="M149.52,93c-.2-.11-.42-.24-.66-.39-.63-.39-1.41-.87-2.38-1.2-1.42-.63-3.06-1.13-4.76-1.45-2.18-.29-4.07-.34-5.78-.15-1.87.26-3.82.79-5.63,1.55-1.46.63-2.94,1.5-4.38,2.61-2.29,1.76-3.43,3.46-3.51,3.59l-.02.03c-.39.59-.3,1.39.2,1.89.28.29.66.44,1.07.44h0c.4,0,.78-.16,1.06-.44h.01c.11-.12,1.25-1.24,3.3-2.61,1.03-.76,2.37-1.42,3.77-2.09,1.49-.69,3.1-1.2,4.7-1.47,1.42-.33,3.04-.47,4.93-.45l.76.05c.55.04,1.09.08,1.62.11.46.02.91.11,1.35.2.25.05.5.1.75.14,1.05.15,1.94.39,2.65.58.19.05.36.1.53.14l3.46.81-3.03-1.9Z"/>
      </g>
      <path class="cls-1" d="M110.19,149.4c-.22-.04-.43-.08-.6-.12.21.04.4.08.6.12Z"/>
      <path class="cls-1" d="M109.36,149.23c-.14-.03-.28-.06-.37-.08.12.03.24.06.37.08Z"/>
      <path class="cls-18" d="M109.59,149.28c-.08-.02-.15-.03-.23-.05.08.02.14.03.23.05Z"/>
      <path class="cls-18" d="M108.99,149.15c-.07-.02-.14-.04-.21-.06h0s.08.02.21.06Z"/>
      <path class="cls-1" d="M110.02,148.81c-.22-.04-.43-.08-.6-.12.2.04.4.08.6.12Z"/>
      <path class="cls-1" d="M109.19,148.65c-.14-.03-.28-.06-.37-.08.12.03.24.06.37.08Z"/>
      <path class="cls-18" d="M109.42,148.7c-.08-.02-.15-.03-.23-.05.08.02.14.03.23.05Z"/>
      <path class="cls-18" d="M108.82,148.57c-.07-.02-.14-.04-.21-.06h0s.08.02.21.06Z"/>
      <path class="cls-1" d="M110.54,148.73c-.22-.04-.41-.08-.58-.11.2.04.39.08.58.11Z"/>
      <path class="cls-1" d="M109.73,148.57c-.13-.03-.27-.06-.35-.08.12.03.23.05.35.08Z"/>
      <path class="cls-18" d="M109.95,148.62c-.07-.02-.15-.03-.22-.05.07.02.14.03.22.05Z"/>
      <path class="cls-18" d="M109.37,148.49c-.07-.02-.13-.04-.2-.06h0s.08.02.21.06Z"/>
      <path class="cls-14" d="M104.92,150.41c-.18-2.39,6.65.5,8.89.57,1.79.06,7.16-.35,7.66-.54,3.76-1.4-.21,3.99-7.77,4.27-3.47.14-8.68-2.85-8.78-4.3Z"/>
      <path class="cls-17" d="M127.43,144.67c-4.33-.81-13.45.05-13.45.05-7.52,1.25-13.41-.08-13.45-.03-.18.02,6.01,8.22,13.35,7.85h0c7.34.38,13.73-7.85,13.56-7.87Z"/>
      <path class="cls-10" d="M118.33,142.94c-1.95-.22-3.34,1.19-4.34,1.09-1.02.09-2.34-.81-4.3-.83-2.76-.03-4.11-.27-9.16,1.5.18.34,3.41,2.22,9.47,2.32.09,0,1.71.92,4.02.91,1.45,0,3.43-.97,3.51-.97,6.07-.09,9.77-1.9,9.94-2.23-6.67-2.07-6.14-1.8-9.14-1.78Z"/>
      <path class="cls-19" d="M160.13,208.82h-6.97c-1.61,0-2.87,1.37-2.75,2.96.08.91.14,1.83.18,2.76.08,1.38.14,2.79.17,4.25.05,1.38.06,2.81.06,4.28,0,0-.28.14-.84.52h-35.53v-34.34h.17c.32.02.64.02.98.02,2.29,0,4.5-.21,6.58-.6,8.96-1.67,15.52-6.68,15.63-12.6,4.6,1.8,11.91,6.12,17.13,16.26.68,1.32,1.32,2.73,1.92,4.25.14.34.28.69.4,1.04h-2.87c-3.04,0-5.31,2.69-4.91,5.68h9.52c.45,1.72.83,3.56,1.14,5.51Z"/>
      <path class="cls-8" d="M114.45,189.26v34.34h-34.9c-.57-.38-.86-.52-.86-.52,0-1.47.02-2.9.06-4.28.03-1.46.09-2.87.17-4.25.05-.94.11-1.86.18-2.76.12-1.6-1.14-2.96-2.75-2.96h-7.06c.32-1.95.71-3.79,1.15-5.51h9.59c.4-2.99-1.87-5.68-4.91-5.68h-2.96c.14-.35.26-.71.4-1.04.6-1.52,1.24-2.93,1.92-4.25,5.96-11.56,14.61-15.55,18.86-16.87,0,.15-.02.31-.02.46,0,5.5,5.53,10.21,13.45,12.26,2.38.61,4.96.98,7.67,1.07Z"/>
      <path class="cls-16" d="M164.67,131.36l-5.2-7.83c-.48-.73.04-1.7.91-1.7h.8c.58,0,1.14.23,1.56.64l4.8,4.8c-.56,1.85-1.84,3.23-2.87,4.09Z"/>
      <path class="cls-16" d="M160.39,135.05l-3.05-7.19c-.28-.67.29-1.38,1-1.25l.65.12c.48.09.9.36,1.17.76l3.19,4.65c-.74,1.43-1.99,2.36-2.97,2.9Z"/>
      <path class="cls-9" d="M122.18,188.68v34.92h-15.41v-35.41c2.38.61,4.96.98,7.67,1.07h.17c.32.02.64.02.98.02,2.29,0,4.5-.21,6.58-.6Z"/>
      <path class="cls-21" d="M171.15,140.3c14.69-21.7,2.44-62.83,2.44-62.83,0,0-.09.1-.27.29-3.78-12.96-10.07-19.96-10.07-19.96h0c-3.06-4.38-7.39-8.98-12.7-13.52-10.88-9.29-17.72-7.37-26.72-7.11,0,0-.03.06-.07.15-3.96-.81-25.21-4.83-37.86-.38-13.98,4.93-25.42,13.37-33.51,36.07-2.04,5.73-3.14,11.2-3.62,16.3-.2-.18-.31-.27-.31-.27,0,0-8.58,42.17,7.95,62.31,0,0-3.98-12.13-1.93-22.02,7.44,20.95,26.8,33.87,26.8,33.87,0,0-6.01-6.7-8.7-13.39-2.09-5.19-5.2-14.1-5.2-27.22s13.59-29.36,13.59-29.36c0,0-6.27,10.19-7.5,21.4-1.25,11.2,5.32,19.87,5.32,19.87,0,0-1.31-13.31,3.28-23.9,2.31-5.32,6.11-9.96,12.32-11.88,0,0-.01.01-.01.02-3.34,8.59,3.37,15.8,3.37,15.8,0,0,.02-2.15.69-5.47,1.72-8.59,7.72-25.02,28.73-32.33l.65.9,14.79,20.33c.73.93,1.91,2.49,3.28,4.51,4.01,5.88,9.55,15.52,9.55,23.91,0,13.12-3.12,22.03-5.2,27.21-2.69,6.69-8.7,13.39-8.7,13.39,0,0,17.86-11.93,25.87-31.44h0c1.94-4.36,3.49-8.56,4.72-12.61,1.08,8.54-.97,17.36-.97,17.36Z"/>
      <g>
        <path class="cls-15" d="M163.97,61.96s11.42,4.25,14.78,6.12c3.05,1.69,8.75,4.88,9.67,7.75.47,1.46.07,4.62-1.22,5.7-4.11,3.44-17.28,5.74-23.22,6.05-8.78.46-25.57-1.13-34.23-2.42-14.37-2.14-29.9-5.44-39.6-8.03-9.7-2.59-26.88-6.57-37.12-13.72-2.55-1.78-6.81-6.4-6.8-9.11,0-.8,1.77-2.62,2.58-3.07,2.62-1.46,9.31-1.47,12.5-1.64,1.89-.1,7.06.51,7.06.51l6.13-18.11s2.75-8.28,5.14-10.27c2.58-2.15,6.16-4.41,13.3-5.31,3.83-.48,11.55-.4,15.4.03,3.6.41,13.35,3.05,14.28,3.08.92.02,6.93-1.21,7.81-1.29,3.58-.34,11.34-.06,14.76,1.11,1.97.67,5.28,3.06,6.52,4.47,2.59,2.96,6.41,13.52,6.41,13.52l5.86,24.64Z"/>
        <path class="cls-1" d="M163.97,61.96s11.42,4.25,14.78,6.12c3.05,1.69,8.75,4.88,9.67,7.75.47,1.46.07,4.62-1.22,5.7-4.11,3.44-17.28,5.74-23.22,6.05-8.78.46-25.57-1.13-34.23-2.42-14.37-2.14-29.9-5.44-39.6-8.03-9.7-2.59-26.88-6.57-37.12-13.72-2.55-1.78-6.81-6.4-6.8-9.11,0-.8,1.77-2.62,2.58-3.07,2.62-1.46,9.31-1.47,12.5-1.64,1.89-.1,7.06.51,7.06.51l6.13-18.11s2.75-8.28,5.14-10.27c2.58-2.15,6.16-4.41,13.3-5.31,3.83-.48,11.55-.4,15.4.03,3.6.41,13.35,3.05,14.28,3.08.92.02,6.93-1.21,7.81-1.29,3.58-.34,11.34-.06,14.76,1.11,1.97.67,5.28,3.06,6.52,4.47,2.59,2.96,6.41,13.52,6.41,13.52l5.86,24.64Z"/>
        <path class="cls-28" d="M124.2,19.96s12.61,4.71,12.81,4.83c.2.12,8.62.74,10.68-.02,1.02-.38,1.6-1.9,1.26-2.53-.64-1.17-3.83-2.37-5.32-2.8-2.41-.71-7.61-1.06-10.16-.98-2.37.08-9.27,1.5-9.27,1.5"/>
        <path class="cls-28" d="M164.16,68.97s11.31,4.04,11.42,4.04c.1,0,6.69,2.56,7.69,1.22.87-1.16-3.01-3.32-4.27-4.23-1.74-1.26-7.88-4.12-7.88-4.12l-8.23-3.04,1.26,6.13Z"/>
        <path class="cls-28" d="M67.98,50.9s-4.85-.21-6.47-.16c-2.44.07-7.4.23-9.73.8-.71.17-2.32.58-2.63,1.12-.61,1.06.56,3.52,1.24,4.56.83,1.27,3.49,3.28,4.86,4.2,2.42,1.63,8.35,4.81,8.72,4.97.36.16,7.84,3.61,9.94,4.48,2.79,1.15,8.71,2.86,11.72,3.56,2.65.61,8.09,1.31,10.97,1.01,2.88-.3,27.38-2.96,27.38-2.96,0,0-37.9-2.54-48.77-7.37-2.95-1.31-9.16-7.93-9.16-7.93l1.94-6.28Z"/>
        <path class="cls-9" d="M164.83,69.63s-3.33,1.55-10.52,2.19c-8.75.78-25.63,1.5-34.44,1.3-9.18-.21-28.41-1.67-37.44-3-3.68-.54-11-2.14-14.31-3.54-1.12-.47-4.09-2.4-4.09-2.4l2.87-10.02s6.65,2.96,16.17,4.26c8.6,1.18,25.79,2.46,34.5,2.63,8.29.16,26.26-.52,34.53-1,2.96-.17,11-1.7,11-1.7l1.72,11.29Z"/>
      </g>
    </g>
  </g>
</svg>