<?xml version="1.0" encoding="UTF-8"?>
<svg id="Layer_2" data-name="Layer 2" xmlns="http://www.w3.org/2000/svg" xmlns:xlink="http://www.w3.org/1999/xlink" viewBox="0 0 221.48 223.6">
  <defs>
    <style>
      .cls-1 {
        fill: none;
      }

      .cls-2 {
        fill: #d6bb9c;
      }

      .cls-3 {
        fill: #462e1b;
      }

      .cls-4 {
        fill: #ba9d82;
      }

      .cls-5 {
        fill: #ccad8a;
      }

      .cls-6 {
        fill: #866fa8;
      }

      .cls-7 {
        fill: #44361f;
      }

      .cls-8 {
        fill: #292620;
      }

      .cls-9 {
        fill: #d7bd9d;
      }

      .cls-10 {
        fill: #413c38;
      }

      .cls-11 {
        fill: #fff;
      }

      .cls-12 {
        fill: #dcc5a0;
      }

      .cls-13 {
        fill: #272213;
      }

      .cls-14 {
        fill: #ecdab6;
      }

      .cls-15 {
        fill: #b8987d;
      }

      .cls-16 {
        fill: #8f4b63;
      }

      .cls-17 {
        fill: #a91319;
        opacity: .72;
      }

      .cls-18 {
        fill: #f7f7f7;
      }

      .cls-19 {
        fill: #b11117;
        opacity: .54;
      }

      .cls-20 {
        fill: #ebd9b5;
      }

      .cls-21 {
        fill: #a98d76;
      }

      .cls-22 {
        fill: #714223;
      }

      .cls-23 {
        fill: #b7967d;
      }

      .cls-24 {
        clip-path: url(#clippath);
      }

      .cls-25 {
        fill: #d2bb9b;
      }

      .cls-26 {
        fill: #b5957e;
      }

      .cls-27 {
        fill: #c68c8f;
        fill-rule: evenodd;
      }
    </style>
    <clipPath id="clippath">
      <rect class="cls-1" x="103.02" y="155.04" width="25.1" height="14.8"/>
    </clipPath>
  </defs>
  <g id="Layer_1-2" data-name="Layer 1">
    <g>
      <rect class="cls-6" width="221.48" height="223.59"/>
      <path class="cls-12" d="M115.48,139.84v83.76h-45.31c-.74-.29-1.11-.44-1.11-.44,0-10.69,1.57-19.03,3.96-25.53,5.77-15.69,16.32-20.67,21.18-22.17,1.59-.49,2.58-.61,2.58-.61.17,0,.33-.02.5-.04,1.43-.23,2.58-1.47,3.51-3.45.69-1.47,1.27-3.34,1.74-5.51.19-.85.33-1.7.48-2.62.22-1.55.44-3.17.63-4.87.07-1.03.18-2.03.29-3.1.4-5.12.52-10.73.52-16.04,0,0,6.08.63,11.02.63Z"/>
      <path class="cls-20" d="M162.08,223.15s-.41.15-1.07.44h-45.53v-83.76h.11c4.9,0,11.06-.63,11.06-.63,0,5.27.11,10.81.51,15.93.11,1,.22,2.03.29,3.02.19,1.77.41,3.43.67,4.98v.03c.07.7.22,1.33.33,1.99.45,2.18.99,4.1,1.64,5.63.81,1.91,1.8,3.25,3.01,3.77.38.17.79.26,1.21.26,0,0,1.74.21,4.36,1.24,5.33,2.09,14.29,7.57,19.44,21.55,2.39,6.5,3.96,14.84,3.96,25.53Z"/>
      <g class="cls-24">
        <path class="cls-4" d="M128.13,162.99v.04c-1.14,1.76-4.98,6.82-12.57,6.82h-.07c-7.19-.04-11.39-5.24-12.46-6.78.22-1.54.44-3.15.63-4.84.07-.99.18-2.02.29-3.08,3.5.88,7.34,1.43,11.39,1.5h.15c4.2-.07,8.07-.66,11.69-1.61.11.99.22,2.02.29,3,.18,1.76.41,3.41.66,4.95"/>
      </g>
      <path class="cls-5" d="M114.97,44.39c-48,0-48.26,40.12-46.12,66.39-3.28-6.23-13.05-4.32-12.24,5.5.77,9.45,14.73,14.27,14.34,13.23,7.27,19.43,26.51,34.08,44.02,34.08h.37V44.39h-.37"/>
      <path class="cls-21" d="M59.67,112.14c2.36-3.81,6.05-2.16,6.93-1.32.96.92,1.73,2.09,1.14,4.32-.33,1.28-1.66,1.39-1.36,3.3.37,2.16,1.36,2.27,1.95,2.78.55.48,1.25.84,1.59,1.76.37.92.41,1.87.22,2.71-.37,1.54-2.62.29-4.13-.37-1-.48-4.17-3.15-4.98-4.03-1.99-2.27-2.95-6.67-1.36-9.16"/>
      <path class="cls-9" d="M115.23,44.39c48,0,48.26,40.12,46.15,66.39,3.28-6.23,13.01-4.32,12.2,5.5-.74,9.45-14.72,14.27-14.34,13.23-7.08,19.43-26.51,34.08-44.02,34.08h-.26l-.11-119.19h.37"/>
      <path class="cls-21" d="M170.52,112.14c-2.36-3.81-6.01-2.16-6.93-1.32-.96.92-1.7,2.09-1.14,4.32.33,1.28,1.66,1.39,1.36,3.3-.37,2.16-1.36,2.27-1.92,2.78-.55.48-1.29.84-1.62,1.76-.33.92-.41,1.87-.22,2.71.37,1.54,2.62.29,4.13-.37,1.03-.48,4.17-3.15,4.98-4.03,2.03-2.27,2.95-6.67,1.36-9.16"/>
      <path class="cls-12" d="M114.59,55.71c-15.78,0-27.35,4.58-34.32,13.59-9.77,12.64-9.4,31.91-5.82,45.76,1.11,4.25,1.7,15.65,2.43,19.82,3.43,18.72,24.11,28.69,37.71,28.69h.37V55.71h-.22"/>
      <path class="cls-20" d="M148.87,69.34c-6.93-8.98-18.36-13.56-33.92-13.63v107.87c15.56-.18,34.17-11.1,37.34-28.69.77-4.18,1.33-15.57,2.43-19.82,3.61-13.81,3.98-33.05-5.86-45.73"/>
      <path class="cls-1" d="M113.03,144.57c-.22-.04-.42-.08-.59-.11.2.04.4.08.59.11Z"/>
      <path class="cls-1" d="M112.21,144.41c-.14-.03-.27-.06-.36-.08.12.03.24.05.36.08Z"/>
      <path class="cls-23" d="M112.44,144.46c-.08-.02-.15-.03-.23-.05.07.02.14.03.23.05Z"/>
      <path class="cls-23" d="M111.86,144.33c-.07-.02-.13-.04-.2-.06h0s.08.02.21.06Z"/>
      <path class="cls-1" d="M71.93,89.33c-.43,1.43-.73,2.99-.93,4.66,0,0,.63-2.63,2.03-6.52-.6.83-1,1.5-1.1,1.86Z"/>
      <path class="cls-7" d="M101.56,55.98l-.2.2.03.07c.07-.1.1-.2.17-.27Z"/>
      <path class="cls-1" d="M113.18,142.38c-.22-.04-.43-.08-.61-.12.21.04.41.08.61.12Z"/>
      <path class="cls-1" d="M112.34,142.22c-.14-.03-.28-.06-.37-.08.12.03.24.06.37.08Z"/>
      <path class="cls-26" d="M112.57,142.27c-.08-.02-.15-.03-.23-.05.08.02.14.03.23.05Z"/>
      <path class="cls-26" d="M111.97,142.13c-.07-.02-.14-.04-.21-.06h0s.08.02.21.06Z"/>
      <path class="cls-2" d="M106.71,128.57c-.19-3.83,7.03-1.4,9.41-1.28,1.88.1,7.6-1.21,8.09-.87,3.37,2.27-3.57,6.84-8.21,6.84-1.24,0-9.18-2.38-9.29-4.69Z"/>
      <path class="cls-11" d="M80.53,97.81s3.66,15.02,9.95,16.25c6.29,1.23,13.09-1.21,13.09-1.21,0,0,.65-17.65-2.57-19.96-3.22-2.32-10.63-5.66-20.47,4.92Z"/>
      <path class="cls-25" d="M103.57,112.8s-.14.04-.47.18c-.08-5.41-.58-12.85-2.59-14.28-2.99-2.19-9.74-5.27-18.75,3.16-.82-2.33-1.23-4.09-1.23-4.09,9.86-10.61,17.28-7.27,20.47-4.95,3.22,2.32,2.57,19.99,2.57,19.99Z"/>
      <circle class="cls-3" cx="93.66" cy="105.15" r="6.19" transform="translate(-39.49 150.97) rotate(-67.3)"/>
      <path class="cls-22" d="M93.38,109.27c-1.79-.15-3.16-1.95-3-3.93.16-1.98,1.81-3.53,3.6-3.38,1.79.15,3.16,1.95,3,3.93-.16,1.98-1.81,3.54-3.6,3.39Z"/>
      <path class="cls-13" d="M93.53,108.56c-1.24-.11-2.53-1.47-2.4-3.15.14-1.69,1.63-2.82,2.88-2.72,1.24.11,2.53,1.48,2.39,3.16-.14,1.68-1.63,2.82-2.87,2.72Z"/>
      <path class="cls-11" d="M92.52,104.41c-.05.61-.68,1.05-1.39.99-.72-.06-1.26-.6-1.21-1.21.05-.61.67-1.05,1.39-1,.72.06,1.26.6,1.21,1.21Z"/>
      <path class="cls-11" d="M96.53,107.93c-.03.3-.34.53-.69.5-.36-.03-.63-.3-.61-.6.03-.3.34-.53.69-.5.36.03.63.3.61.6Z"/>
      <path class="cls-1" d="M113.28,144.16c-.22-.04-.43-.08-.61-.12.21.04.41.09.61.12Z"/>
      <path class="cls-1" d="M112.44,143.99c-.14-.03-.28-.06-.37-.08.12.03.24.06.37.08Z"/>
      <path class="cls-26" d="M112.67,144.04c-.08-.02-.15-.03-.23-.05.08.02.14.03.23.05Z"/>
      <path class="cls-26" d="M112.07,143.91c-.07-.02-.14-.04-.21-.06h0s.08.02.21.06Z"/>
      <path class="cls-1" d="M113.04,143.74c-.24-.04-.46-.08-.65-.12.22.05.44.09.65.12Z"/>
      <path class="cls-1" d="M112.14,143.56c-.15-.03-.3-.07-.4-.09.13.03.26.06.4.09Z"/>
      <path class="cls-23" d="M112.39,143.62c-.08-.02-.17-.03-.25-.05.08.02.15.03.25.05Z"/>
      <path class="cls-23" d="M111.74,143.47c-.08-.02-.15-.04-.22-.06h0s.09.03.23.06Z"/>
      <path class="cls-1" d="M112.86,143.11c-.24-.04-.46-.08-.65-.12.22.05.44.09.65.12Z"/>
      <path class="cls-1" d="M111.95,142.94c-.15-.03-.3-.07-.4-.09.13.03.26.06.4.09Z"/>
      <path class="cls-23" d="M112.2,142.99c-.08-.02-.17-.03-.25-.05.08.02.15.03.25.05Z"/>
      <path class="cls-23" d="M111.56,142.84c-.08-.02-.15-.04-.22-.06h0s.09.03.23.06Z"/>
      <path class="cls-1" d="M113.41,143.02c-.23-.04-.44-.08-.63-.12.21.05.42.09.63.12Z"/>
      <path class="cls-1" d="M112.54,142.85c-.14-.03-.29-.06-.38-.09.13.03.25.06.38.09Z"/>
      <path class="cls-23" d="M112.78,142.9c-.08-.02-.16-.03-.24-.05.08.02.15.03.24.05Z"/>
      <path class="cls-23" d="M112.16,142.76c-.07-.02-.14-.04-.21-.06h0s.08.03.22.06Z"/>
      <path class="cls-11" d="M149.77,97.3s-3.66,15.02-9.95,16.25c-6.29,1.23-13.09-1.21-13.09-1.21,0,0-.65-17.65,2.57-19.96,3.22-2.32,10.63-5.66,20.47,4.92Z"/>
      <path class="cls-25" d="M126.72,112.29s.14.04.47.18c.08-5.41.58-12.85,2.59-14.28,2.99-2.19,9.74-5.27,18.75,3.16.82-2.33,1.23-4.09,1.23-4.09-9.86-10.61-17.28-7.27-20.47-4.95-3.22,2.32-2.57,19.99-2.57,19.99Z"/>
      <path class="cls-3" d="M130.44,104.64c0,3.42,2.77,6.19,6.19,6.19s6.19-2.77,6.19-6.19-2.77-6.19-6.19-6.19-6.19,2.77-6.19,6.19Z"/>
      <path class="cls-22" d="M136.92,108.76c1.79-.15,3.16-1.95,3-3.93-.16-1.98-1.81-3.53-3.6-3.38-1.79.15-3.16,1.95-3,3.93.16,1.98,1.81,3.54,3.6,3.39Z"/>
      <path class="cls-13" d="M136.76,108.05c1.24-.11,2.53-1.47,2.4-3.15-.14-1.69-1.63-2.82-2.88-2.72-1.24.11-2.53,1.48-2.39,3.16.14,1.68,1.63,2.82,2.87,2.72Z"/>
      <path class="cls-11" d="M137.77,103.9c.05.61.68,1.05,1.39.99.72-.06,1.26-.6,1.21-1.21-.05-.61-.67-1.05-1.39-1-.72.06-1.26.6-1.21,1.21Z"/>
      <path class="cls-11" d="M133.76,107.41c.03.3.34.53.69.5.36-.03.63-.3.61-.6-.03-.3-.34-.53-.69-.49-.36.03-.63.3-.61.6Z"/>
      <g>
        <path d="M107.34,97.57c-.05-.07-1.19-1.81-3.52-3.6-1.46-1.12-2.89-1.97-4.38-2.61-1.81-.76-3.75-1.3-5.63-1.55-1.7-.19-3.59-.14-5.79.16-1.68.32-3.32.82-4.71,1.43-.99.34-1.78.82-2.41,1.21-.24.15-.46.28-.68.4l-3,1.89,3.46-.81c.16-.04.34-.09.52-.14.72-.19,1.61-.43,2.65-.58.24-.04.49-.09.75-.14.44-.09.89-.18,1.36-.2.52-.03,1.07-.07,1.63-.11l.73-.05c1.92-.02,3.54.12,4.97.45,1.57.27,3.19.78,4.67,1.46,1.4.67,2.74,1.33,3.79,2.1,2.11,1.41,3.29,2.59,3.3,2.6h0c.29.29.68.44,1.07.44.28,0,.57-.08.82-.24.7-.46.89-1.4.45-2.07l-.03-.05Z"/>
        <path d="M150.38,93c-.2-.11-.42-.24-.66-.39-.63-.39-1.41-.87-2.38-1.2-1.42-.63-3.06-1.13-4.76-1.45-2.18-.29-4.07-.34-5.78-.15-1.87.26-3.82.79-5.63,1.55-1.46.63-2.94,1.5-4.38,2.61-2.29,1.76-3.43,3.46-3.51,3.59l-.02.03c-.39.59-.3,1.39.2,1.89.28.29.66.44,1.06.44h0c.4,0,.78-.16,1.06-.44h.01c.11-.12,1.25-1.24,3.3-2.61,1.03-.76,2.37-1.42,3.77-2.09,1.49-.69,3.1-1.2,4.7-1.47,1.42-.33,3.04-.47,4.93-.45l.76.05c.55.04,1.09.08,1.62.11.46.02.91.11,1.35.2.25.05.5.1.75.14,1.05.15,1.94.39,2.65.58.19.05.36.1.53.14l3.46.81-3.03-1.9Z"/>
      </g>
      <path class="cls-16" d="M149.28,197.63c1.5,6.75,2.42,15.1,2.42,25.45,0,0-.28.14-.85.52h-70.44c-.57-.39-.85-.52-.85-.52,0-10.33.92-18.68,2.41-25.45h-8.93c5.77-15.69,16.32-20.67,21.18-22.17-.01.15-.02.31-.02.47,0,7.18,9.43,13.04,21.28,13.34.32.01.65.02.97.02,12.18,0,22.08-5.89,22.22-13.2,5.33,2.09,14.29,7.57,19.44,21.55h-8.84Z"/>
      <g>
        <polygon class="cls-27" points="100.3 201.57 97.64 198.91 94.63 201.92 91.63 198.91 88.97 201.57 91.97 204.58 88.97 207.59 91.63 210.25 94.63 207.24 97.64 210.25 100.3 207.59 97.3 204.58 100.3 201.57"/>
        <polygon class="cls-27" points="115.29 201.57 112.62 198.91 109.62 201.92 106.61 198.91 103.95 201.57 106.96 204.58 103.95 207.59 106.61 210.25 109.62 207.24 112.62 210.25 115.29 207.59 112.28 204.58 115.29 201.57"/>
        <polygon class="cls-27" points="130.27 201.57 127.61 198.91 124.6 201.92 121.59 198.91 118.93 201.57 121.94 204.58 118.93 207.59 121.59 210.25 124.6 207.24 127.61 210.25 130.27 207.59 127.26 204.58 130.27 201.57"/>
        <polygon class="cls-27" points="145.25 201.57 142.58 198.91 139.57 201.92 136.57 198.91 133.91 201.57 136.91 204.58 133.91 207.59 136.57 210.25 139.57 207.24 142.58 210.25 145.25 207.59 142.24 204.58 145.25 201.57"/>
      </g>
      <path class="cls-8" d="M175.98,46.16s-3.21,5.5-14.28,1.21c-10.82-4.18-10.54-17.79-26.09-25.39-7.93-3.88-12.69-3.39-15.45-1.98,2.8-2.65,8.5-2.42,8.5-2.42,0,0-7.08-4.55-18.01-.47-5.98,2.23-7.3,2.73-9.52,3.22-1.36.3-2.75-.29-3.59-1.52-2.43-3.55-6.32-5.44-10.22-4.81-2.35.37-4.59.96-6.6,1.82-13.43,5.76-24.42,15.66-32.18,42.23-7.76,26.57-1.46,48.78.04,58.07,4.75,29.41,35.15,58.05,35.15,58.05,0,0-13.22-18.31-15.8-26.15-.65-1.97-1.41-4.42-2.13-7.33,5.52,10.7,12.53,17.27,12.53,17.27-13.12-32.83,5.27-65.35,14.76-78.98h0s1.84-3.01,5.04-6.71c-.39-.34-.79-.65-1.18-.93.39.29.79.59,1.18.93,8.32-9.63,25.9-23.95,44.61-2.35.75.79,1.46,1.65,2.13,2.59h0s0,0,0,0c6.48,9.08,9.06,24.36,8.11,29.93-2.34,13.74.91,21.65,2.16,21.28,0,0,.05-3.5,1.18-6.6,3.35-9.26,6.15-2.82,6.67-15.39.6-14.71,2.56-20.09,1.93-27.94-.27-3.43-1.06-7.38-1.85-10.7h0c-1.19-6.09.59-7.24,1.39-7.45.07-.01.13-.03.2-.04.1-.01.16-.01.16-.01l-.02-.02c7.17-1.44,11.17-9.42,11.17-9.42Z"/>
      <path class="cls-1" d="M113.79,145.67c-.22-.04-.42-.08-.59-.11.2.04.4.08.59.11Z"/>
      <path class="cls-1" d="M112.97,145.51c-.14-.03-.27-.06-.36-.08.12.03.24.05.36.08Z"/>
      <path class="cls-23" d="M113.2,145.56c-.08-.02-.15-.03-.23-.05.07.02.14.03.23.05Z"/>
      <path class="cls-23" d="M112.61,145.43c-.07-.02-.13-.04-.2-.06h0s.08.02.21.06Z"/>
      <path class="cls-1" d="M113.93,143.48c-.22-.04-.43-.08-.61-.12.21.04.41.08.61.12Z"/>
      <path class="cls-1" d="M113.09,143.32c-.14-.03-.28-.06-.37-.08.12.03.24.06.37.08Z"/>
      <path class="cls-26" d="M113.33,143.37c-.08-.02-.15-.03-.23-.05.08.02.14.03.23.05Z"/>
      <path class="cls-26" d="M112.72,143.23c-.07-.02-.14-.04-.21-.06h0s.08.02.21.06Z"/>
      <path class="cls-1" d="M114.03,145.26c-.22-.04-.43-.08-.61-.12.21.04.41.09.61.12Z"/>
      <path class="cls-1" d="M113.19,145.09c-.14-.03-.28-.06-.37-.08.12.03.24.06.37.08Z"/>
      <path class="cls-26" d="M113.42,145.14c-.08-.02-.15-.03-.23-.05.08.02.14.03.23.05Z"/>
      <path class="cls-26" d="M112.82,145.01c-.07-.02-.14-.04-.21-.06h0s.08.02.21.06Z"/>
      <path class="cls-1" d="M113.8,144.84c-.24-.04-.46-.08-.65-.12.22.05.44.09.65.12Z"/>
      <path class="cls-1" d="M112.89,144.66c-.15-.03-.3-.07-.4-.09.13.03.26.06.4.09Z"/>
      <path class="cls-23" d="M113.14,144.72c-.08-.02-.17-.03-.25-.05.08.02.15.03.25.05Z"/>
      <path class="cls-23" d="M112.5,144.57c-.08-.02-.15-.04-.22-.06h0s.09.03.23.06Z"/>
      <path class="cls-1" d="M113.61,144.21c-.24-.04-.46-.08-.65-.12.22.05.44.09.65.12Z"/>
      <path class="cls-1" d="M112.71,144.03c-.15-.03-.3-.07-.4-.09.13.03.26.06.4.09Z"/>
      <path class="cls-23" d="M112.96,144.09c-.08-.02-.17-.03-.25-.05.08.02.15.03.25.05Z"/>
      <path class="cls-23" d="M112.31,143.94c-.08-.02-.15-.04-.22-.06h0s.09.03.23.06Z"/>
      <path class="cls-1" d="M114.16,144.12c-.23-.04-.44-.08-.63-.12.21.05.42.09.63.12Z"/>
      <path class="cls-1" d="M113.29,143.95c-.14-.03-.29-.06-.38-.09.13.03.25.06.38.09Z"/>
      <path class="cls-23" d="M113.53,144c-.08-.02-.16-.03-.24-.05.08.02.15.03.24.05Z"/>
      <path class="cls-23" d="M112.91,143.86c-.07-.02-.14-.04-.21-.06h0s.08.03.22.06Z"/>
      <path class="cls-1" d="M111.81,150.5c-.22-.04-.43-.08-.6-.12.21.04.4.08.6.12Z"/>
      <path class="cls-1" d="M110.97,150.33c-.14-.03-.28-.06-.37-.08.12.03.24.06.37.08Z"/>
      <path class="cls-15" d="M111.2,150.38c-.08-.02-.15-.03-.23-.05.08.02.14.03.23.05Z"/>
      <path class="cls-15" d="M110.61,150.25c-.07-.02-.14-.04-.21-.06h0s.08.02.21.06Z"/>
      <path class="cls-1" d="M111.64,149.92c-.22-.04-.43-.08-.6-.12.2.04.4.08.6.12Z"/>
      <path class="cls-1" d="M110.8,149.75c-.14-.03-.28-.06-.37-.08.12.03.24.06.37.08Z"/>
      <path class="cls-15" d="M111.03,149.8c-.08-.02-.15-.03-.23-.05.08.02.14.03.23.05Z"/>
      <path class="cls-15" d="M110.44,149.67c-.07-.02-.14-.04-.21-.06h0s.08.02.21.06Z"/>
      <path class="cls-1" d="M112.15,149.83c-.22-.04-.41-.08-.58-.11.2.04.39.08.58.11Z"/>
      <path class="cls-1" d="M111.34,149.67c-.13-.03-.27-.06-.35-.08.12.03.23.05.35.08Z"/>
      <path class="cls-15" d="M111.57,149.72c-.07-.02-.15-.03-.22-.05.07.02.14.03.22.05Z"/>
      <path class="cls-15" d="M110.99,149.59c-.07-.02-.13-.04-.2-.06h0s.08.02.21.06Z"/>
      <g>
        <path class="cls-14" d="M106.06,150.62c-.18-2.39,6.65.5,8.89.57,1.79.06,7.16-.35,7.66-.54,3.76-1.4-.21,3.99-7.77,4.27-3.47.14-8.68-2.85-8.78-4.3Z"/>
        <path class="cls-10" d="M128.57,144.89c-4.33-.81-13.45.05-13.45.05-7.52,1.25-13.41-.08-13.45-.03-.18.02,6.01,8.22,13.35,7.85h0c7.34.38,13.73-7.85,13.55-7.87Z"/>
        <path class="cls-8" d="M119.47,143.15c-1.95-.22-3.34,1.19-4.34,1.09-1.02.09-2.34-.81-4.3-.83-2.76-.03-4.11-.27-9.16,1.5.18.34,3.41,2.22,9.47,2.32.09,0,1.71.92,4.02.91,1.45,0,3.43-.97,3.51-.97,6.07-.09,9.77-1.9,9.94-2.23-6.67-2.07-6.14-1.8-9.14-1.78Z"/>
      </g>
      <g>
        <g>
          <path class="cls-18" d="M107.6,101.83c-.86.19-1.95.46-2.7-.01-2.13-1.33-5.16-4.47-5.16-4.47-12.93-9.63-34.05,0-34.05,0-2.42,8.03,2.06,17.4,4.46,21.62.81,1.42,1.39,2.25,1.39,2.25,6.81,13.48,21.53,9.77,21.53,9.77,6.64-1.18,10.7-6.91,12.96-11.61,1.7-3.53,2.38-6.48,2.38-6.48,1.31-4.47,4.33-4.19,4.33-4.19v-7.57c-.68-.24-3.53.34-5.14.7ZM88.32,129.13c-7.48,0-13.78-5.01-15.7-11.85-.39-1.4-.6-2.87-.6-4.39,0-8.97,7.3-16.23,16.3-16.23s16.3,7.27,16.3,16.23c0,1.63-.24,3.2-.69,4.68-2.02,6.68-8.24,11.56-15.61,11.56Z"/>
          <path class="cls-17" d="M103.93,117.58c-2.02,6.68-8.24,11.56-15.61,11.56s-13.78-5.01-15.7-11.85c6.93-4.36,19.22-9.19,31.31.29Z"/>
          <path class="cls-19" d="M104.62,112.9c0,1.63-.24,3.2-.69,4.68-12.1-9.49-24.39-4.65-31.31-.29-.39-1.4-.6-2.87-.6-4.39,0-8.97,7.3-16.23,16.3-16.23s16.3,7.27,16.3,16.23Z"/>
        </g>
        <g>
          <path class="cls-18" d="M159.8,97.35s-21.12-9.63-34.05,0c0,0-3.03,3.15-5.16,4.47-.75.47-1.84.21-2.7.01-1.61-.36-4.45-.94-5.14-.7v7.57s3.03-.28,4.33,4.19c0,0,.71,3.08,2.5,6.72,2.28,4.65,6.31,10.21,12.84,11.37,0,0,14.72,3.72,21.53-9.77,0,0,.66-.96,1.57-2.57,2.44-4.35,6.64-13.47,4.28-21.3ZM137.16,129.13c-7.19,0-13.29-4.63-15.46-11.06-.55-1.62-.85-3.36-.85-5.17,0-8.97,7.3-16.23,16.3-16.23s16.3,7.27,16.3,16.23c0,1.3-.15,2.58-.45,3.79-1.71,7.14-8.16,12.45-15.86,12.45Z"/>
          <path class="cls-17" d="M153.02,116.69c-1.71,7.14-8.16,12.45-15.86,12.45-7.19,0-13.29-4.63-15.46-11.06,6.42-4.36,18.87-10.18,31.31-1.38Z"/>
          <path class="cls-19" d="M153.47,112.9c0,1.3-.15,2.58-.45,3.79-12.44-8.8-24.89-2.97-31.31,1.38-.55-1.62-.85-3.36-.85-5.17,0-8.97,7.3-16.23,16.3-16.23s16.3,7.27,16.3,16.23Z"/>
        </g>
      </g>
    </g>
  </g>
</svg>