<?xml version="1.0" encoding="UTF-8"?>
<svg id="Layer_2" data-name="Layer 2" xmlns="http://www.w3.org/2000/svg" xmlns:xlink="http://www.w3.org/1999/xlink" viewBox="0 0 221.47 223.59">
  <defs>
    <style>
      .cls-1 {
        fill: none;
      }

      .cls-2 {
        fill: #d6bb9c;
      }

      .cls-3 {
        fill: #462e1b;
      }

      .cls-4 {
        fill: #ba9d82;
      }

      .cls-5 {
        fill: #ccad8a;
      }

      .cls-6 {
        fill: #685586;
      }

      .cls-7 {
        fill: #44361f;
      }

      .cls-8 {
        fill: #9177ad;
      }

      .cls-9 {
        fill: #d7bd9d;
      }

      .cls-10 {
        fill: #c27976;
      }

      .cls-11 {
        fill: #fff;
      }

      .cls-12 {
        fill: #dcc5a0;
      }

      .cls-13 {
        fill: #272213;
      }

      .cls-14 {
        fill: #e3ad00;
      }

      .cls-15 {
        fill: #ecdab6;
      }

      .cls-16 {
        fill: #af6a6f;
      }

      .cls-17 {
        fill: #b8987d;
      }

      .cls-18 {
        fill: #ebd9b5;
      }

      .cls-19 {
        fill: #524766;
      }

      .cls-20 {
        opacity: .86;
      }

      .cls-20, .cls-21 {
        fill: #22231d;
      }

      .cls-21 {
        opacity: .69;
      }

      .cls-22 {
        fill: #a98d76;
      }

      .cls-23 {
        fill: #714223;
      }

      .cls-24 {
        fill: #b7967d;
      }

      .cls-25 {
        clip-path: url(#clippath);
      }

      .cls-26 {
        fill: #d2bb9b;
      }

      .cls-27 {
        fill: #b5957e;
      }
    </style>
    <clipPath id="clippath">
      <rect class="cls-1" x="96.02" y="155.04" width="25.1" height="14.8"/>
    </clipPath>
  </defs>
  <g id="Layer_1-2" data-name="Layer 1">
    <g>
      <rect class="cls-19" width="221.47" height="223.59"/>
      <path class="cls-12" d="M108.48,139.83v83.76h-45.31c-.74-.29-1.11-.44-1.11-.44,0-10.69,1.57-19.03,3.96-25.53,5.77-15.69,16.32-20.67,21.18-22.17,1.59-.49,2.58-.61,2.58-.61.17,0,.33-.02.5-.04,1.43-.23,2.58-1.47,3.51-3.45.69-1.47,1.27-3.34,1.74-5.51.19-.85.33-1.7.48-2.62.22-1.55.44-3.17.63-4.87.07-1.03.18-2.03.29-3.1.4-5.12.52-10.73.52-16.05,0,0,6.08.63,11.02.63Z"/>
      <path class="cls-18" d="M155.08,223.15s-.41.15-1.07.44h-45.53v-83.76h.11c4.9,0,11.06-.63,11.06-.63,0,5.27.11,10.81.51,15.93.11,1,.22,2.03.29,3.02.19,1.77.41,3.43.67,4.98v.03c.07.7.22,1.33.33,1.99.45,2.18.99,4.1,1.64,5.63.81,1.91,1.8,3.25,3.01,3.77.38.17.79.26,1.21.26,0,0,1.74.21,4.36,1.24,5.33,2.09,14.29,7.57,19.44,21.55,2.39,6.5,3.96,14.84,3.96,25.53Z"/>
      <g class="cls-25">
        <path class="cls-4" d="M121.13,162.99v.04c-1.14,1.76-4.98,6.81-12.57,6.81h-.07c-7.19-.04-11.39-5.24-12.46-6.78.22-1.54.44-3.15.63-4.84.07-.99.18-2.02.29-3.08,3.5.88,7.34,1.43,11.39,1.5h.15c4.2-.07,8.07-.66,11.69-1.61.11.99.22,2.02.29,3,.18,1.76.41,3.41.66,4.95"/>
      </g>
      <path class="cls-5" d="M107.97,44.38c-48,0-48.26,40.12-46.12,66.39-3.28-6.23-13.05-4.32-12.24,5.5.77,9.45,14.73,14.27,14.34,13.23,7.27,19.43,26.51,34.08,44.02,34.08h.37V44.38h-.37"/>
      <path class="cls-22" d="M52.67,112.13c2.36-3.81,6.05-2.16,6.93-1.32.96.92,1.73,2.09,1.14,4.32-.33,1.28-1.66,1.39-1.36,3.3.37,2.16,1.36,2.27,1.95,2.78.55.48,1.25.84,1.59,1.76.37.92.41,1.87.22,2.71-.37,1.54-2.62.29-4.13-.37-1-.48-4.17-3.15-4.98-4.03-1.99-2.27-2.95-6.67-1.36-9.16"/>
      <path class="cls-9" d="M108.22,44.38c48,0,48.26,40.12,46.15,66.39,3.28-6.23,13.01-4.32,12.2,5.5-.74,9.45-14.72,14.27-14.34,13.23-7.08,19.43-26.51,34.08-44.02,34.08h-.26l-.11-119.19h.37"/>
      <path class="cls-22" d="M163.52,112.13c-2.36-3.81-6.01-2.16-6.93-1.32-.96.92-1.7,2.09-1.14,4.32.33,1.28,1.66,1.39,1.36,3.3-.37,2.16-1.36,2.27-1.92,2.78-.55.48-1.29.84-1.62,1.76-.33.92-.41,1.87-.22,2.71.37,1.54,2.62.29,4.13-.37,1.03-.48,4.17-3.15,4.98-4.03,2.03-2.27,2.95-6.67,1.36-9.16"/>
      <path class="cls-12" d="M107.59,55.7c-15.78,0-27.35,4.58-34.32,13.59-9.77,12.64-9.4,31.91-5.82,45.76,1.11,4.25,1.7,15.65,2.43,19.82,3.43,18.72,24.11,28.69,37.71,28.69h.37V55.7h-.22"/>
      <path class="cls-18" d="M141.87,69.34c-6.93-8.98-18.36-13.56-33.92-13.63v107.87c15.56-.18,34.17-11.1,37.34-28.69.77-4.18,1.33-15.57,2.43-19.82,3.61-13.81,3.98-33.05-5.86-45.73"/>
      <path class="cls-1" d="M106.03,144.57c-.22-.04-.42-.08-.59-.11.2.04.4.08.59.11Z"/>
      <path class="cls-1" d="M105.21,144.4c-.14-.03-.27-.06-.36-.08.12.03.24.05.36.08Z"/>
      <path class="cls-24" d="M105.44,144.45c-.08-.02-.15-.03-.23-.05.07.02.14.03.23.05Z"/>
      <path class="cls-24" d="M104.85,144.32c-.07-.02-.13-.04-.2-.06h0s.08.02.21.06Z"/>
      <path class="cls-1" d="M64.93,89.33c-.43,1.43-.73,2.99-.93,4.66,0,0,.63-2.63,2.03-6.52-.6.83-1,1.5-1.1,1.86Z"/>
      <path class="cls-7" d="M94.56,55.97l-.2.2.03.07c.07-.1.1-.2.17-.27Z"/>
      <path class="cls-1" d="M106.18,142.38c-.22-.04-.43-.08-.61-.12.21.04.41.09.61.12Z"/>
      <path class="cls-1" d="M105.34,142.21c-.14-.03-.28-.06-.37-.08.12.03.24.06.37.08Z"/>
      <path class="cls-27" d="M105.57,142.26c-.08-.02-.15-.03-.23-.05.08.02.14.03.23.05Z"/>
      <path class="cls-27" d="M104.97,142.13c-.07-.02-.14-.04-.21-.06h0s.08.02.21.06Z"/>
      <path class="cls-2" d="M98.58,129.59c-.19-3.83,7.03-1.4,9.41-1.28,1.88.1,7.6-1.21,8.09-.87,3.37,2.27-3.57,6.84-8.21,6.84-1.24,0-9.18-2.38-9.29-4.69Z"/>
      <path class="cls-11" d="M73.52,97.81s3.66,15.02,9.95,16.25c6.29,1.23,13.09-1.21,13.09-1.21,0,0,.65-17.65-2.57-19.96-3.22-2.32-10.63-5.66-20.47,4.92Z"/>
      <path class="cls-26" d="M96.57,112.8s-.14.04-.47.18c-.08-5.41-.58-12.85-2.59-14.28-2.99-2.19-9.74-5.27-18.75,3.16-.82-2.33-1.23-4.09-1.23-4.09,9.86-10.61,17.28-7.27,20.47-4.95,3.22,2.32,2.57,19.99,2.57,19.99Z"/>
      <circle class="cls-3" cx="86.66" cy="105.15" r="6.19" transform="translate(-34.09 42.03) rotate(-22.91)"/>
      <path class="cls-23" d="M86.37,109.27c-1.79-.15-3.16-1.95-3-3.93.16-1.98,1.81-3.53,3.6-3.38,1.79.15,3.16,1.95,3,3.93-.16,1.98-1.81,3.54-3.6,3.39Z"/>
      <path class="cls-13" d="M86.53,108.55c-1.24-.11-2.53-1.47-2.4-3.15.14-1.69,1.63-2.82,2.88-2.72,1.24.11,2.53,1.48,2.39,3.16-.14,1.68-1.63,2.82-2.87,2.72Z"/>
      <path class="cls-11" d="M85.52,104.41c-.05.61-.68,1.05-1.39.99-.72-.06-1.26-.6-1.21-1.21.05-.61.67-1.05,1.39-1,.72.06,1.26.6,1.21,1.21Z"/>
      <path class="cls-11" d="M89.53,107.92c-.03.3-.34.53-.69.5-.36-.03-.63-.3-.61-.6.03-.3.34-.53.69-.5.36.03.63.3.61.6Z"/>
      <path class="cls-1" d="M106.28,144.15c-.22-.04-.43-.08-.61-.12.21.04.41.08.61.12Z"/>
      <path class="cls-1" d="M105.44,143.99c-.14-.03-.28-.06-.37-.08.12.03.24.06.37.08Z"/>
      <path class="cls-27" d="M105.67,144.04c-.08-.02-.15-.03-.23-.05.08.02.14.03.23.05Z"/>
      <path class="cls-27" d="M105.07,143.9c-.07-.02-.14-.04-.21-.06h0s.08.02.21.06Z"/>
      <path class="cls-1" d="M106.04,143.74c-.24-.04-.46-.08-.65-.12.22.05.44.09.65.12Z"/>
      <path class="cls-1" d="M105.14,143.56c-.15-.03-.3-.07-.4-.09.13.03.26.06.4.09Z"/>
      <path class="cls-24" d="M105.39,143.61c-.08-.02-.17-.03-.25-.05.08.02.15.03.25.05Z"/>
      <path class="cls-24" d="M104.74,143.47c-.08-.02-.15-.04-.22-.06h0s.09.03.23.06Z"/>
      <path class="cls-1" d="M105.85,143.11c-.24-.04-.46-.08-.65-.12.22.05.44.09.65.12Z"/>
      <path class="cls-1" d="M104.95,142.93c-.15-.03-.3-.07-.4-.09.13.03.26.06.4.09Z"/>
      <path class="cls-24" d="M105.2,142.98c-.08-.02-.17-.03-.25-.05.08.02.15.03.25.05Z"/>
      <path class="cls-24" d="M104.56,142.84c-.08-.02-.15-.04-.22-.06h0s.09.03.23.06Z"/>
      <path class="cls-1" d="M106.41,143.02c-.23-.04-.44-.08-.63-.12.21.05.42.09.63.12Z"/>
      <path class="cls-1" d="M105.54,142.85c-.14-.03-.29-.06-.38-.09.13.03.25.06.38.09Z"/>
      <path class="cls-24" d="M105.78,142.9c-.08-.02-.16-.03-.24-.05.08.02.15.03.24.05Z"/>
      <path class="cls-24" d="M105.15,142.76c-.07-.02-.14-.04-.21-.06h0s.08.03.22.06Z"/>
      <path class="cls-11" d="M142.77,97.3s-3.66,15.02-9.95,16.25c-6.29,1.23-13.09-1.21-13.09-1.21,0,0-.65-17.65,2.57-19.96,3.22-2.32,10.63-5.66,20.47,4.92Z"/>
      <path class="cls-26" d="M119.72,112.29s.14.04.47.18c.08-5.41.58-12.85,2.59-14.28,2.99-2.19,9.74-5.27,18.75,3.16.82-2.33,1.23-4.09,1.23-4.09-9.86-10.61-17.28-7.27-20.47-4.95-3.22,2.32-2.57,19.99-2.57,19.99Z"/>
      <path class="cls-3" d="M123.44,104.64c0,3.42,2.77,6.19,6.19,6.19s6.19-2.77,6.19-6.19-2.77-6.19-6.19-6.19-6.19,2.77-6.19,6.19Z"/>
      <path class="cls-23" d="M129.92,108.76c1.79-.15,3.16-1.95,3-3.93-.16-1.98-1.81-3.53-3.6-3.38-1.79.15-3.16,1.95-3,3.93.16,1.98,1.81,3.54,3.6,3.39Z"/>
      <path class="cls-13" d="M129.76,108.04c1.24-.11,2.53-1.47,2.4-3.15-.14-1.69-1.63-2.82-2.88-2.72-1.24.11-2.53,1.48-2.39,3.16.14,1.68,1.63,2.82,2.87,2.72Z"/>
      <path class="cls-11" d="M130.77,103.9c.05.61.68,1.05,1.39.99.72-.06,1.26-.6,1.21-1.21-.05-.61-.67-1.05-1.39-1-.72.06-1.26.6-1.21,1.21Z"/>
      <path class="cls-11" d="M126.76,107.41c.03.3.34.53.69.5.36-.03.63-.3.61-.6-.03-.3-.34-.53-.69-.49-.36.03-.63.3-.61.6Z"/>
      <g>
        <path d="M100.34,97.57c-.05-.07-1.19-1.81-3.52-3.6-1.46-1.12-2.89-1.97-4.38-2.61-1.81-.76-3.75-1.3-5.63-1.55-1.7-.19-3.59-.14-5.79.16-1.68.32-3.32.82-4.71,1.43-.99.34-1.78.82-2.41,1.21-.24.15-.46.28-.68.4l-3,1.89,3.46-.81c.16-.04.34-.09.52-.14.72-.19,1.61-.43,2.65-.58.24-.04.49-.08.75-.14.44-.09.89-.18,1.36-.2.52-.03,1.07-.07,1.63-.11l.73-.05c1.92-.02,3.54.12,4.97.45,1.57.27,3.19.78,4.67,1.46,1.4.67,2.74,1.33,3.79,2.1,2.11,1.41,3.29,2.59,3.3,2.6h0c.29.29.68.44,1.07.44.28,0,.57-.08.82-.24.7-.46.89-1.4.45-2.07l-.03-.05Z"/>
        <path d="M143.38,93c-.2-.11-.42-.24-.66-.39-.63-.39-1.41-.87-2.38-1.2-1.42-.63-3.06-1.13-4.76-1.45-2.18-.29-4.07-.34-5.78-.15-1.87.26-3.82.79-5.63,1.55-1.46.63-2.94,1.5-4.38,2.61-2.29,1.76-3.43,3.46-3.51,3.59l-.02.03c-.39.6-.3,1.39.2,1.89.28.29.66.44,1.06.44h0c.4,0,.78-.16,1.06-.44h.01c.11-.12,1.25-1.24,3.3-2.61,1.03-.76,2.37-1.42,3.77-2.09,1.49-.69,3.1-1.2,4.7-1.47,1.42-.33,3.04-.47,4.93-.45l.76.05c.55.04,1.09.08,1.62.11.46.02.91.11,1.35.2.25.05.5.1.75.14,1.05.15,1.94.39,2.65.58.19.05.36.1.53.14l3.46.81-3.03-1.9Z"/>
      </g>
      <path class="cls-6" d="M143.03,223.59h-69.62c-.57-.38-.86-.52-.86-.52,0-10.33.92-18.66,2.41-25.45h-8.93c2.27-6.15,5.26-10.67,8.38-13.95l68.63,39.92Z"/>
      <path class="cls-1" d="M104.05,149.39c-.22-.04-.43-.08-.6-.12.21.04.4.08.6.12Z"/>
      <path class="cls-1" d="M103.22,149.23c-.14-.03-.28-.06-.37-.08.12.03.24.06.37.08Z"/>
      <path class="cls-17" d="M103.45,149.28c-.08-.02-.15-.03-.23-.05.08.02.14.03.23.05Z"/>
      <path class="cls-17" d="M102.85,149.15c-.07-.02-.14-.04-.21-.06h0s.08.02.21.06Z"/>
      <path class="cls-1" d="M103.88,148.81c-.22-.04-.43-.08-.6-.12.2.04.4.08.6.12Z"/>
      <path class="cls-1" d="M103.05,148.65c-.14-.03-.28-.06-.37-.08.12.03.24.06.37.08Z"/>
      <path class="cls-17" d="M103.28,148.7c-.08-.02-.15-.03-.23-.05.08.02.14.03.23.05Z"/>
      <path class="cls-17" d="M102.68,148.56c-.07-.02-.14-.04-.21-.06h0s.08.02.21.06Z"/>
      <path class="cls-1" d="M104.39,148.73c-.22-.04-.41-.08-.58-.11.2.04.39.08.58.11Z"/>
      <path class="cls-1" d="M103.59,148.57c-.13-.03-.27-.06-.35-.08.12.03.23.05.35.08Z"/>
      <path class="cls-17" d="M103.81,148.62c-.07-.02-.15-.03-.22-.05.07.02.14.03.22.05Z"/>
      <path class="cls-17" d="M103.23,148.49c-.07-.02-.13-.04-.2-.06h0s.08.02.21.06Z"/>
      <path class="cls-15" d="M98.78,150.4c-.18-2.39,6.65.5,8.89.57,1.79.06,7.16-.35,7.66-.54,3.76-1.4-.21,3.99-7.77,4.27-3.47.14-8.68-2.85-8.78-4.3Z"/>
      <path class="cls-16" d="M121.29,144.67c-4.33-.81-13.45.05-13.45.05-7.52,1.25-13.41-.08-13.45-.03-.18.02,6.01,8.22,13.35,7.85h0c7.34.38,13.73-7.85,13.56-7.87Z"/>
      <path class="cls-10" d="M112.19,142.94c-1.95-.22-3.34,1.19-4.34,1.09-1.02.09-2.34-.81-4.3-.83-2.76-.03-4.11-.27-9.16,1.5.18.34,3.41,2.22,9.47,2.32.09,0,1.71.92,4.02.91,1.45,0,3.43-.97,3.51-.97,6.07-.09,9.77-1.9,9.94-2.23-6.67-2.07-6.14-1.8-9.14-1.78Z"/>
      <path class="cls-14" d="M160.16,42.55v.02c-8.54-24.24-37.47-17.65-37.47-17.65l4.75,4.66c-10.87-1.44-20.05.71-20.05.71l3.56,3.44c-5.9.42-10.97,1.51-14.17,2.38-2.33.49-3.68,1.13-3.68,1.13,2.29.21,4.24.66,5.96,1.23-2.37-.35-5.69-.09-10.11,1.28-14.11,3.1-22.03,11.24-26.45,19.75-1.29,2.48-2.28,4.98-3.04,7.41,1.23,0,1.38-.02,1.4-.03-.01.03-3.18,8.02-3.79,13.98-.08.74-.11,1.45-.12,2.15,0,.05,0,.1,0,.14,0,.39.02.78.04,1.17.19,4.56,1.51,9.06,1.99,18.21.52,9.75,3.31,4.76,6.63,11.94,1.12,2.41,1.17,5.12,1.17,5.12,1.23.28,4.47-5.85,2.15-16.52-1.51-6.92,5.95-33.14,23.97-28.03,1.74.49,3.24,1.07,4.62,1.66-17.2,15.87-6.54,38.43-6.54,38.43-.41-19.05,17-31.8,22.38-35.28.51-.27,1.02-.59,1.57-.97,1.07-.73,2.2-1.42,3.38-2.04,3.56-1.88,8.06-.14,9.01,3.54.78,3.02,1.02,6.32.36,9.81,0,0,2.18-3.21,3.51-7.92.86-3.04,5.38-3.61,7.07-.88,2.94,4.76,5.17,10.93,3.87,17.87,0,0,5.44-8.01,4.4-17.3,2.72,4.67,3.95,11.13,3.17,19.5-1.65,17.68,1.44,17.55,1.44,17.55.92,0-.07-4.7,3.02-7.95.69-.73,1.47-1.88,2.25-3.29v.02c15.38-32.78,3.75-65.22,3.75-65.22Z"/>
      <path class="cls-8" d="M142.28,197.62c1.49,6.75,2.41,15.1,2.41,25.45,0,0-.28.14-.84.52h-.81l-68.63-39.92c4.8-5.1,9.85-7.29,12.82-8.21-.02.15-.02.31-.02.46,0,7.18,9.42,13.03,21.27,13.34.32.02.66.02.98.02,12.17,0,22.07-5.89,22.21-13.2,5.34,2.09,14.31,7.57,19.45,21.55h-8.84Z"/>
      <g>
        <path class="cls-20" d="M157.88,101.8c-1.94,1.68-2.58,4-2.58,4-.64,4.56-1.62,8.23-2.79,11.19-.02,0-.04-.01-.06-.02-.3-.08-.6-.15-.9-.23-.18-.04-.36-.09-.55-.13-.12-.03-.25-.06-.37-.09-.02,0-.04-.01-.06-.01-.64-.15-1.29-.29-1.95-.43-.25-.05-.49-.1-.74-.15-.25-.05-.5-.1-.75-.14-.25-.04-.5-.09-.75-.13-.46-.08-.92-.15-1.39-.22-.06-.01-.12-.02-.17-.03-.18-.03-.37-.05-.56-.08-.25-.04-.5-.07-.75-.1-.18-.02-.35-.05-.53-.07-.14-.02-.28-.03-.41-.05-.28-.03-.55-.06-.83-.09-.11-.01-.22-.02-.33-.03-.23-.02-.46-.04-.69-.06-.25-.02-.5-.04-.74-.06-.17-.01-.33-.03-.5-.04-.35-.02-.69-.04-1.04-.05-.29-.02-.58-.03-.88-.04-.03,0-.05,0-.08,0-.33-.01-.65-.02-.97-.03h-.05c-.34,0-.69,0-1.03,0-.22,0-.45,0-.67,0-.15,0-.3,0-.45,0-.12,0-.23,0-.35,0-.18,0-.36,0-.55.02-.2,0-.4.01-.6.02-.28.01-.56.02-.83.04-.42.03-.85.06-1.28.09-.17.01-.33.02-.49.04-.15.01-.3.03-.46.04-.03,0-.06,0-.1,0-.18.02-.36.04-.55.06-.14.01-.28.03-.42.05-.04,0-.08,0-.12.01-.2.02-.41.05-.61.07-.59.07-1.17.16-1.76.25-.18.03-.36.06-.55.09-.07.01-.15.02-.23.04-.15.02-.3.05-.44.08-.14.02-.28.05-.43.08-.29.05-.57.11-.86.17-.43.09-.86.18-1.29.28-.17.04-.34.08-.51.12-.1.02-.21.05-.31.07-.19.05-.39.09-.58.14-.23.06-.47.12-.7.18-.73.19-1.45.4-2.18.63-.22.07-.43.14-.65.21-.14.05-.29.09-.43.14-.09.03-.19.06-.28.09-.27.09-.55.18-.82.28-.3.1-.6.21-.9.33-1.77-3.02-2.7-5.51-2.7-5.51-.57-1.52-1.27-2.42-1.96-2.94-.27-1.7-.39-3.3-.39-4.81,0-.35,0-.69.02-1.02,2.46-.75,5.1-3.17,5.1-3.17,19.76-11.82,41.84-4.26,41.84-4.26,1.68.71.97,5.17.97,5.17Z"/>
        <path class="cls-21" d="M152.5,116.99c-4.52,11.43-11.74,12.12-11.74,12.12-10.72,2.39-17.37-1.74-17.37-1.74-3.69-2.03-6.52-5.82-8.4-9.02.3-.11.6-.22.9-.33.28-.1.55-.19.82-.28.09-.03.18-.06.28-.09.14-.05.29-.09.43-.14.22-.07.43-.14.65-.21.73-.23,1.46-.43,2.18-.63.23-.06.47-.12.7-.18.19-.05.39-.1.58-.14.1-.02.21-.05.31-.07.17-.04.34-.08.51-.12.43-.1.87-.19,1.29-.28.29-.06.58-.12.86-.17.14-.02.29-.05.43-.08.15-.03.3-.05.44-.08.08-.02.15-.03.23-.04.18-.03.36-.06.55-.09.59-.09,1.18-.18,1.76-.25.2-.03.41-.05.61-.07.04,0,.08,0,.12-.01.14-.02.28-.03.42-.05.18-.02.37-.04.55-.06.03,0,.06,0,.1,0,.15-.02.3-.03.46-.04.17-.02.33-.03.49-.04.43-.03.85-.06,1.28-.09.28-.02.56-.03.83-.04.2,0,.4-.01.6-.02.18,0,.37-.01.55-.02.12,0,.23,0,.35,0,.15,0,.3,0,.45,0,.22,0,.45,0,.67,0,.34,0,.69,0,1.03,0h.05c.33,0,.65.01.97.03.02,0,.05,0,.08,0,.29,0,.59.02.88.04.35.01.7.03,1.04.05.17.01.33.02.5.04.25.01.5.04.74.06.23.02.46.04.69.06.11,0,.22.02.33.03.28.03.55.06.83.09.14.02.28.03.41.05.18.02.36.04.53.07.25.03.5.07.75.1.19.03.38.05.56.08.06,0,.12.02.17.03.47.07.93.14,1.39.22.25.04.5.09.75.13.25.04.5.09.75.14.25.05.5.1.74.15.66.13,1.3.27,1.95.43.02,0,.04,0,.06.01.12.03.25.06.37.09.18.04.37.09.55.13.3.07.6.15.9.23.02,0,.04.01.06.02Z"/>
        <path class="cls-20" d="M108.05,109.22c0,.08-.02.17-.03.25-.88.39-1.9,1.31-2.66,3.37,0,0-1.05,2.82-3.06,6.1,0,0-.01,0-.02,0-.28-.1-.55-.19-.82-.28-.23-.08-.47-.15-.71-.23-.14-.05-.28-.09-.42-.14l-.22-.07c-.73-.23-1.46-.43-2.18-.63-.23-.06-.47-.12-.7-.18-.19-.05-.39-.1-.58-.14-.1-.02-.21-.05-.31-.07-.17-.04-.34-.08-.52-.12-.43-.1-.86-.19-1.29-.28-.29-.06-.57-.12-.86-.17-.14-.02-.29-.05-.43-.08-.15-.03-.29-.05-.44-.08-.08-.01-.15-.03-.23-.04-.18-.03-.37-.06-.55-.09-.59-.09-1.18-.18-1.76-.25-.2-.03-.41-.05-.61-.07-.04,0-.08,0-.12-.01-.14-.02-.28-.03-.42-.05-.18-.02-.37-.04-.55-.06-.03,0-.06,0-.09,0-.15-.02-.31-.03-.46-.04-.17-.02-.33-.03-.49-.04-.43-.03-.85-.06-1.28-.09-.28-.01-.55-.03-.83-.04-.2-.01-.4-.02-.6-.02-.18,0-.37-.01-.55-.02-.12,0-.23,0-.34,0-.15,0-.3,0-.45,0-.22,0-.45,0-.67,0-.34,0-.69,0-1.03,0h-.05c-.33,0-.65.01-.97.03-.02,0-.05,0-.08,0-.29,0-.59.02-.88.04-.35.01-.7.03-1.04.06-.17.01-.33.02-.5.04-.25.02-.5.04-.74.06-.23.02-.46.04-.69.06-.11,0-.22.02-.33.03-.28.03-.55.06-.83.09-.14.02-.28.03-.42.05-.18.02-.35.04-.53.07-.25.03-.5.07-.76.1-.19.02-.38.05-.56.08-.06,0-.12.02-.17.03-.47.07-.93.14-1.39.22-.25.04-.5.09-.75.13-.25.04-.5.09-.75.14-.25.05-.5.1-.74.15-.65.13-1.3.27-1.95.43-.06.01-.12.03-.18.04-.08.02-.16.04-.24.06-.18.04-.36.09-.55.13-.3.07-.6.15-.9.23-.07.02-.14.04-.2.05-1.34-3.11-2.48-7.07-3.18-12.13,0,0-.65-2.32-2.58-4,0,0-.71-4.46.97-5.17,0,0,22.08-7.56,41.84,4.26,0,0,3,2.75,5.59,3.3,0,.02,0,.04,0,.06.1,1.55.07,3.2-.12,4.97Z"/>
        <path class="cls-21" d="M102.3,118.94c-1.87,3.07-4.59,6.53-8.05,8.43,0,0-6.65,4.13-17.37,1.74,0,0-6.81-.65-11.35-11.18.07-.02.14-.04.2-.05.3-.08.6-.15.9-.23.18-.04.36-.09.55-.13.08-.02.16-.04.24-.06.06-.01.12-.03.18-.04.64-.15,1.29-.29,1.95-.43.25-.05.49-.1.74-.15.25-.05.5-.1.75-.14.25-.04.5-.09.75-.13.46-.08.93-.15,1.39-.22.06-.01.11-.02.17-.03.18-.03.37-.05.56-.08.25-.04.5-.07.76-.1.18-.02.35-.05.53-.07.14-.02.28-.03.42-.05.28-.03.55-.06.83-.09.11-.01.22-.02.33-.03.23-.02.46-.04.69-.06.25-.02.5-.04.74-.06.17-.01.33-.02.5-.04.35-.02.69-.04,1.04-.06.29-.02.58-.03.88-.04.03,0,.05,0,.08,0,.33-.01.65-.02.97-.03h.05c.34,0,.69,0,1.03,0,.22,0,.44,0,.67,0,.15,0,.3,0,.45,0,.12,0,.23,0,.34,0,.18,0,.37,0,.55.02.2,0,.4.01.6.02.28.01.55.02.83.04.42.02.85.06,1.28.09.17.01.33.02.49.04.15.01.3.02.46.04.03,0,.06,0,.09,0,.18.02.37.04.55.06.14.01.28.03.42.05.04,0,.08,0,.12.01.2.02.41.05.61.07.59.07,1.17.16,1.76.25.18.03.36.06.55.09.07.01.15.02.23.04.15.03.3.05.44.08.14.02.28.05.43.08.29.05.57.11.86.17.43.09.86.18,1.29.28.17.04.34.08.52.12.1.02.21.05.31.07.19.05.39.1.58.14.23.06.47.12.7.18.73.19,1.45.4,2.18.63l.22.07c.14.04.28.09.42.14.24.08.47.15.71.23.27.09.55.19.82.28,0,0,.01,0,.02,0Z"/>
        <path class="cls-11" d="M156.91,96.63s-22.08-7.56-41.84,4.26c0,0-2.64,2.42-5.1,3.17-.39.12-.77.19-1.13.21h0c-.21-.01-.43-.04-.65-.09-2.59-.54-5.59-3.3-5.59-3.3-19.76-11.82-41.84-4.26-41.84-4.26-1.68.71-.97,5.17-.97,5.17,1.94,1.68,2.58,4,2.58,4,.71,5.06,1.84,9.02,3.18,12.13,4.53,10.53,11.35,11.18,11.35,11.18,10.72,2.39,17.37-1.74,17.37-1.74,3.47-1.91,6.18-5.36,8.05-8.43,2-3.27,3.06-6.1,3.06-6.1.76-2.06,1.78-2.98,2.66-3.37.28-.13.55-.2.8-.23h0c.44.07.97.25,1.51.66.69.52,1.39,1.42,1.96,2.94,0,0,.93,2.49,2.7,5.51h0c1.88,3.2,4.72,6.99,8.4,9.02,0,0,6.65,4.13,17.37,1.74,0,0,7.22-.69,11.74-12.12,1.17-2.95,2.16-6.62,2.79-11.19,0,0,.65-2.32,2.58-4,0,0,.71-4.46-.97-5.17ZM100.32,118.28c-.12.23-.21.38-.25.46-.02.04-.04.07-.06.11-6.38,12.73-22.7,8.24-24.4,7.73-.09-.03-.18-.06-.27-.1-3.83-1.62-6.34-5.53-7.91-9.03-1.42-3.18-2.05-6.02-2.16-6.52-.01-.06-.02-.11-.04-.16-1.19-4.22-.71-7.22.36-9.32,1.35-2.65,3.99-4.42,6.95-4.76,18.81-2.13,28.96,6.07,28.96,6.07,4.67,3.84.05,13.22-1.18,15.5ZM152.41,110.78c-.02.05-.03.11-.04.16-.09.44-.61,2.8-1.75,5.58-1.52,3.71-4.14,8.19-8.31,9.96-.09.04-.18.07-.27.1-1.71.51-18.02,5-24.4-7.73-.02-.04-.04-.07-.06-.11-.08-.13-.29-.52-.58-1.09-1.54-3.03-5.17-11.32-.85-14.87,0,0,10.16-8.21,28.97-6.07,2.96.34,5.59,2.1,6.95,4.76,1.07,2.1,1.55,5.1.36,9.32Z"/>
      </g>
    </g>
  </g>
</svg>