<?xml version="1.0" encoding="UTF-8"?>
<svg id="Layer_2" data-name="Layer 2" xmlns="http://www.w3.org/2000/svg" xmlns:xlink="http://www.w3.org/1999/xlink" viewBox="0 0 223.34 223.59">
  <defs>
    <style>
      .cls-1 {
        fill: none;
      }

      .cls-2 {
        fill: #d99100;
      }

      .cls-3 {
        fill: #d6bb9c;
      }

      .cls-4 {
        fill: #462e1b;
      }

      .cls-5 {
        fill: #ba9d82;
      }

      .cls-6 {
        fill: #ccad8a;
      }

      .cls-7 {
        fill: #44361f;
      }

      .cls-8 {
        fill: #d7bd9d;
      }

      .cls-9, .cls-10 {
        fill: #22231d;
      }

      .cls-11 {
        fill: #c27976;
      }

      .cls-12 {
        fill: #fff;
      }

      .cls-13 {
        fill: #dcc5a0;
      }

      .cls-14 {
        fill: #272213;
      }

      .cls-15 {
        fill: #c01f13;
      }

      .cls-16 {
        fill: #ecdab6;
      }

      .cls-17 {
        fill: #af6a6f;
      }

      .cls-18 {
        fill: #b8987d;
      }

      .cls-19 {
        opacity: .4;
      }

      .cls-20 {
        fill: #ebd9b5;
      }

      .cls-10 {
        opacity: .86;
      }

      .cls-21 {
        fill: #a98d76;
      }

      .cls-22 {
        fill: #714223;
      }

      .cls-23 {
        fill: #b7967d;
      }

      .cls-24 {
        clip-path: url(#clippath);
      }

      .cls-25 {
        fill: #d2bb9b;
      }

      .cls-26 {
        fill: #b5957e;
      }

      .cls-27 {
        fill: #8cc0e4;
      }
    </style>
    <clipPath id="clippath">
      <rect class="cls-1" x="103.97" y="155.04" width="25.1" height="14.8"/>
    </clipPath>
  </defs>
  <g id="Layer_1-2" data-name="Layer 1">
    <g>
      <rect class="cls-2" width="223.34" height="223.59"/>
      <path class="cls-13" d="M116.43,139.83v83.76h-45.31c-.74-.29-1.11-.44-1.11-.44,0-10.69,1.57-19.03,3.96-25.53,5.77-15.69,16.32-20.67,21.18-22.17,1.59-.49,2.58-.61,2.58-.61.17,0,.33-.02.5-.04,1.43-.23,2.58-1.47,3.51-3.45.69-1.47,1.27-3.34,1.74-5.51.19-.85.33-1.7.48-2.62.22-1.55.44-3.17.63-4.87.07-1.03.18-2.03.29-3.1.4-5.12.52-10.73.52-16.05,0,0,6.08.63,11.02.63Z"/>
      <path class="cls-20" d="M163.03,223.15s-.41.15-1.07.44h-45.53v-83.76h.11c4.9,0,11.06-.63,11.06-.63,0,5.27.11,10.81.51,15.93.11,1,.22,2.03.29,3.02.19,1.77.41,3.43.67,4.98v.03c.07.7.22,1.33.33,1.99.45,2.18.99,4.1,1.64,5.63.81,1.91,1.8,3.25,3.01,3.77.38.17.79.26,1.21.26,0,0,1.74.21,4.36,1.24,5.33,2.09,14.29,7.57,19.44,21.55,2.39,6.5,3.96,14.84,3.96,25.53Z"/>
      <g class="cls-24">
        <path class="cls-5" d="M129.08,162.99v.04c-1.14,1.76-4.98,6.81-12.57,6.81h-.07c-7.19-.04-11.39-5.24-12.46-6.78.22-1.54.44-3.15.63-4.84.07-.99.18-2.02.29-3.08,3.5.88,7.34,1.43,11.39,1.5h.15c4.2-.07,8.07-.66,11.69-1.61.11.99.22,2.02.29,3,.18,1.76.41,3.41.66,4.95"/>
      </g>
      <path class="cls-6" d="M115.92,44.38c-48,0-48.26,40.12-46.12,66.39-3.28-6.23-13.05-4.32-12.24,5.5.77,9.45,14.73,14.27,14.34,13.23,7.27,19.43,26.51,34.08,44.02,34.08h.37V44.38h-.37"/>
      <path class="cls-21" d="M60.62,112.13c2.36-3.81,6.05-2.16,6.93-1.32.96.92,1.73,2.09,1.14,4.32-.33,1.28-1.66,1.39-1.36,3.3.37,2.16,1.36,2.27,1.95,2.78.55.48,1.25.84,1.59,1.76.37.92.41,1.87.22,2.71-.37,1.54-2.62.29-4.13-.37-1-.48-4.17-3.15-4.98-4.03-1.99-2.27-2.95-6.67-1.36-9.16"/>
      <path class="cls-8" d="M116.17,44.38c48,0,48.26,40.12,46.15,66.39,3.28-6.23,13.01-4.32,12.2,5.5-.74,9.45-14.72,14.27-14.34,13.23-7.08,19.43-26.51,34.08-44.02,34.08h-.26l-.11-119.19h.37"/>
      <path class="cls-21" d="M171.47,112.13c-2.36-3.81-6.01-2.16-6.93-1.32-.96.92-1.7,2.09-1.14,4.32.33,1.28,1.66,1.39,1.36,3.3-.37,2.16-1.36,2.27-1.92,2.78-.55.48-1.29.84-1.62,1.76-.33.92-.41,1.87-.22,2.71.37,1.54,2.62.29,4.13-.37,1.03-.48,4.17-3.15,4.98-4.03,2.03-2.27,2.95-6.67,1.36-9.16"/>
      <path class="cls-13" d="M115.54,55.7c-15.78,0-27.35,4.58-34.32,13.59-9.77,12.64-9.4,31.91-5.82,45.76,1.11,4.25,1.7,15.65,2.43,19.82,3.43,18.72,24.11,28.69,37.71,28.69h.37V55.7h-.22"/>
      <path class="cls-20" d="M149.82,69.33c-6.93-8.98-18.36-13.56-33.92-13.63v107.87c15.56-.18,34.17-11.1,37.34-28.69.77-4.18,1.33-15.57,2.43-19.82,3.61-13.81,3.98-33.05-5.86-45.73"/>
      <path class="cls-1" d="M113.98,144.57c-.22-.04-.42-.08-.59-.11.2.04.4.08.59.11Z"/>
      <path class="cls-1" d="M113.16,144.4c-.14-.03-.27-.06-.36-.08.12.03.24.05.36.08Z"/>
      <path class="cls-23" d="M113.39,144.45c-.08-.02-.15-.03-.23-.05.07.02.14.03.23.05Z"/>
      <path class="cls-23" d="M112.8,144.32c-.07-.02-.13-.04-.2-.06h0s.08.02.21.06Z"/>
      <path class="cls-1" d="M72.88,89.33c-.43,1.43-.73,2.99-.93,4.66,0,0,.63-2.63,2.03-6.52-.6.83-1,1.5-1.1,1.86Z"/>
      <path class="cls-7" d="M102.51,55.97l-.2.2.03.07c.07-.1.1-.2.17-.27Z"/>
      <path class="cls-1" d="M114.13,142.38c-.22-.04-.43-.08-.61-.12.21.04.41.09.61.12Z"/>
      <path class="cls-1" d="M113.29,142.21c-.14-.03-.28-.06-.37-.08.12.03.24.06.37.08Z"/>
      <path class="cls-26" d="M113.52,142.26c-.08-.02-.15-.03-.23-.05.08.02.14.03.23.05Z"/>
      <path class="cls-26" d="M112.92,142.13c-.07-.02-.14-.04-.21-.06h0s.08.03.21.06Z"/>
      <path class="cls-3" d="M107.65,128.56c-.19-3.83,7.03-1.4,9.41-1.28,1.88.1,7.6-1.21,8.09-.87,3.37,2.27-3.57,6.84-8.21,6.84-1.24,0-9.18-2.38-9.29-4.69Z"/>
      <path class="cls-1" d="M114.23,144.15c-.22-.04-.43-.08-.61-.12.21.04.41.08.61.12Z"/>
      <path class="cls-1" d="M113.39,143.99c-.14-.03-.28-.06-.37-.08.12.03.24.06.37.08Z"/>
      <path class="cls-26" d="M113.62,144.04c-.08-.02-.15-.03-.23-.05.08.02.14.03.23.05Z"/>
      <path class="cls-26" d="M113.02,143.9c-.07-.02-.14-.04-.21-.06h0s.08.02.21.06Z"/>
      <path class="cls-1" d="M113.99,143.74c-.24-.04-.46-.08-.65-.12.22.05.44.09.65.12Z"/>
      <path class="cls-1" d="M113.09,143.56c-.15-.03-.3-.07-.4-.09.13.03.26.06.4.09Z"/>
      <path class="cls-23" d="M113.34,143.61c-.08-.02-.17-.03-.25-.05.08.02.15.03.25.05Z"/>
      <path class="cls-23" d="M112.69,143.47c-.08-.02-.15-.04-.22-.06h0s.09.03.23.06Z"/>
      <path class="cls-1" d="M113.81,143.11c-.24-.04-.46-.08-.65-.12.22.05.44.09.65.12Z"/>
      <path class="cls-1" d="M112.9,142.93c-.15-.03-.3-.07-.4-.09.13.03.26.06.4.09Z"/>
      <path class="cls-23" d="M113.15,142.98c-.08-.02-.17-.03-.25-.05.08.02.15.03.25.05Z"/>
      <path class="cls-23" d="M112.51,142.84c-.08-.02-.15-.04-.22-.06h0s.09.03.23.06Z"/>
      <path class="cls-1" d="M114.36,143.02c-.23-.04-.44-.08-.63-.12.21.05.42.09.63.12Z"/>
      <path class="cls-1" d="M113.49,142.85c-.14-.03-.29-.06-.38-.09.13.03.25.06.38.09Z"/>
      <path class="cls-23" d="M113.73,142.9c-.08-.02-.16-.03-.24-.05.08.02.15.03.24.05Z"/>
      <path class="cls-23" d="M113.1,142.76c-.07-.02-.14-.04-.21-.06h0s.08.03.22.06Z"/>
      <path class="cls-1" d="M112,149.39c-.22-.04-.43-.08-.6-.12.21.04.4.08.6.12Z"/>
      <path class="cls-1" d="M111.17,149.23c-.14-.03-.28-.06-.37-.08.12.03.24.06.37.08Z"/>
      <path class="cls-18" d="M111.4,149.28c-.08-.02-.15-.03-.23-.05.08.02.14.03.23.05Z"/>
      <path class="cls-18" d="M110.8,149.15c-.07-.02-.14-.04-.21-.06h0s.08.02.21.06Z"/>
      <path class="cls-1" d="M111.83,148.81c-.22-.04-.43-.08-.6-.12.2.04.4.08.6.12Z"/>
      <path class="cls-1" d="M111,148.65c-.14-.03-.28-.06-.37-.08.12.03.24.06.37.08Z"/>
      <path class="cls-18" d="M111.23,148.7c-.08-.02-.15-.03-.23-.05.08.02.14.03.23.05Z"/>
      <path class="cls-18" d="M110.63,148.56c-.07-.02-.14-.04-.21-.06h0s.08.02.21.06Z"/>
      <path class="cls-1" d="M112.35,148.73c-.22-.04-.41-.08-.58-.11.2.04.39.08.58.11Z"/>
      <path class="cls-1" d="M111.54,148.57c-.13-.03-.27-.06-.35-.08.12.03.23.05.35.08Z"/>
      <path class="cls-18" d="M111.76,148.62c-.07-.02-.15-.03-.22-.05.07.02.14.03.22.05Z"/>
      <path class="cls-18" d="M111.18,148.49c-.07-.02-.13-.04-.2-.06h0s.08.02.21.06Z"/>
      <path class="cls-16" d="M106.73,150.4c-.18-2.39,6.65.5,8.89.57,1.79.06,7.16-.35,7.66-.54,3.76-1.4-.21,3.99-7.77,4.27-3.47.14-8.68-2.85-8.78-4.3Z"/>
      <path class="cls-17" d="M129.24,144.67c-4.33-.81-13.45.05-13.45.05-7.52,1.25-13.41-.08-13.45-.03-.18.02,6.01,8.22,13.35,7.85h0c7.34.38,13.73-7.85,13.55-7.87Z"/>
      <path class="cls-11" d="M120.14,142.94c-1.95-.22-3.34,1.19-4.34,1.09-1.02.09-2.34-.81-4.3-.83-2.76-.03-4.11-.27-9.16,1.5.18.34,3.41,2.22,9.47,2.32.09,0,1.71.92,4.02.91,1.45,0,3.43-.97,3.51-.97,6.07-.09,9.77-1.9,9.94-2.23-6.67-2.07-6.14-1.8-9.14-1.78Z"/>
      <path d="M108.84,180.64l-11.02-7.18s-21.75,1.55-27.93,32.7c-.26,1.3-.48,2.65-.68,4.05l12.22,3.25v10.12h32.39v-34.94c0-3.21-1.71-6.09-4.36-7.63-.21-.12-.41-.25-.61-.38Z"/>
      <path d="M163.74,206.17c-2.44-12.75-9.32-28.54-28.15-32.75l-11.43,7.3s-.03.02-.04.02c-2.5,1.58-4.08,4.38-4.08,7.47v35.39h31.97v-10.12l12.37-3.29c-.17-1.29-.38-2.63-.64-4.01Z"/>
      <path class="cls-27" d="M113.81,203.91v19.68h6.23v-19.77c-2.04.25-4.17.28-6.23.08Z"/>
      <path class="cls-12" d="M81.48,97.51s3.66,15.07,9.95,16.3c6.29,1.23,13.09-1.22,13.09-1.22,0,0,.65-17.71-2.57-20.02-3.22-2.32-10.63-5.68-20.47,4.94Z"/>
      <path class="cls-25" d="M104.52,112.55s-.14.04-.47.18c-.08-5.43-.58-12.89-2.59-14.32-2.99-2.2-9.74-5.28-18.75,3.17-.82-2.33-1.23-4.1-1.23-4.1,9.86-10.64,17.28-7.29,20.47-4.96,3.22,2.32,2.57,20.05,2.57,20.05Z"/>
      <ellipse class="cls-4" cx="94.61" cy="104.88" rx="6.19" ry="6.21"/>
      <path class="cls-22" d="M94.33,109.01c-1.79-.15-3.16-1.96-3-3.95.16-1.99,1.81-3.54,3.6-3.39,1.79.15,3.16,1.95,3,3.94-.16,1.99-1.81,3.55-3.6,3.4Z"/>
      <path class="cls-14" d="M94.48,108.29c-1.24-.11-2.53-1.48-2.4-3.16.14-1.69,1.63-2.83,2.88-2.73,1.24.11,2.53,1.48,2.39,3.17-.14,1.69-1.63,2.83-2.87,2.72Z"/>
      <path class="cls-12" d="M93.47,101.06c-.05.61-.68,1.05-1.39,1-.72-.06-1.26-.61-1.21-1.21.05-.61.67-1.06,1.39-1,.72.06,1.26.6,1.21,1.21Z"/>
      <path class="cls-12" d="M97.48,107.66c-.03.3-.34.53-.69.5-.36-.03-.63-.3-.61-.61.03-.3.34-.53.69-.5.36.03.63.3.61.61Z"/>
      <path class="cls-12" d="M150.72,97s-3.66,15.07-9.95,16.3c-6.29,1.23-13.09-1.22-13.09-1.22,0,0-.65-17.71,2.57-20.02,3.22-2.32,10.63-5.68,20.47,4.94Z"/>
      <path class="cls-25" d="M127.67,112.04s.14.04.47.18c.08-5.43.58-12.89,2.59-14.32,2.99-2.2,9.74-5.28,18.75,3.16.82-2.33,1.23-4.1,1.23-4.1-9.86-10.64-17.28-7.29-20.47-4.96-3.22,2.32-2.57,20.05-2.57,20.05Z"/>
      <path class="cls-4" d="M131.39,104.36c0,3.43,2.77,6.21,6.19,6.21s6.19-2.78,6.19-6.21-2.77-6.21-6.19-6.21-6.19,2.78-6.19,6.21Z"/>
      <path class="cls-22" d="M137.87,108.5c1.79-.15,3.16-1.96,3-3.95-.16-1.99-1.81-3.54-3.6-3.39-1.79.15-3.16,1.95-3,3.94.16,1.99,1.81,3.55,3.6,3.4Z"/>
      <path class="cls-14" d="M137.71,107.78c1.24-.11,2.53-1.47,2.4-3.16-.14-1.69-1.63-2.83-2.88-2.73-1.24.11-2.53,1.48-2.39,3.17.14,1.69,1.63,2.83,2.87,2.72Z"/>
      <path class="cls-12" d="M138.72,103.62c.05.61.68,1.05,1.39,1,.72-.06,1.26-.61,1.21-1.21-.05-.61-.67-1.06-1.39-1-.72.06-1.26.6-1.21,1.21Z"/>
      <path class="cls-12" d="M134.71,107.15c.03.3.34.53.69.5.36-.03.63-.3.61-.61-.03-.3-.34-.53-.69-.5-.36.03-.63.3-.61.61Z"/>
      <g>
        <path d="M108.29,97.27c-.05-.07-1.19-1.81-3.52-3.61-1.46-1.12-2.89-1.98-4.38-2.62-1.81-.76-3.75-1.3-5.63-1.56-1.7-.19-3.59-.14-5.79.16-1.68.32-3.32.82-4.71,1.44-.99.34-1.78.82-2.41,1.21-.24.15-.46.28-.68.4l-3,1.89,3.46-.82c.16-.04.34-.09.52-.14.72-.19,1.61-.43,2.65-.58.24-.04.49-.09.75-.14.44-.09.89-.18,1.36-.2.52-.04,1.07-.07,1.63-.11l.73-.05c1.92-.02,3.54.12,4.97.45,1.57.27,3.19.78,4.67,1.47,1.4.67,2.74,1.34,3.79,2.11,2.11,1.42,3.29,2.6,3.3,2.61h0c.29.29.68.44,1.07.44.28,0,.57-.08.82-.25.7-.46.89-1.4.45-2.08l-.03-.05Z"/>
        <path d="M151.33,92.69c-.2-.11-.42-.24-.66-.39-.63-.39-1.41-.87-2.38-1.2-1.42-.63-3.06-1.13-4.76-1.45-2.18-.29-4.07-.35-5.78-.15-1.87.26-3.82.8-5.63,1.56-1.46.63-2.94,1.51-4.38,2.62-2.29,1.76-3.43,3.47-3.51,3.6l-.02.03c-.39.6-.3,1.4.2,1.9.28.29.66.45,1.07.45h0c.4,0,.78-.16,1.06-.45h.01c.11-.12,1.25-1.24,3.3-2.62,1.03-.76,2.37-1.43,3.77-2.1,1.49-.69,3.1-1.2,4.7-1.48,1.42-.33,3.04-.47,4.93-.45l.76.05c.55.04,1.09.08,1.62.11.46.02.91.11,1.35.2.25.05.5.1.75.14,1.05.15,1.94.39,2.65.58.19.05.36.1.53.14l3.46.82-3.03-1.91Z"/>
      </g>
      <path class="cls-15" d="M160.98,117.27c.96,0-.07-5.39,3.16-9.1,3.22-3.71,8.13-16.22,8.13-28.69s-4.2-23.58-15.16-35.39c-10.96-11.81-27.08-17.53-27.08-17.53l7.41,7.08s-3.99-5.75-18.35-10.35c-11.32-3.62-18.66.42-18.66.42,0,0,7.47-.27,9.74,3.13.57.87,2.66,2.18,2.66,2.18,0,0-3.47-8.15-19.6-1.39-16.11,6.75-15.82,18.84-27.04,22.55-11.48,3.81-14.81-1.08-14.81-1.08,0,0,4.98,8.55,13.83,8.58,1.7,0,1.58-.04,1.58-.04,0,0-3.31,9.17-3.95,16.01-.65,6.98,1.38,11.75,2,24.81.54,11.16,3.45,5.44,6.92,13.67,1.17,2.76,1.22,5.86,1.22,5.86,1.29.32,4.66-6.7,2.23-18.9-1.58-7.92,6.22-37.95,25.01-32.1,11.49,3.58,14.39,10.88,22.99,4.4,7.41-5.58,17.77-8.79,25.51-4.38,7.74,4.42,12.1,14.35,10.75,30.2-1.72,20.23,1.51,20.09,1.51,20.09Z"/>
      <g>
        <g>
          <g class="cls-19">
            <path class="cls-9" d="M109.37,111.18c0,6.89-9.49,13.68-20.43,13.68-15.23,0-17.3-6.07-17.3-12.91s-3.8-12.47,18.58-12.47,19.15,4.81,19.15,11.71"/>
          </g>
          <g class="cls-19">
            <path class="cls-9" d="M124.73,111.18c0,6.89,9.49,13.68,20.39,13.68,15.27,0,17.3-6.07,17.3-12.91s3.8-12.47-18.54-12.47-19.15,4.81-19.15,11.71"/>
          </g>
        </g>
        <path class="cls-10" d="M107.03,115.21c-5.53,10.3-21.8,8.92-25.99,7.96-1.66-.41-5.99-1.7-7.92-8.44.02-.01.05-.02.07-.03.2-.07.4-.15.6-.22.15-.05.3-.11.45-.16.19-.07.37-.13.56-.19.22-.07.43-.14.65-.21.25-.08.51-.16.77-.24.15-.05.31-.1.47-.14.12-.04.24-.07.37-.11.55-.16,1.1-.31,1.66-.45.21-.05.42-.1.64-.15.21-.05.42-.1.64-.15.21-.04.43-.1.64-.14.39-.08.79-.16,1.19-.24.05-.01.09-.02.14-.03.16-.03.32-.06.48-.08.22-.04.43-.07.65-.11.15-.02.3-.05.46-.07.12-.02.23-.03.35-.05.23-.03.47-.06.7-.09.09-.01.19-.02.28-.03.19-.02.39-.04.59-.07.21-.02.42-.04.64-.06.14-.01.29-.02.43-.04.3-.02.6-.04.89-.06.25-.02.5-.03.75-.04.02,0,.05,0,.06,0,.28-.01.56-.02.83-.03h.04c.29,0,.59,0,.88,0h.57c.13,0,.25,0,.38.01.1,0,.19,0,.29,0,.16,0,.31.01.47.02.17,0,.34.02.51.02.24.01.47.03.71.04.36.03.73.06,1.09.1.14.01.28.02.42.04.13.01.26.03.39.04.03,0,.05,0,.08.01.15.02.31.04.47.06.12.02.24.03.36.05.03,0,.06.01.1.01.18.03.35.05.52.08.5.07,1,.16,1.51.26.15.03.31.06.47.1.06.01.13.02.19.04.13.03.25.05.38.08.12.03.24.06.37.08.24.06.49.11.74.18.37.09.74.19,1.11.29.14.04.29.08.44.13.09.02.18.05.27.08.16.05.33.1.5.15.2.06.4.13.6.2.62.2,1.24.42,1.86.66.19.07.37.15.56.22.2.08.41.16.61.25.23.1.47.2.7.3.13.06.25.11.37.17Z"/>
        <path class="cls-12" d="M168.51,100.73c-.31-.44-5.87-1.04-13.11-1.58-6.18-.44-16.02-.16-19.9.27-1.54.16-4.46.6-7.33,1.15-3.22.65-6.35,1.53-7.68,1.75-1.28.19-2.28.26-3.31.23v-.02c-.08,0-.15,0-.22,0-.08,0-.15,0-.22,0v.02c-1.03.02-2.04-.04-3.31-.23-1.32-.22-4.46-1.1-7.68-1.75-2.87-.55-5.78-.99-7.37-1.15-3.84-.44-13.68-.71-19.86-.27-7.24.55-12.8,1.15-13.11,1.58-.18.33-.61,4.38-.04,4.87.57.39,2.65,1.32,3.13,2.74.26.75.94,4.02,2.19,7.35,1.12,2.98,2.7,5.99,4.82,7.31,6.05,3.85,23.73,4.7,32.37-4.41,1.94-2.05,3.42-4.6,4.22-7.73.57-2.36,1.32-3.72,2.69-4.1.52-.15,1.35-.26,2.16-.27.81.02,1.63.12,2.16.27,1.37.38,2.12,1.75,2.74,4.1.99,3.96,3.09,6.99,5.82,9.24,9.04,7.48,25.03,6.52,30.72,2.9,2.37-1.47,4.05-5.08,5.18-8.37,1.01-2.94,1.58-5.62,1.84-6.29.48-1.42,2.56-2.35,3.13-2.74.57-.49.13-4.54-.05-4.87ZM108.18,112.39c-.3,1.02-.69,1.96-1.15,2.82-5.53,10.3-21.8,8.92-25.99,7.96-1.66-.41-5.99-1.7-7.92-8.44-.38-1.34-.67-2.89-.83-4.69-.66-7.5,4.06-7.99,10.72-8.64,5.39-.49,10.2-.27,13.46,0,3.26.32,10.85,1.58,11.6,3.61.75,2.08.93,4.43.09,7.38ZM152.88,123.17c-4.3.99-21.27,2.41-26.38-8.73-.29-.64-.55-1.32-.76-2.05-.84-2.96-.66-5.31.09-7.38.75-2.03,8.34-3.29,11.61-3.61,3.26-.27,8.03-.49,13.46,0,6.71.65,11.39,1.15,10.72,8.64-.11,1.33-.3,2.52-.54,3.6-1.75,7.7-6.45,9.1-8.2,9.53Z"/>
        <path class="cls-10" d="M161.08,113.63c-1.75,7.7-6.45,9.1-8.2,9.53-4.3.99-21.27,2.41-26.38-8.73,12.48-5.84,24.57-4.51,34.58-.8Z"/>
      </g>
    </g>
  </g>
</svg>