<?xml version="1.0" encoding="UTF-8"?>
<svg id="Layer_2" data-name="Layer 2" xmlns="http://www.w3.org/2000/svg" xmlns:xlink="http://www.w3.org/1999/xlink" viewBox="0 0 299.36 300.64">
  <defs>
    <style>
      .cls-1 {
        fill: none;
      }

      .cls-2 {
        fill: #43331b;
      }

      .cls-3 {
        fill: #d6c09e;
      }

      .cls-4 {
        fill: #b5977b;
      }

      .cls-5 {
        fill: #d7be9a;
      }

      .cls-6 {
        fill: #282211;
      }

      .cls-7 {
        fill: #71391e;
      }

      .cls-8 {
        fill: #a4876f;
      }

      .cls-9 {
        fill: #e8b500;
      }

      .cls-10 {
        fill: #ca7b15;
      }

      .cls-11 {
        fill: #fff;
      }

      .cls-12 {
        fill: #b19076;
      }

      .cls-13 {
        fill: #e8d2ae;
      }

      .cls-14 {
        fill: #e9d3af;
      }

      .cls-15 {
        fill: #aa6926;
      }

      .cls-16 {
        fill: #3b3b36;
      }

      .cls-17 {
        fill: #171500;
      }

      .cls-18 {
        fill: #b39176;
      }

      .cls-19 {
        fill: #bc9e80;
      }

      .cls-20 {
        fill: #af8f76;
      }

      .cls-21 {
        fill: #ceb495;
      }

      .cls-22 {
        fill: #452a16;
      }

      .cls-23 {
        fill: #d3b697;
      }

      .cls-24 {
        fill: #1a1a1a;
      }

      .cls-25 {
        fill: #c7a784;
      }

      .cls-26 {
        clip-path: url(#clippath);
      }
    </style>
    <clipPath id="clippath">
      <rect class="cls-1" x="137.24" y="208.23" width="33.65" height="19.95"/>
    </clipPath>
  </defs>
  <g id="RÈteg_1" data-name="RÈteg 1">
    <g>
      <rect class="cls-15" width="299.36" height="300.48"/>
      <path class="cls-16" d="M218.07,191.04c-.68-3.03-1-4.75-1.07-5.97h-.65c2.25-3.02,3.97-6.23,5.09-9.59h0c.06-.17.1-.35.15-.53.43-1.34.76-2.71.98-4.1,3.76-20.39-6.35-46.98-6.35-46.98,1.01,6.45.04,14.37-1.58,21.79-1.29,5.88-2.99,11.45-4.44,15.73-1.36,4-2.5,6.87-2.88,7.82-5.22,11.04-14.53,20.07-26.25,25.64.78-2.15,1.24-4.6,1.24-7.21,0-1.15-.11-2.26-.27-3.34,1.16-.13,2.28-.3,3.32-.56,1.66-.3,3.17-.85,4.47-1.71,2.68-1.77,4.48-4.85,4.76-9.77,0,0-6.92,11.14-17.7,1.28,0,0-12.39-15.22-23.34-9.13-10.93-6.09-23.33,9.13-23.33,9.13-10.76,9.86-17.7-1.28-17.7-1.28.2,3.53,1.05,5.96,2.55,7.81l.08.07s.28.27.68.62c.38.35.99.82,1.83,1.27,0,0,.02,0,.04.02.83.43,1.89.87,3.22,1.19,1.05.31,2.49.38,4.27.3-.25,1.3-.4,2.67-.4,4.1,0,2.61.46,5.06,1.25,7.21-11.72-5.57-21.03-14.6-26.25-25.64-.39-.95-1.53-3.82-2.89-7.82-1.46-4.28-3.15-9.85-4.44-15.73-1.62-7.42-2.6-15.34-1.58-21.79,0,0-10.11,26.59-6.35,46.98.22,1.39.56,2.76.97,4.1.06.18.1.36.16.53h.02c1.12,3.35,2.83,6.56,5.08,9.58h-.66c-.06,1.22-.39,2.94-1.07,5.97-1.82,8.32-7.24,10.49-7.24,10.49,0,0,8.38-3.17,10.41-5.33.98-1.04,3.57-3.9,4.37-4.8.03.02.05.04.08.07-.47.96-1.56,4.05-.02,10.01,2.03,7.79,10.34,13.04,10.34,13.04,0,0-4.98-6.19-3.6-12.98,0,0-.29,2.72,7.81,10.28,7.73,7.23,17.33,14.99,18.58,15.08-.1-.23,4.28-7.67,4.17-10.73,5.91,1.59,12.07,11.91,18.47,11.91.38,0,.76-.02,1.14-.03h0c.37,0,.75.03,1.14.03,6.4,0,12.56-10.32,18.47-11.91-.1,3.07,4.08,11.79,3.97,12.03,1.25-.1,11.05-9.14,18.78-16.37,8.11-7.55,7.81-10.28,7.81-10.28,1.38,6.79-3.6,12.98-3.6,12.98,0,0,8.31-5.25,10.33-13.04,1.55-5.95.45-9.05-.02-10.01.03-.03.06-.04.08-.07.8.9,3.39,3.76,4.37,4.8,2.03,2.15,10.41,5.33,10.41,5.33,0,0-5.43-2.18-7.25-10.49Z"/>
      <path class="cls-5" d="M153.94,187.74v112.89h-60.71c-1.01-.39-1.48-.6-1.48-.6,0-10.64,1.15-19.55,3.05-27,.66-2.64,1.42-5.12,2.24-7.41,7.74-21.14,21.89-27.87,28.41-29.89,2.12-.66,3.44-.83,3.44-.83.25,0,.43-.02.66-.06h.02c1.91-.31,3.46-1.98,4.71-4.64.93-1.98,1.71-4.5,2.32-7.43.25-1.13.45-2.29.66-3.53.29-2.1.58-4.27.82-6.56.1-1.4.25-2.74.41-4.19.53-6.91.68-14.46.68-21.62,0,0,8.17.85,14.77.85Z"/>
      <path class="cls-13" d="M216.4,300.04s-.53.21-1.44.6h-61.02v-112.89h.14c6.58,0,14.83-.85,14.83-.85,0,7.1.14,14.56.7,21.47.14,1.34.29,2.72.39,4.08.25,2.37.53,4.62.88,6.7v.04c.1.95.29,1.79.45,2.68.6,2.95,1.32,5.53,2.2,7.61,1.09,2.56,2.41,4.37,4.03,5.07.51.23,1.05.35,1.63.35,0,0,.33.04.93.16h.02c.99.21,2.7.64,4.88,1.51,7.16,2.81,19.18,10.19,26.07,29.04.84,2.29,1.6,4.76,2.26,7.41,1.89,7.45,3.05,16.36,3.05,27Z"/>
      <g class="cls-26">
        <path class="cls-4" d="M170.89,218.95v.05c-1.53,2.37-6.67,9.19-16.85,9.19h-.1c-9.64-.05-15.27-7.06-16.7-9.14.3-2.07.59-4.25.84-6.52.1-1.33.25-2.72.4-4.15,4.69,1.19,9.83,1.93,15.27,2.02h.2c5.63-.1,10.82-.89,15.66-2.17.15,1.33.3,2.72.4,4.05.25,2.37.54,4.59.89,6.67"/>
      </g>
      <path class="cls-25" d="M153.25,59.06c-64.34,0-64.68,54.09-61.82,89.5-4.4-8.4-17.49-5.83-16.4,7.41,1.04,12.74,19.75,19.24,19.22,17.83,9.74,26.19,35.53,45.94,59,45.94h.49V59.06h-.49"/>
      <path class="cls-8" d="M79.13,150.39c3.16-5.14,8.1-2.91,9.29-1.78,1.28,1.23,2.32,2.82,1.53,5.83-.44,1.73-2.22,1.88-1.83,4.45.49,2.91,1.83,3.06,2.62,3.75.74.64,1.68,1.14,2.12,2.37.49,1.23.54,2.52.3,3.66-.49,2.07-3.51.4-5.53-.49-1.33-.64-5.58-4.25-6.67-5.43-2.67-3.06-3.95-8.99-1.83-12.35"/>
      <path class="cls-23" d="M153.6,59.06c64.34,0,64.68,54.09,61.87,89.5,4.4-8.4,17.44-5.83,16.36,7.41-.99,12.74-19.73,19.24-19.22,17.83-9.49,26.19-35.53,45.94-59,45.94h-.35l-.15-160.68h.49"/>
      <path class="cls-8" d="M227.72,150.39c-3.16-5.14-8.05-2.91-9.29-1.78-1.28,1.23-2.27,2.82-1.53,5.83.44,1.73,2.22,1.88,1.83,4.45-.49,2.91-1.83,3.06-2.57,3.75-.74.64-1.73,1.14-2.17,2.37-.44,1.23-.54,2.52-.3,3.66.49,2.07,3.51.4,5.53-.49,1.38-.64,5.58-4.25,6.67-5.43,2.72-3.06,3.95-8.99,1.83-12.35"/>
      <path class="cls-5" d="M152.74,74.32c-21.15,0-36.66,6.17-46,18.33-13.09,17.04-12.6,43.02-7.81,61.69,1.48,5.73,2.27,21.09,3.26,26.72,4.6,25.24,32.32,38.67,50.55,38.67h.49V74.32h-.3"/>
      <path class="cls-13" d="M198.7,92.7c-9.29-12.1-24.61-18.28-45.46-18.37v145.41c20.85-.25,45.81-14.97,50.06-38.67,1.04-5.63,1.78-20.99,3.26-26.72,4.84-18.62,5.34-44.55-7.86-61.64"/>
      <path class="cls-1" d="M150.66,188.67c-.29-.05-.56-.1-.79-.15.27.06.53.11.79.15Z"/>
      <path class="cls-1" d="M149.56,193.9c-.18-.04-.36-.08-.48-.11.16.04.32.07.48.11Z"/>
      <path class="cls-12" d="M149.86,193.96c-.1-.02-.2-.04-.3-.06.1.02.19.04.3.06Z"/>
      <path class="cls-12" d="M149.08,193.78c-.09-.02-.18-.05-.27-.08h0s.1.03.28.08Z"/>
      <path class="cls-23" d="M140.96,176.13c-.24-5.02,9.18-1.84,12.28-1.68,2.45.13,9.92-1.58,10.56-1.14,4.39,2.98-4.65,8.98-10.72,8.98-1.62,0-11.98-3.13-12.13-6.16Z"/>
      <path class="cls-1" d="M95.56,119.65c-.58,1.93-.98,4.03-1.25,6.28,0,0,.85-3.54,2.72-8.79-.8,1.12-1.34,2.02-1.47,2.51Z"/>
      <path class="cls-2" d="M135.28,74.69l-.27.27.04.09c.09-.13.13-.27.22-.36Z"/>
      <path class="cls-1" d="M150.86,191.17c-.3-.05-.57-.11-.82-.16.28.06.55.11.82.16Z"/>
      <path class="cls-1" d="M149.73,190.94c-.19-.04-.37-.08-.49-.11.16.04.33.07.49.11Z"/>
      <path class="cls-20" d="M150.04,191.01c-.1-.02-.21-.04-.31-.07.1.02.19.04.31.07Z"/>
      <path class="cls-20" d="M149.23,190.83c-.1-.02-.18-.05-.28-.08h-.01s.11.03.29.08Z"/>
      <path class="cls-11" d="M107.09,131.08s4.91,20.25,13.34,21.9c8.43,1.65,17.55-1.63,17.55-1.63,0,0,.87-23.8-3.44-26.91-4.31-3.12-14.25-7.64-27.44,6.64Z"/>
      <path class="cls-21" d="M137.98,151.29s-.19.06-.63.24c-.11-7.3-.78-17.33-3.47-19.25-4.01-2.95-13.05-7.1-25.14,4.25-1.1-3.14-1.65-5.52-1.65-5.52,13.21-14.3,23.16-9.8,27.44-6.67,4.32,3.12,3.45,26.94,3.45,26.94Z"/>
      <ellipse class="cls-22" cx="124.7" cy="140.98" rx="8.29" ry="8.34"/>
      <path class="cls-7" d="M124.31,146.53c-2.4-.2-4.23-2.63-4.02-5.3.21-2.67,2.42-4.76,4.82-4.56,2.4.2,4.23,2.63,4.02,5.3-.22,2.67-2.43,4.77-4.82,4.57Z"/>
      <path class="cls-6" d="M124.52,145.57c-1.67-.14-3.4-1.98-3.21-4.25.19-2.27,2.19-3.81,3.86-3.67,1.67.14,3.39,1.99,3.21,4.26-.18,2.27-2.19,3.8-3.85,3.66Z"/>
      <path class="cls-11" d="M123.17,139.98c-.07.82-.91,1.42-1.86,1.34-.96-.08-1.68-.81-1.62-1.63.07-.82.9-1.42,1.86-1.34.96.08,1.69.81,1.62,1.63Z"/>
      <path class="cls-11" d="M128.54,144.71c-.04.41-.45.71-.93.67-.48-.04-.84-.41-.81-.81.03-.41.45-.71.93-.67.48.04.85.4.81.81Z"/>
      <path class="cls-1" d="M150.99,193.56c-.3-.05-.57-.11-.82-.16.28.06.55.11.82.16Z"/>
      <path class="cls-1" d="M149.86,193.33c-.19-.04-.37-.08-.49-.11.16.04.33.07.49.11Z"/>
      <path class="cls-20" d="M150.17,193.4c-.1-.02-.21-.04-.31-.07.1.02.19.04.31.07Z"/>
      <path class="cls-20" d="M149.37,193.22c-.1-.02-.18-.05-.28-.08h-.01s.11.03.29.08Z"/>
      <path class="cls-1" d="M150.67,193c-.32-.06-.62-.11-.87-.17.3.06.58.12.87.17Z"/>
      <path class="cls-1" d="M149.46,192.76c-.2-.05-.4-.09-.53-.12.18.05.35.08.53.12Z"/>
      <path class="cls-12" d="M149.79,192.83c-.11-.02-.22-.05-.33-.07.11.02.21.05.33.07Z"/>
      <path class="cls-12" d="M148.93,192.63c-.1-.03-.2-.06-.3-.08h-.01s.11.04.31.08Z"/>
      <path class="cls-1" d="M150.42,192.15c-.32-.06-.62-.11-.88-.17.3.06.59.12.88.17Z"/>
      <path class="cls-1" d="M149.21,191.91c-.2-.05-.4-.09-.53-.12.18.05.35.08.53.12Z"/>
      <path class="cls-12" d="M149.55,191.98c-.11-.02-.22-.05-.33-.07.11.02.21.04.33.07Z"/>
      <path class="cls-12" d="M148.68,191.79c-.1-.03-.2-.06-.3-.08h-.01s.11.04.31.08Z"/>
      <path class="cls-1" d="M151.16,192.03c-.31-.05-.6-.11-.85-.16.29.06.57.12.85.16Z"/>
      <path class="cls-1" d="M149.99,191.8c-.19-.04-.39-.09-.51-.12.17.04.34.08.51.12Z"/>
      <path class="cls-12" d="M150.32,191.86c-.11-.02-.22-.04-.32-.07.11.02.2.04.32.07Z"/>
      <path class="cls-12" d="M149.48,191.68c-.1-.03-.19-.05-.29-.08h-.01s.11.03.3.08Z"/>
      <path class="cls-11" d="M199.9,130.39s-4.91,20.25-13.33,21.9c-8.43,1.65-17.55-1.63-17.55-1.63,0,0-.87-23.8,3.44-26.91,4.31-3.12,14.25-7.64,27.44,6.64Z"/>
      <path class="cls-21" d="M169,150.6s.19.06.63.24c.11-7.3.78-17.33,3.47-19.25,4.01-2.95,13.05-7.1,25.14,4.25,1.1-3.14,1.65-5.52,1.65-5.52-13.21-14.3-23.16-9.8-27.44-6.67-4.32,3.12-3.45,26.94-3.45,26.94Z"/>
      <path class="cls-22" d="M173.99,140.29c0,4.61,3.71,8.34,8.29,8.34s8.29-3.73,8.29-8.34-3.71-8.34-8.29-8.34-8.29,3.73-8.29,8.34Z"/>
      <path class="cls-7" d="M182.67,145.84c2.4-.2,4.23-2.63,4.02-5.3-.21-2.67-2.42-4.76-4.82-4.56-2.39.2-4.23,2.63-4.02,5.3.22,2.67,2.43,4.77,4.82,4.57Z"/>
      <path class="cls-6" d="M182.46,144.88c1.67-.14,3.4-1.98,3.21-4.25-.19-2.27-2.19-3.81-3.86-3.67-1.67.14-3.39,1.99-3.21,4.26.18,2.27,2.19,3.8,3.85,3.66Z"/>
      <path class="cls-11" d="M183.82,139.29c.07.82.91,1.42,1.86,1.34.96-.08,1.68-.81,1.62-1.63-.07-.82-.9-1.42-1.86-1.34-.96.08-1.69.81-1.62,1.63Z"/>
      <path class="cls-11" d="M178.44,144.03c.04.41.45.71.93.67.48-.04.84-.41.81-.81-.03-.41-.45-.71-.93-.67-.48.04-.85.4-.81.81Z"/>
      <g>
        <path class="cls-17" d="M143.03,130.76c-.06-.1-1.59-2.44-4.72-4.85-1.96-1.51-3.88-2.66-5.87-3.52-2.42-1.02-5.03-1.75-7.55-2.09-2.28-.25-4.81-.19-7.77.21-2.25.43-4.45,1.11-6.32,1.93-1.33.46-2.38,1.11-3.23,1.63-.32.2-.62.38-.91.54l-4.03,2.55,4.64-1.1c.22-.06.45-.12.7-.18.96-.26,2.15-.57,3.55-.78.33-.05.66-.11,1-.18.58-.12,1.19-.24,1.82-.27.7-.05,1.43-.1,2.18-.15l.97-.07c2.57-.03,4.74.16,6.67.61,2.11.37,4.27,1.05,6.26,1.97,1.87.9,3.67,1.8,5.08,2.83,2.83,1.9,4.41,3.49,4.43,3.5h0c.39.39.91.6,1.43.6.38,0,.76-.11,1.1-.33.93-.61,1.2-1.88.6-2.79l-.04-.06Z"/>
        <path class="cls-17" d="M200.72,124.6c-.27-.14-.56-.32-.88-.52-.84-.52-1.9-1.17-3.19-1.61-1.91-.84-4.1-1.52-6.39-1.95-2.93-.4-5.46-.46-7.75-.21-2.51.35-5.12,1.07-7.54,2.09-1.96.84-3.94,2.03-5.87,3.52-3.07,2.37-4.6,4.66-4.71,4.84l-.03.04c-.52.8-.41,1.88.26,2.55.38.39.89.6,1.43.6h0c.54,0,1.05-.21,1.43-.6l.02-.02c.15-.15,1.68-1.65,4.43-3.5,1.38-1.02,3.18-1.92,5.05-2.82,1.99-.93,4.16-1.61,6.29-1.98,1.9-.44,4.07-.63,6.61-.61l1.02.07c.74.05,1.46.11,2.17.15.62.03,1.23.15,1.81.27.34.07.67.13,1,.18,1.4.21,2.6.53,3.56.78.25.07.48.13.71.19l4.64,1.1-4.06-2.57Z"/>
      </g>
      <path class="cls-1" d="M149.57,195.96c-.31-.05-.6-.11-.85-.16.29.06.57.12.85.16Z"/>
      <path class="cls-1" d="M148.39,195.73c-.2-.04-.39-.09-.52-.12.17.05.34.08.52.12Z"/>
      <path class="cls-18" d="M148.71,195.8c-.11-.02-.22-.04-.33-.07.11.02.2.04.33.07Z"/>
      <path class="cls-18" d="M147.87,195.61c-.1-.03-.19-.05-.29-.08h-.01s.11.04.3.08Z"/>
      <path class="cls-14" d="M141.35,199.97c-.24-3.26,9.02.68,12.06.78,2.43.08,9.71-.48,10.39-.74,5.09-1.92-.28,5.44-10.54,5.83-4.7.19-11.77-3.89-11.91-5.87Z"/>
      <path class="cls-3" d="M171.5,193.7c-2.51-.12-5.09,1.98-8.12,1.66-.12-.06-.18-.06-.31-.06-.69-.12-1.38,0-2.14.19-.94.2-1.89.58-2.77.89-1.51.49-3.21.89-4.97.75h0s-.06,0-.1,0-.06.01-.1.01h0c-1.75.12-3.45-.27-4.97-.77-.88-.31-1.83-.69-2.77-.89-.76-.19-1.44-.31-2.14-.19-.13,0-.19,0-.31.06-3.02.32-5.6-1.78-8.12-1.66-.69.06-1.7-.12-2.27-.12.12.06.25.12.38.19,7.17,3.51,13.35,10.09,20.2,9.88h.2c6.85.21,13.03-6.37,20.2-9.88.13-.06.26-.12.38-.19-.57,0-1.57.19-2.27.12Z"/>
      <path class="cls-19" d="M173.6,193.5h0s-7.29-2.82-12.47-1.17c0,0-1.93.76-3.93,1.22-1.22.48-2.69.61-4.11.56h0c-1.09-.04-2.13-.18-2.98-.33-.28-.04-.56-.1-.85-.16-.12-.03-.22-.05-.33-.07-.18-.04-.35-.07-.52-.12-.19-.05-.3-.08-.3-.08h.01c-1.66-.46-3.08-1.01-3.08-1.01-5.18-1.66-12.47,1.17-12.47,1.17h0c-.1.05-.16.08-.16.08.57,0,1.57.19,2.27.12,2.51-.12,5.1,1.98,8.12,1.66.12-.06.18-.06.31-.06.69-.12,1.38,0,2.14.19.94.2,1.89.58,2.77.89,1.51.49,3.21.89,4.97.75h0s.06,0,.1,0,.06.01.1.01h0c1.75.12,3.45-.27,4.97-.77.88-.31,1.83-.69,2.77-.89.76-.19,1.44-.31,2.14-.19.13,0,.19,0,.31.06,3.02.32,5.6-1.78,8.12-1.66.69.06,1.7-.12,2.27-.12,0,0-.06-.03-.16-.08Z"/>
      <path class="cls-19" d="M140.85,195.22c.13.03,13.65,4.17,24.23.09l-1.22-.82h-14.29l-8.72.73Z"/>
      <path class="cls-9" d="M206.94,291.15c.1,3.98.25,7.18.39,9.49h-104.64c.33-5.2.68-14.73.51-27.6h-8.41c.66-2.64,1.42-5.12,2.24-7.41,7.18-19.62,19.87-26.82,26.89-29.37-.02.21-.02.43-.02.64,0,11.34,13.46,20.54,30.04,20.54s30.04-9.2,30.04-20.54c0-.25,0-.5-.02-.72.35.12.7.27,1.07.41,7.16,2.81,19.18,10.19,26.07,29.04.84,2.29,1.6,4.76,2.26,7.41h-6.52c-.1,7.12-.04,13.2.1,18.11Z"/>
      <path class="cls-16" d="M171.01,216.25c-10.5.66-13.13-7.9-13.13-7.9-.97-2.92-2.74-3.85-4.6-3.88h0s-.03,0-.04,0c-.01,0-.03,0-.04,0h0c-1.85.03-3.63.97-4.6,3.89,0,0-2.63,8.56-13.13,7.9,0,0,6.79,8.41,17.73,8.67h0s.03,0,.04,0c.01,0,.03,0,.04,0h0c10.94-.26,17.73-8.67,17.73-8.67Z"/>
      <path class="cls-24" d="M246.07,72.36c-.22.57-.67,1.12-1.27,1.65.84-.99,1.27-1.65,1.27-1.65-1.37.88-2.68,1.63-3.95,2.31-23.9,12.73-30.56-9.63-30.56-9.63,2.49-21.08,28.15-20.78,28.15-20.78,0,0-21.81-10.54-30.22,10.12-1.12-11.12,4.92-21.92,4.92-21.92-9.73,2.07-13.82,9.95-15.54,16.67-6.01-11.55.21-20.13.21-20.13l-33.39,13.28c4.34-3.45,11.11-9.82,11.11-9.82,0,0-10.36,1.06-26.35,5.6-11.25,3.19-17.98,8.86-21.76,11.46l-.1-9.41s-16.35,11.25-31.84,26.02c-15.47,14.76-21.41,28.64-21.41,44.26s6.94,31.25,11.49,35.89c4.55,4.65,3.09,11.38,4.45,11.38,0,0,3.28.12,2.79-15.26,1.8-17.47,9.85-24.45,14.34-27.02,7.91-4.17,19.84-4.92,37.68,4.13v-.03c11.01,6.41,15.44-2.09,31-6.39,26.53-7.32,37.54,11.89,35.31,21.8-3.42,15.26,1.34,24.05,3.16,23.64,0,0,.08-3.88,1.72-7.33,4.9-10.29,9.01-3.14,9.77-17.09.88-16.34,3.75-22.31,2.83-31.04-.52-4.93-2.29-10.8-3.69-14.91,17.82-.29,19.87-15.78,19.87-15.78Z"/>
      <path class="cls-10" d="M183.98,236.9c0,11.34-13.46,20.54-30.04,20.54s-30.04-9.2-30.04-20.54c0-.21,0-.43.02-.64.53-.21,1.05-.37,1.52-.52,2.12-.66,3.44-.83,3.44-.83.25,0,.43-.02.66-.06,4.61,6.23,13.17,15.18,24.4,15.41,2.49.06,5.1-.31,7.82-1.22,5.66-1.92,11.83-6.19,18.37-13.96h.02c.82.17,2.14.5,3.81,1.09.02.23.02.47.02.72Z"/>
    </g>
  </g>
</svg>