<?xml version="1.0" encoding="UTF-8"?>
<svg id="Layer_2" data-name="Layer 2" xmlns="http://www.w3.org/2000/svg" viewBox="0 0 78.88 78.88">
  <defs>
    <style>
      .cls-1 {
        fill: none;
      }

      .cls-2 {
        fill: #48443b;
        opacity: .3;
      }

      .cls-3 {
        fill: #d0665f;
      }

      .cls-4 {
        fill: #debaad;
      }

      .cls-5 {
        fill: #212625;
      }

      .cls-6 {
        fill: #2e6134;
      }

      .cls-7 {
        fill: #dcb9ac;
      }

      .cls-8 {
        fill: #42883a;
      }

      .cls-9 {
        fill: #f1d4c8;
      }

      .cls-10 {
        fill: #b59376;
      }

      .cls-11 {
        fill: #fff;
      }

      .cls-12 {
        fill: #8061a0;
      }

      .cls-13 {
        fill: #c6a095;
      }

      .cls-14 {
        fill: #502c24;
        opacity: .2;
      }

      .cls-15 {
        fill: #633031;
      }

      .cls-16 {
        fill: #f0d4c7;
      }

      .cls-17 {
        fill: #9abc30;
      }
    </style>
  </defs>
  <g id="Layer_1-2" data-name="Layer 1">
    <g>
      <rect class="cls-3" width="78.88" height="78.88"/>
      <path class="cls-16" d="M40.25,69.12c2.68,0,5.09-1.21,6.74-3.12.84-.97,1.48-2.13,1.87-3.4-.02-.03-.05-.04-.07-.06,0-.01,0-.02-.01-.04-.09-.35-1.13-1.85-1.49-3.51h0s-.01-.02-.01-.04c0,0-.01,0-.01-.01-.04-.17-.07-.34-.1-.5-.03-.16-.03-.32-.04-.5-.03-.84-.05-1.65-.08-2.3,0-.21-.01-.41-.01-.59,0-.04-.01-.09,0-.12v-.14s-.01-.04,0-.06c-.01-.1-.01-.19-.01-.26-.01-.15-.01-.24-.01-.24,0,0,5.65-4.23,5.65-5.15,0,0-6.13.94-9.97,1.35h-.01s-.1.01-.15.01c-.62.07-1.18.14-1.63.16-.01,0-.04,0-.04.01-.2.01-.39.01-.53.03-.06.01-.12,0-.19,0-.11.01-.21.01-.32-.01-.14,0-.3-.01-.47-.03-.27-.02-.57-.05-.91-.07-.07-.01-.11-.01-.12-.01-.22-.03-.46-.06-.72-.09-.08-.01-.15-.01-.22-.03-3.85-.42-9.78-1.33-9.78-1.33,0,.92,5.67,5.15,5.67,5.15,0,0,0,.09-.01.24,0,.14,0,.32-.01.55v.07c0,.09-.01.17-.01.27-.01.09-.01.19-.01.29,0,.24-.01.48-.02.76,0,.47-.03,1.01-.04,1.54-.03.33-.06.66-.15,1-.01.02-.03.04-.04.06-.33,1.45-1.16,2.78-1.4,3.31.37,1.38,1.05,2.63,1.95,3.67,1.65,1.91,4.05,3.12,6.74,3.12Z"/>
      <g>
        <path class="cls-9" d="M51.71,39.55c.02-2.17,1.38-4.07,3.43-5.16-.04.54-.08,1.07-.13,1.59,1.28-2.37,5-1.6,4.67,2.16-.33,3.62-5.61,5.45-5.54,5.03-.05.29-.12.57-.19.85-1.39-1.14-2.25-2.72-2.24-4.47Z"/>
        <path class="cls-4" d="M58.52,36.53c-.9-1.46-2.3-.85-2.65-.53-.37.34-.66.8-.44,1.66.12.48.63.53.5,1.26-.14.82-.53.88-.74,1.06-.22.18-.49.32-.63.68-.13.35-.16.72-.09,1.03.14.6,1.01.13,1.59-.13.38-.17,1.61-1.19,1.92-1.53.78-.87,1.15-2.54.55-3.52"/>
      </g>
      <g>
        <path class="cls-9" d="M28.28,39.55c-.02-2.17-1.38-4.07-3.43-5.16.04.54.08,1.07.13,1.59-1.28-2.37-5-1.6-4.67,2.16.33,3.62,5.61,5.45,5.54,5.03.06.29.12.57.19.85,1.39-1.14,2.25-2.72,2.24-4.47Z"/>
        <path class="cls-4" d="M21.47,36.53c.9-1.46,2.3-.85,2.65-.53.37.34.66.8.44,1.66-.12.48-.63.53-.5,1.26.14.82.53.88.74,1.06.22.18.49.32.63.68.13.35.16.72.09,1.03-.14.6-1.01.13-1.59-.13-.38-.17-1.61-1.19-1.92-1.53-.78-.87-1.15-2.54-.55-3.52"/>
      </g>
      <path class="cls-13" d="M47.27,58.95c-.08-.34-.13-.66-.14-1-.04-1.12.16-2.61.14-3.31-2.13.83-4.55,1.74-6.7,1.74-.13.02-.29.02-.43.02s-.31,0-.44-.02c-2.14,0-4.34-.49-6.47-1.32-.01.7-.04,1.77-.08,2.88-.02.34-.06.66-.14,1,2.06,1.5,4.85,3.06,6.7,3.06.12.02.26.02.39.02h0s.03,0,.05,0c.02,0,.03,0,.05,0h0c.13,0,.27,0,.39-.03,1.85,0,4.64-1.55,6.7-3.06Z"/>
      <path class="cls-16" d="M57.39,28.97c-.01.12-.01.26-.02.41-.03.15-.04.31-.05.47-.02.21-.04.42-.07.62-.01.1-.03.21-.04.31-.04.25-.09.47-.12.72-.01.1-.04.2-.05.3-.05.21-.09.42-.15.63-.02.12-.06.26-.09.42-.04.11-.06.25-.1.36-.16.59-1.5,7.53-2.47,12.05-.4,1.88-.73,3.33-.89,3.74-.91,2.29-6.83,6.5-10.64,8.29-.01.01-.04.01-.05.02-1.08.52-2,.82-2.56.82h-.08c-.61-.01-1.49-.29-2.51-.75-.05-.04-.11-.06-.17-.09-3.92-1.77-9.78-6.02-10.69-8.3-.17-.44-.53-2.1-.94-4.19-.89-4.51-2.06-11.04-2.22-11.6-.04-.11-.06-.25-.1-.36-.02-.16-.06-.3-.09-.42-.06-.21-.1-.42-.15-.63-.01-.1-.04-.2-.05-.3-.04-.25-.09-.47-.12-.72-.01-.1-.02-.21-.04-.31-.04-.2-.05-.41-.08-.62-.01-.16-.02-.32-.05-.47-.01-.15-.01-.29-.03-.41-.16-3.26.53-6.56,2.66-9.55,2.57-3.61,5.52-7.43,11.94-7.96h5.41c6.42.52,9.37,4.35,11.94,7.96,2.12,2.98,2.82,6.29,2.66,9.55Z"/>
      <path class="cls-7" d="M37.27,46.79c-.06-1.16,2.13-.42,2.86-.39.57.03,2.31-.37,2.46-.26,1.02.69-1.08,2.08-2.49,2.08-.38,0-2.79-.72-2.82-1.43Z"/>
      <path class="cls-15" d="M35.93,34.91s-.54-.49-1.39-1.01c-.43-.27-.93-.53-1.49-.75-.28-.12-.57-.21-.87-.29-.29-.11-.6-.14-.91-.2-.31-.06-.62-.07-.92-.11-.31,0-.61,0-.9,0-.29.03-.58.06-.85.09-.27.03-.52.1-.76.14-.48.07-.87.21-1.15.27-.29.06-.45.1-.45.1,0,0,.14-.1.39-.29.26-.17.61-.45,1.09-.64.24-.1.49-.24.77-.31.28-.08.58-.17.89-.23.32-.03.64-.08.98-.09.33.03.68.02,1.01.08.33.08.67.13.99.26.33.1.63.25.93.41.3.14.56.35.82.51.24.19.48.37.67.58.8.77,1.15,1.5,1.15,1.5Z"/>
      <path class="cls-11" d="M27.93,36.67s1.34,2.67,3.4,2.95c2.05.28,4.24-.09,4.24-.09,0,0,.03-3.09-1.04-3.53-1.07-.44-3.51-1.1-6.6.67Z"/>
      <path class="cls-17" d="M33.82,37.55c-.09.94-.89,1.65-1.8,1.58-.91-.07-1.57-.88-1.49-1.82.09-.94.89-1.65,1.8-1.59.91.07,1.57.88,1.48,1.83Z"/>
      <path class="cls-8" d="M32.08,38.6c-.48-.04-.85-.54-.8-1.1.05-.56.51-1.01.99-.97.48.04.85.54.8,1.1-.05.56-.51,1.01-.99.97Z"/>
      <path class="cls-5" d="M32.13,38.39c-.34-.02-.68-.41-.64-.89.04-.48.46-.8.79-.78.34.02.68.41.64.89-.04.48-.45.8-.79.78Z"/>
      <path class="cls-2" d="M35.57,39.52s-.05,0-.15.02c-.08-.95-.32-2.26-.99-2.53-.99-.41-3.22-1.02-6.06.37-.29-.42-.44-.73-.44-.73,3.09-1.77,5.54-1.11,6.6-.67,1.07.44,1.04,3.54,1.04,3.54Z"/>
      <path class="cls-1" d="M27.93,36.67s1.35,2.67,3.4,2.95c2.06.27,4.24-.09,4.24-.09,0,0,.03-3.09-1.04-3.53-1.07-.44-3.51-1.09-6.6.67Z"/>
      <path class="cls-11" d="M31.87,37.22c-.02.17-.19.3-.38.29-.19-.01-.34-.17-.32-.34.02-.17.19-.3.38-.29.2.01.34.17.32.34Z"/>
      <path class="cls-11" d="M32.95,38.2c0,.09-.09.15-.19.14-.1,0-.17-.08-.16-.17,0-.08.09-.15.19-.14.1,0,.17.08.16.17Z"/>
      <path class="cls-15" d="M44.18,34.96s.35-.72,1.15-1.48c.19-.2.43-.38.67-.57.26-.16.52-.37.82-.51.29-.15.6-.31.92-.4.32-.13.66-.18.99-.25.34-.06.68-.05,1.01-.08.33,0,.66.06.97.09.31.06.61.15.89.23.28.07.53.21.77.31.48.19.83.47,1.09.63.25.18.39.28.39.28,0,0-.16-.04-.45-.1-.28-.06-.67-.2-1.15-.26-.24-.03-.49-.11-.76-.13-.27-.03-.55-.05-.85-.08-.29,0-.59,0-.9,0-.3.04-.61.04-.92.1-.3.06-.62.09-.91.2-.3.08-.59.17-.87.29-.56.22-1.06.48-1.49.74-.86.52-1.4,1-1.4,1Z"/>
      <path class="cls-11" d="M52.08,36.83s-1.3,2.62-3.35,2.86c-2.05.24-4.24-.15-4.24-.15,0,0-.08-3.05.98-3.47,1.06-.42,3.5-1.03,6.61.76Z"/>
      <path class="cls-1" d="M52.08,36.83s-1.3,2.62-3.35,2.86c-2.05.24-4.24-.15-4.24-.15,0,0-.08-3.05.98-3.47,1.06-.42,3.5-1.03,6.61.76Z"/>
      <path class="cls-17" d="M46.37,37.52c.09.93.89,1.63,1.8,1.56.91-.07,1.57-.87,1.49-1.8-.09-.93-.89-1.63-1.8-1.57-.91.07-1.57.87-1.49,1.8Z"/>
      <path class="cls-6" d="M48.11,38.55c.48-.03.85-.53.8-1.09-.05-.56-.51-1-.99-.96-.48.03-.85.53-.8,1.09.05.56.51,1,.99.96Z"/>
      <path class="cls-5" d="M48.06,38.35c.34-.02.68-.4.64-.87-.04-.47-.46-.79-.79-.77-.34.02-.68.4-.64.87.04.47.46.79.79.77Z"/>
      <path class="cls-2" d="M44.49,39.53s.05,0,.15.03c.07-.94.28-2.23.95-2.48.99-.39,3.2-.96,6.07.46.28-.41.43-.71.43-.71-3.12-1.79-5.56-1.18-6.61-.76-1.06.42-.98,3.47-.98,3.47Z"/>
      <path class="cls-11" d="M47.72,37.2c-.02.17-.19.3-.38.28-.19-.01-.34-.17-.32-.33.02-.17.19-.3.38-.28.19.01.34.16.32.33Z"/>
      <path class="cls-11" d="M48.8,38.17c0,.08-.09.15-.19.14-.1,0-.17-.08-.16-.17,0-.08.09-.15.19-.14.1,0,.17.08.16.17Z"/>
      <path class="cls-7" d="M43.87,52.37c-.54-.03-1.1-.15-1.76-.22-.03-.01-.04-.01-.07-.01-.15-.03-.3,0-.46.04-.2.04-.41.13-.6.19-.33.11-.7.19-1.08.16h0s-.01,0-.02,0-.01,0-.02,0h0c-.38.03-.75-.06-1.08-.17-.19-.07-.4-.15-.6-.19-.16-.04-.31-.07-.46-.04-.03,0-.04,0-.07.01-.65.07-1.21.19-1.76.22-.15.01-.37-.03-.49-.03.03.01.05.03.08.04,1.55.76,2.89,1.6,4.37,1.55h.04c1.48.05,2.82-.8,4.37-1.55.03-.01.06-.03.08-.04-.12,0-.34.04-.49.03Z"/>
      <path class="cls-1" d="M39.24,51.81c-.07-.01-.13-.02-.18-.04.06.01.12.03.18.04Z"/>
      <path class="cls-1" d="M38.98,51.76s-.08-.02-.11-.03c.04,0,.07.02.11.03Z"/>
      <path class="cls-14" d="M44.33,52.32h0s-1.58-1.19-2.7-.83c0,0-.42.16-.85.26-.26.1-.58.13-.89.12h0c-.24,0-.46-.04-.65-.07-.06,0-.12-.02-.18-.04-.03,0-.05-.01-.07-.02-.04,0-.07-.02-.11-.03-.04-.01-.06-.02-.06-.02h0c-.36-.1-.67-.22-.67-.22-1.12-.36-2.7.83-2.7.83h0s-.04.02-.04.02c.12,0,.34.04.49.03.54-.03,1.1-.15,1.76-.22.03-.01.04-.01.07-.01.15-.03.3,0,.46.04.2.04.41.13.6.19.33.11.7.19,1.08.16h0s.01,0,.02,0,.01,0,.02,0h0c.38.03.75-.06,1.08-.17.19-.07.4-.15.6-.19.16-.04.31-.07.46-.04.03,0,.04,0,.07.01.65.07,1.21.19,1.76.22.15.01.37-.03.49-.03,0,0-.01,0-.03-.02Z"/>
      <path class="cls-10" d="M39.05,51.77s-.05,0-.07-.02c.02,0,.04,0,.07.02Z"/>
      <path class="cls-10" d="M38.87,51.73s-.04-.01-.06-.02h0s.02,0,.06.02Z"/>
      <path class="cls-12" d="M64.92,78.33s-.1-5.99-.38-6.51c-.52-2.09.43-3.05-3.27-5.06-.05-.01-.84-.24-2.05-.59-2.39-.69-6.26-1.83-8.54-2.69-.14.89-.44,1.73-.88,2.52-1.68,2.99-5.34,5.07-9.59,5.07s-7.91-2.08-9.59-5.07c-.45-.79-.75-1.65-.89-2.55-2.27.86-6.28,2.04-8.69,2.73-1.19.35-2,.57-2.05.59-3.67,2.01-2.74,2.97-3.26,5.06-.27.52-.38,6.51-.38,6.51,0,.17-.01.36-.01.55h49.61c-.01-.19-.01-.37-.01-.55Z"/>
      <path class="cls-11" d="M40.21,71.07c4.25,0,7.91-2.08,9.59-5.07.44-.78.74-1.63.88-2.52-.47-.18-.88-.34-1.19-.49h-.01c-.06-.03-.1-.05-.16-.08-.17-.09-.3-.16-.38-.24,0-.01-.05-.05-.08-.09h0c-.38,1.27-1.03,2.43-1.87,3.4-1.65,1.91-4.05,3.12-6.74,3.12s-5.09-1.21-6.74-3.12c-.9-1.04-1.58-2.29-1.95-3.67-.03.07-.06.13-.06.17-.03.04-.08.06-.1.1-.02.04-.07.07-.09.09-.02.04-.06.06-.12.1,0,0-.01,0-.01.01-.24.15-.65.32-1.14.53h-.03c-.09.05-.19.08-.28.12.14.9.44,1.76.89,2.55,1.68,2.99,5.34,5.07,9.59,5.07Z"/>
      <path class="cls-15" d="M45.25,6.07l2.32,1.2c-4.92-1.49-9.98-.45-12.31.2-.85.18-1.32.42-1.32.42.21,0,.42,0,.62.01.71.04,1.86.19,2.54.7-1.02-.41-2.78-.56-5.74.57-.41.16-.79.33-1.15.5-1.26.54-3.77,1.61-8.61,3.65,0,0,1.59.61,3.49.82-.91,1.05-1.85,1.95-3.42,2.42-4.11,1.25-5.3-.35-5.3-.35,0,0,1.78,2.8,4.95,2.81.51,0,.56,0,.57-.01,0,.01-1.19,3-1.41,5.24-.23,2.29.49,3.85.72,8.13.06,1.19.22,1.8.44,2.16.46.76,1.2.5,2.04,2.31.42.9.44,1.92.44,1.92,0,0,0,0,.02.01l-.06.16s-.2,5.95,1.5,8.65h0c1.24,3.08,3.68,6.29,8.34,8.65v-.14s.04.1.06.14c.09.25.27.5.53.71.25.26.53.45.82.55,1.15.57,2.89.93,4.86.95h.04c1.95-.02,3.71-.39,4.86-.95.31-.1.57-.29.82-.55.26-.21.46-.46.54-.71,7.18-3.86,8.76-10.02,8.92-14.19l.02-.02s-.06-3.83,1.51-6.62c.21-.25.44-.59.68-1.01,0,0,0,0,0,0,.1-.35.28-.7.55-1.12.83-1.87,1.55-4.49,1.55-7.12,1.23-20.08-14.42-20.09-14.42-20.09ZM45,55.87c-.42.18-.9.37-1.45.49.02-.08.04-.17.04-.29,0-.54-.44-.99-.99-.99h-4.8c-.54,0-.99.46-.99.99,0,.12.01.2.04.29-.55-.12-1.03-.31-1.45-.49-.26-.6-.4-1.29-.4-2.01,0-.22.01-.4.03-.6.76-.79,1.87-1.41,3.17-1.73.41.22,1.01.36,1.68.36.77,0,1.45-.18,1.86-.46,1.49.28,2.77.95,3.63,1.83.02.2.04.39.04.6,0,.72-.17,1.41-.41,2.01ZM53.43,44.03c-2.51,5.06-7.15,7.21-7.15,7.21-.01,0-.14-.1-.4-.31-.28-.21-.67-.5-1.19-.79-.58-.35-1.29-.85-2.13-1.16-.25-.08-.52-.14-.78-.21-.41-.06-.98-.08-1.57-.08h-.04c-.61,0-1.18.02-1.57.08-.27.06-.52.13-.79.21-.84.31-1.54.81-2.11,1.16-.51.29-.92.57-1.19.79-.25.21-.4.31-.4.31-.02.03-.03.08-.05.11v-.11s-8.57-3.72-9.23-12.92c.21-.5.4-1.46.42-3.3,0,0-3.07-20.01,10.79-16.9l-.12-.21c1.18.22,2.38.51,3.57.81,2.59.66,5.19,1.73,7.62,3.39,3.12,2.14,7.15,4.86,7.99,9.73-.09.49-.13,1.32-.16,2.23-.02.36-.03.7-.03,1,0,.39,0,.72.02,1.02,0,.9.02,1.67.03,2.02-.12,2.11-.61,3.94-1.33,5.51-.06.14-.13.28-.2.42Z"/>
      <path class="cls-11" d="M55.71,74.48h-4.98c-.94,0-1.7-.77-1.7-1.7h0c0-.94.77-1.7,1.7-1.7h4.98c.94,0,1.7.77,1.7,1.7h0c0,.94-.77,1.7-1.7,1.7Z"/>
    </g>
  </g>
</svg>