<?xml version="1.0" encoding="UTF-8"?>
<svg id="Layer_2" data-name="Layer 2" xmlns="http://www.w3.org/2000/svg" xmlns:xlink="http://www.w3.org/1999/xlink" viewBox="0 0 296.87 299.7">
  <defs>
    <style>
      .cls-1 {
        fill: none;
      }

      .cls-2 {
        fill: #43331b;
      }

      .cls-3 {
        fill: #b5977b;
      }

      .cls-4 {
        fill: #74a1a6;
      }

      .cls-5 {
        fill: #d7be9a;
      }

      .cls-6 {
        fill: #3d2520;
      }

      .cls-7 {
        fill: #5b3a38;
      }

      .cls-8 {
        fill: #282211;
      }

      .cls-9 {
        fill: #71391e;
      }

      .cls-10 {
        fill: #a4876f;
      }

      .cls-11 {
        fill: #a11723;
      }

      .cls-12 {
        fill: #fff;
      }

      .cls-13 {
        fill: #b19076;
      }

      .cls-14 {
        fill: #e8d2ae;
      }

      .cls-15 {
        fill: #e9d3af;
      }

      .cls-16 {
        fill: #ab5c66;
      }

      .cls-17 {
        fill: #171500;
      }

      .cls-18 {
        fill: #b39176;
      }

      .cls-19 {
        fill: #af8f76;
      }

      .cls-20 {
        fill: #ceb495;
      }

      .cls-21 {
        fill: #d2b596;
      }

      .cls-22 {
        fill: #452a16;
      }

      .cls-23 {
        fill: #d3b697;
      }

      .cls-24 {
        fill: #42403b;
      }

      .cls-25 {
        fill: #c7a784;
      }

      .cls-26 {
        clip-path: url(#clippath);
      }

      .cls-27 {
        fill: #bf6c6e;
      }
    </style>
    <clipPath id="clippath">
      <rect class="cls-1" x="136.94" y="207.81" width="33.65" height="19.84"/>
    </clipPath>
  </defs>
  <g id="RÈteg_1" data-name="RÈteg 1">
    <g>
      <rect class="cls-11" width="296.87" height="299.7"/>
      <path class="cls-5" d="M153.64,187.44v112.25h-60.74c-.99-.39-1.48-.6-1.48-.6,0-7.16.53-13.56,1.46-19.22.43-2.61.95-5.08,1.54-7.39.66-2.74,1.44-5.27,2.3-7.61.19-.47.35-.95.53-1.4.21-.51.41-1.01.62-1.5.21-.49.41-.97.64-1.44.41-.97.86-1.87,1.32-2.76.78-1.52,1.6-2.96,2.47-4.3.23-.37.45-.72.68-1.05,1.11-1.65,2.26-3.17,3.44-4.55.33-.37.66-.76.99-1.11.33-.37.66-.72.99-1.07.33-.33.68-.68,1.01-.99.33-.33.66-.64.99-.93.66-.62,1.34-1.19,2-1.71,3.23-2.59,6.34-4.34,8.97-5.49.33-.14.66-.29.99-.43,1.03-.41,1.95-.74,2.78-.99,2.14-.68,3.46-.82,3.46-.82.25,0,.45-.02.68-.06,1.91-.31,3.46-1.98,4.71-4.61.93-1.98,1.69-4.49,2.32-7.39.25-1.15.45-2.28.64-3.52.31-2.08.6-4.26.84-6.52.1-1.38.25-2.72.39-4.16.56-6.87.7-14.38.7-21.5,0,0,8.15.84,14.77.84Z"/>
      <path class="cls-14" d="M216.1,299.1s-.53.21-1.44.6h-61.02v-112.25h.14c6.58,0,14.83-.84,14.83-.84,0,7.06.14,14.48.68,21.36.16,1.34.31,2.72.41,4.05.25,2.37.53,4.59.88,6.67v.04c.1.95.29,1.79.45,2.67.6,2.92,1.32,5.49,2.2,7.55,1.09,2.57,2.41,4.36,4.03,5.06.49.23,1.05.35,1.63.35,0,0,2.32.27,5.82,1.65,1.85.72,4.03,1.75,6.36,3.21.47.29.97.62,1.44.95.39.25.78.53,1.17.82.33.25.7.51,1.03.78.72.56,1.46,1.17,2.2,1.85.29.25.56.51.84.78.33.29.64.6.97.95.23.21.43.41.64.64.43.45.88.95,1.32,1.46.23.25.45.49.66.76.99,1.15,1.95,2.41,2.88,3.79.41.58.78,1.17,1.17,1.79.78,1.26,1.54,2.59,2.28,4.01.91,1.77,1.77,3.66,2.57,5.7.19.45.37.93.53,1.4.86,2.35,1.65,4.88,2.32,7.61.6,2.3,1.11,4.77,1.52,7.39.93,5.66,1.46,12.06,1.46,19.22Z"/>
      <g class="cls-26">
        <path class="cls-3" d="M170.59,218.47v.05c-1.53,2.36-6.67,9.13-16.85,9.13h-.1c-9.64-.05-15.27-7.02-16.7-9.09.3-2.06.59-4.22.84-6.48.1-1.33.25-2.7.4-4.13,4.69,1.18,9.83,1.92,15.27,2.01h.2c5.63-.1,10.82-.88,15.66-2.16.15,1.33.3,2.7.4,4.03.25,2.36.54,4.57.89,6.63"/>
      </g>
      <path class="cls-25" d="M152.95,59.49c-64.34,0-64.68,53.78-61.82,88.99-4.4-8.35-17.49-5.8-16.4,7.37,1.04,12.67,19.75,19.13,19.22,17.73,9.74,26.04,35.53,45.68,59,45.68h.49V59.49h-.49"/>
      <path class="cls-10" d="M78.83,150.3c3.16-5.11,8.1-2.9,9.29-1.77,1.28,1.23,2.32,2.8,1.53,5.8-.44,1.72-2.22,1.87-1.83,4.42.49,2.9,1.83,3.04,2.62,3.73.74.64,1.68,1.13,2.12,2.36.49,1.23.54,2.5.3,3.63-.49,2.06-3.51.39-5.53-.49-1.33-.64-5.58-4.22-6.67-5.4-2.67-3.04-3.95-8.94-1.83-12.28"/>
      <path class="cls-23" d="M153.29,59.49c64.34,0,64.68,53.78,61.87,88.99,4.4-8.35,17.44-5.8,16.36,7.37-.99,12.67-19.73,19.13-19.22,17.73-9.49,26.04-35.53,45.68-59,45.68h-.35l-.15-159.77h.49"/>
      <path class="cls-10" d="M227.41,150.3c-3.16-5.11-8.05-2.9-9.29-1.77-1.28,1.23-2.27,2.8-1.53,5.8.44,1.72,2.22,1.87,1.83,4.42-.49,2.9-1.83,3.04-2.57,3.73-.74.64-1.73,1.13-2.17,2.36-.44,1.23-.54,2.5-.3,3.63.49,2.06,3.51.39,5.53-.49,1.38-.64,5.58-4.22,6.67-5.4,2.72-3.04,3.95-8.94,1.83-12.28"/>
      <path class="cls-5" d="M152.44,74.67c-21.15,0-36.66,6.14-46,18.22-13.09,16.94-12.6,42.78-7.81,61.34,1.48,5.7,2.27,20.97,3.26,26.57,4.6,25.1,32.32,38.46,50.55,38.46h.49V74.67h-.3"/>
      <path class="cls-14" d="M198.4,92.94c-9.29-12.03-24.61-18.17-45.46-18.27v144.59c20.85-.25,45.81-14.88,50.06-38.46,1.04-5.6,1.78-20.87,3.26-26.57,4.84-18.52,5.34-44.3-7.86-61.29"/>
      <path class="cls-1" d="M150.36,193.78c-.29-.05-.56-.1-.79-.15.27.06.53.11.79.15Z"/>
      <path class="cls-1" d="M149.26,193.56c-.18-.04-.36-.08-.48-.11.16.04.32.07.48.11Z"/>
      <path class="cls-13" d="M149.56,193.62c-.1-.02-.2-.04-.3-.06.1.02.19.04.3.06Z"/>
      <path class="cls-13" d="M148.78,193.45c-.09-.02-.18-.05-.27-.08h-.01s.1.03.28.08Z"/>
      <path class="cls-1" d="M95.26,119.74c-.58,1.92-.98,4.01-1.25,6.24,0,0,.85-3.52,2.72-8.74-.8,1.11-1.34,2.01-1.47,2.5Z"/>
      <path class="cls-2" d="M134.97,75.03l-.27.27.04.09c.09-.13.13-.27.22-.36Z"/>
      <path class="cls-1" d="M150.55,190.85c-.3-.05-.57-.11-.82-.16.28.06.55.11.82.16Z"/>
      <path class="cls-1" d="M149.42,190.63c-.19-.04-.37-.08-.49-.11.16.04.33.07.49.11Z"/>
      <path class="cls-19" d="M149.74,190.69c-.1-.02-.21-.04-.31-.07.1.02.19.04.31.07Z"/>
      <path class="cls-19" d="M148.93,190.51c-.1-.02-.18-.05-.28-.08h-.01s.11.03.29.08Z"/>
      <path class="cls-21" d="M140.36,174.73c-.25-5.13,9.43-1.87,12.62-1.71,2.52.13,10.19-1.62,10.85-1.17,4.51,3.04-4.78,9.17-11.01,9.17-1.66,0-12.31-3.19-12.46-6.29Z"/>
      <path class="cls-12" d="M106.78,131.1s4.91,20.14,13.34,21.78c8.43,1.64,17.55-1.62,17.55-1.62,0,0,.87-23.66-3.44-26.76-4.31-3.11-14.25-7.59-27.44,6.6Z"/>
      <path class="cls-20" d="M137.67,151.19s-.19.06-.63.24c-.11-7.26-.78-17.23-3.47-19.14-4.01-2.93-13.05-7.06-25.14,4.23-1.1-3.12-1.65-5.48-1.65-5.48,13.21-14.22,23.16-9.74,27.44-6.63,4.32,3.1,3.45,26.79,3.45,26.79Z"/>
      <circle class="cls-22" cx="124.39" cy="140.94" r="8.29" transform="translate(-44.47 58.33) rotate(-22.5)"/>
      <path class="cls-9" d="M124.01,146.46c-2.4-.2-4.23-2.61-4.02-5.27.21-2.66,2.42-4.74,4.82-4.53,2.4.2,4.23,2.61,4.02,5.27-.22,2.66-2.43,4.74-4.82,4.54Z"/>
      <path class="cls-8" d="M124.21,145.51c-1.67-.14-3.4-1.97-3.21-4.22.19-2.26,2.19-3.79,3.86-3.65,1.67.14,3.39,1.98,3.21,4.23-.18,2.26-2.19,3.78-3.85,3.64Z"/>
      <path class="cls-12" d="M122.86,139.95c-.07.81-.9,1.41-1.86,1.33-.96-.08-1.68-.81-1.62-1.62.07-.82.9-1.41,1.86-1.33.96.08,1.69.81,1.62,1.62Z"/>
      <path class="cls-12" d="M128.24,144.66c-.04.41-.45.7-.93.66-.48-.04-.84-.4-.81-.81.03-.4.45-.7.93-.66.48.04.85.4.81.81Z"/>
      <path class="cls-1" d="M150.68,193.22c-.3-.05-.57-.11-.82-.16.28.06.55.11.82.16Z"/>
      <path class="cls-1" d="M149.56,193c-.19-.04-.37-.08-.49-.11.16.04.33.07.49.11Z"/>
      <path class="cls-19" d="M149.87,193.07c-.1-.02-.21-.04-.31-.07.1.02.19.04.31.07Z"/>
      <path class="cls-19" d="M149.06,192.89c-.1-.02-.18-.05-.28-.08h-.01s.11.03.29.08Z"/>
      <path class="cls-1" d="M150.37,192.67c-.32-.06-.62-.11-.87-.17.3.06.59.12.87.17Z"/>
      <path class="cls-1" d="M149.16,192.43c-.2-.04-.4-.09-.53-.12.18.05.35.08.53.12Z"/>
      <path class="cls-13" d="M149.49,192.5c-.11-.02-.22-.05-.33-.07.11.02.21.04.33.07Z"/>
      <path class="cls-13" d="M148.63,192.3c-.1-.03-.2-.06-.3-.08h-.01s.11.04.31.08Z"/>
      <path class="cls-1" d="M150.12,191.82c-.32-.06-.62-.11-.88-.17.3.06.59.12.88.17Z"/>
      <path class="cls-1" d="M148.91,191.59c-.2-.05-.4-.09-.53-.12.18.05.35.08.53.12Z"/>
      <path class="cls-13" d="M149.24,191.66c-.11-.02-.22-.05-.33-.07.11.02.21.04.33.07Z"/>
      <path class="cls-13" d="M148.38,191.46c-.1-.03-.2-.06-.3-.08h-.01s.11.04.31.08Z"/>
      <path class="cls-1" d="M150.86,191.7c-.31-.05-.6-.11-.85-.16.29.06.57.12.85.16Z"/>
      <path class="cls-1" d="M149.69,191.47c-.19-.04-.39-.09-.51-.12.17.04.34.08.51.12Z"/>
      <path class="cls-13" d="M150.01,191.54c-.11-.02-.22-.04-.32-.07.11.02.2.04.32.07Z"/>
      <path class="cls-13" d="M149.18,191.35c-.1-.03-.19-.05-.29-.08h-.01s.11.03.3.08Z"/>
      <path class="cls-12" d="M199.59,130.42s-4.91,20.14-13.33,21.78c-8.43,1.64-17.55-1.62-17.55-1.62,0,0-.87-23.66,3.44-26.76,4.31-3.11,14.25-7.59,27.44,6.6Z"/>
      <path class="cls-20" d="M168.7,150.51s.19.06.63.24c.11-7.26.78-17.23,3.47-19.14,4.01-2.93,13.05-7.06,25.14,4.23,1.1-3.12,1.65-5.48,1.65-5.48-13.21-14.22-23.16-9.74-27.44-6.63-4.32,3.1-3.45,26.79-3.45,26.79Z"/>
      <path class="cls-22" d="M173.69,140.26c0,4.58,3.71,8.29,8.29,8.29s8.29-3.71,8.29-8.29-3.71-8.29-8.29-8.29-8.29,3.71-8.29,8.29Z"/>
      <path class="cls-9" d="M182.37,145.78c2.4-.2,4.23-2.61,4.02-5.27-.21-2.66-2.42-4.74-4.82-4.53-2.39.2-4.23,2.61-4.02,5.27.22,2.66,2.43,4.74,4.82,4.54Z"/>
      <path class="cls-8" d="M182.16,144.82c1.67-.14,3.4-1.97,3.21-4.22-.19-2.26-2.19-3.79-3.86-3.65-1.67.14-3.39,1.98-3.21,4.23.18,2.26,2.19,3.78,3.85,3.64Z"/>
      <path class="cls-12" d="M183.51,139.26c.07.81.9,1.41,1.86,1.33.96-.08,1.68-.81,1.62-1.62-.07-.82-.9-1.41-1.86-1.34-.96.08-1.69.81-1.62,1.62Z"/>
      <path class="cls-12" d="M178.13,143.97c.04.4.45.7.93.66.48-.04.84-.4.81-.81-.03-.4-.45-.7-.93-.66-.48.04-.85.4-.81.81Z"/>
      <g>
        <path class="cls-17" d="M142.72,130.78c-.06-.1-1.59-2.42-4.72-4.82-1.96-1.5-3.88-2.65-5.87-3.5-2.42-1.02-5.03-1.74-7.55-2.08-2.28-.25-4.81-.19-7.77.21-2.25.43-4.45,1.1-6.32,1.92-1.33.46-2.38,1.1-3.23,1.62-.32.2-.62.38-.91.54l-4.03,2.53,4.64-1.09c.22-.05.45-.12.7-.18.96-.25,2.15-.57,3.55-.78.33-.05.66-.11,1-.18.58-.12,1.19-.24,1.82-.27.7-.05,1.43-.1,2.18-.15l.97-.07c2.57-.03,4.74.16,6.67.61,2.11.36,4.27,1.04,6.26,1.96,1.87.9,3.67,1.79,5.08,2.82,2.83,1.89,4.41,3.47,4.43,3.48h0c.39.39.91.59,1.43.59.38,0,.76-.11,1.1-.33.93-.61,1.2-1.87.6-2.78l-.04-.06Z"/>
        <path class="cls-17" d="M200.42,124.65c-.27-.14-.56-.32-.88-.52-.84-.52-1.9-1.16-3.19-1.6-1.91-.84-4.1-1.51-6.39-1.94-2.93-.39-5.46-.46-7.75-.21-2.51.34-5.12,1.06-7.54,2.08-1.96.84-3.94,2.02-5.87,3.5-3.07,2.35-4.6,4.64-4.71,4.81l-.03.04c-.52.8-.41,1.87.26,2.54.38.38.89.6,1.43.6h0c.54,0,1.05-.21,1.43-.6l.02-.02c.15-.15,1.68-1.64,4.43-3.48,1.38-1.01,3.18-1.91,5.05-2.8,1.99-.92,4.16-1.6,6.29-1.97,1.9-.44,4.07-.63,6.61-.6l1.02.07c.74.05,1.46.1,2.17.15.62.03,1.23.15,1.81.27.34.07.67.13,1,.18,1.4.21,2.6.52,3.56.78.25.07.48.13.71.18l4.64,1.09-4.06-2.55Z"/>
      </g>
      <path class="cls-1" d="M147.7,200.25c-.3-.05-.57-.1-.81-.15.27.06.54.11.81.15Z"/>
      <path class="cls-1" d="M146.58,200.03c-.19-.04-.37-.08-.49-.11.16.04.33.07.49.11Z"/>
      <path class="cls-18" d="M146.89,200.09c-.1-.02-.21-.04-.31-.07.1.02.19.04.31.07Z"/>
      <path class="cls-18" d="M146.09,199.92c-.1-.02-.18-.05-.28-.08h-.01s.11.03.29.08Z"/>
      <path class="cls-1" d="M147.47,199.47c-.3-.05-.57-.1-.81-.15.27.06.54.11.81.15Z"/>
      <path class="cls-1" d="M146.35,199.25c-.19-.04-.37-.08-.49-.11.16.04.32.07.49.11Z"/>
      <path class="cls-18" d="M146.66,199.31c-.1-.02-.21-.04-.31-.07.1.02.19.04.31.07Z"/>
      <path class="cls-18" d="M145.86,199.13c-.1-.02-.18-.05-.28-.08h-.01s.11.03.29.08Z"/>
      <path class="cls-1" d="M148.16,199.36c-.29-.05-.55-.1-.78-.15.27.06.52.11.78.15Z"/>
      <path class="cls-1" d="M147.08,199.14c-.18-.04-.36-.08-.48-.11.16.04.31.07.48.11Z"/>
      <path class="cls-18" d="M147.38,199.21c-.1-.02-.2-.04-.3-.06.1.02.18.04.3.06Z"/>
      <path class="cls-18" d="M146.6,199.03c-.09-.02-.18-.05-.27-.07h0s.1.03.28.07Z"/>
      <g>
        <path class="cls-15" d="M140.64,201.6c-.24-3.2,8.91.67,11.92.76,2.4.08,9.6-.47,10.27-.73,5.04-1.88-.28,5.35-10.41,5.73-4.65.19-11.63-3.82-11.77-5.76Z"/>
        <path class="cls-16" d="M170.8,193.92c-5.8-1.09-18.03.07-18.03.07-10.08,1.67-17.97-.11-18.03-.04-.24.02,8.05,11.02,17.89,10.52h0c9.84.51,18.41-10.52,18.17-10.55Z"/>
        <path class="cls-27" d="M158.6,191.6c-2.61-.29-4.48,1.6-5.82,1.46-1.37.13-3.14-1.08-5.77-1.11-3.7-.04-5.51-.36-12.27,2.01.24.46,4.58,2.97,12.7,3.11.12,0,2.29,1.24,5.39,1.21,1.94-.01,4.6-1.31,4.7-1.31,8.13-.13,13.1-2.54,13.33-2.99-8.95-2.77-8.24-2.42-12.26-2.38Z"/>
      </g>
      <g>
        <path class="cls-24" d="M222.81,116.28c0,2.77-.31,7.29-.79,10.79-.27,2.23-.62,4.01-.97,4.74-.39.86-3.19,8.88-3.42,11.97-1.32,1.32-2.81,3.05-3.82,5.83-2.06,5.64-2.9,4.68-2.9,4.68,0,0,.66-4.47,1.41-9.92.44-4.6,1.05-11.43,1.54-17.31.05-.81.13-1.64.18-2.41-.92-4.74-9.52-27.47-50.41-25.33-6.58.32-13.25-2.23-18.42-4.96-5.35-2.79-9.08-5.73-9.43-5.73-1.8,0-18.16-3.15-27.77,4.27-.62.46-1.18.95-1.71,1.46-11.4,10.25-12.98,28.05-12.98,31.6,0,.32,0,.69.05,1.1.31,7.33-.48,27.31-.48,27.31,0,0-3.64,1.44-5.75-4.2-1.18-3.28,3.51-5.72,2.02-7.09-2.29-5-3.55-6.55-4.7-11.29-.3-1.32-1.27-2.6-2.28-4.74-2.19-4.47-4.69-12.71-2.05-32.69.13-.91.26-1.82.39-2.79,2.01-13.66,12.02-44.34,38.43-49.81,26.41-5.5,32.55-11.88,54.13-2.73,21.58,9.1,35.22,15.53,41.85,30.6,2.99,6.88,4.91,16.16,6.05,24.73,1.45,10.25,1.84,19.39,1.84,21.91Z"/>
        <g>
          <path class="cls-4" d="M94.69,153.25c2.16,18.33,3.71,32.55-5.13,33.42-8.84.88-17.76-13.27-19.92-31.6-2.15-18.33,3.27-33.9,12.11-34.79,8.85-.88,10.79,14.63,12.94,32.96Z"/>
          <path class="cls-24" d="M87.43,154.16c1.99,16.88,3.42,29.96-4.72,30.77-8.15.82-16.35-12.21-18.34-29.09-1.98-16.88,3.01-31.22,11.15-32.03,8.15-.82,9.93,13.47,11.92,30.35Z"/>
          <path class="cls-4" d="M207.1,153.25c-2.16,18.33-3.71,32.55,5.13,33.42,8.84.88,17.76-13.27,19.92-31.6,2.15-18.33-3.27-33.9-12.11-34.79-8.85-.88-10.79,14.63-12.94,32.96Z"/>
          <path class="cls-12" d="M214.28,46.01c-13.77-14.67-35.06-22.08-63.47-21.98-28.4-.09-49.7,7.31-63.47,21.98-16.59,17.7-20.76,44.57-12.09,77.66l5.26-1.05c-8.13-31.19-4.23-57.3,11-73.57,12.68-13.53,32.68-20.37,59.3-20.28,26.61-.09,46.61,6.75,59.29,20.28,15.24,16.28,19.14,42.39,11,73.57l5.26,1.05c8.67-33.09,4.5-59.96-12.09-77.66Z"/>
          <path class="cls-24" d="M214.36,154.16c-1.99,16.88-3.42,29.96,4.72,30.77,8.15.82,16.35-12.21,18.34-29.09,1.98-16.88-3.01-31.22-11.15-32.03-8.15-.82-9.93,13.47-11.92,30.35Z"/>
        </g>
      </g>
      <path class="cls-7" d="M111.25,239.37c-9.53,5.19-20.98,15.84-25.84,37.67,0,.03-.01.05-.02.08-.64,2.88,1.28,5.73,4.3,6.44l12.55,2.97v13.17h47.26v-40.58c-18.63-1.69-32.54-13.87-38.25-19.75Z"/>
      <path class="cls-6" d="M142.25,243.82l-16.09-9.31s-6.75.43-14.91,4.86c5.7,5.87,19.61,18.02,38.25,19.7v-12.61c-2.53-.45-4.99-1.32-7.25-2.64Z"/>
      <path class="cls-7" d="M222.37,277.09s0-.04-.01-.05c-2.81-13.13-9.7-28.72-26.06-37.37-13.5,12.82-26.28,18.26-37.7,19.42v40.62h46.65v-13.17l12.82-3.04c3-.71,4.92-3.53,4.3-6.41Z"/>
      <path class="cls-6" d="M181.28,234.45l-16.67,9.47c-1.9,1.08-3.93,1.84-6.01,2.32v12.79c11.42-1.15,24.21-6.58,37.7-19.37-4.31-2.27-9.28-4.07-15.01-5.21Z"/>
      <rect class="cls-4" x="149.47" y="275.82" width="9.12" height="23.88"/>
    </g>
  </g>
</svg>