<?xml version="1.0" encoding="UTF-8"?>
<svg xmlns="http://www.w3.org/2000/svg" xmlns:xlink="http://www.w3.org/1999/xlink" viewBox="0 0 299.36 299.7">
  <defs>
    <style>
      .cls-1 {
        fill: none;
      }

      .cls-2 {
        fill: #43331b;
      }

      .cls-3 {
        fill: #d6c09e;
      }

      .cls-4 {
        fill: #b5977b;
      }

      .cls-5 {
        fill: #d7be9a;
      }

      .cls-6 {
        fill: #282211;
      }

      .cls-7 {
        fill: #71391e;
      }

      .cls-8 {
        fill: #a4876f;
      }

      .cls-9 {
        fill: #baaac5;
      }

      .cls-10 {
        isolation: isolate;
      }

      .cls-11 {
        fill: #e4aa33;
      }

      .cls-12 {
        fill: #4a453c;
      }

      .cls-13 {
        fill: url(#linear-gradient-2);
      }

      .cls-13, .cls-14 {
        mix-blend-mode: multiply;
        opacity: .12;
      }

      .cls-15 {
        fill: #ebebea;
        opacity: .55;
      }

      .cls-16 {
        fill: #fff;
      }

      .cls-17 {
        fill: #b19076;
      }

      .cls-18 {
        fill: #e8d2ae;
      }

      .cls-19 {
        fill: #e9d3af;
      }

      .cls-20 {
        fill: #171500;
      }

      .cls-21 {
        fill: #20201b;
        opacity: .4;
      }

      .cls-22 {
        fill: #b39176;
      }

      .cls-23 {
        fill: #bc9e80;
      }

      .cls-24 {
        fill: #af8f76;
      }

      .cls-14 {
        fill: url(#linear-gradient);
      }

      .cls-25 {
        fill: #d6830c;
      }

      .cls-26 {
        fill: #ceb495;
      }

      .cls-27 {
        fill: #452a16;
      }

      .cls-28 {
        fill: #d3b697;
      }

      .cls-29 {
        fill: #c7a784;
      }

      .cls-30 {
        clip-path: url(#clippath);
      }
    </style>
    <clipPath id="clippath">
      <rect class="cls-1" x="140.24" y="207.53" width="33.65" height="19.9"/>
    </clipPath>
    <linearGradient id="linear-gradient" x1="115.97" y1="213.65" x2="115.44" y2="196.21" gradientUnits="userSpaceOnUse">
      <stop offset="0" stop-color="#fff"/>
      <stop offset=".09" stop-color="#f7f7f7"/>
      <stop offset=".22" stop-color="#e4e4e4"/>
      <stop offset=".37" stop-color="#c3c3c3"/>
      <stop offset=".54" stop-color="#969696"/>
      <stop offset=".73" stop-color="#5c5c5c"/>
      <stop offset=".94" stop-color="#171717"/>
      <stop offset="1" stop-color="#000"/>
    </linearGradient>
    <linearGradient id="linear-gradient-2" x1="197.49" y1="213.02" x2="195.89" y2="202.16" xlink:href="#linear-gradient"/>
  </defs>
  <g class="cls-10">
    <g id="Layer_2" data-name="Layer 2">
      <g id="RÈteg_1" data-name="RÈteg 1">
        <g>
          <rect class="cls-9" width="299.36" height="299.7"/>
          <path class="cls-5" d="M156.74,187.08v112.62h-60.71c-.99-.39-1.48-.6-1.48-.6,0-7.9.64-14.83,1.73-20.92.93-5,2.14-9.46,3.58-13.39,3.21-8.76,7.51-15.04,11.93-19.55,1.46-1.48,2.94-2.78,4.38-3.89,2.45-1.89,4.83-3.31,6.97-4.34,1.11-.56,2.16-1.01,3.13-1.36.33-.12.64-.25.95-.35.37-.12.7-.23,1.03-.33.93-.29,1.69-.49,2.26-.6.76-.19,1.19-.23,1.19-.23.23,0,.43-.02.66-.06,1.91-.31,3.46-1.98,4.71-4.63.93-1.98,1.71-4.51,2.32-7.41.25-1.15.45-2.28.66-3.54.29-2.08.58-4.26.84-6.54.08-1.38.23-2.72.39-4.16.54-6.89.68-14.44.68-21.58,0,0,8.17.84,14.77.84Z"/>
          <path class="cls-18" d="M219.21,299.1s-.53.21-1.44.6h-61.02v-112.62h.16c6.56,0,14.81-.84,14.81-.84,0,7.1.14,14.53.7,21.44.14,1.34.29,2.72.39,4.05.25,2.39.53,4.61.88,6.71v.04c.1.95.29,1.79.45,2.67.6,2.92,1.32,5.51,2.2,7.57,1.09,2.57,2.43,4.36,4.03,5.08.51.23,1.05.35,1.63.35,0,0,.29.04.8.14.84.16,2.28.49,4.14,1.17.29.1.58.21.88.33.16.06.33.12.49.21.43.16.86.37,1.32.58,2.26,1.03,4.86,2.49,7.57,4.55,1.03.76,2.06,1.63,3.11,2.57v.02c4.98,4.55,9.98,11.23,13.58,21.07,1.4,3.81,2.59,8.11,3.5,12.9,1.15,6.21,1.81,13.31,1.81,21.42Z"/>
          <g class="cls-30">
            <path class="cls-4" d="M173.89,218.22v.05c-1.53,2.36-6.67,9.16-16.85,9.16h-.1c-9.64-.05-15.27-7.05-16.7-9.11.3-2.07.59-4.24.84-6.5.1-1.33.25-2.71.4-4.14,4.69,1.18,9.83,1.92,15.27,2.02h.2c5.63-.1,10.82-.89,15.66-2.17.15,1.33.3,2.71.4,4.04.25,2.36.54,4.58.89,6.65"/>
          </g>
          <path class="cls-29" d="M156.25,58.74c-64.34,0-64.68,53.95-61.82,89.27-4.4-8.38-17.49-5.81-16.4,7.39,1.04,12.71,19.75,19.19,19.22,17.79,9.74,26.12,35.53,45.82,59,45.82h.49V58.74h-.49"/>
          <path class="cls-8" d="M82.13,149.84c3.16-5.12,8.1-2.91,9.29-1.77,1.28,1.23,2.32,2.81,1.53,5.81-.44,1.72-2.22,1.87-1.83,4.43.49,2.91,1.83,3.05,2.62,3.74.74.64,1.68,1.13,2.12,2.36.49,1.23.54,2.51.3,3.65-.49,2.07-3.51.39-5.53-.49-1.33-.64-5.58-4.24-6.67-5.42-2.67-3.05-3.95-8.97-1.83-12.32"/>
          <path class="cls-28" d="M156.6,58.74c64.34,0,64.68,53.95,61.87,89.27,4.4-8.38,17.44-5.81,16.36,7.39-.99,12.71-19.73,19.19-19.22,17.79-9.49,26.12-35.53,45.82-59,45.82h-.35l-.15-160.26h.49"/>
          <path class="cls-8" d="M230.72,149.84c-3.16-5.12-8.05-2.91-9.29-1.77-1.28,1.23-2.27,2.81-1.53,5.81.44,1.72,2.22,1.87,1.83,4.43-.49,2.91-1.83,3.05-2.57,3.74-.74.64-1.73,1.13-2.17,2.36-.44,1.23-.54,2.51-.3,3.65.49,2.07,3.51.39,5.53-.49,1.38-.64,5.58-4.24,6.67-5.42,2.72-3.05,3.95-8.97,1.83-12.32"/>
          <path class="cls-5" d="M155.74,73.97c-21.15,0-36.66,6.16-46,18.28-13.09,17-12.6,42.91-7.81,61.53,1.48,5.72,2.27,21.04,3.26,26.65,4.6,25.18,32.32,38.58,50.55,38.58h.49V73.97h-.3"/>
          <path class="cls-18" d="M201.7,92.29c-9.29-12.07-24.61-18.23-45.46-18.33v145.04c20.85-.25,45.81-14.93,50.06-38.58,1.04-5.62,1.78-20.94,3.26-26.65,4.84-18.57,5.34-44.44-7.86-61.48"/>
          <path class="cls-1" d="M153.66,188.01c-.29-.05-.56-.1-.79-.15.27.06.53.11.79.15Z"/>
          <path class="cls-1" d="M152.56,193.23c-.18-.04-.36-.08-.48-.11.16.04.32.07.48.11Z"/>
          <path class="cls-17" d="M152.86,193.29c-.1-.02-.2-.04-.3-.06.1.02.19.04.3.06Z"/>
          <path class="cls-17" d="M152.08,193.12c-.09-.02-.18-.05-.27-.08h0s.1.03.28.08Z"/>
          <path class="cls-28" d="M144.24,174.48c-.24-5.01,9.18-1.83,12.28-1.67,2.45.13,9.92-1.58,10.56-1.14,4.39,2.97-4.65,8.96-10.72,8.96-1.62,0-11.98-3.12-12.13-6.14Z"/>
          <path class="cls-1" d="M98.56,119.17c-.58,1.92-.98,4.02-1.25,6.26,0,0,.85-3.53,2.72-8.76-.8,1.12-1.34,2.01-1.47,2.5Z"/>
          <path class="cls-2" d="M138.28,74.33l-.27.27.04.09c.09-.13.13-.27.22-.36Z"/>
          <path class="cls-1" d="M153.86,190.51c-.3-.05-.57-.11-.82-.16.28.06.55.11.82.16Z"/>
          <path class="cls-1" d="M152.73,190.29c-.19-.04-.37-.08-.49-.11.16.04.33.07.49.11Z"/>
          <path class="cls-24" d="M153.04,190.35c-.1-.02-.21-.04-.31-.07.1.02.19.04.31.07Z"/>
          <path class="cls-24" d="M152.23,190.17c-.1-.02-.18-.05-.28-.08h-.01s.11.03.29.08Z"/>
          <path class="cls-16" d="M110.09,130.58s4.91,20.2,13.34,21.85c8.43,1.65,17.55-1.63,17.55-1.63,0,0,.87-23.74-3.44-26.84-4.31-3.12-14.25-7.62-27.44,6.62Z"/>
          <path class="cls-26" d="M140.98,150.73s-.19.06-.63.24c-.11-7.28-.78-17.28-3.47-19.2-4.01-2.94-13.05-7.08-25.14,4.24-1.1-3.13-1.65-5.5-1.65-5.5,13.21-14.26,23.16-9.77,27.44-6.65,4.32,3.11,3.45,26.87,3.45,26.87Z"/>
          <ellipse class="cls-27" cx="127.7" cy="140.45" rx="8.29" ry="8.32"/>
          <path class="cls-7" d="M127.31,145.99c-2.4-.2-4.23-2.62-4.02-5.29.21-2.66,2.42-4.75,4.82-4.55,2.4.2,4.23,2.62,4.02,5.28-.22,2.67-2.43,4.75-4.82,4.55Z"/>
          <path class="cls-6" d="M127.52,145.02c-1.67-.14-3.4-1.98-3.21-4.24.19-2.27,2.19-3.8,3.86-3.66,1.67.14,3.39,1.98,3.21,4.24-.18,2.26-2.19,3.79-3.85,3.65Z"/>
          <path class="cls-16" d="M126.17,139.45c-.07.82-.9,1.41-1.86,1.33-.96-.08-1.68-.81-1.62-1.62.07-.82.9-1.42,1.86-1.34.96.08,1.69.81,1.62,1.63Z"/>
          <path class="cls-16" d="M131.54,144.17c-.04.41-.45.71-.93.67-.48-.04-.84-.41-.81-.81.03-.41.45-.71.93-.67.48.04.85.4.81.81Z"/>
          <path class="cls-1" d="M153.99,192.89c-.3-.05-.57-.11-.82-.16.28.06.55.11.82.16Z"/>
          <path class="cls-1" d="M152.86,192.67c-.19-.04-.37-.08-.49-.11.16.04.33.07.49.11Z"/>
          <path class="cls-24" d="M153.17,192.73c-.1-.02-.21-.04-.31-.07.1.02.19.04.31.07Z"/>
          <path class="cls-24" d="M152.37,192.55c-.1-.02-.18-.05-.28-.08h-.01s.11.03.29.08Z"/>
          <path class="cls-1" d="M153.67,192.33c-.32-.06-.62-.11-.87-.17.3.06.59.12.87.17Z"/>
          <path class="cls-1" d="M152.46,192.09c-.2-.05-.4-.09-.53-.12.18.05.35.08.53.12Z"/>
          <path class="cls-17" d="M152.79,192.16c-.11-.02-.22-.05-.33-.07.11.02.21.04.33.07Z"/>
          <path class="cls-17" d="M151.93,191.97c-.1-.03-.2-.06-.3-.08h-.01s.11.04.31.08Z"/>
          <path class="cls-1" d="M153.42,191.49c-.32-.06-.62-.11-.88-.17.3.06.59.12.88.17Z"/>
          <path class="cls-1" d="M152.21,191.25c-.2-.05-.4-.09-.53-.12.18.05.35.08.53.12Z"/>
          <path class="cls-17" d="M152.55,191.32c-.11-.02-.22-.05-.33-.07.11.02.21.04.33.07Z"/>
          <path class="cls-17" d="M151.68,191.13c-.1-.03-.2-.06-.3-.08h-.01s.11.04.31.08Z"/>
          <path class="cls-1" d="M154.16,191.37c-.31-.05-.6-.11-.85-.16.29.06.57.12.85.16Z"/>
          <path class="cls-1" d="M152.99,191.14c-.19-.04-.39-.09-.51-.12.17.04.34.08.51.12Z"/>
          <path class="cls-17" d="M153.32,191.2c-.11-.02-.22-.04-.32-.07.11.02.2.04.32.07Z"/>
          <path class="cls-17" d="M152.48,191.02c-.1-.03-.19-.05-.29-.08h-.01s.11.03.3.08Z"/>
          <path class="cls-16" d="M202.9,129.89s-4.91,20.2-13.33,21.85c-8.43,1.65-17.55-1.63-17.55-1.63,0,0-.87-23.74,3.44-26.84,4.31-3.11,14.25-7.62,27.44,6.62Z"/>
          <path class="cls-26" d="M172,150.04s.19.06.63.24c.11-7.28.78-17.28,3.47-19.2,4.01-2.94,13.05-7.08,25.14,4.24,1.1-3.13,1.65-5.5,1.65-5.5-13.21-14.26-23.16-9.77-27.44-6.65-4.32,3.11-3.45,26.87-3.45,26.87Z"/>
          <path class="cls-27" d="M176.99,139.76c0,4.59,3.71,8.32,8.29,8.32s8.29-3.72,8.29-8.32-3.71-8.32-8.29-8.32-8.29,3.72-8.29,8.32Z"/>
          <path class="cls-7" d="M185.67,145.3c2.4-.2,4.23-2.62,4.02-5.29-.21-2.67-2.42-4.75-4.82-4.55-2.39.2-4.23,2.62-4.02,5.28.22,2.67,2.43,4.75,4.82,4.55Z"/>
          <path class="cls-6" d="M185.47,144.34c1.67-.14,3.4-1.98,3.21-4.24-.19-2.27-2.19-3.8-3.86-3.66-1.67.14-3.39,1.98-3.21,4.24.18,2.26,2.19,3.79,3.85,3.65Z"/>
          <path class="cls-16" d="M186.82,138.76c.07.82.9,1.41,1.86,1.33.96-.08,1.68-.81,1.62-1.62-.07-.82-.9-1.42-1.86-1.34-.96.08-1.69.81-1.62,1.63Z"/>
          <path class="cls-16" d="M181.44,143.49c.04.41.45.71.93.67.48-.04.84-.41.81-.81-.03-.41-.45-.71-.93-.67-.48.04-.85.4-.81.81Z"/>
          <g>
            <path class="cls-20" d="M146.03,130.25c-.06-.1-1.59-2.43-4.72-4.83-1.96-1.51-3.88-2.65-5.87-3.51-2.42-1.02-5.03-1.74-7.55-2.09-2.28-.25-4.81-.19-7.77.21-2.25.43-4.45,1.1-6.32,1.93-1.33.46-2.38,1.11-3.23,1.62-.32.2-.62.38-.91.54l-4.03,2.54,4.64-1.09c.22-.05.45-.12.7-.18.96-.26,2.15-.57,3.55-.78.33-.05.66-.11,1-.18.58-.12,1.19-.24,1.82-.27.7-.05,1.43-.1,2.18-.15l.97-.07c2.57-.03,4.74.16,6.67.61,2.11.36,4.27,1.05,6.26,1.97,1.87.9,3.67,1.79,5.08,2.83,2.83,1.9,4.41,3.48,4.43,3.49h0c.39.39.91.6,1.43.6.38,0,.76-.11,1.1-.33.93-.61,1.2-1.88.6-2.79l-.04-.06Z"/>
            <path class="cls-20" d="M203.73,124.11c-.27-.14-.56-.32-.88-.52-.84-.52-1.9-1.16-3.19-1.61-1.91-.84-4.1-1.51-6.39-1.95-2.93-.39-5.46-.46-7.75-.21-2.51.34-5.12,1.07-7.54,2.09-1.96.84-3.94,2.02-5.87,3.51-3.07,2.36-4.6,4.65-4.71,4.83l-.03.04c-.52.8-.41,1.87.26,2.55.38.39.89.6,1.43.6h0c.54,0,1.05-.21,1.43-.6l.02-.02c.15-.15,1.68-1.65,4.43-3.49,1.38-1.02,3.18-1.91,5.05-2.81,1.99-.93,4.16-1.61,6.29-1.98,1.9-.44,4.07-.63,6.61-.6l1.02.07c.74.05,1.46.1,2.17.15.62.03,1.23.15,1.81.27.34.07.67.13,1,.18,1.4.21,2.6.52,3.56.78.25.07.48.13.71.18l4.64,1.09-4.06-2.56Z"/>
          </g>
          <path class="cls-1" d="M152.57,195.29c-.31-.05-.6-.11-.85-.16.29.06.57.12.85.16Z"/>
          <path class="cls-1" d="M151.39,195.06c-.2-.04-.39-.09-.52-.12.17.04.34.08.52.12Z"/>
          <path class="cls-22" d="M151.71,195.13c-.11-.02-.22-.04-.33-.07.11.02.2.04.33.07Z"/>
          <path class="cls-22" d="M150.87,194.94c-.1-.03-.19-.05-.29-.08h-.01s.11.03.3.08Z"/>
          <path class="cls-19" d="M144.35,199.29c-.24-3.25,9.02.68,12.06.77,2.43.08,9.71-.48,10.39-.74,5.09-1.91-.28,5.43-10.54,5.81-4.7.19-11.77-3.88-11.91-5.85Z"/>
          <path class="cls-3" d="M174.5,193.03c-2.51-.12-5.09,1.98-8.12,1.66-.12-.06-.18-.06-.31-.06-.69-.12-1.38,0-2.14.18-.94.2-1.89.58-2.77.89-1.51.49-3.21.89-4.97.75h0s-.06,0-.1,0-.06.01-.1.01h0c-1.75.12-3.45-.27-4.97-.76-.88-.31-1.83-.69-2.77-.89-.76-.18-1.44-.31-2.14-.18-.13,0-.19,0-.31.06-3.02.32-5.6-1.78-8.12-1.66-.7.06-1.7-.12-2.27-.12.12.06.25.12.38.19,7.17,3.5,13.35,10.07,20.2,9.86h.2c6.85.21,13.03-6.35,20.2-9.86.13-.06.26-.12.38-.19-.57,0-1.57.19-2.27.12Z"/>
          <path class="cls-23" d="M176.6,192.83h0s-7.29-2.82-12.47-1.16c0,0-1.93.75-3.93,1.21-1.22.47-2.69.61-4.11.56h0c-1.09-.04-2.13-.18-2.98-.33-.28-.04-.56-.1-.85-.16-.12-.03-.22-.05-.33-.07-.18-.04-.35-.07-.52-.12-.19-.05-.3-.08-.3-.08h.01c-1.66-.45-3.08-1.01-3.08-1.01-5.18-1.65-12.47,1.16-12.47,1.16h0c-.1.05-.16.08-.16.08.57,0,1.57.19,2.27.12,2.51-.12,5.09,1.98,8.12,1.66.12-.06.18-.06.31-.06.69-.12,1.38,0,2.14.18.94.2,1.89.58,2.77.89,1.51.49,3.21.89,4.97.75h0s.06,0,.1,0,.06.01.1.01h0c1.75.12,3.45-.27,4.97-.76.88-.31,1.83-.69,2.77-.89.76-.18,1.44-.31,2.14-.18.13,0,.19,0,.31.06,3.02.32,5.6-1.78,8.12-1.66.69.06,1.7-.12,2.27-.12,0,0-.06-.03-.16-.08Z"/>
          <path class="cls-23" d="M143.85,194.55c.13.03,13.65,4.16,24.23.09l-1.22-.82h-14.29l-8.72.73Z"/>
          <g>
            <path class="cls-21" d="M145.92,149.16c.21-.59.42-1.18.61-1.77,1.12-3.41,1.69-6.91,1.06-10.51-.57-3.25-2.59-5.51-5.31-7.29-3.3-2.15-7.07-2.88-10.91-3.28-7.31-.75-14.58-.58-21.78,1.07-4.26.98-7.53,3.08-9.12,7.17h0s-.02.06-.06.16c-.03.07-.06.14-.09.22-.06.18-.11.34-.13.48-.13.44-.28,1.03-.41,1.71-.13.47-.21.96-.22,1.46-.09.8-.13,1.66-.06,2.52h0c.12,3.15.55,6.21,1.46,9.12,12.51-4.09,28.43-6.36,44.95-1.06Z"/>
            <path class="cls-21" d="M213.11,151.55c1.21-3.3,1.76-6.82,1.9-10.44h0c.07-.86.03-1.72-.06-2.52-.02-.5-.09-.99-.22-1.46-.13-.68-.28-1.27-.41-1.71-.02-.15-.07-.31-.13-.48-.03-.07-.06-.14-.09-.22-.03-.1-.06-.16-.06-.16h0c-1.59-4.09-4.87-6.19-9.12-7.17-7.19-1.65-14.47-1.82-21.77-1.07-3.84.4-7.61,1.13-10.91,3.28-2.72,1.77-4.73,4.03-5.31,7.29-.63,3.6-.06,7.1,1.06,10.51.07.23.15.45.23.68,16.84-4.26,32.82-1.04,44.89,3.48Z"/>
            <path class="cls-21" d="M124.72,166.11c4.63-.45,8.91-1.9,12.67-4.65,4.35-3.18,6.79-7.53,8.53-12.3-16.52-5.29-32.44-3.03-44.95,1.06.93,3.01,2.37,5.87,4.5,8.49,4.91,6.04,11.54,8.15,19.24,7.4Z"/>
            <path class="cls-15" d="M124.72,166.11c4.63-.45,8.91-1.9,12.67-4.65,4.35-3.18,6.79-7.53,8.53-12.3-16.52-5.29-32.44-3.03-44.95,1.06.93,3.01,2.37,5.87,4.5,8.49,4.91,6.04,11.54,8.15,19.24,7.4Z"/>
            <path class="cls-21" d="M177.13,161.47c3.76,2.75,8.04,4.2,12.67,4.65,7.7.75,14.33-1.35,19.24-7.4,1.82-2.24,3.13-4.64,4.06-7.17-12.07-4.52-28.05-7.75-44.89-3.48,1.77,5.2,4.24,9.98,8.92,13.4Z"/>
            <path class="cls-15" d="M177.13,161.47c3.76,2.75,8.04,4.2,12.67,4.65,7.7.75,14.33-1.35,19.24-7.4,1.82-2.24,3.13-4.64,4.06-7.17-12.07-4.52-28.05-7.75-44.89-3.48,1.77,5.2,4.24,9.98,8.92,13.4Z"/>
            <path class="cls-16" d="M223.65,130.65c-.08-1.62-.22-1.8-1.88-2.16-.84-.18-1.68-.37-2.52-.56-4.52-1.02-9.02-2.08-13.57-2.91-12.54-2.31-24.97-2.94-36.81,3.08-1.96,1-4.04,1.18-6.27.73-1.76-.36-3.55-.57-5.33-.59-1.78.02-3.57.23-5.33.59-2.23.45-4.31.27-6.27-.73-11.84-6.02-24.27-5.39-36.81-3.08-4.3.79-8.56,1.78-12.82,2.75-1.09.25-2.18.49-3.27.73-1.66.36-1.8.54-1.88,2.16-.08,1.5-.19,3.01,1.31,4.03.09.06.14.18.21.26,1.69,1.92,2.94,3.98,3.63,6.37.21.74.37,1.5.47,2.3.32,2.58.9,5.11,1.76,7.54.88,2.5,2.05,4.9,3.56,7.17,3.81,5.73,9.25,9.24,16.18,10.06,11.24,1.33,20.41-2.37,26.88-11.61,1.49-2.12,2.8-4.33,3.93-6.62,1.52-3.08,2.7-6.32,3.49-9.71.14-.59.05-1.34-.21-1.9-1.07-2.38-.26-4.19,2.33-4.8.94-.22,1.89-.34,2.84-.36.95.02,1.9.14,2.85.36,2.59.61,3.4,2.42,2.33,4.8-.25.56-.35,1.31-.21,1.9.69,2.94,1.67,5.76,2.91,8.47,1.25,2.73,2.76,5.35,4.52,7.85,6.47,9.23,15.64,12.93,26.88,11.61,6.93-.82,12.37-4.32,16.18-10.06,1.22-1.84,2.22-3.76,3.03-5.75,1.16-2.86,1.91-5.86,2.29-8.95.2-1.57.61-3,1.22-4.33.71-1.57,1.69-3,2.88-4.35.07-.08.12-.2.21-.26,1.5-1.02,1.39-2.53,1.31-4.03ZM146.53,147.39c-.2.6-.4,1.19-.61,1.78-1.74,4.77-4.19,9.13-8.53,12.3-3.76,2.75-8.04,4.2-12.67,4.65-7.7.75-14.33-1.35-19.24-7.4-2.13-2.62-3.57-5.48-4.5-8.49-.9-2.91-1.33-5.97-1.46-9.12h0c-.07-.86-.03-1.72.06-2.52.02-.5.09-.99.22-1.46.13-.68.28-1.27.41-1.71.02-.15.07-.31.13-.48.03-.07.06-.14.09-.22.03-.1.06-.16.06-.16h0c1.59-4.09,4.87-6.19,9.12-7.17,7.19-1.66,14.47-1.82,21.77-1.07,3.84.4,7.61,1.13,10.91,3.28,2.72,1.77,4.73,4.03,5.31,7.29.63,3.6.06,7.1-1.06,10.51ZM215.01,141.1c-.14,3.63-.69,7.14-1.9,10.44-.93,2.53-2.24,4.93-4.06,7.17-4.91,6.04-11.54,8.15-19.24,7.4-4.63-.45-8.91-1.9-12.67-4.65-4.68-3.42-7.15-8.21-8.92-13.4-.08-.23-.15-.45-.23-.68-1.12-3.41-1.69-6.91-1.06-10.51.57-3.25,2.59-5.51,5.31-7.29,3.3-2.15,7.07-2.88,10.91-3.28,7.31-.75,14.58-.58,21.77,1.07,4.26.98,7.53,3.08,9.12,7.17h0s.02.06.06.16c.03.07.06.14.09.22.06.18.11.34.13.48.13.44.28,1.03.41,1.71.13.47.21.96.22,1.46.09.8.13,1.66.06,2.52h0Z"/>
          </g>
          <path class="cls-12" d="M204.68,268.9h-95.96c2.92-6.54,6.23-13.93,7.45-27.55,2.45-1.89,4.83-3.31,6.97-4.34,1.11-.56,2.16-1.01,3.13-1.36.33-.12.64-.25.95-.35.37-.12.7-.23,1.03-.33.93-.29,1.69-.49,2.26-.6,6.95,10,19.24,26.25,25.9,26.31h.02c.1,0,.19,0,.31-.02,6.83-.43,19.2-16.62,26.07-26.38.84.16,2.28.49,4.14,1.17.29.1.58.21.88.33.16.06.33.12.49.21.43.16.86.37,1.32.58,2.26,1.03,4.86,2.49,7.57,4.55,1.21,13.78,4.53,21.19,7.47,27.78Z"/>
          <path class="cls-12" d="M102.64,299.7h108.12c-.25-4.09-.62-9.86-1-13.66h-106.11c-.38,3.79-.75,9.57-1,13.66Z"/>
          <path class="cls-11" d="M204.69,268.9h-95.97c-2.22,4.97-4.22,9.46-4.93,15.84-.05.4-.09.83-.14,1.3h106.11c-.05-.46-.09-.9-.14-1.3-.71-6.38-2.71-10.88-4.93-15.84Z"/>
          <g>
            <path class="cls-25" d="M215.86,233.71c-.64-3.12-.95-4.9-1-6.16h-.62c2.13-3.12,3.74-6.43,4.8-9.89h.01c.05-.17.09-.36.14-.54.4-1.39.72.53.93-.9,2.17-12.84-.55-23.99-2.99-33.9.06-6.77-.23-14.04-.9-21.85-.16-1.83-2.79-1.97-3.13-.17-2.11,11.16-7.07,26-18.75,32.67-4.92-4.23-13.83-15.54-27.74-17.62,0,0-5.19,1.78-9.74,1.78s-8.47-1.78-8.47-1.78c-14.65,2.19-25.1,14.1-29.76,18.28-12.57-6.31-17.8-21.78-19.98-33.33-.34-1.8-2.98-1.66-3.13.17-.46,5.33-.74,10.41-.85,15.25-2.45,8.29-7.51,24.25-4.77,40.49.21,1.43.52-.48.93.9.05.18.09.37.14.55h.01c1.06,3.45,2.67,6.76,4.8,9.88h-.62c-.06,1.26-.37,3.03-1.01,6.16-1.72,8.57-6.84,10.82-6.84,10.82,0,0,7.91-3.27,9.81-5.49.93-1.07,3.37-4.03,4.12-4.95.03.02.05.04.08.07-.44.99-1.47,4.18-.01,10.31,1.91,8.03,9.75,13.45,9.75,13.45,0,0-2.88-3.92-3.5-8.97-.13-1.02,1.19-1.51,1.75-.65,1.07,1.64,2.83,3.88,5.73,6.84,7.3,7.45,20.62,18.4,21.8,18.5-.06-.15-.14-4.22-.21-8.07-.04-2.16,2.11-3.68,4.13-2.91.26.1.53.2.79.3,4.01,3.69,8.14,8.94,12.39,8.94.36,0,.72-.01,1.07-.03h0c.35.01.71.03,1.07.03,3.9,0,7.7-4.43,11.41-8.02.6-.19,1.22-.39,1.85-.62,1.99-.7,4.07.82,4.03,2.93-.07,4.42-.15,9.24-.21,9.39,1.18-.1,14.5-12.99,21.8-20.44,2.9-2.96,4.66-5.2,5.73-6.84.56-.86,1.87-.37,1.75.65-.62,5.06-3.51,8.97-3.51,8.97,0,0,7.84-5.41,9.75-13.45,1.46-6.14.43-9.33-.01-10.31.03-.03.05-.05.08-.07.76.93,3.2,3.88,4.12,4.95,1.91,2.22,9.81,5.49,9.81,5.49,0,0-5.12-2.25-6.84-10.82ZM155.88,207.28c-10.4.34-14.95-3.47-20.84-5.88,2.67-1.63,8.06-7.91,17.24-7.09,2.01-1.11-.33-1.66,18.83,2.15,2.36,1.54,4.8,3.1,7.16,4.45-5.97,2.63-11.29,6.73-22.39,6.37Z"/>
            <path class="cls-14" d="M91.08,196.43l-.47,3.96s25.75,16.74,50.02,3.62l-2.08-1.01-47.47-6.58Z"/>
            <path class="cls-25" d="M197.91,177.93s-26.66-29.29-39.04-6.89c0,0-1.08,1.4-2.23,3.61-1.13-2.21-2.22-3.61-2.22-3.61-12.38-22.4-39.03,6.89-39.03,6.89,0,0-22.23,23.18-38.45,1.16,0,0,13.42,34.05,57.76,24.82,12.28-2.55,18.79-6.75,21.95-11.29,3.15,4.54,9.66,8.74,21.93,11.29,44.35,9.23,57.76-24.82,57.76-24.82-16.21,22.02-38.44-1.16-38.44-1.16Z"/>
            <path class="cls-13" d="M171.94,203.96s24.14,12.18,47.79-3.57l-.21-2.1s-17.54,12.71-45.31,4.57l-2.27,1.1Z"/>
          </g>
        </g>
      </g>
    </g>
  </g>
</svg>