<?xml version="1.0" encoding="UTF-8"?>
<svg id="Layer_2" data-name="Layer 2" xmlns="http://www.w3.org/2000/svg" xmlns:xlink="http://www.w3.org/1999/xlink" viewBox="0 0 299.36 299.87">
  <defs>
    <style>
      .cls-1 {
        fill: none;
      }

      .cls-2 {
        fill: #43331b;
      }

      .cls-3 {
        fill: url(#NÈvtelen_szÌn·tmenet_4-2);
      }

      .cls-3, .cls-4 {
        opacity: .54;
      }

      .cls-5 {
        fill: #d6c09e;
      }

      .cls-6 {
        fill: #b5977b;
      }

      .cls-7 {
        fill: #862e2b;
      }

      .cls-8 {
        fill: #d7be9a;
      }

      .cls-4 {
        fill: url(#NÈvtelen_szÌn·tmenet_4);
      }

      .cls-9 {
        fill: #282211;
      }

      .cls-10 {
        fill: #71391e;
      }

      .cls-11 {
        fill: #a4876f;
      }

      .cls-12 {
        fill: #fff;
      }

      .cls-13 {
        fill: #b19076;
      }

      .cls-14 {
        fill: #e8d2ae;
      }

      .cls-15 {
        fill: #e9d3af;
      }

      .cls-16 {
        fill: #171500;
      }

      .cls-17 {
        fill: #af4a75;
      }

      .cls-18 {
        fill: #b39176;
      }

      .cls-19 {
        fill: #b4b1ad;
      }

      .cls-20 {
        fill: #bc9e80;
      }

      .cls-21 {
        fill: #af8f76;
      }

      .cls-22 {
        fill: #ceb495;
      }

      .cls-23 {
        fill: #452a16;
      }

      .cls-24 {
        fill: #ebece9;
        opacity: .55;
      }

      .cls-25 {
        fill: #d3b697;
      }

      .cls-26 {
        fill: #c7a784;
      }

      .cls-27 {
        clip-path: url(#clippath);
      }
    </style>
    <clipPath id="clippath">
      <rect class="cls-1" x="137.24" y="207.69" width="33.65" height="19.9"/>
    </clipPath>
    <linearGradient id="NÈvtelen_szÌn·tmenet_4" data-name="NÈvtelen szÌn·tmenet 4" x1="121.99" y1="117.24" x2="123.52" y2="163.19" gradientUnits="userSpaceOnUse">
      <stop offset="0" stop-color="#fff"/>
      <stop offset="1" stop-color="#171500"/>
    </linearGradient>
    <linearGradient id="NÈvtelen_szÌn·tmenet_4-2" data-name="NÈvtelen szÌn·tmenet 4" x1="183.3" y1="115.2" x2="184.83" y2="161.15" xlink:href="#NÈvtelen_szÌn·tmenet_4"/>
  </defs>
  <g id="RÈteg_1" data-name="RÈteg 1">
    <g>
      <rect class="cls-17" width="299.36" height="299.7"/>
      <path class="cls-8" d="M153.94,187.25v112.62h-60.73c-.99-.4-1.48-.6-1.48-.6,0-14.38,2.1-25.58,5.3-34.33,7.73-21.1,21.88-27.8,28.4-29.82,2.14-.66,3.45-.82,3.45-.82.23,0,.45-.02.67-.06,1.91-.31,3.46-1.97,4.71-4.63.93-1.97,1.7-4.49,2.33-7.41.25-1.14.45-2.28.65-3.52.3-2.08.59-4.26.84-6.55.1-1.39.25-2.73.39-4.16.54-6.89.69-14.43.69-21.57,0,0,8.15.84,14.77.84Z"/>
      <path class="cls-14" d="M216.4,299.28s-.54.2-1.44.6h-61.02v-112.62h.15c6.57,0,14.83-.84,14.83-.84,0,7.09.14,14.53.69,21.42.15,1.34.3,2.73.39,4.07.25,2.38.55,4.61.89,6.69v.05c.1.95.29,1.79.45,2.68.6,2.93,1.33,5.51,2.2,7.57,1.09,2.57,2.42,4.37,4.03,5.08.51.23,1.06.34,1.62.34,0,0,2.34.28,5.84,1.66,7.15,2.81,19.16,10.18,26.06,28.98,3.2,8.74,5.31,19.95,5.31,34.33Z"/>
      <g class="cls-27">
        <path class="cls-6" d="M170.89,218.39v.05c-1.53,2.36-6.67,9.16-16.85,9.16h-.1c-9.64-.05-15.27-7.05-16.7-9.11.3-2.07.59-4.24.84-6.5.1-1.33.25-2.71.4-4.14,4.69,1.18,9.83,1.92,15.27,2.02h.2c5.63-.1,10.82-.89,15.66-2.17.15,1.33.3,2.71.4,4.04.25,2.36.54,4.58.89,6.65"/>
      </g>
      <path class="cls-26" d="M153.25,58.91c-64.34,0-64.68,53.95-61.82,89.27-4.4-8.38-17.49-5.81-16.41,7.39,1.04,12.71,19.75,19.19,19.22,17.79,9.74,26.12,35.53,45.82,59,45.82h.49V58.91h-.49"/>
      <path class="cls-11" d="M79.13,150c3.16-5.12,8.1-2.91,9.29-1.77,1.28,1.23,2.32,2.81,1.53,5.81-.44,1.72-2.22,1.87-1.83,4.43.49,2.91,1.83,3.05,2.62,3.74.74.64,1.68,1.13,2.12,2.37.49,1.23.54,2.51.3,3.65-.49,2.07-3.51.39-5.53-.49-1.33-.64-5.58-4.24-6.67-5.42-2.67-3.05-3.95-8.97-1.83-12.32"/>
      <path class="cls-25" d="M153.6,58.91c64.34,0,64.68,53.95,61.87,89.27,4.4-8.38,17.44-5.81,16.36,7.39-.99,12.71-19.73,19.19-19.22,17.79-9.49,26.12-35.53,45.82-59,45.82h-.35l-.15-160.26h.49"/>
      <path class="cls-11" d="M227.72,150c-3.16-5.12-8.05-2.91-9.29-1.77-1.28,1.23-2.27,2.81-1.53,5.81.44,1.72,2.22,1.87,1.83,4.43-.49,2.91-1.83,3.05-2.57,3.74-.74.64-1.73,1.13-2.17,2.37-.44,1.23-.54,2.51-.3,3.65.49,2.07,3.51.39,5.53-.49,1.38-.64,5.58-4.24,6.67-5.42,2.72-3.05,3.95-8.97,1.83-12.32"/>
      <path class="cls-8" d="M152.74,74.13c-21.15,0-36.66,6.16-46,18.28-13.09,17-12.6,42.91-7.81,61.53,1.48,5.72,2.27,21.04,3.26,26.65,4.6,25.18,32.32,38.58,50.55,38.58h.49V74.13h-.3"/>
      <path class="cls-14" d="M198.7,92.46c-9.29-12.07-24.61-18.23-45.46-18.33v145.04c20.85-.25,45.81-14.93,50.06-38.58,1.04-5.62,1.78-20.94,3.26-26.65,4.84-18.57,5.34-44.44-7.86-61.48"/>
      <path class="cls-1" d="M150.66,188.18c-.29-.05-.56-.1-.79-.15.27.06.53.11.79.15Z"/>
      <path class="cls-1" d="M149.56,193.4c-.18-.04-.36-.08-.48-.11.16.04.32.07.48.11Z"/>
      <path class="cls-13" d="M149.86,193.46c-.1-.02-.2-.04-.3-.06.1.02.19.04.3.06Z"/>
      <path class="cls-13" d="M149.08,193.29c-.09-.02-.18-.05-.27-.08h-.01s.1.03.28.08Z"/>
      <path class="cls-25" d="M140.96,175.68c-.24-5.01,9.18-1.83,12.28-1.67,2.45.13,9.92-1.58,10.56-1.14,4.39,2.97-4.65,8.96-10.72,8.96-1.62,0-11.98-3.12-12.13-6.14Z"/>
      <path class="cls-1" d="M95.56,119.34c-.58,1.92-.98,4.02-1.25,6.26,0,0,.85-3.53,2.72-8.76-.8,1.12-1.34,2.01-1.47,2.5Z"/>
      <path class="cls-2" d="M135.28,74.5l-.27.27.04.09c.09-.13.13-.27.22-.36Z"/>
      <path class="cls-1" d="M150.86,190.68c-.3-.05-.57-.11-.82-.16.28.06.55.11.82.16Z"/>
      <path class="cls-1" d="M149.73,190.45c-.19-.04-.37-.08-.5-.11.16.04.33.07.5.11Z"/>
      <path class="cls-21" d="M150.04,190.52c-.1-.02-.21-.04-.31-.07.1.02.19.04.31.07Z"/>
      <path class="cls-21" d="M149.23,190.34c-.1-.02-.18-.05-.28-.08h-.01s.11.03.29.08Z"/>
      <path class="cls-12" d="M107.09,130.74s4.91,20.2,13.34,21.85c8.43,1.65,17.55-1.63,17.55-1.63,0,0,.87-23.74-3.44-26.84-4.31-3.12-14.25-7.62-27.44,6.62Z"/>
      <path class="cls-22" d="M137.98,150.9s-.19.06-.63.24c-.11-7.28-.78-17.28-3.47-19.2-4.01-2.94-13.05-7.08-25.14,4.24-1.1-3.13-1.65-5.5-1.65-5.5,13.21-14.26,23.16-9.77,27.44-6.65,4.32,3.11,3.45,26.87,3.45,26.87Z"/>
      <ellipse class="cls-23" cx="124.7" cy="140.61" rx="8.29" ry="8.32"/>
      <path class="cls-10" d="M124.31,146.15c-2.4-.2-4.23-2.62-4.02-5.29.21-2.66,2.42-4.75,4.82-4.55,2.4.2,4.23,2.62,4.02,5.28-.22,2.67-2.43,4.75-4.82,4.55Z"/>
      <path class="cls-9" d="M124.52,145.19c-1.67-.14-3.4-1.98-3.21-4.24.19-2.27,2.19-3.8,3.86-3.66,1.67.14,3.39,1.98,3.21,4.24-.18,2.26-2.19,3.79-3.85,3.65Z"/>
      <path class="cls-12" d="M123.17,139.62c-.07.82-.91,1.41-1.86,1.33-.96-.08-1.68-.81-1.62-1.62.07-.82.9-1.42,1.86-1.34.96.08,1.69.81,1.62,1.63Z"/>
      <path class="cls-12" d="M128.54,144.34c-.04.41-.45.71-.93.67-.48-.04-.84-.41-.81-.81.03-.41.45-.71.93-.67.48.04.85.4.81.81Z"/>
      <path class="cls-1" d="M150.99,193.06c-.3-.05-.57-.11-.82-.16.28.06.55.11.82.16Z"/>
      <path class="cls-1" d="M149.86,192.84c-.19-.04-.37-.08-.49-.11.16.04.33.07.49.11Z"/>
      <path class="cls-21" d="M150.17,192.9c-.1-.02-.21-.04-.31-.07.1.02.19.04.31.07Z"/>
      <path class="cls-21" d="M149.37,192.72c-.1-.02-.18-.05-.28-.08h-.01s.11.03.29.08Z"/>
      <path class="cls-1" d="M150.67,192.5c-.32-.06-.62-.11-.87-.17.3.06.58.12.87.17Z"/>
      <path class="cls-1" d="M149.46,192.26c-.2-.05-.4-.09-.53-.12.18.05.35.08.53.12Z"/>
      <path class="cls-13" d="M149.79,192.33c-.11-.02-.22-.05-.33-.07.11.02.21.04.33.07Z"/>
      <path class="cls-13" d="M148.93,192.14c-.1-.03-.2-.06-.3-.08h-.01s.11.04.31.08Z"/>
      <path class="cls-1" d="M150.42,191.66c-.32-.06-.62-.11-.88-.17.3.06.59.12.88.17Z"/>
      <path class="cls-1" d="M149.21,191.42c-.2-.05-.4-.09-.53-.12.18.05.35.08.53.12Z"/>
      <path class="cls-13" d="M149.55,191.49c-.11-.02-.22-.05-.33-.07.11.02.21.04.33.07Z"/>
      <path class="cls-13" d="M148.68,191.29c-.1-.03-.2-.06-.3-.08h-.01s.11.04.31.08Z"/>
      <path class="cls-1" d="M151.16,191.53c-.31-.05-.6-.11-.85-.16.29.06.57.12.85.16Z"/>
      <path class="cls-1" d="M149.99,191.3c-.19-.04-.39-.09-.51-.12.17.04.34.08.51.12Z"/>
      <path class="cls-13" d="M150.32,191.37c-.11-.02-.22-.04-.32-.07.11.02.2.04.32.07Z"/>
      <path class="cls-13" d="M149.48,191.19c-.1-.03-.19-.05-.29-.08h-.01s.11.03.3.08Z"/>
      <path class="cls-12" d="M199.9,130.06s-4.91,20.2-13.33,21.85c-8.43,1.65-17.55-1.63-17.55-1.63,0,0-.87-23.74,3.44-26.84,4.31-3.11,14.25-7.62,27.44,6.62Z"/>
      <path class="cls-22" d="M169,150.21s.19.06.63.24c.11-7.28.78-17.28,3.47-19.2,4.01-2.94,13.05-7.08,25.14,4.24,1.1-3.13,1.65-5.5,1.65-5.5-13.21-14.26-23.16-9.77-27.44-6.65-4.32,3.11-3.45,26.87-3.45,26.87Z"/>
      <path class="cls-23" d="M173.99,139.93c0,4.59,3.71,8.32,8.29,8.32s8.29-3.72,8.29-8.32-3.71-8.32-8.29-8.32-8.29,3.72-8.29,8.32Z"/>
      <path class="cls-10" d="M182.67,145.47c2.4-.2,4.23-2.62,4.02-5.29-.21-2.67-2.42-4.75-4.82-4.55-2.39.2-4.23,2.62-4.02,5.28.22,2.67,2.43,4.75,4.82,4.55Z"/>
      <path class="cls-9" d="M182.46,144.51c1.67-.14,3.4-1.98,3.21-4.24-.19-2.27-2.19-3.8-3.86-3.66-1.67.14-3.39,1.98-3.21,4.24.18,2.26,2.19,3.79,3.85,3.65Z"/>
      <path class="cls-12" d="M183.82,138.93c.07.82.91,1.41,1.86,1.33.96-.08,1.68-.81,1.62-1.62-.07-.82-.9-1.42-1.86-1.34-.96.08-1.69.81-1.62,1.63Z"/>
      <path class="cls-12" d="M178.44,143.66c.04.41.45.71.93.67.48-.04.84-.41.81-.81-.03-.41-.45-.71-.93-.67-.48.04-.85.4-.81.81Z"/>
      <g>
        <path class="cls-16" d="M143.03,130.42c-.06-.1-1.59-2.43-4.72-4.83-1.96-1.51-3.88-2.65-5.87-3.51-2.42-1.02-5.03-1.74-7.55-2.09-2.28-.25-4.81-.19-7.77.21-2.25.43-4.45,1.1-6.32,1.93-1.33.46-2.38,1.11-3.23,1.62-.32.2-.62.38-.91.54l-4.03,2.54,4.64-1.09c.22-.05.45-.12.7-.18.96-.26,2.15-.57,3.55-.78.33-.05.66-.11,1-.18.58-.12,1.19-.24,1.82-.27.7-.05,1.43-.1,2.18-.15l.97-.07c2.57-.03,4.74.16,6.67.61,2.11.36,4.27,1.05,6.26,1.97,1.87.9,3.67,1.79,5.08,2.83,2.83,1.9,4.41,3.48,4.43,3.49h0c.39.39.91.6,1.43.6.38,0,.76-.11,1.1-.33.93-.61,1.2-1.88.6-2.79l-.04-.06Z"/>
        <path class="cls-16" d="M200.72,124.28c-.27-.14-.56-.32-.88-.52-.84-.52-1.9-1.16-3.19-1.61-1.91-.84-4.1-1.51-6.39-1.95-2.93-.39-5.46-.46-7.75-.21-2.51.35-5.12,1.07-7.54,2.09-1.96.84-3.94,2.02-5.87,3.51-3.07,2.36-4.6,4.65-4.71,4.83l-.03.04c-.52.8-.41,1.87.26,2.55.38.39.89.6,1.43.6h0c.54,0,1.05-.21,1.43-.6l.02-.02c.15-.15,1.68-1.65,4.43-3.49,1.38-1.02,3.18-1.91,5.05-2.81,1.99-.93,4.16-1.61,6.29-1.98,1.9-.44,4.07-.63,6.61-.6l1.02.07c.74.05,1.46.1,2.17.15.62.03,1.23.15,1.81.27.34.07.67.13,1,.18,1.4.21,2.6.52,3.56.78.25.07.48.13.71.18l4.64,1.09-4.06-2.56Z"/>
      </g>
      <path class="cls-1" d="M149.57,195.46c-.31-.05-.6-.11-.85-.16.29.06.57.12.85.16Z"/>
      <path class="cls-1" d="M148.39,195.22c-.2-.04-.39-.09-.52-.12.17.04.34.08.52.12Z"/>
      <path class="cls-18" d="M148.71,195.29c-.11-.02-.22-.04-.33-.07.11.02.2.04.33.07Z"/>
      <path class="cls-18" d="M147.87,195.11c-.1-.03-.19-.05-.29-.08h-.01s.11.03.3.08Z"/>
      <path class="cls-15" d="M141.35,199.46c-.24-3.25,9.02.68,12.06.77,2.43.08,9.71-.48,10.39-.74,5.09-1.91-.28,5.43-10.54,5.81-4.7.19-11.77-3.88-11.91-5.85Z"/>
      <path class="cls-5" d="M171.5,193.2c-2.51-.12-5.09,1.98-8.12,1.66-.12-.06-.18-.06-.31-.06-.69-.12-1.38,0-2.14.18-.94.2-1.89.58-2.77.89-1.51.49-3.21.89-4.97.75h0s-.06,0-.1,0-.06.01-.1.01h0c-1.75.12-3.45-.27-4.97-.76-.88-.31-1.83-.69-2.77-.89-.76-.18-1.44-.31-2.14-.18-.13,0-.19,0-.31.06-3.02.32-5.6-1.78-8.12-1.66-.7.06-1.7-.12-2.27-.12.12.06.25.12.38.19,7.17,3.5,13.35,10.07,20.2,9.86h.2c6.85.21,13.03-6.35,20.2-9.86.13-.06.26-.12.38-.19-.57,0-1.57.19-2.27.12Z"/>
      <path class="cls-20" d="M173.6,193h0s-7.29-2.81-12.47-1.16c0,0-1.93.75-3.93,1.21-1.22.47-2.69.61-4.12.56h0c-1.09-.04-2.13-.18-2.98-.33-.28-.04-.56-.1-.85-.16-.12-.03-.22-.05-.33-.07-.18-.04-.35-.07-.52-.12-.19-.05-.3-.08-.3-.08h.01c-1.66-.45-3.08-1.01-3.08-1.01-5.18-1.65-12.47,1.16-12.47,1.16h0c-.1.05-.16.08-.16.08.57,0,1.57.19,2.27.12,2.51-.12,5.1,1.98,8.12,1.66.12-.06.18-.06.31-.06.69-.12,1.38,0,2.14.18.94.2,1.89.58,2.77.89,1.51.49,3.21.89,4.97.75h0s.06,0,.1,0,.06.01.1.01h0c1.75.12,3.45-.27,4.97-.76.88-.31,1.83-.69,2.77-.89.76-.18,1.44-.31,2.14-.18.13,0,.19,0,.31.06,3.02.32,5.6-1.78,8.12-1.66.69.06,1.7-.12,2.27-.12,0,0-.06-.03-.16-.08Z"/>
      <path class="cls-20" d="M140.85,194.71c.13.03,13.65,4.16,24.23.09l-1.22-.82h-14.29l-8.72.73Z"/>
      <path class="cls-7" d="M206.83,272.34h9.83c-.6-6.57-7.34-22.59-7.34-22.59-.68-1-1.38-1.94-2.09-2.84-9.64-12.22-21.04-15.27-24.32-15.92-7.58,9.99-14.7,15.25-21.17,17.42-17.5,5.88-30.24-10.8-34.5-17.45-1.28.24-4.01.9-7.46,2.45-5.51,2.48-12.87,7.25-19.12,16.34,0,0-.06.1-.16.29-1.01,1.87-6.61,12.51-8.96,22.3h11.65c.15,12.83-.2,22.35-.52,27.53h104.64c-.14-2.32-.29-5.51-.4-9.47-.13-4.9-.19-10.97-.1-18.06Z"/>
      <g>
        <path class="cls-4" d="M148.24,136.73c0,3.11-.9,6.33-2.43,9.46-5.34,10.91-18.34,20.69-27.54,20.69-10.38,0-18.79-8.5-20.66-20.07-.26-1.58-.39-3.22-.39-4.9,0-12.71,7.45-18.86,22.82-18.86,14.25,0,28.21,1.03,28.21,13.7Z"/>
        <path class="cls-3" d="M209.61,141.76v.13c0,14-9.26,24.98-21.1,24.98-9.41,0-22.85-10.3-27.9-21.55-1.28-2.85-2.03-5.77-2.03-8.6,0-12.66,13.95-13.7,28.21-13.7,15.28,0,22.77,6.12,22.83,18.73Z"/>
        <path class="cls-24" d="M145.81,146.19c-5.34,10.91-18.34,20.69-27.54,20.69-10.38,0-18.79-8.5-20.66-20.07,15.01-2.92,31.31-3.68,48.21-.61Z"/>
        <path class="cls-24" d="M209.61,141.76v.13c0,14-9.26,24.98-21.1,24.98-9.41,0-22.85-10.3-27.9-21.55,15.14-3.5,31.7-5.2,49.01-3.56Z"/>
        <path class="cls-12" d="M186.79,122.21c-7.97,0-17.31.17-23.17,3.75-11.97,3.36-20.33.04-20.33.04-5.94-3.62-15.29-3.79-23.26-3.79-14.86,0-23.6,5.64-23.6,19.68s9.22,25.84,21.88,25.84c11.24,0,26.7-13.35,30.06-26.14h0v-.04c.43-1.64.69-3.27.69-4.82v-.09c.73-2.2,2.2-3.14,4.35-3.14s3.62.9,4.39,3.19v.04c0,1.51.26,3.1.65,4.69v.17h.04c3.36,12.79,18.78,26.14,30.02,26.14,12.7,0,21.92-11.76,21.92-25.84s-8.74-19.68-23.64-19.68ZM118.31,166.87c-11.84,0-21.1-10.98-21.1-24.98,0-12.7,7.49-18.86,22.83-18.86,14.3,0,28.21,1.03,28.21,13.69,0,1.25-.17,2.5-.43,3.75-.13.34-.22.69-.22.69-3.36,12.96-18.78,25.71-29.29,25.71ZM153.41,131.47c-2.84,0-4.09.82-4.61,2.54-.47-2.84-1.77-5-3.66-6.63,6.68,1.98,14.17.56,16.54,0-1.98,1.77-3.32,4.09-3.7,7.24-.52-1.81-1.64-3.14-4.57-3.14ZM188.51,166.87c-11.8,0-29.93-16.19-29.93-30.15,0-12.66,13.95-13.69,28.21-13.69,15.33,0,22.83,6.16,22.83,18.86,0,14-9.26,24.98-21.1,24.98Z"/>
      </g>
      <path class="cls-12" d="M174.12,34.68l8.63,4.52c-18.3-5.6-37.14-1.69-45.81.77-3.15.69-4.92,1.58-4.92,1.58.76-.02,1.54.02,2.32.05,2.65.15,6.92.7,9.46,2.62-3.81-1.55-10.37-2.11-21.37,2.15-1.54.6-2.95,1.23-4.27,1.88-4.68,2.04-14.04,6.08-32.03,13.73,0,0,5.94,2.3,13,3.08-3.38,3.95-6.89,7.33-12.75,9.12-15.3,4.7-19.74-1.33-19.74-1.33,0,0,6.64,10.55,18.43,10.58,1.9,0,2.09-.04,2.11-.05-.02.04-4.42,11.32-5.26,19.75-.87,8.61,1.83,14.5,2.66,30.61.72,13.77,4.6,6.71,9.22,16.86,1.56,3.4,1.63,7.23,1.63,7.23,1.71.4,6.21-8.26,2.98-23.32-2.1-9.77,8.29-46.82,33.35-39.6,3.52,1.02,6.42,2.27,8.96,3.51,6.1,3.06,56.19,29.79,37.91,72.6,0,0,19.14-30.05,15.81-61.8,2.53,7.21,4.34,17.26,4.59,31.35,0,0,9.71-19.78,4.97-39.36,5.4,6.7,8.05,16.95,6.75,30.98-2.29,24.96,2.01,24.78,2.01,24.78,1.28,0-.09-6.64,4.21-11.23,4.3-4.58,10.84-20,10.84-35.4,4.57-75.66-53.69-75.68-53.69-75.68Z"/>
      <path class="cls-19" d="M209.99,201.58c-.6-3.26-.89-5.12-.95-6.43h-.59c2.01-3.25,3.53-6.72,4.53-10.33h.01c.05-.18.09-.38.13-.57.38-1.45.68-2.92.87-4.41,1.79-11.74.05-25.39-1.95-35.55h-1.2c-3.5,9.36-5.69,20.96-5.69,20.96,0,0-1.78,3.05-2.16,4.4-1.21,4.3-2.22,7.4-2.57,8.42-4.64,11.88-12.93,21.61-23.36,27.6.7-2.32,1.11-4.95,1.11-7.77,0-6.73-2.26-12.5-5.48-15.04-4.13-5.67-11.38-.21-19.69-.02h0c-8.33-.16-15.6-6.21-19.74-.53-3.23,2.54-5.48,8.31-5.48,15.04,0,2.82.41,5.45,1.11,7.77-10.43-5.99-18.72-15.72-23.36-27.6-.35-1.03-1.36-4.12-2.57-8.42-.38-1.36-2.16-4.4-2.16-4.4,0,0-2.2-11.59-5.69-20.95h0s-1.2,0-1.2,0c-2.01,10.16-3.74,23.81-1.95,35.55.2,1.49.49,2.97.87,4.41.05.19.08.38.13.57h.01c1,3.6,2.52,7.07,4.53,10.32h-.59c-.05,1.31-.35,3.17-.95,6.43-1.62,8.95-6.45,11.3-6.45,11.3,0,0,7.46-3.42,9.26-5.74.87-1.12,3.18-4.2,3.89-5.17.02.02.05.04.07.07-.41,1.03-1.39,4.36-.01,10.77,1.8,8.39,9.2,14.04,9.2,14.04,0,0-4.43-6.67-3.2-13.98,0,0-.26,2.93,6.95,11.07,6.89,7.78,19.46,38.35,20.57,38.45-.1-.25-.23-11.35-.32-14.65.52.17,1.05.43,1.57.77,0,.03,0,.05,0,.08,0,.04,0,.07,0,.11.07-.02.13-.04.19-.06,4.72,3.16,9.61,11.93,14.68,11.93.2,0,.39,0,.59-.01v.55c.21,0,.42.01.63.01,5.7,0,11.19-11.11,16.44-12.82-.09,3.3-.22,14.4-.32,14.65,1.12-.1,13.69-30.67,20.57-38.45,7.21-8.14,6.95-11.07,6.95-11.07,1.23,7.3-3.2,13.98-3.2,13.98,0,0,7.4-5.65,9.2-14.04,1.38-6.41.4-9.74-.01-10.77.02-.03.05-.05.07-.07.71.97,3.02,4.05,3.89,5.17,1.8,2.32,9.26,5.74,9.26,5.74,0,0-4.83-2.35-6.45-11.3ZM170.8,206.76c-1.72.99-3.79,1.82-6.11,2.49,0-.04.01-.07.01-.11,0-2.52-5.23-5.11-11.71-5.13h0c-6.5.02-11.75,2.06-11.75,4.58,0,.04,0,.07.01.11-2.32-.67-4.39-1.5-6.11-2.49-.91-2.56-1.47-5.58-1.47-8.84,0-.89.04-1.76.11-2.6,3.53-4.41,9,.53,15.36-.45,1.23-.19,2.5-.3,3.79-.32h0c1.31.02,2.59.68,3.84.87,6.36.98,11.84-3.96,15.36.45.08.85.11,1.72.11,2.6,0,3.27-.55,6.29-1.47,8.84Z"/>
    </g>
  </g>
</svg>