<?xml version="1.0" encoding="UTF-8"?>
<svg xmlns="http://www.w3.org/2000/svg" xmlns:xlink="http://www.w3.org/1999/xlink" viewBox="0 0 223.34 224.34">
  <defs>
    <style>
      .cls-1 {
        fill: none;
      }

      .cls-2 {
        fill: #ba9d82;
      }

      .cls-3 {
        fill: #ccad8a;
      }

      .cls-4 {
        fill: #986b4e;
      }

      .cls-5 {
        fill: #4a473e;
      }

      .cls-6 {
        fill: #44361f;
      }

      .cls-7 {
        fill: #d7bd9d;
      }

      .cls-8 {
        fill: #4c4745;
      }

      .cls-9 {
        fill: #c1a587;
      }

      .cls-10 {
        fill: #3f3a37;
      }

      .cls-11 {
        isolation: isolate;
      }

      .cls-12 {
        fill: #dac6a4;
      }

      .cls-13 {
        fill: #8c6446;
      }

      .cls-14 {
        fill: #544e4d;
      }

      .cls-15 {
        fill: url(#linear-gradient-2);
      }

      .cls-15, .cls-16 {
        mix-blend-mode: multiply;
        opacity: .12;
      }

      .cls-17 {
        fill: #fff;
      }

      .cls-18 {
        fill: #dcc5a0;
      }

      .cls-19 {
        fill: #272213;
      }

      .cls-20 {
        fill: #ecdab6;
      }

      .cls-21 {
        fill: #b8987d;
      }

      .cls-22 {
        fill: #435975;
      }

      .cls-23 {
        fill: #bfb2cd;
      }

      .cls-24 {
        fill: #ebd9b5;
      }

      .cls-25 {
        fill: #37322f;
      }

      .cls-26 {
        fill: #a98d76;
      }

      .cls-27 {
        fill: #678dc5;
      }

      .cls-16 {
        fill: url(#linear-gradient);
      }

      .cls-28 {
        fill: #eff0f0;
        opacity: .55;
      }

      .cls-29 {
        fill: #8f9daa;
      }

      .cls-30 {
        fill: #b7967d;
      }

      .cls-31 {
        clip-path: url(#clippath);
      }

      .cls-32 {
        fill: #d2bb9b;
      }

      .cls-33 {
        fill: #b5957e;
      }

      .cls-34 {
        fill: #2d2e28;
      }
    </style>
    <clipPath id="clippath">
      <rect class="cls-1" x="101.8" y="151.77" width="24.43" height="14.45"/>
    </clipPath>
    <linearGradient id="linear-gradient" x1="84.18" y1="156.22" x2="83.79" y2="143.55" gradientUnits="userSpaceOnUse">
      <stop offset="0" stop-color="#fff"/>
      <stop offset=".09" stop-color="#f7f7f7"/>
      <stop offset=".22" stop-color="#e4e4e4"/>
      <stop offset=".37" stop-color="#c3c3c3"/>
      <stop offset=".54" stop-color="#969696"/>
      <stop offset=".73" stop-color="#5c5c5c"/>
      <stop offset=".94" stop-color="#171717"/>
      <stop offset="1" stop-color="#000"/>
    </linearGradient>
    <linearGradient id="linear-gradient-2" x1="143.36" y1="155.75" x2="142.2" y2="147.87" xlink:href="#linear-gradient"/>
  </defs>
  <g class="cls-11">
    <g id="Layer_2" data-name="Layer 2">
      <g id="Layer_1-2" data-name="Layer 1">
        <g>
          <rect class="cls-23" width="223.34" height="223.59"/>
          <g>
            <path class="cls-18" d="M112.96,136.96v87.38h-58.29c-.95-.3-1.42-.46-1.42-.46,0-6.13.61-11.51,1.66-16.23.89-3.88,2.05-7.34,3.44-10.39,3.08-6.8,7.21-11.67,11.46-15.17,1.4-1.15,2.82-2.16,4.21-3.02,2.35-1.47,4.64-2.57,6.7-3.37,1.07-.43,2.07-.78,3-1.05.32-.1.61-.19.91-.27.36-.1.67-.18.99-.26.89-.22,1.62-.38,2.17-.46.73-.14,1.15-.18,1.15-.18.22,0,.41-.02.63-.05,1.84-.24,3.32-1.53,4.52-3.59.89-1.53,1.64-3.5,2.23-5.75.24-.89.43-1.77.63-2.75.28-1.61.55-3.3.81-5.08.08-1.07.22-2.11.38-3.22.51-5.35.65-11.21.65-16.75,0,0,7.84.65,14.18.65Z"/>
            <path class="cls-24" d="M172.93,223.88s-.51.16-1.38.46h-58.59v-87.38h.16c6.3,0,14.22-.65,14.22-.65,0,5.51.14,11.27.67,16.63.14,1.04.28,2.11.38,3.14.24,1.85.51,3.58.85,5.2v.03c.1.73.28,1.39.43,2.08.57,2.27,1.26,4.28,2.11,5.87,1.05,2,2.33,3.38,3.87,3.94.49.18,1.01.27,1.56.27,0,0,.28.03.77.11.81.13,2.19.38,3.97.91.28.08.55.16.85.26.16.05.32.1.47.16.41.13.83.29,1.26.45,2.17.8,4.66,1.93,7.27,3.53.99.59,1.98,1.26,2.98,2v.02c4.78,3.53,9.58,8.72,13.04,16.35,1.34,2.95,2.49,6.29,3.36,10.01,1.11,4.82,1.74,10.33,1.74,16.62Z"/>
            <g class="cls-31">
              <path class="cls-2" d="M126.23,159.53v.04c-1.11,1.72-4.84,6.65-12.23,6.65h-.07c-7-.04-11.09-5.12-12.13-6.62.22-1.5.43-3.08.61-4.72.07-.97.18-1.97.29-3,3.41.86,7.14,1.4,11.09,1.47h.14c4.09-.07,7.86-.64,11.37-1.57.11.97.22,1.97.29,2.93.18,1.72.39,3.33.65,4.83"/>
            </g>
            <path class="cls-3" d="M113.42,43.74c-46.71,0-46.96,39.17-44.88,64.82-3.19-6.08-12.7-4.22-11.91,5.37.75,9.23,14.34,13.93,13.96,12.91,7.07,18.97,25.8,33.27,42.84,33.27h.36V43.74h-.36"/>
            <path class="cls-26" d="M59.61,109.88c2.3-3.72,5.88-2.11,6.74-1.29.93.89,1.69,2.04,1.11,4.22-.32,1.25-1.61,1.36-1.33,3.22.36,2.11,1.33,2.22,1.9,2.72.54.47,1.22.82,1.54,1.72.36.89.39,1.82.22,2.65-.36,1.5-2.55.29-4.02-.36-.97-.46-4.05-3.08-4.84-3.93-1.94-2.22-2.87-6.51-1.33-8.94"/>
            <path class="cls-7" d="M113.67,43.74c46.71,0,46.96,39.17,44.92,64.82,3.19-6.08,12.67-4.22,11.88,5.37-.72,9.23-14.33,13.94-13.96,12.91-6.89,18.97-25.8,33.27-42.84,33.27h-.25l-.11-116.36h.36"/>
            <path class="cls-26" d="M167.49,109.88c-2.3-3.72-5.85-2.11-6.75-1.29-.93.89-1.65,2.04-1.11,4.22.32,1.25,1.61,1.36,1.33,3.22-.36,2.11-1.33,2.22-1.87,2.72-.54.47-1.26.82-1.58,1.72-.32.89-.39,1.82-.22,2.65.36,1.5,2.55.29,4.02-.36,1-.46,4.05-3.08,4.84-3.93,1.97-2.22,2.87-6.51,1.33-8.94"/>
            <path class="cls-18" d="M113.05,54.79c-15.36,0-26.62,4.47-33.4,13.27-9.51,12.34-9.15,31.16-5.67,44.68,1.08,4.15,1.65,15.27,2.37,19.35,3.34,18.28,23.46,28.01,36.7,28.01h.36V54.79h-.22"/>
            <path class="cls-24" d="M146.42,68.1c-6.74-8.76-17.87-13.24-33.01-13.31v105.31c15.14-.18,33.26-10.84,36.34-28.01.75-4.08,1.29-15.2,2.37-19.35,3.52-13.49,3.87-32.27-5.7-44.64"/>
            <path class="cls-1" d="M111.54,137.6c-.21-.04-.41-.07-.58-.11.2.04.39.08.58.11Z"/>
            <path class="cls-1" d="M110.74,141.39c-.13-.03-.26-.06-.35-.08.12.03.23.05.35.08Z"/>
            <path class="cls-30" d="M110.96,141.43c-.07-.02-.15-.03-.22-.05.07.02.14.03.22.05Z"/>
            <path class="cls-30" d="M110.39,141.31c-.07-.02-.13-.04-.2-.05h0s.08.02.2.05Z"/>
            <path class="cls-7" d="M104.7,127.77c-.18-3.64,6.66-1.33,8.92-1.22,1.78.09,7.2-1.15,7.67-.83,3.19,2.16-3.38,6.5-7.78,6.5-1.17,0-8.7-2.26-8.81-4.46Z"/>
            <path class="cls-1" d="M71.53,87.62c-.42,1.4-.71,2.92-.91,4.55,0,0,.62-2.57,1.97-6.36-.58.81-.97,1.46-1.07,1.82Z"/>
            <path class="cls-6" d="M100.37,55.05l-.19.19.03.06c.06-.1.1-.19.16-.26Z"/>
            <path class="cls-1" d="M111.68,139.41c-.22-.04-.42-.08-.59-.11.2.04.4.08.59.11Z"/>
            <path class="cls-1" d="M110.86,139.25c-.14-.03-.27-.06-.36-.08.12.03.24.05.36.08Z"/>
            <path class="cls-33" d="M111.09,139.3c-.08-.02-.15-.03-.23-.05.07.02.14.03.23.05Z"/>
            <path class="cls-33" d="M110.51,139.17c-.07-.02-.13-.04-.2-.06h0s.08.02.21.06Z"/>
            <path class="cls-17" d="M79.9,99.36s3.56,11.53,9.68,12.47c6.12.94,12.74-.93,12.74-.93,0,0,.63-13.55-2.5-15.32-3.13-1.78-10.35-4.35-19.92,3.78Z"/>
            <path class="cls-32" d="M102.33,110.86s-.14.03-.45.14c-.08-4.16-.57-9.86-2.52-10.96-2.91-1.68-9.48-4.04-18.25,2.42-.8-1.79-1.2-3.14-1.2-3.14,9.59-8.14,16.82-5.58,19.92-3.8,3.14,1.78,2.5,15.34,2.5,15.34Z"/>
            <path class="cls-27" d="M98.71,104.99c0,2.62-2.7,4.75-6.02,4.75s-6.02-2.13-6.02-4.75,2.7-4.75,6.02-4.75,6.02,2.13,6.02,4.75Z"/>
            <path class="cls-22" d="M92.41,108.16c-1.74-.11-3.07-1.5-2.92-3.02.16-1.52,1.76-2.71,3.5-2.6,1.74.11,3.07,1.5,2.92,3.02-.16,1.52-1.76,2.71-3.5,2.6Z"/>
            <path class="cls-19" d="M92.56,107.61c-1.21-.08-2.47-1.13-2.33-2.42.14-1.29,1.59-2.17,2.8-2.09,1.21.08,2.46,1.13,2.33,2.42-.13,1.29-1.59,2.16-2.8,2.08Z"/>
            <path class="cls-17" d="M91.58,104.42c-.05.47-.66.81-1.35.76-.7-.05-1.22-.46-1.17-.93.05-.47.65-.81,1.35-.76.7.04,1.23.46,1.18.93Z"/>
            <path class="cls-17" d="M95.48,107.12c-.03.23-.33.4-.68.38-.35-.02-.61-.23-.59-.46.03-.23.33-.4.68-.38.35.02.61.23.59.46Z"/>
            <path class="cls-1" d="M111.78,141.14c-.22-.04-.42-.08-.59-.11.2.04.4.08.59.11Z"/>
            <path class="cls-1" d="M110.96,140.98c-.14-.03-.27-.06-.36-.08.12.03.24.05.36.08Z"/>
            <path class="cls-33" d="M111.19,141.03c-.08-.02-.15-.03-.23-.05.07.02.14.03.23.05Z"/>
            <path class="cls-33" d="M110.6,140.9c-.07-.02-.13-.04-.2-.06h0s.08.02.21.06Z"/>
            <path class="cls-1" d="M111.55,140.73c-.23-.04-.45-.08-.64-.12.22.05.42.09.64.12Z"/>
            <path class="cls-1" d="M110.67,140.56c-.15-.03-.29-.07-.39-.09.13.03.25.06.39.09Z"/>
            <path class="cls-30" d="M110.91,140.61c-.08-.02-.16-.03-.24-.05.08.02.15.03.24.05Z"/>
            <path class="cls-30" d="M110.29,140.47c-.07-.02-.14-.04-.22-.06h0s.08.03.22.06Z"/>
            <path class="cls-1" d="M111.37,140.12c-.23-.04-.45-.08-.64-.12.22.05.43.09.64.12Z"/>
            <path class="cls-1" d="M110.49,139.95c-.15-.03-.29-.07-.39-.09.13.03.25.06.39.09Z"/>
            <path class="cls-30" d="M110.73,140c-.08-.02-.16-.03-.24-.05.08.02.15.03.24.05Z"/>
            <path class="cls-30" d="M110.11,139.86c-.07-.02-.14-.04-.22-.06h0s.08.03.22.06Z"/>
            <path class="cls-1" d="M111.91,140.03c-.23-.04-.43-.08-.61-.12.21.04.41.09.61.12Z"/>
            <path class="cls-1" d="M111.06,139.87c-.14-.03-.28-.06-.37-.09.12.03.25.06.37.09Z"/>
            <path class="cls-30" d="M111.29,139.92c-.08-.02-.16-.03-.23-.05.08.02.14.03.23.05Z"/>
            <path class="cls-30" d="M110.69,139.78c-.07-.02-.14-.04-.21-.06h0s.08.03.22.06Z"/>
            <path class="cls-17" d="M147.29,98.97s-3.56,11.53-9.68,12.47c-6.12.94-12.74-.93-12.74-.93,0,0-.63-13.55,2.5-15.32,3.13-1.78,10.35-4.35,19.92,3.78Z"/>
            <path class="cls-32" d="M124.86,110.47s.14.03.45.14c.08-4.16.57-9.86,2.52-10.96,2.91-1.68,9.48-4.04,18.25,2.42.8-1.79,1.2-3.14,1.2-3.14-9.59-8.14-16.82-5.58-19.92-3.8-3.14,1.78-2.5,15.34-2.5,15.34Z"/>
            <ellipse class="cls-27" cx="134.5" cy="104.6" rx="6.02" ry="4.75"/>
            <path class="cls-22" d="M134.78,107.76c1.74-.11,3.07-1.5,2.92-3.02-.16-1.52-1.76-2.71-3.5-2.6-1.74.11-3.07,1.5-2.92,3.02.16,1.52,1.76,2.71,3.5,2.6Z"/>
            <path class="cls-19" d="M134.63,107.21c1.21-.08,2.47-1.13,2.33-2.42-.14-1.29-1.59-2.17-2.8-2.09-1.21.08-2.46,1.13-2.33,2.42.13,1.29,1.59,2.16,2.8,2.08Z"/>
            <path class="cls-17" d="M135.61,104.03c.05.47.66.81,1.35.76.7-.05,1.22-.46,1.17-.93-.05-.47-.65-.81-1.35-.76-.7.04-1.22.46-1.18.93Z"/>
            <path class="cls-17" d="M131.71,106.73c.03.23.33.4.68.38.35-.02.61-.23.59-.46-.03-.23-.33-.4-.68-.38-.35.02-.61.23-.59.46Z"/>
            <g>
              <path class="cls-13" d="M106,99.17c-.05-.06-1.16-1.39-3.43-2.76-1.42-.86-2.82-1.52-4.26-2-1.76-.58-3.65-.99-5.48-1.19-1.66-.15-3.5-.11-5.64.12-1.64.25-3.23.63-4.59,1.1-.97.26-1.73.63-2.34.93-.23.11-.45.22-.66.31l-2.92,1.45,3.37-.62c.16-.03.33-.07.51-.1.7-.15,1.56-.33,2.58-.44.24-.03.48-.07.73-.1.42-.07.86-.14,1.32-.15.51-.03,1.04-.06,1.58-.09l.71-.04c1.87-.02,3.44.09,4.84.35,1.53.21,3.1.6,4.54,1.12,1.36.51,2.67,1.02,3.69,1.61,2.06,1.08,3.2,1.99,3.21,1.99h0c.28.22.66.34,1.04.34.28,0,.55-.06.8-.19.68-.35.87-1.07.44-1.59l-.03-.03Z"/>
              <path class="cls-13" d="M147.89,95.67c-.19-.08-.41-.18-.64-.3-.61-.3-1.38-.66-2.31-.92-1.38-.48-2.98-.86-4.64-1.11-2.13-.23-3.96-.26-5.63-.12-1.82.2-3.72.61-5.48,1.19-1.43.48-2.86,1.15-4.26,2-2.23,1.35-3.34,2.66-3.42,2.76l-.02.02c-.38.46-.3,1.07.19,1.45.28.22.64.34,1.04.34h0c.39,0,.76-.12,1.04-.34h.01c.11-.09,1.22-.95,3.21-2,1-.58,2.31-1.09,3.67-1.6,1.45-.53,3.02-.92,4.57-1.13,1.38-.25,2.96-.36,4.8-.34l.74.04c.54.03,1.06.06,1.58.09.45.02.89.09,1.31.15.25.04.49.08.73.1,1.02.12,1.88.3,2.58.44.18.04.35.07.51.11l3.37.62-2.95-1.46Z"/>
            </g>
            <path class="cls-1" d="M110.75,142.88c-.23-.04-.44-.08-.62-.12.21.05.41.09.62.12Z"/>
            <path class="cls-1" d="M109.89,142.71c-.14-.03-.28-.06-.38-.09.12.03.25.06.38.09Z"/>
            <path class="cls-21" d="M110.13,142.76c-.08-.02-.16-.03-.24-.05.08.02.15.03.24.05Z"/>
            <path class="cls-21" d="M109.52,142.63c-.07-.02-.14-.04-.21-.06h0s.08.03.22.06Z"/>
            <path class="cls-20" d="M104.78,145.79c-.18-2.36,6.55.49,8.75.56,1.76.06,7.05-.35,7.54-.54,3.7-1.39-.2,3.94-7.65,4.22-3.41.14-8.54-2.82-8.64-4.25Z"/>
            <path class="cls-12" d="M126.67,141.24c-1.83-.09-3.7,1.44-5.89,1.2-.09-.04-.13-.04-.23-.04-.5-.09-1,0-1.55.13-.68.14-1.37.42-2.01.65-1.1.36-2.33.64-3.61.55h0s-.04,0-.07,0-.04,0-.07,0h0c-1.27.09-2.51-.2-3.61-.55-.64-.22-1.33-.5-2.01-.65-.55-.13-1.05-.22-1.55-.13-.09,0-.14,0-.23.04-2.2.23-4.07-1.29-5.89-1.2-.5.04-1.24-.09-1.65-.09.09.04.18.09.28.13,5.2,2.54,9.69,7.31,14.66,7.16h.14c4.97.15,9.46-4.61,14.66-7.16.09-.04.19-.09.28-.13-.41,0-1.14.13-1.65.09Z"/>
            <path class="cls-9" d="M128.2,141.1h0s-5.29-2.04-9.05-.84c0,0-1.4.55-2.85.88-.88.34-1.95.44-2.99.4h0c-.79-.03-1.54-.13-2.16-.24-.21-.03-.41-.07-.62-.12-.09-.02-.16-.03-.24-.05-.13-.03-.25-.05-.38-.09-.14-.03-.22-.06-.22-.06h0c-1.2-.33-2.24-.73-2.24-.73-3.76-1.2-9.05.84-9.05.84h0c-.07.03-.12.06-.12.06.41,0,1.14.13,1.65.09,1.82-.09,3.7,1.44,5.89,1.2.09-.04.13-.04.23-.04.5-.09,1,0,1.55.13.68.14,1.37.42,2.01.65,1.1.36,2.33.64,3.61.55h0s.04,0,.07,0,.04,0,.07,0h0c1.27.09,2.51-.2,3.61-.55.64-.22,1.33-.5,2.01-.65.55-.13,1.05-.22,1.55-.13.09,0,.14,0,.23.04,2.2.23,4.07-1.29,5.89-1.2.5.04,1.24-.09,1.65-.09,0,0-.04-.02-.12-.06Z"/>
            <path class="cls-9" d="M104.42,142.34c.1.02,9.91,3.02,17.59.07l-.88-.6h-10.38l-6.33.53Z"/>
            <path class="cls-5" d="M158.98,200.45h-92.13c2.8-5.08,5.99-10.81,7.15-21.38,2.35-1.47,4.64-2.57,6.7-3.37,1.07-.43,2.07-.78,3-1.05.32-.1.61-.19.91-.27.36-.1.67-.18.99-.26.89-.22,1.62-.38,2.17-.46,6.68,7.76,18.47,20.37,24.87,20.42h.02c.1,0,.18,0,.3-.02,6.56-.34,18.43-12.9,25.03-20.47.81.13,2.19.38,3.97.91.28.08.55.16.85.26.16.05.32.1.47.16.41.13.83.29,1.26.45,2.17.8,4.66,1.93,7.27,3.53,1.17,10.7,4.35,16.44,7.17,21.55Z"/>
            <path class="cls-5" d="M61.02,224.34h103.8c-.24-3.17-.6-7.65-.96-10.6H61.98c-.37,2.94-.72,7.43-.96,10.6Z"/>
            <path class="cls-29" d="M158.99,200.45h-92.14c-2.13,3.85-4.05,7.34-4.73,12.29-.04.31-.09.65-.13,1.01h101.88c-.04-.36-.09-.7-.13-1.01-.68-4.95-2.6-8.44-4.73-12.29Z"/>
            <g>
              <path class="cls-13" d="M156.7,170.78c-.46-2.27-.69-3.56-.73-4.47h-.45c1.55-2.26,2.72-4.67,3.48-7.18h0c.04-.13.07-.26.1-.39.29-1.01.52.38.67-.66,1.57-9.33-.4-17.42-2.17-24.61.04-4.91-.16-10.19-.65-15.86-.12-1.33-2.03-1.43-2.27-.12-1.53,8.11-5.13,18.88-13.62,23.72-3.57-3.07-10.04-11.29-20.14-12.79,0,0-3.77,1.29-7.07,1.29s-6.15-1.29-6.15-1.29c-10.64,1.59-18.22,10.24-21.61,13.27-9.13-4.58-12.93-15.82-14.51-24.2-.25-1.31-2.16-1.2-2.27.12-.33,3.87-.54,7.56-.62,11.08-1.78,6.02-5.45,17.61-3.46,29.4.15,1.04.38-.35.67.66.03.13.07.27.1.4h0c.77,2.51,1.94,4.91,3.48,7.17h-.45c-.04.91-.27,2.2-.73,4.47-1.25,6.23-4.96,7.86-4.96,7.86,0,0,5.74-2.38,7.13-3.99.67-.78,2.45-2.92,2.99-3.6.02.02.04.03.06.05-.32.72-1.07,3.03-.01,7.49,1.39,5.83,7.08,9.76,7.08,9.76,0,0-2.09-2.84-2.54-6.52-.09-.74.86-1.1,1.27-.47.77,1.19,2.05,2.82,4.16,4.97,5.3,5.41,14.97,13.36,15.83,13.43-.05-.11-.1-3.07-.15-5.86-.03-1.56,1.53-2.67,3-2.11.19.07.38.14.57.21,2.91,2.68,5.91,6.49,8.99,6.49.26,0,.52-.01.78-.02h0c.26,0,.52.02.78.02,2.83,0,5.59-3.22,8.29-5.82.44-.14.89-.29,1.35-.45,1.45-.51,2.96.6,2.93,2.13-.05,3.21-.11,6.71-.15,6.82.86-.07,10.53-9.43,15.83-14.84,2.11-2.15,3.39-3.78,4.16-4.97.41-.62,1.36-.27,1.27.47-.45,3.67-2.55,6.52-2.55,6.52,0,0,5.69-3.93,7.08-9.76,1.06-4.45.31-6.77,0-7.49.02-.02.04-.03.06-.05.55.67,2.32,2.82,2.99,3.6,1.38,1.61,7.13,3.99,7.13,3.99,0,0-3.72-1.63-4.96-7.86ZM113.15,151.59c-7.55.24-10.85-2.52-15.13-4.27,1.94-1.18,5.85-5.75,12.52-5.15,1.46-.81-.24-1.21,13.67,1.56,1.71,1.12,3.48,2.25,5.2,3.23-4.34,1.91-8.2,4.89-16.26,4.63Z"/>
              <path class="cls-16" d="M66.1,143.71l-.34,2.88s18.7,12.15,36.32,2.63l-1.51-.73-34.47-4.78Z"/>
              <path class="cls-4" d="M143.67,130.28s-19.35-21.27-28.35-5c0,0-.79,1.02-1.62,2.62-.82-1.61-1.61-2.62-1.61-2.62-8.99-16.26-28.34,5-28.34,5,0,0-16.14,16.83-27.92.84,0,0,9.74,24.72,41.94,18.02,8.92-1.85,13.65-4.9,15.94-8.2,2.29,3.3,7.02,6.35,15.93,8.2,32.2,6.7,41.94-18.02,41.94-18.02-11.77,15.99-27.91-.84-27.91-.84Z"/>
              <path class="cls-15" d="M124.82,149.18s17.53,8.84,34.7-2.59l-.15-1.53s-12.73,9.23-32.9,3.32l-1.65.8Z"/>
            </g>
            <g>
              <path class="cls-28" d="M69.2,106.84s0,10.48,14.85,12.32c0,0,20.32,2.83,21.75-3.5l1.95-9.6-8.15-4.79-15.55-1.75-14.85,3.09v4.23Z"/>
              <path class="cls-28" d="M156.47,106.79s0,10.48-14.85,12.32c0,0-20.32,2.83-21.75-3.5l-1.95-9.6,8.15-4.79,15.55-1.75,14.85,3.09v4.23Z"/>
              <path class="cls-34" d="M159.06,100.86c-.27-.49-4.27-1.14-10.9-1.73-5.6-.45-14.63-.15-18.16.3-1.47.2-4.1.64-6.73,1.29-2.9.69-5.8,1.63-7,1.88-1.16.22-2.07.31-3.03.27v-.02c-.07,0-.14,0-.21,0-.07,0-.14,0-.22,0-.03,0-.06,0-.08,0-.03,0-.06,0-.08,0-.07,0-.15,0-.22,0-.07,0-.14,0-.21,0v.02c-.96.04-1.87-.05-3.03-.27-1.2-.25-4.1-1.19-7-1.88-2.63-.64-5.26-1.09-6.73-1.29-3.53-.45-12.56-.74-18.16-.3-6.63.59-9.91,1.24-10.17,1.73-.17.35-.57,4.85-.03,5.29.06.06.14.12.23.19,1.32.99,1.12,1.5,2.77,1.5h1.54c.7-5.16,4.58-5.65,9.76-6.24,4.93-.54,9.33-.3,12.29,0,3,.4,11.75,1.88,12.42,4.11.7,2.28.31,4.69-.49,7.91-.12.51.2,1.02.66,1.02h.93c.3-.87.57-1.78.77-2.75.5-2.52,1.23-4.01,2.47-4.45.49-.14,1.22-.27,1.98-.29.07,0,.14,0,.22,0,.03,0,.06,0,.08,0,.03,0,.06,0,.08,0,.07,0,.14,0,.22,0,.76.02,1.5.15,1.98.29,1.23.45,1.97,1.93,2.47,4.45.2.97.47,1.88.77,2.75h.93c.45,0,.78-.51.66-1.02-.8-3.21-1.19-5.63-.49-7.91.67-2.23,9.42-3.72,12.42-4.11,2.97-.3,7.36-.54,12.29,0,4.36.49,7.79.92,9.2,4.11.56,1.28,1.81,2.12,3.2,2.12h.32c.78,0,.45-.26,1.06-.75.52-.41,1.02-.72,1.26-.94.53-.45.13-4.95-.03-5.29Z"/>
            </g>
            <g>
              <g>
                <path class="cls-29" d="M112.34,71.16l-45.06-.37c-8.95,4.31-10.82,10.35-10.82,10.35-1.36,3.64,25.87,9.22,25.87,9.22l30.01.92v-20.13Z"/>
                <path class="cls-14" d="M112.34,90.2c-50.87-.54-55.88-9.05-55.88-9.05,2.83,11.31,39.53,12.5,55.88,12.47v-3.42Z"/>
                <path class="cls-29" d="M112.34,71.16l45.06-.37c8.95,4.31,10.82,10.35,10.82,10.35,1.36,3.64-25.87,9.22-25.87,9.22l-30.01.92v-20.13Z"/>
                <path class="cls-14" d="M112.34,90.2c50.87-.54,55.88-9.05,55.88-9.05-2.83,11.31-39.53,12.5-55.88,12.47v-3.42Z"/>
              </g>
              <g>
                <path class="cls-10" d="M112.6,24.47l1.5-1.23s19.31-1.11,34.73,11.7c0,0,10.19,4.15,8.53,27.22l1.31,8.55c.37,2.43-1.44,4.73-4.29,5.42-2,.49-4.22.98-5.82,1.19l-35.96-52.85Z"/>
                <path class="cls-14" d="M154.82,75.7s-4.04-15.52-1.2-20.44c0,0,7.34-17.73-16.77-24.51l-24.25-6.28v54.8s35.18,0,42.22-3.57Z"/>
                <path class="cls-10" d="M112.6,24.47l-1.5-1.23s-19.31-1.11-34.73,11.7c0,0-10.19,4.15-8.53,27.22l-1.31,8.55c-.37,2.43,1.44,4.73,4.29,5.42,2,.49,4.22.98,5.82,1.19l35.96-52.85Z"/>
                <path class="cls-14" d="M112.61,24.47v54.79s-35.19,0-42.22-3.55c0,0,3.3-12.67,1.85-18.76-.15-.63-.37-1.22-.65-1.7,0,0-7.35-17.72,16.76-24.5l24.26-6.27Z"/>
                <rect class="cls-8" x="111.33" y="24.47" width="1.27" height="17.88"/>
                <path class="cls-8" d="M112.61,42.35v36.92s-35.19,0-42.22-3.55c0,0,3.3-12.67,1.85-18.76l.03-.13s27.69-14.9,39.69-14.47h.65Z"/>
                <path class="cls-8" d="M111.97,42.35v36.92s35.71,0,42.85-3.55c0,0-3.35-12.67-1.88-18.76l-.03-.13s-28.1-14.9-40.28-14.47h-.66Z"/>
                <path class="cls-25" d="M118.32,23.39c0,1.33-2.56,2.41-5.72,2.41s-5.72-1.08-5.72-2.41,2.56-2.41,5.72-2.41,5.72,1.08,5.72,2.41Z"/>
              </g>
            </g>
          </g>
        </g>
      </g>
    </g>
  </g>
</svg>