<?xml version="1.0" encoding="UTF-8"?>
<svg id="Layer_2" data-name="Layer 2" xmlns="http://www.w3.org/2000/svg" xmlns:xlink="http://www.w3.org/1999/xlink" viewBox="0 0 223.34 224.29">
  <defs>
    <style>
      .cls-1 {
        fill: none;
      }

      .cls-2 {
        fill: #462e1b;
      }

      .cls-3 {
        fill: #ba9d82;
      }

      .cls-4 {
        fill: #cd860e;
      }

      .cls-5 {
        fill: #ccad8a;
      }

      .cls-6 {
        fill: #4f3232;
      }

      .cls-7 {
        fill: #e9be00;
      }

      .cls-8 {
        fill: #44361f;
      }

      .cls-9 {
        fill: #d7bd9d;
      }

      .cls-10 {
        fill: #c1a587;
      }

      .cls-11 {
        fill: #dac6a4;
      }

      .cls-12 {
        fill: #fff;
      }

      .cls-13 {
        fill: #dcc5a0;
      }

      .cls-14 {
        fill: #272213;
      }

      .cls-15 {
        fill: #ecdab6;
      }

      .cls-16 {
        fill: #b8987d;
      }

      .cls-17 {
        fill: #af742a;
      }

      .cls-18 {
        fill: #ebd9b5;
      }

      .cls-19 {
        fill: #a98d76;
      }

      .cls-20 {
        fill: #714223;
      }

      .cls-21 {
        fill: #b7967d;
      }

      .cls-22 {
        clip-path: url(#clippath);
      }

      .cls-23 {
        fill: #d2bb9b;
      }

      .cls-24 {
        fill: #b5957e;
      }
    </style>
    <clipPath id="clippath">
      <rect class="cls-1" x="102.39" y="155.35" width="25.1" height="14.89"/>
    </clipPath>
  </defs>
  <g id="Layer_1-2" data-name="Layer 1">
    <g>
      <rect class="cls-17" width="223.34" height="224.17"/>
      <path class="cls-6" d="M162.69,142.52c-.51-2.26-.75-3.55-.8-4.45h-.49c1.68-2.25,2.96-4.65,3.8-7.15h0c.04-.13.07-.26.11-.39.32-1,.57-2.02.73-3.06,2.81-15.21-4.73-35.05-4.73-35.05.76,4.81.03,10.72-1.18,16.26-.96,4.39-2.23,8.54-3.31,11.74-1.01,2.98-1.86,5.12-2.15,5.83-3.89,8.23-10.84,14.97-19.59,19.13.58-1.61.93-3.43.93-5.38,0-.86-.08-1.69-.2-2.49.86-.1,1.7-.22,2.48-.42,1.24-.22,2.36-.64,3.33-1.27,2-1.32,3.34-3.62,3.55-7.29,0,0-5.16,8.31-13.2.96,0,0-9.24-11.35-17.42-6.81-8.16-4.54-17.4,6.81-17.4,6.81-8.03,7.35-13.2-.96-13.2-.96.15,2.63.78,4.45,1.9,5.82l.06.05s.21.2.51.46c.28.26.74.61,1.37.95,0,0,.01,0,.03.02.62.32,1.41.65,2.4.89.79.23,1.86.28,3.18.22-.19.97-.3,1.99-.3,3.06,0,1.95.34,3.77.93,5.38-8.75-4.16-15.69-10.89-19.58-19.13-.29-.71-1.14-2.85-2.15-5.83-1.09-3.19-2.35-7.35-3.32-11.74-1.21-5.54-1.94-11.44-1.18-16.26,0,0-7.54,19.84-4.73,35.05.16,1.04.42,2.06.73,3.06.04.13.08.27.12.4h.01c.83,2.5,2.11,4.89,3.79,7.15h-.49c-.04.91-.29,2.19-.8,4.45-1.36,6.21-5.41,7.83-5.41,7.83,0,0,6.25-2.37,7.76-3.97.73-.78,2.67-2.91,3.26-3.58.02.02.04.03.06.05-.35.72-1.17,3.02-.02,7.47,1.51,5.81,7.71,9.73,7.71,9.73,0,0-3.72-4.62-2.68-9.68,0,0-.22,2.03,5.83,7.67,5.77,5.39,12.93,11.18,13.86,11.25-.08-.17,3.19-5.72,3.11-8.01,4.41,1.19,9.01,8.88,13.78,8.88.28,0,.57-.01.85-.02h0c.28,0,.56.02.85.02,4.77,0,9.37-7.7,13.78-8.88-.07,2.29,3.04,8.8,2.96,8.97.93-.07,8.24-6.82,14.01-12.21,6.05-5.64,5.83-7.67,5.83-7.67,1.03,5.06-2.68,9.68-2.68,9.68,0,0,6.2-3.91,7.71-9.73,1.16-4.44.34-6.75-.01-7.47.02-.02.04-.03.06-.05.6.67,2.53,2.81,3.26,3.58,1.51,1.61,7.77,3.97,7.77,3.97,0,0-4.05-1.62-5.41-7.83Z"/>
      <path class="cls-13" d="M114.84,140.07v84.22h-45.3c-.75-.29-1.11-.45-1.11-.45,0-7.94.86-14.59,2.27-20.14.49-1.97,1.06-3.82,1.67-5.52,5.77-15.77,16.33-20.79,21.2-22.3,1.58-.49,2.56-.62,2.56-.62.18,0,.32-.02.49-.05h.02c1.43-.23,2.58-1.48,3.51-3.46.69-1.48,1.27-3.35,1.73-5.54.18-.85.34-1.71.49-2.63.21-1.57.43-3.19.61-4.89.08-1.05.18-2.05.31-3.12.4-5.16.51-10.79.51-16.13,0,0,6.09.63,11.02.63Z"/>
      <path class="cls-18" d="M161.44,223.84s-.4.15-1.07.45h-45.53v-84.22h.11c4.91,0,11.07-.63,11.07-.63,0,5.29.11,10.86.52,16.02.11,1,.21,2.03.29,3.05.18,1.77.4,3.45.66,5v.03c.08.71.21,1.34.34,2,.45,2.2.98,4.12,1.64,5.68.81,1.91,1.8,3.26,3.01,3.79.38.17.78.26,1.21.26,0,0,.25.03.69.12h.02c.74.15,2.01.48,3.64,1.12,5.34,2.09,14.31,7.6,19.45,21.67.63,1.71,1.2,3.55,1.69,5.52,1.41,5.56,2.27,12.2,2.27,20.14Z"/>
      <g class="cls-22">
        <path class="cls-3" d="M127.49,163.34v.04c-1.14,1.77-4.98,6.85-12.57,6.85h-.07c-7.19-.04-11.39-5.27-12.46-6.82.22-1.55.44-3.17.63-4.86.07-1,.18-2.03.29-3.1,3.5.88,7.34,1.44,11.39,1.51h.15c4.2-.07,8.07-.66,11.69-1.62.11.99.22,2.03.29,3.02.18,1.77.41,3.43.66,4.97"/>
      </g>
      <path class="cls-5" d="M114.33,44.06c-48,0-48.26,40.35-46.12,66.77-3.28-6.26-13.05-4.35-12.24,5.53.77,9.51,14.73,14.35,14.34,13.3,7.27,19.54,26.51,34.27,44.02,34.27h.37V44.06h-.37"/>
      <path class="cls-19" d="M59.03,112.2c2.36-3.83,6.05-2.17,6.93-1.33.96.92,1.73,2.1,1.14,4.35-.33,1.29-1.66,1.4-1.36,3.32.37,2.17,1.36,2.28,1.95,2.8.55.48,1.25.85,1.59,1.77.37.92.41,1.88.22,2.73-.37,1.55-2.62.29-4.13-.37-1-.48-4.17-3.17-4.98-4.05-1.99-2.28-2.95-6.71-1.36-9.21"/>
      <path class="cls-9" d="M114.59,44.06c48,0,48.26,40.35,46.15,66.77,3.28-6.26,13.01-4.35,12.2,5.53-.74,9.51-14.72,14.36-14.34,13.3-7.08,19.54-26.51,34.27-44.02,34.27h-.26l-.11-119.87h.37"/>
      <path class="cls-19" d="M169.89,112.2c-2.36-3.83-6.01-2.17-6.93-1.33-.96.92-1.7,2.1-1.14,4.35.33,1.29,1.66,1.4,1.36,3.32-.37,2.17-1.36,2.28-1.92,2.8-.55.48-1.29.85-1.62,1.77-.33.92-.41,1.88-.22,2.73.37,1.55,2.62.29,4.13-.37,1.03-.48,4.17-3.17,4.98-4.05,2.03-2.28,2.95-6.71,1.36-9.21"/>
      <path class="cls-13" d="M113.95,55.45c-15.78,0-27.35,4.61-34.32,13.67-9.77,12.71-9.4,32.1-5.82,46.03,1.11,4.27,1.7,15.73,2.43,19.94,3.43,18.83,24.11,28.85,37.71,28.85h.37V55.45h-.22"/>
      <path class="cls-18" d="M148.24,69.16c-6.93-9.03-18.36-13.63-33.92-13.71v108.49c15.56-.18,34.17-11.17,37.34-28.85.77-4.2,1.33-15.66,2.43-19.94,3.61-13.89,3.98-33.24-5.86-45.99"/>
      <path class="cls-1" d="M112.4,140.75c-.22-.04-.42-.08-.59-.11.2.04.4.08.59.11Z"/>
      <path class="cls-1" d="M111.58,144.65c-.14-.03-.27-.06-.36-.08.12.03.24.05.36.08Z"/>
      <path class="cls-21" d="M111.8,144.7c-.08-.02-.15-.03-.23-.05.07.02.14.03.23.05Z"/>
      <path class="cls-21" d="M111.22,144.57c-.07-.02-.13-.04-.2-.06h0s.08.02.21.06Z"/>
      <path class="cls-9" d="M105.16,131.4c-.18-3.75,6.85-1.37,9.16-1.25,1.83.09,7.4-1.18,7.88-.85,3.28,2.22-3.47,6.7-8,6.7-1.21,0-8.94-2.33-9.05-4.59Z"/>
      <path class="cls-1" d="M71.29,89.26c-.43,1.44-.73,3.01-.93,4.68,0,0,.63-2.64,2.03-6.56-.6.84-1,1.5-1.1,1.87Z"/>
      <path class="cls-8" d="M100.92,55.72l-.2.2.03.07c.07-.1.1-.2.17-.27Z"/>
      <path class="cls-1" d="M112.54,142.62c-.22-.04-.43-.08-.61-.12.21.04.41.09.61.12Z"/>
      <path class="cls-1" d="M111.7,142.45c-.14-.03-.28-.06-.37-.09.12.03.24.06.37.09Z"/>
      <path class="cls-24" d="M111.94,142.5c-.08-.02-.15-.03-.23-.05.08.02.14.03.23.05Z"/>
      <path class="cls-24" d="M111.33,142.37c-.07-.02-.14-.04-.21-.06h0s.08.03.21.06Z"/>
      <path class="cls-12" d="M79.89,97.79s3.66,15.11,9.95,16.34c6.29,1.23,13.09-1.22,13.09-1.22,0,0,.65-17.75-2.57-20.07-3.22-2.33-10.63-5.7-20.47,4.95Z"/>
      <path class="cls-23" d="M102.94,112.87s-.14.04-.47.18c-.08-5.45-.58-12.93-2.59-14.36-2.99-2.2-9.74-5.3-18.75,3.17-.82-2.34-1.23-4.11-1.23-4.11,9.86-10.67,17.28-7.31,20.47-4.98,3.22,2.33,2.57,20.1,2.57,20.1Z"/>
      <ellipse class="cls-2" cx="93.03" cy="105.17" rx="6.19" ry="6.22"/>
      <path class="cls-20" d="M92.74,109.32c-1.79-.15-3.16-1.96-3-3.96.16-1.99,1.81-3.55,3.6-3.4,1.79.15,3.16,1.96,3,3.95-.16,1.99-1.81,3.56-3.6,3.41Z"/>
      <path class="cls-14" d="M92.89,108.6c-1.24-.11-2.53-1.48-2.4-3.17.14-1.7,1.63-2.84,2.88-2.74,1.24.11,2.53,1.48,2.39,3.17-.14,1.69-1.63,2.83-2.87,2.73Z"/>
      <path class="cls-12" d="M91.89,104.43c-.05.61-.68,1.06-1.39,1-.72-.06-1.26-.61-1.21-1.21.05-.61.67-1.06,1.39-1,.72.06,1.26.6,1.21,1.22Z"/>
      <path class="cls-12" d="M95.9,107.96c-.03.3-.34.53-.69.5-.36-.03-.63-.3-.61-.61.03-.3.34-.53.69-.5.36.03.63.3.61.61Z"/>
      <path class="cls-1" d="M112.64,144.4c-.22-.04-.43-.08-.61-.12.21.04.41.09.61.12Z"/>
      <path class="cls-1" d="M111.8,144.23c-.14-.03-.28-.06-.37-.09.12.03.24.06.37.09Z"/>
      <path class="cls-24" d="M112.03,144.28c-.08-.02-.15-.03-.23-.05.08.02.14.03.23.05Z"/>
      <path class="cls-24" d="M111.43,144.15c-.07-.02-.14-.04-.21-.06h0s.08.03.21.06Z"/>
      <path class="cls-1" d="M112.41,143.98c-.24-.04-.46-.08-.65-.13.22.05.44.09.65.13Z"/>
      <path class="cls-1" d="M111.5,143.8c-.15-.03-.3-.07-.4-.09.13.03.26.06.4.09Z"/>
      <path class="cls-21" d="M111.75,143.86c-.08-.02-.17-.03-.25-.05.08.02.15.03.25.05Z"/>
      <path class="cls-21" d="M111.11,143.71c-.08-.02-.15-.04-.22-.06h0s.09.03.23.06Z"/>
      <path class="cls-1" d="M112.22,143.35c-.24-.04-.46-.08-.65-.13.22.05.44.09.65.13Z"/>
      <path class="cls-1" d="M111.32,143.17c-.15-.03-.3-.07-.4-.09.13.03.26.06.4.09Z"/>
      <path class="cls-21" d="M111.57,143.23c-.08-.02-.17-.03-.25-.05.08.02.15.03.25.05Z"/>
      <path class="cls-21" d="M110.92,143.08c-.08-.02-.15-.04-.22-.06h0s.09.03.23.06Z"/>
      <path class="cls-1" d="M112.77,143.26c-.23-.04-.44-.08-.63-.12.21.05.42.09.63.12Z"/>
      <path class="cls-1" d="M111.9,143.09c-.14-.03-.29-.07-.38-.09.13.03.25.06.38.09Z"/>
      <path class="cls-21" d="M112.14,143.14c-.08-.02-.16-.03-.24-.05.08.02.15.03.24.05Z"/>
      <path class="cls-21" d="M111.52,143c-.07-.02-.14-.04-.21-.06h0s.08.03.22.06Z"/>
      <path class="cls-12" d="M149.13,97.28s-3.66,15.11-9.95,16.34c-6.29,1.23-13.09-1.22-13.09-1.22,0,0-.65-17.75,2.57-20.07,3.22-2.33,10.63-5.7,20.47,4.95Z"/>
      <path class="cls-23" d="M126.08,112.35s.14.04.47.18c.08-5.45.58-12.93,2.59-14.36,2.99-2.2,9.74-5.3,18.75,3.17.82-2.34,1.23-4.11,1.23-4.11-9.86-10.67-17.28-7.31-20.47-4.98-3.22,2.33-2.57,20.1-2.57,20.1Z"/>
      <path class="cls-2" d="M129.81,104.66c0,3.44,2.77,6.22,6.19,6.22s6.19-2.79,6.19-6.22-2.77-6.22-6.19-6.22-6.19,2.79-6.19,6.22Z"/>
      <path class="cls-20" d="M136.28,108.8c1.79-.15,3.16-1.96,3-3.96-.16-1.99-1.81-3.55-3.6-3.4-1.79.15-3.16,1.96-3,3.95.16,1.99,1.81,3.56,3.6,3.41Z"/>
      <path class="cls-14" d="M136.13,108.08c1.24-.11,2.53-1.48,2.4-3.17-.14-1.7-1.63-2.84-2.88-2.74-1.24.11-2.53,1.48-2.39,3.17.14,1.69,1.63,2.83,2.87,2.73Z"/>
      <path class="cls-12" d="M137.13,103.91c.05.61.68,1.06,1.39,1,.72-.06,1.26-.61,1.21-1.21-.05-.61-.67-1.06-1.39-1-.72.06-1.26.6-1.21,1.22Z"/>
      <path class="cls-12" d="M133.12,107.45c.03.3.34.53.69.5.36-.03.63-.3.61-.61-.03-.3-.34-.53-.69-.5-.36.03-.63.3-.61.61Z"/>
      <g>
        <path d="M106.7,97.55c-.05-.07-1.19-1.82-3.52-3.62-1.46-1.13-2.89-1.99-4.38-2.62-1.81-.76-3.75-1.3-5.63-1.56-1.7-.19-3.59-.14-5.79.16-1.68.32-3.32.83-4.71,1.44-.99.34-1.78.83-2.41,1.22-.24.15-.46.28-.68.4l-3,1.9,3.46-.82c.16-.04.34-.09.52-.14.72-.19,1.61-.43,2.65-.58.24-.04.49-.09.75-.14.44-.09.89-.18,1.36-.2.52-.04,1.07-.07,1.63-.11l.73-.05c1.92-.02,3.54.12,4.97.45,1.57.27,3.19.78,4.67,1.47,1.4.67,2.74,1.34,3.79,2.11,2.11,1.42,3.29,2.6,3.3,2.61h0c.29.29.68.45,1.07.45.28,0,.57-.08.82-.25.7-.46.89-1.4.45-2.08l-.03-.05Z"/>
        <path d="M149.75,92.95c-.2-.11-.42-.24-.66-.39-.63-.39-1.41-.87-2.38-1.2-1.42-.63-3.06-1.13-4.76-1.46-2.18-.3-4.07-.35-5.78-.15-1.87.26-3.82.8-5.63,1.56-1.46.63-2.94,1.51-4.38,2.62-2.29,1.77-3.43,3.48-3.51,3.61l-.02.03c-.39.6-.3,1.4.2,1.9.28.29.66.45,1.07.45h0c.4,0,.78-.16,1.06-.45h.01c.11-.12,1.25-1.25,3.3-2.62,1.03-.76,2.37-1.43,3.77-2.1,1.49-.69,3.1-1.2,4.7-1.48,1.42-.33,3.04-.47,4.93-.45l.76.05c.55.04,1.09.08,1.62.11.46.02.91.11,1.35.2.25.05.5.1.75.14,1.05.15,1.94.39,2.65.58.19.05.36.1.53.14l3.46.82-3.03-1.91Z"/>
      </g>
      <path class="cls-1" d="M111.58,146.19c-.23-.04-.45-.08-.64-.12.22.05.43.09.64.12Z"/>
      <path class="cls-1" d="M110.7,146.02c-.15-.03-.29-.07-.39-.09.13.03.26.06.39.09Z"/>
      <path class="cls-16" d="M110.95,146.07c-.08-.02-.16-.03-.24-.05.08.02.15.03.24.05Z"/>
      <path class="cls-16" d="M110.32,145.93c-.07-.02-.14-.04-.22-.06h0s.08.03.22.06Z"/>
      <path class="cls-15" d="M105.45,149.19c-.18-2.43,6.73.51,9,.58,1.81.06,7.25-.36,7.75-.55,3.8-1.43-.21,4.06-7.86,4.35-3.51.14-8.78-2.9-8.88-4.38Z"/>
      <path class="cls-11" d="M127.94,144.51c-1.88-.09-3.8,1.48-6.06,1.24-.09-.05-.14-.05-.23-.05-.52-.09-1.03,0-1.6.14-.7.15-1.41.43-2.07.66-1.13.37-2.4.66-3.7.56h0s-.05,0-.07,0-.05,0-.07,0h0c-1.31.09-2.58-.2-3.7-.57-.66-.23-1.37-.52-2.07-.66-.56-.14-1.08-.23-1.6-.14-.1,0-.14,0-.23.05-2.26.24-4.18-1.33-6.06-1.24-.52.05-1.27-.09-1.69-.09.09.05.19.09.28.14,5.35,2.62,9.96,7.53,15.07,7.37h.15c5.11.16,9.72-4.75,15.07-7.37.1-.05.19-.09.28-.14-.42,0-1.17.14-1.69.09Z"/>
      <path class="cls-10" d="M129.51,144.36h0s-5.44-2.11-9.3-.87c0,0-1.44.56-2.93.91-.91.36-2.01.46-3.07.42h0c-.81-.03-1.59-.14-2.22-.25-.21-.03-.42-.08-.64-.12-.09-.02-.16-.03-.24-.05-.13-.03-.26-.06-.39-.09-.14-.03-.22-.06-.22-.06h0c-1.24-.34-2.3-.76-2.3-.76-3.87-1.24-9.3.87-9.3.87h0c-.07.03-.12.06-.12.06.42,0,1.17.14,1.69.09,1.87-.09,3.8,1.48,6.06,1.24.09-.05.14-.05.23-.05.52-.09,1.03,0,1.6.14.7.15,1.41.43,2.07.66,1.13.37,2.4.66,3.7.56h0s.05,0,.07,0,.05,0,.07,0h0c1.31.09,2.58-.2,3.7-.57.66-.23,1.37-.52,2.07-.66.56-.14,1.08-.23,1.6-.14.1,0,.14,0,.23.05,2.26.24,4.18-1.33,6.06-1.24.52.05,1.27-.09,1.69-.09,0,0-.05-.02-.12-.06Z"/>
      <path class="cls-10" d="M105.08,145.64c.1.03,10.19,3.11,18.08.07l-.91-.61h-10.66l-6.5.55Z"/>
      <path class="cls-7" d="M154.39,217.2c.06,2.98.18,5.36.29,7.08h-78.07c.15-2.43.31-6.11.38-10.87.03-2.85.05-6.11,0-9.72h-6.29c.51-1.96,1.07-3.82,1.69-5.53.05-.12.09-.25.14-.37,5.37-14.35,14.72-19.65,19.91-21.55v.49c0,8.46,10.04,15.32,22.39,15.32s22.41-6.86,22.41-15.32v-.55c.26.09.51.2.78.32,5.31,2.07,14.15,7.51,19.32,21.29.05.12.09.25.14.37.63,1.7,1.18,3.56,1.69,5.53h-4.87c-.06,3.61-.06,6.86-.02,9.72.03,1.35.06,2.62.09,3.79Z"/>
      <path class="cls-6" d="M127.58,161.33c-7.84.49-9.8-5.89-9.8-5.89-.72-2.17-2.05-2.87-3.43-2.9h0s-.02,0-.03,0c-.01,0-.02,0-.03,0h0c-1.38.02-2.71.72-3.43,2.9,0,0-1.96,6.38-9.8,5.89,0,0,5.06,6.27,13.22,6.47h0s.02,0,.03,0c0,0,.02,0,.03,0h0c8.16-.2,13.22-6.47,13.22-6.47Z"/>
      <path class="cls-6" d="M183.58,53.98c-.17.43-.5.84-.95,1.23.63-.74.95-1.23.95-1.23-1.02.66-2,1.22-2.95,1.73-17.83,9.5-22.8-7.19-22.8-7.19,1.86-15.72,21-15.5,21-15.5,0,0-16.27-7.86-22.54,7.55-.84-8.3,3.67-16.36,3.67-16.36-7.26,1.55-10.31,7.42-11.59,12.44-4.48-8.62.16-15.02.16-15.02l-24.91,9.9c3.23-2.57,8.29-7.32,8.29-7.32,0,0-7.73.79-19.66,4.18-8.39,2.38-13.41,6.61-16.23,8.55l-.07-7.02s-12.2,8.39-23.75,19.41c-11.54,11.01-15.98,21.37-15.98,33.02s5.18,23.31,8.57,26.78c3.39,3.47,2.3,8.49,3.32,8.49,0,0,2.45.09,2.08-11.39,1.34-13.03,7.34-18.24,10.7-20.16,5.9-3.11,14.8-3.67,28.11,3.08v-.02c8.21,4.79,11.52-1.56,23.12-4.77,19.8-5.46,28.01,8.87,26.34,16.26-2.55,11.39,1,17.94,2.36,17.63,0,0,.06-2.89,1.28-5.47,3.66-7.68,6.72-2.34,7.29-12.75.66-12.19,2.79-16.64,2.11-23.15-.39-3.68-1.71-8.06-2.76-11.13,13.29-.22,14.83-11.78,14.83-11.78Z"/>
      <path class="cls-4" d="M154.31,203.7c-.06,3.61-.06,6.86-.02,9.72h-77.3c.03-2.85.05-6.11,0-9.72h-6.29c.51-1.96,1.07-3.82,1.69-5.53.05-.12.09-.25.14-.37h84.82c.05.12.09.25.14.37.63,1.7,1.18,3.56,1.69,5.53h-4.87Z"/>
    </g>
  </g>
</svg>