<?xml version="1.0" encoding="UTF-8"?>
<svg id="Layer_2" data-name="Layer 2" xmlns="http://www.w3.org/2000/svg" xmlns:xlink="http://www.w3.org/1999/xlink" viewBox="0 0 223.34 223.59">
  <defs>
    <style>
      .cls-1 {
        fill: none;
      }

      .cls-2 {
        fill: #462e1b;
      }

      .cls-3 {
        fill: #ba9d82;
      }

      .cls-4 {
        fill: #ccad8a;
      }

      .cls-5 {
        fill: #44361f;
      }

      .cls-6 {
        fill: #d7bd9d;
      }

      .cls-7 {
        fill: #c1a587;
      }

      .cls-8 {
        fill: #dac6a4;
      }

      .cls-9 {
        fill: #fff;
      }

      .cls-10 {
        fill: #dcc5a0;
      }

      .cls-11 {
        fill: #272213;
      }

      .cls-12 {
        fill: #ecdab6;
      }

      .cls-13 {
        fill: #b8987d;
      }

      .cls-14 {
        fill: #ebd9b5;
      }

      .cls-15 {
        fill: #6a2528;
      }

      .cls-16 {
        fill: #a98d76;
      }

      .cls-17 {
        fill: #395a65;
      }

      .cls-18 {
        fill: #c33a31;
      }

      .cls-19 {
        fill: #714223;
      }

      .cls-20 {
        fill: #b7967d;
      }

      .cls-21 {
        clip-path: url(#clippath);
      }

      .cls-22 {
        fill: #d2bb9b;
      }

      .cls-23 {
        fill: #4a3330;
      }

      .cls-24 {
        fill: #b5957e;
      }
    </style>
    <clipPath id="clippath">
      <rect class="cls-1" x="104.63" y="154.82" width="25.1" height="14.85"/>
    </clipPath>
  </defs>
  <g id="Layer_1-2" data-name="Layer 1">
    <g>
      <rect class="cls-17" width="223.34" height="223.59"/>
      <path class="cls-10" d="M116.94,139.57v84.02h-45.3c-.74-.29-1.11-.45-1.11-.45,0-5.89.48-11.07,1.29-15.61.69-3.73,1.6-7.06,2.67-9.99,2.39-6.54,5.6-11.22,8.9-14.58,1.09-1.11,2.19-2.07,3.27-2.9,1.83-1.41,3.61-2.47,5.2-3.24.83-.41,1.61-.75,2.33-1.01.25-.09.48-.18.71-.26.28-.09.52-.17.77-.25.69-.21,1.26-.37,1.69-.45.57-.14.89-.17.89-.17.17,0,.32-.02.49-.05,1.43-.23,2.58-1.47,3.51-3.45.69-1.47,1.27-3.36,1.73-5.53.18-.86.34-1.7.49-2.64.21-1.55.43-3.18.63-4.88.06-1.03.17-2.03.29-3.1.4-5.14.51-10.78.51-16.1,0,0,6.09.63,11.02.63Z"/>
      <path class="cls-14" d="M163.54,223.14s-.4.15-1.07.45h-45.53v-84.02h.12c4.9,0,11.05-.63,11.05-.63,0,5.3.11,10.84.52,15.99.11,1,.21,2.03.29,3.02.18,1.78.4,3.44.66,5v.03c.08.71.21,1.34.34,2,.45,2.18.98,4.11,1.64,5.65.81,1.92,1.81,3.25,3.01,3.79.38.17.78.26,1.21.26,0,0,.21.03.6.11.63.12,1.7.37,3.09.87.21.08.43.15.66.25.12.05.25.09.37.15.32.12.64.28.98.43,1.69.77,3.62,1.86,5.65,3.39.77.57,1.53,1.21,2.32,1.92v.02c3.71,3.39,7.44,8.38,10.13,15.72,1.04,2.84,1.93,6.05,2.61,9.62.86,4.64,1.35,9.93,1.35,15.98Z"/>
      <g class="cls-21">
        <path class="cls-3" d="M129.73,162.8v.04c-1.14,1.76-4.98,6.84-12.57,6.84h-.07c-7.19-.04-11.39-5.26-12.46-6.8.22-1.54.44-3.16.63-4.85.07-.99.18-2.02.29-3.09,3.5.88,7.34,1.43,11.39,1.51h.15c4.2-.07,8.07-.66,11.69-1.62.11.99.22,2.02.3,3.01.18,1.76.41,3.42.66,4.96"/>
      </g>
      <path class="cls-4" d="M116.57,43.82c-48,0-48.26,40.25-46.12,66.6-3.28-6.25-13.05-4.34-12.24,5.51.77,9.48,14.73,14.32,14.34,13.27,7.27,19.49,26.51,34.18,44.02,34.18h.37V43.82h-.37"/>
      <path class="cls-16" d="M61.27,111.78c2.36-3.82,6.05-2.17,6.93-1.32.96.92,1.73,2.09,1.14,4.34-.33,1.29-1.66,1.4-1.36,3.31.37,2.17,1.36,2.28,1.95,2.79.55.48,1.25.85,1.59,1.76.37.92.41,1.87.22,2.72-.37,1.54-2.62.29-4.13-.37-1-.48-4.17-3.16-4.98-4.04-1.99-2.28-2.95-6.69-1.36-9.19"/>
      <path class="cls-6" d="M116.83,43.82c48,0,48.26,40.25,46.15,66.6,3.28-6.25,13.01-4.34,12.2,5.51-.74,9.48-14.72,14.32-14.34,13.27-7.08,19.49-26.51,34.18-44.02,34.18h-.26l-.11-119.56h.37"/>
      <path class="cls-16" d="M172.12,111.78c-2.36-3.82-6.01-2.17-6.93-1.32-.96.92-1.7,2.09-1.14,4.34.33,1.29,1.66,1.4,1.36,3.31-.37,2.17-1.36,2.28-1.92,2.79-.55.48-1.29.85-1.62,1.76-.33.92-.41,1.87-.22,2.72.37,1.54,2.62.29,4.13-.37,1.03-.48,4.17-3.16,4.98-4.04,2.03-2.28,2.95-6.69,1.36-9.19"/>
      <path class="cls-10" d="M116.19,55.18c-15.78,0-27.35,4.59-34.32,13.64-9.77,12.68-9.4,32.01-5.82,45.91,1.11,4.26,1.7,15.69,2.43,19.88,3.43,18.78,24.11,28.78,37.71,28.78h.37V55.18h-.22"/>
      <path class="cls-14" d="M150.48,68.85c-6.93-9-18.36-13.6-33.92-13.67v108.21c15.56-.18,34.17-11.14,37.34-28.78.77-4.19,1.33-15.62,2.43-19.88,3.61-13.86,3.98-33.15-5.86-45.87"/>
      <path class="cls-1" d="M114.64,140.27c-.22-.04-.42-.08-.59-.11.2.04.4.08.59.11Z"/>
      <path class="cls-1" d="M113.82,144.16c-.14-.03-.27-.06-.36-.08.12.03.24.05.36.08Z"/>
      <path class="cls-20" d="M114.04,144.21c-.08-.02-.15-.03-.23-.05.07.02.14.03.23.05Z"/>
      <path class="cls-20" d="M113.46,144.08c-.07-.02-.13-.04-.2-.06h0s.08.02.21.06Z"/>
      <path class="cls-6" d="M107.61,130.17c-.18-3.74,6.85-1.37,9.16-1.25,1.83.09,7.4-1.18,7.88-.85,3.28,2.22-3.47,6.68-8,6.68-1.21,0-8.94-2.33-9.05-4.58Z"/>
      <path class="cls-1" d="M73.53,88.91c-.43,1.43-.73,3-.93,4.67,0,0,.63-2.64,2.03-6.54-.6.83-1,1.5-1.1,1.87Z"/>
      <path class="cls-5" d="M103.16,55.45l-.2.2.03.07c.07-.1.1-.2.17-.27Z"/>
      <path class="cls-1" d="M114.78,142.13c-.22-.04-.43-.08-.61-.12.21.04.41.09.61.12Z"/>
      <path class="cls-1" d="M113.94,141.96c-.14-.03-.28-.06-.37-.09.12.03.24.06.37.09Z"/>
      <path class="cls-24" d="M114.17,142.01c-.08-.02-.15-.03-.23-.05.08.02.14.03.23.05Z"/>
      <path class="cls-24" d="M113.57,141.88c-.07-.02-.14-.04-.21-.06h0s.08.02.21.06Z"/>
      <path class="cls-9" d="M82.13,97.41s3.66,15.07,9.95,16.3c6.29,1.23,13.09-1.22,13.09-1.22,0,0,.65-17.71-2.57-20.02-3.22-2.32-10.63-5.68-20.47,4.94Z"/>
      <path class="cls-22" d="M105.18,112.45s-.14.04-.47.18c-.08-5.43-.58-12.89-2.59-14.32-2.99-2.2-9.74-5.28-18.75,3.17-.82-2.33-1.23-4.1-1.23-4.1,9.86-10.64,17.28-7.29,20.47-4.96,3.22,2.32,2.57,20.05,2.57,20.05Z"/>
      <ellipse class="cls-2" cx="95.27" cy="104.78" rx="6.19" ry="6.21"/>
      <path class="cls-19" d="M94.98,108.91c-1.79-.15-3.16-1.96-3-3.95.16-1.99,1.81-3.54,3.6-3.39,1.79.15,3.16,1.95,3,3.94-.16,1.99-1.81,3.55-3.6,3.4Z"/>
      <path class="cls-11" d="M95.13,108.19c-1.24-.11-2.53-1.48-2.4-3.16.14-1.69,1.63-2.83,2.88-2.73,1.24.11,2.53,1.48,2.39,3.17-.14,1.69-1.63,2.83-2.87,2.72Z"/>
      <path class="cls-9" d="M94.13,104.04c-.05.61-.68,1.05-1.39,1-.72-.06-1.26-.61-1.21-1.21.05-.61.67-1.06,1.39-1,.72.06,1.26.6,1.21,1.21Z"/>
      <path class="cls-9" d="M98.14,107.56c-.03.3-.34.53-.69.5-.36-.03-.63-.3-.61-.61.03-.3.34-.53.69-.5.36.03.63.3.61.61Z"/>
      <path class="cls-1" d="M114.88,143.9c-.22-.04-.43-.08-.61-.12.21.04.41.09.61.12Z"/>
      <path class="cls-1" d="M114.04,143.74c-.14-.03-.28-.06-.37-.09.12.03.24.06.37.09Z"/>
      <path class="cls-24" d="M114.27,143.79c-.08-.02-.15-.03-.23-.05.08.02.14.03.23.05Z"/>
      <path class="cls-24" d="M113.67,143.65c-.07-.02-.14-.04-.21-.06h0s.08.02.21.06Z"/>
      <path class="cls-1" d="M114.64,143.49c-.24-.04-.46-.08-.65-.12.22.05.44.09.65.12Z"/>
      <path class="cls-1" d="M113.74,143.31c-.15-.03-.3-.07-.4-.09.13.03.26.06.4.09Z"/>
      <path class="cls-20" d="M113.99,143.36c-.08-.02-.17-.03-.25-.05.08.02.15.03.25.05Z"/>
      <path class="cls-20" d="M113.35,143.22c-.08-.02-.15-.04-.22-.06h0s.09.03.23.06Z"/>
      <path class="cls-1" d="M114.46,142.86c-.24-.04-.46-.08-.65-.12.22.05.44.09.65.12Z"/>
      <path class="cls-1" d="M113.56,142.68c-.15-.03-.3-.07-.4-.09.13.03.26.06.4.09Z"/>
      <path class="cls-20" d="M113.81,142.73c-.08-.02-.17-.03-.25-.05.08.02.15.03.25.05Z"/>
      <path class="cls-20" d="M113.16,142.59c-.08-.02-.15-.04-.22-.06h0s.09.03.23.06Z"/>
      <path class="cls-1" d="M115.01,142.77c-.23-.04-.44-.08-.63-.12.21.05.42.09.63.12Z"/>
      <path class="cls-1" d="M114.14,142.6c-.14-.03-.29-.06-.38-.09.13.03.25.06.38.09Z"/>
      <path class="cls-20" d="M114.38,142.65c-.08-.02-.16-.03-.24-.05.08.02.15.03.24.05Z"/>
      <path class="cls-20" d="M113.76,142.51c-.07-.02-.14-.04-.21-.06h0s.08.03.22.06Z"/>
      <path class="cls-9" d="M151.37,96.9s-3.66,15.07-9.95,16.3c-6.29,1.23-13.09-1.22-13.09-1.22,0,0-.65-17.71,2.57-20.02,3.22-2.32,10.63-5.68,20.47,4.94Z"/>
      <path class="cls-22" d="M128.32,111.94s.14.04.47.18c.08-5.43.58-12.89,2.59-14.32,2.99-2.2,9.74-5.28,18.75,3.16.82-2.33,1.23-4.1,1.23-4.1-9.86-10.64-17.28-7.29-20.47-4.96-3.22,2.32-2.57,20.05-2.57,20.05Z"/>
      <path class="cls-2" d="M132.04,104.27c0,3.43,2.77,6.21,6.19,6.21s6.19-2.78,6.19-6.21-2.77-6.21-6.19-6.21-6.19,2.78-6.19,6.21Z"/>
      <path class="cls-19" d="M138.52,108.4c1.79-.15,3.16-1.96,3-3.95-.16-1.99-1.81-3.54-3.6-3.39-1.79.15-3.16,1.95-3,3.94.16,1.99,1.81,3.55,3.6,3.4Z"/>
      <path class="cls-11" d="M138.37,107.68c1.24-.11,2.53-1.47,2.4-3.16-.14-1.69-1.63-2.83-2.88-2.73-1.24.11-2.53,1.48-2.39,3.17.14,1.69,1.63,2.83,2.87,2.72Z"/>
      <path class="cls-9" d="M139.37,103.52c.05.61.68,1.05,1.39,1,.72-.06,1.26-.61,1.21-1.21-.05-.61-.67-1.06-1.39-1-.72.06-1.26.6-1.21,1.21Z"/>
      <path class="cls-9" d="M135.36,107.05c.03.3.34.53.69.5.36-.03.63-.3.61-.61-.03-.3-.34-.53-.69-.5-.36.03-.63.3-.61.61Z"/>
      <path class="cls-1" d="M113.82,145.69c-.23-.04-.45-.08-.64-.12.22.05.43.09.64.12Z"/>
      <path class="cls-1" d="M112.94,145.52c-.15-.03-.29-.07-.39-.09.13.03.26.06.39.09Z"/>
      <path class="cls-13" d="M113.19,145.57c-.08-.02-.16-.03-.24-.05.08.02.15.03.24.05Z"/>
      <path class="cls-13" d="M112.56,145.43c-.07-.02-.14-.04-.22-.06h0s.08.03.22.06Z"/>
      <path class="cls-12" d="M107.69,148.68c-.18-2.42,6.73.51,9,.58,1.81.06,7.25-.36,7.75-.55,3.8-1.43-.21,4.05-7.86,4.34-3.51.14-8.78-2.9-8.88-4.36Z"/>
      <path class="cls-8" d="M130.18,144.01c-1.88-.09-3.8,1.48-6.06,1.24-.09-.05-.14-.05-.23-.05-.52-.09-1.03,0-1.6.14-.7.15-1.41.43-2.07.66-1.13.37-2.4.66-3.7.56h0s-.05,0-.07,0-.05,0-.07,0h0c-1.31.09-2.58-.2-3.7-.57-.66-.23-1.37-.52-2.07-.66-.56-.14-1.08-.23-1.6-.14-.1,0-.14,0-.23.05-2.26.24-4.18-1.33-6.06-1.24-.52.05-1.27-.09-1.69-.09.09.05.19.09.28.14,5.35,2.61,9.96,7.51,15.07,7.35h.15c5.11.16,9.72-4.74,15.07-7.35.1-.05.19-.09.28-.14-.42,0-1.17.14-1.69.09Z"/>
      <path class="cls-7" d="M131.75,143.86h0s-5.44-2.1-9.3-.87c0,0-1.44.56-2.93.91-.91.35-2.01.46-3.07.41h0c-.81-.03-1.59-.14-2.22-.25-.21-.03-.42-.08-.64-.12-.09-.02-.16-.03-.24-.05-.13-.03-.26-.06-.39-.09-.14-.03-.22-.06-.22-.06h0c-1.24-.34-2.3-.75-2.3-.75-3.87-1.23-9.3.87-9.3.87h0c-.07.03-.12.06-.12.06.42,0,1.17.14,1.69.09,1.88-.09,3.8,1.48,6.06,1.24.09-.05.14-.05.23-.05.52-.09,1.03,0,1.6.14.7.15,1.41.43,2.07.66,1.13.37,2.4.66,3.7.56h0s.05,0,.07,0,.05,0,.07,0h0c1.31.09,2.58-.2,3.7-.57.66-.23,1.37-.52,2.07-.66.56-.14,1.08-.23,1.6-.14.1,0,.14,0,.23.05,2.26.24,4.18-1.33,6.06-1.24.52.05,1.27-.09,1.69-.09,0,0-.05-.02-.12-.06Z"/>
      <path class="cls-7" d="M107.32,145.14c.1.02,10.19,3.11,18.08.07l-.91-.61h-10.66l-6.5.55Z"/>
      <path class="cls-18" d="M148.6,189.22c-.63-2.64-1.14-5.68-1.46-9.33-2.03-1.53-3.96-2.62-5.66-3.39-.32-.15-.66-.31-.97-.43-.12-.06-.26-.11-.38-.15-.21-.09-.45-.17-.66-.25-1.37-.51-2.44-.75-3.07-.87-1.72,2.44-3.9,5.42-6.23,8.3-4.62,5.74-9.84,11.16-13.23,11.37-.09.02-.14.02-.21.02h-.02c-3.38-.03-8.69-5.63-13.37-11.56-2.23-2.79-4.3-5.68-5.97-8.07-.41.08-.98.23-1.67.45-.26.08-.49.15-.77.25-.25.08-.46.17-.72.26-.71.26-1.49.6-2.32,1.01-1.61.77-3.38,1.83-5.2,3.24-.35,3.85-.92,7.05-1.61,9.78-1.14,4.48-2.59,7.75-3.94,10.78h71.57c-1.41-3.18-2.95-6.6-4.1-11.39Z"/>
      <path class="cls-18" d="M76.58,223.59h80.66c-.19-3.05-.46-7.36-.75-10.19h-79.17c-.29,2.83-.56,7.14-.75,10.19Z"/>
      <path class="cls-15" d="M152.71,200.61h-71.6c-1.66,3.71-3.15,7.06-3.68,11.82-.03.3-.07.62-.1.97h79.17c-.03-.34-.07-.67-.1-.97-.53-4.76-2.02-8.11-3.68-11.82Z"/>
      <g>
        <path d="M108.94,98.71c-.05-.07-1.19-1.81-3.52-3.61-1.46-1.12-2.89-1.98-4.38-2.62-1.81-.76-3.75-1.3-5.63-1.56-1.7-.19-3.59-.14-5.79.16-1.68.32-3.32.82-4.71,1.44-.99.34-1.78.82-2.41,1.21-.24.15-.46.28-.68.4l-3,1.89,3.46-.82c.16-.04.34-.09.52-.14.72-.19,1.61-.43,2.65-.58.24-.04.49-.09.75-.14.44-.09.89-.18,1.36-.2.52-.04,1.07-.07,1.63-.11l.73-.05c1.92-.02,3.54.12,4.97.45,1.57.27,3.19.78,4.67,1.47,1.4.67,2.74,1.34,3.79,2.11,2.11,1.42,3.29,2.6,3.3,2.61h0c.29.29.68.44,1.07.44.28,0,.57-.08.82-.25.7-.46.89-1.4.45-2.08l-.03-.05Z"/>
        <path d="M151.99,94.12c-.2-.11-.42-.24-.66-.39-.63-.39-1.41-.87-2.38-1.2-1.42-.63-3.06-1.13-4.76-1.45-2.18-.29-4.07-.35-5.78-.15-1.87.26-3.82.8-5.63,1.56-1.46.63-2.94,1.51-4.38,2.62-2.29,1.76-3.43,3.47-3.51,3.6l-.02.03c-.39.6-.3,1.4.2,1.9.28.29.66.45,1.06.45h0c.4,0,.78-.16,1.06-.45h.01c.11-.12,1.25-1.24,3.3-2.62,1.03-.76,2.37-1.43,3.77-2.1,1.49-.69,3.1-1.2,4.7-1.48,1.42-.33,3.04-.47,4.93-.45l.76.05c.55.04,1.09.08,1.62.11.46.02.91.11,1.35.2.25.05.5.1.75.14,1.05.15,1.94.39,2.65.58.19.05.36.1.53.14l3.46.82-3.03-1.91Z"/>
      </g>
      <path class="cls-23" d="M131.1,142.01c-3.03-3.73-8.48-4-14.74-3.91-6.26-.1-11.72.18-14.74,3.91-2.79,3.43-3.04,12.35,1.25,15.52,1.53-4.54,1.51-6.61,3.63-9.09,2.48-2.87,6.36-2.9,9.86-3.29,3.5.39,7.38.42,9.86,3.29,2.13,2.47,2.11,4.54,3.64,9.09,4.29-3.17,4.04-12.09,1.25-15.52Z"/>
      <path class="cls-23" d="M120.94,162.25h-9.48v.06c.04.14.08.28.13.41-.04-.02-.08-.04-.13-.07,0,1.04.44,2.03,1.22,2.72.11.1.23.2.34.31,1.11,1.02,2.33,2.33,3.62,2.33.07,0,.13,0,.2-.01,1.21-.12,2.37-1.35,3.42-2.32.12-.11.23-.21.34-.31.78-.68,1.22-1.68,1.22-2.72v-.41h-.89Z"/>
      <path class="cls-18" d="M173.75,79.04c-.68-1.83-1.38-3.53-2.1-5.16v-.7c0-6.9-6.6-15.85-17.09-24.55-10.5-8.69-17.1-6.9-25.78-6.65,0,0-.03.06-.07.14-3.82-.76-24.34-4.52-36.54-.35-13.49,4.61-24.54,12.51-32.34,33.74-7.79,21.23-1.4,38.61.11,46.02,4.79,23.48,27.77,38.36,27.77,38.36,0,0-5.8-6.27-8.4-12.52-2.01-4.85-5.02-13.19-5.02-25.46,0-1.01.1-2.03.26-3.07h0c3.28-49.81,49.52-26.68,49.52-26.68v.02s26.17,6.76,22.32,41.26c0,0,9.62-12.01,4.98-28.43,3.66,5.54,7.9,13.45,7.9,20.44,0,12.27-3.01,20.61-5.02,25.46-2.59,6.25-8.4,12.53-8.4,12.53,0,0,22.98-14.87,27.77-38.36,1.51-7.42,7.91-24.8.12-46.03Z"/>
    </g>
  </g>
</svg>