<?xml version="1.0" encoding="UTF-8"?>
<svg id="Layer_2" data-name="Layer 2" xmlns="http://www.w3.org/2000/svg" xmlns:xlink="http://www.w3.org/1999/xlink" viewBox="0 0 299.36 300.48">
  <defs>
    <style>
      .cls-1 {
        fill: none;
      }

      .cls-2 {
        fill: #43331b;
      }

      .cls-3 {
        fill: #d6c09e;
      }

      .cls-4 {
        fill: #b5977b;
      }

      .cls-5 {
        fill: #d7be9a;
      }

      .cls-6 {
        fill: #282211;
      }

      .cls-7 {
        fill: #71391e;
      }

      .cls-8 {
        fill: #a4876f;
      }

      .cls-9 {
        fill: #e4aa33;
      }

      .cls-10 {
        fill: #4a453c;
      }

      .cls-11 {
        fill: #ebebea;
        opacity: .55;
      }

      .cls-12 {
        fill: #fff;
      }

      .cls-13 {
        fill: #b19076;
      }

      .cls-14 {
        fill: #e8d2ae;
      }

      .cls-15 {
        fill: #8b375a;
      }

      .cls-16 {
        fill: #e9d3af;
      }

      .cls-17 {
        fill: #171500;
      }

      .cls-18 {
        fill: #20201b;
        opacity: .4;
      }

      .cls-19 {
        fill: #b39176;
      }

      .cls-20 {
        fill: #bc9e80;
      }

      .cls-21 {
        fill: #af8f76;
      }

      .cls-22 {
        fill: #ceb495;
      }

      .cls-23 {
        fill: #452a16;
      }

      .cls-24 {
        fill: #d3b697;
      }

      .cls-25 {
        fill: #c7a784;
      }

      .cls-26 {
        clip-path: url(#clippath);
      }
    </style>
    <clipPath id="clippath">
      <rect class="cls-1" x="140.24" y="208.06" width="33.65" height="19.95"/>
    </clipPath>
  </defs>
  <g id="RÈteg_1" data-name="RÈteg 1">
    <g>
      <rect class="cls-15" width="299.36" height="300.48"/>
      <path class="cls-5" d="M156.74,187.56v112.91h-60.71c-.99-.39-1.48-.6-1.48-.6,0-7.92.64-14.87,1.73-20.98.93-5.01,2.14-9.49,3.58-13.43,3.21-8.79,7.51-15.08,11.93-19.6,1.46-1.49,2.94-2.78,4.38-3.9,2.45-1.9,4.83-3.32,6.97-4.35,1.11-.56,2.16-1.01,3.13-1.36.33-.12.64-.25.95-.35.37-.12.7-.23,1.03-.33.93-.29,1.69-.5,2.26-.6.76-.19,1.19-.23,1.19-.23.23,0,.43-.02.66-.06,1.91-.31,3.46-1.98,4.71-4.64.93-1.98,1.71-4.52,2.32-7.43.25-1.16.45-2.29.66-3.55.29-2.08.58-4.27.84-6.56.08-1.38.23-2.72.39-4.17.53-6.91.68-14.48.68-21.64,0,0,8.17.85,14.77.85Z"/>
      <path class="cls-14" d="M219.21,299.87s-.53.21-1.44.6h-61.02v-112.91h.16c6.56,0,14.81-.85,14.81-.85,0,7.12.14,14.56.7,21.49.14,1.34.29,2.72.39,4.06.25,2.39.53,4.62.88,6.72v.04c.1.95.29,1.79.45,2.68.6,2.93,1.32,5.53,2.2,7.59,1.09,2.58,2.43,4.37,4.03,5.09.51.23,1.05.35,1.63.35,0,0,.29.04.8.14.84.17,2.28.5,4.14,1.18.29.1.58.21.88.33.16.06.33.12.49.21.43.17.86.37,1.32.58,2.26,1.03,4.86,2.5,7.57,4.56,1.03.76,2.06,1.63,3.11,2.58v.02c4.98,4.56,9.98,11.26,13.58,21.12,1.4,3.82,2.59,8.13,3.5,12.93,1.15,6.23,1.81,13.35,1.81,21.47Z"/>
      <g class="cls-26">
        <path class="cls-4" d="M173.89,218.78v.05c-1.53,2.37-6.67,9.19-16.85,9.19h-.1c-9.64-.05-15.27-7.06-16.7-9.14.3-2.07.59-4.25.84-6.52.1-1.33.25-2.72.4-4.15,4.69,1.19,9.83,1.93,15.27,2.02h.2c5.63-.1,10.82-.89,15.66-2.17.15,1.33.3,2.72.4,4.05.25,2.37.54,4.59.89,6.67"/>
      </g>
      <path class="cls-25" d="M156.25,58.89c-64.34,0-64.68,54.09-61.82,89.5-4.4-8.4-17.49-5.83-16.4,7.41,1.04,12.74,19.75,19.24,19.22,17.83,9.74,26.19,35.53,45.94,59,45.94h.49V58.89h-.49"/>
      <path class="cls-8" d="M82.13,150.22c3.16-5.14,8.1-2.91,9.29-1.78,1.28,1.23,2.32,2.82,1.53,5.83-.44,1.73-2.22,1.88-1.83,4.45.49,2.91,1.83,3.06,2.62,3.75.74.64,1.68,1.14,2.12,2.37.49,1.23.54,2.52.3,3.66-.49,2.07-3.51.4-5.53-.49-1.33-.64-5.58-4.25-6.67-5.43-2.67-3.06-3.95-8.99-1.83-12.35"/>
      <path class="cls-24" d="M156.6,58.89c64.34,0,64.68,54.09,61.87,89.5,4.4-8.4,17.44-5.83,16.36,7.41-.99,12.74-19.73,19.24-19.22,17.83-9.49,26.19-35.53,45.94-59,45.94h-.35l-.15-160.68h.49"/>
      <path class="cls-8" d="M230.72,150.22c-3.16-5.14-8.05-2.91-9.29-1.78-1.28,1.23-2.27,2.82-1.53,5.83.44,1.73,2.22,1.88,1.83,4.45-.49,2.91-1.83,3.06-2.57,3.75-.74.64-1.73,1.14-2.17,2.37-.44,1.23-.54,2.52-.3,3.66.49,2.07,3.51.4,5.53-.49,1.38-.64,5.58-4.25,6.67-5.43,2.72-3.06,3.95-8.99,1.83-12.35"/>
      <path class="cls-5" d="M155.74,74.16c-21.15,0-36.66,6.17-46,18.33-13.09,17.04-12.6,43.02-7.81,61.69,1.48,5.73,2.27,21.09,3.26,26.72,4.6,25.24,32.32,38.67,50.55,38.67h.49V74.16h-.3"/>
      <path class="cls-14" d="M201.7,92.53c-9.29-12.1-24.61-18.28-45.46-18.37v145.41c20.85-.25,45.81-14.97,50.06-38.67,1.04-5.63,1.78-20.99,3.26-26.72,4.84-18.62,5.34-44.55-7.86-61.64"/>
      <path class="cls-1" d="M153.66,188.5c-.29-.05-.56-.1-.79-.15.27.06.53.11.79.15Z"/>
      <path class="cls-1" d="M152.56,193.73c-.18-.04-.36-.08-.48-.11.16.04.32.07.48.11Z"/>
      <path class="cls-13" d="M152.86,193.79c-.1-.02-.2-.04-.3-.06.1.02.19.04.3.06Z"/>
      <path class="cls-13" d="M152.08,193.62c-.09-.02-.18-.05-.27-.08h0s.1.03.28.08Z"/>
      <path class="cls-24" d="M144.24,174.93c-.24-5.02,9.18-1.84,12.28-1.68,2.45.13,9.92-1.58,10.56-1.14,4.39,2.98-4.65,8.98-10.72,8.98-1.62,0-11.98-3.13-12.13-6.16Z"/>
      <path class="cls-1" d="M98.56,119.48c-.58,1.93-.98,4.03-1.25,6.28,0,0,.85-3.54,2.72-8.79-.8,1.12-1.34,2.02-1.47,2.51Z"/>
      <path class="cls-2" d="M138.28,74.52l-.27.27.04.09c.09-.13.13-.27.22-.36Z"/>
      <path class="cls-1" d="M153.86,191c-.3-.05-.57-.11-.82-.16.28.06.55.11.82.16Z"/>
      <path class="cls-1" d="M152.73,190.78c-.19-.04-.37-.08-.49-.11.16.04.33.07.49.11Z"/>
      <path class="cls-21" d="M153.04,190.84c-.1-.02-.21-.04-.31-.07.1.02.19.04.31.07Z"/>
      <path class="cls-21" d="M152.23,190.66c-.1-.02-.18-.05-.28-.08h-.01s.11.03.29.08Z"/>
      <path class="cls-12" d="M110.09,130.91s4.91,20.25,13.34,21.9c8.43,1.65,17.55-1.63,17.55-1.63,0,0,.87-23.8-3.44-26.91-4.31-3.12-14.25-7.64-27.44,6.64Z"/>
      <path class="cls-22" d="M140.98,151.12s-.19.06-.63.24c-.11-7.3-.78-17.33-3.47-19.25-4.01-2.95-13.05-7.1-25.14,4.25-1.1-3.14-1.65-5.52-1.65-5.52,13.21-14.3,23.16-9.8,27.44-6.67,4.32,3.12,3.45,26.94,3.45,26.94Z"/>
      <ellipse class="cls-23" cx="127.7" cy="140.81" rx="8.29" ry="8.34"/>
      <path class="cls-7" d="M127.31,146.36c-2.4-.2-4.23-2.63-4.02-5.3.21-2.67,2.42-4.76,4.82-4.56,2.4.2,4.23,2.63,4.02,5.3-.22,2.67-2.43,4.77-4.82,4.57Z"/>
      <path class="cls-6" d="M127.52,145.4c-1.67-.14-3.4-1.98-3.21-4.25.19-2.27,2.19-3.81,3.86-3.67,1.67.14,3.39,1.99,3.21,4.26-.18,2.27-2.19,3.8-3.85,3.66Z"/>
      <path class="cls-12" d="M126.17,139.81c-.07.82-.91,1.42-1.86,1.34-.96-.08-1.68-.81-1.62-1.63.07-.82.9-1.42,1.86-1.34.96.08,1.69.81,1.62,1.63Z"/>
      <path class="cls-12" d="M131.54,144.55c-.04.41-.45.71-.93.67-.48-.04-.84-.41-.81-.81.03-.41.45-.71.93-.67.48.04.85.4.81.81Z"/>
      <path class="cls-1" d="M153.99,193.39c-.3-.05-.57-.11-.82-.16.28.06.55.11.82.16Z"/>
      <path class="cls-1" d="M152.86,193.16c-.19-.04-.37-.08-.49-.11.16.04.33.07.49.11Z"/>
      <path class="cls-21" d="M153.17,193.23c-.1-.02-.21-.04-.31-.07.1.02.19.04.31.07Z"/>
      <path class="cls-21" d="M152.37,193.05c-.1-.02-.18-.05-.28-.08h-.01s.11.03.29.08Z"/>
      <path class="cls-1" d="M153.67,192.83c-.32-.06-.62-.11-.87-.17.3.06.58.12.87.17Z"/>
      <path class="cls-1" d="M152.46,192.59c-.2-.05-.4-.09-.53-.12.18.05.35.08.53.12Z"/>
      <path class="cls-13" d="M152.79,192.66c-.11-.02-.22-.05-.33-.07.11.02.21.05.33.07Z"/>
      <path class="cls-13" d="M151.93,192.46c-.1-.03-.2-.06-.3-.08h-.01s.11.04.31.08Z"/>
      <path class="cls-1" d="M153.42,191.98c-.32-.06-.62-.11-.88-.17.3.06.59.12.88.17Z"/>
      <path class="cls-1" d="M152.21,191.74c-.2-.05-.4-.09-.53-.12.18.05.35.08.53.12Z"/>
      <path class="cls-13" d="M152.55,191.81c-.11-.02-.22-.05-.33-.07.11.02.21.04.33.07Z"/>
      <path class="cls-13" d="M151.68,191.62c-.1-.03-.2-.06-.3-.08h-.01s.11.04.31.08Z"/>
      <path class="cls-1" d="M154.16,191.86c-.31-.05-.6-.11-.85-.16.29.06.57.12.85.16Z"/>
      <path class="cls-1" d="M152.99,191.63c-.19-.04-.39-.09-.51-.12.17.04.34.08.51.12Z"/>
      <path class="cls-13" d="M153.32,191.7c-.11-.02-.22-.04-.32-.07.11.02.2.04.32.07Z"/>
      <path class="cls-13" d="M152.48,191.51c-.1-.03-.19-.05-.29-.08h-.01s.11.03.3.08Z"/>
      <path class="cls-12" d="M202.9,130.22s-4.91,20.25-13.33,21.9c-8.43,1.65-17.55-1.63-17.55-1.63,0,0-.87-23.8,3.44-26.91,4.31-3.12,14.25-7.64,27.44,6.64Z"/>
      <path class="cls-22" d="M172,150.43s.19.06.63.24c.11-7.3.78-17.33,3.47-19.25,4.01-2.95,13.05-7.1,25.14,4.25,1.1-3.14,1.65-5.52,1.65-5.52-13.21-14.3-23.16-9.8-27.44-6.67-4.32,3.12-3.45,26.94-3.45,26.94Z"/>
      <path class="cls-23" d="M176.99,140.12c0,4.61,3.71,8.34,8.29,8.34s8.29-3.73,8.29-8.34-3.71-8.34-8.29-8.34-8.29,3.73-8.29,8.34Z"/>
      <path class="cls-7" d="M185.67,145.67c2.4-.2,4.23-2.63,4.02-5.3-.21-2.67-2.42-4.76-4.82-4.56-2.39.2-4.23,2.63-4.02,5.3.22,2.67,2.43,4.77,4.82,4.57Z"/>
      <path class="cls-6" d="M185.47,144.71c1.67-.14,3.4-1.98,3.21-4.25-.19-2.27-2.19-3.81-3.86-3.67-1.67.14-3.39,1.99-3.21,4.26.18,2.27,2.19,3.8,3.85,3.66Z"/>
      <path class="cls-12" d="M186.82,139.12c.07.82.9,1.42,1.86,1.34.96-.08,1.68-.81,1.62-1.63-.07-.82-.9-1.42-1.86-1.34-.96.08-1.69.81-1.62,1.63Z"/>
      <path class="cls-12" d="M181.44,143.86c.04.41.45.71.93.67.48-.04.84-.41.81-.81-.03-.41-.45-.71-.93-.67-.48.04-.85.4-.81.81Z"/>
      <g>
        <path class="cls-17" d="M146.03,130.59c-.06-.1-1.59-2.44-4.72-4.85-1.96-1.51-3.88-2.66-5.87-3.52-2.42-1.02-5.03-1.75-7.55-2.09-2.28-.25-4.81-.19-7.77.21-2.25.43-4.45,1.11-6.32,1.93-1.33.46-2.38,1.11-3.23,1.63-.32.2-.62.38-.91.54l-4.03,2.55,4.64-1.1c.22-.06.45-.12.7-.18.96-.26,2.15-.57,3.55-.78.33-.05.66-.11,1-.18.58-.12,1.19-.24,1.82-.27.7-.05,1.43-.1,2.18-.15l.97-.07c2.57-.03,4.74.16,6.67.61,2.11.37,4.27,1.05,6.26,1.97,1.87.9,3.67,1.8,5.08,2.83,2.83,1.9,4.41,3.49,4.43,3.5h0c.39.39.91.6,1.43.6.38,0,.76-.11,1.1-.33.93-.61,1.2-1.88.6-2.79l-.04-.06Z"/>
        <path class="cls-17" d="M203.72,124.43c-.27-.14-.56-.32-.88-.52-.84-.52-1.9-1.17-3.19-1.61-1.91-.84-4.1-1.52-6.39-1.95-2.93-.4-5.46-.46-7.75-.21-2.51.35-5.12,1.07-7.54,2.09-1.96.84-3.94,2.03-5.87,3.52-3.07,2.37-4.6,4.66-4.71,4.84l-.03.04c-.52.8-.41,1.88.26,2.55.38.39.89.6,1.43.6h0c.54,0,1.05-.21,1.43-.6l.02-.02c.15-.15,1.68-1.65,4.43-3.5,1.38-1.02,3.18-1.92,5.05-2.82,1.99-.93,4.16-1.61,6.29-1.98,1.9-.44,4.07-.63,6.61-.61l1.02.07c.74.05,1.46.11,2.17.15.62.03,1.23.15,1.81.27.34.07.67.13,1,.18,1.4.21,2.6.53,3.56.78.25.07.48.13.71.19l4.64,1.1-4.06-2.57Z"/>
      </g>
      <path class="cls-1" d="M152.57,195.79c-.31-.06-.6-.11-.85-.16.29.06.57.12.85.16Z"/>
      <path class="cls-1" d="M151.39,195.56c-.2-.04-.39-.09-.52-.12.17.05.34.08.52.12Z"/>
      <path class="cls-19" d="M151.71,195.63c-.11-.02-.22-.04-.33-.07.11.02.2.04.33.07Z"/>
      <path class="cls-19" d="M150.87,195.44c-.1-.03-.19-.05-.29-.08h-.01s.11.03.3.08Z"/>
      <path class="cls-16" d="M144.35,199.81c-.24-3.26,9.02.68,12.06.78,2.43.08,9.71-.48,10.39-.74,5.09-1.92-.28,5.44-10.54,5.83-4.7.19-11.77-3.89-11.91-5.87Z"/>
      <path class="cls-3" d="M174.5,193.53c-2.51-.12-5.09,1.98-8.12,1.66-.12-.06-.18-.06-.31-.06-.69-.12-1.38,0-2.14.19-.94.2-1.89.58-2.77.89-1.51.49-3.21.89-4.97.75h0s-.06,0-.1,0-.06.01-.1.01h0c-1.75.12-3.45-.27-4.97-.77-.88-.31-1.83-.69-2.77-.89-.76-.19-1.44-.31-2.14-.19-.13,0-.19,0-.31.06-3.02.32-5.6-1.78-8.12-1.66-.7.06-1.7-.12-2.27-.12.12.06.25.12.38.19,7.17,3.51,13.35,10.09,20.2,9.88h.2c6.85.21,13.03-6.37,20.2-9.88.13-.06.26-.12.38-.19-.57,0-1.57.19-2.27.12Z"/>
      <path class="cls-20" d="M176.6,193.33h0s-7.29-2.82-12.47-1.17c0,0-1.93.76-3.93,1.22-1.22.48-2.69.61-4.11.56h0c-1.09-.04-2.13-.18-2.98-.33-.28-.04-.56-.1-.85-.16-.12-.03-.22-.05-.33-.07-.18-.04-.35-.07-.52-.12-.19-.05-.3-.08-.3-.08h.01c-1.66-.46-3.08-1.01-3.08-1.01-5.18-1.66-12.47,1.17-12.47,1.17h0c-.1.05-.16.08-.16.08.57,0,1.57.19,2.27.12,2.51-.12,5.09,1.98,8.12,1.66.12-.06.18-.06.31-.06.69-.12,1.38,0,2.14.19.94.2,1.89.58,2.77.89,1.51.49,3.21.89,4.97.75h0s.06,0,.1,0,.06.01.1.01h0c1.75.12,3.45-.27,4.97-.77.88-.31,1.83-.69,2.77-.89.76-.19,1.44-.31,2.14-.19.13,0,.19,0,.31.06,3.02.32,5.6-1.78,8.12-1.66.69.06,1.7-.12,2.27-.12,0,0-.06-.03-.16-.08Z"/>
      <path class="cls-20" d="M143.85,195.05c.13.03,13.65,4.17,24.23.09l-1.22-.82h-14.29l-8.72.73Z"/>
      <g>
        <path class="cls-18" d="M145.92,149.55c.21-.59.42-1.18.61-1.78,1.12-3.42,1.69-6.93,1.06-10.54-.57-3.26-2.59-5.53-5.31-7.3-3.3-2.16-7.07-2.89-10.91-3.29-7.31-.75-14.58-.59-21.78,1.07-4.26.98-7.53,3.08-9.12,7.19h0s-.02.06-.06.16c-.03.07-.06.14-.09.22-.06.18-.11.34-.13.48-.13.44-.28,1.03-.41,1.71-.13.47-.21.96-.22,1.47-.09.81-.13,1.67-.06,2.53h0c.12,3.16.55,6.23,1.46,9.15,12.51-4.1,28.43-6.37,44.95-1.07Z"/>
        <path class="cls-18" d="M213.11,151.94c1.21-3.31,1.76-6.83,1.9-10.47h0c.07-.86.03-1.72-.06-2.53-.02-.5-.09-1-.22-1.47-.13-.68-.28-1.27-.41-1.71-.02-.15-.07-.31-.13-.48-.03-.08-.06-.14-.09-.22-.03-.1-.06-.16-.06-.16h0c-1.59-4.1-4.87-6.2-9.12-7.18-7.19-1.66-14.47-1.83-21.77-1.07-3.84.4-7.61,1.13-10.91,3.29-2.72,1.78-4.73,4.04-5.31,7.3-.63,3.61-.06,7.12,1.06,10.54.07.23.15.45.23.68,16.84-4.27,32.82-1.04,44.89,3.49Z"/>
        <path class="cls-18" d="M124.72,166.54c4.63-.45,8.91-1.9,12.67-4.66,4.35-3.19,6.79-7.55,8.53-12.34-16.52-5.31-32.44-3.03-44.95,1.07.93,3.02,2.37,5.88,4.5,8.51,4.91,6.06,11.54,8.17,19.24,7.42Z"/>
        <path class="cls-11" d="M124.72,166.54c4.63-.45,8.91-1.9,12.67-4.66,4.35-3.19,6.79-7.55,8.53-12.34-16.52-5.31-32.44-3.03-44.95,1.07.93,3.02,2.37,5.88,4.5,8.51,4.91,6.06,11.54,8.17,19.24,7.42Z"/>
        <path class="cls-18" d="M177.13,161.88c3.76,2.76,8.04,4.21,12.67,4.66,7.7.75,14.33-1.36,19.24-7.42,1.82-2.24,3.13-4.65,4.06-7.19-12.07-4.53-28.05-7.77-44.89-3.49,1.77,5.21,4.24,10.01,8.92,13.43Z"/>
        <path class="cls-11" d="M177.13,161.88c3.76,2.76,8.04,4.21,12.67,4.66,7.7.75,14.33-1.36,19.24-7.42,1.82-2.24,3.13-4.65,4.06-7.19-12.07-4.53-28.05-7.77-44.89-3.49,1.77,5.21,4.24,10.01,8.92,13.43Z"/>
        <path class="cls-12" d="M223.65,130.98c-.08-1.63-.22-1.8-1.88-2.17-.84-.18-1.68-.37-2.52-.56-4.52-1.02-9.02-2.08-13.57-2.92-12.54-2.32-24.97-2.95-36.81,3.09-1.96,1-4.04,1.19-6.27.73-1.76-.36-3.55-.57-5.33-.59-1.78.02-3.57.23-5.33.59-2.23.45-4.31.27-6.27-.73-11.84-6.04-24.27-5.41-36.81-3.09-4.3.8-8.56,1.79-12.82,2.75-1.09.25-2.18.49-3.27.73-1.66.37-1.8.54-1.88,2.17-.08,1.51-.19,3.02,1.31,4.04.09.06.14.18.21.26,1.69,1.93,2.94,3.99,3.63,6.39.21.74.37,1.51.47,2.31.32,2.59.9,5.12,1.76,7.56.88,2.5,2.05,4.91,3.56,7.18,3.81,5.75,9.25,9.26,16.18,10.08,11.24,1.33,20.41-2.38,26.88-11.64,1.49-2.13,2.8-4.34,3.93-6.64,1.52-3.09,2.7-6.34,3.49-9.73.14-.6.05-1.34-.21-1.91-1.07-2.39-.26-4.2,2.33-4.81.94-.22,1.89-.34,2.84-.36.95.02,1.9.14,2.85.36,2.59.61,3.4,2.42,2.33,4.81-.25.56-.35,1.31-.21,1.91.69,2.95,1.67,5.78,2.91,8.5,1.25,2.74,2.76,5.37,4.52,7.87,6.47,9.25,15.64,12.97,26.88,11.64,6.93-.82,12.37-4.33,16.18-10.08,1.22-1.84,2.22-3.77,3.03-5.77,1.16-2.87,1.91-5.88,2.29-8.97.2-1.57.61-3,1.22-4.34.71-1.57,1.69-3,2.88-4.37.07-.08.12-.2.21-.26,1.5-1.02,1.39-2.54,1.31-4.04ZM146.53,147.77c-.2.6-.4,1.19-.61,1.78-1.74,4.78-4.19,9.15-8.53,12.34-3.76,2.76-8.04,4.21-12.67,4.66-7.7.75-14.33-1.36-19.24-7.42-2.13-2.63-3.57-5.49-4.5-8.51-.9-2.92-1.33-5.99-1.46-9.15h0c-.07-.86-.03-1.72.06-2.53.02-.5.09-1,.22-1.47.13-.68.28-1.27.41-1.71.02-.15.07-.31.13-.48.03-.08.06-.14.09-.22.03-.1.06-.16.06-.16h0c1.59-4.1,4.87-6.2,9.12-7.18,7.19-1.66,14.47-1.83,21.77-1.07,3.84.4,7.61,1.13,10.91,3.29,2.72,1.78,4.73,4.04,5.31,7.3.63,3.61.06,7.11-1.06,10.54ZM215.01,141.47c-.14,3.64-.69,7.16-1.9,10.47-.93,2.53-2.24,4.95-4.06,7.19-4.91,6.06-11.54,8.17-19.24,7.42-4.63-.45-8.91-1.9-12.67-4.66-4.68-3.43-7.15-8.23-8.92-13.43-.08-.23-.15-.45-.23-.68-1.12-3.42-1.69-6.93-1.06-10.54.57-3.26,2.59-5.53,5.31-7.3,3.3-2.16,7.07-2.89,10.91-3.29,7.31-.75,14.58-.59,21.77,1.07,4.26.98,7.53,3.08,9.12,7.19h0s.02.06.06.16c.03.07.06.14.09.22.06.18.11.34.13.48.13.44.28,1.03.41,1.71.13.47.21.96.22,1.47.09.81.13,1.67.06,2.53h0Z"/>
      </g>
      <path class="cls-10" d="M204.68,269.59h-95.96c2.92-6.56,6.23-13.96,7.45-27.62,2.45-1.9,4.83-3.32,6.97-4.35,1.11-.56,2.16-1.01,3.13-1.36.33-.12.64-.25.95-.35.37-.12.7-.23,1.03-.33.93-.29,1.69-.5,2.26-.6,6.95,10.02,19.24,26.32,25.9,26.38h.02c.1,0,.19,0,.31-.02,6.83-.43,19.2-16.67,26.07-26.44.84.17,2.28.5,4.14,1.18.29.1.58.21.88.33.16.06.33.12.49.21.43.17.86.37,1.32.58,2.26,1.03,4.86,2.5,7.57,4.56,1.21,13.82,4.53,21.25,7.47,27.85Z"/>
      <path class="cls-10" d="M102.64,300.47h108.12c-.25-4.1-.62-9.89-1-13.69h-106.11c-.38,3.8-.75,9.6-1,13.69Z"/>
      <path class="cls-9" d="M204.69,269.59h-95.97c-2.22,4.98-4.22,9.49-4.93,15.88-.05.4-.09.84-.14,1.3h106.11c-.05-.46-.09-.9-.14-1.3-.71-6.4-2.71-10.9-4.93-15.88Z"/>
      <path class="cls-10" d="M175.77,187.87s-9.14-10.06-15.35-6.24h0c-3.33,2.15-6.27.76-7.22.19-.05-.04-.11-.07-.16-.1-.1-.07-.16-.11-.16-.11h0c-6.21-3.81-15.35,6.25-15.35,6.25,0,0-6.36,6.65-12.73,4.54-1.07-.35-1.86,1.04-1.07,1.84,3.89,3.99,10.96,8.15,22.74,5.69,2.63-.55,4.68-1.26,6.28-2.07,2.45-1.25,5.33-1.25,7.78,0,1.6.81,3.65,1.52,6.27,2.07,11.79,2.46,18.86-1.7,22.75-5.69.79-.81,0-2.2-1.07-1.84-6.37,2.11-12.73-4.54-12.73-4.54Z"/>
    </g>
  </g>
</svg>