<?xml version="1.0" encoding="UTF-8"?>
<svg id="Layer_2" data-name="Layer 2" xmlns="http://www.w3.org/2000/svg" xmlns:xlink="http://www.w3.org/1999/xlink" viewBox="0 0 221.6 223.72">
  <defs>
    <style>
      .cls-1 {
        fill: none;
      }

      .cls-2 {
        fill: #462e1b;
      }

      .cls-3 {
        fill: #ba9d82;
      }

      .cls-4 {
        fill: #ccad8a;
      }

      .cls-5 {
        fill: #1b1e1c;
        opacity: .4;
      }

      .cls-6 {
        fill: #44361f;
      }

      .cls-7 {
        fill: #d7bd9d;
      }

      .cls-8 {
        fill: #e5b344;
      }

      .cls-9 {
        fill: #c1a587;
      }

      .cls-10 {
        fill: #dac6a4;
      }

      .cls-11 {
        fill: #c29e6e;
      }

      .cls-12 {
        fill: #fff;
      }

      .cls-13 {
        fill: #dcc5a0;
      }

      .cls-14 {
        fill: #272213;
      }

      .cls-15 {
        fill: #ecdab6;
      }

      .cls-16 {
        fill: #402825;
      }

      .cls-17 {
        fill: #b8987d;
      }

      .cls-18 {
        fill: #ebd9b5;
      }

      .cls-19 {
        fill: #a98d76;
      }

      .cls-20 {
        fill: #51514d;
      }

      .cls-21 {
        fill: #eff0f0;
        opacity: .55;
      }

      .cls-22 {
        fill: #714223;
      }

      .cls-23 {
        fill: #b7967d;
      }

      .cls-24 {
        clip-path: url(#clippath);
      }

      .cls-25 {
        fill: #d2bb9b;
      }

      .cls-26 {
        fill: #b5957e;
      }

      .cls-27 {
        fill: #3c3d38;
      }
    </style>
    <clipPath id="clippath">
      <rect class="cls-1" x="98.56" y="154.91" width="25.12" height="14.86"/>
    </clipPath>
  </defs>
  <g id="Layer_1-2" data-name="Layer 1">
    <g>
      <rect class="cls-11" width="221.6" height="223.72"/>
      <path class="cls-6" d="M35.88,163.77l-.13.13.02.04c.04-.07.07-.13.11-.17Z"/>
      <path class="cls-6" d="M180.17,163.82l-.13.13.02.04c.04-.07.06-.13.11-.17Z"/>
      <path class="cls-13" d="M111.03,139.65v84.07h-45.33c-.74-.3-1.11-.44-1.11-.44,0-10.73,1.57-19.1,3.96-25.62,5.77-15.75,16.33-20.75,21.2-22.26,1.6-.5,2.58-.61,2.58-.61.17,0,.33-.02.5-.04,1.43-.23,2.59-1.47,3.52-3.46.69-1.47,1.27-3.35,1.74-5.53.19-.85.33-1.7.48-2.63.22-1.55.44-3.18.63-4.89.07-1.04.18-2.03.29-3.11.4-5.14.52-10.77.52-16.1,0,0,6.09.63,11.03.63Z"/>
      <path class="cls-18" d="M157.65,223.28s-.41.15-1.07.44h-45.55v-84.07h.11c4.91,0,11.07-.63,11.07-.63,0,5.29.11,10.85.51,15.99.11,1,.22,2.03.29,3.04.19,1.78.41,3.44.67,5v.03c.07.71.22,1.34.33,2,.45,2.19.99,4.11,1.65,5.65.82,1.92,1.81,3.26,3.01,3.79.38.17.79.26,1.21.26,0,0,1.74.21,4.36,1.24,5.34,2.1,14.3,7.6,19.45,21.63,2.39,6.52,3.96,14.89,3.96,25.62Z"/>
      <g class="cls-24">
        <path class="cls-3" d="M123.68,162.89v.04c-1.14,1.77-4.98,6.84-12.58,6.84h-.07c-7.19-.04-11.4-5.26-12.47-6.8.22-1.54.44-3.16.63-4.85.07-.99.18-2.02.3-3.09,3.5.88,7.34,1.43,11.4,1.51h.15c4.2-.07,8.08-.66,11.69-1.62.11.99.22,2.02.3,3.02.18,1.77.41,3.42.66,4.96"/>
      </g>
      <path class="cls-4" d="M110.52,43.85c-48.02,0-48.28,40.27-46.14,66.64-3.28-6.25-13.06-4.34-12.25,5.52.77,9.49,14.74,14.32,14.35,13.28,7.27,19.5,26.52,34.2,44.04,34.2h.37V43.85h-.37"/>
      <path class="cls-19" d="M55.19,111.85c2.36-3.82,6.05-2.17,6.93-1.32.96.92,1.73,2.1,1.14,4.34-.33,1.29-1.66,1.4-1.36,3.31.37,2.17,1.36,2.28,1.95,2.79.55.48,1.25.85,1.59,1.77.37.92.41,1.88.22,2.72-.37,1.54-2.62.29-4.13-.37-1-.48-4.17-3.16-4.98-4.05-1.99-2.28-2.95-6.69-1.36-9.19"/>
      <path class="cls-7" d="M110.77,43.85c48.02,0,48.28,40.27,46.18,66.64,3.28-6.25,13.02-4.34,12.21,5.52-.74,9.49-14.73,14.33-14.35,13.28-7.08,19.5-26.52,34.2-44.04,34.2h-.26l-.11-119.63h.37"/>
      <path class="cls-19" d="M166.1,111.85c-2.36-3.82-6.01-2.17-6.93-1.32-.96.92-1.7,2.1-1.14,4.34.33,1.29,1.66,1.4,1.36,3.31-.37,2.17-1.36,2.28-1.92,2.79-.55.48-1.29.85-1.62,1.77-.33.92-.41,1.88-.22,2.72.37,1.54,2.62.29,4.13-.37,1.03-.48,4.17-3.16,4.98-4.05,2.03-2.28,2.95-6.69,1.36-9.19"/>
      <path class="cls-13" d="M110.14,55.21c-15.79,0-27.37,4.6-34.34,13.64-9.77,12.69-9.41,32.03-5.83,45.93,1.11,4.27,1.7,15.7,2.43,19.9,3.43,18.79,24.12,28.8,37.73,28.8h.37V55.21h-.22"/>
      <path class="cls-18" d="M144.44,68.89c-6.93-9.01-18.37-13.61-33.93-13.68v108.27c15.57-.18,34.19-11.14,37.36-28.8.77-4.19,1.33-15.63,2.43-19.9,3.61-13.86,3.98-33.17-5.86-45.9"/>
      <path class="cls-1" d="M108.58,140.35c-.22-.04-.42-.08-.59-.11.2.04.4.08.59.11Z"/>
      <path class="cls-1" d="M107.76,144.24c-.14-.03-.27-.06-.36-.08.12.03.24.05.36.08Z"/>
      <path class="cls-23" d="M107.99,144.29c-.08-.02-.15-.03-.23-.05.07.02.14.03.23.05Z"/>
      <path class="cls-23" d="M107.4,144.16c-.07-.02-.13-.04-.2-.06h0s.08.02.21.06Z"/>
      <path class="cls-7" d="M101.34,130.24c-.18-3.74,6.85-1.37,9.17-1.25,1.83.09,7.41-1.18,7.89-.85,3.28,2.22-3.47,6.69-8,6.69-1.21,0-8.94-2.33-9.05-4.58Z"/>
      <path class="cls-1" d="M67.45,88.96c-.43,1.44-.73,3-.93,4.67,0,0,.63-2.64,2.03-6.54-.6.83-1,1.5-1.1,1.87Z"/>
      <path class="cls-6" d="M97.1,55.48l-.2.2.03.07c.07-.1.1-.2.17-.27Z"/>
      <path class="cls-1" d="M108.73,142.21c-.22-.04-.43-.08-.61-.12.21.04.41.09.61.12Z"/>
      <path class="cls-1" d="M107.89,142.04c-.14-.03-.28-.06-.37-.09.12.03.24.06.37.09Z"/>
      <path class="cls-26" d="M108.12,142.09c-.08-.02-.15-.03-.23-.05.08.02.14.03.23.05Z"/>
      <path class="cls-26" d="M107.52,141.96c-.07-.02-.14-.04-.21-.06h0s.08.02.21.06Z"/>
      <path class="cls-12" d="M76.05,97.47s3.66,15.08,9.95,16.31c6.29,1.23,13.1-1.22,13.1-1.22,0,0,.65-17.72-2.57-20.03-3.22-2.33-10.64-5.69-20.48,4.94Z"/>
      <path class="cls-25" d="M99.11,112.51s-.14.04-.47.18c-.08-5.43-.58-12.9-2.59-14.33-2.99-2.2-9.74-5.29-18.76,3.17-.82-2.34-1.23-4.11-1.23-4.11,9.86-10.65,17.29-7.29,20.48-4.97,3.22,2.32,2.57,20.06,2.57,20.06Z"/>
      <ellipse class="cls-2" cx="89.2" cy="104.84" rx="6.19" ry="6.21"/>
      <path class="cls-22" d="M88.91,108.97c-1.79-.15-3.16-1.96-3-3.95.16-1.99,1.81-3.55,3.6-3.4,1.79.15,3.16,1.96,3,3.94-.16,1.99-1.81,3.55-3.6,3.4Z"/>
      <path class="cls-14" d="M89.07,108.26c-1.24-.11-2.54-1.48-2.4-3.16.14-1.69,1.63-2.83,2.88-2.73,1.24.11,2.53,1.48,2.4,3.17-.14,1.69-1.63,2.83-2.88,2.73Z"/>
      <path class="cls-12" d="M88.06,104.09c-.05.61-.68,1.06-1.39,1-.72-.06-1.26-.61-1.21-1.21.05-.61.67-1.06,1.39-1,.72.06,1.26.6,1.21,1.22Z"/>
      <path class="cls-12" d="M92.07,107.62c-.03.3-.34.53-.69.5-.36-.03-.63-.3-.61-.61.03-.3.34-.53.69-.5.36.03.63.3.61.61Z"/>
      <path class="cls-1" d="M108.83,143.99c-.22-.04-.43-.08-.61-.12.21.04.41.09.61.12Z"/>
      <path class="cls-1" d="M107.98,143.82c-.14-.03-.28-.06-.37-.09.12.03.24.06.37.09Z"/>
      <path class="cls-26" d="M108.22,143.87c-.08-.02-.15-.03-.23-.05.08.02.14.03.23.05Z"/>
      <path class="cls-26" d="M107.61,143.73c-.07-.02-.14-.04-.21-.06h0s.08.03.21.06Z"/>
      <path class="cls-1" d="M108.59,143.57c-.24-.04-.46-.08-.65-.13.22.05.44.09.65.13Z"/>
      <path class="cls-1" d="M107.69,143.39c-.15-.03-.3-.07-.4-.09.13.03.26.06.4.09Z"/>
      <path class="cls-23" d="M107.94,143.44c-.08-.02-.17-.03-.25-.05.08.02.15.03.25.05Z"/>
      <path class="cls-23" d="M107.29,143.3c-.08-.02-.15-.04-.22-.06h0s.09.03.23.06Z"/>
      <path class="cls-1" d="M108.4,142.94c-.24-.04-.46-.08-.65-.12.22.05.44.09.65.12Z"/>
      <path class="cls-1" d="M107.5,142.76c-.15-.03-.3-.07-.4-.09.13.03.26.06.4.09Z"/>
      <path class="cls-23" d="M107.75,142.81c-.08-.02-.17-.03-.25-.05.08.02.15.03.25.05Z"/>
      <path class="cls-23" d="M107.1,142.67c-.08-.02-.15-.04-.22-.06h0s.09.03.23.06Z"/>
      <path class="cls-1" d="M108.96,142.85c-.23-.04-.44-.08-.63-.12.21.05.42.09.63.12Z"/>
      <path class="cls-1" d="M108.08,142.68c-.14-.03-.29-.06-.38-.09.13.03.25.06.38.09Z"/>
      <path class="cls-23" d="M108.32,142.73c-.08-.02-.16-.03-.24-.05.08.02.15.03.24.05Z"/>
      <path class="cls-23" d="M107.7,142.59c-.07-.02-.14-.04-.21-.06h0s.08.03.22.06Z"/>
      <path class="cls-12" d="M145.33,96.96s-3.66,15.08-9.95,16.31c-6.29,1.23-13.1-1.22-13.1-1.22,0,0-.65-17.72,2.57-20.03,3.22-2.33,10.64-5.69,20.48,4.94Z"/>
      <path class="cls-25" d="M122.27,112s.14.04.47.18c.08-5.43.58-12.9,2.59-14.33,2.99-2.2,9.74-5.29,18.76,3.17.82-2.34,1.23-4.11,1.23-4.11-9.86-10.65-17.29-7.29-20.48-4.97-3.22,2.32-2.57,20.06-2.57,20.06Z"/>
      <path class="cls-2" d="M126,104.32c0,3.43,2.77,6.21,6.19,6.21s6.19-2.78,6.19-6.21-2.77-6.21-6.19-6.21-6.19,2.78-6.19,6.21Z"/>
      <path class="cls-22" d="M132.48,108.46c1.79-.15,3.16-1.96,3-3.95-.16-1.99-1.81-3.55-3.6-3.4-1.79.15-3.16,1.96-3,3.94.16,1.99,1.81,3.55,3.6,3.4Z"/>
      <path class="cls-14" d="M132.32,107.74c1.24-.11,2.54-1.48,2.4-3.16-.14-1.69-1.63-2.83-2.88-2.73-1.25.11-2.53,1.48-2.4,3.17.14,1.69,1.63,2.83,2.88,2.73Z"/>
      <path class="cls-12" d="M133.33,103.58c.05.61.68,1.06,1.39,1,.72-.06,1.26-.61,1.21-1.21-.05-.61-.67-1.06-1.39-1-.72.06-1.26.6-1.21,1.22Z"/>
      <path class="cls-12" d="M129.32,107.11c.03.3.34.53.69.5.36-.03.63-.3.61-.61-.03-.3-.34-.53-.69-.5-.36.03-.63.3-.61.61Z"/>
      <g>
        <path d="M102.88,97.23c-.05-.07-1.19-1.81-3.52-3.61-1.46-1.13-2.89-1.98-4.38-2.62-1.81-.76-3.75-1.3-5.64-1.56-1.7-.19-3.59-.14-5.8.16-1.68.32-3.32.82-4.72,1.44-.99.34-1.78.83-2.41,1.21-.24.15-.46.28-.68.4l-3,1.89,3.46-.82c.16-.04.34-.09.52-.14.72-.19,1.61-.43,2.65-.58.24-.04.49-.09.75-.14.44-.09.89-.18,1.36-.2.52-.04,1.07-.07,1.63-.11l.73-.05c1.92-.02,3.54.12,4.98.45,1.57.27,3.19.78,4.67,1.47,1.4.67,2.74,1.34,3.79,2.11,2.12,1.42,3.29,2.6,3.3,2.61h0c.29.29.68.45,1.07.45.28,0,.57-.08.82-.25.7-.46.89-1.4.45-2.08l-.03-.05Z"/>
        <path d="M145.95,92.64c-.2-.11-.42-.24-.66-.39-.63-.39-1.41-.87-2.38-1.2-1.42-.63-3.06-1.13-4.77-1.45-2.19-.29-4.08-.35-5.79-.15-1.88.26-3.82.8-5.63,1.56-1.47.63-2.94,1.51-4.38,2.62-2.29,1.76-3.43,3.47-3.52,3.6l-.02.03c-.39.6-.3,1.4.2,1.9.28.29.66.45,1.07.45h0c.4,0,.78-.16,1.06-.45h.01c.11-.12,1.25-1.24,3.31-2.62,1.03-.76,2.37-1.43,3.77-2.1,1.49-.69,3.11-1.2,4.7-1.48,1.42-.33,3.04-.47,4.93-.45l.76.05c.55.04,1.09.08,1.62.11.46.02.92.11,1.35.2.25.05.5.1.75.14,1.05.15,1.94.39,2.65.58.19.05.36.1.53.14l3.46.82-3.03-1.91Z"/>
      </g>
      <path class="cls-1" d="M107.77,145.78c-.23-.04-.45-.08-.64-.12.22.05.43.09.64.12Z"/>
      <path class="cls-1" d="M106.89,145.6c-.15-.03-.29-.07-.39-.09.13.03.26.06.39.09Z"/>
      <path class="cls-17" d="M107.13,145.65c-.08-.02-.16-.03-.24-.05.08.02.15.03.24.05Z"/>
      <path class="cls-17" d="M106.5,145.51c-.07-.02-.14-.04-.22-.06h0s.08.03.22.06Z"/>
      <path class="cls-15" d="M101.63,148.76c-.18-2.42,6.73.51,9,.58,1.81.06,7.25-.36,7.75-.55,3.8-1.43-.21,4.05-7.87,4.34-3.51.14-8.78-2.9-8.89-4.37Z"/>
      <path class="cls-10" d="M124.13,144.09c-1.88-.09-3.8,1.48-6.06,1.24-.09-.05-.14-.05-.23-.05-.52-.09-1.03,0-1.6.14-.7.15-1.41.43-2.07.66-1.13.37-2.4.66-3.71.56h0s-.05,0-.07,0-.05,0-.07,0h0c-1.31.09-2.58-.2-3.71-.57-.66-.23-1.37-.52-2.07-.66-.56-.14-1.08-.23-1.6-.14-.1,0-.14,0-.23.05-2.26.24-4.18-1.33-6.06-1.24-.52.05-1.27-.09-1.69-.09.09.05.19.09.28.14,5.35,2.62,9.96,7.52,15.08,7.36h.15c5.11.16,9.73-4.74,15.08-7.36.1-.05.19-.09.29-.14-.42,0-1.17.14-1.69.09Z"/>
      <path class="cls-9" d="M125.71,143.94h0s-5.44-2.1-9.31-.87c0,0-1.44.56-2.93.91-.91.35-2.01.46-3.07.41h0c-.81-.03-1.59-.14-2.22-.25-.21-.03-.42-.08-.64-.12-.09-.02-.16-.03-.24-.05-.13-.03-.26-.06-.39-.09-.14-.03-.22-.06-.22-.06h0c-1.24-.34-2.3-.75-2.3-.75-3.87-1.23-9.31.87-9.31.87h0c-.07.03-.12.06-.12.06.42,0,1.17.14,1.69.09,1.88-.09,3.8,1.48,6.06,1.24.09-.05.14-.05.23-.05.52-.09,1.03,0,1.6.14.7.15,1.41.43,2.07.66,1.13.37,2.4.66,3.71.56h0s.05,0,.07,0,.05,0,.07,0h0c1.31.09,2.58-.2,3.71-.57.66-.23,1.37-.52,2.07-.66.56-.14,1.08-.23,1.6-.14.1,0,.14,0,.23.05,2.26.24,4.18-1.33,6.06-1.24.52.05,1.27-.09,1.69-.09,0,0-.05-.02-.12-.06Z"/>
      <path class="cls-9" d="M101.26,145.22c.1.02,10.19,3.11,18.09.07l-.91-.61h-10.67l-6.51.55Z"/>
      <path class="cls-8" d="M150.49,210.86h8.35c.19-8.3-2.57-15.34-4.55-19.3-5.76,6.63-22.28,11.43-41.77,11.43-21.4,0-39.22-5.78-43.15-13.43-1.67,3.84-6.03,14.51-5.97,21.3h8.53c-.03,5.76-.21,10.15-.39,12.86h79.28c-.19-2.7-.39-7.09-.42-12.86h.1Z"/>
      <path class="cls-16" d="M112.52,202.99c19.49,0,36.01-4.79,41.77-11.43-1.09-2.18-1.96-3.44-1.96-3.44-2.32-3.18-4.84-5.6-7.34-7.44-.2-.19-.44-.35-.65-.52-3.29-2.38-6.44-3.72-8.75-4.48-.46-.16-.87-.29-1.25-.42-1.69-.47-2.74-.56-2.74-.56-.93,0-1.77-.35-2.49-.96,0,0,0-.03-.04-.03-.24-.23-.49-.5-.72-.79-.11.07-.28.33-.46.83-.48,1.16-2.55,5.59-5.63,9.65-2.94,3.87-6.8,7.39-11.09,7.39-8.79,0-15.79-14.78-16.72-17.04-.17-.5-.35-.76-.44-.83-.25.29-.49.57-.74.79-.03,0-.03.03-.03.03-.73.6-1.55.96-2.49.96,0,0-1.1.13-2.89.63-.39.1-.81.23-1.25.39-1.9.65-4.34,1.7-6.93,3.34-.57.36-1.14.75-1.73,1.17-.21.13-.45.29-.66.5-1.78,1.32-3.57,2.95-5.3,4.94-.67.76-1.33,1.57-1.97,2.45,0,0-.25.53-.64,1.44,3.93,7.65,21.75,13.43,43.15,13.43Z"/>
      <path class="cls-20" d="M110.71,137.57c-8.04-.04-16.17-1.87-20.35,2.65-3.4,4.46-3.93,15.8.05,20.41,1.85-5.64,1.36-11.92,6.62-14.05,4.62-1.88,11.05.21,13.79-4.67,3.13,6.98,12.51,1.85,17.13,8.28,2.19,3.05,2.16,5.6,3.74,11.2,4.4-3.91,4.15-14.91,1.28-19.14-4.21-6.23-13.03-4.64-22.25-4.69Z"/>
      <path class="cls-20" d="M101.26,158.95c.05,4.09,1.62,7.41,3.53,7.41h10.87c1.94,0,3.51-3.43,3.51-7.63v-.02c-2.37,1.73-5.57,2.8-9.1,2.8s-6.46-.98-8.81-2.56Z"/>
      <path class="cls-27" d="M164.97,62.73c-1.07-3.95-2.17-7-2.17-7,0,0,.15.02,1.65.02,6.43-.01,10.9-4.39,13.02-7.04.23-.28-.1-.68-.42-.51-2.09,1.13-6.24,2.14-13.62-.32-.73-.24-1.4-.52-2.04-.83-4.12-2.39-1.05-3.72-1.05-3.72l-.03-.06c6.79-1.15,6.42-8.88,5.2-14.48-.09-.42-.7-.3-.66.13,1.38,17.26-19.68,1.5-19.68,1.5h0c-2.53-2.27-5.68-4.42-9.92-6.21-8.59-3.62-13.73-3.15-16.7-1.83,3.01-2.5,9.2-2.28,9.2-2.28,0,0-7.64-4.24-19.45-.44-8.3,2.68-13.26,5.72-16.05,7.91l4.65-4.48s-3.29,1.18-7.96,3.58c2.41-4.72,6.38-9.78,8.15-11.94.23-.28-.08-.69-.41-.55-14.37,6.26-26.04,25.32-26.04,25.32.91-5.81,2.64-11.25,3.41-13.51.11-.32-.29-.58-.56-.37-9.61,7.58-14.85,17.38-17.67,26.49-.64,2.05-3.66,1.77-3.93-.37-1.01-8.07.16-16.18.61-18.79.05-.31-.32-.52-.56-.33-8.14,6.68-5.46,26.91-2.19,41.51.52,2.31-2.5,3.75-3.94,1.87-5.82-7.56-9.94-19.13-11.27-23.13-.11-.34-.64-.29-.68.07-3.37,26.39,25.53,52.83,25.53,52.83h0c.69,1.27,1.36,2.3,1.98,3.01,3.36,3.9,2.28,9.55,3.29,9.55,0,0,2.02.07,2.09-9.81.25-3.34,1.3-8.69,5.58-7.09.23.1.46.21.69.31.04.02.08.03.13.06h0c21.5,8.66,32.48-13.29,32.48-13.29,0,0,2.23-4.77,5.54-9.77,0,0,14.35-24.24,33.28-7.76.53.4,1.01.85,1.46,1.35.09.09.18.16.27.25l-.04.03c.2.24.42.45.6.7,5.91,8.55,8.25,21.09,7.29,25.9-2.52,12.81,1,20.19,2.34,19.84,0,0,.05-3.26,1.27-6.15,3.61-8.64,6.65-2.64,7.21-14.35.43-9.02,1.49-14.28,1.97-18.91.03-.26.31-.38.52-.22,2.86,2.12,7.02,3.59,13.08,3.72,0,0-9.04-2.82-15.43-20.42Z"/>
      <g>
        <path class="cls-5" d="M164,102.98c-2.08,1.8-2.77,4.3-2.77,4.3-.68,4.9-1.74,8.84-3,12.01-.02,0-.05-.01-.07-.02-.32-.08-.64-.17-.97-.24-.19-.05-.39-.1-.59-.14-.13-.03-.26-.06-.39-.09-.02,0-.04-.01-.06-.02-.69-.16-1.39-.31-2.09-.46-.26-.05-.53-.11-.8-.16-.27-.05-.53-.1-.8-.15-.27-.05-.54-.1-.81-.14-.49-.08-.99-.16-1.49-.24-.06-.01-.12-.02-.19-.03-.2-.03-.4-.06-.6-.08-.27-.04-.54-.07-.81-.11-.19-.02-.38-.05-.57-.07-.15-.02-.3-.03-.44-.05-.3-.03-.59-.06-.89-.09-.12-.01-.23-.02-.35-.03-.25-.02-.49-.05-.74-.06-.27-.02-.53-.05-.8-.06-.18-.02-.36-.03-.54-.04-.37-.02-.75-.05-1.12-.06-.31-.02-.63-.03-.94-.04-.03,0-.06,0-.08,0-.35-.02-.7-.02-1.05-.03h-.05c-.37,0-.74,0-1.1,0-.24,0-.48,0-.72,0-.16,0-.32,0-.48,0-.12,0-.25,0-.37,0-.19,0-.39,0-.59.02-.22,0-.43.01-.65.02-.3.01-.6.03-.89.04-.46.03-.91.06-1.37.1-.18.01-.35.03-.53.04-.16.01-.32.03-.49.04-.03,0-.07,0-.1,0-.19.02-.39.04-.59.06-.15.02-.3.03-.45.05-.04,0-.08,0-.13.01-.22.02-.44.05-.66.08-.63.08-1.26.17-1.89.27-.19.03-.39.06-.59.1-.08.01-.16.02-.25.04-.16.03-.32.05-.48.08-.15.03-.31.06-.46.08-.31.06-.61.12-.93.18-.46.09-.92.19-1.39.3-.18.04-.37.08-.55.13-.11.02-.22.05-.33.08-.21.05-.42.1-.62.15-.25.06-.5.13-.76.2-.78.21-1.56.43-2.34.67-.23.07-.46.14-.69.22-.15.05-.31.1-.46.15-.1.03-.2.06-.3.1-.29.1-.59.2-.88.31-.32.11-.65.23-.97.35-1.9-3.24-2.9-5.91-2.9-5.91-.61-1.63-1.36-2.6-2.1-3.16-.29-1.83-.42-3.54-.42-5.16,0-.37,0-.74.02-1.1,2.64-.81,5.48-3.41,5.48-3.41,21.21-12.68,44.91-4.57,44.91-4.57,1.8.76,1.04,5.55,1.04,5.55Z"/>
        <path class="cls-21" d="M158.24,119.28c-4.85,12.27-12.6,13.01-12.6,13.01-11.51,2.57-18.64-1.87-18.64-1.87-3.96-2.18-7-6.24-9.02-9.68.32-.12.65-.24.97-.35.3-.11.59-.21.88-.31.1-.03.2-.07.3-.1.15-.05.31-.1.46-.15.23-.08.46-.15.69-.22.78-.24,1.56-.47,2.34-.67.25-.07.5-.13.76-.2.21-.05.42-.1.62-.15.11-.03.22-.05.33-.08.18-.05.37-.09.55-.13.47-.11.93-.21,1.39-.3.31-.06.62-.12.93-.18.15-.03.31-.06.46-.08.16-.03.32-.06.48-.08.08-.02.17-.03.25-.04.19-.03.39-.07.59-.1.64-.1,1.26-.19,1.89-.27.22-.03.44-.06.66-.08.04,0,.09,0,.13-.01.15-.02.3-.03.45-.05.2-.02.4-.04.59-.06.03,0,.07,0,.1,0,.16-.02.33-.03.49-.04.18-.02.35-.03.53-.04.46-.04.92-.07,1.37-.1.3-.02.6-.03.89-.04.22,0,.43-.02.65-.02.2,0,.39-.01.59-.02.12,0,.25,0,.37,0,.16,0,.32,0,.48,0,.24,0,.48,0,.72,0,.37,0,.74,0,1.1,0h.05c.35,0,.7.01,1.05.03.03,0,.05,0,.08,0,.31,0,.63.02.94.04.38.01.75.04,1.12.06.18.01.36.03.54.04.27.02.53.04.8.06.25.02.49.04.74.06.12,0,.24.02.35.03.3.03.59.06.89.09.15.02.3.03.44.05.19.02.38.05.57.07.27.03.54.07.81.11.2.03.4.06.6.08.06,0,.12.02.19.03.5.07,1,.15,1.49.24.27.05.54.1.81.14.27.05.54.1.8.15.27.05.53.1.8.16.7.14,1.4.29,2.09.46.02,0,.04,0,.06.02.13.03.26.06.39.09.2.05.39.1.59.14.32.08.65.16.97.24.02,0,.05.01.07.02Z"/>
        <path class="cls-5" d="M110.53,110.95c0,.09-.02.18-.03.27-.95.42-2.04,1.41-2.86,3.62,0,0-1.13,3.03-3.28,6.55,0,0-.02,0-.02,0-.3-.11-.59-.21-.89-.31-.25-.08-.51-.17-.76-.25-.15-.05-.31-.1-.46-.15l-.24-.07c-.78-.24-1.56-.47-2.34-.67-.25-.07-.5-.13-.76-.2-.21-.05-.42-.1-.62-.15-.11-.03-.22-.05-.33-.08-.19-.05-.37-.09-.55-.13-.47-.11-.93-.21-1.39-.3-.31-.06-.62-.12-.93-.18-.15-.03-.31-.06-.46-.08-.16-.03-.32-.06-.47-.08-.08-.02-.16-.03-.24-.04-.2-.03-.39-.06-.59-.1-.64-.1-1.26-.19-1.89-.27-.22-.03-.44-.06-.66-.08-.04,0-.08,0-.13-.01-.15-.02-.3-.03-.45-.05-.2-.02-.39-.04-.59-.06-.03,0-.07,0-.1,0-.17-.02-.33-.03-.49-.04-.18-.02-.35-.03-.53-.04-.46-.04-.92-.07-1.37-.1-.3-.02-.59-.03-.89-.04-.22-.01-.43-.02-.65-.02-.2,0-.39-.01-.59-.02-.12,0-.25,0-.37,0-.16,0-.32,0-.48,0-.24,0-.48,0-.72,0-.37,0-.74,0-1.1,0h-.05c-.35,0-.69.01-1.04.03-.03,0-.05,0-.08,0-.31,0-.63.02-.94.04-.38.01-.75.04-1.12.06-.18.01-.36.02-.54.04-.27.02-.53.04-.8.06-.25.02-.49.04-.74.06-.12,0-.24.02-.35.03-.3.03-.59.06-.89.09-.15.02-.3.03-.45.05-.19.02-.38.05-.57.07-.27.03-.54.07-.81.11-.2.03-.4.06-.6.08-.06,0-.12.02-.18.03-.5.07-1,.15-1.5.24-.27.05-.54.1-.81.14-.27.05-.53.1-.8.15-.27.05-.53.1-.8.16-.7.14-1.4.29-2.09.46-.06.02-.13.03-.2.05-.09.02-.17.04-.26.06-.2.05-.39.1-.59.14-.32.08-.65.16-.97.24-.07.02-.14.04-.22.06-1.43-3.33-2.66-7.59-3.41-13.02,0,0-.69-2.5-2.77-4.3,0,0-.76-4.78,1.04-5.55,0,0,23.7-8.11,44.91,4.57,0,0,3.22,2.96,6,3.54,0,.02,0,.04,0,.06.11,1.67.07,3.44-.13,5.34Z"/>
        <path class="cls-21" d="M104.36,121.38c-2.01,3.29-4.92,7-8.64,9.05,0,0-7.14,4.44-18.64,1.87,0,0-7.31-.7-12.18-12,.07-.02.15-.04.22-.06.32-.08.64-.17.97-.24.19-.05.39-.1.59-.14.09-.02.17-.04.26-.06.06-.02.13-.03.2-.05.69-.16,1.39-.31,2.09-.46.27-.05.53-.11.8-.16.27-.05.53-.1.8-.15.27-.05.54-.1.81-.14.49-.08.99-.16,1.5-.24.06-.01.12-.02.18-.03.2-.03.4-.06.6-.08.27-.04.54-.07.81-.11.19-.02.38-.05.57-.07.15-.02.3-.03.45-.05.3-.03.59-.06.89-.09.12-.01.23-.02.35-.03.25-.02.49-.05.74-.06.27-.02.53-.05.8-.06.18-.02.36-.03.54-.04.37-.02.75-.05,1.12-.06.31-.02.63-.03.94-.04.03,0,.06,0,.08,0,.35-.02.69-.02,1.04-.03h.05c.37,0,.74,0,1.1,0,.24,0,.48,0,.72,0,.16,0,.32,0,.48,0,.12,0,.25,0,.37,0,.2,0,.39,0,.59.02.22,0,.43.01.65.02.3.01.6.03.89.04.46.03.91.06,1.37.1.18.01.35.03.53.04.16.01.32.03.49.04.03,0,.07,0,.1,0,.2.02.39.04.59.06.15.02.3.03.45.05.04,0,.08,0,.13.01.22.03.44.05.66.08.63.08,1.26.17,1.89.27.19.03.39.06.59.1.08.01.16.02.24.04.16.03.32.05.47.08.15.03.31.05.46.08.31.06.62.12.93.18.46.09.92.19,1.39.3.18.04.37.08.55.13.11.02.22.05.33.08.21.05.41.1.62.15.25.06.5.13.76.2.78.21,1.56.43,2.34.67l.24.07c.15.05.3.1.46.15.25.08.51.16.76.25.29.1.59.2.89.31,0,0,.02,0,.02,0Z"/>
        <path class="cls-12" d="M162.96,97.44s-23.7-8.11-44.91,4.57c0,0-2.83,2.6-5.48,3.41-.41.13-.82.21-1.22.23h0c-.23-.01-.46-.04-.7-.1-2.78-.58-6-3.54-6-3.54-21.21-12.68-44.91-4.57-44.91-4.57-1.8.76-1.04,5.55-1.04,5.55,2.08,1.8,2.77,4.3,2.77,4.3.76,5.43,1.98,9.69,3.41,13.02,4.86,11.3,12.18,12,12.18,12,11.51,2.57,18.64-1.87,18.64-1.87,3.72-2.05,6.63-5.76,8.64-9.05,2.15-3.51,3.28-6.55,3.28-6.55.82-2.21,1.91-3.2,2.86-3.62.31-.14.6-.21.86-.25h0c.47.07,1.04.26,1.62.71.74.56,1.49,1.53,2.1,3.16,0,0,1,2.67,2.9,5.91h0c2.02,3.44,5.06,7.5,9.02,9.68,0,0,7.14,4.44,18.64,1.87,0,0,7.74-.74,12.6-13.01,1.25-3.17,2.31-7.11,3-12.01,0,0,.69-2.5,2.77-4.3,0,0,.76-4.78-1.04-5.55ZM102.23,120.67c-.13.24-.23.41-.27.49-.02.04-.04.08-.06.12-6.85,13.66-24.36,8.85-26.19,8.3-.1-.03-.2-.06-.29-.1-4.11-1.74-6.81-5.93-8.49-9.69-1.53-3.41-2.2-6.47-2.31-6.99-.01-.06-.03-.12-.04-.17-1.28-4.53-.77-7.75.39-10.01,1.45-2.85,4.28-4.74,7.46-5.1,20.19-2.29,31.09,6.52,31.09,6.52,5.01,4.12.05,14.19-1.27,16.64ZM158.14,112.62c-.02.06-.03.11-.04.17-.1.48-.66,3-1.88,5.99-1.63,3.98-4.44,8.79-8.92,10.69-.09.04-.19.07-.29.1-1.83.55-19.34,5.36-26.19-8.3-.02-.04-.04-.08-.06-.12-.08-.14-.31-.56-.62-1.17-1.66-3.25-5.55-12.15-.92-15.96,0,0,10.9-8.81,31.09-6.52,3.17.36,6.01,2.26,7.46,5.1,1.15,2.26,1.67,5.48.38,10.01Z"/>
      </g>
    </g>
  </g>
</svg>