<?xml version="1.0" encoding="UTF-8"?>
<svg id="Layer_2" data-name="Layer 2" xmlns="http://www.w3.org/2000/svg" xmlns:xlink="http://www.w3.org/1999/xlink" viewBox="0 0 221.6 223.72">
  <defs>
    <style>
      .cls-1 {
        fill: none;
      }

      .cls-2 {
        fill: #462e1b;
      }

      .cls-3 {
        fill: url(#Névtelen_színátmenet_5-2);
      }

      .cls-3, .cls-4, .cls-5 {
        opacity: .49;
      }

      .cls-6 {
        fill: #ba9d82;
      }

      .cls-7 {
        fill: #ccad8a;
      }

      .cls-8 {
        fill: #44361f;
      }

      .cls-9 {
        fill: #d7bd9d;
      }

      .cls-10 {
        fill: #b0bc48;
      }

      .cls-4 {
        fill: url(#Névtelen_színátmenet_5);
      }

      .cls-11 {
        fill: #c1a587;
      }

      .cls-12 {
        fill: #dac6a4;
      }

      .cls-13, .cls-14 {
        fill: #cc654c;
      }

      .cls-15 {
        fill: #fff;
      }

      .cls-16 {
        fill: #48362f;
      }

      .cls-17 {
        fill: #dcc5a0;
      }

      .cls-14 {
        fill-rule: evenodd;
      }

      .cls-18 {
        fill: #272213;
      }

      .cls-19 {
        fill: #ecdab6;
      }

      .cls-20 {
        fill: #b8987d;
      }

      .cls-21 {
        fill: #ebd9b5;
      }

      .cls-22 {
        fill: #a98d76;
      }

      .cls-23 {
        fill: #714223;
      }

      .cls-5 {
        fill: #bcd3aa;
      }

      .cls-24 {
        fill: #b7967d;
      }

      .cls-25 {
        clip-path: url(#clippath);
      }

      .cls-26 {
        fill: #d2bb9b;
      }

      .cls-27 {
        fill: #b5957e;
      }
    </style>
    <clipPath id="clippath">
      <rect class="cls-1" x="98.56" y="154.91" width="25.12" height="14.86"/>
    </clipPath>
    <linearGradient id="Névtelen_színátmenet_5" data-name="Névtelen színátmenet 5" x1="86.73" y1="130.81" x2="86.73" y2="85.2" gradientUnits="userSpaceOnUse">
      <stop offset="0" stop-color="#fff"/>
      <stop offset="1" stop-color="#9cb18b"/>
    </linearGradient>
    <linearGradient id="Névtelen_színátmenet_5-2" data-name="Névtelen színátmenet 5" x1="137.39" y1="130.81" x2="137.39" y2="85.2" xlink:href="#Névtelen_színátmenet_5"/>
  </defs>
  <g id="Layer_1-2" data-name="Layer 1">
    <g>
      <rect class="cls-10" width="221.6" height="223.72"/>
      <path class="cls-17" d="M111.03,139.65v84.07h-45.33c-.74-.3-1.11-.44-1.11-.44,0-10.73,1.57-19.1,3.96-25.62,5.77-15.75,16.33-20.75,21.2-22.26,1.6-.5,2.58-.61,2.58-.61.17,0,.33-.02.5-.04,1.43-.23,2.59-1.47,3.52-3.46.69-1.47,1.27-3.35,1.74-5.53.19-.85.33-1.7.48-2.63.22-1.55.44-3.18.63-4.89.07-1.04.18-2.03.29-3.11.4-5.14.52-10.77.52-16.1,0,0,6.09.63,11.03.63Z"/>
      <path class="cls-21" d="M157.65,223.28s-.41.15-1.07.44h-45.55v-84.07h.11c4.91,0,11.07-.63,11.07-.63,0,5.29.11,10.85.51,15.99.11,1,.22,2.03.29,3.04.19,1.78.41,3.44.67,5v.03c.07.71.22,1.34.33,2,.45,2.19.99,4.11,1.65,5.65.82,1.92,1.81,3.26,3.01,3.79.38.17.79.26,1.21.26,0,0,1.74.21,4.36,1.24,5.34,2.1,14.3,7.6,19.45,21.63,2.39,6.52,3.96,14.89,3.96,25.62Z"/>
      <g class="cls-25">
        <path class="cls-6" d="M123.68,162.89v.04c-1.14,1.77-4.98,6.84-12.58,6.84h-.07c-7.19-.04-11.4-5.26-12.47-6.8.22-1.54.44-3.16.63-4.85.07-.99.18-2.02.3-3.09,3.5.88,7.34,1.43,11.4,1.51h.15c4.2-.07,8.08-.66,11.69-1.62.11.99.22,2.02.3,3.02.18,1.77.41,3.42.66,4.96"/>
      </g>
      <path class="cls-7" d="M110.51,43.85c-48.02,0-48.28,40.27-46.14,66.64-3.28-6.25-13.06-4.34-12.25,5.52.77,9.49,14.74,14.32,14.35,13.28,7.27,19.5,26.52,34.2,44.04,34.2h.37V43.85h-.37"/>
      <path class="cls-22" d="M55.19,111.85c2.36-3.82,6.05-2.17,6.93-1.32.96.92,1.73,2.1,1.14,4.34-.33,1.29-1.66,1.4-1.36,3.31.37,2.17,1.36,2.28,1.95,2.79.55.48,1.25.85,1.59,1.77.37.92.41,1.88.22,2.72-.37,1.54-2.62.29-4.13-.37-1-.48-4.17-3.16-4.98-4.05-1.99-2.28-2.95-6.69-1.36-9.19"/>
      <path class="cls-9" d="M110.77,43.85c48.02,0,48.28,40.27,46.18,66.64,3.28-6.25,13.02-4.34,12.21,5.52-.74,9.49-14.73,14.33-14.35,13.28-7.08,19.5-26.52,34.2-44.04,34.2h-.26l-.11-119.63h.37"/>
      <path class="cls-22" d="M166.1,111.85c-2.36-3.82-6.01-2.17-6.93-1.32-.96.92-1.7,2.1-1.14,4.34.33,1.29,1.66,1.4,1.36,3.31-.37,2.17-1.36,2.28-1.92,2.79-.55.48-1.29.85-1.62,1.77-.33.92-.41,1.88-.22,2.72.37,1.54,2.62.29,4.13-.37,1.03-.48,4.17-3.16,4.98-4.05,2.03-2.28,2.95-6.69,1.36-9.19"/>
      <path class="cls-17" d="M110.14,55.21c-15.79,0-27.37,4.6-34.34,13.64-9.77,12.69-9.41,32.03-5.83,45.93,1.11,4.27,1.7,15.7,2.43,19.9,3.43,18.79,24.12,28.8,37.73,28.8h.37V55.21h-.22"/>
      <path class="cls-21" d="M144.44,68.89c-6.93-9.01-18.37-13.61-33.93-13.68v108.27c15.57-.18,34.19-11.14,37.36-28.8.77-4.19,1.33-15.63,2.43-19.9,3.61-13.86,3.98-33.17-5.86-45.9"/>
      <path class="cls-1" d="M108.58,140.35c-.22-.04-.42-.08-.59-.11.2.04.4.08.59.11Z"/>
      <path class="cls-1" d="M107.76,144.24c-.14-.03-.27-.06-.36-.08.12.03.24.05.36.08Z"/>
      <path class="cls-24" d="M107.99,144.29c-.08-.02-.15-.03-.23-.05.07.02.14.03.23.05Z"/>
      <path class="cls-24" d="M107.4,144.16c-.07-.02-.13-.04-.2-.06h0s.08.02.21.06Z"/>
      <path class="cls-9" d="M101.55,130.24c-.18-3.74,6.85-1.37,9.17-1.25,1.83.09,7.41-1.18,7.89-.85,3.28,2.22-3.47,6.69-8,6.69-1.21,0-8.94-2.33-9.05-4.58Z"/>
      <path class="cls-1" d="M67.45,88.96c-.43,1.44-.73,3-.93,4.67,0,0,.63-2.64,2.03-6.54-.6.83-1,1.5-1.1,1.87Z"/>
      <path class="cls-8" d="M97.1,55.48l-.2.2.03.07c.07-.1.1-.2.17-.27Z"/>
      <path class="cls-1" d="M108.73,142.21c-.22-.04-.43-.08-.61-.12.21.04.41.09.61.12Z"/>
      <path class="cls-1" d="M107.89,142.04c-.14-.03-.28-.06-.37-.09.12.03.24.06.37.09Z"/>
      <path class="cls-27" d="M108.12,142.09c-.08-.02-.15-.03-.23-.05.08.02.14.03.23.05Z"/>
      <path class="cls-27" d="M107.52,141.96c-.07-.02-.14-.04-.21-.06h0s.08.02.21.06Z"/>
      <path class="cls-15" d="M76.05,97.47s3.66,15.08,9.95,16.31c6.29,1.23,13.1-1.22,13.1-1.22,0,0,.65-17.72-2.57-20.03-3.22-2.33-10.64-5.69-20.48,4.94Z"/>
      <path class="cls-26" d="M99.11,112.51s-.14.04-.47.18c-.08-5.43-.58-12.9-2.59-14.33-2.99-2.2-9.74-5.29-18.76,3.17-.82-2.34-1.23-4.11-1.23-4.11,9.86-10.65,17.29-7.29,20.48-4.97,3.22,2.32,2.57,20.06,2.57,20.06Z"/>
      <ellipse class="cls-2" cx="89.2" cy="104.84" rx="6.19" ry="6.21"/>
      <path class="cls-23" d="M88.91,108.97c-1.79-.15-3.16-1.96-3-3.95.16-1.99,1.81-3.55,3.6-3.4,1.79.15,3.16,1.96,3,3.94-.16,1.99-1.81,3.55-3.6,3.4Z"/>
      <path class="cls-18" d="M89.07,108.26c-1.24-.11-2.54-1.48-2.4-3.16.14-1.69,1.63-2.83,2.88-2.73,1.25.11,2.53,1.48,2.4,3.17-.14,1.69-1.63,2.83-2.88,2.73Z"/>
      <path class="cls-15" d="M88.06,104.09c-.05.61-.68,1.06-1.39,1-.72-.06-1.26-.61-1.21-1.21.05-.61.67-1.06,1.39-1,.72.06,1.26.6,1.21,1.22Z"/>
      <path class="cls-15" d="M92.07,107.62c-.03.3-.34.53-.69.5-.36-.03-.63-.3-.61-.61.03-.3.34-.53.69-.5.36.03.63.3.61.61Z"/>
      <path class="cls-1" d="M108.83,143.99c-.22-.04-.43-.08-.61-.12.21.04.41.09.61.12Z"/>
      <path class="cls-1" d="M107.98,143.82c-.14-.03-.28-.06-.37-.09.12.03.24.06.37.09Z"/>
      <path class="cls-27" d="M108.22,143.87c-.08-.02-.15-.03-.23-.05.08.02.14.03.23.05Z"/>
      <path class="cls-27" d="M107.61,143.73c-.07-.02-.14-.04-.21-.06h0s.08.03.21.06Z"/>
      <path class="cls-1" d="M108.59,143.57c-.24-.04-.46-.08-.65-.13.22.05.44.09.65.13Z"/>
      <path class="cls-1" d="M107.69,143.39c-.15-.03-.3-.07-.4-.09.13.03.26.06.4.09Z"/>
      <path class="cls-24" d="M107.93,143.44c-.08-.02-.17-.03-.25-.05.08.02.15.03.25.05Z"/>
      <path class="cls-24" d="M107.29,143.3c-.08-.02-.15-.04-.22-.06h0s.09.03.23.06Z"/>
      <path class="cls-1" d="M108.4,142.94c-.24-.04-.46-.08-.65-.12.22.05.44.09.65.12Z"/>
      <path class="cls-1" d="M107.5,142.76c-.15-.03-.3-.07-.4-.09.13.03.26.06.4.09Z"/>
      <path class="cls-24" d="M107.75,142.81c-.08-.02-.17-.03-.25-.05.08.02.15.03.25.05Z"/>
      <path class="cls-24" d="M107.1,142.67c-.08-.02-.15-.04-.22-.06h0s.09.03.23.06Z"/>
      <path class="cls-1" d="M108.96,142.85c-.23-.04-.44-.08-.63-.12.21.05.42.09.63.12Z"/>
      <path class="cls-1" d="M108.08,142.68c-.14-.03-.29-.06-.38-.09.13.03.25.06.38.09Z"/>
      <path class="cls-24" d="M108.32,142.73c-.08-.02-.16-.03-.24-.05.08.02.15.03.24.05Z"/>
      <path class="cls-24" d="M107.7,142.59c-.07-.02-.14-.04-.21-.06h0s.08.03.22.06Z"/>
      <path class="cls-15" d="M145.33,96.96s-3.66,15.08-9.95,16.31c-6.29,1.23-13.1-1.22-13.1-1.22,0,0-.65-17.72,2.57-20.03,3.22-2.33,10.64-5.69,20.48,4.94Z"/>
      <path class="cls-26" d="M122.27,112s.14.04.47.18c.08-5.43.58-12.9,2.59-14.33,2.99-2.2,9.74-5.29,18.76,3.17.82-2.34,1.23-4.11,1.23-4.11-9.86-10.65-17.29-7.29-20.48-4.97-3.22,2.32-2.57,20.06-2.57,20.06Z"/>
      <path class="cls-2" d="M126,104.32c0,3.43,2.77,6.21,6.19,6.21s6.19-2.78,6.19-6.21-2.77-6.21-6.19-6.21-6.19,2.78-6.19,6.21Z"/>
      <path class="cls-23" d="M132.48,108.46c1.79-.15,3.16-1.96,3-3.95-.16-1.99-1.81-3.55-3.6-3.4-1.79.15-3.16,1.96-3,3.94.16,1.99,1.81,3.55,3.6,3.4Z"/>
      <path class="cls-18" d="M132.32,107.74c1.24-.11,2.54-1.48,2.4-3.16-.14-1.69-1.63-2.83-2.88-2.73-1.25.11-2.53,1.48-2.4,3.17.14,1.69,1.63,2.83,2.88,2.73Z"/>
      <path class="cls-15" d="M133.33,103.58c.05.61.68,1.06,1.39,1,.72-.06,1.26-.61,1.21-1.21-.05-.61-.67-1.06-1.39-1-.72.06-1.26.6-1.21,1.22Z"/>
      <path class="cls-15" d="M129.32,107.11c.03.3.34.53.69.5.36-.03.63-.3.61-.61-.03-.3-.34-.53-.69-.5-.36.03-.63.3-.61.61Z"/>
      <g>
        <path d="M102.88,97.23c-.05-.07-1.19-1.81-3.52-3.61-1.46-1.13-2.89-1.98-4.38-2.62-1.81-.76-3.75-1.3-5.64-1.56-1.7-.19-3.59-.14-5.8.16-1.68.32-3.32.82-4.72,1.44-.99.34-1.78.83-2.41,1.21-.24.15-.46.28-.68.4l-3,1.89,3.46-.82c.16-.04.34-.09.52-.14.72-.19,1.61-.43,2.65-.58.24-.04.49-.09.75-.14.44-.09.89-.18,1.36-.2.52-.04,1.07-.07,1.63-.11l.73-.05c1.92-.02,3.54.12,4.98.45,1.57.27,3.19.78,4.67,1.47,1.4.67,2.74,1.34,3.79,2.11,2.12,1.42,3.29,2.6,3.3,2.61h0c.29.29.68.45,1.07.45.28,0,.57-.08.82-.25.7-.46.89-1.4.45-2.08l-.03-.05Z"/>
        <path d="M145.95,92.64c-.2-.11-.42-.24-.66-.39-.63-.39-1.41-.87-2.38-1.2-1.42-.63-3.06-1.13-4.77-1.45-2.19-.29-4.08-.35-5.79-.15-1.88.26-3.82.8-5.63,1.56-1.47.63-2.94,1.51-4.38,2.62-2.29,1.76-3.43,3.47-3.52,3.6l-.02.03c-.39.6-.3,1.4.2,1.9.28.29.66.45,1.07.45h0c.4,0,.78-.16,1.06-.45h.01c.11-.12,1.25-1.24,3.31-2.62,1.03-.76,2.37-1.43,3.77-2.1,1.49-.69,3.11-1.2,4.7-1.48,1.42-.33,3.04-.47,4.93-.45l.76.05c.55.04,1.09.08,1.62.11.46.02.92.11,1.35.2.25.05.5.1.75.14,1.05.15,1.94.39,2.65.58.19.05.36.1.53.14l3.46.82-3.03-1.91Z"/>
      </g>
      <path class="cls-1" d="M107.77,145.78c-.23-.04-.45-.08-.64-.12.22.05.43.09.64.12Z"/>
      <path class="cls-1" d="M106.89,145.6c-.15-.03-.29-.07-.39-.09.13.03.26.06.39.09Z"/>
      <path class="cls-20" d="M107.13,145.65c-.08-.02-.16-.03-.24-.05.08.02.15.03.24.05Z"/>
      <path class="cls-20" d="M106.5,145.51c-.07-.02-.14-.04-.22-.06h0s.08.03.22.06Z"/>
      <path class="cls-19" d="M101.63,148.76c-.18-2.42,6.73.51,9,.58,1.81.06,7.25-.36,7.75-.55,3.8-1.43-.21,4.05-7.87,4.34-3.51.14-8.78-2.9-8.89-4.37Z"/>
      <path class="cls-12" d="M124.13,144.09c-1.88-.09-3.8,1.48-6.06,1.24-.09-.05-.14-.05-.23-.05-.52-.09-1.03,0-1.6.14-.7.15-1.41.43-2.07.66-1.13.37-2.4.66-3.71.56h0s-.05,0-.07,0-.05,0-.07,0h0c-1.31.09-2.58-.2-3.71-.57-.66-.23-1.37-.52-2.07-.66-.56-.14-1.08-.23-1.6-.14-.1,0-.14,0-.23.05-2.26.24-4.18-1.33-6.06-1.24-.52.05-1.27-.09-1.69-.09.09.05.19.09.29.14,5.35,2.62,9.96,7.52,15.08,7.36h.15c5.11.16,9.73-4.74,15.08-7.36.1-.05.19-.09.29-.14-.42,0-1.17.14-1.69.09Z"/>
      <path class="cls-11" d="M125.71,143.94h0s-5.44-2.1-9.31-.87c0,0-1.44.56-2.93.91-.91.35-2.01.46-3.07.41h0c-.81-.03-1.59-.14-2.22-.25-.21-.03-.42-.08-.64-.12-.09-.02-.16-.03-.24-.05-.13-.03-.26-.06-.39-.09-.14-.03-.22-.06-.22-.06h0c-1.24-.34-2.3-.75-2.3-.75-3.87-1.23-9.31.87-9.31.87h0c-.07.03-.12.06-.12.06.42,0,1.17.14,1.69.09,1.88-.09,3.8,1.48,6.06,1.24.09-.05.14-.05.23-.05.52-.09,1.03,0,1.6.14.7.15,1.41.43,2.07.66,1.13.37,2.4.66,3.71.56h0s.05,0,.07,0,.05,0,.07,0h0c1.31.09,2.58-.2,3.71-.57.66-.23,1.37-.52,2.07-.66.56-.14,1.08-.23,1.6-.14.1,0,.14,0,.23.05,2.26.24,4.18-1.33,6.06-1.24.52.05,1.27-.09,1.69-.09,0,0-.05-.02-.12-.06Z"/>
      <path class="cls-11" d="M101.26,145.22c.1.02,10.19,3.11,18.09.07l-.91-.61h-10.67l-6.51.55Z"/>
      <path class="cls-16" d="M104.84,197.12v26.6h-33.3c.18-2.7.35-7.08.38-12.85h-8.52c-.09-8.4,6.6-22.75,6.6-22.75.64-.88,1.31-1.67,1.97-2.44,1.74-2,3.53-3.62,5.31-4.95.2-.22.45-.37.66-.51.57-.41,1.15-.8,1.72-1.17,2.58-1.64,5.02-2.69,6.93-3.33.45-.17.86-.29,1.26-.4,1.78-.49,2.89-.63,2.89-.63.95,0,1.77-.35,2.5-.95,0,0,0-.03.03-.03.25-.23.49-.51.74-.8.09.08.28.32.43.83.48,1.16,2.54,5.6,5.62,9.65,3.02,3.97,4.78,8.75,4.78,13.73Z"/>
      <path class="cls-16" d="M150.39,210.86c.03,5.76.25,10.17.43,12.85h-33.43v-26.25c0-5.08,1.76-9.98,4.83-14.03.01-.02.03-.04.04-.06,3.09-4.05,5.16-8.48,5.64-9.64.17-.51.35-.75.46-.83.23.29.48.57.72.8.03,0,.03.03.03.03.72.6,1.57.95,2.49.95,0,0,1.06.11,2.75.57.37.14.78.26,1.24.41,2.32.77,5.47,2.1,8.75,4.48.21.17.46.32.65.52,2.5,1.84,5.04,4.25,7.34,7.43,0,0,6.82,9.89,6.51,22.75h-8.45Z"/>
      <path class="cls-15" d="M117.39,205.83v17.89h-12.55v-17.93c1.95.75,4.09,1.24,6.33,1.24s4.32-.47,6.22-1.21Z"/>
      <path class="cls-13" d="M98.62,29.06c-3.16,4.88-.37,5.78,2,5.81,1.28.01,2.56-.26,3.77-.73,2.47-.94,4.87-1.86,7.13-2.66-2.7,3.98-1.01,11.14,5.06,11.14.73,0,1.39-.11,2-.3-.1.06-.22.12-.32.19,2.73-1.05,7.45-1.43,15.35,1.46,1.11.4,2.12.83,3.07,1.27,3.36,1.38,10.09,4.12,23.02,9.3,0,0-4.26,1.56-9.34,2.08,2.43,2.67,4.95,4.96,9.16,6.18,11,3.18,14.19-.9,14.19-.9,0,0-4.77,7.14-13.24,7.16-1.37,0-1.51-.02-1.52-.03,0,.03,3.18,7.66,3.78,13.37.62,5.83-1.32,9.81-1.91,20.72-.17,3.04-.58,4.58-1.17,5.51-1.22,1.93-3.21,1.27-5.45,5.9-1.12,2.3-1.17,4.9-1.17,4.9,0,0-.09.07-.24.12-.7.23-2.71.04-2.81-9.67,0,0,8.89-38.05-9.23-43.69-7.9-2.46-18.5-.4-28.86,2.13-6.92,1.69-13.9,4.41-20.37,8.64-8.35,5.45-19.12,12.4-21.37,24.81,0,.02,0,.04,0,.05.33,3.34.48,6.02.5,8.18.1,8.94-1.92,8.86-1.92,8.86-.93,0,.06-4.5-3.03-7.6-.85-.85-1.82-2.28-2.78-4.09-2.54-4.77-5-12.32-5-19.88-3.29-51.21,40.74-58.21,40.74-58.21Z"/>
      <path class="cls-8" d="M102.85,163.82l-.13.13.02.04c.04-.07.06-.13.11-.17Z"/>
      <g>
        <path class="cls-14" d="M110.12,139.58c2.79-6.26,10.93-2.17,15.7-.64,1.02,0,.31-1.81.93-2.25,4.7,12.36-12.17,15.33-16.63,7.37-4.33,6.98-19.9,5.42-16.62-7.37,1.24.09.24,2.53,1.54,2.56,4.36-2.3,12.15-5.37,15.08.32Z"/>
        <path class="cls-14" d="M95.03,139.26c-1.3-.03-.3-2.47-1.54-2.56-3.28,12.79,12.3,14.35,16.62,7.37,4.45,7.96,21.32,4.99,16.63-7.37-.61.43.1,2.24-.93,2.25-4.77-1.53-12.91-5.62-15.7.64-2.93-5.69-10.73-2.62-15.08-.32Z"/>
      </g>
      <g>
        <path class="cls-4" d="M103.21,115.92c-.11.41-.22.8-.34,1.19-12.74-6.72-24-3.26-31.52,1.18-2.32-5.47-1.68-10.92-1.68-10.92,2.96-14.14,23.76-8.88,23.76-8.88,14.31,5.18,9.79,17.43,9.79,17.43Z"/>
        <path class="cls-3" d="M153.32,116.87c-7.97-3.94-19.15-6.05-31.52,1.75-.33-.83-.63-1.73-.88-2.7,0,0-4.52-12.25,9.78-17.43,0,0,20.8-5.26,23.76,8.88,0,0,.53,4.54-1.14,9.5Z"/>
        <path class="cls-5" d="M153.32,116.87c-1.75,5.19-5.92,10.84-15.67,12.19-.6.09-1.21.11-1.81.06-2.78-.22-10.51-1.66-14.05-10.5,12.38-7.8,23.55-5.69,31.52-1.75Z"/>
        <path class="cls-5" d="M102.86,117.11c-3.22,10.2-11.65,11.78-14.59,12.01-.6.05-1.21.03-1.81-.06-8.86-1.23-13.11-6.01-15.13-10.77,7.52-4.44,18.79-7.9,31.52-1.18Z"/>
        <path class="cls-15" d="M147.89,95.86c-7.58-2.98-34.76-3.36-35.81-3.37h0s0,0-.02,0c0,0-.02,0-.02,0h0c-1.05.01-28.23.39-35.81,3.37,0,0-11.59,5.18-13.89,5.92v5.67s3.21.74,3.95,5.18c0,0,2.23,14.23,15.35,18.15,3.26.97,6.72.96,10,.06,5.98-1.66,15.48-6.42,15.79-19.98.03-1.25-.36-2.46-1.03-3.51-1.07-1.68-1.75-4.43,5.64-4.1h0s.01,0,.02,0c0,0,.01,0,.02,0h0c7.39-.34,6.72,2.42,5.64,4.1-.67,1.05-1.06,2.26-1.03,3.51.32,13.56,9.81,18.33,15.79,19.98,3.28.91,6.74.92,10-.06,13.12-3.92,15.35-18.15,15.35-18.15.74-4.44,3.95-5.18,3.95-5.18v-5.67c-2.3-.74-13.9-5.92-13.9-5.92ZM154.46,107.37s.53,4.54-1.14,9.5h0c-.22.65-.47,1.3-.77,1.95,0,0,0,.01,0,.02-.07.15-.14.31-.22.46,0,.02-.02.04-.03.05-.07.14-.14.28-.22.42-.02.03-.03.06-.05.09-.07.13-.14.26-.21.39-.02.04-.04.08-.07.11-.07.12-.14.24-.21.36-.03.04-.05.09-.08.13-.07.11-.14.22-.21.33-.03.05-.07.1-.1.15-.07.11-.14.21-.22.31-.04.05-.08.11-.12.16-.07.1-.14.2-.22.3-.04.06-.09.11-.13.17-.07.09-.15.19-.22.28-.05.06-.1.12-.15.18-.08.09-.15.18-.23.27-.05.06-.11.12-.16.18-.08.09-.16.17-.24.26-.06.06-.12.12-.17.18-.08.08-.16.17-.24.25-.06.06-.12.12-.19.18-.08.08-.17.16-.26.24-.07.06-.13.12-.2.18-.09.08-.18.15-.27.23-.07.06-.14.12-.21.18-.09.08-.19.15-.28.22-.07.06-.15.11-.22.17-.1.07-.2.14-.29.22-.08.05-.15.11-.23.16-.1.07-.21.14-.31.21-.08.05-.16.1-.23.16-.11.07-.22.14-.33.21-.08.05-.16.1-.24.14-.12.07-.24.14-.36.2-.08.04-.16.09-.24.13-.13.07-.26.13-.39.2-.08.04-.16.08-.24.12-.14.07-.28.13-.42.2-.08.04-.15.07-.23.11-.15.07-.31.13-.46.2-.07.03-.14.06-.21.09-.17.07-.34.13-.52.2-.06.02-.12.05-.18.07-.19.07-.39.14-.59.2-.05.02-.09.03-.14.05-.23.07-.46.14-.69.21-.02,0-.04.01-.07.02-1.05.29-2.18.53-3.39.7-.13.02-.27.03-.4.05-.45.04-.89.05-1.34.02-.02,0-.05,0-.07,0-.04,0-.09,0-.13-.01-.05,0-.1,0-.16-.01-.03,0-.07,0-.11-.01-.07,0-.14-.02-.22-.02-.04,0-.07,0-.11-.01-.08-.01-.16-.02-.24-.03-.04,0-.08-.01-.12-.02-.08-.01-.17-.03-.26-.04-.04,0-.09-.02-.13-.02-.09-.02-.18-.03-.27-.05-.05,0-.1-.02-.14-.03-.09-.02-.19-.04-.28-.06-.05-.01-.1-.02-.16-.03-.09-.02-.19-.04-.29-.07-.05-.01-.11-.03-.16-.04-.1-.03-.2-.05-.31-.08-.05-.01-.11-.03-.16-.04-.11-.03-.22-.06-.33-.1-.05-.02-.1-.03-.16-.05-.13-.04-.25-.08-.38-.13-.04-.01-.08-.03-.12-.04-.17-.06-.34-.12-.51-.19-.04-.02-.08-.03-.12-.05-.13-.05-.26-.1-.39-.16-.07-.03-.14-.06-.21-.09-.1-.05-.21-.09-.31-.14-.08-.04-.16-.08-.24-.11-.1-.05-.19-.09-.29-.14-.08-.04-.17-.09-.25-.13-.09-.05-.19-.1-.28-.15-.09-.05-.17-.1-.26-.15-.09-.05-.19-.11-.28-.17-.09-.05-.17-.11-.26-.16-.09-.06-.18-.12-.28-.18-.09-.06-.17-.12-.26-.18-.09-.06-.19-.13-.28-.2-.09-.06-.17-.12-.26-.19-.09-.07-.19-.15-.28-.22-.08-.07-.16-.13-.25-.2-.1-.08-.2-.17-.3-.26-.07-.06-.15-.13-.22-.19-.13-.12-.26-.24-.38-.36-.04-.04-.09-.08-.13-.12-.17-.17-.33-.34-.5-.52-.05-.05-.1-.11-.15-.17-.12-.13-.23-.26-.34-.4-.06-.07-.11-.14-.17-.21-.1-.13-.21-.26-.31-.4-.06-.08-.11-.15-.17-.23-.1-.14-.2-.28-.3-.42-.05-.08-.11-.16-.16-.25-.1-.15-.19-.3-.29-.45-.05-.08-.1-.17-.15-.25-.1-.16-.19-.33-.28-.5-.04-.08-.09-.16-.13-.24-.1-.18-.19-.37-.28-.56-.04-.07-.07-.15-.11-.23-.1-.21-.2-.44-.29-.66-.02-.06-.05-.12-.07-.17-.36-.88-.68-1.84-.95-2.87,0,0-4.52-12.25,9.79-17.43,0,0,20.8-5.26,23.76,8.88ZM69.66,107.37c2.96-14.14,23.76-8.88,23.76-8.88,14.31,5.18,9.79,17.43,9.79,17.43-.13.48-.27.94-.41,1.39-.08.24-.16.47-.24.7-.02.06-.05.12-.07.19-.09.24-.18.48-.28.71-.01.03-.03.06-.04.09-.47,1.11-1,2.09-1.59,2.97,0,0,0,0,0,0-.12.17-.23.34-.35.51-.04.05-.08.11-.11.16-.11.14-.22.28-.32.42-.05.07-.11.14-.16.21-.1.13-.21.25-.31.37-.06.07-.12.15-.19.22-.1.11-.2.22-.31.33-.07.07-.14.15-.21.22-.1.1-.2.2-.3.29-.07.07-.15.14-.22.21-.1.09-.2.18-.3.27-.08.07-.16.14-.24.2-.1.08-.2.16-.3.24-.08.06-.16.13-.24.19-.1.07-.2.15-.3.22-.08.06-.17.12-.25.18-.1.07-.19.13-.29.2-.09.06-.17.11-.26.17-.1.06-.19.12-.29.18-.09.05-.17.11-.26.16-.09.05-.19.11-.28.16-.09.05-.18.1-.27.14-.09.05-.19.1-.28.14-.09.04-.18.09-.27.13-.09.04-.18.09-.28.13-.09.04-.18.08-.27.12-.09.04-.18.08-.27.11-.09.04-.18.07-.27.11-.09.03-.17.07-.26.1-.09.03-.18.07-.27.1-.08.03-.17.06-.25.09-.09.03-.17.06-.26.09-.08.03-.16.05-.24.08-.09.03-.17.05-.26.08-.08.02-.15.05-.23.07-.08.02-.17.04-.25.07-.08.02-.15.04-.22.06-.08.02-.16.04-.24.06-.07.02-.14.03-.21.05-.08.02-.15.03-.23.05-.07.01-.14.03-.21.04-.07.01-.14.03-.21.04-.07.01-.14.02-.2.04-.06.01-.12.02-.18.03-.07.01-.14.02-.2.03-.05,0-.09.01-.14.02-.07,0-.15.02-.22.03-.02,0-.04,0-.06,0-.2.02-.39.04-.56.06-.03,0-.07,0-.1,0-.44.03-.87.02-1.31-.02-.13-.01-.26-.03-.4-.05-.5-.07-.99-.15-1.46-.24-.05-.01-.11-.02-.16-.03-.19-.04-.37-.08-.55-.12-.08-.02-.16-.03-.24-.05-.17-.04-.33-.08-.5-.12-.09-.02-.18-.05-.27-.07-.15-.04-.31-.09-.46-.13-.09-.03-.19-.05-.28-.08-.14-.04-.29-.09-.43-.14-.09-.03-.19-.06-.28-.09-.14-.05-.27-.09-.4-.14-.1-.03-.19-.07-.28-.11-.13-.05-.25-.1-.38-.15-.09-.04-.19-.08-.28-.12-.12-.05-.24-.1-.36-.16-.09-.04-.19-.09-.28-.13-.11-.05-.22-.11-.33-.16-.1-.05-.19-.1-.28-.14-.1-.05-.21-.11-.31-.16-.1-.05-.19-.11-.29-.16-.09-.05-.19-.11-.28-.16-.1-.06-.2-.12-.3-.18-.08-.05-.16-.1-.24-.15-.13-.08-.26-.17-.38-.25-.05-.03-.09-.06-.14-.09-.17-.12-.34-.24-.51-.36-.03-.02-.05-.04-.08-.06-.14-.1-.27-.21-.4-.31-.04-.04-.09-.07-.13-.11-.11-.09-.23-.19-.34-.28-.04-.04-.09-.08-.13-.12-.1-.09-.21-.19-.31-.28-.04-.04-.09-.08-.13-.12-.1-.1-.2-.19-.29-.29-.04-.04-.08-.08-.12-.12-.1-.1-.19-.2-.28-.3-.04-.04-.08-.08-.11-.12-.09-.1-.18-.2-.27-.31-.03-.04-.07-.08-.1-.12-.09-.11-.18-.22-.27-.32-.03-.04-.06-.07-.09-.11-.09-.11-.18-.23-.26-.34-.02-.03-.05-.06-.07-.1-.09-.12-.18-.25-.26-.37-.02-.03-.04-.05-.05-.08-.09-.13-.18-.27-.27-.41,0-.01-.02-.03-.03-.04-.49-.77-.91-1.56-1.27-2.35-.01-.03-.02-.06-.04-.09-2.47-5.57-1.81-11.22-1.81-11.22ZM112.08,99.15h0s0,0-.02,0c-.01,0-.02,0-.02,0h0c-.44,0-5.56.13-7.52,1.07,0,0-1.56.82-4.52-1.81,0,0-2.37-1.41-3.79-1.8-.64-.18-.59-1.09.06-1.2.31-.05.72-.07,1.26-.04h29.06c.54-.03.95,0,1.26.04.65.11.7,1.03.06,1.2-1.42.39-3.79,1.8-3.79,1.8-2.96,2.63-4.52,1.81-4.52,1.81-1.96-.94-7.08-1.06-7.52-1.07Z"/>
      </g>
    </g>
  </g>
</svg>