<?xml version="1.0" encoding="UTF-8"?>
<svg id="Layer_2" data-name="Layer 2" xmlns="http://www.w3.org/2000/svg" xmlns:xlink="http://www.w3.org/1999/xlink" viewBox="0 0 221.6 223.72">
  <defs>
    <style>
      .cls-1 {
        fill: none;
      }

      .cls-2 {
        fill: #d6bb9c;
      }

      .cls-3 {
        fill: #462e1b;
      }

      .cls-4 {
        fill: url(#Névtelen_színátmenet_5-2);
      }

      .cls-4, .cls-5, .cls-6 {
        opacity: .49;
      }

      .cls-7 {
        fill: #ba9d82;
      }

      .cls-8 {
        fill: #ccad8a;
      }

      .cls-9 {
        fill: #44361f;
      }

      .cls-10 {
        fill: #cf930f;
      }

      .cls-11 {
        fill: #d7bd9d;
      }

      .cls-5 {
        fill: url(#Névtelen_színátmenet_5);
      }

      .cls-12 {
        fill: #e5b344;
      }

      .cls-13 {
        fill: #fff;
      }

      .cls-14 {
        fill: #dcc5a0;
      }

      .cls-15 {
        fill: #272213;
      }

      .cls-16 {
        fill: #b8987d;
      }

      .cls-17 {
        fill: #7d351a;
      }

      .cls-18 {
        fill: #ebd9b5;
      }

      .cls-19 {
        fill: #ce6c16;
      }

      .cls-20 {
        fill: #5a413a;
      }

      .cls-21 {
        fill: #a98d76;
      }

      .cls-22 {
        fill: #714223;
      }

      .cls-6 {
        fill: #bcd3aa;
      }

      .cls-23 {
        fill: #b7967d;
      }

      .cls-24 {
        clip-path: url(#clippath);
      }

      .cls-25 {
        fill: #d2bb9b;
      }

      .cls-26 {
        fill: #b5957e;
      }
    </style>
    <clipPath id="clippath">
      <rect class="cls-1" x="102.22" y="155.13" width="25.12" height="14.81"/>
    </clipPath>
    <linearGradient id="Névtelen_színátmenet_5" data-name="Névtelen színátmenet 5" x1="86.08" y1="131.12" x2="86.08" y2="81.21" gradientUnits="userSpaceOnUse">
      <stop offset="0" stop-color="#fff"/>
      <stop offset="1" stop-color="#9cb18b"/>
    </linearGradient>
    <linearGradient id="Névtelen_színátmenet_5-2" data-name="Névtelen színátmenet 5" x1="141.52" y1="131.12" x2="141.52" y2="81.21" xlink:href="#Névtelen_színátmenet_5"/>
  </defs>
  <g id="Layer_1-2" data-name="Layer 1">
    <g>
      <path class="cls-9" d="M173.99,164.18l-.13.13.02.04c.04-.07.07-.13.11-.17Z"/>
      <rect class="cls-20" width="221.6" height="223.72"/>
      <path class="cls-14" d="M114.69,139.91v83.81h-45.33c-.74-.29-1.11-.44-1.11-.44,0-10.7,1.57-19.04,3.96-25.54,5.77-15.7,16.33-20.68,21.2-22.19,1.6-.49,2.58-.61,2.58-.61.17,0,.33-.02.5-.04,1.43-.23,2.59-1.47,3.52-3.45.69-1.47,1.27-3.34,1.74-5.51.19-.85.33-1.7.48-2.62.22-1.55.44-3.17.63-4.87.07-1.03.18-2.03.29-3.1.4-5.13.52-10.74.52-16.05,0,0,6.09.63,11.03.63Z"/>
      <path class="cls-18" d="M161.31,223.28s-.41.15-1.07.44h-45.55v-83.81h.11c4.91,0,11.07-.63,11.07-.63,0,5.28.11,10.81.51,15.94.11,1,.22,2.03.29,3.03.19,1.77.41,3.43.67,4.98v.03c.07.7.22,1.33.33,1.99.45,2.18.99,4.1,1.65,5.64.82,1.91,1.81,3.25,3.01,3.78.38.17.79.26,1.21.26,0,0,1.74.21,4.36,1.24,5.34,2.09,14.3,7.57,19.45,21.56,2.39,6.5,3.96,14.85,3.96,25.54Z"/>
      <g class="cls-24">
        <path class="cls-7" d="M127.34,163.08v.04c-1.14,1.76-4.98,6.82-12.58,6.82h-.07c-7.19-.04-11.4-5.24-12.47-6.78.22-1.54.44-3.15.63-4.84.07-.99.18-2.02.3-3.08,3.5.88,7.34,1.43,11.4,1.5h.15c4.2-.07,8.08-.66,11.69-1.61.11.99.22,2.02.3,3.01.18,1.76.41,3.41.66,4.95"/>
      </g>
      <path class="cls-8" d="M114.17,44.41c-48.02,0-48.28,40.14-46.14,66.43-3.28-6.23-13.06-4.33-12.25,5.5.77,9.46,14.74,14.28,14.35,13.23,7.27,19.44,26.52,34.09,44.04,34.09h.37V44.41h-.37"/>
      <path class="cls-21" d="M58.84,112.19c2.36-3.81,6.05-2.16,6.93-1.32.96.92,1.73,2.09,1.14,4.33-.33,1.28-1.66,1.39-1.36,3.3.37,2.16,1.36,2.27,1.95,2.79.55.48,1.25.84,1.59,1.76.37.92.41,1.87.22,2.71-.37,1.54-2.62.29-4.13-.37-1-.48-4.17-3.15-4.98-4.03-1.99-2.27-2.95-6.67-1.36-9.17"/>
      <path class="cls-11" d="M114.43,44.41c48.02,0,48.28,40.14,46.18,66.43,3.28-6.23,13.02-4.33,12.21,5.5-.74,9.46-14.73,14.28-14.35,13.23-7.08,19.44-26.52,34.09-44.04,34.09h-.26l-.11-119.26h.37"/>
      <path class="cls-21" d="M169.76,112.19c-2.36-3.81-6.01-2.16-6.93-1.32-.96.92-1.7,2.09-1.14,4.33.33,1.28,1.66,1.39,1.36,3.3-.37,2.16-1.36,2.27-1.92,2.79-.55.48-1.29.84-1.62,1.76-.33.92-.41,1.87-.22,2.71.37,1.54,2.62.29,4.13-.37,1.03-.48,4.17-3.15,4.98-4.03,2.03-2.27,2.95-6.67,1.36-9.17"/>
      <path class="cls-14" d="M113.79,55.74c-15.79,0-27.37,4.58-34.34,13.6-9.77,12.65-9.41,31.93-5.83,45.79,1.11,4.25,1.7,15.65,2.43,19.83,3.43,18.73,24.12,28.71,37.73,28.71h.37V55.74h-.22"/>
      <path class="cls-18" d="M148.1,69.37c-6.93-8.98-18.37-13.56-33.93-13.64v107.93c15.57-.18,34.19-11.11,37.36-28.71.77-4.18,1.33-15.58,2.43-19.83,3.61-13.82,3.98-33.07-5.86-45.75"/>
      <path class="cls-1" d="M112.24,144.65c-.22-.04-.42-.08-.59-.11.2.04.4.08.59.11Z"/>
      <path class="cls-1" d="M111.42,144.49c-.14-.03-.27-.06-.36-.08.12.03.24.05.36.08Z"/>
      <path class="cls-23" d="M111.64,144.53c-.08-.02-.15-.03-.23-.05.07.02.14.03.23.05Z"/>
      <path class="cls-23" d="M111.06,144.4c-.07-.02-.13-.04-.2-.06h0s.08.02.21.06Z"/>
      <path class="cls-1" d="M71.11,89.38c-.43,1.43-.73,2.99-.93,4.66,0,0,.63-2.63,2.03-6.52-.6.83-1,1.5-1.1,1.86Z"/>
      <path class="cls-9" d="M100.75,56.01l-.2.2.03.07c.07-.1.1-.2.17-.27Z"/>
      <path class="cls-1" d="M112.38,142.46c-.22-.04-.43-.08-.61-.12.21.04.41.09.61.12Z"/>
      <path class="cls-1" d="M111.54,142.3c-.14-.03-.28-.06-.37-.08.12.03.24.06.37.08Z"/>
      <path class="cls-26" d="M111.77,142.35c-.08-.02-.15-.03-.23-.05.08.02.14.03.23.05Z"/>
      <path class="cls-26" d="M111.17,142.21c-.07-.02-.14-.04-.21-.06h0s.08.02.21.06Z"/>
      <path class="cls-2" d="M104.78,129.4c-.19-3.83,7.04-1.4,9.42-1.28,1.88.1,7.61-1.21,8.1-.87,3.37,2.27-3.57,6.85-8.22,6.85-1.24,0-9.19-2.38-9.3-4.69Z"/>
      <path class="cls-13" d="M79.71,97.86s3.66,15.03,9.95,16.26c6.29,1.23,13.1-1.21,13.1-1.21,0,0,.65-17.66-2.57-19.97-3.22-2.32-10.64-5.67-20.48,4.93Z"/>
      <path class="cls-25" d="M102.77,112.86s-.14.04-.47.18c-.08-5.42-.58-12.86-2.59-14.29-2.99-2.19-9.74-5.27-18.76,3.16-.82-2.33-1.23-4.09-1.23-4.09,9.86-10.61,17.29-7.27,20.48-4.95,3.22,2.32,2.57,20,2.57,20Z"/>
      <circle class="cls-3" cx="92.85" cy="105.21" r="6.19"/>
      <path class="cls-22" d="M92.57,109.33c-1.79-.15-3.16-1.95-3-3.94.16-1.98,1.81-3.54,3.6-3.39,1.79.15,3.16,1.95,3,3.93-.16,1.98-1.81,3.54-3.6,3.39Z"/>
      <path class="cls-15" d="M92.72,108.62c-1.24-.11-2.54-1.47-2.4-3.15.14-1.69,1.63-2.83,2.88-2.72,1.24.11,2.53,1.48,2.4,3.16-.14,1.68-1.63,2.82-2.88,2.72Z"/>
      <path class="cls-13" d="M91.71,104.47c-.05.61-.68,1.05-1.39.99-.72-.06-1.26-.6-1.21-1.21.05-.61.67-1.06,1.39-1,.72.06,1.26.6,1.21,1.21Z"/>
      <path class="cls-13" d="M95.73,107.98c-.03.3-.34.53-.69.5-.36-.03-.63-.3-.61-.6.03-.3.34-.53.69-.5.36.03.63.3.61.6Z"/>
      <path class="cls-1" d="M112.48,144.23c-.22-.04-.43-.08-.61-.12.21.04.41.08.61.12Z"/>
      <path class="cls-1" d="M111.64,144.07c-.14-.03-.28-.06-.37-.08.12.03.24.06.37.08Z"/>
      <path class="cls-26" d="M111.87,144.12c-.08-.02-.15-.03-.23-.05.08.02.14.03.23.05Z"/>
      <path class="cls-26" d="M111.27,143.98c-.07-.02-.14-.04-.21-.06h0s.08.02.21.06Z"/>
      <path class="cls-1" d="M112.24,143.82c-.24-.04-.46-.08-.65-.12.22.05.44.09.65.12Z"/>
      <path class="cls-1" d="M111.34,143.64c-.15-.03-.3-.07-.4-.09.13.03.26.06.4.09Z"/>
      <path class="cls-23" d="M111.59,143.69c-.08-.02-.17-.03-.25-.05.08.02.15.03.25.05Z"/>
      <path class="cls-23" d="M110.95,143.55c-.08-.02-.15-.04-.22-.06h0s.09.03.23.06Z"/>
      <path class="cls-1" d="M112.06,143.19c-.24-.04-.46-.08-.65-.12.22.05.44.09.65.12Z"/>
      <path class="cls-1" d="M111.16,143.01c-.15-.03-.3-.07-.4-.09.13.03.26.06.4.09Z"/>
      <path class="cls-23" d="M111.4,143.06c-.08-.02-.17-.03-.25-.05.08.02.15.03.25.05Z"/>
      <path class="cls-23" d="M110.76,142.92c-.08-.02-.15-.04-.22-.06h0s.09.03.23.06Z"/>
      <path class="cls-1" d="M112.61,143.1c-.23-.04-.44-.08-.63-.12.21.05.42.09.63.12Z"/>
      <path class="cls-1" d="M111.74,142.93c-.14-.03-.29-.06-.38-.09.13.03.25.06.38.09Z"/>
      <path class="cls-23" d="M111.98,142.98c-.08-.02-.16-.03-.24-.05.08.02.15.03.24.05Z"/>
      <path class="cls-23" d="M111.36,142.84c-.07-.02-.14-.04-.21-.06h0s.08.03.22.06Z"/>
      <path class="cls-13" d="M148.99,97.35s-3.66,15.03-9.95,16.26c-6.29,1.23-13.1-1.21-13.1-1.21,0,0-.65-17.66,2.57-19.97,3.22-2.32,10.64-5.67,20.48,4.93Z"/>
      <path class="cls-25" d="M125.93,112.35s.14.04.47.18c.08-5.42.58-12.86,2.59-14.29,2.99-2.19,9.74-5.27,18.76,3.16.82-2.33,1.23-4.09,1.23-4.09-9.86-10.61-17.29-7.27-20.48-4.95-3.22,2.32-2.57,20-2.57,20Z"/>
      <path class="cls-3" d="M129.65,104.7c0,3.42,2.77,6.19,6.19,6.19s6.19-2.77,6.19-6.19-2.77-6.19-6.19-6.19-6.19,2.77-6.19,6.19Z"/>
      <path class="cls-22" d="M136.13,108.82c1.79-.15,3.16-1.95,3-3.94-.16-1.98-1.81-3.54-3.6-3.39-1.79.15-3.16,1.95-3,3.93.16,1.98,1.81,3.54,3.6,3.39Z"/>
      <path class="cls-15" d="M135.98,108.1c1.24-.11,2.54-1.47,2.4-3.15-.14-1.69-1.63-2.83-2.88-2.72-1.25.11-2.53,1.48-2.4,3.16.14,1.68,1.63,2.82,2.88,2.72Z"/>
      <path class="cls-13" d="M136.99,103.95c.05.61.68,1.05,1.39.99.72-.06,1.26-.6,1.21-1.21-.05-.61-.67-1.06-1.39-1-.72.06-1.26.6-1.21,1.21Z"/>
      <path class="cls-13" d="M132.97,107.47c.03.3.34.53.69.5.36-.03.63-.3.61-.6-.03-.3-.34-.53-.69-.5-.36.03-.63.3-.61.6Z"/>
      <g>
        <path d="M106.54,97.62c-.05-.07-1.19-1.81-3.52-3.6-1.46-1.12-2.89-1.98-4.38-2.61-1.81-.76-3.75-1.3-5.64-1.55-1.7-.19-3.59-.14-5.8.16-1.68.32-3.32.82-4.72,1.44-.99.34-1.78.82-2.41,1.21-.24.15-.46.28-.68.4l-3,1.89,3.46-.81c.16-.04.34-.09.52-.14.72-.19,1.61-.43,2.65-.58.24-.04.49-.08.75-.14.44-.09.89-.18,1.36-.2.52-.04,1.07-.07,1.63-.11l.73-.05c1.92-.02,3.54.12,4.98.45,1.57.27,3.19.78,4.67,1.47,1.4.67,2.74,1.33,3.79,2.1,2.12,1.41,3.29,2.59,3.3,2.6h0c.29.29.68.44,1.07.44.28,0,.57-.08.82-.24.7-.46.89-1.4.45-2.07l-.03-.05Z"/>
        <path d="M149.61,93.05c-.2-.11-.42-.24-.66-.39-.63-.39-1.41-.87-2.38-1.2-1.42-.63-3.06-1.13-4.77-1.45-2.19-.29-4.08-.34-5.79-.15-1.88.26-3.82.79-5.63,1.55-1.47.63-2.94,1.5-4.38,2.61-2.29,1.76-3.43,3.46-3.52,3.59l-.02.03c-.39.6-.3,1.39.2,1.89.28.29.66.44,1.07.44h0c.4,0,.78-.16,1.06-.45h.01c.11-.12,1.25-1.24,3.31-2.61,1.03-.76,2.37-1.42,3.77-2.09,1.49-.69,3.11-1.2,4.7-1.47,1.42-.33,3.04-.47,4.93-.45l.76.05c.55.04,1.09.08,1.62.11.46.02.92.11,1.35.2.25.05.5.1.75.14,1.05.15,1.94.39,2.65.58.19.05.36.1.53.14l3.46.81-3.03-1.9Z"/>
      </g>
      <path class="cls-1" d="M110.26,149.48c-.22-.04-.43-.08-.61-.12.21.04.4.08.61.12Z"/>
      <path class="cls-1" d="M109.42,149.31c-.14-.03-.28-.06-.37-.08.12.03.24.06.37.08Z"/>
      <path class="cls-16" d="M109.65,149.36c-.08-.02-.15-.03-.23-.05.08.02.14.03.23.05Z"/>
      <path class="cls-16" d="M109.05,149.23c-.07-.02-.14-.04-.21-.06h0s.08.02.21.06Z"/>
      <path class="cls-1" d="M110.08,148.9c-.22-.04-.43-.08-.61-.12.21.04.4.08.61.12Z"/>
      <path class="cls-1" d="M109.25,148.73c-.14-.03-.28-.06-.37-.08.12.03.24.06.37.08Z"/>
      <path class="cls-16" d="M109.48,148.78c-.08-.02-.15-.03-.23-.05.08.02.14.03.23.05Z"/>
      <path class="cls-16" d="M108.88,148.65c-.07-.02-.14-.04-.21-.06h0s.08.02.21.06Z"/>
      <path class="cls-1" d="M110.6,148.81c-.22-.04-.41-.08-.58-.11.2.04.39.08.58.11Z"/>
      <path class="cls-1" d="M109.79,148.65c-.13-.03-.27-.06-.35-.08.12.03.23.05.35.08Z"/>
      <path class="cls-16" d="M110.01,148.7c-.07-.02-.15-.03-.22-.05.07.02.14.03.22.05Z"/>
      <path class="cls-16" d="M109.43,148.57c-.07-.02-.13-.04-.2-.06h0s.08.02.21.06Z"/>
      <g>
        <path class="cls-5" d="M104.11,114.82c-.12.45-.24.88-.38,1.3-13.94-7.35-26.27-3.56-34.5,1.29-2.54-5.99-1.84-11.95-1.84-11.95,3.24-15.48,26.01-9.72,26.01-9.72,15.66,5.67,10.71,19.07,10.71,19.07Z"/>
        <path class="cls-4" d="M158.95,115.86c-8.73-4.31-20.95-6.62-34.5,1.92-.36-.91-.69-1.89-.96-2.96,0,0-4.95-13.41,10.71-19.07,0,0,22.77-5.76,26.01,9.72,0,0,.58,4.97-1.25,10.4Z"/>
        <path class="cls-6" d="M158.95,115.86c-1.92,5.68-6.48,11.86-17.14,13.34-.65.09-1.32.12-1.98.07-3.04-.24-11.5-1.81-15.37-11.49,13.55-8.54,25.77-6.23,34.5-1.92Z"/>
        <path class="cls-6" d="M103.74,116.12c-3.52,11.16-12.75,12.89-15.96,13.15-.66.06-1.32.03-1.98-.07-9.69-1.35-14.35-6.58-16.56-11.79,8.23-4.86,20.56-8.65,34.5-1.29Z"/>
        <path class="cls-13" d="M153.01,92.87c-8.3-3.26-38.04-3.68-39.19-3.69h0s0,0-.02,0c-.01,0-.02,0-.02,0h0c-1.14.02-30.89.43-39.19,3.69,0,0-12.69,5.67-15.21,6.48v6.21s3.51.81,4.32,5.67c0,0,2.44,15.57,16.8,19.86,3.57,1.07,7.36,1.06,10.94.06,6.55-1.81,16.94-7.02,17.28-21.87.03-1.36-.39-2.69-1.12-3.84-1.18-1.84-1.92-4.85,6.17-4.49h0s.01,0,.02,0c0,0,.01,0,.02,0h0c8.09-.37,7.35,2.64,6.17,4.48-.73,1.15-1.16,2.47-1.12,3.84.35,14.84,10.74,20.05,17.28,21.87,3.58.99,7.37,1,10.94-.06,14.36-4.29,16.8-19.86,16.8-19.86.81-4.86,4.32-5.67,4.32-5.67v-6.21c-2.52-.81-15.21-6.48-15.21-6.48ZM160.21,105.47s.58,4.97-1.25,10.4h0c-.24.71-.52,1.42-.85,2.14,0,0,0,.01,0,.02-.08.17-.16.34-.24.5,0,.02-.02.04-.03.06-.08.15-.16.31-.24.46-.02.03-.03.06-.05.09-.08.14-.15.28-.23.42-.02.04-.05.08-.07.12-.08.13-.15.26-.23.39-.03.05-.06.1-.09.15-.08.12-.15.24-.23.37-.04.05-.07.11-.11.16-.08.11-.16.23-.24.34-.04.06-.08.12-.13.18-.08.11-.16.22-.24.32-.05.06-.09.12-.14.19-.08.1-.16.21-.25.31-.05.06-.11.13-.16.19-.08.1-.17.2-.25.29-.06.07-.12.13-.18.2-.08.09-.17.19-.26.28-.06.07-.13.13-.19.2-.09.09-.18.18-.27.27-.07.07-.13.13-.2.2-.09.09-.19.17-.28.26-.07.07-.14.13-.22.2-.1.09-.19.17-.29.25-.08.06-.15.13-.23.19-.1.08-.2.16-.31.24-.08.06-.16.13-.24.19-.11.08-.21.16-.32.24-.08.06-.17.12-.25.18-.11.08-.23.15-.34.23-.09.06-.17.11-.26.17-.12.08-.24.15-.37.23-.09.05-.17.11-.26.16-.13.08-.26.15-.39.22-.09.05-.17.1-.26.15-.14.07-.28.15-.42.22-.09.04-.17.09-.26.13-.15.07-.3.14-.46.22-.08.04-.17.08-.25.12-.17.07-.34.14-.51.22-.08.03-.15.07-.23.1-.19.07-.38.15-.57.22-.07.03-.13.05-.2.08-.21.08-.43.15-.65.22-.05.02-.1.03-.15.05-.25.08-.5.15-.76.23-.03,0-.05.01-.07.02-1.15.32-2.38.58-3.71.76-.15.02-.29.04-.44.05-.49.05-.98.05-1.46.02-.03,0-.05,0-.08,0-.04,0-.09,0-.14-.01-.06,0-.11,0-.17-.02-.04,0-.08,0-.12-.01-.08,0-.16-.02-.24-.03-.04,0-.08-.01-.12-.02-.09-.01-.17-.02-.26-.04-.04,0-.09-.01-.13-.02-.09-.01-.19-.03-.28-.04-.05,0-.1-.02-.14-.02-.1-.02-.2-.03-.3-.05-.05,0-.1-.02-.16-.03-.1-.02-.2-.04-.31-.06-.06-.01-.11-.02-.17-.04-.1-.02-.21-.05-.32-.07-.06-.01-.12-.03-.18-.04-.11-.03-.22-.06-.34-.09-.06-.02-.12-.03-.18-.05-.12-.03-.24-.07-.36-.11-.06-.02-.11-.03-.17-.05-.14-.04-.28-.09-.42-.14-.04-.01-.08-.03-.13-.04-.18-.06-.37-.13-.56-.2-.04-.02-.09-.04-.13-.05-.14-.06-.28-.11-.43-.17-.08-.03-.15-.07-.23-.1-.11-.05-.23-.1-.34-.15-.09-.04-.17-.08-.26-.12-.11-.05-.21-.1-.32-.16-.09-.05-.18-.09-.27-.14-.1-.05-.21-.11-.31-.17-.09-.05-.19-.11-.28-.16-.1-.06-.2-.12-.31-.18-.09-.06-.19-.12-.28-.18-.1-.06-.2-.13-.3-.2-.09-.06-.19-.13-.28-.19-.1-.07-.2-.14-.3-.22-.09-.07-.19-.14-.28-.21-.1-.08-.21-.16-.31-.24-.09-.07-.18-.14-.27-.22-.11-.09-.22-.19-.33-.28-.08-.07-.16-.14-.24-.21-.14-.13-.28-.26-.42-.4-.05-.05-.1-.09-.14-.14-.18-.18-.37-.37-.55-.57-.05-.06-.11-.12-.16-.19-.13-.14-.25-.29-.38-.44-.06-.08-.12-.15-.19-.23-.11-.14-.23-.29-.34-.43-.06-.08-.12-.17-.19-.25-.11-.15-.22-.3-.32-.46-.06-.09-.12-.18-.18-.27-.11-.16-.21-.33-.31-.5-.05-.09-.11-.18-.16-.27-.11-.18-.21-.36-.31-.55-.05-.09-.1-.18-.14-.27-.11-.2-.21-.41-.31-.62-.04-.08-.08-.16-.12-.25-.11-.23-.22-.48-.32-.72-.03-.06-.05-.13-.08-.19-.4-.96-.75-2.01-1.04-3.14,0,0-4.95-13.41,10.71-19.07,0,0,22.76-5.76,26,9.72ZM67.4,105.47c3.24-15.48,26-9.72,26-9.72,15.66,5.67,10.71,19.07,10.71,19.07-.14.53-.29,1.03-.45,1.53-.08.26-.17.52-.26.77-.03.07-.05.14-.08.2-.1.26-.2.52-.3.78-.01.03-.03.06-.04.1-.51,1.21-1.1,2.29-1.74,3.25,0,0,0,0,0,0-.13.19-.26.37-.39.55-.04.06-.08.12-.13.18-.12.16-.24.31-.36.46-.06.07-.12.15-.18.23-.11.14-.23.27-.34.4-.07.08-.14.16-.21.24-.11.12-.22.24-.34.36-.08.08-.15.16-.23.24-.11.11-.22.22-.33.32-.08.08-.16.16-.25.23-.11.1-.22.19-.33.29-.09.07-.17.15-.26.22-.11.09-.22.18-.33.26-.09.07-.18.14-.27.21-.11.08-.22.16-.32.24-.09.07-.18.13-.28.2-.11.07-.21.15-.32.22-.09.06-.19.12-.28.18-.11.07-.21.13-.32.2-.1.06-.19.12-.29.17-.1.06-.21.12-.31.18-.1.05-.19.11-.29.16-.1.05-.2.11-.31.16-.1.05-.19.1-.29.14-.1.05-.2.1-.3.14-.1.04-.19.09-.29.13-.1.04-.2.08-.29.13-.1.04-.2.08-.29.12-.09.04-.19.07-.28.11-.1.04-.19.07-.29.11-.09.03-.18.07-.27.1-.1.03-.19.06-.29.09-.09.03-.18.06-.26.08-.1.03-.19.06-.28.08-.08.02-.17.05-.25.07-.09.03-.18.05-.27.07-.08.02-.17.04-.25.06-.09.02-.17.04-.26.06-.08.02-.16.04-.23.05-.08.02-.17.04-.25.05-.08.02-.15.03-.23.05-.08.01-.15.03-.23.04-.07.01-.15.03-.22.04-.07.01-.13.02-.2.03-.07.01-.15.02-.22.03-.05,0-.1.01-.16.02-.08.01-.16.02-.24.03-.02,0-.04,0-.06,0-.22.03-.43.05-.61.06-.04,0-.08,0-.11,0-.48.03-.96.02-1.43-.02-.14-.01-.29-.03-.43-.05-.55-.08-1.08-.17-1.6-.27-.06-.01-.12-.02-.18-.03-.2-.04-.4-.09-.6-.13-.09-.02-.18-.04-.26-.06-.18-.04-.36-.09-.54-.14-.1-.03-.2-.05-.29-.08-.17-.05-.34-.09-.5-.14-.1-.03-.2-.06-.3-.09-.16-.05-.31-.1-.47-.15-.1-.03-.21-.07-.31-.1-.15-.05-.29-.1-.44-.16-.1-.04-.21-.08-.31-.12-.14-.05-.28-.11-.42-.16-.1-.04-.21-.08-.31-.13-.13-.06-.26-.11-.39-.17-.1-.05-.21-.09-.31-.14-.12-.06-.25-.12-.37-.17-.1-.05-.21-.1-.31-.16-.11-.06-.23-.12-.34-.18-.11-.06-.21-.12-.31-.17-.1-.06-.21-.12-.31-.17-.11-.07-.22-.13-.33-.2-.09-.05-.18-.11-.27-.16-.14-.09-.28-.18-.42-.28-.05-.03-.1-.07-.15-.1-.19-.13-.37-.26-.55-.4-.03-.02-.06-.05-.09-.07-.15-.11-.3-.23-.44-.34-.05-.04-.09-.08-.14-.12-.12-.1-.25-.2-.37-.31-.05-.04-.1-.09-.15-.13-.11-.1-.23-.2-.34-.31-.05-.04-.09-.09-.14-.13-.11-.1-.22-.21-.32-.32-.04-.04-.09-.09-.13-.14-.1-.11-.21-.22-.31-.32-.04-.04-.08-.09-.12-.14-.1-.11-.2-.22-.3-.34-.04-.04-.07-.09-.11-.13-.1-.12-.2-.24-.29-.35-.03-.04-.06-.08-.1-.12-.1-.12-.19-.25-.29-.38-.03-.04-.05-.07-.08-.1-.1-.13-.19-.27-.29-.41-.02-.03-.04-.06-.06-.08-.1-.15-.2-.3-.3-.45-.01-.02-.02-.03-.03-.05-.54-.84-1-1.71-1.39-2.57-.01-.03-.03-.06-.04-.09-2.71-6.1-1.98-12.28-1.98-12.28ZM113.82,96.47h0s0,0-.02,0c-.01,0-.02,0-.02,0h0c-.49,0-6.08.14-8.23,1.17,0,0-1.71.9-4.95-1.98,0,0-2.59-1.54-4.15-1.97-.7-.19-.65-1.2.07-1.31.34-.05.79-.08,1.38-.04h31.8c.59-.03,1.04-.01,1.38.04.72.12.77,1.12.07,1.31-1.55.43-4.15,1.97-4.15,1.97-3.24,2.88-4.95,1.98-4.95,1.98-2.15-1.03-7.75-1.16-8.23-1.17Z"/>
      </g>
      <path class="cls-9" d="M27.92,164.16l-.13.13.02.04c.04-.07.06-.13.11-.17Z"/>
      <path class="cls-12" d="M172.97,131.67c14.7-21.71,2.44-62.86,2.44-62.86,0,0-.09.1-.27.29-3.78-12.97-10.08-19.97-10.08-19.97h0c-3.06-4.38-7.4-8.99-12.71-13.53-10.88-9.29-17.73-7.38-26.73-7.11,0,0-.03.06-.07.15-3.96-.81-25.23-4.83-37.88-.38-13.99,4.93-25.44,13.38-33.53,36.09-2.04,5.73-3.14,11.2-3.62,16.31-.2-.18-.31-.27-.31-.27,0,0-8.59,42.19,7.96,62.35,0,0-3.98-12.14-1.93-22.03,7.45,20.96,26.81,33.89,26.81,33.89,0,0-6.02-6.7-8.7-13.39-2.09-5.19-5.2-14.11-5.2-27.23s13.6-29.38,13.6-29.38c0,0-6.28,10.2-7.51,21.41-1.25,11.21,5.33,19.88,5.33,19.88,0,0-1.31-13.31,3.29-23.91,2.31-5.32,6.11-9.97,12.33-11.89,0,0-.01.01-.01.02-3.34,8.59,3.37,15.81,3.37,15.81,0,0,.02-2.16.69-5.48,1.72-8.6,7.73-25.04,28.74-32.35l.65.9,14.8,20.34c.73.93,1.91,2.49,3.28,4.51,4.01,5.88,9.55,15.53,9.55,23.92,0,13.13-3.12,22.04-5.21,27.23-2.69,6.69-8.7,13.4-8.7,13.4,0,0,17.87-11.94,25.88-31.46h0c1.94-4.36,3.49-8.57,4.73-12.62,1.08,8.54-.97,17.37-.97,17.37Z"/>
      <path class="cls-10" d="M132.11,136.5c-3.94-1.23-10.69-1.57-15.1-1.65h0s-.82-.03-2.16-.03c-1.33,0-2.16.02-2.16.02h0c-4.41.09-11.15.43-15.1,1.66-6.21,1.95-8.15,9.6-15.34,15.47,0,0,9.91-.79,15.74-3.12,5.83-2.33,6.56-4.21,14.82-6.71.81-.24,1.47-.52,2.05-.82.58.3,1.24.58,2.05.82,8.26,2.5,8.99,4.38,14.82,6.71,5.83,2.33,15.74,3.12,15.74,3.12-7.19-5.87-9.12-13.52-15.34-15.47Z"/>
      <path class="cls-19" d="M93.4,175.55s17.72,19.67,44.49,0l5.57,10.02v8.45h-54.35v-11.26l4.29-7.2Z"/>
      <path class="cls-17" d="M150.85,218.91c.05,1.38.06,2.81.06,4.28,0,0-.28.14-.84.52h-70.48c-.57-.38-.86-.52-.86-.52,0-1.47.02-2.9.06-4.28.03-1.46.09-2.87.17-4.25.12-2.4.32-4.68.55-6.85.15-1.47.34-2.89.55-4.25.31-2.06.68-3.99,1.07-5.82h-8.94c.14-.35.26-.71.4-1.04.6-1.52,1.24-2.93,1.92-4.25,5.96-11.56,14.62-15.56,18.88-16.88,0,.15-.02.31-.02.46,0,7.19,9.45,13.04,21.3,13.35.32.02.64.02.98.02,12.18,0,22.08-5.9,22.22-13.21,4.61,1.8,11.92,6.13,17.14,16.26.68,1.32,1.32,2.73,1.92,4.25.14.34.28.69.4,1.04h-8.85c.4,1.81.77,3.76,1.08,5.82.03.18.06.35.08.54.18,1.2.34,2.44.48,3.72.23,2.17.43,4.44.55,6.85.06,1.2.12,2.43.15,3.69,0,.18.02.38.02.57Z"/>
    </g>
  </g>
</svg>