<?xml version="1.0" encoding="UTF-8"?>
<svg id="Layer_2" data-name="Layer 2" xmlns="http://www.w3.org/2000/svg" xmlns:xlink="http://www.w3.org/1999/xlink" viewBox="0 0 223.47 223.72">
  <defs>
    <style>
      .cls-1 {
        fill: none;
      }

      .cls-2 {
        fill: #d6bb9c;
      }

      .cls-3 {
        fill: #462e1b;
      }

      .cls-4 {
        fill: #ba9d82;
      }

      .cls-5 {
        fill: #ccad8a;
      }

      .cls-6 {
        fill: #4a473e;
      }

      .cls-7 {
        fill: #44361f;
      }

      .cls-8 {
        fill: #d7bd9d;
      }

      .cls-9 {
        fill: #37312a;
      }

      .cls-10 {
        fill: #a20d49;
      }

      .cls-11 {
        fill: #fff;
      }

      .cls-12 {
        fill: #2e2d27;
      }

      .cls-13 {
        fill: #dcc5a0;
      }

      .cls-14 {
        fill: #272213;
      }

      .cls-15 {
        fill: #ecdab6;
      }

      .cls-16 {
        fill: #3c3d39;
      }

      .cls-17 {
        fill: #b8987d;
      }

      .cls-18 {
        fill: #ebd9b5;
      }

      .cls-19 {
        fill: #a98d76;
      }

      .cls-20 {
        fill: #714223;
      }

      .cls-21 {
        fill: #b7967d;
      }

      .cls-22 {
        clip-path: url(#clippath);
      }

      .cls-23 {
        fill: #d2bb9b;
      }

      .cls-24 {
        fill: #b5957e;
      }
    </style>
    <clipPath id="clippath">
      <rect class="cls-1" x="102.5" y="155.13" width="25.12" height="14.81"/>
    </clipPath>
  </defs>
  <g id="Layer_1-2" data-name="Layer 1">
    <g>
      <rect class="cls-10" width="223.47" height="223.72"/>
      <path class="cls-13" d="M114.96,139.91v83.81h-45.33c-.74-.29-1.11-.44-1.11-.44,0-10.7,1.57-19.04,3.96-25.54,5.77-15.7,16.33-20.68,21.2-22.19,1.6-.49,2.58-.61,2.58-.61.17,0,.33-.02.5-.04,1.43-.23,2.59-1.47,3.52-3.45.69-1.47,1.27-3.34,1.74-5.51.19-.85.33-1.7.48-2.62.22-1.55.44-3.17.63-4.87.07-1.03.18-2.03.29-3.1.4-5.13.52-10.74.52-16.05,0,0,6.09.63,11.03.63Z"/>
      <path class="cls-18" d="M161.59,223.28s-.41.15-1.07.44h-45.55v-83.81h.11c4.91,0,11.07-.63,11.07-.63,0,5.28.11,10.81.51,15.94.11,1,.22,2.03.29,3.03.19,1.77.41,3.43.67,4.98v.03c.07.7.22,1.33.33,1.99.45,2.18.99,4.1,1.65,5.64.82,1.91,1.81,3.25,3.01,3.78.38.17.79.26,1.21.26,0,0,1.74.21,4.36,1.24,5.34,2.09,14.3,7.57,19.45,21.56,2.39,6.5,3.96,14.85,3.96,25.54Z"/>
      <g class="cls-22">
        <path class="cls-4" d="M127.61,163.08v.04c-1.14,1.76-4.98,6.82-12.58,6.82h-.07c-7.19-.04-11.4-5.24-12.47-6.78.22-1.54.44-3.15.63-4.84.07-.99.18-2.02.3-3.08,3.5.88,7.34,1.43,11.4,1.5h.15c4.2-.07,8.08-.66,11.69-1.61.11.99.22,2.02.3,3.01.18,1.76.41,3.41.66,4.95"/>
      </g>
      <path class="cls-5" d="M114.45,44.41c-48.02,0-48.28,40.14-46.14,66.43-3.28-6.23-13.06-4.33-12.25,5.5.77,9.46,14.74,14.28,14.35,13.23,7.27,19.44,26.52,34.09,44.04,34.09h.37V44.41h-.37"/>
      <path class="cls-19" d="M59.12,112.19c2.36-3.81,6.05-2.16,6.93-1.32.96.92,1.73,2.09,1.14,4.33-.33,1.28-1.66,1.39-1.36,3.3.37,2.16,1.36,2.27,1.95,2.79.55.48,1.25.84,1.59,1.76.37.92.41,1.87.22,2.71-.37,1.54-2.62.29-4.13-.37-1-.48-4.17-3.15-4.98-4.03-1.99-2.27-2.95-6.67-1.36-9.17"/>
      <path class="cls-8" d="M114.7,44.41c48.02,0,48.28,40.14,46.18,66.43,3.28-6.23,13.02-4.33,12.21,5.5-.74,9.46-14.73,14.28-14.35,13.23-7.08,19.44-26.52,34.09-44.04,34.09h-.26l-.11-119.26h.37"/>
      <path class="cls-19" d="M170.03,112.19c-2.36-3.81-6.01-2.16-6.93-1.32-.96.92-1.7,2.09-1.14,4.33.33,1.28,1.66,1.39,1.36,3.3-.37,2.16-1.36,2.27-1.92,2.79-.55.48-1.29.84-1.62,1.76-.33.92-.41,1.87-.22,2.71.37,1.54,2.62.29,4.13-.37,1.03-.48,4.17-3.15,4.98-4.03,2.03-2.27,2.95-6.67,1.36-9.17"/>
      <path class="cls-13" d="M114.07,55.74c-15.79,0-27.37,4.58-34.34,13.6-9.77,12.65-9.41,31.93-5.83,45.79,1.11,4.25,1.7,15.65,2.43,19.83,3.43,18.73,24.12,28.71,37.73,28.71h.37V55.74h-.22"/>
      <path class="cls-18" d="M148.37,69.37c-6.93-8.98-18.37-13.56-33.93-13.64v107.93c15.57-.18,34.19-11.11,37.36-28.71.77-4.18,1.33-15.58,2.43-19.83,3.61-13.82,3.98-33.07-5.86-45.75"/>
      <path class="cls-1" d="M112.51,144.65c-.22-.04-.42-.08-.59-.11.2.04.4.08.59.11Z"/>
      <path class="cls-1" d="M111.69,144.49c-.14-.03-.27-.06-.36-.08.12.03.24.05.36.08Z"/>
      <path class="cls-21" d="M111.92,144.53c-.08-.02-.15-.03-.23-.05.07.02.14.03.23.05Z"/>
      <path class="cls-21" d="M111.33,144.4c-.07-.02-.13-.04-.2-.06h0s.08.02.21.06Z"/>
      <path class="cls-1" d="M71.38,89.38c-.43,1.43-.73,2.99-.93,4.66,0,0,.63-2.63,2.03-6.52-.6.83-1,1.5-1.1,1.86Z"/>
      <path class="cls-7" d="M96.42,56.01l-.2.2.03.07c.07-.1.1-.2.17-.27Z"/>
      <path class="cls-1" d="M112.66,142.46c-.22-.04-.43-.08-.61-.12.21.04.41.09.61.12Z"/>
      <path class="cls-1" d="M111.82,142.3c-.14-.03-.28-.06-.37-.08.12.03.24.06.37.08Z"/>
      <path class="cls-24" d="M112.05,142.35c-.08-.02-.15-.03-.23-.05.08.02.14.03.23.05Z"/>
      <path class="cls-24" d="M111.45,142.21c-.07-.02-.14-.04-.21-.06h0s.08.02.21.06Z"/>
      <path class="cls-2" d="M105.05,128.64c-.19-3.83,7.04-1.4,9.42-1.28,1.88.1,7.61-1.21,8.1-.87,3.37,2.27-3.57,6.85-8.22,6.85-1.24,0-9.19-2.38-9.3-4.69Z"/>
      <path class="cls-11" d="M79.99,97.86s3.66,15.03,9.95,16.26c6.29,1.23,13.1-1.21,13.1-1.21,0,0,.65-17.66-2.57-19.97-3.22-2.32-10.64-5.67-20.48,4.93Z"/>
      <path class="cls-23" d="M103.05,112.86s-.14.04-.47.18c-.08-5.42-.58-12.86-2.59-14.29-2.99-2.19-9.74-5.27-18.76,3.16-.82-2.33-1.23-4.09-1.23-4.09,9.86-10.61,17.29-7.27,20.48-4.95,3.22,2.32,2.57,20,2.57,20Z"/>
      <circle class="cls-3" cx="93.13" cy="105.21" r="6.19"/>
      <path class="cls-20" d="M92.84,109.33c-1.79-.15-3.16-1.95-3-3.94.16-1.98,1.81-3.54,3.6-3.39,1.79.15,3.16,1.95,3,3.93-.16,1.98-1.81,3.54-3.6,3.39Z"/>
      <path class="cls-14" d="M93,108.62c-1.24-.11-2.54-1.47-2.4-3.15.14-1.69,1.63-2.83,2.88-2.72,1.25.11,2.53,1.48,2.4,3.16-.14,1.68-1.63,2.82-2.88,2.72Z"/>
      <path class="cls-11" d="M91.99,104.47c-.05.61-.68,1.05-1.39.99-.72-.06-1.26-.6-1.21-1.21.05-.61.67-1.05,1.39-1,.72.06,1.26.6,1.21,1.21Z"/>
      <path class="cls-11" d="M96,107.98c-.03.3-.34.53-.69.5-.36-.03-.63-.3-.61-.6.03-.3.34-.53.69-.5.36.03.63.3.61.6Z"/>
      <path class="cls-1" d="M112.76,144.23c-.22-.04-.43-.08-.61-.12.21.04.41.08.61.12Z"/>
      <path class="cls-1" d="M111.92,144.07c-.14-.03-.28-.06-.37-.08.12.03.24.06.37.08Z"/>
      <path class="cls-24" d="M112.15,144.12c-.08-.02-.15-.03-.23-.05.08.02.14.03.23.05Z"/>
      <path class="cls-24" d="M111.55,143.98c-.07-.02-.14-.04-.21-.06h0s.08.02.21.06Z"/>
      <path class="cls-1" d="M112.52,143.82c-.24-.04-.46-.08-.65-.12.22.05.44.09.65.12Z"/>
      <path class="cls-1" d="M111.62,143.64c-.15-.03-.3-.07-.4-.09.13.03.26.06.4.09Z"/>
      <path class="cls-21" d="M111.87,143.69c-.08-.02-.17-.03-.25-.05.08.02.15.03.25.05Z"/>
      <path class="cls-21" d="M111.22,143.55c-.08-.02-.15-.04-.22-.06h0s.09.03.23.06Z"/>
      <path class="cls-1" d="M112.33,143.19c-.24-.04-.46-.08-.65-.12.22.05.44.09.65.12Z"/>
      <path class="cls-1" d="M111.43,143.01c-.15-.03-.3-.07-.4-.09.13.03.26.06.4.09Z"/>
      <path class="cls-21" d="M111.68,143.06c-.08-.02-.17-.03-.25-.05.08.02.15.03.25.05Z"/>
      <path class="cls-21" d="M111.04,142.92c-.08-.02-.15-.04-.22-.06h0s.09.03.23.06Z"/>
      <path class="cls-1" d="M112.89,143.1c-.23-.04-.44-.08-.63-.12.21.05.42.09.63.12Z"/>
      <path class="cls-1" d="M112.02,142.93c-.14-.03-.29-.06-.38-.09.13.03.25.06.38.09Z"/>
      <path class="cls-21" d="M112.26,142.98c-.08-.02-.16-.03-.24-.05.08.02.15.03.24.05Z"/>
      <path class="cls-21" d="M111.63,142.84c-.07-.02-.14-.04-.21-.06h0s.08.03.22.06Z"/>
      <path class="cls-11" d="M149.27,97.35s-3.66,15.03-9.95,16.26c-6.29,1.23-13.1-1.21-13.1-1.21,0,0-.65-17.66,2.57-19.97,3.22-2.32,10.64-5.67,20.48,4.93Z"/>
      <path class="cls-23" d="M126.21,112.35s.14.04.47.18c.08-5.42.58-12.86,2.59-14.29,2.99-2.19,9.74-5.27,18.76,3.16.82-2.33,1.23-4.09,1.23-4.09-9.86-10.61-17.29-7.27-20.48-4.95-3.22,2.32-2.57,20-2.57,20Z"/>
      <path class="cls-3" d="M129.93,104.7c0,3.42,2.77,6.19,6.19,6.19s6.19-2.77,6.19-6.19-2.77-6.19-6.19-6.19-6.19,2.77-6.19,6.19Z"/>
      <path class="cls-20" d="M136.41,108.82c1.79-.15,3.16-1.95,3-3.94-.16-1.98-1.81-3.54-3.6-3.39-1.79.15-3.16,1.95-3,3.93.16,1.98,1.81,3.54,3.6,3.39Z"/>
      <path class="cls-14" d="M136.25,108.1c1.24-.11,2.54-1.47,2.4-3.15-.14-1.69-1.63-2.83-2.88-2.72-1.24.11-2.53,1.48-2.4,3.16.14,1.68,1.63,2.82,2.88,2.72Z"/>
      <path class="cls-11" d="M137.26,103.95c.05.61.68,1.05,1.39.99.72-.06,1.26-.6,1.21-1.21-.05-.61-.67-1.06-1.39-1-.72.06-1.26.6-1.21,1.21Z"/>
      <path class="cls-11" d="M133.25,107.47c.03.3.34.53.69.5.36-.03.63-.3.61-.6-.03-.3-.34-.53-.69-.5-.36.03-.63.3-.61.6Z"/>
      <g>
        <path class="cls-12" d="M106.82,89.94c-.05-.07-1.19-1.81-3.52-3.6-1.46-1.12-2.89-1.98-4.38-2.61-1.81-.76-3.75-1.3-5.64-1.55-1.7-.19-3.59-.14-5.8.16-1.68.32-3.32.82-4.72,1.44-.99.34-1.78.82-2.41,1.21-.24.15-.46.28-.68.4l-3,1.89,3.46-.81c.16-.04.34-.09.52-.14.72-.19,1.61-.43,2.65-.58.24-.04.49-.08.75-.14.44-.09.89-.18,1.36-.2.52-.04,1.07-.07,1.63-.11l.73-.05c1.92-.02,3.54.12,4.98.45,1.57.27,3.19.78,4.67,1.47,1.4.67,2.74,1.33,3.79,2.1,2.12,1.41,3.29,2.59,3.3,2.6h0c.29.29.68.44,1.07.44.28,0,.57-.08.82-.24.7-.46.89-1.4.45-2.07l-.03-.05Z"/>
        <path class="cls-12" d="M149.88,85.37c-.2-.11-.42-.24-.66-.39-.63-.39-1.41-.87-2.38-1.2-1.42-.63-3.06-1.13-4.77-1.45-2.19-.29-4.08-.34-5.79-.15-1.88.26-3.82.79-5.63,1.55-1.47.63-2.94,1.5-4.38,2.61-2.29,1.76-3.43,3.46-3.52,3.59l-.02.03c-.39.6-.3,1.39.2,1.89.28.29.66.44,1.07.44h0c.4,0,.78-.16,1.06-.45h.01c.11-.12,1.25-1.24,3.31-2.61,1.03-.76,2.37-1.42,3.77-2.09,1.49-.69,3.11-1.2,4.7-1.47,1.42-.33,3.04-.47,4.93-.45l.76.05c.55.04,1.09.08,1.62.11.46.02.92.11,1.35.2.25.05.5.1.75.14,1.05.15,1.94.39,2.65.58.19.05.36.1.53.14l3.46.81-3.03-1.9Z"/>
      </g>
      <path class="cls-1" d="M110.53,149.48c-.22-.04-.43-.08-.61-.12.21.04.4.08.61.12Z"/>
      <path class="cls-1" d="M109.7,149.31c-.14-.03-.28-.06-.37-.08.12.03.24.06.37.08Z"/>
      <path class="cls-17" d="M109.93,149.36c-.08-.02-.15-.03-.23-.05.08.02.14.03.23.05Z"/>
      <path class="cls-17" d="M109.33,149.23c-.07-.02-.14-.04-.21-.06h0s.08.02.21.06Z"/>
      <path class="cls-1" d="M110.36,148.9c-.22-.04-.43-.08-.61-.12.21.04.4.08.61.12Z"/>
      <path class="cls-1" d="M109.52,148.73c-.14-.03-.28-.06-.37-.08.12.03.24.06.37.08Z"/>
      <path class="cls-17" d="M109.76,148.78c-.08-.02-.15-.03-.23-.05.08.02.14.03.23.05Z"/>
      <path class="cls-17" d="M109.16,148.65c-.07-.02-.14-.04-.21-.06h0s.08.02.21.06Z"/>
      <path class="cls-1" d="M110.87,148.81c-.22-.04-.41-.08-.59-.11.2.04.39.08.59.11Z"/>
      <path class="cls-1" d="M110.07,148.65c-.13-.03-.27-.06-.35-.08.12.03.23.05.35.08Z"/>
      <path class="cls-17" d="M110.29,148.7c-.07-.02-.15-.03-.22-.05.07.02.14.03.22.05Z"/>
      <path class="cls-17" d="M109.71,148.57c-.07-.02-.13-.04-.2-.06h0s.08.02.21.06Z"/>
      <path class="cls-15" d="M105.26,147.42c-.18-2.39,6.65.5,8.9.57,1.79.06,7.17-.35,7.66-.54,3.76-1.41-.21,3.99-7.77,4.28-3.47.14-8.68-2.85-8.79-4.3Z"/>
      <path class="cls-8" d="M127.78,141.68c-4.33-.81-13.46.05-13.46.05-7.53,1.25-13.42-.08-13.46-.03-.18.02,6.01,8.23,13.36,7.85h0c7.35.38,13.74-7.85,13.56-7.88Z"/>
      <path d="M163.74,215.45c-.25-3.48-.66-6.69-1.21-9.64-.97-5.19-2.36-9.59-4.01-13.33-2.32-5.28-5.15-9.23-8.02-12.2h.02c-.09-.09-.18-.17-.27-.26-.03-.03-.07-.07-.1-.11h0c-5.52-5.35-11.07-7.19-13.45-7.76.04.15-1.49-.51-1.81-1.11-.61-1.04-1.3-2.05-2.09-3.1-.82-1.08-1.98-1.87-3.29-2.21-.79-.21-1.52-.41-1.56-.46l.29,4.86c.06.97-.28,1.92-.95,2.64l-6.64,7.14h0l-5.11,6.04-4.88-5.67h.06l-8.23-9.57c-.7-.82-1-1.91-.8-2.96l.44-2.4s-1.81.58-3.02.96c-.78.24-1.45.74-1.9,1.43-.43.65-.79,1.32-1.08,1.94-.7,1.49-1.93,2.67-3.5,3.2-3.04,1.02-7.58,3.06-11.68,7.04h0c-3,3-5.96,7.07-8.38,12.56-1.65,3.74-3.04,8.14-4.01,13.33-.55,2.95-.96,6.16-1.21,9.64-.18,2.45-.27,5.03-.27,7.76,0,0,.4.18,1.15.51h94.64c.74-.33,1.14-.51,1.14-.51,0-2.73-.1-5.31-.27-7.76Z"/>
      <polygon class="cls-9" points="123.46 195.6 149.88 195.6 149.88 200.54 136.67 208.96 123.46 200.54 123.46 195.6"/>
      <g>
        <path class="cls-6" d="M129.05,135.85s-6.83-7.51-11.46-4.66h0c-2.48,1.6-4.68.57-5.39.15-.04-.03-.08-.05-.12-.08-.08-.05-.12-.08-.12-.08h0c-4.63-2.84-11.45,4.67-11.45,4.67,0,0-4.75,4.96-9.5,3.39-.8-.26-1.39.77-.8,1.38,2.9,2.98,8.18,6.08,16.98,4.25,1.96-.41,3.5-.94,4.69-1.55,1.83-.93,3.98-.93,5.81,0,1.19.61,2.72,1.14,4.68,1.55,8.8,1.84,14.08-1.27,16.98-4.25.59-.6,0-1.64-.8-1.38-4.75,1.58-9.5-3.39-9.5-3.39Z"/>
        <path class="cls-16" d="M129.07,160.59c-7.84.49-9.8-4.55-9.8-4.55-.72-2.18-2.05-2.88-3.43-2.9h0s-.02,0-.03,0c-.01,0-.02,0-.03,0h0c-1.38.02-2.71.72-3.43,2.9,0,0-1.96,6.39-9.8,5.9,0,0,5.07,6.28,13.23,6.47h0s.02,0,.03,0c0,0,.02,0,.03,0h0c8.17-.2,13.23-7.82,13.23-7.82Z"/>
      </g>
      <polygon class="cls-9" points="81.49 195.6 107.91 195.6 107.91 200.54 94.7 208.96 81.49 200.54 81.49 195.6"/>
      <path class="cls-11" d="M179.01,47.44s-3.19,5.15-14.18,1.14c-10.74-3.91-10.46-16.67-25.89-23.79-7.87-3.64-12.59-3.18-15.33-1.86,2.77-2.49,8.44-2.27,8.44-2.27,0,0-7.02-4.26-17.87-.44-5.93,2.09-7.25,2.56-9.45,3.02-1.35.28-2.73-.27-3.57-1.43-2.41-3.33-6.27-5.09-10.14-4.51-2.33.35-4.55.9-6.55,1.71-13.33,5.4-24.24,14.68-31.93,39.58-7.7,24.9-1.45,45.71.04,54.42,4.72,27.56,34.88,54.4,34.88,54.4,0,0-13.12-17.16-15.68-24.51-.65-1.85-1.4-4.14-2.11-6.87,5.48,10.03,12.44,16.18,12.44,16.18-13.02-30.77,5.23-61.24,14.65-74.01h0s1.83-2.82,5-6.29c-.39-.32-.78-.61-1.17-.87.39.27.78.56,1.17.87,8.26-9.02,25.7-22.44,44.27-2.2.75.74,1.45,1.55,2.12,2.43,0,0,0,0,0,0h0c6.43,8.52,8.99,22.83,8.05,28.05-2.32,12.88.91,20.29,2.14,19.94,0,0,.05-3.28,1.17-6.19,3.32-8.68,6.11-2.64,6.62-14.42.6-13.78,2.54-18.82,1.92-26.18-.27-3.21-1.05-6.91-1.83-10.03h0c-1.18-5.7.58-6.78,1.38-6.98.07,0,.13-.03.2-.04.1-.01.16,0,.16,0l-.02-.02c7.12-1.35,11.08-8.82,11.08-8.82Z"/>
      <path class="cls-9" d="M145.6,223.72h-59.6c.32-1.24.68-2.41,1.08-3.5.41-1.12.86-2.15,1.33-3.11h13.54c3.23,0,6.36,1.18,8.74,3.36,1.6,1.46,3.32,2.11,5.05,1.98h.07c1.76.15,3.51-.51,5.13-2,2.37-2.18,5.5-3.34,8.72-3.34h13.52c.49.96.93,1.99,1.34,3.11.4,1.09.77,2.26,1.09,3.5Z"/>
      <path class="cls-11" d="M134.55,61.06s-41.65,14.44-45.16,62.82c0,0-7.9-35.07,15.66-57.08,0,0,10.85-17.11,29.5-5.74Z"/>
    </g>
  </g>
</svg>