<?xml version="1.0" encoding="UTF-8"?>
<svg id="Layer_2" data-name="Layer 2" xmlns="http://www.w3.org/2000/svg" xmlns:xlink="http://www.w3.org/1999/xlink" viewBox="0 0 223.47 224.23">
  <defs>
    <style>
      .cls-1 {
        fill: none;
      }

      .cls-2 {
        fill: #462e1b;
      }

      .cls-3 {
        fill: #644645;
      }

      .cls-4 {
        fill: #7b3357;
      }

      .cls-5 {
        fill: #44361f;
      }

      .cls-6 {
        fill: #fff;
      }

      .cls-7 {
        fill: #272213;
      }

      .cls-8 {
        fill: #b8987d;
      }

      .cls-9 {
        fill: #8b5b5a;
      }

      .cls-10 {
        fill: #f7f7f7;
      }

      .cls-11 {
        fill: #523a38;
      }

      .cls-12 {
        fill: #b15d80;
      }

      .cls-13 {
        fill: #785151;
      }

      .cls-14 {
        fill: #714223;
      }

      .cls-15 {
        clip-path: url(#clippath);
      }
    </style>
    <clipPath id="clippath">
      <rect class="cls-1" x="99.88" y="155.48" width="25.12" height="14.84"/>
    </clipPath>
  </defs>
  <g id="Layer_1-2" data-name="Layer 1">
    <g>
      <rect class="cls-12" width="223.47" height="224.23"/>
      <path class="cls-13" d="M112.35,140.24v83.59h-45.34c-.74-.29-1.11-.45-1.11-.45,0-5.25.37-9.94,1.06-14.1.34-2.14.75-4.12,1.24-6,.49-1.92,1.04-3.71,1.66-5.37.81-2.22,1.72-4.22,2.72-6.02,3.12-5.77,6.91-9.59,10.43-12.08,1.8-1.26,3.52-2.2,5.02-2.89,1.15-.52,2.18-.89,3.03-1.15.98-.29,1.72-.45,2.15-.54.28-.05.43-.06.43-.06.17,0,.34-.02.51-.03,1.41-.23,2.58-1.48,3.52-3.45.69-1.46,1.26-3.32,1.74-5.51.18-.85.34-1.68.48-2.6.23-1.55.45-3.17.63-4.86.08-1.03.18-2.03.29-3.09.4-5.11.52-10.73.52-16.02,0,0,6.08.63,11.03.63Z"/>
      <path class="cls-9" d="M158.98,223.39s-.41.15-1.08.45h-45.55v-83.59h.11c4.9,0,11.07-.63,11.07-.63,0,5.26.11,10.79.51,15.9.11,1.02.23,2.05.29,3.03.2,1.77.41,3.42.68,4.97v.03c.06.71.22,1.34.32,1.99.46,2.19,1,4.09,1.66,5.63.81,1.89,1.8,3.23,2.99,3.77.38.17.8.25,1.21.25,0,0,.26.03.74.14.75.14,2.03.46,3.62,1.09.46.18.95.38,1.46.62,1.35.62,2.86,1.45,4.42,2.51,3.62,2.49,7.6,6.37,10.86,12.37.98,1.8,1.9,3.8,2.72,6.02.61,1.66,1.17,3.45,1.66,5.37.49,1.91.92,3.94,1.26,6.11.66,4.14,1.04,8.79,1.04,13.99Z"/>
      <g class="cls-15">
        <path class="cls-11" d="M125,163.46v.04c-1.14,1.76-4.98,6.83-12.58,6.83h-.07c-7.19-.04-11.4-5.25-12.47-6.8.22-1.54.44-3.16.63-4.85.07-.99.18-2.02.3-3.09,3.5.88,7.34,1.43,11.4,1.51h.15c4.2-.07,8.08-.66,11.69-1.62.11.99.22,2.02.3,3.01.18,1.76.41,3.42.66,4.96"/>
      </g>
      <path class="cls-3" d="M111.83,44.54c-48.02,0-48.28,40.23-46.14,66.57-3.28-6.25-13.06-4.33-12.25,5.51.77,9.48,14.74,14.31,14.35,13.26,7.27,19.48,26.52,34.16,44.04,34.16h.37V44.54h-.37"/>
      <path class="cls-13" d="M112.09,44.54c48.02,0,48.28,40.23,46.18,66.57,3.28-6.25,13.02-4.33,12.21,5.51-.74,9.48-14.73,14.31-14.35,13.26-7.08,19.48-26.52,34.16-44.04,34.16h-.26l-.11-119.5h.37"/>
      <path class="cls-13" d="M111.45,55.89c-15.79,0-27.37,4.59-34.34,13.63-9.77,12.67-9.41,32-5.83,45.88,1.11,4.26,1.7,15.69,2.43,19.87,3.43,18.77,24.12,28.76,37.73,28.76h.37V55.89h-.22"/>
      <path class="cls-9" d="M145.76,69.56c-6.93-9-18.37-13.59-33.93-13.67v108.15c15.57-.18,34.19-11.13,37.36-28.76.77-4.19,1.33-15.61,2.43-19.87,3.61-13.85,3.98-33.14-5.86-45.85"/>
      <path class="cls-5" d="M98.42,56.14l-.2.2.03.07c.07-.1.1-.2.17-.27Z"/>
      <path class="cls-6" d="M77.37,98.1s3.66,15.06,9.95,16.29c6.29,1.23,13.1-1.21,13.1-1.21,0,0,.65-17.7-2.57-20.01-3.22-2.32-10.64-5.68-20.48,4.94Z"/>
      <path class="cls-6" d="M146.65,97.59s-3.66,15.06-9.95,16.29c-6.29,1.23-13.1-1.21-13.1-1.21,0,0-.65-17.7,2.57-20.01,3.22-2.32,10.64-5.68,20.48,4.94Z"/>
      <path class="cls-11" d="M56.5,112.47c2.36-3.82,6.05-2.17,6.93-1.32.96.92,1.73,2.09,1.14,4.33-.33,1.29-1.66,1.4-1.36,3.31.37,2.17,1.36,2.28,1.95,2.79.55.48,1.25.85,1.59,1.76.37.92.41,1.87.22,2.72-.37,1.54-2.62.29-4.13-.37-1-.48-4.17-3.16-4.98-4.04-1.99-2.28-2.95-6.69-1.36-9.18"/>
      <path class="cls-11" d="M167.42,112.47c-2.36-3.82-6.01-2.17-6.93-1.32-.96.92-1.7,2.09-1.14,4.33.33,1.29,1.66,1.4,1.36,3.31-.37,2.17-1.36,2.28-1.92,2.79-.55.48-1.29.85-1.62,1.76-.33.92-.41,1.87-.22,2.72.37,1.54,2.62.29,4.13-.37,1.03-.48,4.17-3.16,4.98-4.04,2.03-2.28,2.95-6.69,1.36-9.18"/>
      <path class="cls-1" d="M68.77,89.6c-.43,1.43-.73,3-.93,4.67,0,0,.63-2.63,2.03-6.54-.6.83-1,1.5-1.1,1.87Z"/>
      <path class="cls-11" d="M100.43,113.13s-.14.04-.47.18c-.08-5.43-.58-12.89-2.59-14.31-2.99-2.19-9.74-5.28-18.76,3.16-.82-2.33-1.23-4.1-1.23-4.1,9.86-10.64,17.29-7.29,20.48-4.96,3.22,2.32,2.57,20.04,2.57,20.04Z"/>
      <ellipse class="cls-2" cx="90.52" cy="105.46" rx="6.19" ry="6.2"/>
      <path class="cls-14" d="M90.23,109.6c-1.79-.15-3.16-1.96-3-3.94.16-1.99,1.81-3.54,3.6-3.39,1.79.15,3.16,1.95,3,3.94-.16,1.99-1.81,3.55-3.6,3.4Z"/>
      <path class="cls-7" d="M90.38,108.88c-1.24-.11-2.54-1.47-2.4-3.16.14-1.69,1.63-2.83,2.88-2.73,1.24.11,2.53,1.48,2.4,3.16-.14,1.69-1.63,2.83-2.88,2.72Z"/>
      <path class="cls-11" d="M123.59,112.62s.14.04.47.18c.08-5.43.58-12.89,2.59-14.31,2.99-2.19,9.74-5.28,18.76,3.16.82-2.33,1.23-4.1,1.23-4.1-9.86-10.64-17.29-7.29-20.48-4.96-3.22,2.32-2.57,20.04-2.57,20.04Z"/>
      <path class="cls-2" d="M127.32,104.95c0,3.43,2.77,6.2,6.19,6.2s6.19-2.78,6.19-6.2-2.77-6.2-6.19-6.2-6.19,2.78-6.19,6.2Z"/>
      <path class="cls-14" d="M133.79,109.08c1.79-.15,3.16-1.96,3-3.94-.16-1.99-1.81-3.54-3.6-3.39-1.79.15-3.16,1.95-3,3.94.16,1.99,1.81,3.55,3.6,3.4Z"/>
      <path class="cls-7" d="M133.64,108.37c1.24-.11,2.54-1.47,2.4-3.16-.14-1.69-1.63-2.83-2.88-2.73-1.25.11-2.53,1.48-2.4,3.16.14,1.69,1.63,2.83,2.88,2.72Z"/>
      <g>
        <path d="M104.2,97.86c-.05-.07-1.19-1.81-3.52-3.6-1.46-1.12-2.89-1.98-4.38-2.62-1.81-.76-3.75-1.3-5.64-1.56-1.7-.19-3.59-.14-5.8.16-1.68.32-3.32.82-4.72,1.44-.99.34-1.78.82-2.41,1.21-.24.15-.46.28-.68.4l-3,1.89,3.46-.82c.16-.04.34-.09.52-.14.72-.19,1.61-.43,2.65-.58.24-.04.49-.09.75-.14.44-.09.89-.18,1.36-.2.52-.04,1.07-.07,1.63-.11l.73-.05c1.92-.02,3.54.12,4.98.45,1.57.27,3.19.78,4.67,1.47,1.4.67,2.74,1.34,3.79,2.11,2.12,1.41,3.29,2.59,3.3,2.61h0c.29.29.68.44,1.07.44.28,0,.57-.08.82-.25.7-.46.89-1.4.45-2.08l-.03-.05Z"/>
        <path d="M147.27,93.28c-.2-.11-.42-.24-.66-.39-.63-.39-1.41-.87-2.38-1.2-1.42-.63-3.06-1.13-4.77-1.45-2.19-.29-4.08-.34-5.79-.15-1.88.26-3.82.8-5.63,1.56-1.47.63-2.94,1.51-4.38,2.62-2.29,1.76-3.43,3.47-3.52,3.6l-.02.03c-.39.6-.3,1.4.2,1.9.28.29.66.45,1.07.45h0c.4,0,.78-.16,1.06-.45h.01c.11-.12,1.25-1.24,3.31-2.62,1.03-.76,2.37-1.43,3.77-2.1,1.49-.69,3.1-1.2,4.7-1.47,1.42-.33,3.04-.47,4.93-.45l.76.05c.55.04,1.09.08,1.62.11.47.02.92.11,1.35.2.25.05.5.1.75.14,1.05.15,1.94.39,2.65.58.19.05.36.1.53.14l3.46.82-3.03-1.91Z"/>
      </g>
      <path class="cls-6" d="M89.38,104.72c-.05.61-.68,1.05-1.39,1-.72-.06-1.26-.61-1.21-1.21.05-.61.67-1.06,1.39-1,.72.06,1.26.6,1.21,1.21Z"/>
      <path class="cls-6" d="M93.39,108.24c-.03.3-.34.53-.69.5-.36-.03-.63-.3-.61-.61.03-.3.34-.53.69-.5.36.03.63.3.61.61Z"/>
      <path class="cls-6" d="M134.65,104.21c.05.61.68,1.05,1.39,1,.72-.06,1.26-.61,1.21-1.21-.05-.61-.67-1.06-1.39-1-.72.06-1.26.6-1.21,1.21Z"/>
      <path class="cls-6" d="M130.63,107.73c.03.3.34.53.69.5.36-.03.63-.3.61-.61-.03-.3-.34-.53-.69-.5-.36.03-.63.3-.61.61Z"/>
      <path class="cls-4" d="M152.99,218.5c.08,2.17.15,3.96.25,5.33h-81.09c.09-1.37.17-3.16.25-5.33.08-1.95.12-4.19.15-6.73,0-.63.02-1.29.02-1.95h.02v-2.69c0-1.23-.02-2.5-.03-3.84h-4.33c.26-1,.52-1.97.81-2.89.28-.86.55-1.69.84-2.49.28-.74.55-1.46.86-2.15.57-1.38,1.2-2.67,1.86-3.87.55-1.01,1.12-1.97,1.7-2.86,2.73-4.21,5.82-7.16,8.72-9.21,1.8-1.26,3.52-2.21,5.02-2.9,1.15-.52,2.18-.89,3.03-1.15.98-.29,1.72-.45,2.15-.54,3.72,4.7,10.41,11.21,19.14,11.15,5.74-.05,12.38-2.95,19.58-11.07.75.14,2.03.46,3.62,1.09.46.18.95.38,1.46.61,1.35.61,2.86,1.44,4.42,2.52,3.01,2.07,6.27,5.1,9.15,9.51.58.89,1.15,1.84,1.7,2.86.66,1.2,1.27,2.49,1.86,3.87.31.69.58,1.41.86,2.15.29.8.57,1.63.84,2.49.29.92.55,1.89.81,2.89h-3.81c-.03,1.34-.03,2.61-.03,3.84v2.7c0,.66.02,1.31.02,1.94.02,2.53.06,4.78.14,6.73Z"/>
      <path class="cls-11" d="M102.44,129.15c-.19-3.84,7.04-1.4,9.42-1.28,1.88.1,7.61-1.21,8.1-.87,3.37,2.28-3.57,6.86-8.22,6.86-1.24,0-9.19-2.39-9.3-4.7Z"/>
      <path class="cls-1" d="M107.92,148.68c-.22-.04-.43-.08-.61-.12.21.04.4.08.61.12Z"/>
      <path class="cls-8" d="M107.31,148.57c-.08-.02-.15-.03-.23-.05.08.02.14.03.23.05Z"/>
      <path class="cls-9" d="M102.88,149.35c-.18-2.42,6.73.51,9,.58,1.81.06,7.25-.36,7.75-.55,3.8-1.43-.21,4.05-7.87,4.34-3.51.14-8.78-2.89-8.89-4.36Z"/>
      <path class="cls-13" d="M125.38,144.68c-1.88-.09-3.8,1.47-6.06,1.23-.09-.05-.14-.05-.23-.05-.52-.09-1.03,0-1.6.14-.7.15-1.41.43-2.07.66-1.13.37-2.4.66-3.71.56h0s-.05,0-.07,0-.05,0-.07,0h0c-1.31.09-2.58-.2-3.71-.57-.66-.23-1.37-.52-2.07-.66-.56-.14-1.08-.23-1.6-.14-.1,0-.14,0-.23.05-2.26.24-4.18-1.33-6.06-1.23-.52.05-1.27-.09-1.69-.09.09.05.19.09.28.14,5.35,2.61,9.96,7.51,15.08,7.35h.15c5.11.16,9.73-4.74,15.08-7.35.1-.05.19-.09.28-.14-.42,0-1.17.14-1.69.09Z"/>
      <path class="cls-11" d="M126.95,144.53h0s-5.44-2.1-9.31-.87c0,0-1.44.56-2.93.91-.91.35-2.01.46-3.07.41h0c-.81-.03-1.59-.14-2.22-.25-.21-.03-.42-.08-.64-.12-.09-.02-.16-.03-.24-.05-.13-.03-.26-.06-.39-.09-.14-.03-.22-.06-.22-.06h0c-1.24-.34-2.3-.75-2.3-.75-3.87-1.23-9.31.87-9.31.87h0c-.07.03-.12.06-.12.06.42,0,1.17.14,1.69.09,1.52-.07,3.07.92,4.8,1.18.69.2,3.29.88,6.63,1.19.72.15,1.47.23,2.24.17h0s.05,0,.07,0,.05,0,.07,0h0c.4.02.8,0,1.19-.03,2.53-.03,5.21-.38,7.68-1.34h-.02c1.73-.27,3.29-1.27,4.81-1.2.52.05,1.27-.09,1.69-.09,0,0-.05-.02-.12-.06Z"/>
      <path class="cls-10" d="M157.26,152.35c1.49,1.42,7.65,3.51,7.65,3.51,0,0-3.99-1.44-5.32-6.93-.5-2-.74-3.14-.78-3.94h-.48c1.66-1.99,2.91-4.11,3.74-6.33h0c.04-.11.07-.23.11-.35.31-.89.55-1.79.72-2.71,2.76-13.46-3.92-31.15-3.92-31.15.75,4.26-.71,9.64-1.91,14.53-.95,3.88-2.2,7.56-3.26,10.38-1,2.64-1.84,4.53-2.12,5.16-3.83,7.28-10.67,13.24-19.28,16.92.58-1.42.92-3.03.92-4.76,0-.76-.08-1.49-.2-2.2.85-.09,1.67-.2,2.44-.37,1.22-.2,2.33-.56,3.28-1.13,1.97-1.17,3.29-3.2,3.5-6.45,0,0-5.08,7.35-13,.85,0,0-9.1-10.04-17.15-6.02-8.03-4.02-17.14,6.02-17.14,6.02-7.91,6.5-13-.85-13-.85.14,2.33.77,3.93,1.87,5.15l.05.05s.21.18.5.41c.28.23.73.54,1.35.84,0,0,.01,0,.03.02.61.29,1.39.58,2.37.79.77.2,1.83.25,3.13.2-.18.86-.29,1.76-.29,2.7,0,1.73.33,3.34.92,4.76-8.61-3.68-15.45-9.64-19.28-16.92-.28-.63-1.12-2.52-2.12-5.16-1.07-2.83-2.31-6.5-3.26-10.38-1.2-4.9-1.91-10.12-1.16-14.38,0,0-7.43,17.55-4.66,31,.16.92.41,1.82.72,2.71.04.12.08.24.11.35h.01c.82,2.21,2.08,4.33,3.73,6.32h-.48c-.04.8-.29,1.94-.78,3.94-1.34,5.49-5.32,6.93-5.32,6.93,0,0,6.16-2.09,7.65-3.51.72-.69,2.63-2.58,3.21-3.17.02.02.04.03.06.04-.34.63-1.15,2.67-.01,6.6,1.49,5.14,7.59,8.6,7.59,8.6,0,0-3.66-4.09-2.64-8.57,0,0-.22,1.8,5.74,6.78,5.68,4.77,16.06,11.78,16.98,11.84-.08-.15-.19-6.95-.26-8.98,4.34,1.05,8.87,7.86,13.57,7.86.28,0,.56-.01.83-.02h0c.27,0,.56.02.83.02,4.7,0,9.23-6.81,13.57-7.86-.07,2.02-.18,10.07-.26,10.22.92-.07,11.3-8.32,16.98-13.09,5.95-4.99,5.74-6.78,5.74-6.78,1.02,4.48-2.64,8.57-2.64,8.57,0,0,6.11-3.46,7.59-8.6,1.14-3.93.33-5.97-.01-6.6.02-.02.04-.03.06-.04.58.59,2.49,2.48,3.21,3.17ZM127.23,152.11c-1.42.61-3.13,1.12-5.04,1.52,0-.02,0-.04,0-.06,0-1.55-4.37-2.81-9.77-2.81-.08,0-.16,0-.24,0-.08,0-.16,0-.25,0-5.4,0-9.77,1.26-9.77,2.81,0,.02,0,.04,0,.06-1.92-.41-3.62-.92-5.04-1.52-.75-1.57-1.21-3.42-1.21-5.42,0-.54.03-1.08.09-1.59,2.91-2.7,7.43.32,12.68-.28,1.12-.12,2.28-.2,3.45-.2h.06c1.17,0,2.33.07,3.45.2,2.79.32,5.37-.38,7.62-.71,1.41.19,2.85.34,4.29.43.27.15.53.32.77.55.06.52.09,1.05.09,1.59,0,2-.45,3.85-1.21,5.42Z"/>
      <g>
        <path d="M51.13,148.76c-.2.2-.33.32-.33.32,0,0,.11-.06.33-.32Z"/>
        <path d="M176.83,134.36s-3.99-2.76-5.88-16.56c-2.41-17.54,1.72-31.21-1.49-44.91-3.22-13.71-4.08-15.05-9.43-22.49-5.34-7.46-10.49-13.45-24.94-18.37-14.45-4.94-17.51-3.26-23.03-3.18-8.8.11-14.42,4.31-14.42,4.31,0,0-.82-3.09.52-7.26,1.34-4.17,2.42-6.14,2.42-6.14,0,0-3.52,5.47-4.28,6.85-3.12,5.66-2.14,7.92-2.14,7.92-2.94-1.66-15.52-6.73-15.52-6.73,0,0,4.28,2.68,4.81,5.07.54,2.39-28.4,13.51-32.42,43.92-2.95,22.34,1.78,34.8,4.51,39.84.92,7.07,2.8,15.12-.19,23.17-2.31,6.22-3.64,8.3-4.21,8.97,1.66-1.64,9.43-9.51,11.09-14.74,3.21-10.14,1.92-14.36,3-20.03.18-.94.35-2.15.51-3.51.41,2.29,1.1,4.66,2.19,7.03,1.7,3.68,3.88,6.26,3.88,6.26,0,0-3.37-7.67-2.72-15.78.42-5.08,3.44-5.87,10.14-24.5.5-1.39.85-2.99,1.09-4.68.34.97.75,1.86,1.25,2.64,5.04,7.81,12.36,10.4,12.36,10.4,0,0-7.98-6.23-8.08-17.26-.06-5.97,2.14-10.73,2.14-10.73,0,0-2.05,12.42,16.47,19.87,5.33,2.14,9.48.7,9.48.7,0,0-7.7-4.58-7.76-12.52,0,0,11.66,15.23,32.91,20.26,8.21,1.95,13.79,1.41,13.79,1.41,0,0,.85-1.81.59,6.59-.27,8.41-1.71,11.99-3.67,14.89-.79,1.17-3.23,3.35-3.23,3.35,0,0,6.15-2.31,10-10.23,1.93-3.98,1.99-8.96,1.88-11.34.18,2.95-.14,10.31-.74,19.72-1.15,17.69-6.58,25.46-6.58,25.46,0,0,5.99-5.19,9.81-15.54,2-5.41,2.3-9.42,2.3-11.42.34,3.48,2.32,12.65,13.57,19.3Z"/>
      </g>
      <path class="cls-12" d="M159.24,189.04v6.73h-5.08c-.58-1.38-1.2-2.67-1.86-3.87-.55-1.01-1.12-1.97-1.7-2.86h8.65Z"/>
      <path class="cls-12" d="M156.68,203.29h-3.81c-.03,1.34-.03,2.61-.03,3.84h-80.26c0-1.23-.02-2.5-.03-3.84h-4.33c.26-1,.52-1.97.81-2.89h86.83c.29.92.55,1.89.81,2.89Z"/>
      <path class="cls-12" d="M152.99,218.5h-80.6c.08-1.95.12-4.19.15-6.73h80.31c.02,2.53.06,4.78.14,6.73Z"/>
    </g>
  </g>
</svg>