<?xml version="1.0" encoding="UTF-8"?>
<svg id="Layer_2" data-name="Layer 2" xmlns="http://www.w3.org/2000/svg" xmlns:xlink="http://www.w3.org/1999/xlink" viewBox="0 0 223.66 224.1">
  <defs>
    <style>
      .cls-1 {
        fill: none;
      }

      .cls-2 {
        fill: #d6bb9c;
      }

      .cls-3 {
        fill: #462e1b;
      }

      .cls-4 {
        fill: #516682;
      }

      .cls-5 {
        fill: #8191b0;
      }

      .cls-6 {
        fill: #22241e;
      }

      .cls-7 {
        fill: #ba9d82;
      }

      .cls-8 {
        fill: #ccad8a;
      }

      .cls-9 {
        fill: #44361f;
      }

      .cls-10 {
        fill: #d7bd9d;
      }

      .cls-11 {
        fill: #667895;
      }

      .cls-12 {
        fill: #fff;
      }

      .cls-13 {
        fill: #dcc5a0;
      }

      .cls-14 {
        fill: #272213;
      }

      .cls-15 {
        fill: #b8987d;
      }

      .cls-16 {
        fill: #884139;
      }

      .cls-17 {
        fill: #ebd9b5;
      }

      .cls-18 {
        fill: #a98d76;
      }

      .cls-19 {
        fill: #714223;
      }

      .cls-20 {
        fill: #b7967d;
      }

      .cls-21 {
        clip-path: url(#clippath);
      }

      .cls-22 {
        fill: #d2bb9b;
      }

      .cls-23 {
        fill: #b5957e;
      }
    </style>
    <clipPath id="clippath">
      <rect class="cls-1" x="104.03" y="155.32" width="25.12" height="14.81"/>
    </clipPath>
  </defs>
  <g id="Layer_1-2" data-name="Layer 1">
    <g>
      <rect class="cls-16" width="223.66" height="224.1"/>
      <path class="cls-9" d="M102.57,56.2l-.2.2.03.07c.07-.1.1-.2.17-.27Z"/>
      <path class="cls-13" d="M116.49,140.11v83.81h-45.32c-.74-.31-1.11-.45-1.11-.45,0-7.68.8-14.13,2.15-19.57.52-2.15,1.14-4.15,1.81-5.97,1.58-4.32,3.52-7.82,5.61-10.66,5.53-7.53,12.06-10.44,15.59-11.53,1.6-.49,2.58-.61,2.58-.61.17,0,.32-.02.49-.05.78-.12,1.47-.55,2.1-1.23.52-.57.98-1.31,1.41-2.21.69-1.47,1.27-3.35,1.74-5.51.2-.84.34-1.7.49-2.63.22-1.55.43-3.16.63-4.87.06-1.03.17-2.03.29-3.1.4-5.13.51-10.74.51-16.05,0,0,6.1.63,11.03.63Z"/>
      <path class="cls-17" d="M163.12,223.47s-.4.14-1.08.45h-45.55v-83.81h.12c4.9,0,11.06-.63,11.06-.63,0,5.28.11,10.81.52,15.94.11,1,.21,2.03.29,3.03.18,1.77.41,3.44.66,4.99v.03c.08.71.21,1.32.34,2,.45,2.18.98,4.09,1.64,5.62.45,1.04.94,1.92,1.52,2.58.45.55.94.97,1.49,1.2.38.18.78.26,1.21.26,0,0,1.74.21,4.36,1.24,5.33,2.09,14.3,7.57,19.44,21.56.68,1.83,1.29,3.82,1.81,5.97,1.35,5.44,2.15,11.89,2.15,19.57Z"/>
      <g class="cls-21">
        <path class="cls-7" d="M129.15,163.27v.04c-1.14,1.76-4.98,6.82-12.58,6.82h-.07c-7.19-.04-11.4-5.24-12.47-6.78.22-1.54.44-3.15.63-4.84.07-.99.18-2.02.3-3.08,3.5.88,7.34,1.43,11.4,1.5h.15c4.2-.07,8.08-.66,11.69-1.61.11.99.22,2.02.3,3.01.18,1.76.41,3.41.66,4.95"/>
      </g>
      <path class="cls-8" d="M115.98,44.6c-48.02,0-48.28,40.14-46.14,66.43-3.28-6.23-13.06-4.33-12.25,5.5.77,9.46,14.74,14.28,14.35,13.23,7.27,19.44,26.52,34.09,44.04,34.09h.37V44.6h-.37"/>
      <path class="cls-18" d="M60.65,112.39c2.36-3.81,6.05-2.16,6.93-1.32.96.92,1.73,2.09,1.14,4.33-.33,1.28-1.66,1.39-1.36,3.3.37,2.16,1.36,2.27,1.95,2.79.55.48,1.25.84,1.59,1.76.37.92.41,1.87.22,2.71-.37,1.54-2.62.29-4.13-.37-1-.48-4.17-3.15-4.98-4.03-1.99-2.27-2.95-6.67-1.36-9.17"/>
      <path class="cls-10" d="M116.24,44.6c48.02,0,48.28,40.14,46.18,66.43,3.28-6.23,13.02-4.33,12.21,5.5-.74,9.46-14.73,14.28-14.35,13.23-7.08,19.44-26.52,34.09-44.04,34.09h-.26l-.11-119.26h.37"/>
      <path class="cls-18" d="M171.57,112.39c-2.36-3.81-6.01-2.16-6.93-1.32-.96.92-1.7,2.09-1.14,4.33.33,1.28,1.66,1.39,1.36,3.3-.37,2.16-1.36,2.27-1.92,2.79-.55.48-1.29.84-1.62,1.76-.33.92-.41,1.87-.22,2.71.37,1.54,2.62.29,4.13-.37,1.03-.48,4.17-3.15,4.98-4.03,2.03-2.27,2.95-6.67,1.36-9.17"/>
      <path class="cls-13" d="M115.6,55.93c-15.79,0-27.37,4.58-34.34,13.6-9.77,12.65-9.41,31.93-5.83,45.79,1.11,4.25,1.7,15.65,2.43,19.83,3.43,18.73,24.12,28.71,37.73,28.71h.37V55.93h-.22"/>
      <path class="cls-17" d="M149.91,69.57c-6.93-8.98-18.37-13.56-33.93-13.64v107.93c15.57-.18,34.19-11.11,37.37-28.71.77-4.18,1.33-15.58,2.43-19.83,3.61-13.82,3.98-33.07-5.86-45.75"/>
      <path class="cls-1" d="M114.05,144.84c-.22-.04-.42-.08-.59-.11.2.04.4.08.59.11Z"/>
      <path class="cls-1" d="M113.23,144.68c-.14-.03-.27-.06-.36-.08.12.03.24.05.36.08Z"/>
      <path class="cls-20" d="M113.45,144.73c-.08-.02-.15-.03-.23-.05.07.02.14.03.23.05Z"/>
      <path class="cls-20" d="M112.87,144.6c-.07-.02-.13-.04-.2-.06h0s.08.02.21.06Z"/>
      <path class="cls-1" d="M72.92,89.57c-.43,1.43-.73,2.99-.93,4.66,0,0,.63-2.63,2.03-6.52-.6.83-1,1.5-1.1,1.86Z"/>
      <path class="cls-1" d="M114.19,142.65c-.22-.04-.43-.08-.61-.12.21.04.41.09.61.12Z"/>
      <path class="cls-1" d="M113.35,142.49c-.14-.03-.28-.06-.37-.08.12.03.24.06.37.08Z"/>
      <path class="cls-23" d="M113.59,142.54c-.08-.02-.15-.03-.23-.05.08.02.14.03.23.05Z"/>
      <path class="cls-23" d="M112.98,142.4c-.07-.02-.14-.04-.21-.06h0s.08.02.21.06Z"/>
      <path class="cls-2" d="M107.72,128.83c-.19-3.83,7.04-1.4,9.42-1.28,1.88.1,7.61-1.21,8.1-.87,3.37,2.27-3.57,6.85-8.22,6.85-1.24,0-9.19-2.38-9.3-4.69Z"/>
      <path class="cls-1" d="M114.29,144.43c-.22-.04-.43-.08-.61-.12.21.04.41.09.61.12Z"/>
      <path class="cls-1" d="M113.45,144.26c-.14-.03-.28-.06-.37-.08.12.03.24.06.37.08Z"/>
      <path class="cls-23" d="M113.68,144.31c-.08-.02-.15-.03-.23-.05.08.02.14.03.23.05Z"/>
      <path class="cls-23" d="M113.08,144.18c-.07-.02-.14-.04-.21-.06h0s.08.02.21.06Z"/>
      <path class="cls-1" d="M114.06,144.01c-.24-.04-.46-.08-.65-.12.22.05.44.09.65.12Z"/>
      <path class="cls-1" d="M113.15,143.83c-.15-.03-.3-.07-.4-.09.13.03.26.06.4.09Z"/>
      <path class="cls-20" d="M113.4,143.89c-.08-.02-.17-.03-.25-.05.08.02.15.03.25.05Z"/>
      <path class="cls-20" d="M112.76,143.74c-.08-.02-.15-.04-.22-.06h0s.09.03.23.06Z"/>
      <path class="cls-1" d="M113.87,143.38c-.24-.04-.46-.08-.65-.12.22.05.44.09.65.12Z"/>
      <path class="cls-1" d="M112.97,143.2c-.15-.03-.3-.07-.4-.09.13.03.26.06.4.09Z"/>
      <path class="cls-20" d="M113.22,143.26c-.08-.02-.17-.03-.25-.05.08.02.15.03.25.05Z"/>
      <path class="cls-20" d="M112.57,143.11c-.08-.02-.15-.04-.22-.06h0s.09.03.23.06Z"/>
      <path class="cls-1" d="M114.42,143.29c-.23-.04-.44-.08-.63-.12.21.05.42.09.63.12Z"/>
      <path class="cls-1" d="M113.55,143.12c-.14-.03-.29-.06-.38-.09.13.03.25.06.38.09Z"/>
      <path class="cls-20" d="M113.79,143.17c-.08-.02-.16-.03-.24-.05.08.02.15.03.24.05Z"/>
      <path class="cls-20" d="M113.17,143.03c-.07-.02-.14-.04-.21-.06h0s.08.03.22.06Z"/>
      <path class="cls-1" d="M112.07,149.67c-.22-.04-.43-.08-.61-.12.21.04.4.08.61.12Z"/>
      <path class="cls-1" d="M111.23,149.51c-.14-.03-.28-.06-.37-.08.12.03.24.06.37.08Z"/>
      <path class="cls-15" d="M111.46,149.56c-.08-.02-.15-.03-.23-.05.08.02.14.03.23.05Z"/>
      <path class="cls-15" d="M110.87,149.42c-.07-.02-.14-.04-.21-.06h0s.08.02.21.06Z"/>
      <path class="cls-1" d="M111.9,149.09c-.22-.04-.43-.08-.61-.12.21.04.4.08.61.12Z"/>
      <path class="cls-1" d="M111.06,148.92c-.14-.03-.28-.06-.37-.08.12.03.24.06.37.08Z"/>
      <path class="cls-15" d="M111.29,148.97c-.08-.02-.15-.03-.23-.05.08.02.14.03.23.05Z"/>
      <path class="cls-15" d="M110.69,148.84c-.07-.02-.14-.04-.21-.06h0s.08.02.21.06Z"/>
      <path class="cls-1" d="M112.41,149.01c-.22-.04-.41-.08-.59-.11.2.04.39.08.59.11Z"/>
      <path class="cls-1" d="M111.6,148.85c-.13-.03-.27-.06-.35-.08.12.03.23.05.35.08Z"/>
      <path class="cls-15" d="M111.82,148.89c-.07-.02-.15-.03-.22-.05.07.02.14.03.22.05Z"/>
      <path class="cls-15" d="M111.25,148.76c-.07-.02-.13-.04-.2-.06h0s.08.02.21.06Z"/>
      <path class="cls-12" d="M81.52,97.76s3.66,15.08,9.95,16.31c6.29,1.23,13.1-1.22,13.1-1.22,0,0,.65-17.72-2.57-20.03-3.22-2.33-10.64-5.69-20.48,4.94Z"/>
      <path class="cls-22" d="M104.58,112.81s-.14.04-.47.18c-.08-5.43-.58-12.9-2.59-14.33-2.99-2.2-9.74-5.29-18.76,3.17-.82-2.34-1.23-4.11-1.23-4.11,9.86-10.65,17.29-7.29,20.48-4.97,3.22,2.32,2.57,20.06,2.57,20.06Z"/>
      <ellipse class="cls-3" cx="94.67" cy="105.13" rx="6.19" ry="6.21"/>
      <path class="cls-19" d="M94.38,109.26c-1.79-.15-3.16-1.96-3-3.95.16-1.99,1.81-3.55,3.6-3.4,1.79.15,3.16,1.96,3,3.94-.16,1.99-1.81,3.55-3.6,3.4Z"/>
      <path class="cls-14" d="M94.53,108.55c-1.24-.11-2.54-1.48-2.4-3.16.14-1.69,1.63-2.83,2.88-2.73,1.25.11,2.53,1.48,2.4,3.17-.14,1.69-1.63,2.83-2.88,2.73Z"/>
      <path class="cls-12" d="M93.53,101.31c-.05.61-.68,1.06-1.39,1-.72-.06-1.26-.61-1.21-1.21.05-.61.67-1.06,1.39-1,.72.06,1.26.6,1.21,1.22Z"/>
      <path class="cls-12" d="M97.54,107.91c-.03.3-.34.53-.69.5-.36-.03-.63-.3-.61-.61.03-.3.34-.53.69-.5.36.03.63.3.61.61Z"/>
      <path class="cls-12" d="M150.8,97.25s-3.66,15.08-9.95,16.31c-6.29,1.23-13.1-1.22-13.1-1.22,0,0-.65-17.72,2.57-20.03,3.22-2.33,10.64-5.69,20.48,4.94Z"/>
      <path class="cls-22" d="M127.74,112.29s.14.04.47.18c.08-5.43.58-12.9,2.59-14.33,2.99-2.2,9.74-5.29,18.76,3.17.82-2.34,1.23-4.11,1.23-4.11-9.86-10.65-17.29-7.29-20.48-4.97-3.22,2.32-2.57,20.06-2.57,20.06Z"/>
      <path class="cls-3" d="M131.47,104.61c0,3.43,2.77,6.21,6.19,6.21s6.19-2.78,6.19-6.21-2.77-6.21-6.19-6.21-6.19,2.78-6.19,6.21Z"/>
      <path class="cls-19" d="M137.94,108.75c1.79-.15,3.16-1.96,3-3.95-.16-1.99-1.81-3.55-3.6-3.4-1.79.15-3.16,1.96-3,3.94.16,1.99,1.81,3.55,3.6,3.4Z"/>
      <path class="cls-14" d="M137.79,108.03c1.24-.11,2.54-1.48,2.4-3.16-.14-1.69-1.63-2.83-2.88-2.73-1.24.11-2.53,1.48-2.4,3.17.14,1.69,1.63,2.83,2.88,2.73Z"/>
      <path class="cls-12" d="M138.8,103.87c.05.61.68,1.06,1.39,1,.72-.06,1.26-.61,1.21-1.21-.05-.61-.67-1.06-1.39-1-.72.06-1.26.6-1.21,1.22Z"/>
      <path class="cls-12" d="M134.78,107.4c.03.3.34.53.69.5.36-.03.63-.3.61-.61-.03-.3-.34-.53-.69-.5-.36.03-.63.3-.61.61Z"/>
      <g>
        <path d="M108.35,97.52c-.05-.07-1.19-1.81-3.52-3.61-1.46-1.13-2.89-1.98-4.38-2.62-1.81-.76-3.75-1.3-5.64-1.56-1.7-.19-3.59-.14-5.8.16-1.68.32-3.32.82-4.72,1.44-.99.34-1.78.83-2.41,1.21-.24.15-.46.28-.68.4l-3,1.9,3.46-.82c.16-.04.34-.09.52-.14.72-.19,1.61-.43,2.65-.58.24-.04.49-.09.75-.14.44-.09.89-.18,1.36-.2.52-.04,1.07-.07,1.63-.11l.73-.05c1.92-.02,3.54.12,4.98.45,1.57.27,3.19.78,4.67,1.47,1.4.67,2.74,1.34,3.79,2.11,2.12,1.42,3.29,2.6,3.3,2.61h0c.29.29.68.45,1.07.45.28,0,.57-.08.82-.25.7-.46.89-1.4.45-2.08l-.03-.05Z"/>
        <path d="M151.42,92.93c-.2-.11-.42-.24-.66-.39-.63-.39-1.41-.87-2.38-1.2-1.42-.63-3.06-1.13-4.77-1.45-2.19-.29-4.08-.35-5.79-.15-1.88.26-3.82.8-5.63,1.56-1.47.63-2.94,1.51-4.38,2.62-2.29,1.76-3.43,3.47-3.52,3.6l-.02.03c-.39.6-.3,1.4.2,1.9.28.29.66.45,1.07.45h0c.4,0,.78-.16,1.06-.45h.01c.11-.12,1.25-1.24,3.31-2.62,1.03-.76,2.37-1.43,3.77-2.1,1.49-.69,3.11-1.2,4.7-1.48,1.42-.33,3.04-.47,4.93-.45l.76.05c.55.04,1.09.08,1.62.11.46.02.92.11,1.35.2.25.05.5.1.75.14,1.05.15,1.94.39,2.65.58.19.05.36.1.53.14l3.46.82-3.03-1.91Z"/>
      </g>
      <path class="cls-11" d="M155.92,212.55c.06,4.93.23,8.74.38,11.2h-39.81v-40.58c1,.03,2.03-.03,3.07-.23,4.12-.77,8.59-3.42,13.09-9.28.45.55.94.97,1.49,1.2.38.18.78.26,1.21.26,0,0,1.74.22,4.36,1.24,1.54.6,3.38,1.49,5.34,2.76,4.84,3.19,10.44,8.85,14.1,18.8.68,1.83,1.29,3.82,1.81,5.97h-5.04c-.05,3.18-.05,6.07-.02,8.65Z"/>
      <path class="cls-5" d="M116.49,183.17v40.58h-39.73c.15-2.46.32-6.27.4-11.2.03-2.6.03-5.47,0-8.65h-4.95c.52-2.15,1.14-4.15,1.81-5.97,1.58-4.32,3.52-7.82,5.61-10.66,2.87-3.9,6.01-6.57,8.85-8.37v-.02c2.64-1.67,5.04-2.63,6.74-3.15,1.6-.49,2.58-.61,2.58-.61.17,0,.32-.02.49-.05.78-.12,1.47-.55,2.1-1.23,1.92,2.37,8.12,9.09,16.1,9.32Z"/>
      <path class="cls-4" d="M145.06,179.13c-10.37,11.1-20.15,14.71-28.57,14.61-16.66-.17-28.01-14.84-28.01-14.84v-.02c2.64-1.67,5.04-2.63,6.74-3.15,1.6-.49,2.58-.61,2.58-.61.17,0,.32-.02.49-.05.78-.12,1.47-.55,2.1-1.23,1.92,2.37,8.12,9.09,16.1,9.32,1,.03,2.03-.03,3.07-.23,4.12-.77,8.59-3.42,13.09-9.28.45.55.94.97,1.49,1.2.38.18.78.26,1.21.26,0,0,1.74.22,4.36,1.24,1.54.6,3.38,1.49,5.34,2.76Z"/>
      <path class="cls-6" d="M157.48,144.58l.43-.72c2.83-4.01,3.18-7.77,3.18-12.52,0-.8-.05-1.6-.11-2.38h-.34c-.41,0-.81.02-1.21.08-3.85.41-7.2,2.86-8.98,6.39-3.59,7.1-9.75,12.66-17.46,16.39.58-1.6.94-3.42.94-5.41,0-3.69-1.18-6.94-2.96-8.91-2.95-4.33-8.89-.66-15.79-.65-6.88-.02-12.82-3.69-15.77.65-1.8,1.97-2.96,5.22-2.96,8.91,0,1.98.35,3.81.94,5.41-7.73-3.73-13.87-9.29-17.46-16.39-1.7-3.36-4.81-5.74-8.43-6.31-.58-.11-1.17-.15-1.77-.15h-.38c-.03.78-.06,1.58-.06,2.38,0,4.75,1.58,9.23,4.41,13.24l-.81.15c-.03.86-.26,1.94-.71,4.09-.23,1.14-.55,2.1-.94,2.93.51.66,1,1.29,1.49,1.9.68-.4,1.23-.8,1.55-1.17.58-.66,2.03-2.37,2.72-3.16.08-.11.15-.18.22-.26.02.03.03.05.05.05-.05.11-.11.25-.17.43v.02c-.32,1-.71,3.1.15,6.67.89,3.62,3.58,6.48,5.33,8h.02c.83.74,1.43,1.17,1.54,1.23l.02.02s8.06,6.83,18.09,9.45c.05.03.09.03.12.05-.05-.11,1.18-2.1,2.13-4.13.74-1.6,2.67-2.2,4.22-1.37,3.24,1.74,8.57,3.47,14.19.63,1.87-.94,4.12.11,4.47,2.18.34,2.06.71,3.93.66,4.01.08,0,.2-.05.37-.15,1.87-.83,10.86-4.91,17.54-10.44.14-.11.28-.23.41-.34-.06.09-.09.12-.09.12,0,0,4.9-3.29,6.6-8.26.34-.88,1.11-1.55,1.18-2.44.49-3.15,1.69-1.74,1.43-2.3,2.86,3.23.81.34.63.05.49.54,1.54,1.18,2.67,1.78.35-.38.71-.78,1.06-1.2-.65-1.08-1.24-2.47-1.61-4.27-.46-2.15-.68-3.38-.72-4.24ZM128.3,152.46c-1.29.6-2.81,1.11-4.5,1.51.02-.05.03-.11.03-.17,0-1.64-3.85-2.96-8.66-3.01-4.79.05-8.65,1.37-8.65,3.01,0,.06.02.12.02.17-1.67-.4-3.19-.91-4.5-1.51-.74-1.74-1.18-3.81-1.18-6.05,0-.74.06-1.46.15-2.15,2.64-2.67,6.54.75,11.06.14,1.01-.14,2.04-.22,3.1-.22s2.1.08,3.12.22c4.52.61,8.42-2.81,11.06-.14.09.69.15,1.41.15,2.15,0,2.24-.45,4.32-1.2,6.05Z"/>
      <path class="cls-12" d="M175.31,139.29s2.06-8.88.98-17.45c-1.24,4.05-2.8,8.28-4.75,12.67-3.01,7.34-7.42,13.61-11.73,18.58-.35.41-.71.81-1.06,1.2-6.62,7.33-12.79,11.53-13.18,11.79.05-.05.17-.18.34-.4,1.35-1.57,6.08-7.31,8.39-13.05,1.89-4.7,4.62-12.44,5.13-23.59.06-1.21.09-2.46.09-3.75,0-8.42-5.56-18.11-9.6-24.02-1.37-2.03-2.56-3.59-3.29-4.53l-14.87-20.43-.66-.89c-21.1,7.34-27.12,23.85-28.86,32.48-.66,3.33-.69,5.5-.69,5.5,0,0-6.73-7.25-3.38-15.88-6.24,1.92-10.04,6.57-12.36,11.92-4.62,10.64-3.3,24-3.3,24,0,0-6.6-8.71-5.34-19.97,1.18-10.9,7.14-20.86,7.51-21.47-.61.74-13.64,16.6-13.64,29.47,0,2.72.15,5.25.43,7.63,1.03,9.17,3.72,15.8,5.39,19.95.03.09.06.17.11.26.03.08.05.14.09.22v.02c2.4,6.02,5.02,13.36,5.48,14.67h.02c.03.12.06.2.06.2,0,0-4.52-4.01-9.92-10.77-.49-.61-.98-1.24-1.49-1.9-4.71-6.17-9.84-14.27-13.12-23.5-2.01,9.68,1.74,21.52,1.92,22.1-16.6-20.24-7.97-62.6-7.97-62.6,0,0,.11.11.31.28.48-5.11,1.58-10.61,3.64-16.37,8.11-22.79,19.61-31.28,33.66-36.23,12.7-4.47,34.06-.43,38.04.38.05-.09.06-.15.06-.15,9.05-.28,15.93-2.2,26.85,7.14,5.34,4.56,9.68,9.17,12.76,13.58,0,0,6.33,7.03,10.12,20.06.17-.18.28-.29.28-.29,0,0,12.3,41.33-2.46,63.14Z"/>
    </g>
  </g>
</svg>