<?xml version="1.0" encoding="UTF-8"?>
<svg id="Layer_2" data-name="Layer 2" xmlns="http://www.w3.org/2000/svg" xmlns:xlink="http://www.w3.org/1999/xlink" viewBox="0 0 223.47 223.98">
  <defs>
    <style>
      .cls-1 {
        fill: none;
      }

      .cls-2 {
        fill: #462e1b;
      }

      .cls-3 {
        fill: #ba9d82;
      }

      .cls-4 {
        fill: #ccad8a;
      }

      .cls-5 {
        fill: #e9be00;
      }

      .cls-6 {
        fill: #dea000;
      }

      .cls-7 {
        fill: #44361f;
      }

      .cls-8 {
        fill: #9177ad;
      }

      .cls-9 {
        fill: #d7bd9d;
      }

      .cls-10 {
        fill: #c1a587;
      }

      .cls-11 {
        fill: #dac6a4;
      }

      .cls-12 {
        fill: #fff;
      }

      .cls-13 {
        fill: #dcc5a0;
      }

      .cls-14 {
        fill: #272213;
      }

      .cls-15 {
        fill: #ecdab6;
      }

      .cls-16 {
        fill: #3c3d39;
      }

      .cls-17 {
        fill: #b8987d;
      }

      .cls-18 {
        fill: #ebd9b5;
      }

      .cls-19 {
        fill: #a98d76;
      }

      .cls-20 {
        fill: #714223;
      }

      .cls-21 {
        fill: #b7967d;
      }

      .cls-22 {
        clip-path: url(#clippath);
      }

      .cls-23 {
        fill: #d2bb9b;
      }

      .cls-24 {
        fill: #b5957e;
      }
    </style>
    <clipPath id="clippath">
      <rect class="cls-1" x="102.45" y="155.04" width="25.12" height="14.86"/>
    </clipPath>
  </defs>
  <g id="Layer_1-2" data-name="Layer 1">
    <g>
      <rect class="cls-8" width="223.47" height="223.98"/>
      <path class="cls-16" d="M156.88,147.23c1.37,1.55,7.05,3.83,7.05,3.83,0,0-3.68-1.57-4.91-7.55-.46-2.17-.68-3.42-.72-4.29h-.45c2.87-4.07,4.47-8.62,4.47-13.42,0-3.83-1.02-7.49-2.88-10.88.15-.19-.32-.38-.14-.57h-4.46c-.17,7.78-2.02,15.48-7.28,20.59-3.61,3.51-7.91,2.64-10.81,1.5,1.83-.64,3.73-1.55,4.47-3.34.27-.64,1.27-5.89-.82-2.66-.76,1.17-.54,2.6-4.84,3.03h0s-.07.01-.18.02c-.42.04-.86.06-1.36.05,0,0-.6,0-1.36-.11-4.06-.32-8.29-8.42-17.31-8.42-9.03,0-13.26,8.1-17.31,8.42-.76.12-1.36.11-1.36.11-.5,0-.94-.01-1.36-.05-.11,0-.18-.01-.18-.01h0c-4.3-.44-4.09-1.87-4.84-3.04-2.09-3.23-1.09,2.01-.82,2.66.74,1.79,2.64,2.69,4.47,3.34-2.9,1.14-7.2,2.01-10.81-1.5-5.26-5.11-7.11-12.82-7.28-20.59h-4.46c.17.19-.29.37-.14.57-1.86,3.39-2.88,7.06-2.88,10.88,0,4.8,1.6,9.35,4.47,13.42h-.45c-.04.88-.26,2.12-.72,4.29-1.23,5.99-4.91,7.55-4.91,7.55,0,0,5.68-2.28,7.05-3.83.66-.75,2.42-2.81,2.96-3.46.02.01.04.03.06.05-.31.69-1.06,2.91-.01,7.2.14.56.33,1.09.54,1.6,0,0,1.19,3.31,3.91,6.88.41.55.86,1.1,1.35,1.64.41.51.85,1.06,1.32,1.64,18.16,22.32,53.62,19.69,67.24-5.66.35-.66.7-1.33,1.03-2.02.77-1.49,1.13-2.48,1.13-2.48.21-.52.4-1.04.54-1.6,1.04-4.28.3-6.5-.01-7.2.02-.01.04-.03.06-.05.54.65,2.3,2.71,2.96,3.46Z"/>
      <path class="cls-13" d="M114.9,139.79v84.05h-45.32c-.75-.29-1.09-.45-1.09-.45,0-4.01.22-7.69.61-11.07.4-3.29.95-6.3,1.64-9.03.51-1.97,1.08-3.81,1.69-5.51,3.12-8.52,7.63-13.9,11.92-17.28.18-.14.35-.28.54-.41,3.42-2.58,6.62-3.9,8.75-4.56,1.57-.49,2.56-.61,2.56-.61h.05c.17,0,.29-.02.45-.05h.02c.38-.06.75-.2,1.11-.41.94-.55,1.74-1.6,2.41-3.04.69-1.47,1.27-3.35,1.74-5.53.18-.84.32-1.7.49-2.63.22-1.57.41-3.18.6-4.88.09-1.04.18-2.04.31-3.12.4-5.14.52-10.77.52-16.1,0,0,6.08.63,11.01.63Z"/>
      <path class="cls-18" d="M161.52,223.39s-.4.15-1.08.45h-45.55v-84.05h.12c4.91,0,11.07-.63,11.07-.63,0,5.28.09,10.84.51,15.99.12,1,.23,2.03.29,3.04.18,1.77.41,3.44.66,4.99v.03c.08.71.23,1.34.35,2,.43,2.2.97,4.12,1.64,5.67.58,1.4,1.27,2.49,2.07,3.18.29.26.6.46.92.6.15.06.31.12.48.17.23.06.49.09.75.09,0,0,.25.03.68.12h.02c.74.15,2.01.48,3.64,1.12,1.9.74,4.24,1.9,6.7,3.72.09.08.2.14.29.22v.02c4.44,3.33,9.23,8.8,12.49,17.68.63,1.7,1.18,3.55,1.69,5.51.68,2.69,1.23,5.65,1.63,8.88.4,3.42.63,7.16.63,11.23Z"/>
      <g class="cls-22">
        <path class="cls-3" d="M127.56,163.02v.04c-1.14,1.77-4.98,6.84-12.58,6.84h-.07c-7.19-.04-11.4-5.26-12.47-6.8.22-1.54.44-3.16.63-4.85.07-.99.18-2.02.3-3.09,3.5.88,7.34,1.43,11.4,1.51h.15c4.2-.07,8.08-.66,11.69-1.62.11.99.22,2.02.3,3.02.18,1.77.41,3.42.66,4.96"/>
      </g>
      <path class="cls-4" d="M114.4,43.97c-48.02,0-48.28,40.27-46.14,66.64-3.28-6.25-13.06-4.34-12.25,5.52.77,9.49,14.74,14.32,14.35,13.28,7.27,19.5,26.52,34.2,44.04,34.2h.37V43.97h-.37"/>
      <path class="cls-19" d="M59.07,111.97c2.36-3.82,6.05-2.17,6.93-1.32.96.92,1.73,2.1,1.14,4.34-.33,1.29-1.66,1.4-1.36,3.31.37,2.17,1.36,2.28,1.95,2.79.55.48,1.25.85,1.59,1.77.37.92.41,1.88.22,2.72-.37,1.54-2.62.29-4.13-.37-1-.48-4.17-3.16-4.98-4.05-1.99-2.28-2.95-6.69-1.36-9.19"/>
      <path class="cls-9" d="M114.65,43.97c48.02,0,48.28,40.27,46.18,66.64,3.28-6.25,13.02-4.34,12.21,5.52-.74,9.49-14.73,14.33-14.35,13.28-7.08,19.5-26.52,34.2-44.04,34.2h-.26l-.11-119.63h.37"/>
      <path class="cls-19" d="M169.98,111.97c-2.36-3.82-6.01-2.17-6.93-1.32-.96.92-1.7,2.1-1.14,4.34.33,1.29,1.66,1.4,1.36,3.31-.37,2.17-1.36,2.28-1.92,2.79-.55.48-1.29.85-1.62,1.77-.33.92-.41,1.88-.22,2.72.37,1.54,2.62.29,4.13-.37,1.03-.48,4.17-3.16,4.98-4.05,2.03-2.28,2.95-6.69,1.36-9.19"/>
      <path class="cls-13" d="M114.02,55.34c-15.79,0-27.37,4.6-34.34,13.64-9.77,12.69-9.41,32.03-5.83,45.93,1.11,4.27,1.7,15.7,2.43,19.9,3.43,18.79,24.12,28.8,37.73,28.8h.37V55.34h-.22"/>
      <path class="cls-18" d="M148.32,69.02c-6.93-9.01-18.37-13.61-33.93-13.68v108.27c15.57-.18,34.19-11.14,37.37-28.8.77-4.19,1.33-15.63,2.43-19.9,3.61-13.86,3.98-33.17-5.86-45.9"/>
      <path class="cls-1" d="M112.46,140.47c-.22-.04-.42-.08-.59-.11.2.04.4.08.59.11Z"/>
      <path class="cls-1" d="M111.64,144.37c-.14-.03-.27-.06-.36-.08.12.03.24.05.36.08Z"/>
      <path class="cls-21" d="M111.87,144.41c-.08-.02-.15-.03-.23-.05.07.02.14.03.23.05Z"/>
      <path class="cls-21" d="M111.28,144.28c-.07-.02-.13-.04-.2-.06h0s.08.02.21.06Z"/>
      <path class="cls-9" d="M105.22,131.14c-.18-3.74,6.85-1.37,9.17-1.25,1.83.09,7.41-1.18,7.89-.85,3.28,2.22-3.47,6.69-8,6.69-1.21,0-8.94-2.33-9.05-4.58Z"/>
      <path class="cls-1" d="M71.33,89.09c-.43,1.44-.73,3-.93,4.67,0,0,.63-2.64,2.03-6.54-.6.83-1,1.5-1.1,1.87Z"/>
      <path class="cls-7" d="M100.98,55.61l-.2.2.03.07c.07-.1.1-.2.17-.27Z"/>
      <path class="cls-1" d="M112.61,142.33c-.22-.04-.43-.08-.61-.12.21.04.41.09.61.12Z"/>
      <path class="cls-1" d="M111.77,142.17c-.14-.03-.28-.06-.37-.09.12.03.24.06.37.09Z"/>
      <path class="cls-24" d="M112,142.22c-.08-.02-.15-.03-.23-.05.08.02.14.03.23.05Z"/>
      <path class="cls-24" d="M111.4,142.08c-.07-.02-.14-.04-.21-.06h0s.08.02.21.06Z"/>
      <path class="cls-12" d="M79.94,97.6s3.66,15.08,9.95,16.31c6.29,1.23,13.1-1.22,13.1-1.22,0,0,.65-17.72-2.57-20.03-3.22-2.33-10.64-5.69-20.48,4.94Z"/>
      <path class="cls-23" d="M103,112.64s-.14.04-.47.18c-.08-5.43-.58-12.9-2.59-14.33-2.99-2.2-9.74-5.29-18.76,3.17-.82-2.34-1.23-4.11-1.23-4.11,9.86-10.65,17.29-7.29,20.48-4.97,3.22,2.32,2.57,20.06,2.57,20.06Z"/>
      <path class="cls-2" d="M99.27,104.96c0,3.43-2.77,6.21-6.19,6.21s-6.19-2.78-6.19-6.21,2.77-6.21,6.19-6.21,6.19,2.78,6.19,6.21Z"/>
      <path class="cls-20" d="M92.79,109.1c-1.79-.15-3.16-1.96-3-3.95.16-1.99,1.81-3.55,3.6-3.4,1.79.15,3.16,1.96,3,3.94-.16,1.99-1.81,3.55-3.6,3.4Z"/>
      <path class="cls-14" d="M92.95,108.38c-1.24-.11-2.54-1.48-2.4-3.16.14-1.69,1.63-2.83,2.88-2.73,1.25.11,2.53,1.48,2.4,3.17-.14,1.69-1.63,2.83-2.88,2.73Z"/>
      <path class="cls-12" d="M91.94,104.22c-.05.61-.68,1.06-1.39,1-.72-.06-1.26-.61-1.21-1.21.05-.61.67-1.06,1.39-1,.72.06,1.26.6,1.21,1.22Z"/>
      <path class="cls-12" d="M95.95,107.75c-.03.3-.34.53-.69.5-.36-.03-.63-.3-.61-.61.03-.3.34-.53.69-.5.36.03.63.3.61.61Z"/>
      <path class="cls-1" d="M112.71,144.11c-.22-.04-.43-.08-.61-.12.21.04.41.09.61.12Z"/>
      <path class="cls-1" d="M111.87,143.95c-.14-.03-.28-.06-.37-.09.12.03.24.06.37.09Z"/>
      <path class="cls-24" d="M112.1,144c-.08-.02-.15-.03-.23-.05.08.02.14.03.23.05Z"/>
      <path class="cls-24" d="M111.5,143.86c-.07-.02-.14-.04-.21-.06h0s.08.03.21.06Z"/>
      <path class="cls-1" d="M112.47,143.69c-.24-.04-.46-.08-.65-.13.22.05.44.09.65.13Z"/>
      <path class="cls-1" d="M111.57,143.52c-.15-.03-.3-.07-.4-.09.13.03.26.06.4.09Z"/>
      <path class="cls-21" d="M111.82,143.57c-.08-.02-.17-.03-.25-.05.08.02.15.03.25.05Z"/>
      <path class="cls-21" d="M111.17,143.43c-.08-.02-.15-.04-.22-.06h0s.09.03.23.06Z"/>
      <path class="cls-1" d="M112.28,143.06c-.24-.04-.46-.08-.65-.12.22.05.44.09.65.12Z"/>
      <path class="cls-1" d="M111.38,142.89c-.15-.03-.3-.07-.4-.09.13.03.26.06.4.09Z"/>
      <path class="cls-21" d="M111.63,142.94c-.08-.02-.17-.03-.25-.05.08.02.15.03.25.05Z"/>
      <path class="cls-21" d="M110.99,142.79c-.08-.02-.15-.04-.22-.06h0s.09.03.23.06Z"/>
      <path class="cls-1" d="M112.84,142.97c-.23-.04-.44-.08-.63-.12.21.05.42.09.63.12Z"/>
      <path class="cls-1" d="M111.97,142.8c-.14-.03-.29-.06-.38-.09.13.03.25.06.38.09Z"/>
      <path class="cls-21" d="M112.21,142.85c-.08-.02-.16-.03-.24-.05.08.02.15.03.24.05Z"/>
      <path class="cls-21" d="M111.58,142.71c-.07-.02-.14-.04-.21-.06h0s.08.03.22.06Z"/>
      <path class="cls-12" d="M149.22,97.08s-3.66,15.08-9.95,16.31c-6.29,1.23-13.1-1.22-13.1-1.22,0,0-.65-17.72,2.57-20.03,3.22-2.33,10.64-5.69,20.48,4.94Z"/>
      <path class="cls-23" d="M126.16,112.13s.14.04.47.18c.08-5.43.58-12.9,2.59-14.33,2.99-2.2,9.74-5.29,18.76,3.17.82-2.34,1.23-4.11,1.23-4.11-9.86-10.65-17.29-7.29-20.48-4.97-3.22,2.32-2.57,20.06-2.57,20.06Z"/>
      <path class="cls-2" d="M129.88,104.45c0,3.43,2.77,6.21,6.19,6.21s6.19-2.78,6.19-6.21-2.77-6.21-6.19-6.21-6.19,2.78-6.19,6.21Z"/>
      <path class="cls-20" d="M136.36,108.59c1.79-.15,3.16-1.96,3-3.95-.16-1.99-1.81-3.55-3.6-3.4-1.79.15-3.16,1.96-3,3.94.16,1.99,1.81,3.55,3.6,3.4Z"/>
      <path class="cls-14" d="M136.2,107.87c1.24-.11,2.54-1.48,2.4-3.16-.14-1.69-1.63-2.83-2.88-2.73-1.24.11-2.53,1.48-2.4,3.17.14,1.69,1.63,2.83,2.88,2.73Z"/>
      <path class="cls-12" d="M137.21,103.71c.05.61.68,1.06,1.39,1,.72-.06,1.26-.61,1.21-1.21-.05-.61-.67-1.06-1.39-1-.72.06-1.26.6-1.21,1.22Z"/>
      <path class="cls-12" d="M133.2,107.23c.03.3.34.53.69.5.36-.03.63-.3.61-.61-.03-.3-.34-.53-.69-.5-.36.03-.63.3-.61.61Z"/>
      <g>
        <path class="cls-16" d="M106.77,97.36c-.05-.07-1.19-1.81-3.52-3.61-1.46-1.13-2.89-1.98-4.38-2.62-1.81-.76-3.75-1.3-5.64-1.56-1.7-.19-3.59-.14-5.8.16-1.68.32-3.32.82-4.72,1.44-.99.34-1.78.83-2.41,1.21-.24.15-.46.28-.68.4l-3,1.89,3.46-.82c.16-.04.34-.09.52-.14.72-.19,1.61-.43,2.65-.58.24-.04.49-.09.75-.14.44-.09.89-.18,1.36-.2.52-.04,1.07-.07,1.63-.11l.73-.05c1.92-.02,3.54.12,4.98.45,1.57.27,3.19.78,4.67,1.47,1.4.67,2.74,1.34,3.79,2.11,2.12,1.42,3.29,2.6,3.3,2.61h0c.29.29.68.45,1.07.45.28,0,.57-.08.82-.25.7-.46.89-1.4.45-2.08l-.03-.05Z"/>
        <path class="cls-16" d="M149.83,92.77c-.2-.11-.42-.24-.66-.39-.63-.39-1.41-.87-2.38-1.2-1.42-.63-3.06-1.13-4.77-1.45-2.19-.29-4.08-.35-5.79-.15-1.88.26-3.82.8-5.63,1.56-1.47.63-2.94,1.51-4.38,2.62-2.29,1.76-3.43,3.47-3.52,3.6l-.02.03c-.39.6-.3,1.4.2,1.9.28.29.66.45,1.07.45h0c.4,0,.78-.16,1.06-.45h.01c.11-.12,1.25-1.24,3.31-2.62,1.03-.76,2.37-1.43,3.77-2.1,1.49-.69,3.11-1.2,4.7-1.48,1.42-.33,3.04-.47,4.93-.45l.76.05c.55.04,1.09.08,1.62.11.46.02.92.11,1.35.2.25.05.5.1.75.14,1.05.15,1.94.39,2.65.58.19.05.36.1.53.14l3.46.82-3.03-1.91Z"/>
      </g>
      <path class="cls-1" d="M111.65,145.9c-.23-.04-.45-.08-.64-.12.22.05.43.09.64.12Z"/>
      <path class="cls-1" d="M110.77,145.73c-.15-.03-.29-.07-.39-.09.13.03.26.06.39.09Z"/>
      <path class="cls-17" d="M111.01,145.78c-.08-.02-.16-.03-.24-.05.08.02.15.03.24.05Z"/>
      <path class="cls-17" d="M110.38,145.64c-.07-.02-.14-.04-.22-.06h0s.08.03.22.06Z"/>
      <path class="cls-15" d="M105.51,148.89c-.18-2.42,6.73.51,9,.58,1.81.06,7.25-.36,7.75-.55,3.8-1.43-.21,4.05-7.87,4.34-3.51.14-8.78-2.9-8.89-4.37Z"/>
      <path class="cls-11" d="M128.02,144.22c-1.88-.09-3.8,1.48-6.06,1.24-.09-.05-.14-.05-.23-.05-.52-.09-1.03,0-1.6.14-.7.15-1.41.43-2.07.66-1.13.37-2.4.66-3.71.56h0s-.05,0-.07,0-.05,0-.07,0h0c-1.31.09-2.58-.2-3.71-.57-.66-.23-1.37-.52-2.07-.66-.56-.14-1.08-.23-1.6-.14-.1,0-.14,0-.23.05-2.26.24-4.18-1.33-6.06-1.24-.52.05-1.27-.09-1.69-.09.09.05.19.09.29.14,5.35,2.62,9.96,7.52,15.08,7.36h.15c5.11.16,9.73-4.74,15.08-7.36.1-.05.19-.09.28-.14-.42,0-1.17.14-1.69.09Z"/>
      <path class="cls-10" d="M129.59,144.07h0s-5.44-2.1-9.31-.87c0,0-1.44.56-2.93.91-.91.35-2.01.46-3.07.41h0c-.81-.03-1.59-.14-2.22-.25-.21-.03-.42-.08-.64-.12-.09-.02-.16-.03-.24-.05-.13-.03-.26-.06-.39-.09-.14-.03-.22-.06-.22-.06h0c-1.24-.34-2.3-.75-2.3-.75-3.87-1.23-9.31.87-9.31.87h0c-.07.03-.12.06-.12.06.42,0,1.17.14,1.69.09,1.88-.09,3.8,1.48,6.06,1.24.09-.05.14-.05.23-.05.52-.09,1.03,0,1.6.14.7.15,1.41.43,2.07.66,1.13.37,2.4.66,3.71.56h0s.05,0,.07,0,.05,0,.07,0h0c1.31.09,2.58-.2,3.71-.57.66-.23,1.37-.52,2.07-.66.56-.14,1.08-.23,1.6-.14.1,0,.14,0,.23.05,2.26.24,4.18-1.33,6.06-1.24.52.05,1.27-.09,1.69-.09,0,0-.05-.02-.12-.06Z"/>
      <path class="cls-10" d="M105.14,145.35c.1.02,10.19,3.11,18.09.07l-.91-.61h-10.67l-6.51.55Z"/>
      <path class="cls-5" d="M150.54,223.84h-71.63c2.09-10.49,4.45-22.3,5.44-43.34.18-.14.35-.28.54-.41,3.42-2.58,6.62-3.9,8.75-4.56,1.57-.49,2.56-.61,2.56-.61h.05c.17,0,.29-.02.45-.05h.02c.38-.06.75-.2,1.11-.41,5.27,16.11,12.49,35.58,16.69,35.68h.02c.08,0,.14,0,.23-.05.05,0,.09-.02.14-.03,4.35-.98,11.55-20.3,16.72-36,.29.26.6.46.92.6.15.06.31.12.48.17.23.06.49.09.75.09,0,0,.25.03.68.12h.02c.74.15,2.01.48,3.64,1.12,1.9.74,4.24,1.9,6.7,3.72.09.08.2.14.29.22v.02c.98,21.33,3.35,33.16,5.45,43.74Z"/>
      <path class="cls-6" d="M81.65,208.75h-12s2.69-21.5,15.24-28.67l7.5,7.31c4.38,4.27,3.68,11.5-1.44,14.85l-9.3,6.51Z"/>
      <path class="cls-6" d="M147.74,208.51l12.57.05s-2.91-21.83-15.48-28.68l-7.47,7.25c-4.38,4.27-3.68,11.5,1.44,14.85l8.93,6.53Z"/>
      <path class="cls-16" d="M156.87,50.8c-11.33-10.8-23.29-19.02-23.29-19.02l-.07,6.88c-2.76-1.9-7.68-6.04-15.91-8.37-.62-.18-1.23-.34-1.82-.5v-.05c-.6.16-1.21.33-1.83.51-8.23,2.33-13.15,6.47-15.91,8.37l-.07-6.88s-11.96,8.22-23.29,19.02c-11.32,10.79-15.66,20.93-15.66,32.35s5.08,22.84,8.41,26.23c3.33,3.4,2.26,8.32,3.26,8.32,0,0,2.4.09,2.04-11.16,1.31-12.77,7.2-17.87,10.49-19.75,5.79-3.05,14.51-3.6,27.56,3.02v-.02c1.87,1.09,3.49,1.58,5.01,1.66v.05c1.52-.08,3.14-.57,5.02-1.66v.02c13.04-6.61,21.77-6.06,27.56-3.02,3.29,1.87,9.18,6.98,10.49,19.75-.36,11.25,2.04,11.16,2.04,11.16,1,0-.07-4.92,3.26-8.32,3.33-3.4,8.41-14.83,8.41-26.23s-4.34-21.56-15.66-32.35Z"/>
    </g>
  </g>
</svg>