<?xml version="1.0" encoding="UTF-8"?>
<svg id="Layer_2" data-name="Layer 2" xmlns="http://www.w3.org/2000/svg" xmlns:xlink="http://www.w3.org/1999/xlink" viewBox="0 0 299.36 299.7">
  <defs>
    <style>
      .cls-1 {
        fill: none;
      }

      .cls-2 {
        fill: #43331b;
      }

      .cls-3 {
        fill: #d6c09e;
      }

      .cls-4 {
        fill: #b5977b;
      }

      .cls-5 {
        fill: #6b6825;
      }

      .cls-6 {
        fill: #d7be9a;
      }

      .cls-7 {
        fill: #282211;
      }

      .cls-8 {
        fill: #635e1f;
      }

      .cls-9 {
        fill: #71391e;
      }

      .cls-10 {
        fill: #adb529;
      }

      .cls-11 {
        fill: #a4876f;
      }

      .cls-12 {
        fill: #858328;
      }

      .cls-13 {
        fill: #cf6810;
      }

      .cls-14 {
        fill: #fff;
      }

      .cls-15 {
        fill: #b19076;
      }

      .cls-16 {
        fill: #e8d2ae;
      }

      .cls-17 {
        fill: #355761;
      }

      .cls-18 {
        fill: #e9d3af;
      }

      .cls-19 {
        fill: #171500;
      }

      .cls-20 {
        fill: #b39176;
      }

      .cls-21 {
        fill: #bc9e80;
      }

      .cls-22 {
        fill: #af8f76;
      }

      .cls-23 {
        fill: #ceb495;
      }

      .cls-24 {
        fill: #452a16;
      }

      .cls-25 {
        fill: #d3b697;
      }

      .cls-26 {
        fill: #c7a784;
      }

      .cls-27 {
        clip-path: url(#clippath);
      }
    </style>
    <clipPath id="clippath">
      <rect class="cls-1" x="140.24" y="207.53" width="33.65" height="19.9"/>
    </clipPath>
  </defs>
  <g id="RÈteg_1" data-name="RÈteg 1">
    <g>
      <rect class="cls-17" width="299.36" height="299.7"/>
      <path class="cls-13" d="M226.38,197.17c-.73-3.75-1.08-5.88-1.15-7.38h-.7c2.42-3.73,4.26-7.71,5.46-11.85h0c.06-.21.11-.43.16-.65.46-1.66.81-3.35,1.06-5.07,4.04-25.2-6.81-58.07-6.81-58.07,1.09,7.98-9.97,11.8-11.72,20.97-1.38,7.27,6.81,20.12,5.26,25.41-1.46,4.94-2.68,8.49-3.1,9.67-5.6,13.64-15.6,24.8-28.18,31.69.84-2.66,1.34-5.68,1.34-8.91,0-1.43-.12-2.79-.29-4.13,1.24-.16,2.45-.37,3.56-.7,1.78-.37,3.4-1.05,4.8-2.11,2.88-2.19,4.81-6,5.11-12.08,0,0-7.42,13.77-19,1.58,0,0-13.3-18.81-25.06-11.28-11.73-7.53-25.04,11.28-25.04,11.28-11.55,12.18-19-1.58-19-1.58.21,4.36,1.12,7.37,2.74,9.65l.08.09s.3.33.73.77c.41.44,1.06,1.01,1.97,1.57,0,0,.02,0,.04.03.89.54,2.03,1.08,3.46,1.47,1.13.38,2.67.47,4.58.37-.27,1.61-.43,3.3-.43,5.06,0,3.23.49,6.25,1.34,8.91-12.58-6.89-22.58-18.05-28.18-31.69-.41-1.18-1.65-4.73-3.1-9.67-1.56-5.29,2.39-12.47,1-19.74-1.74-9.17,1.25-21.62-7.47-26.65,0,0-10.85,32.87-6.81,58.07.24,1.72.6,3.41,1.05,5.07.06.22.11.44.17.66h.02c1.2,4.14,3.04,8.11,5.46,11.84h-.71c-.06,1.5-.42,3.63-1.15,7.38-1.95,10.28-7.78,12.97-7.78,12.97,0,0,9-3.92,11.17-6.58,1.05-1.29,3.84-4.82,4.69-5.94.03.03.06.05.09.08-.5,1.19-1.68,5.01-.02,12.37,2.17,9.63,11.1,16.11,11.1,16.11,0,0-2.26-3.23-3.43-7.8-.46-1.79,1.88-2.95,2.98-1.46,1.19,1.63,2.81,3.59,4.98,5.92,8.3,8.94,18.6,18.52,19.95,18.64-.11-.28,7.02-5.43,6.91-9.22,6.34,1.97,10.52,10.67,17.4,10.67.4,0,.81-.02,1.22-.03h0c.4.01.81.03,1.22.03,6.87,0,12.3-10.89,18.65-12.86-.11,3.79,5.56,12.71,5.45,13,1.34-.12,11.86-11.3,20.16-20.24,2.17-2.33,3.79-4.29,4.98-5.92,1.1-1.49,3.44-.34,2.98,1.46-1.17,4.57-3.43,7.8-3.43,7.8,0,0,8.92-6.48,11.09-16.11,1.66-7.36.49-11.18-.02-12.37.03-.03.06-.05.09-.08.86,1.11,3.64,4.65,4.69,5.94,2.17,2.66,11.18,6.58,11.18,6.58,0,0-5.83-2.69-7.78-12.97Z"/>
      <path class="cls-6" d="M156.74,187.08v112.62h-60.71c-.99-.39-1.48-.6-1.48-.6,0-7.9.64-14.83,1.73-20.92.93-5,2.14-9.46,3.58-13.39,3.21-8.76,7.51-15.04,11.93-19.55,1.46-1.48,2.94-2.78,4.38-3.89,2.45-1.89,4.83-3.31,6.97-4.34,1.11-.56,2.16-1.01,3.13-1.36.33-.12.64-.25.95-.35.37-.12.7-.23,1.03-.33.93-.29,1.69-.49,2.26-.6.76-.19,1.19-.23,1.19-.23.23,0,.43-.02.66-.06,1.91-.31,3.46-1.98,4.71-4.63.93-1.98,1.71-4.51,2.32-7.41.25-1.15.45-2.28.66-3.54.29-2.08.58-4.26.84-6.54.08-1.38.23-2.72.39-4.16.53-6.89.68-14.44.68-21.58,0,0,8.17.84,14.77.84Z"/>
      <path class="cls-16" d="M219.21,299.1s-.53.21-1.44.6h-61.02v-112.62h.16c6.56,0,14.81-.84,14.81-.84,0,7.1.14,14.53.7,21.44.14,1.34.29,2.72.39,4.05.25,2.39.53,4.61.88,6.71v.04c.1.95.29,1.79.45,2.67.6,2.92,1.32,5.51,2.2,7.57,1.09,2.57,2.43,4.36,4.03,5.08.51.23,1.05.35,1.63.35,0,0,.29.04.8.14.84.16,2.28.49,4.14,1.17.29.1.58.21.88.33.16.06.33.12.49.21.43.16.86.37,1.32.58,2.26,1.03,4.86,2.49,7.57,4.55,1.03.76,2.06,1.63,3.11,2.57v.02c4.98,4.55,9.98,11.23,13.58,21.07,1.4,3.81,2.59,8.11,3.5,12.9,1.15,6.21,1.81,13.31,1.81,21.42Z"/>
      <g class="cls-27">
        <path class="cls-4" d="M173.89,218.22v.05c-1.53,2.36-6.67,9.16-16.85,9.16h-.1c-9.64-.05-15.27-7.05-16.7-9.11.3-2.07.59-4.24.84-6.5.1-1.33.25-2.71.4-4.14,4.69,1.18,9.83,1.92,15.27,2.02h.2c5.63-.1,10.82-.89,15.66-2.17.15,1.33.3,2.71.4,4.04.25,2.36.54,4.58.89,6.65"/>
      </g>
      <path class="cls-26" d="M156.25,58.74c-64.34,0-64.68,53.95-61.82,89.27-4.4-8.38-17.49-5.81-16.4,7.39,1.04,12.71,19.75,19.19,19.22,17.79,9.74,26.12,35.53,45.82,59,45.82h.49V58.74h-.49"/>
      <path class="cls-11" d="M82.13,149.84c3.16-5.12,8.1-2.91,9.29-1.77,1.28,1.23,2.32,2.81,1.53,5.81-.44,1.72-2.22,1.87-1.83,4.43.49,2.91,1.83,3.05,2.62,3.74.74.64,1.68,1.13,2.12,2.36.49,1.23.54,2.51.3,3.65-.49,2.07-3.51.39-5.53-.49-1.33-.64-5.58-4.24-6.67-5.42-2.67-3.05-3.95-8.97-1.83-12.32"/>
      <path class="cls-25" d="M156.6,58.74c64.34,0,64.68,53.95,61.87,89.27,4.4-8.38,17.44-5.81,16.36,7.39-.99,12.71-19.73,19.19-19.22,17.79-9.49,26.12-35.53,45.82-59,45.82h-.35l-.15-160.26h.49"/>
      <path class="cls-11" d="M230.72,149.84c-3.16-5.12-8.05-2.91-9.29-1.77-1.28,1.23-2.27,2.81-1.53,5.81.44,1.72,2.22,1.87,1.83,4.43-.49,2.91-1.83,3.05-2.57,3.74-.74.64-1.73,1.13-2.17,2.36-.44,1.23-.54,2.51-.3,3.65.49,2.07,3.51.39,5.53-.49,1.38-.64,5.58-4.24,6.67-5.42,2.72-3.05,3.95-8.97,1.83-12.32"/>
      <path class="cls-6" d="M155.74,73.97c-21.15,0-36.66,6.16-46,18.28-13.09,17-12.6,42.91-7.81,61.53,1.48,5.72,2.27,21.04,3.26,26.65,4.6,25.18,32.32,38.58,50.55,38.58h.49V73.97h-.3"/>
      <path class="cls-16" d="M201.7,92.29c-9.29-12.07-24.61-18.23-45.46-18.33v145.04c20.85-.25,45.81-14.93,50.06-38.58,1.04-5.62,1.78-20.94,3.26-26.65,4.84-18.57,5.34-44.44-7.86-61.48"/>
      <path class="cls-1" d="M153.66,188.01c-.29-.05-.56-.1-.79-.15.27.06.53.11.79.15Z"/>
      <path class="cls-1" d="M152.56,193.23c-.18-.04-.36-.08-.48-.11.16.04.32.07.48.11Z"/>
      <path class="cls-15" d="M152.86,193.29c-.1-.02-.2-.04-.3-.06.1.02.19.04.3.06Z"/>
      <path class="cls-15" d="M152.08,193.12c-.09-.02-.18-.05-.27-.08h0s.1.03.28.08Z"/>
      <path class="cls-25" d="M144.24,174.48c-.24-5.01,9.18-1.83,12.28-1.67,2.45.13,9.92-1.58,10.56-1.14,4.39,2.97-4.65,8.96-10.72,8.96-1.62,0-11.98-3.12-12.13-6.14Z"/>
      <path class="cls-1" d="M98.56,119.17c-.58,1.92-.98,4.02-1.25,6.26,0,0,.85-3.53,2.72-8.76-.8,1.12-1.34,2.01-1.47,2.5Z"/>
      <path class="cls-2" d="M138.28,74.33l-.27.27.04.09c.09-.13.13-.27.22-.36Z"/>
      <path class="cls-1" d="M153.86,190.51c-.3-.05-.57-.11-.82-.16.28.06.55.11.82.16Z"/>
      <path class="cls-1" d="M152.73,190.29c-.19-.04-.37-.08-.49-.11.16.04.33.07.49.11Z"/>
      <path class="cls-22" d="M153.04,190.35c-.1-.02-.21-.04-.31-.07.1.02.19.04.31.07Z"/>
      <path class="cls-22" d="M152.23,190.17c-.1-.02-.18-.05-.28-.08h-.01s.11.03.29.08Z"/>
      <path class="cls-14" d="M110.09,130.58s4.91,20.2,13.34,21.85c8.43,1.65,17.55-1.63,17.55-1.63,0,0,.87-23.74-3.44-26.84-4.31-3.12-14.25-7.62-27.44,6.62Z"/>
      <path class="cls-23" d="M140.98,150.73s-.19.06-.63.24c-.11-7.28-.78-17.28-3.47-19.2-4.01-2.94-13.05-7.08-25.14,4.24-1.1-3.13-1.65-5.5-1.65-5.5,13.21-14.26,23.16-9.77,27.44-6.65,4.32,3.11,3.45,26.87,3.45,26.87Z"/>
      <ellipse class="cls-24" cx="127.7" cy="140.45" rx="8.29" ry="8.32"/>
      <path class="cls-9" d="M127.31,145.99c-2.4-.2-4.23-2.62-4.02-5.29.21-2.66,2.42-4.75,4.82-4.55,2.4.2,4.23,2.62,4.02,5.28-.22,2.67-2.43,4.75-4.82,4.55Z"/>
      <path class="cls-7" d="M127.52,145.02c-1.67-.14-3.4-1.98-3.21-4.24.19-2.27,2.19-3.8,3.86-3.66,1.67.14,3.39,1.98,3.21,4.24-.18,2.26-2.19,3.79-3.85,3.65Z"/>
      <path class="cls-14" d="M126.17,139.45c-.07.82-.91,1.41-1.86,1.33-.96-.08-1.68-.81-1.62-1.62.07-.82.9-1.42,1.86-1.34.96.08,1.69.81,1.62,1.63Z"/>
      <path class="cls-14" d="M131.54,144.17c-.04.41-.45.71-.93.67-.48-.04-.84-.41-.81-.81.03-.41.45-.71.93-.67.48.04.85.4.81.81Z"/>
      <path class="cls-1" d="M153.99,192.89c-.3-.05-.57-.11-.82-.16.28.06.55.11.82.16Z"/>
      <path class="cls-1" d="M152.86,192.67c-.19-.04-.37-.08-.49-.11.16.04.33.07.49.11Z"/>
      <path class="cls-22" d="M153.17,192.73c-.1-.02-.21-.04-.31-.07.1.02.19.04.31.07Z"/>
      <path class="cls-22" d="M152.37,192.55c-.1-.02-.18-.05-.28-.08h-.01s.11.03.29.08Z"/>
      <path class="cls-1" d="M153.67,192.33c-.32-.06-.62-.11-.87-.17.3.06.58.12.87.17Z"/>
      <path class="cls-1" d="M152.46,192.09c-.2-.05-.4-.09-.53-.12.18.05.35.08.53.12Z"/>
      <path class="cls-15" d="M152.79,192.16c-.11-.02-.22-.05-.33-.07.11.02.21.04.33.07Z"/>
      <path class="cls-15" d="M151.93,191.97c-.1-.03-.2-.06-.3-.08h-.01s.11.04.31.08Z"/>
      <path class="cls-1" d="M153.42,191.49c-.32-.06-.62-.11-.88-.17.3.06.59.12.88.17Z"/>
      <path class="cls-1" d="M152.21,191.25c-.2-.05-.4-.09-.53-.12.18.05.35.08.53.12Z"/>
      <path class="cls-15" d="M152.55,191.32c-.11-.02-.22-.05-.33-.07.11.02.21.04.33.07Z"/>
      <path class="cls-15" d="M151.68,191.13c-.1-.03-.2-.06-.3-.08h-.01s.11.04.31.08Z"/>
      <path class="cls-1" d="M154.16,191.37c-.31-.05-.6-.11-.85-.16.29.06.57.12.85.16Z"/>
      <path class="cls-1" d="M152.99,191.14c-.19-.04-.39-.09-.51-.12.17.04.34.08.51.12Z"/>
      <path class="cls-15" d="M153.32,191.2c-.11-.02-.22-.04-.32-.07.11.02.2.04.32.07Z"/>
      <path class="cls-15" d="M152.48,191.02c-.1-.03-.19-.05-.29-.08h-.01s.11.03.3.08Z"/>
      <path class="cls-14" d="M202.9,129.89s-4.91,20.2-13.33,21.85c-8.43,1.65-17.55-1.63-17.55-1.63,0,0-.87-23.74,3.44-26.84,4.31-3.11,14.25-7.62,27.44,6.62Z"/>
      <path class="cls-23" d="M172,150.04s.19.06.63.24c.11-7.28.78-17.28,3.47-19.2,4.01-2.94,13.05-7.08,25.14,4.24,1.1-3.13,1.65-5.5,1.65-5.5-13.21-14.26-23.16-9.77-27.44-6.65-4.32,3.11-3.45,26.87-3.45,26.87Z"/>
      <path class="cls-24" d="M176.99,139.76c0,4.59,3.71,8.32,8.29,8.32s8.29-3.72,8.29-8.32-3.71-8.32-8.29-8.32-8.29,3.72-8.29,8.32Z"/>
      <path class="cls-9" d="M185.67,145.3c2.4-.2,4.23-2.62,4.02-5.29-.21-2.67-2.42-4.75-4.82-4.55-2.39.2-4.23,2.62-4.02,5.28.22,2.67,2.43,4.75,4.82,4.55Z"/>
      <path class="cls-7" d="M185.47,144.34c1.67-.14,3.4-1.98,3.21-4.24-.19-2.27-2.19-3.8-3.86-3.66-1.67.14-3.39,1.98-3.21,4.24.18,2.26,2.19,3.79,3.85,3.65Z"/>
      <path class="cls-14" d="M186.82,138.76c.07.82.9,1.41,1.86,1.33.96-.08,1.68-.81,1.62-1.62-.07-.82-.9-1.42-1.86-1.34-.96.08-1.69.81-1.62,1.63Z"/>
      <path class="cls-14" d="M181.44,143.49c.04.41.45.71.93.67.48-.04.84-.41.81-.81-.03-.41-.45-.71-.93-.67-.48.04-.85.4-.81.81Z"/>
      <path class="cls-1" d="M152.57,195.29c-.31-.05-.6-.11-.85-.16.29.06.57.12.85.16Z"/>
      <path class="cls-1" d="M151.39,195.06c-.2-.04-.39-.09-.52-.12.17.04.34.08.52.12Z"/>
      <path class="cls-20" d="M151.71,195.13c-.11-.02-.22-.04-.33-.07.11.02.2.04.33.07Z"/>
      <path class="cls-20" d="M150.87,194.94c-.1-.03-.19-.05-.29-.08h-.01s.11.03.3.08Z"/>
      <path class="cls-18" d="M144.35,199.29c-.24-3.25,9.02.68,12.06.77,2.43.08,9.71-.48,10.39-.74,5.09-1.91-.28,5.43-10.54,5.81-4.7.19-11.77-3.88-11.91-5.85Z"/>
      <path class="cls-3" d="M174.5,193.03c-2.51-.12-5.09,1.98-8.12,1.66-.12-.06-.18-.06-.31-.06-.69-.12-1.38,0-2.14.18-.94.2-1.89.58-2.77.89-1.51.49-3.21.89-4.97.75h0s-.06,0-.1,0-.06.01-.1.01h0c-1.75.12-3.45-.27-4.97-.76-.88-.31-1.83-.69-2.77-.89-.76-.18-1.44-.31-2.14-.18-.13,0-.19,0-.31.06-3.02.32-5.6-1.78-8.12-1.66-.7.06-1.7-.12-2.27-.12.12.06.25.12.38.19,7.17,3.5,13.35,10.07,20.2,9.86h.2c6.85.21,13.03-6.35,20.2-9.86.13-.06.26-.12.38-.19-.57,0-1.57.19-2.27.12Z"/>
      <path class="cls-21" d="M176.6,192.83h0s-7.29-2.82-12.47-1.16c0,0-1.93.75-3.93,1.21-1.22.47-2.69.61-4.11.56h0c-1.09-.04-2.13-.18-2.98-.33-.28-.04-.56-.1-.85-.16-.12-.03-.22-.05-.33-.07-.18-.04-.35-.07-.52-.12-.19-.05-.3-.08-.3-.08h.01c-1.66-.45-3.08-1.01-3.08-1.01-5.18-1.65-12.47,1.16-12.47,1.16h0c-.1.05-.16.08-.16.08.57,0,1.57.19,2.27.12,2.51-.12,5.09,1.98,8.12,1.66.12-.06.18-.06.31-.06.69-.12,1.38,0,2.14.18.94.2,1.89.58,2.77.89,1.51.49,3.21.89,4.97.75h0s.06,0,.1,0,.06.01.1.01h0c1.75.12,3.45-.27,4.97-.76.88-.31,1.83-.69,2.77-.89.76-.18,1.44-.31,2.14-.18.13,0,.19,0,.31.06,3.02.32,5.6-1.78,8.12-1.66.69.06,1.7-.12,2.27-.12,0,0-.06-.03-.16-.08Z"/>
      <path class="cls-21" d="M143.85,194.55c.13.03,13.65,4.16,24.23.09l-1.22-.82h-14.29l-8.72.73Z"/>
      <path class="cls-12" d="M138.5,245.19l-24.48,9.26c.93-3.66,1.69-7.94,2.16-13.11,2.45-1.89,4.81-3.31,6.97-4.34,1.11-.56,2.16-1.01,3.11-1.36.35-.12.64-.25.97-.35.37-.12.68-.23,1.03-.33.93-.29,1.69-.49,2.24-.6,2.24,3.21,5.02,7.08,8,10.82Z"/>
      <path class="cls-12" d="M199.18,253.63l-24.71-8.21c3.13-3.87,6.05-7.86,8.35-11.13.84.16,2.28.49,4.11,1.17.29.1.6.21.88.33.16.06.35.12.51.21.41.16.86.37,1.3.58,2.28,1.03,4.88,2.49,7.59,4.55.43,4.9,1.11,8.97,1.95,12.51Z"/>
      <path class="cls-10" d="M204.67,268.89h-95.94c1.81-4.05,3.76-8.44,5.29-14.44l24.48-9.26c6.28,7.94,13.39,15.45,17.92,15.49h.02c.1,0,.16,0,.29-.02,4.55-.29,11.54-7.55,17.74-15.25l24.71,8.21c1.54,6.42,3.6,11.01,5.49,15.27Z"/>
      <path class="cls-10" d="M102.64,299.7h108.12c-.25-4.09-.62-9.87-1-13.66h-106.11c-.38,3.79-.75,9.57-1,13.66Z"/>
      <path class="cls-5" d="M204.69,268.9h-95.97c-2.22,4.97-4.22,9.46-4.93,15.84-.05.4-.09.83-.14,1.3h106.11c-.05-.46-.09-.9-.14-1.3-.71-6.38-2.71-10.88-4.93-15.84Z"/>
      <g>
        <path class="cls-19" d="M146.03,132.31c-.06-.1-1.59-2.43-4.72-4.83-1.96-1.51-3.88-2.65-5.87-3.51-2.42-1.02-5.03-1.74-7.55-2.09-2.28-.25-4.81-.19-7.77.21-2.25.43-4.45,1.1-6.32,1.93-1.33.46-2.38,1.11-3.23,1.62-.32.2-.62.38-.91.54l-4.03,2.54,4.64-1.09c.22-.05.45-.12.7-.18.96-.26,2.15-.57,3.55-.78.33-.05.66-.11,1-.18.58-.12,1.19-.24,1.82-.27.7-.05,1.43-.1,2.18-.15l.97-.07c2.57-.03,4.74.16,6.67.61,2.11.36,4.27,1.05,6.26,1.97,1.87.9,3.67,1.79,5.08,2.83,2.83,1.9,4.41,3.48,4.43,3.49h0c.39.39.91.6,1.43.6.38,0,.76-.11,1.1-.33.93-.61,1.2-1.88.6-2.79l-.04-.06Z"/>
        <path class="cls-19" d="M203.72,126.17c-.27-.14-.56-.32-.88-.52-.84-.52-1.9-1.16-3.19-1.61-1.91-.84-4.1-1.51-6.39-1.95-2.93-.39-5.46-.46-7.75-.21-2.51.35-5.12,1.07-7.54,2.09-1.96.84-3.94,2.02-5.87,3.51-3.07,2.36-4.6,4.65-4.71,4.83l-.03.04c-.52.8-.41,1.87.26,2.55.38.39.89.6,1.43.6h0c.54,0,1.05-.21,1.43-.6l.02-.02c.15-.15,1.68-1.65,4.43-3.49,1.38-1.02,3.18-1.91,5.05-2.81,1.99-.93,4.16-1.61,6.29-1.98,1.9-.44,4.07-.63,6.61-.6l1.02.07c.74.05,1.46.1,2.17.15.62.03,1.23.15,1.81.27.34.07.67.13,1,.18,1.4.21,2.6.52,3.56.78.25.07.48.13.71.18l4.64,1.09-4.06-2.56Z"/>
      </g>
      <path class="cls-13" d="M93.53,146.6l9.16,11.23s-5.73-19.57,6.04-25.7l-15.92-7.94.72,22.41Z"/>
      <path class="cls-13" d="M219.92,146.04l-9.16,11.23s5.73-19.57-6.04-25.7l15.92-7.94-.72,22.41Z"/>
      <g>
        <g>
          <path class="cls-12" d="M68.65,96.6c.06,12.62,39.45,47.95,87.87,47.72,48.42-.23,89.4-30.09,89.34-42.73-.06-12.62-41.14-27.91-89.57-27.68-48.42.23-87.71,10.06-87.65,22.68Z"/>
          <path class="cls-10" d="M207.37,20.94l.02,4.6v2.31s.34,71.04.34,71.04c.03,7.02-4.86,13.06-11.72,14.54-15.49,3.35-44.83,7.31-79.37.17-6.81-1.41-11.68-7.45-11.72-14.41l-.33-70.09v-3.08s-.04-4.6-.04-4.6c58.27,9.9,102.8-.49,102.8-.49Z"/>
          <path class="cls-8" d="M104.57,21.43c.02,4.61,23.05,8.24,51.44,8.11,28.38-.13,51.38-3.98,51.36-8.59-.02-4.62-23.05-8.25-51.44-8.12-28.4.13-51.39,3.98-51.37,8.6Z"/>
        </g>
        <path class="cls-8" d="M207.67,85.02s-36.77,17.35-102.8,1.13l.04,8.83s44.95,15.84,102.8-.49l-.05-9.48Z"/>
      </g>
      <g>
        <path class="cls-12" d="M148.84,42.84l6.96,11.06c.03.05.07.11.11.16.67.99,1.79,1.59,3,1.59s2.31-.58,2.98-1.56c.06-.09.12-.18.17-.27l4-6.36,2.76-4.4.19-.31.09-.14h0s.04-.05.05-.07c.37-.53.55-1.24.55-1.92,0-2-1.63-3.63-3.63-3.63h-14.35c-2,0-3.62,1.64-3.62,3.63,0,1,.54,1.9.74,2.21Z"/>
        <path class="cls-12" d="M148.1,80.79c0,2,1.62,3.63,3.62,3.63h14.35c2.01,0,3.63-1.63,3.63-3.63,0-.68-.18-1.39-.55-1.91-.02-.02-.03-.05-.05-.07h0s-.09-.14-.09-.14l-.19-.31-2.76-4.4-4-6.36c-.05-.09-.11-.18-.17-.27-.67-.98-1.79-1.56-2.98-1.56s-2.33.6-3,1.58c-.04.06-.08.12-.11.17l-6.96,11.06c-.2.31-.74,1.22-.74,2.21Z"/>
      </g>
      <g>
        <path class="cls-12" d="M141.03,70.77l11.06-6.95c.05-.03.11-.07.16-.11.99-.67,1.59-1.79,1.59-3s-.58-2.31-1.56-2.98c-.08-.06-.18-.12-.27-.17l-6.36-4-4.4-2.76-.31-.19-.14-.09h0s-.05-.03-.07-.05c-.53-.37-1.24-.55-1.92-.55-2,0-3.63,1.63-3.63,3.63v14.35c0,2,1.64,3.62,3.63,3.62,1,0,1.9-.54,2.21-.74Z"/>
        <path class="cls-12" d="M178.99,71.51c2,0,3.63-1.62,3.63-3.62v-14.35c0-2.01-1.63-3.63-3.63-3.63-.68,0-1.39.18-1.91.55-.02.02-.05.03-.07.05h0s-.14.09-.14.09l-.31.19-4.4,2.76-6.36,4c-.09.05-.18.11-.27.17-.98.67-1.56,1.79-1.56,2.98s.6,2.33,1.58,3c.06.04.12.08.17.11l11.06,6.95c.31.2,1.22.74,2.21.74Z"/>
      </g>
    </g>
  </g>
</svg>