<?xml version="1.0" encoding="UTF-8"?>
<svg id="Layer_2" data-name="Layer 2" xmlns="http://www.w3.org/2000/svg" xmlns:xlink="http://www.w3.org/1999/xlink" viewBox="0 0 223.34 224.17">
  <defs>
    <style>
      .cls-1 {
        fill: none;
      }

      .cls-2 {
        fill: #462e1b;
      }

      .cls-3 {
        fill: #ba9d82;
      }

      .cls-4 {
        fill: #b5bb29;
      }

      .cls-5 {
        fill: #ccad8a;
      }

      .cls-6 {
        fill: #633b3f;
      }

      .cls-7 {
        fill: #4a473e;
      }

      .cls-8 {
        fill: #44361f;
      }

      .cls-9 {
        fill: #d7bd9d;
      }

      .cls-10 {
        fill: #c1a587;
      }

      .cls-11 {
        fill: #8d4663;
      }

      .cls-12 {
        fill: #dac6a4;
      }

      .cls-13 {
        fill: #fff;
      }

      .cls-14 {
        fill: #dcc5a0;
      }

      .cls-15 {
        fill: #272213;
      }

      .cls-16 {
        fill: #ecdab6;
      }

      .cls-17 {
        fill: #b8987d;
      }

      .cls-18 {
        fill: #91bcdb;
      }

      .cls-19 {
        fill: #ebd9b5;
      }

      .cls-20 {
        fill: #523a38;
      }

      .cls-21 {
        fill: #a98d76;
      }

      .cls-22 {
        fill: #714223;
      }

      .cls-23 {
        fill: #b7967d;
      }

      .cls-24 {
        clip-path: url(#clippath);
      }

      .cls-25 {
        fill: #d2bb9b;
      }

      .cls-26 {
        fill: #b5957e;
      }
    </style>
    <clipPath id="clippath">
      <rect class="cls-1" x="104.63" y="155.22" width="25.11" height="14.89"/>
    </clipPath>
  </defs>
  <g id="Layer_1-2" data-name="Layer 1">
    <g>
      <rect class="cls-11" width="223.34" height="224.17"/>
      <path class="cls-14" d="M116.94,139.93v84.24h-45.3c-.74-.29-1.11-.45-1.11-.45,0-5.91.48-11.1,1.29-15.65.69-3.74,1.6-7.08,2.67-10.02,2.39-6.56,5.6-11.25,8.9-14.62,1.09-1.11,2.19-2.08,3.27-2.91,1.83-1.42,3.61-2.48,5.2-3.25.83-.42,1.61-.75,2.33-1.02.25-.09.48-.18.71-.26.28-.09.52-.17.77-.25.69-.22,1.26-.37,1.69-.45.57-.14.89-.17.89-.17.17,0,.32-.02.49-.05,1.43-.23,2.58-1.48,3.52-3.46.69-1.48,1.27-3.37,1.73-5.54.18-.86.34-1.71.49-2.65.21-1.55.43-3.19.63-4.89.06-1.03.17-2.03.29-3.11.4-5.16.51-10.8.51-16.14,0,0,6.09.63,11.02.63Z"/>
      <path class="cls-19" d="M163.54,223.72s-.4.15-1.07.45h-45.53v-84.24h.12c4.9,0,11.05-.63,11.05-.63,0,5.31.11,10.86.52,16.04.11,1,.22,2.03.29,3.03.18,1.78.4,3.45.66,5.02v.03c.08.71.22,1.34.34,2,.44,2.19.98,4.12,1.64,5.66.81,1.92,1.81,3.26,3.01,3.8.38.17.78.26,1.21.26,0,0,.21.03.6.11.63.12,1.7.37,3.09.88.22.08.43.15.66.25.12.05.25.09.37.15.32.12.64.28.98.43,1.69.77,3.62,1.86,5.65,3.4.77.57,1.53,1.22,2.32,1.92v.02c3.71,3.4,7.44,8.4,10.13,15.76,1.04,2.85,1.93,6.06,2.61,9.65.86,4.65,1.35,9.96,1.35,16.02Z"/>
      <g class="cls-24">
        <path class="cls-3" d="M129.73,163.22v.04c-1.14,1.77-4.98,6.85-12.57,6.85h-.07c-7.19-.04-11.39-5.27-12.46-6.82.22-1.55.44-3.17.63-4.86.07-1,.18-2.03.29-3.1,3.5.88,7.34,1.44,11.39,1.51h.15c4.2-.07,8.07-.66,11.69-1.62.11,1,.22,2.03.29,3.02.18,1.77.41,3.43.66,4.97"/>
      </g>
      <path class="cls-5" d="M116.57,43.94c-48,0-48.26,40.35-46.12,66.77-3.28-6.26-13.05-4.35-12.24,5.53.77,9.51,14.73,14.35,14.34,13.3,7.27,19.54,26.51,34.27,44.02,34.27h.37V43.94h-.37"/>
      <path class="cls-21" d="M61.27,112.07c2.36-3.83,6.05-2.17,6.93-1.33.96.92,1.73,2.1,1.14,4.35-.33,1.29-1.66,1.4-1.36,3.32.37,2.17,1.36,2.28,1.95,2.8.55.48,1.25.85,1.59,1.77.37.92.41,1.88.22,2.73-.37,1.55-2.62.29-4.13-.37-1-.48-4.17-3.17-4.98-4.05-1.99-2.28-2.95-6.71-1.36-9.21"/>
      <path class="cls-9" d="M116.83,43.94c48,0,48.26,40.35,46.15,66.77,3.28-6.26,13.01-4.35,12.2,5.53-.74,9.51-14.72,14.36-14.34,13.3-7.08,19.54-26.51,34.27-44.02,34.27h-.26l-.11-119.87h.37"/>
      <path class="cls-21" d="M172.13,112.07c-2.36-3.83-6.01-2.17-6.93-1.33-.96.92-1.7,2.1-1.14,4.35.33,1.29,1.66,1.4,1.36,3.32-.37,2.17-1.36,2.28-1.92,2.8-.55.48-1.29.85-1.62,1.77-.33.92-.41,1.88-.22,2.73.37,1.55,2.62.29,4.13-.37,1.03-.48,4.17-3.17,4.98-4.05,2.03-2.28,2.95-6.71,1.36-9.21"/>
      <path class="cls-14" d="M116.19,55.32c-15.78,0-27.35,4.61-34.32,13.67-9.77,12.71-9.4,32.1-5.82,46.03,1.11,4.27,1.7,15.73,2.43,19.94,3.43,18.83,24.11,28.85,37.71,28.85h.37V55.32h-.22"/>
      <path class="cls-19" d="M150.48,69.03c-6.93-9.03-18.36-13.63-33.92-13.71v108.49c15.56-.18,34.17-11.17,37.34-28.85.77-4.2,1.33-15.66,2.43-19.94,3.61-13.89,3.98-33.24-5.86-45.99"/>
      <path class="cls-1" d="M114.64,140.63c-.22-.04-.42-.08-.59-.11.2.04.4.08.59.11Z"/>
      <path class="cls-1" d="M113.82,144.53c-.14-.03-.27-.06-.36-.08.12.03.24.05.36.08Z"/>
      <path class="cls-23" d="M114.04,144.58c-.08-.02-.15-.03-.23-.05.07.02.14.03.23.05Z"/>
      <path class="cls-23" d="M113.46,144.45c-.07-.02-.13-.04-.2-.06h0s.08.02.21.06Z"/>
      <path class="cls-9" d="M107.61,130.51c-.18-3.75,6.85-1.37,9.16-1.25,1.83.09,7.4-1.18,7.88-.85,3.28,2.22-3.47,6.7-8,6.7-1.21,0-8.94-2.33-9.05-4.59Z"/>
      <path class="cls-1" d="M73.53,89.14c-.43,1.44-.73,3.01-.93,4.68,0,0,.63-2.64,2.03-6.56-.6.84-1,1.51-1.1,1.87Z"/>
      <path class="cls-8" d="M103.16,55.59l-.2.2.03.07c.07-.1.1-.2.17-.27Z"/>
      <path class="cls-1" d="M114.78,142.5c-.22-.04-.43-.08-.61-.12.21.04.41.09.61.12Z"/>
      <path class="cls-1" d="M113.94,142.33c-.14-.03-.28-.06-.37-.09.12.03.24.06.37.09Z"/>
      <path class="cls-26" d="M114.18,142.38c-.08-.02-.15-.03-.23-.05.08.02.14.03.23.05Z"/>
      <path class="cls-26" d="M113.57,142.24c-.07-.02-.14-.04-.21-.06h0s.08.03.21.06Z"/>
      <path class="cls-13" d="M82.13,97.67s3.66,15.11,9.95,16.34c6.29,1.23,13.09-1.22,13.09-1.22,0,0,.65-17.76-2.57-20.07-3.22-2.33-10.63-5.7-20.47,4.95Z"/>
      <path class="cls-25" d="M105.18,112.74s-.14.04-.47.18c-.08-5.45-.58-12.93-2.59-14.36-2.99-2.2-9.74-5.3-18.75,3.17-.82-2.34-1.23-4.11-1.23-4.11,9.86-10.67,17.28-7.31,20.47-4.98,3.22,2.33,2.57,20.1,2.57,20.1Z"/>
      <ellipse class="cls-2" cx="95.27" cy="105.05" rx="6.19" ry="6.22"/>
      <path class="cls-22" d="M94.98,109.19c-1.79-.15-3.16-1.96-3-3.96.16-1.99,1.81-3.55,3.6-3.4,1.79.15,3.16,1.96,3,3.95-.16,1.99-1.81,3.56-3.6,3.41Z"/>
      <path class="cls-15" d="M95.13,108.47c-1.24-.11-2.53-1.48-2.4-3.17.14-1.7,1.63-2.84,2.88-2.74,1.24.11,2.53,1.48,2.39,3.17-.14,1.69-1.63,2.83-2.87,2.73Z"/>
      <path class="cls-13" d="M94.13,104.3c-.05.61-.68,1.06-1.39,1-.72-.06-1.26-.61-1.21-1.21.05-.61.67-1.06,1.39-1,.72.06,1.26.6,1.21,1.22Z"/>
      <path class="cls-13" d="M98.14,107.84c-.03.3-.34.53-.69.5-.36-.03-.63-.3-.61-.61.03-.3.34-.53.69-.5.36.03.63.3.61.61Z"/>
      <path class="cls-1" d="M114.88,144.28c-.22-.04-.43-.08-.61-.12.21.04.41.09.61.12Z"/>
      <path class="cls-1" d="M114.04,144.11c-.14-.03-.28-.06-.37-.09.12.03.24.06.37.09Z"/>
      <path class="cls-26" d="M114.27,144.16c-.08-.02-.15-.03-.23-.05.08.02.14.03.23.05Z"/>
      <path class="cls-26" d="M113.67,144.03c-.07-.02-.14-.04-.21-.06h0s.08.02.21.06Z"/>
      <path class="cls-1" d="M114.65,143.86c-.24-.04-.46-.08-.65-.13.22.05.44.09.65.13Z"/>
      <path class="cls-1" d="M113.74,143.68c-.15-.03-.3-.07-.4-.09.13.03.26.06.4.09Z"/>
      <path class="cls-23" d="M113.99,143.73c-.08-.02-.17-.03-.25-.05.08.02.15.03.25.05Z"/>
      <path class="cls-23" d="M113.35,143.59c-.08-.02-.15-.04-.22-.06h0s.09.03.23.06Z"/>
      <path class="cls-1" d="M114.46,143.23c-.24-.04-.46-.08-.65-.13.22.05.44.09.65.13Z"/>
      <path class="cls-1" d="M113.56,143.05c-.15-.03-.3-.07-.4-.09.13.03.26.06.4.09Z"/>
      <path class="cls-23" d="M113.81,143.1c-.08-.02-.17-.03-.25-.05.08.02.15.03.25.05Z"/>
      <path class="cls-23" d="M113.16,142.96c-.08-.02-.15-.04-.22-.06h0s.09.03.23.06Z"/>
      <path class="cls-1" d="M115.01,143.14c-.23-.04-.44-.08-.63-.12.21.05.42.09.63.12Z"/>
      <path class="cls-1" d="M114.14,142.96c-.14-.03-.29-.07-.38-.09.13.03.25.06.38.09Z"/>
      <path class="cls-23" d="M114.38,143.02c-.08-.02-.16-.03-.24-.05.08.02.15.03.24.05Z"/>
      <path class="cls-23" d="M113.76,142.88c-.07-.02-.14-.04-.21-.06h0s.08.03.22.06Z"/>
      <path class="cls-13" d="M151.37,97.15s-3.66,15.11-9.95,16.34c-6.29,1.23-13.09-1.22-13.09-1.22,0,0-.65-17.75,2.57-20.08,3.22-2.33,10.63-5.7,20.47,4.95Z"/>
      <path class="cls-25" d="M128.32,112.23s.14.04.47.18c.08-5.45.58-12.93,2.59-14.36,2.99-2.2,9.74-5.3,18.75,3.17.82-2.34,1.23-4.11,1.23-4.11-9.86-10.67-17.28-7.31-20.47-4.98-3.22,2.33-2.57,20.1-2.57,20.1Z"/>
      <path class="cls-2" d="M132.05,104.54c0,3.44,2.77,6.22,6.19,6.22s6.19-2.79,6.19-6.22-2.77-6.22-6.19-6.22-6.19,2.79-6.19,6.22Z"/>
      <path class="cls-22" d="M138.52,108.68c1.79-.15,3.16-1.96,3-3.96-.16-1.99-1.81-3.55-3.6-3.4-1.79.15-3.16,1.96-3,3.95.16,1.99,1.81,3.56,3.6,3.41Z"/>
      <path class="cls-15" d="M138.37,107.96c1.24-.11,2.53-1.48,2.4-3.17-.14-1.7-1.63-2.84-2.88-2.74-1.24.11-2.53,1.48-2.39,3.17.14,1.69,1.63,2.83,2.87,2.73Z"/>
      <path class="cls-13" d="M139.37,103.79c.05.61.68,1.06,1.39,1,.72-.06,1.26-.61,1.21-1.21-.05-.61-.67-1.06-1.39-1-.72.06-1.26.6-1.21,1.22Z"/>
      <path class="cls-13" d="M135.36,107.32c.03.3.34.53.69.5.36-.03.63-.3.61-.61-.03-.3-.34-.53-.69-.5-.36.03-.63.3-.61.61Z"/>
      <g>
        <path class="cls-6" d="M108.94,97.43c-.05-.07-1.19-1.82-3.52-3.62-1.46-1.13-2.89-1.99-4.38-2.62-1.81-.76-3.75-1.3-5.63-1.56-1.7-.19-3.59-.14-5.79.16-1.68.32-3.32.82-4.71,1.44-.99.34-1.78.83-2.41,1.22-.24.15-.46.28-.68.4l-3,1.9,3.46-.82c.16-.04.34-.09.52-.14.72-.19,1.61-.43,2.65-.58.24-.04.49-.09.75-.14.44-.09.89-.18,1.36-.2.52-.04,1.07-.07,1.63-.11l.73-.05c1.92-.02,3.54.12,4.97.46,1.57.27,3.19.78,4.67,1.47,1.4.67,2.74,1.34,3.79,2.11,2.11,1.42,3.29,2.6,3.3,2.61h0c.29.29.68.45,1.07.45.28,0,.57-.08.82-.25.7-.46.89-1.4.45-2.08l-.03-.05Z"/>
        <path class="cls-6" d="M151.99,92.83c-.2-.11-.42-.24-.66-.39-.63-.39-1.41-.87-2.38-1.2-1.42-.63-3.06-1.13-4.76-1.46-2.18-.3-4.07-.35-5.78-.15-1.87.26-3.82.8-5.63,1.56-1.46.63-2.94,1.51-4.38,2.62-2.29,1.77-3.43,3.48-3.51,3.61l-.02.03c-.39.6-.3,1.4.2,1.9.28.29.66.45,1.07.45h0c.4,0,.78-.16,1.06-.45h.01c.11-.12,1.25-1.25,3.3-2.62,1.03-.76,2.37-1.43,3.77-2.1,1.49-.69,3.1-1.2,4.7-1.48,1.42-.33,3.04-.47,4.93-.45l.76.05c.55.04,1.09.08,1.62.11.46.02.91.11,1.35.2.25.05.5.1.75.14,1.05.15,1.94.39,2.65.58.19.05.36.1.53.14l3.46.82-3.03-1.91Z"/>
      </g>
      <path class="cls-1" d="M113.82,146.07c-.23-.04-.45-.08-.64-.12.22.05.43.09.64.12Z"/>
      <path class="cls-1" d="M112.94,145.9c-.15-.03-.29-.07-.39-.09.13.03.26.06.39.09Z"/>
      <path class="cls-17" d="M113.19,145.95c-.08-.02-.16-.03-.24-.05.08.02.15.03.24.05Z"/>
      <path class="cls-17" d="M112.56,145.81c-.07-.02-.14-.04-.22-.06h0s.08.03.22.06Z"/>
      <path class="cls-16" d="M107.69,149.07c-.18-2.43,6.73.51,9,.58,1.81.06,7.25-.36,7.75-.55,3.8-1.43-.21,4.06-7.86,4.35-3.51.14-8.78-2.9-8.88-4.38Z"/>
      <path class="cls-12" d="M130.18,144.38c-1.88-.09-3.8,1.48-6.06,1.24-.09-.05-.14-.05-.23-.05-.52-.09-1.03,0-1.6.14-.7.15-1.41.43-2.07.66-1.13.37-2.4.66-3.7.56h0s-.05,0-.07,0-.05,0-.07,0h0c-1.31.09-2.58-.2-3.7-.57-.66-.23-1.37-.52-2.07-.66-.56-.14-1.08-.23-1.6-.14-.1,0-.14,0-.23.05-2.26.24-4.18-1.33-6.06-1.24-.52.05-1.27-.09-1.69-.09.09.05.19.09.28.14,5.35,2.62,9.96,7.53,15.07,7.37h.15c5.11.16,9.72-4.75,15.07-7.37.1-.05.19-.09.28-.14-.42,0-1.17.14-1.69.09Z"/>
      <path class="cls-10" d="M131.76,144.23h0s-5.44-2.11-9.3-.87c0,0-1.44.56-2.93.91-.91.36-2.01.46-3.07.42h0c-.81-.03-1.59-.14-2.22-.25-.21-.03-.42-.08-.64-.12-.09-.02-.16-.03-.24-.05-.13-.03-.26-.06-.39-.09-.14-.03-.22-.06-.22-.06h0c-1.24-.34-2.3-.76-2.3-.76-3.87-1.24-9.3.87-9.3.87h0c-.07.03-.12.06-.12.06.42,0,1.17.14,1.69.09,1.87-.09,3.8,1.48,6.06,1.24.09-.05.14-.05.23-.05.52-.09,1.03,0,1.6.14.7.15,1.41.43,2.07.66,1.13.37,2.4.66,3.7.56h0s.05,0,.07,0,.05,0,.07,0h0c1.31.09,2.58-.2,3.7-.57.66-.23,1.37-.52,2.07-.66.56-.14,1.08-.23,1.6-.14.1,0,.14,0,.23.05,2.26.24,4.18-1.33,6.06-1.24.52.05,1.27-.09,1.69-.09,0,0-.05-.02-.12-.06Z"/>
      <path class="cls-10" d="M107.32,145.52c.1.02,10.19,3.11,18.08.07l-.91-.61h-10.66l-6.5.55Z"/>
      <path class="cls-7" d="M152.71,201.13h-71.59c2.18-4.9,4.65-10.42,5.56-20.6,1.83-1.43,3.61-2.49,5.2-3.25.83-.41,1.61-.75,2.33-1.01.25-.09.48-.18.71-.26.28-.09.52-.17.77-.25.69-.21,1.26-.37,1.69-.45,3.1,4.47,7.63,10.62,11.83,14.84,2.82,2.84,5.5,4.82,7.49,4.84h.02c.08,0,.14,0,.23-.02,1.77-.11,4.02-1.64,6.45-3.9,4.56-4.24,9.65-11.07,13-15.83.63.12,1.7.37,3.09.87.21.08.43.15.66.25.12.05.25.09.37.15.32.12.64.28.98.43,1.69.77,3.62,1.86,5.65,3.41.91,10.3,3.38,15.84,5.57,20.77Z"/>
      <path class="cls-7" d="M157.24,224.17h-80.66c.2-3.05.46-7.38.75-10.22h79.17c.28,2.84.55,7.17.74,10.22Z"/>
      <path class="cls-4" d="M152.71,201.13h-71.6c-1.66,3.72-3.15,7.08-3.68,11.85-.03.3-.07.62-.1.97h79.17c-.03-.35-.07-.67-.1-.97-.53-4.78-2.02-8.14-3.68-11.85Z"/>
      <path class="cls-18" d="M123.39,191.07v33.09h-14.18v-34.01c2.82,2.84,5.5,4.82,7.49,4.84h.02c.08,0,.14,0,.23-.02,1.77-.11,4.02-1.64,6.45-3.9Z"/>
      <path class="cls-20" d="M74.46,122.31c-.94,0,.07-5.84-3.07-9.86-3.13-4.03-7.9-17.59-7.9-31.11s4.09-25.57,14.73-38.36c10.65-12.8,26.32-19.01,26.32-19.01l-7.21,7.67s3.88-6.23,17.83-11.22c11.01-3.93,18.13.45,18.13.45,0,0-7.25-.29-9.46,3.39-.55.94-2.59,2.36-2.59,2.36,0,0,3.37-8.83,19.04-1.51,15.66,7.32,15.38,20.42,26.27,24.44,11.15,4.13,14.39-1.16,14.39-1.16,0,0-4.84,9.27-13.43,9.29-1.65,0-1.54-.04-1.54-.04,0,0,3.22,9.94,3.84,17.35.63,7.57-1.34,12.74-1.94,26.9-.52,12.09-3.35,5.89-6.72,14.82-1.13,2.99-1.18,6.35-1.18,6.35-1.25.36-4.53-7.26-2.18-20.49,1.54-8.59-6.04-41.14-24.29-34.8-11.17,3.89-13.99,11.79-22.34,4.77-7.2-6.05-17.27-9.53-24.79-4.75-7.52,4.79-11.76,15.56-10.45,32.74,1.68,21.94-1.46,21.78-1.46,21.78Z"/>
    </g>
  </g>
</svg>