<?xml version="1.0" encoding="UTF-8"?>
<svg id="Layer_2" data-name="Layer 2" xmlns="http://www.w3.org/2000/svg" xmlns:xlink="http://www.w3.org/1999/xlink" viewBox="0 0 78.88 78.88">
  <defs>
    <style>
      .cls-1 {
        fill: none;
      }

      .cls-2 {
        fill: #48443b;
        opacity: .3;
      }

      .cls-3 {
        fill: #d0665f;
      }

      .cls-4 {
        fill: #debaad;
      }

      .cls-5 {
        fill: #212625;
      }

      .cls-6 {
        fill: #24241d;
        opacity: .51;
      }

      .cls-7 {
        fill: url(#linear-gradient-2);
      }

      .cls-8 {
        fill: #dcb9ac;
      }

      .cls-9 {
        fill: url(#linear-gradient);
      }

      .cls-10 {
        fill: #f1d4c8;
      }

      .cls-11 {
        fill: #b59376;
      }

      .cls-12 {
        fill: #4f6771;
      }

      .cls-13 {
        fill: #fff;
      }

      .cls-14 {
        fill: #753915;
      }

      .cls-15 {
        fill: #434039;
      }

      .cls-16 {
        fill: #c38589;
      }

      .cls-17 {
        fill: #c6a095;
      }

      .cls-18 {
        fill: #502c24;
        opacity: .2;
      }

      .cls-19 {
        fill: #f0d4c7;
      }

      .cls-20 {
        fill: #49443b;
      }
    </style>
    <linearGradient id="linear-gradient" x1="15.87" y1="16.43" x2="15.87" y2="20.01" gradientTransform="translate(16.78 17.25) rotate(4.72)" gradientUnits="userSpaceOnUse">
      <stop offset="0" stop-color="#29383e"/>
      <stop offset=".12" stop-color="#3d5059"/>
      <stop offset=".29" stop-color="#586f7d"/>
      <stop offset=".47" stop-color="#6d8799"/>
      <stop offset=".65" stop-color="#7c99ad"/>
      <stop offset=".82" stop-color="#85a3b9"/>
      <stop offset="1" stop-color="#89a7be"/>
    </linearGradient>
    <linearGradient id="linear-gradient-2" x1="-525.38" y1="61.12" x2="-525.38" y2="64.65" gradientTransform="translate(-481.32 17.25) rotate(175.28) scale(1 -1)" xlink:href="#linear-gradient"/>
  </defs>
  <g id="Layer_1-2" data-name="Layer 1">
    <g>
      <rect class="cls-16" width="78.88" height="78.88"/>
      <g>
        <path class="cls-10" d="M27.12,38.45c-.02-2.23-1.42-4.18-3.52-5.3.04.55.08,1.1.13,1.63-1.32-2.44-5.14-1.65-4.8,2.22.34,3.73,5.77,5.61,5.69,5.18.06.3.12.59.2.87,1.43-1.17,2.32-2.8,2.3-4.6Z"/>
        <path class="cls-4" d="M20.13,35.35c.92-1.5,2.37-.87,2.73-.54.38.35.68.82.45,1.71-.12.5-.65.54-.51,1.3.15.85.54.9.76,1.09.22.19.5.33.65.7.14.36.16.74.09,1.06-.14.61-1.04.14-1.63-.13-.39-.18-1.65-1.22-1.97-1.57-.8-.89-1.18-2.61-.57-3.61"/>
      </g>
      <path class="cls-19" d="M64.8,78.88H13.81c0-.19.01-.38.01-.56,0,0,.11-6.16.4-6.7.54-2.15-.42-3.13,3.36-5.2.05-.01.88-.24,2.11-.6,2.58-.74,6.95-2.02,9.23-2.91h.03c.51-.23.93-.41,1.17-.56,0-.01.01-.01.01-.01.06-.04.1-.06.13-.1.01-.01.06-.05.09-.09.02-.04.08-.06.1-.1.08-.36,1.12-1.89,1.51-3.58.01-.03.03-.04.04-.06.09-.35.13-.68.15-1.02.01-.55.04-1.1.04-1.59.01-.28.02-.54.02-.78,0-.1,0-.2.01-.29,0-.1.01-.19.01-.28v-.08c.01-.23.01-.42.01-.56.01-.15.01-.24.01-.24,0,0-5.83-4.35-5.83-5.29,0,0,6.1.93,10.06,1.37.08.01.15.01.23.03.27.03.51.06.74.09.01,0,.05,0,.13.01.35.03.65.05.93.08.18.01.34.03.48.03.11.03.22.03.33.01.06,0,.13.01.19,0,.15-.01.34-.01.55-.03,0-.01.02-.01.04-.01.46-.02,1.03-.09,1.67-.16.05,0,.1-.01.15-.01h.01c3.94-.42,10.25-1.39,10.25-1.39,0,.94-5.81,5.29-5.81,5.29,0,0,0,.09.01.24,0,.08,0,.17.01.27-.01.03-.01.04,0,.06v.14s0,.09,0,.13c0,.18.01.38.01.6.03.66.05,1.5.08,2.36.01.18.01.34.04.51.02.16.06.33.1.51,0,.01.01.01.01.01,0,.01,0,.03.01.03h0c.37,1.71,1.44,3.26,1.53,3.62.01.01.01.02.01.04.02.03.05.04.08.06.03.04.08.08.08.09.09.07.22.15.4.24.06.02.1.05.17.08h.01c1.85.88,7.04,2.41,10.01,3.27,1.24.36,2.05.59,2.1.6,3.8,2.07,2.82,3.06,3.36,5.2.29.54.39,6.7.39,6.7,0,.18,0,.37.01.56Z"/>
      <path class="cls-17" d="M46.65,58.39c-.09-.34-.13-.68-.15-1.02-.04-1.15.16-2.69.15-3.4-2.19.86-4.68,1.79-6.88,1.79-.13.02-.3.02-.45.02s-.32,0-.45-.02c-2.2,0-4.46-.5-6.65-1.36-.01.72-.04,1.81-.08,2.97-.02.34-.06.68-.15,1.02,2.12,1.55,4.98,3.14,6.88,3.14.12.02.27.02.4.02h0s.03,0,.05,0c.02,0,.03,0,.05,0h0c.14,0,.28,0,.4-.03,1.9,0,4.77-1.6,6.88-3.14Z"/>
      <path class="cls-19" d="M55.54,31.42c-.01.12-.01.25-.02.39-.02.14-.04.3-.05.45-.02.2-.03.4-.07.59-.01.09-.02.2-.04.3-.03.24-.08.45-.12.69-.01.09-.04.19-.05.28-.05.2-.08.4-.14.6-.02.12-.06.25-.08.4-.03.11-.06.24-.09.34-.15.56-1.24,7.07-2.16,11.36-.38,1.79-.89,3.26-1.04,3.65-.86,2.17-6.49,6.18-10.12,7.88-.01.01-.04.01-.05.02-1.03.5-1.9.78-2.43.78h-.07c-.58-.01-1.42-.27-2.38-.71-.05-.04-.11-.06-.17-.08-3.73-1.68-9.3-5.72-10.16-7.9-.17-.41-.51-2-.9-3.98-.85-4.29-1.96-10.5-2.11-11.03-.03-.11-.06-.24-.09-.34-.02-.15-.06-.28-.08-.4-.06-.2-.09-.4-.14-.6-.01-.1-.04-.19-.05-.28-.04-.24-.08-.45-.12-.69-.01-.09-.02-.2-.03-.3-.04-.19-.05-.39-.07-.59-.01-.15-.02-.31-.05-.45-.01-.14-.01-.27-.02-.39-.15-3.1.51-6.24,2.53-9.08,2.44-3.43,5.25-7.07,11.35-7.57h5.15c6.1.5,8.91,4.14,11.35,7.57,2.02,2.84,2.68,5.98,2.53,9.08Z"/>
      <path class="cls-8" d="M36.37,45.9c-.06-1.2,2.19-.44,2.94-.4.59.03,2.37-.38,2.53-.27,1.05.71-1.11,2.14-2.56,2.14-.39,0-2.87-.74-2.9-1.47Z"/>
      <path class="cls-20" d="M35.57,32.94s-.47-.52-1.22-1.08c-.37-.28-.82-.57-1.3-.8-.24-.13-.5-.22-.76-.31-.26-.12-.53-.15-.79-.22-.27-.07-.54-.07-.8-.11-.27,0-.53,0-.79,0-.26.03-.5.06-.74.09-.24.03-.46.11-.66.14-.42.07-.76.22-1,.29-.25.07-.39.11-.39.11,0,0,.12-.11.34-.3.22-.18.53-.48.95-.68.21-.11.43-.26.67-.34.25-.08.51-.18.78-.24.27-.03.56-.09.85-.09.29.03.59.02.88.09.29.08.59.14.87.28.29.1.55.27.81.43.26.15.49.37.71.55.21.21.42.4.58.62.7.82,1,1.6,1,1.6Z"/>
      <path class="cls-13" d="M26.77,35.48s1.38,2.75,3.49,3.03c2.11.28,4.36-.09,4.36-.09,0,0,.03-3.18-1.07-3.63-1.1-.45-3.61-1.13-6.79.69Z"/>
      <path class="cls-9" d="M32.83,36.39c-.09.97-.92,1.7-1.85,1.63-.93-.07-1.62-.91-1.53-1.87.09-.97.92-1.7,1.85-1.63.93.07,1.62.91,1.53,1.88Z"/>
      <path class="cls-12" d="M31.04,37.47c-.5-.04-.87-.56-.82-1.14.05-.58.52-1.04,1.02-1,.5.04.87.56.82,1.14-.05.58-.52,1.04-1.02,1Z"/>
      <path class="cls-5" d="M31.08,37.26c-.35-.03-.7-.42-.66-.91.05-.49.47-.83.81-.8.35.03.7.42.66.91-.05.49-.47.83-.82.8Z"/>
      <path class="cls-2" d="M34.63,38.42s-.05,0-.15.02c-.08-.98-.33-2.32-1.02-2.6-1.02-.42-3.31-1.05-6.23.38-.3-.43-.45-.75-.45-.75,3.18-1.82,5.7-1.14,6.78-.69,1.1.45,1.07,3.63,1.07,3.63Z"/>
      <path class="cls-1" d="M26.77,35.49s1.38,2.75,3.49,3.03c2.11.28,4.36-.09,4.36-.09,0,0,.03-3.18-1.07-3.63-1.1-.45-3.61-1.13-6.79.69Z"/>
      <path class="cls-8" d="M26.55,35.53c.54-.39,1.14-.69,1.76-.93.31-.11.63-.23.96-.3.16-.05.33-.07.49-.11.16-.04.33-.06.5-.08.33-.05.67-.06,1.01-.07.17,0,.34.02.51.02.17,0,.34.02.5.05.34.04.66.11.99.21.33.08.63.23.94.35h.02s.01.02.01.02c.31.35.62.71.85,1.11-.3-.35-.65-.66-.99-.97l.03.02c-.32-.09-.62-.21-.94-.26-.32-.07-.63-.13-.96-.16-.32-.05-.64-.04-.97-.05-.32.02-.65.01-.97.06-.64.07-1.28.2-1.91.38-.62.19-1.24.42-1.84.7Z"/>
      <path class="cls-13" d="M30.82,36.05c-.02.18-.19.31-.39.29-.2-.01-.35-.17-.33-.35.02-.18.19-.31.39-.29.2.02.35.17.33.35Z"/>
      <path class="cls-13" d="M31.93,37.06c0,.09-.09.15-.19.15-.1,0-.17-.09-.17-.17,0-.09.1-.15.2-.15.1,0,.17.08.17.17Z"/>
      <path class="cls-20" d="M42.77,32.74s.3-.73,1.01-1.49c.17-.2.37-.38.59-.57.22-.16.45-.37.71-.51.26-.15.52-.31.81-.4.28-.13.57-.18.87-.25.29-.06.59-.05.88-.08.29,0,.58.06.85.09.27.06.53.15.78.23.25.07.47.21.67.31.42.19.73.47.95.63.22.18.34.28.34.28,0,0-.14-.04-.39-.1-.25-.06-.58-.2-1-.26-.21-.03-.43-.11-.66-.13-.23-.03-.48-.05-.74-.08-.25,0-.52,0-.78,0-.26.04-.54.04-.8.1-.27.06-.54.09-.79.2-.26.08-.51.17-.76.29-.49.22-.93.48-1.3.74-.75.52-1.22,1-1.22,1Z"/>
      <path class="cls-13" d="M51.6,35.65s-1.34,2.69-3.44,2.94c-2.11.25-4.36-.15-4.36-.15,0,0-.08-3.14,1.01-3.57,1.09-.43,3.59-1.06,6.8.78Z"/>
      <path class="cls-1" d="M51.6,35.65s-1.34,2.69-3.44,2.94c-2.11.25-4.36-.15-4.36-.15,0,0-.08-3.14,1.01-3.57,1.09-.43,3.59-1.06,6.8.78Z"/>
      <path class="cls-7" d="M45.72,36.36c.09.96.92,1.67,1.85,1.61.93-.07,1.62-.9,1.53-1.85-.09-.96-.92-1.68-1.85-1.61-.93.07-1.62.9-1.53,1.85Z"/>
      <path class="cls-12" d="M47.51,37.42c.5-.04.87-.55.82-1.12-.05-.57-.52-1.02-1.02-.99-.5.03-.87.55-.82,1.12.05.57.52,1.03,1.02.99Z"/>
      <path class="cls-5" d="M47.46,37.22c.35-.03.7-.41.66-.9-.05-.48-.47-.82-.81-.79-.35.02-.7.41-.66.9.05.48.47.82.82.79Z"/>
      <path class="cls-2" d="M43.79,38.43s.05,0,.15.03c.07-.97.29-2.29.97-2.55,1.01-.4,3.29-.99,6.24.47.29-.42.44-.73.44-.73-3.21-1.84-5.72-1.21-6.8-.79-1.09.43-1.01,3.57-1.01,3.57Z"/>
      <path class="cls-8" d="M51.59,35.74c-.6-.28-1.21-.51-1.84-.7-.63-.18-1.27-.3-1.91-.37-.32-.04-.64-.04-.97-.06-.32.01-.65,0-.97.05-.32.02-.64.09-.96.16-.32.05-.62.17-.94.26l.03-.02c-.34.31-.69.61-.99.95.24-.4.54-.75.85-1.1h.01s.02-.02.02-.02c.31-.11.62-.26.94-.34.32-.1.65-.17.99-.21.17-.03.33-.05.5-.05.17,0,.34-.02.5-.02.34,0,.67.02,1.01.07.17.02.33.04.5.08.16.04.33.06.49.11.33.08.64.19.96.3.62.23,1.23.53,1.77.92Z"/>
      <path class="cls-13" d="M47.12,36.03c-.02.17-.19.3-.39.29-.2-.02-.35-.17-.33-.34.02-.17.19-.3.39-.29.2.01.35.17.33.34Z"/>
      <path class="cls-13" d="M48.22,37.02c0,.09-.1.15-.2.14-.1,0-.17-.08-.17-.17,0-.08.1-.15.2-.14.1,0,.17.08.17.17Z"/>
      <path class="cls-8" d="M43.15,51.62c-.56-.03-1.13-.15-1.81-.22-.03-.01-.04-.01-.07-.01-.15-.03-.31,0-.48.04-.21.04-.42.13-.62.2-.34.11-.72.2-1.11.17h0s-.01,0-.02,0-.01,0-.02,0h0c-.39.03-.77-.06-1.11-.17-.2-.07-.41-.15-.62-.2-.17-.04-.32-.07-.48-.04-.03,0-.04,0-.07.01-.67.07-1.25.2-1.81.22-.15.01-.38-.03-.5-.03.03.01.06.03.08.04,1.6.78,2.97,1.64,4.5,1.6h.04c1.52.05,2.9-.82,4.5-1.6.03-.01.06-.03.08-.04-.13,0-.35.04-.51.03Z"/>
      <path class="cls-1" d="M38.39,51.05c-.07-.01-.13-.02-.19-.04.06.01.13.03.19.04Z"/>
      <path class="cls-1" d="M38.13,51s-.09-.02-.12-.03c.04,0,.08.02.12.03Z"/>
      <path class="cls-18" d="M43.62,51.58h0s-1.62-1.22-2.78-.85c0,0-.43.17-.87.27-.27.11-.6.14-.92.12h0c-.24,0-.47-.04-.66-.07-.06,0-.13-.02-.19-.04-.03,0-.05-.01-.07-.02-.04,0-.08-.02-.12-.03-.04-.01-.07-.02-.07-.02h0c-.37-.1-.69-.22-.69-.22-1.15-.37-2.78.85-2.78.85h0s-.04.02-.04.02c.13,0,.35.04.5.03.56-.03,1.13-.15,1.81-.22.03-.01.04-.01.07-.01.15-.03.31,0,.48.04.21.04.42.13.62.2.34.11.72.2,1.11.17h0s.01,0,.02,0,.01,0,.02,0h0c.39.03.77-.06,1.11-.17.2-.07.41-.15.62-.2.17-.04.32-.07.48-.04.03,0,.04,0,.07.01.67.07,1.25.2,1.81.22.15.01.38-.03.51-.03,0,0-.01,0-.04-.02Z"/>
      <path class="cls-11" d="M38.2,51.01s-.05,0-.07-.02c.02,0,.04,0,.07.02Z"/>
      <path class="cls-11" d="M38.01,50.97s-.04-.01-.06-.02h0s.02,0,.07.02Z"/>
      <path class="cls-3" d="M64.79,78.33s-.05-3.1-.19-5.1c-.06-.82-.12-1.45-.21-1.61-.44-1.74.13-2.72-1.71-4.16-.41-.32-.95-.66-1.64-1.05-.05,0-.87-.23-2.1-.6-1.06-.31-2.41-.7-3.79-1.11-.48-.15-.97-.31-1.45-.46-.25,1.13-.66,2.2-1.17,3.22-2.41,4.71-7.51,7.96-13.44,7.96s-11.03-3.26-13.44-7.96c-.5-.97-.89-2-1.14-3.08-.32.1-.64.2-.95.29-1.43.43-2.81.84-3.88,1.14-1.22.37-2.05.6-2.11.6-.69.38-1.22.72-1.63,1.05-1.84,1.43-1.29,2.41-1.72,4.16-.08.16-.15.8-.2,1.61-.13,2-.19,5.1-.19,5.1,0,.18-.01.37-.01.55h51c-.01-.18-.01-.37-.01-.55Z"/>
      <path class="cls-14" d="M52.49,63.86c-1.49-.49-2.8-.93-3.56-1.3h-.01c-.06-.03-.1-.05-.17-.08-.1-.05-.17-.1-.24-.14-.24,1.96-1.06,3.72-2.27,5.13-1.7,1.96-4.17,3.21-6.93,3.21s-5.23-1.24-6.93-3.21c-1.21-1.41-2.03-3.18-2.27-5.14,0,0,0,0,0,0,0,0-.01,0-.01.03-.24.15-.66.32-1.17.55h-.03c-.73.29-1.66.61-2.69.96-.55.17-1.12.35-1.7.53.25,1.08.64,2.11,1.14,3.08,2.41,4.71,7.51,7.96,13.44,7.96s11.03-3.26,13.44-7.96c.52-1.01.93-2.09,1.17-3.22-.41-.13-.81-.26-1.2-.39Z"/>
      <path class="cls-1" d="M25.71,45.52c0,.29.02.59.06.9.01.01.02.03.04.04-.04-.37-.07-.7-.09-1.02,0,.03,0,.05,0,.08Z"/>
      <g>
        <path class="cls-10" d="M51.22,38.45c.02-2.23,1.42-4.18,3.52-5.3-.04.55-.08,1.1-.13,1.63,1.32-2.44,5.14-1.65,4.8,2.22-.34,3.73-5.77,5.61-5.69,5.18-.06.3-.12.59-.2.87-1.43-1.17-2.32-2.8-2.3-4.6Z"/>
        <path class="cls-4" d="M58.21,35.35c-.92-1.5-2.37-.87-2.73-.54-.38.35-.68.82-.45,1.71.12.5.65.54.51,1.3-.15.85-.54.9-.76,1.09-.22.19-.5.33-.65.7-.14.36-.16.74-.09,1.06.14.61,1.04.14,1.63-.13.39-.18,1.65-1.22,1.97-1.57.8-.89,1.18-2.61.57-3.61"/>
      </g>
      <g>
        <path class="cls-6" d="M29.01,43.83c-3.31,0-5.89-3.09-5.89-7.01,0-3.57,2.08-5.3,6.39-5.3,3.99,0,7.89.29,7.89,3.84,0,3.92-5.08,8.47-8.39,8.47Z"/>
        <path class="cls-6" d="M48.69,43.83c-3.31,0-8.39-4.55-8.39-8.47,0-3.54,3.91-3.84,7.9-3.84,4.3,0,6.39,1.73,6.39,5.3,0,3.92-2.59,7.01-5.9,7.01Z"/>
        <g>
          <path class="cls-13" d="M48.2,31.3c-2.22,0-4.84.05-6.49,1.05-3.35.94-5.68,0-5.7,0-1.65-1-4.27-1.06-6.5-1.06-4.16,0-6.62,1.58-6.62,5.53s2.58,7.24,6.13,7.24c3.15,0,7.48-3.74,8.42-7.33h0s0,0,0,0c.12-.46.19-.91.19-1.36,0-.01,0-.02,0-.04.22-.6.62-.86,1.22-.86s1.02.25,1.24.89c0,0,0,0,0,.01,0,.43.06.87.18,1.32,0,.02,0,.03,0,.05h.01c.94,3.59,5.26,7.33,8.41,7.33,3.56,0,6.13-3.3,6.13-7.24s-2.45-5.53-6.62-5.53ZM29.02,43.83c-3.31,0-5.9-3.09-5.9-7.01,0-3.57,2.09-5.3,6.39-5.3,4,0,7.89.29,7.89,3.84,0,.35-.04.7-.12,1.06-.03.1-.06.19-.07.27-.93,3.55-5.26,7.13-8.2,7.13ZM38.85,33.89c-.79,0-1.14.23-1.28.72-.14-.8-.5-1.4-1.03-1.86,1.87.55,3.97.15,4.63,0-.55.49-.93,1.15-1.05,2.03-.14-.51-.45-.89-1.28-.89ZM48.69,43.83c-3.31,0-8.38-4.55-8.38-8.47,0-3.54,3.9-3.84,7.89-3.84,4.3,0,6.39,1.73,6.39,5.3,0,3.92-2.59,7.01-5.9,7.01Z"/>
          <path class="cls-13" d="M48.69,44.31c-3.19,0-7.55-3.73-8.6-7.33h-.06v-.26c-.12-.45-.19-.91-.19-1.33-.17-.47-.47-.67-.98-.67s-.79.19-.96.65c0,.46-.07.91-.19,1.38v.22h-.06c-1.06,3.6-5.42,7.34-8.62,7.34-3.58,0-6.39-3.29-6.39-7.49,0-3.84,2.31-5.78,6.88-5.78,2.45,0,4.97.08,6.63,1.09.05.02,2.29.86,5.47-.02,1.65-.99,4.16-1.07,6.59-1.07,4.56,0,6.88,1.95,6.88,5.78,0,4.2-2.81,7.49-6.39,7.49ZM48.2,31.78c-3.86,0-7.64.28-7.64,3.58,0,3.81,4.92,8.21,8.12,8.21s5.65-2.96,5.65-6.75c0-3.44-1.95-5.04-6.14-5.04ZM29.51,31.78c-4.19,0-6.14,1.6-6.14,5.04,0,3.78,2.48,6.75,5.65,6.75,2.92,0,7.08-3.63,7.95-6.94,0-.05.02-.16.07-.29.07-.32.1-.66.1-.97,0-3.3-3.77-3.58-7.64-3.58ZM38.85,34.15c-.65,0-.87.17-.98.37.25-.2.58-.31.98-.31.3,0,.56.05.77.17-.15-.14-.39-.23-.77-.23ZM38.85,33.64c.52,0,.91.14,1.18.42.11-.33.26-.64.45-.92-.8.13-2.01.23-3.22.03.17.24.3.51.4.8.32-.28.78-.33,1.18-.33Z"/>
        </g>
      </g>
      <path class="cls-15" d="M65.14,38.27c.05-.9-2.87-.89-1.67-3.05,1.09-1.96.89-1.4-.79-3.72-1.68-2.33.05-1.37.13-2.4.08-1.03-.13-1.53.02-2.74.14-1.21.75-.92.29-1.39-.45-.47-1.87-1.71-2.8-1.88-.92-.18-.37-.48-.45-1.41-.08-.93.07-1.11.91-1.96.83-.84.11-1.63-.85-1.29-.96.34-2.14,1.13-2.48.99-.34-.14-.25-1.94-.53-2.34-.28-.4-.68-.28-.98-.94-.3-.66.07-1.2.49-2.01.43-.8,1.14-1.21.8-2.29-.34-1.08-2.35.55-4.03,1.3-.65.29-1.48-2.55-2.3-2.66.18-.45.29-.95.46-1.29.37-.76.22-1.07,0-1.37-.22-.3-1.03.3-1.57.91-.31.35-.86.43-1.61.58-.07-.07-.15-.14-.19-.21-.67-1.05.37-.55,1.7-2.38,1.34-1.83-.5-1.06-2.28-.65-1.79.41-1.25,1.9-2.87,2.3-1.61.4-1.14.19-2.36.38-1.22.2-1.31.12-1.71-.7-.39-.82.34-1.05-.2-2.5-.25-.69-1.04,0-2.39,2.22-.2.33-.42.55-.66.7-.12-.16-.22-.38-.3-.74-.29-1.37-.44-1.52-.81-1.83-.37-.3-.87,0-1.03,0s-.45.76-.45.76c0,.71-.08,1.39-.04,1.94-.29-.04-.6-.08-.93-.11-2-.17-1.26-1.79-2.15-2.57-.89-.78-3.87,2.86-4.55,2.66-.68-.2-.93-1.29-2.74-.2-1.81,1.08.13.58-.15,1.21-.28.62-1.06,2.97-1.36,2.4-.3-.57-2.28-.56-1.8.16.47.73-.09.95-.97,1.54-.88.59.55,1.32,1.43,2.95.88,1.63-.79.56-1.44,1.58-2.27,3.54-3.47,1.36-4.14,1.87-.6.45-.61,2.57.56,3.75,1.17,1.18.67.7.62,1.48-.19,2.9-4.93,2.92-3.25,3.62,3.65,1.51,1.4,1.86,1.56,2.7.15.84-1.87.74-1.48,1.48.39.73,2.38,3.55.37,3.21-2.01-.33,1.3,3.73,1.56,3.88.26.15.96,1.62.82,1.89-.14.27.36.4.68,1.22.31.83-2.17,1.21-1.9,2.89.14.83,1.65.69,2.48,1.73.83,1.04-.73,1.54.7,1.76,1.42.22.78.44,1.06.84.28.4-.92.77-.82,1.01.1.25,1.35.31.98.85-.37.55-2.19,1.48-.53,1.5,1.65.02.61.46.73.87.05.18.73.29,1.36.45.19.05.38.1.54.16.53.2.81.49.13,1-1.56,1.16.28.4,2,.25.14-.01.26-.02.36-.02.05.15.12.3.18.44-.18.16-.4.32-.39.41.02.25.07.85,1.51,1.32.03.01.06.02.09.03.16.17.31.32.45.45-.16.07-.36.18-.46.37-.29.54.71,1.56,1.7.62,1-.94,1.36-.46,1.44.38.07.85.2.41-.9,1.11-1.1.69.82,1.24,1.17,1.05.82-.46,1.28-.87,1.6-1.14.13.12.26.23.39.34.15.13.3.26.44.38.59.5,1.13.94,1.55,1.27.46.36.78.58.87.58,0-.02-.02-.35-.03-.82-.02-.86-.04-2.17-.06-2.86.03-.06.07-.12.1-.19,1.47.54,2.99,3.22,4.57,3.37.04,0,.09.01.13.01.1,0,.2,0,.3,0h0c.08,0,.17,0,.25,0,.02,0,.03,0,.05,0,.39,0,.77-.17,1.16-.42,1.26-.83,2.47-2.65,3.65-3-.01.43-.03,1.5-.05,2.48-.02,1.02-.03,1.94-.05,1.97.11,0,.65-.46,1.37-1.13.49-.46,1.07-1.01,1.68-1.6.05-.04.09-.09.14-.13.27-.27.55-.54.83-.81.23-.08.51-.15.84-.18,1.4-.13.48.71,1.42,1.15,1.55.73,1.17-1.81.89-2.13-.16-.19-.17-.38.07-.9.09.05.18.1.27.15.08.05.16.09.24.14.41.25.72.48.82.62.22.31.66.69,1.03,0,.37-.68.29-.46,0-1.22-.3-.76.81-1.47,1.72-1.55.98-.09.19.72,2.11-.08,1.16-.48.8-.69.76-1.12-.02-.28-.26-.41-.4-.94.05,0,.1.02.15.02.81,0,1.47-.59,1.47-1.33,0-.18-.04-.36-.11-.52.05,0,.1,0,.14,0,.91-.08,2.36-.21,1.73-1.33-.26-.46-.4-.9-.47-1.33.64-.02,1.15-.35,1.15-.75,0-.17-.1-.32-.25-.44.45-.17.77-.46.77-.82,0-.53-.46-1.53-.16-1.9.38-.47,2.24-.14,2.25-.76.03-1.33-1.28-1.98-1.67-2.63-.22-.35-.36-1.5.39-2.96.62-1.2,1.88-.76,1.97-2.04ZM52.46,47.9c-1.41,2.68-3.62,4.87-6.31,6.28.2-.62.32-1.32.32-2.07,0-.33-.03-.65-.07-.96.3-.04.59-.09.86-.16.43-.09.83-.24,1.16-.49.7-.51,1.17-1.39,1.24-2.81,0,0-1.8,3.2-4.61.37,0,0-3.02-4.1-5.8-2.77-.06.03-.13.07-.19.11-.03.01-.05.03-.08.04-.03-.02-.06-.03-.1-.05-2.82-1.59-5.98,2.68-5.98,2.68-2.8,2.83-4.61-.37-4.61-.37.05,1.02.27,1.71.66,2.24l.02.02s.07.08.18.18c.1.1.26.23.48.37,0,0,0,0,.01,0,.22.12.49.25.84.34.27.09.65.11,1.11.09-.06.37-.1.77-.1,1.18,0,.75.12,1.45.32,2.07-2.37-1.24-4.35-3.09-5.76-5.34-.32-.51-.61-1.05-.87-1.6-.19-1.27-.32-2.72-.32-4.34,0-.49.05-.99.14-1.5.75-4.33,4.31-8.97,4.31-8.97,0,0-2.05,3.63-2.46,7.63-.41,3.99,1.74,7.09,1.74,7.09,0,0-.43-4.74,1.08-8.52.76-1.9,2-3.55,4.04-4.24,0,0,0,0,0,0-1.09,3.06,1.1,5.63,1.1,5.63,0,0,0-.77.23-1.95.36-1.99,1.33-5.14,3.83-7.83.06-.06.12-.12.18-.18.07-.07.13-.14.19-.2,1.31-1.3,3.01-2.47,5.21-3.31l.21.32,4.85,7.25c.24.33.63.89,1.07,1.61.89,1.42,2.01,3.46,2.64,5.56.3.99.49,2,.49,2.96,0,.11,0,.22,0,.33-.35,1.14-.65,1.96-.74,2.23-.16.37-.34.73-.52,1.09ZM37.75,51.29c.37-.05.75-.08,1.14-.08.03,0,.06,0,.09,0h.02s.04,0,.06,0c.06,0,.12,0,.17,0,0,0,.01,0,.02,0,.33.01.65.03.96.08.99.14,1.9-.17,2.7-.31.1.02.21.03.31.05.4.06.8.11,1.21.14.1.07.19.14.27.24.02.23.03.46.03.69,0,.87-.16,1.68-.43,2.36-.18.1-.38.18-.59.27-.1.04-.2.08-.3.12h0c-.28.1-.58.2-.89.28,0-.01,0-.02,0-.03,0-.1-.04-.2-.1-.29-.06-.08-.13-.16-.23-.23-.53-.39-1.64-.67-2.94-.7,0,0-.01,0-.02,0-.05,0-.11,0-.16,0,0,0,0,0,0,0-.03,0-.05,0-.08,0-.03,0-.06,0-.09,0,0,0,0,0-.01,0-1.38,0-2.56.29-3.11.7-.07.05-.13.1-.17.15-.1.12-.16.24-.16.37,0,0,0,.02,0,.03-.13-.03-.25-.07-.37-.11,0,0,0,0,0,0-.1-.03-.2-.06-.29-.09-.41-.14-.79-.29-1.12-.46-.27-.68-.43-1.49-.43-2.36,0-.24.01-.47.03-.69.53-.61,1.22-.55,2.02-.39.74.15,1.58.39,2.47.27Z"/>
    </g>
  </g>
</svg>