<?xml version="1.0" encoding="UTF-8"?>
<svg id="Layer_2" data-name="Layer 2" xmlns="http://www.w3.org/2000/svg" xmlns:xlink="http://www.w3.org/1999/xlink" viewBox="0 0 221.6 223.72">
  <defs>
    <style>
      .cls-1 {
        fill: none;
      }

      .cls-2 {
        fill: #462e1b;
      }

      .cls-3 {
        fill: #ba9d82;
      }

      .cls-4 {
        fill: #ccad8a;
      }

      .cls-5 {
        fill: #d7bd9d;
      }

      .cls-6 {
        fill: #b0bc48;
      }

      .cls-7 {
        fill: #43423d;
      }

      .cls-8 {
        fill: #c1a587;
      }

      .cls-9 {
        fill: #dac6a4;
      }

      .cls-10 {
        fill: #fff;
      }

      .cls-11 {
        fill: #48362f;
      }

      .cls-12 {
        fill: #dcc5a0;
      }

      .cls-13 {
        fill: #272213;
      }

      .cls-14 {
        fill: #ecdab6;
      }

      .cls-15 {
        fill: #b8987d;
      }

      .cls-16 {
        fill: #d3897e;
      }

      .cls-17 {
        fill: #7d351a;
      }

      .cls-18 {
        fill: #ebd9b5;
      }

      .cls-19 {
        fill: #ce6c16;
      }

      .cls-20 {
        fill: #a98d76;
      }

      .cls-21 {
        fill: #714223;
      }

      .cls-22 {
        fill: #b7967d;
      }

      .cls-23 {
        clip-path: url(#clippath);
      }

      .cls-24 {
        fill: #d2bb9b;
      }

      .cls-25 {
        fill: #b5957e;
      }
    </style>
    <clipPath id="clippath">
      <rect class="cls-1" x="98.56" y="154.91" width="25.12" height="14.86"/>
    </clipPath>
  </defs>
  <g id="Layer_1-2" data-name="Layer 1">
    <g>
      <rect class="cls-16" width="221.6" height="223.72"/>
      <path class="cls-11" d="M86.98,141c-.79-.63-15.13-10.13-15.13-10.13.98,5.91,1.72,8.34.28,12.35-1.3,3.61-3.78,5.01-5.16,6.27-1.38,1.27-4.17,2.22-5.15,2.22s-2.1-.19-2.1-.19c0,0,2.28,1.35,7.99,1.08,2.4-.11,3.93-.76,4.92-1.5-1.13,1.96-2.19,4.77-1,7.37,4.31,9.46-1.44,12.55-1.44,12.55,0,0,5.1-.55,8.03-3.32.01.07,0,.17.02.23,1.3,4.73,4.72,5.26,4.72,5.26,0,0-2.16-.39-1.75-4.78.11-1.17,1.24-1.63,2.66-2.42.55,4.25,2.33,8.58-1.36,10.35,0,0,6.24-1.33,7.38-5.31.21-.73.32-1.4.42-2.08.1.38.23.72.3,1.12.88,5.07-2.7,9.99-2.7,9.99,0,0,12.95-1.48,13.04-7,.01-.83.17-4.21.57-5.47.39-1.27,1.18-7.6,1.18-7.6,0,0-14.94-18.35-15.73-18.99Z"/>
      <path class="cls-11" d="M137.61,141c.79-.63,15.14-10.13,15.14-10.13-.98,5.91-1.72,8.34-.28,12.35,1.3,3.61,3.78,5.01,5.16,6.27,1.38,1.27,4.17,2.22,5.15,2.22s2.09-.19,2.09-.19c0,0-2.28,1.35-7.99,1.08-2.4-.11-3.93-.76-4.91-1.5,1.13,1.96,2.19,4.77,1,7.37-4.32,9.46,1.44,12.55,1.44,12.55,0,0-5.1-.55-8.03-3.32-.01.07,0,.17-.02.23-1.3,4.73-4.72,5.26-4.72,5.26,0,0,2.16-.39,1.75-4.78-.11-1.17-1.24-1.63-2.65-2.42-.55,4.25-2.33,8.58,1.36,10.35,0,0-6.24-1.33-7.38-5.31-.21-.73-.32-1.4-.42-2.08-.1.38-.23.72-.3,1.12-.88,5.07,2.7,9.99,2.7,9.99,0,0-12.94-1.48-13.04-7,0-.83-.17-4.21-.56-5.47-.4-1.27-1.18-7.6-1.18-7.6,0,0,14.94-18.35,15.72-18.99Z"/>
      <path class="cls-12" d="M111.02,139.65v84.07h-45.32c-.74-.29-1.11-.45-1.11-.45,0-7.86.84-14.45,2.24-19.98.51-2.03,1.08-3.9,1.72-5.64,2.49-6.79,5.85-11.58,9.28-14.94,2.98-2.95,6-4.81,8.51-5.99,1.31-.61,2.47-1.04,3.41-1.34,1.6-.49,2.58-.61,2.58-.61.17,0,.32-.02.49-.03,1.43-.23,2.58-1.47,3.52-3.46.69-1.47,1.27-3.36,1.74-5.54.2-.84.34-1.7.49-2.63.22-1.55.43-3.18.63-4.88.06-1.03.18-2.03.29-3.1.4-5.14.51-10.78.51-16.11,0,0,6.1.63,11.03.63Z"/>
      <path class="cls-18" d="M157.65,223.28s-.4.15-1.08.45h-45.55v-84.07h.12c4.9,0,11.06-.63,11.06-.63,0,5.3.11,10.84.52,15.99.11,1.01.22,2.04.29,3.04.18,1.78.41,3.44.66,5.01v.03c.08.71.22,1.34.34,2,.45,2.18.98,4.12,1.64,5.65.81,1.92,1.81,3.26,3.01,3.79.38.17.78.25,1.21.25,0,0,1.74.22,4.36,1.24.71.28,1.47.63,2.3,1.04,2.27,1.12,4.9,2.83,7.49,5.31,3.56,3.39,7.08,8.28,9.64,15.28.65,1.74,1.23,3.61,1.72,5.64,1.4,5.53,2.24,12.12,2.24,19.98Z"/>
      <g class="cls-23">
        <path class="cls-3" d="M123.68,162.89v.04c-1.14,1.77-4.98,6.84-12.58,6.84h-.07c-7.19-.04-11.4-5.26-12.47-6.8.22-1.54.44-3.16.63-4.85.07-.99.18-2.02.3-3.09,3.5.88,7.34,1.43,11.4,1.51h.15c4.2-.07,8.08-.66,11.69-1.62.11.99.22,2.02.3,3.02.18,1.77.41,3.42.66,4.96"/>
      </g>
      <path class="cls-4" d="M110.51,43.85c-48.02,0-48.28,40.27-46.14,66.64-3.28-6.25-13.06-4.34-12.25,5.52.77,9.49,14.74,14.32,14.35,13.28,7.27,19.5,26.52,34.2,44.04,34.2h.37V43.85h-.37"/>
      <path class="cls-20" d="M55.19,111.85c2.36-3.82,6.05-2.17,6.93-1.32.96.92,1.73,2.1,1.14,4.34-.33,1.29-1.66,1.4-1.36,3.31.37,2.17,1.36,2.28,1.95,2.79.55.48,1.25.85,1.59,1.77.37.92.41,1.88.22,2.72-.37,1.54-2.62.29-4.13-.37-1-.48-4.17-3.16-4.98-4.05-1.99-2.28-2.95-6.69-1.36-9.19"/>
      <path class="cls-5" d="M110.77,43.85c48.02,0,48.28,40.27,46.18,66.64,3.28-6.25,13.02-4.34,12.21,5.52-.74,9.49-14.73,14.33-14.35,13.28-7.08,19.5-26.52,34.2-44.04,34.2h-.26l-.11-119.63h.37"/>
      <path class="cls-20" d="M166.1,111.85c-2.36-3.82-6.01-2.17-6.93-1.32-.96.92-1.7,2.1-1.14,4.34.33,1.29,1.66,1.4,1.36,3.31-.37,2.17-1.36,2.28-1.92,2.79-.55.48-1.29.85-1.62,1.77-.33.92-.41,1.88-.22,2.72.37,1.54,2.62.29,4.13-.37,1.03-.48,4.17-3.16,4.98-4.05,2.03-2.28,2.95-6.69,1.36-9.19"/>
      <path class="cls-12" d="M110.14,55.21c-15.79,0-27.37,4.6-34.34,13.64-9.77,12.69-9.41,32.03-5.83,45.93,1.11,4.27,1.7,15.7,2.43,19.9,3.43,18.79,24.12,28.8,37.73,28.8h.37V55.21h-.22"/>
      <path class="cls-18" d="M144.44,68.89c-6.93-9.01-18.37-13.61-33.93-13.68v108.27c15.57-.18,34.19-11.14,37.36-28.8.77-4.19,1.33-15.63,2.43-19.9,3.61-13.86,3.98-33.17-5.86-45.9"/>
      <path class="cls-1" d="M108.58,140.35c-.22-.04-.42-.08-.59-.11.2.04.4.08.59.11Z"/>
      <path class="cls-1" d="M107.76,144.24c-.14-.03-.27-.06-.36-.08.12.03.24.05.36.08Z"/>
      <path class="cls-22" d="M107.99,144.29c-.08-.02-.15-.03-.23-.05.07.02.14.03.23.05Z"/>
      <path class="cls-22" d="M107.4,144.16c-.07-.02-.13-.04-.2-.06h0s.08.02.21.06Z"/>
      <path class="cls-5" d="M101.34,129.47c-.18-3.74,6.85-1.37,9.17-1.25,1.83.09,7.41-1.18,7.89-.85,3.28,2.22-3.47,6.69-8,6.69-1.21,0-8.94-2.33-9.05-4.58Z"/>
      <path class="cls-1" d="M67.45,88.96c-.43,1.44-.73,3-.93,4.67,0,0,.63-2.64,2.03-6.54-.6.83-1,1.5-1.1,1.87Z"/>
      <path class="cls-1" d="M108.73,142.21c-.22-.04-.43-.08-.61-.12.21.04.41.09.61.12Z"/>
      <path class="cls-1" d="M107.89,142.04c-.14-.03-.28-.06-.37-.09.12.03.24.06.37.09Z"/>
      <path class="cls-25" d="M108.12,142.09c-.08-.02-.15-.03-.23-.05.08.02.14.03.23.05Z"/>
      <path class="cls-25" d="M107.52,141.96c-.07-.02-.14-.04-.21-.06h0s.08.03.21.06Z"/>
      <path class="cls-10" d="M76.05,97.47s3.66,15.08,9.95,16.31c6.29,1.23,13.1-1.22,13.1-1.22,0,0,.65-17.72-2.57-20.03-3.22-2.33-10.64-5.69-20.48,4.94Z"/>
      <path class="cls-24" d="M99.11,112.51s-.14.04-.47.18c-.08-5.43-.58-12.9-2.59-14.33-2.99-2.2-9.74-5.29-18.76,3.17-.82-2.34-1.23-4.11-1.23-4.11,9.86-10.65,17.29-7.29,20.48-4.97,3.22,2.32,2.57,20.06,2.57,20.06Z"/>
      <ellipse class="cls-2" cx="89.2" cy="104.84" rx="6.19" ry="6.21"/>
      <path class="cls-21" d="M88.91,108.97c-1.79-.15-3.16-1.96-3-3.95.16-1.99,1.81-3.55,3.6-3.4,1.79.15,3.16,1.96,3,3.94-.16,1.99-1.81,3.55-3.6,3.4Z"/>
      <path class="cls-13" d="M89.07,108.26c-1.24-.11-2.54-1.48-2.4-3.16.14-1.69,1.63-2.83,2.88-2.73,1.25.11,2.53,1.48,2.4,3.17-.14,1.69-1.63,2.83-2.88,2.73Z"/>
      <path class="cls-10" d="M88.06,104.09c-.05.61-.68,1.06-1.39,1-.72-.06-1.26-.61-1.21-1.21.05-.61.67-1.06,1.39-1,.72.06,1.26.6,1.21,1.22Z"/>
      <path class="cls-10" d="M92.07,107.62c-.03.3-.34.53-.69.5-.36-.03-.63-.3-.61-.61.03-.3.34-.53.69-.5.36.03.63.3.61.61Z"/>
      <path class="cls-1" d="M108.83,143.99c-.22-.04-.43-.08-.61-.12.21.04.41.09.61.12Z"/>
      <path class="cls-1" d="M107.98,143.82c-.14-.03-.28-.06-.37-.09.12.03.24.06.37.09Z"/>
      <path class="cls-25" d="M108.22,143.87c-.08-.02-.15-.03-.23-.05.08.02.14.03.23.05Z"/>
      <path class="cls-25" d="M107.61,143.73c-.07-.02-.14-.04-.21-.06h0s.08.02.21.06Z"/>
      <path class="cls-1" d="M108.59,143.57c-.24-.04-.46-.08-.65-.13.22.05.44.09.65.13Z"/>
      <path class="cls-1" d="M107.69,143.39c-.15-.03-.3-.07-.4-.09.13.03.26.06.4.09Z"/>
      <path class="cls-22" d="M107.93,143.44c-.08-.02-.17-.03-.25-.05.08.02.15.03.25.05Z"/>
      <path class="cls-22" d="M107.29,143.3c-.08-.02-.15-.04-.22-.06h0s.09.03.23.06Z"/>
      <path class="cls-1" d="M108.4,142.94c-.24-.04-.46-.08-.65-.12.22.05.44.09.65.12Z"/>
      <path class="cls-1" d="M107.5,142.76c-.15-.03-.3-.07-.4-.09.13.03.26.06.4.09Z"/>
      <path class="cls-22" d="M107.75,142.81c-.08-.02-.17-.03-.25-.05.08.02.15.03.25.05Z"/>
      <path class="cls-22" d="M107.1,142.67c-.08-.02-.15-.04-.22-.06h0s.09.03.23.06Z"/>
      <path class="cls-1" d="M108.96,142.85c-.23-.04-.44-.08-.63-.12.21.05.42.09.63.12Z"/>
      <path class="cls-1" d="M108.08,142.68c-.14-.03-.29-.06-.38-.09.13.03.25.06.38.09Z"/>
      <path class="cls-22" d="M108.32,142.73c-.08-.02-.16-.03-.24-.05.08.02.15.03.24.05Z"/>
      <path class="cls-22" d="M107.7,142.59c-.07-.02-.14-.04-.21-.06h0s.08.03.22.06Z"/>
      <path class="cls-10" d="M145.33,96.96s-3.66,15.08-9.95,16.31c-6.29,1.23-13.1-1.22-13.1-1.22,0,0-.65-17.72,2.57-20.03,3.22-2.33,10.64-5.69,20.48,4.94Z"/>
      <path class="cls-24" d="M122.27,112s.14.04.47.18c.08-5.43.58-12.9,2.59-14.33,2.99-2.2,9.74-5.29,18.76,3.17.82-2.34,1.23-4.11,1.23-4.11-9.86-10.65-17.29-7.29-20.48-4.97-3.22,2.32-2.57,20.06-2.57,20.06Z"/>
      <path class="cls-2" d="M126,104.32c0,3.43,2.77,6.21,6.19,6.21s6.19-2.78,6.19-6.21-2.77-6.21-6.19-6.21-6.19,2.78-6.19,6.21Z"/>
      <path class="cls-21" d="M132.48,108.46c1.79-.15,3.16-1.96,3-3.95-.16-1.99-1.81-3.55-3.6-3.4-1.79.15-3.16,1.96-3,3.94.16,1.99,1.81,3.55,3.6,3.4Z"/>
      <path class="cls-13" d="M132.32,107.74c1.24-.11,2.54-1.48,2.4-3.16-.14-1.69-1.63-2.83-2.88-2.73-1.24.11-2.53,1.48-2.4,3.17.14,1.69,1.63,2.83,2.88,2.73Z"/>
      <path class="cls-10" d="M133.33,103.58c.05.61.68,1.06,1.39,1,.72-.06,1.26-.61,1.21-1.21-.05-.61-.67-1.06-1.39-1-.72.06-1.26.6-1.21,1.22Z"/>
      <path class="cls-10" d="M129.32,107.11c.03.3.34.53.69.5.36-.03.63-.3.61-.61-.03-.3-.34-.53-.69-.5-.36.03-.63.3-.61.61Z"/>
      <g>
        <path d="M102.88,97.23c-.05-.07-1.19-1.81-3.52-3.61-1.46-1.13-2.89-1.98-4.38-2.62-1.81-.76-3.75-1.3-5.64-1.56-1.7-.19-3.59-.14-5.8.16-1.68.32-3.32.82-4.72,1.44-.99.34-1.78.83-2.41,1.21-.24.15-.46.28-.68.4l-3,1.9,3.46-.82c.16-.04.34-.09.52-.14.72-.19,1.61-.43,2.65-.58.24-.04.49-.09.75-.14.44-.09.89-.18,1.36-.2.52-.04,1.07-.07,1.63-.11l.73-.05c1.92-.02,3.54.12,4.98.45,1.57.27,3.19.78,4.67,1.47,1.4.67,2.74,1.34,3.79,2.11,2.12,1.42,3.29,2.6,3.3,2.61h0c.29.29.68.45,1.07.45.28,0,.57-.08.82-.25.7-.46.89-1.4.45-2.08l-.03-.05Z"/>
        <path d="M145.95,92.64c-.2-.11-.42-.24-.66-.39-.63-.39-1.41-.87-2.38-1.2-1.42-.63-3.06-1.13-4.77-1.45-2.19-.29-4.08-.35-5.79-.15-1.88.26-3.82.8-5.63,1.56-1.47.63-2.94,1.51-4.38,2.62-2.29,1.76-3.43,3.47-3.52,3.6l-.02.03c-.39.6-.3,1.4.2,1.9.28.29.66.45,1.07.45h0c.4,0,.78-.16,1.06-.45h.01c.11-.12,1.25-1.24,3.31-2.62,1.03-.76,2.37-1.43,3.77-2.1,1.49-.69,3.11-1.2,4.7-1.48,1.42-.33,3.04-.47,4.93-.45l.76.05c.55.04,1.09.08,1.62.11.46.02.92.11,1.35.2.25.05.5.1.75.14,1.05.15,1.94.39,2.65.58.19.05.36.1.53.14l3.46.82-3.03-1.91Z"/>
      </g>
      <path class="cls-1" d="M107.77,145.78c-.23-.04-.45-.08-.64-.12.22.05.43.09.64.12Z"/>
      <path class="cls-1" d="M106.89,145.6c-.15-.03-.29-.07-.39-.09.13.03.26.06.39.09Z"/>
      <path class="cls-15" d="M107.13,145.65c-.08-.02-.16-.03-.24-.05.08.02.15.03.24.05Z"/>
      <path class="cls-15" d="M106.5,145.51c-.07-.02-.14-.04-.22-.06h0s.08.03.22.06Z"/>
      <path class="cls-14" d="M101.63,148.76c-.18-2.42,6.73.51,9,.58,1.81.06,7.25-.36,7.75-.55,3.8-1.43-.21,4.05-7.87,4.34-3.51.14-8.78-2.9-8.89-4.37Z"/>
      <path class="cls-9" d="M124.13,144.09c-1.88-.09-3.8,1.48-6.06,1.24-.09-.05-.14-.05-.23-.05-.52-.09-1.03,0-1.6.14-.7.15-1.41.43-2.07.66-1.13.37-2.4.66-3.71.56h0s-.05,0-.07,0-.05,0-.07,0h0c-1.31.09-2.58-.2-3.71-.57-.66-.23-1.37-.52-2.07-.66-.56-.14-1.08-.23-1.6-.14-.1,0-.14,0-.23.05-2.26.24-4.18-1.33-6.06-1.24-.52.05-1.27-.09-1.69-.09.09.05.19.09.29.14,5.35,2.62,9.96,7.52,15.08,7.36h.15c5.11.16,9.73-4.74,15.08-7.36.1-.05.19-.09.29-.14-.42,0-1.17.14-1.69.09Z"/>
      <path class="cls-8" d="M125.71,143.94h0s-5.44-2.1-9.31-.87c0,0-1.44.56-2.93.91-.91.35-2.01.46-3.07.41h0c-.81-.03-1.59-.14-2.22-.25-.21-.03-.42-.08-.64-.12-.09-.02-.16-.03-.24-.05-.13-.03-.26-.06-.39-.09-.14-.03-.22-.06-.22-.06h0c-1.24-.34-2.3-.75-2.3-.75-3.87-1.23-9.31.87-9.31.87h0c-.07.03-.12.06-.12.06.42,0,1.17.14,1.69.09,1.88-.09,3.8,1.48,6.06,1.24.09-.05.14-.05.23-.05.52-.09,1.03,0,1.6.14.7.15,1.41.43,2.07.66,1.13.37,2.4.66,3.71.56h0s.05,0,.07,0,.05,0,.07,0h0c1.31.09,2.58-.2,3.71-.57.66-.23,1.37-.52,2.07-.66.56-.14,1.08-.23,1.6-.14.1,0,.14,0,.23.05,2.26.24,4.18-1.33,6.06-1.24.52.05,1.27-.09,1.69-.09,0,0-.05-.02-.12-.06Z"/>
      <path class="cls-8" d="M101.26,145.22c.1.02,10.19,3.11,18.09.07l-.91-.61h-10.67l-6.51.55Z"/>
      <path class="cls-11" d="M159.24,88.93c0,1.92-.21,5.05-.55,7.48-.18,1.55-.43,2.78-.67,3.29-.27.6-2.22,6.16-2.37,8.31-.91.92-1.95,2.11-2.65,4.05-1.43,3.91-2.01,3.25-2.01,3.25,0,0,.46-3.1.97-6.88.31-3.19.73-7.93,1.07-12.01.03-.57.09-1.14.12-1.67-.64-3.29-6.6-19.05-34.97-17.57-4.56.22-9.19-1.55-12.78-3.44-3.71-1.93-6.3-3.98-6.54-3.98-1.25,0-12.6-2.18-19.26,2.97-.43.32-.82.66-1.19,1.01-7.91,7.11-9.01,19.46-9.01,21.92,0,.22,0,.48.03.76.21,5.09-.33,18.95-.33,18.95,0,0-2.53,1-3.99-2.91-.82-2.28,2.43-3.97,1.4-4.92-1.59-3.47-2.47-4.55-3.26-7.83-.21-.91-.88-1.8-1.58-3.29-1.52-3.1-3.25-8.81-1.43-22.68.09-.63.18-1.26.27-1.93,1.4-9.47,8.34-30.76,26.66-34.55,18.32-3.82,22.58-8.24,37.55-1.89,14.97,6.32,24.43,10.77,29.03,21.23,2.07,4.77,3.41,11.21,4.2,17.15,1,7.11,1.28,13.45,1.28,15.2Z"/>
      <path class="cls-6" d="M70.36,114.58c1.5,12.72,2.58,22.58-3.56,23.19-6.14.61-12.32-9.2-13.82-21.92-1.49-12.71,2.27-23.52,8.4-24.13,6.14-.61,7.48,10.15,8.98,22.87Z"/>
      <path class="cls-7" d="M65.32,115.21c1.38,11.71,2.37,20.79-3.28,21.35-5.65.57-11.35-8.47-12.72-20.18-1.38-11.71,2.09-21.66,7.73-22.22,5.65-.57,6.89,9.34,8.27,21.05Z"/>
      <path class="cls-6" d="M148.34,114.58c-1.5,12.72-2.58,22.58,3.56,23.19,6.14.61,12.32-9.2,13.82-21.92,1.49-12.71-2.27-23.52-8.4-24.13-6.14-.61-7.48,10.15-8.98,22.87Z"/>
      <path class="cls-7" d="M153.38,115.21c-1.38,11.71-2.37,20.79,3.28,21.35,5.65.57,11.35-8.47,12.72-20.18,1.38-11.71-2.09-21.66-7.73-22.22-5.65-.57-6.89,9.34-8.27,21.05Z"/>
      <g>
        <path class="cls-19" d="M148.77,223.72h-75.22c.23-3.69.45-10.38.35-19.4v-1.03h-7.06c.51-2.03,1.08-3.9,1.72-5.64,2.49-6.79,5.85-11.58,9.28-14.94,5.68,8.51,17.68,22.99,33.19,22.85,9.83-.09,21.09-6.07,33.02-23.19,3.56,3.39,7.08,8.28,9.64,15.28.65,1.74,1.23,3.61,1.72,5.64h-7v.72c-.14,9.15.12,15.99.37,19.7Z"/>
        <path class="cls-17" d="M144.04,182.38c-11.93,17.12-23.19,23.1-33.02,23.19-15.51.14-27.51-14.34-33.19-22.85,2.98-2.95,6-4.81,8.51-5.99,4.65,6.87,13.65,17.62,24.68,18.4,7.77.55,16.56-3.84,25.53-18.06,2.27,1.12,4.9,2.83,7.49,5.31Z"/>
      </g>
    </g>
  </g>
</svg>