<?xml version="1.0" encoding="UTF-8"?>
<svg id="Layer_2" data-name="Layer 2" xmlns="http://www.w3.org/2000/svg" xmlns:xlink="http://www.w3.org/1999/xlink" viewBox="0 0 221.6 223.87">
  <defs>
    <style>
      .cls-1 {
        fill: none;
      }

      .cls-2 {
        fill: #462e1b;
      }

      .cls-3 {
        fill: #ba9d82;
      }

      .cls-4 {
        fill: #ccad8a;
      }

      .cls-5 {
        fill: url(#Névtelen_színátmenet_11);
      }

      .cls-5, .cls-6, .cls-7 {
        opacity: .54;
      }

      .cls-8 {
        fill: #d7bd9d;
      }

      .cls-9 {
        fill: #c1a587;
      }

      .cls-6 {
        fill: url(#Névtelen_színátmenet_11-2);
      }

      .cls-10 {
        fill: #dac6a4;
      }

      .cls-11 {
        fill: #60151c;
      }

      .cls-12 {
        fill: #fff;
      }

      .cls-13 {
        fill: #dcc5a0;
      }

      .cls-14 {
        fill: #272213;
      }

      .cls-15 {
        fill: #ecdab6;
      }

      .cls-16 {
        fill: #8b1921;
      }

      .cls-17 {
        fill: #b8987d;
      }

      .cls-18 {
        fill: #ebd9b5;
      }

      .cls-19 {
        fill: #a98d76;
      }

      .cls-20 {
        fill: #7fa6ad;
      }

      .cls-7 {
        fill: #a9cec8;
      }

      .cls-21 {
        fill: #714223;
      }

      .cls-22 {
        fill: #b7967d;
      }

      .cls-23 {
        clip-path: url(#clippath);
      }

      .cls-24 {
        fill: #d2bb9b;
      }

      .cls-25 {
        fill: #b5957e;
      }
    </style>
    <clipPath id="clippath">
      <rect class="cls-1" x="98.56" y="154.91" width="25.12" height="14.86"/>
    </clipPath>
    <linearGradient id="Névtelen_színátmenet_11" data-name="Névtelen színátmenet 11" x1="135.44" y1="89.66" x2="135.66" y2="130.95" gradientUnits="userSpaceOnUse">
      <stop offset="0" stop-color="#fff"/>
      <stop offset="1" stop-color="#8dbdac"/>
    </linearGradient>
    <linearGradient id="Névtelen_színátmenet_11-2" data-name="Névtelen színátmenet 11" x1="84.97" y1="89.93" x2="85.19" y2="131.22" xlink:href="#Névtelen_színátmenet_11"/>
  </defs>
  <g id="Layer_1-2" data-name="Layer 1">
    <g>
      <rect class="cls-20" width="221.6" height="223.72"/>
      <path class="cls-13" d="M111.03,139.65v84.07h-45.33c-.74-.3-1.11-.44-1.11-.44,0-10.73,1.57-19.1,3.96-25.62,5.77-15.75,16.33-20.75,21.2-22.26,1.6-.5,2.58-.61,2.58-.61.17,0,.33-.02.5-.04,1.43-.23,2.59-1.47,3.52-3.46.69-1.47,1.27-3.35,1.74-5.53.19-.85.33-1.7.48-2.63.22-1.55.44-3.18.63-4.89.07-1.04.18-2.03.29-3.11.4-5.14.52-10.77.52-16.1,0,0,6.09.63,11.03.63Z"/>
      <path class="cls-18" d="M157.65,223.27s-.41.15-1.07.44h-45.55v-84.07h.11c4.91,0,11.07-.63,11.07-.63,0,5.29.11,10.85.51,15.99.11,1,.22,2.03.29,3.04.19,1.78.41,3.44.67,5v.03c.07.71.22,1.34.33,2,.45,2.19.99,4.11,1.65,5.65.82,1.92,1.81,3.26,3.01,3.79.38.17.79.26,1.21.26,0,0,1.74.21,4.36,1.24,5.34,2.1,14.3,7.6,19.45,21.63,2.39,6.52,3.96,14.89,3.96,25.62Z"/>
      <g class="cls-23">
        <path class="cls-3" d="M123.68,162.89v.04c-1.14,1.77-4.98,6.84-12.58,6.84h-.07c-7.19-.04-11.4-5.26-12.47-6.8.22-1.54.44-3.16.63-4.85.07-.99.18-2.02.3-3.09,3.5.88,7.34,1.43,11.4,1.51h.15c4.2-.07,8.08-.66,11.69-1.62.11.99.22,2.02.3,3.02.18,1.77.41,3.42.66,4.96"/>
      </g>
      <path class="cls-4" d="M110.52,43.85c-48.02,0-48.28,40.27-46.14,66.64-3.28-6.25-13.06-4.34-12.25,5.52.77,9.49,14.74,14.32,14.35,13.28,7.27,19.5,26.52,34.2,44.04,34.2h.37V43.85h-.37"/>
      <path class="cls-19" d="M55.19,111.85c2.36-3.82,6.05-2.17,6.93-1.32.96.92,1.73,2.1,1.14,4.34-.33,1.29-1.66,1.4-1.36,3.31.37,2.17,1.36,2.28,1.95,2.79.55.48,1.25.85,1.59,1.77.37.92.41,1.88.22,2.72-.37,1.54-2.62.29-4.13-.37-1-.48-4.17-3.16-4.98-4.05-1.99-2.28-2.95-6.69-1.36-9.19"/>
      <path class="cls-8" d="M110.77,43.85c48.02,0,48.28,40.27,46.18,66.64,3.28-6.25,13.02-4.34,12.21,5.52-.74,9.49-14.73,14.33-14.35,13.28-7.08,19.5-26.52,34.2-44.04,34.2h-.26l-.11-119.63h.37"/>
      <path class="cls-19" d="M166.1,111.85c-2.36-3.82-6.01-2.17-6.93-1.32-.96.92-1.7,2.1-1.14,4.34.33,1.29,1.66,1.4,1.36,3.31-.37,2.17-1.36,2.28-1.92,2.79-.55.48-1.29.85-1.62,1.77-.33.92-.41,1.88-.22,2.72.37,1.54,2.62.29,4.13-.37,1.03-.48,4.17-3.16,4.98-4.05,2.03-2.28,2.95-6.69,1.36-9.19"/>
      <path class="cls-13" d="M110.14,55.21c-15.79,0-27.37,4.6-34.34,13.64-9.77,12.69-9.41,32.03-5.83,45.93,1.11,4.27,1.7,15.7,2.43,19.9,3.43,18.79,24.12,28.8,37.73,28.8h.37V55.21h-.22"/>
      <path class="cls-18" d="M144.44,68.89c-6.93-9.01-18.37-13.61-33.93-13.68v108.27c15.57-.18,34.19-11.14,37.36-28.8.77-4.19,1.33-15.63,2.43-19.9,3.61-13.86,3.98-33.17-5.86-45.9"/>
      <path class="cls-1" d="M108.58,140.35c-.22-.04-.42-.08-.59-.11.2.04.4.08.59.11Z"/>
      <path class="cls-1" d="M107.76,144.24c-.14-.03-.27-.06-.36-.08.12.03.24.05.36.08Z"/>
      <path class="cls-22" d="M107.99,144.29c-.08-.02-.15-.03-.23-.05.07.02.14.03.23.05Z"/>
      <path class="cls-22" d="M107.4,144.16c-.07-.02-.13-.04-.2-.06h0s.08.02.21.06Z"/>
      <path class="cls-8" d="M101.34,131.14c-.18-3.74,6.85-1.37,9.17-1.25,1.83.09,7.41-1.18,7.89-.85,3.28,2.22-3.47,6.69-8,6.69-1.21,0-8.94-2.33-9.05-4.58Z"/>
      <path class="cls-1" d="M67.45,88.96c-.43,1.44-.73,3-.93,4.67,0,0,.63-2.64,2.03-6.54-.6.83-1,1.5-1.1,1.87Z"/>
      <path class="cls-1" d="M108.73,142.21c-.22-.04-.43-.08-.61-.12.21.04.41.09.61.12Z"/>
      <path class="cls-1" d="M107.89,142.04c-.14-.03-.28-.06-.37-.09.12.03.24.06.37.09Z"/>
      <path class="cls-25" d="M108.12,142.09c-.08-.02-.15-.03-.23-.05.08.02.14.03.23.05Z"/>
      <path class="cls-25" d="M107.52,141.96c-.07-.02-.14-.04-.21-.06h0s.08.03.21.06Z"/>
      <path class="cls-12" d="M76.05,97.47s3.66,15.08,9.95,16.31c6.29,1.23,13.1-1.22,13.1-1.22,0,0,.65-17.72-2.57-20.03-3.22-2.33-10.64-5.69-20.48,4.94Z"/>
      <path class="cls-24" d="M99.11,112.51s-.14.04-.47.18c-.08-5.43-.58-12.9-2.59-14.33-2.99-2.2-9.74-5.29-18.76,3.17-.82-2.34-1.23-4.11-1.23-4.11,9.86-10.65,17.29-7.29,20.48-4.97,3.22,2.32,2.57,20.06,2.57,20.06Z"/>
      <ellipse class="cls-2" cx="89.2" cy="104.84" rx="6.19" ry="6.21"/>
      <path class="cls-21" d="M88.91,108.97c-1.79-.15-3.16-1.96-3-3.95.16-1.99,1.81-3.55,3.6-3.4,1.79.15,3.16,1.96,3,3.94-.16,1.99-1.81,3.55-3.6,3.4Z"/>
      <path class="cls-14" d="M89.07,108.26c-1.24-.11-2.54-1.48-2.4-3.16.14-1.69,1.63-2.83,2.88-2.73,1.24.11,2.53,1.48,2.4,3.17-.14,1.69-1.63,2.83-2.88,2.73Z"/>
      <path class="cls-12" d="M88.06,104.09c-.05.61-.68,1.06-1.39,1-.72-.06-1.26-.61-1.21-1.21.05-.61.67-1.06,1.39-1,.72.06,1.26.6,1.21,1.22Z"/>
      <path class="cls-12" d="M92.07,107.62c-.03.3-.34.53-.69.5-.36-.03-.63-.3-.61-.61.03-.3.34-.53.69-.5.36.03.63.3.61.61Z"/>
      <path class="cls-1" d="M108.83,143.99c-.22-.04-.43-.08-.61-.12.21.04.41.09.61.12Z"/>
      <path class="cls-1" d="M107.98,143.82c-.14-.03-.28-.06-.37-.09.12.03.24.06.37.09Z"/>
      <path class="cls-25" d="M108.22,143.87c-.08-.02-.15-.03-.23-.05.08.02.14.03.23.05Z"/>
      <path class="cls-25" d="M107.61,143.73c-.07-.02-.14-.04-.21-.06h0s.08.02.21.06Z"/>
      <path class="cls-1" d="M108.59,143.57c-.24-.04-.46-.08-.65-.13.22.05.44.09.65.13Z"/>
      <path class="cls-1" d="M107.69,143.39c-.15-.03-.3-.07-.4-.09.13.03.26.06.4.09Z"/>
      <path class="cls-22" d="M107.94,143.44c-.08-.02-.17-.03-.25-.05.08.02.15.03.25.05Z"/>
      <path class="cls-22" d="M107.29,143.3c-.08-.02-.15-.04-.22-.06h0s.09.03.23.06Z"/>
      <path class="cls-1" d="M108.4,142.94c-.24-.04-.46-.08-.65-.12.22.05.44.09.65.12Z"/>
      <path class="cls-1" d="M107.5,142.76c-.15-.03-.3-.07-.4-.09.13.03.26.06.4.09Z"/>
      <path class="cls-22" d="M107.75,142.81c-.08-.02-.17-.03-.25-.05.08.02.15.03.25.05Z"/>
      <path class="cls-22" d="M107.1,142.67c-.08-.02-.15-.04-.22-.06h0s.09.03.23.06Z"/>
      <path class="cls-1" d="M108.96,142.85c-.23-.04-.44-.08-.63-.12.21.05.42.09.63.12Z"/>
      <path class="cls-1" d="M108.08,142.68c-.14-.03-.29-.06-.38-.09.13.03.25.06.38.09Z"/>
      <path class="cls-22" d="M108.32,142.73c-.08-.02-.16-.03-.24-.05.08.02.15.03.24.05Z"/>
      <path class="cls-22" d="M107.7,142.59c-.07-.02-.14-.04-.21-.06h0s.08.03.22.06Z"/>
      <path class="cls-12" d="M145.33,96.96s-3.66,15.08-9.95,16.31c-6.29,1.23-13.1-1.22-13.1-1.22,0,0-.65-17.72,2.57-20.03,3.22-2.33,10.64-5.69,20.48,4.94Z"/>
      <path class="cls-24" d="M122.27,112s.14.04.47.18c.08-5.43.58-12.9,2.59-14.33,2.99-2.2,9.74-5.29,18.76,3.17.82-2.34,1.23-4.11,1.23-4.11-9.86-10.65-17.29-7.29-20.48-4.97-3.22,2.32-2.57,20.06-2.57,20.06Z"/>
      <path class="cls-2" d="M126,104.32c0,3.43,2.77,6.21,6.19,6.21s6.19-2.78,6.19-6.21-2.77-6.21-6.19-6.21-6.19,2.78-6.19,6.21Z"/>
      <path class="cls-21" d="M132.48,108.46c1.79-.15,3.16-1.96,3-3.95-.16-1.99-1.81-3.55-3.6-3.4-1.79.15-3.16,1.96-3,3.94.16,1.99,1.81,3.55,3.6,3.4Z"/>
      <path class="cls-14" d="M132.32,107.74c1.24-.11,2.54-1.48,2.4-3.16-.14-1.69-1.63-2.83-2.88-2.73-1.25.11-2.53,1.48-2.4,3.17.14,1.69,1.63,2.83,2.88,2.73Z"/>
      <path class="cls-12" d="M133.33,103.58c.05.61.68,1.06,1.39,1,.72-.06,1.26-.61,1.21-1.21-.05-.61-.67-1.06-1.39-1-.72.06-1.26.6-1.21,1.22Z"/>
      <path class="cls-12" d="M129.32,107.11c.03.3.34.53.69.5.36-.03.63-.3.61-.61-.03-.3-.34-.53-.69-.5-.36.03-.63.3-.61.61Z"/>
      <g>
        <path d="M102.88,97.23c-.05-.07-1.19-1.81-3.52-3.61-1.46-1.13-2.89-1.98-4.38-2.62-1.81-.76-3.75-1.3-5.64-1.56-1.7-.19-3.59-.14-5.8.16-1.68.32-3.32.82-4.72,1.44-.99.34-1.78.83-2.41,1.21-.24.15-.46.28-.68.4l-3,1.9,3.46-.82c.16-.04.34-.09.52-.14.72-.19,1.61-.43,2.65-.58.24-.04.49-.09.75-.14.44-.09.89-.18,1.36-.2.52-.04,1.07-.07,1.63-.11l.73-.05c1.92-.02,3.54.12,4.98.45,1.57.27,3.19.78,4.67,1.47,1.4.67,2.74,1.34,3.79,2.11,2.12,1.42,3.29,2.6,3.3,2.61h0c.29.29.68.45,1.07.45.28,0,.57-.08.82-.25.7-.46.89-1.4.45-2.08l-.03-.05Z"/>
        <path d="M145.95,92.64c-.2-.11-.42-.24-.66-.39-.63-.39-1.41-.87-2.38-1.2-1.42-.63-3.06-1.13-4.77-1.45-2.19-.29-4.08-.35-5.79-.15-1.88.26-3.82.8-5.63,1.56-1.47.63-2.94,1.51-4.38,2.62-2.29,1.76-3.43,3.47-3.52,3.6l-.02.03c-.39.6-.3,1.4.2,1.9.28.29.66.45,1.07.45h0c.4,0,.78-.16,1.06-.45h.01c.11-.12,1.25-1.24,3.31-2.62,1.03-.76,2.37-1.43,3.77-2.1,1.49-.69,3.11-1.2,4.7-1.48,1.42-.33,3.04-.47,4.93-.45l.76.05c.55.04,1.09.08,1.62.11.46.02.92.11,1.35.2.25.05.5.1.75.14,1.05.15,1.94.39,2.65.58.19.05.36.1.53.14l3.46.82-3.03-1.91Z"/>
      </g>
      <path class="cls-1" d="M107.77,145.78c-.23-.04-.45-.08-.64-.12.22.05.43.09.64.12Z"/>
      <path class="cls-1" d="M106.89,145.6c-.15-.03-.29-.07-.39-.09.13.03.26.06.39.09Z"/>
      <path class="cls-17" d="M107.13,145.65c-.08-.02-.16-.03-.24-.05.08.02.15.03.24.05Z"/>
      <path class="cls-17" d="M106.5,145.51c-.07-.02-.14-.04-.22-.06h0s.08.03.22.06Z"/>
      <path class="cls-15" d="M101.63,148.76c-.18-2.42,6.73.51,9,.58,1.81.06,7.25-.36,7.75-.55,3.8-1.43-.21,4.05-7.87,4.34-3.51.14-8.78-2.9-8.89-4.37Z"/>
      <path class="cls-10" d="M124.13,144.09c-1.88-.09-3.8,1.48-6.06,1.24-.09-.05-.14-.05-.23-.05-.52-.09-1.03,0-1.6.14-.7.15-1.41.43-2.07.66-1.13.37-2.4.66-3.71.56h0s-.05,0-.07,0-.05,0-.07,0h0c-1.31.09-2.58-.2-3.71-.57-.66-.23-1.37-.52-2.07-.66-.56-.14-1.08-.23-1.6-.14-.1,0-.14,0-.23.05-2.26.24-4.18-1.33-6.06-1.24-.52.05-1.27-.09-1.69-.09.09.05.19.09.28.14,5.35,2.62,9.96,7.52,15.08,7.36h.15c5.11.16,9.73-4.74,15.08-7.36.1-.05.19-.09.29-.14-.42,0-1.17.14-1.69.09Z"/>
      <path class="cls-9" d="M125.71,143.94h0s-5.44-2.1-9.31-.87c0,0-1.44.56-2.93.91-.91.35-2.01.46-3.07.41h0c-.81-.03-1.59-.14-2.22-.25-.21-.03-.42-.08-.64-.12-.09-.02-.16-.03-.24-.05-.13-.03-.26-.06-.39-.09-.14-.03-.22-.06-.22-.06h0c-1.24-.34-2.3-.75-2.3-.75-3.87-1.23-9.31.87-9.31.87h0c-.07.03-.12.06-.12.06.42,0,1.17.14,1.69.09,1.88-.09,3.8,1.48,6.06,1.24.09-.05.14-.05.23-.05.52-.09,1.03,0,1.6.14.7.15,1.41.43,2.07.66,1.13.37,2.4.66,3.71.56h0s.05,0,.07,0,.05,0,.07,0h0c1.31.09,2.58-.2,3.71-.57.66-.23,1.37-.52,2.07-.66.56-.14,1.08-.23,1.6-.14.1,0,.14,0,.23.05,2.26.24,4.18-1.33,6.06-1.24.52.05,1.27-.09,1.69-.09,0,0-.05-.02-.12-.06Z"/>
      <path class="cls-9" d="M101.26,145.22c.1.02,10.19,3.11,18.09.07l-.91-.61h-10.67l-6.51.55Z"/>
      <g>
        <path class="cls-16" d="M157.65,223.39s-.42.16-1.08.48h-90.87c-.73-.32-1.11-.48-1.11-.48,0-44.48,26.45-48.76,27.72-48.95h.03c2.1,0,3.63-2.07,4.74-5.44.42.75,1.21,1.33,1.98,1.75,1.62.9,4.7,1.77,12.08,1.77s12.28-1.61,13.61-2.87c.19-.19.32-.42.41-.65,1.08,3.24,2.54,5.28,4.48,5.44h.25s27.76,3.4,27.76,48.95Z"/>
        <path class="cls-11" d="M130.21,179.23c-6.1,4.4-10.11,5.41-19.23,5.41s-12.24-1.3-16.88-3.66c-3.27-1.66-5.6-2.95-3.21-5.08.67-.62,1.11-1.07,1.43-1.46h.03c.87-1,.96-1.52,1.85-2.88,1.24-1.85-2.22-2.92-.09-4.34,2.1-1.43,3.78-1.14,3.78-1.14-.79,2.91.42,4.24,1.18,4.67,1.62.9,4.7,1.77,12.08,1.77s10.94-1.61,12.53-2.52c1.35-.76,1-2.28.96-2.92-.1-.16-.2-.59-.2-.59,0,0,4.07.25,3.72,2.29-.32,1.98.38,3.92,1.49,5.66.19.26.35.52.54.75,1.47,1.91,3.63,1.46.03,4.05Z"/>
        <polygon class="cls-11" points="86.25 199 82.82 192.95 79.38 199 75.95 205.06 79.38 211.11 82.82 217.17 86.25 211.11 89.68 205.06 86.25 199"/>
        <polygon class="cls-11" points="99.99 199 96.56 192.95 93.12 199 89.68 205.06 93.12 211.11 96.56 217.17 99.99 211.11 103.43 205.06 99.99 199"/>
        <polygon class="cls-11" points="113.73 199 110.3 192.95 106.86 199 103.43 205.06 106.86 211.11 110.3 217.17 113.73 211.11 117.16 205.06 113.73 199"/>
        <polygon class="cls-11" points="127.47 199 124.03 192.95 120.6 199 117.16 205.06 120.6 211.11 124.03 217.17 127.47 211.11 130.9 205.06 127.47 199"/>
        <polygon class="cls-11" points="141.21 199 137.77 192.95 134.33 199 130.9 205.06 134.33 211.11 137.77 217.17 141.21 211.11 144.64 205.06 141.21 199"/>
      </g>
      <path d="M99.5,25.59c-3.24,4.88-.38,5.78,2.05,5.81,1.32.01,2.63-.26,3.86-.73,2.53-.94,4.99-1.86,7.31-2.66-2.77,3.98-1.04,11.14,5.19,11.14.75,0,1.43-.11,2.05-.3-.11.06-.23.12-.33.19,2.8-1.05,7.64-1.43,15.75,1.46,1.13.4,2.18.83,3.15,1.27,3.45,1.38,10.35,4.12,23.61,9.3,0,0-4.37,1.56-9.58,2.08,2.5,2.67,5.08,4.96,9.39,6.18,11.28,3.18,14.55-.9,14.55-.9,0,0-4.9,7.14-13.58,7.16-1.4,0-1.55-.02-1.56-.03,0,.03,3.26,7.66,3.88,13.37.64,5.83-1.36,9.81-1.96,20.72-.17,3.04-.6,4.58-1.2,5.51-1.25,1.93-3.3,1.27-5.59,5.9-1.15,2.3-1.2,4.9-1.2,4.9,0,0-.09.07-.25.12-.72.23-2.78.04-2.88-9.67,0,0,9.12-38.05-9.47-43.69-8.1-2.46-18.98-.4-29.61,2.13-7.1,1.69-14.25,4.41-20.9,8.64-8.56,5.45-19.62,12.4-21.92,24.81,0,.02,0,.04,0,.05.34,3.34.49,6.02.52,8.18.11,8.94-1.97,8.86-1.97,8.86-.95,0,.06-4.5-3.1-7.6-.87-.85-1.87-2.28-2.86-4.09-2.6-4.77-5.13-12.32-5.13-19.88-3.37-51.21,41.79-58.21,41.79-58.21Z"/>
      <g>
        <path class="cls-5" d="M152.34,109.73c-.06.78-.15,1.59-.31,2.44-8.18-4.11-19.74-6.39-32.55,1.76-.39-1.34-.6-2.67-.7-3.88-.2-1.59-.26-3.48.11-5.29,1.01-8.56,15.94-8.87,18.06-8.87.17,0,.35,0,.52,0,1.87-.07,3.49,0,4.89.14.64.06,1.49.17,2.44.4,5.55,1.26,6.32,4.18,6.38,4.46.23.47.41,1,.53,1.57.75,2.58.85,5.07.63,7.29Z"/>
        <path class="cls-6" d="M101.83,110.08h0c-.09.72-.21,1.37-.32,1.92-13.22-6.69-24.84-2.71-32.4,1.97-.36-1.23-.69-2.67-.84-4.25-.27-3.83.53-6.67.53-6.67.03-.22.07-.43.11-.64.15-.51.32-1.01.52-1.52,0,0,0,0,0-.02,1.29-2.7,4.11-3.92,6.41-4.47.7-.16,1.48-.29,2.34-.39.03,0,.05,0,.07,0,.68-.06,1.1-.06,1.1-.06,1.37-.07,2.65-.1,3.85-.08.07,0,.14,0,.2,0h.24c10.38.21,14.3,3.4,14.3,3.4,2.24,1.23,3.33,3.29,3.78,5.47,0,.01,0,.03,0,.04,0,0,.38,2.29.11,5.3Z"/>
        <path class="cls-7" d="M152.03,112.17c-.36,1.96-1.05,4.06-2.26,6.1-.09.16-.14.25-.14.25-.03.04-.06.09-.09.13-.35.56-.74,1.11-1.17,1.66-.64.81-1.41,1.5-2.3,2.02-.65.39-1.53.83-2.64,1.23-5.23,2.07-11.23.9-14.14.09-.09-.02-.63-.14-1.41-.43-.23-.08-.36-.13-.36-.13-4.77-1.84-7.02-5.55-8.04-9.15,12.81-8.14,24.37-5.86,32.55-1.76Z"/>
        <path class="cls-7" d="M101.5,112.01c-.14.69-.29,1.22-.37,1.5-.05.15-.07.24-.07.24-1.45,6.11-5.99,8.57-8.33,9.46,0,0,0,0,0,0-.3.1-.77.25-1.38.43,0,0-.01,0-.02,0s-.01,0-.01,0c-6.41,1.76-11.13,1-14.16-.11,0,0,0,0-.02,0-2.27-.91-4.39-2.44-6.05-4.88-.08-.12-.15-.25-.23-.38-.28-.51-.94-1.81-1.53-3.63-.07-.22-.14-.44-.21-.67,7.56-4.68,19.18-8.66,32.4-1.97Z"/>
        <path class="cls-12" d="M159.3,97.33c-.13-.86-.75-1.57-1.59-1.8-17.36-4.85-30.88-2.01-30.88-2.01-7.24,1.26-10.36,5.44-10.36,5.44-2.06,2.19-6.17,1.26-6.17,1.26h0s-4.12.93-6.17-1.26c0,0-3.12-4.18-10.36-5.44,0,0-13.52-2.84-30.88,2.01-.84.23-1.46.94-1.59,1.8-.28,1.82-.52,4.84.8,5.62,0,0,2.66.53,2.66,4.25,0,0,2.06,12.22,4.51,14.87,0,0,3.32,6.11,14.54,5.78,0,0,15.35.64,18.33-7.83.39-1.12.95-2.42,1.39-3.52l2.56-7.37c.27-.78.75-1.47,1.42-1.96.64-.47,1.55-.85,2.79-.76h0c1.24-.08,2.16.3,2.79.76.66.49,1.15,1.18,1.42,1.96l2.56,7.37c.44,1.1,1,2.4,1.39,3.52,2.98,8.48,18.33,7.83,18.33,7.83,11.22.33,14.54-5.78,14.54-5.78,2.46-2.66,4.51-14.87,4.51-14.87,0-3.72,2.66-4.25,2.66-4.25,1.32-.77,1.08-3.79.8-5.62ZM101.83,110.08h0c-.21,1.63-.55,2.91-.7,3.43-.01.04-.02.08-.03.11-.03.09-.04.13-.04.13-1.45,6.11-5.99,8.57-8.33,9.46,0,0,0,0,0,0-.2.07-.48.16-.82.26-.17.05-.36.11-.56.16,0,0-.01,0-.02,0h0s0,0,0,0c0,0-.01,0-.01,0-1.89.52-3.63.82-5.23.95-3.82.32-6.8-.28-8.93-1.05,0,0,0,0,0,0,0,0,0,0,0,0-.83-.33-1.65-.75-2.43-1.27-1.34-.89-2.57-2.06-3.62-3.6-.03-.05-.07-.11-.1-.16-.04-.07-.09-.14-.13-.21-.17-.32-.5-.95-.87-1.84-.22-.52-.44-1.12-.66-1.8-.07-.22-.14-.44-.21-.67,0,0,0,0,0,0-.36-1.24-.68-2.67-.84-4.25-.27-3.83.53-6.67.53-6.67.03-.22.07-.43.11-.64.15-.5.32-1.01.52-1.52,0,0,0,0,0-.03,1.29-2.7,4.1-3.92,6.41-4.47.7-.16,1.48-.29,2.34-.39.03,0,.05,0,.08,0,.68-.06,1.1-.06,1.1-.06,1.37-.07,2.65-.1,3.85-.08.07,0,.13,0,.2,0,0,0,.08,0,.24,0h0c10.38.21,14.3,3.4,14.3,3.4,2.25,1.23,3.33,3.29,3.78,5.47,0,.01,0,.03,0,.04,0,0,.38,2.29.11,5.3ZM152.34,109.73c-.06.9-.19,1.86-.4,2.85-.02.09-.04.19-.06.28-.07.31-.15.62-.23.94-.02.07-.04.14-.06.21-.08.28-.17.56-.26.84-.02.06-.04.12-.06.18-.12.34-.25.67-.39,1.01-.01.03-.03.07-.05.1-.13.3-.26.59-.41.89-.04.08-.08.16-.12.24-.16.31-.33.63-.51.94,0,.02-.02.03-.03.05-.09.16-.14.25-.14.25-.02.04-.05.07-.07.11,0,0-.01.01-.02.02-.05.09-.12.17-.17.26-.31.47-.63.94-1,1.4-.16.2-.33.4-.51.58-.53.56-1.13,1.04-1.8,1.44-.53.31-1.22.67-2.05,1-.19.08-.38.15-.58.23-1.56.62-3.19.94-4.78,1.08-3.75.32-7.31-.42-9.36-.99-.03,0-.1-.02-.2-.05-.14-.04-.33-.09-.58-.17-.18-.06-.39-.13-.63-.22-.23-.08-.36-.13-.36-.13-.03-.01-.06-.03-.09-.04-.23-.09-.45-.18-.66-.28-.08-.04-.16-.07-.23-.11-.2-.1-.4-.2-.59-.3-.04-.02-.08-.04-.12-.06-.23-.12-.44-.25-.66-.39-.06-.04-.11-.07-.17-.11-.18-.12-.35-.23-.52-.35-.04-.03-.08-.05-.12-.08-.2-.15-.39-.3-.57-.45-.04-.03-.08-.07-.12-.1-.15-.13-.31-.27-.45-.41-.03-.03-.07-.07-.1-.1-.17-.17-.34-.34-.49-.51-.02-.03-.05-.05-.07-.08-.14-.15-.27-.31-.4-.47-.03-.04-.06-.07-.09-.11-.15-.19-.29-.37-.42-.56,0,0-.01-.02-.02-.02-.13-.18-.25-.37-.37-.56-.02-.03-.04-.06-.06-.1-.25-.4-.48-.82-.68-1.23,0-.02-.02-.03-.02-.05-.42-.87-.75-1.77-1-2.66h0c-.38-1.34-.6-2.67-.7-3.88-.2-1.58-.26-3.48.11-5.29,1.02-8.56,15.94-8.87,18.07-8.87.17,0,.35,0,.52,0,1.87-.07,3.49,0,4.89.14.64.06,1.5.17,2.44.4,5.55,1.26,6.32,4.18,6.38,4.46.23.48.41,1,.53,1.57.75,2.58.85,5.07.63,7.29Z"/>
      </g>
    </g>
  </g>
</svg>