<?xml version="1.0" encoding="UTF-8"?>
<svg id="Layer_2" data-name="Layer 2" xmlns="http://www.w3.org/2000/svg" xmlns:xlink="http://www.w3.org/1999/xlink" viewBox="0 0 221.6 223.72">
  <defs>
    <style>
      .cls-1 {
        fill: none;
      }

      .cls-2 {
        fill: #462e1b;
      }

      .cls-3 {
        fill: #ba9d82;
      }

      .cls-4 {
        fill: #ccad8a;
      }

      .cls-5 {
        fill: #c0b182;
      }

      .cls-6 {
        fill: #f7f8f7;
        opacity: .55;
      }

      .cls-7 {
        fill: #d7bd9d;
      }

      .cls-8 {
        fill: #e5b344;
      }

      .cls-9 {
        fill: #c1a587;
      }

      .cls-10 {
        fill: #dac6a4;
      }

      .cls-11 {
        fill: #fff;
      }

      .cls-12 {
        fill: #dcc5a0;
      }

      .cls-13 {
        fill: #272213;
      }

      .cls-14 {
        fill: #ecdab6;
      }

      .cls-15 {
        fill: #decb82;
      }

      .cls-16 {
        fill: #3c3d39;
      }

      .cls-17 {
        fill: #b8987d;
      }

      .cls-18 {
        fill: #ebd9b5;
      }

      .cls-19 {
        fill: #22231d;
        opacity: .4;
      }

      .cls-20 {
        fill: #9e7759;
      }

      .cls-21 {
        fill: #a98d76;
      }

      .cls-22 {
        fill: #714223;
      }

      .cls-23 {
        fill: #b7967d;
      }

      .cls-24 {
        clip-path: url(#clippath);
      }

      .cls-25 {
        fill: #d2bb9b;
      }

      .cls-26 {
        fill: #b5957e;
      }
    </style>
    <clipPath id="clippath">
      <rect class="cls-1" x="98.56" y="154.52" width="25.12" height="14.81"/>
    </clipPath>
  </defs>
  <g id="Layer_1-2" data-name="Layer 1">
    <g>
      <rect class="cls-8" width="221.6" height="223.72"/>
      <path class="cls-12" d="M111.02,139.31v84.41h-45.32c-.74-.29-1.11-.45-1.11-.45,0-10.78,1.57-19.18,3.96-25.72,1.78-4.87,3.99-8.71,6.36-11.73,3.64-4.64,7.6-7.37,10.84-8.98,1.54-.77,2.9-1.29,3.99-1.63,1.6-.49,2.58-.61,2.58-.61.17,0,.32-.02.49-.05.32-.05.63-.15.91-.31,1.03-.51,1.89-1.61,2.61-3.16.69-1.47,1.27-3.36,1.74-5.56.2-.84.34-1.7.49-2.63.22-1.57.43-3.19.63-4.91.06-1.04.18-2.04.29-3.12.4-5.16.51-10.81.51-16.17,0,0,6.1.63,11.03.63Z"/>
      <path class="cls-18" d="M157.65,223.28s-.4.15-1.08.45h-45.55v-84.41h.12c4.9,0,11.06-.63,11.06-.63,0,5.31.11,10.89.52,16.06.11,1,.22,2.04.29,3.04.18,1.78.41,3.46.66,5.02v.03c.08.71.22,1.34.34,2.01.45,2.2.98,4.12,1.64,5.67.58,1.38,1.24,2.46,2.03,3.13.31.29.65.52.98.68.38.17.78.26,1.21.26,0,0,1.74.22,4.36,1.24.74.29,1.54.65,2.4,1.09,2.95,1.49,6.5,3.93,9.83,7.86,2.69,3.18,5.24,7.34,7.22,12.76,2.4,6.54,3.96,14.94,3.96,25.72Z"/>
      <g class="cls-24">
        <path class="cls-3" d="M123.68,162.48v.04c-1.14,1.76-4.98,6.82-12.58,6.82h-.07c-7.19-.04-11.4-5.24-12.47-6.78.22-1.54.44-3.15.63-4.84.07-.99.18-2.02.3-3.08,3.5.88,7.34,1.43,11.4,1.5h.15c4.2-.07,8.08-.66,11.69-1.61.11.99.22,2.02.3,3.01.18,1.76.41,3.41.66,4.95"/>
      </g>
      <path class="cls-4" d="M110.52,43.81c-48.02,0-48.28,40.14-46.14,66.43-3.28-6.23-13.06-4.33-12.25,5.5.77,9.46,14.74,14.28,14.35,13.23,7.27,19.44,26.52,34.09,44.04,34.09h.37V43.81h-.37"/>
      <path class="cls-21" d="M55.19,111.59c2.36-3.81,6.05-2.16,6.93-1.32.96.92,1.73,2.09,1.14,4.33-.33,1.28-1.66,1.39-1.36,3.3.37,2.16,1.36,2.27,1.95,2.79.55.48,1.25.84,1.59,1.76.37.92.41,1.87.22,2.71-.37,1.54-2.62.29-4.13-.37-1-.48-4.17-3.15-4.98-4.03-1.99-2.27-2.95-6.67-1.36-9.17"/>
      <path class="cls-7" d="M110.77,43.81c48.02,0,48.28,40.14,46.18,66.43,3.28-6.23,13.02-4.33,12.21,5.5-.74,9.46-14.73,14.28-14.35,13.23-7.08,19.44-26.52,34.09-44.04,34.09h-.26l-.11-119.26h.37"/>
      <path class="cls-21" d="M166.1,111.59c-2.36-3.81-6.01-2.16-6.93-1.32-.96.92-1.7,2.09-1.14,4.33.33,1.28,1.66,1.39,1.36,3.3-.37,2.16-1.36,2.27-1.92,2.79-.55.48-1.29.84-1.62,1.76-.33.92-.41,1.87-.22,2.71.37,1.54,2.62.29,4.13-.37,1.03-.48,4.17-3.15,4.98-4.03,2.03-2.27,2.95-6.67,1.36-9.17"/>
      <path class="cls-12" d="M110.14,55.14c-15.79,0-27.37,4.58-34.34,13.6-9.77,12.65-9.41,31.93-5.83,45.79,1.11,4.25,1.7,15.65,2.43,19.83,3.43,18.73,24.12,28.71,37.73,28.71h.37V55.14h-.22"/>
      <path class="cls-18" d="M144.44,68.77c-6.93-8.98-18.37-13.56-33.93-13.64v107.93c15.57-.18,34.19-11.11,37.36-28.71.77-4.18,1.33-15.58,2.43-19.83,3.61-13.82,3.98-33.07-5.86-45.75"/>
      <path class="cls-1" d="M108.58,140c-.22-.04-.42-.08-.59-.11.2.04.4.08.59.11Z"/>
      <path class="cls-1" d="M107.76,143.89c-.14-.03-.27-.06-.36-.08.12.03.24.05.36.08Z"/>
      <path class="cls-23" d="M107.99,143.93c-.08-.02-.15-.03-.23-.05.07.02.14.03.23.05Z"/>
      <path class="cls-23" d="M107.4,143.8c-.07-.02-.13-.04-.2-.06h0s.08.02.21.06Z"/>
      <path class="cls-7" d="M101.44,129.93c-.18-3.73,6.85-1.36,9.17-1.25,1.83.09,7.41-1.18,7.89-.85,3.28,2.21-3.47,6.66-8,6.66-1.21,0-8.94-2.32-9.05-4.57Z"/>
      <path class="cls-1" d="M67.45,88.78c-.43,1.43-.73,2.99-.93,4.66,0,0,.63-2.63,2.03-6.52-.6.83-1,1.5-1.1,1.86Z"/>
      <path class="cls-1" d="M108.73,141.86c-.22-.04-.43-.08-.61-.12.21.04.41.08.61.12Z"/>
      <path class="cls-1" d="M107.89,141.69c-.14-.03-.28-.06-.37-.08.12.03.24.06.37.08Z"/>
      <path class="cls-26" d="M108.12,141.74c-.08-.02-.15-.03-.23-.05.08.02.14.03.23.05Z"/>
      <path class="cls-26" d="M107.52,141.61c-.07-.02-.14-.04-.21-.06h0s.08.02.21.06Z"/>
      <path class="cls-11" d="M76.05,97.26s3.66,15.03,9.95,16.26c6.29,1.23,13.1-1.21,13.1-1.21,0,0,.65-17.66-2.57-19.97-3.22-2.32-10.64-5.67-20.48,4.93Z"/>
      <path class="cls-25" d="M99.11,112.26s-.14.04-.47.18c-.08-5.42-.58-12.86-2.59-14.29-2.99-2.19-9.74-5.27-18.76,3.16-.82-2.33-1.23-4.09-1.23-4.09,9.86-10.61,17.29-7.27,20.48-4.95,3.22,2.32,2.57,20,2.57,20Z"/>
      <path class="cls-2" d="M95.39,104.61c0,3.42-2.77,6.19-6.19,6.19s-6.19-2.77-6.19-6.19,2.77-6.19,6.19-6.19,6.19,2.77,6.19,6.19Z"/>
      <path class="cls-22" d="M88.91,108.73c-1.79-.15-3.16-1.95-3-3.94.16-1.98,1.81-3.54,3.6-3.39,1.79.15,3.16,1.95,3,3.93-.16,1.98-1.81,3.54-3.6,3.39Z"/>
      <path class="cls-13" d="M89.07,108.01c-1.24-.11-2.54-1.47-2.4-3.15.14-1.69,1.63-2.83,2.88-2.72,1.25.11,2.53,1.48,2.4,3.16-.14,1.68-1.63,2.82-2.88,2.72Z"/>
      <path class="cls-11" d="M88.06,103.87c-.05.61-.68,1.05-1.39.99-.72-.06-1.26-.6-1.21-1.21.05-.61.67-1.06,1.39-1,.72.06,1.26.6,1.21,1.21Z"/>
      <path class="cls-11" d="M92.07,107.38c-.03.3-.34.53-.69.5-.36-.03-.63-.3-.61-.6.03-.3.34-.53.69-.5.36.03.63.3.61.6Z"/>
      <path class="cls-1" d="M108.83,143.63c-.22-.04-.43-.08-.61-.12.21.04.41.08.61.12Z"/>
      <path class="cls-1" d="M107.98,143.47c-.14-.03-.28-.06-.37-.08.12.03.24.06.37.08Z"/>
      <path class="cls-26" d="M108.22,143.52c-.08-.02-.15-.03-.23-.05.08.02.14.03.23.05Z"/>
      <path class="cls-26" d="M107.61,143.38c-.07-.02-.14-.04-.21-.06h0s.08.02.21.06Z"/>
      <path class="cls-1" d="M108.59,143.22c-.24-.04-.46-.08-.65-.12.22.05.44.09.65.12Z"/>
      <path class="cls-1" d="M107.69,143.04c-.15-.03-.3-.07-.4-.09.13.03.26.06.4.09Z"/>
      <path class="cls-23" d="M107.94,143.09c-.08-.02-.17-.03-.25-.05.08.02.15.03.25.05Z"/>
      <path class="cls-23" d="M107.29,142.95c-.08-.02-.15-.04-.22-.06h0s.09.03.23.06Z"/>
      <path class="cls-1" d="M108.4,142.59c-.24-.04-.46-.08-.65-.12.22.05.44.09.65.12Z"/>
      <path class="cls-1" d="M107.5,142.41c-.15-.03-.3-.07-.4-.09.13.03.26.06.4.09Z"/>
      <path class="cls-23" d="M107.75,142.46c-.08-.02-.17-.03-.25-.05.08.02.15.03.25.05Z"/>
      <path class="cls-23" d="M107.1,142.32c-.08-.02-.15-.04-.22-.06h0s.09.03.23.06Z"/>
      <path class="cls-1" d="M108.96,142.5c-.23-.04-.44-.08-.63-.12.21.05.42.09.63.12Z"/>
      <path class="cls-1" d="M108.08,142.33c-.14-.03-.29-.06-.38-.09.13.03.25.06.38.09Z"/>
      <path class="cls-23" d="M108.32,142.38c-.08-.02-.16-.03-.24-.05.08.02.15.03.24.05Z"/>
      <path class="cls-23" d="M107.7,142.24c-.07-.02-.14-.04-.21-.06h0s.08.03.22.06Z"/>
      <path class="cls-11" d="M145.33,96.75s-3.66,15.03-9.95,16.26c-6.29,1.23-13.1-1.21-13.1-1.21,0,0-.65-17.66,2.57-19.97,3.22-2.32,10.64-5.67,20.48,4.93Z"/>
      <path class="cls-25" d="M122.27,111.75s.14.04.47.18c.08-5.42.58-12.86,2.59-14.29,2.99-2.19,9.74-5.27,18.76,3.16.82-2.33,1.23-4.09,1.23-4.09-9.86-10.61-17.29-7.27-20.48-4.95-3.22,2.32-2.57,20-2.57,20Z"/>
      <path class="cls-2" d="M126,104.1c0,3.42,2.77,6.19,6.19,6.19s6.19-2.77,6.19-6.19-2.77-6.19-6.19-6.19-6.19,2.77-6.19,6.19Z"/>
      <path class="cls-22" d="M132.48,108.22c1.79-.15,3.16-1.95,3-3.94-.16-1.98-1.81-3.54-3.6-3.39-1.79.15-3.16,1.95-3,3.93.16,1.98,1.81,3.54,3.6,3.39Z"/>
      <path class="cls-13" d="M132.32,107.5c1.24-.11,2.54-1.47,2.4-3.15-.14-1.69-1.63-2.83-2.88-2.72-1.24.11-2.53,1.48-2.4,3.16.14,1.68,1.63,2.82,2.88,2.72Z"/>
      <path class="cls-11" d="M133.33,103.35c.05.61.68,1.05,1.39.99.72-.06,1.26-.6,1.21-1.21-.05-.61-.67-1.06-1.39-1-.72.06-1.26.6-1.21,1.21Z"/>
      <path class="cls-11" d="M129.32,106.87c.03.3.34.53.69.5.36-.03.63-.3.61-.6-.03-.3-.34-.53-.69-.5-.36.03-.63.3-.61.6Z"/>
      <g>
        <path d="M102.88,97.02c-.05-.07-1.19-1.81-3.52-3.6-1.46-1.12-2.89-1.98-4.38-2.61-1.81-.76-3.75-1.3-5.64-1.55-1.7-.19-3.59-.14-5.8.16-1.68.32-3.32.82-4.72,1.44-.99.34-1.78.82-2.41,1.21-.24.15-.46.28-.68.4l-3,1.89,3.46-.81c.16-.04.34-.09.52-.14.72-.19,1.61-.43,2.65-.58.24-.04.49-.08.75-.14.44-.09.89-.18,1.36-.2.52-.04,1.07-.07,1.63-.11l.73-.05c1.92-.02,3.54.12,4.98.45,1.57.27,3.19.78,4.67,1.47,1.4.67,2.74,1.33,3.79,2.1,2.12,1.41,3.29,2.59,3.3,2.6h0c.29.29.68.44,1.07.44.28,0,.57-.08.82-.24.7-.46.89-1.4.45-2.07l-.03-.05Z"/>
        <path d="M145.95,92.45c-.2-.11-.42-.24-.66-.39-.63-.39-1.41-.87-2.38-1.2-1.42-.63-3.06-1.13-4.77-1.45-2.19-.29-4.08-.34-5.79-.15-1.88.26-3.82.79-5.63,1.55-1.47.63-2.94,1.5-4.38,2.61-2.29,1.76-3.43,3.46-3.52,3.59l-.02.03c-.39.6-.3,1.39.2,1.89.28.29.66.44,1.07.44h0c.4,0,.78-.16,1.06-.45h.01c.11-.12,1.25-1.24,3.31-2.61,1.03-.76,2.37-1.42,3.77-2.09,1.49-.69,3.1-1.2,4.7-1.47,1.42-.33,3.04-.47,4.93-.45l.76.05c.55.04,1.09.08,1.62.11.46.02.92.11,1.35.2.25.05.5.1.75.14,1.05.15,1.94.39,2.65.58.19.05.36.1.53.14l3.46.81-3.03-1.9Z"/>
      </g>
      <path class="cls-1" d="M107.77,145.42c-.23-.04-.45-.08-.64-.12.22.05.43.09.64.12Z"/>
      <path class="cls-1" d="M106.89,145.24c-.15-.03-.29-.07-.39-.09.13.03.26.06.39.09Z"/>
      <path class="cls-17" d="M107.13,145.3c-.08-.02-.16-.03-.24-.05.08.02.15.03.24.05Z"/>
      <path class="cls-17" d="M106.5,145.16c-.07-.02-.14-.04-.22-.06h0s.08.03.22.06Z"/>
      <path class="cls-14" d="M101.63,148.4c-.18-2.42,6.73.51,9,.58,1.81.06,7.25-.36,7.75-.55,3.8-1.42-.21,4.04-7.87,4.33-3.51.14-8.78-2.89-8.89-4.35Z"/>
      <path class="cls-10" d="M124.13,143.74c-1.88-.09-3.8,1.47-6.06,1.23-.09-.05-.14-.05-.23-.05-.52-.09-1.03,0-1.6.14-.7.15-1.41.43-2.07.66-1.13.37-2.4.66-3.71.56h0s-.05,0-.07,0-.05,0-.07,0h0c-1.31.09-2.58-.2-3.71-.57-.66-.23-1.37-.51-2.07-.66-.56-.14-1.08-.23-1.6-.14-.1,0-.14,0-.23.05-2.26.24-4.18-1.32-6.06-1.23-.52.05-1.27-.09-1.69-.09.09.05.19.09.29.14,5.35,2.61,9.96,7.49,15.08,7.34h.15c5.11.16,9.73-4.73,15.08-7.34.1-.05.19-.09.28-.14-.42,0-1.17.14-1.69.09Z"/>
      <path class="cls-9" d="M125.71,143.59h0s-5.44-2.09-9.31-.87c0,0-1.44.56-2.93.9-.91.35-2.01.46-3.07.41h0c-.81-.03-1.59-.14-2.22-.25-.21-.03-.42-.08-.64-.12-.09-.02-.16-.03-.24-.05-.13-.03-.26-.06-.39-.09-.14-.03-.22-.06-.22-.06h0c-1.24-.34-2.3-.75-2.3-.75-3.87-1.23-9.31.87-9.31.87h0c-.07.03-.12.06-.12.06.42,0,1.17.14,1.69.09,1.88-.09,3.8,1.47,6.06,1.23.09-.05.14-.05.23-.05.52-.09,1.03,0,1.6.14.7.15,1.41.43,2.07.66,1.13.37,2.4.66,3.71.56h0s.05,0,.07,0,.05,0,.07,0h0c1.31.09,2.58-.2,3.71-.57.66-.23,1.37-.51,2.07-.66.56-.14,1.08-.23,1.6-.14.1,0,.14,0,.23.05,2.26.24,4.18-1.32,6.06-1.23.52.05,1.27-.09,1.69-.09,0,0-.05-.02-.12-.06Z"/>
      <path class="cls-9" d="M101.26,144.87c.1.02,10.19,3.1,18.09.07l-.91-.61h-10.67l-6.51.54Z"/>
      <path class="cls-16" d="M153.49,41.03c-11.51-12.24-28.43-18.19-28.43-18.19l4.69,4.42c-2.81-2.16-7.81-5.16-16.16-7.81-11.89-3.76-19.59.43-19.59.43,0,0,6.21-.21,9.24,2.23-3-1.29-8.17-1.74-16.8,1.83-16.91,7-16.61,19.54-28.38,23.39-12.05,3.95-15.54-1.12-15.54-1.12,0,0,5.23,8.88,14.51,8.9,1.5,0,1.65-.03,1.66-.04-.02.04-3.48,9.52-4.15,16.6-.68,7.24,1.44,12.19,2.1,25.74.57,11.58,3.62,5.65,7.26,14.18,1.23,2.86,1.28,6.08,1.28,6.08,1.35.34,4.89-6.95,2.35-19.61-1.09-5.42,2.09-20.8,10.04-28.91-4.74,17.86,2.06,28.63,2.06,28.63.25-18.42,7.87-23.41,15.81-32.44,1.22.44-1.05-.49,0,0-11.32,20.48-3.78,47.04-3.78,47.04-.45-22.62,18.62-37.76,24.51-41.9.55-.33,1.12-.7,1.72-1.15,3.24-2.41,7.02-4.38,10.91-5.55,2.59,5.3,4.3,11.79,3.05,18.97,0,0,5.55-8.88,4.9-19.45,4.8,5.1,13.31,16.37,10.91,30.2,0,0,5.95-9.51,4.81-20.55,2.98,5.54,4.32,13.22,3.47,23.16-1.81,20.99,1.58,20.84,1.58,20.84,1.01,0-.07-5.59,3.31-9.44,3.38-3.85,8.54-16.82,8.54-29.77s-4.41-24.46-15.92-36.71Z"/>
      <g>
        <path class="cls-20" d="M146.47,184.79c-3.46,4.55-6.82,8.39-10.07,11.6-.41.4-.81.78-1.21,1.17-.31.29-.61.57-.91.84-.34.31-.68.61-1.01.91-.69.61-1.38,1.2-2.07,1.75-.86.71-1.74,1.38-2.6,2-.86.63-1.7,1.2-2.55,1.74-.41.28-.83.54-1.26.78-.41.25-.83.48-1.24.71-.28.15-.54.31-.81.43-.26.15-.52.28-.78.41-.63.31-1.26.6-1.87.86-.09.03-.17.08-.25.11-.38.15-.77.31-1.14.45-.4.15-.8.29-1.2.43-.38.14-.78.26-1.17.37-.38.12-.77.22-1.15.32-.4.09-.77.18-1.15.26-1.01.22-2.01.37-2.99.46-.43.05-.86.08-1.29.09-.41.02-.83.03-1.24.03h-.08c-.49,0-1-.02-1.49-.05-.4-.02-.81-.06-1.23-.11-.46-.05-.91-.11-1.35-.18-.41-.06-.83-.14-1.24-.23-.06,0-.14-.02-.2-.05-.29-.05-.57-.12-.84-.2-.32-.08-.65-.17-.97-.26-.35-.09-.71-.2-1.04-.32-.31-.11-.6-.2-.89-.32-.86-.31-1.7-.68-2.53-1.08-.45-.22-.91-.45-1.35-.69-.43-.23-.86-.48-1.29-.74-.75-.45-1.51-.92-2.23-1.44-.25-.17-.49-.34-.74-.52-.71-.52-1.4-1.06-2.07-1.63-.31-.25-.61-.51-.92-.78-2.04-1.78-3.95-3.75-5.71-5.82-.34-.4-.68-.8-1-1.2-.98-1.21-1.94-2.44-2.83-3.7-.29-.41-.6-.83-.88-1.24-.95-1.37-1.84-2.75-2.69-4.12,3.64-4.64,7.6-7.37,10.84-8.98,4.62,9.94,13.38,24.25,25.26,23.54,7.4-.46,16.02-6.71,25.62-23.45,2.95,1.49,6.5,3.93,9.83,7.86Z"/>
        <path class="cls-5" d="M136.64,176.92c-9.6,16.74-18.21,22.99-25.62,23.45-11.89.71-20.64-13.61-25.26-23.54,1.54-.77,2.9-1.29,3.99-1.63,1.6-.49,2.58-.61,2.58-.61.17,0,.32-.02.49-.05.32-.05.63-.15.91-.31,1.8,3.24,4.22,7,7.13,9.98,2.96,3.04,6.4,5.25,10.17,5.25,2.99.02,6.17-1.38,9.48-4.88,2.37-2.49,4.76-6.05,7.19-10.93.31.29.65.52.98.68.38.17.78.26,1.21.26,0,0,1.74.22,4.36,1.24.74.29,1.54.65,2.4,1.09Z"/>
        <path class="cls-15" d="M157.65,223.28s-.4.15-1.08.45h-90.87c-.74-.29-1.11-.45-1.11-.45,0-10.78,1.57-19.18,3.96-25.72,1.78-4.87,3.99-8.71,6.36-11.73.84,1.37,1.74,2.75,2.69,4.12.28.41.58.83.88,1.24.89,1.26,1.84,2.49,2.83,3.7.32.4.66.8,1,1.2,1.77,2.07,3.67,4.04,5.71,5.82.31.28.61.54.92.78.68.57,1.37,1.11,2.07,1.63.25.18.49.35.74.52.72.52,1.47,1,2.23,1.44.43.26.86.51,1.29.74.45.25.91.48,1.35.69.83.4,1.67.77,2.53,1.08.29.12.58.22.89.32.34.12.69.23,1.04.32.32.09.65.18.97.26.28.08.55.15.84.2.06.03.14.05.2.05.41.09.83.17,1.24.23.45.08.89.14,1.35.18.41.05.83.09,1.23.11.49.03,1,.05,1.49.05h.08c.41,0,.83-.02,1.24-.03.43-.02.86-.05,1.29-.09.98-.09,1.98-.25,2.99-.46.38-.08.75-.17,1.15-.26.38-.11.77-.2,1.15-.32.38-.11.78-.23,1.17-.37.4-.14.8-.28,1.2-.43.37-.14.75-.29,1.14-.45.08-.03.15-.08.25-.11.61-.26,1.24-.55,1.87-.86.26-.14.52-.26.78-.41.28-.12.54-.28.81-.43.41-.23.83-.46,1.24-.71.43-.25.84-.51,1.26-.78.84-.54,1.69-1.11,2.55-1.74.86-.61,1.74-1.29,2.6-2,.69-.55,1.38-1.14,2.07-1.75.34-.29.68-.6,1.01-.91.29-.28.6-.55.91-.84.4-.38.8-.77,1.21-1.17,3.26-3.21,6.62-7.05,10.07-11.6,2.69,3.18,5.24,7.34,7.22,12.76,2.4,6.54,3.96,14.94,3.96,25.72Z"/>
      </g>
      <g>
        <g>
          <path class="cls-19" d="M100.07,113.1c.45-1.54.7-3.16.7-4.85,0-9.48-7.65-17.17-17.1-17.17s-17.09,7.69-17.09,17.17c0,2.11.39,4.12,1.08,5.98,7.78-3.48,19.98-6.71,32.41-1.14Z"/>
          <path class="cls-19" d="M150,116.81c1.44-2.52,2.27-5.43,2.27-8.55,0-9.48-7.65-17.17-17.09-17.17s-17.1,7.69-17.1,17.17c0,3.32.96,6.41,2.58,9.03,7.68-3.97,18.22-6.52,29.34-.48Z"/>
          <path class="cls-19" d="M102.74,114.43c-.06.17-.11.35-.16.51.08-.16.18-.29.26-.46-.03-.02-.07-.03-.1-.05Z"/>
          <path class="cls-6" d="M102.74,114.43c-.06.17-.11.35-.16.51.08-.16.18-.29.26-.46-.03-.02-.07-.03-.1-.05Z"/>
          <path class="cls-19" d="M83.68,125.43c7.76,0,14.32-5.21,16.4-12.33-12.43-5.58-24.63-2.35-32.41,1.14,2.42,6.53,8.66,11.19,16.01,11.19Z"/>
          <path class="cls-6" d="M83.68,125.43c7.76,0,14.32-5.21,16.4-12.33-12.43-5.58-24.63-2.35-32.41,1.14,2.42,6.53,8.66,11.19,16.01,11.19Z"/>
          <path class="cls-19" d="M117.82,118.88c.26.38.55.71.83,1.07-.26-.36-.52-.73-.75-1.11-.03.02-.05.03-.08.04Z"/>
          <path class="cls-6" d="M117.82,118.88c.26.38.55.71.83,1.07-.26-.36-.52-.73-.75-1.11-.03.02-.05.03-.08.04Z"/>
          <path class="cls-19" d="M135.19,125.43c6.34,0,11.86-3.48,14.82-8.63-11.12-6.03-21.66-3.49-29.34.48,3.02,4.88,8.38,8.14,14.53,8.14Z"/>
          <path class="cls-6" d="M135.19,125.43c6.34,0,11.86-3.48,14.82-8.63-11.12-6.03-21.66-3.49-29.34.48,3.02,4.88,8.38,8.14,14.53,8.14Z"/>
        </g>
        <path class="cls-11" d="M154.65,103.43c-.09,0-.16,0-.24.02-1.2-4.88-4.16-9.07-8.18-11.83-3.21-2.21-7.09-3.52-11.28-3.52s-7.71,1.18-10.82,3.2c-4.02,2.6-7.06,6.6-8.42,11.32h-12.8c-1.9-6.55-7.01-11.73-13.52-13.68-1.82-.54-3.75-.84-5.75-.84-2.26,0-4.42.4-6.44,1.09-6.43,2.2-11.38,7.58-13.01,14.27-.09-.01-.18-.03-.28-.03-1,0-1.82.82-1.82,1.83v5.37c0,1.01.81,1.83,1.82,1.83.05,0,.11,0,.16,0,.04.18.08.36.12.53,1.51,6.34,5.97,11.51,11.85,13.94,2.34.97,4.91,1.5,7.6,1.5,5.34,0,10.19-2.1,13.79-5.52,2.3-2.18,4.07-4.91,5.14-7.96.06-.16.11-.34.16-.51.48-1.51.82-3.1.93-4.74.85-.37,1.74-.64,2.65-.83,2.29-.49,4.65-.39,6.63.25.73.24,1.43.54,2.03.93.28,3.2,1.31,6.2,2.91,8.79.23.38.49.74.75,1.11,3.63,5.13,9.57,8.48,16.32,8.48,1.91,0,3.76-.28,5.51-.78,4.85-1.39,8.94-4.58,11.53-8.79,1.19-1.94,2.07-4.1,2.55-6.41.03,0,.07,0,.11,0,1,0,1.81-.82,1.81-1.83v-5.37c0-1.01-.81-1.83-1.81-1.83ZM100.07,113.1c-2.08,7.12-8.63,12.33-16.4,12.33-7.35,0-13.59-4.66-16.01-11.19-.69-1.86-1.08-3.87-1.08-5.98,0-9.48,7.65-17.17,17.09-17.17s17.1,7.69,17.1,17.17c0,1.68-.25,3.31-.7,4.85ZM114.93,107.6c-.63-.29-1.33-.51-2.04-.69-2-.5-4.23-.58-6.42-.2-.94.16-1.87.4-2.77.73-.04-1.03-.16-2.05-.36-3.04h11.95c-.2,1.04-.33,2.11-.37,3.21ZM150,116.81c-2.95,5.15-8.48,8.63-14.82,8.63s-11.51-3.26-14.53-8.14c-1.62-2.62-2.58-5.71-2.58-9.03,0-9.48,7.66-17.17,17.1-17.17s17.09,7.69,17.09,17.17c0,3.11-.83,6.03-2.27,8.55Z"/>
      </g>
    </g>
  </g>
</svg>