<?xml version="1.0" encoding="UTF-8"?>
<svg id="Layer_2" data-name="Layer 2" xmlns="http://www.w3.org/2000/svg" xmlns:xlink="http://www.w3.org/1999/xlink" viewBox="0 0 223.47 223.72">
  <defs>
    <style>
      .cls-1 {
        fill: none;
      }

      .cls-2 {
        fill: #ba9d82;
      }

      .cls-3 {
        fill: #ccad8a;
      }

      .cls-4 {
        fill: #42413b;
      }

      .cls-5 {
        fill: #44361f;
      }

      .cls-6 {
        fill: #d7bd9d;
      }

      .cls-7 {
        fill: #c1a587;
      }

      .cls-8 {
        fill: #dac6a4;
      }

      .cls-9 {
        fill: #fff;
      }

      .cls-10 {
        fill: #dcc5a0;
      }

      .cls-11 {
        fill: #272213;
      }

      .cls-12 {
        fill: #ecdab6;
      }

      .cls-13 {
        fill: #49463f;
      }

      .cls-14 {
        fill: #b8987d;
      }

      .cls-15 {
        fill: #435975;
      }

      .cls-16 {
        fill: #bfb2cd;
      }

      .cls-17 {
        fill: #ebd9b5;
      }

      .cls-18 {
        fill: #a98d76;
      }

      .cls-19 {
        fill: #678dc5;
      }

      .cls-20 {
        fill: #4e5b7a;
      }

      .cls-21 {
        fill: #b7967d;
      }

      .cls-22 {
        clip-path: url(#clippath);
      }

      .cls-23 {
        fill: #d2bb9b;
      }

      .cls-24 {
        fill: #b5957e;
      }
    </style>
    <clipPath id="clippath">
      <rect class="cls-1" x="99.5" y="150.23" width="28.15" height="19.74"/>
    </clipPath>
  </defs>
  <g id="Layer_1-2" data-name="Layer 1">
    <g>
      <rect class="cls-16" width="223.47" height="223.72"/>
      <path class="cls-5" d="M100.92,54.23l-.19.2.03.06c.06-.1.1-.2.16-.26Z"/>
      <path class="cls-13" d="M157.38,149.04c1.45,1.83,7.45,4.54,7.45,4.54,0,0-3.89-1.86-5.19-8.93-.48-2.58-.72-4.05-.76-5.08h-.86c3.03-4.82,4.73-10.2,4.73-15.88,0-7.37-1.8-14.18-6.71-19.96.17,1.66-.93,5.09-.93,6.8,0,17.4-9.06,30.42-22.52,37.71.63-1.92,1-4.12,1-6.49,0-4.43-1.26-8.33-3.18-10.68-3.16-5.21-9.55-.8-16.93-.79-7.39-.01-13.78-4.42-16.93.79-1.92,2.34-3.18,6.25-3.18,10.68,0,2.37.38,4.57,1,6.49-13.46-7.29-22.52-20.32-22.52-37.71,0-1.71-1.11-5.14-.93-6.8-4.91,5.78-6.71,12.59-6.71,19.96,0,5.68,1.7,11.06,4.73,15.88h-.87c-.04,1.03-.28,2.5-.76,5.08-1.3,7.07-5.19,8.93-5.19,8.93,0,0,6-2.7,7.45-4.54.7-.89,2.58-3.36,3.14-4.1.01.04.03.05.04.07-.33.81-1.12,3.44-.01,8.52,1.45,6.63,7.4,11.1,7.4,11.1,0,0-3.56-5.28-2.58-11.04,0,0-.21,2.31,5.59,8.75,5.54,6.15,15.66,13.59,16.55,13.67-.07-.2-.18-7.36-.26-9.98,4.23,1.36,8.64,2.13,13.23,2.13.27,0,.54-.01.81-.02.27,0,.54.02.81.02,4.58,0,8.99-.78,13.22-2.13-.07,2.62-.18,11.38-.26,11.58.88-.08,11-9.12,16.55-15.27,5.8-6.43,5.59-8.75,5.59-8.75.99,5.77-2.58,11.04-2.58,11.04,0,0,5.95-4.47,7.4-11.1,1.11-5.08.31-7.71-.01-8.52.01-.02.03-.03.04-.07.57.75,2.44,3.21,3.15,4.1Z"/>
      <path class="cls-10" d="M113.35,136.18v87.43h-50.66l-1.24-.46c0-6.13.53-11.52,1.44-16.25.77-3.87,1.79-7.34,2.99-10.4,2.68-6.8,6.27-11.67,9.95-15.17,1.23-1.15,2.45-2.15,3.67-3.01.21-.15.43-.31.64-.45,1.81-1.26,3.58-2.21,5.18-2.93.92-.43,1.8-.78,2.6-1.04.28-.11.53-.2.8-.28.31-.09.57-.18.85-.26.77-.22,1.4-.38,1.88-.46.64-.14,1-.17,1-.17.19,0,.36-.02.55-.05.11-.02.21-.03.32-.08,1.45-.35,2.63-1.6,3.62-3.53.77-1.52,1.43-3.49,1.93-5.74.21-.89.39-1.77.56-2.75.24-1.61.48-3.3.69-5.08.07-1.06.19-2.1.33-3.23.44-5.34.56-11.21.56-16.76,0,0,6.82.66,12.33.66Z"/>
      <path class="cls-17" d="M165.47,223.15s-.44.15-1.2.46h-50.92v-87.43h.15c5.47,0,12.35-.66,12.35-.66,0,5.51.12,11.29.59,16.65.12,1.04.24,2.1.32,3.15.21,1.86.45,3.58.75,5.21v.03c.08.74.24,1.4.37,2.07.49,2.27,1.09,4.28,1.84,5.88.91,2,2.01,3.39,3.36,3.95.04.02.09.03.13.05.39.14.79.23,1.23.23,0,0,.24.03.67.11.69.12,1.91.38,3.44.91.24.08.48.17.75.26.13.05.27.09.41.15.36.14.72.29,1.09.45,1.76.75,3.79,1.8,5.91,3.24v.02c.13.08.28.18.41.28.85.6,1.71,1.26,2.59,2v.02c4.15,3.53,8.32,8.72,11.33,16.36,1.17,2.96,2.16,6.3,2.92,10.01.96,4.82,1.51,10.34,1.51,16.63Z"/>
      <g class="cls-22">
        <path class="cls-2" d="M127.65,160.84v.05c-1.28,2.35-5.58,9.09-14.1,9.09h-.08c-8.06-.05-12.77-6.99-13.97-9.04.25-2.05.5-4.2.7-6.45.08-1.32.21-2.69.33-4.11,3.93,1.17,8.23,1.91,12.77,2h.17c4.71-.1,9.05-.88,13.11-2.15.12,1.32.25,2.69.33,4.01.21,2.35.45,4.55.74,6.6"/>
      </g>
      <path class="cls-3" d="M113.98,42.91c-46.74,0-46.99,39.19-44.91,64.86-3.19-6.08-12.71-4.22-11.92,5.37.75,9.23,14.34,13.94,13.96,12.92,7.08,18.98,25.81,33.29,42.86,33.29h.36V42.91h-.36"/>
      <path class="cls-18" d="M60.13,109.09c2.3-3.72,5.89-2.11,6.75-1.29.93.89,1.69,2.04,1.11,4.22-.32,1.25-1.62,1.36-1.33,3.22.36,2.11,1.33,2.22,1.9,2.72.54.47,1.22.82,1.54,1.72.36.89.4,1.83.22,2.65-.36,1.5-2.55.29-4.02-.36-.97-.47-4.06-3.08-4.85-3.94-1.94-2.22-2.87-6.51-1.33-8.95"/>
      <path class="cls-6" d="M114.23,42.91c46.74,0,46.99,39.19,44.94,64.86,3.19-6.08,12.67-4.22,11.88,5.37-.72,9.23-14.34,13.94-13.96,12.92-6.89,18.98-25.81,33.29-42.86,33.29h-.25l-.11-116.43h.36"/>
      <path class="cls-18" d="M168.08,109.09c-2.3-3.72-5.85-2.11-6.75-1.29-.93.89-1.65,2.04-1.11,4.22.32,1.25,1.62,1.36,1.33,3.22-.36,2.11-1.33,2.22-1.87,2.72-.54.47-1.26.82-1.58,1.72-.32.89-.39,1.83-.22,2.65.36,1.5,2.55.29,4.02-.36,1.01-.47,4.06-3.08,4.85-3.94,1.97-2.22,2.87-6.51,1.33-8.95"/>
      <path class="cls-10" d="M113.61,53.97c-15.36,0-26.64,4.47-33.42,13.28-9.51,12.35-9.15,31.17-5.67,44.7,1.08,4.15,1.65,15.28,2.37,19.36,3.34,18.29,23.48,28.02,36.72,28.02h.36V53.97h-.22"/>
      <path class="cls-17" d="M147,67.28c-6.75-8.77-17.88-13.24-33.03-13.31v105.37c15.15-.18,33.28-10.84,36.37-28.02.75-4.08,1.29-15.21,2.37-19.36,3.52-13.49,3.88-32.28-5.71-44.67"/>
      <path class="cls-1" d="M112.1,136.82c-.21-.04-.41-.07-.58-.11.2.04.39.08.58.11Z"/>
      <path class="cls-1" d="M111.3,140.61c-.13-.03-.27-.06-.35-.08.12.03.23.05.35.08Z"/>
      <path class="cls-21" d="M111.52,140.66c-.07-.02-.15-.03-.22-.05.07.02.14.03.22.05Z"/>
      <path class="cls-21" d="M110.95,140.53c-.07-.02-.13-.04-.2-.06h0s.08.02.2.06Z"/>
      <path class="cls-1" d="M72.07,86.81c-.42,1.4-.71,2.92-.91,4.55,0,0,.62-2.57,1.98-6.37-.58.81-.97,1.46-1.07,1.82Z"/>
      <path class="cls-1" d="M112.24,138.64c-.22-.04-.42-.08-.59-.11.2.04.4.08.59.11Z"/>
      <path class="cls-1" d="M111.42,138.47c-.14-.03-.27-.06-.36-.08.12.03.24.05.36.08Z"/>
      <path class="cls-24" d="M111.65,138.52c-.08-.02-.15-.03-.23-.05.07.02.14.03.23.05Z"/>
      <path class="cls-24" d="M111.06,138.39c-.07-.02-.13-.04-.2-.06h0s.08.02.21.06Z"/>
      <path class="cls-9" d="M80.44,98.56s3.57,11.54,9.69,12.48c6.12.94,12.75-.93,12.75-.93,0,0,.63-13.56-2.5-15.33-3.13-1.78-10.35-4.35-19.93,3.78Z"/>
      <path class="cls-23" d="M102.88,110.07s-.14.03-.46.14c-.08-4.16-.57-9.87-2.52-10.96-2.91-1.68-9.48-4.05-18.26,2.42-.8-1.79-1.2-3.14-1.2-3.14,9.6-8.15,16.83-5.58,19.93-3.8,3.14,1.78,2.5,15.35,2.5,15.35Z"/>
      <path class="cls-19" d="M99.26,104.2c0,2.62-2.7,4.75-6.03,4.75s-6.03-2.13-6.03-4.75,2.7-4.75,6.03-4.75,6.03,2.13,6.03,4.75Z"/>
      <path class="cls-15" d="M92.95,107.36c-1.74-.11-3.08-1.5-2.92-3.02.16-1.52,1.76-2.71,3.5-2.6,1.74.11,3.07,1.5,2.92,3.02-.16,1.52-1.76,2.72-3.5,2.6Z"/>
      <path class="cls-11" d="M93.11,106.81c-1.21-.08-2.47-1.13-2.33-2.42.14-1.29,1.59-2.17,2.8-2.09,1.21.08,2.47,1.13,2.33,2.42-.13,1.29-1.59,2.16-2.8,2.09Z"/>
      <path class="cls-9" d="M92.12,103.63c-.05.47-.66.81-1.35.76-.7-.05-1.22-.46-1.18-.93.05-.47.65-.81,1.35-.76.7.04,1.23.46,1.18.93Z"/>
      <path class="cls-9" d="M96.03,106.33c-.03.23-.33.4-.68.38-.35-.02-.61-.23-.59-.46.03-.23.33-.4.68-.38.35.02.61.23.59.46Z"/>
      <path class="cls-1" d="M112.34,140.37c-.22-.04-.42-.08-.59-.11.2.04.4.08.59.11Z"/>
      <path class="cls-1" d="M111.52,140.2c-.14-.03-.27-.06-.36-.08.12.03.24.05.36.08Z"/>
      <path class="cls-24" d="M111.74,140.25c-.08-.02-.15-.03-.23-.05.07.02.14.03.23.05Z"/>
      <path class="cls-24" d="M111.16,140.12c-.07-.02-.13-.04-.2-.06h0s.08.02.21.06Z"/>
      <path class="cls-1" d="M112.1,139.96c-.23-.04-.45-.08-.64-.12.22.05.42.09.64.12Z"/>
      <path class="cls-1" d="M111.23,139.79c-.15-.03-.29-.07-.39-.09.13.03.25.06.39.09Z"/>
      <path class="cls-21" d="M111.47,139.84c-.08-.02-.16-.03-.24-.05.08.02.15.03.24.05Z"/>
      <path class="cls-21" d="M110.84,139.7c-.07-.02-.14-.04-.22-.06h0s.08.03.22.06Z"/>
      <path class="cls-1" d="M111.92,139.35c-.23-.04-.45-.08-.64-.12.22.05.43.09.64.12Z"/>
      <path class="cls-1" d="M111.05,139.17c-.15-.03-.29-.07-.39-.09.13.03.25.06.39.09Z"/>
      <path class="cls-21" d="M111.29,139.22c-.08-.02-.16-.03-.24-.05.08.02.15.03.24.05Z"/>
      <path class="cls-21" d="M110.66,139.08c-.07-.02-.14-.04-.22-.06h0s.08.03.22.06Z"/>
      <path class="cls-1" d="M112.46,139.26c-.23-.04-.43-.08-.61-.12.21.04.41.09.61.12Z"/>
      <path class="cls-1" d="M111.61,139.09c-.14-.03-.28-.06-.37-.09.12.03.25.06.37.09Z"/>
      <path class="cls-21" d="M111.85,139.14c-.08-.02-.16-.03-.23-.05.08.02.14.03.23.05Z"/>
      <path class="cls-21" d="M111.24,139c-.07-.02-.14-.04-.21-.06h0s.08.03.22.06Z"/>
      <path class="cls-9" d="M147.87,98.17s-3.57,11.54-9.69,12.48c-6.12.94-12.75-.93-12.75-.93,0,0-.63-13.56,2.5-15.33,3.13-1.78,10.35-4.35,19.93,3.78Z"/>
      <path class="cls-23" d="M125.42,109.68s.14.03.46.14c.08-4.16.57-9.87,2.52-10.96,2.91-1.68,9.48-4.05,18.26,2.42.8-1.79,1.2-3.14,1.2-3.14-9.6-8.15-16.83-5.58-19.93-3.8-3.14,1.78-2.5,15.35-2.5,15.35Z"/>
      <path class="cls-19" d="M129.05,103.81c0,2.62,2.7,4.75,6.03,4.75s6.03-2.13,6.03-4.75-2.7-4.75-6.03-4.75-6.03,2.13-6.03,4.75Z"/>
      <path class="cls-15" d="M135.35,106.97c1.74-.11,3.08-1.5,2.92-3.02-.16-1.52-1.76-2.71-3.5-2.6-1.74.11-3.07,1.5-2.92,3.02.16,1.52,1.76,2.72,3.5,2.6Z"/>
      <path class="cls-11" d="M135.2,106.42c1.21-.08,2.47-1.13,2.33-2.42-.14-1.29-1.59-2.17-2.8-2.09-1.21.08-2.47,1.13-2.33,2.42.13,1.29,1.59,2.16,2.8,2.09Z"/>
      <path class="cls-9" d="M136.19,103.24c.05.47.66.81,1.35.76.7-.05,1.22-.46,1.18-.93-.05-.47-.65-.81-1.35-.76-.7.04-1.23.46-1.18.93Z"/>
      <path class="cls-9" d="M132.28,105.93c.03.23.33.4.68.38.35-.02.61-.23.59-.46-.03-.23-.33-.4-.68-.38-.35.02-.61.23-.59.46Z"/>
      <g>
        <path class="cls-4" d="M106.26,101.02c-.04-.12-1.02-2.89-3.03-5.75-1.26-1.79-2.49-3.15-3.78-4.17-1.56-1.21-3.23-2.07-4.86-2.48-1.47-.3-3.1-.22-5,.25-1.45.51-2.86,1.31-4.06,2.29-.86.55-1.53,1.31-2.08,1.93-.21.24-.4.45-.59.64l-2.59,3.02,2.98-1.3c.14-.07.29-.14.45-.22.62-.3,1.39-.68,2.29-.93.21-.06.43-.14.64-.22.38-.14.76-.28,1.17-.32.45-.06.92-.12,1.4-.18l.63-.08c1.65-.04,3.05.19,4.29.72,1.36.43,2.75,1.24,4.03,2.34,1.21,1.07,2.36,2.13,3.26,3.36,1.82,2.25,2.84,4.13,2.85,4.15h0c.25.47.58.71.92.71.24,0,.49-.13.71-.39.6-.73.77-2.23.39-3.31l-.02-.07Z"/>
        <path class="cls-4" d="M143.37,93.72c-.17-.17-.36-.38-.57-.62-.54-.62-1.22-1.38-2.05-1.91-1.23-1-2.64-1.8-4.11-2.32-1.88-.47-3.51-.55-4.99-.24-1.62.41-3.29,1.27-4.85,2.48-1.26,1-2.53,2.4-3.77,4.17-1.97,2.8-2.96,5.53-3.03,5.74l-.02.05c-.33.95-.26,2.22.17,3.03.25.46.57.71.92.71h0c.35,0,.67-.25.92-.71v-.02c.11-.18,1.09-1.96,2.86-4.15.89-1.21,2.05-2.27,3.25-3.34,1.28-1.1,2.68-1.91,4.05-2.35,1.22-.52,2.62-.75,4.25-.72l.66.09c.48.06.94.12,1.4.18.4.04.79.18,1.16.32.22.08.43.16.64.22.9.24,1.67.62,2.29.93.16.08.31.15.46.22l2.98,1.3-2.61-3.04Z"/>
      </g>
      <path class="cls-1" d="M111.3,142.11c-.23-.04-.44-.08-.62-.12.21.05.41.09.62.12Z"/>
      <path class="cls-1" d="M110.45,141.94c-.14-.03-.28-.06-.38-.09.13.03.25.06.38.09Z"/>
      <path class="cls-14" d="M110.68,141.99c-.08-.02-.16-.03-.24-.05.08.02.15.03.24.05Z"/>
      <path class="cls-14" d="M110.07,141.85c-.07-.02-.14-.04-.21-.06h0s.08.03.22.06Z"/>
      <path class="cls-12" d="M105.34,145.02c-.18-2.36,6.55.49,8.76.56,1.76.06,7.06-.35,7.55-.54,3.7-1.39-.2,3.94-7.65,4.22-3.41.14-8.55-2.82-8.65-4.25Z"/>
      <path class="cls-8" d="M127.24,140.47c-1.83-.09-3.7,1.44-5.9,1.2-.09-.04-.13-.04-.23-.04-.5-.09-1,0-1.55.13-.68.14-1.37.42-2.01.65-1.1.36-2.33.65-3.61.55h0s-.04,0-.07,0-.04,0-.07,0h0c-1.27.09-2.51-.2-3.61-.56-.64-.22-1.33-.5-2.01-.65-.55-.13-1.05-.22-1.55-.13-.09,0-.14,0-.23.04-2.2.23-4.07-1.29-5.9-1.2-.5.04-1.24-.09-1.65-.09.09.04.18.09.28.13,5.21,2.55,9.7,7.31,14.67,7.16h.14c4.97.15,9.47-4.62,14.67-7.16.09-.04.19-.09.28-.13-.41,0-1.14.13-1.65.09Z"/>
      <path class="cls-7" d="M128.77,140.32h0s-5.29-2.05-9.06-.85c0,0-1.4.55-2.85.88-.88.34-1.95.45-2.99.4h0c-.79-.03-1.54-.13-2.16-.24-.21-.03-.41-.07-.62-.12-.09-.02-.16-.03-.24-.05-.13-.03-.25-.05-.38-.09-.14-.03-.22-.06-.22-.06h0c-1.2-.33-2.24-.73-2.24-.73-3.77-1.2-9.06.85-9.06.85h0c-.07.03-.12.06-.12.06.41,0,1.14.13,1.65.09,1.83-.09,3.7,1.44,5.9,1.2.09-.04.13-.04.23-.04.5-.09,1,0,1.55.13.68.14,1.37.42,2.01.65,1.1.36,2.33.65,3.61.55h0s.04,0,.07,0,.04,0,.07,0h0c1.27.09,2.51-.2,3.61-.56.64-.22,1.33-.5,2.01-.65.55-.13,1.05-.22,1.55-.13.09,0,.14,0,.23.04,2.2.23,4.07-1.29,5.9-1.2.5.04,1.24-.09,1.65-.09,0,0-.04-.02-.12-.06Z"/>
      <path class="cls-7" d="M104.97,141.57c.1.02,9.92,3.02,17.6.07l-.89-.6h-10.38l-6.33.53Z"/>
      <path class="cls-4" d="M165.99,92.08c-1.72-4.2-2.61-8.76-2.36-13.38.51-9.48-.4-20.13-4.73-29.68-5.4-11.9-15.39-14.64-24.16-15.44-4.02-.37-7.51-.39-10.72.32-5.91,1.3-11.97,1.3-17.88,0-3.21-.71-6.7-.69-10.72-.32-8.77.8-18.77,3.54-24.16,15.44-4.33,9.54-5.24,20.2-4.73,29.68.25,4.62-.65,9.18-2.36,13.38-1.8,4.41-2.31,10.34,5.03,14.09,2.1,1.07,3.94,2.71,5.3,4.83.13.2.25.39.38.58.76,1.15,2.37.29,2.07-1.11-1.62-7.7-1.85-20.54,11.83-27.36,8.98-4.48,12.69-5.49,20.92-9.21,2.52-1.13,4.19-2.45,5.38-3.87,1.19,1.42,2.87,2.74,5.38,3.87,8.23,3.72,11.94,4.73,20.92,9.21,13.68,6.82,13.45,19.66,11.83,27.36-.29,1.4,1.31,2.26,2.07,1.11.13-.19.25-.38.38-.58,1.35-2.12,3.2-3.75,5.3-4.83,7.33-3.76,6.83-9.68,5.03-14.09Z"/>
      <path class="cls-4" d="M131.75,138.24h0c-2.04-5.93-7.04-11.02-14.38-7.44-.6.29-1.03.54-1.43.86-1.13.93-2.81.93-3.94,0-.39-.32-.82-.57-1.43-.86-7.34-3.58-12.34,1.51-14.38,7.46h0c-3.69,8.83-8.02,4.72-8.02,4.72-.27,7.78,9.32,10.74,14.49,6.27.67-.63,3.05-2.82,5.63-4.88h0s0,0,0,0c1.61-1.29,3.3-2.52,4.7-3.27.61-.33,1.33-.33,1.94,0,1.4.76,3.09,1.99,4.7,3.27,0,0,0,0,0,0h0c2.59,2.06,4.96,4.25,5.63,4.88,5.18,4.47,14.76,1.52,14.49-6.27,0,0-4.33,4.11-8.02-4.73Z"/>
      <path class="cls-6" d="M105.05,126.54c-.18-3.64,6.67-1.33,8.92-1.22,1.78.09,7.21-1.15,7.67-.83,3.19,2.16-3.38,6.51-7.79,6.51-1.17,0-8.7-2.27-8.81-4.46Z"/>
      <path class="cls-20" d="M163.38,204.76s-1.67-9.7-7.69-18.13c0,0-2.03-4.52-8.97-8.77h0c-2.12-1.45-4.15-2.5-5.91-3.25-.37-.15-.73-.31-1.09-.45-.15-.06-.28-.11-.41-.15-.27-.09-.51-.18-.75-.26-1.53-.52-2.75-.78-3.44-.91-.43-.08-.67-.11-.67-.11-.18,0-.35-.02-.52-.05-.24-.06-.46-.12-.7-.18-5.9,15.82-14.76,26.35-19.86,26.98-.09.03-.17.03-.25.03h-.01c-5-.09-13.82-10.78-19.76-26.91,0,0-.26.03-.72.11-.05,0-.1.01-.15.01,0,0-.36.03-1,.17-.48.08-1.11.25-1.88.46-.28.08-.55.17-.85.26-.27.08-.52.17-.8.28-.8.26-1.68.61-2.6,1.04-1.6.72-3.36,1.67-5.18,2.93-.01.02-.03.04-.04.06-3.27,2.2-6.67,5.3-9.55,9.64,0,0-5.79,8.66-7.2,17.18h10.9c1.46,0,2.55,1.54,2.26,3.19-1.03,5.99-2.16,10.97-3.24,15.67h80.07c-1.08-4.7-2.22-9.68-3.24-15.67-.28-1.64.81-3.19,2.26-3.19h11Z"/>
    </g>
  </g>
</svg>