<?xml version="1.0" encoding="UTF-8"?>
<svg id="Layer_2" data-name="Layer 2" xmlns="http://www.w3.org/2000/svg" xmlns:xlink="http://www.w3.org/1999/xlink" viewBox="0 0 223.47 223.86">
  <defs>
    <style>
      .cls-1 {
        fill: none;
      }

      .cls-2 {
        fill: #462e1b;
      }

      .cls-3 {
        fill: #ba9d82;
      }

      .cls-4 {
        fill: #ccad8a;
      }

      .cls-5 {
        fill: #42413b;
      }

      .cls-6 {
        fill: #44361f;
      }

      .cls-7 {
        fill: #d7bd9d;
      }

      .cls-8 {
        fill: #873a32;
      }

      .cls-9 {
        fill: #c1a587;
      }

      .cls-10 {
        fill: #dac6a4;
      }

      .cls-11 {
        fill: #fff;
      }

      .cls-12 {
        fill: #dcc5a0;
      }

      .cls-13 {
        fill: #272213;
      }

      .cls-14 {
        fill: #ecdab6;
      }

      .cls-15 {
        fill: #3c3d39;
      }

      .cls-16 {
        fill: #b8987d;
      }

      .cls-17 {
        fill: #6b7396;
      }

      .cls-18 {
        fill: #ebd9b5;
      }

      .cls-19 {
        fill: #a98d76;
      }

      .cls-20 {
        fill: #4e5b7a;
      }

      .cls-21 {
        fill: #714223;
      }

      .cls-22 {
        fill: #1a1a1a;
      }

      .cls-23 {
        fill: #b7967d;
      }

      .cls-24 {
        clip-path: url(#clippath);
      }

      .cls-25 {
        fill: #d2bb9b;
      }

      .cls-26 {
        fill: #b5957e;
      }

      .cls-27 {
        fill: #3c3d38;
      }
    </style>
    <clipPath id="clippath">
      <rect class="cls-1" x="102.45" y="155.04" width="25.12" height="14.86"/>
    </clipPath>
  </defs>
  <g id="Layer_1-2" data-name="Layer 1">
    <g>
      <rect class="cls-8" width="223.47" height="223.72"/>
      <path class="cls-12" d="M114.91,139.78v84.07h-45.32c-.74-.29-1.11-.45-1.11-.45,0-7.92.86-14.54,2.27-20.1.49-1.97,1.06-3.81,1.69-5.51.46-1.26.95-2.44,1.47-3.56,5.93-12.96,15.24-17.31,19.72-18.69,1.6-.51,2.58-.61,2.58-.61.17,0,.31-.02.48-.05h.02c1.43-.23,2.6-1.47,3.52-3.46.69-1.47,1.27-3.36,1.74-5.53.2-.86.34-1.7.49-2.64.22-1.55.43-3.18.63-4.88.06-1.03.18-2.03.29-3.1.4-5.14.51-10.78.51-16.11,0,0,6.1.63,11.03.63Z"/>
      <path class="cls-18" d="M161.53,223.4s-.4.15-1.06.45h-45.57v-84.07h.12c4.9,0,11.06-.63,11.06-.63,0,5.3.11,10.84.52,16,.11,1,.22,2.03.29,3.03.18,1.78.41,3.44.66,5.01v.03c.08.71.22,1.34.34,2,.45,2.18.98,4.12,1.64,5.65.81,1.92,1.81,3.26,3.01,3.79.38.17.78.26,1.21.26,0,0,.25.03.69.12h.02c.74.15,2.03.46,3.66,1.11,4.85,1.92,12.73,6.65,17.97,18.08.52,1.12,1.01,2.3,1.47,3.56.63,1.7,1.2,3.55,1.69,5.51,1.41,5.56,2.27,12.18,2.27,20.1Z"/>
      <g class="cls-24">
        <path class="cls-3" d="M127.56,163.02v.04c-1.14,1.77-4.98,6.84-12.58,6.84h-.07c-7.19-.04-11.4-5.26-12.47-6.8.22-1.54.44-3.16.63-4.85.07-.99.18-2.02.3-3.09,3.5.88,7.34,1.43,11.4,1.51h.15c4.2-.07,8.08-.66,11.69-1.62.11.99.22,2.02.3,3.02.18,1.77.41,3.42.66,4.96"/>
      </g>
      <path class="cls-4" d="M114.4,43.97c-48.02,0-48.28,40.27-46.14,66.64-3.28-6.25-13.06-4.34-12.25,5.52.77,9.49,14.74,14.32,14.35,13.28,7.27,19.5,26.52,34.2,44.04,34.2h.37V43.97h-.37"/>
      <path class="cls-19" d="M59.07,111.97c2.36-3.82,6.05-2.17,6.93-1.32.96.92,1.73,2.1,1.14,4.34-.33,1.29-1.66,1.4-1.36,3.31.37,2.17,1.36,2.28,1.95,2.79.55.48,1.25.85,1.59,1.77.37.92.41,1.88.22,2.72-.37,1.54-2.62.29-4.13-.37-1-.48-4.17-3.16-4.98-4.05-1.99-2.28-2.95-6.69-1.36-9.19"/>
      <path class="cls-7" d="M114.65,43.97c48.02,0,48.28,40.27,46.18,66.64,3.28-6.25,13.02-4.34,12.21,5.52-.74,9.49-14.73,14.33-14.35,13.28-7.08,19.5-26.52,34.2-44.04,34.2h-.26l-.11-119.63h.37"/>
      <path class="cls-19" d="M169.98,111.97c-2.36-3.82-6.01-2.17-6.93-1.32-.96.92-1.7,2.1-1.14,4.34.33,1.29,1.66,1.4,1.36,3.31-.37,2.17-1.36,2.28-1.92,2.79-.55.48-1.29.85-1.62,1.77-.33.92-.41,1.88-.22,2.72.37,1.54,2.62.29,4.13-.37,1.03-.48,4.17-3.16,4.98-4.05,2.03-2.28,2.95-6.69,1.36-9.19"/>
      <path class="cls-12" d="M114.02,55.34c-15.79,0-27.37,4.6-34.34,13.64-9.77,12.69-9.41,32.03-5.83,45.93,1.11,4.27,1.7,15.7,2.43,19.9,3.43,18.79,24.12,28.8,37.73,28.8h.37V55.34h-.22"/>
      <path class="cls-18" d="M148.32,69.02c-6.93-9.01-18.37-13.61-33.93-13.68v108.27c15.57-.18,34.19-11.14,37.37-28.8.77-4.19,1.33-15.63,2.43-19.9,3.61-13.86,3.98-33.17-5.86-45.9"/>
      <path class="cls-1" d="M112.46,140.47c-.22-.04-.42-.08-.59-.11.2.04.4.08.59.11Z"/>
      <path class="cls-1" d="M111.64,144.37c-.14-.03-.27-.06-.36-.08.12.03.24.05.36.08Z"/>
      <path class="cls-23" d="M111.87,144.41c-.08-.02-.15-.03-.23-.05.07.02.14.03.23.05Z"/>
      <path class="cls-23" d="M111.28,144.28c-.07-.02-.13-.04-.2-.06h0s.08.02.21.06Z"/>
      <path class="cls-7" d="M105.22,131.14c-.18-3.74,6.85-1.37,9.17-1.25,1.83.09,7.41-1.18,7.89-.85,3.28,2.22-3.47,6.69-8,6.69-1.21,0-8.94-2.33-9.05-4.58Z"/>
      <path class="cls-1" d="M71.33,89.09c-.43,1.44-.73,3-.93,4.67,0,0,.63-2.64,2.03-6.54-.6.83-1,1.5-1.1,1.87Z"/>
      <path class="cls-6" d="M100.98,55.61l-.2.2.03.07c.07-.1.1-.2.17-.27Z"/>
      <path class="cls-1" d="M112.61,142.33c-.22-.04-.43-.08-.61-.12.21.04.41.09.61.12Z"/>
      <path class="cls-1" d="M111.77,142.17c-.14-.03-.28-.06-.37-.09.12.03.24.06.37.09Z"/>
      <path class="cls-26" d="M112,142.22c-.08-.02-.15-.03-.23-.05.08.02.14.03.23.05Z"/>
      <path class="cls-26" d="M111.4,142.08c-.07-.02-.14-.04-.21-.06h0s.08.02.21.06Z"/>
      <path class="cls-11" d="M79.94,97.6s3.66,15.08,9.95,16.31c6.29,1.23,13.1-1.22,13.1-1.22,0,0,.65-17.72-2.57-20.03-3.22-2.33-10.64-5.69-20.48,4.94Z"/>
      <path class="cls-25" d="M103,112.64s-.14.04-.47.18c-.08-5.43-.58-12.9-2.59-14.33-2.99-2.2-9.74-5.29-18.76,3.17-.82-2.34-1.23-4.11-1.23-4.11,9.86-10.65,17.29-7.29,20.48-4.97,3.22,2.32,2.57,20.06,2.57,20.06Z"/>
      <path class="cls-2" d="M99.27,104.96c0,3.43-2.77,6.21-6.19,6.21s-6.19-2.78-6.19-6.21,2.77-6.21,6.19-6.21,6.19,2.78,6.19,6.21Z"/>
      <path class="cls-21" d="M92.79,109.1c-1.79-.15-3.16-1.96-3-3.95.16-1.99,1.81-3.55,3.6-3.4,1.79.15,3.16,1.96,3,3.94-.16,1.99-1.81,3.55-3.6,3.4Z"/>
      <path class="cls-13" d="M92.95,108.38c-1.24-.11-2.54-1.48-2.4-3.16.14-1.69,1.63-2.83,2.88-2.73,1.25.11,2.53,1.48,2.4,3.17-.14,1.69-1.63,2.83-2.88,2.73Z"/>
      <path class="cls-11" d="M91.94,104.22c-.05.61-.68,1.06-1.39,1-.72-.06-1.26-.61-1.21-1.21.05-.61.67-1.06,1.39-1,.72.06,1.26.6,1.21,1.22Z"/>
      <path class="cls-11" d="M95.95,107.75c-.03.3-.34.53-.69.5-.36-.03-.63-.3-.61-.61.03-.3.34-.53.69-.5.36.03.63.3.61.61Z"/>
      <path class="cls-1" d="M112.71,144.11c-.22-.04-.43-.08-.61-.12.21.04.41.09.61.12Z"/>
      <path class="cls-1" d="M111.87,143.95c-.14-.03-.28-.06-.37-.09.12.03.24.06.37.09Z"/>
      <path class="cls-26" d="M112.1,144c-.08-.02-.15-.03-.23-.05.08.02.14.03.23.05Z"/>
      <path class="cls-26" d="M111.5,143.86c-.07-.02-.14-.04-.21-.06h0s.08.03.21.06Z"/>
      <path class="cls-1" d="M112.47,143.69c-.24-.04-.46-.08-.65-.13.22.05.44.09.65.13Z"/>
      <path class="cls-1" d="M111.57,143.52c-.15-.03-.3-.07-.4-.09.13.03.26.06.4.09Z"/>
      <path class="cls-23" d="M111.82,143.57c-.08-.02-.17-.03-.25-.05.08.02.15.03.25.05Z"/>
      <path class="cls-23" d="M111.17,143.43c-.08-.02-.15-.04-.22-.06h0s.09.03.23.06Z"/>
      <path class="cls-1" d="M112.28,143.06c-.24-.04-.46-.08-.65-.12.22.05.44.09.65.12Z"/>
      <path class="cls-1" d="M111.38,142.89c-.15-.03-.3-.07-.4-.09.13.03.26.06.4.09Z"/>
      <path class="cls-23" d="M111.63,142.94c-.08-.02-.17-.03-.25-.05.08.02.15.03.25.05Z"/>
      <path class="cls-23" d="M110.99,142.79c-.08-.02-.15-.04-.22-.06h0s.09.03.23.06Z"/>
      <path class="cls-1" d="M112.84,142.97c-.23-.04-.44-.08-.63-.12.21.05.42.09.63.12Z"/>
      <path class="cls-1" d="M111.97,142.8c-.14-.03-.29-.06-.38-.09.13.03.25.06.38.09Z"/>
      <path class="cls-23" d="M112.21,142.85c-.08-.02-.16-.03-.24-.05.08.02.15.03.24.05Z"/>
      <path class="cls-23" d="M111.58,142.71c-.07-.02-.14-.04-.21-.06h0s.08.03.22.06Z"/>
      <path class="cls-11" d="M149.22,97.08s-3.66,15.08-9.95,16.31c-6.29,1.23-13.1-1.22-13.1-1.22,0,0-.65-17.72,2.57-20.03,3.22-2.33,10.64-5.69,20.48,4.94Z"/>
      <path class="cls-25" d="M126.16,112.13s.14.04.47.18c.08-5.43.58-12.9,2.59-14.33,2.99-2.2,9.74-5.29,18.76,3.17.82-2.34,1.23-4.11,1.23-4.11-9.86-10.65-17.29-7.29-20.48-4.97-3.22,2.32-2.57,20.06-2.57,20.06Z"/>
      <path class="cls-2" d="M129.88,104.45c0,3.43,2.77,6.21,6.19,6.21s6.19-2.78,6.19-6.21-2.77-6.21-6.19-6.21-6.19,2.78-6.19,6.21Z"/>
      <path class="cls-21" d="M136.36,108.59c1.79-.15,3.16-1.96,3-3.95-.16-1.99-1.81-3.55-3.6-3.4-1.79.15-3.16,1.96-3,3.94.16,1.99,1.81,3.55,3.6,3.4Z"/>
      <path class="cls-13" d="M136.2,107.87c1.24-.11,2.54-1.48,2.4-3.16-.14-1.69-1.63-2.83-2.88-2.73-1.24.11-2.53,1.48-2.4,3.17.14,1.69,1.63,2.83,2.88,2.73Z"/>
      <path class="cls-11" d="M137.21,103.71c.05.61.68,1.06,1.39,1,.72-.06,1.26-.61,1.21-1.21-.05-.61-.67-1.06-1.39-1-.72.06-1.26.6-1.21,1.22Z"/>
      <path class="cls-11" d="M133.2,107.23c.03.3.34.53.69.5.36-.03.63-.3.61-.61-.03-.3-.34-.53-.69-.5-.36.03-.63.3-.61.61Z"/>
      <g>
        <path class="cls-22" d="M106.77,97.36c-.05-.07-1.19-1.81-3.52-3.61-1.46-1.13-2.89-1.98-4.38-2.62-1.81-.76-3.75-1.3-5.64-1.56-1.7-.19-3.59-.14-5.8.16-1.68.32-3.32.82-4.72,1.44-.99.34-1.78.83-2.41,1.21-.24.15-.46.28-.68.4l-3,1.89,3.46-.82c.16-.04.34-.09.52-.14.72-.19,1.61-.43,2.65-.58.24-.04.49-.09.75-.14.44-.09.89-.18,1.36-.2.52-.04,1.07-.07,1.63-.11l.73-.05c1.92-.02,3.54.12,4.98.45,1.57.27,3.19.78,4.67,1.47,1.4.67,2.74,1.34,3.79,2.11,2.12,1.42,3.29,2.6,3.3,2.61h0c.29.29.68.45,1.07.45.28,0,.57-.08.82-.25.7-.46.89-1.4.45-2.08l-.03-.05Z"/>
        <path class="cls-22" d="M149.83,92.77c-.2-.11-.42-.24-.66-.39-.63-.39-1.41-.87-2.38-1.2-1.42-.63-3.06-1.13-4.77-1.45-2.19-.29-4.08-.35-5.79-.15-1.88.26-3.82.8-5.63,1.56-1.47.63-2.94,1.51-4.38,2.62-2.29,1.76-3.43,3.47-3.52,3.6l-.02.03c-.39.6-.3,1.4.2,1.9.28.29.66.45,1.07.45h0c.4,0,.78-.16,1.06-.45h.01c.11-.12,1.25-1.24,3.31-2.62,1.03-.76,2.37-1.43,3.77-2.1,1.49-.69,3.11-1.2,4.7-1.48,1.42-.33,3.04-.47,4.93-.45l.76.05c.55.04,1.09.08,1.62.11.46.02.92.11,1.35.2.25.05.5.1.75.14,1.05.15,1.94.39,2.65.58.19.05.36.1.53.14l3.46.82-3.03-1.91Z"/>
      </g>
      <path class="cls-1" d="M111.65,145.9c-.23-.04-.45-.08-.64-.12.22.05.43.09.64.12Z"/>
      <path class="cls-1" d="M110.77,145.73c-.15-.03-.29-.07-.39-.09.13.03.26.06.39.09Z"/>
      <path class="cls-16" d="M111.01,145.78c-.08-.02-.16-.03-.24-.05.08.02.15.03.24.05Z"/>
      <path class="cls-16" d="M110.38,145.64c-.07-.02-.14-.04-.22-.06h0s.08.03.22.06Z"/>
      <path class="cls-14" d="M105.51,148.89c-.18-2.42,6.73.51,9,.58,1.81.06,7.25-.36,7.75-.55,3.8-1.43-.21,4.05-7.87,4.34-3.51.14-8.78-2.9-8.89-4.37Z"/>
      <path class="cls-10" d="M128.02,144.22c-1.88-.09-3.8,1.48-6.06,1.24-.09-.05-.14-.05-.23-.05-.52-.09-1.03,0-1.6.14-.7.15-1.41.43-2.07.66-1.13.37-2.4.66-3.71.56h0s-.05,0-.07,0-.05,0-.07,0h0c-1.31.09-2.58-.2-3.71-.57-.66-.23-1.37-.52-2.07-.66-.56-.14-1.08-.23-1.6-.14-.1,0-.14,0-.23.05-2.26.24-4.18-1.33-6.06-1.24-.52.05-1.27-.09-1.69-.09.09.05.19.09.29.14,5.35,2.62,9.96,7.52,15.08,7.36h.15c5.11.16,9.73-4.74,15.08-7.36.1-.05.19-.09.28-.14-.42,0-1.17.14-1.69.09Z"/>
      <path class="cls-9" d="M129.59,144.07h0s-5.44-2.1-9.31-.87c0,0-1.44.56-2.93.91-.91.35-2.01.46-3.07.41h0c-.81-.03-1.59-.14-2.22-.25-.21-.03-.42-.08-.64-.12-.09-.02-.16-.03-.24-.05-.13-.03-.26-.06-.39-.09-.14-.03-.22-.06-.22-.06h0c-1.24-.34-2.3-.75-2.3-.75-3.87-1.23-9.31.87-9.31.87h0c-.07.03-.12.06-.12.06.42,0,1.17.14,1.69.09,1.88-.09,3.8,1.48,6.06,1.24.09-.05.14-.05.23-.05.52-.09,1.03,0,1.6.14.7.15,1.41.43,2.07.66,1.13.37,2.4.66,3.71.56h0s.05,0,.07,0,.05,0,.07,0h0c1.31.09,2.58-.2,3.71-.57.66-.23,1.37-.52,2.07-.66.56-.14,1.08-.23,1.6-.14.1,0,.14,0,.23.05,2.26.24,4.18-1.33,6.06-1.24.52.05,1.27-.09,1.69-.09,0,0-.05-.02-.12-.06Z"/>
      <path class="cls-9" d="M105.14,145.35c.1.02,10.19,3.11,18.09.07l-.91-.61h-10.67l-6.51.55Z"/>
      <path class="cls-17" d="M154.47,216.78c.08,2.95.18,5.33.29,7.06v.02h-78.11v-.02c.18-2.87.37-7.53.4-13.62.02-2.13.02-4.44-.02-6.93h-6.28c.49-1.97,1.06-3.81,1.69-5.51.46-1.26.95-2.44,1.47-3.56,5.93-12.96,15.24-17.31,19.72-18.69,1.6-.51,2.58-.61,2.58-.61.17,0,.31-.02.48-.05,3.44,4.64,9.83,11.3,18.21,11.47,1.86.05,3.81-.23,5.84-.91,4.22-1.43,8.83-4.61,13.71-10.4h.02c.74.15,2.03.46,3.66,1.11,4.85,1.92,12.73,6.65,17.97,18.08.52,1.12,1.01,2.3,1.47,3.56.63,1.7,1.2,3.55,1.69,5.51h-4.87c-.03,2.49-.05,4.79-.02,6.93,0,2.43.03,4.61.09,6.56Z"/>
      <path class="cls-15" d="M128.37,161.52c-7.84.49-9.8-5.9-9.8-5.9-.72-2.18-2.05-2.88-3.43-2.9h0s-.02,0-.03,0c-.01,0-.02,0-.02,0h0c-1.38.02-2.71.72-3.43,2.9,0,0-1.96,6.39-9.8,5.9,0,0,5.07,6.28,13.23,6.47h0s.02,0,.03,0c0,0,.02,0,.02,0h.01c8.17-.2,13.23-6.47,13.23-6.47Z"/>
      <g>
        <polygon class="cls-20" points="110.93 223.86 110.93 206.44 99.21 206.44 115.23 190.42 115.23 223.86 110.93 223.86"/>
        <polygon class="cls-20" points="119.51 223.86 119.51 206.44 131.23 206.44 115.21 190.42 115.21 223.86 119.51 223.86"/>
      </g>
      <path class="cls-27" d="M175.3,81.64c-3.62-16.34-15.9-32.11-27.58-38.87-2.32-1.35-5.15-2.38-8.22-3.18-1.43-.37-2.49-1.35-3.16-2.52-1.22-2.13-3.68-3.98-6.95-5.34.54-.73.87-1.52.87-2.36,0-3.65-5.69-6.6-12.7-6.6s-12.7,2.96-12.7,6.6c0,.59.2,1.15.48,1.7-4,1.33-7.06,3.35-8.56,5.75-.72,1.16-1.84,2.1-3.29,2.43-3.63.83-6.98,1.96-9.66,3.52-11.68,6.76-23.94,22.53-27.56,38.87-3.62,16.36-3.47,40.23,9.21,52.25.13.12.26.24.39.36,3.69,3.44,10.29.21,8.84-4.35-2.22-6.97-2.67-16.21,1.25-28.15,3.8-11.59,32-30.63,36.23-32.65.51-.24.97-.45,1.4-.63,1.4-.58,2.99-.58,4.39,0,.43.18.9.39,1.4.63,4.24,2.02,32.44,21.07,36.22,32.65,3.92,11.93,3.47,21.18,1.26,28.14-1.45,4.56,5.15,7.79,8.84,4.35.13-.12.25-.24.38-.36,12.69-12.02,12.83-35.89,9.23-52.25Z"/>
      <path class="cls-20" d="M164.86,212.99h-3.88c-.38-2.48-.44-4.44-1.03-6.62-.43-1.61-.72-3.64-1.24-5.08-5.16-14.71-14.14-21.61-19.92-24.53-1.94-.98-3.5-1.51-4.39-1.78.93-.93,1.88-1.93,2.86-2.99,2.96.89,13.21,4.66,21.06,16.75.07.11.14.21.2.32.98,1.56,1.73,3.26,2.25,5.03.55,1.86,1.33,4.55,2.05,7.4,1.06,4.21,2.04,8.76,2.02,11.49Z"/>
      <path class="cls-20" d="M65.62,212.99l3.43-.26c.38-2.48,1.19-4.85,1.77-7.03.43-1.61.9-3.12,1.41-4.57,5.16-14.71,14.36-21.45,20.13-24.38,1.94-.98,3.5-1.51,4.39-1.78-.93-.93-1.88-1.93-2.86-2.99-2.96.89-13.21,4.66-21.06,16.75-.57.89-1.13,1.83-1.67,2.79,0,0-2.2,4.61-3.53,9.86-1.06,4.21-2.04,8.86-2.02,11.6Z"/>
      <g>
        <polygon class="cls-20" points="143.81 201.36 135.75 201.36 135.75 206.78 128.33 199.36 143.81 199.36 143.81 201.36"/>
        <polygon class="cls-20" points="143.81 197.38 135.75 197.38 135.75 191.96 128.33 199.37 143.81 199.37 143.81 197.38"/>
      </g>
      <g>
        <polygon class="cls-20" points="86.92 201.35 94.98 201.35 94.98 206.77 102.39 199.36 86.92 199.36 86.92 201.35"/>
        <polygon class="cls-20" points="86.92 197.38 94.98 197.38 94.98 191.96 102.39 199.37 86.92 199.37 86.92 197.38"/>
      </g>
      <path class="cls-5" d="M134.86,159.91c-.66-2.54-1.01-5.3-.91-8.1.2-5.73-.15-1.96-1.82-7.73-2.08-7.2-5.93-8.86-9.32-9.34-1.55-.23-2.89-.24-4.13.19-2.28.79-4.62.79-6.89,0-1.24-.43-2.58-.42-4.13-.19-3.38.49-7.24,2.14-9.32,9.34-1.67,5.77-2.02,2-1.82,7.73.1,2.8-.25,5.56-.91,8.1-.7,2.67-.89,6.25,1.94,8.53.81.65,1.52,1.64,2.04,2.92.05.12.1.24.15.35.29.69.91.18.8-.67-.63-4.66-.71-12.43,4.56-16.55,3.46-2.71,4.89-3.32,8.07-5.57.97-.69,1.62-1.48,2.08-2.34.46.86,1.11,1.66,2.08,2.34,3.17,2.25,4.6,2.86,8.07,5.57,5.27,4.12,5.19,11.89,4.56,16.55-.11.85.51,1.36.8.67.05-.11.1-.23.15-.35.52-1.28,1.23-2.27,2.04-2.92,2.83-2.27,2.63-5.86,1.94-8.53Z"/>
    </g>
  </g>
</svg>