<?xml version="1.0" encoding="UTF-8"?>
<svg id="Layer_2" data-name="Layer 2" xmlns="http://www.w3.org/2000/svg" xmlns:xlink="http://www.w3.org/1999/xlink" viewBox="0 0 299.36 299.86">
  <defs>
    <style>
      .cls-1 {
        fill: none;
      }

      .cls-2 {
        fill: #4a302c;
      }

      .cls-3 {
        fill: #43331b;
      }

      .cls-4 {
        fill: #d6c09e;
      }

      .cls-5 {
        fill: #b5977b;
      }

      .cls-6 {
        fill: #d7be9a;
      }

      .cls-7 {
        fill: #3d2520;
      }

      .cls-8 {
        fill: #282211;
      }

      .cls-9 {
        fill: #71909e;
      }

      .cls-10 {
        fill: #71391e;
      }

      .cls-11 {
        fill: #a4876f;
      }

      .cls-12 {
        fill: #fff;
      }

      .cls-13 {
        fill: #b19076;
      }

      .cls-14 {
        fill: #e8d2ae;
      }

      .cls-15 {
        fill: #e9d3af;
      }

      .cls-16 {
        fill: #171500;
      }

      .cls-17 {
        fill: #b39176;
      }

      .cls-18 {
        fill: #bc9e80;
      }

      .cls-19 {
        fill: #8b6ba6;
      }

      .cls-20 {
        fill: #af8f76;
      }

      .cls-21 {
        fill: #ceb495;
      }

      .cls-22 {
        fill: #452a16;
      }

      .cls-23 {
        fill: #a6d3f0;
      }

      .cls-24 {
        fill: #d3b697;
      }

      .cls-25 {
        fill: #c7a784;
      }

      .cls-26 {
        clip-path: url(#clippath);
      }
    </style>
    <clipPath id="clippath">
      <rect class="cls-1" x="137.24" y="207.69" width="33.65" height="19.9"/>
    </clipPath>
  </defs>
  <g id="RÈteg_1" data-name="RÈteg 1">
    <g>
      <rect class="cls-19" width="299.36" height="299.7"/>
      <path class="cls-2" d="M149.4,234.93v-81.51c6.25.36,11.7,5.37,22.87,8.33,26.6,7.04,37.63-11.44,35.4-20.98-3.43-14.69,1.34-23.14,3.17-22.74,0,0,.08,3.73,1.72,7.05,4.91,9.91,9.03,3.02,9.79,16.45.89,15.72,3.75,21.46,2.83,29.86-.52,4.74-2.29,10.4-3.7,14.35,17.86.28,19.92,15.19,19.92,15.19-.22-.55-.67-1.08-1.28-1.59.84.95,1.28,1.59,1.28,1.59-1.37-.85-2.68-1.57-3.96-2.23-23.95-12.25-30.63,9.27-30.63,9.27,2.5,20.28,28.22,19.99,28.22,19.99,0,0-21.86,10.14-30.29-9.74-1.13,10.7,4.93,21.1,4.93,21.1-9.76-1.99-13.85-9.57-15.57-16.04-6.03,11.11.22,19.37.22,19.37l-33.46-12.77c4.35,3.32,11.13,9.45,11.13,9.45,0,0-8.75-.87-22.58-4.38Z"/>
      <path class="cls-2" d="M154.85,234.93v-81.51c-6.25.36-11.7,5.37-22.87,8.33-26.6,7.04-37.63-11.44-35.4-20.98,3.43-14.69-1.35-23.14-3.17-22.74,0,0-.08,3.73-1.72,7.05-4.91,9.91-9.03,3.02-9.79,16.45-.89,15.72-3.76,21.46-2.83,29.86.52,4.74,2.29,10.4,3.7,14.35-17.86.28-19.92,15.19-19.92,15.19.22-.55.67-1.08,1.28-1.59-.84.95-1.28,1.59-1.28,1.59,1.37-.85,2.68-1.57,3.96-2.23,23.95-12.25,30.63,9.27,30.63,9.27-2.5,20.28-28.22,19.99-28.22,19.99,0,0,21.86,10.14,30.29-9.74,1.13,10.7-4.93,21.1-4.93,21.1,9.76-1.99,13.85-9.57,15.57-16.04,6.03,11.11-.22,19.37-.22,19.37l33.46-12.77c-4.35,3.32-11.13,9.45-11.13,9.45,0,0,8.75-.87,22.58-4.38Z"/>
      <path class="cls-6" d="M153.93,187.25v112.6h-60.71c-1.01-.39-1.46-.6-1.46-.6,0-5.37.29-10.31.82-14.83.53-4.4,1.28-8.44,2.2-12.1.68-2.63,1.44-5.1,2.26-7.39,4.34-11.89,10.74-19.22,16.69-23.7,4.59-3.46,8.87-5.23,11.73-6.11,2.1-.66,3.44-.82,3.44-.82h.06c.23,0,.39-.02.6-.06h.02c1.91-.31,3.46-1.98,4.71-4.63.93-1.98,1.71-4.49,2.32-7.41.25-1.13.43-2.28.66-3.52.29-2.1.56-4.26.8-6.54.12-1.4.25-2.74.41-4.18.53-6.89.7-14.42.7-21.56,0,0,8.15.84,14.75.84Z"/>
      <path class="cls-14" d="M216.39,299.26s-.53.21-1.44.6h-61.02v-112.6h.16c6.58,0,14.83-.84,14.83-.84,0,7.08.12,14.53.68,21.42.16,1.34.31,2.72.39,4.07.25,2.37.56,4.61.88,6.69v.04c.1.95.31,1.79.47,2.67.58,2.94,1.3,5.51,2.2,7.59,1.07,2.55,2.41,4.36,4.01,5.06.21.08.41.16.64.23.31.08.66.12,1.01.12,0,0,.33.04.91.16h.02c.99.21,2.7.64,4.88,1.5,2.55.99,5.68,2.55,8.97,4.98,6.05,4.44,12.65,11.83,17.12,23.99.84,2.28,1.58,4.75,2.26,7.39.91,3.6,1.65,7.57,2.18,11.89.53,4.59.84,9.59.84,15.04Z"/>
      <g class="cls-26">
        <path class="cls-5" d="M170.89,218.39v.05c-1.53,2.36-6.67,9.16-16.85,9.16h-.1c-9.64-.05-15.27-7.05-16.7-9.11.3-2.07.59-4.24.84-6.5.1-1.33.25-2.71.4-4.14,4.69,1.18,9.83,1.92,15.27,2.02h.2c5.63-.1,10.82-.89,15.66-2.17.15,1.33.3,2.71.4,4.04.25,2.36.54,4.58.89,6.65"/>
      </g>
      <path class="cls-25" d="M153.25,58.91c-64.34,0-64.68,53.95-61.82,89.27-4.4-8.38-17.49-5.81-16.4,7.39,1.04,12.71,19.75,19.19,19.22,17.79,9.74,26.12,35.53,45.82,59,45.82h.49V58.91h-.49"/>
      <path class="cls-11" d="M79.13,150c3.16-5.12,8.1-2.91,9.29-1.77,1.28,1.23,2.32,2.81,1.53,5.81-.44,1.72-2.22,1.87-1.83,4.43.49,2.91,1.83,3.05,2.62,3.74.74.64,1.68,1.13,2.12,2.36.49,1.23.54,2.51.3,3.65-.49,2.07-3.51.39-5.53-.49-1.33-.64-5.58-4.24-6.67-5.42-2.67-3.05-3.95-8.97-1.83-12.32"/>
      <path class="cls-24" d="M153.6,58.91c64.34,0,64.68,53.95,61.87,89.27,4.4-8.38,17.44-5.81,16.36,7.39-.99,12.71-19.73,19.19-19.22,17.79-9.49,26.12-35.53,45.82-59,45.82h-.35l-.15-160.26h.49"/>
      <path class="cls-11" d="M227.72,150c-3.16-5.12-8.05-2.91-9.29-1.77-1.28,1.23-2.27,2.81-1.53,5.81.44,1.72,2.22,1.87,1.83,4.43-.49,2.91-1.83,3.05-2.57,3.74-.74.64-1.73,1.13-2.17,2.36-.44,1.23-.54,2.51-.3,3.65.49,2.07,3.51.39,5.53-.49,1.38-.64,5.58-4.24,6.67-5.42,2.72-3.05,3.95-8.97,1.83-12.32"/>
      <path class="cls-6" d="M152.74,74.13c-21.15,0-36.66,6.16-46,18.28-13.09,17-12.6,42.91-7.81,61.53,1.48,5.72,2.27,21.04,3.26,26.65,4.6,25.18,32.32,38.58,50.55,38.58h.49V74.13h-.3"/>
      <path class="cls-14" d="M198.7,92.46c-9.29-12.07-24.61-18.23-45.46-18.33v145.04c20.85-.25,45.81-14.93,50.06-38.58,1.04-5.62,1.78-20.94,3.26-26.65,4.84-18.57,5.34-44.44-7.86-61.48"/>
      <path class="cls-1" d="M150.66,188.18c-.29-.05-.56-.1-.79-.15.27.06.53.11.79.15Z"/>
      <path class="cls-1" d="M149.56,193.4c-.18-.04-.36-.08-.48-.11.16.04.32.07.48.11Z"/>
      <path class="cls-13" d="M149.86,193.46c-.1-.02-.2-.04-.3-.06.1.02.19.04.3.06Z"/>
      <path class="cls-13" d="M149.08,193.29c-.09-.02-.18-.05-.27-.08h0s.1.03.28.08Z"/>
      <path class="cls-24" d="M140.96,175.68c-.24-5.01,9.18-1.83,12.28-1.67,2.45.13,9.92-1.58,10.56-1.14,4.39,2.97-4.65,8.96-10.72,8.96-1.62,0-11.98-3.12-12.13-6.14Z"/>
      <path class="cls-1" d="M95.56,119.34c-.58,1.92-.98,4.02-1.25,6.26,0,0,.85-3.53,2.72-8.76-.8,1.12-1.34,2.01-1.47,2.5Z"/>
      <path class="cls-3" d="M135.28,74.5l-.27.27.04.09c.09-.13.13-.27.22-.36Z"/>
      <path class="cls-1" d="M150.86,190.68c-.3-.05-.57-.11-.82-.16.28.06.55.11.82.16Z"/>
      <path class="cls-1" d="M149.73,190.45c-.19-.04-.37-.08-.49-.11.16.04.33.07.49.11Z"/>
      <path class="cls-20" d="M150.04,190.52c-.1-.02-.21-.04-.31-.07.1.02.19.04.31.07Z"/>
      <path class="cls-20" d="M149.23,190.34c-.1-.02-.18-.05-.28-.08h-.01s.11.03.29.08Z"/>
      <path class="cls-12" d="M107.09,130.74s4.91,20.2,13.34,21.85c8.43,1.65,17.55-1.63,17.55-1.63,0,0,.87-23.74-3.44-26.84-4.31-3.12-14.25-7.62-27.44,6.62Z"/>
      <path class="cls-21" d="M137.98,150.9s-.19.06-.63.24c-.11-7.28-.78-17.28-3.47-19.2-4.01-2.94-13.05-7.08-25.14,4.24-1.1-3.13-1.65-5.5-1.65-5.5,13.21-14.26,23.16-9.77,27.44-6.65,4.32,3.11,3.45,26.87,3.45,26.87Z"/>
      <ellipse class="cls-22" cx="124.7" cy="140.61" rx="8.29" ry="8.32"/>
      <path class="cls-10" d="M124.31,146.15c-2.4-.2-4.23-2.62-4.02-5.29.21-2.66,2.42-4.75,4.82-4.55,2.4.2,4.23,2.62,4.02,5.28-.22,2.67-2.43,4.75-4.82,4.55Z"/>
      <path class="cls-8" d="M124.52,145.19c-1.67-.14-3.4-1.98-3.21-4.24.19-2.27,2.19-3.8,3.86-3.66,1.67.14,3.39,1.98,3.21,4.24-.18,2.26-2.19,3.79-3.85,3.65Z"/>
      <path class="cls-12" d="M123.17,139.62c-.07.82-.91,1.41-1.86,1.33-.96-.08-1.68-.81-1.62-1.62.07-.82.9-1.42,1.86-1.34.96.08,1.69.81,1.62,1.63Z"/>
      <path class="cls-12" d="M128.54,144.34c-.04.41-.45.71-.93.67-.48-.04-.84-.41-.81-.81.03-.41.45-.71.93-.67.48.04.85.4.81.81Z"/>
      <path class="cls-1" d="M150.99,193.06c-.3-.05-.57-.11-.82-.16.28.06.55.11.82.16Z"/>
      <path class="cls-1" d="M149.86,192.84c-.19-.04-.37-.08-.49-.11.16.04.33.07.49.11Z"/>
      <path class="cls-20" d="M150.17,192.9c-.1-.02-.21-.04-.31-.07.1.02.19.04.31.07Z"/>
      <path class="cls-20" d="M149.37,192.72c-.1-.02-.18-.05-.28-.08h-.01s.11.03.29.08Z"/>
      <path class="cls-1" d="M150.67,192.5c-.32-.06-.62-.11-.87-.17.3.06.58.12.87.17Z"/>
      <path class="cls-1" d="M149.46,192.26c-.2-.05-.4-.09-.53-.12.18.05.35.08.53.12Z"/>
      <path class="cls-13" d="M149.79,192.33c-.11-.02-.22-.05-.33-.07.11.02.21.04.33.07Z"/>
      <path class="cls-13" d="M148.93,192.14c-.1-.03-.2-.06-.3-.08h-.01s.11.04.31.08Z"/>
      <path class="cls-1" d="M150.42,191.66c-.32-.06-.62-.11-.88-.17.3.06.59.12.88.17Z"/>
      <path class="cls-1" d="M149.21,191.42c-.2-.05-.4-.09-.53-.12.18.05.35.08.53.12Z"/>
      <path class="cls-13" d="M149.55,191.49c-.11-.02-.22-.05-.33-.07.11.02.21.04.33.07Z"/>
      <path class="cls-13" d="M148.68,191.29c-.1-.03-.2-.06-.3-.08h-.01s.11.04.31.08Z"/>
      <path class="cls-1" d="M151.16,191.53c-.31-.05-.6-.11-.85-.16.29.06.57.12.85.16Z"/>
      <path class="cls-1" d="M149.99,191.3c-.19-.04-.39-.09-.51-.12.17.04.34.08.51.12Z"/>
      <path class="cls-13" d="M150.32,191.37c-.11-.02-.22-.04-.32-.07.11.02.2.04.32.07Z"/>
      <path class="cls-13" d="M149.48,191.19c-.1-.03-.19-.05-.29-.08h-.01s.11.03.3.08Z"/>
      <path class="cls-12" d="M199.9,130.06s-4.91,20.2-13.33,21.85c-8.43,1.65-17.55-1.63-17.55-1.63,0,0-.87-23.74,3.44-26.84,4.31-3.11,14.25-7.62,27.44,6.62Z"/>
      <path class="cls-21" d="M169,150.21s.19.06.63.24c.11-7.28.78-17.28,3.47-19.2,4.01-2.94,13.05-7.08,25.14,4.24,1.1-3.13,1.65-5.5,1.65-5.5-13.21-14.26-23.16-9.77-27.44-6.65-4.32,3.11-3.45,26.87-3.45,26.87Z"/>
      <path class="cls-22" d="M173.99,139.93c0,4.59,3.71,8.32,8.29,8.32s8.29-3.72,8.29-8.32-3.71-8.32-8.29-8.32-8.29,3.72-8.29,8.32Z"/>
      <path class="cls-10" d="M182.67,145.47c2.4-.2,4.23-2.62,4.02-5.29-.21-2.67-2.42-4.75-4.82-4.55-2.39.2-4.23,2.62-4.02,5.28.22,2.67,2.43,4.75,4.82,4.55Z"/>
      <path class="cls-8" d="M182.46,144.51c1.67-.14,3.4-1.98,3.21-4.24-.19-2.27-2.19-3.8-3.86-3.66-1.67.14-3.39,1.98-3.21,4.24.18,2.26,2.19,3.79,3.85,3.65Z"/>
      <path class="cls-12" d="M183.82,138.93c.07.82.91,1.41,1.86,1.33.96-.08,1.68-.81,1.62-1.62-.07-.82-.9-1.42-1.86-1.34-.96.08-1.69.81-1.62,1.63Z"/>
      <path class="cls-12" d="M178.44,143.66c.04.41.45.71.93.67.48-.04.84-.41.81-.81-.03-.41-.45-.71-.93-.67-.48.04-.85.4-.81.81Z"/>
      <g>
        <path class="cls-16" d="M143.03,130.42c-.06-.1-1.59-2.43-4.72-4.83-1.96-1.51-3.88-2.65-5.87-3.51-2.42-1.02-5.03-1.74-7.55-2.09-2.28-.25-4.81-.19-7.77.21-2.25.43-4.45,1.1-6.32,1.93-1.33.46-2.38,1.11-3.23,1.62-.32.2-.62.38-.91.54l-4.03,2.54,4.64-1.09c.22-.05.45-.12.7-.18.96-.26,2.15-.57,3.55-.78.33-.05.66-.11,1-.18.58-.12,1.19-.24,1.82-.27.7-.05,1.43-.1,2.18-.15l.97-.07c2.57-.03,4.74.16,6.67.61,2.11.36,4.27,1.05,6.26,1.97,1.87.9,3.67,1.79,5.08,2.83,2.83,1.9,4.41,3.48,4.43,3.49h0c.39.39.91.6,1.43.6.38,0,.76-.11,1.1-.33.93-.61,1.2-1.88.6-2.79l-.04-.06Z"/>
        <path class="cls-16" d="M200.72,124.28c-.27-.14-.56-.32-.88-.52-.84-.52-1.9-1.16-3.19-1.61-1.91-.84-4.1-1.51-6.39-1.95-2.93-.39-5.46-.46-7.75-.21-2.51.35-5.12,1.07-7.54,2.09-1.96.84-3.94,2.02-5.87,3.51-3.07,2.36-4.6,4.65-4.71,4.83l-.03.04c-.52.8-.41,1.87.26,2.55.38.39.89.6,1.43.6h0c.54,0,1.05-.21,1.43-.6l.02-.02c.15-.15,1.68-1.65,4.43-3.49,1.38-1.02,3.18-1.91,5.05-2.81,1.99-.93,4.16-1.61,6.29-1.98,1.9-.44,4.07-.63,6.61-.6l1.02.07c.74.05,1.46.1,2.17.15.62.03,1.23.15,1.81.27.34.07.67.13,1,.18,1.4.21,2.6.52,3.56.78.25.07.48.13.71.18l4.64,1.09-4.06-2.56Z"/>
      </g>
      <path class="cls-1" d="M149.57,195.46c-.31-.05-.6-.11-.85-.16.29.06.57.12.85.16Z"/>
      <path class="cls-1" d="M148.39,195.22c-.2-.04-.39-.09-.52-.12.17.04.34.08.52.12Z"/>
      <path class="cls-17" d="M148.71,195.29c-.11-.02-.22-.04-.33-.07.11.02.2.04.33.07Z"/>
      <path class="cls-17" d="M147.87,195.11c-.1-.03-.19-.05-.29-.08h-.01s.11.03.3.08Z"/>
      <path class="cls-15" d="M141.35,199.46c-.24-3.25,9.02.68,12.06.77,2.43.08,9.71-.48,10.39-.74,5.09-1.91-.28,5.43-10.54,5.81-4.7.19-11.77-3.88-11.91-5.85Z"/>
      <path class="cls-4" d="M171.5,193.2c-2.51-.12-5.09,1.98-8.12,1.66-.12-.06-.18-.06-.31-.06-.69-.12-1.38,0-2.14.18-.94.2-1.89.58-2.77.89-1.51.49-3.21.89-4.97.75h0s-.06,0-.1,0-.06.01-.1.01h0c-1.75.12-3.45-.27-4.97-.76-.88-.31-1.83-.69-2.77-.89-.76-.18-1.44-.31-2.14-.18-.13,0-.19,0-.31.06-3.02.32-5.6-1.78-8.12-1.66-.69.06-1.7-.12-2.27-.12.12.06.25.12.38.19,7.17,3.5,13.35,10.07,20.2,9.86h.2c6.85.21,13.03-6.35,20.2-9.86.13-.06.26-.12.38-.19-.57,0-1.57.19-2.27.12Z"/>
      <path class="cls-18" d="M173.6,193h0s-7.29-2.82-12.47-1.16c0,0-1.93.75-3.93,1.21-1.22.47-2.69.61-4.11.56h0c-1.09-.04-2.13-.18-2.98-.33-.28-.04-.56-.1-.85-.16-.12-.03-.22-.05-.33-.07-.18-.04-.35-.07-.52-.12-.19-.05-.3-.08-.3-.08h.01c-1.66-.45-3.08-1.01-3.08-1.01-5.18-1.65-12.47,1.16-12.47,1.16h0c-.1.05-.16.08-.16.08.57,0,1.57.19,2.27.12,2.51-.12,5.1,1.98,8.12,1.66.12-.06.18-.06.31-.06.69-.12,1.38,0,2.14.18.94.2,1.89.58,2.77.89,1.51.49,3.21.89,4.97.75h0s.06,0,.1,0,.06.01.1.01h0c1.75.12,3.45-.27,4.97-.76.88-.31,1.83-.69,2.77-.89.76-.18,1.44-.31,2.14-.18.13,0,.19,0,.31.06,3.02.32,5.6-1.78,8.12-1.66.69.06,1.7-.12,2.27-.12,0,0-.06-.03-.16-.08Z"/>
      <path class="cls-18" d="M140.85,194.71c.13.03,13.65,4.16,24.23.09l-1.22-.82h-14.29l-8.72.73Z"/>
      <path class="cls-9" d="M149.17,257.56v42.3h-49.42v-13.72l-7.18-1.71c.53-4.4,1.28-8.44,2.2-12.1.68-2.63,1.44-5.1,2.26-7.39,4.34-11.89,10.74-19.22,16.69-23.7,7.39,6.46,19.83,14.9,35.45,16.32Z"/>
      <path class="cls-7" d="M149.17,244.37v13.19c-15.62-1.42-28.06-9.85-35.45-16.32,4.59-3.46,8.87-5.23,11.73-6.11,2.1-.66,3.44-.82,3.44-.82h.06l12.63,7.3c2.37,1.36,4.94,2.28,7.59,2.76Z"/>
      <path class="cls-9" d="M215.55,284.22l-8.09,1.91v13.72h-48.78v-42.36c10.76-1.07,22.71-5.8,35.31-16.54,6.05,4.44,12.65,11.83,17.12,23.99.84,2.28,1.58,4.75,2.26,7.39.91,3.6,1.65,7.57,2.18,11.89Z"/>
      <path class="cls-7" d="M193.98,240.95c-12.59,10.74-24.55,15.47-35.31,16.54v-13.35c2.18-.51,4.3-1.32,6.28-2.45l13.25-7.51c.31.08.66.12,1.01.12,0,0,.33.04.91.16h.02c.99.21,2.7.64,4.88,1.5,2.55.99,5.68,2.55,8.97,4.98Z"/>
      <path class="cls-23" d="M195.4,266.6c0,3.09-5.68,5.6-12.69,5.6s-12.69-2.51-12.69-5.6,5.68-5.6,12.69-5.6,12.69,2.51,12.69,5.6Z"/>
      <path class="cls-2" d="M172.85,188.87c-4.05-4.99-11.37-5.36-19.76-5.23-8.39-.13-15.7.24-19.76,5.23-3.73,4.6-4.07,16.56,1.68,20.81,2.05-6.09,2.02-8.86,4.87-12.18,3.32-3.85,8.52-3.89,13.21-4.41,4.69.53,9.89.57,13.21,4.41,2.85,3.32,2.82,6.09,4.87,12.18,5.75-4.25,5.41-16.21,1.68-20.81Z"/>
      <path class="cls-2" d="M159.23,216h-12.7v.08c.05.19.1.38.17.55-.06-.03-.11-.06-.17-.09,0,1.39.59,2.73,1.64,3.64.15.13.3.27.46.41,1.49,1.37,3.13,3.13,4.85,3.13.09,0,.18,0,.26-.02,1.63-.17,3.18-1.81,4.59-3.11.15-.14.31-.28.46-.41,1.05-.91,1.64-2.25,1.64-3.64v-.55h-1.2Z"/>
      <path class="cls-2" d="M151.99,107.28c1.81,1.73,4.15,3.94,6.83,6.41,12.8,12,39.63,37.06,47.57,43.87l.14.12c.4.63.74.74.87.76l24.49,21.57-18.21-32.63,9.76,8.59-8.44-15.12c3.64-7.5,7.34-20.02,7.34-32.51,0-16.55-5.54-31.26-20.01-46.92-.54-.58-1.09-1.16-1.65-1.72.73-5.08-1.79-11.71-15.35-17.43,0,0,4.27,4.46,7.57,10.6-12.81-9.87-26.29-14.68-26.29-14.68l5.89,5.64c-3.53-2.76-9.81-6.6-20.32-9.98-14.94-4.81-24.62.54-24.62.54,0,0,7.79-.27,11.62,2.85-3.77-1.66-10.28-2.22-21.12,2.34-.67.28-1.33.57-1.95.87-3.92-.58-8.08-1.6-12.38-3.23,0,0,2.72,3.02,7.29,6.02-3.54,2.25-6.3,4.74-8.63,7.25-5.53.19-11.78-.35-18.5-2.32,0,0,5.51,5.2,13.74,8.09-1.25,1.63-2.43,3.21-3.66,4.68-5.38,1.41-11.63,2.26-18.69,1.81,0,0,5.01,2.93,12.05,4.37-1.45.94-3.08,1.73-4.95,2.35-15.14,5.05-19.53-1.44-19.53-1.44,0,0,6.57,11.35,18.24,11.38,1.88,0,2.07-.04,2.08-.05-.01.04-2.84,7.91-4.38,15.7-3.48,1.32-7.31,2.43-11.57,3.12,0,0,4.61,1.43,10.83,1.56-.03.28-.07.56-.1.83-.86,9.26,1.82,15.59,2.64,32.9.72,14.8,4.55,7.21,9.13,18.12,1.54,3.65,1.61,7.77,1.61,7.77,1.7.43,6.14-8.89,2.95-25.07-.92-4.64.58-15.01,4.68-24.47h0s6.09-11.58,16.53-16.55l53.4,46.47-23.02-38.46c.58.56,1.16,1.1,1.74,1.72.21.22.42.44.65.66,0,.01.02.02.03.03h0s0,0,0,0h0s1.38,1.36,3.62,3.5h0s.05.05.08.08Z"/>
    </g>
  </g>
</svg>