<?xml version="1.0" encoding="UTF-8"?>
<svg id="Layer_2" data-name="Layer 2" xmlns="http://www.w3.org/2000/svg" xmlns:xlink="http://www.w3.org/1999/xlink" viewBox="0 0 221.6 223.72">
  <defs>
    <style>
      .cls-1 {
        fill: none;
      }

      .cls-2 {
        fill: #462e1b;
      }

      .cls-3 {
        fill: #ba9d82;
      }

      .cls-4 {
        fill: #ccad8a;
      }

      .cls-5 {
        fill: #44361f;
      }

      .cls-6 {
        fill: #d7bd9d;
      }

      .cls-7 {
        fill: #71354e;
      }

      .cls-8 {
        fill: #fff;
      }

      .cls-9 {
        fill: #dcc5a0;
      }

      .cls-10 {
        fill: #272213;
      }

      .cls-11 {
        fill: #3c3d39;
      }

      .cls-12 {
        fill: #b8987d;
      }

      .cls-13 {
        fill: #ebd9b5;
      }

      .cls-14 {
        fill: #b05d53;
      }

      .cls-15 {
        fill: #a98d76;
      }

      .cls-16 {
        fill: #859e69;
      }

      .cls-17 {
        fill: #714223;
      }

      .cls-18 {
        fill: #b7967d;
      }

      .cls-19 {
        clip-path: url(#clippath);
      }

      .cls-20 {
        fill: #d2bb9b;
      }

      .cls-21 {
        fill: #b5957e;
      }
    </style>
    <clipPath id="clippath">
      <rect class="cls-1" x="98.42" y="155.51" width="25.12" height="14.81"/>
    </clipPath>
  </defs>
  <g id="Layer_1-2" data-name="Layer 1">
    <g>
      <rect class="cls-7" width="221.6" height="223.72"/>
      <path class="cls-9" d="M110.89,140.29v83.42h-45.34c-.74-.29-1.11-.45-1.11-.45,0-5.24.37-9.92,1.06-14.07.34-2.13.75-4.12,1.24-5.99.49-1.92,1.04-3.7,1.66-5.36.81-2.21,1.72-4.21,2.72-6,3.12-5.76,6.91-9.57,10.43-12.06,1.8-1.26,3.52-2.2,5.02-2.89,1.15-.52,2.18-.89,3.03-1.15.98-.29,1.72-.45,2.15-.54.28-.05.43-.06.43-.06.17,0,.34-.02.51-.03,1.41-.23,2.58-1.47,3.52-3.44.69-1.46,1.26-3.32,1.74-5.5.18-.84.34-1.67.48-2.6.23-1.55.45-3.16.63-4.85.08-1.03.18-2.03.29-3.09.4-5.1.52-10.7.52-15.99,0,0,6.08.63,11.03.63Z"/>
      <path class="cls-13" d="M157.52,223.27s-.41.15-1.08.45h-45.55v-83.42h.11c4.9,0,11.07-.63,11.07-.63,0,5.25.11,10.77.51,15.86.11,1.01.23,2.04.29,3.03.2,1.77.41,3.41.68,4.96v.03c.06.71.22,1.34.32,1.98.46,2.18,1,4.09,1.66,5.62.81,1.89,1.8,3.23,2.99,3.76.38.17.8.25,1.21.25,0,0,.26.03.74.14.75.14,2.03.46,3.62,1.09.46.18.95.38,1.46.61,1.35.61,2.86,1.44,4.42,2.5,3.62,2.49,7.6,6.36,10.86,12.35.98,1.8,1.9,3.79,2.72,6,.61,1.66,1.17,3.44,1.66,5.36.49,1.9.92,3.93,1.26,6.1.66,4.13,1.04,8.77,1.04,13.96Z"/>
      <g class="cls-19">
        <path class="cls-3" d="M123.54,163.46v.04c-1.14,1.76-4.98,6.82-12.58,6.82h-.07c-7.19-.04-11.4-5.24-12.47-6.78.22-1.54.44-3.15.63-4.84.07-.99.18-2.02.3-3.08,3.5.88,7.34,1.43,11.4,1.5h.15c4.2-.07,8.08-.66,11.69-1.61.11.99.22,2.02.3,3.01.18,1.76.41,3.41.66,4.95"/>
      </g>
      <path class="cls-4" d="M110.37,44.79c-48.02,0-48.28,40.14-46.14,66.43-3.28-6.23-13.06-4.33-12.25,5.5.77,9.46,14.74,14.28,14.35,13.23,7.27,19.44,26.52,34.09,44.04,34.09h.37V44.79h-.37"/>
      <path class="cls-6" d="M110.63,44.79c48.02,0,48.28,40.14,46.18,66.43,3.28-6.23,13.02-4.33,12.21,5.5-.74,9.46-14.73,14.28-14.35,13.23-7.08,19.44-26.52,34.09-44.04,34.09h-.26l-.11-119.26h.37"/>
      <path class="cls-9" d="M110,56.12c-15.79,0-27.37,4.58-34.34,13.6-9.77,12.65-9.41,31.93-5.83,45.79,1.11,4.25,1.7,15.65,2.43,19.83,3.43,18.73,24.12,28.71,37.73,28.71h.37V56.12h-.22"/>
      <path class="cls-13" d="M144.3,69.75c-6.93-8.98-18.37-13.56-33.93-13.64v107.93c15.57-.18,34.19-11.11,37.37-28.71.77-4.18,1.33-15.58,2.43-19.83,3.61-13.82,3.98-33.07-5.86-45.75"/>
      <path class="cls-5" d="M96.96,56.39l-.2.2.03.07c.07-.1.1-.2.17-.27Z"/>
      <path class="cls-8" d="M75.91,98.24s3.66,15.03,9.95,16.26c6.29,1.23,13.1-1.21,13.1-1.21,0,0,.65-17.66-2.57-19.97-3.22-2.32-10.64-5.67-20.48,4.93Z"/>
      <path class="cls-8" d="M145.19,97.73s-3.66,15.03-9.95,16.26c-6.29,1.23-13.1-1.21-13.1-1.21,0,0-.65-17.66,2.57-19.97,3.22-2.32,10.64-5.67,20.48,4.93Z"/>
      <path class="cls-15" d="M55.05,112.58c2.36-3.81,6.05-2.16,6.93-1.32.96.92,1.73,2.09,1.14,4.33-.33,1.28-1.66,1.39-1.36,3.3.37,2.16,1.36,2.27,1.95,2.79.55.48,1.25.84,1.59,1.76.37.92.41,1.87.22,2.71-.37,1.54-2.62.29-4.13-.37-1-.48-4.17-3.15-4.98-4.03-1.99-2.27-2.95-6.67-1.36-9.17"/>
      <path class="cls-15" d="M165.96,112.58c-2.36-3.81-6.01-2.16-6.93-1.32-.96.92-1.7,2.09-1.14,4.33.33,1.28,1.66,1.39,1.36,3.3-.37,2.16-1.36,2.27-1.92,2.79-.55.48-1.29.84-1.62,1.76-.33.92-.41,1.87-.22,2.71.37,1.54,2.62.29,4.13-.37,1.03-.48,4.17-3.15,4.98-4.03,2.03-2.27,2.95-6.67,1.36-9.17"/>
      <path class="cls-1" d="M108.44,145.03c-.22-.04-.42-.08-.59-.11.2.04.4.08.59.11Z"/>
      <path class="cls-1" d="M107.62,144.87c-.14-.03-.27-.06-.36-.08.12.03.24.05.36.08Z"/>
      <path class="cls-18" d="M107.85,144.91c-.08-.02-.15-.03-.23-.05.07.02.14.03.23.05Z"/>
      <path class="cls-18" d="M107.26,144.78c-.07-.02-.13-.04-.2-.06h0s.08.02.21.06Z"/>
      <path class="cls-6" d="M101.15,128.83c-.18-3.73,6.85-1.36,9.17-1.25,1.83.09,7.41-1.18,7.89-.85,3.28,2.21-3.47,6.66-8,6.66-1.21,0-8.94-2.32-9.05-4.57Z"/>
      <path class="cls-1" d="M67.31,89.76c-.43,1.43-.73,2.99-.93,4.66,0,0,.63-2.63,2.03-6.52-.6.83-1,1.5-1.1,1.86Z"/>
      <path class="cls-1" d="M108.59,142.84c-.22-.04-.43-.08-.61-.12.21.04.41.09.61.12Z"/>
      <path class="cls-1" d="M107.74,142.68c-.14-.03-.28-.06-.37-.08.12.03.24.06.37.08Z"/>
      <path class="cls-21" d="M107.98,142.73c-.08-.02-.15-.03-.23-.05.08.02.14.03.23.05Z"/>
      <path class="cls-21" d="M107.37,142.59c-.07-.02-.14-.04-.21-.06h0s.08.02.21.06Z"/>
      <path class="cls-20" d="M98.97,113.24s-.14.04-.47.18c-.08-5.42-.58-12.86-2.59-14.29-2.99-2.19-9.74-5.27-18.76,3.16-.82-2.33-1.23-4.09-1.23-4.09,9.86-10.61,17.29-7.27,20.48-4.95,3.22,2.32,2.57,20,2.57,20Z"/>
      <circle class="cls-2" cx="89.06" cy="105.59" r="6.19"/>
      <path class="cls-17" d="M88.77,109.71c-1.79-.15-3.16-1.95-3-3.94.16-1.98,1.81-3.54,3.6-3.39,1.79.15,3.16,1.95,3,3.93-.16,1.98-1.81,3.54-3.6,3.39Z"/>
      <path class="cls-10" d="M88.92,109c-1.24-.11-2.54-1.47-2.4-3.15.14-1.69,1.63-2.83,2.88-2.72,1.25.11,2.53,1.48,2.4,3.16-.14,1.68-1.63,2.82-2.88,2.72Z"/>
      <path class="cls-1" d="M108.68,144.61c-.22-.04-.43-.08-.61-.12.21.04.41.09.61.12Z"/>
      <path class="cls-1" d="M107.84,144.45c-.14-.03-.28-.06-.37-.08.12.03.24.06.37.08Z"/>
      <path class="cls-21" d="M108.07,144.5c-.08-.02-.15-.03-.23-.05.08.02.14.03.23.05Z"/>
      <path class="cls-21" d="M107.47,144.36c-.07-.02-.14-.04-.21-.06h0s.08.02.21.06Z"/>
      <path class="cls-1" d="M108.45,144.2c-.24-.04-.46-.08-.65-.12.22.05.44.09.65.12Z"/>
      <path class="cls-1" d="M107.54,144.02c-.15-.03-.3-.07-.4-.09.13.03.26.06.4.09Z"/>
      <path class="cls-18" d="M107.79,144.07c-.08-.02-.17-.03-.25-.05.08.02.15.03.25.05Z"/>
      <path class="cls-18" d="M107.15,143.93c-.08-.02-.15-.04-.22-.06h0s.09.03.23.06Z"/>
      <path class="cls-1" d="M108.26,143.57c-.24-.04-.46-.08-.65-.12.22.05.44.09.65.12Z"/>
      <path class="cls-1" d="M107.36,143.39c-.15-.03-.3-.07-.4-.09.13.03.26.06.4.09Z"/>
      <path class="cls-18" d="M107.61,143.45c-.08-.02-.17-.03-.25-.05.08.02.15.03.25.05Z"/>
      <path class="cls-18" d="M106.96,143.3c-.08-.02-.15-.04-.22-.06h0s.09.03.23.06Z"/>
      <path class="cls-1" d="M108.81,143.48c-.23-.04-.44-.08-.63-.12.21.05.42.09.63.12Z"/>
      <path class="cls-1" d="M107.94,143.31c-.14-.03-.29-.06-.38-.09.13.03.25.06.38.09Z"/>
      <path class="cls-18" d="M108.18,143.36c-.08-.02-.16-.03-.24-.05.08.02.15.03.24.05Z"/>
      <path class="cls-18" d="M107.56,143.22c-.07-.02-.14-.04-.21-.06h0s.08.03.22.06Z"/>
      <path class="cls-20" d="M122.13,112.73s.14.04.47.18c.08-5.42.58-12.86,2.59-14.29,2.99-2.19,9.74-5.27,18.76,3.16.82-2.33,1.23-4.09,1.23-4.09-9.86-10.61-17.29-7.27-20.48-4.95-3.22,2.32-2.57,20-2.57,20Z"/>
      <path class="cls-2" d="M125.86,105.08c0,3.42,2.77,6.19,6.19,6.19s6.19-2.77,6.19-6.19-2.77-6.19-6.19-6.19-6.19,2.77-6.19,6.19Z"/>
      <path class="cls-17" d="M132.34,109.2c1.79-.15,3.16-1.95,3-3.94-.16-1.98-1.81-3.54-3.6-3.39-1.79.15-3.16,1.95-3,3.93.16,1.98,1.81,3.54,3.6,3.39Z"/>
      <path class="cls-10" d="M132.18,108.48c1.24-.11,2.54-1.47,2.4-3.15-.14-1.69-1.63-2.83-2.88-2.72-1.24.11-2.53,1.48-2.4,3.16.14,1.68,1.63,2.82,2.88,2.72Z"/>
      <g>
        <path class="cls-11" d="M102.74,98c-.05-.07-1.19-1.81-3.52-3.6-1.46-1.12-2.89-1.98-4.38-2.61-1.81-.76-3.75-1.3-5.64-1.55-1.7-.19-3.59-.14-5.8.16-1.68.32-3.32.82-4.72,1.44-.99.34-1.78.82-2.41,1.21-.24.15-.46.28-.68.4l-3,1.89,3.46-.81c.16-.04.34-.09.52-.14.72-.19,1.61-.43,2.65-.58.24-.04.49-.09.75-.14.44-.09.89-.18,1.36-.2.52-.04,1.07-.07,1.63-.11l.73-.05c1.92-.02,3.54.12,4.98.45,1.57.27,3.19.78,4.67,1.47,1.4.67,2.74,1.33,3.79,2.1,2.12,1.41,3.29,2.59,3.3,2.6h0c.29.29.68.44,1.07.44.28,0,.57-.08.82-.24.7-.46.89-1.4.45-2.07l-.03-.05Z"/>
        <path class="cls-11" d="M145.81,93.43c-.2-.11-.42-.24-.66-.39-.63-.39-1.41-.87-2.38-1.2-1.42-.63-3.06-1.13-4.77-1.45-2.19-.29-4.08-.34-5.79-.15-1.88.26-3.82.79-5.63,1.55-1.47.63-2.94,1.51-4.38,2.61-2.29,1.76-3.43,3.46-3.52,3.59l-.02.03c-.39.6-.3,1.39.2,1.89.28.29.66.44,1.07.44h0c.4,0,.78-.16,1.06-.45h.01c.11-.12,1.25-1.24,3.31-2.61,1.03-.76,2.37-1.42,3.77-2.09,1.49-.69,3.11-1.2,4.7-1.47,1.42-.33,3.04-.47,4.93-.45l.76.05c.55.04,1.09.08,1.62.11.46.02.92.11,1.35.2.25.05.5.1.75.14,1.05.15,1.94.39,2.65.58.19.05.36.1.53.14l3.46.81-3.03-1.9Z"/>
      </g>
      <path class="cls-8" d="M87.92,104.85c-.05.61-.68,1.05-1.39.99-.72-.06-1.26-.6-1.21-1.21.05-.61.67-1.06,1.39-1,.72.06,1.26.6,1.21,1.21Z"/>
      <path class="cls-8" d="M91.93,108.36c-.03.3-.34.53-.69.5-.36-.03-.63-.3-.61-.6.03-.3.34-.53.69-.5.36.03.63.3.61.6Z"/>
      <path class="cls-8" d="M133.19,104.34c.05.61.68,1.05,1.39.99.72-.06,1.26-.6,1.21-1.21-.05-.61-.67-1.06-1.39-1-.72.06-1.26.6-1.21,1.21Z"/>
      <path class="cls-8" d="M129.17,107.85c.03.3.34.53.69.5.36-.03.63-.3.61-.6-.03-.3-.34-.53-.69-.5-.36.03-.63.3-.61.6Z"/>
      <path class="cls-1" d="M108.62,146.64c-.22-.04-.42-.08-.59-.11.2.04.4.08.59.11Z"/>
      <path class="cls-1" d="M107.8,146.48c-.14-.03-.27-.06-.36-.08.12.03.24.05.36.08Z"/>
      <path class="cls-18" d="M108.02,146.53c-.08-.02-.15-.03-.23-.05.07.02.14.03.23.05Z"/>
      <path class="cls-18" d="M107.44,146.4c-.07-.02-.13-.04-.2-.06h0s.08.02.21.06Z"/>
      <path class="cls-1" d="M108.76,144.46c-.22-.04-.43-.08-.61-.12.21.04.41.08.61.12Z"/>
      <path class="cls-1" d="M107.92,144.29c-.14-.03-.28-.06-.37-.08.12.03.24.06.37.08Z"/>
      <path class="cls-21" d="M108.15,144.34c-.08-.02-.15-.03-.23-.05.08.02.14.03.23.05Z"/>
      <path class="cls-21" d="M107.55,144.21c-.07-.02-.14-.04-.21-.06h0s.08.02.21.06Z"/>
      <path class="cls-1" d="M108.86,146.23c-.22-.04-.43-.08-.61-.12.21.04.41.09.61.12Z"/>
      <path class="cls-1" d="M108.02,146.06c-.14-.03-.28-.06-.37-.08.12.03.24.06.37.08Z"/>
      <path class="cls-21" d="M108.25,146.11c-.08-.02-.15-.03-.23-.05.08.02.14.03.23.05Z"/>
      <path class="cls-21" d="M107.65,145.98c-.07-.02-.14-.04-.21-.06h0s.08.02.21.06Z"/>
      <path class="cls-1" d="M108.62,145.81c-.24-.04-.46-.08-.65-.12.22.05.44.09.65.12Z"/>
      <path class="cls-1" d="M107.72,145.64c-.15-.03-.3-.07-.4-.09.13.03.26.06.4.09Z"/>
      <path class="cls-18" d="M107.97,145.69c-.08-.02-.17-.03-.25-.05.08.02.15.03.25.05Z"/>
      <path class="cls-18" d="M107.33,145.55c-.08-.02-.15-.04-.22-.06h0s.09.03.23.06Z"/>
      <path class="cls-1" d="M108.44,145.19c-.24-.04-.46-.08-.65-.12.22.05.44.09.65.12Z"/>
      <path class="cls-1" d="M107.54,145.01c-.15-.03-.3-.07-.4-.09.13.03.26.06.4.09Z"/>
      <path class="cls-18" d="M107.79,145.06c-.08-.02-.17-.03-.25-.05.08.02.15.03.25.05Z"/>
      <path class="cls-18" d="M107.14,144.92c-.08-.02-.15-.04-.22-.06h0s.09.03.23.06Z"/>
      <path class="cls-1" d="M108.99,145.1c-.23-.04-.44-.08-.63-.12.21.05.42.09.63.12Z"/>
      <path class="cls-1" d="M108.12,144.92c-.14-.03-.29-.06-.38-.09.13.03.25.06.38.09Z"/>
      <path class="cls-18" d="M108.36,144.97c-.08-.02-.16-.03-.24-.05.08.02.15.03.24.05Z"/>
      <path class="cls-18" d="M107.74,144.84c-.07-.02-.14-.04-.21-.06h0s.08.03.22.06Z"/>
      <path class="cls-1" d="M106.64,151.47c-.22-.04-.43-.08-.61-.12.21.04.4.08.61.12Z"/>
      <path class="cls-1" d="M105.8,151.31c-.14-.03-.28-.06-.37-.08.12.03.24.06.37.08Z"/>
      <path class="cls-12" d="M106.03,151.36c-.08-.02-.15-.03-.23-.05.08.02.14.03.23.05Z"/>
      <path class="cls-12" d="M105.43,151.23c-.07-.02-.14-.04-.21-.06h0s.08.02.21.06Z"/>
      <path class="cls-1" d="M106.46,150.89c-.22-.04-.43-.08-.61-.12.21.04.4.08.61.12Z"/>
      <path class="cls-1" d="M105.63,150.73c-.14-.03-.28-.06-.37-.08.12.03.24.06.37.08Z"/>
      <path class="cls-12" d="M105.86,150.78c-.08-.02-.15-.03-.23-.05.08.02.14.03.23.05Z"/>
      <path class="cls-12" d="M105.26,150.64c-.07-.02-.14-.04-.21-.06h0s.08.02.21.06Z"/>
      <path class="cls-1" d="M106.98,150.81c-.22-.04-.41-.08-.58-.11.2.04.39.08.58.11Z"/>
      <path class="cls-1" d="M106.17,150.65c-.13-.03-.27-.06-.35-.08.12.03.23.05.35.08Z"/>
      <path class="cls-12" d="M106.39,150.7c-.07-.02-.15-.03-.22-.05.07.02.14.03.22.05Z"/>
      <path class="cls-12" d="M105.81,150.57c-.07-.02-.13-.04-.2-.06h0s.08.02.21.06Z"/>
      <path class="cls-14" d="M150.84,191.85c-3.26-5.99-7.23-9.86-10.86-12.35-1.57-1.06-3.07-1.89-4.42-2.5-.51-.23-1-.43-1.46-.61-1.6-.63-2.87-.95-3.62-1.09-7.2,8.11-13.84,11-19.58,11.04-8.72.06-15.42-6.44-19.14-11.12-.43.09-1.17.25-2.15.54-.84.26-1.87.63-3.03,1.15-1.51.69-3.23,1.63-5.02,2.89-3.52,2.49-7.31,6.3-10.43,12.06-.83,1.5-1.59,3.18-2.29,4.97h84.3c-.71-1.79-1.47-3.47-2.29-4.97Z"/>
      <path class="cls-14" d="M70.68,223.72h81.1c-.17-2.55-.34-6.52-.4-11.66h-80.31c-.06,5.15-.24,9.11-.4,11.66Z"/>
      <path class="cls-16" d="M151.37,209.74v-2.17c0-1.38,0-2.84.03-4.36h3.81c-.49-1.92-1.04-3.7-1.66-5.36-.13-.36-.29-.69-.43-1.04h-84.3c-.14.35-.29.67-.42,1.04-.61,1.66-1.17,3.44-1.66,5.36h4.33c.02,1.52.03,2.98.03,4.36v2.16h0c0,.8-.01,1.57-.02,2.31h80.31c0-.75-.01-1.52-.02-2.31h0Z"/>
      <path class="cls-11" d="M116.45,156.94s.13,3.01-.56,3.1c-.49-1.63-.75-3.61-1.67-4.51-1.44,1.67-2.78,2.69-2.78,2.69,0,0-1.27-1.06-2.61-2.73-1.01.95-1.9,2.35-2.45,4.15-.13-.1-.49-2.09-.49-2.09,0,0-2.35,2.89-2.81,4.84-.46,1.93,1.18,3.98,1.18,3.98,0,0,.78-.39,1.54-1.05.69,4.84,5.39,8.66,5.39,8.66,0,0,4.77-3.56,5.72-8.3.58.41,1.1.65,1.1.65,0,0,1.73-2.06,1.18-3.99-.95-3.37-2.74-5.42-2.74-5.42Z"/>
      <path class="cls-11" d="M123.39,134.37c-2.03-.16-4.32-.12-6.82-.02-6.98.27-14.6.34-20.61.4-6.04,1.93-10.07,11.84-5.73,17.53,3.15-6.36,15.37,4.16,20.47-2.61,4.88,6.61,16.43-2.37,22.11,2.24,3.46-8.47-1.2-16.86-9.42-17.53Z"/>
      <path class="cls-11" d="M138.43,37.07c-7.66-6.15-24.39-5.35-32.89-5.35-37.88-.39-45.24,21.06-46.42,32.91l-.21-.03s-6.69,37.84-25.54,45.39c0,0,16.23,4.25,27.82-19.72.73,11.76-2.07,22.25-2.07,27.36,0,18.81,13.31,34.4,11.26,53.35-1.36,12.49-6.8,22.18-6.8,22.18,0,0,6.23-8.55,8.79-16.57,2.55-8.02,1.7-22.45-2.56-33.95-3.56-9.6-2.95-20.71-1.16-30.02.1-.5.19-1,.29-1.49.27-1.29.57-2.56.86-3.76.1-.36.2-.74.3-1.12.24-.92.5-1.86.78-2.85.13-.17.25-.34.32-.58.12-.4.17-.76.18-1.09.13-.42.26-.84.39-1.27-.29,2.42-.38,4.9-.23,7.38,0,.13,0,.26.02.39.09.84.1,1.58.28,2.49l.28,1.65.11.61c.1.41.2.84.3,1.26.28,1.19.58,2.38.92,3.45.87,3.02,2.09,5.83,3.15,8.48,1.02,2.66,2.08,5.17,2.88,7.59.74,2.42,1.4,4.71,1.73,6.88.2,1.09.3,2.15.38,3.14.13,1.02.16,1.97.15,2.88.08,1.81-.09,3.4-.14,4.74-.3,2.65-.47,4.17-.47,4.17,0,0,.15-.35.45-1.01.27-.68.77-1.64,1.21-2.94.37-1.31.98-2.88,1.27-4.78.39-1.88.67-4.06.61-6.45.06-3.32-.56-7.01-1.54-10.78-.35-1.35-.75-2.71-1.18-4.06-.1-.33-.21-.67-.31-1-.73-2.2-1.4-4.41-2.05-6.63-.16-.57-.33-1.13-.5-1.69-.43-1.42-.69-2.74-.98-4.1l-.34-2.26c-.11-.59-.1-1.39-.18-2.06-.18-1.77-.19-3.54-.09-5.31.07-1.07.16-2.14.31-3.19.35-2.82.89-5.61,1.63-8.29,1.43-5.38,3.25-10.38,4.77-14.73.7-1.95,1.33-3.75,1.87-5.4.21,1.85.86,4.22,2.71,6.03,10.52,10.3,19.53,11.6,27.08,12.27.08.01.16.02.23.03.08,0,.15.01.23.02,3.29.28,6.3.48,9.03,1.31,15.36,4.64,17.93,20.8,27.17,21.88.69.08,1.4.09,2.17-.01,1.51-.19,2.94-.86,4.26-1.83,2.8-2.05,5.06-5.49,6.47-8.84h0s0,0,0-.01c.49-1.15.87-2.29,1.15-3.36.19-.74.33-1.45.41-2.1.05-.43.08-.85.08-1.23,0-.23-.02-.46-.02-.69,4.85-34.02-28.63-57.31-28.63-57.31Z"/>
    </g>
  </g>
</svg>