<?xml version="1.0" encoding="UTF-8"?>
<svg id="Layer_2" data-name="Layer 2" xmlns="http://www.w3.org/2000/svg" xmlns:xlink="http://www.w3.org/1999/xlink" viewBox="0 0 221.6 223.72">
  <defs>
    <style>
      .cls-1 {
        fill: none;
      }

      .cls-2 {
        fill: #462e1b;
      }

      .cls-3 {
        fill: #ba9d82;
      }

      .cls-4 {
        fill: #ccad8a;
      }

      .cls-5 {
        fill: #d9ab31;
      }

      .cls-6 {
        fill: #8c6297;
      }

      .cls-7 {
        fill: #44361f;
      }

      .cls-8 {
        fill: #d7bd9d;
      }

      .cls-9 {
        fill: #c1a587;
      }

      .cls-10 {
        fill: #dac6a4;
      }

      .cls-11 {
        fill: #5d373b;
      }

      .cls-12 {
        fill: #fff;
      }

      .cls-13 {
        fill: #dcc5a0;
      }

      .cls-14 {
        fill: #272213;
      }

      .cls-15 {
        fill: #52839e;
      }

      .cls-16 {
        fill: #ecdab6;
      }

      .cls-17 {
        fill: #b8987d;
      }

      .cls-18 {
        fill: #785458;
      }

      .cls-19 {
        fill: #ebd9b5;
      }

      .cls-20 {
        fill: #a98d76;
      }

      .cls-21 {
        fill: #714223;
      }

      .cls-22 {
        fill: #b7967d;
      }

      .cls-23 {
        clip-path: url(#clippath);
      }

      .cls-24 {
        fill: #d2bb9b;
      }

      .cls-25 {
        fill: #b5957e;
      }
    </style>
    <clipPath id="clippath">
      <rect class="cls-1" x="99.11" y="155.13" width="25.12" height="14.81"/>
    </clipPath>
  </defs>
  <g id="Layer_1-2" data-name="Layer 1">
    <g>
      <path class="cls-5" d="M120,155.66s.24,5.5-1.02,5.67c-.9-2.99-1.37-6.6-3.05-8.24-2.63,3.05-5.08,4.93-5.08,4.93,0,0-2.33-1.94-4.78-4.99-1.85,1.73-3.47,4.3-4.48,7.59-.24-.18-.9-3.82-.9-3.82,0,0-4.3,5.29-5.14,8.84-.84,3.52,2.15,7.29,2.15,7.29,0,0,1.43-.72,2.81-1.91,1.25,8.84,9.86,15.83,9.86,15.83,0,0,8.72-6.51,10.46-15.18,1.06.75,2.02,1.2,2.02,1.2,0,0,3.17-3.77,2.15-7.29-1.73-6.15-5.01-9.92-5.01-9.92Z"/>
      <rect class="cls-6" width="221.6" height="223.72"/>
      <path class="cls-13" d="M111.58,139.91v83.81h-45.34c-.74-.29-1.11-.45-1.11-.45,0-10.69,1.58-19.03,3.96-25.54,2.89-7.86,6.99-13.04,10.97-16.43,2.41-2.06,4.76-3.46,6.79-4.42,1.09-.51,2.09-.89,2.93-1.17.18-.06.35-.12.51-.17,1.6-.49,2.58-.6,2.58-.6.18,0,.34-.02.51-.05.58-.09,1.11-.35,1.6-.77.72-.58,1.37-1.51,1.92-2.69.02-.03.03-.05.05-.06v-.02c.66-1.44,1.23-3.29,1.69-5.44.18-.84.34-1.69.48-2.61.23-1.55.45-3.18.63-4.87.08-1.04.18-2.03.29-3.1.41-5.13.52-10.75.52-16.06,0,0,6.08.63,11.03.63Z"/>
      <path class="cls-19" d="M158.21,223.27s-.41.15-1.07.45h-45.55v-83.81h.11c4.91,0,11.07-.63,11.07-.63,0,5.28.11,10.81.51,15.96.12,1,.23,2.03.31,3.03.18,1.77.4,3.42.66,4.98v.03c.08.71.22,1.34.34,2,.45,2.18.98,4.1,1.64,5.64.81,1.92,1.8,3.24,3.01,3.78.14.06.26.11.41.15.25.08.52.11.78.11,0,0,.58.06,1.57.32.38.11.84.23,1.35.4.45.14.92.31,1.44.51.46.18.95.38,1.47.61v.02c2.7,1.24,6.04,3.29,9.28,6.63,3.23,3.32,6.34,7.92,8.71,14.3,2.38,6.51,3.96,14.85,3.96,25.54Z"/>
      <g class="cls-23">
        <path class="cls-3" d="M124.23,163.08v.04c-1.14,1.76-4.98,6.82-12.58,6.82h-.07c-7.19-.04-11.4-5.24-12.47-6.78.22-1.54.44-3.15.63-4.84.07-.99.18-2.02.3-3.08,3.5.88,7.34,1.43,11.4,1.5h.15c4.2-.07,8.08-.66,11.69-1.61.11.99.22,2.02.3,3.01.18,1.76.41,3.41.66,4.95"/>
      </g>
      <path class="cls-4" d="M111.07,44.41c-48.02,0-48.28,40.14-46.14,66.43-3.28-6.23-13.06-4.33-12.25,5.5.77,9.46,14.74,14.28,14.35,13.23,7.27,19.44,26.52,34.09,44.04,34.09h.37V44.41h-.37"/>
      <path class="cls-20" d="M55.74,112.2c2.36-3.81,6.05-2.16,6.93-1.32.96.92,1.73,2.09,1.14,4.33-.33,1.28-1.66,1.39-1.36,3.3.37,2.16,1.36,2.27,1.95,2.79.55.48,1.25.84,1.59,1.76.37.92.41,1.87.22,2.71-.37,1.54-2.62.29-4.13-.37-1-.48-4.17-3.15-4.98-4.03-1.99-2.27-2.95-6.67-1.36-9.17"/>
      <path class="cls-8" d="M111.32,44.41c48.02,0,48.28,40.14,46.18,66.43,3.28-6.23,13.02-4.33,12.21,5.5-.74,9.46-14.73,14.28-14.35,13.23-7.08,19.44-26.52,34.09-44.04,34.09h-.26l-.11-119.26h.37"/>
      <path class="cls-20" d="M166.65,112.2c-2.36-3.81-6.01-2.16-6.93-1.32-.96.92-1.7,2.09-1.14,4.33.33,1.28,1.66,1.39,1.36,3.3-.37,2.16-1.36,2.27-1.92,2.79-.55.48-1.29.84-1.62,1.76-.33.92-.41,1.87-.22,2.71.37,1.54,2.62.29,4.13-.37,1.03-.48,4.17-3.15,4.98-4.03,2.03-2.27,2.95-6.67,1.36-9.17"/>
      <path class="cls-13" d="M110.69,55.74c-15.79,0-27.37,4.58-34.34,13.6-9.77,12.65-9.41,31.93-5.83,45.79,1.11,4.25,1.7,15.65,2.43,19.83,3.43,18.73,24.12,28.71,37.73,28.71h.37V55.74h-.22"/>
      <path class="cls-19" d="M144.99,69.38c-6.93-8.98-18.37-13.56-33.93-13.64v107.93c15.57-.18,34.19-11.11,37.36-28.71.77-4.18,1.33-15.58,2.43-19.83,3.61-13.82,3.98-33.07-5.86-45.75"/>
      <path class="cls-1" d="M109.13,140.61c-.22-.04-.42-.08-.59-.11.2.04.4.08.59.11Z"/>
      <path class="cls-1" d="M108.31,144.49c-.14-.03-.27-.06-.36-.08.12.03.24.05.36.08Z"/>
      <path class="cls-22" d="M108.54,144.54c-.08-.02-.15-.03-.23-.05.07.02.14.03.23.05Z"/>
      <path class="cls-22" d="M107.95,144.41c-.07-.02-.13-.04-.2-.06h0s.08.02.21.06Z"/>
      <path class="cls-8" d="M101.89,130.54c-.18-3.73,6.85-1.36,9.17-1.25,1.83.09,7.41-1.18,7.89-.85,3.28,2.21-3.47,6.66-8,6.66-1.21,0-8.94-2.32-9.05-4.57Z"/>
      <path class="cls-1" d="M68,89.38c-.43,1.43-.73,2.99-.93,4.66,0,0,.63-2.63,2.03-6.52-.6.83-1,1.5-1.1,1.86Z"/>
      <path class="cls-7" d="M97.65,56.01l-.2.2.03.07c.07-.1.1-.2.17-.27Z"/>
      <path class="cls-1" d="M109.28,142.46c-.22-.04-.43-.08-.61-.12.21.04.41.09.61.12Z"/>
      <path class="cls-1" d="M108.44,142.3c-.14-.03-.28-.06-.37-.08.12.03.24.06.37.08Z"/>
      <path class="cls-25" d="M108.67,142.35c-.08-.02-.15-.03-.23-.05.08.02.14.03.23.05Z"/>
      <path class="cls-25" d="M108.07,142.21c-.07-.02-.14-.04-.21-.06h0s.08.02.21.06Z"/>
      <path class="cls-12" d="M76.6,97.86s3.66,15.03,9.95,16.26c6.29,1.23,13.1-1.21,13.1-1.21,0,0,.65-17.66-2.57-19.97-3.22-2.32-10.64-5.67-20.48,4.93Z"/>
      <path class="cls-24" d="M99.67,112.86s-.14.04-.47.18c-.08-5.42-.58-12.86-2.59-14.29-2.99-2.19-9.74-5.27-18.76,3.16-.82-2.33-1.23-4.09-1.23-4.09,9.86-10.61,17.29-7.27,20.48-4.95,3.22,2.32,2.57,20,2.57,20Z"/>
      <circle class="cls-2" cx="89.75" cy="105.21" r="6.19"/>
      <path class="cls-21" d="M89.46,109.33c-1.79-.15-3.16-1.95-3-3.94.16-1.98,1.81-3.54,3.6-3.39,1.79.15,3.16,1.95,3,3.93-.16,1.98-1.81,3.54-3.6,3.39Z"/>
      <path class="cls-14" d="M89.62,108.62c-1.24-.11-2.54-1.47-2.4-3.15.14-1.69,1.63-2.83,2.88-2.72,1.25.11,2.53,1.48,2.4,3.16-.14,1.68-1.63,2.82-2.88,2.72Z"/>
      <path class="cls-12" d="M88.61,104.47c-.05.61-.68,1.05-1.39.99-.72-.06-1.26-.6-1.21-1.21.05-.61.67-1.06,1.39-1,.72.06,1.26.6,1.21,1.21Z"/>
      <path class="cls-12" d="M92.62,107.98c-.03.3-.34.53-.69.5-.36-.03-.63-.3-.61-.6.03-.3.34-.53.69-.5.36.03.63.3.61.6Z"/>
      <path class="cls-1" d="M109.38,144.24c-.22-.04-.43-.08-.61-.12.21.04.41.09.61.12Z"/>
      <path class="cls-1" d="M108.53,144.07c-.14-.03-.28-.06-.37-.08.12.03.24.06.37.08Z"/>
      <path class="cls-25" d="M108.77,144.12c-.08-.02-.15-.03-.23-.05.08.02.14.03.23.05Z"/>
      <path class="cls-25" d="M108.17,143.99c-.07-.02-.14-.04-.21-.06h0s.08.02.21.06Z"/>
      <path class="cls-1" d="M109.14,143.82c-.24-.04-.46-.08-.65-.12.22.05.44.09.65.12Z"/>
      <path class="cls-1" d="M108.24,143.64c-.15-.03-.3-.07-.4-.09.13.03.26.06.4.09Z"/>
      <path class="cls-22" d="M108.49,143.7c-.08-.02-.17-.03-.25-.05.08.02.15.03.25.05Z"/>
      <path class="cls-22" d="M107.84,143.55c-.08-.02-.15-.04-.22-.06h0s.09.03.23.06Z"/>
      <path class="cls-1" d="M108.95,143.19c-.24-.04-.46-.08-.65-.12.22.05.44.09.65.12Z"/>
      <path class="cls-1" d="M108.05,143.01c-.15-.03-.3-.07-.4-.09.13.03.26.06.4.09Z"/>
      <path class="cls-22" d="M108.3,143.07c-.08-.02-.17-.03-.25-.05.08.02.15.03.25.05Z"/>
      <path class="cls-22" d="M107.66,142.92c-.08-.02-.15-.04-.22-.06h0s.09.03.23.06Z"/>
      <path class="cls-1" d="M109.51,143.1c-.23-.04-.44-.08-.63-.12.21.05.42.09.63.12Z"/>
      <path class="cls-1" d="M108.63,142.93c-.14-.03-.29-.06-.38-.09.13.03.25.06.38.09Z"/>
      <path class="cls-22" d="M108.88,142.98c-.08-.02-.16-.03-.24-.05.08.02.15.03.24.05Z"/>
      <path class="cls-22" d="M108.25,142.84c-.07-.02-.14-.04-.21-.06h0s.08.03.22.06Z"/>
      <path class="cls-12" d="M145.88,97.35s-3.66,15.03-9.95,16.26c-6.29,1.23-13.1-1.21-13.1-1.21,0,0-.65-17.66,2.57-19.97,3.22-2.32,10.64-5.67,20.48,4.93Z"/>
      <path class="cls-24" d="M122.82,112.35s.14.04.47.18c.08-5.42.58-12.86,2.59-14.29,2.99-2.19,9.74-5.27,18.76,3.16.82-2.33,1.23-4.09,1.23-4.09-9.86-10.61-17.29-7.27-20.48-4.95-3.22,2.32-2.57,20-2.57,20Z"/>
      <path class="cls-2" d="M126.55,104.7c0,3.42,2.77,6.19,6.19,6.19s6.19-2.77,6.19-6.19-2.77-6.19-6.19-6.19-6.19,2.77-6.19,6.19Z"/>
      <path class="cls-21" d="M133.03,108.82c1.79-.15,3.16-1.95,3-3.94-.16-1.98-1.81-3.54-3.6-3.39-1.79.15-3.16,1.95-3,3.93.16,1.98,1.81,3.54,3.6,3.39Z"/>
      <path class="cls-14" d="M132.87,108.11c1.24-.11,2.54-1.47,2.4-3.15-.14-1.69-1.63-2.83-2.88-2.72-1.24.11-2.53,1.48-2.4,3.16.14,1.68,1.63,2.82,2.88,2.72Z"/>
      <path class="cls-12" d="M133.88,103.96c.05.61.68,1.05,1.39.99.72-.06,1.26-.6,1.21-1.21-.05-.61-.67-1.06-1.39-1-.72.06-1.26.6-1.21,1.21Z"/>
      <path class="cls-12" d="M129.87,107.47c.03.3.34.53.69.5.36-.03.63-.3.61-.6-.03-.3-.34-.53-.69-.5-.36.03-.63.3-.61.6Z"/>
      <g>
        <path d="M103.43,97.62c-.05-.07-1.19-1.81-3.52-3.6-1.46-1.12-2.89-1.98-4.38-2.61-1.81-.76-3.75-1.3-5.64-1.55-1.7-.19-3.59-.14-5.8.16-1.68.32-3.32.82-4.72,1.44-.99.34-1.78.82-2.41,1.21-.24.15-.46.28-.68.4l-3,1.89,3.46-.81c.16-.04.34-.09.52-.14.72-.19,1.61-.43,2.65-.58.24-.04.49-.09.75-.14.44-.09.89-.18,1.36-.2.52-.04,1.07-.07,1.63-.11l.73-.05c1.92-.02,3.54.12,4.98.45,1.57.27,3.19.78,4.67,1.47,1.4.67,2.74,1.33,3.79,2.1,2.12,1.41,3.29,2.59,3.3,2.6h0c.29.29.68.44,1.07.44.28,0,.57-.08.82-.24.7-.46.89-1.4.45-2.07l-.03-.05Z"/>
        <path d="M146.5,93.05c-.2-.11-.42-.24-.66-.39-.63-.39-1.41-.87-2.38-1.2-1.42-.63-3.06-1.13-4.77-1.45-2.19-.29-4.08-.34-5.79-.15-1.88.26-3.82.79-5.63,1.55-1.47.63-2.94,1.51-4.38,2.61-2.29,1.76-3.43,3.46-3.52,3.59l-.02.03c-.39.6-.3,1.39.2,1.89.28.29.66.44,1.07.44h0c.4,0,.78-.16,1.06-.45h.01c.11-.12,1.25-1.24,3.31-2.61,1.03-.76,2.37-1.42,3.77-2.09,1.49-.69,3.11-1.2,4.7-1.47,1.42-.33,3.04-.47,4.93-.45l.76.05c.55.04,1.09.08,1.62.11.46.02.92.11,1.35.2.25.05.5.1.75.14,1.05.15,1.94.39,2.65.58.19.05.36.1.53.14l3.46.81-3.03-1.9Z"/>
      </g>
      <path class="cls-1" d="M108.32,146.02c-.23-.04-.45-.08-.64-.12.22.05.43.09.64.12Z"/>
      <path class="cls-1" d="M107.44,145.85c-.15-.03-.29-.07-.39-.09.13.03.26.06.39.09Z"/>
      <path class="cls-17" d="M107.68,145.9c-.08-.02-.16-.03-.24-.05.08.02.15.03.24.05Z"/>
      <path class="cls-17" d="M107.05,145.76c-.07-.02-.14-.04-.22-.06h0s.08.03.22.06Z"/>
      <path class="cls-16" d="M102.18,149c-.18-2.42,6.73.51,9,.58,1.81.06,7.25-.36,7.75-.55,3.8-1.42-.21,4.04-7.87,4.33-3.51.14-8.78-2.89-8.89-4.35Z"/>
      <path class="cls-10" d="M124.69,144.34c-1.88-.09-3.8,1.47-6.06,1.23-.09-.05-.14-.05-.23-.05-.52-.09-1.03,0-1.6.14-.7.15-1.41.43-2.07.66-1.13.37-2.4.66-3.71.56h0s-.05,0-.07,0-.05,0-.07,0h0c-1.31.09-2.58-.2-3.71-.57-.66-.23-1.37-.51-2.07-.66-.56-.14-1.08-.23-1.6-.14-.1,0-.14,0-.23.05-2.26.24-4.18-1.32-6.06-1.23-.52.05-1.27-.09-1.69-.09.09.05.19.09.29.14,5.35,2.61,9.96,7.49,15.08,7.34h.15c5.11.16,9.73-4.73,15.08-7.34.1-.05.19-.09.29-.14-.42,0-1.17.14-1.69.09Z"/>
      <path class="cls-9" d="M126.26,144.19h0s-5.44-2.09-9.31-.87c0,0-1.44.56-2.93.9-.91.35-2.01.46-3.07.41h0c-.81-.03-1.59-.14-2.22-.25-.21-.03-.42-.08-.64-.12-.09-.02-.16-.03-.24-.05-.13-.03-.26-.06-.39-.09-.14-.03-.22-.06-.22-.06h0c-1.24-.34-2.3-.75-2.3-.75-3.87-1.23-9.31.87-9.31.87h0c-.07.03-.12.06-.12.06.42,0,1.17.14,1.69.09,1.88-.09,3.8,1.47,6.06,1.23.09-.05.14-.05.23-.05.52-.09,1.03,0,1.6.14.7.15,1.41.43,2.07.66,1.13.37,2.4.66,3.71.56h0s.05,0,.07,0,.05,0,.07,0h0c1.31.09,2.58-.2,3.71-.57.66-.23,1.37-.51,2.07-.66.56-.14,1.08-.23,1.6-.14.1,0,.14,0,.23.05,2.26.24,4.18-1.32,6.06-1.23.52.05,1.27-.09,1.69-.09,0,0-.05-.02-.12-.06Z"/>
      <path class="cls-9" d="M101.81,145.47c.1.02,10.19,3.1,18.09.07l-.91-.61h-10.67l-6.51.54Z"/>
      <path class="cls-15" d="M158.21,223.27s-.41.15-1.07.45h-90.89c-.74-.29-1.11-.45-1.11-.45,0-10.69,1.58-19.03,3.96-25.54,2.89-7.86,6.99-13.04,10.97-16.43l9.28,8.52c6.3,5.79,14.21,8.92,22.24,9.31,8.26.4,16.66-2.09,23.59-7.54l10.37-8.16c3.23,3.32,6.34,7.92,8.71,14.3,2.38,6.51,3.96,14.85,3.96,25.54Z"/>
      <path class="cls-11" d="M70.23,43.27c11.1-11.96,27.41-17.76,27.41-17.76l-4.52,4.32c2.71-2.11,7.53-5.04,15.58-7.63,11.46-3.67,18.89.42,18.89.42,0,0-6-.21-8.93,2.19,2.89-1.27,7.87-1.72,16.22,1.77,16.31,6.83,16.02,19.08,27.37,22.83,11.62,3.85,14.99-1.09,14.99-1.09,0,0-5.04,8.66-13.99,8.69-1.45,0-1.59-.03-1.6-.04.01.03,3.35,9.29,4,16.21.66,7.07-1.39,11.91-2.02,25.13-.55,11.3-3.49,5.51-7,13.84-1.18,2.79-1.23,5.94-1.23,5.94-.88.23-2.72-2.97-3.07-8.89-4.32,10.03-9.52,16.99-9.52,16.99,13.16-47.49-3.12-50.58-3.12-50.58-7.02-.59-16.27,2.25-20.27,19.35,0,0-2-14.4,1.96-25.71-6.56,3.71-20.61,13.92-20.83,33.43,0,0-12.53-19.06,0-37.93,0,0-12.8,3.19-10.59,34.9,0,0-5.86-4.48-6.78-24.93,0,0-3.85,7.2-4.31,19.33-1.77-1.22-3.44-2.59-4.9-4.12-.29,7.45.93,18.02,5.09,33.06,0,0-6.35-8.48-10.84-20.23.71,14.75-1.91,14.64-1.91,14.64-.98,0,.07-5.45-3.2-9.22-3.26-3.76-8.23-16.42-8.23-29.06s4.26-23.89,15.35-35.84Z"/>
      <path class="cls-18" d="M150.44,141.6c.18-.3.36-.6.53-.91.03-.05.05-.08.05-.08,0,0-.01.02-.02.03,1.9-3.29,3.42-6.87,4.31-10.73l-.05-4.59-2.03,1.51s-12.87,28.92-23.73,21.56l-.04.14c-.54-1.68-1.33-3.12-2.31-4.19-3.07-4.53-9.28-7.63-16.46-7.63-6.61,0-12.39,2.63-15.67,6.58-1.46,1.01-2.65,2.78-3.4,4.97v-.02c-10.87,7.36-22.88-21.41-22.88-21.41l-2.03-1.51-.05,4.59c1.14,4.94,3.32,9.41,5.99,13.4-.12-.18-.25-.35-.37-.52,0,0,16.37,24.9-3.2,31.92,0,0,8.83-.16,13.04-5,1.1-1.26,2.97-1.44,4.2-.3,2.34,2.16,4.65,6.17.11,12.1,0,0,3.92-.6,7.15-2.69,1.99-1.29,4.58.17,4.47,2.53-.31,7.28-3.27,14.15-10.77,22.64l19.75-19.75,4.17-4.05v-12.71s.05,0,.08,0v13.01l4.17,4.05,19.75,19.75c-7.5-8.49-10.45-15.37-10.77-22.64-.1-2.37,2.49-3.82,4.47-2.53,3.23,2.09,7.15,2.69,7.15,2.69-4.54-5.93-2.23-9.94.11-12.1,1.23-1.13,3.1-.96,4.2.3,4.21,4.84,13.04,5,13.04,5-17.36-6.23-5.83-28.46-3.01-33.4ZM95.36,153.58c0-1.19.55-2.31,1.45-3.09,2.71-2.33,6.42-3.98,10.63-4.55,1.06-.14,2.15-.22,3.26-.22s2.2.08,3.26.22c3.82.52,7.21,1.93,9.83,3.93,1.15.88,1.85,2.26,1.85,3.7v.02c0,2.34-.46,4.5-1.24,6.3-1.35.62-2.93,1.15-4.69,1.57,0-.06.03-.12.03-.17,0-1.74-4.14-3.14-9.24-3.14s-9.24,1.41-9.24,3.14c0,.03,0,.05,0,.07-1.81-.45-3.42-1.03-4.77-1.7-.72-1.76-1.15-3.83-1.15-6.07v-.02Z"/>
    </g>
  </g>
</svg>