<?xml version="1.0" encoding="UTF-8"?>
<svg id="Layer_2" data-name="Layer 2" xmlns="http://www.w3.org/2000/svg" xmlns:xlink="http://www.w3.org/1999/xlink" viewBox="0 0 221.6 223.72">
  <defs>
    <style>
      .cls-1 {
        fill: none;
      }

      .cls-2 {
        fill: #462e1b;
      }

      .cls-3 {
        fill: #ba9d82;
      }

      .cls-4 {
        fill: #ccad8a;
      }

      .cls-5 {
        fill: #504f46;
      }

      .cls-6 {
        fill: #a01428;
      }

      .cls-7 {
        fill: #44361f;
      }

      .cls-8 {
        fill: #191912;
      }

      .cls-9 {
        fill: #d7bd9d;
      }

      .cls-10 {
        fill: #c1a587;
      }

      .cls-11 {
        fill: #dac6a4;
      }

      .cls-12 {
        fill: #3d3534;
      }

      .cls-13 {
        fill: #fff;
      }

      .cls-14 {
        fill: #dcc5a0;
      }

      .cls-15 {
        fill: #272213;
      }

      .cls-16 {
        fill: #ecdab6;
      }

      .cls-17 {
        fill: #b8987d;
      }

      .cls-18 {
        fill: #807e78;
      }

      .cls-19 {
        fill: #ebd9b5;
      }

      .cls-20 {
        fill: #f2f2f2;
      }

      .cls-21 {
        fill: #a98d76;
      }

      .cls-22 {
        fill: #b48eba;
      }

      .cls-23 {
        fill: #714223;
      }

      .cls-24 {
        fill: #b7967d;
      }

      .cls-25 {
        clip-path: url(#clippath);
      }

      .cls-26 {
        fill: #d2bb9b;
      }

      .cls-27 {
        fill: #b5957e;
      }
    </style>
    <clipPath id="clippath">
      <rect class="cls-1" x="98.56" y="154.91" width="25.12" height="14.86"/>
    </clipPath>
  </defs>
  <g id="Layer_1-2" data-name="Layer 1">
    <g>
      <rect class="cls-22" width="221.6" height="223.72"/>
      <path class="cls-5" d="M160.09,127.76s-17.36,44.96,9.04,65.7l-13.69-7.49,11.38,24.96-10.19-10.75,2.82,18.81-18.43-17.66-30.54-22.85v-64.02l49.61,13.29Z"/>
      <path class="cls-5" d="M59.44,127.76s17.36,44.96-9.04,65.7l13.69-7.49-11.38,24.96,10.19-10.75-2.82,18.81,18.43-17.66,30.54-22.85v-64.02l-49.61,13.29Z"/>
      <path class="cls-14" d="M111.03,139.65v84.07h-45.34c-.74-.29-1.11-.45-1.11-.45,0-4.55.29-8.68.8-12.41.69-5.08,1.8-9.45,3.16-13.21,5.77-15.74,16.34-20.75,21.19-22.25,1.6-.49,2.58-.61,2.58-.61.18,0,.34-.02.51-.05.61-.09,1.17-.38,1.67-.84.69-.58,1.31-1.47,1.84-2.61.69-1.47,1.26-3.36,1.74-5.53.18-.84.34-1.7.48-2.63.23-1.57.45-3.19.63-4.9.08-1.03.18-2.03.31-3.1.4-5.14.51-10.77.51-16.11,0,0,6.08.63,11.03.63Z"/>
      <path class="cls-19" d="M157.66,223.27s-.4.15-1.08.45h-45.55v-84.07h.11c4.91,0,11.07-.63,11.07-.63,0,5.3.11,10.86.51,16,.12,1,.23,2.03.31,3.03.18,1.78.4,3.46.66,5.01v.03c.08.71.22,1.34.34,2,.45,2.2.98,4.12,1.64,5.65.61,1.44,1.32,2.56,2.13,3.26.28.23.57.41.88.54.37.17.78.26,1.21.26,0,0,1.74.22,4.35,1.24,5.34,2.09,14.31,7.59,19.46,21.62,1.38,3.76,2.49,8.12,3.18,13.21.49,3.73.78,7.86.78,12.41Z"/>
      <g class="cls-25">
        <path class="cls-3" d="M123.68,162.89v.04c-1.14,1.77-4.98,6.84-12.58,6.84h-.07c-7.19-.04-11.4-5.26-12.47-6.8.22-1.54.44-3.16.63-4.85.07-.99.18-2.02.3-3.09,3.5.88,7.34,1.43,11.4,1.51h.15c4.2-.07,8.08-.66,11.69-1.62.11.99.22,2.02.3,3.02.18,1.77.41,3.42.66,4.96"/>
      </g>
      <path class="cls-4" d="M110.51,43.85c-48.02,0-48.28,40.27-46.14,66.64-3.28-6.25-13.06-4.34-12.25,5.52.77,9.49,14.74,14.32,14.35,13.28,7.27,19.5,26.52,34.2,44.04,34.2h.37V43.85h-.37"/>
      <path class="cls-21" d="M55.19,111.85c2.36-3.82,6.05-2.17,6.93-1.32.96.92,1.73,2.1,1.14,4.34-.33,1.29-1.66,1.4-1.36,3.31.37,2.17,1.36,2.28,1.95,2.79.55.48,1.25.85,1.59,1.77.37.92.41,1.88.22,2.72-.37,1.54-2.62.29-4.13-.37-1-.48-4.17-3.16-4.98-4.05-1.99-2.28-2.95-6.69-1.36-9.19"/>
      <path class="cls-9" d="M110.77,43.85c48.02,0,48.28,40.27,46.18,66.64,3.28-6.25,13.02-4.34,12.21,5.52-.74,9.49-14.73,14.33-14.35,13.28-7.08,19.5-26.52,34.2-44.04,34.2h-.26l-.11-119.63h.37"/>
      <path class="cls-21" d="M166.1,111.85c-2.36-3.82-6.01-2.17-6.93-1.32-.96.92-1.7,2.1-1.14,4.34.33,1.29,1.66,1.4,1.36,3.31-.37,2.17-1.36,2.28-1.92,2.79-.55.48-1.29.85-1.62,1.77-.33.92-.41,1.88-.22,2.72.37,1.54,2.62.29,4.13-.37,1.03-.48,4.17-3.16,4.98-4.05,2.03-2.28,2.95-6.69,1.36-9.19"/>
      <path class="cls-14" d="M110.14,55.21c-15.79,0-27.37,4.6-34.34,13.64-9.77,12.69-9.41,32.03-5.83,45.93,1.11,4.27,1.7,15.7,2.43,19.9,3.43,18.79,24.12,28.8,37.73,28.8h.37V55.21h-.22"/>
      <path class="cls-19" d="M144.44,68.89c-6.93-9.01-18.37-13.61-33.93-13.68v108.27c15.57-.18,34.19-11.14,37.36-28.8.77-4.19,1.33-15.63,2.43-19.9,3.61-13.86,3.98-33.17-5.86-45.9"/>
      <path class="cls-1" d="M108.58,140.35c-.22-.04-.42-.08-.59-.11.2.04.4.08.59.11Z"/>
      <path class="cls-1" d="M107.76,144.24c-.14-.03-.27-.06-.36-.08.12.03.24.05.36.08Z"/>
      <path class="cls-24" d="M107.99,144.29c-.08-.02-.15-.03-.23-.05.07.02.14.03.23.05Z"/>
      <path class="cls-24" d="M107.4,144.16c-.07-.02-.13-.04-.2-.06h0s.08.02.21.06Z"/>
      <path class="cls-9" d="M101.55,130.24c-.18-3.74,6.85-1.37,9.17-1.25,1.83.09,7.41-1.18,7.89-.85,3.28,2.22-3.47,6.69-8,6.69-1.21,0-8.94-2.33-9.05-4.58Z"/>
      <path class="cls-1" d="M67.45,88.96c-.43,1.44-.73,3-.93,4.67,0,0,.63-2.64,2.03-6.54-.6.83-1,1.5-1.1,1.87Z"/>
      <path class="cls-7" d="M97.1,55.48l-.2.2.03.07c.07-.1.1-.2.17-.27Z"/>
      <path class="cls-1" d="M108.73,142.21c-.22-.04-.43-.08-.61-.12.21.04.41.09.61.12Z"/>
      <path class="cls-1" d="M107.89,142.04c-.14-.03-.28-.06-.37-.09.12.03.24.06.37.09Z"/>
      <path class="cls-27" d="M108.12,142.09c-.08-.02-.15-.03-.23-.05.08.02.14.03.23.05Z"/>
      <path class="cls-27" d="M107.52,141.96c-.07-.02-.14-.04-.21-.06h0s.08.02.21.06Z"/>
      <path class="cls-13" d="M76.05,97.47s3.66,15.08,9.95,16.31c6.29,1.23,13.1-1.22,13.1-1.22,0,0,.65-17.72-2.57-20.03-3.22-2.33-10.64-5.69-20.48,4.94Z"/>
      <path class="cls-26" d="M99.11,112.51s-.14.04-.47.18c-.08-5.43-.58-12.9-2.59-14.33-2.99-2.2-9.74-5.29-18.76,3.17-.82-2.34-1.23-4.11-1.23-4.11,9.86-10.65,17.29-7.29,20.48-4.97,3.22,2.32,2.57,20.06,2.57,20.06Z"/>
      <ellipse class="cls-2" cx="89.2" cy="104.84" rx="6.19" ry="6.21"/>
      <path class="cls-23" d="M88.91,108.97c-1.79-.15-3.16-1.96-3-3.95.16-1.99,1.81-3.55,3.6-3.4,1.79.15,3.16,1.96,3,3.94-.16,1.99-1.81,3.55-3.6,3.4Z"/>
      <path class="cls-15" d="M89.07,108.26c-1.24-.11-2.54-1.48-2.4-3.16.14-1.69,1.63-2.83,2.88-2.73,1.25.11,2.53,1.48,2.4,3.17-.14,1.69-1.63,2.83-2.88,2.73Z"/>
      <path class="cls-13" d="M88.06,104.09c-.05.61-.68,1.06-1.39,1-.72-.06-1.26-.61-1.21-1.21.05-.61.67-1.06,1.39-1,.72.06,1.26.6,1.21,1.22Z"/>
      <path class="cls-13" d="M92.07,107.62c-.03.3-.34.53-.69.5-.36-.03-.63-.3-.61-.61.03-.3.34-.53.69-.5.36.03.63.3.61.61Z"/>
      <path class="cls-1" d="M108.83,143.99c-.22-.04-.43-.08-.61-.12.21.04.41.09.61.12Z"/>
      <path class="cls-1" d="M107.98,143.82c-.14-.03-.28-.06-.37-.09.12.03.24.06.37.09Z"/>
      <path class="cls-27" d="M108.22,143.87c-.08-.02-.15-.03-.23-.05.08.02.14.03.23.05Z"/>
      <path class="cls-27" d="M107.61,143.73c-.07-.02-.14-.04-.21-.06h0s.08.03.21.06Z"/>
      <path class="cls-1" d="M108.59,143.57c-.24-.04-.46-.08-.65-.13.22.05.44.09.65.13Z"/>
      <path class="cls-1" d="M107.69,143.39c-.15-.03-.3-.07-.4-.09.13.03.26.06.4.09Z"/>
      <path class="cls-24" d="M107.93,143.44c-.08-.02-.17-.03-.25-.05.08.02.15.03.25.05Z"/>
      <path class="cls-24" d="M107.29,143.3c-.08-.02-.15-.04-.22-.06h0s.09.03.23.06Z"/>
      <path class="cls-1" d="M108.4,142.94c-.24-.04-.46-.08-.65-.12.22.05.44.09.65.12Z"/>
      <path class="cls-1" d="M107.5,142.76c-.15-.03-.3-.07-.4-.09.13.03.26.06.4.09Z"/>
      <path class="cls-24" d="M107.75,142.81c-.08-.02-.17-.03-.25-.05.08.02.15.03.25.05Z"/>
      <path class="cls-24" d="M107.1,142.67c-.08-.02-.15-.04-.22-.06h0s.09.03.23.06Z"/>
      <path class="cls-1" d="M108.96,142.85c-.23-.04-.44-.08-.63-.12.21.05.42.09.63.12Z"/>
      <path class="cls-1" d="M108.08,142.68c-.14-.03-.29-.06-.38-.09.13.03.25.06.38.09Z"/>
      <path class="cls-24" d="M108.32,142.73c-.08-.02-.16-.03-.24-.05.08.02.15.03.24.05Z"/>
      <path class="cls-24" d="M107.7,142.59c-.07-.02-.14-.04-.21-.06h0s.08.03.22.06Z"/>
      <path class="cls-13" d="M145.33,96.96s-3.66,15.08-9.95,16.31c-6.29,1.23-13.1-1.22-13.1-1.22,0,0-.65-17.72,2.57-20.03,3.22-2.33,10.64-5.69,20.48,4.94Z"/>
      <path class="cls-26" d="M122.27,112s.14.04.47.18c.08-5.43.58-12.9,2.59-14.33,2.99-2.2,9.74-5.29,18.76,3.17.82-2.34,1.23-4.11,1.23-4.11-9.86-10.65-17.29-7.29-20.48-4.97-3.22,2.32-2.57,20.06-2.57,20.06Z"/>
      <path class="cls-2" d="M126,104.32c0,3.43,2.77,6.21,6.19,6.21s6.19-2.78,6.19-6.21-2.77-6.21-6.19-6.21-6.19,2.78-6.19,6.21Z"/>
      <path class="cls-23" d="M132.48,108.46c1.79-.15,3.16-1.96,3-3.95-.16-1.99-1.81-3.55-3.6-3.4-1.79.15-3.16,1.96-3,3.94.16,1.99,1.81,3.55,3.6,3.4Z"/>
      <path class="cls-15" d="M132.32,107.74c1.24-.11,2.54-1.48,2.4-3.16-.14-1.69-1.63-2.83-2.88-2.73-1.24.11-2.53,1.48-2.4,3.17.14,1.69,1.63,2.83,2.88,2.73Z"/>
      <path class="cls-13" d="M133.33,103.58c.05.61.68,1.06,1.39,1,.72-.06,1.26-.61,1.21-1.21-.05-.61-.67-1.06-1.39-1-.72.06-1.26.6-1.21,1.22Z"/>
      <path class="cls-13" d="M129.32,107.11c.03.3.34.53.69.5.36-.03.63-.3.61-.61-.03-.3-.34-.53-.69-.5-.36.03-.63.3-.61.61Z"/>
      <g>
        <path d="M102.88,97.23c-.05-.07-1.19-1.81-3.52-3.61-1.46-1.13-2.89-1.98-4.38-2.62-1.81-.76-3.75-1.3-5.64-1.56-1.7-.19-3.59-.14-5.8.16-1.68.32-3.32.82-4.72,1.44-.99.34-1.78.83-2.41,1.21-.24.15-.46.28-.68.4l-3,1.89,3.46-.82c.16-.04.34-.09.52-.14.72-.19,1.61-.43,2.65-.58.24-.04.49-.09.75-.14.44-.09.89-.18,1.36-.2.52-.04,1.07-.07,1.63-.11l.73-.05c1.92-.02,3.54.12,4.98.45,1.57.27,3.19.78,4.67,1.47,1.4.67,2.74,1.34,3.79,2.11,2.12,1.42,3.29,2.6,3.3,2.61h0c.29.29.68.45,1.07.45.28,0,.57-.08.82-.25.7-.46.89-1.4.45-2.08l-.03-.05Z"/>
        <path d="M145.95,92.64c-.2-.11-.42-.24-.66-.39-.63-.39-1.41-.87-2.38-1.2-1.42-.63-3.06-1.13-4.77-1.45-2.19-.29-4.08-.35-5.79-.15-1.88.26-3.82.8-5.63,1.56-1.47.63-2.94,1.51-4.38,2.62-2.29,1.76-3.43,3.47-3.52,3.6l-.02.03c-.39.6-.3,1.4.2,1.9.28.29.66.45,1.07.45h0c.4,0,.78-.16,1.06-.45h.01c.11-.12,1.25-1.24,3.31-2.62,1.03-.76,2.37-1.43,3.77-2.1,1.49-.69,3.11-1.2,4.7-1.48,1.42-.33,3.04-.47,4.93-.45l.76.05c.55.04,1.09.08,1.62.11.46.02.92.11,1.35.2.25.05.5.1.75.14,1.05.15,1.94.39,2.65.58.19.05.36.1.53.14l3.46.82-3.03-1.91Z"/>
      </g>
      <path class="cls-1" d="M107.77,145.78c-.23-.04-.45-.08-.64-.12.22.05.43.09.64.12Z"/>
      <path class="cls-1" d="M106.89,145.6c-.15-.03-.29-.07-.39-.09.13.03.26.06.39.09Z"/>
      <path class="cls-17" d="M107.13,145.65c-.08-.02-.16-.03-.24-.05.08.02.15.03.24.05Z"/>
      <path class="cls-17" d="M106.5,145.51c-.07-.02-.14-.04-.22-.06h0s.08.03.22.06Z"/>
      <path class="cls-16" d="M101.63,148.76c-.18-2.42,6.73.51,9,.58,1.81.06,7.25-.36,7.75-.55,3.8-1.43-.21,4.05-7.87,4.34-3.51.14-8.78-2.9-8.89-4.37Z"/>
      <path class="cls-11" d="M124.13,144.09c-1.88-.09-3.8,1.48-6.06,1.24-.09-.05-.14-.05-.23-.05-.52-.09-1.03,0-1.6.14-.7.15-1.41.43-2.07.66-1.13.37-2.4.66-3.71.56h0s-.05,0-.07,0-.05,0-.07,0h0c-1.31.09-2.58-.2-3.71-.57-.66-.23-1.37-.52-2.07-.66-.56-.14-1.08-.23-1.6-.14-.1,0-.14,0-.23.05-2.26.24-4.18-1.33-6.06-1.24-.52.05-1.27-.09-1.69-.09.09.05.19.09.29.14,5.35,2.62,9.96,7.52,15.08,7.36h.15c5.11.16,9.73-4.74,15.08-7.36.1-.05.19-.09.29-.14-.42,0-1.17.14-1.69.09Z"/>
      <path class="cls-10" d="M125.71,143.94h0s-5.44-2.1-9.31-.87c0,0-1.44.56-2.93.91-.91.35-2.01.46-3.07.41h0c-.81-.03-1.59-.14-2.22-.25-.21-.03-.42-.08-.64-.12-.09-.02-.16-.03-.24-.05-.13-.03-.26-.06-.39-.09-.14-.03-.22-.06-.22-.06h0c-1.24-.34-2.3-.75-2.3-.75-3.87-1.23-9.31.87-9.31.87h0c-.07.03-.12.06-.12.06.42,0,1.17.14,1.69.09,1.88-.09,3.8,1.48,6.06,1.24.09-.05.14-.05.23-.05.52-.09,1.03,0,1.6.14.7.15,1.41.43,2.07.66,1.13.37,2.4.66,3.71.56h0s.05,0,.07,0,.05,0,.07,0h0c1.31.09,2.58-.2,3.71-.57.66-.23,1.37-.52,2.07-.66.56-.14,1.08-.23,1.6-.14.1,0,.14,0,.23.05,2.26.24,4.18-1.33,6.06-1.24.52.05,1.27-.09,1.69-.09,0,0-.05-.02-.12-.06Z"/>
      <path class="cls-10" d="M101.26,145.22c.1.02,10.19,3.11,18.09.07l-.91-.61h-10.67l-6.51.55Z"/>
      <path class="cls-8" d="M104.84,197.12v26.6h-33.3c.18-2.7.35-7.08.38-12.85h-6.54c.69-5.08,1.8-9.45,3.16-13.21,5.77-15.74,16.34-20.75,21.19-22.25,1.6-.49,2.58-.61,2.58-.61.18,0,.34-.02.51-.05.61-.09,1.17-.38,1.67-.84.58,1.37,2.6,5.59,5.56,9.49,3.01,3.96,4.78,8.75,4.78,13.73Z"/>
      <path class="cls-8" d="M150.39,210.86c.03,5.76.25,10.17.43,12.85h-33.43v-26.25c0-5.08,1.75-9.98,4.82-14.02.02-.03.03-.05.05-.06,2.9-3.81,4.91-7.96,5.54-9.4.28.23.57.41.88.54.37.17.78.26,1.21.26,0,0,1.74.22,4.35,1.24,5.34,2.09,14.31,7.59,19.46,21.62,1.38,3.76,2.49,8.12,3.18,13.21h-6.48Z"/>
      <path class="cls-6" d="M104.84,201.88s5.25,6.53,12.55,0v21.83h-12.55v-21.83Z"/>
      <path class="cls-12" d="M168.63,122.88l-5.2-7.84c-.48-.73.04-1.7.91-1.7h.8c.58,0,1.14.23,1.56.64l4.8,4.8c-.56,1.85-1.84,3.23-2.87,4.09Z"/>
      <path class="cls-12" d="M164.34,126.58l-3.06-7.2c-.28-.67.29-1.38,1-1.25l.65.12c.48.09.9.36,1.17.76l3.19,4.66c-.74,1.43-1.99,2.36-2.97,2.91Z"/>
      <path class="cls-18" d="M152.42,124.42h0,0s-12.87,28.92-23.73,21.56l-.04.14c-.54-1.68-1.33-3.12-2.31-4.19-3.07-4.53-9.28-7.63-16.46-7.63-6.61,0-12.39,2.63-15.67,6.58-1.46,1.01-2.65,2.78-3.4,4.97v-.02c-10.87,7.36-22.88-21.4-22.88-21.41h0l-2.08,3.08c4.04,17.54,21.01,29.4,27.8,33.53.56.49,1.16.9,1.8,1.13.31.16.64.31.97.46.02.01.05.03.05.03h0c3.37,1.49,8.12,2.44,13.4,2.44,5.64,0,10.69-1.07,14.08-2.75l-.09.31s26.15-12.6,31.24-34.66l-2.69-3.57ZM118.9,159.07c0-.06.03-.12.03-.17,0-1.74-4.14-3.14-9.24-3.14s-9.24,1.41-9.24,3.14c0,.03,0,.05,0,.07-1.81-.45-3.42-1.03-4.77-1.7-.71-1.76-1.15-3.83-1.15-6.07v-.02c0-1.15.48-2.24,1.34-3,2.72-2.38,6.47-4.06,10.73-4.64,1.06-.14,2.15-.22,3.26-.22s2.2.08,3.26.22c3.91.53,7.37,2,10.01,4.07,1.08.85,1.67,2.18,1.67,3.56v.02c0,2.34-.46,4.5-1.24,6.3-1.35.62-2.93,1.15-4.69,1.57Z"/>
      <path class="cls-5" d="M173.08,50.02s-6.74-8.54-18.42-6.51c3.5-7.4-1.45-12.32-1.45-12.32-.46,6.13-3.06,8.81-5.32,9.99-1.05-5.18-6.01-12.95-22.68-16.68,0,0,5.16,3.59,8.24,7.99,1.8,2.57-1.2,5.7-4.1,4.28-3-1.47-7.39-2.45-11.38-5.49-8.89-6.78-24.76-3.91-33.21,1.21-7.04,4.27-17.7,13.68-20.69,20.01-.71,1.51-1.68,3.45-2.77,5.65,0,0-.02.02-.03.02-11.62,3.75-14.97-.79-14.97-.79,0,0,3.05,4.84,8.6,6.86,1.58.57,2.4,2.2,1.74,3.66-2.24,4.97-4.33,10.19-5.4,14.64-2.03,8.43,3.44,16.63,8.21,20.2,0,.13.02.25.03.38,1.57,1.75,3.99,4.75,5.73,8.19.39.77.73,1.55,1.03,2.35.72,1.9,1.16,3.87,1.06,5.8.95.22,3.08-3.4,3-10,4.24-14.56,11.63-22.61,19.63-27.36,1.2-.71,2.69.47,2.07,1.67-7.66,14.88-.13,31.09-.13,31.09-.42-19.65,17.26-32.81,22.73-36.4.51-.28,1.04-.61,1.59-1,1.92-1.34,4.05-2.52,6.28-3.47,2.11-.89,4.63.08,5.39,2.12,1.45,3.86,2.15,8.26,1.27,13.01,0,0,3.3-4.94,4.3-11.61.29-1.9,2.85-2.51,4.05-.95,3.94,5.14,7.9,12.8,6.35,21.68-.01.08-.02.15-.03.23,0,0,.3-.46.74-1.26,1.43-2.23,2.32-4.74,2.88-7.13.16-.59.29-1.21.42-1.84v.02s1.4-5.45,3.37,1.01c.55,3.34.67,7.16.27,11.46-.3,3.21-.44,5.85-.48,8.02-.04,2.13.02,3.81.15,5.14.47,4.99,1.8,4.94,1.8,4.94.94,0-.07-4.85,3.07-8.2,3.13-3.34,7.92-14.61,7.92-25.86,0-6-1.18-11.64-3.88-17.21-9.37-12.18,2.45-20.75,13.02-17.53Z"/>
      <path class="cls-20" d="M125.31,202.02c.45,1.93,1.96,2.85,1.93,5.61,1.57.56,3.09,1.22,3.83,2.67v1.01h4.54v-.92c.77-1.48,2.38-2.17,4.04-2.76.03-3.59,1.63-4.19,1.93-7.01,1.1-11.34-19.12-10.9-16.27,1.4ZM134.84,207.01c-1.87,1.19-2.76-.68-2.76-.68l1.13-3.15s3.53,2.61,1.63,3.83ZM130.12,203.89c-1.19,0-2.17-.89-2.17-2.02s.98-1.99,2.17-1.99,2.14.89,2.14,1.99-.95,2.02-2.14,2.02ZM136.71,203.48c-1.19,0-2.14-.89-2.14-1.99s.95-2.02,2.14-2.02,2.17.89,2.17,2.02-.98,1.99-2.17,1.99Z"/>
    </g>
  </g>
</svg>