<?xml version="1.0" encoding="UTF-8"?>
<svg id="Layer_2" data-name="Layer 2" xmlns="http://www.w3.org/2000/svg" xmlns:xlink="http://www.w3.org/1999/xlink" viewBox="0 0 221.6 223.72">
  <defs>
    <style>
      .cls-1 {
        fill: none;
      }

      .cls-2 {
        fill: #462e1b;
      }

      .cls-3 {
        fill: #ba9d82;
      }

      .cls-4 {
        fill: #ccad8a;
      }

      .cls-5 {
        fill: #414f69;
      }

      .cls-6 {
        fill: #7a1079;
      }

      .cls-7 {
        fill: #44361f;
      }

      .cls-8 {
        fill: #d7bd9d;
      }

      .cls-9 {
        fill: #4c4745;
      }

      .cls-10 {
        fill: #873a32;
      }

      .cls-11 {
        fill: #c1a587;
      }

      .cls-12 {
        fill: #432541;
      }

      .cls-13 {
        fill: #3f3a37;
      }

      .cls-14 {
        fill: #dac6a4;
      }

      .cls-15 {
        fill: #544e4d;
      }

      .cls-16 {
        fill: #c68c8f;
      }

      .cls-17 {
        fill: #fff;
      }

      .cls-18 {
        fill: #dcc5a0;
      }

      .cls-19 {
        fill: #272213;
      }

      .cls-20 {
        fill: #ecdab6;
      }

      .cls-21 {
        fill: #49463f;
      }

      .cls-22 {
        fill: #b12717;
      }

      .cls-23 {
        fill: #b8987d;
      }

      .cls-24 {
        fill: #6b7396;
      }

      .cls-25 {
        fill: #ebd9b5;
      }

      .cls-26 {
        fill: #37322f;
      }

      .cls-27 {
        fill: #a98d76;
      }

      .cls-28 {
        fill: #8f9daa;
      }

      .cls-29 {
        fill: #b48eba;
      }

      .cls-30 {
        fill: #714223;
      }

      .cls-31 {
        fill: #b7967d;
      }

      .cls-32 {
        clip-path: url(#clippath);
      }

      .cls-33 {
        fill: #d2bb9b;
      }

      .cls-34 {
        fill: #b5957e;
      }
    </style>
    <clipPath id="clippath">
      <rect class="cls-1" x="98.56" y="154.91" width="25.12" height="14.86"/>
    </clipPath>
  </defs>
  <g id="Layer_1-2" data-name="Layer 1">
    <g>
      <rect class="cls-24" width="221.6" height="223.72"/>
      <path class="cls-10" d="M158.82,149.96c1.57,1.79,8.09,4.43,8.09,4.43,0,0-4.22-1.81-5.63-8.73-.53-2.52-.78-3.95-.83-4.96h-.51c1.75-2.51,3.08-5.18,3.95-7.97h0c.04-.14.08-.29.12-.44.33-1.12.59-2.25.76-3.41,2.25-13.04-1.87-29.12-3.9-35.85-.03-.09-.05-.18-.08-.27-.57-1.86-.95-2.94-.95-2.94.03.2.04.41.07.61-6.07-14.07-25.68-24.37-48.95-24.37-27.11,0-49.26,13.98-50.81,31.6-2.05,7.97-4.45,20.61-2.61,31.23.17,1.16.43,2.29.76,3.41.04.15.08.3.12.44h.01c.87,2.78,2.2,5.46,3.95,7.97h-.51c-.05,1.01-.3,2.44-.83,4.96-1.41,6.92-5.63,8.73-5.63,8.73,0,0,6.51-2.64,8.08-4.43.76-.87,2.78-3.25,3.4-4,.02.02.04.03.07.05-.36.8-1.22,3.37-.02,8.32,1.57,6.48,8.03,10.84,8.03,10.84,0,0-3.87-5.15-2.8-10.79,0,0-.23,2.27,6.07,8.55,6.01,6.01,13.46,12.46,14.44,12.54-.08-.19,5.96-4.94,5.88-7.49,4.59,1.32,6.74,8.47,11.71,8.47.29,0,.59-.01.88-.02h0c.29,0,.59.02.88.02,4.97,0,5.59-5.87,10.18-7.19-.08,2.55,7.33,7.1,7.25,7.29.97-.08,8.58-7.6,14.59-13.61,6.3-6.28,6.07-8.55,6.07-8.55,1.07,5.64-2.8,10.79-2.8,10.79,0,0,6.45-4.36,8.03-10.84,1.2-4.95.35-7.52-.01-8.32.02-.02.04-.04.07-.05.62.75,2.64,3.13,3.39,4ZM79.28,130.05c.15,2.94.81,4.96,1.98,6.49l.06.06s.22.22.53.52c.3.29.77.68,1.42,1.06,0,0,.02,0,.03.02.64.36,1.47.73,2.5.99.82.26,1.94.31,3.32.25-.19,1.08-.31,2.22-.31,3.41,0,2.17.36,4.21.97,6-9.11-4.63-16.34-12.14-20.39-21.32-.3-.79-1.19-3.18-2.24-6.5-.62-1.95-1.29-4.22-1.94-6.67,5.68,7.66,15.66,13.69,27.87,16.71-.03.04-.05.07-.05.07-8.36,8.2-13.75-1.07-13.75-1.07ZM155.17,121.01c-1.06,3.32-1.94,5.71-2.24,6.5-4.05,9.18-11.29,16.69-20.39,21.32.61-1.79.97-3.82.97-6,0-.96-.09-1.88-.21-2.78.9-.11,1.77-.25,2.58-.47,1.29-.25,2.46-.71,3.47-1.42,2.08-1.47,3.48-4.04,3.7-8.13,0,0-5.37,9.26-13.75,1.07,0,0-.04-.05-.12-.15,12.53-3.17,22.67-9.5,28.17-17.52-.72,2.8-1.48,5.38-2.17,7.57Z"/>
      <path class="cls-18" d="M111.03,139.65v84.07h-45.33c-.74-.3-1.11-.44-1.11-.44,0-10.73,1.57-19.1,3.96-25.62,5.77-15.75,16.33-20.75,21.2-22.26,1.6-.5,2.58-.61,2.58-.61.17,0,.33-.02.5-.04,1.43-.23,2.59-1.47,3.52-3.46.69-1.47,1.27-3.35,1.74-5.53.19-.85.33-1.7.48-2.63.22-1.55.44-3.18.63-4.89.07-1.04.18-2.03.29-3.11.4-5.14.52-10.77.52-16.1,0,0,6.09.63,11.03.63Z"/>
      <path class="cls-25" d="M157.65,223.27s-.41.15-1.07.44h-45.55v-84.07h.11c4.91,0,11.07-.63,11.07-.63,0,5.29.11,10.85.51,15.99.11,1,.22,2.03.29,3.04.19,1.78.41,3.44.67,5v.03c.07.71.22,1.34.33,2,.45,2.19.99,4.11,1.65,5.65.82,1.92,1.81,3.26,3.01,3.79.38.17.79.26,1.21.26,0,0,1.74.21,4.36,1.24,5.34,2.1,14.3,7.6,19.45,21.63,2.39,6.52,3.96,14.89,3.96,25.62Z"/>
      <g class="cls-32">
        <path class="cls-3" d="M123.68,162.89v.04c-1.14,1.77-4.98,6.84-12.58,6.84h-.07c-7.19-.04-11.4-5.26-12.47-6.8.22-1.54.44-3.16.63-4.85.07-.99.18-2.02.3-3.09,3.5.88,7.34,1.43,11.4,1.51h.15c4.2-.07,8.08-.66,11.69-1.62.11.99.22,2.02.3,3.02.18,1.77.41,3.42.66,4.96"/>
      </g>
      <path class="cls-4" d="M110.51,43.85c-48.02,0-48.28,40.27-46.14,66.64-3.28-6.25-13.06-4.34-12.25,5.52.77,9.49,14.74,14.32,14.35,13.28,7.27,19.5,26.52,34.2,44.04,34.2h.37V43.85h-.37"/>
      <path class="cls-27" d="M55.19,111.85c2.36-3.82,6.05-2.17,6.93-1.32.96.92,1.73,2.1,1.14,4.34-.33,1.29-1.66,1.4-1.36,3.31.37,2.17,1.36,2.28,1.95,2.79.55.48,1.25.85,1.59,1.77.37.92.41,1.88.22,2.72-.37,1.54-2.62.29-4.13-.37-1-.48-4.17-3.16-4.98-4.05-1.99-2.28-2.95-6.69-1.36-9.19"/>
      <path class="cls-8" d="M110.77,43.85c48.02,0,48.28,40.27,46.18,66.64,3.28-6.25,13.02-4.34,12.21,5.52-.74,9.49-14.73,14.33-14.35,13.28-7.08,19.5-26.52,34.2-44.04,34.2h-.26l-.11-119.63h.37"/>
      <path class="cls-27" d="M166.1,111.85c-2.36-3.82-6.01-2.17-6.93-1.32-.96.92-1.7,2.1-1.14,4.34.33,1.29,1.66,1.4,1.36,3.31-.37,2.17-1.36,2.28-1.92,2.79-.55.48-1.29.85-1.62,1.77-.33.92-.41,1.88-.22,2.72.37,1.54,2.62.29,4.13-.37,1.03-.48,4.17-3.16,4.98-4.05,2.03-2.28,2.95-6.69,1.36-9.19"/>
      <path class="cls-18" d="M110.14,55.21c-15.79,0-27.37,4.6-34.34,13.64-9.77,12.69-9.41,32.03-5.83,45.93,1.11,4.27,1.7,15.7,2.43,19.9,3.43,18.79,24.12,28.8,37.73,28.8h.37V55.21h-.22"/>
      <path class="cls-25" d="M144.44,68.89c-6.93-9.01-18.37-13.61-33.93-13.68v108.27c15.57-.18,34.19-11.14,37.36-28.8.77-4.19,1.33-15.63,2.43-19.9,3.61-13.86,3.98-33.17-5.86-45.9"/>
      <path class="cls-1" d="M108.58,140.35c-.22-.04-.42-.08-.59-.11.2.04.4.08.59.11Z"/>
      <path class="cls-1" d="M107.76,144.24c-.14-.03-.27-.06-.36-.08.12.03.24.05.36.08Z"/>
      <path class="cls-31" d="M107.99,144.29c-.08-.02-.15-.03-.23-.05.07.02.14.03.23.05Z"/>
      <path class="cls-31" d="M107.4,144.16c-.07-.02-.13-.04-.2-.06h0s.08.02.21.06Z"/>
      <path class="cls-8" d="M101.55,130.24c-.18-3.74,6.85-1.37,9.17-1.25,1.83.09,7.41-1.18,7.89-.85,3.28,2.22-3.47,6.69-8,6.69-1.21,0-8.94-2.33-9.05-4.58Z"/>
      <path class="cls-1" d="M67.45,88.96c-.43,1.44-.73,3-.93,4.67,0,0,.63-2.64,2.03-6.54-.6.83-1,1.5-1.1,1.87Z"/>
      <path class="cls-7" d="M97.1,55.48l-.2.2.03.07c.07-.1.1-.2.17-.27Z"/>
      <path class="cls-1" d="M108.73,142.21c-.22-.04-.43-.08-.61-.12.21.04.41.09.61.12Z"/>
      <path class="cls-1" d="M107.89,142.04c-.14-.03-.28-.06-.37-.09.12.03.24.06.37.09Z"/>
      <path class="cls-34" d="M108.12,142.09c-.08-.02-.15-.03-.23-.05.08.02.14.03.23.05Z"/>
      <path class="cls-34" d="M107.52,141.96c-.07-.02-.14-.04-.21-.06h0s.08.03.21.06Z"/>
      <path class="cls-17" d="M76.05,97.47s3.66,15.08,9.95,16.31c6.29,1.23,13.1-1.22,13.1-1.22,0,0,.65-17.72-2.57-20.03-3.22-2.33-10.64-5.69-20.48,4.94Z"/>
      <path class="cls-33" d="M99.11,112.51s-.14.04-.47.18c-.08-5.43-.58-12.9-2.59-14.33-2.99-2.2-9.74-5.29-18.76,3.17-.82-2.34-1.23-4.11-1.23-4.11,9.86-10.65,17.29-7.29,20.48-4.97,3.22,2.32,2.57,20.06,2.57,20.06Z"/>
      <ellipse class="cls-2" cx="89.2" cy="104.84" rx="6.19" ry="6.21"/>
      <path class="cls-30" d="M88.91,108.97c-1.79-.15-3.16-1.96-3-3.95.16-1.99,1.81-3.55,3.6-3.4,1.79.15,3.16,1.96,3,3.94-.16,1.99-1.81,3.55-3.6,3.4Z"/>
      <path class="cls-19" d="M89.07,108.26c-1.24-.11-2.54-1.48-2.4-3.16.14-1.69,1.63-2.83,2.88-2.73,1.25.11,2.53,1.48,2.4,3.17-.14,1.69-1.63,2.83-2.88,2.73Z"/>
      <path class="cls-17" d="M88.06,104.09c-.05.61-.68,1.06-1.39,1-.72-.06-1.26-.61-1.21-1.21.05-.61.67-1.06,1.39-1,.72.06,1.26.6,1.21,1.22Z"/>
      <path class="cls-17" d="M92.07,107.62c-.03.3-.34.53-.69.5-.36-.03-.63-.3-.61-.61.03-.3.34-.53.69-.5.36.03.63.3.61.61Z"/>
      <path class="cls-1" d="M108.83,143.99c-.22-.04-.43-.08-.61-.12.21.04.41.09.61.12Z"/>
      <path class="cls-1" d="M107.98,143.82c-.14-.03-.28-.06-.37-.09.12.03.24.06.37.09Z"/>
      <path class="cls-34" d="M108.22,143.87c-.08-.02-.15-.03-.23-.05.08.02.14.03.23.05Z"/>
      <path class="cls-34" d="M107.61,143.73c-.07-.02-.14-.04-.21-.06h0s.08.02.21.06Z"/>
      <path class="cls-1" d="M108.59,143.57c-.24-.04-.46-.08-.65-.13.22.05.44.09.65.13Z"/>
      <path class="cls-1" d="M107.69,143.39c-.15-.03-.3-.07-.4-.09.13.03.26.06.4.09Z"/>
      <path class="cls-31" d="M107.93,143.44c-.08-.02-.17-.03-.25-.05.08.02.15.03.25.05Z"/>
      <path class="cls-31" d="M107.29,143.3c-.08-.02-.15-.04-.22-.06h0s.09.03.23.06Z"/>
      <path class="cls-1" d="M108.4,142.94c-.24-.04-.46-.08-.65-.12.22.05.44.09.65.12Z"/>
      <path class="cls-1" d="M107.5,142.76c-.15-.03-.3-.07-.4-.09.13.03.26.06.4.09Z"/>
      <path class="cls-31" d="M107.75,142.81c-.08-.02-.17-.03-.25-.05.08.02.15.03.25.05Z"/>
      <path class="cls-31" d="M107.1,142.67c-.08-.02-.15-.04-.22-.06h0s.09.03.23.06Z"/>
      <path class="cls-1" d="M108.96,142.85c-.23-.04-.44-.08-.63-.12.21.05.42.09.63.12Z"/>
      <path class="cls-1" d="M108.08,142.68c-.14-.03-.29-.06-.38-.09.13.03.25.06.38.09Z"/>
      <path class="cls-31" d="M108.32,142.73c-.08-.02-.16-.03-.24-.05.08.02.15.03.24.05Z"/>
      <path class="cls-31" d="M107.7,142.59c-.07-.02-.14-.04-.21-.06h0s.08.03.22.06Z"/>
      <path class="cls-17" d="M145.33,96.96s-3.66,15.08-9.95,16.31c-6.29,1.23-13.1-1.22-13.1-1.22,0,0-.65-17.72,2.57-20.03,3.22-2.33,10.64-5.69,20.48,4.94Z"/>
      <path class="cls-33" d="M122.27,112s.14.04.47.18c.08-5.43.58-12.9,2.59-14.33,2.99-2.2,9.74-5.29,18.76,3.17.82-2.34,1.23-4.11,1.23-4.11-9.86-10.65-17.29-7.29-20.48-4.97-3.22,2.32-2.57,20.06-2.57,20.06Z"/>
      <path class="cls-2" d="M126,104.32c0,3.43,2.77,6.21,6.19,6.21s6.19-2.78,6.19-6.21-2.77-6.21-6.19-6.21-6.19,2.78-6.19,6.21Z"/>
      <path class="cls-30" d="M132.48,108.46c1.79-.15,3.16-1.96,3-3.95-.16-1.99-1.81-3.55-3.6-3.4-1.79.15-3.16,1.96-3,3.94.16,1.99,1.81,3.55,3.6,3.4Z"/>
      <path class="cls-19" d="M132.32,107.74c1.24-.11,2.54-1.48,2.4-3.16-.14-1.69-1.63-2.83-2.88-2.73-1.25.11-2.53,1.48-2.4,3.17.14,1.69,1.63,2.83,2.88,2.73Z"/>
      <path class="cls-17" d="M133.33,103.58c.05.61.68,1.06,1.39,1,.72-.06,1.26-.61,1.21-1.21-.05-.61-.67-1.06-1.39-1-.72.06-1.26.6-1.21,1.22Z"/>
      <path class="cls-17" d="M129.32,107.11c.03.3.34.53.69.5.36-.03.63-.3.61-.61-.03-.3-.34-.53-.69-.5-.36.03-.63.3-.61.61Z"/>
      <g>
        <path class="cls-21" d="M102.88,97.23c-.05-.07-1.19-1.81-3.52-3.61-1.46-1.13-2.89-1.98-4.38-2.62-1.81-.76-3.75-1.3-5.64-1.56-1.7-.19-3.59-.14-5.8.16-1.68.32-3.32.82-4.72,1.44-.99.34-1.78.83-2.41,1.21-.24.15-.46.28-.68.4l-3,1.9,3.46-.82c.16-.04.34-.09.52-.14.72-.19,1.61-.43,2.65-.58.24-.04.49-.09.75-.14.44-.09.89-.18,1.36-.2.52-.04,1.07-.07,1.63-.11l.73-.05c1.92-.02,3.54.12,4.98.45,1.57.27,3.19.78,4.67,1.47,1.4.67,2.74,1.34,3.79,2.11,2.12,1.42,3.29,2.6,3.3,2.61h0c.29.29.68.45,1.07.45.28,0,.57-.08.82-.25.7-.46.89-1.4.45-2.08l-.03-.05Z"/>
        <path class="cls-21" d="M145.95,92.64c-.2-.11-.42-.24-.66-.39-.63-.39-1.41-.87-2.38-1.2-1.42-.63-3.06-1.13-4.77-1.45-2.19-.29-4.08-.35-5.79-.15-1.88.26-3.82.8-5.63,1.56-1.47.63-2.94,1.51-4.38,2.62-2.29,1.76-3.43,3.47-3.52,3.6l-.02.03c-.39.6-.3,1.4.2,1.9.28.29.66.45,1.07.45h0c.4,0,.78-.16,1.06-.45h.01c.11-.12,1.25-1.24,3.31-2.62,1.03-.76,2.37-1.43,3.77-2.1,1.49-.69,3.11-1.2,4.7-1.48,1.42-.33,3.04-.47,4.93-.45l.76.05c.55.04,1.09.08,1.62.11.46.02.92.11,1.35.2.25.05.5.1.75.14,1.05.15,1.94.39,2.65.58.19.05.36.1.53.14l3.46.82-3.03-1.91Z"/>
      </g>
      <path class="cls-1" d="M107.77,145.78c-.23-.04-.45-.08-.64-.12.22.05.43.09.64.12Z"/>
      <path class="cls-1" d="M106.89,145.6c-.15-.03-.29-.07-.39-.09.13.03.26.06.39.09Z"/>
      <path class="cls-23" d="M107.13,145.65c-.08-.02-.16-.03-.24-.05.08.02.15.03.24.05Z"/>
      <path class="cls-23" d="M106.5,145.51c-.07-.02-.14-.04-.22-.06h0s.08.03.22.06Z"/>
      <path class="cls-20" d="M101.63,148.76c-.18-2.42,6.73.51,9,.58,1.81.06,7.25-.36,7.75-.55,3.8-1.43-.21,4.05-7.87,4.34-3.51.14-8.78-2.9-8.89-4.37Z"/>
      <path class="cls-14" d="M124.13,144.09c-1.88-.09-3.8,1.48-6.06,1.24-.09-.05-.14-.05-.23-.05-.52-.09-1.03,0-1.6.14-.7.15-1.41.43-2.07.66-1.13.37-2.4.66-3.71.56h0s-.05,0-.07,0-.05,0-.07,0h0c-1.31.09-2.58-.2-3.71-.57-.66-.23-1.37-.52-2.07-.66-.56-.14-1.08-.23-1.6-.14-.1,0-.14,0-.23.05-2.26.24-4.18-1.33-6.06-1.24-.52.05-1.27-.09-1.69-.09.09.05.19.09.29.14,5.35,2.62,9.96,7.52,15.08,7.36h.15c5.11.16,9.73-4.74,15.08-7.36.1-.05.19-.09.29-.14-.42,0-1.17.14-1.69.09Z"/>
      <path class="cls-11" d="M125.71,143.94h0s-5.44-2.1-9.31-.87c0,0-1.44.56-2.93.91-.91.35-2.01.46-3.07.41h0c-.81-.03-1.59-.14-2.22-.25-.21-.03-.42-.08-.64-.12-.09-.02-.16-.03-.24-.05-.13-.03-.26-.06-.39-.09-.14-.03-.22-.06-.22-.06h0c-1.24-.34-2.3-.75-2.3-.75-3.87-1.23-9.31.87-9.31.87h0c-.07.03-.12.06-.12.06.42,0,1.17.14,1.69.09,1.88-.09,3.8,1.48,6.06,1.24.09-.05.14-.05.23-.05.52-.09,1.03,0,1.6.14.7.15,1.41.43,2.07.66,1.13.37,2.4.66,3.71.56h0s.05,0,.07,0,.05,0,.07,0h0c1.31.09,2.58-.2,3.71-.57.66-.23,1.37-.52,2.07-.66.56-.14,1.08-.23,1.6-.14.1,0,.14,0,.23.05,2.26.24,4.18-1.33,6.06-1.24.52.05,1.27-.09,1.69-.09,0,0-.05-.02-.12-.06Z"/>
      <path class="cls-11" d="M101.26,145.22c.1.02,10.19,3.11,18.09.07l-.91-.61h-10.67l-6.51.55Z"/>
      <path class="cls-12" d="M104.84,188.33v35.38h-33.3c.18-2.7.35-7.08.38-12.85h-8.52c-.09-8.4,6.6-22.75,6.6-22.75.64-.88,1.31-1.67,1.97-2.44,1.74-2,3.53-3.62,5.31-4.95.2-.22.45-.37.66-.51.57-.41,1.15-.8,1.72-1.17,2.58-1.64,5.02-2.69,6.93-3.33.45-.17.86-.29,1.26-.4,1.78-.49,2.89-.63,2.89-.63.95,0,1.77-.35,2.5-.95,0,0,0-.03.03-.03.25-.23.49-.51.74-.8.09.08.28.32.43.83.69,1.69,4.75,10.31,10.4,14.59Z"/>
      <path class="cls-12" d="M150.39,210.86c.03,5.76.25,10.17.43,12.85h-33.43v-35.31c1.81-1.34,3.46-3.15,4.87-5.02,3.09-4.05,5.16-8.48,5.64-9.64.17-.51.18-.25.32-.59.23.29.61.33.86.56.03,0,.03.03.03.03.72.6,1.57.95,2.49.95,0,0,1.06.11,2.75.57.37.14.78.26,1.24.41,2.32.77,5.47,2.1,8.75,4.48.21.17.46.32.65.52,2.5,1.84,5.04,4.25,7.34,7.43,0,0,6.82,9.89,6.51,22.75h-8.45Z"/>
      <polygon class="cls-24" points="117.39 197.64 117.39 205.18 117.39 212.72 117.39 216.92 119.28 216.92 125.45 210.75 125.45 205.18 125.45 199.61 119.28 193.44 117.39 193.44 117.39 197.64"/>
      <polygon class="cls-24" points="104.84 212.72 104.84 205.18 104.84 197.64 104.84 193.44 102.95 193.44 96.78 199.61 96.78 205.18 96.78 210.75 102.95 216.92 104.84 216.92 104.84 212.72"/>
      <path class="cls-29" d="M163.49,129.12l-5.2-7.84c-.48-.73.04-1.7.91-1.7h.8c.58,0,1.14.23,1.56.64l4.8,4.8c-.56,1.85-1.84,3.23-2.87,4.09Z"/>
      <path class="cls-5" d="M159.2,132.81l-3.06-7.2c-.28-.67.29-1.38,1-1.25l.65.12c.48.09.9.36,1.17.76l3.19,4.66c-.74,1.43-1.99,2.36-2.97,2.91Z"/>
      <path class="cls-16" d="M168.44,123.65l-5.66-2.95c-.53-.27-.5-1.02.04-1.3l.5-.26c.36-.19.78-.23,1.17-.12l4.47,1.28c.23,1.28-.14,2.51-.51,3.36Z"/>
      <path class="cls-22" d="M171.13,118.66l-7.69-1.39c-.71-.13-1-1-.49-1.53l.46-.48c.34-.35.8-.55,1.28-.56l5.64-.12c.79,1.4.88,2.96.8,4.08Z"/>
      <rect class="cls-5" x="102.8" y="199.56" width="16.47" height="2.83"/>
      <rect class="cls-5" x="102.8" y="204.6" width="16.47" height="2.83"/>
      <rect class="cls-5" x="102.8" y="209.64" width="16.47" height="2.83"/>
      <path class="cls-6" d="M104.84,188.33v-3.91c0-1.68-.47-3.31-1.37-4.73-2.18-3.42-6.13-10.25-5.38-13.95l-4.07,7.16s4.64,12.34,10.83,15.42Z"/>
      <path class="cls-6" d="M117.39,188.67v-3.88c0-1.69.48-3.34,1.4-4.77,2.21-3.42,6.19-10.24,5.45-13.93l3.98,7.16s-4.64,12.34-10.83,15.42Z"/>
      <g>
        <g>
          <path class="cls-28" d="M109.22,77.39l-46.04-.37c-9.15,4.32-11.05,10.36-11.05,10.36-1.39,3.64,26.43,9.23,26.43,9.23l30.66.92v-20.14Z"/>
          <path class="cls-15" d="M109.22,96.44c-51.98-.54-57.09-9.05-57.09-9.05,2.89,11.31,40.39,12.51,57.09,12.48v-3.42Z"/>
          <path class="cls-28" d="M109.22,77.39l46.04-.37c9.15,4.32,11.05,10.36,11.05,10.36,1.39,3.64-26.43,9.23-26.43,9.23l-30.66.92v-20.14Z"/>
          <path class="cls-15" d="M109.22,96.44c51.98-.54,57.09-9.05,57.09-9.05-2.89,11.31-40.39,12.51-57.09,12.48v-3.42Z"/>
        </g>
        <g>
          <path class="cls-13" d="M109.48,30.68l1.53-1.23s19.73-1.11,35.48,11.71c0,0,10.41,4.16,8.72,27.23l1.34,8.55c.38,2.43-1.47,4.73-4.38,5.43-2.04.49-4.31.98-5.95,1.19l-36.74-52.88Z"/>
          <path class="cls-15" d="M152.61,81.93s-4.13-15.53-1.22-20.45c0,0,7.49-17.74-17.13-24.52l-24.78-6.28v54.83s35.94,0,43.13-3.57Z"/>
          <path class="cls-13" d="M109.48,30.68l-1.53-1.23s-19.73-1.11-35.48,11.71c0,0-10.41,4.16-8.72,27.23l-1.34,8.55c-.38,2.43,1.47,4.73,4.38,5.43,2.04.49,4.31.98,5.95,1.19l36.74-52.88Z"/>
          <path class="cls-15" d="M109.49,30.68v54.83s-35.95,0-43.14-3.56c0,0,3.37-12.68,1.89-18.77-.16-.64-.38-1.22-.66-1.7,0,0-7.51-17.73,17.12-24.52l24.79-6.28Z"/>
          <rect class="cls-9" x="108.18" y="30.68" width="1.3" height="17.89"/>
          <path class="cls-9" d="M109.49,48.56v36.94s-35.95,0-43.14-3.56c0,0,3.37-12.68,1.89-18.77l.03-.13s28.29-14.91,40.55-14.48h.66Z"/>
          <path class="cls-9" d="M108.83,48.56v36.94s36.48,0,43.78-3.56c0,0-3.42-12.68-1.92-18.77l-.03-.13s-28.71-14.91-41.16-14.48h-.67Z"/>
          <path class="cls-26" d="M115.32,29.59c0,1.33-2.61,2.41-5.84,2.41s-5.84-1.08-5.84-2.41,2.61-2.41,5.84-2.41,5.84,1.08,5.84,2.41Z"/>
        </g>
      </g>
    </g>
  </g>
</svg>