<?xml version="1.0" encoding="UTF-8"?>
<svg id="Layer_2" data-name="Layer 2" xmlns="http://www.w3.org/2000/svg" xmlns:xlink="http://www.w3.org/1999/xlink" viewBox="0 0 221.6 223.72">
  <defs>
    <style>
      .cls-1 {
        fill: none;
      }

      .cls-2 {
        fill: #462e1b;
      }

      .cls-3 {
        fill: #ba9d82;
      }

      .cls-4 {
        fill: #ccad8a;
      }

      .cls-5 {
        fill: #44361f;
      }

      .cls-6 {
        fill: #d7bd9d;
      }

      .cls-7 {
        fill: #c1a587;
      }

      .cls-8 {
        fill: #dac6a4;
      }

      .cls-9 {
        fill: #fff;
      }

      .cls-10 {
        fill: #dcc5a0;
      }

      .cls-11 {
        fill: #272213;
      }

      .cls-12 {
        fill: #52839e;
      }

      .cls-13 {
        fill: #ecdab6;
      }

      .cls-14 {
        fill: #b12717;
      }

      .cls-15 {
        fill: #3c3d39;
      }

      .cls-16 {
        fill: #b8987d;
      }

      .cls-17 {
        fill: #ebd9b5;
      }

      .cls-18 {
        fill: #a98d76;
      }

      .cls-19 {
        fill: #714223;
      }

      .cls-20 {
        fill: #b7967d;
      }

      .cls-21 {
        clip-path: url(#clippath);
      }

      .cls-22 {
        fill: #d2bb9b;
      }

      .cls-23 {
        fill: #b5957e;
      }
    </style>
    <clipPath id="clippath">
      <rect class="cls-1" x="99.05" y="154.52" width="25.12" height="14.81"/>
    </clipPath>
  </defs>
  <g id="Layer_1-2" data-name="Layer 1">
    <g>
      <rect class="cls-12" width="221.6" height="223.72"/>
      <path class="cls-10" d="M111.52,139.32v84.4h-45.33c-.74-.3-1.11-.45-1.11-.45,0-10.77,1.57-19.17,3.96-25.72,5.77-15.81,16.33-20.83,21.2-22.34,1.6-.5,2.58-.62,2.58-.62.17,0,.33-.02.5-.04,1.43-.23,2.59-1.48,3.52-3.47.69-1.48,1.27-3.37,1.74-5.55.19-.85.33-1.71.48-2.64.22-1.56.44-3.19.63-4.91.07-1.04.18-2.04.29-3.12.4-5.16.52-10.82.52-16.17,0,0,6.09.63,11.03.63Z"/>
      <path class="cls-17" d="M158.14,223.27s-.41.15-1.07.45h-45.55v-84.4h.11c4.91,0,11.07-.63,11.07-.63,0,5.31.11,10.89.51,16.06.11,1.01.22,2.04.29,3.05.19,1.78.41,3.46.67,5.02v.03c.07.71.22,1.34.33,2.01.45,2.2.99,4.13,1.65,5.68.82,1.93,1.81,3.27,3.01,3.8.38.17.79.26,1.21.26,0,0,1.74.21,4.36,1.24,5.34,2.1,14.3,7.63,19.45,21.72,2.39,6.55,3.96,14.95,3.96,25.72Z"/>
      <g class="cls-21">
        <path class="cls-3" d="M124.17,162.48v.04c-1.14,1.76-4.98,6.82-12.58,6.82h-.07c-7.19-.04-11.4-5.24-12.47-6.78.22-1.54.44-3.15.63-4.84.07-.99.18-2.02.3-3.08,3.5.88,7.34,1.43,11.4,1.5h.15c4.2-.07,8.08-.66,11.69-1.61.11.99.22,2.02.3,3.01.18,1.76.41,3.41.66,4.95"/>
      </g>
      <path class="cls-4" d="M111,43.81c-48.02,0-48.28,40.14-46.14,66.43-3.28-6.23-13.06-4.33-12.25,5.5.77,9.46,14.74,14.28,14.35,13.23,7.27,19.44,26.52,34.09,44.04,34.09h.37V43.81h-.37"/>
      <path class="cls-18" d="M55.68,111.59c2.36-3.81,6.05-2.16,6.93-1.32.96.92,1.73,2.09,1.14,4.33-.33,1.28-1.66,1.39-1.36,3.3.37,2.16,1.36,2.27,1.95,2.79.55.48,1.25.84,1.59,1.76.37.92.41,1.87.22,2.71-.37,1.54-2.62.29-4.13-.37-1-.48-4.17-3.15-4.98-4.03-1.99-2.27-2.95-6.67-1.36-9.17"/>
      <path class="cls-6" d="M111.26,43.81c48.02,0,48.28,40.14,46.18,66.43,3.28-6.23,13.02-4.33,12.21,5.5-.74,9.46-14.73,14.28-14.35,13.23-7.08,19.44-26.52,34.09-44.04,34.09h-.26l-.11-119.26h.37"/>
      <path class="cls-18" d="M166.59,111.59c-2.36-3.81-6.01-2.16-6.93-1.32-.96.92-1.7,2.09-1.14,4.33.33,1.28,1.66,1.39,1.36,3.3-.37,2.16-1.36,2.27-1.92,2.79-.55.48-1.29.84-1.62,1.76-.33.92-.41,1.87-.22,2.71.37,1.54,2.62.29,4.13-.37,1.03-.48,4.17-3.15,4.98-4.03,2.03-2.27,2.95-6.67,1.36-9.17"/>
      <path class="cls-10" d="M110.63,55.14c-15.79,0-27.37,4.58-34.34,13.6-9.77,12.65-9.41,31.93-5.83,45.79,1.11,4.25,1.7,15.65,2.43,19.83,3.43,18.73,24.12,28.71,37.73,28.71h.37V55.14h-.22"/>
      <path class="cls-17" d="M144.93,68.77c-6.93-8.98-18.37-13.56-33.93-13.64v107.93c15.57-.18,34.19-11.11,37.36-28.71.77-4.18,1.33-15.58,2.43-19.83,3.61-13.82,3.98-33.07-5.86-45.75"/>
      <path class="cls-1" d="M109.07,140c-.22-.04-.42-.08-.59-.11.2.04.4.08.59.11Z"/>
      <path class="cls-1" d="M108.25,143.89c-.14-.03-.27-.06-.36-.08.12.03.24.05.36.08Z"/>
      <path class="cls-20" d="M108.48,143.93c-.08-.02-.15-.03-.23-.05.07.02.14.03.23.05Z"/>
      <path class="cls-20" d="M107.89,143.8c-.07-.02-.13-.04-.2-.06h0s.08.02.21.06Z"/>
      <path class="cls-6" d="M101.83,129.93c-.18-3.73,6.85-1.36,9.17-1.25,1.83.09,7.41-1.18,7.89-.85,3.28,2.21-3.47,6.66-8,6.66-1.21,0-8.94-2.32-9.05-4.57Z"/>
      <path class="cls-1" d="M67.94,88.78c-.43,1.43-.73,2.99-.93,4.66,0,0,.63-2.63,2.03-6.52-.6.83-1,1.5-1.1,1.86Z"/>
      <path class="cls-5" d="M97.59,55.4l-.2.2.03.07c.07-.1.1-.2.17-.27Z"/>
      <path class="cls-1" d="M109.22,141.86c-.22-.04-.43-.08-.61-.12.21.04.41.08.61.12Z"/>
      <path class="cls-1" d="M108.38,141.69c-.14-.03-.28-.06-.37-.08.12.03.24.06.37.08Z"/>
      <path class="cls-23" d="M108.61,141.74c-.08-.02-.15-.03-.23-.05.08.02.14.03.23.05Z"/>
      <path class="cls-23" d="M108.01,141.61c-.07-.02-.14-.04-.21-.06h0s.08.02.21.06Z"/>
      <path class="cls-9" d="M76.54,97.26s3.66,15.03,9.95,16.26c6.29,1.23,13.1-1.21,13.1-1.21,0,0,.65-17.66-2.57-19.97-3.22-2.32-10.64-5.67-20.48,4.93Z"/>
      <path class="cls-22" d="M99.6,112.26s-.14.04-.47.18c-.08-5.42-.58-12.86-2.59-14.29-2.99-2.19-9.74-5.27-18.76,3.16-.82-2.33-1.23-4.09-1.23-4.09,9.86-10.61,17.29-7.27,20.48-4.95,3.22,2.32,2.57,20,2.57,20Z"/>
      <circle class="cls-2" cx="89.69" cy="104.61" r="6.19"/>
      <path class="cls-19" d="M89.4,108.73c-1.79-.15-3.16-1.95-3-3.94.16-1.98,1.81-3.54,3.6-3.39,1.79.15,3.16,1.95,3,3.93-.16,1.98-1.81,3.54-3.6,3.39Z"/>
      <path class="cls-11" d="M89.56,108.01c-1.24-.11-2.54-1.47-2.4-3.15.14-1.69,1.63-2.83,2.88-2.72,1.24.11,2.53,1.48,2.4,3.16-.14,1.68-1.63,2.82-2.88,2.72Z"/>
      <path class="cls-9" d="M88.55,103.87c-.05.61-.68,1.05-1.39.99-.72-.06-1.26-.6-1.21-1.21.05-.61.67-1.06,1.39-1,.72.06,1.26.6,1.21,1.21Z"/>
      <path class="cls-9" d="M92.56,107.38c-.03.3-.34.53-.69.5-.36-.03-.63-.3-.61-.6.03-.3.34-.53.69-.5.36.03.63.3.61.6Z"/>
      <path class="cls-1" d="M109.32,143.63c-.22-.04-.43-.08-.61-.12.21.04.41.08.61.12Z"/>
      <path class="cls-1" d="M108.47,143.47c-.14-.03-.28-.06-.37-.08.12.03.24.06.37.08Z"/>
      <path class="cls-23" d="M108.71,143.52c-.08-.02-.15-.03-.23-.05.08.02.14.03.23.05Z"/>
      <path class="cls-23" d="M108.1,143.38c-.07-.02-.14-.04-.21-.06h0s.08.02.21.06Z"/>
      <path class="cls-1" d="M109.08,143.22c-.24-.04-.46-.08-.65-.12.22.05.44.09.65.12Z"/>
      <path class="cls-1" d="M108.18,143.04c-.15-.03-.3-.07-.4-.09.13.03.26.06.4.09Z"/>
      <path class="cls-20" d="M108.42,143.09c-.08-.02-.17-.03-.25-.05.08.02.15.03.25.05Z"/>
      <path class="cls-20" d="M107.78,142.95c-.08-.02-.15-.04-.22-.06h0s.09.03.23.06Z"/>
      <path class="cls-1" d="M108.89,142.59c-.24-.04-.46-.08-.65-.12.22.05.44.09.65.12Z"/>
      <path class="cls-1" d="M107.99,142.41c-.15-.03-.3-.07-.4-.09.13.03.26.06.4.09Z"/>
      <path class="cls-20" d="M108.24,142.46c-.08-.02-.17-.03-.25-.05.08.02.15.03.25.05Z"/>
      <path class="cls-20" d="M107.59,142.32c-.08-.02-.15-.04-.22-.06h0s.09.03.23.06Z"/>
      <path class="cls-1" d="M109.45,142.5c-.23-.04-.44-.08-.63-.12.21.05.42.09.63.12Z"/>
      <path class="cls-1" d="M108.57,142.33c-.14-.03-.29-.06-.38-.09.13.03.25.06.38.09Z"/>
      <path class="cls-20" d="M108.81,142.38c-.08-.02-.16-.03-.24-.05.08.02.15.03.24.05Z"/>
      <path class="cls-20" d="M108.19,142.24c-.07-.02-.14-.04-.21-.06h0s.08.03.22.06Z"/>
      <path class="cls-9" d="M145.82,96.75s-3.66,15.03-9.95,16.26c-6.29,1.23-13.1-1.21-13.1-1.21,0,0-.65-17.66,2.57-19.97,3.22-2.32,10.64-5.67,20.48,4.93Z"/>
      <path class="cls-22" d="M122.76,111.75s.14.04.47.18c.08-5.42.58-12.86,2.59-14.29,2.99-2.19,9.74-5.27,18.76,3.16.82-2.33,1.23-4.09,1.23-4.09-9.86-10.61-17.29-7.27-20.48-4.95-3.22,2.32-2.57,20-2.57,20Z"/>
      <path class="cls-2" d="M126.49,104.1c0,3.42,2.77,6.19,6.19,6.19s6.19-2.77,6.19-6.19-2.77-6.19-6.19-6.19-6.19,2.77-6.19,6.19Z"/>
      <path class="cls-19" d="M132.97,108.22c1.79-.15,3.16-1.95,3-3.94-.16-1.98-1.81-3.54-3.6-3.39-1.79.15-3.16,1.95-3,3.93.16,1.98,1.81,3.54,3.6,3.39Z"/>
      <path class="cls-11" d="M132.81,107.5c1.24-.11,2.54-1.47,2.4-3.15-.14-1.69-1.63-2.83-2.88-2.72-1.24.11-2.53,1.48-2.4,3.16.14,1.68,1.63,2.82,2.88,2.72Z"/>
      <path class="cls-9" d="M133.82,103.35c.05.61.68,1.05,1.39.99.72-.06,1.26-.6,1.21-1.21-.05-.61-.67-1.06-1.39-1-.72.06-1.26.6-1.21,1.21Z"/>
      <path class="cls-9" d="M129.81,106.87c.03.3.34.53.69.5.36-.03.63-.3.61-.6-.03-.3-.34-.53-.69-.5-.36.03-.63.3-.61.6Z"/>
      <g>
        <path d="M103.37,97.02c-.05-.07-1.19-1.81-3.52-3.6-1.46-1.12-2.89-1.98-4.38-2.61-1.81-.76-3.75-1.3-5.64-1.55-1.7-.19-3.59-.14-5.8.16-1.68.32-3.32.82-4.72,1.44-.99.34-1.78.82-2.41,1.21-.24.15-.46.28-.68.4l-3,1.89,3.46-.81c.16-.04.34-.09.52-.14.72-.19,1.61-.43,2.65-.58.24-.04.49-.08.75-.14.44-.09.89-.18,1.36-.2.52-.04,1.07-.07,1.63-.11l.73-.05c1.92-.02,3.54.12,4.98.45,1.57.27,3.19.78,4.67,1.47,1.4.67,2.74,1.33,3.79,2.1,2.12,1.41,3.29,2.59,3.3,2.6h0c.29.29.68.44,1.07.44.28,0,.57-.08.82-.24.7-.46.89-1.4.45-2.07l-.03-.05Z"/>
        <path d="M146.44,92.45c-.2-.11-.42-.24-.66-.39-.63-.39-1.41-.87-2.38-1.2-1.42-.63-3.06-1.13-4.77-1.45-2.19-.29-4.07-.34-5.79-.15-1.88.26-3.82.79-5.63,1.55-1.47.63-2.94,1.5-4.38,2.61-2.29,1.76-3.43,3.46-3.52,3.59l-.02.03c-.39.6-.3,1.39.2,1.89.28.29.66.44,1.07.44h0c.4,0,.78-.16,1.06-.45h.01c.11-.12,1.25-1.24,3.31-2.61,1.03-.76,2.37-1.42,3.77-2.09,1.49-.69,3.1-1.2,4.7-1.47,1.42-.33,3.04-.47,4.93-.45l.76.05c.55.04,1.09.08,1.62.11.47.02.92.11,1.35.2.25.05.5.1.75.14,1.05.15,1.94.39,2.65.58.19.05.36.1.53.14l3.46.81-3.03-1.9Z"/>
      </g>
      <path class="cls-1" d="M108.26,145.42c-.23-.04-.45-.08-.64-.12.22.05.43.09.64.12Z"/>
      <path class="cls-1" d="M107.38,145.24c-.15-.03-.29-.07-.39-.09.13.03.26.06.39.09Z"/>
      <path class="cls-16" d="M107.62,145.3c-.08-.02-.16-.03-.24-.05.08.02.15.03.24.05Z"/>
      <path class="cls-16" d="M106.99,145.16c-.07-.02-.14-.04-.22-.06h0s.08.03.22.06Z"/>
      <path class="cls-13" d="M102.12,148.4c-.18-2.42,6.73.51,9,.58,1.81.06,7.25-.36,7.75-.55,3.8-1.42-.21,4.04-7.87,4.33-3.51.14-8.78-2.89-8.89-4.35Z"/>
      <path class="cls-8" d="M124.62,143.74c-1.88-.09-3.8,1.47-6.06,1.23-.09-.05-.14-.05-.23-.05-.52-.09-1.03,0-1.6.14-.7.15-1.41.43-2.07.66-1.13.37-2.4.66-3.71.56h0s-.05,0-.07,0-.05,0-.07,0h0c-1.31.09-2.58-.2-3.71-.57-.66-.23-1.37-.51-2.07-.66-.56-.14-1.08-.23-1.6-.14-.1,0-.14,0-.23.05-2.26.24-4.18-1.32-6.06-1.23-.52.05-1.27-.09-1.69-.09.09.05.19.09.28.14,5.35,2.61,9.96,7.49,15.08,7.34h.15c5.11.16,9.73-4.73,15.08-7.34.1-.05.19-.09.28-.14-.42,0-1.17.14-1.69.09Z"/>
      <path class="cls-7" d="M126.2,143.59h0s-5.44-2.09-9.31-.87c0,0-1.44.56-2.93.9-.91.35-2.01.46-3.07.41h0c-.81-.03-1.59-.14-2.22-.25-.21-.03-.42-.08-.64-.12-.09-.02-.16-.03-.24-.05-.13-.03-.26-.06-.39-.09-.14-.03-.22-.06-.22-.06h0c-1.24-.34-2.3-.75-2.3-.75-3.87-1.23-9.31.87-9.31.87h0c-.07.03-.12.06-.12.06.42,0,1.17.14,1.69.09,1.88-.09,3.8,1.47,6.06,1.23.09-.05.14-.05.23-.05.52-.09,1.03,0,1.6.14.7.15,1.41.43,2.07.66,1.13.37,2.4.66,3.71.56h0s.05,0,.07,0,.05,0,.07,0h0c1.31.09,2.58-.2,3.71-.57.66-.23,1.37-.51,2.07-.66.56-.14,1.08-.23,1.6-.14.1,0,.14,0,.23.05,2.26.24,4.18-1.32,6.06-1.23.52.05,1.27-.09,1.69-.09,0,0-.05-.02-.12-.06Z"/>
      <path class="cls-7" d="M101.75,144.87c.1.02,10.19,3.1,18.09.07l-.91-.61h-10.67l-6.51.54Z"/>
      <path class="cls-1" d="M67.69,199.74l37.37,23.97h-40.51c0-2.6.11-5.07.28-7.42.26-3.64.69-6.97,1.27-10.01.45-2.35.98-4.53,1.6-6.54Z"/>
      <path class="cls-1" d="M158.13,223.71h-40.24l37.44-24.34c.72,2.35,1.26,4.67,1.67,6.91.69,3.72,1.01,7.17,1.15,10.01.22,4.48-.03,7.42-.03,7.42Z"/>
      <path class="cls-15" d="M153.95,47.78c-.42-.42-.85-.84-1.28-1.25.57-3.69-1.39-8.5-11.91-12.66,0,0,3.31,3.24,5.87,7.69-9.94-7.16-20.4-10.66-20.4-10.66l4.57,4.1c-2.74-2-7.62-4.79-15.77-7.24-11.6-3.49-19.1.39-19.1.39,0,0,6.04-.2,9.01,2.07-2.92-1.21-7.97-1.62-16.38,1.7-.52.2-1.03.41-1.52.63-3.04-.42-6.26-1.16-9.6-2.35,0,0,2.11,2.19,5.65,4.37-2.75,1.64-4.89,3.44-6.69,5.26-4.29.14-9.14-.26-14.35-1.68,0,0,4.28,3.78,10.66,5.88-.97,1.18-1.89,2.33-2.84,3.4-4.17,1.02-9.02,1.64-14.5,1.31,0,0,3.89,2.13,9.35,3.17-1.13.68-2.39,1.26-3.84,1.71-11.75,3.67-15.15-1.04-15.15-1.04,0,0,5.1,8.24,14.15,8.26,1.46,0,1.61-.03,1.61-.03,0,.02-2.19,5.74-3.39,11.39-2.7.96-5.67,1.76-8.97,2.27,0,0,3.57,1.04,8.4,1.13-.03.2-.05.41-.08.6-.66,6.72,1.41,11.32,2.05,23.89.55,10.74,3.53,5.24,7.08,13.16,1.2,2.65,1.25,5.64,1.25,5.64,1.32.31,4.77-6.45,2.29-18.2-.71-3.37.45-10.9,3.63-17.77h0s15.18-27.05,37.74-4.95c.17.16.33.32.5.48l.02.02h0s0,0,0,0h0s14.13,13.03,24.3,20.06c0,0-3.07-6.6-4.01-13.09l.47.06c6.46,5.64,11.85,13.62,13.21,24.87,0,0,8.95-9.02,10.51-19.9.17,2.59.14,5.38-.14,8.42-1.76,19.47,1.55,19.33,1.55,19.33.99,0-.08-5.19,3.23-8.76,3.3-3.58,8.32-15.62,8.32-27.63s-4.3-22.7-15.52-34.07Z"/>
      <path class="cls-14" d="M156.91,205.84c-.4-2.1-.91-4.27-1.58-6.47-1.83-5.96-5.31-11.84-10-16.69l-2.27,1.81c-.26-.09-.54-.15-.83-.15h-57.67c-.12,0-.25.03-.35.05l-4.07-3.79c-4.39,3.87-9.57,9.54-12.46,19.15-.57,1.86-1.08,3.87-1.49,6.04h.06c7.28,0,13.19,5.91,13.19,13.19,0,1.67-.31,3.27-.88,4.75h67.38c-.57-1.47-.88-3.07-.88-4.75,0-6.83,5.19-12.46,11.84-13.13ZM100.41,199.38h24.04c-7.1,5.57-17.03,5.48-24.04,0ZM130.94,194.19h-36.21l-4.99-4.65h47.03l-5.82,4.65Z"/>
      <path class="cls-15" d="M128.54,141.62c-4.56-6.49-9.63-6.08-13.14-4.7-4.42,1.73-8.36.33-9.08.04-3.24-1.44-8.05-1.99-12.42,4.69-4.45,6.81,3.93,22.55-7.64,24.18,0,.04,0,.09,0,.13,1.86,0,4.12-.1,5.62-.88-7.74,3.41-4.45,10.59-1.86,16.21-2.18-8.41,9.53-8.66,11.45-16.04.73,1.55,1.08,3.37.56,5.01,5.9-5.09.39-11.7,2.27-17.95.51-1.7,1.91-4.9,3.2-7.72.22-.47.72-.76,1.23-.68.98.14,2.35.24,3.82.03.5-.07.99.2,1.21.65,1.39,2.83,2.9,6.07,3.45,7.78,1.98,6.24-4.04,12.9,2.31,17.94-.55-1.64-.16-3.46.64-5.02,2.01,7.38,14.68,7.53,12.25,15.96,2.85-5.64,6.47-12.85-1.88-16.2,1.78.84,4.57.85,6.68.83,0-.02,0-.04,0-.06-13.41-1.09-3.84-17.3-8.68-24.19Z"/>
    </g>
  </g>
</svg>