<?xml version="1.0" encoding="UTF-8"?>
<svg id="Layer_2" data-name="Layer 2" xmlns="http://www.w3.org/2000/svg" xmlns:xlink="http://www.w3.org/1999/xlink" viewBox="0 0 223.47 228.33">
  <defs>
    <style>
      .cls-1 {
        fill: none;
      }

      .cls-2 {
        fill: #462e1b;
      }

      .cls-3 {
        fill: #ba9d82;
      }

      .cls-4 {
        fill: #ccad8a;
      }

      .cls-5 {
        fill: #d7bd9d;
      }

      .cls-6 {
        fill: #5b5051;
      }

      .cls-7 {
        fill: #c1a587;
      }

      .cls-8 {
        fill: #dac6a4;
      }

      .cls-9 {
        fill: #fff;
      }

      .cls-10 {
        fill: #967da6;
        fill-rule: evenodd;
      }

      .cls-11 {
        fill: #dcc5a0;
      }

      .cls-12 {
        fill: #272213;
      }

      .cls-13 {
        fill: #ecdab6;
      }

      .cls-14 {
        fill: #7b95a5;
      }

      .cls-15 {
        fill: #b8987d;
      }

      .cls-16 {
        fill: #866fa7;
      }

      .cls-17 {
        fill: #ebd9b5;
      }

      .cls-18 {
        fill: #a98d76;
      }

      .cls-19 {
        fill: #fdfefe;
      }

      .cls-20 {
        fill: #714223;
      }

      .cls-21 {
        fill: #b7967d;
      }

      .cls-22 {
        clip-path: url(#clippath);
      }

      .cls-23 {
        fill: #d2bb9b;
      }

      .cls-24 {
        fill: #b5957e;
      }
    </style>
    <clipPath id="clippath">
      <rect class="cls-1" x="104.94" y="155.46" width="25.12" height="14.86"/>
    </clipPath>
  </defs>
  <g id="Layer_1-2" data-name="Layer 1">
    <g>
      <rect class="cls-6" width="223.47" height="223.72"/>
      <path class="cls-11" d="M117.41,140.2v84.07h-45.33c-.74-.3-1.11-.44-1.11-.44,0-10.73,1.57-19.1,3.96-25.62,5.77-15.75,16.33-20.75,21.2-22.26,1.6-.5,2.58-.61,2.58-.61.17,0,.33-.02.5-.04,1.43-.23,2.59-1.47,3.52-3.46.69-1.47,1.27-3.35,1.74-5.53.19-.85.33-1.7.48-2.63.22-1.55.44-3.18.63-4.89.07-1.04.18-2.03.29-3.11.4-5.14.52-10.77.52-16.1,0,0,6.09.63,11.03.63Z"/>
      <path class="cls-17" d="M164.03,223.82s-.41.15-1.07.44h-45.55v-84.07h.11c4.91,0,11.07-.63,11.07-.63,0,5.29.11,10.85.51,15.99.11,1,.22,2.03.29,3.04.19,1.78.41,3.44.67,5v.03c.07.71.22,1.34.33,2,.45,2.19.99,4.11,1.65,5.65.82,1.92,1.81,3.26,3.01,3.79.38.17.79.26,1.21.26,0,0,1.74.21,4.36,1.24,5.34,2.1,14.3,7.6,19.45,21.63,2.39,6.52,3.96,14.89,3.96,25.62Z"/>
      <g class="cls-22">
        <path class="cls-3" d="M130.06,163.44v.04c-1.14,1.77-4.98,6.84-12.58,6.84h-.07c-7.19-.04-11.4-5.26-12.47-6.8.22-1.54.44-3.16.63-4.85.07-.99.18-2.02.3-3.09,3.5.88,7.34,1.43,11.4,1.51h.15c4.2-.07,8.08-.66,11.69-1.62.11.99.22,2.02.3,3.02.18,1.77.41,3.42.66,4.96"/>
      </g>
      <path class="cls-4" d="M116.89,44.4c-48.02,0-48.28,40.27-46.14,66.64-3.28-6.25-13.06-4.34-12.25,5.52.77,9.49,14.74,14.32,14.35,13.28,7.27,19.5,26.52,34.2,44.04,34.2h.37V44.4h-.37"/>
      <path class="cls-18" d="M61.56,112.39c2.36-3.82,6.05-2.17,6.93-1.32.96.92,1.73,2.1,1.14,4.34-.33,1.29-1.66,1.4-1.36,3.31.37,2.17,1.36,2.28,1.95,2.79.55.48,1.25.85,1.59,1.77.37.92.41,1.88.22,2.72-.37,1.54-2.62.29-4.13-.37-1-.48-4.17-3.16-4.98-4.05-1.99-2.28-2.95-6.69-1.36-9.19"/>
      <path class="cls-5" d="M117.15,44.4c48.02,0,48.28,40.27,46.18,66.64,3.28-6.25,13.02-4.34,12.21,5.52-.74,9.49-14.73,14.33-14.35,13.28-7.08,19.5-26.52,34.2-44.04,34.2h-.26l-.11-119.63h.37"/>
      <path class="cls-18" d="M172.48,112.39c-2.36-3.82-6.01-2.17-6.93-1.32-.96.92-1.7,2.1-1.14,4.34.33,1.29,1.66,1.4,1.36,3.31-.37,2.17-1.36,2.28-1.92,2.79-.55.48-1.29.85-1.62,1.77-.33.92-.41,1.88-.22,2.72.37,1.54,2.62.29,4.13-.37,1.03-.48,4.17-3.16,4.98-4.05,2.03-2.28,2.95-6.69,1.36-9.19"/>
      <path class="cls-11" d="M116.51,55.76c-15.79,0-27.37,4.6-34.34,13.64-9.77,12.69-9.41,32.03-5.83,45.93,1.11,4.27,1.7,15.7,2.43,19.9,3.43,18.79,24.12,28.8,37.73,28.8h.37V55.76h-.22"/>
      <path class="cls-17" d="M150.82,69.44c-6.93-9.01-18.37-13.61-33.93-13.68v108.27c15.57-.18,34.19-11.14,37.37-28.8.77-4.19,1.33-15.63,2.43-19.9,3.61-13.86,3.98-33.17-5.86-45.9"/>
      <path class="cls-1" d="M114.96,140.89c-.22-.04-.42-.08-.59-.11.2.04.4.08.59.11Z"/>
      <path class="cls-1" d="M114.14,144.79c-.14-.03-.27-.06-.36-.08.12.03.24.05.36.08Z"/>
      <path class="cls-21" d="M114.36,144.84c-.08-.02-.15-.03-.23-.05.07.02.14.03.23.05Z"/>
      <path class="cls-21" d="M113.78,144.7c-.07-.02-.13-.04-.2-.06h0s.08.02.21.06Z"/>
      <path class="cls-5" d="M107.72,130.79c-.18-3.74,6.85-1.37,9.17-1.25,1.83.09,7.41-1.18,7.89-.85,3.28,2.22-3.47,6.69-8,6.69-1.21,0-8.94-2.33-9.05-4.58Z"/>
      <path class="cls-1" d="M73.83,89.51c-.43,1.44-.73,3-.93,4.67,0,0,.63-2.64,2.03-6.54-.6.83-1,1.5-1.1,1.87Z"/>
      <path class="cls-1" d="M115.1,142.76c-.22-.04-.43-.08-.61-.12.21.04.41.09.61.12Z"/>
      <path class="cls-1" d="M114.26,142.59c-.14-.03-.28-.06-.37-.09.12.03.24.06.37.09Z"/>
      <path class="cls-24" d="M114.5,142.64c-.08-.02-.15-.03-.23-.05.08.02.14.03.23.05Z"/>
      <path class="cls-24" d="M113.89,142.5c-.07-.02-.14-.04-.21-.06h0s.08.02.21.06Z"/>
      <path class="cls-9" d="M82.43,98.02s3.66,15.08,9.95,16.31c6.29,1.23,13.1-1.22,13.1-1.22,0,0,.65-17.72-2.57-20.03-3.22-2.33-10.64-5.69-20.48,4.94Z"/>
      <path class="cls-23" d="M105.49,113.06s-.14.04-.47.18c-.08-5.43-.58-12.9-2.59-14.33-2.99-2.2-9.74-5.29-18.76,3.17-.82-2.34-1.23-4.11-1.23-4.11,9.86-10.65,17.29-7.29,20.48-4.97,3.22,2.32,2.57,20.06,2.57,20.06Z"/>
      <path class="cls-2" d="M101.77,105.39c0,3.43-2.77,6.21-6.19,6.21s-6.19-2.78-6.19-6.21,2.77-6.21,6.19-6.21,6.19,2.78,6.19,6.21Z"/>
      <path class="cls-20" d="M95.29,109.52c-1.79-.15-3.16-1.96-3-3.95.16-1.99,1.81-3.55,3.6-3.4,1.79.15,3.16,1.96,3,3.94-.16,1.99-1.81,3.55-3.6,3.4Z"/>
      <path class="cls-12" d="M95.44,108.8c-1.24-.11-2.54-1.48-2.4-3.16.14-1.69,1.63-2.83,2.88-2.73,1.25.11,2.53,1.48,2.4,3.17-.14,1.69-1.63,2.83-2.88,2.73Z"/>
      <path class="cls-9" d="M94.44,104.64c-.05.61-.68,1.06-1.39,1-.72-.06-1.26-.61-1.21-1.21.05-.61.67-1.06,1.39-1,.72.06,1.26.6,1.21,1.22Z"/>
      <path class="cls-9" d="M98.45,108.17c-.03.3-.34.53-.69.5-.36-.03-.63-.3-.61-.61.03-.3.34-.53.69-.5.36.03.63.3.61.61Z"/>
      <path class="cls-1" d="M115.2,144.53c-.22-.04-.43-.08-.61-.12.21.04.41.09.61.12Z"/>
      <path class="cls-1" d="M114.36,144.37c-.14-.03-.28-.06-.37-.09.12.03.24.06.37.09Z"/>
      <path class="cls-24" d="M114.59,144.42c-.08-.02-.15-.03-.23-.05.08.02.14.03.23.05Z"/>
      <path class="cls-24" d="M113.99,144.28c-.07-.02-.14-.04-.21-.06h0s.08.03.21.06Z"/>
      <path class="cls-1" d="M114.97,144.12c-.24-.04-.46-.08-.65-.13.22.05.44.09.65.13Z"/>
      <path class="cls-1" d="M114.06,143.94c-.15-.03-.3-.07-.4-.09.13.03.26.06.4.09Z"/>
      <path class="cls-21" d="M114.31,143.99c-.08-.02-.17-.03-.25-.05.08.02.15.03.25.05Z"/>
      <path class="cls-21" d="M113.67,143.85c-.08-.02-.15-.04-.22-.06h0s.09.03.23.06Z"/>
      <path class="cls-1" d="M114.78,143.49c-.24-.04-.46-.08-.65-.12.22.05.44.09.65.12Z"/>
      <path class="cls-1" d="M113.88,143.31c-.15-.03-.3-.07-.4-.09.13.03.26.06.4.09Z"/>
      <path class="cls-21" d="M114.13,143.36c-.08-.02-.17-.03-.25-.05.08.02.15.03.25.05Z"/>
      <path class="cls-21" d="M113.48,143.22c-.08-.02-.15-.04-.22-.06h0s.09.03.23.06Z"/>
      <path class="cls-1" d="M115.33,143.4c-.23-.04-.44-.08-.63-.12.21.05.42.09.63.12Z"/>
      <path class="cls-1" d="M114.46,143.22c-.14-.03-.29-.06-.38-.09.13.03.25.06.38.09Z"/>
      <path class="cls-21" d="M114.7,143.27c-.08-.02-.16-.03-.24-.05.08.02.15.03.24.05Z"/>
      <path class="cls-21" d="M114.08,143.14c-.07-.02-.14-.04-.21-.06h0s.08.03.22.06Z"/>
      <path class="cls-9" d="M151.71,97.5s-3.66,15.08-9.95,16.31c-6.29,1.23-13.1-1.22-13.1-1.22,0,0-.65-17.72,2.57-20.03,3.22-2.33,10.64-5.69,20.48,4.94Z"/>
      <path class="cls-23" d="M128.65,112.55s.14.04.47.18c.08-5.43.58-12.9,2.59-14.33,2.99-2.2,9.74-5.29,18.76,3.17.82-2.34,1.23-4.11,1.23-4.11-9.86-10.65-17.29-7.29-20.48-4.97-3.22,2.32-2.57,20.06-2.57,20.06Z"/>
      <path class="cls-2" d="M132.38,104.87c0,3.43,2.77,6.21,6.19,6.21s6.19-2.78,6.19-6.21-2.77-6.21-6.19-6.21-6.19,2.78-6.19,6.21Z"/>
      <path class="cls-20" d="M138.85,109.01c1.79-.15,3.16-1.96,3-3.95-.16-1.99-1.81-3.55-3.6-3.4-1.79.15-3.16,1.96-3,3.94.16,1.99,1.81,3.55,3.6,3.4Z"/>
      <path class="cls-12" d="M138.7,108.29c1.24-.11,2.54-1.48,2.4-3.16-.14-1.69-1.63-2.83-2.88-2.73-1.24.11-2.53,1.48-2.4,3.17.14,1.69,1.63,2.83,2.88,2.73Z"/>
      <path class="cls-9" d="M139.71,104.13c.05.61.68,1.06,1.39,1,.72-.06,1.26-.61,1.21-1.21-.05-.61-.67-1.06-1.39-1-.72.06-1.26.6-1.21,1.22Z"/>
      <path class="cls-9" d="M135.69,107.66c.03.3.34.53.69.5.36-.03.63-.3.61-.61-.03-.3-.34-.53-.69-.5-.36.03-.63.3-.61.61Z"/>
      <g>
        <path d="M109.26,97.78c-.05-.07-1.19-1.81-3.52-3.61-1.46-1.13-2.89-1.98-4.38-2.62-1.81-.76-3.75-1.3-5.64-1.56-1.7-.19-3.59-.14-5.8.16-1.68.32-3.32.82-4.72,1.44-.99.34-1.78.83-2.41,1.21-.24.15-.46.28-.68.4l-3,1.9,3.46-.82c.16-.04.34-.09.52-.14.72-.19,1.61-.43,2.65-.58.24-.04.49-.09.75-.14.44-.09.89-.18,1.36-.2.52-.04,1.07-.07,1.63-.11l.73-.05c1.92-.02,3.54.12,4.98.45,1.57.27,3.19.78,4.67,1.47,1.4.67,2.74,1.34,3.79,2.11,2.12,1.42,3.29,2.6,3.3,2.61h0c.29.29.68.45,1.07.45.28,0,.57-.08.82-.25.7-.46.89-1.4.45-2.08l-.03-.05Z"/>
        <path d="M152.33,93.19c-.2-.11-.42-.24-.66-.39-.63-.39-1.41-.87-2.38-1.2-1.42-.63-3.06-1.13-4.77-1.45-2.19-.29-4.08-.35-5.79-.15-1.88.26-3.82.8-5.63,1.56-1.47.63-2.94,1.51-4.38,2.62-2.29,1.76-3.43,3.47-3.52,3.6l-.02.03c-.39.6-.3,1.4.2,1.9.28.29.66.45,1.07.45h0c.4,0,.78-.16,1.06-.45h.01c.11-.12,1.25-1.24,3.31-2.62,1.03-.76,2.37-1.43,3.77-2.1,1.49-.69,3.11-1.2,4.7-1.48,1.42-.33,3.04-.47,4.93-.45l.76.05c.55.04,1.09.08,1.62.11.46.02.92.11,1.35.2.25.05.5.1.75.14,1.05.15,1.94.39,2.65.58.19.05.36.1.53.14l3.46.82-3.03-1.91Z"/>
      </g>
      <path class="cls-1" d="M114.14,146.32c-.23-.04-.45-.08-.64-.12.22.05.43.09.64.12Z"/>
      <path class="cls-1" d="M113.26,146.15c-.15-.03-.29-.07-.39-.09.13.03.26.06.39.09Z"/>
      <path class="cls-15" d="M113.51,146.2c-.08-.02-.16-.03-.24-.05.08.02.15.03.24.05Z"/>
      <path class="cls-15" d="M112.88,146.06c-.07-.02-.14-.04-.22-.06h0s.08.03.22.06Z"/>
      <path class="cls-13" d="M108.01,149.31c-.18-2.42,6.73.51,9,.58,1.81.06,7.25-.36,7.75-.55,3.8-1.43-.21,4.05-7.87,4.34-3.51.14-8.78-2.9-8.89-4.37Z"/>
      <path class="cls-8" d="M130.51,144.64c-1.88-.09-3.8,1.48-6.06,1.24-.09-.05-.14-.05-.23-.05-.52-.09-1.03,0-1.6.14-.7.15-1.41.43-2.07.66-1.13.37-2.4.66-3.71.56h0s-.05,0-.07,0-.05,0-.07,0h0c-1.31.09-2.58-.2-3.71-.57-.66-.23-1.37-.52-2.07-.66-.56-.14-1.08-.23-1.6-.14-.1,0-.14,0-.23.05-2.26.24-4.18-1.33-6.06-1.24-.52.05-1.27-.09-1.69-.09.09.05.19.09.29.14,5.35,2.62,9.96,7.52,15.08,7.36h.15c5.11.16,9.73-4.74,15.08-7.36.1-.05.19-.09.28-.14-.42,0-1.17.14-1.69.09Z"/>
      <path class="cls-7" d="M132.08,144.49h0s-5.44-2.1-9.31-.87c0,0-1.44.56-2.93.91-.91.35-2.01.46-3.07.41h0c-.81-.03-1.59-.14-2.22-.25-.21-.03-.42-.08-.64-.12-.09-.02-.16-.03-.24-.05-.13-.03-.26-.06-.39-.09-.14-.03-.22-.06-.22-.06h0c-1.24-.34-2.3-.75-2.3-.75-3.87-1.23-9.31.87-9.31.87h0c-.07.03-.12.06-.12.06.42,0,1.17.14,1.69.09,1.88-.09,3.8,1.48,6.06,1.24.09-.05.14-.05.23-.05.52-.09,1.03,0,1.6.14.7.15,1.41.43,2.07.66,1.13.37,2.4.66,3.71.56h0s.05,0,.07,0,.05,0,.07,0h0c1.31.09,2.58-.2,3.71-.57.66-.23,1.37-.52,2.07-.66.56-.14,1.08-.23,1.6-.14.1,0,.14,0,.23.05,2.26.24,4.18-1.33,6.06-1.24.52.05,1.27-.09,1.69-.09,0,0-.05-.02-.12-.06Z"/>
      <path class="cls-7" d="M107.64,145.77c.1.02,10.19,3.11,18.09.07l-.91-.61h-10.67l-6.51.55Z"/>
      <path class="cls-9" d="M155.3,46.58c-10.5-11.87-25.93-17.63-25.93-17.63l4.27,4.28c-2.56-2.09-7.12-5.01-14.74-7.57-10.84-3.64-17.87.42-17.87.42,0,0,5.66-.21,8.43,2.16-2.74-1.26-7.45-1.69-15.32,1.77-15.43,6.78-15.15,18.94-25.89,22.66-10.98,3.82-14.17-1.08-14.17-1.08,0,0,4.76,8.6,13.23,8.62,1.37,0,1.51-.03,1.51-.04,0,.04-3.17,9.23-3.78,16.09-.62,7.01,1.32,11.81,1.92,24.94.51,11.23,3.3,5.47,6.62,13.74,1.12,2.77,1.17,5.89,1.17,5.89,1.23.32,4.46-6.73,2.14-19-1.51-7.96,5.94-38.15,23.94-32.26,1.73.56,3.24,1.23,4.62,1.91-17.18,18.26-6.53,44.22-6.53,44.22-.35-18.46,11.92-31.77,19.02-37.91-4.24,10.81-.42,22.13-.42,22.13.86-18.61,19.1-28.8,19.1-28.8l-1.4-3.15c4.2-.88,8.42-.55,12.04,1.62,7.41,4.44,11.59,14.43,10.29,30.36-1.65,20.34,1.44,20.19,1.44,20.19.92,0-.07-5.41,3.02-9.15,3.08-3.73,7.79-16.3,7.79-28.85s-4.02-23.7-14.52-35.57Z"/>
      <line class="cls-1" x1="115.75" y1="185.43" x2="91.4" y2="198.18"/>
      <line class="cls-1" x1="79.33" y1="224.27" x2="71.86" y2="228.33"/>
      <line class="cls-1" x1="137.56" y1="191.75" x2="137.55" y2="191.76"/>
      <path class="cls-1" d="M137.34,175.28c-.56.33-1.11.7-1.64,1.08.53-.39,1.08-.75,1.64-1.08Z"/>
      <path class="cls-1" d="M98.6,176.34c-.06-.04-.11-.07-.17-.11.05.04.11.07.17.11Z"/>
      <path class="cls-14" d="M100.2,177.47c-.58-.45-1.12-.82-1.6-1.12.48.31,1.02.68,1.6,1.12Z"/>
      <path class="cls-14" d="M97.78,175.85c.2.11.42.25.65.39-.23-.14-.45-.27-.65-.39Z"/>
      <path class="cls-14" d="M135.69,176.37c-.19.13-.36.29-.55.43.18-.14.36-.29.55-.43Z"/>
      <path class="cls-16" d="M121.29,184.46v-6.19l-.31.14v5.91c.11.04.2.09.31.13Z"/>
      <g>
        <g>
          <g>
            <path class="cls-16" d="M154.75,184.19c-6.27-5.84-12.89-7.74-15.61-8.31.04.14-1.59-.48-1.92-1.03-.81-1.2-1.77-2.38-2.89-3.6-.48-.53-1.06-.99-1.68-1.36-.64-.38-1.38-.82-1.43-.88l.18,1.19c.27,1.82-.7,3.6-2.37,4.37l-8.04,3.69v6.19c4.08,1.48,6.99,5.14,6.99,9.45s-2.91,7.99-6.99,9.47c-1.23.44-2.56.7-3.96.7-6.04,0-10.96-4.56-10.96-10.17,0-4.62,3.33-8.52,7.87-9.75v-5.46l-8.25-3.44c-2.04-.85-3.06-3.16-2.3-5.24l.36-1s-.21.1-.49.22c-1.7.74-3.25,1.79-4.56,3.1-1.82,1.82-3.68,3.64-3.66,3.54-2.11.44-6.58,1.69-11.41,4.97-8.45,5.73-18,17.67-18,42.4,0,0,.43.17,1.22.47h100.48c.78-.3,1.21-.47,1.21-.47,0-20.68-6.68-32.42-13.81-39.06Z"/>
            <path class="cls-16" d="M107.7,193.91c0,4.78,4.19,8.67,9.34,8.67,1.42,0,2.76-.3,3.96-.83,3.17-1.39,5.37-4.37,5.37-7.84s-2.2-6.45-5.37-7.84c-1.2-.53-2.55-.83-3.96-.83-5.15,0-9.34,3.89-9.34,8.67Z"/>
          </g>
          <g>
            <polygon class="cls-10" points="97.66 208.35 94.42 205.35 90.77 208.74 87.12 205.35 83.88 208.35 87.54 211.74 83.88 215.13 87.12 218.14 90.77 214.74 94.42 218.14 97.66 215.13 94 211.74 97.66 208.35"/>
            <polygon class="cls-10" points="115.86 208.35 112.62 205.35 108.97 208.74 105.32 205.35 102.08 208.35 105.74 211.74 102.08 215.13 105.32 218.14 108.97 214.74 112.62 218.14 115.86 215.13 112.2 211.74 115.86 208.35"/>
            <polygon class="cls-10" points="134.06 208.35 130.83 205.35 127.17 208.74 123.52 205.35 120.28 208.35 123.94 211.74 120.28 215.13 123.52 218.14 127.17 214.74 130.83 218.14 134.06 215.13 130.4 211.74 134.06 208.35"/>
            <polygon class="cls-10" points="152.26 208.35 149.03 205.35 145.37 208.74 141.72 205.35 138.49 208.35 142.14 211.74 138.49 215.13 141.72 218.14 145.37 214.74 149.03 218.14 152.26 215.13 148.61 211.74 152.26 208.35"/>
          </g>
          <path class="cls-19" d="M106.08,193.91c0,5.61,4.92,10.17,10.96,10.17,1.4,0,2.73-.25,3.96-.7v-1.64c-1.2.53-2.55.83-3.96.83-5.15,0-9.34-3.89-9.34-8.67s4.19-8.67,9.34-8.67c1.42,0,2.76.3,3.96.83v-1.61c-.11-.04.11.04,0,0v-6.19l-2.1.96-1.8.83-2.13-.93-1.01-.44v5.46c-4.54,1.24-7.87,5.14-7.87,9.75Z"/>
        </g>
        <path class="cls-19" d="M126.38,193.91c0,3.46-2.2,6.45-5.37,7.84v1.64c4.09-1.48,6.99-5.16,6.99-9.47s-2.91-7.97-6.99-9.45v1.61c3.17,1.39,5.37,4.37,5.37,7.84Z"/>
      </g>
    </g>
  </g>
</svg>