<?xml version="1.0" encoding="UTF-8"?>
<svg id="Layer_2" data-name="Layer 2" xmlns="http://www.w3.org/2000/svg" xmlns:xlink="http://www.w3.org/1999/xlink" viewBox="0 0 221.48 223.6">
  <defs>
    <style>
      .cls-1 {
        fill: none;
      }

      .cls-2 {
        fill: #462e1b;
      }

      .cls-3 {
        fill: #ba9d82;
      }

      .cls-4 {
        fill: #e3ad38;
      }

      .cls-5 {
        fill: #ccad8a;
      }

      .cls-6 {
        fill: #9dbce2;
      }

      .cls-7 {
        fill: #44361f;
      }

      .cls-8 {
        fill: #d7bd9d;
      }

      .cls-9 {
        fill: #c1a587;
      }

      .cls-10 {
        fill: #dac6a4;
      }

      .cls-11 {
        fill: #fff;
      }

      .cls-12 {
        fill: #dcc5a0;
      }

      .cls-13 {
        fill: #272213;
      }

      .cls-14 {
        fill: #52839e;
      }

      .cls-15 {
        fill: #ecdab6;
      }

      .cls-16 {
        fill: #b12717;
      }

      .cls-17 {
        fill: #b8987d;
      }

      .cls-18 {
        opacity: .42;
      }

      .cls-19 {
        fill: #403317;
      }

      .cls-20 {
        fill: #ebd9b5;
      }

      .cls-21 {
        fill: #a98d76;
      }

      .cls-22 {
        fill: #714223;
      }

      .cls-23 {
        fill: #b7967d;
      }

      .cls-24 {
        clip-path: url(#clippath);
      }

      .cls-25 {
        fill: #d2bb9b;
      }

      .cls-26 {
        fill: #b5957e;
      }
    </style>
    <clipPath id="clippath">
      <rect class="cls-1" x="99" y="154.44" width="25.1" height="14.8"/>
    </clipPath>
  </defs>
  <g id="Layer_1-2" data-name="Layer 1">
    <g>
      <rect class="cls-14" width="221.48" height="223.6"/>
      <path class="cls-12" d="M111.46,139.24v83.76h-45.31c-.74-.29-1.11-.44-1.11-.44,0-10.69,1.57-19.03,3.96-25.53,5.77-15.69,16.32-20.67,21.18-22.17,1.59-.49,2.58-.61,2.58-.61.17,0,.33-.02.5-.04,1.43-.23,2.59-1.47,3.51-3.45.69-1.47,1.27-3.34,1.74-5.51.19-.85.33-1.7.48-2.62.22-1.55.44-3.17.63-4.87.07-1.03.18-2.03.29-3.1.4-5.12.52-10.73.52-16.05,0,0,6.08.63,11.02.63Z"/>
      <path class="cls-20" d="M158.06,222.55s-.41.15-1.07.44h-45.53v-83.76h.11c4.9,0,11.06-.63,11.06-.63,0,5.27.11,10.81.51,15.93.11,1,.22,2.03.29,3.02.19,1.77.41,3.43.67,4.98v.03c.07.7.22,1.33.33,1.99.45,2.18.99,4.1,1.64,5.63.81,1.91,1.8,3.25,3.01,3.77.38.17.79.26,1.21.26,0,0,1.74.21,4.36,1.24,5.33,2.09,14.29,7.57,19.44,21.55,2.39,6.5,3.96,14.84,3.96,25.53Z"/>
      <g class="cls-24">
        <path class="cls-3" d="M124.1,162.39v.04c-1.14,1.76-4.98,6.82-12.57,6.82h-.07c-7.19-.04-11.39-5.24-12.46-6.78.22-1.54.44-3.15.63-4.84.07-.99.18-2.02.29-3.08,3.5.88,7.34,1.43,11.39,1.5h.15c4.2-.07,8.07-.66,11.69-1.61.11.99.22,2.02.29,3,.18,1.76.41,3.41.66,4.95"/>
      </g>
      <path class="cls-5" d="M110.94,43.78c-48,0-48.26,40.12-46.12,66.39-3.28-6.23-13.05-4.32-12.24,5.5.77,9.45,14.73,14.27,14.34,13.23,7.27,19.43,26.51,34.08,44.02,34.08h.37V43.78h-.37"/>
      <path class="cls-21" d="M55.65,111.53c2.36-3.81,6.05-2.16,6.93-1.32.96.92,1.73,2.09,1.14,4.32-.33,1.28-1.66,1.39-1.36,3.3.37,2.16,1.36,2.27,1.95,2.78.55.48,1.25.84,1.59,1.76.37.92.41,1.87.22,2.71-.37,1.54-2.62.29-4.13-.37-1-.48-4.17-3.15-4.98-4.03-1.99-2.27-2.95-6.67-1.36-9.16"/>
      <path class="cls-8" d="M111.2,43.78c48,0,48.26,40.12,46.15,66.39,3.28-6.23,13.01-4.32,12.2,5.5-.74,9.45-14.72,14.27-14.34,13.23-7.08,19.43-26.51,34.08-44.02,34.08h-.26l-.11-119.19h.37"/>
      <path class="cls-21" d="M166.5,111.53c-2.36-3.81-6.01-2.16-6.93-1.32-.96.92-1.7,2.09-1.14,4.32.33,1.28,1.66,1.39,1.36,3.3-.37,2.16-1.36,2.27-1.92,2.78-.55.48-1.29.84-1.62,1.76-.33.92-.41,1.87-.22,2.71.37,1.54,2.62.29,4.13-.37,1.03-.48,4.17-3.15,4.98-4.03,2.03-2.27,2.95-6.67,1.36-9.16"/>
      <path class="cls-12" d="M110.57,55.1c-15.78,0-27.35,4.58-34.32,13.59-9.77,12.64-9.4,31.91-5.82,45.76,1.11,4.25,1.7,15.65,2.43,19.82,3.43,18.72,24.11,28.69,37.71,28.69h.37V55.1h-.22"/>
      <path class="cls-20" d="M144.85,68.74c-6.93-8.98-18.36-13.56-33.92-13.63v107.87c15.56-.18,34.17-11.1,37.34-28.69.77-4.18,1.33-15.57,2.43-19.82,3.61-13.81,3.98-33.05-5.86-45.73"/>
      <path class="cls-1" d="M109.01,139.93c-.22-.04-.42-.08-.59-.11.2.04.4.08.59.11Z"/>
      <path class="cls-1" d="M108.19,143.81c-.14-.03-.27-.06-.36-.08.12.03.24.05.36.08Z"/>
      <path class="cls-23" d="M108.42,143.85c-.08-.02-.15-.03-.23-.05.07.02.14.03.23.05Z"/>
      <path class="cls-23" d="M107.83,143.72c-.07-.02-.13-.04-.2-.06h0s.08.02.21.06Z"/>
      <path class="cls-8" d="M101.78,129.86c-.18-3.73,6.85-1.36,9.16-1.25,1.83.09,7.4-1.18,7.88-.85,3.28,2.21-3.47,6.66-8,6.66-1.21,0-8.94-2.32-9.05-4.57Z"/>
      <path class="cls-1" d="M67.9,88.73c-.43,1.43-.73,2.99-.93,4.66,0,0,.63-2.63,2.03-6.52-.6.83-1,1.5-1.1,1.86Z"/>
      <path class="cls-7" d="M97.53,55.37l-.2.2.03.07c.07-.1.1-.2.17-.27Z"/>
      <path class="cls-1" d="M109.16,141.78c-.22-.04-.43-.08-.61-.12.21.04.41.08.61.12Z"/>
      <path class="cls-1" d="M108.32,141.62c-.14-.03-.28-.06-.37-.08.12.03.24.06.37.08Z"/>
      <path class="cls-26" d="M108.55,141.67c-.08-.02-.15-.03-.23-.05.08.02.14.03.23.05Z"/>
      <path class="cls-26" d="M107.95,141.53c-.07-.02-.14-.04-.21-.06h0s.08.02.21.06Z"/>
      <path class="cls-11" d="M76.5,97.21s3.66,15.02,9.95,16.25c6.29,1.23,13.09-1.21,13.09-1.21,0,0,.65-17.65-2.57-19.96-3.22-2.32-10.63-5.66-20.47,4.92Z"/>
      <path class="cls-25" d="M99.55,112.2s-.14.04-.47.18c-.08-5.42-.58-12.85-2.59-14.28-2.99-2.19-9.74-5.27-18.75,3.16-.82-2.33-1.23-4.09-1.23-4.09,9.86-10.61,17.28-7.27,20.47-4.95,3.22,2.32,2.57,19.99,2.57,19.99Z"/>
      <circle class="cls-2" cx="89.64" cy="104.55" r="6.19"/>
      <path class="cls-22" d="M89.35,108.67c-1.79-.15-3.16-1.95-3-3.93.16-1.98,1.81-3.53,3.6-3.38,1.79.15,3.16,1.95,3,3.93-.16,1.98-1.81,3.54-3.6,3.39Z"/>
      <path class="cls-13" d="M89.51,107.95c-1.24-.11-2.53-1.47-2.4-3.15.14-1.69,1.63-2.82,2.88-2.72,1.24.11,2.53,1.48,2.39,3.16-.14,1.68-1.63,2.82-2.87,2.72Z"/>
      <path class="cls-11" d="M88.5,103.81c-.05.61-.68,1.05-1.39.99-.72-.06-1.26-.6-1.21-1.21.05-.61.67-1.05,1.39-1,.72.06,1.26.6,1.21,1.21Z"/>
      <path class="cls-11" d="M92.51,107.32c-.03.3-.34.53-.69.5-.36-.03-.63-.3-.61-.6.03-.3.34-.53.69-.5.36.03.63.3.61.6Z"/>
      <path class="cls-1" d="M109.25,143.55c-.22-.04-.43-.08-.61-.12.21.04.41.08.61.12Z"/>
      <path class="cls-1" d="M108.41,143.39c-.14-.03-.28-.06-.37-.08.12.03.24.06.37.08Z"/>
      <path class="cls-26" d="M108.65,143.44c-.08-.02-.15-.03-.23-.05.08.02.14.03.23.05Z"/>
      <path class="cls-26" d="M108.04,143.3c-.07-.02-.14-.04-.21-.06h0s.08.02.21.06Z"/>
      <path class="cls-1" d="M109.02,143.14c-.24-.04-.46-.08-.65-.12.22.05.44.09.65.12Z"/>
      <path class="cls-1" d="M108.12,142.96c-.15-.03-.3-.07-.4-.09.13.03.26.06.4.09Z"/>
      <path class="cls-23" d="M108.36,143.01c-.08-.02-.17-.03-.25-.05.08.02.15.03.25.05Z"/>
      <path class="cls-23" d="M107.72,142.87c-.08-.02-.15-.04-.22-.06h0s.09.03.23.06Z"/>
      <path class="cls-1" d="M108.83,142.51c-.24-.04-.46-.08-.65-.12.22.05.44.09.65.12Z"/>
      <path class="cls-1" d="M107.93,142.33c-.15-.03-.3-.07-.4-.09.13.03.26.06.4.09Z"/>
      <path class="cls-23" d="M108.18,142.38c-.08-.02-.17-.03-.25-.05.08.02.15.03.25.05Z"/>
      <path class="cls-23" d="M107.54,142.24c-.08-.02-.15-.04-.22-.06h0s.09.03.23.06Z"/>
      <path class="cls-1" d="M109.39,142.42c-.23-.04-.44-.08-.63-.12.21.05.42.09.63.12Z"/>
      <path class="cls-1" d="M108.51,142.25c-.14-.03-.29-.06-.38-.09.13.03.25.06.38.09Z"/>
      <path class="cls-23" d="M108.75,142.3c-.08-.02-.16-.03-.24-.05.08.02.15.03.24.05Z"/>
      <path class="cls-23" d="M108.13,142.16c-.07-.02-.14-.04-.21-.06h0s.08.03.22.06Z"/>
      <path class="cls-11" d="M145.74,96.7s-3.66,15.02-9.95,16.25c-6.29,1.23-13.09-1.21-13.09-1.21,0,0-.65-17.65,2.57-19.96,3.22-2.32,10.63-5.66,20.47,4.92Z"/>
      <path class="cls-25" d="M122.7,111.69s.14.04.47.18c.08-5.41.58-12.85,2.59-14.28,2.99-2.19,9.74-5.27,18.75,3.16.82-2.33,1.23-4.09,1.23-4.09-9.86-10.61-17.28-7.27-20.47-4.95-3.22,2.32-2.57,19.99-2.57,19.99Z"/>
      <path class="cls-2" d="M126.42,104.04c0,3.42,2.77,6.19,6.19,6.19s6.19-2.77,6.19-6.19-2.77-6.19-6.19-6.19-6.19,2.77-6.19,6.19Z"/>
      <path class="cls-22" d="M132.89,108.16c1.79-.15,3.16-1.95,3-3.93-.16-1.98-1.81-3.53-3.6-3.38-1.79.15-3.16,1.95-3,3.93.16,1.98,1.81,3.54,3.6,3.39Z"/>
      <path class="cls-13" d="M132.74,107.44c1.24-.11,2.53-1.47,2.4-3.15-.14-1.69-1.63-2.82-2.88-2.72-1.24.11-2.53,1.48-2.39,3.16.14,1.68,1.63,2.82,2.87,2.72Z"/>
      <path class="cls-11" d="M133.75,103.3c.05.61.68,1.05,1.39.99.72-.06,1.26-.6,1.21-1.21-.05-.61-.67-1.05-1.39-1-.72.06-1.26.6-1.21,1.21Z"/>
      <path class="cls-11" d="M129.73,106.81c.03.3.34.53.69.5.36-.03.63-.3.61-.6-.03-.3-.34-.53-.69-.5-.36.03-.63.3-.61.6Z"/>
      <g>
        <path d="M103.32,96.97c-.05-.07-1.19-1.81-3.52-3.6-1.46-1.12-2.89-1.97-4.38-2.61-1.81-.76-3.75-1.3-5.63-1.55-1.7-.19-3.59-.14-5.79.16-1.68.32-3.32.82-4.71,1.43-.99.34-1.78.82-2.41,1.21-.24.15-.46.28-.68.4l-3,1.89,3.46-.81c.16-.04.34-.09.52-.14.72-.19,1.61-.43,2.65-.58.24-.04.49-.08.75-.14.44-.09.89-.18,1.36-.2.52-.03,1.07-.07,1.63-.11l.73-.05c1.92-.02,3.54.12,4.97.45,1.57.27,3.19.78,4.67,1.46,1.4.67,2.74,1.33,3.79,2.1,2.11,1.41,3.29,2.59,3.3,2.6h0c.29.29.68.44,1.07.44.28,0,.57-.08.82-.24.7-.46.89-1.4.45-2.07l-.03-.05Z"/>
        <path d="M146.36,92.4c-.2-.11-.42-.24-.66-.39-.63-.39-1.41-.87-2.38-1.2-1.42-.63-3.06-1.13-4.76-1.45-2.18-.29-4.07-.34-5.78-.15-1.87.26-3.82.79-5.63,1.55-1.46.63-2.94,1.5-4.38,2.61-2.29,1.76-3.43,3.46-3.51,3.59l-.02.03c-.39.6-.3,1.39.2,1.89.28.29.66.44,1.07.44h0c.4,0,.78-.16,1.06-.44h.01c.11-.12,1.25-1.24,3.3-2.61,1.03-.76,2.37-1.42,3.77-2.09,1.49-.69,3.1-1.2,4.7-1.47,1.42-.33,3.04-.47,4.93-.45l.76.05c.55.04,1.09.08,1.62.11.46.02.91.11,1.35.2.25.05.5.1.75.14,1.05.15,1.94.39,2.65.58.19.05.36.1.53.14l3.46.81-3.03-1.9Z"/>
      </g>
      <path class="cls-1" d="M108.2,145.34c-.23-.04-.45-.08-.64-.12.22.05.43.09.64.12Z"/>
      <path class="cls-1" d="M107.32,145.16c-.15-.03-.29-.07-.39-.09.13.03.26.06.39.09Z"/>
      <path class="cls-17" d="M107.56,145.22c-.08-.02-.16-.03-.24-.05.08.02.15.03.24.05Z"/>
      <path class="cls-17" d="M106.93,145.08c-.07-.02-.14-.04-.22-.06h0s.08.03.22.06Z"/>
      <path class="cls-15" d="M102.07,148.31c-.18-2.41,6.73.51,9,.58,1.81.06,7.25-.36,7.75-.55,3.8-1.42-.21,4.04-7.86,4.32-3.51.14-8.78-2.89-8.88-4.35Z"/>
      <path class="cls-10" d="M124.56,143.66c-1.88-.09-3.8,1.47-6.06,1.23-.09-.05-.14-.05-.23-.05-.52-.09-1.03,0-1.6.14-.7.15-1.41.43-2.07.66-1.13.37-2.4.66-3.7.56h0s-.05,0-.07,0-.05,0-.07,0h0c-1.31.09-2.58-.2-3.7-.57-.66-.23-1.37-.51-2.07-.66-.56-.14-1.08-.23-1.6-.14-.1,0-.14,0-.23.05-2.26.24-4.18-1.32-6.06-1.23-.52.05-1.27-.09-1.69-.09.09.05.19.09.28.14,5.35,2.61,9.96,7.49,15.07,7.33h.15c5.11.16,9.72-4.73,15.07-7.33.1-.05.19-.09.28-.14-.42,0-1.17.14-1.69.09Z"/>
      <path class="cls-9" d="M126.13,143.51h0s-5.44-2.09-9.3-.87c0,0-1.44.56-2.93.9-.91.35-2.01.46-3.07.41h0c-.81-.03-1.59-.14-2.22-.25-.21-.03-.42-.08-.64-.12-.09-.02-.16-.03-.24-.05-.13-.03-.26-.06-.39-.09-.14-.03-.22-.06-.22-.06h0c-1.24-.34-2.3-.75-2.3-.75-3.87-1.23-9.3.87-9.3.87h0c-.07.03-.12.06-.12.06.42,0,1.17.14,1.69.09,1.88-.09,3.8,1.47,6.06,1.23.09-.05.14-.05.23-.05.52-.09,1.03,0,1.6.14.7.15,1.41.43,2.07.66,1.13.37,2.4.66,3.7.56h0s.05,0,.07,0,.05,0,.07,0h0c1.31.09,2.58-.2,3.7-.57.66-.23,1.37-.51,2.07-.66.56-.14,1.08-.23,1.6-.14.1,0,.14,0,.23.05,2.26.24,4.18-1.32,6.06-1.23.52.05,1.27-.09,1.69-.09,0,0-.05-.02-.12-.06Z"/>
      <path class="cls-9" d="M101.69,144.78c.1.02,10.19,3.1,18.08.07l-.91-.61h-10.66l-6.5.54Z"/>
      <path class="cls-16" d="M158.04,223.59h-93.54c0-2.59.11-5.07.28-7.41.26-3.64.69-6.97,1.27-10.01.45-2.35.98-4.53,1.6-6.54,2.89-9.61,7.34-15.7,11.73-19.57l19.8,18.21c7.03,6.47,17.72,6.88,25.23.97l21.4-16.85c4.68,4.85,7.61,10.91,9.44,16.87.72,2.35,1.26,4.67,1.67,6.91.69,3.71,1.01,7.17,1.15,10.01.21,4.48-.03,7.41-.03,7.41Z"/>
      <path class="cls-1" d="M67.65,199.63l37.35,23.96h-40.49c0-2.59.11-5.07.28-7.41.26-3.64.69-6.97,1.27-10.01.45-2.35.98-4.53,1.6-6.54Z"/>
      <path class="cls-1" d="M158.04,223.59h-40.22l37.42-24.33c.72,2.35,1.26,4.67,1.67,6.91.69,3.71,1.01,7.17,1.15,10.01.21,4.48-.03,7.41-.03,7.41Z"/>
      <g>
        <path class="cls-4" d="M151.84,198.39l-18.17,6.66,13.03-17.18c2.24,3.3,3.9,6.91,5.14,10.51Z"/>
        <path class="cls-4" d="M155.27,218.34l-24.28-9.16,22.53-4.79c.2.86.38,1.73.54,2.58.69,3.71,1.01,7.17,1.15,10.01.02.48.05.94.06,1.37Z"/>
      </g>
      <g>
        <path class="cls-4" d="M85.95,205.65l-14.72-5.4c1.07-3.44,2.38-6.42,3.79-8.99l10.93,14.4Z"/>
        <path class="cls-4" d="M88.65,209.78l-20.54,7.74c.26-3.61.69-6.92,1.27-9.95.12-.61.25-1.21.37-1.81l18.9,4.02Z"/>
      </g>
      <path class="cls-19" d="M154.44,53.79c-4.84-4.04-10.98-5.49-10.98-5.49,0,0-13.56-6.07-23.89-10.4-10.33-4.33-27.12-.87-35.83,1.15-8.71,2.03-19.09,13.12-22.32,19.18-3.22,6.08-11.25,19.25-13.83,28.79-2.58,9.53,11.7,16.89,15.92,20.76,1.48,1.36,2.24,10.11,2.24,10.11l2.39,1.52c2.17-5.13,3.02-10.26,5.33-12.91-3.27,12.53,16.44,22.84,16.44,22.84-19.4-18.81,4.85-24.8,4.85-24.8,22.8-6.95,30.99-28.7,32.17-32.17,1.1,18-9.66,31.77-9.66,31.77,14.75-9.2,21.24-17.85,23.27-25.35,5.01,12.06-.04,23.37-.04,23.37,6.14-6.07,8.95-11.27,9.8-15.65,2.5,3.38,4.26,7.72,4.26,13.58,0,4.07-2.04,15.89-2.04,15.89l2.04-1.29s0-4.58,5.79-7.45c4.62-2.29,5.79-10.08,5.79-13.3,0-21.52-6.84-36.09-11.69-40.14Z"/>
      <g>
        <path class="cls-19" d="M99.01,159.52c.07,2.63,2.26,4.74,4.89,4.74h15.09c2.67,0,4.89-2.18,4.89-4.89h0c-3.31,1.11-7.75,1.79-12.69,1.79-4.67,0-8.96-.62-12.19-1.64Z"/>
        <path class="cls-19" d="M112.22,134.83h-.11c-.23-.02-.45-.02-.68-.02h-.6c-.15,0-.38,0-.68.02h-.08c-7,.34-37.38,4.4-17.54,50.46.53,2.22.94,3.56.94,3.56h2.9s-11.97-37.32,12.12-46.43c0,0,.98-.38,2.64-.43,1.66.06,2.71.43,2.71.43,24.02,9.11,12.04,46.43,12.04,46.43h2.94s.41-1.34.98-3.56c19.8-46.05-10.54-50.12-17.58-50.46Z"/>
      </g>
      <g>
        <path class="cls-11" d="M159.98,96.5c-17.54-6.8-28.79-2.59-28.79-2.59-6.43,1.95-9.78,5.19-11.5,8.34h0s-1.68-1.43-1.68-1.43c-.47-.4-1.06-.61-1.67-.61h-8.75c-.61,0-1.2.22-1.67.61l-1.68,1.43h0c-1.71-3.15-5.07-6.39-11.5-8.34,0,0-11.25-4.21-28.79,2.59-.51.2-.85.7-.85,1.26v5.3c0,.3.1.59.29.83.53.71,1.67,2.89,2.32,8.92,0,0,2.5,14.88,19.76,16.51,0,0,15.85,1.52,20.31-18.13,0,0,.68-3.15-.63-6.89l1.22-1.55c.45-.57,1.13-.9,1.86-.9h7.48c.72,0,1.41.33,1.86.9l1.22,1.55c-1.31,3.74-.63,6.89-.63,6.89,4.45,19.66,20.31,18.13,20.31,18.13,17.27-1.63,19.76-16.51,19.76-16.51.65-6.02,1.79-8.21,2.32-8.92.18-.24.29-.53.29-.83v-5.3c0-.55-.34-1.06-.85-1.26ZM102.08,113.46s-2.06,13.36-16.61,13.68c0,0-15.42,0-17.05-18.03,0,0,.54-14.88,17.05-13.25,0,0,19.44,2.39,16.61,17.59ZM138.46,127.14c-14.55-.33-16.61-13.68-16.61-13.68-2.82-15.2,16.61-17.59,16.61-17.59,16.51-1.63,17.05,13.25,17.05,13.25-1.63,18.03-17.05,18.03-17.05,18.03Z"/>
        <g class="cls-18">
          <path class="cls-6" d="M85.47,95.86c-16.51-1.63-17.05,13.25-17.05,13.25.17,1.81.46,3.43.88,4.9,3.68,13.13,16.17,13.13,16.17,13.13,14.55-.33,16.61-13.68,16.61-13.68.04-.22.07-.43.11-.64,2.17-14.63-16.72-16.95-16.72-16.95Z"/>
          <path class="cls-6" d="M138.46,95.86s-18.89,2.32-16.72,16.95c.03.21.07.42.11.64,0,0,2.06,13.36,16.61,13.68,0,0,12.48,0,16.17-13.13.42-1.46.72-3.09.88-4.9,0,0-.54-14.88-17.05-13.25Z"/>
        </g>
      </g>
    </g>
  </g>
</svg>