<?xml version="1.0" encoding="UTF-8"?>
<svg id="Layer_2" data-name="Layer 2" xmlns="http://www.w3.org/2000/svg" xmlns:xlink="http://www.w3.org/1999/xlink" viewBox="0 0 78.88 78.88">
  <defs>
    <style>
      .cls-1 {
        fill: none;
      }

      .cls-2 {
        fill: #48443b;
        opacity: .3;
      }

      .cls-3 {
        fill: #debaad;
      }

      .cls-4 {
        fill: #ededeb;
        opacity: .55;
      }

      .cls-5 {
        fill: #212625;
      }

      .cls-6 {
        fill: url(#linear-gradient-2);
      }

      .cls-7 {
        fill: #71909e;
      }

      .cls-8 {
        fill: #dcb9ac;
      }

      .cls-9 {
        fill: url(#linear-gradient);
      }

      .cls-10 {
        fill: #34525c;
      }

      .cls-11 {
        fill: #f1d4c8;
      }

      .cls-12 {
        fill: #1e1f1a;
        opacity: .4;
      }

      .cls-13 {
        fill: #b59376;
      }

      .cls-14 {
        fill: #4f6771;
      }

      .cls-15 {
        fill: #fff;
      }

      .cls-16 {
        fill: #c6a095;
      }

      .cls-17 {
        fill: #502c24;
        opacity: .2;
      }

      .cls-18 {
        fill: #885052;
      }

      .cls-19 {
        fill: #f0d4c7;
      }

      .cls-20 {
        fill: #f2f3f2;
      }

      .cls-21 {
        fill: #232118;
      }
    </style>
    <linearGradient id="linear-gradient" x1="17.63" y1="9.78" x2="17.63" y2="13.36" gradientTransform="translate(16.52 23.75) rotate(4.72)" gradientUnits="userSpaceOnUse">
      <stop offset="0" stop-color="#29383e"/>
      <stop offset=".12" stop-color="#3d5059"/>
      <stop offset=".29" stop-color="#586f7d"/>
      <stop offset=".47" stop-color="#6d8799"/>
      <stop offset=".65" stop-color="#7c99ad"/>
      <stop offset=".82" stop-color="#85a3b9"/>
      <stop offset="1" stop-color="#89a7be"/>
    </linearGradient>
    <linearGradient id="linear-gradient-2" x1="-684.9" y1="67.78" x2="-684.9" y2="71.32" gradientTransform="translate(-638.81 23.75) rotate(175.28) scale(1 -1)" xlink:href="#linear-gradient"/>
  </defs>
  <g id="Layer_1-2" data-name="Layer 1">
    <g>
      <rect class="cls-18" width="78.88" height="78.88"/>
      <g>
        <path class="cls-11" d="M53.25,38.45c.02-2.23,1.42-4.18,3.52-5.3-.04.55-.08,1.1-.13,1.63,1.32-2.44,5.14-1.65,4.8,2.22-.34,3.72-5.77,5.61-5.69,5.17-.06.3-.12.59-.2.87-1.43-1.17-2.32-2.8-2.3-4.6Z"/>
        <path class="cls-3" d="M60.24,35.35c-.92-1.5-2.37-.87-2.73-.54-.38.35-.68.82-.45,1.71.12.5.65.54.51,1.3-.15.85-.54.9-.76,1.09-.22.19-.5.33-.65.7-.14.36-.16.74-.09,1.06.14.61,1.04.14,1.63-.13.39-.18,1.65-1.22,1.97-1.57.8-.89,1.18-2.61.57-3.61"/>
      </g>
      <g>
        <path class="cls-11" d="M29.16,38.45c-.02-2.23-1.42-4.18-3.52-5.3.04.55.08,1.1.13,1.63-1.32-2.44-5.14-1.65-4.8,2.22.34,3.72,5.77,5.61,5.69,5.17.06.3.12.59.2.87,1.43-1.17,2.32-2.8,2.3-4.6Z"/>
        <path class="cls-3" d="M22.16,35.35c.92-1.5,2.37-.87,2.73-.54.38.35.68.82.45,1.71-.12.5-.65.54-.51,1.3.15.85.54.9.76,1.09.22.19.5.33.65.7.14.36.16.74.09,1.06-.14.61-1.04.14-1.63-.13-.39-.18-1.65-1.22-1.97-1.57-.8-.89-1.18-2.61-.57-3.61"/>
      </g>
      <path class="cls-19" d="M66.83,78.88H15.84c0-.19.01-.38.01-.56,0,0,.11-6.16.4-6.7.54-2.15-.42-3.13,3.36-5.2.05-.01.88-.24,2.11-.6,2.58-.74,6.95-2.02,9.22-2.91h.03c.51-.23.93-.41,1.17-.56,0-.01.01-.01.01-.01.06-.04.1-.06.13-.1.01-.01.06-.05.09-.09.03-.04.08-.07.1-.1.08-.36,1.12-1.89,1.51-3.58.01-.03.03-.04.04-.06.09-.35.13-.68.15-1.02.01-.55.04-1.1.04-1.59.01-.28.02-.54.02-.78,0-.1,0-.2.01-.29,0-.1.01-.19.01-.28v-.08c.01-.23.01-.42.01-.56.01-.15.01-.24.01-.24,0,0-5.83-4.35-5.83-5.29,0,0,6.1.93,10.05,1.37.08.01.15.01.23.03.27.03.51.06.74.09.01,0,.05,0,.13.01.35.03.65.05.93.08.18.01.34.03.48.03.11.03.22.03.33.01.06,0,.13.01.19,0,.15-.01.34-.01.55-.03,0-.01.02-.01.04-.01.46-.03,1.03-.09,1.67-.16.05,0,.1-.01.15-.01h.01c3.94-.42,10.25-1.39,10.25-1.39,0,.94-5.81,5.29-5.81,5.29,0,0,0,.09.01.24,0,.08,0,.17.01.27-.01.03-.01.04,0,.06v.14s0,.09,0,.13c0,.18.01.38.01.6.03.66.05,1.49.08,2.36.01.18.01.34.04.51.02.16.06.33.1.51,0,.01.01.01.01.01,0,.01,0,.03.01.03h0c.37,1.71,1.44,3.26,1.53,3.62.01.01.01.02.01.04.03.03.05.04.08.07.03.04.08.08.08.09.09.07.22.15.39.24.06.02.1.05.17.08h.01c1.85.88,7.04,2.41,10,3.27,1.24.36,2.05.59,2.1.6,3.8,2.07,2.82,3.05,3.36,5.2.29.54.39,6.7.39,6.7,0,.18,0,.37.01.56Z"/>
      <path class="cls-16" d="M48.68,58.39c-.09-.34-.13-.68-.15-1.02-.04-1.15.16-2.69.15-3.4-2.19.86-4.68,1.79-6.88,1.79-.13.02-.3.02-.45.02s-.32,0-.45-.02c-2.2,0-4.46-.5-6.65-1.36-.01.72-.04,1.81-.08,2.97-.02.34-.06.68-.15,1.02,2.12,1.54,4.98,3.14,6.88,3.14.12.02.27.02.4.02h0s.03,0,.05,0c.02,0,.03,0,.05,0h0c.14,0,.28,0,.4-.03,1.9,0,4.76-1.6,6.88-3.14Z"/>
      <path class="cls-19" d="M59.08,27.58c-.01.13-.01.27-.02.42-.03.15-.04.32-.05.49-.02.22-.04.43-.08.64-.01.1-.03.22-.04.32-.04.25-.09.48-.13.74-.01.1-.04.2-.05.31-.05.22-.09.43-.15.65-.02.13-.06.27-.09.43-.04.11-.06.25-.1.37-.16.6-1.54,7.74-2.54,12.38-.41,1.93-.75,3.43-.92,3.85-.93,2.35-7.02,6.68-10.94,8.52-.01.01-.04.01-.05.02-1.11.54-2.05.84-2.63.84h-.08c-.63-.01-1.53-.29-2.58-.77-.05-.04-.11-.06-.18-.09-4.03-1.81-10.05-6.18-10.99-8.54-.18-.45-.55-2.16-.97-4.31-.92-4.64-2.12-11.35-2.28-11.92-.04-.11-.06-.25-.1-.37-.02-.17-.06-.31-.09-.43-.06-.22-.1-.44-.15-.65-.01-.1-.04-.2-.05-.31-.04-.26-.09-.49-.13-.74-.01-.1-.02-.22-.04-.32-.04-.2-.05-.42-.08-.64-.01-.17-.02-.33-.05-.49-.01-.15-.01-.29-.03-.42-.17-3.35.55-6.75,2.73-9.81,2.64-3.71,5.68-7.64,12.27-8.18l5.56,2.88c6.6.54,9.63,1.59,12.27,5.3,2.18,3.07,2.9,6.47,2.73,9.81Z"/>
      <path class="cls-8" d="M38.4,45.9c-.06-1.2,2.19-.44,2.94-.4.59.03,2.37-.38,2.53-.27,1.05.71-1.11,2.14-2.56,2.14-.39,0-2.86-.74-2.9-1.47Z"/>
      <path class="cls-21" d="M37.61,34.24s-.47-.58-1.22-1.21c-.37-.32-.81-.64-1.3-.9-.24-.14-.5-.25-.75-.35-.26-.13-.53-.17-.79-.24-.27-.08-.54-.08-.8-.13-.27,0-.53,0-.79,0-.26.04-.5.07-.74.1-.24.03-.46.12-.66.16-.42.08-.76.25-1,.32-.25.08-.39.12-.39.12,0,0,.12-.12.34-.34.22-.2.53-.54.95-.76.21-.12.43-.29.67-.38.25-.09.51-.2.78-.27.27-.03.56-.1.85-.11.29.03.59.03.88.1.29.09.59.15.87.31.29.11.55.3.81.48.26.16.49.41.71.61.21.23.42.45.58.69.7.92,1,1.78,1,1.78Z"/>
      <path class="cls-15" d="M28.8,35.49s1.38,2.75,3.49,3.03c2.11.28,4.36-.09,4.36-.09,0,0,.03-3.18-1.07-3.63-1.1-.45-3.61-1.13-6.78.69Z"/>
      <path class="cls-9" d="M34.86,36.4c-.09.97-.92,1.7-1.85,1.63-.93-.07-1.62-.91-1.53-1.87.09-.97.92-1.7,1.85-1.63.93.07,1.62.91,1.53,1.88Z"/>
      <path class="cls-14" d="M33.07,37.48c-.5-.04-.87-.56-.82-1.14.05-.58.52-1.04,1.02-1,.5.04.87.56.82,1.14-.05.58-.52,1.04-1.02,1Z"/>
      <path class="cls-5" d="M33.12,37.27c-.35-.03-.7-.42-.66-.91.05-.49.47-.83.81-.8.35.03.7.42.66.91-.05.49-.47.83-.81.8Z"/>
      <path class="cls-2" d="M36.66,38.42s-.05,0-.15.02c-.08-.98-.33-2.32-1.02-2.6-1.02-.42-3.31-1.05-6.23.38-.3-.43-.45-.75-.45-.75,3.18-1.82,5.69-1.14,6.78-.69,1.1.45,1.07,3.63,1.07,3.63Z"/>
      <path class="cls-1" d="M28.8,35.49s1.38,2.75,3.49,3.03c2.11.28,4.36-.09,4.36-.09,0,0,.03-3.18-1.07-3.63-1.1-.45-3.61-1.13-6.79.69Z"/>
      <path class="cls-8" d="M28.59,35.54c.54-.39,1.14-.69,1.76-.93.31-.11.63-.23.96-.3.16-.05.33-.07.49-.11.16-.04.33-.06.5-.08.33-.05.67-.06,1.01-.07.17,0,.34.02.5.02.17,0,.34.02.5.05.33.04.66.11.99.21.33.08.63.23.94.35h.02s.01.02.01.02c.31.35.62.71.85,1.11-.3-.35-.65-.66-.99-.97l.03.02c-.32-.09-.62-.21-.94-.26-.32-.07-.63-.13-.96-.16-.32-.05-.64-.04-.97-.05-.32.02-.65.01-.97.06-.64.07-1.28.2-1.91.38-.62.19-1.24.42-1.84.7Z"/>
      <path class="cls-15" d="M32.86,36.06c-.02.18-.19.31-.39.29-.2-.01-.35-.17-.33-.35.02-.18.19-.31.39-.29.2.01.35.17.33.35Z"/>
      <path class="cls-15" d="M33.96,37.07c0,.09-.09.15-.19.15-.1,0-.17-.09-.17-.17,0-.09.1-.15.2-.15.1,0,.17.08.17.17Z"/>
      <path class="cls-21" d="M44.8,34.3s.3-.86,1.01-1.77c.17-.24.37-.45.59-.68.22-.2.45-.45.71-.61.26-.18.52-.36.81-.48.28-.15.57-.21.87-.3.29-.07.59-.06.88-.09.29,0,.58.07.85.11.27.07.53.18.78.27.25.09.47.25.67.37.42.22.73.56.95.75.22.21.34.34.34.34,0,0-.14-.04-.39-.12-.25-.07-.58-.24-1-.31-.21-.04-.43-.13-.66-.16-.23-.03-.48-.07-.74-.1-.25,0-.52,0-.78,0-.26.04-.54.05-.8.12-.27.07-.54.11-.79.24-.26.1-.51.2-.76.34-.49.26-.93.57-1.3.89-.75.62-1.22,1.19-1.22,1.19Z"/>
      <path class="cls-15" d="M53.63,35.66s-1.34,2.69-3.44,2.94c-2.11.25-4.36-.15-4.36-.15,0,0-.08-3.14,1.01-3.57,1.09-.43,3.59-1.06,6.8.78Z"/>
      <path class="cls-1" d="M53.63,35.66s-1.34,2.69-3.44,2.94c-2.11.25-4.36-.15-4.36-.15,0,0-.08-3.14,1.01-3.57,1.09-.43,3.59-1.06,6.8.78Z"/>
      <path class="cls-6" d="M47.75,36.37c.09.96.92,1.67,1.85,1.61.93-.07,1.62-.9,1.53-1.85-.09-.96-.92-1.68-1.85-1.61-.93.07-1.62.9-1.53,1.85Z"/>
      <path class="cls-14" d="M49.54,37.43c.5-.03.87-.55.82-1.12-.05-.57-.52-1.02-1.02-.99-.5.03-.87.55-.82,1.12.05.57.52,1.03,1.02.99Z"/>
      <path class="cls-5" d="M49.5,37.22c.35-.03.7-.41.66-.9-.05-.48-.47-.82-.81-.79-.35.02-.7.41-.66.9.05.48.47.82.81.79Z"/>
      <path class="cls-2" d="M45.82,38.44s.05,0,.15.03c.07-.97.29-2.29.97-2.55,1.01-.4,3.29-.99,6.24.47.29-.42.44-.73.44-.73-3.21-1.84-5.71-1.21-6.8-.79-1.09.43-1.01,3.57-1.01,3.57Z"/>
      <path class="cls-8" d="M53.62,35.75c-.6-.28-1.21-.51-1.84-.69-.63-.18-1.27-.3-1.91-.37-.32-.04-.64-.04-.97-.06-.32.01-.65,0-.97.05-.32.02-.64.09-.96.16-.32.05-.62.17-.94.26l.03-.02c-.34.31-.69.61-.99.95.24-.4.54-.75.85-1.1h.01s.02-.02.02-.02c.31-.11.62-.26.94-.34.32-.1.65-.17.99-.21.17-.03.33-.05.5-.05.17,0,.34-.02.5-.02.34,0,.67.02,1.01.07.17.02.33.04.5.08.16.04.33.06.49.11.33.08.64.19.96.3.62.23,1.23.53,1.77.92Z"/>
      <path class="cls-15" d="M49.15,36.04c-.02.17-.19.3-.39.29-.2-.02-.35-.17-.33-.34.02-.17.19-.3.39-.29.2.02.35.17.33.34Z"/>
      <path class="cls-15" d="M50.26,37.03c0,.09-.1.15-.2.14s-.17-.08-.17-.17c0-.08.1-.15.2-.14.1,0,.17.08.17.17Z"/>
      <path class="cls-8" d="M45.19,51.63c-.56-.03-1.13-.15-1.81-.22-.03-.01-.04-.01-.07-.01-.15-.03-.31,0-.48.04-.21.04-.42.13-.62.2-.34.11-.72.2-1.11.17h0s-.01,0-.02,0-.01,0-.02,0h0c-.39.03-.77-.06-1.11-.17-.2-.07-.41-.15-.62-.2-.17-.04-.32-.07-.48-.04-.03,0-.04,0-.07.01-.67.07-1.25.2-1.81.22-.15.01-.38-.03-.5-.03.03.01.06.03.08.04,1.6.78,2.97,1.64,4.5,1.6h.04c1.52.05,2.9-.82,4.5-1.6.03-.01.06-.03.08-.04-.13,0-.35.04-.51.03Z"/>
      <path class="cls-1" d="M40.43,51.05c-.07-.01-.13-.02-.19-.04.06.01.13.03.19.04Z"/>
      <path class="cls-1" d="M40.16,51s-.09-.02-.12-.03c.04,0,.08.02.12.03Z"/>
      <path class="cls-17" d="M45.65,51.58h0s-1.62-1.22-2.78-.85c0,0-.43.17-.87.27-.27.11-.6.14-.92.12h0c-.24,0-.47-.04-.66-.07-.06,0-.13-.02-.19-.04-.03,0-.05-.01-.07-.02-.04,0-.08-.02-.12-.03-.04-.01-.07-.02-.07-.02h0c-.37-.1-.69-.22-.69-.22-1.15-.37-2.78.85-2.78.85h0s-.04.02-.04.02c.13,0,.35.04.5.03.56-.03,1.13-.15,1.81-.22.03-.01.04-.01.07-.01.15-.03.31,0,.48.04.21.04.42.13.62.2.34.11.72.2,1.11.17h0s.01,0,.02,0,.01,0,.02,0h0c.39.03.77-.06,1.11-.17.2-.07.41-.15.62-.2.17-.04.32-.07.48-.04.03,0,.04,0,.07.01.67.07,1.25.2,1.81.22.15.01.38-.03.51-.03,0,0-.01,0-.04-.02Z"/>
      <path class="cls-13" d="M40.24,51.02s-.05,0-.07-.02c.02,0,.04,0,.07.02Z"/>
      <path class="cls-13" d="M40.05,50.97s-.04-.01-.06-.02h0s.02,0,.07.02Z"/>
      <path class="cls-1" d="M41.35,70.67c2.76,0,5.23-1.24,6.92-3.21h-13.85c1.7,1.96,4.17,3.21,6.92,3.21Z"/>
      <path class="cls-7" d="M15.86,78.33c0,.18-.01.37-.01.55h50.99c-.01-.18-.01-.37-.01-.55,0,0-.01-.65-.04-1.55H15.9c-.03.9-.04,1.55-.04,1.55Z"/>
      <path class="cls-10" d="M66.63,73.23h0c-.06-.82-.12-1.45-.21-1.61-.07-.28-.11-.53-.15-.78H16.4c-.03.24-.08.5-.15.78-.08.16-.15.8-.2,1.61h0c-.07,1.08-.12,2.49-.15,3.55h50.89c-.03-1.06-.08-2.46-.15-3.55Z"/>
      <path class="cls-7" d="M64.71,67.46c-.07-.06-.15-.11-.23-.17-.38-.27-.84-.56-1.41-.87-.05,0-.87-.23-2.1-.6-1.06-.31-2.41-.7-3.79-1.11-.89-.28-1.8-.56-2.65-.84-1.49-.49-2.79-.93-3.56-1.3h-.01c-.06-.03-.1-.05-.17-.08-.1-.05-.17-.1-.24-.14-.23,1.88-1,3.58-2.13,4.95-.05.06-.09.12-.14.17-1.7,1.96-4.16,3.21-6.92,3.21s-5.23-1.24-6.92-3.21c-.05-.06-.09-.11-.14-.17-1.14-1.38-1.91-3.08-2.13-4.97,0,0,0,0,0,0,0,0-.01,0-.01.03-.24.15-.66.32-1.17.55h-.03c-.73.29-1.66.61-2.69.96-.85.27-1.76.55-2.65.82-1.43.43-2.81.84-3.88,1.14-1.22.37-2.05.6-2.11.6-.57.31-1.03.6-1.4.87-.08.06-.16.11-.23.17-1.55,1.21-1.4,2.09-1.58,3.38h49.88c-.17-1.29-.01-2.17-1.57-3.38Z"/>
      <g>
        <path class="cls-21" d="M38.4,5.51c.02-.15.04-.24.04-.24,0,0-.02.09-.04.24Z"/>
        <path class="cls-21" d="M62.66,15.54s-4.38-1.2-5.71,2.4c-.52-.63-1.11-1.26-1.76-1.9-3.88-3.8-6.27-5.64-6.27-5.64l-.69,2.28s-1.41-1.85-6.5-3.33c-3.33-.97-3.4-3.12-3.33-3.83-.12.82-.47,2.65.04,3.79-.97-.46-2.75.25-5.87,1.44-2.99,1.14-4.38,2.74-5.61,4.19-1.26.07-2.72.03-4.38-.2,0,0,.76,1.56,3.15,1.58-.73.73-1.55,1.33-2.75,1.69-4.06,1.22-5.24-.35-5.24-.35,0,0,1.76,2.75,4.9,2.76.51,0,.56,0,.56-.01,0,0-1.17,2.95-1.4,5.15-.23,2.24.49,9.3.71,13.5.17,3.28,1.05,2.03,2.13,3.8-.55,1.16-.85,2.39-.85,3.68,0,1.81.59,3.52,1.65,5.05h-.17c-.01.33-.1.8-.27,1.62-.46,2.25-1.81,2.84-1.81,2.84,0,0,2.1-.86,2.61-1.44.24-.28.89-1.06,1.09-1.3,0,0,.01.01.02.02-.12.26-.39,1.1,0,2.71.05.21.12.41.2.6,0,0,.44,1.25,1.44,2.59.87,1.16,1.2,2.39,2.98,2.96h0s.75,6.01,9.59,7.36c.15.02.27.04.41.06.05,0,.09,0,.14-.01-.18-.03-.29-.04-.29-.04,0,0,8.7-.16,9.83-7.53,1.56-.62,1.76-1.73,2.55-2.8,1-1.35,1.45-2.59,1.45-2.59.08-.19.15-.39.2-.6.39-1.61.11-2.45,0-2.71,0,0,.01-.01.02-.02.2.24.85,1.02,1.09,1.3.51.58,2.61,1.44,2.61,1.44,0,0-1.36-.59-1.82-2.84-.17-.82-.25-1.29-.27-1.62h-.17c1.06-1.53,1.65-3.25,1.65-5.05,0-1.44-.38-2.82-1.07-4.1.06-.09.14-.17.21-.25,1.14-1.19,2.88-10.74,2.88-14.75,0-1.69-.27-3.3-.86-4.89h0s-.82-7.17,2.96-6.99ZM46.66,52.97c-.47,1.86-2.37,1.5-3.04,1.31-.07-.03-.15-.05-.23-.07,0,0,0,0,0,0h0c-.58-.17-1.32-.27-2.14-.27-.03,0-.05,0-.08,0s-.05,0-.08,0c-.81,0-1.56.1-2.14.27h0s0,0,0,0c-.08.02-.16.05-.23.07-.67.19-2.57.56-3.04-1.31,0-.07-.01-.15-.02-.23.02-.55.49-2.05,4.88-2.36.28-.02.5-.03.64-.04.14,0,.36.02.64.04,4.39.31,4.86,1.81,4.88,2.36,0,.08-.01.15-.02.23ZM53.07,49.96c-1.34,1.32-2.92.99-4,.57.68-.24,1.38-.58,1.65-1.26.1-.24.47-2.22-.3-1-.28.44-.2.98-1.79,1.14h0s-.03,0-.07,0c-.16.01-.32.02-.5.02,0,0-.22,0-.5-.04-1.5-.12-3.06-3.17-6.4-3.17-3.34,0-4.9,3.05-6.4,3.17-.28.04-.5.04-.5.04-.18,0-.35,0-.5-.02-.04,0-.07,0-.07,0h0c-1.59-.17-1.51-.7-1.79-1.14-.77-1.22-.4.76-.3,1,.27.67.98,1.01,1.65,1.26-1.07.43-2.66.76-4-.57-1.96-1.94-2.64-4.88-2.69-7.84.06-.62.1-1.33.11-2.14.03-2.6,1.71-18.46,8.37-16.58,4.07,1.15,5.1,3.5,8.14,1.41,2.62-1.8,6.3-2.83,9.04-1.41,2.74,1.42,3.1,11.47,3.44,16.58.04.55.07,1.04.11,1.49,0,.1,0,.2,0,.3,0,3.08-.65,6.18-2.7,8.2Z"/>
      </g>
      <g>
        <path class="cls-12" d="M38.09,40.12c.15-.51.23-1.04.23-1.6,0-3.14-2.55-5.68-5.69-5.68s-5.69,2.54-5.69,5.68c0,.7.13,1.36.36,1.98,2.59-1.15,6.65-2.22,10.79-.38Z"/>
        <path class="cls-12" d="M54.72,41.34c.48-.83.76-1.8.76-2.83,0-3.14-2.55-5.68-5.69-5.68s-5.69,2.54-5.69,5.68c0,1.1.32,2.12.86,2.99,2.56-1.31,6.07-2.16,9.77-.16Z"/>
        <path class="cls-12" d="M38.98,40.56c-.02.06-.04.11-.06.17.03-.05.06-.1.09-.15-.01,0-.02-.01-.03-.02Z"/>
        <path class="cls-4" d="M38.98,40.56c-.02.06-.04.11-.06.17.03-.05.06-.1.09-.15-.01,0-.02-.01-.03-.02Z"/>
        <path class="cls-12" d="M32.63,44.2c2.59,0,4.77-1.72,5.46-4.08-4.14-1.84-8.2-.78-10.79.38.81,2.16,2.89,3.7,5.33,3.7Z"/>
        <path class="cls-4" d="M32.63,44.2c2.59,0,4.77-1.72,5.46-4.08-4.14-1.84-8.2-.78-10.79.38.81,2.16,2.89,3.7,5.33,3.7Z"/>
        <path class="cls-12" d="M44,42.03c.09.13.18.24.28.35-.09-.12-.17-.24-.25-.37,0,0-.02.01-.03.01Z"/>
        <path class="cls-4" d="M44,42.03c.09.13.18.24.28.35-.09-.12-.17-.24-.25-.37,0,0-.02.01-.03.01Z"/>
        <path class="cls-12" d="M49.79,44.2c2.11,0,3.95-1.15,4.93-2.85-3.7-2-7.21-1.15-9.77.16,1,1.61,2.79,2.69,4.84,2.69Z"/>
        <path class="cls-4" d="M49.79,44.2c2.11,0,3.95-1.15,4.93-2.85-3.7-2-7.21-1.15-9.77.16,1,1.61,2.79,2.69,4.84,2.69Z"/>
        <path class="cls-20" d="M56.27,36.92s-.05,0-.08,0c-.4-1.62-1.39-3-2.72-3.91-1.07-.73-2.36-1.16-3.76-1.16s-2.57.39-3.6,1.06c-1.79,1.15-2.99,3.13-3.07,5.39-.21-.1-.44-.17-.68-.23-.66-.17-1.41-.19-2.14-.07-.31.05-.62.13-.92.24-.12-2.9-2.09-5.32-4.76-6.12-.61-.18-1.25-.28-1.91-.28-.75,0-1.47.13-2.15.36-2.14.73-3.79,2.51-4.33,4.72-.03,0-.06,0-.09,0-.33,0-.61.27-.61.6v1.78c0,.33.27.6.61.6.02,0,.03,0,.05,0,.01.06.03.12.04.18.5,2.1,1.99,3.81,3.95,4.61.78.32,1.63.5,2.53.5,1.78,0,3.39-.7,4.59-1.83.76-.72,1.35-1.62,1.71-2.63.02-.06.04-.11.06-.17.16-.5.27-1.02.31-1.57.28-.12.58-.21.88-.27.76-.16,1.55-.13,2.21.08.24.08.48.18.68.31.09,1.06.44,2.05.97,2.91.08.13.16.25.25.37,1.21,1.69,3.19,2.8,5.43,2.8.64,0,1.25-.09,1.83-.26,1.61-.46,2.98-1.51,3.84-2.91.4-.64.69-1.36.85-2.12.01,0,.02,0,.04,0,.33,0,.6-.27.6-.6v-1.78c0-.33-.27-.6-.6-.6ZM38.09,40.12c-.69,2.36-2.87,4.08-5.46,4.08-2.45,0-4.53-1.54-5.33-3.7-.23-.62-.36-1.28-.36-1.98,0-3.14,2.55-5.68,5.69-5.68s5.69,2.54,5.69,5.68c0,.56-.08,1.09-.23,1.6ZM54.72,41.34c-.98,1.7-2.82,2.85-4.93,2.85s-3.83-1.08-4.84-2.69c-.54-.87-.86-1.89-.86-2.99,0-3.14,2.55-5.68,5.69-5.68s5.69,2.54,5.69,5.68c0,1.03-.28,1.99-.76,2.83Z"/>
      </g>
    </g>
  </g>
</svg>