<?xml version="1.0" encoding="UTF-8"?>
<svg id="Layer_2" data-name="Layer 2" xmlns="http://www.w3.org/2000/svg" xmlns:xlink="http://www.w3.org/1999/xlink" viewBox="0 0 223.34 223.6">
  <defs>
    <style>
      .cls-1 {
        fill: none;
      }

      .cls-2 {
        fill: #462e1b;
      }

      .cls-3 {
        fill: #ba9d82;
      }

      .cls-4 {
        fill: #ccad8a;
      }

      .cls-5 {
        fill: #44361f;
      }

      .cls-6 {
        fill: #d7bd9d;
      }

      .cls-7 {
        fill: #c1a587;
      }

      .cls-8 {
        fill: #dac6a4;
      }

      .cls-9 {
        fill: #6f6567;
      }

      .cls-10 {
        fill: #fff;
      }

      .cls-11 {
        fill: #dcc5a0;
      }

      .cls-12 {
        fill: #272213;
      }

      .cls-13 {
        fill: #ecdab6;
      }

      .cls-14 {
        fill: #669084;
      }

      .cls-15 {
        fill: #b8987d;
      }

      .cls-16 {
        fill: #ebd9b5;
      }

      .cls-17 {
        fill: #a98d76;
      }

      .cls-18 {
        fill: #827578;
      }

      .cls-19 {
        fill: #6f2e3e;
      }

      .cls-20 {
        fill: #714223;
      }

      .cls-21 {
        fill: #b7967d;
      }

      .cls-22 {
        clip-path: url(#clippath);
      }

      .cls-23 {
        fill: #d2bb9b;
      }

      .cls-24 {
        fill: #b5957e;
      }
    </style>
    <clipPath id="clippath">
      <rect class="cls-1" x="101.47" y="154.83" width="25.11" height="14.85"/>
    </clipPath>
  </defs>
  <g id="Layer_1-2" data-name="Layer 1">
    <g>
      <rect class="cls-19" width="223.34" height="223.6"/>
      <path class="cls-9" d="M54.53,101.6c1.02-12.04,3.73-21.65,3.73-21.65,0,0,.08.09.23.26,3.25-11.77,8.66-18.14,8.66-18.14h0c2.63-3.98,6.36-8.16,10.93-12.29,9.35-8.44,15.23-6.7,22.98-6.46,0,0,.03.05.06.14,3.4-.73,21.69-4.39,32.56-.35,12.02,4.48,21.86,12.15,28.82,32.77,1.07,3.17,1.83,6.25,2.36,9.23,1.57,3.45,2.29,6.83,2.58,9.6l.18-.03s6.06,32.43,23.12,38.91c0,0-12.96,3.21-23.22-13.43-.24,3.3-.66,6.63-1.33,9.89.57,4.28,1.25,7.81,1.25,10.09,0,16.13-12.05,29.49-10.19,45.73,1.23,10.71,6.16,19,6.16,19,0,0-5.64-7.33-7.96-14.2-2.31-6.87-1.53-19.24,2.31-29.09,1.97-5.05,2.53-10.58,2.29-15.94-.33.48-.66.96-1.02,1.42,0,0,.42-1.36.89-3.5-.22-2.66-.61-5.26-1.11-7.71-.08-.43-.17-.86-.27-1.27-.11-.49-.23-.95-.35-1.42-1.07,2.22-2.25,4.3-3.5,6.26-.08.26-.15.54-.24.79-.79,2.59-1.9,4.99-2.85,7.27-.93,2.29-1.89,4.43-2.61,6.51-.67,2.07-1.26,4.04-1.57,5.9-.19.93-.28,1.84-.35,2.69-.11.87-.14,1.69-.14,2.47-.08,1.55.08,2.92.12,4.06.27,2.27.43,3.58.43,3.58,0,0-.14-.3-.41-.87-.24-.59-.69-1.4-1.09-2.52-.34-1.12-.89-2.47-1.15-4.1-.36-1.62-.6-3.48-.56-5.53-.05-2.73.47-5.75,1.29-8.84-4.42,4.53-7.95,7.02-7.95,7.02,0,0,5.17-6.09,7.48-12.16,1.79-4.72,4.47-12.81,4.47-24.73,0-.55-.03-1.11-.08-1.67-.16-.65-.29-1.3-.48-1.94-1.21-4.32-2.73-8.34-4.04-11.9-3.27-6.35-7.08-11.17-7.08-11.17,0,0,5.39,9.26,6.45,19.44,1.07,10.18-4.58,18.05-4.58,18.05,0,0,1.13-12.09-2.82-21.71-1.99-4.83-5.25-9.05-10.59-10.79,0,0,0,.01,0,.02,2.87,7.8-2.89,14.35-2.89,14.35,0,0-.02-1.96-.59-4.97-1.48-7.81-6.64-22.73-24.71-29.37l-.56.81-12.72,18.47c-.62.84-1.64,2.26-2.82,4.09-3.45,5.34-8.21,14.1-8.21,21.72,0,11.92,2.68,20.01,4.47,24.73,2.31,6.08,7.48,12.17,7.48,12.17,0,0-2.82-1.99-6.57-5.65.2,1.39.31,2.75.29,4.03.05,2.05-.2,3.91-.56,5.53-.26,1.63-.81,2.98-1.15,4.1-.4,1.12-.85,1.94-1.09,2.52-.27.57-.41.87-.41.87,0,0,.16-1.31.43-3.58.05-1.14.2-2.51.12-4.06,0-.78-.02-1.6-.14-2.47-.07-.86-.16-1.76-.35-2.69-.3-1.86-.9-3.83-1.57-5.9-.66-1.89-1.51-3.83-2.35-5.88-2.69-3.44-5.35-7.49-7.49-12.07-1.59,7.95-2.11,17.39,1.08,25.56,3.85,9.85,4.62,22.22,2.31,29.09-2.31,6.87-7.96,14.2-7.96,14.2,0,0,4.93-8.3,6.16-19,1.86-16.24-10.19-29.6-10.19-45.73,0-2.05.56-5.13,1.08-8.84-1.12-2.89-1.92-5.98-2.45-9.17-10.02,14.4-21.93,11.46-21.93,11.46,12.06-4.57,18.61-22.1,21.42-31.99Z"/>
      <path class="cls-11" d="M113.94,139.57v84.02h-45.31c-.74-.29-1.11-.45-1.11-.45,0-3.35.15-6.46.43-9.36.63-6.4,1.89-11.76,3.53-16.24,3.93-10.71,10.07-16.45,15.12-19.51,2.38-1.43,4.5-2.27,6.06-2.75,1.6-.49,2.58-.61,2.58-.61.17,0,.34-.02.49-.03,1.43-.23,2.59-1.47,3.52-3.45.69-1.47,1.27-3.36,1.75-5.54.18-.84.32-1.7.48-2.62.21-1.55.45-3.18.63-4.88.08-1.03.18-2.03.29-3.1.4-5.14.52-10.78.52-16.1,0,0,6.08.63,11.02.63Z"/>
      <path class="cls-16" d="M160.54,223.15s-.41.15-1.07.45h-45.53v-84.02h.11c4.9,0,11.07-.63,11.07-.63,0,5.3.11,10.84.51,15.98.11,1.01.21,2.04.29,3.04.18,1.78.41,3.44.68,4.99v.05c.06.71.21,1.34.32,2,.45,2.18,1,4.11,1.64,5.65.81,1.92,1.81,3.25,3.01,3.79.38.17.78.25,1.21.25,0,0,1.75.21,4.36,1.24,1.93.75,4.34,1.96,6.88,3.87,4.45,3.35,9.27,8.81,12.56,17.76,1.64,4.48,2.92,9.84,3.53,16.24.29,2.9.45,6.02.45,9.36Z"/>
      <g class="cls-22">
        <path class="cls-3" d="M126.58,162.8v.04c-1.14,1.76-4.98,6.84-12.57,6.84h-.07c-7.19-.04-11.39-5.26-12.46-6.8.22-1.54.44-3.16.63-4.85.07-.99.18-2.02.3-3.09,3.5.88,7.34,1.43,11.39,1.51h.15c4.2-.07,8.07-.66,11.69-1.62.11.99.22,2.02.3,3.01.18,1.76.41,3.42.66,4.96"/>
      </g>
      <path class="cls-4" d="M113.42,43.82c-48,0-48.26,40.25-46.12,66.6-3.28-6.25-13.05-4.34-12.24,5.51.77,9.48,14.73,14.32,14.34,13.27,7.27,19.49,26.51,34.18,44.02,34.18h.37V43.82h-.37"/>
      <path class="cls-17" d="M58.12,111.78c2.36-3.82,6.05-2.17,6.93-1.32.96.92,1.73,2.09,1.14,4.34-.33,1.29-1.66,1.4-1.36,3.31.37,2.17,1.36,2.28,1.95,2.79.55.48,1.25.85,1.59,1.76.37.92.41,1.87.22,2.72-.37,1.54-2.62.29-4.13-.37-1-.48-4.17-3.16-4.98-4.04-1.99-2.28-2.95-6.69-1.36-9.19"/>
      <path class="cls-6" d="M113.67,43.82c48,0,48.26,40.25,46.15,66.6,3.28-6.25,13.01-4.34,12.2,5.51-.74,9.48-14.72,14.32-14.34,13.27-7.08,19.49-26.51,34.18-44.02,34.18h-.26l-.11-119.57h.37"/>
      <path class="cls-17" d="M168.97,111.78c-2.36-3.82-6.01-2.17-6.93-1.32-.96.92-1.7,2.09-1.14,4.34.33,1.29,1.66,1.4,1.36,3.31-.37,2.17-1.36,2.28-1.92,2.79-.55.48-1.29.85-1.62,1.76-.33.92-.41,1.87-.22,2.72.37,1.54,2.62.29,4.13-.37,1.03-.48,4.17-3.16,4.98-4.04,2.03-2.28,2.95-6.69,1.36-9.19"/>
      <path class="cls-11" d="M113.04,55.18c-15.78,0-27.35,4.59-34.32,13.64-9.77,12.68-9.4,32.01-5.82,45.91,1.11,4.26,1.7,15.69,2.43,19.88,3.43,18.78,24.11,28.78,37.71,28.78h.37V55.18h-.22"/>
      <path class="cls-16" d="M147.32,68.85c-6.93-9.01-18.36-13.6-33.92-13.67v108.21c15.56-.18,34.17-11.14,37.34-28.78.77-4.19,1.33-15.62,2.43-19.88,3.61-13.86,3.98-33.15-5.86-45.87"/>
      <path class="cls-1" d="M111.48,140.27c-.22-.04-.42-.08-.59-.11.2.04.4.08.59.11Z"/>
      <path class="cls-1" d="M110.66,144.16c-.14-.03-.27-.06-.36-.08.12.03.24.05.36.08Z"/>
      <path class="cls-21" d="M110.89,144.21c-.08-.02-.15-.03-.23-.05.07.02.14.03.23.05Z"/>
      <path class="cls-21" d="M110.3,144.08c-.07-.02-.13-.04-.2-.06h0s.08.02.21.06Z"/>
      <path class="cls-6" d="M104.41,130.17c-.18-3.74,6.85-1.37,9.16-1.25,1.83.09,7.4-1.18,7.88-.85,3.28,2.22-3.47,6.68-8,6.68-1.21,0-8.94-2.33-9.05-4.58Z"/>
      <path class="cls-1" d="M70.38,88.91c-.43,1.43-.73,3-.93,4.67,0,0,.63-2.64,2.03-6.54-.6.83-1,1.5-1.1,1.87Z"/>
      <path class="cls-5" d="M100.92,55.58l-.2.2.03.07c.07-.1.1-.2.17-.27Z"/>
      <path class="cls-1" d="M111.63,142.13c-.22-.04-.43-.08-.61-.12.21.04.41.09.61.12Z"/>
      <path class="cls-1" d="M110.79,141.96c-.14-.03-.28-.06-.37-.09.12.03.24.06.37.09Z"/>
      <path class="cls-24" d="M111.02,142.01c-.08-.02-.15-.03-.23-.05.08.02.14.03.23.05Z"/>
      <path class="cls-24" d="M110.42,141.88c-.07-.02-.14-.04-.21-.06h0s.08.03.21.06Z"/>
      <path class="cls-10" d="M78.97,97.42s3.66,15.07,9.95,16.3c6.29,1.23,13.09-1.22,13.09-1.22,0,0,.65-17.71-2.57-20.02-3.22-2.32-10.63-5.68-20.47,4.94Z"/>
      <path class="cls-23" d="M102.02,112.45s-.14.04-.47.18c-.08-5.43-.58-12.89-2.59-14.32-2.99-2.2-9.74-5.28-18.75,3.17-.82-2.33-1.23-4.1-1.23-4.1,9.86-10.64,17.28-7.29,20.47-4.96,3.22,2.32,2.57,20.05,2.57,20.05Z"/>
      <ellipse class="cls-2" cx="92.11" cy="104.78" rx="6.19" ry="6.21"/>
      <path class="cls-20" d="M91.82,108.91c-1.79-.15-3.16-1.96-3-3.95.16-1.99,1.81-3.54,3.6-3.39,1.79.15,3.16,1.95,3,3.94-.16,1.99-1.81,3.55-3.6,3.4Z"/>
      <path class="cls-12" d="M91.98,108.2c-1.24-.11-2.53-1.47-2.4-3.16.14-1.69,1.63-2.83,2.88-2.73,1.24.11,2.53,1.48,2.39,3.17-.14,1.69-1.63,2.83-2.87,2.72Z"/>
      <path class="cls-10" d="M90.97,104.04c-.05.61-.68,1.05-1.39,1-.72-.06-1.26-.61-1.21-1.21.05-.61.67-1.06,1.39-1,.72.06,1.26.6,1.21,1.21Z"/>
      <path class="cls-10" d="M94.98,107.56c-.03.3-.34.53-.69.5-.36-.03-.63-.3-.61-.61.03-.3.34-.53.69-.5.36.03.63.3.61.61Z"/>
      <path class="cls-1" d="M111.73,143.91c-.22-.04-.43-.08-.61-.12.21.04.41.09.61.12Z"/>
      <path class="cls-1" d="M110.89,143.74c-.14-.03-.28-.06-.37-.09.12.03.24.06.37.09Z"/>
      <path class="cls-24" d="M111.12,143.79c-.08-.02-.15-.03-.23-.05.08.02.14.03.23.05Z"/>
      <path class="cls-24" d="M110.52,143.65c-.07-.02-.14-.04-.21-.06h0s.08.02.21.06Z"/>
      <path class="cls-1" d="M111.49,143.49c-.24-.04-.46-.08-.65-.12.22.05.44.09.65.12Z"/>
      <path class="cls-1" d="M110.59,143.31c-.15-.03-.3-.07-.4-.09.13.03.26.06.4.09Z"/>
      <path class="cls-21" d="M110.84,143.36c-.08-.02-.17-.03-.25-.05.08.02.15.03.25.05Z"/>
      <path class="cls-21" d="M110.19,143.22c-.08-.02-.15-.04-.22-.06h0s.09.03.23.06Z"/>
      <path class="cls-1" d="M111.3,142.86c-.24-.04-.46-.08-.65-.12.22.05.44.09.65.12Z"/>
      <path class="cls-1" d="M110.4,142.68c-.15-.03-.3-.07-.4-.09.13.03.26.06.4.09Z"/>
      <path class="cls-21" d="M110.65,142.73c-.08-.02-.17-.03-.25-.05.08.02.15.03.25.05Z"/>
      <path class="cls-21" d="M110.01,142.59c-.08-.02-.15-.04-.22-.06h0s.09.03.23.06Z"/>
      <path class="cls-1" d="M111.86,142.77c-.23-.04-.44-.08-.63-.12.21.05.42.09.63.12Z"/>
      <path class="cls-1" d="M110.99,142.6c-.14-.03-.29-.06-.38-.09.13.03.25.06.38.09Z"/>
      <path class="cls-21" d="M111.23,142.65c-.08-.02-.16-.03-.24-.05.08.02.15.03.24.05Z"/>
      <path class="cls-21" d="M110.6,142.51c-.07-.02-.14-.04-.21-.06h0s.08.03.22.06Z"/>
      <path class="cls-10" d="M148.22,96.9s-3.66,15.07-9.95,16.3c-6.29,1.23-13.09-1.22-13.09-1.22,0,0-.65-17.71,2.57-20.02,3.22-2.32,10.63-5.68,20.47,4.94Z"/>
      <path class="cls-23" d="M125.17,111.94s.14.04.47.18c.08-5.43.58-12.89,2.59-14.32,2.99-2.2,9.74-5.28,18.75,3.16.82-2.33,1.23-4.1,1.23-4.1-9.86-10.64-17.28-7.29-20.47-4.96-3.22,2.32-2.57,20.05-2.57,20.05Z"/>
      <path class="cls-2" d="M128.89,104.27c0,3.43,2.77,6.21,6.19,6.21s6.19-2.78,6.19-6.21-2.77-6.21-6.19-6.21-6.19,2.78-6.19,6.21Z"/>
      <path class="cls-20" d="M135.37,108.4c1.79-.15,3.16-1.96,3-3.95-.16-1.99-1.81-3.54-3.6-3.39-1.79.15-3.16,1.95-3,3.94.16,1.99,1.81,3.55,3.6,3.4Z"/>
      <path class="cls-12" d="M135.21,107.68c1.24-.11,2.53-1.47,2.4-3.16-.14-1.69-1.63-2.83-2.88-2.73-1.24.11-2.53,1.48-2.39,3.17.14,1.69,1.63,2.83,2.87,2.72Z"/>
      <path class="cls-10" d="M136.22,103.52c.05.61.68,1.05,1.39,1,.72-.06,1.26-.61,1.21-1.21-.05-.61-.67-1.06-1.39-1-.72.06-1.26.6-1.21,1.22Z"/>
      <path class="cls-10" d="M132.21,107.05c.03.3.34.53.69.5.36-.03.63-.3.61-.61-.03-.3-.34-.53-.69-.5-.36.03-.63.3-.61.61Z"/>
      <g>
        <path d="M105.79,97.17c-.05-.07-1.19-1.81-3.52-3.61-1.46-1.12-2.89-1.98-4.38-2.62-1.81-.76-3.75-1.3-5.63-1.56-1.7-.19-3.59-.14-5.8.16-1.68.32-3.32.82-4.71,1.44-.99.34-1.78.82-2.41,1.21-.24.15-.46.28-.68.4l-3,1.89,3.46-.82c.16-.04.34-.09.52-.14.72-.19,1.61-.43,2.65-.58.24-.04.49-.09.75-.14.44-.09.89-.18,1.36-.2.52-.04,1.07-.07,1.63-.11l.73-.05c1.92-.02,3.54.12,4.97.45,1.57.27,3.19.78,4.67,1.47,1.4.67,2.74,1.34,3.79,2.11,2.11,1.42,3.29,2.6,3.3,2.61h0c.29.29.68.44,1.07.44.28,0,.57-.08.82-.25.7-.46.89-1.4.45-2.08l-.03-.05Z"/>
        <path d="M148.83,92.59c-.2-.11-.42-.24-.66-.39-.63-.39-1.41-.87-2.38-1.2-1.42-.63-3.06-1.13-4.76-1.45-2.18-.29-4.07-.35-5.78-.15-1.87.26-3.82.8-5.63,1.56-1.46.63-2.94,1.51-4.38,2.62-2.29,1.76-3.43,3.47-3.51,3.6l-.02.03c-.39.6-.3,1.4.2,1.9.28.29.66.45,1.06.45h0c.4,0,.78-.16,1.06-.45h.01c.11-.12,1.25-1.24,3.3-2.62,1.03-.76,2.37-1.43,3.77-2.1,1.49-.69,3.1-1.2,4.7-1.48,1.42-.33,3.04-.47,4.93-.45l.76.05c.55.04,1.09.08,1.62.11.46.02.91.11,1.35.2.25.05.5.1.75.14,1.05.15,1.94.39,2.65.58.19.05.36.1.53.14l3.46.82-3.03-1.91Z"/>
      </g>
      <path class="cls-1" d="M110.67,145.7c-.23-.04-.45-.08-.64-.12.22.05.43.09.64.12Z"/>
      <path class="cls-1" d="M109.79,145.52c-.15-.03-.29-.07-.39-.09.13.03.26.06.39.09Z"/>
      <path class="cls-15" d="M110.03,145.57c-.08-.02-.16-.03-.24-.05.08.02.15.03.24.05Z"/>
      <path class="cls-15" d="M109.4,145.43c-.07-.02-.14-.04-.22-.06h0s.08.03.22.06Z"/>
      <path class="cls-13" d="M104.54,148.68c-.18-2.42,6.73.51,9,.58,1.81.06,7.25-.36,7.75-.55,3.8-1.43-.21,4.05-7.86,4.34-3.51.14-8.78-2.9-8.88-4.36Z"/>
      <path class="cls-8" d="M127.03,144.01c-1.88-.09-3.8,1.48-6.06,1.24-.09-.05-.14-.05-.23-.05-.52-.09-1.03,0-1.6.14-.7.15-1.41.43-2.07.66-1.13.37-2.4.66-3.7.56h0s-.05,0-.07,0-.05,0-.07,0h0c-1.31.09-2.58-.2-3.7-.57-.66-.23-1.37-.52-2.07-.66-.56-.14-1.08-.23-1.6-.14-.1,0-.14,0-.23.05-2.26.24-4.18-1.33-6.06-1.24-.52.05-1.27-.09-1.69-.09.09.05.19.09.28.14,5.35,2.61,9.96,7.51,15.07,7.35h.15c5.11.16,9.72-4.74,15.07-7.35.1-.05.19-.09.28-.14-.42,0-1.17.14-1.69.09Z"/>
      <path class="cls-7" d="M128.6,143.86h0s-5.44-2.1-9.3-.87c0,0-1.44.56-2.93.91-.91.35-2.01.46-3.07.41h0c-.81-.03-1.59-.14-2.22-.25-.21-.03-.42-.08-.64-.12-.09-.02-.16-.03-.24-.05-.13-.03-.26-.06-.39-.09-.14-.03-.22-.06-.22-.06h0c-1.24-.34-2.3-.75-2.3-.75-3.87-1.23-9.3.87-9.3.87h0c-.07.03-.12.06-.12.06.42,0,1.17.14,1.69.09,1.88-.09,3.8,1.48,6.06,1.24.09-.05.14-.05.23-.05.52-.09,1.03,0,1.6.14.7.15,1.41.43,2.07.66,1.13.37,2.4.66,3.7.56h0s.05,0,.07,0,.05,0,.07,0h0c1.31.09,2.58-.2,3.7-.57.66-.23,1.37-.52,2.07-.66.56-.14,1.08-.23,1.6-.14.1,0,.14,0,.23.05,2.26.24,4.18-1.33,6.06-1.24.52.05,1.27-.09,1.69-.09,0,0-.05-.02-.12-.06Z"/>
      <path class="cls-7" d="M104.17,145.14c.1.02,10.19,3.11,18.08.07l-.91-.61h-10.66l-6.5.55Z"/>
      <path class="cls-18" d="M153.7,50.03c-11.07-11.04-27.33-16.41-27.33-16.41l4.51,3.99c-2.7-1.95-7.51-4.66-15.54-7.04-11.43-3.39-18.83.39-18.83.39,0,0,5.97-.19,8.89,2.01-2.88-1.17-7.86-1.57-16.16,1.65-16.26,6.32-15.97,17.63-27.28,21.09-11.58,3.56-14.94-1.01-14.94-1.01,0,0,5.02,8,13.95,8.02,1.44,0,1.59-.03,1.6-.04-.01.03-3.34,8.59-3.99,14.97-.66,6.53,1.39,10.99,2.02,23.21.55,10.44,3.48,5.09,6.98,12.79,1.18,2.58,1.23,5.48,1.23,5.48,1.3.3,4.7-6.27,2.26-17.69-1.59-7.41,6.27-35.5,25.23-30.02,1.83.53,3.42,1.14,4.87,1.78-18.11,17-6.89,41.16-6.89,41.16-.44-20.4,17.9-34.06,23.57-37.79.53-.29,1.08-.63,1.65-1.04,3.12-2.17,6.75-3.95,10.49-5,2.49,4.78,4.13,10.63,2.93,17.11,0,0,5.34-8.01,4.71-17.54,4.62,4.6,12.8,14.77,10.5,27.24,0,0,5.72-8.58,4.63-18.53,2.86,5,4.16,11.92,3.33,20.89-1.74,18.93,1.52,18.79,1.52,18.79.97,0-.07-5.04,3.18-8.51,3.25-3.47,8.21-15.17,8.21-26.85s-4.24-22.06-15.3-33.11Z"/>
      <path class="cls-14" d="M89.48,186.14s20.65,31.75,51.55,0v31.05h-51.55v-31.05Z"/>
      <path class="cls-10" d="M152.95,213.79c1.27,4.44-.63,8-1.98,9.81h-73.89c-1.34-1.81-3.24-5.37-1.96-9.81h-7.17c.63-6.4,1.89-11.76,3.53-16.24,3.93-10.71,10.07-16.45,15.12-19.51,3.44,10.76,13.03,35.95,27.34,36.07,8.46.08,18.59-8.64,30.07-34.32,4.45,3.35,9.27,8.81,12.56,17.76,1.64,4.48,2.92,9.84,3.53,16.24h-7.14Z"/>
    </g>
  </g>
</svg>