<?xml version="1.0" encoding="UTF-8"?>
<svg id="Layer_2" data-name="Layer 2" xmlns="http://www.w3.org/2000/svg" xmlns:xlink="http://www.w3.org/1999/xlink" viewBox="0 0 78.88 78.88">
  <defs>
    <style>
      .cls-1 {
        fill: none;
      }

      .cls-2 {
        fill: #48443b;
        opacity: .3;
      }

      .cls-3 {
        fill: #debaad;
      }

      .cls-4 {
        fill: #ededeb;
        opacity: .55;
      }

      .cls-5 {
        fill: #212625;
      }

      .cls-6 {
        fill: url(#linear-gradient-2);
      }

      .cls-7 {
        fill: #dcb9ac;
      }

      .cls-8 {
        fill: url(#linear-gradient);
      }

      .cls-9 {
        fill: #f1d4c8;
      }

      .cls-10 {
        fill: #1e1f1a;
        opacity: .4;
      }

      .cls-11 {
        fill: #b59376;
      }

      .cls-12 {
        fill: #4f6771;
      }

      .cls-13 {
        fill: #fff;
      }

      .cls-14 {
        fill: #3b3b36;
      }

      .cls-15 {
        fill: #9f4562;
      }

      .cls-16 {
        fill: #c6a095;
      }

      .cls-17 {
        fill: #502c24;
        opacity: .2;
      }

      .cls-18 {
        fill: #f0d4c7;
      }

      .cls-19 {
        fill: #f2f3f2;
      }

      .cls-20 {
        fill: #49443b;
      }
    </style>
    <linearGradient id="linear-gradient" x1="8.07" y1="9.19" x2="8.07" y2="12.86" gradientTransform="translate(23.01 24.01) rotate(4.72)" gradientUnits="userSpaceOnUse">
      <stop offset="0" stop-color="#29383e"/>
      <stop offset=".12" stop-color="#3d5059"/>
      <stop offset=".29" stop-color="#586f7d"/>
      <stop offset=".47" stop-color="#6d8799"/>
      <stop offset=".65" stop-color="#7c99ad"/>
      <stop offset=".82" stop-color="#85a3b9"/>
      <stop offset="1" stop-color="#89a7be"/>
    </linearGradient>
    <linearGradient id="linear-gradient-2" x1="-688.91" y1="66.73" x2="-688.91" y2="70.36" gradientTransform="translate(-645.31 24.01) rotate(175.28) scale(1 -1)" xlink:href="#linear-gradient"/>
  </defs>
  <g id="Layer_1-2" data-name="Layer 1">
    <g>
      <rect class="cls-15" width="78.88" height="78.88"/>
      <g>
        <path class="cls-9" d="M50.76,37.44c.02-2.29,1.46-4.28,3.61-5.43-.04.57-.09,1.13-.14,1.67,1.35-2.5,5.27-1.69,4.92,2.27-.35,3.82-5.92,5.75-5.83,5.3-.06.3-.13.6-.2.9-1.47-1.2-2.37-2.87-2.36-4.71Z"/>
        <path class="cls-3" d="M57.93,34.26c-.95-1.54-2.42-.89-2.79-.56-.39.36-.7.84-.47,1.75.13.51.66.55.52,1.33-.15.87-.55.92-.78,1.12-.23.19-.52.34-.66.71-.14.36-.17.75-.1,1.09.15.63,1.06.14,1.67-.14.4-.18,1.69-1.25,2.02-1.61.82-.91,1.21-2.67.58-3.7"/>
      </g>
      <g>
        <path class="cls-9" d="M26.07,37.44c-.02-2.29-1.46-4.28-3.61-5.43.04.57.09,1.13.14,1.67-1.35-2.5-5.27-1.69-4.92,2.27.35,3.82,5.92,5.75,5.83,5.3.06.3.13.6.2.9,1.47-1.2,2.37-2.87,2.36-4.71Z"/>
        <path class="cls-3" d="M18.89,34.26c.94-1.54,2.42-.89,2.79-.56.39.36.7.84.47,1.75-.13.51-.66.55-.52,1.33.15.87.55.92.78,1.12.23.19.52.34.66.71.14.36.17.75.1,1.09-.15.63-1.06.14-1.67-.14-.4-.18-1.69-1.25-2.02-1.61-.82-.91-1.21-2.67-.58-3.7"/>
      </g>
      <path class="cls-18" d="M64.69,78.88H12.42c0-.2.01-.39.01-.58,0,0,.12-6.31.4-6.87.55-2.2-.43-3.21,3.44-5.33.05-.01.9-.25,2.16-.62,2.64-.76,7.13-2.07,9.46-2.99h.03c.52-.24.95-.42,1.2-.58,0-.01.01-.01.01-.01.07-.04.1-.07.13-.1.01-.01.07-.05.09-.09.03-.04.08-.07.1-.1.08-.37,1.15-1.94,1.54-3.67.01-.03.03-.04.04-.06.09-.35.13-.7.16-1.05.01-.56.04-1.13.04-1.62.01-.29.03-.55.03-.8,0-.1,0-.21.01-.3,0-.1.01-.2.01-.29v-.08c.01-.24.01-.43.01-.58.01-.16.01-.25.01-.25,0,0-5.98-4.45-5.98-5.42,0,0,6.25.96,10.31,1.4.08.01.16.01.24.03.27.03.52.07.76.09.01,0,.05,0,.13.01.35.03.67.05.96.08.18.01.35.03.5.03.12.03.22.03.34.01.07,0,.13.01.2,0,.16-.01.35-.01.56-.03,0-.01.03-.01.04-.01.47-.03,1.06-.09,1.71-.17.05,0,.1-.01.16-.01h.01c4.04-.43,10.5-1.43,10.5-1.43,0,.97-5.95,5.42-5.95,5.42,0,0,0,.09.01.25,0,.08,0,.17.01.27-.01.03-.01.04,0,.07v.14s0,.09,0,.13c0,.18.01.39.01.62.03.68.05,1.53.08,2.42.01.18.01.35.04.52.03.17.07.34.1.52,0,.01.01.01.01.01,0,.01,0,.03.01.03h0c.38,1.76,1.48,3.34,1.57,3.71.01.01.01.03.01.04.03.03.05.04.08.07.03.04.08.08.08.09.09.08.22.16.4.25.07.03.1.05.17.08h.01c1.9.9,7.22,2.47,10.26,3.35,1.27.37,2.11.6,2.16.62,3.9,2.12,2.89,3.13,3.44,5.33.3.55.4,6.87.4,6.87,0,.18,0,.38.01.58Z"/>
      <path class="cls-16" d="M46.08,57.88c-.09-.35-.14-.7-.15-1.05-.04-1.18.17-2.75.15-3.49-2.25.88-4.79,1.84-7.06,1.84-.13.02-.31.02-.46.02s-.33,0-.46-.02c-2.26,0-4.57-.51-6.82-1.39-.01.73-.04,1.86-.09,3.04-.02.35-.06.7-.15,1.05,2.17,1.58,5.11,3.22,7.06,3.22.12.02.27.02.41.02h0s.04,0,.05,0c.02,0,.03,0,.05,0h0c.14,0,.29,0,.41-.03,1.95,0,4.89-1.64,7.06-3.22Z"/>
      <path class="cls-18" d="M56.74,26.29c-.01.13-.01.28-.03.43-.03.16-.04.33-.05.5-.03.22-.04.45-.08.66-.01.1-.03.22-.04.33-.04.26-.09.5-.13.76-.01.1-.04.21-.05.31-.05.22-.09.45-.16.67-.03.13-.07.27-.09.45-.04.12-.07.26-.1.38-.17.62-1.58,7.94-2.6,12.69-.42,1.98-.77,3.51-.94,3.94-.96,2.41-7.19,6.85-11.21,8.74-.01.01-.04.01-.05.03-1.14.55-2.11.86-2.69.86h-.08c-.64-.01-1.57-.3-2.64-.79-.05-.04-.12-.07-.18-.09-4.13-1.86-10.31-6.34-11.26-8.75-.18-.46-.56-2.22-1-4.42-.94-4.75-2.17-11.63-2.34-12.22-.04-.12-.07-.26-.1-.38-.03-.17-.07-.31-.09-.45-.06-.22-.1-.45-.16-.67-.01-.11-.04-.21-.05-.31-.04-.26-.09-.5-.13-.76-.01-.1-.03-.22-.04-.33-.04-.21-.05-.43-.08-.66-.01-.17-.03-.34-.05-.5-.01-.16-.01-.3-.03-.43-.17-3.43.56-6.92,2.8-10.06,2.71-3.8,5.82-7.83,12.58-8.38h5.7c6.76.55,9.88,4.59,12.58,8.38,2.24,3.14,2.97,6.63,2.8,10.06Z"/>
      <path class="cls-7" d="M35.54,45.07c-.06-1.23,2.25-.45,3.01-.41.6.03,2.43-.39,2.59-.28,1.08.73-1.14,2.19-2.63,2.19-.4,0-2.94-.76-2.97-1.5Z"/>
      <path class="cls-20" d="M34.73,33.34s-.48-.35-1.25-.73c-.38-.19-.84-.38-1.33-.54-.25-.09-.51-.15-.77-.21-.26-.08-.54-.1-.81-.15-.27-.05-.55-.05-.82-.08-.27,0-.54,0-.81,0-.26.02-.52.04-.76.06-.24.02-.47.07-.68.1-.43.05-.77.15-1.03.19-.25.05-.4.07-.4.07,0,0,.13-.07.35-.21.23-.12.55-.32.97-.46.21-.07.44-.17.69-.23.25-.05.52-.12.8-.16.28-.02.57-.06.87-.06.3.02.6.02.91.06.3.06.6.09.89.19.29.07.57.18.83.29.27.1.5.25.73.37.22.14.43.27.6.41.72.55,1.03,1.07,1.03,1.07Z"/>
      <path class="cls-13" d="M25.7,34.4s1.42,2.82,3.58,3.11c2.17.29,4.47-.09,4.47-.09,0,0,.03-3.26-1.09-3.72-1.13-.46-3.7-1.16-6.96.7Z"/>
      <path class="cls-8" d="M31.91,35.33c-.09.99-.94,1.74-1.9,1.67-.96-.07-1.66-.93-1.57-1.92.09-.99.94-1.74,1.9-1.67.96.07,1.66.93,1.56,1.92Z"/>
      <path class="cls-12" d="M30.08,36.43c-.51-.04-.9-.57-.84-1.16.06-.59.53-1.06,1.05-1.03.51.04.89.57.84,1.16-.06.59-.53,1.06-1.04,1.03Z"/>
      <path class="cls-5" d="M30.13,36.22c-.36-.03-.72-.43-.67-.93.05-.5.48-.85.84-.82.35.03.72.43.67.93-.05.5-.48.85-.84.82Z"/>
      <path class="cls-2" d="M33.76,37.4s-.05,0-.16.03c-.09-1-.34-2.38-1.04-2.67-1.05-.43-3.39-1.07-6.39.39-.31-.44-.46-.77-.46-.77,3.26-1.87,5.84-1.17,6.95-.71,1.13.46,1.1,3.73,1.1,3.73Z"/>
      <path class="cls-1" d="M25.7,34.4s1.42,2.81,3.58,3.11c2.17.29,4.47-.09,4.47-.09,0,0,.03-3.26-1.09-3.72-1.13-.46-3.7-1.15-6.96.71Z"/>
      <path class="cls-13" d="M29.86,34.98c-.02.18-.2.32-.4.3-.2-.01-.36-.17-.34-.36.02-.18.2-.32.4-.3.21.02.36.17.34.36Z"/>
      <path class="cls-13" d="M30.99,36.02c0,.09-.1.16-.2.15-.1,0-.18-.09-.17-.18,0-.09.1-.16.2-.15.1,0,.18.09.17.18Z"/>
      <path class="cls-20" d="M42.1,33.37s.31-.52,1.03-1.07c.17-.14.38-.27.6-.41.23-.12.46-.27.73-.37.26-.11.54-.22.83-.29.29-.09.59-.13.89-.18.3-.04.61-.04.9-.06.3,0,.59.04.87.06.28.04.55.11.8.16.25.05.48.15.69.22.43.13.75.34.97.45.22.13.35.2.35.2,0,0-.15-.03-.4-.07-.25-.04-.6-.14-1.03-.19-.21-.02-.44-.08-.68-.1-.24-.02-.49-.04-.76-.06-.26,0-.53,0-.8,0-.27.03-.55.03-.82.07-.27.04-.55.07-.81.14-.27.06-.53.12-.77.21-.5.16-.95.35-1.33.53-.77.37-1.25.72-1.25.72Z"/>
      <path class="cls-13" d="M51.15,34.57s-1.37,2.76-3.53,3.01c-2.16.26-4.47-.16-4.47-.16,0,0-.08-3.22,1.03-3.66,1.12-.44,3.68-1.09,6.97.8Z"/>
      <path class="cls-1" d="M51.15,34.57s-1.37,2.76-3.53,3.01c-2.16.26-4.47-.16-4.47-.16,0,0-.08-3.22,1.03-3.66,1.12-.44,3.68-1.09,6.97.8Z"/>
      <path class="cls-6" d="M45.13,35.3c.09.98.94,1.72,1.9,1.65.96-.07,1.66-.92,1.57-1.9-.09-.98-.94-1.72-1.9-1.65-.96.07-1.66.92-1.56,1.9Z"/>
      <path class="cls-12" d="M46.96,36.39c.51-.04.9-.56.84-1.15-.05-.59-.53-1.05-1.04-1.01-.51.04-.9.56-.84,1.15.05.59.53,1.05,1.04,1.01Z"/>
      <path class="cls-5" d="M46.92,36.17c.36-.03.72-.42.67-.92-.05-.5-.48-.84-.84-.81-.36.03-.72.42-.67.92.05.5.48.84.84.81Z"/>
      <path class="cls-2" d="M43.15,37.42s.05,0,.16.03c.07-.99.3-2.35,1-2.62,1.04-.41,3.37-1.01,6.39.48.3-.43.45-.75.45-.75-3.29-1.89-5.86-1.24-6.97-.81-1.12.44-1.04,3.66-1.04,3.66Z"/>
      <path class="cls-13" d="M46.56,34.96c-.02.18-.2.31-.4.3-.2-.02-.36-.17-.34-.35.02-.18.2-.31.4-.3.2.02.36.17.34.35Z"/>
      <path class="cls-13" d="M47.69,35.98c-.01.09-.1.16-.2.15-.1,0-.18-.09-.17-.18,0-.09.1-.16.2-.15.1,0,.18.09.17.18Z"/>
      <path class="cls-7" d="M42.5,50.94c-.57-.03-1.16-.16-1.85-.23-.03-.01-.04-.01-.07-.01-.16-.03-.32,0-.49.04-.21.05-.43.13-.63.2-.34.11-.73.2-1.13.17h0s-.01,0-.02,0-.01,0-.02,0h0c-.4.03-.79-.06-1.13-.17-.2-.07-.42-.16-.63-.2-.17-.04-.33-.07-.49-.04-.03,0-.04,0-.07.01-.69.07-1.28.2-1.85.23-.16.01-.39-.03-.52-.03.03.01.06.03.09.04,1.64.8,3.05,1.69,4.61,1.64h.04c1.56.05,2.97-.84,4.61-1.64.03-.01.06-.03.09-.04-.13,0-.36.04-.52.03Z"/>
      <path class="cls-1" d="M37.62,50.35c-.07-.01-.14-.03-.19-.04.07.01.13.03.19.04Z"/>
      <path class="cls-1" d="M37.35,50.3s-.09-.02-.12-.03c.04.01.08.02.12.03Z"/>
      <path class="cls-17" d="M42.98,50.9h0s-1.66-1.25-2.85-.87c0,0-.44.17-.9.28-.28.11-.61.14-.94.13h0c-.25,0-.49-.04-.68-.08-.06,0-.13-.02-.19-.04-.03,0-.05-.01-.07-.02-.04,0-.08-.02-.12-.03-.04-.01-.07-.02-.07-.02h0c-.38-.1-.7-.23-.7-.23-1.18-.38-2.85.87-2.85.87h0s-.04.02-.04.02c.13,0,.36.04.52.03.57-.03,1.16-.16,1.85-.23.03-.01.04-.01.07-.01.16-.03.32,0,.49.04.21.05.43.13.63.2.34.11.73.2,1.13.17h0s.01,0,.02,0,.01,0,.02,0h0c.4.03.79-.06,1.13-.17.2-.07.42-.16.63-.2.17-.04.33-.07.49-.04.03,0,.04,0,.07.01.69.07,1.28.2,1.85.23.16.01.39-.03.52-.03,0,0-.01,0-.04-.02Z"/>
      <path class="cls-11" d="M37.42,50.31s-.05-.01-.07-.02c.02,0,.05,0,.07.02Z"/>
      <path class="cls-11" d="M37.23,50.27s-.04-.01-.07-.02h0s.03,0,.07.02Z"/>
      <path class="cls-1" d="M38.56,70.46c2.83,0,5.36-1.27,7.1-3.29h-14.2c1.74,2.01,4.27,3.29,7.1,3.29Z"/>
      <path class="cls-13" d="M60.11,72.68h4c-.1-.61-.62-1.57-1.2-2.49-.83-1.34-1.79-2.6-1.79-2.6-2.83-2.29-6.23-3.36-8.52-3.85-14.71,14.09-25.4,2.43-27.33.04-2.29.51-5.59,1.59-8.35,3.81,0,0-1.13,1.13-2.21,2.6-.57.78-1.13,1.65-1.5,2.49h4.74c.01.63.02,1.23.01,1.79-.01,1.99-.12,3.5-.22,4.42h42.57c-.1-.91-.21-2.43-.22-4.42,0-.56,0-1.15.02-1.79Z"/>
      <path class="cls-14" d="M26.33,58.84c-1.08.18-3.36.7-5.84,2.03-4.45,2.4-9.56,7.44-9.58,18.01h24.22v-18.07c-1.85-.8-3.68-1.53-4.09-2.28-.14-.26.16-1.09.15-1.59h-1.91c-1.19.88-2.96,1.95-2.95,1.9Z"/>
      <path class="cls-14" d="M42.32,60.65v18.23h23.86c-.02-10.56-5.13-15.61-9.59-18.01-2.48-1.33-4.76-1.85-5.84-2.03.01.05-1.76-1.02-2.95-1.9h-1.89c.04.47.12,1.47-.02,1.73-.39.7-1.84,1.21-3.59,1.98Z"/>
      <path class="cls-13" d="M60.99,45.95c-.44-1.44-.78-1.97-2.56-3.93-.03-.03-.05-.06-.08-.09-.2-.22-.37-.4-.51-.56-.86-.92-.82-.86-1.07-1.45-.1-.22-.23-.54-.48-1.05-.18-.38-.29-.72-.36-1.06-.24-1.19.11-2.21.28-3.61.3-.25.54-.44.64-.65.22-.5.38-2.71.38-3.95s-.34-8.53-2.05-12.61c-1.71-4.08-4.25-5.8-9.82-8.28-2.48-1.1-5.15-2.35-6.86-2.17-1.71-.17-4.39,1.08-6.86,2.17-5.57,2.48-8.12,4.2-9.82,8.28-1.71,4.08-2.05,11.37-2.05,12.61s.15,3.45.38,3.95c.09.21.34.39.64.64.17,1.4.52,2.43.28,3.61-.07.34-.18.69-.36,1.06-.25.51-.38.83-.48,1.05-.25.59-.22.52-1.07,1.45-.15.16-.31.34-.51.56-.03.03-.05.06-.08.09-1.78,1.96-2.12,2.49-2.56,3.93-.84,2.77.36,6.13.57,6.82.22.69-.86-4.8,2-5.7.55-.17,1-.37,1.39-.57.12,1.28.21,1.77-.14,3.12-.43,1.64-.3,2.97.35,4.35.64,1.38,2.17,1.84,2.17,1.84,0,0-1.64-1.06-1.03-3.18.41-1.42,1.18-2.05,1.61-3.25.12-.34.21-.67.28-.97.06.1.12.19.18.29.04.19.1.38.2.56.5.87,2.06,2.31,1.71,4.08-.97,4.94,1.04,6.3,1.33,6.9.28.61-.79-1.59-.08-3.42.41-1.06,1.02-1.43,1.66-1.82.39.68.68,1.46.51,2.32-.33,1.66-.31,2.91-.14,3.87.08.47.2.87.34,1.21.42,1.03.99,1.52,1.13,1.82.17.36-.14-.28-.27-1.24-.09-.65-.09-1.44.2-2.18.03-.08.07-.16.1-.24.7-.23,1.14-.29,1.14-.29.89,0,1.51-.97,1.95-2.52.13.17.26.35.4.54.04.06.08.11.12.17.91,1.35,1.67,3.09.59,4.17,0,0,1.4-.11,2.39-.91.64,1.06,1.21,2.24,1.65,3.52.06.18.13.36.19.55,0,0,0-.01.02-.03.01.02.02.03.02.03.06-.19.13-.36.19-.55.44-1.29,1.01-2.46,1.65-3.52,1,.8,2.39.91,2.39.91-1.08-1.08-.32-2.82.59-4.17.04-.06.08-.11.12-.17.13-.19.27-.37.4-.54.45,1.55,1.06,2.52,1.95,2.52,0,0,.44.05,1.14.29.04.08.07.15.1.24.29.74.28,1.53.2,2.18-.13.96-.44,1.6-.27,1.24.14-.3.72-.79,1.13-1.82.14-.34.25-.74.34-1.21.17-.96.18-2.21-.14-3.87-.17-.86.12-1.64.51-2.32.65.38,1.25.76,1.66,1.82.71,1.83-.36,4.03-.08,3.42.29-.6,2.29-1.96,1.33-6.9-.35-1.77,1.21-3.2,1.71-4.08.1-.17.16-.36.2-.56.06-.1.12-.19.18-.29.07.3.16.63.28.97.43,1.2,1.2,1.82,1.61,3.25.61,2.12-1.03,3.18-1.03,3.18,0,0,1.53-.46,2.17-1.84.64-1.38.77-2.71.35-4.35-.35-1.36-.26-1.85-.14-3.12.38.2.84.4,1.39.57,2.86.9,1.78,6.39,2,5.7.21-.69,1.41-4.05.57-6.82ZM43.45,54.26c-.07.02-.14.05-.21.07,0,0,0,0,0,0-.24.08-.5.15-.78.22-.98.23-2.14.37-3.39.4-.06,0-.12,0-.19,0-.06,0-.12,0-.19,0,0,0-.01,0-.02,0,0,0-.01,0-.02,0-.04,0-.07,0-.1,0h0s-.04,0-.06,0c-.02,0-.04,0-.06,0h0s-.07,0-.1,0c0,0-.01,0-.02,0s-.01,0-.02,0c-.06,0-.12,0-.19,0-.06,0-.12,0-.19,0-1.25-.03-2.41-.17-3.39-.4-.28-.07-.53-.14-.78-.22,0,0,0,0,0,0-.07-.02-.14-.04-.21-.07-1.2-.42-1.94-1-1.94-1.64,0-.72.94-1.37,2.42-1.79.06-.02.11-.03.17-.05,1.04-.28,2.33-.46,3.74-.49.06,0,.12,0,.19,0,.06,0,.12,0,.19,0,0,0,.01,0,.02,0s.01,0,.02,0c.04,0,.07,0,.1,0h0s.04,0,.06,0c.02,0,.04,0,.06,0h0s.07,0,.1,0c0,0,.01,0,.02,0,0,0,.01,0,.02,0,.06,0,.12,0,.19,0,.06,0,.12,0,.19,0,1.41.03,2.69.21,3.74.49.06.02.11.03.17.05,1.48.43,2.42,1.07,2.42,1.79,0,.64-.74,1.22-1.94,1.64ZM54.07,37.6c-.22.85-.38,2.47-.53,4.04-1.36,2.63-3.9,6.21-7.72,6.63-.46-.89-1.21-1.61-2.08-1.88h0c-1.38-.01-3.02-.03-4.66-.06-.06,0-.12,0-.19,0-.07,0-.14,0-.21,0-.04,0-.08,0-.13,0h0s-.04,0-.06,0c-.02,0-.04,0-.06,0h0s-.08,0-.13,0c-.07,0-.14,0-.21,0-.06,0-.12,0-.19,0-1.65.03-3.28.05-4.66.06h0c-.87.26-1.61.99-2.08,1.88-3.83-.42-6.36-4-7.72-6.63-.15-1.57-.31-3.18-.53-4.04-.04-.15-.07-.3-.11-.45.01,0,.02-.01.02-.01,0,0-.23-1.48-.46-3.15,0,0,3.77-14.65,10.08-10.71,1.18,1.19,2.92,2.05,4.94,2.32.36.05.74.07,1.11.09.38-.01.75-.04,1.11-.09,2.02-.27,3.76-1.13,4.94-2.32,6.31-3.95,10.08,10.71,10.08,10.71-.23,1.67-.46,3.15-.46,3.15,0,0,0,0,.02.01-.04.15-.07.3-.11.45Z"/>
      <path class="cls-13" d="M32.94,51.21s.4,2.07,5.76,2.76c0,0,3.76-.27,5.34-2.76l.96-.24,1.84,2.37-1.71,2.56-7.89.53h-4.43l-2.62-1.47v-2.34l2.76-1.41Z"/>
      <g>
        <path class="cls-10" d="M35.74,38.14c.15-.51.23-1.05.23-1.6,0-3.14-2.55-5.68-5.69-5.68s-5.69,2.54-5.69,5.68c0,.7.13,1.36.36,1.98,2.59-1.15,6.65-2.22,10.79-.38Z"/>
        <path class="cls-10" d="M52.37,39.36c.48-.83.76-1.8.76-2.83,0-3.14-2.55-5.68-5.69-5.68s-5.69,2.54-5.69,5.68c0,1.1.32,2.12.86,2.99,2.56-1.31,6.07-2.16,9.77-.16Z"/>
        <path class="cls-10" d="M36.63,38.58c-.02.06-.03.11-.05.17.03-.05.06-.1.09-.15-.01,0-.02-.01-.03-.02Z"/>
        <path class="cls-4" d="M36.63,38.58c-.02.06-.03.11-.05.17.03-.05.06-.1.09-.15-.01,0-.02-.01-.03-.02Z"/>
        <path class="cls-10" d="M30.28,42.22c2.59,0,4.77-1.72,5.46-4.08-4.14-1.84-8.2-.78-10.79.38.81,2.16,2.89,3.7,5.33,3.7Z"/>
        <path class="cls-4" d="M30.28,42.22c2.59,0,4.77-1.72,5.46-4.08-4.14-1.84-8.2-.78-10.79.38.81,2.16,2.89,3.7,5.33,3.7Z"/>
        <path class="cls-10" d="M41.65,40.05c.09.13.18.24.28.35-.09-.12-.17-.24-.25-.37,0,0-.02.01-.03.01Z"/>
        <path class="cls-4" d="M41.65,40.05c.09.13.18.24.28.35-.09-.12-.17-.24-.25-.37,0,0-.02.01-.03.01Z"/>
        <path class="cls-10" d="M47.43,42.22c2.11,0,3.95-1.15,4.93-2.85-3.7-2-7.21-1.15-9.77.16,1,1.61,2.79,2.69,4.84,2.69Z"/>
        <path class="cls-4" d="M47.43,42.22c2.11,0,3.95-1.15,4.93-2.85-3.7-2-7.21-1.15-9.77.16,1,1.61,2.79,2.69,4.84,2.69Z"/>
        <path class="cls-19" d="M53.92,34.94s-.05,0-.08,0c-.4-1.62-1.39-3-2.72-3.91-1.07-.73-2.36-1.16-3.76-1.16s-2.57.39-3.6,1.06c-1.79,1.15-2.99,3.13-3.07,5.39-.21-.1-.44-.17-.68-.23-.66-.17-1.41-.19-2.14-.07-.31.05-.62.13-.92.24-.12-2.9-2.09-5.32-4.76-6.12-.61-.18-1.25-.28-1.91-.28-.75,0-1.47.13-2.15.36-2.14.73-3.79,2.51-4.33,4.72-.03,0-.06,0-.09,0-.33,0-.61.27-.61.6v1.78c0,.33.27.6.61.6.02,0,.03,0,.05,0,.01.06.03.12.04.18.5,2.1,1.99,3.81,3.95,4.61.78.32,1.63.5,2.53.5,1.78,0,3.39-.7,4.59-1.83.76-.72,1.35-1.62,1.71-2.63.02-.06.04-.11.05-.17.16-.5.27-1.02.31-1.57.28-.12.58-.21.88-.27.76-.16,1.55-.13,2.21.08.24.08.48.18.68.31.09,1.06.44,2.05.97,2.91.08.13.16.25.25.37,1.21,1.69,3.19,2.8,5.43,2.8.64,0,1.25-.09,1.83-.26,1.61-.46,2.98-1.51,3.84-2.91.4-.64.69-1.36.85-2.12.01,0,.02,0,.04,0,.33,0,.6-.27.6-.6v-1.78c0-.33-.27-.6-.6-.6ZM35.74,38.14c-.69,2.36-2.87,4.08-5.46,4.08-2.45,0-4.53-1.54-5.33-3.7-.23-.62-.36-1.28-.36-1.98,0-3.14,2.55-5.68,5.69-5.68s5.69,2.54,5.69,5.68c0,.56-.08,1.09-.23,1.6ZM52.37,39.36c-.98,1.7-2.82,2.85-4.93,2.85s-3.83-1.08-4.84-2.69c-.54-.87-.86-1.89-.86-2.99,0-3.14,2.55-5.68,5.69-5.68s5.69,2.54,5.69,5.68c0,1.03-.28,1.99-.76,2.83Z"/>
      </g>
    </g>
  </g>
</svg>