<?xml version="1.0" encoding="UTF-8"?>
<svg id="Layer_2" data-name="Layer 2" xmlns="http://www.w3.org/2000/svg" xmlns:xlink="http://www.w3.org/1999/xlink" viewBox="0 0 221.48 223.6">
  <defs>
    <style>
      .cls-1 {
        fill: none;
      }

      .cls-2 {
        fill: #462e1b;
      }

      .cls-3 {
        fill: url(#Névtelen_színátmenet_2-4);
      }

      .cls-3, .cls-4 {
        opacity: .62;
      }

      .cls-4 {
        fill: url(#Névtelen_színátmenet_2-2);
      }

      .cls-5 {
        fill: url(#Névtelen_színátmenet_2-3);
      }

      .cls-5, .cls-6 {
        opacity: .66;
      }

      .cls-7 {
        fill: #ba9d82;
      }

      .cls-8 {
        fill: #ccad8a;
      }

      .cls-9 {
        fill: #44361f;
      }

      .cls-10 {
        fill: #d7bd9d;
      }

      .cls-6 {
        fill: url(#Névtelen_színátmenet_2);
      }

      .cls-11 {
        fill: #e5b344;
      }

      .cls-12 {
        fill: #c1a587;
      }

      .cls-13 {
        fill: #dac6a4;
      }

      .cls-14 {
        fill: #fff;
      }

      .cls-15 {
        fill: #dcc5a0;
      }

      .cls-16 {
        fill: #272213;
      }

      .cls-17 {
        fill: #ecdab6;
      }

      .cls-18 {
        fill: #3c3d39;
      }

      .cls-19 {
        fill: #b8987d;
      }

      .cls-20 {
        fill: #90463e;
      }

      .cls-21 {
        fill: #ebd9b5;
      }

      .cls-22 {
        fill: #b05d53;
      }

      .cls-23 {
        fill: #a98d76;
      }

      .cls-24 {
        fill: #743d36;
      }

      .cls-25 {
        fill: #714223;
      }

      .cls-26 {
        fill: #b7967d;
      }

      .cls-27 {
        clip-path: url(#clippath);
      }

      .cls-28 {
        fill: #d2bb9b;
      }

      .cls-29 {
        fill: #b5957e;
      }
    </style>
    <clipPath id="clippath">
      <rect class="cls-1" x="98.51" y="154.44" width="25.1" height="14.8"/>
    </clipPath>
    <linearGradient id="Névtelen_színátmenet_2" data-name="Névtelen színátmenet 2" x1="84.54" y1="134.76" x2="84.74" y2="98.12" gradientUnits="userSpaceOnUse">
      <stop offset="0" stop-color="#fff"/>
      <stop offset="1" stop-color="#6189ae"/>
    </linearGradient>
    <linearGradient id="Névtelen_színátmenet_2-2" data-name="Névtelen színátmenet 2" x1="81.45" y1="139.82" x2="89.14" y2="67.93" xlink:href="#Névtelen_színátmenet_2"/>
    <linearGradient id="Névtelen_színátmenet_2-3" data-name="Névtelen színátmenet 2" x1="135.93" y1="135.04" x2="136.13" y2="98.4" xlink:href="#Névtelen_színátmenet_2"/>
    <linearGradient id="Névtelen_színátmenet_2-4" data-name="Névtelen színátmenet 2" x1="132.09" y1="145.23" x2="139.78" y2="73.34" xlink:href="#Névtelen_színátmenet_2"/>
  </defs>
  <g id="Layer_1-2" data-name="Layer 1">
    <g>
      <rect class="cls-11" width="221.48" height="223.6"/>
      <path class="cls-15" d="M110.97,139.24v83.76h-45.31c-.74-.29-1.11-.44-1.11-.44,0-10.69,1.57-19.03,3.96-25.53,5.77-15.69,16.32-20.67,21.18-22.18,1.59-.49,2.58-.61,2.58-.61.17,0,.33-.02.5-.04,1.43-.23,2.59-1.47,3.51-3.45.69-1.47,1.27-3.34,1.74-5.51.19-.85.33-1.7.48-2.62.22-1.55.44-3.17.63-4.87.07-1.03.18-2.03.29-3.1.4-5.12.52-10.73.52-16.05,0,0,6.08.63,11.02.63Z"/>
      <path class="cls-21" d="M157.57,222.55s-.41.15-1.07.44h-45.53v-83.76h.11c4.9,0,11.06-.63,11.06-.63,0,5.27.11,10.81.51,15.93.11,1,.22,2.03.29,3.02.19,1.77.41,3.43.67,4.98v.03c.07.7.22,1.33.33,1.99.45,2.18.99,4.1,1.64,5.63.81,1.91,1.8,3.25,3.01,3.77.38.17.79.26,1.21.26,0,0,1.74.21,4.36,1.24,5.33,2.09,14.29,7.57,19.44,21.55,2.39,6.5,3.96,14.84,3.96,25.53Z"/>
      <g class="cls-27">
        <path class="cls-7" d="M123.61,162.39v.04c-1.14,1.76-4.98,6.82-12.57,6.82h-.07c-7.19-.04-11.39-5.24-12.46-6.78.22-1.54.44-3.15.63-4.84.07-.99.18-2.02.3-3.08,3.5.88,7.34,1.43,11.39,1.5h.15c4.2-.07,8.07-.66,11.69-1.61.11.99.22,2.02.29,3,.18,1.76.41,3.41.66,4.95"/>
      </g>
      <path class="cls-8" d="M110.45,43.78c-48,0-48.26,40.12-46.12,66.39-3.28-6.23-13.05-4.32-12.24,5.5.77,9.45,14.73,14.27,14.34,13.23,7.27,19.43,26.51,34.08,44.02,34.08h.37V43.78h-.37"/>
      <path class="cls-23" d="M55.16,111.53c2.36-3.81,6.05-2.16,6.93-1.32.96.92,1.73,2.09,1.14,4.32-.33,1.28-1.66,1.39-1.36,3.3.37,2.16,1.36,2.27,1.95,2.78.55.48,1.25.84,1.59,1.76.37.92.41,1.87.22,2.71-.37,1.54-2.62.29-4.13-.37-1-.48-4.17-3.15-4.98-4.03-1.99-2.27-2.95-6.67-1.36-9.16"/>
      <path class="cls-10" d="M110.71,43.78c48,0,48.26,40.12,46.15,66.39,3.28-6.23,13.01-4.32,12.2,5.5-.74,9.45-14.72,14.27-14.34,13.23-7.08,19.43-26.51,34.08-44.02,34.08h-.26l-.11-119.19h.37"/>
      <path class="cls-23" d="M166.01,111.53c-2.36-3.81-6.01-2.16-6.93-1.32-.96.92-1.7,2.09-1.14,4.32.33,1.28,1.66,1.39,1.36,3.3-.37,2.16-1.36,2.27-1.92,2.78-.55.48-1.29.84-1.62,1.76-.33.92-.41,1.87-.22,2.71.37,1.54,2.62.29,4.13-.37,1.03-.48,4.17-3.15,4.98-4.03,2.03-2.27,2.95-6.67,1.36-9.16"/>
      <path class="cls-15" d="M110.08,55.1c-15.78,0-27.35,4.58-34.32,13.59-9.77,12.64-9.4,31.91-5.82,45.76,1.11,4.25,1.7,15.65,2.43,19.82,3.43,18.72,24.11,28.69,37.71,28.69h.37V55.1h-.22"/>
      <path class="cls-21" d="M144.36,68.74c-6.93-8.98-18.36-13.56-33.92-13.63v107.87c15.56-.18,34.17-11.1,37.34-28.69.77-4.18,1.33-15.57,2.43-19.82,3.61-13.81,3.98-33.05-5.86-45.73"/>
      <path class="cls-1" d="M108.52,139.93c-.22-.04-.42-.08-.59-.11.2.04.4.08.59.11Z"/>
      <path class="cls-1" d="M107.7,143.81c-.14-.03-.27-.06-.36-.08.12.03.24.05.36.08Z"/>
      <path class="cls-26" d="M107.93,143.85c-.08-.02-.15-.03-.23-.05.07.02.14.03.23.05Z"/>
      <path class="cls-26" d="M107.34,143.72c-.07-.02-.13-.04-.2-.06h0s.08.02.21.06Z"/>
      <path class="cls-10" d="M101.38,129.86c-.18-3.73,6.85-1.36,9.16-1.25,1.83.09,7.4-1.17,7.88-.85,3.28,2.21-3.47,6.66-8,6.66-1.21,0-8.94-2.32-9.05-4.57Z"/>
      <path class="cls-1" d="M67.41,88.73c-.43,1.43-.73,2.99-.93,4.66,0,0,.63-2.63,2.03-6.52-.6.83-1,1.5-1.1,1.86Z"/>
      <path class="cls-9" d="M97.04,55.37l-.2.2.03.07c.07-.1.1-.2.17-.27Z"/>
      <path class="cls-1" d="M108.67,141.78c-.22-.04-.43-.08-.61-.12.21.04.41.08.61.12Z"/>
      <path class="cls-1" d="M107.83,141.62c-.14-.03-.28-.06-.37-.08.12.03.24.06.37.08Z"/>
      <path class="cls-29" d="M108.06,141.67c-.08-.02-.15-.03-.23-.05.08.02.14.03.23.05Z"/>
      <path class="cls-29" d="M107.46,141.53c-.07-.02-.14-.04-.21-.06h0s.08.02.21.06Z"/>
      <path class="cls-14" d="M76.01,97.21s3.66,15.02,9.95,16.25c6.29,1.23,13.09-1.21,13.09-1.21,0,0,.65-17.65-2.57-19.96-3.22-2.32-10.63-5.66-20.47,4.92Z"/>
      <path class="cls-28" d="M99.06,112.2s-.14.04-.47.18c-.08-5.42-.58-12.85-2.59-14.28-2.99-2.19-9.74-5.27-18.75,3.16-.82-2.33-1.23-4.09-1.23-4.09,9.86-10.61,17.28-7.27,20.47-4.95,3.22,2.32,2.57,19.99,2.57,19.99Z"/>
      <path class="cls-2" d="M95.34,104.55c0,3.42-2.77,6.19-6.19,6.19s-6.19-2.77-6.19-6.19,2.77-6.19,6.19-6.19,6.19,2.77,6.19,6.19Z"/>
      <path class="cls-25" d="M88.86,108.67c-1.79-.15-3.16-1.95-3-3.93.16-1.98,1.81-3.53,3.6-3.38,1.79.15,3.16,1.95,3,3.93-.16,1.98-1.81,3.54-3.6,3.39Z"/>
      <path class="cls-16" d="M89.02,107.95c-1.24-.11-2.53-1.47-2.4-3.15.14-1.69,1.63-2.82,2.88-2.72,1.24.11,2.53,1.48,2.39,3.16-.14,1.68-1.63,2.82-2.87,2.72Z"/>
      <path class="cls-14" d="M88.01,103.81c-.05.61-.68,1.05-1.39.99-.72-.06-1.26-.6-1.21-1.21.05-.61.67-1.05,1.39-1,.72.06,1.26.6,1.21,1.21Z"/>
      <path class="cls-14" d="M92.02,107.32c-.03.3-.34.53-.69.5-.36-.03-.63-.3-.61-.6.03-.3.34-.53.69-.5.36.03.63.3.61.6Z"/>
      <path class="cls-1" d="M108.77,143.55c-.22-.04-.43-.08-.61-.12.21.04.41.08.61.12Z"/>
      <path class="cls-1" d="M107.92,143.39c-.14-.03-.28-.06-.37-.08.12.03.24.06.37.08Z"/>
      <path class="cls-29" d="M108.16,143.44c-.08-.02-.15-.03-.23-.05.08.02.14.03.23.05Z"/>
      <path class="cls-29" d="M107.56,143.3c-.07-.02-.14-.04-.21-.06h0s.08.02.21.06Z"/>
      <path class="cls-1" d="M108.53,143.14c-.24-.04-.46-.08-.65-.12.22.05.44.09.65.12Z"/>
      <path class="cls-1" d="M107.63,142.96c-.15-.03-.3-.07-.4-.09.13.03.26.06.4.09Z"/>
      <path class="cls-26" d="M107.88,143.01c-.08-.02-.17-.03-.25-.05.08.02.15.03.25.05Z"/>
      <path class="cls-26" d="M107.23,142.87c-.08-.02-.15-.04-.22-.06h0s.09.03.23.06Z"/>
      <path class="cls-1" d="M108.34,142.51c-.24-.04-.46-.08-.65-.12.22.05.44.09.65.12Z"/>
      <path class="cls-1" d="M107.44,142.33c-.15-.03-.3-.07-.4-.09.13.03.26.06.4.09Z"/>
      <path class="cls-26" d="M107.69,142.38c-.08-.02-.17-.03-.25-.05.08.02.15.03.25.05Z"/>
      <path class="cls-26" d="M107.05,142.24c-.08-.02-.15-.04-.22-.06h0s.09.03.23.06Z"/>
      <path class="cls-1" d="M108.9,142.42c-.23-.04-.44-.08-.63-.12.21.05.42.09.63.12Z"/>
      <path class="cls-1" d="M108.02,142.25c-.14-.03-.29-.06-.38-.09.13.03.25.06.38.09Z"/>
      <path class="cls-26" d="M108.26,142.3c-.08-.02-.16-.03-.24-.05.08.02.15.03.24.05Z"/>
      <path class="cls-26" d="M107.64,142.16c-.07-.02-.14-.04-.21-.06h0s.08.03.22.06Z"/>
      <path class="cls-14" d="M145.25,96.7s-3.66,15.02-9.95,16.25c-6.29,1.23-13.09-1.21-13.09-1.21,0,0-.65-17.65,2.57-19.96,3.22-2.32,10.63-5.66,20.47,4.92Z"/>
      <path class="cls-28" d="M122.21,111.69s.14.04.47.18c.08-5.41.58-12.85,2.59-14.28,2.99-2.19,9.74-5.27,18.75,3.16.82-2.33,1.23-4.09,1.23-4.09-9.86-10.61-17.28-7.27-20.47-4.95-3.22,2.32-2.57,19.99-2.57,19.99Z"/>
      <path class="cls-2" d="M125.93,104.04c0,3.42,2.77,6.19,6.19,6.19s6.19-2.77,6.19-6.19-2.77-6.19-6.19-6.19-6.19,2.77-6.19,6.19Z"/>
      <path class="cls-25" d="M132.4,108.16c1.79-.15,3.16-1.95,3-3.93-.16-1.98-1.81-3.53-3.6-3.38-1.79.15-3.16,1.95-3,3.93.16,1.98,1.81,3.54,3.6,3.39Z"/>
      <path class="cls-16" d="M132.25,107.44c1.24-.11,2.53-1.47,2.4-3.15-.14-1.69-1.63-2.82-2.88-2.72-1.24.11-2.53,1.48-2.39,3.16.14,1.68,1.63,2.82,2.87,2.72Z"/>
      <path class="cls-14" d="M133.26,103.3c.05.61.68,1.05,1.39.99.72-.06,1.26-.6,1.21-1.21-.05-.61-.67-1.05-1.39-1-.72.06-1.26.6-1.21,1.21Z"/>
      <path class="cls-14" d="M129.24,106.81c.03.3.34.53.69.5.36-.03.63-.3.61-.6-.03-.3-.34-.53-.69-.5-.36.03-.63.3-.61.6Z"/>
      <g>
        <path d="M102.83,96.97c-.05-.07-1.19-1.81-3.52-3.6-1.46-1.12-2.89-1.97-4.38-2.61-1.81-.76-3.75-1.3-5.63-1.55-1.7-.19-3.59-.14-5.8.16-1.68.32-3.32.82-4.71,1.43-.99.34-1.78.82-2.41,1.21-.24.15-.46.28-.68.4l-3,1.89,3.46-.81c.16-.04.34-.09.52-.14.72-.19,1.61-.43,2.65-.58.24-.04.49-.08.75-.14.44-.09.89-.18,1.36-.2.52-.03,1.07-.07,1.63-.11l.73-.05c1.92-.02,3.54.12,4.97.45,1.57.27,3.19.78,4.67,1.46,1.4.67,2.74,1.33,3.79,2.1,2.11,1.41,3.29,2.59,3.3,2.6h0c.29.29.68.44,1.07.44.28,0,.57-.08.82-.24.7-.46.89-1.4.45-2.07l-.03-.05Z"/>
        <path d="M145.87,92.4c-.2-.11-.42-.24-.66-.39-.63-.39-1.41-.87-2.38-1.2-1.42-.63-3.06-1.13-4.76-1.45-2.18-.29-4.07-.34-5.78-.15-1.87.26-3.82.79-5.63,1.55-1.46.63-2.94,1.5-4.38,2.61-2.29,1.76-3.43,3.46-3.51,3.59l-.02.03c-.39.6-.3,1.39.2,1.89.28.29.66.44,1.06.44h0c.4,0,.78-.16,1.06-.44h.01c.11-.12,1.25-1.24,3.3-2.61,1.03-.76,2.37-1.42,3.77-2.09,1.49-.69,3.1-1.2,4.7-1.47,1.42-.33,3.04-.47,4.93-.45l.76.05c.55.04,1.09.08,1.62.11.46.02.91.11,1.35.2.25.05.5.1.75.14,1.05.15,1.94.39,2.65.58.19.05.36.1.53.14l3.46.81-3.03-1.9Z"/>
      </g>
      <path class="cls-1" d="M107.71,145.34c-.23-.04-.45-.08-.64-.12.22.05.43.09.64.12Z"/>
      <path class="cls-1" d="M106.83,145.16c-.15-.03-.29-.07-.39-.09.13.03.26.06.39.09Z"/>
      <path class="cls-19" d="M107.07,145.22c-.08-.02-.16-.03-.24-.05.08.02.15.03.24.05Z"/>
      <path class="cls-19" d="M106.44,145.08c-.07-.02-.14-.04-.22-.06h0s.08.03.22.06Z"/>
      <path class="cls-17" d="M101.58,148.31c-.18-2.41,6.73.51,9,.58,1.81.06,7.25-.36,7.75-.55,3.8-1.42-.21,4.04-7.86,4.32-3.51.14-8.78-2.89-8.88-4.35Z"/>
      <path class="cls-13" d="M124.07,143.66c-1.88-.09-3.8,1.47-6.06,1.23-.09-.05-.14-.05-.23-.05-.52-.09-1.03,0-1.6.14-.7.15-1.41.43-2.07.66-1.13.37-2.4.66-3.7.56h0s-.05,0-.07,0-.05,0-.07,0h0c-1.31.09-2.58-.2-3.7-.57-.66-.23-1.37-.51-2.07-.66-.56-.14-1.08-.23-1.6-.14-.1,0-.14,0-.23.05-2.26.24-4.18-1.32-6.06-1.23-.52.05-1.27-.09-1.69-.09.09.05.19.09.28.14,5.35,2.61,9.96,7.49,15.07,7.33h.15c5.11.16,9.72-4.73,15.07-7.33.1-.05.19-.09.28-.14-.42,0-1.17.14-1.69.09Z"/>
      <path class="cls-12" d="M125.64,143.51h0s-5.44-2.09-9.3-.87c0,0-1.44.56-2.93.9-.91.35-2.01.46-3.07.41h0c-.81-.03-1.59-.14-2.22-.25-.21-.03-.42-.08-.64-.12-.09-.02-.16-.03-.24-.05-.13-.03-.26-.06-.39-.09-.14-.03-.22-.06-.22-.06h0c-1.24-.34-2.3-.75-2.3-.75-3.87-1.23-9.3.87-9.3.87h0c-.07.03-.12.06-.12.06.42,0,1.17.14,1.69.09,1.88-.09,3.8,1.47,6.06,1.23.09-.05.14-.05.23-.05.52-.09,1.03,0,1.6.14.7.15,1.41.43,2.07.66,1.13.37,2.4.66,3.7.56h0s.05,0,.07,0,.05,0,.07,0h0c1.31.09,2.58-.2,3.7-.57.66-.23,1.37-.51,2.07-.66.56-.14,1.08-.23,1.6-.14.1,0,.14,0,.23.05,2.26.24,4.18-1.32,6.06-1.23.52.05,1.27-.09,1.69-.09,0,0-.05-.02-.12-.06Z"/>
      <path class="cls-12" d="M101.2,144.78c.1.02,10.19,3.1,18.08.07l-.91-.61h-10.66l-6.5.54Z"/>
      <path class="cls-22" d="M157.56,223.6h-93.56c.02-2.61.11-5.08.28-7.41.26-3.64.71-6.97,1.29-10.01,5.99-31.16,27.03-32.73,27.03-32.73l12.13,8.17,5.96,4.01,5.4-3.58,13.09-8.64c18.24,4.22,24.9,20.02,27.26,32.77.69,3.71,1,7.17,1.14,10.01.21,4.47-.02,7.41-.02,7.41Z"/>
      <path class="cls-20" d="M119.1,194.75h20.41c-.15,2.25-3.47,4.31-3.8,6.19h-12.83c-.79-1.29-1.67-2.74-2.6-4.26-.39-.64-.78-1.28-1.18-1.93Z"/>
      <path class="cls-20" d="M80.34,194.75h20.14c-.4.65-.79,1.3-1.18,1.93-.92,1.52-1.81,2.96-2.6,4.26h-12.64c-.39-2.3-3.64-4.43-3.72-6.19Z"/>
      <g>
        <path class="cls-6" d="M102.44,115.56c-2.34,7.6-8.46,11.17-12.43,12.72-2.22.87-4.6,1.18-6.95.95-10.13-.99-14.41-7.13-16.22-12.26,5.74-3.33,22.36-11.34,35.61-1.41Z"/>
        <path class="cls-4" d="M104.29,104.67s-.08.1-.12.16l-.19.28c-.2.29-.48.45-.77.49.43,3.92.07,7.21-.78,9.96-13.25-9.93-29.87-1.92-35.61,1.41-1.06-3.02-1.27-5.7-1.31-6.76,1.18-9.37,8.63-16.76,17.96-17.76,0,0,.02,0,.02,0,.71-.07,1.42-.11,2.15-.11.07,0,.13,0,.2,0,.14,0,.27,0,.41,0h.02c.31,0,.63.02.94.05.17.01.34.03.51.05s.34.04.51.06c7.21.93,13.25,5.68,16.05,12.17Z"/>
        <path class="cls-5" d="M153.83,116.98c-1.81,5.13-6.1,11.26-16.21,12.25-2.36.23-4.74-.08-6.95-.95-3.97-1.56-10.1-5.12-12.44-12.73,13.26-9.92,29.88-1.89,35.6,1.44Z"/>
        <path class="cls-3" d="M155.16,109.72s.06,3.33-1.33,7.26c-5.72-3.33-22.35-11.35-35.6-1.44-.6-1.96-.95-4.18-.95-6.71,0-1.03.06-2.11.18-3.24-.29-.04-.57-.2-.76-.49l-.19-.28c-.12-.17-.26-.33-.42-.47,1.54-3.85,4.36-6.25,7.87-8.53,3.32-2.16,7.9-1.98,12.21-1.98,3.07,0,5.31-.8,7.94.35,6.65,2.91,11.46,8.21,12.14,15.53h-1.09Z"/>
        <path class="cls-14" d="M88.25,92.49c-.17-.02-.34-.04-.51-.06s-.34-.03-.51-.05c-.31-.03-.63-.04-.94-.05h-.02c-.14,0-.27,0-.41,0-.41,0-.81.01-1.21.05,0,0-.42.01-1.14.06,0,0-.02,0-.02,0-3.18.22-12.14,1.1-17.15,4.38-.53.35-1.11.59-1.73.73-1.34.29-3.73.78-5.31,1-.94.13-1.66.93-1.74,1.93-.1,1.35-.02,2.98.96,3.19,0,0,3.27-.44,3.79,4.15.12,1.09,1.02,1.9,2.06,1.9h1.14s0,.17.01.49c.1,2.86,1.44,17.45,17.53,19.02,2.36.23,4.74-.08,6.95-.95,5.41-2.12,14.81-7.96,13.21-22.68.29-.04.57-.2.77-.49l.19-.28c.04-.06.08-.11.12-.16.41-.53,1.02-.85,1.67-.91v-3.95s-9.22-6.24-17.72-7.32ZM101.87,113.2c-1.72,8.65-7.97,12.57-12.03,14.21-2.11.85-4.38,1.16-6.63.94-15.3-1.53-16.6-15.78-16.71-18.63v-.5s.65-11.78,12.03-14.12c1.79-.28,3.81-.41,6.12-.34,0,0,11.51-.56,16.39,8.11,1.82,3.67.98,9.4.83,10.33Z"/>
        <path class="cls-14" d="M163.11,100.47c-.08-1-.8-1.8-1.74-1.93-1.58-.21-3.97-.71-5.31-1-.61-.13-1.2-.38-1.73-.73-2.75-1.8-6.69-2.88-10.2-3.52-4.38-.8-8.12-.93-8.12-.93-3.92-.31-8.35.98-12.15,2.57-5.17,2.16-9.17,4.87-9.17,4.87v3.95c.51.04,1,.25,1.38.6.16.14.3.29.42.47l.19.28c.2.29.47.45.76.49-.12,1.13-.18,2.21-.18,3.24,0,12.36,8.39,17.49,13.39,19.44,2.22.87,4.6,1.18,6.95.95,17.85-1.74,17.54-19.51,17.54-19.51h1.14c1.04,0,1.94-.81,2.06-1.9.52-4.59,3.79-4.15,3.79-4.15.99-.21,1.07-1.84.96-3.19ZM154.17,109.72c-.1,2.85-1.41,17.1-16.71,18.63-2.25.22-4.52-.08-6.63-.94-4.06-1.64-10.31-5.56-12.03-14.21-.15-.93-.99-6.66.83-10.33,4.88-8.67,16.39-8.11,16.39-8.11,2.31-.07,4.33.06,6.12.34,11.38,2.35,12.04,14.12,12.04,14.12v.5Z"/>
        <rect class="cls-14" x="104.73" y="100.46" width="10.72" height="2.59"/>
        <path class="cls-14" d="M118.65,98.68c0,.35-3.83.64-8.55.64s-8.55-.29-8.55-.64,3.83-.64,8.55-.64,8.55.29,8.55.64Z"/>
      </g>
      <path class="cls-18" d="M175.31,94.62s-5.86-1.47-9.46-9.7c-3.59-8.22-2.3-11.45-3.65-16.43-1.31-4.81-4.1-8.2-6.37-10.22.13.07.25.13.39.21,9.68,5.08,10.13,9.57,10.15,10.13,0-.62-.2-10.05-8.96-15.77-2.09-1.37-4.82-2.68-7.68-3.85,12.54.4,21.01-6.06,21.01-6.06,0,0-14.07,5.6-28.32,0-8.34-3.28-18.05-9.09-23.24-9.09s-11.88,1.43-17.2,4.27c-4.33,2.29-8.58,5.87-10.36,5.87s-1.36.64-9.45,2.11c-8.1,1.48-11.8,1.07-22.14,11.4-10.34,10.35-10.27,37.35-10.27,37.35,0,0,.06-5.36,3.74-10.18,1.74-2.29,2.48-3.4,2.8-3.93-1.03,2.01-5.1,10.58-4.9,19.81.4,18.59-4.09,21.14-4.09,21.14,0,0,2.74-.44,6.57-4.53-.41,2.3-.62,4.44-.37,5.95,3.2,19.73-3.49,26.41-3.49,26.41,0,0,6.63-3.99,10.48-11.62,1.53-3.02,2.38-5.96,2.85-8.59.08,1.53.21,3.24.4,5.19.95,9.63-6.18,16.87-6.18,16.87,0,0,8.6-3.21,12.18-9.91.23,2.7.35,5.39.26,7.85-.21,6.32-2.86,7.98-2.86,7.98,3.77-2.12,6.01-6.41,7.46-12.47.74-3.09,1.28-6.64,1.7-10.62.11-1.03.21-2.09.31-3.17l.16-.18c-.04-.09-.08-.18-.12-.26.04-.37.07-.73.1-1.11.43-5,.55-12.44.55-20.04,0-2.79-.03-5.6-.06-8.33.77,1.9,1.59,3.76,2.37,5.59,1.48,3.46,2.01,8.01,2.01,8.01,0,0,4.63-7.47,2.19-18.96-.47-2.23-.84-4.3-1.13-6.18,3.57,7.75,11.36,8.86,11.36,8.86,0,0-3.58-2.96-3.8-10.34-.12-3.77.81-6.83,2.31-9.8.43,2.26,1.08,4.67,2.01,7.25,2.75,7.68,9.19,12.86,13.49,15.61.02.02.05.03.07.04.13.08.25.16.37.24,2.2,1.37,3.75,2.05,3.75,2.05,0,0-1.79-1.41-3.75-4.06-.12-.16-.24-.35-.37-.52-.02-.04-.04-.07-.07-.1-2.35-3.37-4.76-8.45-4.52-15.02.01-.27.02-.53.02-.78.57,1.73,1.22,3.26,1.96,4.4,1,1.52,1.8,2.7,2.54,3.68.02.03.05.06.07.09.13.17.25.33.37.48,1.9,2.38,3.45,3.41,6.83,5.2,7.7,4.07,15.52,4.2,15.52,4.2,0,0-6.91-2.07-10.73-10.84-.73-1.69-1.51-3.4-2.29-5.07,2.01,2.36,4.63,4.67,8.02,6.56,7.86,4.39,12.62,11.95,15.93,20.71.14.36.27.73.4,1.1,1.31,3.63,2.39,7.45,3.34,11.33.02.08.04.16.05.23,2.8,11.84-2.99,22.67-4.56,25.31,0,.04.02.09.02.13.75,5.24,2.2,9.12,4.83,11.36-.41-.48-1.96-2.68-1.59-8.39.17-2.58.54-5.37,1-8.16,2.42,7.25,9.52,11.3,9.52,11.3,0,0-5.43-8.07-3.67-17.98.35-2.02.63-3.77.86-5.37.15,2.76.59,5.88,1.62,9.15,2.58,8.23,7.89,12.89,7.89,12.89,0,0-5.1-7.47-.43-27.66.36-1.54.38-3.78.24-6.19.64,1,1.25,1.8,1.81,2.46-.29,3.04-1.61,5.62-1.45,5.38.16-.22,1.39-1.63,2.76-4.01,1.29,1.16,2.11,1.41,2.11,1.41,0,0-.71-.59-1.31-2.9,2.28-4.53,4.49-11.63,2.56-20.59-.67-3.14-1.71-6.42-2.86-9.5-.02-.19-.05-.38-.07-.57,4.58,1.67,10.48,1.52,10.48,1.52Z"/>
      <polygon class="cls-24" points="116.09 182.05 116.09 223.6 104.73 223.6 104.73 181.62 110.69 185.62 116.09 182.05"/>
    </g>
  </g>
</svg>