<?xml version="1.0" encoding="UTF-8"?>
<svg id="Layer_2" data-name="Layer 2" xmlns="http://www.w3.org/2000/svg" xmlns:xlink="http://www.w3.org/1999/xlink" viewBox="0 0 78.88 78.88">
  <defs>
    <style>
      .cls-1 {
        fill: none;
      }

      .cls-2 {
        fill: #48443b;
        opacity: .3;
      }

      .cls-3 {
        fill: #debaad;
      }

      .cls-4 {
        fill: #212625;
      }

      .cls-5 {
        fill: #24241d;
        opacity: .51;
      }

      .cls-6 {
        fill: url(#linear-gradient-2);
      }

      .cls-7 {
        fill: #4983a2;
      }

      .cls-8 {
        fill: #dcb9ac;
      }

      .cls-9 {
        fill: url(#linear-gradient);
      }

      .cls-10 {
        fill: #f1d4c8;
      }

      .cls-11 {
        fill: #b59376;
      }

      .cls-12 {
        fill: #4f6771;
      }

      .cls-13 {
        fill: #fff;
      }

      .cls-14 {
        fill: #3e1e19;
      }

      .cls-15 {
        fill: #c38589;
      }

      .cls-16 {
        fill: #c6a095;
      }

      .cls-17 {
        fill: #502c24;
        opacity: .2;
      }

      .cls-18 {
        fill: #633031;
      }

      .cls-19 {
        fill: #f0d4c7;
      }

      .cls-20 {
        fill: #49443b;
      }
    </style>
    <linearGradient id="linear-gradient" x1="23.16" y1="6.38" x2="23.16" y2="9.69" gradientTransform="translate(9.76 29.97) rotate(4.72)" gradientUnits="userSpaceOnUse">
      <stop offset="0" stop-color="#29383e"/>
      <stop offset=".12" stop-color="#3d5059"/>
      <stop offset=".29" stop-color="#586f7d"/>
      <stop offset=".47" stop-color="#6d8799"/>
      <stop offset=".65" stop-color="#7c99ad"/>
      <stop offset=".82" stop-color="#85a3b9"/>
      <stop offset="1" stop-color="#89a7be"/>
    </linearGradient>
    <linearGradient id="linear-gradient-2" x1="-833.46" y1="77.11" x2="-833.46" y2="80.38" gradientTransform="translate(-789.81 29.97) rotate(175.28) scale(1 -1)" xlink:href="#linear-gradient"/>
  </defs>
  <g id="Layer_1-2" data-name="Layer 1">
    <g>
      <rect class="cls-7" width="78.88" height="78.88"/>
      <path class="cls-14" d="M59.82,53.73c-.68-2.83-.26-1.81.6-4.39,0,0-.12.05-.3.14,1.27-2.61,1.99-5.49,1.99-8.54,0-11.55-10.17-20.91-22.72-20.91s-22.72,9.36-22.72,20.91c0,3.01.7,5.86,1.94,8.45-.06-.03-.1-.05-.1-.05.86,2.58,1.27,1.56.59,4.39-.58,2.45-2.32,3.09-2.32,3.09,0,0,2.68-.93,3.33-1.57.32-.31,1.15-1.16,1.41-1.42,0,.01.02.02.02.02-.15.28-.5,1.19,0,2.95.65,2.3,3.31,3.84,3.31,3.84,0,0-1.6-1.83-1.15-3.82,0,0-.1.8,2.5,3.03,2.6,2.23,7.44,4.18,7.44,4.18,0,0-.1-1.39-.15-2.9,1.89.47,3.87.74,5.91.74s4.13-.28,6.06-.77c-.06,1.53-.15,2.94-.15,2.94,0,0,4.85-1.95,7.44-4.18,2.59-2.23,2.5-3.03,2.5-3.03.44,2-1.15,3.82-1.15,3.82,0,0,2.66-1.54,3.31-3.84.61-2.15-.06-3.04-.06-3.04,0,0,1.11,1.13,1.49,1.49.65.63,3.33,1.57,3.33,1.57,0,0-1.74-.64-2.33-3.09"/>
      <g>
        <path class="cls-10" d="M50.79,41.48c.02-2.06,1.32-3.87,3.26-4.9-.04.51-.08,1.02-.12,1.51,1.22-2.26,4.76-1.52,4.44,2.05-.31,3.45-5.34,5.19-5.26,4.79-.05.27-.11.54-.18.81-1.32-1.08-2.14-2.59-2.13-4.25Z"/>
        <path class="cls-3" d="M57.26,38.62c-.85-1.39-2.19-.8-2.52-.5-.35.33-.63.76-.42,1.58.11.46.6.5.47,1.2-.14.78-.5.83-.71,1.01-.21.17-.47.31-.6.64-.13.33-.15.68-.09.98.13.57.96.13,1.51-.12.37-.16,1.53-1.13,1.82-1.45.74-.82,1.1-2.41.53-3.34"/>
      </g>
      <g>
        <path class="cls-10" d="M28.5,41.48c-.02-2.06-1.32-3.87-3.26-4.9.04.51.08,1.02.12,1.51-1.22-2.26-4.76-1.52-4.44,2.05.31,3.45,5.34,5.19,5.26,4.79.05.27.11.54.18.81,1.32-1.08,2.14-2.59,2.13-4.25Z"/>
        <path class="cls-3" d="M22.03,38.62c.85-1.39,2.19-.8,2.52-.5.35.33.63.76.42,1.58-.11.46-.6.5-.47,1.2.14.78.5.83.71,1.01.21.17.47.31.6.64.13.33.15.68.09.98-.13.57-.96.13-1.51-.12-.37-.16-1.53-1.13-1.82-1.45-.74-.82-1.1-2.41-.53-3.34"/>
      </g>
      <path class="cls-19" d="M63.35,78.88H16.19c0-.18.01-.35.01-.52,0,0,.11-5.7.37-6.19.5-1.99-.39-2.9,3.1-4.81.05-.01.81-.22,1.95-.56,2.38-.68,6.43-1.87,8.53-2.69h.02c.47-.21.86-.38,1.09-.52,0-.01.01-.01.01-.01.06-.04.09-.06.12-.09.01-.01.06-.05.08-.08.02-.04.07-.06.09-.09.07-.33,1.04-1.75,1.39-3.31.01-.02.02-.03.04-.06.08-.32.12-.63.14-.95.01-.51.04-1.02.04-1.47.01-.26.02-.5.02-.72,0-.09,0-.19.01-.27,0-.09.01-.18.01-.26v-.07c.01-.21.01-.39.01-.52.01-.14.01-.23.01-.23,0,0-5.39-4.02-5.39-4.89,0,0,5.64.86,9.3,1.26.07.01.14.01.21.02.25.02.47.06.68.08.01,0,.05,0,.12.01.32.02.6.05.86.07.16.01.32.02.45.02.11.02.2.02.31.01.06,0,.12.01.18,0,.14-.01.32-.01.51-.02,0-.01.02-.01.04-.01.42-.02.96-.08,1.55-.15.05,0,.09-.01.14-.01h.01c3.65-.39,9.48-1.29,9.48-1.29,0,.87-5.37,4.89-5.37,4.89,0,0,0,.08.01.23,0,.07,0,.15.01.25-.01.02-.01.03,0,.06v.13s0,.08,0,.12c0,.17.01.36.01.56.02.61.05,1.38.07,2.19.01.17.01.32.04.47.02.15.06.31.09.47,0,.01.01.01.01.01,0,.01,0,.02.01.02h0c.34,1.58,1.33,3.01,1.42,3.35.01.01.01.02.01.03.02.02.05.04.07.06.02.03.07.07.07.08.08.07.2.14.37.22.06.02.09.05.15.07h.01c1.71.81,6.51,2.23,9.25,3.02,1.14.33,1.9.54,1.95.56,3.52,1.92,2.61,2.83,3.11,4.81.27.5.37,6.19.37,6.19,0,.16,0,.34.01.52Z"/>
      <path class="cls-16" d="M46.56,59.93c-.08-.32-.12-.63-.14-.95-.04-1.06.15-2.48.14-3.15-2.03.79-4.32,1.66-6.37,1.66-.12.02-.28.02-.41.02s-.29,0-.41-.02c-2.04,0-4.12-.46-6.15-1.25-.01.66-.04,1.68-.08,2.74-.02.32-.05.63-.14.95,1.96,1.43,4.61,2.91,6.37,2.91.11.02.25.02.37.02h0s.03,0,.04,0c.01,0,.03,0,.04,0h0c.13,0,.26,0,.37-.03,1.76,0,4.41-1.48,6.37-2.91Z"/>
      <path class="cls-19" d="M56.18,31.42c-.01.12-.01.25-.02.39-.02.14-.04.3-.05.45-.02.2-.03.4-.07.59-.01.09-.02.2-.04.3-.03.24-.08.45-.12.69-.01.09-.04.19-.05.28-.05.2-.08.4-.14.6-.02.12-.06.25-.08.4-.03.11-.06.24-.09.34-.15.56-1.43,7.16-2.35,11.45-.38,1.79-.7,3.17-.85,3.56-.86,2.17-6.49,6.18-10.12,7.88-.01.01-.04.01-.05.02-1.03.5-1.9.78-2.43.78h-.07c-.58-.01-1.42-.27-2.38-.71-.05-.04-.11-.06-.17-.08-3.73-1.68-9.3-5.72-10.16-7.9-.17-.41-.51-2-.9-3.98-.85-4.29-1.96-10.5-2.11-11.03-.03-.11-.06-.24-.09-.34-.02-.15-.06-.28-.08-.4-.06-.2-.09-.4-.14-.6-.01-.1-.04-.19-.05-.28-.04-.24-.08-.45-.12-.69-.01-.09-.02-.2-.03-.3-.04-.19-.05-.39-.07-.59-.01-.15-.02-.31-.05-.45-.01-.14-.01-.27-.02-.39-.15-3.1.51-6.24,2.53-9.08,2.44-3.43,5.25-7.07,11.35-7.57h5.15c6.1.5,8.91,4.14,11.35,7.57,2.02,2.84,2.68,5.98,2.53,9.08Z"/>
      <path class="cls-8" d="M37.06,48.37c-.05-1.11,2.03-.4,2.72-.37.54.03,2.19-.35,2.34-.25.97.66-1.03,1.98-2.37,1.98-.36,0-2.65-.69-2.68-1.36Z"/>
      <path class="cls-18" d="M36.32,37.04s-.43-.32-1.12-.66c-.34-.17-.75-.34-1.2-.49-.22-.08-.46-.14-.7-.19-.24-.07-.49-.09-.73-.13-.25-.04-.5-.04-.74-.07-.25,0-.49,0-.73,0-.24.02-.47.04-.68.06-.22.02-.42.07-.61.09-.39.04-.7.14-.93.17-.23.04-.36.06-.36.06,0,0,.11-.07.32-.18.21-.11.49-.29.88-.41.19-.06.39-.16.62-.2.23-.05.47-.11.72-.15.25-.02.52-.05.79-.06.27.02.55.01.82.05.27.05.54.08.8.17.26.06.51.16.75.26.24.09.45.23.66.33.2.13.38.24.54.37.65.5.93.97.93.97Z"/>
      <path class="cls-13" d="M28.18,38.74s1.28,2.54,3.23,2.8c1.95.26,4.03-.08,4.03-.08,0,0,.03-2.94-.99-3.35-1.02-.42-3.34-1.04-6.28.64Z"/>
      <path class="cls-9" d="M33.78,39.58c-.08.9-.85,1.57-1.71,1.51-.86-.06-1.5-.84-1.41-1.73.08-.9.85-1.57,1.72-1.51.86.06,1.5.84,1.41,1.74Z"/>
      <path class="cls-12" d="M32.12,40.58c-.46-.03-.81-.51-.76-1.05.05-.53.48-.96.94-.93.46.03.81.51.76,1.05-.05.54-.48.96-.94.93Z"/>
      <path class="cls-4" d="M32.17,40.38c-.32-.02-.65-.39-.61-.84.04-.45.43-.76.75-.74.32.02.65.39.61.84-.04.45-.43.76-.75.74Z"/>
      <path class="cls-2" d="M35.44,41.46s-.04,0-.14.02c-.08-.9-.31-2.15-.94-2.41-.94-.39-3.06-.97-5.76.36-.28-.39-.42-.69-.42-.69,2.94-1.68,5.27-1.06,6.27-.64,1.02.42.99,3.36.99,3.36Z"/>
      <path class="cls-1" d="M28.17,38.75s1.28,2.54,3.23,2.8c1.95.26,4.03-.08,4.03-.08,0,0,.03-2.94-.99-3.36s-3.34-1.04-6.28.64Z"/>
      <path class="cls-8" d="M27.98,38.79c.5-.36,1.05-.64,1.63-.86.29-.11.58-.21.88-.28.15-.04.3-.07.45-.1.15-.04.31-.06.46-.07.31-.04.62-.06.93-.06.16,0,.31.01.47.02.16,0,.31.02.46.05.31.04.61.11.91.2.3.08.58.22.87.32h.02s.01.02.01.02c.29.32.57.65.79,1.03-.28-.32-.6-.61-.92-.9l.03.02c-.29-.08-.57-.19-.87-.24-.29-.06-.59-.12-.88-.15-.3-.05-.6-.04-.89-.05-.3.01-.6.01-.9.05-.59.07-1.19.18-1.77.35-.58.17-1.15.39-1.7.65Z"/>
      <path class="cls-13" d="M31.92,39.27c-.02.16-.18.29-.36.27-.18-.01-.32-.16-.31-.32.01-.16.18-.29.36-.27.19.01.32.16.31.32Z"/>
      <path class="cls-13" d="M32.94,40.2c0,.08-.09.14-.18.14-.09,0-.16-.08-.15-.16,0-.08.09-.14.18-.14.09,0,.16.08.15.16Z"/>
      <path class="cls-18" d="M42.97,37.07s.28-.47.93-.96c.16-.13.34-.25.54-.37.21-.11.42-.24.66-.33.24-.1.48-.2.75-.26.26-.08.53-.11.8-.16.27-.04.55-.03.82-.05.27,0,.53.04.79.06.25.04.49.1.72.15.23.05.43.14.62.2.38.12.67.3.88.41.2.12.32.18.32.18,0,0-.13-.02-.36-.06-.23-.04-.54-.13-.93-.17-.19-.02-.39-.07-.61-.09-.22-.02-.45-.04-.68-.05-.24,0-.48,0-.73,0-.24.02-.5.03-.74.07-.25.04-.5.06-.73.13-.24.05-.48.11-.7.19-.45.14-.86.31-1.2.48-.69.34-1.13.65-1.13.65Z"/>
      <path class="cls-13" d="M51.14,38.9s-1.24,2.49-3.19,2.72c-1.95.23-4.03-.14-4.03-.14,0,0-.08-2.9.93-3.3,1.01-.4,3.32-.98,6.29.72Z"/>
      <path class="cls-1" d="M51.14,38.9s-1.24,2.49-3.19,2.72c-1.95.23-4.03-.14-4.03-.14,0,0-.08-2.9.93-3.3,1.01-.4,3.32-.98,6.29.72Z"/>
      <path class="cls-6" d="M45.7,39.55c.08.88.85,1.55,1.71,1.49.86-.06,1.5-.83,1.41-1.71-.08-.89-.85-1.55-1.71-1.49-.86.06-1.5.83-1.41,1.72Z"/>
      <path class="cls-12" d="M47.36,40.54c.46-.03.81-.51.76-1.04-.05-.53-.48-.95-.94-.91-.46.03-.81.51-.76,1.04.05.53.48.95.94.91Z"/>
      <path class="cls-4" d="M47.32,40.35c.32-.02.65-.38.61-.83-.04-.45-.43-.76-.75-.73-.32.02-.65.38-.61.83.04.45.43.75.75.73Z"/>
      <path class="cls-2" d="M43.92,41.47s.04,0,.14.03c.06-.89.27-2.12.9-2.36.94-.37,3.04-.91,5.77.44.27-.39.41-.68.41-.68-2.97-1.71-5.29-1.12-6.29-.73-1.01.4-.94,3.3-.94,3.3Z"/>
      <path class="cls-8" d="M51.13,38.98c-.55-.26-1.12-.47-1.7-.64-.58-.16-1.17-.28-1.77-.35-.3-.04-.6-.04-.89-.05-.3.01-.6,0-.89.05-.3.02-.59.08-.88.14-.3.05-.58.16-.87.24l.03-.02c-.31.29-.63.56-.92.88.22-.37.5-.7.79-1.01h.01s.02-.02.02-.02c.29-.1.57-.24.87-.32.3-.09.6-.16.91-.19.15-.03.31-.04.46-.05.16,0,.31-.02.47-.02.31,0,.62.02.93.06.15.02.31.04.46.07.15.03.31.05.45.1.3.07.59.17.88.28.58.22,1.13.49,1.63.85Z"/>
      <path class="cls-13" d="M47,39.25c-.02.16-.18.28-.36.27-.18-.01-.32-.16-.31-.32.01-.16.18-.28.36-.27.18.01.32.15.31.32Z"/>
      <path class="cls-13" d="M48.02,40.17c0,.08-.09.14-.18.13-.09,0-.16-.08-.15-.16,0-.08.09-.14.18-.13.09,0,.16.08.15.16Z"/>
      <path class="cls-8" d="M43.33,53.67c-.52-.03-1.05-.14-1.67-.21-.03-.01-.04-.01-.06-.01-.14-.03-.28,0-.44.04-.19.04-.39.12-.57.18-.31.1-.66.18-1.02.15h0s-.01,0-.02,0-.01,0-.02,0h0c-.36.03-.71-.06-1.02-.16-.18-.06-.38-.14-.57-.18-.16-.04-.3-.06-.44-.04-.03,0-.04,0-.06.01-.62.07-1.15.18-1.67.21-.14.01-.35-.03-.47-.03.03.01.05.03.08.04,1.48.72,2.75,1.52,4.16,1.48h.04c1.41.04,2.68-.76,4.16-1.48.03-.01.05-.03.08-.04-.12,0-.32.04-.47.03Z"/>
      <path class="cls-1" d="M38.92,53.14c-.06-.01-.12-.02-.18-.03.06.01.12.02.18.03Z"/>
      <path class="cls-1" d="M38.68,53.09s-.08-.02-.11-.02c.04,0,.07.02.11.02Z"/>
      <path class="cls-17" d="M43.76,53.63h0s-1.5-1.13-2.57-.79c0,0-.4.15-.81.25-.25.1-.55.13-.85.11h0c-.22,0-.44-.04-.61-.07-.06,0-.12-.02-.18-.03-.03,0-.04,0-.07-.01-.04,0-.07-.02-.11-.02-.04,0-.06-.02-.06-.02h0c-.34-.09-.63-.21-.63-.21-1.07-.34-2.57.79-2.57.79h0s-.03.02-.03.02c.12,0,.32.04.47.03.52-.03,1.05-.14,1.67-.21.03-.01.04-.01.06-.01.14-.03.28,0,.44.04.19.04.39.12.57.18.31.1.66.18,1.02.15h0s.01,0,.02,0,.01,0,.02,0h0c.36.03.71-.06,1.02-.16.18-.06.38-.14.57-.18.16-.04.3-.06.44-.04.03,0,.04,0,.06.01.62.07,1.15.18,1.67.21.14.01.35-.03.47-.03,0,0-.01,0-.03-.02Z"/>
      <path class="cls-11" d="M38.75,53.1s-.04,0-.07-.01c.02,0,.04,0,.07.01Z"/>
      <path class="cls-11" d="M38.58,53.07s-.04-.01-.06-.02h0s.02,0,.06.02Z"/>
      <path class="cls-1" d="M39.78,71.29c2.55,0,4.84-1.15,6.41-2.97h-12.81c1.57,1.82,3.85,2.97,6.41,2.97Z"/>
      <path class="cls-10" d="M26.4,45.14c0,.71-.57,1.28-1.28,1.28s-1.28-.57-1.28-1.28.57-1.28,1.28-1.28,1.28.57,1.28,1.28Z"/>
      <path class="cls-20" d="M25.65,45.14c0,.3-.24.54-.54.54s-.54-.24-.54-.54.24-.54.54-.54.54.24.54.54Z"/>
      <path class="cls-10" d="M55.12,45.14c0,.71-.57,1.28-1.28,1.28s-1.28-.57-1.28-1.28.57-1.28,1.28-1.28,1.28.57,1.28,1.28Z"/>
      <path class="cls-20" d="M54.38,45.14c0,.3-.24.54-.54.54s-.54-.24-.54-.54.24-.54.54-.54.54.24.54.54Z"/>
      <path class="cls-15" d="M63.34,78.36s-.09-5.78-.37-6.29c-.5-2,.41-2.93-3.11-4.88-.05,0-.8-.22-1.95-.56-.18-.05-.38-.11-.57-.17-.88-.26-1.89-.56-2.93-.87-.83-.26-1.67-.53-2.46-.79-1.38-.46-2.59-.88-3.3-1.22h-.01c-.06-.02-.09-.05-.15-.07-.09-.05-.16-.1-.22-.13-.52,4.4-4.13,7.82-8.51,7.82-1.3,0-2.53-.31-3.63-.84-2.62-1.28-4.52-3.88-4.88-6.99,0,0,0,0,0,0,0,0-.01,0-.01.02-.23.14-.62.3-1.09.52h-.02c-.67.28-1.54.57-2.49.9-.79.25-1.63.52-2.46.77-.53.16-1.06.32-1.56.47-.74.22-1.44.43-2.03.59-1.13.35-1.9.56-1.95.56-3.5,1.95-2.61,2.88-3.11,4.88-.26.52-.37,6.29-.37,6.29,0,.17-.01.35-.01.52h47.23c-.01-.17-.01-.35-.01-.52Z"/>
      <path class="cls-14" d="M23.25,36.25s2.06.98,2.4,3.9h1.01s-4.53-10.86-2.51-14.71c0,0-5.02,5.37-.9,10.81Z"/>
      <path class="cls-14" d="M56.05,36.25s-2.06.98-2.4,3.9h-1.01s4.5-11.33,2.48-15.18c0,0,5.06,5.84.93,11.27Z"/>
      <path class="cls-14" d="M53.24,54.06c-.14-.72.64-1.12.62-1.41h-1.1c.88-1.34,1.37-2.83,1.37-4.41,0-2.05-.52-3.94-1.95-5.54.05.46-.27,1.41-.27,1.89,0,4.83-2.64,8.45-6.55,10.47.18-.53.29-1.14.29-1.8,0-1.23-.37-2.31-.92-2.96-.92-1.45-2.78-.22-4.93-.22-2.15,0-4.01-1.23-4.93.22-.56.65-.93,1.74-.93,2.96,0,.66.11,1.27.29,1.8-3.92-2.02-6.55-5.64-6.55-10.47,0-.48-.32-1.43-.27-1.89-1.43,1.6-1.95,3.49-1.95,5.54,0,1.58.49,3.07,1.38,4.41h-1.1c-.01.29.76.69.62,1.41-.38,1.96-1.51,2.48-1.51,2.48,0,0,1.75-.75,2.17-1.26.21-.25.75-.93.92-1.14,0,.01,0,.01.01.02-.1.22-.33.96,0,2.37.12.53.36,1.01.62,1.43h0c.34.53.73.95,1.04,1.23,1.69,1.82,5.35,5,10.19,4.94,4.84.06,8.5-3.12,10.19-4.94.3-.28.7-.71,1.04-1.23h0c.27-.42.5-.9.62-1.43.32-1.41.09-2.14,0-2.37,0,0,0,0,.01-.02.16.21.71.89.92,1.14.42.51,2.17,1.26,2.17,1.26,0,0-1.13-.52-1.51-2.48ZM43.91,55.27c-.4.2-.88.37-1.41.5,0-.02,0-.04,0-.06,0-.55-1.2-.99-2.7-1-1.5.01-2.7.46-2.7,1,0,.02,0,.04,0,.06-.53-.13-1-.3-1.41-.5-.23-.58-.37-1.27-.37-2.02,0-.25.02-.48.05-.72.54-.58,1.24-.3,2.05-.09h0s.01,0,.02,0c.23.06.48.11.73.14.99.16,2.76.34,4-.14h0c.81-.21,1.51-.49,2.05.09.03.23.05.47.05.72,0,.75-.14,1.44-.37,2.02Z"/>
      <g>
        <path class="cls-5" d="M30.79,45.84c-3.06,0-5.45-2.85-5.45-6.48,0-3.3,1.93-4.9,5.91-4.9,3.69,0,7.3.27,7.3,3.55,0,3.63-4.7,7.83-7.76,7.83Z"/>
        <path class="cls-5" d="M48.99,45.84c-3.06,0-7.76-4.2-7.76-7.83,0-3.28,3.62-3.55,7.31-3.55,3.98,0,5.91,1.6,5.91,4.9,0,3.63-2.4,6.48-5.46,6.48Z"/>
        <g>
          <path class="cls-13" d="M48.54,34.25c-2.06,0-4.48.05-6,.98-3.1.87-5.26,0-5.27,0-1.53-.93-3.95-.98-6.01-.98-3.85,0-6.12,1.47-6.12,5.11s2.39,6.69,5.67,6.69c2.91,0,6.92-3.46,7.79-6.78h0s0,0,0,0c.11-.42.17-.84.17-1.25,0-.01,0-.02,0-.03.2-.56.57-.8,1.13-.8s.94.23,1.15.82c0,0,0,0,0,.01,0,.4.06.81.16,1.22,0,.02,0,.03,0,.05h.01c.87,3.32,4.87,6.78,7.78,6.78,3.29,0,5.67-3.05,5.67-6.69s-2.26-5.11-6.12-5.11ZM30.8,45.84c-3.06,0-5.46-2.85-5.46-6.48,0-3.3,1.94-4.9,5.91-4.9,3.7,0,7.3.27,7.3,3.55,0,.32-.04.65-.11.98-.03.09-.05.17-.06.25-.86,3.28-4.86,6.6-7.58,6.6ZM39.89,36.65c-.73,0-1.06.21-1.19.66-.13-.74-.47-1.3-.95-1.72,1.73.51,3.67.14,4.28,0-.51.45-.86,1.06-.97,1.88-.13-.47-.42-.82-1.18-.82ZM48.99,45.84c-3.06,0-7.75-4.2-7.75-7.83,0-3.28,3.61-3.55,7.3-3.55,3.98,0,5.91,1.6,5.91,4.9,0,3.63-2.4,6.48-5.46,6.48Z"/>
          <path class="cls-13" d="M48.99,46.29c-2.95,0-6.98-3.45-7.96-6.78h-.06v-.24c-.11-.42-.17-.84-.17-1.23-.16-.44-.43-.62-.91-.62s-.73.18-.89.6c0,.43-.06.85-.17,1.28v.21h-.06c-.98,3.33-5.01,6.79-7.97,6.79-3.31,0-5.91-3.04-5.91-6.93,0-3.55,2.14-5.35,6.36-5.35,2.26,0,4.6.08,6.13,1.01.05.02,2.12.79,5.06-.02,1.53-.92,3.85-.99,6.1-.99,4.22,0,6.36,1.8,6.36,5.35,0,3.89-2.6,6.93-5.91,6.93ZM48.54,34.7c-3.57,0-7.06.26-7.06,3.31,0,3.52,4.55,7.59,7.51,7.59s5.22-2.74,5.22-6.24c0-3.18-1.8-4.66-5.68-4.66ZM31.26,34.7c-3.87,0-5.68,1.48-5.68,4.66,0,3.5,2.29,6.24,5.22,6.24,2.7,0,6.55-3.36,7.35-6.42,0-.05.02-.15.07-.27.06-.3.1-.61.1-.9,0-3.06-3.49-3.31-7.06-3.31ZM39.89,36.89c-.6,0-.81.15-.9.34.24-.19.54-.28.9-.28.28,0,.52.05.71.15-.14-.13-.36-.21-.71-.21ZM39.89,36.42c.48,0,.84.13,1.09.39.1-.31.24-.59.42-.85-.74.12-1.86.22-2.98.03.16.23.28.47.37.74.3-.26.72-.31,1.1-.31Z"/>
        </g>
      </g>
    </g>
  </g>
</svg>