<?xml version="1.0" encoding="UTF-8"?>
<svg id="Layer_2" data-name="Layer 2" xmlns="http://www.w3.org/2000/svg" xmlns:xlink="http://www.w3.org/1999/xlink" viewBox="0 0 223.34 223.6">
  <defs>
    <style>
      .cls-1 {
        fill: none;
      }

      .cls-2 {
        fill: #d99100;
      }

      .cls-3 {
        fill: #d6bb9c;
      }

      .cls-4 {
        fill: #462e1b;
      }

      .cls-5 {
        fill: url(#Névtelen_színátmenet_2-4);
      }

      .cls-5, .cls-6 {
        opacity: .62;
      }

      .cls-6 {
        fill: url(#Névtelen_színátmenet_2-3);
      }

      .cls-7 {
        fill: url(#Névtelen_színátmenet_2-2);
      }

      .cls-7, .cls-8 {
        opacity: .66;
      }

      .cls-9 {
        fill: #ba9d82;
      }

      .cls-10 {
        fill: #ccad8a;
      }

      .cls-11 {
        fill: #44361f;
      }

      .cls-12 {
        fill: #d7bd9d;
      }

      .cls-8 {
        fill: url(#Névtelen_színátmenet_2);
      }

      .cls-13 {
        fill: #c27976;
      }

      .cls-14 {
        fill: #a20d49;
      }

      .cls-15 {
        fill: #fff;
      }

      .cls-16 {
        fill: #dcc5a0;
      }

      .cls-17 {
        fill: #272213;
      }

      .cls-18 {
        fill: #ecdab6;
      }

      .cls-19 {
        fill: #3c3d39;
      }

      .cls-20 {
        fill: #af6a6f;
      }

      .cls-21 {
        fill: #b8987d;
      }

      .cls-22 {
        fill: #ebd9b5;
      }

      .cls-23 {
        fill: #5a413a;
      }

      .cls-24 {
        fill: #a98d76;
      }

      .cls-25 {
        fill: #714223;
      }

      .cls-26 {
        fill: #b7967d;
      }

      .cls-27 {
        clip-path: url(#clippath);
      }

      .cls-28 {
        fill: #d2bb9b;
      }

      .cls-29 {
        fill: #b5957e;
      }
    </style>
    <clipPath id="clippath">
      <rect class="cls-1" x="102.44" y="155.04" width="25.11" height="14.8"/>
    </clipPath>
    <linearGradient id="Névtelen_színátmenet_2" data-name="Névtelen színátmenet 2" x1="88.8" y1="135.21" x2="86.26" y2="60.81" gradientUnits="userSpaceOnUse">
      <stop offset="0" stop-color="#fff"/>
      <stop offset="1" stop-color="#6189ae"/>
    </linearGradient>
    <linearGradient id="Névtelen_színátmenet_2-2" data-name="Névtelen színátmenet 2" x1="139.62" y1="133.19" x2="137.09" y2="59" xlink:href="#Névtelen_színátmenet_2"/>
    <linearGradient id="Névtelen_színátmenet_2-3" data-name="Névtelen színátmenet 2" x1="87.62" y1="121.34" x2="88.46" y2="95.25" xlink:href="#Névtelen_színátmenet_2"/>
    <linearGradient id="Névtelen_színátmenet_2-4" data-name="Névtelen színátmenet 2" x1="138.19" y1="123.42" x2="139.04" y2="97.14" xlink:href="#Névtelen_színátmenet_2"/>
  </defs>
  <g id="Layer_1-2" data-name="Layer 1">
    <g>
      <rect class="cls-14" width="223.34" height="223.6"/>
      <path class="cls-16" d="M114.9,139.84v83.76h-45.31c-.74-.29-1.11-.44-1.11-.44,0-10.69,1.57-19.03,3.96-25.53,5.77-15.69,16.32-20.67,21.18-22.17,1.59-.49,2.58-.61,2.58-.61.17,0,.33-.02.5-.04,1.43-.23,2.59-1.47,3.51-3.45.69-1.47,1.27-3.34,1.74-5.51.19-.85.33-1.7.48-2.62.22-1.55.44-3.17.63-4.87.07-1.03.18-2.03.29-3.1.4-5.12.52-10.73.52-16.05,0,0,6.08.63,11.02.63Z"/>
      <path class="cls-22" d="M161.5,223.15s-.41.15-1.07.44h-45.53v-83.76h.11c4.9,0,11.06-.63,11.06-.63,0,5.27.11,10.81.51,15.93.11,1,.22,2.03.29,3.02.19,1.77.41,3.43.67,4.98v.03c.07.7.22,1.33.33,1.99.45,2.18.99,4.1,1.64,5.63.81,1.91,1.8,3.25,3.01,3.77.38.17.79.26,1.21.26,0,0,1.74.21,4.36,1.24,5.33,2.09,14.29,7.57,19.44,21.55,2.39,6.5,3.96,14.84,3.96,25.53Z"/>
      <g class="cls-27">
        <path class="cls-9" d="M127.54,162.99v.04c-1.14,1.76-4.98,6.82-12.57,6.82h-.07c-7.19-.04-11.39-5.24-12.46-6.78.22-1.54.44-3.15.63-4.84.07-.99.18-2.02.3-3.08,3.5.88,7.34,1.43,11.39,1.5h.15c4.2-.07,8.07-.66,11.69-1.61.11.99.22,2.02.3,3,.18,1.76.41,3.41.66,4.95"/>
      </g>
      <path class="cls-10" d="M114.38,44.38c-48,0-48.26,40.12-46.12,66.39-3.28-6.23-13.05-4.32-12.24,5.5.77,9.45,14.73,14.27,14.34,13.23,7.27,19.43,26.51,34.08,44.02,34.08h.37V44.38h-.37"/>
      <path class="cls-24" d="M59.09,112.13c2.36-3.81,6.05-2.16,6.93-1.32.96.92,1.73,2.09,1.14,4.32-.33,1.28-1.66,1.39-1.36,3.3.37,2.16,1.36,2.27,1.95,2.78.55.48,1.25.84,1.59,1.76.37.92.41,1.87.22,2.71-.37,1.54-2.62.29-4.13-.37-1-.48-4.17-3.15-4.98-4.03-1.99-2.27-2.95-6.67-1.36-9.16"/>
      <path class="cls-12" d="M114.64,44.38c48,0,48.26,40.12,46.15,66.39,3.28-6.23,13.01-4.32,12.2,5.5-.74,9.45-14.72,14.27-14.34,13.23-7.08,19.43-26.51,34.08-44.02,34.08h-.26l-.11-119.19h.37"/>
      <path class="cls-24" d="M169.94,112.13c-2.36-3.81-6.01-2.16-6.93-1.32-.96.92-1.7,2.09-1.14,4.32.33,1.28,1.66,1.39,1.36,3.3-.37,2.16-1.36,2.27-1.92,2.78-.55.48-1.29.84-1.62,1.76-.33.92-.41,1.87-.22,2.71.37,1.54,2.62.29,4.13-.37,1.03-.48,4.17-3.15,4.98-4.03,2.03-2.27,2.95-6.67,1.36-9.16"/>
      <path class="cls-16" d="M114.01,55.71c-15.78,0-27.35,4.58-34.32,13.59-9.77,12.64-9.4,31.91-5.82,45.76,1.11,4.25,1.7,15.65,2.43,19.82,3.43,18.72,24.11,28.69,37.71,28.69h.37V55.71h-.22"/>
      <path class="cls-22" d="M148.29,69.34c-6.93-8.98-18.36-13.56-33.92-13.63v107.87c15.56-.18,34.17-11.1,37.34-28.69.77-4.18,1.33-15.57,2.43-19.82,3.61-13.81,3.98-33.05-5.86-45.73"/>
      <path class="cls-1" d="M112.45,144.57c-.22-.04-.42-.08-.59-.11.2.04.4.08.59.11Z"/>
      <path class="cls-1" d="M111.63,144.41c-.14-.03-.27-.06-.36-.08.12.03.24.05.36.08Z"/>
      <path class="cls-26" d="M111.86,144.45c-.08-.02-.15-.03-.23-.05.07.02.14.03.23.05Z"/>
      <path class="cls-26" d="M111.27,144.32c-.07-.02-.13-.04-.2-.06h0s.08.02.21.06Z"/>
      <path class="cls-1" d="M71.34,89.33c-.43,1.43-.73,2.99-.93,4.66,0,0,.63-2.63,2.03-6.52-.6.83-1,1.5-1.1,1.86Z"/>
      <path class="cls-11" d="M96.37,55.97l-.2.2.03.07c.07-.1.1-.2.17-.27Z"/>
      <path class="cls-1" d="M112.6,142.38c-.22-.04-.43-.08-.61-.12.21.04.41.09.61.12Z"/>
      <path class="cls-1" d="M111.76,142.22c-.14-.03-.28-.06-.37-.08.12.03.24.06.37.08Z"/>
      <path class="cls-29" d="M111.99,142.27c-.08-.02-.15-.03-.23-.05.08.02.14.03.23.05Z"/>
      <path class="cls-29" d="M111.39,142.13c-.07-.02-.14-.04-.21-.06h0s.08.02.21.06Z"/>
      <path class="cls-3" d="M104.99,128.57c-.19-3.83,7.03-1.4,9.41-1.28,1.88.1,7.6-1.21,8.09-.87,3.37,2.27-3.57,6.84-8.21,6.84-1.24,0-9.18-2.38-9.29-4.69Z"/>
      <path class="cls-15" d="M79.94,97.81s3.66,15.02,9.95,16.25c6.29,1.23,13.09-1.21,13.09-1.21,0,0,.65-17.65-2.57-19.96-3.22-2.32-10.63-5.66-20.47,4.92Z"/>
      <path class="cls-28" d="M102.99,112.8s-.14.04-.47.18c-.08-5.42-.58-12.85-2.59-14.28-2.99-2.19-9.74-5.27-18.75,3.16-.82-2.33-1.23-4.09-1.23-4.09,9.86-10.61,17.28-7.27,20.47-4.95,3.22,2.32,2.57,19.99,2.57,19.99Z"/>
      <circle class="cls-4" cx="93.08" cy="105.15" r="6.19"/>
      <path class="cls-25" d="M92.79,109.27c-1.79-.15-3.16-1.95-3-3.93.16-1.98,1.81-3.53,3.6-3.38,1.79.15,3.16,1.95,3,3.93-.16,1.98-1.81,3.54-3.6,3.39Z"/>
      <path class="cls-17" d="M92.95,108.55c-1.24-.11-2.53-1.47-2.4-3.15.14-1.69,1.63-2.82,2.88-2.72,1.24.11,2.53,1.48,2.39,3.16-.14,1.68-1.63,2.82-2.87,2.72Z"/>
      <path class="cls-15" d="M91.94,104.41c-.05.61-.68,1.05-1.39.99-.72-.06-1.26-.6-1.21-1.21.05-.61.67-1.05,1.39-1,.72.06,1.26.6,1.21,1.21Z"/>
      <path class="cls-15" d="M95.95,107.92c-.03.3-.34.53-.69.5-.36-.03-.63-.3-.61-.6.03-.3.34-.53.69-.5.36.03.63.3.61.6Z"/>
      <path class="cls-1" d="M112.69,144.15c-.22-.04-.43-.08-.61-.12.21.04.41.08.61.12Z"/>
      <path class="cls-1" d="M111.85,143.99c-.14-.03-.28-.06-.37-.08.12.03.24.06.37.08Z"/>
      <path class="cls-29" d="M112.09,144.04c-.08-.02-.15-.03-.23-.05.08.02.14.03.23.05Z"/>
      <path class="cls-29" d="M111.48,143.9c-.07-.02-.14-.04-.21-.06h0s.08.02.21.06Z"/>
      <path class="cls-1" d="M112.46,143.74c-.24-.04-.46-.08-.65-.12.22.05.44.09.65.12Z"/>
      <path class="cls-1" d="M111.56,143.56c-.15-.03-.3-.07-.4-.09.13.03.26.06.4.09Z"/>
      <path class="cls-26" d="M111.8,143.61c-.08-.02-.17-.03-.25-.05.08.02.15.03.25.05Z"/>
      <path class="cls-26" d="M111.16,143.47c-.08-.02-.15-.04-.22-.06h0s.09.03.23.06Z"/>
      <path class="cls-1" d="M112.27,143.11c-.24-.04-.46-.08-.65-.12.22.05.44.09.65.12Z"/>
      <path class="cls-1" d="M111.37,142.93c-.15-.03-.3-.07-.4-.09.13.03.26.06.4.09Z"/>
      <path class="cls-26" d="M111.62,142.99c-.08-.02-.17-.03-.25-.05.08.02.15.03.25.05Z"/>
      <path class="cls-26" d="M110.97,142.84c-.08-.02-.15-.04-.22-.06h0s.09.03.23.06Z"/>
      <path class="cls-1" d="M112.83,143.02c-.23-.04-.44-.08-.63-.12.21.05.42.09.63.12Z"/>
      <path class="cls-1" d="M111.95,142.85c-.14-.03-.29-.06-.38-.09.13.03.25.06.38.09Z"/>
      <path class="cls-26" d="M112.19,142.9c-.08-.02-.16-.03-.24-.05.08.02.15.03.24.05Z"/>
      <path class="cls-26" d="M111.57,142.76c-.07-.02-.14-.04-.21-.06h0s.08.03.22.06Z"/>
      <path class="cls-15" d="M149.18,97.3s-3.66,15.02-9.95,16.25c-6.29,1.23-13.09-1.21-13.09-1.21,0,0-.65-17.65,2.57-19.96,3.22-2.32,10.63-5.66,20.47,4.92Z"/>
      <path class="cls-28" d="M126.14,112.29s.14.04.47.18c.08-5.41.58-12.85,2.59-14.28,2.99-2.19,9.74-5.27,18.75,3.16.82-2.33,1.23-4.09,1.23-4.09-9.86-10.61-17.28-7.27-20.47-4.95-3.22,2.32-2.57,19.99-2.57,19.99Z"/>
      <path class="cls-4" d="M129.86,104.64c0,3.42,2.77,6.19,6.19,6.19s6.19-2.77,6.19-6.19-2.77-6.19-6.19-6.19-6.19,2.77-6.19,6.19Z"/>
      <path class="cls-25" d="M136.33,108.76c1.79-.15,3.16-1.95,3-3.93-.16-1.98-1.81-3.53-3.6-3.38-1.79.15-3.16,1.95-3,3.93.16,1.98,1.81,3.54,3.6,3.39Z"/>
      <path class="cls-17" d="M136.18,108.04c1.24-.11,2.53-1.47,2.4-3.15-.14-1.69-1.63-2.82-2.88-2.72-1.24.11-2.53,1.48-2.39,3.16.14,1.68,1.63,2.82,2.87,2.72Z"/>
      <path class="cls-15" d="M137.19,103.9c.05.61.68,1.05,1.39.99.72-.06,1.26-.6,1.21-1.21-.05-.61-.67-1.05-1.39-1-.72.06-1.26.6-1.21,1.21Z"/>
      <path class="cls-15" d="M133.17,107.41c.03.3.34.53.69.5.36-.03.63-.3.61-.6-.03-.3-.34-.53-.69-.5-.36.03-.63.3-.61.6Z"/>
      <g>
        <path d="M106.76,89.89c-.05-.07-1.19-1.81-3.52-3.6-1.46-1.12-2.89-1.97-4.38-2.61-1.81-.76-3.75-1.3-5.63-1.55-1.7-.19-3.59-.14-5.8.16-1.68.32-3.32.82-4.71,1.43-.99.34-1.78.82-2.41,1.21-.24.15-.46.28-.68.4l-3,1.89,3.46-.81c.16-.04.34-.09.52-.14.72-.19,1.61-.43,2.65-.58.24-.04.49-.08.75-.14.44-.09.89-.18,1.36-.2.52-.03,1.07-.07,1.63-.11l.73-.05c1.92-.02,3.54.12,4.97.45,1.57.27,3.19.78,4.67,1.46,1.4.67,2.74,1.33,3.79,2.1,2.11,1.41,3.29,2.59,3.3,2.6h0c.29.29.68.44,1.07.44.28,0,.57-.08.82-.24.7-.46.89-1.4.45-2.07l-.03-.05Z"/>
        <path d="M149.8,85.32c-.2-.11-.42-.24-.66-.39-.63-.39-1.41-.87-2.38-1.2-1.42-.63-3.06-1.13-4.76-1.45-2.18-.29-4.07-.34-5.78-.15-1.87.26-3.82.79-5.63,1.55-1.46.63-2.94,1.5-4.38,2.61-2.29,1.76-3.43,3.46-3.51,3.59l-.02.03c-.39.6-.3,1.39.2,1.89.28.29.66.44,1.06.44h0c.4,0,.78-.16,1.06-.44h.01c.11-.12,1.25-1.24,3.3-2.61,1.03-.76,2.37-1.42,3.77-2.09,1.49-.69,3.1-1.2,4.7-1.47,1.42-.33,3.04-.47,4.93-.45l.76.05c.55.04,1.09.08,1.62.11.46.02.91.11,1.35.2.25.05.5.1.75.14,1.05.15,1.94.39,2.65.58.19.05.36.1.53.14l3.46.81-3.03-1.9Z"/>
      </g>
      <path class="cls-1" d="M110.47,149.4c-.22-.04-.43-.08-.6-.12.2.04.4.08.6.12Z"/>
      <path class="cls-1" d="M109.64,149.23c-.14-.03-.28-.06-.37-.08.12.03.24.06.37.08Z"/>
      <path class="cls-21" d="M109.87,149.28c-.08-.02-.15-.03-.23-.05.08.02.14.03.23.05Z"/>
      <path class="cls-21" d="M109.27,149.15c-.07-.02-.14-.04-.21-.06h0s.08.02.21.06Z"/>
      <path class="cls-1" d="M110.3,148.81c-.22-.04-.43-.08-.6-.12.21.04.4.08.6.12Z"/>
      <path class="cls-1" d="M109.46,148.65c-.14-.03-.28-.06-.37-.08.12.03.24.06.37.08Z"/>
      <path class="cls-21" d="M109.69,148.7c-.08-.02-.15-.03-.23-.05.08.02.14.03.23.05Z"/>
      <path class="cls-21" d="M109.1,148.57c-.07-.02-.14-.04-.21-.06h0s.08.02.21.06Z"/>
      <path class="cls-1" d="M110.81,148.73c-.22-.04-.41-.08-.58-.11.2.04.39.08.58.11Z"/>
      <path class="cls-1" d="M110,148.57c-.13-.03-.27-.06-.35-.08.12.03.23.05.35.08Z"/>
      <path class="cls-21" d="M110.23,148.62c-.07-.02-.15-.03-.22-.05.07.02.14.03.22.05Z"/>
      <path class="cls-21" d="M109.65,148.49c-.07-.02-.13-.04-.2-.06h0s.08.02.21.06Z"/>
      <path class="cls-18" d="M105.2,150.41c-.18-2.39,6.65.5,8.89.57,1.79.06,7.16-.35,7.66-.54,3.76-1.4-.21,3.99-7.77,4.27-3.47.14-8.68-2.85-8.78-4.3Z"/>
      <path class="cls-20" d="M127.71,144.67c-4.33-.81-13.45.05-13.45.05-7.52,1.25-13.41-.08-13.45-.03-.18.02,6.01,8.22,13.35,7.85h0c7.34.38,13.73-7.85,13.56-7.87Z"/>
      <path class="cls-13" d="M118.6,142.94c-1.95-.22-3.34,1.19-4.34,1.09-1.02.09-2.34-.81-4.3-.83-2.76-.03-4.11-.27-9.16,1.5.18.34,3.41,2.22,9.47,2.32.09,0,1.71.92,4.02.91,1.45,0,3.43-.97,3.51-.97,6.07-.09,9.77-1.9,9.94-2.23-6.67-2.07-6.14-1.8-9.14-1.78Z"/>
      <path d="M163.65,215.33c-.25-3.48-.66-6.69-1.21-9.64-.97-5.19-2.36-9.58-4.01-13.33-2.32-5.28-5.14-9.22-8.02-12.19h.02c-.09-.09-.18-.17-.27-.26-.03-.03-.07-.07-.1-.11h0c-5.51-5.35-11.06-7.19-13.44-7.76.04.15-1.49-.51-1.81-1.11-.93-1.57-2.04-3.11-3.38-4.74-.12-.12-.24-.23-.32-.35l-.5,2.94-9.33,11.02h-.69l-5.11,6.03-4.87-5.66h.06l-9.33-10.85-.73-3.47c-.06.06-.12.14-.2.2-1.95,2.32-5.32,6.15-5.29,6-2.37.57-8.68,2.41-14.2,7.76h0c-3,3-5.96,7.07-8.37,12.56-1.65,3.74-3.04,8.14-4.01,13.33-.55,2.95-.96,6.16-1.21,9.64-.18,2.45-.27,5.03-.27,7.75,0,0,.4.18,1.15.51h94.58c.74-.33,1.14-.51,1.14-.51,0-2.73-.1-5.31-.27-7.75Z"/>
      <path class="cls-2" d="M136.74,174.96h0c-.54-8.43-4.89-10.03-4.89-10.03h0c-.26-.19-.55-.36-.85-.5-1.32-.64-2.91.05-3.33,1.46-.5,1.69-1.16,3.81-1.74,5.34-.42,1.1-1.01,2.12-1.76,3.03-1.18,1.44-3.11,3.79-4.85,5.96-1.97,2.46-5.71,2.47-7.71.03-1.88-2.29-3.97-4.8-5.15-6.21-.64-.77-1.17-1.62-1.58-2.54-.53-1.18-.88-3.22-1.17-4.97-.24-1.46-1.73-2.35-3.13-1.87-.3.1-.58.2-.82.27-.43.07-5.01,1.03-5.6,9.2h0c-.44,3.28-.64,8.08-.72,11.93-.05,2.15,2.58,3.26,4.08,1.71.9-.93,1.76-1.75,2.37-2.2.38-.28.84-.56,1.35-.84,1.18-.64,2.67-.12,3.25,1.09l9.21,19.33c.85,1.78,3.38,1.81,4.27.05l9.49-18.75c.64-1.26,2.27-1.72,3.41-.9,0,0,.01,0,.02.01.61.44,1.47,1.27,2.37,2.2,1.5,1.55,4.12.44,4.08-1.72-.07-3.54-.24-7.88-.61-11.1Z"/>
      <polygon class="cls-16" points="83.45 202.1 100.9 202.1 100.9 205.36 92.18 210.92 83.45 205.36 83.45 202.1"/>
      <polygon class="cls-16" points="127.22 201.32 144.66 201.32 144.66 204.59 135.94 210.15 127.22 204.59 127.22 201.32"/>
      <path class="cls-23" d="M178.11,49.79s-6.74-8.53-18.41-6.51c3.5-7.4-1.45-12.31-1.45-12.31-.46,6.13-3.06,8.8-5.32,9.98-1.05-5.17-6.01-12.94-22.67-16.67,0,0,5.16,3.59,8.23,7.99,1.79,2.57-1.2,5.7-4.1,4.28-2.99-1.47-7.38-2.45-11.37-5.49-8.89-6.78-24.75-3.91-33.2,1.21-7.04,4.26-17.69,13.67-20.68,20-.71,1.51-1.68,3.45-2.77,5.64,0,0-.02.02-.03.02-11.61,3.75-14.96-.79-14.96-.79,0,0,3.05,4.84,8.6,6.85,1.58.57,2.4,2.2,1.74,3.66-2.24,4.97-4.32,10.18-5.4,14.63-2.03,8.43,3.44,16.63,8.2,20.19,0,.13.02.25.03.38,1.57,1.75,3.99,4.75,5.73,8.18.39.77.73,1.55,1.03,2.35.72,1.9,1.16,3.87,1.06,5.8.95.22,3.08-3.4,3-9.99,4.24-14.56,11.63-22.6,19.62-27.35,1.2-.71,2.68.47,2.07,1.66-7.66,14.87-.13,31.07-.13,31.07-.42-19.64,17.25-32.79,22.72-36.38.51-.28,1.04-.61,1.59-1,1.92-1.34,4.05-2.52,6.28-3.47,2.11-.89,4.62.08,5.39,2.12,1.45,3.86,2.15,8.26,1.27,13.01,0,0,3.29-4.94,4.3-11.61.29-1.9,2.85-2.51,4.04-.95,3.94,5.14,7.89,12.79,6.34,21.67-.01.08-.02.15-.03.23,0,0,.3-.46.74-1.26,1.43-2.23,2.32-4.74,2.87-7.13.16-.59.29-1.21.42-1.84v.02s1.4-5.45,3.37,1.01c.55,3.34.67,7.15.27,11.46-.3,3.21-.44,5.84-.48,8.02-.04,2.13.02,3.81.15,5.13.47,4.99,1.8,4.94,1.8,4.94.94,0-.07-4.85,3.07-8.2,3.13-3.34,7.91-14.61,7.91-25.85,0-5.99-1.18-11.63-3.88-17.2-9.37-12.18,2.45-20.74,13.01-17.52Z"/>
      <g>
        <path class="cls-8" d="M78.23,124.13c4.48,1.35,22.2,3.3,27.69-11.8-13.25-5.27-25.99-2.76-35.77,1.41,2.16,8.22,6.39,9.85,8.07,10.39Z"/>
        <path class="cls-7" d="M148.74,124.13c-4.48,1.35-22.2,3.3-27.69-11.8,13.25-5.27,25.99-2.76,35.77,1.41-2.16,8.22-6.39,9.85-8.07,10.39Z"/>
        <path class="cls-6" d="M105.92,112.33c.21-.57.4-1.17.57-1.79.12-.42.23-.84.33-1.29.92-4.06.69-7.32-.12-10.19-.77-2.81-8.76-4.5-12.22-5-3.42-.38-8.49-.69-14.18,0-7.03.88-11.99,1.56-11.34,11.94.11,1.67.29,3.17.51,4.54.19,1.17.42,2.23.68,3.2,9.78-4.17,22.52-6.68,35.77-1.41Z"/>
        <path class="cls-5" d="M121.05,112.33c-.21-.57-.4-1.17-.57-1.79-.12-.42-.23-.84-.33-1.29-.92-4.06-.69-7.32.12-10.19.77-2.81,8.76-4.5,12.22-5,3.42-.38,8.49-.69,14.18,0,7.03.88,11.99,1.56,11.34,11.94-.11,1.67-.29,3.17-.51,4.54-.19,1.17-.42,2.23-.68,3.2-9.78-4.17-22.52-6.68-35.77-1.41Z"/>
        <path class="cls-19" d="M162.8,94.12c-.28-.59-5.59-1.35-12.49-2.05-5.83-.53-15.24-.18-18.91.35-1.53.23-4.27.76-7.01,1.53-3.02.82-6.04,1.94-7.29,2.23-1.21.25-2.16.37-3.16.32v-.02c-.08,0-.15,0-.22.01-.08,0-.15,0-.23-.01-.08,0-.15,0-.23.01-.07,0-.15,0-.22-.01v.02c-1,.05-1.95-.06-3.16-.32-1.25-.29-4.27-1.41-7.29-2.23-2.74-.76-5.48-1.29-7.01-1.53-3.68-.53-13.08-.88-18.91-.35-6.91.7-12.22,1.47-12.49,2.05-.17.41-.59,5.75-.03,6.28.56.59,2.5,1.7,2.98,3.58.15.64.48,2.62,1.01,5.11.17.81.74,1.38,1.38,1.38.84,0,1.49-.97,1.37-2.06-.08-.7-.14-1.43-.19-2.2-.59-9.74,3.89-10.38,10.24-11.21,5.14-.65,9.72-.35,12.81,0,3.12.47,10.34,2.05,11.04,4.69.73,2.7.94,5.75.1,9.56h0c-.13.61.21,1.21.69,1.21h2.26c.31-1.03.59-2.11.8-3.26.52-2.99,1.28-4.75,2.57-5.28.51-.16,1.27-.31,2.06-.34.08,0,.15-.01.23-.01s.15,0,.23.01c.79.03,1.56.18,2.06.34,1.28.53,2.05,2.29,2.57,5.28.21,1.15.49,2.23.8,3.26h2.26c.47,0,.82-.59.69-1.2h0c-.83-3.83-.62-6.88.1-9.58.69-2.64,7.91-4.22,11.04-4.69,3.09-.35,7.67-.65,12.81,0,6.35.82,10.83,1.47,10.24,11.21-.05.77-.11,1.5-.19,2.2-.12,1.09.53,2.06,1.37,2.06.64,0,1.2-.57,1.38-1.38.53-2.49.86-4.47,1.01-5.11.49-1.88,2.43-2.99,2.98-3.58.56-.53.14-5.87-.03-6.28Z"/>
      </g>
    </g>
  </g>
</svg>