<?xml version="1.0" encoding="UTF-8"?>
<svg id="Layer_2" data-name="Layer 2" xmlns="http://www.w3.org/2000/svg" xmlns:xlink="http://www.w3.org/1999/xlink" viewBox="0 0 223.34 223.6">
  <defs>
    <style>
      .cls-1 {
        fill: none;
      }

      .cls-2 {
        fill: #462e1b;
      }

      .cls-3 {
        fill: #ba9d82;
      }

      .cls-4 {
        fill: #ccad8a;
      }

      .cls-5 {
        fill: #44361f;
      }

      .cls-6 {
        fill: #d7bd9d;
      }

      .cls-7 {
        fill: #e5b344;
      }

      .cls-8 {
        fill: #c1a587;
      }

      .cls-9 {
        fill: #dac6a4;
      }

      .cls-10 {
        fill: #fff;
      }

      .cls-11 {
        fill: #dcc5a0;
      }

      .cls-12 {
        fill: #272213;
      }

      .cls-13 {
        fill: #ecdab6;
      }

      .cls-14 {
        fill: #b8987d;
      }

      .cls-15 {
        fill: #ebd9b5;
      }

      .cls-16 {
        fill: #5a413a;
      }

      .cls-17 {
        fill: #a98d76;
      }

      .cls-18 {
        fill: #714223;
      }

      .cls-19 {
        fill: #b7967d;
      }

      .cls-20 {
        clip-path: url(#clippath);
      }

      .cls-21 {
        fill: #d2bb9b;
      }

      .cls-22 {
        fill: #38362e;
      }

      .cls-23 {
        fill: #b5957e;
      }
    </style>
    <clipPath id="clippath">
      <rect class="cls-1" x="103.09" y="154.83" width="25.1" height="14.85"/>
    </clipPath>
  </defs>
  <g id="Layer_1-2" data-name="Layer 1">
    <g>
      <rect class="cls-7" width="223.34" height="223.6"/>
      <path class="cls-22" d="M48.88,103.31c1.18-13.86,4.29-24.93,4.29-24.93,0,0,.09.1.26.3,3.74-13.56,9.97-20.88,9.97-20.88h0c3.03-4.58,7.32-9.4,12.58-14.14,10.77-9.71,17.54-7.71,26.45-7.43,0,0,.03.06.07.16,3.92-.84,24.97-5.05,37.49-.4,13.84,5.15,25.17,13.99,33.17,37.73,1.23,3.65,2.11,7.2,2.72,10.62,1.81,3.97,2.63,7.86,2.97,11.05l.21-.03s6.97,37.34,26.61,44.79c0,0-14.92,3.7-26.73-15.46-.28,3.79-.76,7.64-1.53,11.38.65,4.93,1.44,9,1.44,11.62,0,18.57-13.87,33.95-11.74,52.64,1.41,12.33,7.09,21.88,7.09,21.88,0,0-6.5-8.44-9.16-16.35-2.66-7.91-1.77-22.15,2.66-33.49,2.27-5.81,2.91-12.18,2.63-18.35-.38.56-.76,1.11-1.17,1.63,0,0,.48-1.57,1.02-4.03-.25-3.06-.71-6.05-1.28-8.88-.1-.49-.2-.98-.31-1.47-.13-.56-.27-1.09-.4-1.64-1.23,2.55-2.59,4.96-4.03,7.2-.09.3-.18.62-.27.91-.91,2.98-2.18,5.75-3.28,8.37-1.07,2.63-2.17,5.1-3.01,7.49-.77,2.39-1.46,4.65-1.8,6.79-.21,1.07-.32,2.12-.4,3.1-.13,1-.16,1.94-.16,2.84-.09,1.79.09,3.36.14,4.68.31,2.61.49,4.12.49,4.12,0,0-.16-.35-.47-1-.28-.68-.8-1.62-1.26-2.91-.39-1.29-1.02-2.85-1.32-4.72-.41-1.86-.69-4.01-.64-6.36-.06-3.14.54-6.62,1.49-10.18-5.09,5.22-9.15,8.09-9.15,8.09,0,0,5.95-7.01,8.61-14,2.06-5.43,5.15-14.75,5.15-28.47,0-.64-.04-1.28-.09-1.92-.18-.74-.34-1.5-.55-2.23-1.4-4.97-3.15-9.6-4.66-13.7-3.76-7.31-8.16-12.86-8.16-12.86,0,0,6.21,10.66,7.43,22.38,1.24,11.72-5.27,20.79-5.27,20.79,0,0,1.3-13.92-3.25-25-2.29-5.56-6.04-10.42-12.19-12.43,0,0,0,.01,0,.03,3.3,8.98-3.33,16.53-3.33,16.53,0,0-.02-2.25-.68-5.73-1.7-8.99-7.65-26.17-28.44-33.82l-.65.94-14.65,21.27c-.72.97-1.89,2.6-3.25,4.71-3.97,6.15-9.45,16.24-9.45,25.01,0,13.72,3.08,23.04,5.15,28.47,2.66,6.99,8.61,14.01,8.61,14.01,0,0-3.24-2.29-7.57-6.5.23,1.6.36,3.16.33,4.64.05,2.36-.23,4.51-.64,6.36-.3,1.87-.94,3.43-1.32,4.72-.46,1.29-.98,2.23-1.26,2.91-.31.65-.47,1-.47,1,0,0,.18-1.51.49-4.12.05-1.31.23-2.89.14-4.68,0-.9-.03-1.84-.16-2.84-.08-.98-.18-2.03-.4-3.1-.35-2.15-1.04-4.4-1.8-6.79-.76-2.17-1.73-4.41-2.71-6.77-3.1-3.96-6.15-8.62-8.62-13.9-1.83,9.15-2.43,20.02,1.25,29.43,4.43,11.34,5.32,25.58,2.66,33.49-2.66,7.91-9.16,16.35-9.16,16.35,0,0,5.68-9.55,7.09-21.88,2.14-18.69-11.73-34.08-11.73-52.64,0-2.37.64-5.9,1.25-10.18-1.29-3.33-2.21-6.89-2.82-10.56-11.54,16.58-25.25,13.19-25.25,13.19,13.88-5.27,21.43-25.44,24.66-36.83Z"/>
      <path class="cls-11" d="M115.4,139.57v84.02h-45.3c-.74-.29-1.11-.44-1.11-.44,0-5.89.48-11.07,1.29-15.61.69-3.73,1.6-7.06,2.67-9.99,5.46-14.97,15.27-20.22,20.42-22,.28-.09.52-.17.77-.25,1.6-.51,2.58-.61,2.58-.61.17,0,.32-.02.49-.05,1.43-.23,2.58-1.47,3.52-3.45.69-1.47,1.27-3.36,1.73-5.53.18-.86.34-1.7.49-2.64.21-1.55.43-3.18.63-4.88.06-1.03.17-2.03.29-3.1.4-5.14.51-10.78.51-16.1,0,0,6.09.63,11.02.63Z"/>
      <path class="cls-15" d="M162,223.15s-.4.15-1.07.44h-45.53v-84.02h.12c4.9,0,11.05-.63,11.05-.63,0,5.3.11,10.84.52,15.99.11,1,.21,2.03.29,3.02.18,1.78.4,3.44.66,5v.03c.08.71.21,1.34.34,2,.45,2.18.98,4.11,1.64,5.65.81,1.92,1.81,3.25,3.01,3.79.38.17.78.26,1.21.26,0,0,1.73.2,4.34,1.23.12.05.25.09.37.15,5.37,2.21,14.06,7.77,19.08,21.47,1.04,2.84,1.93,6.05,2.61,9.62.86,4.64,1.35,9.93,1.35,15.98Z"/>
      <g class="cls-20">
        <path class="cls-3" d="M128.2,162.8v.04c-1.14,1.76-4.98,6.84-12.57,6.84h-.07c-7.19-.04-11.39-5.26-12.46-6.8.22-1.54.44-3.16.63-4.85.07-.99.18-2.02.29-3.09,3.5.88,7.34,1.43,11.39,1.51h.15c4.2-.07,8.07-.66,11.69-1.62.11.99.22,2.02.29,3.01.18,1.76.41,3.42.66,4.96"/>
      </g>
      <path class="cls-4" d="M115.04,43.82c-48,0-48.26,40.25-46.12,66.6-3.28-6.25-13.05-4.34-12.24,5.51.77,9.48,14.73,14.32,14.34,13.27,7.27,19.49,26.51,34.18,44.02,34.18h.37V43.82h-.37"/>
      <path class="cls-17" d="M59.74,111.79c2.36-3.82,6.05-2.17,6.93-1.32.96.92,1.73,2.09,1.14,4.34-.33,1.29-1.66,1.4-1.36,3.31.37,2.17,1.36,2.28,1.95,2.79.55.48,1.25.85,1.59,1.76.37.92.41,1.87.22,2.72-.37,1.54-2.62.29-4.13-.37-1-.48-4.17-3.16-4.98-4.04-1.99-2.28-2.95-6.69-1.36-9.19"/>
      <path class="cls-6" d="M115.29,43.82c48,0,48.26,40.25,46.15,66.6,3.28-6.25,13.01-4.34,12.2,5.51-.74,9.48-14.72,14.32-14.34,13.27-7.08,19.49-26.51,34.18-44.02,34.18h-.26l-.11-119.57h.37"/>
      <path class="cls-17" d="M170.59,111.79c-2.36-3.82-6.01-2.17-6.93-1.32-.96.92-1.7,2.09-1.14,4.34.33,1.29,1.66,1.4,1.36,3.31-.37,2.17-1.36,2.28-1.92,2.79-.55.48-1.29.85-1.62,1.76-.33.92-.41,1.87-.22,2.72.37,1.54,2.62.29,4.13-.37,1.03-.48,4.17-3.16,4.98-4.04,2.03-2.28,2.95-6.69,1.36-9.19"/>
      <path class="cls-11" d="M114.66,55.18c-15.78,0-27.35,4.59-34.32,13.64-9.77,12.68-9.4,32.01-5.82,45.91,1.11,4.26,1.7,15.69,2.43,19.88,3.43,18.78,24.11,28.78,37.71,28.78h.37V55.18h-.22"/>
      <path class="cls-15" d="M148.94,68.85c-6.93-9.01-18.36-13.6-33.92-13.67v108.21c15.56-.18,34.17-11.14,37.34-28.78.77-4.19,1.33-15.62,2.43-19.88,3.61-13.86,3.98-33.15-5.86-45.87"/>
      <path class="cls-1" d="M113.1,140.27c-.22-.04-.42-.08-.59-.11.2.04.4.08.59.11Z"/>
      <path class="cls-1" d="M112.28,144.16c-.14-.03-.27-.06-.36-.08.12.03.24.05.36.08Z"/>
      <path class="cls-19" d="M112.51,144.21c-.08-.02-.15-.03-.23-.05.07.02.14.03.23.05Z"/>
      <path class="cls-19" d="M111.92,144.08c-.07-.02-.13-.04-.2-.06h0s.08.02.21.06Z"/>
      <path class="cls-6" d="M106.07,130.17c-.18-3.74,6.85-1.37,9.16-1.25,1.83.09,7.4-1.18,7.88-.85,3.28,2.22-3.47,6.68-8,6.68-1.21,0-8.94-2.33-9.05-4.58Z"/>
      <path class="cls-1" d="M72,88.91c-.43,1.43-.73,3-.93,4.67,0,0,.63-2.64,2.03-6.54-.6.83-1,1.5-1.1,1.87Z"/>
      <path class="cls-5" d="M101.63,55.45l-.2.2.03.07c.07-.1.1-.2.17-.27Z"/>
      <path class="cls-1" d="M113.25,142.13c-.22-.04-.43-.08-.61-.12.21.04.41.09.61.12Z"/>
      <path class="cls-1" d="M112.41,141.96c-.14-.03-.28-.06-.37-.09.12.03.24.06.37.09Z"/>
      <path class="cls-23" d="M112.64,142.01c-.08-.02-.15-.03-.23-.05.08.02.14.03.23.05Z"/>
      <path class="cls-23" d="M112.04,141.88c-.07-.02-.14-.04-.21-.06h0s.08.02.21.06Z"/>
      <path class="cls-10" d="M80.59,97.42s3.66,15.07,9.95,16.3c6.29,1.23,13.09-1.22,13.09-1.22,0,0,.65-17.71-2.57-20.02-3.22-2.32-10.63-5.68-20.47,4.94Z"/>
      <path class="cls-21" d="M103.64,112.45s-.14.04-.47.18c-.08-5.43-.58-12.89-2.59-14.32-2.99-2.2-9.74-5.28-18.75,3.17-.82-2.33-1.23-4.1-1.23-4.1,9.86-10.64,17.28-7.29,20.47-4.96,3.22,2.32,2.57,20.05,2.57,20.05Z"/>
      <ellipse class="cls-2" cx="93.73" cy="104.78" rx="6.19" ry="6.21"/>
      <path class="cls-18" d="M93.45,108.91c-1.79-.15-3.16-1.96-3-3.95.16-1.99,1.81-3.54,3.6-3.39,1.79.15,3.16,1.95,3,3.94-.16,1.99-1.81,3.55-3.6,3.4Z"/>
      <path class="cls-12" d="M93.6,108.2c-1.24-.11-2.53-1.48-2.4-3.16.14-1.69,1.63-2.83,2.88-2.73,1.24.11,2.53,1.48,2.39,3.17-.14,1.69-1.63,2.83-2.87,2.72Z"/>
      <path class="cls-10" d="M92.59,104.04c-.05.61-.68,1.05-1.39,1-.72-.06-1.26-.61-1.21-1.21.05-.61.67-1.06,1.39-1,.72.06,1.26.6,1.21,1.21Z"/>
      <path class="cls-10" d="M96.6,107.56c-.03.3-.34.53-.69.5-.36-.03-.63-.3-.61-.61.03-.3.34-.53.69-.5.36.03.63.3.61.61Z"/>
      <path class="cls-1" d="M113.35,143.91c-.22-.04-.43-.08-.61-.12.21.04.41.09.61.12Z"/>
      <path class="cls-1" d="M112.51,143.74c-.14-.03-.28-.06-.37-.09.12.03.24.06.37.09Z"/>
      <path class="cls-23" d="M112.74,143.79c-.08-.02-.15-.03-.23-.05.08.02.14.03.23.05Z"/>
      <path class="cls-23" d="M112.14,143.66c-.07-.02-.14-.04-.21-.06h0s.08.02.21.06Z"/>
      <path class="cls-1" d="M113.11,143.49c-.24-.04-.46-.08-.65-.12.22.05.44.09.65.12Z"/>
      <path class="cls-1" d="M112.21,143.31c-.15-.03-.3-.07-.4-.09.13.03.26.06.4.09Z"/>
      <path class="cls-19" d="M112.46,143.36c-.08-.02-.17-.03-.25-.05.08.02.15.03.25.05Z"/>
      <path class="cls-19" d="M111.81,143.22c-.08-.02-.15-.04-.22-.06h0s.09.03.23.06Z"/>
      <path class="cls-1" d="M112.93,142.86c-.24-.04-.46-.08-.65-.12.22.05.44.09.65.12Z"/>
      <path class="cls-1" d="M112.02,142.68c-.15-.03-.3-.07-.4-.09.13.03.26.06.4.09Z"/>
      <path class="cls-19" d="M112.27,142.73c-.08-.02-.17-.03-.25-.05.08.02.15.03.25.05Z"/>
      <path class="cls-19" d="M111.63,142.59c-.08-.02-.15-.04-.22-.06h0s.09.03.23.06Z"/>
      <path class="cls-1" d="M113.48,142.77c-.23-.04-.44-.08-.63-.12.21.05.42.09.63.12Z"/>
      <path class="cls-1" d="M112.61,142.6c-.14-.03-.29-.06-.38-.09.13.03.25.06.38.09Z"/>
      <path class="cls-19" d="M112.85,142.65c-.08-.02-.16-.03-.24-.05.08.02.15.03.24.05Z"/>
      <path class="cls-19" d="M112.22,142.51c-.07-.02-.14-.04-.21-.06h0s.08.03.22.06Z"/>
      <path class="cls-10" d="M149.84,96.9s-3.66,15.07-9.95,16.3c-6.29,1.23-13.09-1.22-13.09-1.22,0,0-.65-17.71,2.57-20.02,3.22-2.32,10.63-5.68,20.47,4.94Z"/>
      <path class="cls-21" d="M126.79,111.94s.14.04.47.18c.08-5.43.58-12.89,2.59-14.32,2.99-2.2,9.74-5.28,18.75,3.16.82-2.33,1.23-4.1,1.23-4.1-9.86-10.64-17.28-7.29-20.47-4.96-3.22,2.32-2.57,20.05-2.57,20.05Z"/>
      <path class="cls-2" d="M130.51,104.27c0,3.43,2.77,6.21,6.19,6.21s6.19-2.78,6.19-6.21-2.77-6.21-6.19-6.21-6.19,2.78-6.19,6.21Z"/>
      <path class="cls-18" d="M136.99,108.4c1.79-.15,3.16-1.96,3-3.95-.16-1.99-1.81-3.54-3.6-3.39-1.79.15-3.16,1.95-3,3.94.16,1.99,1.81,3.55,3.6,3.4Z"/>
      <path class="cls-12" d="M136.83,107.68c1.24-.11,2.53-1.47,2.4-3.16-.14-1.69-1.63-2.83-2.88-2.73-1.24.11-2.53,1.48-2.39,3.17.14,1.69,1.63,2.83,2.87,2.72Z"/>
      <path class="cls-10" d="M137.84,103.52c.05.61.68,1.05,1.39,1,.72-.06,1.26-.61,1.21-1.21-.05-.61-.67-1.06-1.39-1-.72.06-1.26.6-1.21,1.21Z"/>
      <path class="cls-10" d="M133.83,107.05c.03.3.34.53.69.5.36-.03.63-.3.61-.61-.03-.3-.34-.53-.69-.5-.36.03-.63.3-.61.61Z"/>
      <g>
        <path d="M107.41,97.18c-.05-.07-1.19-1.81-3.52-3.61-1.46-1.12-2.89-1.98-4.38-2.62-1.81-.76-3.75-1.3-5.63-1.56-1.7-.19-3.59-.14-5.79.16-1.68.32-3.32.82-4.71,1.44-.99.34-1.78.82-2.41,1.21-.24.15-.46.28-.68.4l-3,1.89,3.46-.82c.16-.04.34-.09.52-.14.72-.19,1.61-.43,2.65-.58.24-.04.49-.09.75-.14.44-.09.89-.18,1.36-.2.52-.04,1.07-.07,1.63-.11l.73-.05c1.92-.02,3.54.12,4.97.45,1.57.27,3.19.78,4.67,1.47,1.4.67,2.74,1.34,3.79,2.11,2.11,1.42,3.29,2.6,3.3,2.61h0c.29.29.68.44,1.07.44.28,0,.57-.08.82-.25.7-.46.89-1.4.45-2.08l-.03-.05Z"/>
        <path d="M150.45,92.59c-.2-.11-.42-.24-.66-.39-.63-.39-1.41-.87-2.38-1.2-1.42-.63-3.06-1.13-4.76-1.45-2.18-.29-4.07-.35-5.78-.15-1.87.26-3.82.8-5.63,1.56-1.46.63-2.94,1.51-4.38,2.62-2.29,1.76-3.43,3.47-3.51,3.6l-.02.03c-.39.6-.3,1.4.2,1.9.28.29.66.45,1.07.45h0c.4,0,.78-.16,1.06-.45h.01c.11-.12,1.25-1.24,3.3-2.62,1.03-.76,2.37-1.43,3.77-2.1,1.49-.69,3.1-1.2,4.7-1.48,1.42-.33,3.04-.47,4.93-.45l.76.05c.55.04,1.09.08,1.62.11.46.02.91.11,1.35.2.25.05.5.1.75.14,1.05.15,1.94.39,2.65.58.19.05.36.1.53.14l3.46.82-3.03-1.91Z"/>
      </g>
      <path class="cls-1" d="M112.29,145.7c-.23-.04-.45-.08-.64-.12.22.05.43.09.64.12Z"/>
      <path class="cls-1" d="M111.41,145.52c-.15-.03-.29-.07-.39-.09.13.03.26.06.39.09Z"/>
      <path class="cls-14" d="M111.65,145.57c-.08-.02-.16-.03-.24-.05.08.02.15.03.24.05Z"/>
      <path class="cls-14" d="M111.02,145.43c-.07-.02-.14-.04-.22-.06h0s.08.03.22.06Z"/>
      <path class="cls-13" d="M106.16,148.68c-.18-2.42,6.73.51,9,.58,1.81.06,7.25-.36,7.75-.55,3.8-1.43-.21,4.05-7.86,4.34-3.51.14-8.78-2.9-8.88-4.36Z"/>
      <path class="cls-9" d="M128.65,144.01c-1.88-.09-3.8,1.48-6.06,1.24-.09-.05-.14-.05-.23-.05-.52-.09-1.03,0-1.6.14-.7.15-1.41.43-2.07.66-1.13.37-2.4.66-3.7.56h0s-.05,0-.07,0-.05,0-.07,0h0c-1.31.09-2.58-.2-3.7-.57-.66-.23-1.37-.52-2.07-.66-.56-.14-1.08-.23-1.6-.14-.1,0-.14,0-.23.05-2.26.24-4.18-1.33-6.06-1.24-.52.05-1.27-.09-1.69-.09.09.05.19.09.28.14,5.35,2.61,9.96,7.51,15.07,7.35h.15c5.11.16,9.72-4.74,15.07-7.35.1-.05.19-.09.28-.14-.42,0-1.17.14-1.69.09Z"/>
      <path class="cls-8" d="M130.22,143.86h0s-5.44-2.1-9.3-.87c0,0-1.44.56-2.93.91-.91.35-2.01.46-3.07.41h0c-.81-.03-1.59-.14-2.22-.25-.21-.03-.42-.08-.64-.12-.09-.02-.16-.03-.24-.05-.13-.03-.26-.06-.39-.09-.14-.03-.22-.06-.22-.06h0c-1.24-.34-2.3-.75-2.3-.75-3.87-1.23-9.3.87-9.3.87h0c-.07.03-.12.06-.12.06.42,0,1.17.14,1.69.09,1.88-.09,3.8,1.48,6.06,1.24.09-.05.14-.05.23-.05.52-.09,1.03,0,1.6.14.7.15,1.41.43,2.07.66,1.13.37,2.4.66,3.7.56h0s.05,0,.07,0,.05,0,.07,0h0c1.31.09,2.58-.2,3.7-.57.66-.23,1.37-.52,2.07-.66.56-.14,1.08-.23,1.6-.14.1,0,.14,0,.23.05,2.26.24,4.18-1.33,6.06-1.24.52.05,1.27-.09,1.69-.09,0,0-.05-.02-.12-.06Z"/>
      <path class="cls-8" d="M105.79,145.14c.1.02,10.19,3.11,18.08.07l-.91-.61h-10.66l-6.5.55Z"/>
      <path class="cls-16" d="M158.04,197.54c-.15-.42-.33-.8-.49-1.21-3.11-7.82-7.4-12.87-11.47-16.08-2.59-2.04-5.1-3.36-7.12-4.19l-17.63,20.04c-.08.09-.17.14-.25.22-3,3.13-7.96,3.09-10.94,0-.16-.17-.34-.3-.49-.49l-16.28-20.3c-1.84.63-4.25,1.72-6.86,3.5-4.51,3.11-9.58,8.39-13.09,17.29-.16.4-.32.79-.47,1.21-1.07,2.93-1.98,6.26-2.67,9.99,5.68,1.35,10.7,2.55,10.7,2.55v13.51h67.43v-13.51s5.97-1.43,12.23-2.92c-.68-3.58-1.57-6.78-2.61-9.62Z"/>
      <path class="cls-22" d="M130.28,26.47l6.44,3.37c-13.66-4.18-27.71-1.26-34.18.57-2.35.52-3.67,1.18-3.67,1.18.57-.01,1.15.02,1.73.03,1.97.11,5.16.52,7.05,1.96-2.84-1.16-7.74-1.57-15.95,1.61-1.15.44-2.2.92-3.19,1.41-3.49,1.52-10.48,4.54-23.9,10.24,0,0,4.43,1.72,9.7,2.3-2.53,2.95-5.14,5.47-9.51,6.81-11.42,3.5-14.73-.99-14.73-.99,0,0,4.95,7.87,13.75,7.89,1.42,0,1.56-.03,1.57-.04-.01.03-3.3,8.45-3.93,14.73-.65,6.42,1.37,10.82,1.99,22.84.54,10.27,3.43,5.01,6.88,12.58,1.17,2.54,1.21,5.39,1.21,5.39,1.28.3,4.63-6.16,2.22-17.4-1.57-7.29,6.18-34.93,24.88-29.54,2.63.76,4.79,1.7,6.69,2.62,4.55,2.28,41.92,22.22,28.28,54.17,0,0,14.28-22.42,11.79-46.11,1.89,5.38,3.24,12.88,3.42,23.39,0,0,7.24-14.76,3.7-29.37,4.03,5,6,12.65,5.04,23.11-1.71,18.62,1.5,18.49,1.5,18.49.96,0-.07-4.96,3.14-8.38,3.21-3.41,8.09-14.92,8.09-26.41,3.41-56.44-40.05-56.46-40.05-56.46Z"/>
    </g>
  </g>
</svg>