<?xml version="1.0" encoding="UTF-8"?>
<svg id="Layer_2" data-name="Layer 2" xmlns="http://www.w3.org/2000/svg" xmlns:xlink="http://www.w3.org/1999/xlink" viewBox="0 0 221.48 223.6">
  <defs>
    <style>
      .cls-1 {
        fill: none;
      }

      .cls-2 {
        fill: #462e1b;
      }

      .cls-3 {
        fill: #ba9d82;
      }

      .cls-4 {
        fill: #e3ad38;
      }

      .cls-5 {
        fill: #ccad8a;
      }

      .cls-6 {
        fill: #d9ab31;
      }

      .cls-7 {
        fill: #8c6297;
      }

      .cls-8 {
        fill: #82241d;
      }

      .cls-9 {
        fill: #44361f;
      }

      .cls-10 {
        fill: #d7bd9d;
      }

      .cls-11 {
        fill: #c1a587;
      }

      .cls-12 {
        fill: #dac6a4;
      }

      .cls-13 {
        fill: #5d373b;
      }

      .cls-14 {
        fill: #fff;
      }

      .cls-15 {
        fill: #dcc5a0;
      }

      .cls-16 {
        fill: #272213;
      }

      .cls-17 {
        fill: #ecdab6;
      }

      .cls-18 {
        fill: #b8987d;
      }

      .cls-19 {
        fill: #785458;
      }

      .cls-20 {
        fill: #ebd9b5;
      }

      .cls-21 {
        fill: #a98d76;
      }

      .cls-22 {
        fill: #714223;
      }

      .cls-23 {
        fill: #b7967d;
      }

      .cls-24 {
        clip-path: url(#clippath);
      }

      .cls-25 {
        fill: #d2bb9b;
      }

      .cls-26 {
        fill: #b5957e;
      }
    </style>
    <clipPath id="clippath">
      <rect class="cls-1" x="99.06" y="155.04" width="25.11" height="14.8"/>
    </clipPath>
  </defs>
  <g id="Layer_1-2" data-name="Layer 1">
    <g>
      <path class="cls-6" d="M119.94,155.57s.24,5.49-1.01,5.67c-.9-2.98-1.37-6.6-3.05-8.24-2.63,3.05-5.08,4.93-5.08,4.93,0,0-2.33-1.94-4.78-4.98-1.85,1.73-3.46,4.3-4.48,7.58-.24-.18-.9-3.82-.9-3.82,0,0-4.3,5.29-5.13,8.84-.84,3.52,2.15,7.28,2.15,7.28,0,0,1.43-.71,2.81-1.91,1.25,8.84,9.85,15.82,9.85,15.82,0,0,8.72-6.51,10.45-15.17,1.06.75,2.02,1.2,2.02,1.2,0,0,3.16-3.76,2.15-7.29-1.73-6.15-5-9.91-5-9.91Z"/>
      <rect class="cls-7" width="221.48" height="223.6"/>
      <path class="cls-15" d="M111.52,139.83v83.76h-45.31c-.74-.29-1.11-.44-1.11-.44,0-10.68,1.58-19.02,3.96-25.53,2.89-7.86,6.98-13.03,10.96-16.42,2.41-2.06,4.76-3.45,6.78-4.42,1.09-.51,2.09-.89,2.93-1.17.18-.06.35-.12.51-.17,1.6-.49,2.58-.6,2.58-.6.18,0,.34-.02.51-.05.58-.09,1.11-.35,1.6-.77.72-.58,1.37-1.5,1.92-2.69.02-.03.03-.05.05-.06v-.02c.66-1.44,1.23-3.28,1.69-5.43.18-.84.34-1.69.48-2.61.23-1.55.45-3.18.63-4.87.08-1.04.18-2.03.29-3.1.41-5.13.52-10.74.52-16.06,0,0,6.08.63,11.02.63Z"/>
      <path class="cls-20" d="M158.12,223.15s-.41.15-1.07.44h-45.53v-83.76h.11c4.91,0,11.07-.63,11.07-.63,0,5.28.11,10.81.51,15.95.12,1,.23,2.03.31,3.02.18,1.77.4,3.42.66,4.97v.03c.08.71.21,1.34.34,2,.45,2.18.98,4.1,1.64,5.63.81,1.92,1.8,3.24,3.01,3.78.14.06.26.11.41.15.25.08.52.11.78.11,0,0,.58.06,1.57.32.38.11.84.23,1.35.4.45.14.92.31,1.44.51.46.18.95.38,1.47.61v.02c2.7,1.24,6.03,3.28,9.27,6.63,3.22,3.32,6.34,7.92,8.7,14.29,2.38,6.51,3.96,14.84,3.96,25.53Z"/>
      <g class="cls-24">
        <path class="cls-3" d="M124.16,162.99v.04c-1.14,1.76-4.98,6.82-12.57,6.82h-.07c-7.19-.04-11.39-5.24-12.46-6.78.22-1.54.44-3.15.63-4.84.07-.99.18-2.02.3-3.08,3.5.88,7.34,1.43,11.39,1.5h.15c4.2-.07,8.07-.66,11.69-1.61.11.99.22,2.02.3,3,.18,1.76.41,3.41.66,4.95"/>
      </g>
      <path class="cls-5" d="M111,44.39c-48,0-48.26,40.12-46.12,66.39-3.28-6.23-13.05-4.32-12.24,5.5.77,9.45,14.73,14.27,14.34,13.23,7.27,19.43,26.51,34.08,44.02,34.08h.37V44.39h-.37"/>
      <path class="cls-21" d="M55.71,112.13c2.36-3.81,6.05-2.16,6.93-1.32.96.92,1.73,2.09,1.14,4.32-.33,1.28-1.66,1.39-1.36,3.3.37,2.16,1.36,2.27,1.95,2.78.55.48,1.25.84,1.59,1.76.37.92.41,1.87.22,2.71-.37,1.54-2.62.29-4.13-.37-1-.48-4.17-3.15-4.98-4.03-1.99-2.27-2.95-6.67-1.36-9.16"/>
      <path class="cls-10" d="M111.26,44.39c48,0,48.26,40.12,46.15,66.39,3.28-6.23,13.01-4.32,12.2,5.5-.74,9.45-14.72,14.27-14.34,13.23-7.08,19.43-26.51,34.08-44.02,34.08h-.26l-.11-119.19h.37"/>
      <path class="cls-21" d="M166.56,112.13c-2.36-3.81-6.01-2.16-6.93-1.32-.96.92-1.7,2.09-1.14,4.32.33,1.28,1.66,1.39,1.36,3.3-.37,2.16-1.36,2.27-1.92,2.78-.55.48-1.29.84-1.62,1.76-.33.92-.41,1.87-.22,2.71.37,1.54,2.62.29,4.13-.37,1.03-.48,4.17-3.15,4.98-4.03,2.03-2.27,2.95-6.67,1.36-9.16"/>
      <path class="cls-15" d="M110.63,55.71c-15.78,0-27.35,4.58-34.32,13.59-9.77,12.64-9.4,31.91-5.82,45.76,1.11,4.25,1.7,15.65,2.43,19.82,3.43,18.72,24.11,28.69,37.71,28.69h.37V55.71h-.22"/>
      <path class="cls-20" d="M144.91,69.34c-6.93-8.98-18.36-13.56-33.92-13.63v107.87c15.56-.18,34.17-11.1,37.34-28.69.77-4.18,1.33-15.57,2.43-19.82,3.61-13.81,3.98-33.05-5.86-45.73"/>
      <path class="cls-1" d="M109.07,140.53c-.22-.04-.42-.08-.59-.11.2.04.4.08.59.11Z"/>
      <path class="cls-1" d="M108.25,144.41c-.14-.03-.27-.06-.36-.08.12.03.24.05.36.08Z"/>
      <path class="cls-23" d="M108.48,144.46c-.08-.02-.15-.03-.23-.05.07.02.14.03.23.05Z"/>
      <path class="cls-23" d="M107.89,144.33c-.07-.02-.13-.04-.2-.06h0s.08.02.21.06Z"/>
      <path class="cls-10" d="M101.84,130.46c-.18-3.73,6.85-1.36,9.16-1.25,1.83.09,7.4-1.17,7.88-.85,3.28,2.21-3.47,6.66-8,6.66-1.21,0-8.94-2.32-9.05-4.57Z"/>
      <path class="cls-1" d="M67.96,89.33c-.43,1.43-.73,2.99-.93,4.66,0,0,.63-2.63,2.03-6.52-.6.83-1,1.5-1.1,1.86Z"/>
      <path class="cls-9" d="M97.59,55.98l-.2.2.03.07c.07-.1.1-.2.17-.27Z"/>
      <path class="cls-1" d="M109.22,142.38c-.22-.04-.43-.08-.61-.12.21.04.41.09.61.12Z"/>
      <path class="cls-1" d="M108.38,142.22c-.14-.03-.28-.06-.37-.08.12.03.24.06.37.08Z"/>
      <path class="cls-26" d="M108.61,142.27c-.08-.02-.15-.03-.23-.05.08.02.14.03.23.05Z"/>
      <path class="cls-26" d="M108.01,142.13c-.07-.02-.14-.04-.21-.06h0s.08.02.21.06Z"/>
      <path class="cls-14" d="M76.56,97.81s3.66,15.02,9.95,16.25c6.29,1.23,13.09-1.21,13.09-1.21,0,0,.65-17.65-2.57-19.96-3.22-2.32-10.63-5.66-20.47,4.92Z"/>
      <path class="cls-25" d="M99.61,112.8s-.14.04-.47.18c-.08-5.41-.58-12.85-2.59-14.28-2.99-2.19-9.74-5.27-18.75,3.16-.82-2.33-1.23-4.09-1.23-4.09,9.86-10.61,17.28-7.27,20.47-4.95,3.22,2.32,2.57,19.99,2.57,19.99Z"/>
      <circle class="cls-2" cx="89.7" cy="105.15" r="6.19"/>
      <path class="cls-22" d="M89.41,109.27c-1.79-.15-3.16-1.95-3-3.93.16-1.98,1.81-3.53,3.6-3.38,1.79.15,3.16,1.95,3,3.93-.16,1.98-1.81,3.54-3.6,3.39Z"/>
      <path class="cls-16" d="M89.57,108.56c-1.24-.11-2.53-1.47-2.4-3.15.14-1.69,1.63-2.82,2.88-2.72,1.24.11,2.53,1.48,2.39,3.16-.14,1.68-1.63,2.82-2.87,2.72Z"/>
      <path class="cls-14" d="M88.56,104.41c-.05.61-.68,1.05-1.39.99-.72-.06-1.26-.6-1.21-1.21.05-.61.67-1.05,1.39-1,.72.06,1.26.6,1.21,1.21Z"/>
      <path class="cls-14" d="M92.57,107.92c-.03.3-.34.53-.69.5-.36-.03-.63-.3-.61-.6.03-.3.34-.53.69-.5.36.03.63.3.61.6Z"/>
      <path class="cls-1" d="M109.32,144.16c-.22-.04-.43-.08-.61-.12.21.04.41.09.61.12Z"/>
      <path class="cls-1" d="M108.47,143.99c-.14-.03-.28-.06-.37-.08.12.03.24.06.37.08Z"/>
      <path class="cls-26" d="M108.71,144.04c-.08-.02-.15-.03-.23-.05.08.02.14.03.23.05Z"/>
      <path class="cls-26" d="M108.11,143.91c-.07-.02-.14-.04-.21-.06h0s.08.02.21.06Z"/>
      <path class="cls-1" d="M109.08,143.74c-.24-.04-.46-.08-.65-.12.22.05.44.09.65.12Z"/>
      <path class="cls-1" d="M108.18,143.56c-.15-.03-.3-.07-.4-.09.13.03.26.06.4.09Z"/>
      <path class="cls-23" d="M108.43,143.62c-.08-.02-.17-.03-.25-.05.08.02.15.03.25.05Z"/>
      <path class="cls-23" d="M107.78,143.47c-.08-.02-.15-.04-.22-.06h0s.09.03.23.06Z"/>
      <path class="cls-1" d="M108.89,143.11c-.24-.04-.46-.08-.65-.12.22.05.44.09.65.12Z"/>
      <path class="cls-1" d="M107.99,142.93c-.15-.03-.3-.07-.4-.09.13.03.26.06.4.09Z"/>
      <path class="cls-23" d="M108.24,142.99c-.08-.02-.17-.03-.25-.05.08.02.15.03.25.05Z"/>
      <path class="cls-23" d="M107.6,142.84c-.08-.02-.15-.04-.22-.06h0s.09.03.23.06Z"/>
      <path class="cls-1" d="M109.45,143.02c-.23-.04-.44-.08-.63-.12.21.05.42.09.63.12Z"/>
      <path class="cls-1" d="M108.57,142.85c-.14-.03-.29-.06-.38-.09.13.03.25.06.38.09Z"/>
      <path class="cls-23" d="M108.81,142.9c-.08-.02-.16-.03-.24-.05.08.02.15.03.24.05Z"/>
      <path class="cls-23" d="M108.19,142.76c-.07-.02-.14-.04-.21-.06h0s.08.03.22.06Z"/>
      <path class="cls-14" d="M145.8,97.3s-3.66,15.02-9.95,16.25c-6.29,1.23-13.09-1.21-13.09-1.21,0,0-.65-17.65,2.57-19.96,3.22-2.32,10.63-5.66,20.47,4.92Z"/>
      <path class="cls-25" d="M122.76,112.29s.14.04.47.18c.08-5.41.58-12.85,2.59-14.28,2.99-2.19,9.74-5.27,18.75,3.16.82-2.33,1.23-4.09,1.23-4.09-9.86-10.61-17.28-7.27-20.47-4.95-3.22,2.32-2.57,19.99-2.57,19.99Z"/>
      <path class="cls-2" d="M126.48,104.64c0,3.42,2.77,6.19,6.19,6.19s6.19-2.77,6.19-6.19-2.77-6.19-6.19-6.19-6.19,2.77-6.19,6.19Z"/>
      <path class="cls-22" d="M132.95,108.76c1.79-.15,3.16-1.95,3-3.93-.16-1.98-1.81-3.53-3.6-3.38-1.79.15-3.16,1.95-3,3.93.16,1.98,1.81,3.54,3.6,3.39Z"/>
      <path class="cls-16" d="M132.8,108.05c1.24-.11,2.53-1.47,2.4-3.15-.14-1.69-1.63-2.82-2.88-2.72-1.24.11-2.53,1.48-2.39,3.16.14,1.68,1.63,2.82,2.87,2.72Z"/>
      <path class="cls-14" d="M133.81,103.9c.05.61.68,1.05,1.39.99.72-.06,1.26-.6,1.21-1.21-.05-.61-.67-1.05-1.39-1-.72.06-1.26.6-1.21,1.21Z"/>
      <path class="cls-14" d="M129.79,107.41c.03.3.34.53.69.5.36-.03.63-.3.61-.6-.03-.3-.34-.53-.69-.49-.36.03-.63.3-.61.6Z"/>
      <g>
        <path d="M103.38,97.57c-.05-.07-1.19-1.81-3.52-3.6-1.46-1.12-2.89-1.97-4.38-2.61-1.81-.76-3.75-1.3-5.63-1.55-1.7-.19-3.59-.14-5.8.16-1.68.32-3.32.82-4.71,1.43-.99.34-1.78.82-2.41,1.21-.24.15-.46.28-.68.4l-3,1.89,3.46-.81c.16-.04.34-.09.52-.14.72-.19,1.61-.43,2.65-.58.24-.04.49-.08.75-.14.44-.09.89-.18,1.36-.2.52-.04,1.07-.07,1.63-.11l.73-.05c1.92-.02,3.54.12,4.97.45,1.57.27,3.19.78,4.67,1.46,1.4.67,2.74,1.33,3.79,2.1,2.11,1.41,3.29,2.59,3.3,2.6h0c.29.29.68.44,1.07.44.28,0,.57-.08.82-.24.7-.46.89-1.4.45-2.07l-.03-.05Z"/>
        <path d="M146.42,93c-.2-.11-.42-.24-.66-.39-.63-.39-1.41-.87-2.38-1.2-1.42-.63-3.06-1.13-4.76-1.45-2.18-.29-4.07-.34-5.78-.15-1.87.26-3.82.79-5.63,1.55-1.46.63-2.94,1.5-4.38,2.61-2.29,1.76-3.43,3.46-3.51,3.59l-.02.03c-.39.59-.3,1.39.2,1.89.28.29.66.44,1.06.44h0c.4,0,.78-.16,1.06-.44h.01c.11-.12,1.25-1.24,3.3-2.61,1.03-.76,2.37-1.42,3.77-2.09,1.49-.69,3.1-1.2,4.7-1.47,1.42-.33,3.04-.47,4.93-.45l.76.05c.55.04,1.09.08,1.62.11.46.02.91.11,1.35.2.25.05.5.1.75.14,1.05.15,1.94.39,2.65.58.19.05.36.1.53.14l3.46.81-3.03-1.9Z"/>
      </g>
      <path class="cls-1" d="M108.26,145.94c-.23-.04-.45-.08-.64-.12.22.05.43.09.64.12Z"/>
      <path class="cls-1" d="M107.38,145.77c-.15-.03-.29-.07-.39-.09.13.03.26.06.39.09Z"/>
      <path class="cls-18" d="M107.62,145.82c-.08-.02-.16-.03-.24-.05.08.02.15.03.24.05Z"/>
      <path class="cls-18" d="M106.99,145.68c-.07-.02-.14-.04-.22-.06h0s.08.03.22.06Z"/>
      <path class="cls-17" d="M102.13,148.92c-.18-2.42,6.73.51,9,.58,1.81.06,7.25-.36,7.75-.55,3.8-1.42-.21,4.04-7.86,4.32-3.51.14-8.78-2.89-8.88-4.35Z"/>
      <path class="cls-12" d="M124.62,144.26c-1.88-.09-3.8,1.47-6.06,1.23-.09-.05-.14-.05-.23-.05-.52-.09-1.03,0-1.6.14-.7.15-1.41.43-2.07.66-1.13.37-2.4.66-3.7.56h0s-.05,0-.07,0-.05,0-.07,0h0c-1.31.09-2.58-.2-3.7-.57-.66-.23-1.37-.51-2.07-.66-.56-.14-1.08-.23-1.6-.14-.1,0-.14,0-.23.05-2.26.24-4.18-1.32-6.06-1.23-.52.05-1.27-.09-1.69-.09.09.05.19.09.28.14,5.35,2.61,9.96,7.49,15.07,7.33h.15c5.11.16,9.72-4.73,15.07-7.33.1-.05.19-.09.28-.14-.42,0-1.17.14-1.69.09Z"/>
      <path class="cls-11" d="M126.19,144.11h0s-5.44-2.09-9.3-.87c0,0-1.44.56-2.93.9-.91.35-2.01.46-3.07.41h0c-.81-.03-1.59-.14-2.22-.25-.21-.03-.42-.08-.64-.12-.09-.02-.16-.03-.24-.05-.13-.03-.26-.06-.39-.09-.14-.03-.22-.06-.22-.06h0c-1.24-.34-2.3-.75-2.3-.75-3.87-1.23-9.3.87-9.3.87h0c-.07.03-.12.06-.12.06.42,0,1.17.14,1.69.09,1.88-.09,3.8,1.47,6.06,1.23.09-.05.14-.05.23-.05.52-.09,1.03,0,1.6.14.7.15,1.41.43,2.07.66,1.13.37,2.4.66,3.7.56h0s.05,0,.07,0,.05,0,.07,0h0c1.31.09,2.58-.2,3.7-.57.66-.23,1.37-.51,2.07-.66.56-.14,1.08-.23,1.6-.14.1,0,.14,0,.23.05,2.26.24,4.18-1.32,6.06-1.23.52.05,1.27-.09,1.69-.09,0,0-.05-.02-.12-.06Z"/>
      <path class="cls-11" d="M101.75,145.39c.1.02,10.19,3.1,18.08.07l-.91-.61h-10.66l-6.5.54Z"/>
      <path class="cls-8" d="M158.12,223.15s-.41.15-1.07.44h-90.84c-.74-.29-1.11-.44-1.11-.44,0-10.68,1.58-19.02,3.96-25.53,2.89-7.86,6.98-13.03,10.96-16.42l9.27,8.52c6.29,5.79,14.2,8.92,22.23,9.3,8.26.4,16.65-2.09,23.58-7.54l10.36-8.15c3.22,3.32,6.34,7.92,8.7,14.29,2.38,6.51,3.96,14.84,3.96,25.53Z"/>
      <path class="cls-4" d="M136.18,176.69v.02c-3.45,29.9-21.04,32.91-24.67,33.22-.37.03-.6.03-.64.03h-.02l-.37-.05c-20.34-5.33-23.32-29.12-23.68-33.12,1.09-.51,2.09-.89,2.93-1.17.06.14.09.29.11.46.02.25,1.49,25.48,21.23,30.81.11,0,.26-.02.45-.03,3.3-.26,18.59-2.95,21.67-30.94.02-.12.05-.23.08-.34.45.14.92.31,1.44.51.46.18.95.38,1.47.61Z"/>
      <path class="cls-4" d="M131.92,175.17c-4.37,20.55-18.43,20.78-18.86,20.78h-.02l-.28-.05c-.43-.11-.84-.23-1.24-.38-11.45-3.67-15.3-15.15-16.59-21.49.72-.58,1.37-1.5,1.92-2.69.02-.03.03-.05.05-.06.63,4.64,3.36,17.59,14.63,21.72.54.22,1.11.4,1.69.55,1.43-.03,12.59-.92,16.36-18.82.25.08.52.11.78.11,0,0,.58.06,1.57.32Z"/>
      <path class="cls-19" d="M155.19,125.24l-2.03,1.5s-12.86,28.9-23.72,21.54l-.04.14c-.54-1.68-1.33-3.12-2.31-4.19-3.07-4.52-9.27-7.62-16.45-7.62-6.61,0-12.39,2.63-15.66,6.58-1.46,1.01-2.65,2.78-3.4,4.97v-.02c-10.86,7.36-22.87-21.39-22.87-21.39l-2.03-1.5-.05,4.59c4.04,17.53,21,29.39,27.78,33.51.56.49,1.16.9,1.8,1.13.3.16.64.31.97.46.02.01.05.03.05.03h0c3.37,1.49,8.11,2.43,13.4,2.43,5.64,0,10.68-1.07,14.08-2.74l-.09.31s25.53-13.08,30.61-35.13l-.05-4.59ZM119.65,161.38c0-.06.03-.12.03-.17,0-1.74-4.13-3.14-9.24-3.14s-9.23,1.41-9.23,3.14c0,.03,0,.05,0,.07-1.81-.45-3.42-1.03-4.76-1.7-.71-1.75-1.15-3.82-1.15-6.06v-.02c0-1.19.55-2.31,1.45-3.09,2.71-2.33,6.42-3.98,10.62-4.55,1.06-.14,2.15-.22,3.26-.22s2.2.08,3.26.22c3.82.52,7.21,1.93,9.82,3.93,1.15.88,1.85,2.26,1.85,3.7v.02c0,2.34-.46,4.5-1.24,6.3-1.35.62-2.93,1.15-4.69,1.57Z"/>
      <path class="cls-13" d="M70.19,43.24c11.09-11.95,27.4-17.75,27.4-17.75l-4.52,4.32c2.7-2.11,7.52-5.04,15.57-7.62,11.46-3.67,18.88.42,18.88.42,0,0-6-.21-8.93,2.19,2.89-1.27,7.87-1.72,16.21,1.77,16.3,6.83,16.01,19.07,27.35,22.82,11.61,3.85,14.98-1.09,14.98-1.09,0,0-5.04,8.66-13.99,8.68-1.44,0-1.59-.03-1.6-.04.01.03,3.35,9.29,4,16.2.66,7.07-1.39,11.9-2.02,25.12-.55,11.29-3.49,5.5-7,13.83-1.18,2.79-1.23,5.93-1.23,5.93-.88.23-2.72-2.97-3.07-8.88-4.31,10.03-9.51,16.98-9.51,16.98,13.16-47.46-3.12-50.55-3.12-50.55-7.01-.59-16.26,2.25-20.25,19.34,0,0-2-14.39,1.96-25.7-6.56,3.71-20.6,13.91-20.81,33.42,0,0-12.52-19.04,0-37.91,0,0-12.8,3.19-10.59,34.88,0,0-5.86-4.48-6.77-24.92,0,0-3.84,7.19-4.31,19.32-1.77-1.22-3.44-2.58-4.9-4.12-.29,7.44.92,18.01,5.09,33.05,0,0-6.34-8.48-10.83-20.22.71,14.74-1.91,14.63-1.91,14.63-.97,0,.07-5.45-3.19-9.21-3.26-3.75-8.23-16.41-8.23-29.04s4.26-23.87,15.34-35.82Z"/>
    </g>
  </g>
</svg>