<?xml version="1.0" encoding="UTF-8"?>
<svg id="Layer_2" data-name="Layer 2" xmlns="http://www.w3.org/2000/svg" xmlns:xlink="http://www.w3.org/1999/xlink" viewBox="0 0 78.88 78.88">
  <defs>
    <style>
      .cls-1 {
        fill: none;
      }

      .cls-2 {
        fill: #48443b;
        opacity: .3;
      }

      .cls-3 {
        fill: #debaad;
      }

      .cls-4 {
        fill: #212625;
      }

      .cls-5 {
        fill: #24241d;
        opacity: .4;
      }

      .cls-6 {
        fill: url(#linear-gradient-2);
      }

      .cls-7 {
        fill: #dcb9ac;
      }

      .cls-8 {
        fill: url(#linear-gradient);
      }

      .cls-9 {
        fill: #f3f3f2;
        opacity: .55;
      }

      .cls-10 {
        fill: #f1d4c8;
      }

      .cls-11 {
        fill: #b59376;
      }

      .cls-12 {
        fill: #4f6771;
      }

      .cls-13 {
        fill: #fff;
      }

      .cls-14 {
        fill: #8061a0;
      }

      .cls-15 {
        opacity: .51;
      }

      .cls-16 {
        fill: #c6a095;
      }

      .cls-17 {
        fill: #502c24;
        opacity: .2;
      }

      .cls-18 {
        fill: #f0d4c7;
      }

      .cls-19 {
        fill: #f2f3f2;
      }

      .cls-20 {
        fill: #232118;
      }

      .cls-21 {
        fill: #49443b;
      }
    </style>
    <linearGradient id="linear-gradient" x1="24.09" y1="19.33" x2="24.09" y2="22.64" gradientTransform="translate(10.29 16.99) rotate(4.72)" gradientUnits="userSpaceOnUse">
      <stop offset="0" stop-color="#29383e"/>
      <stop offset=".12" stop-color="#3d5059"/>
      <stop offset=".29" stop-color="#586f7d"/>
      <stop offset=".47" stop-color="#6d8799"/>
      <stop offset=".65" stop-color="#7c99ad"/>
      <stop offset=".82" stop-color="#85a3b9"/>
      <stop offset="1" stop-color="#89a7be"/>
    </linearGradient>
    <linearGradient id="linear-gradient-2" x1="-518.87" y1="64.16" x2="-518.87" y2="67.43" gradientTransform="translate(-474.83 16.99) rotate(175.28) scale(1 -1)" xlink:href="#linear-gradient"/>
  </defs>
  <g id="Layer_1-2" data-name="Layer 1">
    <g>
      <rect class="cls-14" width="78.88" height="78.88"/>
      <g>
        <path class="cls-10" d="M51.18,41.48c.02-2.06,1.32-3.87,3.26-4.9-.04.51-.08,1.02-.12,1.51,1.22-2.26,4.76-1.52,4.44,2.05-.31,3.45-5.34,5.19-5.26,4.79-.05.27-.11.54-.18.81-1.32-1.08-2.14-2.59-2.13-4.25Z"/>
        <path class="cls-3" d="M57.65,38.62c-.85-1.39-2.19-.8-2.52-.5-.35.33-.63.76-.42,1.58.11.46.6.5.47,1.2-.14.78-.5.83-.71,1.01-.21.17-.47.31-.6.64-.13.33-.15.68-.09.98.13.57.96.13,1.51-.12.37-.16,1.53-1.13,1.82-1.45.74-.82,1.1-2.41.53-3.34"/>
      </g>
      <g>
        <path class="cls-10" d="M28.89,41.48c-.02-2.06-1.32-3.87-3.26-4.9.04.51.08,1.02.12,1.51-1.22-2.26-4.76-1.52-4.44,2.05.31,3.45,5.34,5.19,5.26,4.79.05.27.11.54.18.81,1.32-1.08,2.14-2.59,2.13-4.25Z"/>
        <path class="cls-3" d="M22.42,38.62c.85-1.39,2.19-.8,2.52-.5.35.33.63.76.42,1.58-.11.46-.6.5-.47,1.2.14.78.5.83.71,1.01.21.17.47.31.6.64.13.33.15.68.09.98-.13.57-.96.13-1.51-.12-.37-.16-1.53-1.13-1.82-1.45-.74-.82-1.1-2.41-.53-3.34"/>
      </g>
      <path class="cls-18" d="M63.74,78.88H16.58c0-.18.01-.35.01-.52,0,0,.11-5.7.37-6.19.5-1.99-.39-2.9,3.1-4.81.05-.01.81-.22,1.95-.56,2.38-.68,6.43-1.87,8.53-2.69h.02c.47-.21.86-.38,1.09-.52,0-.01.01-.01.01-.01.06-.04.09-.06.12-.09.01-.01.06-.05.08-.08.02-.04.07-.06.09-.09.07-.33,1.04-1.75,1.39-3.31.01-.02.02-.03.04-.06.08-.32.12-.63.14-.95.01-.51.04-1.02.04-1.47.01-.26.02-.5.02-.72,0-.09,0-.19.01-.27,0-.09.01-.18.01-.26v-.07c.01-.21.01-.39.01-.52.01-.14.01-.23.01-.23,0,0-5.39-4.02-5.39-4.89,0,0,5.64.86,9.3,1.26.07.01.14.01.21.02.25.02.47.06.68.08.01,0,.05,0,.12.01.32.02.6.05.86.07.16.01.32.02.45.02.11.02.2.02.31.01.06,0,.12.01.18,0,.14-.01.32-.01.51-.02,0-.01.02-.01.04-.01.42-.02.96-.08,1.55-.15.05,0,.09-.01.14-.01h.01c3.65-.39,9.48-1.29,9.48-1.29,0,.87-5.37,4.89-5.37,4.89,0,0,0,.08.01.23,0,.07,0,.15.01.25-.01.02-.01.03,0,.06v.13s0,.08,0,.12c0,.17.01.36.01.56.02.61.05,1.38.07,2.19.01.17.01.32.04.47.02.15.06.31.09.47,0,.01.01.01.01.01,0,.01,0,.02.01.02h0c.34,1.58,1.33,3.01,1.42,3.35.01.01.01.02.01.03.02.02.05.04.07.06.02.03.07.07.07.08.08.07.2.14.37.22.06.02.09.05.15.07h.01c1.71.81,6.51,2.23,9.25,3.02,1.14.33,1.9.54,1.95.56,3.52,1.92,2.61,2.83,3.11,4.81.27.5.37,6.19.37,6.19,0,.16,0,.34.01.52Z"/>
      <path class="cls-16" d="M46.95,59.93c-.08-.32-.12-.63-.14-.95-.04-1.06.15-2.48.14-3.15-2.03.79-4.32,1.66-6.37,1.66-.12.02-.28.02-.41.02s-.29,0-.41-.02c-2.04,0-4.12-.46-6.15-1.25-.01.66-.04,1.68-.08,2.74-.02.32-.05.63-.14.95,1.96,1.43,4.61,2.91,6.37,2.91.11.02.25.02.37.02h0s.03,0,.04,0c.01,0,.03,0,.04,0h0c.13,0,.26,0,.37-.03,1.76,0,4.41-1.48,6.37-2.91Z"/>
      <path class="cls-18" d="M56.57,31.42c-.01.12-.01.25-.02.39-.02.14-.04.3-.05.45-.02.2-.03.4-.07.59-.01.09-.02.2-.04.3-.03.24-.08.45-.12.69-.01.09-.04.19-.05.28-.05.2-.08.4-.14.6-.02.12-.06.25-.08.4-.03.11-.06.24-.09.34-.15.56-1.43,7.16-2.35,11.45-.38,1.79-.7,3.17-.85,3.56-.86,2.17-6.49,6.18-10.12,7.88-.01.01-.04.01-.05.02-1.03.5-1.9.78-2.43.78h-.07c-.58-.01-1.42-.27-2.38-.71-.05-.04-.11-.06-.17-.08-3.73-1.68-9.3-5.72-10.16-7.9-.17-.41-.51-2-.9-3.98-.85-4.29-1.96-10.5-2.11-11.03-.03-.11-.06-.24-.09-.34-.02-.15-.06-.28-.08-.4-.06-.2-.09-.4-.14-.6-.01-.1-.04-.19-.05-.28-.04-.24-.08-.45-.12-.69-.01-.09-.02-.2-.03-.3-.04-.19-.05-.39-.07-.59-.01-.15-.02-.31-.05-.45-.01-.14-.01-.27-.02-.39-.15-3.1.51-6.24,2.53-9.08,2.44-3.43,5.25-7.07,11.35-7.57h5.15c6.1.5,8.91,4.14,11.35,7.57,2.02,2.84,2.68,5.98,2.53,9.08Z"/>
      <path class="cls-7" d="M37.45,48.37c-.05-1.11,2.03-.4,2.72-.37.54.03,2.19-.35,2.34-.25.97.66-1.03,1.98-2.37,1.98-.36,0-2.65-.69-2.68-1.36Z"/>
      <path class="cls-21" d="M36.71,36.15s-.43-.32-1.12-.66c-.34-.17-.75-.34-1.2-.49-.22-.08-.46-.14-.7-.19-.24-.07-.49-.09-.73-.13-.25-.04-.5-.04-.74-.07-.25,0-.49,0-.73,0-.24.02-.47.04-.68.06-.22.02-.42.07-.61.09-.39.04-.7.14-.93.17-.23.04-.36.06-.36.06,0,0,.11-.07.32-.18.21-.11.49-.29.88-.41.19-.06.39-.16.62-.2.23-.05.47-.11.72-.15.25-.02.52-.05.79-.06.27.02.54.01.82.05.27.05.54.08.8.17.26.06.51.16.75.26.24.09.45.23.66.33.2.13.38.24.54.37.65.5.93.97.93.97Z"/>
      <path class="cls-13" d="M28.57,38.74s1.28,2.54,3.23,2.8c1.95.26,4.03-.08,4.03-.08,0,0,.03-2.94-.99-3.35-1.02-.42-3.34-1.04-6.28.64Z"/>
      <path class="cls-8" d="M34.17,39.58c-.08.9-.85,1.57-1.71,1.51-.86-.06-1.5-.84-1.41-1.73.08-.9.85-1.57,1.72-1.51.86.06,1.5.84,1.41,1.74Z"/>
      <path class="cls-12" d="M32.51,40.58c-.46-.03-.81-.51-.76-1.05.05-.53.48-.96.94-.93.46.03.81.51.76,1.05-.05.54-.48.96-.94.93Z"/>
      <path class="cls-4" d="M32.56,40.38c-.32-.02-.65-.39-.61-.84.04-.45.43-.76.75-.74.32.02.65.39.61.84-.04.45-.43.76-.75.74Z"/>
      <path class="cls-2" d="M35.83,41.46s-.04,0-.14.02c-.08-.9-.31-2.15-.94-2.41-.94-.39-3.06-.97-5.76.36-.28-.39-.42-.69-.42-.69,2.94-1.68,5.27-1.06,6.28-.64,1.02.42.99,3.36.99,3.36Z"/>
      <path class="cls-1" d="M28.57,38.75s1.28,2.54,3.23,2.8c1.95.26,4.03-.08,4.03-.08,0,0,.03-2.94-.99-3.36-1.02-.42-3.34-1.04-6.28.64Z"/>
      <path class="cls-13" d="M32.31,39.27c-.02.16-.18.29-.36.27-.18-.01-.32-.16-.31-.32.01-.16.18-.29.36-.27.19.01.32.16.31.32Z"/>
      <path class="cls-13" d="M33.34,40.2c0,.08-.09.14-.18.14-.09,0-.16-.08-.15-.16,0-.08.09-.14.18-.14.09,0,.16.08.15.16Z"/>
      <path class="cls-21" d="M43.36,36.18s.28-.47.93-.96c.16-.13.34-.25.54-.37.21-.11.42-.24.66-.33.24-.1.48-.2.75-.26.26-.08.53-.11.8-.16.27-.04.55-.03.82-.05.27,0,.53.04.79.06.25.04.49.1.72.15.23.05.43.14.62.2.38.12.67.3.88.41.2.12.32.18.32.18,0,0-.13-.02-.36-.06-.23-.04-.54-.13-.93-.17-.19-.02-.39-.07-.61-.09-.22-.02-.45-.04-.68-.05-.24,0-.48,0-.73,0-.24.02-.5.03-.74.07-.25.04-.5.06-.73.13-.24.05-.48.11-.7.19-.45.14-.86.31-1.2.48-.69.34-1.13.65-1.13.65Z"/>
      <path class="cls-13" d="M51.53,38.9s-1.24,2.49-3.19,2.72c-1.95.23-4.03-.14-4.03-.14,0,0-.08-2.9.93-3.3,1.01-.4,3.32-.98,6.29.72Z"/>
      <path class="cls-1" d="M51.53,38.9s-1.24,2.49-3.19,2.72c-1.95.23-4.03-.14-4.03-.14,0,0-.08-2.9.93-3.3,1.01-.4,3.32-.98,6.29.72Z"/>
      <path class="cls-6" d="M46.1,39.55c.08.88.85,1.55,1.71,1.49.86-.06,1.5-.83,1.41-1.71-.08-.89-.85-1.55-1.71-1.49-.86.06-1.5.83-1.41,1.72Z"/>
      <path class="cls-12" d="M47.75,40.54c.46-.03.81-.51.76-1.04-.05-.53-.48-.95-.94-.91-.46.03-.81.51-.76,1.04.05.53.48.95.94.91Z"/>
      <path class="cls-4" d="M47.71,40.35c.32-.02.65-.38.61-.83-.04-.45-.43-.76-.75-.73-.32.02-.65.38-.61.83.04.45.43.75.75.73Z"/>
      <path class="cls-2" d="M44.31,41.47s.04,0,.14.03c.06-.89.27-2.12.9-2.36.94-.37,3.04-.91,5.77.44.27-.39.41-.68.41-.68-2.97-1.71-5.29-1.12-6.29-.73-1.01.4-.94,3.3-.94,3.3Z"/>
      <path class="cls-13" d="M47.39,39.25c-.01.16-.18.28-.36.27-.18-.01-.32-.16-.31-.32.01-.16.18-.28.36-.27.18.01.32.15.31.32Z"/>
      <path class="cls-13" d="M48.41,40.17c0,.08-.09.14-.18.13-.09,0-.16-.08-.15-.16,0-.08.09-.14.18-.13.09,0,.16.08.15.16Z"/>
      <path class="cls-7" d="M43.72,53.67c-.52-.03-1.05-.14-1.67-.21-.03-.01-.04-.01-.06-.01-.14-.03-.28,0-.44.04-.19.04-.39.12-.57.18-.31.1-.66.18-1.02.15h0s-.01,0-.02,0-.01,0-.02,0h0c-.36.03-.71-.06-1.02-.16-.18-.06-.38-.14-.57-.18-.16-.04-.3-.06-.44-.04-.03,0-.04,0-.06.01-.62.07-1.15.18-1.67.21-.14.01-.35-.03-.47-.03.03.01.05.03.08.04,1.48.72,2.75,1.52,4.16,1.48h.04c1.41.04,2.68-.76,4.16-1.48.03-.01.05-.03.08-.04-.12,0-.32.04-.47.03Z"/>
      <path class="cls-1" d="M39.32,53.14c-.06-.01-.12-.02-.18-.03.06.01.12.02.18.03Z"/>
      <path class="cls-1" d="M39.07,53.09s-.08-.02-.11-.02c.04,0,.07.02.11.02Z"/>
      <path class="cls-17" d="M44.15,53.63h0s-1.5-1.13-2.57-.79c0,0-.4.15-.81.25-.25.1-.55.13-.85.11h0c-.22,0-.44-.04-.61-.07-.06,0-.12-.02-.18-.03-.03,0-.04,0-.07-.01-.04,0-.07-.02-.11-.02-.04,0-.06-.02-.06-.02h0c-.34-.09-.63-.21-.63-.21-1.07-.34-2.57.79-2.57.79h0s-.03.02-.03.02c.12,0,.32.04.47.03.52-.03,1.05-.14,1.67-.21.03-.01.04-.01.06-.01.14-.03.28,0,.44.04.19.04.39.12.57.18.31.1.66.18,1.02.15h0s.01,0,.02,0,.01,0,.02,0h0c.36.03.71-.06,1.02-.16.18-.06.38-.14.57-.18.16-.04.3-.06.44-.04.03,0,.04,0,.06.01.62.07,1.15.18,1.67.21.14.01.35-.03.47-.03,0,0-.01,0-.03-.02Z"/>
      <path class="cls-11" d="M39.14,53.1s-.04,0-.07-.01c.02,0,.04,0,.07.01Z"/>
      <path class="cls-11" d="M38.97,53.07s-.04-.01-.06-.02h0s.02,0,.06.02Z"/>
      <path class="cls-1" d="M40.17,71.29c2.55,0,4.84-1.15,6.41-2.97h-12.81c1.57,1.82,3.85,2.97,6.41,2.97Z"/>
      <path class="cls-10" d="M26.79,45.14c0,.71-.57,1.28-1.28,1.28s-1.28-.57-1.28-1.28.57-1.28,1.28-1.28,1.28.57,1.28,1.28Z"/>
      <path class="cls-14" d="M26.05,45.14c0,.3-.24.54-.54.54s-.54-.24-.54-.54.24-.54.54-.54.54.24.54.54Z"/>
      <path class="cls-10" d="M55.51,45.14c0,.71-.57,1.28-1.28,1.28s-1.28-.57-1.28-1.28.57-1.28,1.28-1.28,1.28.57,1.28,1.28Z"/>
      <path class="cls-14" d="M54.77,45.14c0,.3-.24.54-.54.54s-.54-.24-.54-.54.24-.54.54-.54.54.24.54.54Z"/>
      <g>
        <path class="cls-21" d="M63.73,78.37s-.05-2.86-.17-4.71c-.05-.76-.11-1.35-.19-1.49-.41-1.61.12-2.52-1.59-3.84-.22-.17-.48-.35-.78-.53-.22-.14-.47-.28-.74-.43-.05,0-.8-.21-1.95-.56-.98-.28-2.23-.65-3.51-1.03-.83-.26-1.66-.52-2.46-.78-.82-.27-1.58-.52-2.21-.76-.43-.16-.8-.31-1.09-.45h-.01c-.06-.02-.09-.05-.15-.07-.09-.05-.16-.09-.22-.13-.22,1.81-.98,3.44-2.1,4.74-1.21,1.4-2.86,2.4-4.72,2.79v7.77h21.89c-.01-.17-.01-.34-.01-.51Z"/>
        <path class="cls-21" d="M31.67,63.57s0,0,0,0c0,0-.01,0-.01.02-.22.14-.61.3-1.09.51h-.02c-.13.05-.28.11-.43.17-.6.22-1.29.46-2.06.72-.79.25-1.63.51-2.45.76-1.32.4-2.6.78-3.59,1.05-1.13.34-1.9.56-1.95.56-.44.25-.81.47-1.13.69-.14.09-.27.19-.38.28-1.7,1.33-1.19,2.23-1.59,3.84-.08.15-.14.74-.19,1.49-.12,1.85-.18,4.71-.18,4.71,0,.17-.01.34-.01.51h21.43v-7.89c-1.66-.45-3.13-1.39-4.24-2.67-1.12-1.3-1.88-2.94-2.1-4.75Z"/>
      </g>
      <path class="cls-21" d="M26.25,45.14c0,.41-.33.74-.74.74s-.74-.33-.74-.74.33-.74.74-.74.74.33.74.74Z"/>
      <path class="cls-20" d="M53.81,16.66c-3.75-3.83-9.26-5.7-9.26-5.7l1.53,1.38c-.92-.68-2.54-1.62-5.27-2.45-3.87-1.18-6.38.13-6.38.13,0,0,2.02-.07,3.01.7-.98-.41-2.66-.55-5.48.57-5.51,2.19-5.41,6.12-9.25,7.32-3.93,1.24-5.06-.35-5.06-.35,0,0,1.7,2.78,4.73,2.79.49,0,.54,0,.54-.01,0,0-3.77,3.15-5.27.26,0,0,1.36,3.21,4.18,3.4-.12.52-.21,1.05-.26,1.54-.22,2.27.47,3.82.68,8.06.18,3.63,1.18,1.77,2.36,4.44.4.9.42,1.9.42,1.9.44.1,1.6-2.18.77-6.14-.42-1.99,1.09-8.29,4.78-10.15-2.27,2.82-1.44,7.44-1.44,7.44,3.41-7.84,6.86-7.1,6.86-7.1-6.14,5.9-2.33,14.29-2.33,14.29-.15-7.08,6.07-11.82,7.99-13.12.18-.1.36-.22.56-.36,1.06-.75,2.29-1.37,3.56-1.74.85,1.66,1.4,3.69.99,5.94,0,0,1.81-2.78,1.6-6.09,1.56,1.6,4.34,5.13,3.56,9.46,0,0,1.94-2.98,1.57-6.43.97,1.74,1.41,4.14,1.13,7.25-.59,6.57.52,6.52.52,6.52.33,0-.02-1.75,1.08-2.96,1.1-1.2,2.78-5.27,2.78-9.32s-1.44-7.66-5.19-11.49Z"/>
      <path class="cls-14" d="M54.46,45.77h0c-.42,0-.76-.34-.76-.76h0c0-.42.34-.76.76-.76h0c.42,0,.76.34.76.76h0c0,.42-.34.76-.76.76Z"/>
      <path class="cls-20" d="M54.42,56.26c.47.5,2.42,1.25,2.42,1.25,0,0-1.26-.51-1.68-2.46-.16-.71-.23-1.11-.25-1.4h-.28c.98-1.32,1.53-2.8,1.53-4.36,0-2.02-.93-3.91-2.52-5.5.06.46.09.92.09,1.39,0,4.78-2.99,8.85-7.36,10.86.2-.53.33-1.13.33-1.78,0-1.22-.41-2.29-1.03-2.93-1.03-1.43-3.1-2.41-5.51-2.41-2.21,0-4.15.83-5.24,2.08-.84.55-1.43,1.81-1.43,3.27,0,.61.11,1.18.29,1.69-4.26-2.04-7.17-6.06-7.17-10.76,0-.52.04-1.03.11-1.54-1.69,1.62-2.67,3.56-2.67,5.65,0,1.56.55,3.04,1.53,4.36h-.15c-.01.28-.09.69-.25,1.4-.42,1.95-1.68,2.46-1.68,2.46,0,0,1.95-.74,2.42-1.25.23-.24.83-.91,1.02-1.12,0,0,.01,0,.02.02-.11.22-.36.95,0,2.34.47,1.82,2.4,3.05,2.4,3.05,0,0-1.16-1.45-.84-3.03,0,0-.07.64,1.82,2.4,1.88,1.77,5.4,3.32,5.4,3.32,0,0-.07-1.1-.11-2.3,1.37.37,2.81.59,4.29.59.09,0,.18,0,.26,0,.09,0,.18,0,.26,0,1.49,0,2.92-.21,4.29-.59-.04,1.2-.11,2.3-.11,2.3,0,0,3.52-1.55,5.4-3.32,1.88-1.77,1.81-2.4,1.81-2.4.32,1.58-.84,3.03-.84,3.03,0,0,1.93-1.23,2.4-3.05.36-1.4.1-2.12,0-2.34,0,0,.01,0,.02-.02.18.2.79.88,1.02,1.13ZM35.06,53.69c.92-.96,2.35-1.64,4.01-1.86.35-.04.72-.07,1.09-.07s.74.03,1.09.07c1.57.2,2.93.83,3.85,1.71.03.23.05.47.05.71,0,.74-.16,1.43-.42,2-.45.2-.98.37-1.57.5,0-.02,0-.04,0-.05,0-.55-1.38-1-3.09-1s-3.09.45-3.09,1c0,0,0,.02,0,.02-.6-.14-1.15-.33-1.59-.54-.24-.56-.38-1.21-.38-1.92,0-.19,0-.38.03-.57Z"/>
      <path class="cls-13" d="M25.51,45.9h0c-.42,0-.76-.34-.76-.76h0c0-.42.34-.76.76-.76h0c.42,0,.76.34.76.76h0c0,.42-.34.76-.76.76Z"/>
      <path class="cls-13" d="M25.51,45.68s-.54,2.53,1.21,2.23l.17.82s-2.92.2-1.93-3.59c0,0,.58-.05.54.54Z"/>
      <g>
        <g class="cls-15">
          <path class="cls-5" d="M38.13,40.84c0,2.78-3.06,5.53-6.57,5.53-4.9,0-5.56-2.45-5.56-5.23s-1.22-5.03,5.97-5.03,6.17,1.95,6.17,4.73"/>
        </g>
        <g class="cls-15">
          <path class="cls-5" d="M43.05,40.84c0,2.78,3.05,5.53,6.57,5.53,4.9,0,5.56-2.45,5.56-5.23s1.21-5.03-5.97-5.03-6.17,1.95-6.17,4.73"/>
        </g>
        <path class="cls-9" d="M29.01,45.66c1.28.39,6.09.95,8.08-2.77-4.01-2.07-8.05-.95-10.4.09.69,2.09,1.84,2.54,2.32,2.68Z"/>
        <path class="cls-9" d="M52.11,45.66c.44-.13,1.48-.53,2.17-2.29-3.82-2.29-7.47-1.14-9.83.2,2.18,2.97,6.46,2.46,7.66,2.09Z"/>
        <path class="cls-19" d="M24.98,39.4c.16.61.81,5.01,2.26,6.21,2.38,1.98,10.38,2.07,11.76-5.15.19-.98.44-1.56.87-1.72.18-.06.43-.11.7-.11.26,0,.52.05.7.11.43.16.68.74.87,1.72,1.38,7.22,9.38,7.13,11.76,5.15,1.45-1.2,2.09-5.6,2.25-6.21.16-.61.82-.98,1.01-1.17.19-.18.05-1.91-.02-2.05-.09-.19-1.88-.45-4.22-.67-1.97-.19-5.14-.06-6.38.11-.51.07-1.45.25-2.36.5-1.03.28-2.04.64-2.47.73-.41.09-.73.12-1.06.11h0s-.05,0-.08,0c-.03,0-.05,0-.08,0h0c-.34.01-.66-.02-1.06-.11-.42-.09-1.43-.45-2.47-.73-.91-.25-1.85-.42-2.36-.5-1.25-.17-4.41-.3-6.39-.11-2.34.22-4.12.48-4.22.67-.06.13-.21,1.86-.01,2.05.18.19.84.55,1.01,1.17ZM43.42,38c.24-.88,2.68-1.39,3.73-1.53,1.04-.13,2.59-.23,4.33,0,2.14.27,3.65.46,3.44,3.66-.3,4.6-2.17,5.34-2.81,5.53-1.46.45-7.49,1.1-8.73-4.55-.27-1.24-.21-2.23.04-3.11ZM29.64,36.47c1.74-.22,3.29-.13,4.33,0,1.05.14,3.49.65,3.73,1.53.24.88.3,1.87.03,3.11-1.25,5.66-7.27,5-8.73,4.55-.64-.2-2.51-.93-2.81-5.53-.21-3.2,1.3-3.39,3.44-3.66Z"/>
      </g>
    </g>
  </g>
</svg>