<?xml version="1.0" encoding="UTF-8"?>
<svg id="Layer_2" data-name="Layer 2" xmlns="http://www.w3.org/2000/svg" xmlns:xlink="http://www.w3.org/1999/xlink" viewBox="0 0 221.6 223.72">
  <defs>
    <style>
      .cls-1 {
        fill: none;
      }

      .cls-2 {
        fill: #d6bb9c;
      }

      .cls-3 {
        fill: #462e1b;
      }

      .cls-4 {
        fill: #ba9d82;
      }

      .cls-5 {
        fill: #ccad8a;
      }

      .cls-6 {
        fill: #44361f;
      }

      .cls-7 {
        fill: #d7bd9d;
      }

      .cls-8 {
        fill: #a98b5f;
      }

      .cls-9 {
        fill: #32555e;
      }

      .cls-10 {
        fill: #fff;
      }

      .cls-11 {
        fill: #dcc5a0;
      }

      .cls-12 {
        fill: #272213;
      }

      .cls-13 {
        fill: #52839e;
      }

      .cls-14 {
        fill: #b8987d;
      }

      .cls-15 {
        fill: #403317;
      }

      .cls-16 {
        fill: #ebd9b5;
      }

      .cls-17 {
        fill: #a98d76;
      }

      .cls-18 {
        fill: #714223;
      }

      .cls-19 {
        fill: #b7967d;
      }

      .cls-20 {
        clip-path: url(#clippath);
      }

      .cls-21 {
        fill: #d2bb9b;
      }

      .cls-22 {
        fill: #b5957e;
      }
    </style>
    <clipPath id="clippath">
      <rect class="cls-1" x="94.56" y="157.27" width="24.33" height="14.35"/>
    </clipPath>
  </defs>
  <g id="Layer_1-2" data-name="Layer 1">
    <g>
      <rect class="cls-8" width="221.6" height="223.72"/>
      <g>
        <path class="cls-11" d="M106.63,142.54v81.17h-43.9c-.73-.28-1.07-.43-1.07-.43,0-3.41.16-6.56.48-9.49.61-5.98,1.8-11.01,3.35-15.25,5.59-15.21,15.83-20.03,20.55-21.48,1.53-.49,2.48-.6,2.48-.6.18,0,.33-.01.49-.04.86-.13,1.62-.65,2.28-1.49.42-.51.79-1.12,1.13-1.84.67-1.43,1.23-3.24,1.68-5.34.18-.83.33-1.65.48-2.54.21-1.5.42-3.08.6-4.72.07-1,.18-1.96.3-3.01.39-4.97.49-10.4.49-15.55,0,0,5.91.61,10.68.61Z"/>
        <path class="cls-16" d="M151.8,223.28s-.39.15-1.04.43h-44.13v-81.17h.1c4.76,0,10.73-.61,10.73-.61,0,5.1.1,10.47.51,15.44.1.97.21,1.96.28,2.93.18,1.71.39,3.32.64,4.82v.03c.07.68.21,1.29.33,1.93.43,2.11.95,3.97,1.59,5.46.3.7.62,1.32.97,1.86.58.86,1.22,1.49,1.95,1.8.37.16.76.25,1.18.25,0,0,1.68.19,4.21,1.19,5.18,2.02,13.87,7.33,18.85,20.89,1.56,4.24,2.75,9.27,3.38,15.25.3,2.93.46,6.09.46,9.49Z"/>
        <g class="cls-20">
          <path class="cls-4" d="M118.89,164.98v.04c-1.11,1.7-4.82,6.61-12.18,6.61h-.07c-6.97-.04-11.04-5.08-12.08-6.57.21-1.49.43-3.05.61-4.69.07-.96.18-1.95.29-2.98,3.39.85,7.11,1.39,11.04,1.46h.14c4.07-.07,7.83-.64,11.33-1.56.11.96.21,1.95.29,2.91.18,1.7.39,3.3.64,4.79"/>
        </g>
        <path class="cls-5" d="M106.14,50.01c-46.52,0-46.77,38.89-44.7,64.35-3.18-6.04-12.65-4.19-11.86,5.33.75,9.16,14.28,13.83,13.9,12.82,7.05,18.83,25.69,33.03,42.66,33.03h.36V50.01h-.36"/>
        <path class="cls-17" d="M52.54,115.68c2.29-3.69,5.86-2.1,6.72-1.28.93.89,1.68,2.02,1.11,4.19-.32,1.24-1.61,1.35-1.32,3.2.36,2.1,1.32,2.2,1.89,2.7.54.46,1.21.82,1.54,1.7.36.89.39,1.81.21,2.63-.36,1.49-2.54.28-4-.36-.96-.46-4.04-3.05-4.82-3.91-1.93-2.2-2.86-6.46-1.32-8.88"/>
        <path class="cls-7" d="M106.39,50.01c46.52,0,46.77,38.89,44.74,64.35,3.18-6.04,12.61-4.19,11.83,5.33-.71,9.16-14.27,13.84-13.9,12.82-6.86,18.83-25.69,33.03-42.66,33.03h-.25l-.11-115.53h.36"/>
        <path class="cls-17" d="M159.98,115.68c-2.29-3.69-5.82-2.1-6.72-1.28-.93.89-1.64,2.02-1.11,4.19.32,1.24,1.61,1.35,1.32,3.2-.36,2.1-1.32,2.2-1.86,2.7-.54.46-1.25.82-1.57,1.7-.32.89-.39,1.81-.21,2.63.36,1.49,2.54.28,4-.36,1-.46,4.04-3.05,4.82-3.91,1.97-2.2,2.86-6.46,1.32-8.88"/>
        <path class="cls-11" d="M105.77,60.99c-15.29,0-26.51,4.44-33.27,13.18-9.47,12.25-9.11,30.93-5.65,44.36,1.07,4.12,1.64,15.16,2.36,19.21,3.32,18.15,23.37,27.81,36.55,27.81h.36V60.99h-.21"/>
        <path class="cls-16" d="M139,74.2c-6.72-8.7-17.79-13.14-32.87-13.21v104.56c15.08-.18,33.12-10.76,36.2-27.81.75-4.05,1.29-15.09,2.36-19.21,3.5-13.39,3.86-32.03-5.68-44.32"/>
        <path class="cls-1" d="M104.26,147.12c-.21-.04-.4-.07-.57-.11.19.04.38.08.57.11Z"/>
        <path class="cls-1" d="M103.47,146.96c-.13-.03-.26-.06-.35-.08.12.03.23.05.35.08Z"/>
        <path class="cls-19" d="M103.69,147.01c-.07-.02-.15-.03-.22-.05.07.02.13.03.22.05Z"/>
        <path class="cls-19" d="M103.12,146.88c-.07-.02-.13-.04-.2-.05h0s.08.02.2.05Z"/>
        <path class="cls-1" d="M64.42,93.58c-.42,1.39-.71,2.9-.9,4.51,0,0,.61-2.55,1.97-6.32-.58.81-.97,1.45-1.06,1.81Z"/>
        <path class="cls-6" d="M93.14,61.25l-.19.19.03.06c.06-.1.1-.19.16-.26Z"/>
        <path class="cls-1" d="M104.4,145c-.22-.04-.42-.08-.59-.11.2.04.39.08.59.11Z"/>
        <path class="cls-1" d="M103.59,144.84c-.14-.03-.27-.06-.36-.08.12.03.24.05.36.08Z"/>
        <path class="cls-22" d="M103.81,144.89c-.08-.02-.15-.03-.22-.05.07.02.14.03.22.05Z"/>
        <path class="cls-2" d="M97.04,134.4c-.18-3.71,6.82-1.36,9.12-1.24,1.82.09,7.37-1.17,7.85-.84,3.26,2.2-3.46,6.63-7.96,6.63-1.2,0-8.9-2.31-9.01-4.55Z"/>
        <path class="cls-10" d="M72.75,101.8s3.55,14.56,9.64,15.75c6.09,1.19,12.69-1.17,12.69-1.17,0,0,.63-17.11-2.49-19.35-3.12-2.25-10.3-5.49-19.84,4.77Z"/>
        <path class="cls-21" d="M95.09,116.33s-.14.04-.45.17c-.08-5.25-.56-12.46-2.51-13.84-2.9-2.12-9.44-5.11-18.18,3.06-.79-2.26-1.19-3.97-1.19-3.97,9.55-10.28,16.75-7.04,19.84-4.8,3.12,2.25,2.49,19.37,2.49,19.37Z"/>
        <path class="cls-3" d="M91.48,108.91c0,3.31-2.69,6-6,6s-6-2.69-6-6,2.69-6,6-6,6,2.69,6,6Z"/>
        <path class="cls-18" d="M85.21,112.91c-1.73-.14-3.06-1.89-2.9-3.81.15-1.92,1.75-3.42,3.48-3.28,1.73.14,3.06,1.89,2.91,3.81-.16,1.92-1.76,3.43-3.49,3.28Z"/>
        <path class="cls-12" d="M85.36,112.21c-1.21-.1-2.46-1.43-2.32-3.05.14-1.63,1.58-2.74,2.79-2.64,1.21.1,2.45,1.43,2.32,3.06-.13,1.63-1.58,2.73-2.79,2.63Z"/>
        <path class="cls-10" d="M84.38,108.19c-.05.59-.65,1.02-1.35.96-.69-.06-1.22-.59-1.17-1.17.05-.59.65-1.02,1.34-.97.7.06,1.22.58,1.17,1.17Z"/>
        <path class="cls-10" d="M88.27,111.6c-.03.29-.33.51-.67.48-.35-.03-.61-.29-.59-.59.03-.29.33-.51.67-.48.35.03.61.29.59.59Z"/>
        <path class="cls-1" d="M104.5,146.72c-.22-.04-.42-.08-.59-.11.2.04.39.08.59.11Z"/>
        <path class="cls-1" d="M103.68,146.56c-.14-.03-.27-.06-.36-.08.12.03.24.05.36.08Z"/>
        <path class="cls-22" d="M103.91,146.61c-.08-.02-.15-.03-.22-.05.07.02.14.03.22.05Z"/>
        <path class="cls-22" d="M103.33,146.48c-.07-.02-.13-.04-.2-.06h0s.08.02.21.06Z"/>
        <path class="cls-1" d="M104.27,146.32c-.23-.04-.45-.08-.63-.12.21.05.42.09.63.12Z"/>
        <path class="cls-1" d="M103.4,146.14c-.14-.03-.29-.06-.38-.09.13.03.25.06.38.09Z"/>
        <path class="cls-19" d="M103.64,146.2c-.08-.02-.16-.03-.24-.05.08.02.15.03.24.05Z"/>
        <path class="cls-19" d="M103.01,146.06c-.07-.02-.14-.04-.21-.06h0s.08.03.22.06Z"/>
        <path class="cls-1" d="M104.09,145.71c-.23-.04-.45-.08-.63-.12.21.05.42.09.63.12Z"/>
        <path class="cls-1" d="M103.22,145.54c-.15-.03-.29-.06-.38-.09.13.03.25.06.38.09Z"/>
        <path class="cls-19" d="M103.46,145.59c-.08-.02-.16-.03-.24-.05.08.02.15.03.24.05Z"/>
        <path class="cls-19" d="M102.83,145.45c-.07-.02-.14-.04-.21-.06h0s.08.03.22.06Z"/>
        <path class="cls-1" d="M104.63,145.62c-.23-.04-.43-.08-.61-.12.21.04.41.09.61.12Z"/>
        <path class="cls-1" d="M103.78,145.45c-.14-.03-.28-.06-.37-.09.12.03.25.06.37.09Z"/>
        <path class="cls-19" d="M104.01,145.5c-.08-.02-.16-.03-.23-.05.08.02.14.03.23.05Z"/>
        <path class="cls-19" d="M103.41,145.37c-.07-.02-.14-.04-.21-.06h0s.08.03.22.06Z"/>
        <path class="cls-10" d="M139.87,101.3s-3.55,14.56-9.64,15.75c-6.09,1.19-12.69-1.17-12.69-1.17,0,0-.63-17.11,2.49-19.35,3.12-2.25,10.3-5.49,19.84,4.77Z"/>
        <path class="cls-21" d="M117.53,115.83s.14.04.45.17c.08-5.25.56-12.46,2.51-13.84,2.9-2.12,9.44-5.11,18.18,3.06.79-2.26,1.19-3.97,1.19-3.97-9.55-10.28-16.75-7.04-19.84-4.8-3.12,2.24-2.49,19.37-2.49,19.37Z"/>
        <path class="cls-3" d="M121.13,108.42c0,3.31,2.69,6,6,6s6-2.68,6-6-2.69-6-6-6-6,2.69-6,6Z"/>
        <path class="cls-18" d="M127.41,112.41c1.73-.14,3.06-1.89,2.9-3.81-.15-1.92-1.75-3.42-3.48-3.28-1.73.14-3.06,1.89-2.91,3.81.16,1.92,1.76,3.43,3.49,3.28Z"/>
        <path class="cls-12" d="M127.26,111.72c1.21-.1,2.46-1.43,2.32-3.05-.14-1.63-1.58-2.74-2.79-2.64-1.21.1-2.45,1.43-2.32,3.06.13,1.63,1.58,2.73,2.79,2.63Z"/>
        <path class="cls-10" d="M128.24,107.7c.05.59.65,1.02,1.35.96.69-.06,1.22-.59,1.17-1.17-.05-.59-.65-1.02-1.34-.97-.7.06-1.22.58-1.17,1.17Z"/>
        <path class="cls-10" d="M124.35,111.11c.03.29.33.51.67.48.35-.03.61-.29.59-.59-.03-.29-.33-.51-.67-.48-.35.03-.61.29-.59.59Z"/>
        <g>
          <path d="M98.74,101.57c-.05-.07-1.15-1.75-3.41-3.49-1.42-1.09-2.8-1.91-4.24-2.53-1.75-.74-3.64-1.26-5.46-1.51-1.65-.18-3.48-.13-5.62.15-1.63.31-3.22.8-4.57,1.39-.96.33-1.72.8-2.33,1.17-.23.14-.45.27-.66.39l-2.91,1.83,3.35-.79c.16-.04.33-.08.51-.13.69-.18,1.56-.41,2.57-.56.24-.03.48-.08.72-.13.42-.08.86-.17,1.32-.19.51-.03,1.03-.07,1.58-.11l.7-.05c1.86-.02,3.43.12,4.82.44,1.52.26,3.09.75,4.53,1.42,1.36.65,2.66,1.29,3.67,2.04,2.05,1.37,3.19,2.51,3.2,2.52h0c.28.28.66.43,1.04.43.28,0,.55-.08.79-.24.67-.44.86-1.35.44-2.01l-.03-.04Z"/>
          <path d="M140.47,97.14c-.19-.1-.4-.23-.64-.38-.61-.37-1.37-.84-2.3-1.16-1.38-.61-2.97-1.09-4.62-1.4-2.12-.28-3.95-.33-5.61-.15-1.82.25-3.7.77-5.45,1.5-1.42.61-2.85,1.46-4.24,2.53-2.22,1.7-3.32,3.35-3.41,3.48l-.02.03c-.37.58-.29,1.35.19,1.84.28.28.64.43,1.03.43h0c.39,0,.76-.15,1.03-.43h.01c.11-.12,1.21-1.2,3.2-2.53,1-.73,2.3-1.38,3.65-2.03,1.44-.67,3.01-1.16,4.55-1.43,1.37-.32,2.95-.45,4.78-.44l.74.05c.54.04,1.06.08,1.57.11.45.02.89.11,1.31.19.25.05.49.1.72.13,1.01.15,1.88.38,2.57.56.18.05.35.09.51.13l3.35.79-2.94-1.84Z"/>
        </g>
        <path class="cls-1" d="M102.34,151.8c-.22-.04-.41-.08-.59-.11.2.04.39.08.59.11Z"/>
        <path class="cls-1" d="M101.53,151.64c-.13-.03-.27-.06-.36-.08.12.03.24.05.36.08Z"/>
        <path class="cls-14" d="M101.76,151.69c-.07-.02-.15-.03-.22-.05.07.02.14.03.22.05Z"/>
        <path class="cls-14" d="M101.18,151.56c-.07-.02-.13-.04-.2-.06h0s.08.02.21.06Z"/>
        <path class="cls-1" d="M102.18,151.24c-.22-.04-.41-.08-.59-.11.2.04.39.08.59.11Z"/>
        <path class="cls-1" d="M101.37,151.08c-.13-.03-.27-.06-.36-.08.12.03.23.05.36.08Z"/>
        <path class="cls-14" d="M101.59,151.12c-.07-.02-.15-.03-.22-.05.07.02.14.03.22.05Z"/>
        <path class="cls-14" d="M101.01,150.99c-.07-.02-.13-.04-.2-.06h0s.08.02.21.06Z"/>
        <path class="cls-1" d="M102.67,151.15c-.21-.04-.4-.07-.57-.11.19.04.38.08.57.11Z"/>
        <path class="cls-1" d="M101.89,151c-.13-.03-.26-.06-.34-.08.11.03.23.05.34.08Z"/>
        <path class="cls-14" d="M102.11,151.05c-.07-.02-.14-.03-.22-.05.07.02.13.03.22.05Z"/>
        <path class="cls-14" d="M101.55,150.92c-.07-.02-.13-.04-.19-.05h0s.07.02.2.05Z"/>
        <path class="cls-13" d="M142.18,213.79c.06,4.34.22,7.72.36,9.92h-72.19c.13-2.22.27-5.58.33-9.92h-8.54c.61-5.98,1.8-11.01,3.35-15.25,5.59-15.21,15.83-20.03,20.55-21.48,1.53-.49,2.48-.6,2.48-.6.18,0,.33-.01.49-.04.86-.13,1.62-.65,2.28-1.49,1.18,2.96,9.43,21.92,15.15,27.49.07-.07.15-.15.21-.22,5.86-5.98,14.19-25.28,15.03-27.46.04-.12.07-.24.12-.33.58.86,1.22,1.49,1.95,1.8.37.16.76.25,1.18.25,0,0,1.68.19,4.21,1.19,5.18,2.02,13.87,7.33,18.85,20.89,1.56,4.24,2.75,9.27,3.38,15.25h-9.16Z"/>
        <path class="cls-15" d="M155.38,73.84c-.98-3.43-1.98-6.09-1.99-6.11,0,0,.15.03,1.51.03,8.4-.02,13.14-7.82,13.14-7.82,0,0-3.17,4.45-14.07.98-1.44-.46-2.67-1.06-3.78-1.76,13.65-2.2,17.73-19.31,17.73-19.31-9.06,18.57-22.36,12.27-27.88,8.51-2.72-2.91-6.21-5.78-11.75-8.01-7.84-3.15-12.52-2.74-15.23-1.59,2.75-2.17,8.39-1.98,8.39-1.98,0,0-6.97-3.69-17.72-.38-7.57,2.33-12.09,4.97-14.63,6.87l4.25-3.89s-3.01,1.03-7.26,3.11c2.89-5.4,8.24-11.32,8.24-11.32-13.63,4.89-24.93,22.47-24.93,22.47,1.08-6.63,3.47-12.7,3.47-12.7-10.7,7.66-15.71,18.16-18.01,27.27-1.81-9.7,1.66-25.54,1.66-25.54-23.15,21.82,0,62.81,0,62.81h0c1.42,3.88,3.07,6.91,4.42,8.39,3.06,3.39,2.08,8.31,3,8.31,0,0,1.84.06,1.91-8.53.08-1.01.25-2.21.59-3.32.09-24.9,21.83-37.15,39.09-34.47.06,0,24.11,10.51,20.88,27.68,0,0,6.08-5.94,9.6-14.13,4.92,8.55,7.64,18.4,8.63,22.4-.28,7.23,1.93,11.23,2.9,11,0,0,.04-2.83,1.16-5.35,3.29-7.51,6.05-2.29,6.56-12.48.41-8.17,1.44-12.79,1.85-16.94,2.61,2,6.52,3.42,12.34,3.54,0,0-8.24-2.46-14.05-17.76Z"/>
        <path class="cls-15" d="M151.04,125.63l-2.03,1.51s-12.87,28.92-23.73,21.56l-.04.14c-.54-1.68-1.33-3.12-2.31-4.19-3.07-4.53-9.28-7.63-16.46-7.63-6.61,0-12.39,2.63-15.67,6.58-1.46,1.01-2.65,2.78-3.4,4.97v-.02c-10.87,7.36-22.88-21.41-22.88-21.41l-2.03-1.51-.05,4.59c4.04,17.54,21.01,29.4,27.8,33.53.56.49,1.16.9,1.8,1.13.3.16.64.31.97.46.02.01.05.03.05.03h0c3.37,1.49,8.12,2.44,13.4,2.44,5.64,0,10.69-1.07,14.08-2.75l-.09.31s25.54-13.09,30.62-35.15l-.05-4.59ZM115.48,161.79c0-.06.03-.12.03-.17,0-1.74-4.14-3.14-9.24-3.14s-9.24,1.41-9.24,3.14c0,.03,0,.05,0,.07-1.81-.45-3.42-1.03-4.77-1.7-.72-1.76-1.15-3.83-1.15-6.07v-.02c0-1.19.55-2.31,1.45-3.09,2.71-2.33,6.42-3.98,10.63-4.55,1.06-.14,2.15-.22,3.26-.22s2.2.08,3.26.22c3.82.52,7.21,1.93,9.83,3.93,1.15.88,1.85,2.26,1.85,3.7v.02c0,2.34-.46,4.5-1.24,6.3-1.35.62-2.93,1.15-4.69,1.57Z"/>
        <path class="cls-9" d="M133.38,197.44h-3.18c0-1.09-.88-1.97-1.97-1.97s-1.97.88-1.97,1.97h-3.18c-.79,0-1.44.65-1.44,1.44s.65,1.44,1.44,1.44h10.3c.79,0,1.44-.65,1.44-1.44s-.65-1.44-1.44-1.44Z"/>
        <rect class="cls-10" x="117.47" y="199.46" width="21.52" height="7.89"/>
      </g>
    </g>
  </g>
</svg>