<?xml version="1.0" encoding="UTF-8"?>
<svg id="Layer_2" data-name="Layer 2" xmlns="http://www.w3.org/2000/svg" xmlns:xlink="http://www.w3.org/1999/xlink" viewBox="0 0 221.48 223.59">
  <defs>
    <style>
      .cls-1 {
        fill: none;
      }

      .cls-2 {
        fill: #462e1b;
      }

      .cls-3 {
        fill: #ba9d82;
      }

      .cls-4 {
        fill: #e3ad38;
      }

      .cls-5 {
        fill: #ccad8a;
      }

      .cls-6 {
        fill: #d9ab31;
      }

      .cls-7 {
        fill: #8c6297;
      }

      .cls-8 {
        fill: #82241d;
      }

      .cls-9 {
        fill: #44361f;
      }

      .cls-10 {
        fill: #d7bd9d;
      }

      .cls-11 {
        fill: #c1a587;
      }

      .cls-12 {
        fill: #3d2319;
      }

      .cls-13 {
        fill: #dac6a4;
      }

      .cls-14 {
        fill: #fff;
      }

      .cls-15 {
        fill: #dcc5a0;
      }

      .cls-16 {
        fill: #272213;
      }

      .cls-17 {
        fill: #ecdab6;
      }

      .cls-18 {
        fill: #b8987d;
      }

      .cls-19 {
        fill: #ebd9b5;
      }

      .cls-20 {
        fill: #a98d76;
      }

      .cls-21 {
        fill: #714223;
      }

      .cls-22 {
        fill: #b7967d;
      }

      .cls-23 {
        clip-path: url(#clippath);
      }

      .cls-24 {
        fill: #d2bb9b;
      }

      .cls-25 {
        fill: #b5957e;
      }
    </style>
    <clipPath id="clippath">
      <rect class="cls-1" x="99.06" y="155.04" width="25.1" height="14.8"/>
    </clipPath>
  </defs>
  <g id="Layer_1-2" data-name="Layer 1">
    <g>
      <path class="cls-6" d="M119.94,155.57s.24,5.49-1.01,5.67c-.9-2.98-1.37-6.6-3.05-8.24-2.63,3.05-5.08,4.93-5.08,4.93,0,0-2.33-1.94-4.78-4.98-1.85,1.73-3.46,4.3-4.48,7.58-.24-.18-.9-3.82-.9-3.82,0,0-4.3,5.29-5.13,8.84-.84,3.52,2.15,7.28,2.15,7.28,0,0,1.43-.71,2.81-1.91,1.25,8.84,9.85,15.82,9.85,15.82,0,0,8.72-6.51,10.45-15.17,1.06.75,2.02,1.2,2.02,1.2,0,0,3.16-3.76,2.15-7.29-1.73-6.15-5-9.91-5-9.91Z"/>
      <rect class="cls-7" width="221.48" height="223.59"/>
      <path class="cls-15" d="M111.52,139.83v83.76h-45.31c-.74-.29-1.11-.45-1.11-.45,0-10.68,1.58-19.02,3.96-25.53,2.89-7.86,6.98-13.03,10.96-16.42,2.41-2.06,4.76-3.45,6.78-4.42,1.09-.51,2.09-.89,2.93-1.17.18-.06.35-.12.51-.17,1.6-.49,2.58-.6,2.58-.6.18,0,.34-.02.51-.05.58-.09,1.11-.35,1.6-.77.72-.58,1.37-1.5,1.92-2.69.02-.03.03-.05.05-.06v-.02c.66-1.44,1.23-3.28,1.69-5.43.18-.84.34-1.69.48-2.61.23-1.55.44-3.18.63-4.87.08-1.04.18-2.03.29-3.1.41-5.13.52-10.74.52-16.06,0,0,6.08.63,11.02.63Z"/>
      <path class="cls-19" d="M158.12,223.15s-.41.15-1.07.45h-45.53v-83.76h.11c4.91,0,11.07-.63,11.07-.63,0,5.28.11,10.81.51,15.95.12,1,.23,2.03.31,3.02.18,1.77.4,3.42.66,4.97v.03c.08.71.21,1.34.34,2,.45,2.18.98,4.1,1.64,5.63.81,1.92,1.8,3.24,3.01,3.78.14.06.26.11.41.15.25.08.52.11.78.11,0,0,.58.06,1.57.32.38.11.84.23,1.35.4.45.14.92.31,1.44.51.46.18.95.38,1.47.61v.02c2.7,1.24,6.03,3.28,9.27,6.63,3.22,3.32,6.34,7.92,8.7,14.29,2.38,6.51,3.96,14.84,3.96,25.53Z"/>
      <g class="cls-23">
        <path class="cls-3" d="M124.16,162.99v.04c-1.14,1.76-4.98,6.82-12.57,6.82h-.07c-7.19-.04-11.39-5.24-12.46-6.78.22-1.54.44-3.15.63-4.84.07-.99.18-2.02.29-3.08,3.5.88,7.34,1.43,11.39,1.5h.15c4.2-.07,8.07-.66,11.69-1.61.11.99.22,2.02.29,3,.18,1.76.41,3.41.66,4.95"/>
      </g>
      <path class="cls-5" d="M111,44.38c-48,0-48.26,40.12-46.12,66.39-3.28-6.23-13.05-4.32-12.24,5.5.77,9.45,14.73,14.27,14.34,13.23,7.27,19.43,26.51,34.08,44.02,34.08h.37V44.38h-.37"/>
      <path class="cls-20" d="M55.71,112.13c2.36-3.81,6.05-2.16,6.93-1.32.96.92,1.73,2.09,1.14,4.32-.33,1.28-1.66,1.39-1.36,3.3.37,2.16,1.36,2.27,1.95,2.78.55.48,1.25.84,1.59,1.76.37.92.41,1.87.22,2.71-.37,1.54-2.62.29-4.13-.37-1-.48-4.17-3.15-4.98-4.03-1.99-2.27-2.95-6.67-1.36-9.16"/>
      <path class="cls-10" d="M111.26,44.38c48,0,48.26,40.12,46.15,66.39,3.28-6.23,13.01-4.32,12.2,5.5-.74,9.45-14.72,14.27-14.34,13.23-7.08,19.43-26.51,34.08-44.02,34.08h-.26l-.11-119.19h.37"/>
      <path class="cls-20" d="M166.56,112.13c-2.36-3.81-6.01-2.16-6.93-1.32-.96.92-1.7,2.09-1.14,4.32.33,1.28,1.66,1.39,1.36,3.3-.37,2.16-1.36,2.27-1.92,2.78-.55.48-1.29.84-1.62,1.76-.33.92-.41,1.87-.22,2.71.37,1.54,2.62.29,4.13-.37,1.03-.48,4.17-3.15,4.98-4.03,2.03-2.27,2.95-6.67,1.36-9.16"/>
      <path class="cls-15" d="M110.62,55.71c-15.78,0-27.35,4.58-34.32,13.59-9.77,12.64-9.4,31.91-5.82,45.76,1.11,4.25,1.7,15.65,2.43,19.82,3.43,18.72,24.11,28.69,37.71,28.69h.37V55.71h-.22"/>
      <path class="cls-19" d="M144.91,69.34c-6.93-8.98-18.36-13.56-33.92-13.63v107.87c15.56-.18,34.17-11.1,37.34-28.69.77-4.18,1.33-15.57,2.43-19.82,3.61-13.81,3.98-33.05-5.86-45.73"/>
      <path class="cls-1" d="M109.07,140.53c-.22-.04-.42-.08-.59-.11.2.04.4.08.59.11Z"/>
      <path class="cls-1" d="M108.25,144.41c-.14-.03-.27-.06-.36-.08.12.03.24.05.36.08Z"/>
      <path class="cls-22" d="M108.48,144.45c-.08-.02-.15-.03-.23-.05.07.02.14.03.23.05Z"/>
      <path class="cls-22" d="M107.89,144.32c-.07-.02-.13-.04-.2-.06h0s.08.02.21.06Z"/>
      <path class="cls-10" d="M101.84,130.46c-.18-3.73,6.85-1.36,9.16-1.25,1.83.09,7.4-1.17,7.88-.85,3.28,2.21-3.47,6.66-8,6.66-1.21,0-8.94-2.32-9.05-4.57Z"/>
      <path class="cls-1" d="M67.96,89.33c-.43,1.43-.73,2.99-.93,4.66,0,0,.63-2.63,2.03-6.52-.6.83-1,1.5-1.1,1.86Z"/>
      <path class="cls-9" d="M97.59,55.98l-.2.2.03.07c.07-.1.1-.2.17-.27Z"/>
      <path class="cls-1" d="M109.22,142.38c-.22-.04-.43-.08-.61-.12.21.04.41.08.61.12Z"/>
      <path class="cls-1" d="M108.37,142.22c-.14-.03-.28-.06-.37-.08.12.03.24.06.37.08Z"/>
      <path class="cls-25" d="M108.61,142.27c-.08-.02-.15-.03-.23-.05.08.02.14.03.23.05Z"/>
      <path class="cls-25" d="M108.01,142.13c-.07-.02-.14-.04-.21-.06h0s.08.02.21.06Z"/>
      <path class="cls-14" d="M76.56,97.81s3.66,15.02,9.95,16.25c6.29,1.23,13.09-1.21,13.09-1.21,0,0,.65-17.65-2.57-19.96-3.22-2.32-10.63-5.66-20.47,4.92Z"/>
      <path class="cls-24" d="M99.61,112.8s-.14.04-.47.18c-.08-5.41-.58-12.85-2.59-14.28-2.99-2.19-9.74-5.27-18.75,3.16-.82-2.33-1.23-4.09-1.23-4.09,9.86-10.61,17.28-7.27,20.47-4.95,3.22,2.32,2.57,19.99,2.57,19.99Z"/>
      <circle class="cls-2" cx="89.7" cy="105.15" r="6.19"/>
      <path class="cls-21" d="M89.41,109.27c-1.79-.15-3.16-1.95-3-3.93.16-1.98,1.81-3.53,3.6-3.38,1.79.15,3.16,1.95,3,3.93-.16,1.98-1.81,3.54-3.6,3.39Z"/>
      <path class="cls-16" d="M89.57,108.56c-1.24-.11-2.53-1.47-2.4-3.15.14-1.69,1.63-2.82,2.88-2.72,1.24.11,2.53,1.48,2.39,3.16-.14,1.68-1.63,2.82-2.87,2.72Z"/>
      <path class="cls-14" d="M88.56,104.41c-.05.61-.68,1.05-1.39.99-.72-.06-1.26-.6-1.21-1.21.05-.61.67-1.05,1.39-1,.72.06,1.26.6,1.21,1.21Z"/>
      <path class="cls-14" d="M92.57,107.92c-.03.3-.34.53-.69.5-.36-.03-.63-.3-.61-.6.03-.3.34-.53.69-.5.36.03.63.3.61.6Z"/>
      <path class="cls-1" d="M109.31,144.15c-.22-.04-.43-.08-.61-.12.21.04.41.08.61.12Z"/>
      <path class="cls-1" d="M108.47,143.99c-.14-.03-.28-.06-.37-.08.12.03.24.06.37.08Z"/>
      <path class="cls-25" d="M108.71,144.04c-.08-.02-.15-.03-.23-.05.08.02.14.03.23.05Z"/>
      <path class="cls-25" d="M108.1,143.9c-.07-.02-.14-.04-.21-.06h0s.08.02.21.06Z"/>
      <path class="cls-1" d="M109.08,143.74c-.24-.04-.46-.08-.65-.12.22.05.44.09.65.12Z"/>
      <path class="cls-1" d="M108.17,143.56c-.15-.03-.3-.07-.4-.09.13.03.26.06.4.09Z"/>
      <path class="cls-22" d="M108.42,143.61c-.08-.02-.17-.03-.25-.05.08.02.15.03.25.05Z"/>
      <path class="cls-22" d="M107.78,143.47c-.08-.02-.15-.04-.22-.06h0s.09.03.23.06Z"/>
      <path class="cls-1" d="M108.89,143.11c-.24-.04-.46-.08-.65-.12.22.05.44.09.65.12Z"/>
      <path class="cls-1" d="M107.99,142.93c-.15-.03-.3-.07-.4-.09.13.03.26.06.4.09Z"/>
      <path class="cls-22" d="M108.24,142.99c-.08-.02-.17-.03-.25-.05.08.02.15.03.25.05Z"/>
      <path class="cls-22" d="M107.59,142.84c-.08-.02-.15-.04-.22-.06h0s.09.03.23.06Z"/>
      <path class="cls-1" d="M109.44,143.02c-.23-.04-.44-.08-.63-.12.21.05.42.09.63.12Z"/>
      <path class="cls-1" d="M108.57,142.85c-.14-.03-.29-.06-.38-.09.13.03.25.06.38.09Z"/>
      <path class="cls-22" d="M108.81,142.9c-.08-.02-.16-.03-.24-.05.08.02.15.03.24.05Z"/>
      <path class="cls-22" d="M108.19,142.76c-.07-.02-.14-.04-.21-.06h0s.08.03.22.06Z"/>
      <path class="cls-14" d="M145.8,97.3s-3.66,15.02-9.95,16.25c-6.29,1.23-13.09-1.21-13.09-1.21,0,0-.65-17.65,2.57-19.96,3.22-2.32,10.63-5.66,20.47,4.92Z"/>
      <path class="cls-24" d="M122.75,112.29s.14.04.47.18c.08-5.41.58-12.85,2.59-14.28,2.99-2.19,9.74-5.27,18.75,3.16.82-2.33,1.23-4.09,1.23-4.09-9.86-10.61-17.28-7.27-20.47-4.95-3.22,2.32-2.57,19.99-2.57,19.99Z"/>
      <path class="cls-2" d="M126.48,104.64c0,3.42,2.77,6.19,6.19,6.19s6.19-2.77,6.19-6.19-2.77-6.19-6.19-6.19-6.19,2.77-6.19,6.19Z"/>
      <path class="cls-21" d="M132.95,108.76c1.79-.15,3.16-1.95,3-3.93-.16-1.98-1.81-3.53-3.6-3.38-1.79.15-3.16,1.95-3,3.93.16,1.98,1.81,3.54,3.6,3.39Z"/>
      <path class="cls-16" d="M132.8,108.04c1.24-.11,2.53-1.47,2.4-3.15-.14-1.69-1.63-2.82-2.88-2.72-1.24.11-2.53,1.48-2.39,3.16.14,1.68,1.63,2.82,2.87,2.72Z"/>
      <path class="cls-14" d="M133.8,103.9c.05.61.68,1.05,1.39.99.72-.06,1.26-.6,1.21-1.21-.05-.61-.67-1.05-1.39-1-.72.06-1.26.6-1.21,1.21Z"/>
      <path class="cls-14" d="M129.79,107.41c.03.3.34.53.69.5.36-.03.63-.3.61-.6-.03-.3-.34-.53-.69-.5-.36.03-.63.3-.61.6Z"/>
      <g>
        <path d="M103.38,97.57c-.05-.07-1.19-1.81-3.52-3.6-1.46-1.12-2.89-1.97-4.38-2.61-1.81-.76-3.75-1.3-5.63-1.55-1.7-.19-3.59-.14-5.79.16-1.68.32-3.32.82-4.71,1.43-.99.34-1.78.82-2.41,1.21-.24.15-.46.28-.68.4l-3,1.89,3.46-.81c.16-.04.34-.09.52-.14.72-.19,1.61-.43,2.65-.58.24-.04.49-.08.75-.14.44-.09.89-.18,1.36-.2.52-.04,1.07-.07,1.63-.11l.73-.05c1.92-.02,3.54.12,4.97.45,1.57.27,3.19.78,4.67,1.46,1.4.67,2.74,1.33,3.79,2.1,2.11,1.41,3.29,2.59,3.3,2.6h0c.29.29.68.44,1.07.44.28,0,.57-.08.82-.24.7-.46.89-1.4.45-2.07l-.03-.05Z"/>
        <path d="M146.42,93c-.2-.11-.42-.24-.66-.39-.63-.39-1.41-.87-2.38-1.2-1.42-.63-3.06-1.13-4.76-1.45-2.18-.29-4.07-.34-5.78-.15-1.87.26-3.82.79-5.63,1.55-1.46.63-2.94,1.5-4.38,2.61-2.29,1.76-3.43,3.46-3.51,3.59l-.02.03c-.39.6-.3,1.39.2,1.89.28.29.66.44,1.07.44h0c.4,0,.78-.16,1.06-.44h.01c.11-.12,1.25-1.24,3.3-2.61,1.03-.76,2.37-1.42,3.77-2.09,1.49-.69,3.1-1.2,4.7-1.47,1.42-.33,3.04-.47,4.93-.45l.76.05c.55.04,1.09.08,1.62.11.46.02.91.11,1.35.2.25.05.5.1.75.14,1.05.15,1.94.39,2.65.58.19.05.36.1.53.14l3.46.81-3.03-1.9Z"/>
      </g>
      <path class="cls-1" d="M108.25,145.94c-.23-.04-.45-.08-.64-.12.22.05.43.09.64.12Z"/>
      <path class="cls-1" d="M107.38,145.77c-.15-.03-.29-.07-.39-.09.13.03.26.06.39.09Z"/>
      <path class="cls-18" d="M107.62,145.82c-.08-.02-.16-.03-.24-.05.08.02.15.03.24.05Z"/>
      <path class="cls-18" d="M106.99,145.68c-.07-.02-.14-.04-.22-.06h0s.08.03.22.06Z"/>
      <path class="cls-17" d="M102.12,148.92c-.18-2.41,6.73.51,9,.58,1.81.06,7.25-.36,7.75-.55,3.8-1.42-.21,4.04-7.86,4.32-3.51.14-8.78-2.89-8.88-4.35Z"/>
      <path class="cls-13" d="M124.61,144.26c-1.88-.09-3.8,1.47-6.06,1.23-.09-.05-.14-.05-.23-.05-.52-.09-1.03,0-1.6.14-.7.15-1.41.43-2.07.66-1.13.37-2.4.66-3.7.56h0s-.05,0-.07,0-.05,0-.07,0h0c-1.31.09-2.58-.2-3.7-.57-.66-.23-1.37-.51-2.07-.66-.56-.14-1.08-.23-1.6-.14-.1,0-.14,0-.23.05-2.26.24-4.18-1.32-6.06-1.23-.52.05-1.27-.09-1.69-.09.09.05.19.09.28.14,5.35,2.61,9.96,7.49,15.07,7.33h.15c5.11.16,9.72-4.73,15.07-7.33.1-.05.19-.09.28-.14-.42,0-1.17.14-1.69.09Z"/>
      <path class="cls-11" d="M126.19,144.11h0s-5.44-2.09-9.3-.87c0,0-1.44.56-2.93.9-.91.35-2.01.46-3.07.41h0c-.81-.03-1.59-.14-2.22-.25-.21-.03-.42-.08-.64-.12-.09-.02-.16-.03-.24-.05-.13-.03-.26-.06-.39-.09-.14-.03-.22-.06-.22-.06h0c-1.24-.34-2.3-.75-2.3-.75-3.87-1.23-9.3.87-9.3.87h0c-.07.03-.12.06-.12.06.42,0,1.17.14,1.69.09,1.88-.09,3.8,1.47,6.06,1.23.09-.05.14-.05.23-.05.52-.09,1.03,0,1.6.14.7.15,1.41.43,2.07.66,1.13.37,2.4.66,3.7.56h0s.05,0,.07,0,.05,0,.07,0h0c1.31.09,2.58-.2,3.7-.57.66-.23,1.37-.51,2.07-.66.56-.14,1.08-.23,1.6-.14.1,0,.14,0,.23.05,2.26.24,4.18-1.32,6.06-1.23.52.05,1.27-.09,1.69-.09,0,0-.05-.02-.12-.06Z"/>
      <path class="cls-11" d="M101.75,145.39c.1.02,10.19,3.1,18.08.07l-.91-.61h-10.66l-6.5.54Z"/>
      <path class="cls-8" d="M158.12,223.15s-.41.15-1.07.45h-90.84c-.74-.29-1.11-.45-1.11-.45,0-10.68,1.58-19.02,3.96-25.53,2.89-7.86,6.98-13.03,10.96-16.42l9.27,8.52c6.29,5.79,14.2,8.92,22.23,9.3,8.26.4,16.65-2.09,23.58-7.54l10.36-8.15c3.22,3.32,6.34,7.92,8.7,14.29,2.38,6.51,3.96,14.84,3.96,25.53Z"/>
      <path class="cls-4" d="M136.18,176.69v.02c-3.45,29.9-21.04,32.91-24.67,33.22-.37.03-.6.03-.64.03h-.02l-.37-.05c-20.34-5.33-23.32-29.12-23.68-33.12,1.09-.51,2.09-.89,2.93-1.17.06.14.09.29.11.46.02.25,1.49,25.48,21.23,30.81.11,0,.26-.02.45-.03,3.3-.26,18.59-2.95,21.67-30.94.02-.12.05-.23.08-.34.45.14.92.31,1.44.51.46.18.95.38,1.47.61Z"/>
      <path class="cls-4" d="M131.92,175.17c-4.37,20.55-18.43,20.78-18.86,20.78h-.02l-.28-.05c-.43-.11-.84-.23-1.24-.38-11.45-3.67-15.3-15.15-16.59-21.49.72-.58,1.37-1.5,1.92-2.69.02-.03.03-.05.05-.06.63,4.64,3.36,17.59,14.63,21.72.54.21,1.11.4,1.69.55,1.43-.03,12.59-.92,16.36-18.82.25.08.52.11.78.11,0,0,.58.06,1.57.32Z"/>
      <path class="cls-12" d="M161.86,102.61c-.3-1.33-.56-2.5-.86-3.83,1.03-6.02,1.89-13.01,1.89-19.64,0-8.15-4.16-16.63-11.74-27.07-8.4-11.57-40.38-16.59-53.23-14.91-9.22,1.21-29.34,9.17-33.43,18.99-.34.81-.35,2.1-.17,3.57.73,6.13,4.18,11.61,9.15,15.27l3.1,2.28s10.84-10.96,22.01-10.84c19.41.21,36.85,2.79,51.55,25.99,1.25,1.98,3.92,10.7,5.67,16.66.07.98.15,2.01.24,3.11.5,5.65.23,10.54-.67,14.7-3.12,24.15-26.12,15.97-33.19,12.84-.43-.14-.85-.36-1.26-.58-.51-.25-.8-.4-.8-.4-.42-.28-.84-.58-1.25-.87-.59-.43-1.14-.79-1.68-1.1l-.07-.05c-1.39-.96-2.92-1.34-4.4-1.28-1.48-.06-3.01.32-4.4,1.28l-.07.05c-.54.31-1.09.67-1.68,1.1-.56.41-1.14.81-1.74,1.19-4.81,3.09-11.2.14-12.02-5.51l-.02-.11c-.27-1.85-2.86-2.04-3.39-.24-.32,1.1-.61,2.29-.83,3.54-.45,2.49-3.67,3.26-5.11,1.18-2.87-4.14-5.6-9.58-6.24-15.85-.17-1.63-2.41-1.87-2.91-.31-.49,1.5-.94,3.19-1.24,5-.28,1.65-2.64,1.75-3,.12-.9-4.15-1.16-9.05-.67-14.7,1.23-1.24,2.16-7.88,2.01-9.62-.4-4.69-1.07-14.06-.25-16.62.69-2.19,2.73-5.18,2.73-5.18l.99-1.16-8.02-6.4s-3.33-4.66-4.73-4.09c-7.85,3.2-7.33,9.33-7.17,13.06.13,3.12,2.31,9.73,4.63,15.93,1.55,4.15,1.55,8.7.08,12.87-1.89,5.35-3.37,12.09-3.37,18.83,0,12.42,4.31,23.46,15.54,35.21,11.24,11.74,27.76,17.44,27.76,17.44l-4.58-4.24c2.11,1.59,5.5,3.66,10.66,5.69,1.55.61,3.24,1.21,5.13,1.8.66.2,1.29.37,1.92.53.63-.16,1.27-.32,1.92-.53,1.88-.59,3.58-1.19,5.12-1.8,5.16-2.03,8.55-4.1,10.66-5.69l-4.58,4.24s16.52-5.7,27.76-17.44c11.23-11.75,15.54-22.79,15.54-35.21,0-11.18-4.08-22.38-7.31-27.19ZM110.8,157.93c-9.48,0-12.74-3.27-12.74-7.31s3.59-6.3,13.07-6.3,15.34,2.26,15.34,6.3-6.19,7.31-15.68,7.31Z"/>
    </g>
  </g>
</svg>