<?xml version="1.0" encoding="UTF-8"?>
<svg id="Layer_2" data-name="Layer 2" xmlns="http://www.w3.org/2000/svg" xmlns:xlink="http://www.w3.org/1999/xlink" viewBox="0 0 221.48 223.6">
  <defs>
    <style>
      .cls-1 {
        fill: none;
      }

      .cls-2 {
        fill: #462e1b;
      }

      .cls-3 {
        fill: #75842d;
      }

      .cls-4 {
        fill: #ba9d82;
      }

      .cls-5 {
        fill: #ccad8a;
      }

      .cls-6 {
        fill: #aec32f;
      }

      .cls-7 {
        fill: #44361f;
      }

      .cls-8 {
        fill: #d7bd9d;
      }

      .cls-9 {
        fill: #332d3e;
      }

      .cls-10 {
        fill: #19181b;
      }

      .cls-11 {
        fill: #c1a587;
      }

      .cls-12 {
        fill: #dac6a4;
      }

      .cls-13 {
        fill: #434b18;
      }

      .cls-14 {
        fill: #fff;
      }

      .cls-15 {
        fill: #dcc5a0;
      }

      .cls-16 {
        fill: #272213;
      }

      .cls-17 {
        fill: #ecdab6;
      }

      .cls-18 {
        fill: #d07769;
      }

      .cls-19 {
        fill: #b8987d;
      }

      .cls-20 {
        fill: #785458;
      }

      .cls-21 {
        fill: #ebd9b5;
      }

      .cls-22 {
        fill: #a98d76;
      }

      .cls-23 {
        fill: #513128;
      }

      .cls-24 {
        fill: #714223;
      }

      .cls-25 {
        fill: #221a17;
      }

      .cls-26 {
        fill: #b7967d;
      }

      .cls-27 {
        clip-path: url(#clippath);
      }

      .cls-28 {
        fill: #d2bb9b;
      }

      .cls-29 {
        fill: #b5957e;
      }
    </style>
    <clipPath id="clippath">
      <rect class="cls-1" x="98.51" y="154.83" width="25.11" height="14.85"/>
    </clipPath>
  </defs>
  <g id="Layer_1-2" data-name="Layer 1">
    <g>
      <rect class="cls-18" width="221.48" height="223.6"/>
      <path class="cls-15" d="M110.97,139.57v84.02h-45.3c-.75-.29-1.12-.45-1.12-.45,0-10.71,1.58-19.08,3.96-25.6,2.82-7.67,6.78-12.8,10.67-16.21,4.05-3.58,8.03-5.26,10.51-6.03t.03-.02c1.58-.48,2.55-.6,2.55-.6.18,0,.34-.02.51-.05,1.43-.23,2.58-1.47,3.52-3.45.69-1.47,1.26-3.36,1.73-5.53.18-.84.34-1.7.48-2.62.23-1.57.45-3.19.63-4.9.08-1.03.18-2.03.31-3.1.4-5.14.51-10.76.51-16.1,0,0,6.09.63,11.02.63Z"/>
      <path class="cls-21" d="M157.57,223.15s-.4.15-1.07.45h-45.53v-84.02h.11c4.91,0,11.07-.63,11.07-.63,0,5.3.11,10.85.51,15.99.12,1,.23,2.03.31,3.02.18,1.78.4,3.45.66,5v.03c.08.71.21,1.34.34,2,.45,2.2.98,4.11,1.64,5.65.81,1.92,1.8,3.27,3.01,3.79.38.17.78.26,1.21.26,0,0,.84.11,2.24.51.6.18,1.32.41,2.1.74,2.44.95,5.65,2.64,8.9,5.51,3.85,3.41,7.75,8.5,10.55,16.1,2.39,6.52,3.96,14.89,3.96,25.6Z"/>
      <g class="cls-27">
        <path class="cls-4" d="M123.61,162.8v.04c-1.14,1.76-4.98,6.84-12.57,6.84h-.07c-7.19-.04-11.39-5.26-12.46-6.8.22-1.54.44-3.16.63-4.85.07-.99.18-2.02.29-3.09,3.5.88,7.34,1.43,11.39,1.51h.15c4.2-.07,8.07-.66,11.69-1.62.11.99.22,2.02.29,3.01.18,1.76.41,3.42.66,4.96"/>
      </g>
      <path class="cls-5" d="M110.45,43.82c-48,0-48.26,40.25-46.12,66.6-3.28-6.25-13.05-4.34-12.24,5.51.77,9.48,14.73,14.32,14.34,13.27,7.27,19.49,26.51,34.18,44.02,34.18h.37V43.82h-.37"/>
      <path class="cls-22" d="M55.16,111.78c2.36-3.82,6.05-2.17,6.93-1.32.96.92,1.73,2.09,1.14,4.34-.33,1.29-1.66,1.4-1.36,3.31.37,2.17,1.36,2.28,1.95,2.79.55.48,1.25.85,1.59,1.76.37.92.41,1.87.22,2.72-.37,1.54-2.62.29-4.13-.37-1-.48-4.17-3.16-4.98-4.04-1.99-2.28-2.95-6.69-1.36-9.19"/>
      <path class="cls-8" d="M110.71,43.82c48,0,48.26,40.25,46.15,66.6,3.28-6.25,13.01-4.34,12.2,5.51-.74,9.48-14.72,14.32-14.34,13.27-7.08,19.49-26.51,34.18-44.02,34.18h-.26l-.11-119.57h.37"/>
      <path class="cls-22" d="M166.01,111.78c-2.36-3.82-6.01-2.17-6.93-1.32-.96.92-1.7,2.09-1.14,4.34.33,1.29,1.66,1.4,1.36,3.31-.37,2.17-1.36,2.28-1.92,2.79-.55.48-1.29.85-1.62,1.76-.33.92-.41,1.87-.22,2.72.37,1.54,2.62.29,4.13-.37,1.03-.48,4.17-3.16,4.98-4.04,2.03-2.28,2.95-6.69,1.36-9.19"/>
      <path class="cls-15" d="M110.08,55.18c-15.78,0-27.35,4.59-34.32,13.64-9.77,12.68-9.4,32.01-5.82,45.91,1.11,4.26,1.7,15.69,2.43,19.88,3.43,18.78,24.11,28.78,37.71,28.78h.37V55.18h-.22"/>
      <path class="cls-21" d="M144.36,68.85c-6.93-9.01-18.36-13.6-33.92-13.67v108.21c15.56-.18,34.17-11.14,37.34-28.78.77-4.19,1.33-15.62,2.43-19.88,3.61-13.86,3.98-33.15-5.86-45.87"/>
      <path class="cls-1" d="M108.52,140.27c-.22-.04-.42-.08-.59-.11.2.04.4.08.59.11Z"/>
      <path class="cls-1" d="M107.7,144.16c-.14-.03-.27-.06-.36-.08.12.03.24.05.36.08Z"/>
      <path class="cls-26" d="M107.93,144.21c-.08-.02-.15-.03-.23-.05.07.02.14.03.23.05Z"/>
      <path class="cls-26" d="M107.34,144.08c-.07-.02-.13-.04-.2-.06h0s.08.02.21.06Z"/>
      <path class="cls-8" d="M101.29,130.17c-.18-3.74,6.85-1.37,9.16-1.25,1.83.09,7.4-1.18,7.88-.85,3.28,2.22-3.47,6.68-8,6.68-1.21,0-8.94-2.33-9.05-4.58Z"/>
      <path class="cls-1" d="M67.41,88.91c-.43,1.43-.73,3-.93,4.67,0,0,.63-2.64,2.03-6.54-.6.83-1,1.5-1.1,1.87Z"/>
      <path class="cls-7" d="M97.04,55.45l-.2.2.03.07c.07-.1.1-.2.17-.27Z"/>
      <path class="cls-1" d="M108.67,142.13c-.22-.04-.43-.08-.61-.12.21.04.41.09.61.12Z"/>
      <path class="cls-1" d="M107.83,141.96c-.14-.03-.28-.06-.37-.09.12.03.24.06.37.09Z"/>
      <path class="cls-29" d="M108.06,142.01c-.08-.02-.15-.03-.23-.05.08.02.14.03.23.05Z"/>
      <path class="cls-29" d="M107.46,141.88c-.07-.02-.14-.04-.21-.06h0s.08.03.21.06Z"/>
      <path class="cls-14" d="M76.01,97.41s3.66,15.07,9.95,16.3c6.29,1.23,13.09-1.22,13.09-1.22,0,0,.65-17.71-2.57-20.02-3.22-2.32-10.63-5.68-20.47,4.94Z"/>
      <path class="cls-28" d="M99.06,112.45s-.14.04-.47.18c-.08-5.43-.58-12.89-2.59-14.32-2.99-2.2-9.74-5.28-18.75,3.17-.82-2.33-1.23-4.1-1.23-4.1,9.86-10.64,17.28-7.29,20.47-4.96,3.22,2.32,2.57,20.05,2.57,20.05Z"/>
      <ellipse class="cls-2" cx="89.15" cy="104.78" rx="6.19" ry="6.21"/>
      <path class="cls-24" d="M88.86,108.91c-1.79-.15-3.16-1.96-3-3.95.16-1.99,1.81-3.54,3.6-3.39,1.79.15,3.16,1.95,3,3.94-.16,1.99-1.81,3.55-3.6,3.4Z"/>
      <path class="cls-16" d="M89.02,108.2c-1.24-.11-2.53-1.47-2.4-3.16.14-1.69,1.63-2.83,2.88-2.73,1.24.11,2.53,1.48,2.39,3.17-.14,1.69-1.63,2.83-2.87,2.72Z"/>
      <path class="cls-14" d="M88.01,104.04c-.05.61-.68,1.05-1.39,1-.72-.06-1.26-.61-1.21-1.21.05-.61.67-1.06,1.39-1,.72.06,1.26.6,1.21,1.21Z"/>
      <path class="cls-14" d="M92.02,107.56c-.03.3-.34.53-.69.5-.36-.03-.63-.3-.61-.61.03-.3.34-.53.69-.5.36.03.63.3.61.61Z"/>
      <path class="cls-1" d="M108.77,143.91c-.22-.04-.43-.08-.61-.12.21.04.41.09.61.12Z"/>
      <path class="cls-1" d="M107.92,143.74c-.14-.03-.28-.06-.37-.09.12.03.24.06.37.09Z"/>
      <path class="cls-29" d="M108.16,143.79c-.08-.02-.15-.03-.23-.05.08.02.14.03.23.05Z"/>
      <path class="cls-29" d="M107.56,143.65c-.07-.02-.14-.04-.21-.06h0s.08.02.21.06Z"/>
      <path class="cls-1" d="M108.53,143.49c-.24-.04-.46-.08-.65-.12.22.05.44.09.65.12Z"/>
      <path class="cls-1" d="M107.63,143.31c-.15-.03-.3-.07-.4-.09.13.03.26.06.4.09Z"/>
      <path class="cls-26" d="M107.88,143.36c-.08-.02-.17-.03-.25-.05.08.02.15.03.25.05Z"/>
      <path class="cls-26" d="M107.23,143.22c-.08-.02-.15-.04-.22-.06h0s.09.03.23.06Z"/>
      <path class="cls-1" d="M108.34,142.86c-.24-.04-.46-.08-.65-.12.22.05.44.09.65.12Z"/>
      <path class="cls-1" d="M107.44,142.68c-.15-.03-.3-.07-.4-.09.13.03.26.06.4.09Z"/>
      <path class="cls-26" d="M107.69,142.73c-.08-.02-.17-.03-.25-.05.08.02.15.03.25.05Z"/>
      <path class="cls-26" d="M107.05,142.59c-.08-.02-.15-.04-.22-.06h0s.09.03.23.06Z"/>
      <path class="cls-1" d="M108.9,142.77c-.23-.04-.44-.08-.63-.12.21.05.42.09.63.12Z"/>
      <path class="cls-1" d="M108.02,142.6c-.14-.03-.29-.06-.38-.09.13.03.25.06.38.09Z"/>
      <path class="cls-26" d="M108.26,142.65c-.08-.02-.16-.03-.24-.05.08.02.15.03.24.05Z"/>
      <path class="cls-26" d="M107.64,142.51c-.07-.02-.14-.04-.21-.06h0s.08.03.22.06Z"/>
      <path class="cls-14" d="M145.25,96.9s-3.66,15.07-9.95,16.3c-6.29,1.23-13.09-1.22-13.09-1.22,0,0-.65-17.71,2.57-20.02,3.22-2.32,10.63-5.68,20.47,4.94Z"/>
      <path class="cls-28" d="M122.21,111.94s.14.04.47.18c.08-5.43.58-12.89,2.59-14.32,2.99-2.2,9.74-5.28,18.75,3.17.82-2.33,1.23-4.1,1.23-4.1-9.86-10.64-17.28-7.29-20.47-4.96-3.22,2.32-2.57,20.05-2.57,20.05Z"/>
      <path class="cls-2" d="M125.93,104.27c0,3.43,2.77,6.21,6.19,6.21s6.19-2.78,6.19-6.21-2.77-6.21-6.19-6.21-6.19,2.78-6.19,6.21Z"/>
      <path class="cls-24" d="M132.4,108.4c1.79-.15,3.16-1.96,3-3.95-.16-1.99-1.81-3.54-3.6-3.39-1.79.15-3.16,1.95-3,3.94.16,1.99,1.81,3.55,3.6,3.4Z"/>
      <path class="cls-16" d="M132.25,107.68c1.24-.11,2.53-1.47,2.4-3.16-.14-1.69-1.63-2.83-2.88-2.73-1.24.11-2.53,1.48-2.39,3.17.14,1.69,1.63,2.83,2.87,2.72Z"/>
      <path class="cls-14" d="M133.26,103.52c.05.61.68,1.05,1.39,1,.72-.06,1.26-.61,1.21-1.21-.05-.61-.67-1.06-1.39-1-.72.06-1.26.6-1.21,1.21Z"/>
      <path class="cls-14" d="M129.24,107.05c.03.3.34.53.69.5.36-.03.63-.3.61-.61-.03-.3-.34-.53-.69-.5-.36.03-.63.3-.61.61Z"/>
      <g>
        <path class="cls-23" d="M102.83,97.17c-.05-.07-1.19-1.81-3.52-3.61-1.46-1.12-2.89-1.98-4.38-2.62-1.81-.76-3.75-1.3-5.63-1.56-1.7-.19-3.59-.14-5.8.16-1.68.32-3.32.82-4.71,1.44-.99.34-1.78.82-2.41,1.21-.24.15-.46.28-.68.4l-3,1.89,3.46-.82c.16-.04.34-.09.52-.14.72-.19,1.61-.43,2.65-.58.24-.04.49-.09.75-.14.44-.09.89-.18,1.36-.2.52-.04,1.07-.07,1.63-.11l.73-.05c1.92-.02,3.54.12,4.97.45,1.57.27,3.19.78,4.67,1.47,1.4.67,2.74,1.34,3.79,2.11,2.11,1.42,3.29,2.6,3.3,2.61h0c.29.29.68.44,1.07.44.28,0,.57-.08.82-.25.7-.46.89-1.4.45-2.08l-.03-.05Z"/>
        <path class="cls-23" d="M145.87,92.59c-.2-.11-.42-.24-.66-.39-.63-.39-1.41-.87-2.38-1.2-1.42-.63-3.06-1.13-4.76-1.45-2.18-.29-4.07-.35-5.78-.15-1.87.26-3.82.8-5.63,1.56-1.46.63-2.94,1.51-4.38,2.62-2.29,1.76-3.43,3.47-3.51,3.6l-.02.03c-.39.6-.3,1.4.2,1.9.28.29.66.45,1.06.45h0c.4,0,.78-.16,1.06-.45h.01c.11-.12,1.25-1.24,3.3-2.62,1.03-.76,2.37-1.43,3.77-2.1,1.49-.69,3.1-1.2,4.7-1.48,1.42-.33,3.04-.47,4.93-.45l.76.05c.55.04,1.09.08,1.62.11.46.02.91.11,1.35.2.25.05.5.1.75.14,1.05.15,1.94.39,2.65.58.19.05.36.1.53.14l3.46.82-3.03-1.91Z"/>
      </g>
      <path class="cls-1" d="M107.71,145.7c-.23-.04-.45-.08-.64-.12.22.05.43.09.64.12Z"/>
      <path class="cls-1" d="M106.83,145.52c-.15-.03-.29-.07-.39-.09.13.03.26.06.39.09Z"/>
      <path class="cls-19" d="M107.07,145.57c-.08-.02-.16-.03-.24-.05.08.02.15.03.24.05Z"/>
      <path class="cls-19" d="M106.44,145.43c-.07-.02-.14-.04-.22-.06h0s.08.03.22.06Z"/>
      <path class="cls-17" d="M101.58,148.68c-.18-2.42,6.73.51,8.99.58,1.81.06,7.25-.36,7.75-.55,3.8-1.43-.21,4.05-7.86,4.34-3.51.14-8.78-2.9-8.88-4.36Z"/>
      <path class="cls-12" d="M124.07,144.01c-1.88-.09-3.8,1.48-6.06,1.24-.09-.05-.14-.05-.23-.05-.52-.09-1.03,0-1.6.14-.7.15-1.41.43-2.07.66-1.13.37-2.4.66-3.7.56h0s-.05,0-.07,0-.05,0-.07,0h0c-1.31.09-2.58-.2-3.7-.57-.66-.23-1.37-.52-2.07-.66-.56-.14-1.08-.23-1.6-.14-.1,0-.14,0-.23.05-2.26.24-4.18-1.33-6.06-1.24-.52.05-1.27-.09-1.69-.09.09.05.19.09.28.14,5.35,2.61,9.96,7.51,15.07,7.35h.15c5.11.16,9.72-4.74,15.07-7.35.1-.05.19-.09.28-.14-.42,0-1.17.14-1.69.09Z"/>
      <path class="cls-11" d="M125.64,143.86h0s-5.44-2.1-9.3-.87c0,0-1.44.56-2.93.91-.91.35-2.01.46-3.07.41h0c-.81-.03-1.59-.14-2.22-.25-.21-.03-.42-.08-.64-.12-.09-.02-.16-.03-.24-.05-.13-.03-.26-.06-.39-.09-.14-.03-.22-.06-.22-.06h0c-1.24-.34-2.3-.75-2.3-.75-3.87-1.23-9.3.87-9.3.87h0c-.07.03-.12.06-.12.06.42,0,1.17.14,1.69.09,1.87-.09,3.8,1.48,6.06,1.24.09-.05.14-.05.23-.05.52-.09,1.03,0,1.6.14.7.15,1.41.43,2.07.66,1.13.37,2.4.66,3.7.56h0s.05,0,.07,0,.05,0,.07,0h0c1.31.09,2.58-.2,3.7-.57.66-.23,1.37-.52,2.07-.66.56-.14,1.08-.23,1.6-.14.1,0,.14,0,.23.05,2.26.24,4.18-1.33,6.06-1.24.52.05,1.27-.09,1.69-.09,0,0-.05-.02-.12-.06Z"/>
      <path class="cls-11" d="M101.2,145.14c.1.02,10.19,3.11,18.08.07l-.91-.61h-10.66l-6.5.55Z"/>
      <path class="cls-14" d="M112.58,214.32s-.03,0-.04,0c.01,0,.03,0,.04,0Z"/>
      <path class="cls-3" d="M157.57,223.15s-.4.15-1.07.45h-90.82c-.75-.29-1.12-.45-1.12-.45,0-10.71,1.58-19.08,3.96-25.6,2.82-7.67,6.78-12.8,10.67-16.21,5.45,10.12,16.81,27,31.79,26.83,9.46-.11,20.34-7,32.1-26.72,3.85,3.41,7.75,8.5,10.55,16.1,2.39,6.52,3.96,14.89,3.96,25.6Z"/>
      <path class="cls-6" d="M143.06,181.44c-11.76,19.72-22.64,26.62-32.1,26.72-14.98.17-26.34-16.72-31.79-26.83,4.05-3.58,8.03-5.26,10.51-6.03t.03-.02l11.13,12.82c2.67,3.07,6.39,4.6,10.12,4.6s7.48-1.57,10.15-4.7l10.94-12.82c.6.18,1.32.41,2.1.74,2.44.95,5.65,2.64,8.9,5.51Z"/>
      <polygon class="cls-13" points="115.37 217.4 112.21 222.3 110.03 222.3 106.87 217.4 111.12 211.16 111.15 211.2 115.37 217.4"/>
      <polygon class="cls-13" points="129.75 217.4 126.59 222.3 124.43 222.3 121.27 217.4 125.52 211.16 129.75 217.4"/>
      <polygon class="cls-13" points="100.97 217.4 97.81 222.3 95.65 222.3 92.49 217.4 96.74 211.16 100.97 217.4"/>
      <polygon class="cls-13" points="86.59 217.4 83.43 222.3 81.25 222.3 78.09 217.4 82.34 211.16 86.59 217.4"/>
      <polygon class="cls-13" points="144.15 217.4 140.99 222.3 138.83 222.3 135.66 217.4 139.9 211.16 144.15 217.4"/>
      <path class="cls-6" d="M165.36,79.74c-.02,2.32-.05,4.54-.12,6.68-7.28.83-14.66,1.41-21.97,1.78-3.39.17-6.78.31-10.15.38-.87.03-1.75.06-2.62.06-2.26.06-4.48.09-6.71.11-5.54.05-10.94,0-16.18-.14-3.59-.08-7.08-.18-10.47-.32-1.75-.08-3.47-.15-5.14-.23-3.32-.17-6.49-.37-9.52-.57-11.5-.75-20.86-1.67-26.77-2.35,0-5.42.34-11.13,1.18-16.61,4.84,1.2,16.1,1.69,29.67,1.8h.38c11.54.08,24.73-.12,37.02-.43h.11c18.16-.45,34.38-1.09,40.6-1.35.55,4.11.69,7.95.68,11.19Z"/>
      <path class="cls-23" d="M165.36,79.74c-.02,2.32-.05,4.54-.12,6.68-1.49,49.32-16.33,51.77-16.33,51.77,0,0,4.36-9.81,5.1-20.74.41-6.34-2.78-25.3-2.78-25.3.26,8.35-6.75,17.71-6.75,17.71.81-6.37,0-14.49-1.2-21.67-1.58-9.49-3.84-17.31-3.84-17.31.14,8.53-3.64,14.55-6.31,17.7-1.44,1.7-2.55,2.58-2.55,2.58,0-.86-.03-1.7-.08-2.52-.66-10.84-5.42-17.45-6.42-18.74-.12-.15-.18-.23-.18-.23.03.08.06.15.08.23,2.15,6.22,1.52,12.86-.18,18.85-3.09,10.87-9.72,19.54-9.72,19.54-.94-6.48-3.67-13.63-6.46-19.68-3.67-7.95-7.46-13.97-7.46-13.97-2.29,6.2-2.93,10.68-3.01,13.65-.08,3.05.46,4.48.46,4.48-2.35-1.07-4.18-2.75-5.6-4.71-4.22-5.8-4.94-14.2-5.05-17.73-.03-1.04-.02-1.67-.02-1.67,0,0-.14.63-.37,1.67-.77,3.5-2.62,11.77-4.08,17.16-.54,2.01-1.03,3.62-1.38,4.44-6.2,14.15-5.86,18.53-5.86,18.53-4.97-4.13-4.85-15.83-4.85-15.83,0,0-2.46,17.59-2.2,23.48.25,5.73,4.08,22.63,4.08,22.63,0,0-11.25-8.99-15.43-38.7-.68-4.79-1.14-10.65-1.14-16.9,0-5.42.34-11.13,1.18-16.61,1.46-9.64,4.48-18.62,9.93-24.33,15.67-16.42,33.85-16.95,45.37-16.9,39.74.2,50.07,23.25,52.48,41.24.55,4.11.69,7.95.68,11.19Z"/>
      <path class="cls-20" d="M154.99,122.51l-2.03,1.5s-12.86,28.9-23.72,21.54l-.04.14c-.54-1.68-1.33-3.12-2.31-4.19-3.07-4.52-9.27-7.62-16.45-7.62-6.61,0-12.39,2.63-15.66,6.58-1.46,1.01-2.65,2.78-3.4,4.97v-.02c-10.86,7.36-22.87-21.39-22.87-21.39l-2.03-1.5-.05,4.59c4.04,17.53,21,29.39,27.78,33.51.56.49,1.16.9,1.8,1.13.3.16.64.31.97.46.02.01.05.03.05.03h0c3.37,1.49,8.11,2.43,13.4,2.43,5.64,0,10.68-1.07,14.08-2.74l-.09.31s25.53-13.08,30.61-35.13l-.05-4.59ZM119.45,158.65c0-.06.03-.12.03-.17,0-1.74-4.13-3.14-9.24-3.14s-9.23,1.41-9.23,3.14c0,.03,0,.05,0,.07-1.81-.45-3.42-1.03-4.76-1.7-.71-1.75-1.15-3.82-1.15-6.06v-.02c0-1.19.55-2.31,1.45-3.09,2.71-2.33,6.42-3.98,10.62-4.55,1.06-.14,2.15-.22,3.26-.22s2.2.08,3.26.22c3.82.52,7.21,1.93,9.82,3.93,1.15.88,1.85,2.26,1.85,3.7v.02c0,2.34-.46,4.5-1.24,6.3-1.35.62-2.93,1.15-4.69,1.57Z"/>
      <g>
        <path class="cls-9" d="M71.98,27.93h77.31c1.24,0,2.25,1.01,2.25,2.25v4.12c0,1.24-1.01,2.25-2.25,2.25h-77.31c-1.24,0-2.25-1.01-2.25-2.25v-4.12c0-1.24,1.01-2.25,2.25-2.25Z"/>
        <g>
          <path class="cls-10" d="M68.79,94.55v36.01c0,4.55-3.96,8.24-8.85,8.24v-52.48c4.9,0,8.85,3.69,8.85,8.24Z"/>
          <path class="cls-9" d="M97.27,30.3l-37.34,23.55v84.96h-3.35c-2.71,0-5.13-1.57-6.06-3.93l-8.94-22.61c-1.96-4.95-1.19-10.48,2.08-14.8l5.72-7.57v-39.39c-.05-1.11.49-2.21,1.54-2.87l40.44-25.51c1.59-1,3.81-.61,4.88.89l1.98,2.71c1.09,1.5.65,3.55-.94,4.56Z"/>
          <path class="cls-10" d="M161.03,86.33v52.45c-4.74-.14-8.55-3.77-8.55-8.22v-36.01c0-4.45,3.81-8.08,8.55-8.22Z"/>
          <path class="cls-9" d="M179.69,112.26l-8.94,22.61c-.93,2.36-3.35,3.93-6.06,3.93h-3.34c-.12-.12-.19-.18-.32-.3v-52.17c.1-.02.22-.02.32-.02v-32.47l-37.35-23.55c-1.59-1.01-2.03-3.07-.94-4.56l1.98-2.71c1.09-1.5,3.29-1.9,4.88-.89l40.44,25.51c1.06.65,1.59,1.76,1.54,2.87v39.39l5.72,7.57c3.27,4.31,4.04,9.84,2.08,14.8Z"/>
          <path class="cls-25" d="M48.66,99.87c-.5-.75-12.31-18.57-8.08-31.93,1.54-4.85,5.02-8.5,10.36-10.84l.72,1.41c-4.89,2.14-8.07,5.46-9.47,9.87-4.02,12.7,7.78,30.49,7.9,30.67l-1.42.82Z"/>
          <path class="cls-25" d="M52.06,99.57c0,1.64-1.43,2.97-3.2,2.97s-3.2-1.33-3.2-2.97,1.43-2.97,3.2-2.97,3.2,1.33,3.2,2.97Z"/>
          <rect class="cls-25" x="49.37" y="56.34" width="10.56" height="4.57"/>
        </g>
      </g>
    </g>
  </g>
</svg>