<?xml version="1.0" encoding="UTF-8"?>
<svg id="Layer_2" data-name="Layer 2" xmlns="http://www.w3.org/2000/svg" xmlns:xlink="http://www.w3.org/1999/xlink" viewBox="0 0 221.48 223.6">
  <defs>
    <style>
      .cls-1 {
        fill: none;
      }

      .cls-2 {
        fill: #462e1b;
      }

      .cls-3 {
        fill: url(#Névtelen_színátmenet_2-2);
      }

      .cls-3, .cls-4 {
        opacity: .57;
      }

      .cls-5 {
        fill: #ba9d82;
      }

      .cls-6 {
        fill: #ccad8a;
      }

      .cls-7 {
        fill: #d9ab31;
      }

      .cls-8 {
        fill: #44361f;
      }

      .cls-9 {
        fill: #d7bd9d;
      }

      .cls-4 {
        fill: url(#Névtelen_színátmenet_2);
      }

      .cls-10 {
        fill: #43423d;
      }

      .cls-11 {
        fill: #c1a587;
      }

      .cls-12 {
        fill: #dac6a4;
      }

      .cls-13 {
        fill: url(#Névtelen_színátmenet_2-4);
      }

      .cls-14 {
        fill: url(#Névtelen_színátmenet_2-3);
      }

      .cls-15 {
        fill: #fff;
      }

      .cls-16 {
        fill: #dcc5a0;
      }

      .cls-17 {
        fill: #272213;
      }

      .cls-18 {
        fill: #ecdab6;
      }

      .cls-19 {
        fill: #3c3d39;
      }

      .cls-20 {
        fill: #b8987d;
      }

      .cls-21 {
        fill: #d3897e;
      }

      .cls-22 {
        opacity: .46;
      }

      .cls-23 {
        fill: #ebd9b5;
      }

      .cls-24 {
        fill: #5a413a;
      }

      .cls-25 {
        fill: #a98d76;
      }

      .cls-26 {
        fill: #7fa6ad;
      }

      .cls-27 {
        fill: #714223;
      }

      .cls-28 {
        fill: #b7967d;
      }

      .cls-29 {
        clip-path: url(#clippath);
      }

      .cls-30 {
        fill: #d2bb9b;
      }

      .cls-31 {
        fill: #b5957e;
      }
    </style>
    <clipPath id="clippath">
      <rect class="cls-1" x="98.51" y="154.83" width="25.11" height="14.85"/>
    </clipPath>
    <linearGradient id="Névtelen_színátmenet_2" data-name="Névtelen színátmenet 2" x1="65.5" y1="110.46" x2="104.59" y2="110.46" gradientUnits="userSpaceOnUse">
      <stop offset="0" stop-color="#fff"/>
      <stop offset="1" stop-color="#6189ae"/>
    </linearGradient>
    <linearGradient id="Névtelen_színátmenet_2-2" data-name="Névtelen színátmenet 2" x1="115.21" y1="110.46" x2="154.3" y2="110.46" xlink:href="#Névtelen_színátmenet_2"/>
    <linearGradient id="Névtelen_színátmenet_2-3" data-name="Névtelen színátmenet 2" x1="85.41" y1="127.6" x2="83.41" y2="106.39" xlink:href="#Névtelen_színátmenet_2"/>
    <linearGradient id="Névtelen_színátmenet_2-4" data-name="Névtelen színátmenet 2" x1="136.07" y1="122.82" x2="134.07" y2="101.61" xlink:href="#Névtelen_színátmenet_2"/>
  </defs>
  <g id="Layer_1-2" data-name="Layer 1">
    <g>
      <rect class="cls-21" width="221.48" height="223.6"/>
      <path class="cls-19" d="M86.93,140.92c-.79-.63-15.12-10.13-15.12-10.13.98,5.91,1.72,8.33.28,12.34-1.3,3.61-3.78,5.01-5.15,6.27-1.38,1.27-4.17,2.22-5.14,2.22s-2.1-.19-2.1-.19c0,0,2.28,1.35,7.99,1.08,2.4-.11,3.92-.76,4.91-1.5-1.13,1.96-2.19,4.76-1,7.37,4.31,9.46-1.44,12.54-1.44,12.54,0,0,5.1-.55,8.02-3.31.01.07,0,.17.02.23,1.3,4.73,4.72,5.26,4.72,5.26,0,0-2.16-.39-1.75-4.78.11-1.17,1.24-1.63,2.65-2.42.55,4.25,2.33,8.57-1.36,10.34,0,0,6.23-1.33,7.37-5.31.2-.73.32-1.4.42-2.08.1.37.23.72.3,1.12.88,5.07-2.7,9.98-2.7,9.98,0,0,12.94-1.48,13.04-6.99.01-.83.17-4.2.57-5.47.39-1.27,1.18-7.59,1.18-7.59,0,0-14.93-18.34-15.72-18.98Z"/>
      <path class="cls-19" d="M137.54,140.92c.79-.63,15.13-10.13,15.13-10.13-.98,5.91-1.72,8.33-.28,12.34,1.3,3.61,3.78,5.01,5.15,6.27,1.38,1.27,4.17,2.22,5.15,2.22s2.09-.19,2.09-.19c0,0-2.28,1.35-7.99,1.08-2.4-.11-3.92-.76-4.91-1.5,1.13,1.96,2.19,4.76,1,7.37-4.31,9.46,1.44,12.54,1.44,12.54,0,0-5.1-.55-8.03-3.31-.01.07,0,.17-.02.23-1.3,4.73-4.72,5.26-4.72,5.26,0,0,2.16-.39,1.75-4.78-.11-1.17-1.24-1.63-2.65-2.42-.55,4.25-2.33,8.57,1.35,10.34,0,0-6.23-1.33-7.37-5.31-.21-.73-.32-1.4-.42-2.08-.1.37-.23.72-.3,1.12-.88,5.07,2.7,9.98,2.7,9.98,0,0-12.94-1.48-13.04-6.99,0-.83-.17-4.2-.56-5.47-.4-1.27-1.18-7.59-1.18-7.59,0,0,14.93-18.34,15.71-18.98Z"/>
      <path class="cls-16" d="M110.97,139.57v84.02h-45.31c-.74-.3-1.11-.44-1.11-.44,0-10.73,1.57-19.09,3.96-25.61,5.77-15.74,16.32-20.74,21.18-22.24,1.59-.5,2.58-.61,2.58-.61.17,0,.33-.02.5-.04,1.43-.23,2.58-1.47,3.51-3.46.69-1.47,1.27-3.35,1.74-5.53.19-.85.33-1.7.48-2.63.22-1.55.44-3.18.63-4.88.07-1.04.18-2.03.29-3.11.4-5.14.52-10.77.52-16.1,0,0,6.08.63,11.02.63Z"/>
      <path class="cls-23" d="M157.57,223.15s-.41.15-1.07.44h-45.53v-84.02h.11c4.9,0,11.06-.63,11.06-.63,0,5.29.11,10.84.51,15.98.11,1,.22,2.03.29,3.03.19,1.78.41,3.44.67,4.99v.03c.07.71.22,1.33.33,2,.45,2.19.99,4.11,1.64,5.65.81,1.92,1.8,3.26,3.01,3.79.38.17.79.26,1.21.26,0,0,1.74.21,4.36,1.24,5.33,2.09,14.29,7.59,19.44,21.62,2.39,6.52,3.96,14.88,3.96,25.61Z"/>
      <g class="cls-29">
        <path class="cls-5" d="M123.61,162.8v.04c-1.14,1.76-4.98,6.84-12.57,6.84h-.07c-7.19-.04-11.39-5.26-12.46-6.8.22-1.54.44-3.16.63-4.85.07-.99.18-2.02.3-3.09,3.5.88,7.34,1.43,11.39,1.51h.15c4.2-.07,8.07-.66,11.69-1.62.11.99.22,2.02.3,3.01.18,1.76.41,3.42.66,4.96"/>
      </g>
      <path class="cls-6" d="M110.45,43.82c-48,0-48.26,40.25-46.12,66.6-3.28-6.25-13.05-4.34-12.24,5.51.77,9.48,14.73,14.32,14.34,13.27,7.27,19.49,26.51,34.18,44.02,34.18h.37V43.82h-.37"/>
      <path class="cls-25" d="M55.16,111.78c2.36-3.82,6.05-2.17,6.93-1.32.96.92,1.73,2.09,1.14,4.34-.33,1.29-1.66,1.4-1.36,3.31.37,2.17,1.36,2.28,1.95,2.79.55.48,1.25.85,1.59,1.76.37.92.41,1.87.22,2.72-.37,1.54-2.62.29-4.13-.37-1-.48-4.17-3.16-4.98-4.04-1.99-2.28-2.95-6.69-1.36-9.19"/>
      <path class="cls-9" d="M110.71,43.82c48,0,48.26,40.25,46.15,66.6,3.28-6.25,13.01-4.34,12.2,5.51-.74,9.48-14.72,14.32-14.34,13.27-7.08,19.49-26.51,34.18-44.02,34.18h-.26l-.11-119.57h.37"/>
      <path class="cls-25" d="M166.01,111.78c-2.36-3.82-6.01-2.17-6.93-1.32-.96.92-1.7,2.09-1.14,4.34.33,1.29,1.66,1.4,1.36,3.31-.37,2.17-1.36,2.28-1.92,2.79-.55.48-1.29.85-1.62,1.76-.33.92-.41,1.87-.22,2.72.37,1.54,2.62.29,4.13-.37,1.03-.48,4.17-3.16,4.98-4.04,2.03-2.28,2.95-6.69,1.36-9.19"/>
      <path class="cls-16" d="M110.08,55.18c-15.78,0-27.35,4.59-34.32,13.64-9.77,12.68-9.4,32.01-5.82,45.91,1.11,4.26,1.7,15.69,2.43,19.88,3.43,18.78,24.11,28.78,37.71,28.78h.37V55.18h-.22"/>
      <path class="cls-23" d="M144.36,68.85c-6.93-9.01-18.36-13.6-33.92-13.67v108.21c15.56-.18,34.17-11.14,37.34-28.78.77-4.19,1.33-15.62,2.43-19.88,3.61-13.86,3.98-33.15-5.86-45.87"/>
      <path class="cls-1" d="M108.52,140.27c-.22-.04-.42-.08-.59-.11.2.04.4.08.59.11Z"/>
      <path class="cls-1" d="M107.7,144.16c-.14-.03-.27-.06-.36-.08.12.03.24.05.36.08Z"/>
      <path class="cls-28" d="M107.93,144.21c-.08-.02-.15-.03-.23-.05.07.02.14.03.23.05Z"/>
      <path class="cls-28" d="M107.34,144.08c-.07-.02-.13-.04-.2-.06h0s.08.02.21.06Z"/>
      <path class="cls-9" d="M101.29,129.4c-.18-3.74,6.85-1.37,9.16-1.25,1.83.09,7.4-1.18,7.88-.85,3.28,2.22-3.47,6.68-8,6.68-1.21,0-8.94-2.33-9.05-4.58Z"/>
      <path class="cls-1" d="M67.41,88.91c-.43,1.43-.73,3-.93,4.67,0,0,.63-2.64,2.03-6.54-.6.83-1,1.5-1.1,1.87Z"/>
      <path class="cls-8" d="M97.04,55.45l-.2.2.03.07c.07-.1.1-.2.17-.27Z"/>
      <path class="cls-1" d="M108.67,142.13c-.22-.04-.43-.08-.61-.12.21.04.41.09.61.12Z"/>
      <path class="cls-1" d="M107.83,141.96c-.14-.03-.28-.06-.37-.09.12.03.24.06.37.09Z"/>
      <path class="cls-31" d="M108.06,142.01c-.08-.02-.15-.03-.23-.05.08.02.14.03.23.05Z"/>
      <path class="cls-31" d="M107.46,141.88c-.07-.02-.14-.04-.21-.06h0s.08.03.21.06Z"/>
      <path class="cls-15" d="M76.01,97.41s3.66,15.07,9.95,16.3c6.29,1.23,13.09-1.22,13.09-1.22,0,0,.65-17.71-2.57-20.02-3.22-2.32-10.63-5.68-20.47,4.94Z"/>
      <path class="cls-30" d="M99.06,112.45s-.14.04-.47.18c-.08-5.43-.58-12.89-2.59-14.32-2.99-2.2-9.74-5.28-18.75,3.17-.82-2.33-1.23-4.1-1.23-4.1,9.86-10.64,17.28-7.29,20.47-4.96,3.22,2.32,2.57,20.05,2.57,20.05Z"/>
      <ellipse class="cls-2" cx="89.15" cy="104.78" rx="6.19" ry="6.21"/>
      <path class="cls-27" d="M88.86,108.91c-1.79-.15-3.16-1.96-3-3.95.16-1.99,1.81-3.54,3.6-3.39,1.79.15,3.16,1.95,3,3.94-.16,1.99-1.81,3.55-3.6,3.4Z"/>
      <path class="cls-17" d="M89.02,108.2c-1.24-.11-2.53-1.47-2.4-3.16.14-1.69,1.63-2.83,2.88-2.73,1.24.11,2.53,1.48,2.39,3.17-.14,1.69-1.63,2.83-2.87,2.72Z"/>
      <path class="cls-15" d="M88.01,104.04c-.05.61-.68,1.05-1.39,1-.72-.06-1.26-.61-1.21-1.21.05-.61.67-1.06,1.39-1,.72.06,1.26.6,1.21,1.21Z"/>
      <path class="cls-15" d="M92.02,107.56c-.03.3-.34.53-.69.5-.36-.03-.63-.3-.61-.61.03-.3.34-.53.69-.5.36.03.63.3.61.61Z"/>
      <path class="cls-1" d="M108.77,143.91c-.22-.04-.43-.08-.61-.12.21.04.41.09.61.12Z"/>
      <path class="cls-1" d="M107.92,143.74c-.14-.03-.28-.06-.37-.09.12.03.24.06.37.09Z"/>
      <path class="cls-31" d="M108.16,143.79c-.08-.02-.15-.03-.23-.05.08.02.14.03.23.05Z"/>
      <path class="cls-31" d="M107.56,143.65c-.07-.02-.14-.04-.21-.06h0s.08.02.21.06Z"/>
      <path class="cls-1" d="M108.53,143.49c-.24-.04-.46-.08-.65-.12.22.05.44.09.65.12Z"/>
      <path class="cls-1" d="M107.63,143.31c-.15-.03-.3-.07-.4-.09.13.03.26.06.4.09Z"/>
      <path class="cls-28" d="M107.88,143.36c-.08-.02-.17-.03-.25-.05.08.02.15.03.25.05Z"/>
      <path class="cls-28" d="M107.23,143.22c-.08-.02-.15-.04-.22-.06h0s.09.03.23.06Z"/>
      <path class="cls-1" d="M108.34,142.86c-.24-.04-.46-.08-.65-.12.22.05.44.09.65.12Z"/>
      <path class="cls-1" d="M107.44,142.68c-.15-.03-.3-.07-.4-.09.13.03.26.06.4.09Z"/>
      <path class="cls-28" d="M107.69,142.73c-.08-.02-.17-.03-.25-.05.08.02.15.03.25.05Z"/>
      <path class="cls-28" d="M107.05,142.59c-.08-.02-.15-.04-.22-.06h0s.09.03.23.06Z"/>
      <path class="cls-1" d="M108.9,142.77c-.23-.04-.44-.08-.63-.12.21.05.42.09.63.12Z"/>
      <path class="cls-1" d="M108.02,142.6c-.14-.03-.29-.06-.38-.09.13.03.25.06.38.09Z"/>
      <path class="cls-28" d="M108.26,142.65c-.08-.02-.16-.03-.24-.05.08.02.15.03.24.05Z"/>
      <path class="cls-28" d="M107.64,142.51c-.07-.02-.14-.04-.21-.06h0s.08.03.22.06Z"/>
      <path class="cls-15" d="M145.25,96.9s-3.66,15.07-9.95,16.3c-6.29,1.23-13.09-1.22-13.09-1.22,0,0-.65-17.71,2.57-20.02,3.22-2.32,10.63-5.68,20.47,4.94Z"/>
      <path class="cls-30" d="M122.21,111.94s.14.04.47.18c.08-5.43.58-12.89,2.59-14.32,2.99-2.2,9.74-5.28,18.75,3.17.82-2.33,1.23-4.1,1.23-4.1-9.86-10.64-17.28-7.29-20.47-4.96-3.22,2.32-2.57,20.05-2.57,20.05Z"/>
      <path class="cls-2" d="M125.93,104.27c0,3.43,2.77,6.21,6.19,6.21s6.19-2.78,6.19-6.21-2.77-6.21-6.19-6.21-6.19,2.78-6.19,6.21Z"/>
      <path class="cls-27" d="M132.4,108.4c1.79-.15,3.16-1.96,3-3.95-.16-1.99-1.81-3.54-3.6-3.39-1.79.15-3.16,1.95-3,3.94.16,1.99,1.81,3.55,3.6,3.4Z"/>
      <path class="cls-17" d="M132.25,107.68c1.24-.11,2.53-1.47,2.4-3.16-.14-1.69-1.63-2.83-2.88-2.73-1.24.11-2.53,1.48-2.39,3.17.14,1.69,1.63,2.83,2.87,2.72Z"/>
      <path class="cls-15" d="M133.26,103.52c.05.61.68,1.05,1.39,1,.72-.06,1.26-.61,1.21-1.21-.05-.61-.67-1.06-1.39-1-.72.06-1.26.6-1.21,1.21Z"/>
      <path class="cls-15" d="M129.24,107.05c.03.3.34.53.69.5.36-.03.63-.3.61-.61-.03-.3-.34-.53-.69-.5-.36.03-.63.3-.61.61Z"/>
      <g>
        <path d="M102.83,97.17c-.05-.07-1.19-1.81-3.52-3.61-1.46-1.12-2.89-1.98-4.38-2.62-1.81-.76-3.75-1.3-5.63-1.56-1.7-.19-3.59-.14-5.8.16-1.68.32-3.32.82-4.71,1.44-.99.34-1.78.82-2.41,1.21-.24.15-.46.28-.68.4l-3,1.89,3.46-.82c.16-.04.34-.09.52-.14.72-.19,1.61-.43,2.65-.58.24-.04.49-.09.75-.14.44-.09.89-.18,1.36-.2.52-.04,1.07-.07,1.63-.11l.73-.05c1.92-.02,3.54.12,4.97.45,1.57.27,3.19.78,4.67,1.47,1.4.67,2.74,1.34,3.79,2.11,2.11,1.42,3.29,2.6,3.3,2.61h0c.29.29.68.44,1.07.44.28,0,.57-.08.82-.25.7-.46.89-1.4.45-2.08l-.03-.05Z"/>
        <path d="M145.87,92.59c-.2-.11-.42-.24-.66-.39-.63-.39-1.41-.87-2.38-1.2-1.42-.63-3.06-1.13-4.76-1.45-2.18-.29-4.07-.35-5.78-.15-1.87.26-3.82.8-5.63,1.56-1.46.63-2.94,1.51-4.38,2.62-2.29,1.76-3.43,3.47-3.51,3.6l-.02.03c-.39.6-.3,1.4.2,1.9.28.29.66.45,1.06.45h0c.4,0,.78-.16,1.06-.45h.01c.11-.12,1.25-1.24,3.3-2.62,1.03-.76,2.37-1.43,3.77-2.1,1.49-.69,3.1-1.2,4.7-1.48,1.42-.33,3.04-.47,4.93-.45l.76.05c.55.04,1.09.08,1.62.11.46.02.91.11,1.35.2.25.05.5.1.75.14,1.05.15,1.94.39,2.65.58.19.05.36.1.53.14l3.46.82-3.03-1.91Z"/>
      </g>
      <path class="cls-1" d="M107.71,145.7c-.23-.04-.45-.08-.64-.12.22.05.43.09.64.12Z"/>
      <path class="cls-1" d="M106.83,145.52c-.15-.03-.29-.07-.39-.09.13.03.26.06.39.09Z"/>
      <path class="cls-20" d="M107.07,145.57c-.08-.02-.16-.03-.24-.05.08.02.15.03.24.05Z"/>
      <path class="cls-20" d="M106.44,145.43c-.07-.02-.14-.04-.22-.06h0s.08.03.22.06Z"/>
      <path class="cls-18" d="M101.58,148.68c-.18-2.42,6.73.51,9,.58,1.81.06,7.25-.36,7.75-.55,3.8-1.43-.21,4.05-7.86,4.34-3.51.14-8.78-2.9-8.88-4.36Z"/>
      <path class="cls-12" d="M124.07,144.01c-1.88-.09-3.8,1.48-6.06,1.24-.09-.05-.14-.05-.23-.05-.52-.09-1.03,0-1.6.14-.7.15-1.41.43-2.07.66-1.13.37-2.4.66-3.7.56h0s-.05,0-.07,0-.05,0-.07,0h0c-1.31.09-2.58-.2-3.7-.57-.66-.23-1.37-.52-2.07-.66-.56-.14-1.08-.23-1.6-.14-.1,0-.14,0-.23.05-2.26.24-4.18-1.33-6.06-1.24-.52.05-1.27-.09-1.69-.09.09.05.19.09.28.14,5.35,2.61,9.96,7.51,15.07,7.35h.15c5.11.16,9.72-4.74,15.07-7.35.1-.05.19-.09.28-.14-.42,0-1.17.14-1.69.09Z"/>
      <path class="cls-11" d="M125.64,143.86h0s-5.44-2.1-9.3-.87c0,0-1.44.56-2.93.91-.91.35-2.01.46-3.07.41h0c-.81-.03-1.59-.14-2.22-.25-.21-.03-.42-.08-.64-.12-.09-.02-.16-.03-.24-.05-.13-.03-.26-.06-.39-.09-.14-.03-.22-.06-.22-.06h0c-1.24-.34-2.3-.75-2.3-.75-3.87-1.23-9.3.87-9.3.87h0c-.07.03-.12.06-.12.06.42,0,1.17.14,1.69.09,1.88-.09,3.8,1.48,6.06,1.24.09-.05.14-.05.23-.05.52-.09,1.03,0,1.6.14.7.15,1.41.43,2.07.66,1.13.37,2.4.66,3.7.56h0s.05,0,.07,0,.05,0,.07,0h0c1.31.09,2.58-.2,3.7-.57.66-.23,1.37-.52,2.07-.66.56-.14,1.08-.23,1.6-.14.1,0,.14,0,.23.05,2.26.24,4.18-1.33,6.06-1.24.52.05,1.27-.09,1.69-.09,0,0-.05-.02-.12-.06Z"/>
      <path class="cls-11" d="M101.2,145.14c.1.02,10.19,3.11,18.08.07l-.91-.61h-10.66l-6.5.55Z"/>
      <path class="cls-26" d="M158.75,210.74h-8.44c.02,3.1.09,5.8.17,8.04.08,1.95.17,3.55.26,4.8h-79.23c.09-1.24.17-2.86.23-4.8.08-2.24.14-4.94.15-8.04h-8.52c0-.31,0-.61.02-.92.08-1.84.43-3.9.94-6,.74-3.09,1.81-6.28,2.82-8.96,1-2.67,1.93-4.87,2.46-6,.23-.54.37-.84.37-.84.64-.87,1.3-1.67,1.96-2.44,1.73-2,3.53-3.62,5.31-4.94.2-.21.45-.37.66-.51.11-.08.23-.17.34-.23.46-.34.92-.64,1.38-.94,2.58-1.64,5.02-2.69,6.92-3.33.45-.17.86-.29,1.26-.4,1.78-.49,2.89-.63,2.89-.63.95,0,1.77-.35,2.5-.95,0,0,0-.03.03-.03.25-.23.49-.51.74-.8.09.08.28.34.43.83.34.84,1.52,3.38,3.3,6.25,2,3.21,4.74,6.83,7.95,8.96,1.7,1.12,3.55,1.83,5.46,1.83s3.76-.71,5.45-1.83c2.1-1.4,4.01-3.44,5.63-5.57.86-1.14,1.64-2.29,2.33-3.39,1.78-2.87,2.96-5.4,3.3-6.25.17-.49.35-.75.46-.83.23.29.48.57.72.8.03,0,.03.03.03.03.72.6,1.57.95,2.49.95,0,0,1.06.11,2.75.57.37.14.78.26,1.24.41,2.26.75,5.31,2.04,8.5,4.31.08.05.17.11.25.17.21.17.46.32.64.52,2.5,1.84,5.03,4.25,7.34,7.43,0,0,.2.29.54.84.64,1.07,1.83,3.18,2.95,6,1,2.49,1.96,5.53,2.53,8.96.31,1.89.51,3.9.51,6,0,.31-.02.61-.02.92Z"/>
      <path class="cls-24" d="M158.26,203.82h-93.94c.74-3.09,1.81-6.28,2.82-8.96h88.58c1,2.49,1.96,5.53,2.53,8.96Z"/>
      <path class="cls-24" d="M158.75,210.74h-8.44c.02,3.1.09,5.8.17,8.04h-78.74c.08-2.24.14-4.94.15-8.04h-8.52c0-.31,0-.61.02-.92h95.38c0,.31-.02.61-.02.92Z"/>
      <path class="cls-24" d="M105.64,188.85h-36.04c.23-.54.37-.84.37-.84.64-.87,1.3-1.67,1.96-2.44,1.73-2,3.53-3.62,5.31-4.94.2-.21.45-.37.66-.51.11-.08.23-.17.34-.23h19.45c2,3.21,4.74,6.83,7.95,8.96Z"/>
      <path class="cls-24" d="M152.78,188.85h-36.22c2.1-1.4,4.01-3.44,5.63-5.57.86-1.14,1.64-2.29,2.33-3.39h19.49c.08.05.17.11.25.17.21.17.46.32.64.52,2.5,1.84,5.03,4.25,7.34,7.43,0,0,.2.29.54.84Z"/>
      <g>
        <path class="cls-15" d="M143.82,192.94c.97-2.05,1.75-3.97.74-4.85-1.14-.95-3.25.57-5.34,2.05-.86-2.95-.95-7.66-3-7.8-2.25-.15-2.91,5.54-4.43,8.14-2.19-1.98-4.51-4.69-6.02-3.75-1.14.71-.62,2.75.05,4.92-2.49-.32-5-.65-5.54.72-.75,1.86,3.32,3.97,5.63,6-2.28,1.95-7.8,3.6-7.26,5.79.43,1.75,4.06,1.42,7.02,1.54-.98,2.08-1.82,4.08-.78,4.94,1.14.95,3.2-.54,5.25-2.02.82,2.97.91,7.57,2.92,7.71,2.28.17,2.95-5.66,4.54-8.2,2.2,1.97,4.59,4.72,6.09,3.77,1.11-.69.63-2.68-.03-4.8,2.45.34,4.86.65,5.4-.69.78-1.89-3.37-4.03-5.65-6.11,2.22-1.98,7.85-3.68,7.3-5.89-.45-1.71-3.96-1.39-6.88-1.46"/>
        <path class="cls-7" d="M139.43,199.33c0,2.63-2.12,4.77-4.76,4.77s-4.77-2.14-4.77-4.77,2.12-4.76,4.77-4.76,4.76,2.12,4.76,4.76"/>
      </g>
      <g>
        <path class="cls-10" d="M159.15,88.88c0,1.92-.21,5.05-.55,7.48-.18,1.55-.43,2.78-.67,3.29-.27.6-2.22,6.15-2.37,8.3-.91.92-1.95,2.11-2.65,4.05-1.43,3.91-2.01,3.25-2.01,3.25,0,0,.46-3.1.97-6.88.31-3.19.73-7.93,1.07-12,.03-.56.09-1.14.12-1.67-.64-3.29-6.6-19.04-34.95-17.56-4.56.22-9.18-1.54-12.77-3.44-3.71-1.93-6.3-3.98-6.54-3.98-1.25,0-12.59-2.18-19.25,2.96-.43.32-.82.66-1.19,1.01-7.91,7.1-9,19.45-9,21.91,0,.22,0,.48.03.76.21,5.08-.33,18.94-.33,18.94,0,0-2.53,1-3.99-2.91-.82-2.28,2.43-3.96,1.4-4.92-1.58-3.47-2.46-4.54-3.26-7.83-.21-.91-.88-1.8-1.58-3.29-1.52-3.1-3.25-8.81-1.42-22.67.09-.63.18-1.26.27-1.93,1.39-9.47,8.34-30.74,26.64-34.53,18.31-3.81,22.57-8.24,37.53-1.89,14.96,6.31,24.42,10.77,29.02,21.22,2.07,4.77,3.41,11.21,4.2,17.14,1,7.1,1.28,13.45,1.28,15.19Z"/>
        <g>
          <path class="cls-26" d="M70.32,114.52c1.5,12.71,2.58,22.57-3.56,23.17-6.13.61-12.32-9.2-13.81-21.91-1.49-12.71,2.26-23.51,8.4-24.12,6.13-.61,7.48,10.14,8.97,22.85Z"/>
          <path class="cls-10" d="M65.28,115.15c1.38,11.7,2.37,20.77-3.28,21.34-5.65.57-11.34-8.47-12.72-20.17-1.37-11.7,2.09-21.65,7.73-22.21,5.65-.57,6.89,9.34,8.26,21.04Z"/>
          <path class="cls-26" d="M148.25,114.52c-1.5,12.71-2.58,22.57,3.56,23.17,6.13.61,12.32-9.2,13.81-21.91,1.49-12.71-2.26-23.51-8.4-24.12-6.13-.61-7.48,10.14-8.97,22.85Z"/>
          <path class="cls-15" d="M153.24,40.16c-9.55-10.17-24.31-15.31-44.01-15.24-19.69-.06-34.46,5.07-44.01,15.24-11.5,12.28-14.39,30.9-8.38,53.84l3.65-.73c-5.64-21.62-2.93-39.73,7.63-51.01,8.79-9.38,22.66-14.12,41.11-14.06,18.45-.06,32.32,4.68,41.11,14.06,10.56,11.29,13.27,29.39,7.63,51.01l3.65.73c6.01-22.94,3.12-41.57-8.38-53.84Z"/>
          <path class="cls-10" d="M153.29,115.15c-1.38,11.7-2.37,20.77,3.28,21.34,5.65.57,11.34-8.47,12.72-20.17,1.37-11.7-2.09-21.65-7.73-22.21-5.65-.57-6.89,9.34-8.26,21.04Z"/>
        </g>
      </g>
      <g>
        <path class="cls-15" d="M159.49,100.29c-.12-.95-.8-1.74-1.73-1.99-14.37-3.81-30.42-2.53-33.71-2.21-.38.04-.76.1-1.14.2-3.23.82-5.99,1.39-8.19,1.78-3.25.58-6.56.58-9.81-.02-2.15-.4-4.84-.96-8.03-1.77-.37-.09-.75-.16-1.13-.2-3.29-.32-19.34-1.6-33.71,2.21-.93.25-1.61,1.04-1.73,1.99-.18,1.36-.32,3.46.05,5.69.1.65.49,1.21,1.04,1.57.95.63,2.42,2.08,2.76,5.21,0,0,1.36,6.39,2.47,7.67,0,0,2.9,4.34,15.5,4,0,0,18.54.86,20.72-5.41l.57-1.63,2.65-6.75s.87-3.24,3.46-3.97h0c.23-.07.48-.07.71,0h.03c2.59.74,3.46,3.98,3.46,3.98l2.65,6.76c.21.53.38,1.08.56,1.62,2.18,6.27,20.72,5.41,20.72,5.41,12.61.34,15.5-4,15.5-4,1.11-1.28,2.47-7.67,2.47-7.67.34-3.12,1.82-4.58,2.77-5.21.55-.36.94-.92,1.04-1.57.36-2.23.22-4.33.04-5.69ZM102.32,114.77c-.59,1.32-1.34,2.67-2.27,3.97-.92,1.27-2.25,2.19-3.76,2.63-4.01,1.15-13.1,2.96-24.58.28-.18-.04-.35-.09-.53-.16-1-.37-4.13-1.75-4.74-4.6,0,0-.17-.89-.36-2.27-.34-2.45-.77-6.45-.47-9.77.27-3.1,2.62-5.63,5.69-6.17,3.95-.68,11.42-1.33,23.62-.09.09,0,.18.02.27.02,1.12.04,9.52.54,9.41,5.73,0,0,.15,5.01-2.27,10.44ZM153.54,115.83c-.1.66-.18,1.05-.18,1.05-.57,2.64-3.29,4.02-4.48,4.5-.3.12-.6.22-.92.29-10.65,2.46-19.22,1.06-23.57-.07-2.19-.57-4.09-1.95-5.31-3.86-.83-1.29-1.47-2.61-1.99-3.89-2.02-5.06-1.89-9.53-1.89-9.53-.1-5.15,8.15-5.68,9.38-5.73.12,0,.24-.01.36-.03,10.5-1.06,17.48-.72,21.74-.17,4.33.56,7.58,4.24,7.61,8.6.03,3.44-.48,7.08-.76,8.83Z"/>
        <g class="cls-22">
          <path class="cls-4" d="M102.32,114.77c-.59,1.32-1.34,2.67-2.27,3.97-.92,1.27-2.25,2.19-3.76,2.63-4.01,1.15-13.1,2.96-24.58.28-.18-.04-.35-.09-.53-.16-1-.37-4.13-1.75-4.74-4.6,0,0-.17-.89-.36-2.27-.34-2.45-.77-6.45-.47-9.77.27-3.1,2.62-5.63,5.69-6.17,3.95-.68,11.42-1.33,23.62-.09.09,0,.18.02.27.02,1.12.04,9.52.54,9.41,5.73,0,0,.15,5.01-2.27,10.44Z"/>
          <path class="cls-3" d="M154.3,107c.03,3.44-.48,7.08-.76,8.83-.1.66-.18,1.05-.18,1.05-.57,2.64-3.29,4.02-4.48,4.5-.3.12-.6.22-.92.29-10.65,2.46-19.22,1.06-23.57-.07-2.19-.57-4.09-1.95-5.31-3.86-.83-1.29-1.47-2.61-1.99-3.89-2.02-5.06-1.89-9.53-1.89-9.53-.1-5.15,8.15-5.68,9.38-5.73.12,0,.24-.01.36-.03,10.5-1.06,17.48-.72,21.74-.17,4.33.56,7.58,4.24,7.61,8.6Z"/>
          <path class="cls-14" d="M102.32,114.77c-.59,1.32-1.34,2.67-2.27,3.97-.92,1.27-2.25,2.19-3.76,2.63-4.01,1.15-13.1,2.96-24.58.28-.18-.04-.35-.09-.53-.16-1-.37-4.13-1.75-4.74-4.6,0,0-.17-.89-.36-2.27,4.81-1.92,11.07-3.08,17.93-3.08s13.46,1.22,18.32,3.24Z"/>
          <path class="cls-13" d="M153.54,115.83c-.1.66-.18,1.05-.18,1.05-.57,2.64-3.29,4.02-4.48,4.5-.3.12-.6.22-.92.29-10.65,2.46-19.22,1.06-23.57-.07-2.19-.57-4.09-1.95-5.31-3.86-.83-1.29-1.47-2.61-1.99-3.89,4.48-1.46,9.95-2.32,15.85-2.32,8.2,0,15.56,1.66,20.59,4.3Z"/>
        </g>
      </g>
    </g>
  </g>
</svg>