<svg xmlns="http://www.w3.org/2000/svg" id="Layer_2" width="80" version="1.1" viewBox="0 0 80 80"><defs><clipPath id="clippath"><path d="M36.68 55.41h8.99v5.31h-8.99z" class="st9"/></clipPath><style>.st0{fill:#452a16}.st5{fill:#fff}.st6{fill:#af8f76}.st7{fill:#a4876f}.st9{fill:none}.st11{fill:#71391e}.st12{fill:#3b3b36}.st13{fill:#b19076}.st15{fill:#ceb495}.st17{fill:#d3b697}.st21{fill:#d7be9a}.st22{fill:#e8d2ae}.st23{fill:#bc9e80}.st25{fill:#282211}</style></defs><g id="RÈteg_1"><path d="M0 0h80v79.96H0z" style="fill:#aa6926"/><path d="M58.28 50.84c-.18-.81-.27-1.26-.29-1.59h-.17c.6-.8 1.06-1.66 1.36-2.55s.03-.09.04-.14c.11-.36.2-.72.26-1.09 1-5.43-1.7-12.5-1.7-12.5.27 1.72.01 3.82-.42 5.8-.34 1.56-.8 3.05-1.19 4.19-.36 1.06-.67 1.83-.77 2.08-1.39 2.94-3.88 5.34-7.01 6.82.21-.57.33-1.22.33-1.92 0-.31-.03-.6-.07-.89.31-.03.61-.08.89-.15.44-.08.85-.23 1.19-.46.72-.47 1.2-1.29 1.27-2.6 0 0-1.85 2.96-4.73.34 0 0-3.31-4.05-6.24-2.43-2.92-1.62-6.23 2.43-6.23 2.43-2.88 2.62-4.73-.34-4.73-.34.05.94.28 1.59.68 2.08l.02.02s.07.07.18.16c.1.09.26.22.49.34h.01c.22.11.51.23.86.32.28.08.67.1 1.14.08-.07.35-.11.71-.11 1.09 0 .69.12 1.35.33 1.92-3.13-1.48-5.62-3.89-7.01-6.82-.1-.25-.41-1.02-.77-2.08-.39-1.14-.84-2.62-1.19-4.19-.43-1.97-.69-4.08-.42-5.8 0 0-2.7 7.08-1.7 12.5.06.37.15.73.26 1.09.02.05.03.1.04.14.3.89.76 1.75 1.36 2.55h-.18c-.02.32-.1.78-.29 1.59-.49 2.21-1.93 2.79-1.93 2.79s2.24-.84 2.78-1.42c.26-.28.95-1.04 1.17-1.28l.02.02c-.13.26-.42 1.08 0 2.66.54 2.07 2.76 3.47 2.76 3.47s-1.33-1.65-.96-3.45c0 0-.08.72 2.09 2.74 2.07 1.92 4.63 3.99 4.97 4.01-.03-.06 1.14-2.04 1.11-2.86 1.58.42 3.23 3.17 4.94 3.17h.6c1.71 0 3.36-2.75 4.94-3.17-.03.82 1.09 3.14 1.06 3.2.33-.03 2.95-2.43 5.02-4.36 2.17-2.01 2.09-2.74 2.09-2.74.37 1.81-.96 3.45-.96 3.45s2.22-1.4 2.76-3.47c.41-1.58.12-2.41 0-2.66 0 0 .02-.01.02-.02.21.24.91 1 1.17 1.28.54.57 2.78 1.42 2.78 1.42s-1.45-.58-1.94-2.79h.01Z" class="st12"/><path d="M41.14 49.96V80H24.92c-.27-.1-.4-.16-.4-.16 0-2.83.31-5.2.82-7.18.18-.7.38-1.36.6-1.97 2.07-5.63 5.85-7.42 7.59-7.95.57-.18.92-.22.92-.22.07 0 .11 0 .18-.02.51-.08.92-.53 1.26-1.23.25-.53.46-1.2.62-1.98.07-.3.12-.61.18-.94.08-.56.15-1.14.22-1.75.03-.37.07-.73.11-1.11.14-1.84.18-3.85.18-5.75 0 0 2.18.23 3.95.23Z" class="st21"/><path d="M57.83 79.84s-.14.06-.38.16H41.14V49.96h.04c1.76 0 3.96-.23 3.96-.23 0 1.89.04 3.87.19 5.71.04.36.08.72.1 1.09.07.63.14 1.23.24 1.78.03.26.08.49.12.72.16.78.35 1.47.59 2.03.29.68.64 1.16 1.08 1.35.14.06.28.09.44.09 0 0 .09.01.25.04.26.06.72.17 1.3.4 1.91.75 5.13 2.71 6.97 7.73.22.61.43 1.27.6 1.97.51 1.98.82 4.35.82 7.18Z" class="st22"/><g style="clip-path:url(#clippath)"><path d="M45.67 58.26c-.41.64-1.78 2.46-4.5 2.46h-.03c-2.58-.01-4.08-1.88-4.46-2.43.08-.55.16-1.13.22-1.73.03-.35.07-.72.11-1.1 1.25.32 2.63.51 4.08.54h.05c1.5-.03 2.89-.24 4.18-.58.04.35.08.72.11 1.08.07.63.14 1.22.24 1.77" style="fill:#b5977b"/></g><path d="M40.95 15.72c-17.19 0-17.28 14.39-16.52 23.82-1.18-2.24-4.67-1.55-4.38 1.97.28 3.39 5.28 5.12 5.14 4.74 2.6 6.97 9.49 12.22 15.77 12.22h.13V15.72h-.13" style="fill:#c7a784"/><path d="M21.15 40.02c.84-1.37 2.16-.77 2.48-.47.34.33.62.75.41 1.55-.12.46-.59.5-.49 1.18.13.77.49.81.7 1 .2.17.45.3.57.63.13.33.14.67.08.97-.13.55-.94.11-1.48-.13-.36-.17-1.49-1.13-1.78-1.44-.71-.81-1.06-2.39-.49-3.29" class="st7"/><path d="M41.05 15.72c17.19 0 17.28 14.39 16.53 23.82 1.18-2.24 4.66-1.55 4.37 1.97-.26 3.39-5.27 5.12-5.14 4.74-2.54 6.97-9.49 12.22-15.77 12.22h-.09l-.04-42.76h.13" class="st17"/><path d="M60.86 40.02c-.84-1.37-2.15-.77-2.48-.47-.34.33-.61.75-.41 1.55.12.46.59.5.49 1.18-.13.77-.49.81-.69 1-.2.17-.46.3-.58.63s-.14.67-.08.97c.13.55.94.11 1.48-.13.37-.17 1.49-1.13 1.78-1.44.73-.81 1.06-2.39.49-3.29" class="st7"/><path d="M40.82 19.78c-5.65 0-9.8 1.64-12.29 4.88-3.5 4.53-3.37 11.45-2.09 16.42.4 1.52.61 5.61.87 7.11 1.23 6.72 8.64 10.29 13.51 10.29h.13v-38.7h-.08" class="st21"/><path d="M53.1 24.67c-2.48-3.22-6.58-4.86-12.15-4.89v38.69c5.57-.07 12.24-3.98 13.38-10.29.28-1.5.48-5.59.87-7.11 1.29-4.95 1.43-11.85-2.1-16.4" class="st22"/><path d="M40.26 50.2c-.08-.01-.15-.03-.21-.04.07.02.14.03.21.04m-.29 1.4s-.1-.02-.13-.03c.04.01.09.02.13.03" class="st9"/><path d="M40.05 51.61s-.05-.01-.08-.02c.03 0 .05.01.08.02m-.21-.05s-.05-.01-.07-.02.03 0 .07.02" class="st13"/><path d="M37.67 46.87c-.06-1.34 2.45-.49 3.28-.45.65.03 2.65-.42 2.82-.3 1.17.79-1.24 2.39-2.86 2.39-.43 0-3.2-.83-3.24-1.64" class="st17"/><path d="M25.54 31.84c-.15.51-.26 1.07-.33 1.67 0 0 .23-.94.73-2.34-.21.3-.36.54-.39.67Z" class="st9"/><path d="m36.15 19.87-.07.07v.02s.05-.07.07-.1Z" style="fill:#43331b"/><path d="M40.32 50.87c-.08-.01-.15-.03-.22-.04.07.02.15.03.22.04m-.31-.06c-.05-.01-.1-.02-.13-.03.04.01.09.02.13.03" class="st9"/><path d="M40.1 50.83s-.06-.01-.08-.02c.03 0 .05.01.08.02m-.22-.05s-.05-.01-.07-.02.03 0 .08.02Z" class="st6"/><path d="M28.62 34.88s1.31 5.39 3.56 5.83 4.69-.43 4.69-.43.23-6.33-.92-7.16-3.81-2.03-7.33 1.77Z" class="st5"/><path d="M36.87 40.26s-.05.02-.17.06c-.03-1.94-.21-4.61-.93-5.12-1.07-.78-3.49-1.89-6.72 1.13-.29-.84-.44-1.47-.44-1.47 3.53-3.81 6.19-2.61 7.33-1.77 1.15.83.92 7.17.92 7.17Z" class="st15"/><circle cx="33.32" cy="37.51" r="2.22" class="st0"/><path d="M33.22 38.99c-.64-.05-1.13-.7-1.07-1.41s.65-1.27 1.29-1.21 1.13.7 1.07 1.41-.65 1.27-1.29 1.22Z" class="st11"/><path d="M33.28 38.74c-.45-.04-.91-.53-.86-1.13s.59-1.01 1.03-.98.91.53.86 1.13-.59 1.01-1.03.97Z" class="st25"/><path d="M32.92 37.25c-.02.22-.24.38-.5.36s-.45-.22-.43-.43c.02-.22.24-.38.5-.36s.45.22.43.43m1.43 1.26c-.01.11-.12.19-.25.18s-.22-.11-.22-.22.12-.19.25-.18.23.11.22.22" class="st5"/><path d="M40.35 51.51c-.08-.01-.15-.03-.22-.04.07.02.15.03.22.04m-.3-.07c-.05-.01-.1-.02-.13-.03.04.01.09.02.13.03" class="st9"/><path d="M40.13 51.46s-.06-.01-.08-.02c.03 0 .05.01.08.02m-.21-.04s-.05-.01-.07-.02.03 0 .08.02Z" class="st6"/><path d="M40.26 51.36c-.09-.02-.17-.03-.23-.05.08.02.15.03.23.05m-.32-.07c-.05-.01-.11-.02-.14-.03.05.01.09.02.14.03" class="st9"/><path d="M40.03 51.31s-.06-.01-.09-.02c.03 0 .06.01.09.02m-.23-.05s-.05-.02-.08-.02.03.01.08.02" class="st13"/><path d="M40.2 51.13c-.09-.02-.17-.03-.24-.05.08.02.16.03.24.05m-.33-.06c-.05-.01-.11-.02-.14-.03.05.01.09.02.14.03" class="st9"/><path d="M39.97 51.09s-.06-.01-.09-.02c.03 0 .06.01.09.02m-.24-.05s-.05-.02-.08-.02.03.01.08.02" class="st13"/><path d="M40.4 51.1c-.08-.01-.16-.03-.23-.04.08.02.15.03.23.04m-.32-.06c-.05-.01-.1-.02-.14-.03.05.01.09.02.14.03" class="st9"/><path d="M40.17 51.05s-.06-.01-.09-.02c.03 0 .05.01.09.02m-.22-.04s-.05-.01-.08-.02.03 0 .08.02" class="st13"/><path d="M53.42 34.7s-1.31 5.39-3.56 5.83-4.69-.43-4.69-.43-.23-6.33.92-7.16 3.81-2.03 7.33 1.77Z" class="st5"/><path d="M45.16 40.07s.05.02.17.06c.03-1.94.21-4.61.93-5.12 1.07-.78 3.49-1.89 6.72 1.13.29-.84.44-1.47.44-1.47-3.53-3.81-6.19-2.61-7.33-1.77-1.15.83-.92 7.17-.92 7.17Z" class="st15"/><path d="M46.5 37.33c0 1.23.99 2.22 2.22 2.22s2.22-.99 2.22-2.22-.99-2.22-2.22-2.22-2.22.99-2.22 2.22" class="st0"/><path d="M48.82 38.81c.64-.05 1.13-.7 1.07-1.41s-.65-1.27-1.29-1.21c-.64.05-1.13.7-1.07 1.41s.65 1.27 1.29 1.22Z" class="st11"/><path d="M48.76 38.55c.45-.04.91-.53.86-1.13s-.59-1.01-1.03-.98-.91.53-.86 1.13.59 1.01 1.03.97Z" class="st25"/><path d="M49.12 37.06c.02.22.24.38.5.36s.45-.22.43-.43c-.02-.22-.24-.38-.5-.36s-.45.22-.43.43m-1.43 1.27c.01.11.12.19.25.18s.22-.11.22-.22-.12-.19-.25-.18-.23.11-.22.22" class="st5"/><path d="M38.22 34.8s-.42-.65-1.26-1.29c-.52-.4-1.04-.71-1.57-.94-.65-.27-1.34-.47-2.02-.56-.61-.07-1.29-.05-2.08.06-.6.11-1.19.3-1.69.51-.36.12-.64.3-.86.43-.09.05-.17.1-.24.14l-1.08.68 1.24-.29c.06-.02.12-.03.19-.05.26-.07.57-.15.95-.21.09-.01.18-.03.27-.05.15-.03.32-.06.49-.07.19-.01.38-.03.58-.04l.26-.02c.69 0 1.27.04 1.78.16.56.1 1.14.28 1.67.52.5.24.98.48 1.36.75.76.51 1.18.93 1.18.93.1.1.24.16.38.16.1 0 .2-.03.29-.09.25-.16.32-.5.16-.74v-.02Zm15.42-1.64c-.07-.04-.15-.09-.24-.14-.22-.14-.51-.31-.85-.43-.51-.22-1.1-.4-1.71-.52-.78-.11-1.46-.12-2.07-.06-.67.09-1.37.28-2.01.56-.52.22-1.05.54-1.57.94-.82.63-1.23 1.24-1.26 1.29-.14.22-.11.51.07.69.1.1.24.16.38.16s.28-.06.38-.16.45-.44 1.18-.94c.37-.27.85-.51 1.35-.75.53-.25 1.11-.43 1.68-.53.51-.12 1.09-.17 1.77-.16l.27.02c.2.01.39.03.58.04.17 0 .33.04.48.07.09.02.18.03.27.05.37.06.69.14.95.21.07.02.13.03.19.05l1.24.29z" style="fill:#171500"/><path d="M39.97 52.14c-.08-.01-.16-.03-.23-.04.08.02.15.03.23.04m-.31-.06c-.05-.01-.1-.02-.14-.03.05.01.09.02.14.03" class="st9"/><path d="M39.74 52.1s-.06-.01-.09-.02c.03 0 .05.01.09.02m-.22-.05s-.05-.01-.08-.02.03.01.08.02" style="fill:#b39176"/><path d="M37.77 53.21c-.06-.87 2.41.18 3.22.21.65.02 2.59-.13 2.78-.2 1.36-.51-.07 1.45-2.82 1.55-1.26.05-3.15-1.04-3.18-1.56" style="fill:#e9d3af"/><path d="M45.83 51.54c-.67-.03-1.36.53-2.17.44-.03-.02-.05-.02-.08-.02-.18-.03-.37 0-.57.05-.25.05-.51.15-.74.24-.4.13-.86.24-1.33.2h-.06c-.47.03-.92-.07-1.33-.2-.24-.08-.49-.18-.74-.24-.2-.05-.38-.08-.57-.05-.03 0-.05 0-.08.02-.81.09-1.5-.47-2.17-.44-.18.02-.45-.03-.61-.03.03.02.07.03.1.05 1.92.93 3.57 2.68 5.4 2.63h.05c1.83.06 3.48-1.7 5.4-2.63.03-.02.07-.03.1-.05-.15 0-.42.05-.61.03Z" style="fill:#d6c09e"/><path d="M46.39 51.49s-1.95-.75-3.33-.31c0 0-.52.2-1.05.32-.33.13-.72.16-1.1.15-.29-.01-.57-.05-.8-.09-.07-.01-.15-.03-.23-.04-.03 0-.06-.01-.09-.02-.05-.01-.09-.02-.14-.03s-.08-.02-.08-.02c-.44-.12-.82-.27-.82-.27-1.38-.44-3.33.31-3.33.31l-.04.02c.15 0 .42.05.61.03.67-.03 1.36.53 2.17.44.03-.02.05-.02.08-.02.18-.03.37 0 .57.05.25.05.51.15.74.24.4.13.86.24 1.33.2h.06c.47.03.92-.07 1.33-.2.24-.08.49-.18.74-.24.2-.05.38-.08.57-.05.03 0 .05 0 .08.02.81.09 1.5-.47 2.17-.44.18.02.45-.03.61-.03l-.04-.02Z" class="st23"/><path d="M37.64 51.95s3.65 1.11 6.48.02l-.33-.22h-3.82l-2.33.19Z" class="st23"/><path d="M55.3 77.47c.03 1.06.07 1.91.1 2.53H27.44c.09-1.38.18-3.92.14-7.34h-2.25c.18-.7.38-1.36.6-1.97 1.92-5.22 5.31-7.14 7.19-7.82v.17c0 3.02 3.6 5.47 8.03 5.47s8.03-2.45 8.03-5.47v-.19c.09.03.19.07.29.11 1.91.75 5.13 2.71 6.97 7.73.22.61.43 1.27.6 1.97H55.3c-.03 1.89-.01 3.51.03 4.82Z" style="fill:#e8b500"/><path d="M45.7 57.54c-2.81.18-3.51-2.1-3.51-2.1-.26-.78-.73-1.02-1.23-1.03h-.02c-.49 0-.97.26-1.23 1.04 0 0-.7 2.28-3.51 2.1 0 0 1.81 2.24 4.74 2.31h.02c2.92-.07 4.74-2.31 4.74-2.31Z" class="st12"/><path d="M65.76 19.25c-.06.15-.18.3-.34.44.22-.26.34-.44.34-.44-.37.23-.72.43-1.06.61-6.39 3.39-8.17-2.56-8.17-2.56.67-5.61 7.52-5.53 7.52-5.53s-5.83-2.8-8.08 2.69c-.3-2.96 1.31-5.83 1.31-5.83-2.6.55-3.69 2.65-4.15 4.44-1.61-3.07.06-5.36.06-5.36l-8.92 3.53c1.16-.92 2.97-2.61 2.97-2.61s-2.77.28-7.04 1.49c-3.01.85-4.8 2.36-5.82 3.05l-.03-2.5s-4.37 2.99-8.51 6.92c-4.13 3.93-5.72 7.62-5.72 11.78s1.85 8.32 3.07 9.55c1.22 1.24.83 3.03 1.19 3.03 0 0 .88.03.75-4.06.48-4.65 2.63-6.51 3.83-7.19 2.11-1.11 5.3-1.31 10.07 1.1 2.94 1.7 4.13-.56 8.28-1.71 7.09-1.95 10.03 3.16 9.44 5.8-.91 4.06.36 6.4.84 6.29 0 0 .02-1.03.46-1.95 1.31-2.74 2.41-.84 2.61-4.55.24-4.35 1-5.94.76-8.26-.14-1.31-.61-2.87-.99-3.97 4.76-.08 5.31-4.2 5.31-4.2Z" style="fill:#1a1a1a"/><path d="M49.17 63.04c0 3.02-3.6 5.47-8.03 5.47s-8.03-2.45-8.03-5.47v-.17c.14-.06.28-.1.41-.14.57-.18.92-.22.92-.22.07 0 .11 0 .18-.02 1.23 1.66 3.52 4.04 6.52 4.1.67.02 1.36-.08 2.09-.32 1.51-.51 3.16-1.65 4.91-3.71.22.05.57.13 1.02.29v.19Z" style="fill:#ca7b15"/></g></svg>