<?xml version="1.0" encoding="UTF-8"?>
<svg id="Layer_2" xmlns="http://www.w3.org/2000/svg" version="1.1" xmlns:xlink="http://www.w3.org/1999/xlink" viewBox="0 0 80 80">
  <!-- Generator: Adobe Illustrator 30.2.1, SVG Export Plug-In . SVG Version: 2.1.1 Build 1)  -->
  <defs>
    <style>
      .st0 {
        fill: #a09d9b;
      }

      .st1 {
        fill: #b5957e;
      }

      .st2 {
        fill: #b8987d;
      }

      .st3 {
        fill: #714223;
      }

      .st4 {
        fill: #ccad8a;
      }

      .st5 {
        fill: #d7bd9d;
      }

      .st6 {
        fill: #fff;
      }

      .st7 {
        fill: #272213;
      }

      .st8 {
        fill: #b7967d;
      }

      .st9 {
        fill: none;
      }

      .st10 {
        fill: #bcd3aa;
      }

      .st10, .st11, .st12 {
        isolation: isolate;
        opacity: .49;
      }

      .st13 {
        fill: #d2bb9b;
      }

      .st14 {
        fill: #ba9d82;
      }

      .st15 {
        fill: #d3897e;
      }

      .st16 {
        fill: #dcc5a0;
      }

      .st17 {
        fill: #d6bb9c;
      }

      .st11 {
        fill: url(#linear-gradient);
      }

      .st18 {
        fill: #44361f;
      }

      .st19 {
        fill: #5a413a;
      }

      .st20 {
        fill: #a98d76;
      }

      .st21 {
        fill: #462e1b;
      }

      .st22 {
        fill: #c01f13;
      }

      .st23 {
        clip-path: url(#clippath);
      }

      .st12 {
        fill: url(#linear-gradient1);
      }

      .st24 {
        fill: #787374;
        fill-rule: evenodd;
      }

      .st25 {
        fill: #ebd9b5;
      }
    </style>
    <clipPath id="clippath">
      <rect class="st9" x="36.9" y="55.47" width="9.07" height="5.3"/>
    </clipPath>
    <linearGradient id="linear-gradient" x1="782.82" y1="-95.16" x2="782.82" y2="-45.74" gradientTransform="translate(-251.68 12.52) scale(.36 -.36)" gradientUnits="userSpaceOnUse">
      <stop offset="0" stop-color="#fff"/>
      <stop offset="1" stop-color="#9cb18b"/>
    </linearGradient>
    <linearGradient id="linear-gradient1" x1="838.24" y1="-95.16" x2="838.24" y2="-45.74" gradientTransform="translate(-251.68 12.52) scale(.36 -.36)" gradientUnits="userSpaceOnUse">
      <stop offset="0" stop-color="#fff"/>
      <stop offset="1" stop-color="#9cb18b"/>
    </linearGradient>
  </defs>
  <g id="Layer_1-2">
    <path class="st19" d="M0,0h80v80H0V0Z"/>
    <path class="st16" d="M41.4,50.03v29.97h-16.37c-.27-.1-.4-.16-.4-.16,0-3.82.57-6.81,1.43-9.13,2.08-5.61,5.89-7.4,7.65-7.93.57-.18.93-.22.93-.22.06,0,.12,0,.18-.01.52-.08.94-.53,1.27-1.23.25-.53.46-1.19.63-1.97.07-.3.12-.61.17-.94.08-.55.16-1.13.23-1.74.03-.37.07-.73.1-1.11.14-1.83.19-3.84.19-5.74,0,0,2.2.23,3.98.23h0Z"/>
    <path class="st25" d="M58.23,79.84s-.15.05-.39.16h-16.45v-29.97h.04c1.77,0,3.99-.23,3.99-.23,0,1.89.04,3.87.18,5.7.04.36.08.73.1,1.08.07.63.15,1.23.24,1.78h0c.03.26.08.49.12.72.16.78.36,1.47.59,2.01.29.68.65,1.16,1.09,1.35.14.06.29.09.44.09,0,0,.63.08,1.57.44,1.93.75,5.16,2.71,7.02,7.71.86,2.33,1.43,5.31,1.43,9.13h0Z"/>
    <g class="st23">
      <path class="st14" d="M45.97,58.31h0c-.41.64-1.8,2.45-4.54,2.45h-.03c-2.6-.01-4.11-1.87-4.5-2.43.08-.55.16-1.13.23-1.73.03-.35.07-.72.1-1.1,1.26.31,2.65.51,4.11.54h.05c1.52-.03,2.91-.24,4.22-.58.04.35.08.72.1,1.07.07.63.15,1.22.24,1.77"/>
    </g>
    <path class="st4" d="M41.22,15.88c-17.34,0-17.43,14.35-16.66,23.75-1.18-2.23-4.71-1.55-4.42,1.97.28,3.38,5.32,5.11,5.18,4.73,2.63,6.95,9.58,12.19,15.9,12.19h.13V15.88h-.13Z"/>
    <path class="st20" d="M21.24,40.12c.85-1.36,2.19-.77,2.5-.47.35.33.62.75.41,1.55-.12.46-.6.5-.49,1.18.13.77.49.81.7.99.2.17.45.3.57.63.13.33.15.67.08.97-.13.55-.95.1-1.49-.13-.36-.17-1.51-1.13-1.8-1.44-.72-.81-1.07-2.39-.49-3.28"/>
    <path class="st5" d="M41.31,15.88c17.34,0,17.43,14.35,16.67,23.75,1.18-2.23,4.7-1.55,4.41,1.97-.27,3.38-5.32,5.11-5.18,4.73-2.56,6.95-9.58,12.19-15.9,12.19h-.09l-.04-42.64h.13"/>
    <path class="st20" d="M61.28,40.12c-.85-1.36-2.17-.77-2.5-.47-.35.33-.61.75-.41,1.55.12.46.6.5.49,1.18-.13.77-.49.81-.69.99-.2.17-.47.3-.59.63s-.15.67-.08.97c.13.55.95.1,1.49-.13.37-.17,1.51-1.13,1.8-1.44.73-.81,1.07-2.39.49-3.28"/>
    <path class="st16" d="M41.08,19.93c-5.7,0-9.88,1.64-12.4,4.86-3.53,4.52-3.4,11.42-2.1,16.37.4,1.52.61,5.6.88,7.09,1.24,6.7,8.71,10.26,13.62,10.26h.13V19.93h-.08"/>
    <path class="st25" d="M53.46,24.81c-2.5-3.21-6.63-4.85-12.25-4.88v38.59c5.62-.06,12.34-3.97,13.49-10.26.28-1.5.48-5.57.88-7.09,1.3-4.94,1.44-11.82-2.12-16.36"/>
    <path class="st9" d="M40.52,51.72c-.08-.01-.15-.03-.21-.04.07.01.14.03.21.04M40.22,51.67c-.05-.01-.1-.02-.13-.03.04.01.09.02.13.03"/>
    <path class="st8" d="M40.3,51.68s-.05-.01-.08-.02c.03,0,.05.01.08.02M40.09,51.64s-.05-.01-.07-.02.03,0,.08.02h0Z"/>
    <path class="st9" d="M25.67,31.96c-.16.51-.26,1.07-.34,1.67,0,0,.23-.94.73-2.33-.22.3-.36.54-.4.67"/>
    <path class="st18" d="M36.37,20.03l-.07.07v.03s.05-.07.07-.1"/>
    <path class="st9" d="M40.57,50.94c-.08-.01-.16-.03-.22-.04.08.01.15.03.22.04M40.27,50.88c-.05-.01-.1-.02-.13-.03.04.01.09.02.13.03"/>
    <path class="st1" d="M40.35,50.9s-.05-.01-.08-.02c.03,0,.05.01.08.02M40.13,50.85l-.08-.02s.03,0,.08.02"/>
    <path class="st17" d="M37.83,46.27c-.07-1.37,2.54-.5,3.4-.46.68.04,2.75-.43,2.92-.31,1.22.81-1.29,2.45-2.97,2.45-.45,0-3.32-.85-3.36-1.68"/>
    <path class="st6" d="M28.78,34.99s1.32,5.37,3.59,5.81,4.73-.43,4.73-.43c0,0,.23-6.31-.93-7.14-1.16-.83-3.84-2.03-7.39,1.76"/>
    <path class="st13" d="M37.1,40.36s-.05.01-.17.06c-.03-1.94-.21-4.6-.94-5.11-1.08-.78-3.52-1.89-6.77,1.13-.3-.83-.44-1.46-.44-1.46,3.56-3.8,6.24-2.6,7.39-1.77,1.16.83.93,7.15.93,7.15h0Z"/>
    <ellipse class="st21" cx="33.52" cy="37.62" rx="2.24" ry="2.21"/>
    <path class="st3" d="M33.42,39.09c-.65-.05-1.14-.7-1.08-1.41s.65-1.26,1.3-1.21,1.14.7,1.08,1.41-.65,1.27-1.3,1.21h0Z"/>
    <path class="st7" d="M33.47,38.84c-.45-.04-.91-.53-.87-1.13.05-.6.59-1.01,1.04-.97.45.04.91.53.86,1.13s-.59,1.01-1.04.97h0Z"/>
    <path class="st6" d="M33.11,37.36c-.02.22-.25.38-.5.35-.26-.02-.46-.21-.44-.43s.24-.38.5-.36c.26.02.46.21.44.43h0ZM34.56,38.61c-.01.11-.12.19-.25.18-.13-.01-.23-.11-.22-.21.01-.11.12-.19.25-.18.13.01.23.11.22.21"/>
    <path class="st9" d="M40.61,51.57c-.08-.01-.16-.03-.22-.04.08.01.15.03.22.04M40.3,51.52c-.05-.01-.1-.02-.13-.03.04.01.09.02.13.03"/>
    <path class="st1" d="M40.39,51.53s-.05-.01-.08-.02c.03,0,.05.01.08.02M40.17,51.48l-.08-.02s.03,0,.08.02"/>
    <path class="st9" d="M40.52,51.43c-.09-.01-.17-.03-.23-.04.08.02.16.03.23.04M40.2,51.36c-.05-.01-.11-.03-.14-.03.05.01.09.02.14.03"/>
    <path class="st8" d="M40.29,51.38s-.06-.01-.09-.02c.03,0,.05.01.09.02M40.05,51.33s-.05-.01-.08-.02.03.01.08.02h0Z"/>
    <path class="st9" d="M40.46,51.2c-.09-.01-.17-.03-.23-.04.08.02.16.03.23.04M40.13,51.14c-.05-.01-.11-.03-.14-.03.05.01.09.02.14.03"/>
    <path class="st8" d="M40.22,51.16s-.06-.01-.09-.02c.03,0,.05.01.09.02M39.99,51.11s-.05-.01-.08-.02.03.01.08.02h0Z"/>
    <path class="st9" d="M40.65,51.17c-.08-.01-.16-.03-.23-.04.08.02.15.03.23.04M40.34,51.11c-.05-.01-.1-.02-.14-.03.05.01.09.02.14.03"/>
    <path class="st8" d="M40.43,51.13s-.06-.01-.09-.02c.03,0,.05.01.09.02M40.2,51.08l-.08-.02s.03.01.08.02h0Z"/>
    <path class="st6" d="M53.79,34.81s-1.32,5.37-3.59,5.81-4.73-.43-4.73-.43c0,0-.23-6.31.93-7.14,1.16-.83,3.84-2.03,7.39,1.76"/>
    <path class="st13" d="M45.46,40.18s.05.01.17.06c.03-1.94.21-4.6.94-5.11,1.08-.78,3.52-1.89,6.77,1.13.3-.83.44-1.46.44-1.46-3.56-3.8-6.24-2.6-7.39-1.77-1.16.83-.93,7.15-.93,7.15h0Z"/>
    <path class="st21" d="M46.81,37.44c0,1.22,1,2.21,2.24,2.21s2.24-.99,2.24-2.21-1-2.21-2.24-2.21-2.24.99-2.24,2.21"/>
    <path class="st3" d="M49.15,38.91c.65-.05,1.14-.7,1.08-1.41s-.65-1.26-1.3-1.21-1.14.7-1.08,1.41.65,1.27,1.3,1.21h0Z"/>
    <path class="st7" d="M49.09,38.65c.45-.04.91-.53.87-1.13-.05-.6-.59-1.01-1.04-.97-.45.04-.91.53-.86,1.13s.59,1.01,1.04.97h0Z"/>
    <path class="st6" d="M49.45,37.17c.02.22.25.38.5.35.26-.02.46-.21.44-.43s-.24-.38-.5-.36c-.26.02-.46.21-.44.43h0ZM48,38.43c.01.11.12.19.25.18.13-.01.23-.11.22-.21-.01-.11-.12-.19-.25-.18-.13.01-.23.11-.22.21"/>
    <path d="M38.46,34.91s-.43-.65-1.27-1.29c-.53-.4-1.04-.7-1.58-.93-.65-.27-1.35-.47-2.03-.55-.61-.07-1.3-.05-2.09.06-.61.11-1.2.29-1.7.51-.36.12-.64.29-.87.43-.09.05-.17.1-.25.14l-1.08.68,1.25-.29c.06-.01.12-.03.19-.05.26-.07.58-.15.96-.21.09-.01.18-.03.27-.05.16-.03.32-.06.49-.07.19-.01.39-.03.59-.04l.26-.02c.69,0,1.28.04,1.8.16.57.1,1.15.28,1.69.52.51.24.99.48,1.37.75.76.5,1.19.93,1.19.93.1.1.25.16.39.16.1,0,.21-.03.3-.09.25-.16.32-.5.16-.74v-.02s-.01,0-.01,0ZM54.01,33.27c-.07-.04-.15-.09-.24-.14-.23-.14-.51-.31-.86-.43-.51-.23-1.11-.4-1.72-.52-.79-.1-1.47-.12-2.09-.05-.68.09-1.38.28-2.03.55-.53.23-1.06.54-1.58.93-.83.63-1.24,1.24-1.27,1.28h0c-.14.23-.11.51.07.69.1.1.24.16.39.16s.28-.06.38-.16h0s.45-.44,1.19-.93c.37-.27.86-.51,1.36-.75.54-.25,1.12-.43,1.7-.53.51-.12,1.1-.17,1.78-.16l.27.02c.2.01.39.03.59.04.17,0,.33.04.49.07.09.02.18.04.27.05.38.05.7.14.96.21.07.02.13.04.19.05l1.25.29-1.09-.68h0Z"/>
    <path class="st9" d="M39.8,53.45c-.08-.01-.16-.03-.22-.04.08.01.14.03.22.04M39.5,53.39c-.05-.01-.1-.02-.13-.03.04.01.09.02.13.03"/>
    <path class="st2" d="M39.58,53.41s-.05-.01-.08-.02c.03,0,.05.01.08.02M39.37,53.36l-.08-.02s.03,0,.08.02"/>
    <path class="st9" d="M39.74,53.24c-.08-.01-.16-.03-.22-.04l.22.04ZM39.44,53.18c-.05-.01-.1-.02-.13-.03.04.01.09.02.13.03"/>
    <path class="st2" d="M39.52,53.2s-.05-.01-.08-.02c.03,0,.05.01.08.02M39.31,53.16l-.08-.02s.03,0,.08.02"/>
    <path class="st9" d="M39.93,53.21c-.08-.01-.15-.03-.21-.04.07.01.14.03.21.04M39.64,53.16s-.1-.02-.13-.03c.04.01.08.02.13.03"/>
    <path class="st2" d="M39.71,53.17s-.05-.01-.08-.02c.03,0,.05.01.08.02M39.51,53.13s-.05-.01-.07-.02.03,0,.08.02h0Z"/>
    <path class="st15" d="M54.46,78.28c.02.49.02,1.01.02,1.53,0,0-.1.05-.3.19h-25.44c-.21-.14-.31-.19-.31-.19,0-.53,0-1.04.02-1.53.01-.52.03-1.03.06-1.52.04-.86.12-1.67.2-2.45.05-.53.12-1.03.2-1.52.11-.74.25-1.43.39-2.08h-3.23c.05-.13.09-.25.14-.37.22-.54.45-1.05.69-1.52,2.15-4.14,5.28-5.56,6.81-6.04,0,.05,0,.11,0,.16,0,2.57,3.41,4.66,7.69,4.77.12,0,.23,0,.35,0,4.4,0,7.97-2.11,8.02-4.72,1.66.64,4.3,2.19,6.19,5.82.25.47.48.98.69,1.52.05.12.1.25.14.37h-3.19c.14.65.28,1.35.39,2.08.01.06.02.13.03.19.07.43.12.87.17,1.33.08.77.16,1.59.2,2.45.02.43.04.87.05,1.32,0,.06,0,.14,0,.2h0Z"/>
    <path class="st6" d="M60.76,22.82c-.05-.18-.1-.36-.15-.53,2.73-.43,4.26-2.79,4.26-2.79,0,0-.84,1.11-3.52.78,2.8-.44,4.36-3.11,4.36-3.11,0,0-1.24,1.81-5.51.4-4.17-1.38-4.06-5.86-10.06-8.36-3.07-1.28-4.9-1.11-5.96-.65,1.08-.88,3.28-.81,3.28-.81,0,0-2.73-1.5-6.94-.15-2.96.94-4.74,2.02-5.73,2.79l1.66-1.58s-1.18.42-2.84,1.26c1.13-2.19,3.23-4.6,3.23-4.6-5.34,1.99-9.76,9.13-9.76,9.13.42-2.69,1.36-5.16,1.36-5.16-6.6,4.9-7.68,12.65-7.77,16.57-.3,1.18-.44,2.38-.44,3.62,0,4.16,1.81,8.33,3.01,9.57s.81,3.03,1.16,3.03c0,0,.17,0,.35-.35.04.35.08.58.2.58,0,0,.72.03.75-3.46.09-1.18.46-3.07,1.99-2.5.08.04.17.08.25.11l.04.02c7.67,3.06,11.59-4.69,11.59-4.69,0,0,.66-1.38,1.66-2.96.9-1.41,2.07-2.98,3.31-3.84.77-.54,1.78-.94,3.01-1.33,6.99-2.17,9.89,8.97,9.3,11.91-.56,2.84-.28,4.92.13,6.05.24.67.53,1.01.71.96,0,0,.02-1.15.45-2.18,1.29-3.05,2.37-.93,2.57-5.07.16-3.32.56-5.2.72-6.88,1.02.82,2.55,1.39,4.83,1.44,0,0-3.23-1-5.5-7.22h.01Z"/>
    <path class="st11" d="M37.59,41.06c-.04.16-.09.31-.14.47-5.03-2.63-9.48-1.27-12.45.46-.92-2.14-.66-4.27-.66-4.27,1.17-5.53,9.39-3.47,9.39-3.47,5.65,2.03,3.87,6.82,3.87,6.82"/>
    <path class="st12" d="M57.38,41.43c-3.15-1.54-7.56-2.37-12.45.69-.13-.33-.25-.68-.35-1.06,0,0-1.79-4.79,3.86-6.82,0,0,8.22-2.06,9.39,3.47,0,0,.21,1.78-.45,3.72"/>
    <path class="st10" d="M57.38,41.43c-.69,2.03-2.34,4.24-6.19,4.77-.23.03-.48.04-.72.03-1.1-.09-4.15-.65-5.55-4.11,4.89-3.06,9.3-2.23,12.45-.69M37.45,41.52c-1.27,3.99-4.6,4.61-5.76,4.7-.24.02-.48.01-.72-.03-3.5-.48-5.18-2.35-5.98-4.21,2.97-1.74,7.42-3.09,12.45-.46"/>
    <path class="st22" d="M55.24,33.21c-2.99-1.17-13.73-1.31-14.15-1.32s0,0,0,0h0c-.41,0-11.15.15-14.15,1.32,0,0-4.58,2.03-5.49,2.32v2.22s1.27.29,1.56,2.03c0,0,.88,5.57,6.06,7.1,1.29.38,2.65.38,3.95.02,2.37-.65,6.12-2.51,6.24-7.82.01-.49-.14-.96-.4-1.37-.42-.66-.69-1.74,2.23-1.6s0,0,0,0h0c2.92-.13,2.65.94,2.23,1.6-.26.41-.42.88-.4,1.37.13,5.31,3.88,7.17,6.24,7.82,1.29.35,2.66.36,3.95-.02,5.18-1.53,6.06-7.1,6.06-7.1.29-1.74,1.56-2.03,1.56-2.03v-2.22c-.91-.29-5.49-2.32-5.49-2.32M57.84,37.71s.21,1.78-.45,3.72c-.09.25-.19.51-.31.77h0c-.03.07-.06.13-.09.19,0,0,0,.01-.01.02-.03.05-.06.11-.09.16,0,.01-.01.02-.02.03-.03.05-.05.1-.08.15,0,.01-.02.03-.03.04-.03.05-.05.09-.08.14l-.03.05s-.05.09-.08.13c-.01.02-.03.04-.04.06-.03.04-.06.08-.09.12-.01.02-.03.04-.05.06-.03.04-.06.08-.09.11-.02.02-.03.04-.05.07-.03.04-.06.08-.09.11-.02.02-.04.05-.06.07-.03.04-.06.07-.09.1-.02.03-.04.05-.07.07-.03.03-.06.07-.09.1-.02.03-.05.05-.07.07l-.1.1-.07.07s-.07.06-.1.09c-.03.03-.05.05-.08.07-.04.03-.07.06-.1.09-.03.02-.05.05-.08.07-.04.03-.07.06-.11.09-.03.02-.06.05-.09.07-.04.03-.08.06-.12.09-.03.02-.06.04-.09.06-.04.03-.08.05-.12.08-.03.02-.06.04-.09.06-.04.03-.09.05-.13.08-.03.02-.06.04-.09.06-.05.03-.09.05-.14.08-.03.02-.06.04-.09.05-.05.03-.1.05-.15.08-.03.01-.06.03-.09.05-.05.03-.11.05-.17.08-.03.01-.06.03-.09.04-.06.03-.12.05-.18.08-.03.01-.05.03-.08.04-.07.03-.14.05-.21.08-.03.01-.05.02-.07.03-.08.03-.16.05-.23.08-.02,0-.04.01-.05.02-.09.03-.18.05-.27.08-.01,0-.02,0-.03,0-.42.11-.86.21-1.34.27-.05,0-.1.01-.16.02-.18.02-.35.02-.53,0h-.03s-.03,0-.05,0c-.02,0-.04,0-.06,0-.01,0-.03,0-.04,0-.03,0-.06,0-.09-.01-.01,0-.03,0-.04,0-.03,0-.06,0-.09-.01-.01,0-.03,0-.05,0-.03,0-.07-.01-.1-.01-.02,0-.04,0-.05,0-.04,0-.07-.01-.11-.02-.02,0-.04,0-.06-.01-.04,0-.07-.01-.11-.02-.02,0-.04,0-.06-.01-.04,0-.08-.02-.12-.03-.02,0-.04-.01-.07-.01-.04-.01-.08-.02-.12-.03-.02,0-.04-.01-.07-.02-.04-.01-.09-.03-.13-.04-.02,0-.04-.01-.06-.02-.05-.01-.1-.03-.15-.05-.01,0-.03-.01-.05-.01-.07-.02-.13-.05-.2-.07-.01,0-.03-.01-.05-.02-.05-.02-.1-.04-.16-.06-.03-.01-.05-.03-.08-.04-.04-.02-.08-.04-.12-.05-.03-.01-.06-.03-.09-.04-.04-.02-.08-.04-.12-.06-.03-.02-.07-.03-.1-.05-.04-.02-.08-.04-.11-.06-.03-.02-.07-.04-.1-.06-.04-.02-.07-.04-.11-.06-.03-.02-.07-.04-.1-.06-.04-.02-.07-.05-.11-.07-.03-.02-.07-.05-.1-.07-.04-.03-.07-.05-.11-.08-.03-.03-.07-.05-.1-.08-.04-.03-.08-.06-.11-.09-.03-.03-.07-.05-.1-.08-.04-.03-.08-.07-.12-.1l-.09-.08c-.05-.05-.1-.09-.15-.14-.02-.02-.04-.03-.05-.05-.07-.06-.13-.13-.2-.2-.02-.02-.04-.04-.06-.07-.05-.05-.09-.1-.14-.15-.02-.03-.04-.05-.07-.08-.04-.05-.08-.1-.12-.15-.02-.03-.04-.06-.07-.09-.04-.05-.08-.11-.12-.16l-.07-.1c-.04-.06-.08-.12-.11-.18-.02-.03-.04-.06-.06-.1-.04-.06-.08-.13-.11-.2-.02-.03-.04-.06-.05-.1-.04-.07-.08-.15-.11-.22-.01-.03-.03-.06-.04-.09-.04-.08-.08-.17-.12-.26-.01-.02-.02-.05-.03-.07-.14-.34-.27-.72-.38-1.12,0,0-1.79-4.79,3.86-6.82,0,0,8.22-2.06,9.39,3.47v-.02ZM24.33,37.71c1.17-5.53,9.39-3.47,9.39-3.47,5.65,2.03,3.86,6.82,3.86,6.82-.05.19-.1.37-.16.55-.03.09-.06.19-.09.28-.01.03-.02.05-.03.07l-.11.28s-.01.02-.01.04c-.18.43-.4.82-.62,1.16-.05.07-.09.13-.14.2-.01.02-.03.04-.05.06-.04.06-.09.11-.13.16-.02.03-.04.05-.07.08-.04.05-.08.1-.12.14l-.08.09s-.08.09-.12.13c-.03.03-.05.06-.08.09-.04.04-.08.08-.12.11-.03.03-.06.06-.09.08-.04.04-.08.07-.12.1-.03.03-.06.05-.09.08-.04.03-.08.06-.12.09l-.1.08s-.08.06-.12.09c-.03.03-.07.05-.1.07-.04.03-.08.05-.12.08-.03.02-.07.04-.1.06-.04.03-.08.05-.12.07-.04.02-.07.04-.1.06-.04.02-.08.04-.11.06-.04.02-.07.04-.1.06s-.07.04-.11.06c-.04.02-.07.04-.1.05-.04.02-.07.04-.11.05s-.07.03-.1.05-.07.03-.1.05c-.04.01-.07.03-.1.04s-.07.03-.1.04c-.04.01-.07.03-.1.04-.03.01-.07.03-.1.04-.04.01-.07.02-.1.03-.03.01-.07.02-.09.03-.04.01-.07.02-.1.03-.03,0-.06.02-.09.03-.03.01-.07.02-.1.03-.03,0-.06.01-.09.02-.03,0-.06.01-.09.02-.03,0-.06.01-.08.02-.03,0-.06.01-.09.02s-.05.01-.08.02c-.03,0-.05.01-.08.01-.03,0-.05.01-.08.01s-.05,0-.07.01-.05,0-.08.01c-.02,0-.04,0-.06,0h-.09s-.02.01-.02.01c-.08.01-.16.02-.22.02h-.04c-.17.01-.35,0-.52,0-.05,0-.1-.01-.16-.02-.2-.03-.39-.06-.58-.1h-.07c-.07-.03-.14-.04-.22-.06-.03,0-.07-.01-.09-.02-.07-.01-.13-.03-.2-.05-.04-.01-.07-.02-.1-.03-.06-.02-.12-.03-.18-.05l-.11-.03c-.06-.02-.11-.04-.17-.05-.04-.01-.08-.03-.11-.04-.05-.02-.1-.04-.16-.06-.04-.01-.08-.03-.11-.04-.05-.02-.1-.04-.15-.06-.04-.01-.08-.03-.11-.05-.05-.02-.09-.04-.14-.06-.04-.02-.08-.03-.11-.05-.04-.02-.09-.04-.13-.06-.04-.02-.08-.04-.11-.06-.04-.02-.08-.04-.12-.06s-.08-.04-.11-.06c-.04-.02-.08-.04-.11-.06-.04-.03-.08-.05-.12-.07-.03-.02-.07-.04-.1-.06-.05-.03-.1-.06-.15-.1-.02-.01-.04-.03-.05-.04-.07-.05-.13-.09-.2-.14-.01,0-.02-.02-.03-.03-.05-.04-.11-.08-.16-.12-.02-.01-.03-.03-.05-.04-.04-.04-.09-.07-.13-.11-.02-.01-.04-.03-.05-.05-.04-.04-.08-.07-.12-.11-.02-.01-.03-.03-.05-.05-.04-.04-.08-.08-.12-.11-.01-.01-.03-.03-.05-.05-.04-.04-.08-.08-.11-.11-.01-.01-.03-.03-.04-.05-.04-.04-.07-.08-.11-.12-.01-.01-.03-.03-.04-.05-.04-.04-.07-.09-.1-.13-.01-.01-.02-.03-.04-.04-.04-.04-.07-.09-.1-.14-.01-.01-.02-.03-.03-.04-.04-.05-.07-.1-.1-.15,0-.01-.01-.02-.02-.03-.04-.05-.07-.11-.11-.16,0,0,0-.01-.01-.02-.2-.3-.36-.61-.5-.92,0-.01-.01-.02-.01-.03-.98-2.18-.72-4.39-.72-4.39h0ZM41.09,34.49h-.01c-.18,0-2.2.05-2.97.42,0,0-.62.32-1.79-.71,0,0-.94-.55-1.5-.7-.25-.07-.23-.43.03-.47.12-.02.29-.03.5-.01h11.48c.21-.01.38,0,.5.01.26.04.28.4.03.47-.56.15-1.5.7-1.5.7-1.17,1.03-1.79.71-1.79.71-.78-.37-2.8-.42-2.97-.42h0Z"/>
    <path class="st24" d="M40.97,49.62c1.67-3.72,6.55-1.29,9.41-.38.61,0,.19-1.08.56-1.33,2.82,7.34-7.3,9.11-9.97,4.38-2.59,4.15-11.93,3.22-9.97-4.38.75.05.14,1.5.92,1.52,2.61-1.36,7.29-3.19,9.04.19"/>
    <path class="st24" d="M31.93,49.43c-.78-.02-.18-1.47-.92-1.52-1.97,7.6,7.37,8.53,9.97,4.38,2.67,4.73,12.79,2.96,9.97-4.38-.37.26.06,1.33-.56,1.33-2.86-.91-7.74-3.34-9.41.38-1.76-3.38-6.43-1.55-9.04-.19"/>
    <path class="st0" d="M37.14,56.73c.02,1.46.74,2.65,1.61,2.65h4.98c.89,0,1.61-1.23,1.61-2.73h0c-1.08.61-2.55.99-4.16.99s-2.95-.35-4.03-.92h0Z"/>
  </g>
</svg>