<?xml version="1.0" encoding="UTF-8"?>
<svg id="Layer_2" xmlns="http://www.w3.org/2000/svg" version="1.1" viewBox="0 0 80 80">
  <!-- Generator: Adobe Illustrator 30.2.1, SVG Export Plug-In . SVG Version: 2.1.1 Build 1)  -->
  <defs>
    <style>
      .st0 {
        fill: #212625;
      }

      .st1 {
        fill: #f1d4c8;
      }

      .st2 {
        fill: #633031;
      }

      .st3 {
        fill: #fff;
      }

      .st4 {
        fill: #9abc30;
      }

      .st5 {
        fill: none;
      }

      .st6 {
        fill: #b59376;
      }

      .st7 {
        fill: #d0665f;
      }

      .st8 {
        fill: #c6a095;
      }

      .st9 {
        fill: #42883a;
      }

      .st10 {
        fill: #502c24;
        opacity: .2;
      }

      .st10, .st11 {
        isolation: isolate;
      }

      .st12 {
        fill: #debaad;
      }

      .st13 {
        fill: #f0d4c7;
      }

      .st14 {
        fill: #dcb9ac;
      }

      .st11 {
        fill: #48443b;
        opacity: .3;
      }

      .st15 {
        fill: #2e6134;
      }

      .st16 {
        fill: #8061a0;
      }
    </style>
  </defs>
  <g id="Layer_1-2">
    <path class="st7" d="M0,0h80v79.99H0V0Z"/>
    <path class="st13" d="M40.82,70.09c2.72,0,5.16-1.23,6.84-3.16.85-.98,1.5-2.16,1.9-3.45-.02-.03-.05-.04-.07-.06,0-.01,0-.02-.01-.04-.09-.35-1.15-1.88-1.51-3.56s-.01-.02-.01-.04c0,0-.01,0-.01-.01-.04-.17-.07-.34-.1-.51s-.03-.32-.04-.51c-.03-.85-.05-1.67-.08-2.33,0-.21-.01-.42-.01-.6,0-.04-.01-.09,0-.12v-.14s-.01-.04,0-.06c-.01-.1-.01-.19-.01-.26-.01-.15-.01-.24-.01-.24,0,0,5.73-4.29,5.73-5.22,0,0-6.22.95-10.11,1.37h-.01s-.1.01-.15.01c-.63.07-1.2.14-1.65.16-.01,0-.04,0-.04.01-.2.01-.4.01-.54.03-.06.01-.12,0-.19,0-.11.01-.21.01-.32-.01-.14,0-.3-.01-.48-.03-.27-.02-.58-.05-.92-.07-.07-.01-.11-.01-.12-.01-.22-.03-.47-.06-.73-.09-.08-.01-.15-.01-.22-.03-3.9-.43-9.92-1.35-9.92-1.35,0,.93,5.75,5.22,5.75,5.22,0,0,0,.09-.01.24,0,.14,0,.32-.01.56v.07c0,.09-.01.17-.01.27-.01.09-.01.19-.01.29,0,.24-.01.49-.02.77,0,.48-.03,1.02-.04,1.56-.03.33-.06.67-.15,1.01-.01.02-.03.04-.04.06-.33,1.47-1.18,2.82-1.42,3.36.38,1.4,1.06,2.67,1.98,3.72,1.67,1.94,4.11,3.16,6.84,3.16l-.03.02Z"/>
    <path class="st1" d="M52.44,40.11c.02-2.2,1.4-4.13,3.48-5.23-.04.55-.08,1.09-.13,1.61,1.3-2.4,5.07-1.62,4.74,2.19-.33,3.67-5.69,5.53-5.62,5.1-.05.29-.12.58-.19.86-1.41-1.16-2.28-2.76-2.27-4.53"/>
    <path class="st12" d="M59.35,37.04c-.91-1.48-2.33-.86-2.69-.54-.38.34-.67.81-.45,1.68.12.49.64.54.51,1.28-.14.83-.54.89-.75,1.07-.22.18-.5.32-.64.69-.13.35-.16.73-.09,1.04.14.61,1.02.13,1.61-.13.39-.17,1.63-1.21,1.95-1.55.79-.88,1.17-2.58.56-3.57"/>
    <path class="st1" d="M28.68,40.11c-.02-2.2-1.4-4.13-3.48-5.23.04.55.08,1.09.13,1.61-1.3-2.4-5.07-1.62-4.74,2.19.33,3.67,5.69,5.53,5.62,5.1.06.29.12.58.19.86,1.41-1.16,2.28-2.76,2.27-4.53"/>
    <path class="st12" d="M21.77,37.04c.91-1.48,2.33-.86,2.69-.54.38.34.67.81.45,1.68-.12.49-.64.54-.51,1.28.14.83.54.89.75,1.07.22.18.5.32.64.69.13.35.16.73.09,1.04-.14.61-1.02.13-1.61-.13-.39-.17-1.63-1.21-1.95-1.55-.79-.88-1.17-2.58-.56-3.57"/>
    <path class="st8" d="M47.94,59.78c-.08-.34-.13-.67-.14-1.01-.04-1.14.16-2.65.14-3.36-2.16.84-4.61,1.76-6.8,1.76-.13.02-.29.02-.44.02s-.31,0-.45-.02c-2.17,0-4.4-.5-6.56-1.34-.01.71-.04,1.79-.08,2.92-.02.34-.06.67-.14,1.01,2.09,1.52,4.92,3.1,6.8,3.1.12.02.26.02.4.02h.1c.13,0,.27,0,.4-.03,1.88,0,4.71-1.57,6.8-3.1l-.02.02Z"/>
    <path class="st13" d="M58.2,29.38c-.01.12-.01.26-.02.42-.03.15-.04.31-.05.48-.02.21-.04.43-.07.63-.01.1-.03.21-.04.31-.04.25-.09.48-.12.73-.01.1-.04.2-.05.3-.05.21-.09.43-.15.64-.02.12-.06.26-.09.43-.04.11-.06.25-.1.37-.16.6-1.52,7.64-2.51,12.22-.41,1.91-.74,3.38-.9,3.79-.92,2.32-6.93,6.59-10.79,8.41-.01.01-.04.01-.05.02-1.1.53-2.03.83-2.6.83h-.08c-.62-.01-1.51-.29-2.55-.76-.05-.04-.11-.06-.17-.09-3.98-1.79-9.92-6.1-10.84-8.42-.17-.45-.54-2.13-.95-4.25-.9-4.57-2.09-11.2-2.25-11.76-.04-.11-.06-.25-.1-.37-.02-.16-.06-.3-.09-.43-.06-.21-.1-.43-.15-.64-.01-.1-.04-.2-.05-.3-.04-.25-.09-.48-.12-.73-.01-.1-.02-.21-.04-.31-.04-.2-.05-.42-.08-.63-.01-.16-.02-.32-.05-.48-.01-.15-.01-.29-.03-.42-.16-3.31.54-6.65,2.7-9.68,2.61-3.66,5.6-7.53,12.11-8.07h5.49c6.51.53,9.5,4.41,12.11,8.07,2.15,3.02,2.86,6.38,2.7,9.68h.01Z"/>
    <path class="st14" d="M37.8,47.45c-.06-1.18,2.16-.43,2.9-.4.58.03,2.34-.38,2.49-.26,1.03.7-1.1,2.11-2.53,2.11-.39,0-2.83-.73-2.86-1.45h-.01Z"/>
    <path class="st2" d="M36.44,35.4s-.55-.5-1.41-1.02c-.44-.27-.94-.54-1.51-.76-.28-.12-.58-.21-.88-.29-.29-.11-.61-.14-.92-.2s-.63-.07-.93-.11h-.91c-.29.03-.59.06-.86.09s-.53.1-.77.14c-.49.07-.88.21-1.17.27-.29.06-.46.1-.46.1,0,0,.14-.1.4-.29.26-.17.62-.46,1.11-.65.24-.1.5-.24.78-.31.28-.08.59-.17.9-.23.32-.03.65-.08.99-.09.33.03.69.02,1.02.08.33.08.68.13,1,.26.33.1.64.25.94.42.3.14.57.35.83.52.24.19.49.38.68.59.81.78,1.17,1.52,1.17,1.52v-.02Z"/>
    <path class="st3" d="M28.33,37.19s1.36,2.71,3.45,2.99c2.08.28,4.3-.09,4.3-.09,0,0,.03-3.13-1.05-3.58s-3.56-1.12-6.69.68"/>
    <path class="st4" d="M34.3,38.08c-.09.95-.9,1.67-1.83,1.6s-1.59-.89-1.51-1.85c.09-.95.9-1.67,1.83-1.61.92.07,1.59.89,1.5,1.86h.01Z"/>
    <path class="st9" d="M32.54,39.14c-.49-.04-.86-.55-.81-1.12s.52-1.02,1-.98c.49.04.86.55.81,1.12s-.52,1.02-1,.98"/>
    <path class="st0" d="M32.59,38.93c-.34-.02-.69-.42-.65-.9s.47-.81.8-.79c.34.02.69.42.65.9s-.46.81-.8.79"/>
    <path class="st11" d="M36.08,40.08s-.05,0-.15.02c-.08-.96-.32-2.29-1-2.57-1-.42-3.27-1.03-6.15.38-.29-.43-.45-.74-.45-.74,3.13-1.79,5.62-1.13,6.69-.68,1.09.45,1.05,3.59,1.05,3.59"/>
    <path class="st5" d="M28.33,37.19s1.37,2.71,3.45,2.99c2.09.27,4.3-.09,4.3-.09,0,0,.03-3.13-1.05-3.58s-3.56-1.11-6.69.68"/>
    <path class="st3" d="M32.32,37.74c-.02.17-.19.3-.39.29s-.34-.17-.32-.34.19-.3.39-.29c.2.01.34.17.32.34M33.42,38.74c0,.09-.09.15-.19.14-.1,0-.17-.08-.16-.17,0-.08.09-.15.19-.14.1,0,.17.08.16.17"/>
    <path class="st2" d="M44.81,35.45s.35-.73,1.17-1.5c.19-.2.44-.39.68-.58.26-.16.53-.38.83-.52.29-.15.61-.31.93-.41.32-.13.67-.18,1-.25.34-.06.69-.05,1.02-.08.33,0,.67.06.98.09.31.06.62.15.9.23.28.07.54.21.78.31.49.19.84.48,1.11.64.25.18.4.28.4.28,0,0-.16-.04-.46-.1-.28-.06-.68-.2-1.17-.26-.24-.03-.5-.11-.77-.13-.27-.03-.56-.05-.86-.08h-.91c-.3.04-.62.04-.93.1-.3.06-.63.09-.92.2-.3.08-.6.17-.88.29-.57.22-1.08.49-1.51.75-.87.53-1.42,1.01-1.42,1.01h.03Z"/>
    <path class="st3" d="M52.82,37.35s-1.32,2.66-3.4,2.9-4.3-.15-4.3-.15c0,0-.08-3.09.99-3.52s3.55-1.04,6.7.77"/>
    <path class="st5" d="M52.82,37.35s-1.32,2.66-3.4,2.9-4.3-.15-4.3-.15c0,0-.08-3.09.99-3.52s3.55-1.04,6.7.77"/>
    <path class="st4" d="M47.03,38.05c.09.94.9,1.65,1.83,1.58s1.59-.88,1.51-1.83c-.09-.94-.9-1.65-1.83-1.59-.92.07-1.59.88-1.51,1.83h0Z"/>
    <path class="st15" d="M48.79,39.09c.49-.03.86-.54.81-1.11s-.52-1.01-1-.97c-.49.03-.86.54-.81,1.11s.52,1.01,1,.97"/>
    <path class="st0" d="M48.74,38.89c.34-.02.69-.41.65-.88s-.47-.8-.8-.78c-.34.02-.69.41-.65.88s.47.8.8.78"/>
    <path class="st11" d="M45.12,40.09s.05,0,.15.03c.07-.95.28-2.26.96-2.51,1-.4,3.25-.97,6.16.47.28-.42.44-.72.44-.72-3.16-1.82-5.64-1.2-6.7-.77-1.08.43-.99,3.52-.99,3.52h-.01Z"/>
    <path class="st3" d="M48.4,37.72c-.02.17-.19.3-.39.28-.19-.01-.34-.17-.32-.33.02-.17.19-.3.39-.28.19.01.34.16.32.33M49.49,38.71c0,.08-.09.15-.19.14-.1,0-.17-.08-.16-.17,0-.08.09-.15.19-.14.1,0,.17.08.16.17"/>
    <path class="st14" d="M44.49,53.11c-.55-.03-1.12-.15-1.78-.22-.03-.01-.04-.01-.07-.01-.15-.03-.3,0-.47.04-.2.04-.42.13-.61.19-.33.11-.71.19-1.1.16s-.01,0-.02,0h-.02c-.39.03-.76-.06-1.1-.17-.19-.07-.41-.15-.61-.19-.16-.04-.31-.07-.47-.04-.03,0-.04,0-.07.01-.66.07-1.23.19-1.78.22-.15.01-.38-.03-.5-.03.03.01.05.03.08.04,1.57.77,2.93,1.62,4.43,1.57h.04c1.5.05,2.86-.81,4.43-1.57.03-.01.06-.03.08-.04-.12,0-.34.04-.5.03h.02Z"/>
    <path class="st5" d="M39.8,52.54c-.07-.01-.13-.02-.18-.04.06.01.12.03.18.04M39.53,52.49s-.08-.02-.11-.03c.04,0,.07.02.11.03"/>
    <path class="st10" d="M44.96,53.06s-1.6-1.21-2.74-.84c0,0-.43.16-.86.26-.26.1-.59.13-.9.12-.24,0-.47-.04-.66-.07-.06,0-.12-.02-.18-.04-.03,0-.05-.01-.07-.02-.04,0-.07-.02-.11-.03s-.06-.02-.06-.02c-.37-.1-.68-.22-.68-.22-1.14-.37-2.74.84-2.74.84l-.04.02c.12,0,.34.04.5.03.55-.03,1.12-.15,1.78-.22.03-.01.04-.01.07-.01.15-.03.3,0,.47.04.2.04.42.13.61.19.33.11.71.19,1.1.16s.01,0,.02,0h.02c.39.03.76-.06,1.1-.17.19-.07.41-.15.61-.19.16-.04.31-.07.47-.04.03,0,.04,0,.07.01.66.07,1.23.19,1.78.22.15.01.38-.03.5-.03,0,0-.01,0-.03-.02v.03Z"/>
    <path class="st6" d="M39.6,52.5s-.05,0-.07-.02c.02,0,.04,0,.07.02M39.42,52.46s-.04-.01-.06-.02.02,0,.06.02"/>
    <path class="st16" d="M65.84,79.43s-.1-6.07-.39-6.6c-.53-2.12.44-3.09-3.32-5.13-.05-.01-.85-.24-2.08-.6-2.42-.7-6.35-1.86-8.66-2.73-.14.9-.45,1.75-.89,2.56-1.7,3.03-5.42,5.14-9.73,5.14s-8.02-2.11-9.73-5.14c-.46-.8-.76-1.67-.9-2.59-2.3.87-6.37,2.07-8.81,2.77-1.21.35-2.03.58-2.08.6-3.72,2.04-2.78,3.01-3.31,5.13-.27.53-.39,6.6-.39,6.6,0,.17-.01.37-.01.56h50.31c-.01-.19-.01-.38-.01-.56h-.02Z"/>
    <path class="st3" d="M40.78,72.07c4.31,0,8.02-2.11,9.73-5.14.45-.79.75-1.65.89-2.56-.48-.18-.89-.34-1.21-.5h-.01l-.16-.08c-.17-.09-.3-.16-.39-.24,0-.01-.05-.05-.08-.09-.39,1.29-1.04,2.46-1.9,3.45-1.67,1.94-4.11,3.16-6.84,3.16s-5.16-1.23-6.84-3.16c-.91-1.05-1.6-2.32-1.98-3.72-.03.07-.06.13-.06.17-.03.04-.08.06-.1.1s-.07.07-.09.09c-.02.04-.06.06-.12.1,0,0-.01,0-.01.01-.24.15-.66.32-1.16.54h-.03c-.09.05-.19.08-.28.12.14.91.45,1.78.9,2.59,1.7,3.03,5.42,5.14,9.73,5.14v.02Z"/>
    <path class="st2" d="M45.89,6.16l2.35,1.22c-4.99-1.51-10.12-.46-12.48.2-.86.18-1.34.43-1.34.43.21,0,.43,0,.63.01.72.04,1.89.19,2.58.71-1.03-.42-2.82-.57-5.82.58-.42.16-.8.33-1.17.51-1.28.55-3.82,1.63-8.73,3.7,0,0,1.61.62,3.54.83-.92,1.06-1.88,1.98-3.47,2.45-4.17,1.27-5.38-.35-5.38-.35,0,0,1.81,2.84,5.02,2.85.52,0,.57,0,.58-.01,0,.01-1.21,3.04-1.43,5.31-.23,2.32.5,3.9.73,8.24.06,1.21.22,1.83.45,2.19.47.77,1.22.51,2.07,2.34.43.91.45,1.95.45,1.95h.02s-.06.17-.06.17c0,0-.2,6.03,1.52,8.77,1.26,3.12,3.73,6.38,8.46,8.77v-.14s.04.1.06.14c.09.25.27.51.54.72.25.26.54.46.83.56,1.17.58,2.93.94,4.93.96h.04c1.98-.02,3.76-.4,4.93-.96.31-.1.58-.29.83-.56.26-.21.47-.47.55-.72,7.28-3.91,8.88-10.16,9.05-14.39l.02-.02s-.06-3.88,1.53-6.71c.21-.25.45-.6.69-1.02.1-.35.28-.71.56-1.14.84-1.9,1.57-4.55,1.57-7.22,1.25-20.36-14.62-20.37-14.62-20.37h-.01ZM45.64,56.66c-.43.18-.91.38-1.47.5.02-.08.04-.17.04-.29,0-.55-.45-1-1-1h-4.87c-.55,0-1,.47-1,1,0,.12.01.2.04.29-.56-.12-1.04-.31-1.47-.5-.26-.61-.41-1.31-.41-2.04,0-.22.01-.41.03-.61.77-.8,1.9-1.43,3.22-1.75.42.22,1.02.37,1.7.37.78,0,1.47-.18,1.89-.47,1.51.28,2.81.96,3.68,1.86.02.2.04.4.04.61,0,.73-.17,1.43-.42,2.04M54.19,44.65c-2.55,5.13-7.25,7.31-7.25,7.31-.01,0-.14-.1-.41-.31-.28-.21-.68-.51-1.21-.8-.59-.35-1.31-.86-2.16-1.18-.25-.08-.53-.14-.79-.21-.42-.06-.99-.08-1.59-.08h-.04c-.62,0-1.2.02-1.59.08-.27.06-.53.13-.8.21-.85.31-1.56.82-2.14,1.18-.52.29-.93.58-1.21.8-.25.21-.41.31-.41.31-.02.03-.03.08-.05.11v-.11s-8.69-3.77-9.36-13.1c.21-.51.41-1.48.43-3.35,0,0-3.11-20.29,10.94-17.14l-.12-.21c1.2.22,2.41.52,3.62.82,2.63.67,5.26,1.75,7.73,3.44,3.16,2.17,7.25,4.93,8.1,9.87-.09.5-.13,1.34-.16,2.26-.02.37-.03.71-.03,1.01,0,.4,0,.73.02,1.03,0,.91.02,1.69.03,2.05-.12,2.14-.62,4-1.35,5.59-.06.14-.13.28-.2.43h0Z"/>
    <path class="st3" d="M56.5,75.53h-5.05c-.95,0-1.72-.78-1.72-1.72s.78-1.72,1.72-1.72h5.05c.95,0,1.72.78,1.72,1.72s-.78,1.72-1.72,1.72"/>
  </g>
</svg>