<?xml version="1.0" encoding="UTF-8"?>
<svg id="Layer_2" xmlns="http://www.w3.org/2000/svg" version="1.1" xmlns:xlink="http://www.w3.org/1999/xlink" viewBox="0 0 80 80">
  <!-- Generator: Adobe Illustrator 30.2.1, SVG Export Plug-In . SVG Version: 2.1.1 Build 1)  -->
  <defs>
    <style>
      .st0 {
        fill: #b5957e;
      }

      .st1 {
        fill: #b8987d;
      }

      .st2 {
        fill: #714223;
      }

      .st3 {
        fill: #ccad8a;
      }

      .st4 {
        fill: #d7bd9d;
      }

      .st5 {
        fill: #fff;
      }

      .st6 {
        fill: #272213;
      }

      .st7 {
        opacity: .4;
      }

      .st8 {
        fill: #535353;
      }

      .st9 {
        fill: #b7967d;
      }

      .st10 {
        fill: none;
      }

      .st11 {
        fill: #a91319;
      }

      .st12 {
        fill: #d2bb9b;
      }

      .st13 {
        fill: #ba9d82;
      }

      .st14 {
        fill: #dcc5a0;
      }

      .st15 {
        fill: #1a1a1a;
      }

      .st16 {
        fill: #4a473e;
      }

      .st17 {
        fill: #d6bb9c;
      }

      .st18, .st19 {
        fill: #22231d;
      }

      .st19 {
        isolation: isolate;
        opacity: .38;
      }

      .st20 {
        fill: #44361f;
      }

      .st21 {
        fill: #d99100;
      }

      .st22 {
        fill: #a98d76;
      }

      .st23 {
        fill: #462e1b;
      }

      .st24 {
        clip-path: url(#clippath);
      }

      .st25 {
        fill: #ebd9b5;
      }

      .st26 {
        fill: #3c3d39;
      }
    </style>
    <clipPath id="clippath">
      <rect class="st10" x="37.24" y="55.47" width="8.99" height="5.3"/>
    </clipPath>
  </defs>
  <g id="Layer_1-2">
    <path class="st21" d="M0,0h80v80H0V0Z"/>
    <path class="st8" d="M56.67,54.54c.49.58,2.51,1.43,2.51,1.43,0,0-1.31-.59-1.75-2.83-.16-.82-.24-1.28-.25-1.61h-.29c1.02-1.53,1.59-3.23,1.59-5.03,0-2.33-.61-4.49-2.26-6.32.06.53-.32,1.61-.32,2.15,0,5.51-3.05,9.64-7.59,11.94.21-.61.34-1.31.34-2.05,0-1.4-.43-2.64-1.07-3.38-1.06-1.65-3.22-.25-5.71-.25-2.49,0-4.64-1.4-5.71.25-.65.74-1.07,1.98-1.07,3.38,0,.75.13,1.45.34,2.05-4.53-2.31-7.59-6.43-7.59-11.94,0-.54-.37-1.63-.32-2.15-1.65,1.83-2.26,3.99-2.26,6.32,0,1.8.57,3.5,1.59,5.03h-.29c-.01.33-.09.79-.25,1.61-.44,2.24-1.75,2.83-1.75,2.83,0,0,2.02-.86,2.51-1.43.24-.28.87-1.06,1.06-1.3,0,.01.01.01.01.02-.11.26-.38,1.09,0,2.7.49,2.1,2.49,3.51,2.49,3.51,0,0-1.2-1.67-.87-3.5,0,0-.07.73,1.88,2.77,1.87,1.95,5.28,4.3,5.57,4.33-.03-.06-.06-2.33-.09-3.16,1.43.43,2.91.68,4.46.68.09,0,.18,0,.27,0,.09,0,.18,0,.27,0,1.54,0,3.03-.25,4.46-.68-.03.83-.06,3.6-.09,3.67.3-.03,3.71-2.89,5.57-4.83,1.95-2.04,1.88-2.77,1.88-2.77.33,1.83-.87,3.5-.87,3.5,0,0,2.01-1.42,2.49-3.51.37-1.61.11-2.44,0-2.7,0,0,.01-.01.01-.02.19.24.82,1.02,1.06,1.3h-.01Z"/>
    <path class="st14" d="M41.71,50.03v29.97h-16.23c-.27-.1-.4-.16-.4-.16,0-3.82.56-6.81,1.42-9.13,2.07-5.61,5.85-7.4,7.59-7.93.57-.18.92-.22.92-.22.06,0,.12,0,.18-.01.51-.08.93-.53,1.26-1.23.25-.53.45-1.19.62-1.97.07-.3.12-.61.17-.94.08-.55.16-1.13.23-1.74.03-.37.06-.73.1-1.11.14-1.83.19-3.84.19-5.74,0,0,2.18.23,3.95.23h0Z"/>
    <path class="st25" d="M58.4,79.84s-.15.05-.38.16h-16.31v-29.97h.04c1.76,0,3.96-.23,3.96-.23,0,1.89.04,3.87.18,5.7.04.36.08.73.1,1.08.07.63.15,1.23.24,1.78h0c.03.26.08.49.12.72.16.78.35,1.47.59,2.01.29.68.64,1.16,1.08,1.35.14.06.28.09.43.09,0,0,.62.08,1.56.44,1.91.75,5.12,2.71,6.96,7.71.86,2.33,1.42,5.31,1.42,9.13h0Z"/>
    <g class="st24">
      <path class="st13" d="M46.24,58.31h0c-.41.64-1.78,2.45-4.5,2.45h-.03c-2.58-.01-4.08-1.87-4.46-2.43.08-.55.16-1.13.23-1.73.03-.35.06-.72.11-1.1,1.25.31,2.63.51,4.08.54h.05c1.5-.03,2.89-.24,4.19-.58.04.35.08.72.11,1.07.06.63.15,1.22.24,1.77"/>
    </g>
    <path class="st3" d="M41.52,15.88c-17.19,0-17.29,14.35-16.52,23.75-1.17-2.23-4.67-1.55-4.38,1.97.28,3.38,5.28,5.11,5.14,4.73,2.6,6.95,9.5,12.19,15.77,12.19h.13V15.88h-.13Z"/>
    <path class="st22" d="M21.71,40.12c.85-1.36,2.17-.77,2.48-.47.34.33.62.75.41,1.55-.12.46-.59.5-.49,1.18.13.77.49.81.7.99.2.17.45.3.57.63.13.33.15.67.08.97-.13.55-.94.1-1.48-.13-.36-.17-1.49-1.13-1.78-1.44-.71-.81-1.06-2.39-.49-3.28"/>
    <path class="st4" d="M41.62,15.88c17.19,0,17.29,14.35,16.53,23.75,1.17-2.23,4.66-1.55,4.37,1.97-.27,3.38-5.27,5.11-5.14,4.73-2.54,6.95-9.5,12.19-15.77,12.19h-.09l-.04-42.64h.13"/>
    <path class="st22" d="M61.42,40.12c-.85-1.36-2.15-.77-2.48-.47-.34.33-.61.75-.41,1.55.12.46.59.5.49,1.18-.13.77-.49.81-.69.99-.2.17-.46.3-.58.63s-.15.67-.08.97c.13.55.94.1,1.48-.13.37-.17,1.49-1.13,1.78-1.44.73-.81,1.06-2.39.49-3.28"/>
    <path class="st14" d="M41.39,19.93c-5.65,0-9.8,1.64-12.29,4.86-3.5,4.52-3.37,11.42-2.08,16.37.4,1.52.61,5.6.87,7.09,1.23,6.7,8.64,10.26,13.51,10.26h.13V19.93h-.08"/>
    <path class="st25" d="M53.67,24.81c-2.48-3.21-6.58-4.85-12.15-4.88v38.59c5.57-.06,12.24-3.97,13.38-10.26.28-1.5.48-5.57.87-7.09,1.29-4.94,1.43-11.82-2.1-16.36"/>
    <path class="st10" d="M40.83,51.72c-.08-.01-.15-.03-.21-.04.07.01.14.03.21.04M40.54,51.67c-.05-.01-.1-.02-.13-.03.04.01.09.02.13.03"/>
    <path class="st9" d="M40.62,51.68s-.05-.01-.08-.02c.03,0,.05.01.08.02M40.41,51.64s-.05-.01-.07-.02.03,0,.08.02h0Z"/>
    <path class="st10" d="M26.11,31.96c-.15.51-.26,1.07-.33,1.67,0,0,.23-.94.73-2.33-.21.3-.36.54-.39.67"/>
    <path class="st20" d="M36.72,20.03l-.07.07v.03s.05-.07.07-.1"/>
    <path class="st10" d="M40.88,50.94c-.08-.01-.15-.03-.22-.04.08.01.15.03.22.04M40.58,50.88c-.05-.01-.1-.02-.13-.03.04.01.09.02.13.03"/>
    <path class="st0" d="M40.66,50.9s-.05-.01-.08-.02c.03,0,.05.01.08.02M40.45,50.85l-.08-.02s.03,0,.08.02"/>
    <path class="st17" d="M38.02,46c-.07-1.37,2.52-.5,3.37-.46.67.04,2.72-.43,2.9-.31,1.21.81-1.28,2.45-2.94,2.45-.44,0-3.29-.85-3.33-1.68"/>
    <path class="st10" d="M40.92,51.57c-.08-.01-.15-.03-.22-.04.08.01.15.03.22.04M40.62,51.52c-.05-.01-.1-.02-.13-.03.04.01.09.02.13.03"/>
    <path class="st0" d="M40.7,51.53s-.05-.01-.08-.02c.03,0,.05.01.08.02M40.48,51.48l-.08-.02s.03,0,.08.02"/>
    <path class="st10" d="M40.83,51.43c-.09-.01-.16-.03-.23-.04.08.02.16.03.23.04M40.51,51.36c-.05-.01-.11-.03-.14-.03.05.01.09.02.14.03"/>
    <path class="st9" d="M40.6,51.38s-.06-.01-.09-.02c.03,0,.05.01.09.02M40.37,51.33s-.05-.01-.08-.02.03.01.08.02h0Z"/>
    <path class="st10" d="M40.77,51.2c-.09-.01-.16-.03-.23-.04.08.02.16.03.23.04M40.44,51.14c-.05-.01-.11-.03-.14-.03.05.01.09.02.14.03"/>
    <path class="st9" d="M40.53,51.16s-.06-.01-.09-.02c.03,0,.05.01.09.02M40.3,51.11s-.05-.01-.08-.02.03.01.08.02h0Z"/>
    <path class="st10" d="M40.96,51.17c-.08-.01-.16-.03-.23-.04.08.02.15.03.23.04M40.65,51.11c-.05-.01-.1-.02-.14-.03.05.01.09.02.14.03"/>
    <path class="st9" d="M40.74,51.13s-.06-.01-.09-.02c.03,0,.05.01.09.02M40.52,51.08l-.08-.02s.03.01.08.02h0Z"/>
    <path class="st10" d="M40.12,53.45c-.08-.01-.15-.03-.21-.04l.21.04ZM39.82,53.39c-.05-.01-.1-.02-.13-.03.04.01.09.02.13.03"/>
    <path class="st1" d="M39.9,53.41s-.05-.01-.08-.02c.03,0,.05.01.08.02M39.69,53.36l-.08-.02s.03,0,.08.02"/>
    <path class="st10" d="M40.06,53.24c-.08-.01-.15-.03-.21-.04.08.01.14.03.21.04M39.76,53.18c-.05-.01-.1-.02-.13-.03.04.01.09.02.13.03"/>
    <path class="st1" d="M39.84,53.2s-.05-.01-.08-.02c.03,0,.05.01.08.02M39.63,53.16l-.08-.02s.03,0,.08.02"/>
    <path class="st10" d="M40.24,53.21c-.08-.01-.15-.03-.21-.04.07.01.14.03.21.04M39.95,53.16s-.1-.02-.13-.03c.04.01.08.02.13.03"/>
    <path class="st1" d="M40.03,53.17s-.05-.01-.08-.02c.03,0,.05.01.08.02M39.82,53.13s-.05-.01-.07-.02.03,0,.08.02h0Z"/>
    <path d="M38.99,64.63l-3.95-2.57s-7.79.55-10,11.7c-.09.47-.17.95-.24,1.45l4.38,1.16v3.62h11.6v-12.5c0-1.15-.61-2.18-1.56-2.73-.08-.04-.15-.09-.22-.14h0ZM58.65,73.76c-.87-4.56-3.34-10.21-10.08-11.72l-4.09,2.61s-.01,0-.01,0c-.9.57-1.46,1.57-1.46,2.67v12.66h11.45v-3.62l4.43-1.18c-.06-.46-.14-.94-.23-1.43h0Z"/>
    <path class="st11" d="M40.77,72.96v7.04h2.23v-7.07c-.73.09-1.49.1-2.23.03h0Z"/>
    <path class="st5" d="M29.19,34.89s1.31,5.39,3.56,5.83,4.69-.44,4.69-.44c0,0,.23-6.34-.92-7.16-1.15-.83-3.81-2.03-7.33,1.77"/>
    <path class="st12" d="M37.44,40.27s-.05.01-.17.06c-.03-1.94-.21-4.61-.93-5.12-1.07-.79-3.49-1.89-6.72,1.13-.29-.83-.44-1.47-.44-1.47,3.53-3.81,6.19-2.61,7.33-1.77,1.15.83.92,7.17.92,7.17h0Z"/>
    <ellipse class="st23" cx="33.89" cy="37.52" rx="2.22" ry="2.22"/>
    <path class="st2" d="M33.79,39c-.64-.05-1.13-.7-1.07-1.41s.65-1.27,1.29-1.21,1.13.7,1.07,1.41-.65,1.27-1.29,1.22"/>
    <path class="st6" d="M33.84,38.74c-.44-.04-.91-.53-.86-1.13.05-.6.58-1.01,1.03-.98.44.04.91.53.86,1.13s-.58,1.01-1.03.97"/>
    <path class="st5" d="M33.48,36.16c-.02.22-.24.38-.5.36-.26-.02-.45-.22-.43-.43.02-.22.24-.38.5-.36s.45.21.43.43M34.92,38.52c-.01.11-.12.19-.25.18-.13-.01-.23-.11-.22-.22.01-.11.12-.19.25-.18.13.01.23.11.22.22M53.99,34.7s-1.31,5.39-3.56,5.83-4.69-.44-4.69-.44c0,0-.23-6.34.92-7.16,1.15-.83,3.81-2.03,7.33,1.77"/>
    <path class="st12" d="M45.73,40.09s.05.01.17.06c.03-1.94.21-4.61.93-5.12,1.07-.79,3.49-1.89,6.72,1.13.29-.83.44-1.47.44-1.47-3.53-3.81-6.19-2.61-7.33-1.77-1.15.83-.92,7.17-.92,7.17h0Z"/>
    <path class="st23" d="M47.06,37.34c0,1.23.99,2.22,2.22,2.22s2.22-.99,2.22-2.22-.99-2.22-2.22-2.22-2.22.99-2.22,2.22"/>
    <path class="st2" d="M49.38,38.82c.64-.05,1.13-.7,1.07-1.41s-.65-1.27-1.29-1.21-1.13.7-1.07,1.41.65,1.27,1.29,1.22"/>
    <path class="st6" d="M49.33,38.56c.44-.04.91-.53.86-1.13-.05-.6-.58-1.01-1.03-.98-.44.04-.91.53-.86,1.13s.58,1.01,1.03.97"/>
    <path class="st5" d="M49.69,37.07c.02.22.24.38.5.36.26-.02.45-.22.43-.43-.02-.22-.24-.38-.5-.36s-.45.21-.43.43M48.25,38.34c.01.11.12.19.25.18.13-.01.23-.11.22-.22-.01-.11-.12-.19-.25-.18-.13.01-.23.11-.22.22"/>
    <path d="M38.79,34.8s-.43-.65-1.26-1.29c-.52-.4-1.04-.71-1.57-.94-.65-.27-1.34-.47-2.02-.56-.61-.07-1.29-.05-2.08.06-.6.11-1.19.29-1.69.52-.35.12-.64.29-.86.43-.09.05-.16.1-.24.14l-1.07.68,1.24-.29c.06-.01.12-.03.19-.05.26-.07.58-.15.95-.21.09-.01.18-.03.27-.05.16-.03.32-.06.49-.07.19-.01.38-.03.58-.04l.26-.02c.69,0,1.27.04,1.78.16.56.1,1.14.28,1.67.53.5.24.98.48,1.36.75.76.51,1.18.93,1.18.93.1.1.24.16.38.16.1,0,.2-.03.29-.09.25-.16.32-.5.16-.74v-.02s-.01.01-.01.01ZM54.21,33.16c-.07-.04-.15-.09-.24-.14-.23-.14-.51-.31-.85-.43-.51-.23-1.1-.4-1.71-.52-.78-.1-1.46-.13-2.07-.05-.67.09-1.37.29-2.02.56-.52.23-1.05.54-1.57.94-.82.63-1.23,1.24-1.26,1.29h0c-.14.23-.11.51.07.69.1.1.24.16.38.16s.28-.06.38-.16h0s.45-.44,1.18-.94c.37-.27.85-.51,1.35-.75.53-.25,1.11-.43,1.68-.53.51-.12,1.09-.17,1.77-.16l.27.02c.2.01.39.03.58.04.16,0,.33.04.48.07.09.02.18.04.27.05.38.05.69.14.95.21.07.02.13.04.19.05l1.24.29-1.09-.68Z"/>
    <g class="st7">
      <path class="st18" d="M39.18,39.78c0,2.47-3.4,4.89-7.32,4.89-5.46,0-6.2-2.17-6.2-4.62s-1.36-4.46,6.66-4.46,6.86,1.72,6.86,4.19"/>
    </g>
    <g class="st7">
      <path class="st18" d="M44.68,39.78c0,2.47,3.4,4.89,7.3,4.89,5.47,0,6.2-2.17,6.2-4.62s1.36-4.46-6.64-4.46-6.86,1.72-6.86,4.19"/>
    </g>
    <path class="st19" d="M38.34,41.22c-1.98,3.69-7.81,3.19-9.31,2.85-.59-.15-2.15-.61-2.84-3.02,0,0,.02,0,.03-.01.07-.03.14-.05.21-.08.05-.02.11-.04.16-.06.07-.03.13-.05.2-.07.08-.03.15-.05.23-.08.09-.03.18-.06.28-.09.05-.02.11-.04.17-.05.04-.01.09-.03.13-.04.2-.06.39-.11.59-.16.08-.02.15-.04.23-.05.08-.02.15-.04.23-.05.08-.01.15-.04.23-.05.14-.03.28-.06.43-.09.02,0,.03,0,.05-.01.06-.01.11-.02.17-.03.08-.01.15-.03.23-.04.05,0,.11-.02.16-.03.04,0,.08-.01.13-.02.08-.01.17-.02.25-.03.03,0,.07,0,.1-.01.07,0,.14-.01.21-.03.08,0,.15-.01.23-.02.05,0,.1,0,.15-.01.11,0,.21-.01.32-.02.09,0,.18-.01.27-.01h.02c.1,0,.2,0,.3-.01h.53s.09,0,.14,0h.1c.06,0,.11,0,.17,0,.06,0,.12,0,.18,0,.09,0,.17.01.25.01.13.01.26.02.39.04.05,0,.1,0,.15.01.05,0,.09.01.14.01.01,0,.02,0,.03,0,.05,0,.11.01.17.02.04,0,.09.01.13.02.01,0,.02,0,.04,0,.06.01.13.02.19.03.18.03.36.06.54.09.05.01.11.02.16.04.02,0,.05,0,.07.01.05.01.09.02.14.03.04.01.09.02.13.03.09.02.18.04.27.06.13.03.27.07.4.1.05.01.1.03.16.05.03,0,.06.02.1.03.06.02.12.04.18.05.07.02.14.05.21.07.22.07.44.15.67.24l.2.08c.07.03.15.06.22.09.08.04.17.07.25.11.05.02.09.04.13.06h0Z"/>
    <path class="st5" d="M60.36,36.04c-.11-.16-2.1-.37-4.7-.57-2.21-.16-5.74-.06-7.13.1-.55.06-1.6.21-2.63.41-1.15.23-2.27.55-2.75.63-.46.07-.82.09-1.19.09h0s-.16,0-.16,0h0c-.37.01-.73,0-1.19-.08-.47-.08-1.6-.39-2.75-.63-1.03-.2-2.07-.35-2.64-.41-1.38-.16-4.9-.25-7.11-.1-2.59.2-4.58.41-4.7.57-.06.12-.22,1.57-.01,1.74.2.14.95.47,1.12.98.09.27.34,1.44.78,2.63.4,1.07.97,2.14,1.73,2.62,2.17,1.38,8.5,1.68,11.59-1.58.69-.73,1.23-1.65,1.51-2.77.2-.84.47-1.33.96-1.47.19-.05.48-.09.77-.1.29,0,.58.04.77.1.49.14.76.63.98,1.47.35,1.42,1.11,2.5,2.08,3.31,3.24,2.68,8.97,2.33,11,1.04.85-.53,1.45-1.82,1.86-2.99.36-1.05.57-2.01.66-2.25.17-.51.92-.84,1.12-.98.2-.18.05-1.62-.02-1.74h0ZM38.75,40.21c-.11.36-.25.7-.41,1.01-1.98,3.69-7.81,3.19-9.31,2.85-.59-.15-2.15-.61-2.84-3.02-.14-.48-.24-1.03-.3-1.68-.24-2.68,1.45-2.86,3.84-3.09,1.93-.18,3.65-.1,4.82,0,1.17.11,3.89.57,4.16,1.29.27.74.33,1.58.03,2.64h.01ZM54.76,44.07c-1.54.35-7.62.86-9.45-3.12-.1-.23-.2-.47-.27-.73-.3-1.06-.24-1.9.03-2.64.27-.73,2.99-1.18,4.16-1.29,1.17-.1,2.88-.18,4.82,0,2.4.23,4.08.41,3.84,3.09-.04.48-.11.9-.19,1.29-.63,2.75-2.31,3.26-2.94,3.41"/>
    <path class="st19" d="M57.7,40.66c-.63,2.75-2.31,3.26-2.94,3.41-1.54.35-7.62.86-9.45-3.12,4.47-2.09,8.8-1.61,12.39-.29"/>
    <path class="st16" d="M46.63,48.36s-2.44-2.69-4.1-1.67c-.89.57-1.68.2-1.93.05-.01-.01-.03-.02-.04-.03-.03-.02-.04-.03-.04-.03-1.66-1.02-4.1,1.67-4.1,1.67,0,0-1.7,1.77-3.4,1.21-.29-.09-.49.28-.29.49,1.04,1.07,2.93,2.18,6.08,1.52.7-.15,1.25-.34,1.68-.55.66-.33,1.43-.33,2.08,0,.43.22.97.41,1.68.55,3.15.66,5.04-.45,6.08-1.52.21-.21,0-.59-.29-.49-1.7.57-3.4-1.21-3.4-1.21"/>
    <path class="st26" d="M46.63,57.69c-2.81.18-3.51-2.11-3.51-2.11-.26-.78-.73-1.03-1.23-1.04s0,0-.01,0h-.01c-.49,0-.97.26-1.23,1.04,0,0-.7,2.28-3.51,2.11,0,0,1.81,2.24,4.74,2.31s0,0,.01,0h.01c2.92-.07,4.74-2.31,4.74-2.31h0Z"/>
    <path class="st15" d="M66.02,18.43c-.06.15-.18.29-.33.43.22-.26.33-.43.33-.43-.36.23-.7.43-1.04.6-6.25,3.33-8-2.52-8-2.52.65-5.51,7.37-5.43,7.37-5.43,0,0-5.71-2.75-7.91,2.65-.29-2.91,1.29-5.73,1.29-5.73-2.55.54-3.62,2.6-4.07,4.36-1.57-3.02.06-5.26.06-5.26l-8.74,3.47c1.14-.9,2.91-2.57,2.91-2.57,0,0-2.71.28-6.9,1.46-2.94.83-4.71,2.31-5.7,2.99l-.03-2.46s-4.28,2.94-8.33,6.8c-4.05,3.86-5.61,7.49-5.61,11.57s1.82,8.17,3.01,9.38c1.19,1.21.81,2.97,1.16,2.97,0,0,.86.03.73-3.99.47-4.57,2.58-6.39,3.75-7.06,2.07-1.09,5.19-1.29,9.86,1.08h0c2.88,1.67,4.04-.55,8.11-1.68,6.95-1.91,9.83,3.11,9.24,5.7-.9,3.99.35,6.29.83,6.18,0,0,.02-1.01.45-1.91,1.28-2.69,2.36-.82,2.56-4.47.23-4.27.98-5.83.74-8.11-.14-1.29-.6-2.83-.97-3.9,4.66-.08,5.2-4.13,5.2-4.13"/>
  </g>
</svg>