<?xml version="1.0" encoding="UTF-8"?>
<svg id="Layer_2" xmlns="http://www.w3.org/2000/svg" version="1.1" xmlns:xlink="http://www.w3.org/1999/xlink" viewBox="0 0 80 80">
  <!-- Generator: Adobe Illustrator 30.2.1, SVG Export Plug-In . SVG Version: 2.1.1 Build 1)  -->
  <defs>
    <style>
      .st0 {
        fill: #452a16;
      }

      .st1 {
        fill: #3d2520;
      }

      .st2 {
        fill: #b5977b;
      }

      .st3 {
        fill: #c7a784;
      }

      .st4 {
        fill: #43331b;
      }

      .st5 {
        fill: #a11723;
      }

      .st6 {
        fill: #74a1a6;
      }

      .st7 {
        fill: #fff;
      }

      .st8 {
        fill: #af8f76;
      }

      .st9 {
        fill: #ab5c66;
      }

      .st10 {
        fill: #a4876f;
      }

      .st11 {
        fill: #e9d3af;
      }

      .st12 {
        fill: none;
      }

      .st13 {
        fill: #171500;
      }

      .st14 {
        fill: #71391e;
      }

      .st15 {
        fill: #b19076;
      }

      .st16 {
        fill: #42403b;
      }

      .st17 {
        fill: #5b3a38;
      }

      .st18 {
        fill: #d2b596;
      }

      .st19 {
        fill: #ceb495;
      }

      .st20 {
        fill: #d3b697;
      }

      .st21 {
        fill: #bf6c6e;
      }

      .st22 {
        fill: #b39176;
      }

      .st23 {
        fill: #d7be9a;
      }

      .st24 {
        fill: #e8d2ae;
      }

      .st25 {
        clip-path: url(#clippath);
      }

      .st26 {
        fill: #282211;
      }
    </style>
    <clipPath id="clippath">
      <rect class="st12" x="36.9" y="55.47" width="9.07" height="5.3"/>
    </clipPath>
  </defs>
  <g id="RÈteg_1">
    <path class="st5" d="M0,0h80v80H0V0Z"/>
    <path class="st23" d="M41.4,50.03v29.96h-16.37c-.27-.1-.4-.16-.4-.16,0-1.91.14-3.62.39-5.13.12-.7.26-1.36.41-1.97.18-.73.39-1.41.62-2.03.05-.13.09-.25.14-.37.06-.14.11-.27.17-.4s.11-.26.17-.38c.11-.26.23-.5.36-.74.21-.41.43-.79.67-1.15.06-.1.12-.19.18-.28.3-.44.61-.85.93-1.21.09-.1.18-.2.27-.3.09-.1.18-.19.27-.29.09-.09.18-.18.27-.26.09-.09.18-.17.27-.25.18-.17.36-.32.54-.46.87-.69,1.71-1.16,2.42-1.47.09-.04.18-.08.27-.11.28-.11.53-.2.75-.26.58-.18.93-.22.93-.22.07,0,.12,0,.18-.02.51-.08.93-.53,1.27-1.23.25-.53.46-1.2.63-1.97.07-.31.12-.61.17-.94.08-.56.16-1.14.23-1.74.03-.37.07-.73.11-1.11.15-1.83.19-3.84.19-5.74,0,0,2.2.22,3.98.22h0Z"/>
    <path class="st24" d="M58.23,79.84s-.14.06-.39.16h-16.44v-29.96h.04c1.77,0,4-.22,4-.22,0,1.88.04,3.87.18,5.7.04.36.08.73.11,1.08.07.63.14,1.23.24,1.78h0c.03.26.08.49.12.72.16.78.36,1.47.59,2.02.29.69.65,1.16,1.09,1.35.13.06.28.09.44.09,0,0,.63.07,1.57.44.5.19,1.09.47,1.71.86.13.08.26.17.39.25.11.07.21.14.32.22.09.07.19.14.28.21.19.15.39.31.59.49.08.07.15.14.23.21.09.08.17.16.26.25.06.06.12.11.17.17.12.12.24.25.36.39.06.07.12.13.18.2.27.31.53.64.78,1.01.11.15.21.31.32.48.21.34.41.69.61,1.07.25.47.48.98.69,1.52.05.12.1.25.14.37.23.63.44,1.3.63,2.03.16.61.3,1.27.41,1.97.25,1.51.39,3.22.39,5.13h0Z"/>
    <g class="st25">
      <path class="st2" d="M45.97,58.32h0c-.41.64-1.8,2.45-4.54,2.45h-.03c-2.6-.01-4.11-1.87-4.5-2.43.08-.55.16-1.13.23-1.73.03-.36.07-.72.11-1.1,1.26.31,2.65.51,4.11.54h.05c1.52-.03,2.92-.23,4.22-.58.04.36.08.72.11,1.08.07.63.15,1.22.24,1.77"/>
    </g>
    <path class="st3" d="M41.22,15.88c-17.34,0-17.43,14.36-16.66,23.75-1.19-2.23-4.71-1.55-4.42,1.97.28,3.38,5.32,5.11,5.18,4.73,2.62,6.95,9.57,12.19,15.9,12.19h.13V15.88h-.13Z"/>
    <path class="st10" d="M21.24,40.12c.85-1.36,2.18-.77,2.5-.47.34.33.63.75.41,1.55-.12.46-.6.5-.49,1.18.13.77.49.81.71,1,.2.17.45.3.57.63.13.33.15.67.08.97-.13.55-.95.1-1.49-.13-.36-.17-1.5-1.13-1.8-1.44-.72-.81-1.06-2.39-.49-3.28"/>
    <path class="st20" d="M41.31,15.88c17.34,0,17.43,14.36,16.67,23.75,1.19-2.23,4.7-1.55,4.41,1.97-.27,3.38-5.32,5.11-5.18,4.73-2.56,6.95-9.57,12.19-15.9,12.19h-.09l-.04-42.65h.13Z"/>
    <path class="st10" d="M61.28,40.12c-.85-1.36-2.17-.77-2.5-.47-.34.33-.61.75-.41,1.55.12.46.6.5.49,1.18-.13.77-.49.81-.69,1-.2.17-.47.3-.58.63s-.15.67-.08.97c.13.55.95.1,1.49-.13.37-.17,1.5-1.13,1.8-1.44.73-.81,1.06-2.39.49-3.28"/>
    <path class="st23" d="M41.08,19.93c-5.7,0-9.88,1.64-12.4,4.86-3.53,4.52-3.4,11.42-2.1,16.37.4,1.52.61,5.6.88,7.09,1.24,6.7,8.71,10.27,13.62,10.27h.13V19.93h-.08"/>
    <path class="st24" d="M53.46,24.81c-2.5-3.21-6.63-4.85-12.25-4.88v38.59c5.62-.07,12.34-3.97,13.49-10.27.28-1.49.48-5.57.88-7.09,1.3-4.94,1.44-11.82-2.12-16.36"/>
    <path class="st12" d="M40.52,51.72c-.08-.01-.15-.03-.21-.04.07.02.14.03.21.04M40.22,51.67s-.1-.02-.13-.03c.04.01.09.02.13.03"/>
    <path class="st15" d="M40.3,51.68l-.08-.02s.05.01.08.02M40.09,51.64s-.05-.01-.07-.02h0s.03,0,.08.02"/>
    <path class="st12" d="M25.67,31.96c-.16.51-.26,1.07-.34,1.67,0,0,.23-.94.73-2.33-.22.3-.36.54-.4.67"/>
    <path class="st4" d="M36.37,20.03l-.07.07v.02s.05-.07.07-.1h0Z"/>
    <path class="st12" d="M40.57,50.94c-.08-.01-.15-.03-.22-.04.08.02.15.03.22.04M40.27,50.88c-.05-.01-.1-.02-.13-.03.04.01.09.02.13.03"/>
    <path class="st8" d="M40.35,50.9s-.06-.01-.08-.02c.03,0,.05.01.08.02M40.13,50.85s-.05-.01-.08-.02h0s.03,0,.08.02"/>
    <path class="st18" d="M37.82,46.64c-.07-1.37,2.54-.5,3.4-.46.68.03,2.75-.43,2.92-.31,1.22.81-1.29,2.45-2.97,2.45-.45,0-3.32-.85-3.36-1.68"/>
    <path class="st7" d="M28.77,34.99s1.32,5.38,3.59,5.81,4.73-.43,4.73-.43c0,0,.23-6.32-.93-7.14-1.16-.83-3.84-2.03-7.39,1.76h0Z"/>
    <path class="st19" d="M37.1,40.36s-.05.02-.17.06c-.03-1.94-.21-4.6-.94-5.11-1.08-.78-3.52-1.88-6.77,1.13-.3-.83-.44-1.46-.44-1.46,3.56-3.8,6.24-2.6,7.39-1.77,1.16.83.93,7.15.93,7.15h0Z"/>
    <ellipse class="st0" cx="33.52" cy="37.62" rx="2.23" ry="2.21"/>
    <path class="st14" d="M33.42,39.09c-.65-.05-1.14-.7-1.08-1.41s.65-1.27,1.3-1.21c.65.05,1.14.7,1.08,1.41-.06.71-.65,1.27-1.3,1.21h0Z"/>
    <path class="st26" d="M33.47,38.84c-.45-.04-.92-.53-.87-1.13.05-.6.59-1.01,1.04-.97s.91.53.87,1.13c-.05.6-.59,1.01-1.04.97h0Z"/>
    <path class="st7" d="M33.11,37.36c-.02.22-.24.38-.5.36s-.45-.22-.44-.43c.02-.22.24-.38.5-.36s.46.22.44.43M34.56,38.61c-.01.11-.12.19-.25.18s-.23-.11-.22-.22c0-.11.12-.19.25-.18s.23.11.22.22"/>
    <path class="st12" d="M40.6,51.58c-.08-.01-.15-.03-.22-.04.08.02.15.03.22.04M40.3,51.52c-.05-.01-.1-.02-.13-.03.04.01.09.02.13.03"/>
    <path class="st8" d="M40.39,51.54s-.06-.01-.08-.02c.03,0,.05.01.08.02M40.17,51.49s-.05-.01-.08-.02h0s.03,0,.08.02"/>
    <path class="st12" d="M40.52,51.43c-.09-.02-.17-.03-.23-.05.08.02.16.03.23.05M40.2,51.36c-.05-.01-.11-.02-.14-.03.05.01.09.02.14.03"/>
    <path class="st15" d="M40.28,51.38s-.06-.01-.09-.02c.03,0,.06.01.09.02M40.05,51.33s-.05-.02-.08-.02h0s.03.01.08.02"/>
    <path class="st12" d="M40.45,51.2c-.09-.02-.17-.03-.24-.05.08.02.16.03.24.05M40.13,51.14c-.05-.01-.11-.02-.14-.03.05.01.09.02.14.03"/>
    <path class="st15" d="M40.22,51.16s-.06-.01-.09-.02c.03,0,.06.01.09.02M39.99,51.11s-.05-.02-.08-.02h0s.03.01.08.02"/>
    <path class="st12" d="M40.65,51.17c-.08-.01-.16-.03-.23-.04.08.02.15.03.23.04M40.34,51.11c-.05-.01-.11-.02-.14-.03l.14.03Z"/>
    <path class="st15" d="M40.42,51.13s-.06-.01-.09-.02c.03,0,.05.01.09.02M40.2,51.08s-.05-.01-.08-.02h0s.03,0,.08.02"/>
    <path class="st7" d="M53.79,34.81s-1.32,5.38-3.59,5.81c-2.27.44-4.73-.43-4.73-.43,0,0-.23-6.32.93-7.14,1.16-.83,3.84-2.03,7.39,1.76"/>
    <path class="st19" d="M45.46,40.17s.05.02.17.06c.03-1.94.21-4.6.94-5.11,1.08-.78,3.52-1.88,6.77,1.13.3-.83.44-1.46.44-1.46-3.56-3.8-6.24-2.6-7.39-1.77-1.16.83-.93,7.15-.93,7.15h0Z"/>
    <path class="st0" d="M46.81,37.44c0,1.22,1,2.21,2.23,2.21s2.23-.99,2.23-2.21-1-2.21-2.23-2.21-2.23.99-2.23,2.21"/>
    <path class="st14" d="M49.14,38.91c.65-.05,1.14-.7,1.08-1.41s-.65-1.27-1.3-1.21c-.64.05-1.14.7-1.08,1.41.06.71.65,1.27,1.3,1.21h0Z"/>
    <path class="st26" d="M49.09,38.66c.45-.04.92-.53.87-1.13-.05-.6-.59-1.01-1.04-.97s-.91.53-.87,1.13c.05.6.59,1.01,1.04.97h0Z"/>
    <path class="st7" d="M49.45,37.17c.02.22.24.38.5.36s.45-.22.44-.43c-.02-.22-.24-.38-.5-.36-.26.02-.46.22-.44.43h0ZM48,38.43c.01.11.12.19.25.18s.23-.11.22-.22c0-.11-.12-.19-.25-.18s-.23.11-.22.22"/>
    <path class="st13" d="M38.46,34.91s-.43-.65-1.27-1.29c-.53-.4-1.05-.71-1.58-.93-.65-.27-1.36-.46-2.03-.56-.61-.07-1.3-.05-2.09.06-.61.11-1.2.29-1.7.51-.36.12-.64.29-.87.43-.09.05-.17.1-.25.14l-1.09.68,1.25-.29c.06-.01.12-.03.19-.05.26-.07.58-.15.96-.21.09-.01.18-.03.27-.05.16-.03.32-.06.49-.07.19-.01.39-.03.59-.04l.26-.02c.69,0,1.28.04,1.8.16.57.1,1.15.28,1.69.52.5.24.99.48,1.37.75.76.5,1.19.93,1.19.93.11.1.25.16.39.16.1,0,.2-.03.3-.09.25-.16.32-.5.16-.74v-.02s0,0,0,0ZM54.01,33.27c-.07-.04-.15-.09-.24-.14-.23-.14-.51-.31-.86-.43-.51-.22-1.1-.4-1.72-.52-.79-.1-1.47-.12-2.09-.06-.68.09-1.38.28-2.03.56-.53.22-1.06.54-1.58.93-.83.63-1.24,1.24-1.27,1.28h0c-.14.22-.11.51.07.69.1.1.24.16.39.16s.28-.06.39-.16h0s.45-.44,1.19-.93c.37-.27.86-.51,1.36-.75.54-.25,1.12-.43,1.7-.53.51-.12,1.1-.17,1.78-.16l.27.02c.2.01.39.03.58.04.17,0,.33.04.49.07.09.02.18.03.27.05.38.06.7.14.96.21.07.02.13.03.19.05l1.25.29-1.09-.68h0Z"/>
    <path class="st12" d="M39.8,53.45c-.08-.01-.15-.03-.22-.04.07.02.15.03.22.04M39.5,53.39c-.05-.01-.1-.02-.13-.03.04.01.09.02.13.03"/>
    <path class="st22" d="M39.58,53.41s-.06-.01-.08-.02c.03,0,.05.01.08.02M39.37,53.36s-.05-.01-.08-.02h0s.03,0,.08.02"/>
    <path class="st12" d="M39.74,53.24c-.08-.01-.15-.03-.22-.04.07.02.15.03.22.04M39.44,53.18c-.05-.01-.1-.02-.13-.03.04.01.09.02.13.03"/>
    <path class="st22" d="M39.52,53.2s-.06-.01-.08-.02c.03,0,.05.01.08.02M39.31,53.15s-.05-.01-.08-.02h0s.03,0,.08.02"/>
    <path class="st12" d="M39.93,53.21c-.08-.01-.15-.03-.21-.04.07.02.14.03.21.04M39.63,53.16s-.1-.02-.13-.03c.04.01.08.02.13.03"/>
    <path class="st22" d="M39.72,53.17l-.08-.02s.05.01.08.02M39.51,53.13s-.05-.01-.07-.02.03,0,.08.02h0Z"/>
    <path class="st11" d="M37.9,53.81c-.06-.85,2.4.18,3.21.2.65.02,2.59-.13,2.77-.19,1.36-.5-.08,1.43-2.81,1.53-1.25.05-3.13-1.02-3.17-1.54h0Z"/>
    <path class="st9" d="M46.03,51.76c-1.56-.29-4.86.02-4.86.02-2.72.45-4.84-.03-4.86-.01-.06,0,2.17,2.94,4.82,2.81,2.65.14,4.96-2.81,4.9-2.82"/>
    <path class="st21" d="M42.74,51.14c-.7-.08-1.21.43-1.57.39-.37.03-.85-.29-1.55-.3-1-.01-1.48-.1-3.31.54.06.12,1.23.79,3.42.83.03,0,.62.33,1.45.32.52,0,1.24-.35,1.27-.35,2.19-.03,3.53-.68,3.59-.8-2.41-.74-2.22-.65-3.3-.64"/>
    <path class="st16" d="M60.04,31.04c0,.74-.08,1.95-.21,2.88-.07.6-.17,1.07-.26,1.27-.11.23-.86,2.37-.92,3.2-.36.35-.76.81-1.03,1.56-.56,1.51-.78,1.25-.78,1.25,0,0,.18-1.19.38-2.65.12-1.23.28-3.05.41-4.62.01-.22.04-.44.05-.64-.25-1.27-2.57-7.33-13.58-6.76-1.77.09-3.57-.6-4.96-1.32-1.44-.74-2.45-1.53-2.54-1.53-.49,0-4.89-.84-7.48,1.14-.17.12-.32.25-.46.39-3.07,2.74-3.5,7.49-3.5,8.43,0,.09,0,.18.01.29.08,1.96-.13,7.29-.13,7.29,0,0-.98.38-1.55-1.12-.32-.88.95-1.53.54-1.89-.62-1.33-.96-1.75-1.27-3.01-.08-.35-.34-.69-.61-1.27-.59-1.19-1.26-3.39-.55-8.73.04-.24.07-.49.11-.74.54-3.65,3.24-11.84,10.36-13.3,7.12-1.47,8.77-3.17,14.59-.73,5.82,2.43,9.49,4.15,11.28,8.17.81,1.84,1.32,4.31,1.63,6.6.39,2.74.5,5.18.5,5.85h0Z"/>
    <path class="st6" d="M25.52,40.91c.58,4.89,1,8.69-1.38,8.92-2.38.23-4.79-3.54-5.37-8.43-.58-4.89.88-9.05,3.26-9.29,2.38-.23,2.91,3.91,3.49,8.8h0Z"/>
    <path class="st16" d="M23.56,41.15c.54,4.51.92,8-1.27,8.21-2.2.22-4.41-3.26-4.94-7.76-.53-4.51.81-8.33,3-8.55,2.2-.22,2.68,3.6,3.21,8.1h0Z"/>
    <path class="st6" d="M55.81,40.91c-.58,4.89-1,8.69,1.38,8.92,2.38.23,4.79-3.54,5.37-8.43.58-4.89-.88-9.05-3.26-9.29-2.38-.23-2.91,3.91-3.49,8.8h0Z"/>
    <path class="st7" d="M57.74,12.28c-3.71-3.92-9.45-5.89-17.1-5.87-7.65-.02-13.39,1.95-17.1,5.87-4.47,4.72-5.59,11.9-3.26,20.73l1.42-.28c-2.19-8.33-1.14-15.29,2.96-19.64,3.42-3.61,8.81-5.44,15.98-5.41,7.17-.02,12.56,1.8,15.98,5.41,4.11,4.35,5.16,11.31,2.96,19.64l1.42.28c2.34-8.83,1.21-16-3.26-20.73h0Z"/>
    <path class="st16" d="M57.77,41.15c-.54,4.51-.92,8,1.27,8.21,2.2.22,4.41-3.26,4.94-7.76.53-4.51-.81-8.33-3-8.55-2.2-.22-2.68,3.6-3.21,8.1h0Z"/>
    <path class="st17" d="M29.98,63.89c-2.57,1.39-5.65,4.23-6.96,10.06,0,0,0,.01,0,.02-.17.77.34,1.53,1.16,1.72l3.38.79v3.52h12.74v-10.83c-5.02-.45-8.77-3.7-10.31-5.27"/>
    <path class="st1" d="M38.33,65.08l-4.34-2.49s-1.82.11-4.02,1.3c1.54,1.57,5.28,4.81,10.31,5.26v-3.37c-.68-.12-1.34-.35-1.95-.7"/>
    <path class="st17" d="M59.92,73.96s0-.01,0-.01c-.76-3.5-2.61-7.67-7.02-9.97-3.64,3.42-7.08,4.87-10.16,5.18v10.84h12.57v-3.52l3.45-.81c.81-.19,1.33-.94,1.16-1.71"/>
    <path class="st1" d="M48.85,62.58l-4.49,2.53c-.51.29-1.06.49-1.62.62v3.41c3.08-.31,6.52-1.76,10.16-5.17-1.16-.61-2.5-1.09-4.04-1.39h0Z"/>
    <path class="st6" d="M40.28,73.62h2.46v6.37h-2.46v-6.37Z"/>
  </g>
</svg>