<?xml version="1.0" encoding="UTF-8"?>
<svg id="Layer_2" xmlns="http://www.w3.org/2000/svg" version="1.1" xmlns:xlink="http://www.w3.org/1999/xlink" viewBox="0 0 80 80">
  <!-- Generator: Adobe Illustrator 30.2.1, SVG Export Plug-In . SVG Version: 2.1.1 Build 1)  -->
  <defs>
    <style>
      .st0 {
        fill: #452a16;
      }

      .st1 {
        fill: #b5977b;
      }

      .st2 {
        fill: #c7a784;
      }

      .st3 {
        fill: #ebece9;
        opacity: .55;
      }

      .st3, .st4, .st5 {
        isolation: isolate;
      }

      .st6 {
        fill: #43331b;
      }

      .st7 {
        fill: #fff;
      }

      .st8 {
        fill: #af8f76;
      }

      .st9 {
        fill: #af4a75;
      }

      .st10 {
        fill: #a4876f;
      }

      .st11 {
        fill: #e9d3af;
      }

      .st12 {
        fill: none;
      }

      .st13 {
        fill: #171500;
      }

      .st14 {
        fill: #b4b1ad;
      }

      .st15 {
        fill: #71391e;
      }

      .st16 {
        fill: #b19076;
      }

      .st17 {
        fill: #862e2b;
      }

      .st18 {
        fill: #ceb495;
      }

      .st19 {
        fill: #d3b697;
      }

      .st4 {
        fill: url(#linear-gradient);
      }

      .st4, .st5 {
        opacity: .54;
      }

      .st20 {
        fill: #b39176;
      }

      .st5 {
        fill: url(#linear-gradient1);
      }

      .st21 {
        fill: #d6c09e;
      }

      .st22 {
        fill: #d7be9a;
      }

      .st23 {
        fill: #e8d2ae;
      }

      .st24 {
        fill: #bc9e80;
      }

      .st25 {
        clip-path: url(#clippath);
      }

      .st26 {
        fill: #282211;
      }
    </style>
    <clipPath id="clippath">
      <rect class="st12" x="36.68" y="55.41" width="8.99" height="5.31"/>
    </clipPath>
    <linearGradient id="linear-gradient" x1="1202.34" y1="-4.75" x2="1203.87" y2="-50.62" gradientTransform="translate(-288.71 30.01) scale(.27 -.27)" gradientUnits="userSpaceOnUse">
      <stop offset="0" stop-color="#fff"/>
      <stop offset="1" stop-color="#171500"/>
    </linearGradient>
    <linearGradient id="linear-gradient1" x1="1263.65" y1="-2.71" x2="1265.18" y2="-48.59" gradientTransform="translate(-288.71 30.01) scale(.27 -.27)" gradientUnits="userSpaceOnUse">
      <stop offset="0" stop-color="#fff"/>
      <stop offset="1" stop-color="#171500"/>
    </linearGradient>
  </defs>
  <g id="RÈteg_1">
    <path class="st9" d="M0,0h80v79.95H0V0Z"/>
    <path class="st22" d="M41.14,49.95v30.04h-16.23c-.26-.11-.4-.16-.4-.16,0-3.84.56-6.82,1.42-9.16,2.07-5.63,5.85-7.42,7.59-7.96.57-.18.92-.22.92-.22.06,0,.12,0,.18-.02.51-.08.92-.53,1.26-1.24.25-.53.45-1.2.62-1.98.07-.3.12-.61.17-.94.08-.55.16-1.14.22-1.75.03-.37.07-.73.1-1.11.14-1.84.18-3.85.18-5.75,0,0,2.18.22,3.95.22h0Z"/>
    <path class="st23" d="M57.83,79.84s-.14.05-.38.16h-16.31v-30.04h.04c1.76,0,3.96-.22,3.96-.22,0,1.89.04,3.88.18,5.71.04.36.08.73.1,1.09.07.63.15,1.23.24,1.78h0c.03.27.08.49.12.73.16.78.36,1.47.59,2.02.29.69.65,1.17,1.08,1.36.14.06.28.09.43.09,0,0,.63.07,1.56.44,1.91.75,5.12,2.72,6.96,7.73.86,2.33,1.42,5.32,1.42,9.16h0Z"/>
    <g class="st25">
      <path class="st1" d="M45.67,58.26h0c-.41.64-1.78,2.46-4.5,2.46h-.03c-2.58-.01-4.08-1.88-4.46-2.43.08-.55.16-1.13.22-1.73.03-.35.07-.72.11-1.1,1.25.31,2.63.51,4.08.54h.05c1.5-.03,2.89-.24,4.18-.58.04.35.08.72.11,1.08.07.63.14,1.22.24,1.77"/>
    </g>
    <path class="st2" d="M40.95,15.72c-17.19,0-17.28,14.39-16.52,23.81-1.18-2.24-4.67-1.55-4.39,1.97.28,3.39,5.28,5.12,5.14,4.75,2.6,6.97,9.49,12.22,15.77,12.22h.13V15.72h-.13"/>
    <path class="st10" d="M21.15,40.02c.84-1.37,2.16-.78,2.48-.47.34.33.62.75.41,1.55-.12.46-.59.5-.49,1.18.13.78.49.81.7,1,.2.17.45.3.57.63.13.33.14.67.08.97-.13.55-.94.1-1.48-.13-.36-.17-1.49-1.13-1.78-1.45-.71-.81-1.06-2.39-.49-3.29"/>
    <path class="st19" d="M41.05,15.72c17.19,0,17.28,14.39,16.53,23.81,1.18-2.24,4.66-1.55,4.37,1.97-.26,3.39-5.27,5.12-5.14,4.75-2.54,6.97-9.49,12.22-15.77,12.22h-.09l-.04-42.75h.13"/>
    <path class="st10" d="M60.86,40.02c-.84-1.37-2.15-.78-2.48-.47-.34.33-.61.75-.41,1.55.12.46.59.5.49,1.18-.13.78-.49.81-.69,1-.2.17-.46.3-.58.63-.12.33-.14.67-.08.97.13.55.94.1,1.48-.13.37-.17,1.49-1.13,1.78-1.45.73-.81,1.06-2.39.49-3.29"/>
    <path class="st22" d="M40.82,19.78c-5.65,0-9.8,1.64-12.29,4.88-3.5,4.54-3.37,11.45-2.09,16.41.4,1.53.61,5.61.87,7.11,1.23,6.72,8.64,10.29,13.51,10.29h.13V19.78h-.08"/>
    <path class="st23" d="M53.1,24.67c-2.48-3.22-6.58-4.86-12.15-4.89v38.69c5.57-.07,12.24-3.98,13.38-10.29.28-1.5.48-5.59.87-7.11,1.29-4.95,1.43-11.86-2.1-16.4"/>
    <path class="st12" d="M40.26,50.2c-.08-.01-.15-.03-.21-.04.07.02.14.03.21.04M39.97,51.59s-.1-.02-.13-.03c.04.01.09.02.13.03"/>
    <path class="st16" d="M40.05,51.61l-.08-.02s.05.01.08.02M39.84,51.56s-.05-.01-.07-.02h0s.03,0,.07.02"/>
    <path class="st19" d="M37.67,46.87c-.06-1.34,2.45-.49,3.28-.45.65.03,2.65-.42,2.82-.3,1.17.79-1.24,2.39-2.86,2.39-.43,0-3.2-.83-3.24-1.64h0Z"/>
    <path class="st12" d="M25.54,31.84c-.15.51-.26,1.07-.33,1.67,0,0,.23-.94.73-2.34-.21.3-.36.54-.39.67"/>
    <path class="st6" d="M36.15,19.87l-.07.07v.02s.05-.07.07-.1h0Z"/>
    <path class="st12" d="M40.32,50.87c-.08-.01-.15-.03-.22-.04.07.02.15.03.22.04M40.01,50.81c-.05-.01-.1-.02-.13-.03.04.01.09.02.13.03"/>
    <path class="st8" d="M40.1,50.83s-.06-.01-.08-.02c.03,0,.05.01.08.02M39.88,50.78s-.05-.01-.07-.02h0s.03,0,.08.02"/>
    <path class="st7" d="M28.62,34.88s1.31,5.39,3.56,5.83,4.69-.43,4.69-.43c0,0,.23-6.33-.92-7.16-1.15-.83-3.81-2.03-7.33,1.77h0Z"/>
    <path class="st18" d="M36.87,40.26s-.05.02-.17.06c-.03-1.94-.21-4.61-.93-5.12-1.07-.78-3.49-1.89-6.72,1.13-.29-.84-.44-1.47-.44-1.47,3.53-3.8,6.19-2.61,7.33-1.77,1.15.83.92,7.17.92,7.17"/>
    <ellipse class="st0" cx="33.32" cy="37.51" rx="2.22" ry="2.22"/>
    <path class="st15" d="M33.22,38.99c-.64-.05-1.13-.7-1.07-1.41.06-.71.65-1.27,1.29-1.21s1.13.7,1.07,1.41c-.06.71-.65,1.27-1.29,1.21h0Z"/>
    <path class="st26" d="M33.28,38.73c-.45-.04-.91-.53-.86-1.13.05-.61.59-1.01,1.03-.98s.91.53.86,1.13-.59,1.01-1.03.97h0Z"/>
    <path class="st7" d="M32.92,37.25c-.02.22-.24.38-.5.35-.26-.02-.45-.22-.43-.43.02-.22.24-.38.5-.36s.45.22.43.43M34.35,38.51c-.01.11-.12.19-.25.18s-.22-.11-.22-.22c0-.11.12-.19.25-.18.13.01.23.11.22.22"/>
    <path class="st12" d="M40.35,51.5c-.08-.01-.15-.03-.22-.04.07.02.15.03.22.04M40.05,51.44c-.05-.01-.1-.02-.13-.03.04.01.09.02.13.03"/>
    <path class="st8" d="M40.13,51.46s-.06-.01-.08-.02c.03,0,.05.01.08.02M39.92,51.41s-.05-.01-.07-.02h0s.03,0,.08.02"/>
    <path class="st12" d="M40.26,51.35c-.09-.02-.17-.03-.23-.05.08.02.15.03.23.05M39.94,51.29c-.05-.01-.11-.02-.14-.03.05.01.09.02.14.03"/>
    <path class="st16" d="M40.03,51.31s-.06-.01-.09-.02c.03,0,.06.01.09.02M39.8,51.26s-.05-.02-.08-.02h0s.03.01.08.02"/>
    <path class="st12" d="M40.2,51.13c-.09-.02-.17-.03-.24-.05.08.02.16.03.24.05M39.87,51.07c-.05-.01-.11-.02-.14-.03.05.01.09.02.14.03"/>
    <path class="st16" d="M39.97,51.08s-.06-.01-.09-.02c.03,0,.06.01.09.02M39.73,51.03s-.05-.02-.08-.02h0s.03.01.08.02"/>
    <path class="st12" d="M40.4,51.1c-.08-.01-.16-.03-.23-.04.08.02.15.03.23.04M40.08,51.03c-.05-.01-.1-.02-.14-.03l.14.03Z"/>
    <path class="st16" d="M40.17,51.05s-.06-.01-.09-.02c.03,0,.05.01.09.02M39.95,51s-.05-.01-.08-.02h0s.03,0,.08.02"/>
    <path class="st7" d="M53.42,34.7s-1.31,5.39-3.56,5.83c-2.25.44-4.69-.43-4.69-.43,0,0-.23-6.33.92-7.16,1.15-.83,3.81-2.03,7.33,1.77"/>
    <path class="st18" d="M45.16,40.07s.05.02.17.06c.03-1.94.21-4.61.93-5.12,1.07-.78,3.49-1.89,6.72,1.13.29-.84.44-1.47.44-1.47-3.53-3.8-6.19-2.61-7.33-1.77-1.15.83-.92,7.17-.92,7.17"/>
    <path class="st0" d="M46.5,37.33c0,1.22.99,2.22,2.22,2.22s2.22-.99,2.22-2.22-.99-2.22-2.22-2.22-2.22.99-2.22,2.22"/>
    <path class="st15" d="M48.82,38.81c.64-.05,1.13-.7,1.07-1.41s-.65-1.27-1.29-1.21c-.64.05-1.13.7-1.07,1.41.06.71.65,1.27,1.29,1.21h0Z"/>
    <path class="st26" d="M48.76,38.55c.45-.04.91-.53.86-1.13-.05-.61-.59-1.01-1.03-.98s-.91.53-.86,1.13.59,1.01,1.03.97h0Z"/>
    <path class="st7" d="M49.12,37.06c.02.22.24.38.5.35.26-.02.45-.22.43-.43-.02-.22-.24-.38-.5-.36s-.45.22-.43.43M47.69,38.32c.01.11.12.19.25.18s.22-.11.22-.22c0-.11-.12-.19-.25-.18s-.23.11-.22.22"/>
    <path class="st13" d="M38.22,34.79s-.42-.65-1.26-1.29c-.52-.4-1.04-.71-1.57-.94-.65-.27-1.34-.46-2.02-.56-.61-.07-1.29-.05-2.08.06-.6.11-1.19.29-1.69.51-.36.12-.64.3-.86.43-.09.05-.17.1-.24.14l-1.08.68,1.24-.29c.06-.01.12-.03.19-.05.26-.07.57-.15.95-.21.09-.01.18-.03.27-.05.15-.03.32-.06.49-.07.19-.01.38-.03.58-.04l.26-.02c.69,0,1.27.04,1.78.16.56.1,1.14.28,1.67.53.5.24.98.48,1.36.75.76.51,1.18.93,1.18.93.1.1.24.16.38.16.1,0,.2-.03.29-.09.25-.16.32-.5.16-.74v-.02s0,0,0,0ZM53.64,33.15c-.07-.04-.15-.09-.24-.14-.22-.14-.51-.31-.85-.43-.51-.22-1.1-.4-1.71-.52-.78-.1-1.46-.12-2.07-.06-.67.09-1.37.29-2.01.56-.52.22-1.05.54-1.57.94-.82.63-1.23,1.24-1.26,1.29h0c-.14.22-.11.51.07.69.1.1.24.16.38.16s.28-.06.38-.16h0s.45-.45,1.18-.94c.37-.27.85-.51,1.35-.75.53-.25,1.11-.43,1.68-.53.51-.12,1.09-.17,1.77-.16l.27.02c.2.01.39.03.58.04.17,0,.33.04.48.07.09.02.18.03.27.05.37.06.69.14.95.21.07.02.13.03.19.05l1.24.29-1.08-.68h0Z"/>
    <path class="st12" d="M39.97,52.14c-.08-.01-.16-.03-.23-.04.08.02.15.03.23.04M39.66,52.08c-.05-.01-.1-.02-.14-.03.05.01.09.02.14.03"/>
    <path class="st20" d="M39.74,52.1s-.06-.01-.09-.02c.03,0,.05.01.09.02M39.52,52.05s-.05-.01-.08-.02h0s.03,0,.08.02"/>
    <path class="st11" d="M37.77,53.21c-.06-.87,2.41.18,3.22.21.65.02,2.59-.13,2.78-.2,1.36-.51-.07,1.45-2.82,1.55-1.26.05-3.15-1.04-3.18-1.56h0Z"/>
    <path class="st21" d="M45.83,51.54c-.67-.03-1.36.53-2.17.44-.03-.02-.05-.02-.08-.02-.18-.03-.37,0-.57.05-.25.05-.51.15-.74.24-.4.13-.86.24-1.33.2s-.02,0-.03,0-.02,0-.03,0c-.47.03-.92-.07-1.33-.2-.24-.08-.49-.18-.74-.24-.2-.05-.38-.08-.57-.05-.03,0-.05,0-.08.02-.81.09-1.5-.47-2.17-.44-.19.02-.45-.03-.61-.03.03.02.07.03.1.05,1.92.93,3.57,2.69,5.4,2.63h.05c1.83.06,3.48-1.69,5.4-2.63.03-.02.07-.03.1-.05-.15,0-.42.05-.61.03"/>
    <path class="st24" d="M46.39,51.49s-1.95-.75-3.33-.31c0,0-.52.2-1.05.32-.33.13-.72.16-1.1.15-.29-.01-.57-.05-.8-.09-.07-.01-.15-.03-.23-.04-.03,0-.06-.01-.09-.02-.05-.01-.09-.02-.14-.03-.05-.01-.08-.02-.08-.02h0c-.44-.12-.82-.27-.82-.27-1.38-.44-3.33.31-3.33.31l-.04.02c.15,0,.42.05.61.03.67-.03,1.36.53,2.17.44.03-.02.05-.02.08-.02.18-.03.37,0,.57.05.25.05.51.15.74.24.4.13.86.24,1.33.2s.02,0,.03,0,.02,0,.03,0c.47.03.92-.07,1.33-.2.24-.08.49-.18.74-.24.2-.05.38-.08.57-.05.03,0,.05,0,.08.02.81.09,1.5-.47,2.17-.44.18.02.45-.03.61-.03l-.04-.02Z"/>
    <path class="st24" d="M37.64,51.94s3.65,1.11,6.48.02l-.33-.22h-3.82l-2.33.19Z"/>
    <path class="st17" d="M55.27,72.65h2.63c-.16-1.75-1.96-6.03-1.96-6.03-.18-.27-.37-.52-.56-.76-2.58-3.26-5.62-4.07-6.5-4.25-2.03,2.67-3.93,4.07-5.66,4.65-4.68,1.57-8.08-2.88-9.22-4.66-.34.06-1.07.24-1.99.65-1.47.66-3.44,1.93-5.11,4.36,0,0-.02.03-.04.08-.27.5-1.77,3.34-2.39,5.95h3.11c.04,3.42-.05,5.96-.14,7.34h27.96c-.04-.62-.08-1.47-.11-2.53-.03-1.31-.05-2.93-.03-4.82h0Z"/>
    <path class="st4" d="M39.62,36.48c0,.83-.24,1.69-.65,2.52-1.43,2.91-4.9,5.52-7.36,5.52-2.77,0-5.02-2.27-5.52-5.35-.07-.42-.1-.86-.1-1.31,0-3.39,1.99-5.03,6.1-5.03,3.81,0,7.54.27,7.54,3.65h0Z"/>
    <path class="st5" d="M56.02,37.82v.03c0,3.73-2.47,6.66-5.64,6.66-2.51,0-6.11-2.75-7.46-5.75-.34-.76-.54-1.54-.54-2.29,0-3.38,3.73-3.65,7.54-3.65,4.08,0,6.08,1.63,6.1,5h0Z"/>
    <path class="st3" d="M38.97,39c-1.43,2.91-4.9,5.52-7.36,5.52-2.77,0-5.02-2.27-5.52-5.35,4.01-.78,8.37-.98,12.88-.16h0ZM56.02,37.82v.03c0,3.73-2.47,6.66-5.64,6.66-2.51,0-6.11-2.75-7.46-5.75,4.05-.93,8.47-1.39,13.1-.95h0Z"/>
    <path class="st7" d="M49.92,32.6c-2.13,0-4.63.05-6.19,1-3.2.9-5.43.01-5.43.01-1.59-.97-4.09-1.01-6.22-1.01-3.97,0-6.31,1.5-6.31,5.25s2.46,6.89,5.85,6.89c3,0,7.14-3.56,8.03-6.97h0c.11-.45.18-.88.18-1.3v-.02c.2-.59.59-.84,1.16-.84s.97.24,1.17.85h0c0,.41.07.84.17,1.26v.05h.01c.9,3.41,5.02,6.97,8.02,6.97,3.39,0,5.86-3.14,5.86-6.89s-2.34-5.25-6.32-5.25M31.62,44.52c-3.16,0-5.64-2.93-5.64-6.66,0-3.39,2-5.03,6.1-5.03,3.82,0,7.54.27,7.54,3.65,0,.33-.05.67-.11,1-.03.09-.06.18-.06.18-.9,3.46-5.02,6.86-7.83,6.86M41,35.07c-.76,0-1.09.22-1.23.68-.13-.76-.47-1.33-.98-1.77,1.79.53,3.79.15,4.42,0-.53.47-.89,1.09-.99,1.93-.14-.48-.44-.84-1.22-.84h0ZM50.38,44.52c-3.15,0-8-4.32-8-8.04,0-3.38,3.73-3.65,7.54-3.65,4.1,0,6.1,1.64,6.1,5.03,0,3.73-2.47,6.66-5.64,6.66h0Z"/>
    <path class="st7" d="M46.53,9.25l2.31,1.21c-4.89-1.49-9.93-.45-12.24.21-.84.18-1.31.42-1.31.42.2,0,.41,0,.62.01.71.04,1.85.19,2.53.7-1.02-.41-2.77-.56-5.71.57-.41.16-.79.33-1.14.5-1.25.54-3.75,1.62-8.56,3.66,0,0,1.59.61,3.47.82-.9,1.05-1.84,1.96-3.41,2.43-4.09,1.25-5.28-.35-5.28-.35,0,0,1.77,2.81,4.93,2.82.51,0,.56-.01.56-.01,0,.01-1.18,3.02-1.41,5.27-.23,2.3.49,3.87.71,8.17.19,3.67,1.23,1.79,2.46,4.5.42.91.44,1.93.44,1.93.46.11,1.66-2.2.8-6.22-.56-2.61,2.22-12.49,8.91-10.56.94.27,1.72.61,2.39.94,1.63.82,15.02,7.95,10.13,19.37,0,0,5.11-8.02,4.23-16.49.68,1.92,1.16,4.6,1.23,8.36,0,0,2.59-5.28,1.33-10.5,1.44,1.79,2.15,4.52,1.8,8.26-.61,6.66.54,6.61.54,6.61.34,0-.02-1.77,1.13-3,1.15-1.22,2.9-5.34,2.9-9.44,1.22-20.18-14.35-20.19-14.35-20.19h0Z"/>
    <path class="st14" d="M56.12,53.78c-.16-.87-.24-1.37-.25-1.72h-.16c.54-.87.94-1.79,1.21-2.76h0s.02-.1.03-.15c.1-.39.18-.78.23-1.18.48-3.13.01-6.77-.52-9.48h-.32c-.94,2.5-1.52,5.59-1.52,5.59,0,0-.48.81-.58,1.17-.32,1.15-.59,1.97-.69,2.25-1.24,3.17-3.46,5.76-6.24,7.36.19-.62.3-1.32.3-2.07,0-1.8-.6-3.33-1.46-4.01-1.1-1.51-3.04-.06-5.26,0-2.23-.04-4.17-1.66-5.28-.14-.86.68-1.46,2.22-1.46,4.01,0,.75.11,1.45.3,2.07-2.79-1.6-5-4.19-6.24-7.36-.09-.27-.36-1.1-.69-2.25-.1-.36-.58-1.17-.58-1.17,0,0-.59-3.09-1.52-5.59s-.32,0-.32,0c-.54,2.71-1,6.35-.52,9.48.05.4.13.79.23,1.18.01.05.02.1.03.15h0c.27.96.67,1.89,1.21,2.75h-.16c-.01.35-.09.85-.25,1.72-.43,2.39-1.72,3.01-1.72,3.01,0,0,1.99-.91,2.47-1.53.23-.3.85-1.12,1.04-1.38,0,0,.01.01.02.02-.11.27-.37,1.16,0,2.87.48,2.24,2.46,3.75,2.46,3.75,0,0-1.18-1.78-.86-3.73,0,0-.07.78,1.86,2.95,1.84,2.08,5.2,10.23,5.5,10.26-.03-.07-.06-3.03-.09-3.91.14.05.28.11.42.21v.05s.03-.01.05-.02c1.26.84,2.57,3.18,3.92,3.18.05,0,.1,0,.16,0v.15c.06,0,.11,0,.17,0,1.52,0,2.99-2.96,4.39-3.42-.02.88-.06,3.84-.09,3.91.3-.03,3.66-8.18,5.5-10.26,1.93-2.17,1.86-2.95,1.86-2.95.33,1.95-.86,3.73-.86,3.73,0,0,1.98-1.51,2.46-3.75.37-1.71.11-2.6,0-2.87,0,0,.01-.01.02-.02.19.26.81,1.08,1.04,1.38.48.62,2.47,1.53,2.47,1.53,0,0-1.29-.63-1.72-3.01h0ZM45.64,55.16c-.46.26-1.01.49-1.63.66,0-.01,0-.02,0-.03,0-.67-1.4-1.36-3.13-1.37-1.74,0-3.14.55-3.14,1.22,0,.01,0,.02,0,.03-.62-.18-1.17-.4-1.63-.66-.24-.68-.39-1.49-.39-2.36,0-.24.01-.47.03-.69.94-1.18,2.41.14,4.1-.12.33-.05.67-.08,1.01-.09.35,0,.69.18,1.03.23,1.7.26,3.16-1.06,4.1.12.02.23.03.46.03.69,0,.87-.15,1.68-.39,2.36h0Z"/>
  </g>
</svg>