<?xml version="1.0" encoding="UTF-8"?>
<svg id="Layer_1" xmlns="http://www.w3.org/2000/svg" version="1.1" xmlns:xlink="http://www.w3.org/1999/xlink" viewBox="0 0 80 80">
  <!-- Generator: Adobe Illustrator 30.2.1, SVG Export Plug-In . SVG Version: 2.1.1 Build 1)  -->
  <defs>
    <style>
      .st0 {
        fill: #dac6a4;
      }

      .st1 {
        fill: #b5957e;
      }

      .st2 {
        fill: #b8987d;
      }

      .st3 {
        fill: #ccad8a;
      }

      .st4 {
        fill: #ecdab6;
      }

      .st5 {
        fill: #d7bd9d;
      }

      .st6 {
        fill: #435975;
      }

      .st7 {
        fill: #fff;
      }

      .st8 {
        fill: #272213;
      }

      .st9 {
        fill: #b7967d;
      }

      .st10 {
        fill: none;
      }

      .st11, .st12, .st13, .st14 {
        isolation: isolate;
      }

      .st15 {
        fill: #544e4d;
      }

      .st16 {
        fill: #d2bb9b;
      }

      .st17 {
        fill: #ba9d82;
      }

      .st18 {
        fill: #dcc5a0;
      }

      .st19 {
        fill: #3f3a37;
      }

      .st20 {
        fill: #8f9daa;
      }

      .st21 {
        fill: #4a473e;
      }

      .st22 {
        fill: #8c6446;
      }

      .st23 {
        fill: #2d2e28;
      }

      .st24 {
        fill: #4c4745;
      }

      .st12 {
        fill: url(#linear-gradient);
      }

      .st12, .st13 {
        mix-blend-mode: multiply;
        opacity: .12;
      }

      .st13 {
        fill: url(#linear-gradient1);
      }

      .st25 {
        fill: #c1a587;
      }

      .st26 {
        fill: #44361f;
      }

      .st27 {
        fill: #678dc5;
      }

      .st28 {
        fill: #986b4e;
      }

      .st29 {
        fill: #bfb2cd;
      }

      .st30 {
        fill: #a98d76;
      }

      .st31 {
        fill: #37322f;
      }

      .st32 {
        clip-path: url(#clippath);
      }

      .st14 {
        fill: #eff0f0;
        opacity: .55;
      }

      .st33 {
        fill: #ebd9b5;
      }
    </style>
    <clipPath id="clippath">
      <rect class="st10" x="36.46" y="54.12" width="8.75" height="5.15"/>
    </clipPath>
    <linearGradient id="linear-gradient" x1="790.12" y1="-122.24" x2="789.74" y2="-109.63" gradientTransform="translate(-252.87 11.92) scale(.36 -.36)" gradientUnits="userSpaceOnUse">
      <stop offset="0" stop-color="#fff"/>
      <stop offset=".09" stop-color="#f7f7f7"/>
      <stop offset=".22" stop-color="#e4e4e4"/>
      <stop offset=".37" stop-color="#c3c3c3"/>
      <stop offset=".54" stop-color="#969696"/>
      <stop offset=".73" stop-color="#5c5c5c"/>
      <stop offset=".94" stop-color="#171717"/>
      <stop offset="1" stop-color="#000"/>
    </linearGradient>
    <linearGradient id="linear-gradient1" x1="849.31" y1="-121.78" x2="848.15" y2="-113.92" gradientTransform="translate(-252.87 11.92) scale(.36 -.36)" gradientUnits="userSpaceOnUse">
      <stop offset="0" stop-color="#fff"/>
      <stop offset=".09" stop-color="#f7f7f7"/>
      <stop offset=".22" stop-color="#e4e4e4"/>
      <stop offset=".37" stop-color="#c3c3c3"/>
      <stop offset=".54" stop-color="#969696"/>
      <stop offset=".73" stop-color="#5c5c5c"/>
      <stop offset=".94" stop-color="#171717"/>
      <stop offset="1" stop-color="#000"/>
    </linearGradient>
  </defs>
  <g class="st11">
    <g id="Layer_2">
      <g id="Layer_1-2">
        <path class="st29" d="M0,0h80v79.73H0V0Z"/>
        <path class="st18" d="M40.46,48.84v31.16h-20.88c-.34-.11-.51-.16-.51-.16,0-2.19.22-4.1.59-5.79.32-1.38.73-2.62,1.23-3.71,1.1-2.42,2.58-4.16,4.1-5.41.5-.41,1.01-.77,1.51-1.08.84-.52,1.66-.92,2.4-1.2.38-.15.74-.28,1.07-.37.11-.04.22-.07.33-.1.13-.04.24-.06.35-.09.32-.08.58-.14.78-.16.26-.05.41-.06.41-.06.08,0,.15,0,.23-.02.66-.09,1.19-.55,1.62-1.28.32-.55.59-1.25.8-2.05.09-.32.15-.63.23-.98.1-.57.2-1.18.29-1.81.03-.38.08-.75.14-1.15.18-1.91.23-4,.23-5.97,0,0,2.81.23,5.08.23h0Z"/>
        <path class="st33" d="M61.94,79.84s-.18.06-.49.16h-20.99v-31.16h.06c2.26,0,5.09-.23,5.09-.23,0,1.96.05,4.02.24,5.93.05.37.1.75.14,1.12.09.66.18,1.28.3,1.85h0c.04.27.1.51.15.75.2.81.45,1.53.76,2.09.38.71.83,1.21,1.39,1.41.18.06.36.1.56.1.3,0,.1.01.28.04.29.05.78.14,1.42.32.1.03.2.06.3.09.06.02.11.04.17.06.15.05.3.1.45.16.78.29,1.67.69,2.6,1.26.35.21.71.45,1.07.71h0c1.71,1.27,3.43,3.12,4.67,5.84.48,1.05.89,2.24,1.2,3.57.4,1.72.62,3.68.62,5.93h0Z"/>
        <g class="st32">
          <path class="st17" d="M45.22,56.89h0c-.4.63-1.73,2.39-4.38,2.39h-.03c-2.51-.01-3.97-1.83-4.34-2.36.08-.53.15-1.1.22-1.68.03-.35.06-.7.1-1.07,1.22.31,2.56.5,3.97.52h.05c1.47-.02,2.82-.23,4.07-.56.04.35.08.7.1,1.04.06.61.14,1.19.23,1.72"/>
        </g>
        <path class="st3" d="M40.63,15.6c-16.73,0-16.82,13.97-16.08,23.11-1.14-2.17-4.55-1.5-4.27,1.91.27,3.29,5.14,4.97,5,4.6,2.53,6.76,9.24,11.86,15.35,11.86h.13V15.6h-.13"/>
        <path class="st30" d="M21.35,39.18c.82-1.33,2.11-.75,2.41-.46.33.32.61.73.4,1.5-.11.45-.58.48-.48,1.15.13.75.48.79.68.97.19.17.44.29.55.61.13.32.14.65.08.94-.13.53-.91.1-1.44-.13-.35-.16-1.45-1.1-1.73-1.4-.69-.79-1.03-2.32-.48-3.19"/>
        <path class="st5" d="M40.72,15.6c16.73,0,16.82,13.97,16.09,23.11,1.14-2.17,4.54-1.5,4.26,1.91-.26,3.29-5.13,4.97-5,4.6-2.47,6.76-9.24,11.86-15.35,11.86h-.09l-.04-41.49h.13"/>
        <path class="st30" d="M59.99,39.18c-.82-1.33-2.1-.75-2.42-.46-.33.32-.59.73-.4,1.5.11.45.58.48.48,1.15-.13.75-.48.79-.67.97-.19.17-.45.29-.57.61-.11.32-.14.65-.08.94.13.53.91.1,1.44-.13.36-.16,1.45-1.1,1.73-1.4.71-.79,1.03-2.32.48-3.19"/>
        <path class="st18" d="M40.49,19.54c-5.5,0-9.54,1.59-11.96,4.73-3.41,4.4-3.28,11.11-2.03,15.93.39,1.48.59,5.45.85,6.9,1.2,6.52,8.4,9.99,13.15,9.99h.13V19.54h-.08"/>
        <path class="st33" d="M52.45,24.28c-2.41-3.12-6.4-4.72-11.82-4.75v37.55c5.42-.06,11.91-3.87,13.02-9.99.27-1.45.46-5.42.85-6.9,1.26-4.81,1.39-11.51-2.04-15.92"/>
        <path class="st10" d="M39.95,49.07c-.08-.01-.15-.02-.21-.04.07.01.14.03.21.04M39.67,50.42s-.09-.02-.13-.03c.04.01.08.02.13.03"/>
        <path class="st9" d="M39.75,50.43s-.05-.01-.08-.02c.03,0,.05.01.08.02M39.54,50.39s-.05-.01-.07-.02.03,0,.07.02"/>
        <path class="st5" d="M37.5,45.56c-.06-1.3,2.39-.47,3.2-.44.64.03,2.58-.41,2.75-.3,1.14.77-1.21,2.32-2.79,2.32-.42,0-3.12-.81-3.16-1.59h0Z"/>
        <path class="st10" d="M25.62,31.25c-.15.5-.25,1.04-.33,1.62,0,0,.22-.92.71-2.27-.21.29-.35.52-.38.65h0Z"/>
        <path class="st26" d="M35.95,19.63l-.07.07v.02s.05-.07.07-.09h0Z"/>
        <path class="st10" d="M40,49.71c-.08-.01-.15-.03-.21-.04.07.01.14.03.21.04M39.71,49.66c-.05-.01-.1-.02-.13-.03.04.01.09.02.13.03"/>
        <path class="st1" d="M39.79,49.67s-.05-.01-.08-.02c.03,0,.05.01.08.02M39.58,49.63s-.05-.01-.07-.02.03,0,.08.02h0Z"/>
        <path class="st7" d="M28.62,35.43s1.28,4.11,3.47,4.45,4.56-.33,4.56-.33c0,0,.23-4.83-.9-5.46-1.12-.63-3.71-1.55-7.14,1.35"/>
        <path class="st16" d="M36.65,39.53s-.05.01-.16.05c-.03-1.48-.2-3.52-.9-3.91-1.04-.6-3.4-1.44-6.54.86-.29-.64-.43-1.12-.43-1.12,3.44-2.9,6.02-1.99,7.14-1.36,1.12.63.9,5.47.9,5.47"/>
        <path class="st27" d="M35.36,37.44c0,.93-.97,1.69-2.16,1.69s-2.16-.76-2.16-1.69.97-1.69,2.16-1.69,2.16.76,2.16,1.69"/>
        <path class="st6" d="M33.1,38.57c-.62-.04-1.1-.53-1.05-1.08.06-.54.63-.97,1.25-.93s1.1.53,1.05,1.08c-.06.54-.63.97-1.25.93"/>
        <path class="st8" d="M33.15,38.37c-.43-.03-.88-.4-.83-.86s.57-.77,1-.75.88.4.83.86-.57.77-1,.74h0Z"/>
        <path class="st7" d="M32.8,37.24c-.02.17-.24.29-.48.27-.25-.02-.44-.16-.42-.33s.23-.29.48-.27c.25.01.44.16.42.33h0ZM34.2,38.2c-.01.08-.12.14-.24.14s-.22-.08-.21-.16c.01-.08.12-.14.24-.14s.22.08.21.16"/>
        <path class="st10" d="M40.04,50.33c-.08-.01-.15-.03-.21-.04.07.01.14.03.21.04M39.75,50.27c-.05-.01-.1-.02-.13-.03.04.01.09.02.13.03"/>
        <path class="st1" d="M39.83,50.29s-.05-.01-.08-.02c.03,0,.05.01.08.02M39.62,50.25s-.05-.01-.07-.02.03,0,.08.02h0Z"/>
        <path class="st10" d="M39.96,50.18c-.08-.01-.16-.03-.23-.04.08.02.15.03.23.04M39.64,50.12c-.05-.01-.1-.02-.14-.03.05.01.09.02.14.03"/>
        <path class="st9" d="M39.73,50.14s-.06-.01-.09-.02c.03,0,.05.01.09.02M39.51,50.09s-.05-.01-.08-.02.03.01.08.02"/>
        <path class="st10" d="M39.89,49.97c-.08-.01-.16-.03-.23-.04.08.02.15.03.23.04M39.58,49.91c-.05-.01-.1-.02-.14-.03.05.01.09.02.14.03"/>
        <path class="st9" d="M39.66,49.92s-.06-.01-.09-.02c.03,0,.05.01.09.02M39.44,49.87s-.05-.01-.08-.02.03.01.08.02"/>
        <path class="st10" d="M40.09,49.93c-.08-.01-.15-.03-.22-.04.08.01.15.03.22.04M39.78,49.88c-.05-.01-.1-.02-.13-.03.04.01.09.02.13.03"/>
        <path class="st9" d="M39.86,49.9s-.06-.01-.08-.02c.03,0,.05.01.08.02M39.65,49.85l-.08-.02s.03.01.08.02h0Z"/>
        <path class="st7" d="M52.76,35.29s-1.28,4.11-3.47,4.45-4.56-.33-4.56-.33c0,0-.23-4.83.9-5.46,1.12-.63,3.71-1.55,7.14,1.35"/>
        <path class="st16" d="M44.72,39.39s.05.01.16.05c.03-1.48.2-3.52.9-3.91,1.04-.6,3.4-1.44,6.54.86.29-.64.43-1.12.43-1.12-3.44-2.9-6.02-1.99-7.14-1.36-1.12.63-.9,5.47-.9,5.47"/>
        <ellipse class="st27" cx="48.18" cy="37.3" rx="2.16" ry="1.69"/>
        <path class="st6" d="M48.28,38.43c.62-.04,1.1-.53,1.05-1.08-.06-.54-.63-.97-1.25-.93s-1.1.53-1.05,1.08c.06.54.63.97,1.25.93"/>
        <path class="st8" d="M48.22,38.23c.43-.03.88-.4.83-.86s-.57-.77-1-.75-.88.4-.83.86.57.77,1,.74h0Z"/>
        <path class="st7" d="M48.58,37.1c.02.17.24.29.48.27.25-.02.44-.16.42-.33s-.23-.29-.48-.27c-.25.01-.44.16-.42.33h0ZM47.18,38.06c.01.08.12.14.24.14s.22-.08.21-.16c-.01-.08-.12-.14-.24-.14s-.22.08-.21.16"/>
        <path class="st22" d="M37.97,35.36s-.42-.5-1.23-.98c-.51-.31-1.01-.54-1.53-.71-.63-.21-1.31-.35-1.96-.42-.59-.05-1.25-.04-2.02.04-.59.09-1.16.22-1.64.39-.35.09-.62.22-.84.33-.08.04-.16.08-.24.11l-1.05.52,1.21-.22c.06-.01.12-.02.18-.04.25-.05.56-.12.92-.16.09-.01.17-.02.26-.04.15-.02.31-.05.47-.05.18-.01.37-.02.57-.03h.25c.67-.02,1.23.02,1.73.11.55.07,1.11.21,1.63.4.49.18.96.36,1.32.57.74.39,1.15.71,1.15.71.1.08.24.12.37.12.1,0,.2-.02.29-.07.24-.12.31-.38.16-.57h-.01s0-.02,0-.02ZM52.97,34.12c-.07-.03-.15-.06-.23-.11-.22-.11-.49-.24-.83-.33-.49-.17-1.07-.31-1.66-.4-.76-.08-1.42-.09-2.02-.04-.65.07-1.33.22-1.96.42-.51.17-1.02.41-1.53.71-.8.48-1.2.95-1.23.98h0c-.14.17-.11.39.07.52.1.08.23.12.37.12s.27-.04.37-.12h0s.44-.34,1.15-.71c.36-.21.83-.39,1.31-.57.52-.19,1.08-.33,1.64-.4.49-.09,1.06-.13,1.72-.12h.27c.19.02.38.04.57.05.16,0,.32.03.47.05.09.01.18.03.26.04.37.04.67.11.92.16.06.01.13.02.18.04l1.21.22-1.06-.52h0Z"/>
        <path class="st10" d="M39.67,50.95c-.08-.01-.16-.03-.22-.04.08.02.15.03.22.04M39.36,50.89c-.05-.01-.1-.02-.14-.03.04.01.09.02.14.03"/>
        <path class="st2" d="M39.45,50.91s-.06-.01-.09-.02c.03,0,.05.01.09.02M39.23,50.86l-.08-.02s.03.01.08.02h0Z"/>
        <path class="st4" d="M37.53,51.99c-.06-.84,2.35.17,3.13.2.63.02,2.53-.12,2.7-.19,1.33-.5-.07,1.41-2.74,1.5-1.22.05-3.06-1.01-3.09-1.52h0Z"/>
        <path class="st0" d="M45.37,50.37c-.66-.03-1.33.51-2.11.43-.03-.01-.05-.01-.08-.01-.18-.03-.36,0-.56.05-.24.05-.49.15-.72.23-.39.13-.83.23-1.29.2s-.01,0-.03,0h-.03c-.45.03-.9-.07-1.29-.2-.23-.08-.48-.18-.72-.23-.2-.05-.38-.08-.56-.05-.03,0-.05,0-.08.01-.79.08-1.46-.46-2.11-.43-.18.01-.44-.03-.59-.03.03.01.06.03.1.05,1.86.91,3.47,2.61,5.25,2.55h.05c1.78.05,3.39-1.64,5.25-2.55.03-.01.07-.03.1-.05-.15,0-.41.05-.59.03"/>
        <path class="st25" d="M45.92,50.32s-1.89-.73-3.24-.3c0,0-.5.2-1.02.31-.32.12-.7.16-1.07.14-.28-.01-.55-.05-.77-.09-.08-.01-.15-.02-.22-.04-.03,0-.06-.01-.09-.02-.05-.01-.09-.02-.14-.03-.05-.01-.08-.02-.08-.02-.43-.12-.8-.26-.8-.26-1.35-.43-3.24.3-3.24.3-.03.01-.04.02-.04.02.15,0,.41.05.59.03.65-.03,1.33.51,2.11.43.03-.01.05-.01.08-.01.18-.03.36,0,.56.05.24.05.49.15.72.23.39.13.83.23,1.29.2s.01,0,.03,0h.03c.45.03.9-.07,1.29-.2.23-.08.48-.18.72-.23.2-.05.38-.08.56-.05.03,0,.05,0,.08.01.79.08,1.46-.46,2.11-.43.18.01.44-.03.59-.03l-.04-.02h0Z"/>
        <path class="st25" d="M37.4,50.76s3.55,1.08,6.3.02l-.32-.21h-3.72l-2.27.19Z"/>
        <path class="st21" d="M56.95,71.48H23.95c1-1.81,2.15-3.85,2.56-7.62.84-.52,1.66-.92,2.4-1.2.38-.15.74-.28,1.07-.37.11-.04.22-.07.33-.1.13-.04.24-.06.35-.09.32-.08.58-.14.78-.16,2.39,2.77,6.62,7.26,8.91,7.28h0s.06,0,.11,0c2.35-.12,6.6-4.6,8.97-7.3.29.05.78.14,1.42.32.1.03.2.06.3.09.06.02.11.04.17.06.15.05.3.1.45.16.78.29,1.67.69,2.6,1.26.42,3.82,1.56,5.86,2.57,7.68M21.86,80h37.18c-.09-1.13-.21-2.73-.34-3.78H22.2c-.13,1.05-.26,2.65-.34,3.78"/>
        <path class="st20" d="M56.95,71.48H23.95c-.76,1.37-1.45,2.62-1.69,4.38-.01.11-.03.23-.05.36h36.49c-.01-.13-.03-.25-.05-.36-.24-1.77-.93-3.01-1.69-4.38h0Z"/>
        <path class="st22" d="M56.13,60.9c-.16-.81-.25-1.27-.26-1.59h-.16c.56-.81.97-1.67,1.25-2.56.01-.05.03-.09.04-.14.1-.36.19.14.24-.24.56-3.33-.14-6.21-.78-8.78.01-1.75-.06-3.63-.23-5.66-.04-.47-.73-.51-.81-.04-.55,2.89-1.84,6.73-4.88,8.46-1.28-1.09-3.6-4.03-7.21-4.56,0,0-1.35.46-2.53.46s-2.2-.46-2.2-.46c-3.81.57-6.53,3.65-7.74,4.73-3.27-1.63-4.63-5.64-5.2-8.63-.09-.47-.77-.43-.81.04-.12,1.38-.19,2.7-.22,3.95-.64,2.15-1.95,6.28-1.24,10.48.05.37.14-.12.24.24.01.05.03.1.04.14.28.9.69,1.75,1.25,2.56h-.16c-.01.32-.1.78-.26,1.59-.45,2.22-1.78,2.8-1.78,2.8,0,0,2.06-.85,2.55-1.42.24-.28.88-1.04,1.07-1.28,0,0,.01.01.02.02-.11.26-.38,1.08,0,2.67.5,2.08,2.54,3.48,2.54,3.48,0,0-.75-1.01-.91-2.33-.03-.26.31-.39.45-.17.28.42.73,1.01,1.49,1.77,1.9,1.93,5.36,4.76,5.67,4.79-.02-.04-.04-1.09-.05-2.09-.01-.56.55-.95,1.07-.75l.2.07c1.04.96,2.12,2.31,3.22,2.31.09,0,.19,0,.28,0,.09,0,.19,0,.28,0,1.01,0,2-1.15,2.97-2.08.16-.05.32-.1.48-.16.52-.18,1.06.21,1.05.76-.02,1.14-.04,2.39-.05,2.43.31-.02,3.77-3.36,5.67-5.29.76-.77,1.21-1.35,1.49-1.77.15-.22.49-.1.45.17-.16,1.31-.91,2.33-.91,2.33,0,0,2.04-1.4,2.54-3.48.38-1.59.11-2.41,0-2.67,0,0,.01-.01.02-.02.2.24.83,1.01,1.07,1.28.49.57,2.55,1.42,2.55,1.42,0,0-1.33-.58-1.78-2.8h0ZM40.53,54.06c-2.7.09-3.89-.9-5.42-1.52.69-.42,2.1-2.05,4.48-1.84.52-.29-.09-.43,4.9.56.61.4,1.25.8,1.86,1.15-1.55.68-2.94,1.74-5.82,1.65"/>
        <path class="st12" d="M23.68,51.25l-.12,1.03s6.7,4.33,13.01.94l-.54-.26-12.35-1.7Z"/>
        <path class="st28" d="M51.46,46.46s-6.93-7.58-10.15-1.78c0,0-.28.36-.58.93-.29-.57-.58-.93-.58-.93-3.22-5.8-10.15,1.78-10.15,1.78,0,0-5.78,6-10,.3,0,0,3.49,8.82,15.02,6.43,3.2-.66,4.89-1.75,5.71-2.92.82,1.18,2.51,2.26,5.71,2.92,11.53,2.39,15.02-6.43,15.02-6.43-4.22,5.7-10-.3-10-.3"/>
        <path class="st13" d="M44.71,53.2s6.28,3.15,12.43-.92l-.05-.55s-4.56,3.29-11.78,1.18l-.59.29Z"/>
        <path class="st14" d="M24.79,38.1s0,3.74,5.32,4.39c0,0,7.28,1.01,7.79-1.25l.7-3.42-2.92-1.71-5.57-.62-5.32,1.1v1.51ZM56.05,38.08s0,3.74-5.32,4.39c0,0-7.28,1.01-7.79-1.25l-.7-3.42,2.92-1.71,5.57-.62,5.32,1.1v1.51Z"/>
        <path class="st23" d="M56.98,35.97c-.1-.17-1.53-.41-3.9-.62-2.01-.16-5.24-.05-6.5.11-.53.07-1.47.23-2.41.46-1.04.25-2.08.58-2.51.67-.42.08-.74.11-1.09.1h0s-.37,0-.37,0h0c-.34.02-.67-.01-1.09-.09-.43-.09-1.47-.42-2.51-.67-.94-.23-1.88-.39-2.41-.46-1.26-.16-4.5-.26-6.5-.11-2.37.21-3.55.44-3.64.62-.06.12-.2,1.73-.01,1.89.02.02.05.04.08.07.47.35.4.53.99.53h.55c.25-1.84,1.64-2.01,3.5-2.23,1.77-.19,3.34-.11,4.4,0,1.07.14,4.21.67,4.45,1.47.25.81.11,1.67-.18,2.82-.04.18.07.36.24.36h.33c.11-.31.2-.63.28-.98.18-.9.44-1.43.88-1.59.18-.05.44-.1.71-.1h.21c.27,0,.54.05.71.1.44.16.71.69.88,1.59.07.35.17.67.28.98h.33c.16,0,.28-.18.24-.36-.29-1.14-.43-2.01-.18-2.82.24-.8,3.37-1.33,4.45-1.47,1.06-.11,2.64-.19,4.4,0,1.56.17,2.79.33,3.3,1.47.2.46.65.76,1.15.76h.11c.28,0,.16-.09.38-.27.19-.15.37-.26.45-.34.19-.16.05-1.77-.01-1.89h0Z"/>
        <path class="st20" d="M40.24,25.38l-16.14-.13c-3.21,1.54-3.88,3.69-3.88,3.69-.49,1.3,9.27,3.29,9.27,3.29l10.75.33v-7.18h0Z"/>
        <path class="st15" d="M40.24,32.17c-18.22-.19-20.02-3.23-20.02-3.23,1.01,4.03,14.16,4.46,20.02,4.45v-1.22Z"/>
        <path class="st20" d="M40.24,25.38l16.14-.13c3.21,1.54,3.88,3.69,3.88,3.69.49,1.3-9.27,3.29-9.27,3.29l-10.75.33v-7.18h0Z"/>
        <path class="st15" d="M40.24,32.17c18.22-.19,20.02-3.23,20.02-3.23-1.01,4.03-14.16,4.46-20.02,4.45v-1.22Z"/>
        <path class="st19" d="M40.33,8.73l.54-.44s6.92-.4,12.44,4.17c0,0,3.65,1.48,3.06,9.71l.47,3.05c.13.87-.52,1.69-1.54,1.93-.72.17-1.51.35-2.08.42l-12.88-18.85Z"/>
        <path class="st15" d="M55.46,26.99s-1.45-5.53-.43-7.29c0,0,2.63-6.32-6.01-8.74l-8.69-2.24v19.54s12.6,0,15.12-1.27"/>
        <path class="st19" d="M40.33,8.73l-.54-.44s-6.92-.4-12.44,4.17c0,0-3.65,1.48-3.06,9.71l-.47,3.05c-.13.87.52,1.69,1.54,1.93.72.17,1.51.35,2.08.42l12.88-18.85Z"/>
        <path class="st15" d="M40.34,8.73v19.54s-12.6,0-15.12-1.27c0,0,1.18-4.52.66-6.69-.05-.22-.13-.44-.23-.61,0,0-2.63-6.32,6-8.74l8.69-2.24h0Z"/>
        <path class="st24" d="M39.88,8.73h.45v6.38h-.45v-6.38Z"/>
        <path class="st24" d="M40.34,15.1v13.17s-12.6,0-15.12-1.27c0,0,1.18-4.52.66-6.69v-.05s9.93-5.31,14.23-5.16h.23Z"/>
        <path class="st24" d="M40.11,15.1v13.17s12.79,0,15.35-1.27c0,0-1.2-4.52-.67-6.69v-.05s-10.08-5.31-14.44-5.16h-.24Z"/>
        <path class="st31" d="M42.38,8.34c0,.47-.92.86-2.05.86s-2.05-.39-2.05-.86.92-.86,2.05-.86,2.05.39,2.05.86"/>
      </g>
    </g>
  </g>
</svg>