<?xml version="1.0" encoding="UTF-8"?>
<svg id="Layer_2" xmlns="http://www.w3.org/2000/svg" version="1.1" xmlns:xlink="http://www.w3.org/1999/xlink" viewBox="0 0 80 80">
  <!-- Generator: Adobe Illustrator 30.2.1, SVG Export Plug-In . SVG Version: 2.1.1 Build 1)  -->
  <defs>
    <style>
      .st0 {
        fill: #dac6a4;
      }

      .st1 {
        fill: #b5957e;
      }

      .st2 {
        fill: #b8987d;
      }

      .st3 {
        fill: #714223;
      }

      .st4 {
        fill: #ccad8a;
      }

      .st5 {
        fill: #ecdab6;
      }

      .st6 {
        fill: #d7bd9d;
      }

      .st7 {
        fill: #fff;
      }

      .st8 {
        fill: #272213;
      }

      .st9 {
        fill: #e9be00;
      }

      .st10 {
        fill: #b7967d;
      }

      .st11 {
        fill: none;
      }

      .st12 {
        fill: #d2bb9b;
      }

      .st13 {
        fill: #ba9d82;
      }

      .st14 {
        fill: #dcc5a0;
      }

      .st15 {
        fill: #4f3232;
      }

      .st16 {
        fill: #af742a;
      }

      .st17 {
        fill: #cd860e;
      }

      .st18 {
        fill: #c1a587;
      }

      .st19 {
        fill: #44361f;
      }

      .st20 {
        fill: #a98d76;
      }

      .st21 {
        fill: #462e1b;
      }

      .st22 {
        clip-path: url(#clippath);
      }

      .st23 {
        fill: #ebd9b5;
      }
    </style>
    <clipPath id="clippath">
      <rect class="st11" x="36.68" y="55.41" width="8.99" height="5.31"/>
    </clipPath>
  </defs>
  <g id="Layer_1-2">
    <path class="st16" d="M0,0h80v79.96H0V0Z"/>
    <path class="st15" d="M58.28,50.83c-.18-.81-.27-1.27-.29-1.59h-.18c.6-.8,1.06-1.66,1.36-2.55.01-.05.03-.09.04-.14.11-.36.2-.72.26-1.09,1.01-5.43-1.69-12.5-1.69-12.5.27,1.72.01,3.82-.42,5.8-.34,1.57-.8,3.05-1.19,4.19-.36,1.06-.67,1.83-.77,2.08-1.39,2.94-3.88,5.34-7.02,6.82.21-.57.33-1.22.33-1.92,0-.31-.03-.6-.07-.89.31-.04.61-.08.89-.15.44-.08.85-.23,1.19-.45.72-.47,1.2-1.29,1.27-2.6,0,0-1.85,2.96-4.73.34,0,0-3.31-4.05-6.24-2.43-2.92-1.62-6.23,2.43-6.23,2.43-2.88,2.62-4.73-.34-4.73-.34.05.94.28,1.59.68,2.08l.02.02s.08.07.18.16c.1.09.27.22.49.34,0,0,0,0,.01,0,.22.11.51.23.86.32.28.08.67.1,1.14.08-.07.35-.11.71-.11,1.09,0,.7.12,1.34.33,1.92-3.13-1.48-5.62-3.88-7.01-6.82-.1-.25-.41-1.02-.77-2.08-.39-1.14-.84-2.62-1.19-4.19-.43-1.98-.69-4.08-.42-5.8,0,0-2.7,7.08-1.69,12.5.06.37.15.73.26,1.09.01.05.03.1.04.14h0c.3.89.76,1.74,1.36,2.55h-.18c-.01.32-.1.78-.29,1.59-.49,2.21-1.94,2.79-1.94,2.79,0,0,2.24-.85,2.78-1.42.26-.28.96-1.04,1.17-1.28,0,0,.01.01.02.02-.13.26-.42,1.08,0,2.66.54,2.07,2.76,3.47,2.76,3.47,0,0-1.33-1.65-.96-3.45,0,0-.08.72,2.09,2.74,2.07,1.92,4.63,3.99,4.96,4.01-.03-.06,1.14-2.04,1.11-2.86,1.58.42,3.23,3.17,4.94,3.17.1,0,.2,0,.3,0,.1,0,.2,0,.3,0,1.71,0,3.36-2.75,4.94-3.17-.03.82,1.09,3.14,1.06,3.2.33-.02,2.95-2.43,5.02-4.36,2.17-2.01,2.09-2.74,2.09-2.74.37,1.8-.96,3.45-.96,3.45,0,0,2.22-1.39,2.76-3.47.42-1.58.12-2.41,0-2.66,0,0,.01-.01.02-.02.21.24.91,1,1.17,1.28.54.57,2.78,1.42,2.78,1.42,0,0-1.45-.58-1.94-2.79h0Z"/>
    <path class="st14" d="M41.14,49.96v30.04h-16.23c-.27-.1-.4-.16-.4-.16,0-2.83.31-5.2.81-7.18.18-.7.38-1.36.6-1.97,2.07-5.62,5.85-7.42,7.59-7.95.57-.17.92-.22.92-.22.06,0,.11,0,.18-.02h0c.51-.08.92-.53,1.26-1.23.25-.53.45-1.19.62-1.98.06-.3.12-.61.18-.94.08-.56.15-1.14.22-1.74.03-.37.06-.73.11-1.11.14-1.84.18-3.85.18-5.75,0,0,2.18.22,3.95.22h0Z"/>
    <path class="st23" d="M57.83,79.84s-.14.05-.38.16h-16.31v-30.04h.04c1.76,0,3.97-.22,3.97-.22,0,1.89.04,3.87.19,5.71.04.36.08.72.1,1.09.06.63.14,1.23.24,1.78h0c.03.26.08.49.12.72.16.78.35,1.47.59,2.03.29.68.64,1.16,1.08,1.35.14.06.28.09.43.09,0,0,.09.01.25.04h0c.27.05.72.17,1.3.4,1.91.75,5.13,2.71,6.97,7.73.23.61.43,1.27.61,1.97.51,1.98.81,4.35.81,7.18h0Z"/>
    <g class="st22">
      <path class="st13" d="M45.67,58.26h0c-.41.65-1.78,2.46-4.5,2.46h-.03c-2.58-.01-4.08-1.88-4.46-2.43.08-.55.16-1.13.23-1.73.03-.36.06-.72.1-1.11,1.25.31,2.63.51,4.08.54h.05c1.5-.02,2.89-.24,4.19-.58.04.35.08.72.1,1.08.06.63.15,1.22.24,1.77"/>
    </g>
    <path class="st4" d="M40.95,15.72c-17.19,0-17.29,14.39-16.52,23.82-1.17-2.23-4.67-1.55-4.38,1.97.28,3.39,5.28,5.12,5.14,4.74,2.6,6.97,9.5,12.22,15.77,12.22h.13V15.72h-.13Z"/>
    <path class="st20" d="M21.14,40.02c.85-1.37,2.17-.77,2.48-.47.34.33.62.75.41,1.55-.12.46-.59.5-.49,1.18.13.77.49.81.7,1,.2.17.45.3.57.63.13.33.15.67.08.97-.13.55-.94.1-1.48-.13-.36-.17-1.49-1.13-1.78-1.44-.71-.81-1.06-2.39-.49-3.29"/>
    <path class="st6" d="M41.05,15.72c17.19,0,17.29,14.39,16.53,23.82,1.17-2.23,4.66-1.55,4.37,1.97-.27,3.39-5.27,5.12-5.14,4.74-2.54,6.97-9.5,12.22-15.77,12.22h-.09l-.04-42.76h.13"/>
    <path class="st20" d="M60.85,40.02c-.85-1.37-2.15-.77-2.48-.47-.34.33-.61.75-.41,1.55.12.46.59.5.49,1.18-.13.77-.49.81-.69,1-.2.17-.46.3-.58.63s-.15.67-.08.97c.13.55.94.1,1.48-.13.37-.17,1.49-1.13,1.78-1.44.73-.81,1.06-2.39.49-3.29"/>
    <path class="st14" d="M40.82,19.78c-5.65,0-9.8,1.64-12.29,4.88-3.5,4.53-3.37,11.45-2.08,16.42.4,1.52.61,5.61.87,7.11,1.23,6.72,8.64,10.29,13.51,10.29h.13V19.78h-.08"/>
    <path class="st23" d="M53.1,24.67c-2.48-3.22-6.58-4.86-12.15-4.89v38.7c5.57-.06,12.24-3.98,13.38-10.29.28-1.5.48-5.59.87-7.11,1.29-4.95,1.43-11.86-2.1-16.4"/>
    <path class="st11" d="M40.26,50.2c-.08-.01-.15-.03-.21-.04.07.01.14.03.21.04M39.97,51.59c-.05-.01-.1-.02-.13-.03.04.01.09.02.13.03"/>
    <path class="st10" d="M40.05,51.61s-.05-.01-.08-.02c.03,0,.05.01.08.02M39.84,51.57s-.05-.01-.07-.02.03,0,.08.02h0Z"/>
    <path class="st6" d="M37.67,46.87c-.06-1.34,2.45-.49,3.28-.45.66.03,2.65-.42,2.82-.3,1.17.79-1.24,2.39-2.87,2.39-.43,0-3.2-.83-3.24-1.64h0Z"/>
    <path class="st11" d="M25.54,31.84c-.15.51-.26,1.07-.33,1.67,0,0,.23-.94.73-2.34-.21.3-.36.54-.39.67h0Z"/>
    <path class="st19" d="M36.15,19.87l-.07.07v.02s.05-.07.07-.1"/>
    <path class="st11" d="M40.31,50.87c-.08-.01-.15-.03-.22-.04.08.01.15.03.22.04M40.01,50.81c-.05-.01-.1-.02-.13-.03.04.01.09.02.13.03"/>
    <path class="st1" d="M40.1,50.83s-.05-.01-.08-.02c.03,0,.05.01.08.02M39.88,50.78l-.08-.02s.03.01.08.02"/>
    <path class="st7" d="M28.62,34.88s1.31,5.39,3.56,5.83,4.69-.44,4.69-.44c0,0,.23-6.33-.92-7.16-1.15-.83-3.81-2.03-7.33,1.77"/>
    <path class="st12" d="M36.87,40.26s-.05.01-.17.06c-.03-1.94-.21-4.61-.93-5.12-1.07-.78-3.49-1.89-6.72,1.13-.29-.83-.44-1.47-.44-1.47,3.53-3.81,6.19-2.61,7.33-1.78,1.15.83.92,7.17.92,7.17"/>
    <circle class="st21" cx="33.32" cy="37.51" r="2.22"/>
    <path class="st3" d="M33.22,38.99c-.64-.05-1.13-.7-1.07-1.41.06-.71.65-1.27,1.29-1.21s1.13.7,1.07,1.41-.65,1.27-1.29,1.22"/>
    <path class="st8" d="M33.27,38.74c-.44-.04-.91-.53-.86-1.13.05-.61.58-1.01,1.03-.98.44.04.91.53.86,1.13s-.58,1.01-1.03.97h0Z"/>
    <path class="st7" d="M32.91,37.25c-.02.22-.24.38-.5.36-.26-.02-.45-.22-.43-.43.02-.22.24-.38.5-.36s.45.21.43.44h0ZM34.35,38.51c-.01.11-.12.19-.25.18-.13-.01-.23-.11-.22-.22.01-.11.12-.19.25-.18.13.01.23.11.22.22"/>
    <path class="st11" d="M40.35,51.5c-.08-.01-.15-.03-.22-.04.08.01.15.03.22.04M40.05,51.44c-.05-.01-.1-.02-.13-.03.04.01.09.02.13.03"/>
    <path class="st1" d="M40.13,51.46s-.05-.01-.08-.02c.03,0,.05.01.08.02M39.91,51.42l-.08-.02s.03.01.08.02"/>
    <path class="st11" d="M40.27,51.35c-.09-.01-.16-.03-.23-.05.08.02.16.03.23.05M39.94,51.29c-.05-.01-.11-.02-.14-.03.05.01.09.02.14.03"/>
    <path class="st10" d="M40.03,51.31s-.06-.01-.09-.02c.03,0,.05.01.09.02M39.8,51.26s-.05-.01-.08-.02.03.01.08.02h0Z"/>
    <path class="st11" d="M40.2,51.13c-.09-.01-.16-.03-.23-.05.08.02.16.03.23.05M39.87,51.07c-.05-.01-.11-.02-.14-.03.05.01.09.02.14.03"/>
    <path class="st10" d="M39.96,51.09s-.06-.01-.09-.02c.03,0,.05.01.09.02M39.73,51.03s-.05-.01-.08-.02.03.01.08.02h0Z"/>
    <path class="st11" d="M40.39,51.1c-.08-.01-.16-.03-.23-.04.08.02.15.03.23.04M40.08,51.04c-.05-.01-.1-.02-.14-.03.05.01.09.02.14.03"/>
    <path class="st10" d="M40.17,51.06s-.06-.01-.09-.02c.03,0,.05.01.09.02M39.95,51.01l-.08-.02s.03.01.08.02h0Z"/>
    <path class="st7" d="M53.42,34.7s-1.31,5.39-3.56,5.83-4.69-.44-4.69-.44c0,0-.23-6.33.92-7.16,1.15-.83,3.81-2.03,7.33,1.77"/>
    <path class="st12" d="M45.16,40.07s.05.01.17.06c.03-1.94.21-4.61.93-5.12,1.07-.78,3.49-1.89,6.72,1.13.29-.83.44-1.47.44-1.47-3.53-3.81-6.19-2.61-7.33-1.78-1.15.83-.92,7.17-.92,7.17"/>
    <path class="st21" d="M46.5,37.33c0,1.23.99,2.22,2.22,2.22s2.22-1,2.22-2.22-.99-2.22-2.22-2.22-2.22,1-2.22,2.22"/>
    <path class="st3" d="M48.82,38.81c.64-.05,1.13-.7,1.07-1.41-.06-.71-.65-1.27-1.29-1.21s-1.13.7-1.07,1.41.65,1.27,1.29,1.22"/>
    <path class="st8" d="M48.76,38.55c.44-.04.91-.53.86-1.13-.05-.61-.58-1.01-1.03-.98-.44.04-.91.53-.86,1.13s.58,1.01,1.03.97h0Z"/>
    <path class="st7" d="M49.12,37.06c.02.22.24.38.5.36.26-.02.45-.22.43-.43-.02-.22-.24-.38-.5-.36s-.45.21-.43.44h0ZM47.68,38.33c.01.11.12.19.25.18.13-.01.23-.11.22-.22-.01-.11-.12-.19-.25-.18-.13.01-.23.11-.22.22"/>
    <path d="M38.22,34.79s-.43-.65-1.26-1.29c-.52-.4-1.04-.71-1.57-.93-.65-.27-1.34-.46-2.02-.56-.61-.07-1.29-.05-2.07.06-.6.11-1.19.3-1.69.51-.35.12-.64.3-.86.44-.09.05-.16.1-.24.14l-1.07.68,1.24-.29c.06-.01.12-.03.19-.05.26-.07.58-.15.95-.21.09-.01.18-.03.27-.05.16-.03.32-.06.49-.07.19-.01.38-.02.58-.04l.26-.02c.69,0,1.27.04,1.78.16.56.1,1.14.28,1.67.52.5.24.98.48,1.36.75.76.51,1.18.93,1.18.93.1.1.24.16.38.16.1,0,.2-.03.29-.09.25-.16.32-.5.16-.74v-.02s-.02,0-.02,0ZM53.64,33.15c-.07-.04-.15-.09-.24-.14-.23-.14-.51-.31-.85-.43-.51-.22-1.1-.4-1.71-.52-.78-.11-1.46-.12-2.07-.05-.67.09-1.37.29-2.02.56-.52.22-1.05.54-1.57.93-.82.63-1.23,1.24-1.26,1.29h0c-.14.22-.11.51.07.69.1.1.24.16.38.16s.28-.06.38-.16h0s.45-.45,1.18-.93c.37-.27.85-.51,1.35-.75.53-.25,1.11-.43,1.68-.53.51-.12,1.09-.17,1.77-.16l.27.02c.2.01.39.03.58.04.16,0,.33.04.48.07.09.02.18.04.27.05.38.05.69.14.95.21.07.02.13.04.19.05l1.24.29-1.09-.68h0Z"/>
    <path class="st11" d="M39.97,52.14c-.08-.01-.16-.03-.23-.04.08.02.15.03.23.04M39.65,52.08c-.05-.01-.1-.02-.14-.03l.14.03Z"/>
    <path class="st2" d="M39.74,52.1s-.06-.01-.09-.02c.03,0,.05.01.09.02M39.52,52.05s-.05-.01-.08-.02.03.01.08.02"/>
    <path class="st5" d="M37.77,53.21c-.06-.87,2.41.18,3.22.21.65.02,2.6-.13,2.78-.2,1.36-.51-.08,1.45-2.82,1.55-1.26.05-3.14-1.03-3.18-1.56h0Z"/>
    <path class="st0" d="M45.83,51.54c-.67-.03-1.36.53-2.17.44-.03-.02-.05-.02-.08-.02-.19-.03-.37,0-.57.05-.25.05-.51.15-.74.24-.4.13-.86.24-1.33.2s-.02,0-.03,0h-.03c-.47.03-.92-.07-1.33-.2-.24-.08-.49-.19-.74-.24-.2-.05-.39-.08-.57-.05-.04,0-.05,0-.08.02-.81.09-1.5-.47-2.17-.44-.19.02-.45-.03-.61-.03.03.02.07.03.1.05,1.92.93,3.57,2.69,5.4,2.63h.05c1.83.06,3.48-1.69,5.4-2.63.04-.02.07-.03.1-.05-.15,0-.42.05-.61.03h0Z"/>
    <path class="st18" d="M46.39,51.49s-1.95-.75-3.33-.31c0,0-.52.2-1.05.32-.33.13-.72.16-1.1.15-.29-.01-.57-.05-.8-.09-.08-.01-.15-.03-.23-.04-.03,0-.06-.01-.09-.02l-.14-.03c-.05-.01-.08-.02-.08-.02-.44-.12-.82-.27-.82-.27-1.39-.44-3.33.31-3.33.31-.03.01-.04.02-.04.02.15,0,.42.05.61.03.67-.03,1.36.53,2.17.44.03-.02.05-.02.08-.02.19-.03.37,0,.57.05.25.05.51.15.74.24.4.13.86.24,1.33.2s.02,0,.03,0h.03c.47.03.92-.07,1.33-.2.24-.08.49-.19.74-.24.2-.05.39-.08.57-.05.04,0,.05,0,.08.02.81.09,1.5-.47,2.17-.44.19.02.45-.03.61-.03,0,0-.02,0-.04-.02h0Z"/>
    <path class="st18" d="M37.64,51.95s3.65,1.11,6.48.02l-.33-.22h-3.82l-2.33.2h0Z"/>
    <path class="st9" d="M55.3,77.47c.02,1.06.06,1.91.1,2.53h-27.96c.05-.87.11-2.18.14-3.88.01-1.02.02-2.18,0-3.47h-2.25c.18-.7.38-1.36.61-1.97.02-.04.03-.09.05-.13,1.92-5.12,5.27-7.01,7.13-7.69v.17c0,3.02,3.6,5.46,8.02,5.46s8.03-2.45,8.03-5.46v-.2c.09.03.18.07.28.11,1.9.74,5.07,2.68,6.92,7.59.02.04.03.09.05.13.23.61.42,1.27.61,1.97h-1.74c-.02,1.29-.02,2.45,0,3.47.01.48.02.93.03,1.35h0Z"/>
    <path class="st15" d="M45.7,57.54c-2.81.17-3.51-2.1-3.51-2.1-.26-.77-.73-1.02-1.23-1.03s0,0-.01,0h-.01c-.49,0-.97.26-1.23,1.03,0,0-.7,2.28-3.51,2.1,0,0,1.81,2.24,4.74,2.31s0,0,.01,0h.01c2.92-.07,4.74-2.31,4.74-2.31h0ZM65.76,19.25c-.06.15-.18.3-.34.44.23-.26.34-.44.34-.44-.37.24-.72.44-1.06.62-6.39,3.39-8.17-2.56-8.17-2.56.67-5.61,7.52-5.53,7.52-5.53,0,0-5.83-2.8-8.07,2.69-.3-2.96,1.31-5.84,1.31-5.84-2.6.55-3.69,2.65-4.15,4.44-1.6-3.07.06-5.36.06-5.36l-8.92,3.53c1.16-.92,2.97-2.61,2.97-2.61,0,0-2.77.28-7.04,1.49-3.01.85-4.8,2.36-5.81,3.05l-.03-2.5s-4.37,2.99-8.51,6.92c-4.13,3.93-5.72,7.62-5.72,11.78s1.86,8.31,3.07,9.55.82,3.03,1.19,3.03c0,0,.88.03.75-4.06.48-4.65,2.63-6.51,3.83-7.19,2.11-1.11,5.3-1.31,10.07,1.1h0c2.94,1.7,4.13-.56,8.28-1.71,7.09-1.95,10.03,3.16,9.43,5.8-.91,4.06.36,6.4.85,6.29,0,0,.02-1.03.46-1.95,1.31-2.74,2.41-.83,2.61-4.55.24-4.35,1-5.94.76-8.26-.14-1.31-.61-2.87-.99-3.97,4.76-.08,5.31-4.2,5.31-4.2h0Z"/>
    <path class="st17" d="M55.27,72.66c-.02,1.29-.02,2.45,0,3.47h-27.69c.01-1.02.02-2.18,0-3.47h-2.25c.18-.7.38-1.36.61-1.97.02-.04.03-.09.05-.13h30.38s.03.09.05.13c.23.61.42,1.27.61,1.97h-1.74Z"/>
  </g>
</svg>