<?xml version="1.0" encoding="UTF-8"?>
<svg id="Layer_2" xmlns="http://www.w3.org/2000/svg" version="1.1" xmlns:xlink="http://www.w3.org/1999/xlink" viewBox="0 0 80 80">
  <!-- Generator: Adobe Illustrator 30.2.1, SVG Export Plug-In . SVG Version: 2.1.1 Build 1)  -->
  <defs>
    <style>
      .st0 {
        fill: #dac6a4;
      }

      .st1 {
        fill: #b5957e;
      }

      .st2 {
        fill: #b8987d;
      }

      .st3 {
        fill: #714223;
      }

      .st4 {
        fill: #ccad8a;
      }

      .st5 {
        fill: #ecdab6;
      }

      .st6 {
        fill: #d7bd9d;
      }

      .st7 {
        fill: #fff;
      }

      .st8 {
        fill: #272213;
      }

      .st9 {
        fill: #b7967d;
      }

      .st10 {
        fill: none;
      }

      .st11 {
        fill: #d2bb9b;
      }

      .st12 {
        fill: #ba9d82;
      }

      .st13 {
        fill: #dcc5a0;
      }

      .st14 {
        fill: #c33a31;
      }

      .st15 {
        fill: #6a2528;
      }

      .st16 {
        fill: #c1a587;
      }

      .st17 {
        fill: #44361f;
      }

      .st18 {
        fill: #a98d76;
      }

      .st19 {
        fill: #462e1b;
      }

      .st20 {
        fill: #395a65;
      }

      .st21 {
        clip-path: url(#clippath);
      }

      .st22 {
        fill: #4a3330;
      }

      .st23 {
        fill: #ebd9b5;
      }
    </style>
    <clipPath id="clippath">
      <rect class="st10" x="37.48" y="55.39" width="8.99" height="5.31"/>
    </clipPath>
  </defs>
  <g id="Layer_1-2">
    <path class="st20" d="M0,0h80v80H0V0Z"/>
    <path class="st13" d="M41.89,49.94v30.06h-16.23c-.27-.1-.4-.16-.4-.16,0-2.11.17-3.96.46-5.59.25-1.33.57-2.53.96-3.57.86-2.34,2.01-4.01,3.19-5.22.39-.4.78-.74,1.17-1.04.66-.5,1.29-.88,1.86-1.16.3-.15.58-.27.83-.36.09-.03.17-.06.25-.09.1-.03.19-.06.28-.09.25-.08.45-.13.61-.16.2-.05.32-.06.32-.06.06,0,.11,0,.18-.02.51-.08.92-.53,1.26-1.23.25-.53.45-1.2.62-1.98.06-.31.12-.61.18-.94.08-.55.15-1.14.23-1.75.02-.37.06-.73.1-1.11.14-1.84.18-3.86.18-5.76,0,0,2.18.23,3.95.23h0Z"/>
    <path class="st23" d="M58.58,79.84s-.14.05-.38.16h-16.31v-30.06h.04c1.76,0,3.96-.23,3.96-.23,0,1.9.04,3.88.19,5.72.04.36.08.73.1,1.08.06.64.14,1.23.24,1.79h0c.03.26.08.49.12.73.16.78.35,1.47.59,2.02.29.69.65,1.16,1.08,1.36.14.06.28.09.43.09,0,0,.08.01.21.04.23.04.61.13,1.11.31.08.03.15.05.24.09.04.02.09.03.13.05.11.04.23.1.35.15.61.28,1.3.67,2.02,1.21.28.2.55.43.83.69h0c1.33,1.22,2.66,3.01,3.63,5.63.37,1.02.69,2.16.93,3.44.31,1.66.48,3.55.48,5.72"/>
    <g class="st21">
      <path class="st12" d="M46.47,58.25h0c-.41.64-1.78,2.46-4.5,2.46h-.03c-2.58-.01-4.08-1.88-4.46-2.43.08-.55.16-1.13.23-1.74.03-.35.06-.72.1-1.11,1.25.31,2.63.51,4.08.54h.05c1.5-.03,2.89-.24,4.19-.58.04.35.08.72.11,1.08.06.63.15,1.22.24,1.77"/>
    </g>
    <path class="st4" d="M41.76,15.68c-17.19,0-17.29,14.4-16.52,23.83-1.17-2.24-4.67-1.55-4.38,1.97.28,3.39,5.28,5.12,5.14,4.75,2.6,6.97,9.5,12.23,15.77,12.23h.13V15.68h-.13Z"/>
    <path class="st18" d="M21.95,39.99c.85-1.37,2.17-.78,2.48-.47.34.33.62.75.41,1.55-.12.46-.59.5-.49,1.18.13.78.49.82.7,1,.2.17.45.3.57.63.13.33.15.67.08.97-.13.55-.94.1-1.48-.13-.36-.17-1.49-1.13-1.78-1.45-.71-.82-1.06-2.39-.49-3.29"/>
    <path class="st6" d="M41.85,15.68c17.19,0,17.29,14.4,16.53,23.83,1.17-2.24,4.66-1.55,4.37,1.97-.27,3.39-5.27,5.12-5.14,4.75-2.54,6.97-9.5,12.23-15.77,12.23h-.09l-.04-42.78h.13"/>
    <path class="st18" d="M61.65,39.99c-.85-1.37-2.15-.78-2.48-.47-.34.33-.61.75-.41,1.55.12.46.59.5.49,1.18-.13.78-.49.82-.69,1-.2.17-.46.3-.58.63-.12.33-.15.67-.08.97.13.55.94.1,1.48-.13.37-.17,1.49-1.13,1.78-1.45.73-.82,1.06-2.39.49-3.29"/>
    <path class="st13" d="M41.62,19.74c-5.65,0-9.8,1.64-12.29,4.88-3.5,4.54-3.37,11.45-2.08,16.43.4,1.52.61,5.61.87,7.11,1.23,6.72,8.64,10.3,13.51,10.3h.13V19.74h-.08"/>
    <path class="st23" d="M53.9,24.63c-2.48-3.22-6.58-4.87-12.15-4.89v38.72c5.57-.06,12.24-3.99,13.38-10.3.28-1.5.48-5.59.87-7.11,1.29-4.96,1.43-11.86-2.1-16.41"/>
    <path class="st10" d="M41.06,50.19c-.08-.01-.15-.03-.21-.04.07.01.14.03.21.04M40.77,51.58c-.05-.01-.1-.02-.13-.03.04.01.09.02.13.03"/>
    <path class="st9" d="M40.85,51.6s-.05-.01-.08-.02c.03,0,.05.01.08.02M40.64,51.55s-.05-.01-.07-.02.03,0,.08.02h0Z"/>
    <path class="st6" d="M38.55,46.57c-.06-1.34,2.45-.49,3.28-.45.66.03,2.65-.42,2.82-.3,1.17.79-1.24,2.39-2.87,2.39-.43,0-3.2-.83-3.24-1.64h0Z"/>
    <path class="st10" d="M26.34,31.81c-.15.51-.26,1.07-.33,1.67,0,0,.23-.94.73-2.34-.21.3-.36.54-.39.67"/>
    <path class="st17" d="M36.95,19.84l-.07.07v.03s.05-.07.07-.1"/>
    <path class="st10" d="M41.11,50.85c-.08-.01-.15-.03-.22-.04.08.01.15.03.22.04M40.81,50.79c-.05-.01-.1-.02-.13-.03.04.01.09.02.13.03"/>
    <path class="st1" d="M40.9,50.81s-.05-.01-.08-.02c.03,0,.05.01.08.02M40.68,50.76l-.08-.02s.03,0,.08.02"/>
    <path class="st7" d="M29.42,34.85s1.31,5.39,3.56,5.83,4.69-.44,4.69-.44c0,0,.23-6.34-.92-7.16-1.15-.83-3.81-2.03-7.33,1.77"/>
    <path class="st11" d="M37.68,40.23s-.05.01-.17.06c-.03-1.94-.21-4.61-.93-5.12-1.07-.79-3.49-1.89-6.72,1.13-.29-.83-.44-1.47-.44-1.47,3.53-3.81,6.19-2.61,7.33-1.77,1.15.83.92,7.17.92,7.17h0Z"/>
    <ellipse class="st19" cx="34.13" cy="37.49" rx="2.22" ry="2.22"/>
    <path class="st3" d="M34.02,38.97c-.64-.05-1.13-.7-1.07-1.41s.65-1.27,1.29-1.21,1.13.7,1.07,1.41-.65,1.27-1.29,1.22"/>
    <path class="st8" d="M34.08,38.71c-.44-.04-.91-.53-.86-1.13.05-.6.58-1.01,1.03-.98.44.04.91.53.86,1.13s-.58,1.01-1.03.97"/>
    <path class="st7" d="M33.72,37.23c-.02.22-.24.38-.5.36-.26-.02-.45-.22-.43-.43.02-.22.24-.38.5-.36s.45.21.43.43M35.15,38.48c-.01.11-.12.19-.25.18-.13-.01-.23-.11-.22-.22.01-.11.12-.19.25-.18.13.01.23.11.22.22"/>
    <path class="st10" d="M41.15,51.49c-.08-.01-.15-.03-.22-.04.08.01.15.03.22.04M40.85,51.43c-.05-.01-.1-.02-.13-.03.04.01.09.02.13.03"/>
    <path class="st1" d="M40.93,51.45s-.05-.01-.08-.02c.03,0,.05.01.08.02M40.72,51.4l-.08-.02s.03,0,.08.02"/>
    <path class="st10" d="M41.06,51.34c-.09-.01-.16-.03-.23-.04.08.02.16.03.23.04M40.74,51.28c-.05-.01-.11-.03-.14-.03.05.01.09.02.14.03"/>
    <path class="st9" d="M40.83,51.29s-.06-.01-.09-.02c.03,0,.05.01.09.02M40.6,51.24s-.05-.01-.08-.02.03.01.08.02h0Z"/>
    <path class="st10" d="M41,51.11c-.09-.01-.16-.03-.23-.04.08.02.16.03.23.04M40.68,51.05c-.05-.01-.11-.03-.14-.03.05.01.09.02.14.03"/>
    <path class="st9" d="M40.77,51.07s-.06-.01-.09-.02c.03,0,.05.01.09.02M40.53,51.02s-.05-.01-.08-.02.03.01.08.02h0Z"/>
    <path class="st10" d="M41.2,51.08c-.08-.01-.16-.03-.23-.04.08.02.15.03.23.04M40.88,51.02c-.05-.01-.1-.02-.14-.03.05.01.09.02.14.03"/>
    <path class="st9" d="M40.97,51.04s-.06-.01-.09-.02c.03,0,.05.01.09.02M40.75,50.99l-.08-.02s.03.01.08.02h0Z"/>
    <path class="st7" d="M54.22,34.67s-1.31,5.39-3.56,5.83-4.69-.44-4.69-.44c0,0-.23-6.34.92-7.16,1.15-.83,3.81-2.03,7.33,1.77"/>
    <path class="st11" d="M45.96,40.05s.05.01.17.06c.03-1.94.21-4.61.93-5.12,1.07-.79,3.49-1.89,6.72,1.13.29-.83.44-1.47.44-1.47-3.53-3.81-6.19-2.61-7.33-1.77-1.15.83-.92,7.17-.92,7.17h0Z"/>
    <path class="st19" d="M47.3,37.31c0,1.23.99,2.22,2.22,2.22s2.22-.99,2.22-2.22-.99-2.22-2.22-2.22-2.22.99-2.22,2.22"/>
    <path class="st3" d="M49.62,38.79c.64-.05,1.13-.7,1.07-1.41s-.65-1.27-1.29-1.21-1.13.7-1.07,1.41.65,1.27,1.29,1.22"/>
    <path class="st8" d="M49.56,38.53c.44-.04.91-.53.86-1.13-.05-.6-.58-1.01-1.03-.98-.44.04-.91.53-.86,1.13s.58,1.01,1.03.97"/>
    <path class="st7" d="M49.92,37.04c.02.22.24.38.5.36.26-.02.45-.22.43-.43-.02-.22-.24-.38-.5-.36s-.45.21-.43.43M48.49,38.3c.01.11.12.19.25.18.13-.01.23-.11.22-.22-.01-.11-.12-.19-.25-.18-.13.01-.23.11-.22.22"/>
    <path class="st10" d="M40.77,52.13c-.08-.01-.16-.03-.23-.04.08.02.15.03.23.04M40.45,52.07c-.05-.01-.1-.03-.14-.03l.14.03Z"/>
    <path class="st2" d="M40.54,52.08s-.06-.01-.09-.02c.03,0,.05.01.09.02M40.32,52.03s-.05-.01-.08-.02.03.01.08.02"/>
    <path class="st5" d="M38.57,53.2c-.06-.87,2.41.18,3.22.21.65.02,2.6-.13,2.78-.2,1.36-.51-.08,1.45-2.82,1.55-1.26.05-3.14-1.04-3.18-1.56h0Z"/>
    <path class="st0" d="M46.63,51.53c-.67-.03-1.36.53-2.17.44-.03-.02-.05-.02-.08-.02-.19-.03-.37,0-.57.05-.25.05-.51.15-.74.24-.4.13-.86.24-1.33.2s-.02,0-.03,0h-.03c-.47.03-.92-.07-1.33-.2-.24-.08-.49-.19-.74-.24-.2-.05-.39-.08-.57-.05-.04,0-.05,0-.08.02-.81.09-1.5-.48-2.17-.44-.19.02-.45-.03-.61-.03.03.02.07.03.1.05,1.92.93,3.57,2.69,5.4,2.63h.05c1.83.06,3.48-1.7,5.4-2.63.04-.02.07-.03.1-.05-.15,0-.42.05-.61.03h0Z"/>
    <path class="st16" d="M47.19,51.47s-1.95-.75-3.33-.31c0,0-.52.2-1.05.33-.33.13-.72.16-1.1.15-.29-.01-.57-.05-.8-.09-.08-.01-.15-.03-.23-.04-.03,0-.06-.01-.09-.02l-.14-.03c-.05-.01-.08-.02-.08-.02-.44-.12-.82-.27-.82-.27-1.39-.44-3.33.31-3.33.31-.03.01-.04.02-.04.02.15,0,.42.05.61.03.67-.03,1.36.53,2.17.44.03-.02.05-.02.08-.02.19-.03.37,0,.57.05.25.05.51.15.74.24.4.13.86.24,1.33.2s.02,0,.03,0h.03c.47.03.92-.07,1.33-.2.24-.08.49-.19.74-.24.2-.05.39-.08.57-.05.04,0,.05,0,.08.02.81.09,1.5-.48,2.17-.44.19.02.45-.03.61-.03,0,0-.02,0-.04-.02h0Z"/>
    <path class="st16" d="M38.44,51.93s3.65,1.11,6.48.03l-.33-.22h-3.82l-2.33.2h0Z"/>
    <path class="st14" d="M53.23,67.7c-.23-.94-.41-2.03-.52-3.34-.73-.55-1.42-.94-2.03-1.21-.11-.05-.24-.11-.35-.15-.04-.02-.09-.04-.14-.05-.08-.03-.16-.06-.24-.09-.49-.18-.87-.27-1.1-.31-.62.87-1.4,1.94-2.23,2.97-1.65,2.05-3.52,3.99-4.74,4.07-.03,0-.05,0-.08,0h0c-1.21-.01-3.11-2.01-4.79-4.14-.8-1-1.54-2.03-2.14-2.89-.15.03-.35.08-.6.16-.09.03-.18.05-.28.09-.09.03-.16.06-.26.09-.25.09-.53.21-.83.36-.58.28-1.21.65-1.86,1.16-.13,1.38-.33,2.52-.58,3.5-.41,1.6-.93,2.77-1.41,3.86h25.64c-.51-1.14-1.06-2.36-1.47-4.08h0ZM27.43,80h28.89c-.07-1.09-.16-2.63-.27-3.65h-28.36c-.1,1.01-.2,2.55-.27,3.65h0Z"/>
    <path class="st15" d="M54.7,71.78h-25.65c-.59,1.33-1.13,2.53-1.32,4.23-.01.11-.03.22-.04.35h28.36c-.01-.12-.03-.24-.04-.35-.19-1.7-.72-2.9-1.32-4.23h0Z"/>
    <path d="M39.02,35.32s-.43-.65-1.26-1.29c-.52-.4-1.04-.71-1.57-.94-.65-.27-1.34-.47-2.02-.56-.61-.07-1.29-.05-2.07.06-.6.11-1.19.29-1.69.52-.35.12-.64.29-.86.43-.09.05-.16.1-.24.14l-1.07.68,1.24-.29c.06-.01.12-.03.19-.05.26-.07.58-.15.95-.21.09-.01.18-.03.27-.05.16-.03.32-.06.49-.07.19-.01.38-.03.58-.04l.26-.02c.69,0,1.27.04,1.78.16.56.1,1.14.28,1.67.53.5.24.98.48,1.36.75.76.51,1.18.93,1.18.93.1.1.24.16.38.16.1,0,.2-.03.29-.09.25-.16.32-.5.16-.74v-.02s-.02.01-.02.01ZM54.44,33.68c-.07-.04-.15-.09-.24-.14-.23-.14-.51-.31-.85-.43-.51-.23-1.1-.4-1.71-.52-.78-.1-1.46-.13-2.07-.05-.67.09-1.37.29-2.02.56-.52.23-1.05.54-1.57.94-.82.63-1.23,1.24-1.26,1.29h0c-.14.23-.11.51.07.69.1.1.24.16.38.16s.28-.06.38-.16h0s.45-.44,1.18-.94c.37-.27.85-.51,1.35-.75.53-.25,1.11-.43,1.68-.53.51-.12,1.09-.17,1.77-.16l.27.02c.2.01.39.03.58.04.16,0,.33.04.48.07.09.02.18.04.27.05.38.05.69.14.95.21.07.02.13.04.19.05l1.24.29-1.09-.68Z"/>
    <path class="st22" d="M46.96,50.81c-1.09-1.33-3.04-1.43-5.28-1.4-2.24-.04-4.2.06-5.28,1.4-1,1.23-1.09,4.42.45,5.55.55-1.62.54-2.37,1.3-3.25.89-1.03,2.28-1.04,3.53-1.18,1.25.14,2.64.15,3.53,1.18.76.88.76,1.62,1.3,3.25,1.54-1.13,1.45-4.33.45-5.55h0ZM43.32,58.05h-3.4v.02c.01.05.03.1.05.15-.01,0-.03-.01-.05-.03,0,.37.16.73.44.97.04.04.08.07.12.11.4.36.83.83,1.3.83.03,0,.05,0,.07,0,.43-.04.85-.48,1.23-.83.04-.04.08-.08.12-.11.28-.24.44-.6.44-.97v-.15h-.32,0Z"/>
    <path class="st14" d="M62.24,28.28c-.24-.65-.49-1.26-.75-1.85v-.25c0-2.47-2.36-5.67-6.12-8.78-3.76-3.11-6.13-2.47-9.23-2.38l-.03.05c-1.37-.27-8.72-1.62-13.09-.13-4.83,1.65-8.79,4.48-11.58,12.07-2.79,7.6-.5,13.81.04,16.47,1.72,8.4,9.95,13.73,9.95,13.73,0,0-2.08-2.24-3.01-4.48-.72-1.74-1.8-4.72-1.8-9.11,0-.36.04-.73.09-1.1,1.17-17.82,17.74-9.55,17.74-9.55h0s9.37,2.43,7.99,14.77c0,0,3.45-4.3,1.78-10.17,1.31,1.98,2.83,4.81,2.83,7.31,0,4.39-1.08,7.37-1.8,9.11-.93,2.24-3.01,4.48-3.01,4.48,0,0,8.23-5.32,9.95-13.73.54-2.65,2.83-8.87.04-16.47h0Z"/>
  </g>
</svg>