<?xml version="1.0" encoding="UTF-8"?>
<svg id="Layer_2" xmlns="http://www.w3.org/2000/svg" version="1.1" xmlns:xlink="http://www.w3.org/1999/xlink" viewBox="0 0 80 80">
  <!-- Generator: Adobe Illustrator 30.2.1, SVG Export Plug-In . SVG Version: 2.1.1 Build 1)  -->
  <defs>
    <style>
      .st0 {
        fill: #452a16;
      }

      .st1 {
        fill: #b5977b;
      }

      .st2 {
        fill: #c7a784;
      }

      .st3 {
        fill: #43331b;
      }

      .st4 {
        fill: #20201b;
        opacity: .4;
      }

      .st4, .st5 {
        isolation: isolate;
      }

      .st6 {
        fill: #fff;
      }

      .st7 {
        fill: #af8f76;
      }

      .st8 {
        fill: #a4876f;
      }

      .st9 {
        fill: #e9d3af;
      }

      .st10 {
        fill: none;
      }

      .st11 {
        fill: #171500;
      }

      .st12 {
        fill: #4a453c;
      }

      .st13 {
        fill: #71391e;
      }

      .st14 {
        fill: #b19076;
      }

      .st15 {
        fill: #8b375a;
      }

      .st16 {
        fill: #e4aa33;
      }

      .st17 {
        fill: #ceb495;
      }

      .st18 {
        fill: #d3b697;
      }

      .st5 {
        fill: #ebebea;
        opacity: .55;
      }

      .st19 {
        fill: #b39176;
      }

      .st20 {
        fill: #d6c09e;
      }

      .st21 {
        fill: #d7be9a;
      }

      .st22 {
        fill: #e8d2ae;
      }

      .st23 {
        fill: #bc9e80;
      }

      .st24 {
        clip-path: url(#clippath);
      }

      .st25 {
        fill: #282211;
      }
    </style>
    <clipPath id="clippath">
      <rect class="st10" x="37.48" y="55.39" width="8.99" height="5.31"/>
    </clipPath>
  </defs>
  <g id="RÈteg_1">
    <path class="st15" d="M0,0h80v80H0V0Z"/>
    <path class="st21" d="M41.89,49.94v30.06h-16.22c-.26-.1-.4-.16-.4-.16,0-2.11.17-3.96.46-5.59.25-1.33.57-2.53.96-3.58.86-2.34,2.01-4.01,3.19-5.22.39-.4.79-.74,1.17-1.04.65-.51,1.29-.88,1.86-1.16.3-.15.58-.27.84-.36.09-.03.17-.07.25-.09.1-.03.19-.06.28-.09.25-.08.45-.13.6-.16.2-.05.32-.06.32-.06.06,0,.11,0,.18-.02.51-.08.92-.53,1.26-1.24.25-.53.46-1.2.62-1.98.07-.31.12-.61.18-.95.08-.55.15-1.14.22-1.75.02-.37.06-.72.1-1.11.14-1.84.18-3.86.18-5.76,0,0,2.18.23,3.95.23h0Z"/>
    <path class="st22" d="M58.58,79.84s-.14.06-.38.16h-16.31v-30.06h.04c1.75,0,3.96-.23,3.96-.23,0,1.9.04,3.88.19,5.72.04.36.08.72.1,1.08.07.64.14,1.23.24,1.79h0c.03.26.08.49.12.72.16.78.35,1.47.59,2.02.29.69.65,1.16,1.08,1.36.14.06.28.09.44.09,0,0,.08.01.21.04.22.05.61.13,1.11.31.08.03.15.06.24.09.04.02.09.03.13.06.11.05.23.1.35.15.6.27,1.3.67,2.02,1.21.28.2.55.43.83.69h0c1.33,1.22,2.67,3,3.63,5.63.37,1.02.69,2.16.94,3.44.31,1.66.48,3.55.48,5.72h0Z"/>
    <g class="st24">
      <path class="st1" d="M46.47,58.25h0c-.41.64-1.78,2.46-4.5,2.46h-.03c-2.58-.01-4.08-1.88-4.46-2.43.08-.55.16-1.13.22-1.74.03-.35.07-.72.11-1.1,1.25.32,2.63.51,4.08.54h.05c1.5-.03,2.89-.24,4.18-.58.04.35.08.72.11,1.08.07.63.14,1.22.24,1.78"/>
    </g>
    <path class="st2" d="M41.76,15.68c-17.19,0-17.28,14.4-16.52,23.83-1.18-2.24-4.67-1.55-4.38,1.97.28,3.39,5.28,5.12,5.14,4.75,2.6,6.97,9.49,12.23,15.77,12.23h.13V15.68h-.13Z"/>
    <path class="st8" d="M21.95,39.99c.84-1.37,2.16-.77,2.48-.47.34.33.62.75.41,1.55-.12.46-.59.5-.49,1.18.13.77.49.81.7,1,.2.17.45.3.57.63.13.33.14.67.08.97-.13.55-.94.11-1.48-.13-.36-.17-1.49-1.13-1.78-1.45-.71-.81-1.06-2.39-.49-3.29"/>
    <path class="st18" d="M41.85,15.68c17.19,0,17.28,14.4,16.53,23.83,1.18-2.24,4.66-1.55,4.37,1.97-.26,3.39-5.27,5.12-5.14,4.75-2.54,6.97-9.49,12.23-15.77,12.23h-.09l-.04-42.78h.13Z"/>
    <path class="st8" d="M61.66,39.99c-.84-1.37-2.15-.77-2.48-.47-.34.33-.61.75-.41,1.55.12.46.59.5.49,1.18-.13.77-.49.81-.69,1-.2.17-.46.3-.58.63s-.14.67-.08.97c.13.55.94.11,1.48-.13.37-.17,1.49-1.13,1.78-1.45.73-.81,1.06-2.39.49-3.29"/>
    <path class="st21" d="M41.62,19.74c-5.65,0-9.8,1.64-12.29,4.88-3.5,4.54-3.37,11.45-2.09,16.42.4,1.53.61,5.62.87,7.11,1.23,6.72,8.64,10.3,13.51,10.3h.13V19.74h-.08"/>
    <path class="st22" d="M53.9,24.64c-2.48-3.22-6.58-4.87-12.15-4.89v38.71c5.57-.07,12.24-3.99,13.38-10.3.28-1.5.48-5.59.87-7.11,1.29-4.96,1.43-11.86-2.1-16.41"/>
    <path class="st10" d="M41.06,50.19c-.08-.01-.15-.03-.21-.04.07.02.14.03.21.04M40.77,51.58s-.1-.02-.13-.03c.04.01.09.02.13.03"/>
    <path class="st14" d="M40.85,51.59l-.08-.02s.05.01.08.02M40.64,51.55s-.05-.01-.07-.02.03,0,.07.02h0Z"/>
    <path class="st18" d="M38.55,46.57c-.06-1.34,2.45-.49,3.28-.45.65.03,2.65-.42,2.82-.3,1.17.79-1.24,2.39-2.86,2.39-.43,0-3.2-.83-3.24-1.64h0Z"/>
    <path class="st10" d="M26.34,31.81c-.15.51-.26,1.07-.33,1.67,0,0,.23-.94.73-2.34-.21.3-.36.54-.39.67"/>
    <path class="st3" d="M36.95,19.84l-.07.07v.02s.05-.07.07-.1h0Z"/>
    <path class="st10" d="M41.12,50.85c-.08-.01-.15-.03-.22-.04.07.02.15.03.22.04M40.82,50.79c-.05-.01-.1-.02-.13-.03.04.01.09.02.13.03"/>
    <path class="st7" d="M40.9,50.81s-.06-.01-.08-.02c.03,0,.05.01.08.02M40.68,50.76s-.05-.01-.07-.02h0s.03,0,.08.02"/>
    <path class="st6" d="M29.42,34.85s1.31,5.39,3.56,5.83,4.69-.43,4.69-.43c0,0,.23-6.34-.92-7.16-1.15-.83-3.81-2.03-7.33,1.77h0Z"/>
    <path class="st17" d="M37.68,40.23s-.05.02-.17.06c-.03-1.94-.21-4.61-.93-5.13-1.07-.79-3.49-1.89-6.72,1.13-.29-.84-.44-1.47-.44-1.47,3.53-3.81,6.19-2.61,7.33-1.78,1.15.83.92,7.17.92,7.17h0Z"/>
    <ellipse class="st0" cx="34.13" cy="37.49" rx="2.22" ry="2.22"/>
    <path class="st13" d="M34.02,38.97c-.64-.05-1.13-.7-1.07-1.41s.65-1.27,1.29-1.21c.64.05,1.13.7,1.07,1.41-.06.71-.65,1.27-1.29,1.22h0Z"/>
    <path class="st25" d="M34.08,38.71c-.45-.04-.91-.53-.86-1.13s.59-1.01,1.03-.98.91.53.86,1.13-.59,1.01-1.03.97h0Z"/>
    <path class="st6" d="M33.72,37.22c-.02.22-.24.38-.5.36-.26-.02-.45-.22-.43-.43.02-.22.24-.38.5-.36s.45.22.43.43M35.15,38.49c-.01.11-.12.19-.25.18s-.22-.11-.22-.22c0-.11.12-.19.25-.18s.23.11.22.22"/>
    <path class="st10" d="M41.15,51.49c-.08-.01-.15-.03-.22-.04.07.02.15.03.22.04M40.85,51.43c-.05-.01-.1-.02-.13-.03.04.01.09.02.13.03"/>
    <path class="st7" d="M40.93,51.45s-.06-.01-.08-.02c.03,0,.05.01.08.02M40.72,51.4s-.05-.01-.07-.02h0s.03,0,.08.02"/>
    <path class="st10" d="M41.07,51.34c-.09-.02-.17-.03-.23-.05.08.02.15.03.23.05M40.74,51.28c-.05-.01-.11-.02-.14-.03.05.01.09.02.14.03"/>
    <path class="st14" d="M40.83,51.29s-.06-.01-.09-.02c.03,0,.06.01.09.02M40.6,51.24s-.05-.02-.08-.02h0s.03.01.08.02"/>
    <path class="st10" d="M41,51.11c-.09-.02-.17-.03-.24-.05.08.02.16.03.24.05M40.68,51.05c-.05-.01-.11-.02-.14-.03.05.01.09.02.14.03"/>
    <path class="st14" d="M40.77,51.07s-.06-.01-.09-.02c.03,0,.06.01.09.02M40.53,51.02s-.05-.02-.08-.02h0s.03.01.08.02"/>
    <path class="st10" d="M41.2,51.08c-.08-.01-.16-.03-.23-.04.08.02.15.03.23.04M40.88,51.02c-.05-.01-.1-.02-.14-.03l.14.03Z"/>
    <path class="st14" d="M40.97,51.04s-.06-.01-.09-.02c.03,0,.05.01.09.02M40.75,50.99s-.05-.01-.08-.02h0s.03,0,.08.02"/>
    <path class="st6" d="M54.22,34.67s-1.31,5.39-3.56,5.83c-2.25.44-4.69-.43-4.69-.43,0,0-.23-6.34.92-7.16,1.15-.83,3.81-2.03,7.33,1.77"/>
    <path class="st17" d="M45.96,40.05s.05.02.17.06c.03-1.94.21-4.61.93-5.13,1.07-.79,3.49-1.89,6.72,1.13.29-.84.44-1.47.44-1.47-3.53-3.81-6.19-2.61-7.33-1.78-1.15.83-.92,7.17-.92,7.17h0Z"/>
    <path class="st0" d="M47.3,37.31c0,1.23.99,2.22,2.22,2.22s2.22-.99,2.22-2.22-.99-2.22-2.22-2.22-2.22.99-2.22,2.22"/>
    <path class="st13" d="M49.62,38.78c.64-.05,1.13-.7,1.07-1.41s-.65-1.27-1.29-1.21c-.64.05-1.13.7-1.07,1.41.06.71.65,1.27,1.29,1.22h0Z"/>
    <path class="st25" d="M49.56,38.53c.45-.04.91-.53.86-1.13s-.59-1.01-1.03-.98-.91.53-.86,1.13.59,1.01,1.03.97h0Z"/>
    <path class="st6" d="M49.93,37.04c.02.22.24.38.5.36s.45-.22.43-.43c-.02-.22-.24-.38-.5-.36s-.45.22-.43.43M48.49,38.3c.01.11.12.19.25.18s.22-.11.22-.22c0-.11-.12-.19-.25-.18s-.23.11-.22.22"/>
    <path class="st11" d="M39.02,34.77s-.42-.65-1.26-1.29c-.52-.4-1.04-.71-1.57-.94-.65-.27-1.34-.47-2.02-.56-.61-.07-1.29-.05-2.08.06-.6.11-1.19.3-1.69.51-.36.12-.64.3-.86.43-.09.05-.17.1-.24.14l-1.08.68,1.24-.29c.06-.02.12-.03.19-.05.26-.07.57-.15.95-.21.09-.01.18-.03.27-.05.15-.03.32-.06.49-.07.19-.01.38-.03.58-.04l.26-.02c.69,0,1.27.04,1.78.16.56.1,1.14.28,1.67.52.5.24.98.48,1.36.75.76.51,1.18.93,1.18.93.1.1.24.16.38.16.1,0,.2-.03.29-.09.25-.16.32-.5.16-.74v-.02s0,0,0,0ZM54.44,33.13c-.07-.04-.15-.09-.24-.14-.22-.14-.51-.31-.85-.43-.51-.22-1.1-.4-1.71-.52-.78-.11-1.46-.12-2.07-.06-.67.09-1.37.28-2.01.56-.52.22-1.05.54-1.57.94-.82.63-1.23,1.24-1.26,1.29h0c-.14.22-.11.51.07.69.1.1.24.16.38.16s.28-.06.38-.16h0s.45-.44,1.18-.94c.37-.27.85-.51,1.35-.75.53-.25,1.11-.43,1.68-.53.51-.12,1.09-.17,1.77-.16l.27.02c.2.01.39.03.58.04.17,0,.33.04.48.07.09.02.18.03.27.05.37.06.69.14.95.21.07.02.13.03.19.05l1.24.29-1.08-.68h0Z"/>
    <path class="st10" d="M40.77,52.13c-.08-.02-.16-.03-.23-.04.08.02.15.03.23.04M40.46,52.07c-.05-.01-.1-.02-.14-.03.05.01.09.02.14.03"/>
    <path class="st19" d="M40.54,52.08s-.06-.01-.09-.02c.03,0,.05.01.09.02M40.32,52.03s-.05-.01-.08-.02h0s.03,0,.08.02"/>
    <path class="st9" d="M38.58,53.2c-.06-.87,2.41.18,3.22.21.65.02,2.59-.13,2.78-.2,1.36-.51-.07,1.45-2.82,1.55-1.26.05-3.15-1.04-3.18-1.56"/>
    <path class="st20" d="M46.63,51.53c-.67-.03-1.36.53-2.17.44-.03-.02-.05-.02-.08-.02-.18-.03-.37,0-.57.05-.25.05-.51.15-.74.24-.4.13-.86.24-1.33.2s-.02,0-.03,0-.02,0-.03,0c-.47.03-.92-.07-1.33-.21-.24-.08-.49-.18-.74-.24-.2-.05-.38-.08-.57-.05-.03,0-.05,0-.08.02-.81.09-1.5-.47-2.17-.44-.19.02-.45-.03-.61-.03.03.02.07.03.1.05,1.92.93,3.57,2.69,5.4,2.63h.05c1.83.06,3.48-1.7,5.4-2.63.03-.02.07-.03.1-.05-.15,0-.42.05-.61.03h0Z"/>
    <path class="st23" d="M47.19,51.47s-1.95-.75-3.33-.31c0,0-.52.2-1.05.32-.33.13-.72.16-1.1.15-.29-.01-.57-.05-.8-.09-.07-.01-.15-.03-.23-.04-.03,0-.06-.01-.09-.02-.05-.01-.09-.02-.14-.03-.05-.01-.08-.02-.08-.02h0c-.44-.12-.82-.27-.82-.27-1.38-.44-3.33.31-3.33.31l-.04.02c.15,0,.42.05.61.03.67-.03,1.36.53,2.17.44.03-.02.05-.02.08-.02.18-.03.37,0,.57.05.25.05.51.15.74.24.4.13.86.24,1.33.2s.02,0,.03,0,.02,0,.03,0c.47.03.92-.07,1.33-.21.24-.08.49-.18.74-.24.2-.05.38-.08.57-.05.03,0,.05,0,.08.02.81.09,1.5-.47,2.17-.44.18.02.45-.03.61-.03l-.04-.02h0Z"/>
    <path class="st23" d="M38.44,51.93s3.65,1.11,6.48.02l-.33-.22h-3.82l-2.33.19Z"/>
    <path class="st4" d="M39,39.82c.06-.16.11-.31.16-.47.3-.91.45-1.85.28-2.81-.15-.87-.69-1.47-1.42-1.94-.88-.58-1.89-.77-2.92-.88-1.95-.2-3.9-.16-5.82.28-1.14.26-2.01.82-2.44,1.91s0,.02-.02.04c0,.02-.02.04-.02.06-.02.05-.03.09-.03.13-.03.12-.07.27-.11.46-.03.13-.06.26-.06.39-.02.22-.03.44-.02.67.03.84.15,1.66.39,2.44,3.34-1.09,7.6-1.7,12.01-.28h0ZM56.95,40.45c.32-.88.47-1.82.51-2.79.02-.23,0-.46-.02-.67,0-.13-.02-.27-.06-.39-.03-.18-.07-.34-.11-.46,0-.04-.02-.08-.03-.13,0-.02-.02-.04-.02-.06,0-.03-.02-.04-.02-.04-.42-1.09-1.3-1.65-2.44-1.91-1.92-.44-3.87-.49-5.82-.28-1.03.11-2.03.3-2.92.88-.73.47-1.26,1.08-1.42,1.94-.17.96-.02,1.9.28,2.81.02.06.04.12.06.18,4.5-1.14,8.77-.28,12,.93h0Z"/>
    <path class="st4" d="M33.33,44.34c1.24-.12,2.38-.51,3.39-1.24,1.16-.85,1.81-2.01,2.28-3.29-4.41-1.41-8.67-.81-12.01.28.25.8.63,1.57,1.2,2.27,1.31,1.61,3.08,2.18,5.14,1.98h0Z"/>
    <path class="st5" d="M33.33,44.34c1.24-.12,2.38-.51,3.39-1.24,1.16-.85,1.81-2.01,2.28-3.29-4.41-1.41-8.67-.81-12.01.28.25.8.63,1.57,1.2,2.27,1.31,1.61,3.08,2.18,5.14,1.98h0Z"/>
    <path class="st4" d="M47.34,43.1c1,.73,2.15,1.12,3.39,1.24,2.06.2,3.83-.36,5.14-1.98.49-.6.84-1.24,1.08-1.91-3.23-1.21-7.5-2.07-12-.93.47,1.39,1.13,2.67,2.38,3.58h0Z"/>
    <path class="st5" d="M47.34,43.1c1,.73,2.15,1.12,3.39,1.24,2.06.2,3.83-.36,5.14-1.98.49-.6.84-1.24,1.08-1.91-3.23-1.21-7.5-2.07-12-.93.47,1.39,1.13,2.67,2.38,3.58h0Z"/>
    <path class="st6" d="M59.77,34.87c-.02-.43-.06-.48-.5-.58-.22-.05-.45-.1-.67-.15-1.21-.27-2.41-.55-3.63-.78-3.35-.62-6.67-.79-9.84.82-.52.27-1.08.32-1.68.19-.47-.1-.95-.15-1.42-.16-.48,0-.95.06-1.42.16-.6.12-1.15.07-1.68-.19-3.16-1.61-6.49-1.44-9.84-.82-1.15.21-2.29.48-3.43.73-.29.07-.58.13-.87.19-.44.1-.48.14-.5.58-.02.4-.05.8.35,1.08.02.02.04.05.06.07.45.51.79,1.06.97,1.7.06.2.1.4.13.62.09.69.24,1.36.47,2.01.24.67.55,1.31.95,1.91,1.02,1.53,2.47,2.47,4.32,2.68,3,.35,5.45-.63,7.18-3.1.4-.57.75-1.16,1.05-1.77.41-.82.72-1.69.93-2.59.04-.16.01-.36-.06-.51-.29-.64-.07-1.12.62-1.28.25-.06.51-.09.76-.1.25,0,.51.04.76.1.69.16.91.64.62,1.28-.07.15-.09.35-.06.51.18.79.45,1.54.78,2.26.33.73.74,1.43,1.21,2.1,1.73,2.46,4.18,3.45,7.18,3.1,1.85-.22,3.31-1.15,4.32-2.68.33-.49.59-1,.81-1.54.31-.76.51-1.57.61-2.39.05-.42.16-.8.33-1.16.19-.42.45-.8.77-1.16.02-.02.03-.05.06-.07.4-.27.37-.68.35-1.08h0ZM39.16,39.34c-.05.16-.11.32-.16.47-.46,1.27-1.12,2.44-2.28,3.29-1,.73-2.15,1.12-3.39,1.24-2.06.2-3.83-.36-5.14-1.98-.57-.7-.95-1.46-1.2-2.27-.24-.78-.36-1.59-.39-2.44-.02-.23,0-.46.02-.67,0-.13.02-.27.06-.39.03-.18.07-.34.11-.46,0-.04.02-.08.03-.13,0-.02.02-.04.02-.06,0-.03.02-.04.02-.04.42-1.09,1.3-1.65,2.44-1.91,1.92-.44,3.87-.49,5.82-.28,1.03.11,2.03.3,2.92.88.73.47,1.26,1.08,1.42,1.94.17.96.02,1.89-.28,2.81h0ZM57.46,37.67c-.04.97-.18,1.91-.51,2.79-.25.67-.6,1.32-1.08,1.91-1.31,1.61-3.08,2.18-5.14,1.98-1.24-.12-2.38-.51-3.39-1.24-1.25-.91-1.91-2.19-2.38-3.58-.02-.06-.04-.12-.06-.18-.3-.91-.45-1.85-.28-2.81.15-.87.69-1.47,1.42-1.94.88-.58,1.89-.77,2.92-.88,1.95-.2,3.9-.16,5.82.28,1.14.26,2.01.82,2.44,1.91s0,.02.02.04c0,.02.02.04.02.06.02.05.03.09.03.13.03.12.07.27.11.46.03.13.06.26.06.39.02.22.03.44.02.67h0Z"/>
    <path class="st12" d="M54.7,71.78h-25.64c.78-1.75,1.66-3.72,1.99-7.35.65-.51,1.29-.88,1.86-1.16.3-.15.58-.27.84-.36.09-.03.17-.07.25-.09.1-.03.19-.06.28-.09.25-.08.45-.13.6-.16,1.86,2.67,5.14,7.01,6.92,7.02h0s.05,0,.08,0c1.83-.11,5.13-4.44,6.97-7.04.22.05.61.13,1.11.31.08.03.15.06.24.09.04.02.09.03.13.06.11.05.23.1.35.15.6.27,1.3.67,2.02,1.21.32,3.68,1.21,5.66,2,7.41h0ZM27.43,80h28.89c-.07-1.09-.17-2.63-.27-3.64h-28.36c-.1,1.01-.2,2.56-.27,3.64h0Z"/>
    <path class="st16" d="M54.7,71.78h-25.65c-.59,1.33-1.13,2.53-1.32,4.23-.01.11-.02.22-.04.35h28.36c-.01-.12-.02-.24-.04-.35-.19-1.7-.72-2.9-1.32-4.23"/>
    <path class="st12" d="M46.97,50.02s-2.44-2.68-4.1-1.66c-.89.57-1.68.2-1.93.05-.01-.01-.03-.02-.04-.03-.03-.02-.04-.03-.04-.03-1.66-1.01-4.1,1.66-4.1,1.66,0,0-1.7,1.77-3.4,1.21-.29-.09-.5.28-.29.49,1.04,1.06,2.93,2.17,6.08,1.51.7-.15,1.25-.34,1.68-.55.65-.33,1.42-.33,2.08,0,.43.22.98.4,1.68.55,3.15.65,5.04-.45,6.08-1.51.21-.22,0-.59-.29-.49-1.7.56-3.4-1.21-3.4-1.21h0Z"/>
  </g>
</svg>