<?xml version="1.0" encoding="UTF-8"?>
<svg id="Layer_2" xmlns="http://www.w3.org/2000/svg" version="1.1" xmlns:xlink="http://www.w3.org/1999/xlink" viewBox="0 0 80 80">
  <!-- Generator: Adobe Illustrator 30.2.1, SVG Export Plug-In . SVG Version: 2.1.1 Build 1)  -->
  <defs>
    <style>
      .st0 {
        fill: #dac6a4;
      }

      .st1 {
        fill: #b5957e;
      }

      .st2 {
        fill: #b8987d;
      }

      .st3 {
        fill: #714223;
      }

      .st4 {
        fill: #ccad8a;
      }

      .st5 {
        fill: #ecdab6;
      }

      .st6 {
        fill: #d7bd9d;
      }

      .st7 {
        fill: #fff;
      }

      .st8 {
        fill: #272213;
      }

      .st9 {
        fill: #a01428;
      }

      .st10 {
        fill: #b7967d;
      }

      .st11 {
        fill: none;
      }

      .st12 {
        fill: #e5e4e2;
      }

      .st13 {
        fill: #b12717;
      }

      .st14 {
        fill: #6b7396;
      }

      .st15 {
        fill: #432541;
      }

      .st16 {
        fill: #d2bb9b;
      }

      .st17 {
        fill: #ba9d82;
      }

      .st18 {
        fill: #dcc5a0;
      }

      .st19 {
        fill: #c1a587;
      }

      .st20 {
        fill: #44361f;
      }

      .st21 {
        fill: #5b5051;
      }

      .st22 {
        fill: #a98d76;
      }

      .st23 {
        fill: #462e1b;
      }

      .st24 {
        clip-path: url(#clippath);
      }

      .st25 {
        fill: #fdfefe;
      }

      .st26 {
        fill: #ebd9b5;
      }
    </style>
    <clipPath id="clippath">
      <rect class="st11" x="35.58" y="55.4" width="9.07" height="5.31"/>
    </clipPath>
  </defs>
  <g id="Layer_1-2">
    <path class="st14" d="M0,0h80v80H0V0Z"/>
    <path class="st18" d="M40.08,49.94v30.06h-16.37c-.27-.11-.4-.16-.4-.16,0-3.84.57-6.83,1.43-9.16,2.08-5.63,5.89-7.42,7.65-7.96.57-.18.93-.22.93-.22.06,0,.12,0,.18-.01.52-.08.93-.53,1.27-1.24.25-.53.46-1.2.63-1.98.07-.3.12-.61.17-.94.08-.55.16-1.14.23-1.75.03-.37.07-.73.1-1.11.14-1.84.19-3.85.19-5.76,0,0,2.2.23,3.98.23h0Z"/>
    <path class="st26" d="M56.92,79.84s-.15.05-.39.16h-16.45v-30.06h.04c1.77,0,3.99-.23,3.99-.23,0,1.89.04,3.88.18,5.72.04.36.08.73.1,1.08.07.64.15,1.23.24,1.79h0c.03.26.08.49.12.73.16.78.36,1.47.59,2.02.29.69.65,1.17,1.09,1.36.14.06.29.09.44.09,0,0,.63.08,1.57.44,1.93.75,5.16,2.72,7.02,7.74.86,2.33,1.43,5.32,1.43,9.16h0Z"/>
    <g class="st24">
      <path class="st17" d="M44.65,58.25h0c-.41.64-1.8,2.46-4.54,2.46h-.03c-2.6-.01-4.11-1.88-4.5-2.43.08-.55.16-1.13.23-1.74.03-.35.07-.72.1-1.11,1.26.31,2.65.51,4.11.54h.05c1.52-.03,2.91-.24,4.22-.58.04.35.08.72.11,1.08.07.63.15,1.22.24,1.77"/>
    </g>
    <path class="st4" d="M39.9,15.68c-17.34,0-17.43,14.4-16.66,23.83-1.18-2.24-4.71-1.55-4.42,1.97.28,3.39,5.32,5.12,5.18,4.75,2.63,6.97,9.58,12.23,15.9,12.23h.13V15.68h-.13Z"/>
    <path class="st22" d="M19.92,39.99c.85-1.37,2.19-.78,2.5-.47.35.33.62.75.41,1.55-.12.46-.6.5-.49,1.18.13.78.49.82.7,1,.2.17.45.3.57.63.13.33.15.67.08.97-.13.55-.95.1-1.49-.13-.36-.17-1.51-1.13-1.8-1.45-.72-.82-1.07-2.39-.49-3.29"/>
    <path class="st6" d="M39.99,15.68c17.34,0,17.43,14.4,16.67,23.83,1.18-2.24,4.7-1.55,4.41,1.97-.27,3.39-5.32,5.12-5.18,4.75-2.56,6.97-9.58,12.23-15.9,12.23h-.09l-.04-42.78h.13"/>
    <path class="st22" d="M59.96,39.99c-.85-1.37-2.17-.78-2.5-.47-.35.33-.61.75-.41,1.55.12.46.6.5.49,1.18-.13.78-.49.82-.69,1-.2.17-.47.3-.59.63-.12.33-.15.67-.08.97.13.55.95.1,1.49-.13.37-.17,1.51-1.13,1.8-1.45.73-.82,1.07-2.39.49-3.29"/>
    <path class="st18" d="M39.76,19.74c-5.7,0-9.88,1.64-12.4,4.88-3.53,4.54-3.4,11.45-2.1,16.43.4,1.52.61,5.61.88,7.11,1.24,6.72,8.71,10.3,13.62,10.3h.13V19.74h-.08"/>
    <path class="st26" d="M52.14,24.63c-2.5-3.22-6.63-4.87-12.25-4.89v38.72c5.62-.06,12.34-3.99,13.49-10.3.28-1.5.48-5.59.88-7.11,1.3-4.96,1.44-11.86-2.12-16.41"/>
    <path class="st11" d="M39.2,50.19c-.08-.01-.15-.03-.21-.04.07.01.14.03.21.04M38.9,51.58c-.05-.01-.1-.02-.13-.03.04.01.09.02.13.03"/>
    <path class="st10" d="M38.99,51.6s-.05-.01-.08-.02c.03,0,.05.01.08.02M38.77,51.55s-.05-.01-.07-.02.03,0,.08.02h0Z"/>
    <path class="st6" d="M36.66,46.57c-.07-1.34,2.47-.49,3.31-.45.66.03,2.67-.42,2.85-.3,1.18.79-1.25,2.39-2.89,2.39-.44,0-3.23-.83-3.27-1.64h0Z"/>
    <path class="st11" d="M24.35,31.81c-.16.51-.26,1.07-.34,1.67,0,0,.23-.94.73-2.34-.22.3-.36.54-.4.67"/>
    <path class="st20" d="M35.05,19.84l-.07.07v.03s.05-.07.07-.1"/>
    <path class="st11" d="M39.25,50.85c-.08-.01-.16-.03-.22-.04.08.01.15.03.22.04M38.95,50.79c-.05-.01-.1-.02-.13-.03.04.01.09.02.13.03"/>
    <path class="st1" d="M39.03,50.81s-.05-.01-.08-.02c.03,0,.05.01.08.02M38.82,50.76l-.08-.02s.03.01.08.02"/>
    <path class="st7" d="M27.46,34.85s1.32,5.39,3.59,5.83,4.73-.44,4.73-.44c0,0,.23-6.34-.93-7.16-1.16-.83-3.84-2.03-7.39,1.77"/>
    <path class="st16" d="M35.78,40.23s-.05.01-.17.06c-.03-1.94-.21-4.61-.94-5.12-1.08-.79-3.52-1.89-6.77,1.13-.3-.83-.44-1.47-.44-1.47,3.56-3.81,6.24-2.61,7.39-1.77,1.16.83.93,7.17.93,7.17h0Z"/>
    <ellipse class="st23" cx="32.2" cy="37.49" rx="2.24" ry="2.22"/>
    <path class="st3" d="M32.1,38.97c-.65-.05-1.14-.7-1.08-1.41s.65-1.27,1.3-1.21,1.14.7,1.08,1.41-.65,1.27-1.3,1.22"/>
    <path class="st8" d="M32.15,38.71c-.45-.04-.91-.53-.87-1.13.05-.6.59-1.01,1.04-.98.45.04.91.53.86,1.13s-.59,1.01-1.04.97"/>
    <path class="st7" d="M31.79,37.22c-.02.22-.25.38-.5.36-.26-.02-.46-.22-.44-.43.02-.22.24-.38.5-.36s.46.21.44.43M33.24,38.48c-.01.11-.12.19-.25.18-.13-.01-.23-.11-.22-.22.01-.11.12-.19.25-.18.13.01.23.11.22.22"/>
    <path class="st11" d="M39.29,51.49c-.08-.01-.16-.03-.22-.04.08.01.15.03.22.04M38.98,51.43c-.05-.01-.1-.02-.13-.03.04.01.09.02.13.03"/>
    <path class="st1" d="M39.07,51.45s-.05-.01-.08-.02c.03,0,.05.01.08.02M38.85,51.4l-.08-.02s.03,0,.08.02"/>
    <path class="st11" d="M39.2,51.34c-.09-.01-.17-.03-.23-.04.08.02.16.03.23.04M38.88,51.27c-.05-.01-.11-.03-.14-.03.05.01.09.02.14.03"/>
    <path class="st10" d="M38.97,51.29s-.06-.01-.09-.02c.03,0,.05.01.09.02M38.73,51.24s-.05-.01-.08-.02.03.01.08.02h0Z"/>
    <path class="st11" d="M39.13,51.11c-.09-.01-.17-.03-.23-.04.08.02.16.03.23.04M38.81,51.05c-.05-.01-.11-.03-.14-.03.05.01.09.02.14.03"/>
    <path class="st10" d="M38.9,51.07s-.06-.01-.09-.02c.03,0,.05.01.09.02M38.67,51.02s-.05-.01-.08-.02.03.01.08.02h0Z"/>
    <path class="st11" d="M39.34,51.08c-.08-.01-.16-.03-.23-.04.08.02.15.03.23.04M39.02,51.02c-.05-.01-.1-.02-.14-.03.05.01.09.02.14.03"/>
    <path class="st10" d="M39.1,51.04s-.06-.01-.09-.02c.03,0,.05.01.09.02M38.88,50.99l-.08-.02s.03.01.08.02h0Z"/>
    <path class="st7" d="M52.47,34.67s-1.32,5.39-3.59,5.83-4.73-.44-4.73-.44c0,0-.23-6.34.93-7.16,1.16-.83,3.84-2.03,7.39,1.77"/>
    <path class="st16" d="M44.14,40.05s.05.01.17.06c.03-1.94.21-4.61.94-5.12,1.08-.79,3.52-1.89,6.77,1.13.3-.83.44-1.47.44-1.47-3.56-3.81-6.24-2.61-7.39-1.77-1.16.83-.93,7.17-.93,7.17h0Z"/>
    <path class="st23" d="M45.49,37.31c0,1.23,1,2.22,2.24,2.22s2.24-.99,2.24-2.22-1-2.22-2.24-2.22-2.24.99-2.24,2.22"/>
    <path class="st3" d="M47.82,38.78c.65-.05,1.14-.7,1.08-1.41s-.65-1.27-1.3-1.21-1.14.7-1.08,1.41.65,1.27,1.3,1.22"/>
    <path class="st8" d="M47.77,38.53c.45-.04.91-.53.87-1.13-.05-.6-.59-1.01-1.04-.98-.45.04-.91.53-.86,1.13s.59,1.01,1.04.97"/>
    <path class="st7" d="M48.13,37.04c.02.22.25.38.5.36.26-.02.46-.22.44-.43-.02-.22-.24-.38-.5-.36s-.46.21-.44.43M46.68,38.3c.01.11.12.19.25.18.13-.01.23-.11.22-.22-.01-.11-.12-.19-.25-.18-.13.01-.23.11-.22.22"/>
    <path d="M37.14,34.77s-.43-.65-1.27-1.29c-.53-.4-1.04-.71-1.58-.94-.65-.27-1.35-.47-2.03-.56-.61-.07-1.3-.05-2.09.06-.61.11-1.2.29-1.7.52-.36.12-.64.29-.87.43-.09.05-.17.1-.25.14l-1.08.68,1.25-.29c.06-.01.12-.03.19-.05.26-.07.58-.15.96-.21.09-.01.18-.03.27-.05.16-.03.32-.06.49-.07.19-.01.39-.03.59-.04l.26-.02c.69,0,1.28.04,1.8.16.57.1,1.15.28,1.69.53.51.24.99.48,1.37.75.76.51,1.19.93,1.19.93.1.1.25.16.39.16.1,0,.21-.03.3-.09.25-.16.32-.5.16-.74v-.02s-.01.01-.01.01ZM52.69,33.13c-.07-.04-.15-.09-.24-.14-.23-.14-.51-.31-.86-.43-.51-.23-1.11-.4-1.72-.52-.79-.1-1.47-.13-2.09-.05-.68.09-1.38.29-2.03.56-.53.23-1.06.54-1.58.94-.83.63-1.24,1.24-1.27,1.29h0c-.14.23-.11.51.07.69.1.1.24.16.38.16s.28-.06.38-.16h0s.45-.44,1.19-.94c.37-.27.86-.51,1.36-.75.54-.25,1.12-.43,1.7-.53.51-.12,1.1-.17,1.78-.16l.27.02c.2.01.39.03.59.04.17,0,.33.04.49.07.09.02.18.04.27.05.38.05.7.14.96.21.07.02.13.04.19.05l1.25.29-1.09-.68Z"/>
    <path class="st11" d="M38.91,52.13c-.08-.01-.16-.03-.23-.04.08.02.16.03.23.04M38.59,52.06c-.05-.01-.1-.03-.14-.03l.14.03Z"/>
    <path class="st2" d="M38.67,52.08s-.06-.01-.09-.02c.03,0,.05.01.09.02M38.45,52.03s-.05-.01-.08-.02.03.01.08.02"/>
    <path class="st5" d="M36.69,53.19c-.07-.87,2.43.18,3.25.21.65.02,2.62-.13,2.8-.2,1.37-.51-.08,1.45-2.84,1.55-1.27.05-3.17-1.04-3.21-1.56h0Z"/>
    <path class="st0" d="M44.81,51.52c-.68-.03-1.37.53-2.19.44-.03-.02-.05-.02-.08-.02-.19-.03-.37,0-.58.05-.25.05-.51.15-.75.24-.41.13-.87.24-1.34.2s-.02,0-.03,0h-.03c-.47.03-.93-.07-1.34-.2-.24-.08-.49-.19-.75-.24-.2-.05-.39-.08-.58-.05-.04,0-.05,0-.08.02-.82.09-1.51-.48-2.19-.44-.19.02-.46-.03-.61-.03.03.02.07.03.1.05,1.93.93,3.6,2.69,5.44,2.63h.05c1.85.06,3.51-1.7,5.44-2.63.04-.02.07-.03.1-.05-.15,0-.42.05-.61.03h0Z"/>
    <path class="st19" d="M45.38,51.47s-1.96-.75-3.36-.31c0,0-.52.2-1.06.33-.33.13-.73.16-1.11.15-.29-.01-.57-.05-.8-.09-.08-.01-.15-.03-.23-.04-.03,0-.06-.01-.09-.02l-.14-.03c-.05-.01-.08-.02-.08-.02-.45-.12-.83-.27-.83-.27-1.4-.44-3.36.31-3.36.31-.03.01-.04.02-.04.02.15,0,.42.05.61.03.68-.03,1.37.53,2.19.44.03-.02.05-.02.08-.02.19-.03.37,0,.58.05.25.05.51.15.75.24.41.13.87.24,1.34.2s.02,0,.03,0h.03c.47.03.93-.07,1.34-.2.24-.08.49-.19.75-.24.2-.05.39-.08.58-.05.04,0,.05,0,.08.02.82.09,1.51-.48,2.19-.44.19.02.46-.03.61-.03,0,0-.02,0-.04-.02h0Z"/>
    <path class="st19" d="M36.55,51.93s3.68,1.11,6.53.03l-.33-.22h-3.85l-2.35.2h0Z"/>
    <path class="st15" d="M37.85,67.34v12.65h-12.02c.07-.97.13-2.53.14-4.6h-3.08c-.03-3.01,2.38-8.13,2.38-8.13.23-.31.47-.6.71-.87.62-.72,1.28-1.3,1.92-1.77.07-.08.16-.13.24-.18.21-.15.42-.29.62-.42.93-.59,1.81-.96,2.5-1.19.16-.06.31-.1.46-.14.64-.18,1.04-.23,1.04-.23.34,0,.64-.13.9-.34,0,0,0-.01.01-.01.09-.08.18-.18.27-.29.03.03.1.11.16.3.25.6,1.71,3.69,3.75,5.22h0ZM54.29,75.4c.01,2.06.09,3.64.16,4.6h-12.07v-12.63c.65-.48,1.25-1.13,1.76-1.8,1.12-1.45,1.86-3.03,2.03-3.45.06-.18.13-.27.17-.3.08.1.17.2.26.29.01,0,.01.01.01.01.26.21.57.34.9.34,0,0,.38.04.99.2.13.05.28.09.45.15.84.28,1.97.75,3.16,1.6.08.06.17.11.23.19.9.66,1.82,1.52,2.65,2.66,0,0,2.46,3.54,2.35,8.13h-3.05Z"/>
    <path class="st12" d="M56.18,44.1l-.73.54s-4.65,10.34-8.57,7.71v.05c-.21-.6-.49-1.12-.85-1.5-1.11-1.62-3.35-2.73-5.94-2.73-2.39,0-4.48.94-5.66,2.35-.53.36-.96.99-1.23,1.78h0c-3.92,2.63-8.26-7.66-8.26-7.66l-.73-.54-.02,1.64c1.46,6.27,7.59,10.52,10.03,11.99.2.18.42.32.65.4.11.06.23.11.35.16,0,0,.02.01.02.01,1.22.53,2.93.87,4.84.87,2.04,0,3.86-.38,5.09-.98l-.03.11s9.22-4.68,11.06-12.57l-.02-1.64h0ZM43.34,57.03s.01-.04.01-.06c0-.62-1.49-1.12-3.34-1.12s-3.33.5-3.33,1.12v.03c-.65-.16-1.24-.37-1.72-.61-.26-.63-.42-1.37-.42-2.17h0c0-.43.2-.83.52-1.11.98-.83,2.32-1.42,3.84-1.63.38-.05.78-.08,1.18-.08s.79.03,1.18.08c1.38.19,2.6.69,3.55,1.41.42.31.67.81.67,1.32h0c0,.84-.17,1.62-.45,2.26-.49.22-1.06.41-1.69.56h0Z"/>
    <path class="st14" d="M51.22,68.59h-6.96v.68l2.23,2.21h4.02l2.23-2.21v-.68h-1.51ZM34.96,68.59h-6.96v.68l2.23,2.21h4.02l2.23-2.21v-.68h-1.52Z"/>
    <path class="st25" d="M35.11,62.59c0,.5-.41.91-.92.91s-.92-.41-.92-.91.41-.91.92-.91.92.41.92.91"/>
    <path class="st9" d="M36,64.18c0,.5-.41.91-.92.91s-.92-.41-.92-.91.41-.91.92-.91.92.41.92.91"/>
    <path class="st25" d="M37.11,65.63c0,.5-.41.91-.92.91s-.92-.41-.92-.91.41-.91.92-.91.92.41.92.91"/>
    <path class="st9" d="M38.51,66.81c0,.5-.41.91-.92.91s-.92-.41-.92-.91.41-.91.92-.91.92.41.92.91"/>
    <ellipse class="st25" cx="39.3" cy="67.49" rx=".92" ry=".91"/>
    <path class="st9" d="M41.15,66.23c.51,0,.92.41.92.91s-.41.91-.92.91-.92-.41-.92-.91.41-.91.92-.91"/>
    <path class="st25" d="M42.75,65.35c.51,0,.92.41.92.91s-.41.91-.92.91-.92-.41-.92-.91.41-.91.92-.91"/>
    <path class="st9" d="M44.22,64.25c.51,0,.92.41.92.91s-.41.91-.92.91-.92-.41-.92-.91.41-.91.92-.91"/>
    <path class="st25" d="M45.4,62.86c.51,0,.92.41.92.91s-.41.91-.92.91-.92-.41-.92-.91.41-.91.92-.91"/>
    <path class="st9" d="M46.09,61.16c.51,0,.92.41.92.91s-.41.91-.92.91-.92-.41-.92-.91.41-.91.92-.91"/>
    <path class="st21" d="M55.97,42.34c.35,0-.03-1.86,1.15-3.14,1.17-1.28,2.95-5.6,2.95-9.91s-1.53-8.15-5.5-12.23c-3.98-4.08-9.83-6.06-9.83-6.06l2.69,2.44s-1.45-1.99-6.66-3.57c-4.11-1.25-6.78.14-6.78.14,0,0,2.71-.09,3.54,1.08.21.3.97.75.97.75,0,0-1.26-2.82-7.12-.48-5.85,2.33-5.74,6.51-9.81,7.79-4.17,1.32-5.37-.37-5.37-.37,0,0,1.81,2.96,5.02,2.96.62,0,.57-.01.57-.01,0,0-1.2,3.17-1.43,5.53-.23,2.41.5,4.06.73,8.57.2,3.86,1.25,1.88,2.51,4.72.43.95.44,2.03.44,2.03.47.11,1.69-2.31.81-6.53-.57-2.74,2.26-13.11,9.08-11.09,4.17,1.24,5.23,3.76,8.35,1.52,2.69-1.93,6.45-3.04,9.26-1.51,2.81,1.53,4.39,4.96,3.9,10.43-.62,6.99.55,6.94.55,6.94h0Z"/>
    <path class="st13" d="M59.02,46.17l-1.88-2.8c-.17-.26.01-.61.33-.61h.29c.21,0,.41.08.56.23l1.73,1.72c-.2.66-.66,1.16-1.04,1.46M57.47,47.49l-1.1-2.57c-.1-.24.1-.49.36-.45l.23.04c.17.03.33.13.42.27l1.15,1.66c-.27.51-.72.84-1.07,1.04h0ZM60.81,44.21l-2.04-1.06c-.19-.1-.18-.36.01-.47l.18-.09c.13-.07.28-.08.42-.04l1.61.46c.08.46-.05.9-.18,1.2h0ZM61.78,42.43l-2.78-.5c-.26-.05-.36-.36-.18-.55l.17-.17c.12-.13.29-.2.46-.2l2.04-.04c.29.5.32,1.06.29,1.46"/>
  </g>
</svg>