<?xml version="1.0" encoding="UTF-8"?>
<svg id="Layer_2" xmlns="http://www.w3.org/2000/svg" version="1.1" xmlns:xlink="http://www.w3.org/1999/xlink" viewBox="0 0 80 80">
  <!-- Generator: Adobe Illustrator 30.2.1, SVG Export Plug-In . SVG Version: 2.1.1 Build 1)  -->
  <defs>
    <style>
      .st0 {
        fill: #dac6a4;
      }

      .st1 {
        fill: #b5957e;
      }

      .st2 {
        fill: #48362f;
      }

      .st3 {
        fill: #b8987d;
      }

      .st4 {
        fill: #714223;
      }

      .st5 {
        fill: #ccad8a;
      }

      .st6 {
        fill: #ecdab6;
      }

      .st7 {
        fill: #d7bd9d;
      }

      .st8 {
        fill: #fff;
      }

      .st9 {
        fill: #272213;
      }

      .st10 {
        fill: #b7967d;
      }

      .st11 {
        fill: none;
      }

      .st12, .st13 {
        fill: #cc654c;
      }

      .st14 {
        fill: #b0bc48;
      }

      .st15 {
        fill: #bcd3aa;
      }

      .st15, .st16, .st17 {
        isolation: isolate;
        opacity: .49;
      }

      .st18 {
        fill: #d2bb9b;
      }

      .st19 {
        fill: #ba9d82;
      }

      .st20 {
        fill: #dcc5a0;
      }

      .st13 {
        fill-rule: evenodd;
      }

      .st16 {
        fill: url(#linear-gradient);
      }

      .st21 {
        fill: #c1a587;
      }

      .st22 {
        fill: #44361f;
      }

      .st23 {
        fill: #a98d76;
      }

      .st24 {
        fill: #462e1b;
      }

      .st25 {
        clip-path: url(#clippath);
      }

      .st17 {
        fill: url(#linear-gradient1);
      }

      .st26 {
        fill: #ebd9b5;
      }
    </style>
    <clipPath id="clippath">
      <rect class="st11" x="35.58" y="55.39" width="9.07" height="5.31"/>
    </clipPath>
    <linearGradient id="linear-gradient" x1="784.12" y1="-95.08" x2="784.12" y2="-49.9" gradientTransform="translate(-251.76 12.45) scale(.36 -.36)" gradientUnits="userSpaceOnUse">
      <stop offset="0" stop-color="#fff"/>
      <stop offset="1" stop-color="#9cb18b"/>
    </linearGradient>
    <linearGradient id="linear-gradient1" x1="834.77" y1="-95.08" x2="834.77" y2="-49.9" gradientTransform="translate(-251.76 12.45) scale(.36 -.36)" gradientUnits="userSpaceOnUse">
      <stop offset="0" stop-color="#fff"/>
      <stop offset="1" stop-color="#9cb18b"/>
    </linearGradient>
  </defs>
  <g id="Layer_1-2">
    <path class="st14" d="M0,0h80v80H0V0Z"/>
    <path class="st20" d="M40.08,49.94v30.06h-16.36c-.27-.11-.4-.16-.4-.16,0-3.84.57-6.83,1.43-9.16,2.08-5.63,5.9-7.42,7.65-7.96.58-.18.93-.22.93-.22.06,0,.12,0,.18-.01.52-.08.94-.53,1.27-1.24.25-.53.46-1.2.63-1.98.07-.3.12-.61.17-.94.08-.55.16-1.14.23-1.75.03-.37.06-.73.1-1.11.14-1.84.19-3.85.19-5.76,0,0,2.2.23,3.98.23h0Z"/>
    <path class="st26" d="M56.91,79.84s-.15.05-.39.16h-16.44v-30.06h.04c1.77,0,4-.23,4-.23,0,1.89.04,3.88.18,5.72.04.36.08.73.1,1.09.07.64.15,1.23.24,1.79h0c.03.26.08.49.12.73.16.78.36,1.47.6,2.02.3.69.65,1.17,1.09,1.36.14.06.29.09.44.09,0,0,.63.08,1.57.44,1.93.75,5.16,2.72,7.02,7.73.86,2.33,1.43,5.32,1.43,9.16h0Z"/>
    <g class="st25">
      <path class="st19" d="M44.65,58.25h0c-.41.65-1.8,2.46-4.54,2.46h-.03c-2.6-.01-4.12-1.88-4.5-2.43.08-.55.16-1.13.23-1.73.03-.35.06-.72.11-1.1,1.26.31,2.65.51,4.12.54h.05c1.52-.03,2.92-.24,4.22-.58.04.35.08.72.11,1.08.06.63.15,1.22.24,1.77"/>
    </g>
    <path class="st5" d="M39.9,15.68c-17.34,0-17.43,14.4-16.66,23.83-1.18-2.23-4.71-1.55-4.42,1.97.28,3.39,5.32,5.12,5.18,4.75,2.62,6.97,9.57,12.23,15.9,12.23h.13V15.68h-.13Z"/>
    <path class="st23" d="M19.92,40c.85-1.37,2.18-.78,2.5-.47.35.33.62.75.41,1.55-.12.46-.6.5-.49,1.18.13.78.49.82.7,1,.2.17.45.3.57.63.13.33.15.67.08.97-.13.55-.95.1-1.49-.13-.36-.17-1.51-1.13-1.8-1.45-.72-.82-1.06-2.39-.49-3.29"/>
    <path class="st7" d="M39.99,15.68c17.34,0,17.43,14.4,16.67,23.83,1.18-2.23,4.7-1.55,4.41,1.97-.27,3.39-5.32,5.12-5.18,4.75-2.56,6.97-9.57,12.23-15.9,12.23h-.09l-.04-42.78h.13"/>
    <path class="st23" d="M59.96,40c-.85-1.37-2.17-.78-2.5-.47-.35.33-.61.75-.41,1.55.12.46.6.5.49,1.18-.13.78-.49.82-.69,1-.2.17-.47.3-.58.63s-.15.67-.08.97c.13.55.95.1,1.49-.13.37-.17,1.51-1.13,1.8-1.45.73-.82,1.06-2.39.49-3.29"/>
    <path class="st20" d="M39.76,19.74c-5.7,0-9.88,1.64-12.4,4.88-3.53,4.54-3.4,11.45-2.1,16.42.4,1.53.61,5.61.88,7.12,1.24,6.72,8.71,10.3,13.62,10.3h.13V19.74h-.08"/>
    <path class="st26" d="M52.14,24.63c-2.5-3.22-6.63-4.87-12.25-4.89v38.72c5.62-.06,12.34-3.98,13.49-10.3.28-1.5.48-5.59.88-7.12,1.3-4.96,1.44-11.86-2.12-16.41"/>
    <path class="st11" d="M39.2,50.19c-.08-.01-.15-.03-.21-.04.07.01.14.03.21.04M38.9,51.58c-.05-.01-.1-.02-.13-.03.04.01.09.02.13.03"/>
    <path class="st10" d="M38.99,51.6s-.05-.01-.08-.02c.03,0,.05.01.08.02M38.77,51.55s-.05-.01-.07-.02.03,0,.08.02h0Z"/>
    <path class="st7" d="M36.66,46.57c-.06-1.34,2.47-.49,3.31-.45.66.03,2.68-.42,2.85-.3,1.18.79-1.25,2.39-2.89,2.39-.44,0-3.23-.83-3.27-1.64h0Z"/>
    <path class="st11" d="M24.35,31.81c-.16.51-.26,1.07-.34,1.67,0,0,.23-.94.73-2.34-.22.3-.36.54-.4.67"/>
    <path class="st22" d="M35.05,19.84l-.07.07v.03s.05-.07.07-.1"/>
    <path class="st11" d="M39.25,50.85c-.08-.01-.16-.03-.22-.04.08.01.15.03.22.04M38.95,50.79c-.05-.01-.1-.02-.13-.03.04.01.09.02.13.03"/>
    <path class="st1" d="M39.03,50.81s-.05-.01-.08-.02c.03,0,.05.01.08.02M38.82,50.76l-.08-.02s.03,0,.08.02"/>
    <path class="st8" d="M27.45,34.85s1.32,5.39,3.59,5.83,4.73-.44,4.73-.44c0,0,.23-6.34-.93-7.16-1.16-.83-3.84-2.03-7.39,1.77"/>
    <path class="st18" d="M35.78,40.23s-.05.01-.17.06c-.03-1.94-.21-4.61-.94-5.12-1.08-.79-3.52-1.89-6.77,1.13-.3-.84-.44-1.47-.44-1.47,3.56-3.81,6.24-2.61,7.39-1.78,1.16.83.93,7.17.93,7.17"/>
    <ellipse class="st24" cx="32.2" cy="37.49" rx="2.23" ry="2.22"/>
    <path class="st4" d="M32.1,38.97c-.65-.05-1.14-.7-1.08-1.41s.65-1.27,1.3-1.22,1.14.7,1.08,1.41c-.06.71-.65,1.27-1.3,1.22h0Z"/>
    <path class="st9" d="M32.16,38.71c-.45-.04-.92-.53-.87-1.13.05-.6.59-1.01,1.04-.98.45.04.91.53.87,1.13-.05.6-.59,1.01-1.04.98h0Z"/>
    <path class="st8" d="M31.79,37.22c-.02.22-.25.38-.5.36-.26-.02-.45-.22-.44-.43.02-.22.24-.38.5-.36s.45.21.44.44h0ZM33.24,38.48c-.01.11-.12.19-.25.18-.13-.01-.23-.11-.22-.22.01-.11.12-.19.25-.18.13.01.23.11.22.22"/>
    <path class="st11" d="M39.29,51.49c-.08-.01-.16-.03-.22-.04.08.01.15.03.22.04M38.98,51.43c-.05-.01-.1-.02-.13-.03.04.01.09.02.13.03"/>
    <path class="st1" d="M39.07,51.45s-.05-.01-.08-.02c.03,0,.05.01.08.02M38.85,51.4l-.08-.02s.03.01.08.02"/>
    <path class="st11" d="M39.2,51.34c-.09-.01-.17-.03-.23-.05.08.02.16.03.23.05M38.88,51.27c-.05-.01-.11-.03-.14-.03.05.01.09.02.14.03"/>
    <path class="st10" d="M38.96,51.29s-.06-.01-.09-.02c.03,0,.05.01.09.02M38.73,51.24s-.05-.01-.08-.02.03.01.08.02h0Z"/>
    <path class="st11" d="M39.13,51.11c-.09-.01-.17-.03-.23-.04.08.02.16.03.23.04M38.81,51.05c-.05-.01-.11-.03-.14-.03.05.01.09.02.14.03"/>
    <path class="st10" d="M38.9,51.07s-.06-.01-.09-.02c.03,0,.05.01.09.02M38.66,51.02s-.05-.01-.08-.02.03.01.08.02h0Z"/>
    <path class="st11" d="M39.34,51.08c-.08-.01-.16-.03-.23-.04.08.02.15.03.23.04M39.02,51.02c-.05-.01-.1-.02-.14-.03.05.01.09.02.14.03"/>
    <path class="st10" d="M39.1,51.04s-.06-.01-.09-.02c.03,0,.05.01.09.02M38.88,50.99l-.08-.02s.03.01.08.02h0Z"/>
    <path class="st8" d="M52.47,34.67s-1.32,5.39-3.59,5.83-4.73-.44-4.73-.44c0,0-.23-6.34.93-7.16,1.16-.83,3.84-2.03,7.39,1.77"/>
    <path class="st18" d="M44.14,40.05s.05.01.17.06c.03-1.94.21-4.61.94-5.12,1.08-.79,3.52-1.89,6.77,1.13.3-.84.44-1.47.44-1.47-3.56-3.81-6.24-2.61-7.39-1.78-1.16.83-.93,7.17-.93,7.17"/>
    <path class="st24" d="M45.49,37.3c0,1.23,1,2.22,2.23,2.22s2.23-.99,2.23-2.22-1-2.22-2.23-2.22-2.23.99-2.23,2.22"/>
    <path class="st4" d="M47.83,38.78c.65-.05,1.14-.7,1.08-1.41s-.65-1.27-1.3-1.22-1.14.7-1.08,1.41c.06.71.65,1.27,1.3,1.22h0Z"/>
    <path class="st9" d="M47.77,38.53c.45-.04.92-.53.87-1.13-.05-.6-.59-1.01-1.04-.98-.45.04-.91.53-.87,1.13.05.6.59,1.01,1.04.98h0Z"/>
    <path class="st8" d="M48.13,37.04c.02.22.25.38.5.36.26-.02.45-.22.44-.43-.02-.22-.24-.38-.5-.36s-.45.21-.44.44h0ZM46.69,38.3c.01.11.12.19.25.18.13-.01.23-.11.22-.22-.01-.11-.12-.19-.25-.18-.13.01-.23.11-.22.22"/>
    <path d="M37.14,34.77s-.43-.65-1.27-1.29c-.53-.4-1.04-.71-1.58-.94-.65-.27-1.35-.46-2.04-.56-.61-.07-1.3-.05-2.09.06-.61.11-1.2.29-1.7.51-.36.12-.64.3-.87.43-.09.05-.17.1-.25.14l-1.08.68,1.25-.29c.06-.01.12-.03.19-.05.26-.07.58-.15.96-.21.09-.01.18-.03.27-.05.16-.03.32-.06.49-.07.19-.01.39-.03.59-.04l.26-.02c.69,0,1.28.04,1.8.16.57.1,1.15.28,1.69.53.51.24.99.48,1.37.75.77.51,1.19.93,1.19.93.1.1.25.16.39.16.1,0,.21-.03.3-.09.25-.16.32-.5.16-.74v-.02s-.01,0-.01,0ZM52.69,33.13c-.07-.04-.15-.09-.24-.14-.23-.14-.51-.31-.86-.43-.51-.23-1.1-.4-1.72-.52-.79-.1-1.47-.13-2.09-.05-.68.09-1.38.29-2.03.56-.53.23-1.06.54-1.58.94-.83.63-1.24,1.24-1.27,1.29h0c-.14.23-.11.51.07.69.1.1.24.16.39.16s.28-.06.38-.16h0s.45-.44,1.19-.94c.37-.27.86-.51,1.36-.75.54-.25,1.12-.43,1.7-.53.51-.12,1.1-.17,1.78-.16l.27.02c.2.01.39.03.58.04.17,0,.33.04.49.07.09.02.18.04.27.05.38.05.7.14.96.21.07.02.13.04.19.05l1.25.29-1.09-.68h0Z"/>
    <path class="st11" d="M38.91,52.13c-.08-.01-.16-.03-.23-.04.08.02.16.03.23.04M38.59,52.07c-.05-.01-.1-.03-.14-.03l.14.03Z"/>
    <path class="st3" d="M38.68,52.08s-.06-.01-.09-.02c.03,0,.05.01.09.02M38.45,52.03s-.05-.01-.08-.02.03.01.08.02"/>
    <path class="st6" d="M36.69,53.2c-.06-.87,2.43.18,3.25.21.65.02,2.62-.13,2.8-.2,1.37-.51-.08,1.45-2.84,1.55-1.27.05-3.17-1.04-3.21-1.56h0Z"/>
    <path class="st0" d="M44.81,51.53c-.68-.03-1.37.53-2.19.44-.03-.02-.05-.02-.08-.02-.19-.03-.37,0-.58.05-.25.05-.51.15-.75.24-.41.13-.87.24-1.34.2s-.02,0-.03,0h-.03c-.47.03-.93-.07-1.34-.2-.24-.08-.49-.19-.75-.24-.2-.05-.39-.08-.58-.05-.04,0-.05,0-.08.02-.82.09-1.51-.48-2.19-.44-.19.02-.46-.03-.61-.03.03.02.07.03.1.05,1.93.94,3.6,2.69,5.44,2.63h.05c1.84.06,3.51-1.69,5.44-2.63.04-.02.07-.03.1-.05-.15,0-.42.05-.61.03h-.01Z"/>
    <path class="st21" d="M45.38,51.47s-1.96-.75-3.36-.31c0,0-.52.2-1.06.33-.33.13-.73.16-1.11.15-.29-.01-.57-.05-.8-.09-.08-.01-.15-.03-.23-.04-.03,0-.06-.01-.09-.02l-.14-.03c-.05-.01-.08-.02-.08-.02-.45-.12-.83-.27-.83-.27-1.4-.44-3.36.31-3.36.31-.03.01-.04.02-.04.02.15,0,.42.05.61.03.68-.03,1.37.53,2.19.44.03-.02.05-.02.08-.02.19-.03.37,0,.58.05.25.05.51.15.75.24.41.13.87.24,1.34.2s.02,0,.03,0h.03c.47.03.93-.07,1.34-.2.24-.08.49-.19.75-.24.2-.05.39-.08.58-.05.04,0,.05,0,.08.02.82.09,1.51-.48,2.19-.44.19.02.46-.03.61-.03,0,0-.02,0-.04-.02h0Z"/>
    <path class="st21" d="M36.56,51.93s3.68,1.11,6.53.03l-.33-.22h-3.85l-2.35.2h0Z"/>
    <path class="st2" d="M37.85,70.49v9.51h-12.02c.06-.97.13-2.53.14-4.6h-3.08c-.03-3,2.38-8.14,2.38-8.14.23-.31.47-.6.71-.87.63-.72,1.27-1.29,1.92-1.77.07-.08.16-.13.24-.18.21-.15.42-.29.62-.42.93-.59,1.81-.96,2.5-1.19.16-.06.31-.1.45-.14.64-.18,1.04-.23,1.04-.23.34,0,.64-.13.9-.34,0,0,0-.01.01-.01.09-.08.18-.18.27-.29.03.03.1.11.16.3.17.41.92,2,2.03,3.45,1.09,1.42,1.73,3.13,1.73,4.91M54.29,75.4c.01,2.06.09,3.64.16,4.6h-12.07v-9.39c0-1.82.64-3.57,1.74-5.02,0,0,.01-.01.01-.02,1.12-1.45,1.86-3.03,2.04-3.45.06-.18.13-.27.17-.3.08.1.17.2.26.29.01,0,.01.01.01.01.26.21.57.34.9.34,0,0,.38.04.99.2.13.05.28.09.45.15.84.28,1.97.75,3.16,1.6.08.06.17.11.23.19.9.66,1.82,1.52,2.65,2.66,0,0,2.46,3.54,2.35,8.14h-3.05Z"/>
    <path class="st8" d="M42.38,73.6v6.4h-4.53v-6.41c.7.27,1.48.44,2.29.44s1.56-.17,2.25-.43h0Z"/>
    <path class="st12" d="M35.6,10.39c-1.14,1.75-.13,2.07.72,2.08.46,0,.92-.09,1.36-.26.89-.34,1.76-.67,2.57-.95-.97,1.42-.36,3.98,1.83,3.98.26,0,.5-.04.72-.11-.04.02-.08.04-.12.07.99-.38,2.69-.51,5.54.52.4.14.77.3,1.11.45,1.21.49,3.64,1.47,8.31,3.33,0,0-1.54.56-3.37.74.88.95,1.79,1.77,3.31,2.21,3.97,1.14,5.12-.32,5.12-.32,0,0-1.72,2.55-4.78,2.56-.49,0-.55,0-.55-.01,0,.01,1.15,2.74,1.36,4.78.22,2.08-.48,3.51-.69,7.41-.06,1.09-.21,1.64-.42,1.97-.44.69-1.16.45-1.97,2.11-.4.82-.42,1.75-.42,1.75,0,0-.03.03-.09.04-.25.08-.98.01-1.01-3.46,0,0,3.21-13.61-3.33-15.62-2.85-.88-6.68-.14-10.42.76-2.5.6-5.02,1.58-7.35,3.09-3.01,1.95-6.9,4.43-7.71,8.87v.02c.12,1.19.17,2.15.18,2.93.04,3.2-.69,3.17-.69,3.17-.34,0,.02-1.61-1.09-2.72-.31-.3-.66-.82-1-1.46-.92-1.71-1.81-4.41-1.81-7.11-1.19-18.31,14.71-20.82,14.71-20.82h-.01Z"/>
    <path class="st22" d="M37.13,58.58l-.05.05h0s.02-.03.04-.05"/>
    <path class="st13" d="M39.75,49.91c1.01-2.24,3.95-.78,5.67-.23.37,0,.11-.65.34-.8,1.7,4.42-4.39,5.48-6,2.64-1.56,2.5-7.18,1.94-6-2.64.45.03.09.9.56.92,1.57-.82,4.39-1.92,5.44.11h0Z"/>
    <path class="st13" d="M34.31,49.8c-.47-.01-.11-.88-.56-.92-1.18,4.57,4.44,5.13,6,2.64,1.61,2.85,7.7,1.78,6-2.64-.22.15.04.8-.34.8-1.72-.55-4.66-2.01-5.67.23-1.06-2.03-3.87-.94-5.44-.11h0Z"/>
    <path class="st16" d="M37.26,41.45c-.04.15-.08.29-.12.43-4.6-2.4-8.66-1.17-11.38.42-.84-1.96-.61-3.9-.61-3.9,1.07-5.06,8.58-3.18,8.58-3.18,5.17,1.85,3.53,6.23,3.53,6.23h0Z"/>
    <path class="st17" d="M55.35,41.79c-2.88-1.41-6.91-2.16-11.38.63-.12-.3-.23-.62-.32-.97,0,0-1.63-4.38,3.53-6.23,0,0,7.51-1.88,8.58,3.18,0,0,.19,1.62-.41,3.4"/>
    <path class="st15" d="M55.35,41.79c-.63,1.86-2.14,3.88-5.66,4.36-.22.03-.44.04-.65.02-1-.08-3.79-.59-5.07-3.75,4.47-2.79,8.5-2.03,11.38-.63h0ZM37.13,41.88c-1.16,3.65-4.21,4.21-5.27,4.29-.22.02-.44.01-.65-.02-3.2-.44-4.73-2.15-5.46-3.85,2.71-1.59,6.78-2.82,11.38-.42h0Z"/>
    <path class="st8" d="M53.39,34.28c-2.74-1.07-12.55-1.2-12.93-1.21s0,0,0,0h0c-.38,0-10.19.14-12.93,1.21,0,0-4.18,1.85-5.01,2.12v2.03s1.16.26,1.43,1.85c0,0,.81,5.09,5.54,6.49,1.18.35,2.43.34,3.61.02,2.16-.59,5.59-2.3,5.7-7.14.01-.45-.13-.88-.37-1.26-.39-.6-.63-1.58,2.04-1.47s0,0,0,0h0c2.67-.12,2.43.87,2.04,1.47-.24.38-.38.81-.37,1.26.12,4.85,3.54,6.55,5.7,7.14,1.18.33,2.43.33,3.61-.02,4.74-1.4,5.54-6.49,5.54-6.49.27-1.59,1.43-1.85,1.43-1.85v-2.03c-.83-.26-5.02-2.12-5.02-2.12h0ZM55.76,38.39s.19,1.62-.41,3.4c-.08.23-.17.46-.28.7h0c-.03.06-.05.12-.08.17,0,0,0,.01-.01.02-.03.05-.05.1-.08.15,0,.01-.01.02-.02.03l-.08.14s-.01.03-.03.04l-.08.13s-.02.03-.03.05l-.08.12s-.03.04-.04.05c-.03.04-.05.08-.08.11-.01.02-.03.04-.04.06-.03.04-.05.07-.08.11-.01.02-.03.04-.05.06-.03.03-.05.07-.08.1l-.05.06s-.05.06-.08.1c-.02.02-.04.04-.06.06-.03.03-.06.06-.09.09-.02.02-.04.04-.06.06-.03.03-.06.06-.09.09-.02.02-.04.04-.07.06-.03.03-.06.06-.09.09-.03.02-.05.04-.07.06-.03.03-.06.05-.1.08l-.08.06s-.07.05-.1.08c-.03.02-.05.04-.08.06-.04.03-.07.05-.1.08-.03.02-.05.04-.08.06-.04.03-.08.05-.11.08-.03.02-.06.04-.08.06l-.12.08s-.06.04-.09.05c-.04.03-.09.05-.13.07-.03.01-.06.03-.09.05-.05.03-.09.05-.14.07l-.09.04c-.05.03-.1.05-.15.07-.03.01-.05.03-.08.04-.05.03-.11.05-.17.07l-.08.03c-.06.03-.12.05-.19.07-.02,0-.04.02-.06.03-.07.03-.14.05-.21.07-.02,0-.03.01-.05.02l-.25.08s-.01,0-.03,0c-.38.1-.79.19-1.22.25-.05,0-.1.01-.14.02-.16.01-.32.02-.48,0h-.03s-.03,0-.05,0c-.02,0-.04,0-.06,0-.01,0-.03,0-.04,0-.03,0-.05,0-.08,0-.01,0-.03,0-.04,0h-.09s-.03-.01-.04-.02c-.03,0-.06-.01-.09-.01-.01,0-.03,0-.05,0-.03,0-.06-.01-.1-.02-.02,0-.04,0-.05-.01-.03,0-.07-.01-.1-.02-.02,0-.04,0-.06-.01-.03,0-.07-.01-.1-.03-.02,0-.04-.01-.06-.01-.04-.01-.07-.02-.11-.03-.02,0-.04-.01-.06-.01-.04-.01-.08-.02-.12-.04-.02,0-.04-.01-.06-.02-.05-.01-.09-.03-.14-.05-.01,0-.03-.01-.04-.01-.06-.02-.12-.04-.18-.07-.01,0-.03-.01-.04-.02-.05-.02-.09-.04-.14-.06l-.08-.03s-.08-.03-.11-.05c-.03-.01-.06-.03-.09-.04-.04-.02-.07-.03-.1-.05-.03-.01-.06-.03-.09-.05-.03-.02-.07-.04-.1-.05s-.06-.04-.09-.05-.07-.04-.1-.06c-.03-.02-.06-.04-.09-.06-.03-.02-.06-.04-.1-.06-.03-.02-.06-.04-.09-.06s-.07-.05-.1-.07c-.03-.02-.06-.04-.09-.07s-.07-.05-.1-.08c-.03-.03-.06-.05-.09-.07-.04-.03-.07-.06-.11-.09-.03-.02-.05-.05-.08-.07-.05-.04-.09-.09-.14-.13-.01-.01-.03-.03-.05-.04-.06-.06-.12-.12-.18-.19-.02-.02-.04-.04-.05-.06-.04-.05-.08-.09-.12-.14-.02-.03-.04-.05-.06-.08-.04-.05-.08-.09-.11-.14-.02-.03-.04-.05-.06-.08l-.11-.15s-.04-.06-.06-.09c-.04-.05-.07-.11-.1-.16-.02-.03-.04-.06-.05-.09-.04-.06-.07-.12-.1-.18-.01-.03-.03-.06-.05-.09-.04-.06-.07-.13-.1-.2-.01-.03-.03-.05-.04-.08-.04-.08-.07-.16-.1-.24,0-.02-.02-.04-.03-.06-.13-.31-.25-.66-.34-1.03,0,0-1.63-4.38,3.53-6.23,0,0,7.51-1.88,8.58,3.18v-.02ZM25.15,38.39c1.07-5.06,8.58-3.18,8.58-3.18,5.17,1.85,3.53,6.23,3.53,6.23-.05.17-.1.34-.15.5-.03.09-.06.17-.09.25,0,.02-.02.04-.03.07-.03.09-.06.17-.1.25,0,.01-.01.02-.01.03-.17.4-.36.75-.57,1.06-.04.06-.08.12-.13.18-.01.02-.03.04-.04.06-.04.05-.08.1-.12.15-.02.03-.04.05-.06.08-.04.05-.08.09-.11.13-.02.03-.04.05-.07.08-.04.04-.07.08-.11.12-.03.03-.05.05-.08.08-.04.04-.07.07-.11.1-.03.03-.05.05-.08.08l-.11.1s-.06.05-.09.07l-.11.09s-.06.05-.09.07c-.04.03-.07.05-.11.08-.03.02-.06.04-.09.06-.04.03-.07.05-.1.07-.03.02-.06.04-.09.06-.04.02-.07.04-.1.06-.03.02-.06.04-.09.06s-.07.04-.1.06-.06.04-.1.05c-.03.02-.07.04-.1.05s-.06.03-.1.05-.06.03-.1.05l-.1.04s-.06.03-.1.04c-.03.01-.06.03-.1.04-.03.01-.06.03-.09.04s-.06.03-.1.04c-.03.01-.06.02-.09.03-.03.01-.06.02-.09.03-.03.01-.06.02-.09.03-.03.01-.06.02-.09.03-.03,0-.05.02-.08.03s-.06.01-.09.03c-.03,0-.05.01-.08.02l-.09.02s-.05.01-.08.02c-.03,0-.05.01-.08.02-.03,0-.05.01-.08.01s-.05.01-.08.01-.05,0-.07.01h-.06s-.05.02-.07.02c-.02,0-.03,0-.05,0-.03,0-.05,0-.08.01h-.02c-.07,0-.14.01-.2.02h-.04c-.16.01-.31,0-.47,0-.05,0-.09-.01-.14-.02-.18-.03-.36-.05-.53-.09-.02,0-.04,0-.06-.01-.07-.01-.13-.03-.2-.04-.03,0-.06-.01-.09-.02-.06-.01-.12-.03-.18-.04-.03,0-.06-.02-.1-.03-.05-.01-.11-.03-.17-.05-.03-.01-.07-.02-.1-.03-.05-.01-.1-.03-.16-.05-.03-.01-.07-.02-.1-.03-.05-.02-.1-.03-.14-.05-.04-.01-.07-.03-.1-.04-.05-.02-.09-.04-.14-.05-.03-.01-.07-.03-.1-.04-.04-.02-.09-.04-.13-.06-.03-.01-.07-.03-.1-.05-.04-.02-.08-.04-.12-.06-.04-.02-.07-.04-.1-.05-.04-.02-.08-.04-.11-.06s-.07-.04-.1-.06c-.03-.02-.07-.04-.1-.06l-.11-.06-.09-.05s-.09-.06-.14-.09c-.02-.01-.03-.02-.05-.03l-.18-.13s-.02-.01-.03-.02c-.05-.04-.1-.08-.14-.11-.01-.01-.03-.03-.05-.04-.04-.03-.08-.07-.12-.1-.01-.01-.03-.03-.05-.04-.04-.03-.08-.07-.11-.1-.01-.01-.03-.03-.05-.04-.04-.04-.07-.07-.1-.1l-.04-.04s-.07-.07-.1-.11c-.01-.01-.03-.03-.04-.04-.03-.04-.06-.07-.1-.11-.01-.01-.03-.03-.04-.04-.03-.04-.06-.08-.1-.11-.01-.01-.02-.03-.03-.04-.03-.04-.06-.08-.09-.12,0-.01-.02-.02-.03-.04-.03-.04-.06-.09-.09-.13,0-.01-.01-.02-.02-.03-.03-.05-.06-.1-.1-.15,0,0,0-.01-.01-.01-.18-.28-.33-.56-.46-.84,0-.01,0-.02-.01-.03-.89-1.99-.65-4.01-.65-4.01v-.02ZM40.46,35.46h-.01c-.16,0-2.01.05-2.71.38,0,0-.56.29-1.63-.65,0,0-.86-.5-1.37-.64-.23-.06-.21-.39.02-.43.11-.02.26-.03.45-.01h10.49c.19-.01.34,0,.45.01.23.04.25.37.02.43-.51.14-1.37.64-1.37.64-1.07.94-1.63.65-1.63.65-.71-.34-2.56-.38-2.71-.38"/>
  </g>
</svg>