<?xml version="1.0" encoding="UTF-8"?>
<svg id="Layer_2" xmlns="http://www.w3.org/2000/svg" version="1.1" xmlns:xlink="http://www.w3.org/1999/xlink" viewBox="0 0 80 80">
  <!-- Generator: Adobe Illustrator 30.2.1, SVG Export Plug-In . SVG Version: 2.1.1 Build 1)  -->
  <defs>
    <style>
      .st0 {
        fill: #dac6a4;
      }

      .st1 {
        fill: #b5957e;
      }

      .st2 {
        fill: #b8987d;
      }

      .st3 {
        fill: #714223;
      }

      .st4 {
        fill: #ccad8a;
      }

      .st5 {
        fill: #ecdab6;
      }

      .st6 {
        fill: #d7bd9d;
      }

      .st7 {
        fill: #fff;
      }

      .st8 {
        fill: #272213;
      }

      .st9 {
        fill: #b7967d;
      }

      .st10 {
        fill: none;
      }

      .st11 {
        fill: #d2bb9b;
      }

      .st12 {
        fill: #ba9d82;
      }

      .st13 {
        fill: #dcc5a0;
      }

      .st14 {
        fill: #c1a587;
      }

      .st15 {
        fill: #44361f;
      }

      .st16 {
        fill: #d99100;
      }

      .st17 {
        fill: #a98d76;
      }

      .st18 {
        fill: #462e1b;
      }

      .st19 {
        clip-path: url(#clippath);
      }

      .st20 {
        fill: #6f2e3e;
      }

      .st21 {
        fill: #669084;
      }

      .st22 {
        fill: #ebd9b5;
      }
    </style>
    <clipPath id="clippath">
      <rect class="st10" x="36.35" y="55.39" width="8.99" height="5.31"/>
    </clipPath>
  </defs>
  <g id="Layer_1-2">
    <path class="st20" d="M0,0h80v80H0V0Z"/>
    <path class="st15" d="M6.29,58.7l-.05.05h0s.02-.03.04-.05"/>
    <path class="st13" d="M40.81,49.94v30.06h-16.23c-.26-.1-.4-.16-.4-.16,0-1.2.05-2.31.15-3.35.23-2.29.68-4.21,1.26-5.81,1.41-3.83,3.6-5.89,5.42-6.98.85-.51,1.61-.81,2.17-.98.57-.18.92-.22.92-.22.06,0,.12,0,.18-.01.51-.08.93-.53,1.26-1.24.25-.53.45-1.2.63-1.98.06-.3.11-.61.17-.94.08-.55.16-1.14.23-1.74.03-.37.06-.73.1-1.11.14-1.84.19-3.85.19-5.76,0,0,2.18.23,3.95.23"/>
    <path class="st22" d="M57.5,79.84s-.15.05-.39.16h-16.31v-30.06h.04c1.75,0,3.96-.23,3.96-.23,0,1.9.04,3.88.18,5.72.04.36.08.73.1,1.09.06.64.15,1.23.24,1.78v.02c.02.25.08.48.11.72.16.78.36,1.47.59,2.02.29.69.65,1.17,1.08,1.36.14.06.28.09.43.09,0,0,.63.08,1.56.44.69.27,1.56.7,2.46,1.38,1.59,1.2,3.32,3.15,4.5,6.35.59,1.6,1.05,3.52,1.26,5.81.1,1.04.16,2.15.16,3.35h0Z"/>
    <g class="st19">
      <path class="st12" d="M45.34,58.25h0c-.41.65-1.78,2.46-4.5,2.46h-.03c-2.57-.01-4.08-1.88-4.46-2.43.08-.55.16-1.13.23-1.73.03-.35.06-.72.11-1.1,1.25.31,2.63.51,4.08.54h.05c1.5-.03,2.89-.24,4.18-.58.04.35.08.72.11,1.08.06.63.15,1.22.24,1.77"/>
    </g>
    <path class="st4" d="M40.62,15.68c-17.19,0-17.28,14.4-16.52,23.83-1.17-2.23-4.68-1.55-4.39,1.97.28,3.39,5.28,5.12,5.14,4.75,2.6,6.97,9.49,12.23,15.77,12.23h.13V15.68h-.13Z"/>
    <path class="st17" d="M20.82,39.99c.84-1.37,2.17-.78,2.48-.47.34.33.62.75.41,1.55-.12.46-.59.5-.49,1.18.13.78.49.82.7,1,.2.17.45.3.57.63.13.33.15.67.08.97-.13.55-.94.1-1.48-.13-.36-.17-1.49-1.13-1.78-1.45-.71-.82-1.06-2.39-.49-3.29"/>
    <path class="st6" d="M40.72,15.68c17.19,0,17.28,14.4,16.53,23.83,1.17-2.23,4.66-1.55,4.37,1.97-.26,3.39-5.27,5.12-5.14,4.75-2.53,6.97-9.49,12.23-15.77,12.23h-.09l-.04-42.78h.13"/>
    <path class="st17" d="M60.52,39.99c-.84-1.37-2.15-.78-2.48-.47-.34.33-.61.75-.41,1.55.12.46.59.5.49,1.18-.13.78-.49.82-.69,1-.2.17-.46.3-.58.63s-.15.67-.08.97c.13.55.94.1,1.48-.13.37-.17,1.49-1.13,1.78-1.45.73-.82,1.06-2.39.49-3.29"/>
    <path class="st13" d="M40.49,19.74c-5.65,0-9.8,1.64-12.29,4.88-3.5,4.54-3.37,11.45-2.09,16.42.4,1.53.61,5.61.87,7.12,1.23,6.72,8.63,10.3,13.51,10.3h.13V19.74h-.08"/>
    <path class="st22" d="M52.77,24.63c-2.48-3.22-6.58-4.87-12.15-4.89v38.71c5.57-.06,12.24-3.98,13.37-10.3.28-1.5.48-5.59.87-7.12,1.29-4.96,1.42-11.86-2.1-16.41"/>
    <path class="st10" d="M39.93,50.19c-.08-.01-.15-.03-.21-.04.07.01.14.03.21.04M39.64,51.58c-.05-.01-.1-.02-.13-.03.04.01.09.02.13.03"/>
    <path class="st9" d="M39.72,51.59s-.05-.01-.08-.02c.03,0,.05.01.08.02M39.51,51.55s-.05-.01-.07-.02.03,0,.08.02h0Z"/>
    <path class="st6" d="M37.4,46.57c-.06-1.34,2.45-.49,3.28-.45.66.03,2.65-.42,2.82-.3,1.17.79-1.24,2.39-2.86,2.39-.43,0-3.2-.83-3.24-1.64h0Z"/>
    <path class="st10" d="M25.21,31.81c-.15.51-.26,1.07-.33,1.67,0,0,.23-.94.73-2.34-.21.3-.36.54-.39.67"/>
    <path class="st15" d="M36.15,19.88l-.07.07v.03s.05-.07.07-.1"/>
    <path class="st10" d="M39.98,50.85c-.08-.01-.15-.03-.22-.04.08.01.15.03.22.04M39.68,50.79c-.05-.01-.1-.02-.13-.03.04.01.09.02.13.03"/>
    <path class="st1" d="M39.77,50.81s-.05-.01-.08-.02c.03,0,.05.01.08.02M39.55,50.76l-.08-.02s.03.01.08.02"/>
    <path class="st7" d="M28.29,34.85s1.31,5.39,3.56,5.83,4.69-.44,4.69-.44c0,0,.23-6.34-.92-7.16-1.15-.83-3.81-2.03-7.33,1.77"/>
    <path class="st11" d="M36.54,40.23s-.05.01-.17.06c-.03-1.94-.21-4.61-.93-5.12-1.07-.79-3.49-1.89-6.72,1.13-.29-.84-.44-1.47-.44-1.47,3.53-3.81,6.19-2.61,7.33-1.78,1.15.83.92,7.17.92,7.17"/>
    <ellipse class="st18" cx="32.99" cy="37.49" rx="2.22" ry="2.22"/>
    <path class="st3" d="M32.89,38.96c-.64-.05-1.13-.7-1.07-1.41s.65-1.27,1.29-1.22,1.13.7,1.07,1.41c-.06.71-.65,1.27-1.29,1.22h0Z"/>
    <path class="st8" d="M32.95,38.71c-.44-.04-.91-.53-.86-1.13.05-.6.58-1.01,1.03-.98.45.04.91.53.86,1.13-.05.6-.58,1.01-1.03.98h0Z"/>
    <path class="st7" d="M32.58,37.22c-.02.22-.24.38-.5.36-.26-.02-.45-.22-.43-.43.02-.22.24-.38.5-.36s.45.21.43.44h0ZM34.02,38.48c-.01.11-.12.19-.25.18-.13-.01-.23-.11-.22-.22.01-.11.12-.19.25-.18.13.01.23.11.22.22"/>
    <path class="st10" d="M40.02,51.49c-.08-.01-.15-.03-.22-.04.08.01.15.03.22.04M39.72,51.43c-.05-.01-.1-.02-.13-.03.04.01.09.02.13.03"/>
    <path class="st1" d="M39.8,51.44s-.05-.01-.08-.02c.03,0,.05.01.08.02M39.59,51.39l-.08-.02s.03,0,.08.02"/>
    <path class="st10" d="M39.93,51.34c-.09-.01-.16-.03-.23-.05.08.02.16.03.23.05M39.61,51.27c-.05-.01-.11-.03-.14-.03.05.01.09.02.14.03"/>
    <path class="st9" d="M39.7,51.29s-.06-.01-.09-.02c.03,0,.05.01.09.02M39.47,51.24s-.05-.01-.08-.02.03.01.08.02h0Z"/>
    <path class="st10" d="M39.87,51.11c-.09-.01-.16-.03-.23-.04.08.02.16.03.23.04M39.54,51.05c-.05-.01-.11-.03-.14-.03.05.01.09.02.14.03"/>
    <path class="st9" d="M39.63,51.07s-.06-.01-.09-.02c.03,0,.05.01.09.02M39.4,51.02s-.05-.01-.08-.02.03.01.08.02h0Z"/>
    <path class="st10" d="M40.07,51.08c-.08-.01-.16-.03-.23-.04.08.02.15.03.23.04M39.75,51.02c-.05-.01-.1-.02-.14-.03.05.01.09.02.14.03"/>
    <path class="st9" d="M39.84,51.04s-.06-.01-.09-.02c.03,0,.05.01.09.02M39.62,50.99l-.08-.02s.03.01.08.02h0Z"/>
    <path class="st7" d="M53.09,34.67s-1.31,5.39-3.56,5.83-4.69-.44-4.69-.44c0,0-.23-6.34.92-7.16,1.15-.83,3.81-2.03,7.33,1.77"/>
    <path class="st11" d="M44.83,40.05s.05.01.17.06c.03-1.94.21-4.61.93-5.12,1.07-.79,3.49-1.89,6.72,1.13.29-.84.44-1.47.44-1.47-3.53-3.81-6.19-2.61-7.33-1.78-1.15.83-.92,7.17-.92,7.17"/>
    <path class="st18" d="M46.17,37.3c0,1.23.99,2.22,2.22,2.22s2.22-.99,2.22-2.22-.99-2.22-2.22-2.22-2.22.99-2.22,2.22"/>
    <path class="st3" d="M48.49,38.78c.64-.05,1.13-.7,1.07-1.41s-.65-1.27-1.29-1.22-1.13.7-1.07,1.41c.06.71.65,1.27,1.29,1.22h0Z"/>
    <path class="st8" d="M48.43,38.53c.44-.04.91-.53.86-1.13-.05-.6-.58-1.01-1.03-.98-.44.04-.91.53-.86,1.13.05.6.58,1.01,1.03.98h0Z"/>
    <path class="st7" d="M48.79,37.04c.02.22.24.38.5.36.26-.02.45-.22.43-.43-.02-.22-.24-.38-.5-.36s-.45.21-.43.44h0ZM47.35,38.3c.01.11.12.19.25.18.13-.01.23-.11.22-.22-.01-.11-.12-.19-.25-.18-.13.01-.23.11-.22.22"/>
    <path d="M37.89,34.77s-.43-.65-1.26-1.29c-.52-.4-1.03-.71-1.57-.94-.65-.27-1.34-.46-2.02-.56-.61-.07-1.29-.05-2.08.06-.6.11-1.19.29-1.69.51-.35.12-.64.3-.86.43-.09.05-.16.1-.24.14l-1.07.68,1.24-.29c.06-.01.12-.03.19-.05.26-.07.58-.15.95-.21.09-.01.18-.03.27-.05.16-.03.32-.06.49-.07.19-.01.38-.03.58-.04l.26-.02c.69,0,1.27.04,1.78.16.56.1,1.14.28,1.67.53.5.24.98.48,1.36.75.76.51,1.18.93,1.18.93.1.1.24.16.38.16.1,0,.2-.03.29-.09.25-.16.32-.5.16-.74v-.02s-.01,0-.01,0ZM53.31,33.13c-.07-.04-.15-.09-.24-.14-.23-.14-.5-.31-.85-.43-.51-.23-1.1-.4-1.71-.52-.78-.1-1.46-.13-2.07-.05-.67.09-1.37.29-2.02.56-.53.23-1.05.54-1.57.94-.82.63-1.23,1.24-1.26,1.29h0c-.14.23-.11.51.07.69.1.1.24.16.38.16s.28-.06.38-.16h0s.45-.44,1.18-.94c.37-.27.85-.51,1.35-.75.53-.25,1.11-.43,1.68-.53.51-.12,1.09-.17,1.76-.16l.27.02c.2.01.39.03.58.04.16,0,.33.04.48.07.09.02.18.04.27.05.38.05.69.14.95.21.07.02.13.04.19.05l1.24.29-1.08-.68h0Z"/>
    <path class="st10" d="M39.64,52.13c-.08-.01-.16-.03-.23-.04.08.02.15.03.23.04M39.33,52.06c-.05-.01-.1-.03-.14-.03l.14.03Z"/>
    <path class="st2" d="M39.41,52.08s-.06-.01-.09-.02c.03,0,.05.01.09.02M39.19,52.03s-.05-.01-.08-.02.03.01.08.02"/>
    <path class="st5" d="M37.45,53.19c-.06-.87,2.41.18,3.22.21.65.02,2.6-.13,2.77-.2,1.36-.51-.08,1.45-2.82,1.55-1.26.05-3.14-1.04-3.18-1.56h0Z"/>
    <path class="st0" d="M45.5,51.52c-.67-.03-1.36.53-2.17.44-.03-.02-.05-.02-.08-.02-.19-.03-.37,0-.57.05-.25.05-.5.15-.74.24-.4.13-.86.24-1.33.2s-.02,0-.03,0h-.03c-.47.03-.92-.07-1.33-.2-.24-.08-.49-.19-.74-.24-.2-.05-.39-.08-.57-.05-.04,0-.05,0-.08.02-.81.09-1.5-.48-2.17-.44-.19.02-.45-.03-.61-.03.03.02.07.03.1.05,1.92.94,3.57,2.69,5.4,2.63h.05c1.83.06,3.48-1.69,5.4-2.63.04-.02.07-.03.1-.05-.15,0-.42.05-.61.03h-.01Z"/>
    <path class="st14" d="M46.06,51.47s-1.95-.75-3.33-.31c0,0-.52.2-1.05.33-.33.13-.72.16-1.1.15-.29-.01-.57-.05-.79-.09-.08-.01-.15-.03-.23-.04-.03,0-.06-.01-.09-.02l-.14-.03c-.05-.01-.08-.02-.08-.02-.44-.12-.82-.27-.82-.27-1.39-.44-3.33.31-3.33.31-.03.01-.04.02-.04.02.15,0,.42.05.61.03.67-.03,1.36.53,2.17.44.03-.02.05-.02.08-.02.19-.03.37,0,.57.05.25.05.5.15.74.24.4.13.86.24,1.33.2s.02,0,.03,0h.03c.47.03.92-.07,1.33-.2.24-.08.49-.19.74-.24.2-.05.39-.08.57-.05.04,0,.05,0,.08.02.81.09,1.5-.48,2.17-.44.19.02.45-.03.61-.03,0,0-.02,0-.04-.02h0Z"/>
    <path class="st14" d="M37.31,51.93s3.65,1.11,6.48.03l-.33-.22h-3.82l-2.33.2h0Z"/>
    <path class="st21" d="M32.05,66.59s7.4,11.36,18.47,0v11.11h-18.47v-11.11Z"/>
    <path class="st7" d="M54.79,76.49c.45,1.59-.23,2.86-.71,3.51h-26.47c-.48-.65-1.16-1.92-.71-3.51h-2.57c.23-2.29.68-4.21,1.26-5.81,1.41-3.83,3.6-5.89,5.42-6.98,1.23,3.85,4.67,12.86,9.79,12.9,3.03.03,6.66-3.09,10.77-12.28,1.59,1.2,3.32,3.15,4.5,6.35.59,1.6,1.05,3.52,1.26,5.81h-2.56Z"/>
    <path class="st16" d="M44.36,50.39s-1.88-1.63-3.15-1.01c-.68.35-1.29.12-1.48.03-.01,0-.02-.01-.03-.02-.02-.01-.03-.02-.03-.02-1.27-.62-3.15,1.01-3.15,1.01,0,0-1.31,1.08-2.61.73-.22-.06-.38.17-.22.3.8.65,2.25,1.32,4.67.92.54-.09.96-.2,1.29-.34.5-.2,1.1-.2,1.6,0,.33.13.75.25,1.29.34,2.42.4,3.87-.28,4.67-.92.16-.13,0-.36-.22-.3-1.31.34-2.61-.73-2.61-.73h0ZM25.43,14.07c4.06-4.63,10.03-6.89,10.03-6.89l-1.65,1.67c.99-.82,2.75-1.96,5.7-2.96,4.2-1.42,6.91.16,6.91.16,0,0-2.2-.08-3.27.85,1.06-.49,2.88-.67,5.93.69,5.97,2.65,5.86,7.39,10.01,8.85,4.25,1.49,5.48-.42,5.48-.42,0,0-1.84,3.36-5.12,3.37-.53,0-.58-.01-.58-.01,0,.01,1.23,3.6,1.46,6.28.24,2.74-.51,4.62-.74,9.74-.2,4.38-1.28,2.13-2.56,5.36-.43,1.08-.45,2.3-.45,2.3-.32.09-1-1.15-1.12-3.45-1.58,3.89-3.48,6.59-3.48,6.59,4.81-18.41-1.14-19.61-1.14-19.61-2.57-.23-5.95.87-7.41,7.5,0,0-.73-5.58.72-9.97-2.4,1.44-7.54,5.4-7.62,12.96,0,0-4.58-7.39,0-14.71,0,0-4.69,1.24-3.87,13.53,0,0-2.14-1.74-2.48-9.67,0,0-1.41,2.79-1.58,7.49-.65-.47-1.26-1-1.79-1.6-.1,2.89.34,6.99,1.87,12.82,0,0-2.32-3.29-3.96-7.85.26,5.72-.7,5.68-.7,5.68-.36,0,.03-2.11-1.17-3.57-1.19-1.46-3.01-6.37-3.01-11.27s1.56-9.26,5.62-13.9h0Z"/>
  </g>
</svg>