<?xml version="1.0" encoding="UTF-8"?>
<svg id="Layer_2" xmlns="http://www.w3.org/2000/svg" version="1.1" xmlns:xlink="http://www.w3.org/1999/xlink" viewBox="0 0 80 80">
  <!-- Generator: Adobe Illustrator 30.2.1, SVG Export Plug-In . SVG Version: 2.1.1 Build 1)  -->
  <defs>
    <style>
      .st0 {
        fill: #2e2d27;
      }

      .st1 {
        fill: #a20d49;
      }

      .st2 {
        fill: #b5957e;
      }

      .st3 {
        fill: #b8987d;
      }

      .st4 {
        fill: #714223;
      }

      .st5 {
        fill: #ccad8a;
      }

      .st6 {
        fill: #ecdab6;
      }

      .st7 {
        fill: #d7bd9d;
      }

      .st8 {
        fill: #fff;
      }

      .st9 {
        fill: #272213;
      }

      .st10 {
        fill: #b7967d;
      }

      .st11 {
        fill: none;
      }

      .st12 {
        fill: #d2bb9b;
      }

      .st13 {
        fill: #ba9d82;
      }

      .st14 {
        fill: #dcc5a0;
      }

      .st15 {
        fill: #4a473e;
      }

      .st16 {
        fill: #37312a;
      }

      .st17 {
        fill: #d6bb9c;
      }

      .st18 {
        fill: #44361f;
      }

      .st19 {
        fill: #a98d76;
      }

      .st20 {
        fill: #462e1b;
      }

      .st21 {
        clip-path: url(#clippath);
      }

      .st22 {
        fill: #ebd9b5;
      }

      .st23 {
        fill: #3c3d39;
      }
    </style>
    <clipPath id="clippath">
      <rect class="st11" x="36.69" y="55.47" width="8.99" height="5.3"/>
    </clipPath>
  </defs>
  <g id="Layer_1-2">
    <path class="st1" d="M0,0h80v80H0V0Z"/>
    <path class="st14" d="M41.15,50.03v29.97h-16.23c-.26-.1-.4-.16-.4-.16,0-3.83.56-6.81,1.42-9.13,2.07-5.61,5.85-7.39,7.59-7.93.57-.18.92-.22.92-.22.06,0,.12,0,.18-.01.51-.08.93-.53,1.26-1.23.25-.53.45-1.19.62-1.97.07-.3.12-.61.17-.94.08-.55.16-1.13.23-1.74.03-.37.06-.73.1-1.11.14-1.83.19-3.84.19-5.74,0,0,2.18.23,3.95.23h0Z"/>
    <path class="st22" d="M57.85,79.84s-.15.05-.38.16h-16.31v-29.97h.04c1.76,0,3.96-.23,3.96-.23,0,1.89.04,3.87.18,5.7.04.36.08.73.1,1.08.07.63.15,1.23.24,1.78h0c.03.26.08.49.12.72.16.78.35,1.47.59,2.02.29.68.65,1.16,1.08,1.35.14.06.28.09.43.09,0,0,.62.08,1.56.44,1.91.75,5.12,2.71,6.96,7.71.86,2.32,1.42,5.31,1.42,9.13h0Z"/>
    <g class="st21">
      <path class="st13" d="M45.68,58.32h0c-.41.64-1.78,2.45-4.5,2.45h-.03c-2.57-.01-4.08-1.87-4.46-2.42.08-.55.16-1.13.23-1.73.03-.35.06-.72.11-1.1,1.25.31,2.63.51,4.08.54h.05c1.5-.03,2.89-.24,4.18-.58.04.35.08.72.11,1.08.06.63.15,1.22.24,1.77"/>
    </g>
    <path class="st5" d="M40.97,15.88c-17.19,0-17.28,14.35-16.52,23.75-1.17-2.23-4.68-1.55-4.39,1.97.28,3.38,5.28,5.11,5.14,4.73,2.6,6.95,9.49,12.19,15.77,12.19h.13V15.88h-.13Z"/>
    <path class="st19" d="M21.16,40.12c.84-1.36,2.17-.77,2.48-.47.34.33.62.75.41,1.55-.12.46-.59.5-.49,1.18.13.77.49.81.7,1,.2.17.45.3.57.63.13.33.15.67.08.97-.13.55-.94.1-1.48-.13-.36-.17-1.49-1.13-1.78-1.44-.71-.81-1.06-2.39-.49-3.28"/>
    <path class="st7" d="M41.06,15.88c17.19,0,17.28,14.35,16.53,23.75,1.17-2.23,4.66-1.55,4.37,1.97-.26,3.38-5.27,5.11-5.14,4.73-2.53,6.95-9.49,12.19-15.77,12.19h-.09l-.04-42.65h.13"/>
    <path class="st19" d="M60.87,40.12c-.84-1.36-2.15-.77-2.48-.47-.34.33-.61.75-.41,1.55.12.46.59.5.49,1.18-.13.77-.49.81-.69,1-.2.17-.46.3-.58.63s-.15.67-.08.97c.13.55.94.1,1.48-.13.37-.17,1.49-1.13,1.78-1.44.73-.81,1.06-2.39.49-3.28"/>
    <path class="st14" d="M40.84,19.93c-5.65,0-9.8,1.64-12.29,4.86-3.5,4.52-3.37,11.42-2.09,16.37.4,1.52.61,5.6.87,7.09,1.23,6.7,8.63,10.27,13.51,10.27h.13V19.93h-.08"/>
    <path class="st22" d="M53.11,24.81c-2.48-3.21-6.58-4.85-12.15-4.88v38.59c5.57-.06,12.24-3.97,13.37-10.27.28-1.49.48-5.57.87-7.09,1.29-4.94,1.42-11.83-2.1-16.36"/>
    <path class="st11" d="M40.28,51.73c-.08-.01-.15-.03-.21-.04.07.01.14.03.21.04M39.98,51.67c-.05-.01-.1-.02-.13-.03.04.01.09.02.13.03"/>
    <path class="st10" d="M40.07,51.68s-.05-.01-.08-.02c.03,0,.05.01.08.02M39.86,51.64s-.05-.01-.07-.02.03,0,.08.02h0Z"/>
    <path class="st11" d="M25.55,31.96c-.15.51-.26,1.07-.33,1.67,0,0,.23-.94.73-2.33-.21.3-.36.54-.39.67"/>
    <path class="st18" d="M34.52,20.03l-.07.07v.03s.05-.07.07-.1"/>
    <path class="st11" d="M40.33,50.94c-.08-.01-.15-.03-.22-.04.08.01.15.03.22.04M40.03,50.89c-.05-.01-.1-.02-.13-.03.04.01.09.02.13.03"/>
    <path class="st2" d="M40.11,50.9s-.05-.01-.08-.02c.03,0,.05.01.08.02M39.9,50.85l-.08-.02s.03,0,.08.02"/>
    <path class="st17" d="M37.61,46c-.07-1.37,2.52-.5,3.37-.46.67.04,2.72-.43,2.9-.31,1.21.81-1.28,2.45-2.94,2.45-.44,0-3.29-.85-3.33-1.68h0Z"/>
    <path class="st8" d="M28.64,34.99s1.31,5.37,3.56,5.81,4.69-.43,4.69-.43c0,0,.23-6.32-.92-7.14-1.15-.83-3.81-2.03-7.33,1.76h0Z"/>
    <path class="st12" d="M36.89,40.36s-.05.01-.17.06c-.03-1.94-.21-4.6-.93-5.11-1.07-.78-3.49-1.88-6.72,1.13-.29-.83-.44-1.46-.44-1.46,3.53-3.79,6.19-2.6,7.33-1.77,1.15.83.92,7.15.92,7.15h0Z"/>
    <circle class="st20" cx="33.34" cy="37.62" r="2.22"/>
    <path class="st4" d="M33.24,39.1c-.64-.05-1.13-.7-1.07-1.41.06-.71.65-1.27,1.29-1.21s1.13.7,1.07,1.41-.65,1.27-1.29,1.21h0Z"/>
    <path class="st9" d="M33.29,38.84c-.44-.04-.91-.53-.86-1.13.05-.6.58-1.01,1.03-.97s.91.53.86,1.13c-.05.6-.58,1.01-1.03.97h0Z"/>
    <path class="st8" d="M32.93,37.36c-.02.22-.24.38-.5.35-.26-.02-.45-.21-.43-.43s.24-.38.5-.36c.26.02.45.21.43.43h0ZM34.37,38.61c-.01.11-.12.19-.25.18-.13-.01-.23-.11-.22-.21.01-.11.12-.19.25-.18.13.01.23.11.22.21"/>
    <path class="st11" d="M40.37,51.58c-.08-.01-.15-.03-.22-.04.08.01.15.03.22.04M40.07,51.52c-.05-.01-.1-.02-.13-.03.04.01.09.02.13.03"/>
    <path class="st2" d="M40.15,51.54s-.05-.01-.08-.02c.03,0,.05.01.08.02M39.93,51.49l-.08-.02s.03,0,.08.02"/>
    <path class="st11" d="M40.28,51.43c-.09-.01-.16-.03-.23-.04.08.02.16.03.23.04M39.96,51.36c-.05-.01-.11-.03-.14-.03.05.01.09.02.14.03"/>
    <path class="st10" d="M40.05,51.38s-.06-.01-.09-.02c.03,0,.05.01.09.02M39.82,51.33s-.05-.01-.08-.02.03.01.08.02h0Z"/>
    <path class="st11" d="M40.21,51.2c-.09-.01-.16-.03-.23-.04.08.02.16.03.23.04M39.89,51.14c-.05-.01-.11-.03-.14-.03.05.01.09.02.14.03"/>
    <path class="st10" d="M39.98,51.16s-.06-.01-.09-.02c.03,0,.05.01.09.02M39.75,51.11s-.05-.01-.08-.02.03.01.08.02h0Z"/>
    <path class="st11" d="M40.41,51.17c-.08-.01-.16-.03-.23-.04.08.02.15.03.23.04M40.1,51.11c-.05-.01-.1-.02-.14-.03.05.01.09.02.14.03"/>
    <path class="st10" d="M40.19,51.13s-.06-.01-.09-.02c.03,0,.05.01.09.02M39.96,51.08l-.08-.02s.03.01.08.02h0Z"/>
    <path class="st8" d="M53.44,34.81s-1.31,5.37-3.56,5.81-4.69-.43-4.69-.43c0,0-.23-6.32.92-7.14,1.15-.83,3.81-2.03,7.33,1.76h0Z"/>
    <path class="st12" d="M45.18,40.18s.05.01.17.06c.03-1.94.21-4.6.93-5.11,1.07-.78,3.49-1.88,6.72,1.13.29-.83.44-1.46.44-1.46-3.53-3.79-6.19-2.6-7.33-1.77-1.15.83-.92,7.15-.92,7.15h0Z"/>
    <path class="st20" d="M46.51,37.44c0,1.22.99,2.21,2.22,2.21s2.22-.99,2.22-2.21-.99-2.21-2.22-2.21-2.22.99-2.22,2.21"/>
    <path class="st4" d="M48.83,38.91c.64-.05,1.13-.7,1.07-1.41-.06-.71-.65-1.27-1.29-1.21s-1.13.7-1.07,1.41.65,1.27,1.29,1.21h0Z"/>
    <path class="st9" d="M48.78,38.66c.44-.04.91-.53.86-1.13-.05-.6-.58-1.01-1.03-.97-.44.04-.91.53-.86,1.13.05.6.58,1.01,1.03.97h0Z"/>
    <path class="st8" d="M49.14,37.17c.02.22.24.38.5.35.26-.02.45-.21.43-.43s-.24-.38-.5-.36-.45.21-.43.43h0ZM47.7,38.43c.01.11.12.19.25.18.13-.01.23-.11.22-.21-.01-.11-.12-.19-.25-.18-.13.01-.23.11-.22.21"/>
    <path class="st0" d="M38.24,32.16s-.43-.65-1.26-1.29c-.52-.4-1.03-.71-1.57-.93-.65-.27-1.34-.46-2.02-.55-.61-.07-1.29-.05-2.08.06-.6.11-1.19.29-1.69.51-.35.12-.64.29-.86.43-.09.05-.16.1-.24.14l-1.07.68,1.24-.29c.06-.01.12-.03.19-.05.26-.07.58-.15.95-.21.09-.01.18-.03.27-.05.16-.03.32-.06.49-.07.19-.01.38-.03.58-.04l.26-.02c.69,0,1.27.04,1.78.16.56.1,1.14.28,1.67.53.5.24.98.48,1.36.75.76.5,1.18.93,1.18.93.1.1.24.16.38.16.1,0,.2-.03.29-.09.25-.16.32-.5.16-.74v-.02s-.01,0-.01,0ZM53.66,30.53c-.07-.04-.15-.09-.24-.14-.23-.14-.5-.31-.85-.43-.51-.23-1.1-.4-1.71-.52-.78-.1-1.46-.12-2.07-.05-.67.09-1.37.28-2.02.55-.53.23-1.05.54-1.57.93-.82.63-1.23,1.24-1.26,1.28h0c-.14.23-.11.51.07.69.1.1.24.16.38.16s.28-.06.38-.16h0s.45-.44,1.18-.93c.37-.27.85-.51,1.35-.75.53-.25,1.11-.43,1.68-.53.51-.12,1.09-.17,1.76-.16l.27.02c.2.01.39.03.58.04.16,0,.33.04.48.07.09.02.18.04.27.05.38.05.69.14.95.21.07.02.13.04.19.05l1.24.29-1.08-.68h0Z"/>
    <path class="st11" d="M39.57,53.45c-.08-.01-.15-.03-.22-.04.08.01.14.03.22.04M39.27,53.39c-.05-.01-.1-.02-.13-.03.04.01.09.02.13.03"/>
    <path class="st3" d="M39.35,53.41s-.05-.01-.08-.02c.03,0,.05.01.08.02M39.14,53.36l-.08-.02s.03,0,.08.02"/>
    <path class="st11" d="M39.51,53.25c-.08-.01-.15-.03-.22-.04.08.01.14.03.22.04M39.21,53.18c-.05-.01-.1-.02-.13-.03.04.01.09.02.13.03"/>
    <path class="st3" d="M39.29,53.2s-.05-.01-.08-.02c.03,0,.05.01.08.02M39.08,53.16l-.08-.02s.03,0,.08.02"/>
    <path class="st11" d="M39.69,53.21c-.08-.01-.15-.03-.21-.04.07.01.14.03.21.04M39.4,53.16s-.1-.02-.13-.03c.04.01.08.02.13.03"/>
    <path class="st3" d="M39.48,53.17s-.05-.01-.08-.02c.03,0,.05.01.08.02M39.28,53.13s-.05-.01-.07-.02.03,0,.08.02h0Z"/>
    <path class="st6" d="M37.68,52.72c-.06-.85,2.38.18,3.19.2.64.02,2.57-.13,2.74-.19,1.35-.5-.08,1.43-2.78,1.53-1.24.05-3.11-1.02-3.15-1.54h0Z"/>
    <path class="st7" d="M45.74,50.66c-1.55-.29-4.82.02-4.82.02-2.7.45-4.8-.03-4.82-.01-.06,0,2.15,2.94,4.78,2.81,2.63.14,4.92-2.81,4.85-2.82h0Z"/>
    <path d="M58.62,77.04c-.09-1.24-.24-2.39-.43-3.45-.35-1.86-.84-3.43-1.44-4.77-.83-1.89-1.84-3.3-2.87-4.36h0s-.06-.06-.1-.09c-.01-.01-.03-.03-.04-.04-1.98-1.91-3.96-2.57-4.81-2.77.01.05-.53-.18-.65-.4-.22-.37-.47-.73-.75-1.11-.29-.39-.71-.67-1.18-.79-.28-.08-.54-.15-.56-.16l.1,1.74c.02.35-.1.69-.34.94l-2.38,2.55-1.83,2.16-1.75-2.03h.02l-2.95-3.42c-.25-.29-.36-.68-.29-1.06l.16-.86s-.65.21-1.08.34c-.28.09-.52.26-.68.51-.15.23-.28.47-.39.69-.25.53-.69.95-1.25,1.14-1.09.36-2.71,1.09-4.18,2.52-1.07,1.07-2.13,2.53-3,4.49-.59,1.34-1.09,2.91-1.44,4.77-.2,1.05-.34,2.2-.43,3.45-.06.88-.1,1.8-.1,2.77,0,0,.14.06.41.18h33.88c.26-.12.41-.18.41-.18,0-.98-.04-1.9-.1-2.77"/>
    <path class="st16" d="M44.2,69.94h9.46v1.77l-4.73,3.01-4.73-3.01v-1.77Z"/>
    <path class="st15" d="M46.2,48.58s-2.45-2.69-4.1-1.67c-.89.57-1.68.2-1.93.05-.01-.01-.03-.02-.04-.03-.03-.02-.04-.03-.04-.03-1.66-1.02-4.1,1.67-4.1,1.67,0,0-1.7,1.77-3.4,1.21-.29-.09-.5.28-.29.49,1.04,1.07,2.93,2.17,6.08,1.52.7-.15,1.25-.34,1.68-.55.66-.33,1.42-.33,2.08,0,.43.22.97.41,1.68.55,3.15.66,5.04-.45,6.08-1.52.21-.21,0-.59-.29-.49-1.7.56-3.4-1.21-3.4-1.21"/>
    <path class="st23" d="M46.21,57.43c-2.81.18-3.51-1.63-3.51-1.63-.26-.78-.73-1.03-1.23-1.04s0,0-.01,0h-.01c-.49,0-.97.26-1.23,1.04,0,0-.7,2.28-3.51,2.11,0,0,1.82,2.25,4.74,2.31s0,0,.01,0h.01c2.92-.07,4.74-2.8,4.74-2.8"/>
    <path class="st16" d="M29.17,69.94h9.46v1.77l-4.73,3.01-4.73-3.01v-1.77Z"/>
    <path class="st8" d="M64.08,16.96s-1.14,1.84-5.08.41c-3.84-1.4-3.74-5.96-9.27-8.51-2.82-1.3-4.51-1.14-5.49-.67.99-.89,3.02-.81,3.02-.81,0,0-2.51-1.52-6.4-.16-2.12.75-2.6.92-3.38,1.08-.48.1-.98-.1-1.28-.51-.86-1.19-2.24-1.82-3.63-1.61-.83.13-1.63.32-2.34.61-4.77,1.93-8.68,5.25-11.43,14.15-2.76,8.9-.52,16.35.01,19.46,1.69,9.86,12.49,19.45,12.49,19.45,0,0-4.7-6.14-5.61-8.76-.23-.66-.5-1.48-.76-2.46,1.96,3.59,4.45,5.79,4.45,5.79-4.66-11,1.87-21.9,5.24-26.47s.66-1.01,1.79-2.25c-.14-.11-.28-.22-.42-.31.14.1.28.2.42.31,2.96-3.23,9.2-8.02,15.85-.79.27.26.52.55.76.87,2.3,3.05,3.22,8.16,2.88,10.03-.83,4.61.33,7.26.77,7.13,0,0,.02-1.17.42-2.21,1.19-3.1,2.19-.94,2.37-5.16.21-4.93.91-6.73.69-9.36-.1-1.15-.38-2.47-.66-3.59-.42-2.04.21-2.42.49-2.5.03,0,.05-.01.07-.01.04,0,.06,0,.06,0h0c2.55-.49,3.97-3.16,3.97-3.16h0Z"/>
    <path class="st16" d="M52.12,80h-21.34c.11-.44.24-.86.39-1.25.15-.4.31-.77.48-1.11h4.85c1.16,0,2.28.42,3.13,1.2.57.52,1.19.75,1.81.71h.03c.63.05,1.26-.18,1.84-.72.85-.78,1.97-1.19,3.12-1.19h4.84c.18.34.33.71.48,1.11.14.39.28.81.39,1.25h0Z"/>
    <path class="st8" d="M48.17,21.83s-14.91,5.16-16.17,22.46c0,0-2.83-12.54,5.61-20.41,0,0,3.88-6.12,10.56-2.05"/>
  </g>
</svg>