<?xml version="1.0" encoding="UTF-8"?>
<svg id="Layer_2" xmlns="http://www.w3.org/2000/svg" version="1.1" xmlns:xlink="http://www.w3.org/1999/xlink" viewBox="0 0 80 80">
  <!-- Generator: Adobe Illustrator 30.2.1, SVG Export Plug-In . SVG Version: 2.1.1 Build 1)  -->
  <defs>
    <style>
      .st0 {
        fill: #b8987d;
      }

      .st1 {
        fill: #785151;
      }

      .st2 {
        fill: #714223;
      }

      .st3 {
        fill: #fff;
      }

      .st4 {
        fill: #272213;
      }

      .st5 {
        fill: none;
      }

      .st6 {
        fill: #b15d80;
      }

      .st7 {
        fill: #644645;
      }

      .st8 {
        fill: #44361f;
      }

      .st9 {
        fill: #523a38;
      }

      .st10 {
        fill: #7b3357;
      }

      .st11 {
        fill: #462e1b;
      }

      .st12 {
        clip-path: url(#clippath);
      }

      .st13 {
        fill: #f7f7f7;
      }

      .st14 {
        fill: #8b5b5a;
      }
    </style>
    <clipPath id="clippath">
      <rect class="st5" x="35.76" y="55.47" width="8.99" height="5.29"/>
    </clipPath>
  </defs>
  <g id="Layer_1-2">
    <path class="st6" d="M0,0h80v80H0V0Z"/>
    <path class="st1" d="M40.22,50.03v29.82h-16.23c-.26-.1-.4-.16-.4-.16,0-1.87.13-3.55.38-5.03.12-.76.27-1.47.44-2.14.18-.69.37-1.32.59-1.92.29-.79.62-1.51.97-2.15,1.12-2.06,2.47-3.42,3.73-4.31.64-.45,1.26-.78,1.8-1.03.41-.19.78-.32,1.08-.41.35-.1.62-.16.77-.19.1-.02.15-.02.15-.02.06,0,.12,0,.18-.01.5-.08.92-.53,1.26-1.23.25-.52.45-1.18.62-1.97.06-.3.12-.6.17-.93.08-.55.16-1.13.23-1.73.03-.37.06-.72.1-1.1.14-1.82.19-3.83.19-5.72,0,0,2.18.22,3.95.22h0Z"/>
    <path class="st14" d="M56.91,79.7s-.15.05-.39.16h-16.31v-29.82h.04c1.75,0,3.96-.22,3.96-.22,0,1.88.04,3.85.18,5.67.04.36.08.73.1,1.08.07.63.15,1.22.24,1.77h0c.02.26.08.49.11.72.16.78.36,1.46.59,2.01.29.67.64,1.15,1.07,1.35.14.06.29.09.43.09,0,0,.09.01.26.05.27.05.73.16,1.3.39.16.06.34.14.52.22.48.22,1.02.52,1.58.9,1.3.89,2.72,2.27,3.89,4.41.35.64.68,1.36.97,2.15.22.59.42,1.23.59,1.92.18.68.33,1.41.45,2.18.24,1.48.37,3.14.37,4.99h0Z"/>
    <g class="st12">
      <path class="st9" d="M44.75,58.32h0c-.41.64-1.78,2.45-4.5,2.45h-.03c-2.57-.01-4.08-1.87-4.46-2.43.08-.55.16-1.13.23-1.73.03-.35.06-.72.11-1.1,1.25.31,2.63.51,4.08.54h.05c1.5-.02,2.89-.24,4.18-.58.04.35.08.72.11,1.07.06.63.15,1.22.24,1.77"/>
    </g>
    <path class="st7" d="M40.03,15.89c-17.19,0-17.28,14.35-16.52,23.75-1.17-2.23-4.68-1.54-4.39,1.97.28,3.38,5.28,5.11,5.14,4.73,2.6,6.95,9.49,12.19,15.77,12.19h.13V15.89h-.13Z"/>
    <path class="st1" d="M40.13,15.89c17.19,0,17.28,14.35,16.53,23.75,1.17-2.23,4.66-1.54,4.37,1.97-.26,3.38-5.27,5.11-5.14,4.73-2.53,6.95-9.49,12.19-15.77,12.19h-.09l-.04-42.63h.13Z"/>
    <path class="st1" d="M39.9,19.94c-5.65,0-9.8,1.64-12.29,4.86-3.5,4.52-3.37,11.42-2.09,16.37.4,1.52.61,5.6.87,7.09,1.23,6.7,8.63,10.26,13.51,10.26h.13V19.94h-.08"/>
    <path class="st14" d="M52.18,24.82c-2.48-3.21-6.58-4.85-12.15-4.88v38.59c5.57-.06,12.24-3.97,13.37-10.26.28-1.49.48-5.57.87-7.09,1.29-4.94,1.42-11.82-2.1-16.36"/>
    <path class="st8" d="M35.23,20.03l-.07.07v.02s.05-.07.07-.1"/>
    <path class="st3" d="M27.7,35s1.31,5.37,3.56,5.81,4.69-.43,4.69-.43c0,0,.23-6.31-.92-7.14-1.15-.83-3.81-2.03-7.33,1.76h0ZM52.5,34.82s-1.31,5.37-3.56,5.81-4.69-.43-4.69-.43c0,0-.23-6.31.92-7.14,1.15-.83,3.81-2.03,7.33,1.76h0Z"/>
    <path class="st9" d="M20.23,40.13c.84-1.36,2.17-.77,2.48-.47.34.33.62.75.41,1.54-.12.46-.59.5-.49,1.18.13.77.49.81.7,1,.2.17.45.3.57.63.13.33.15.67.08.97-.13.55-.94.1-1.48-.13-.36-.17-1.49-1.13-1.78-1.44-.71-.81-1.06-2.39-.49-3.28M59.93,40.13c-.84-1.36-2.15-.77-2.48-.47-.34.33-.61.75-.41,1.54.12.46.59.5.49,1.18-.13.77-.49.81-.69,1-.2.17-.46.3-.58.63-.12.33-.15.67-.08.97.13.55.94.1,1.48-.13.37-.17,1.49-1.13,1.78-1.44.73-.81,1.06-2.39.49-3.28"/>
    <path class="st5" d="M24.62,31.97c-.15.51-.26,1.07-.33,1.67,0,0,.23-.94.73-2.33-.21.3-.36.54-.39.67"/>
    <path class="st9" d="M35.95,40.36s-.05.01-.17.06c-.03-1.94-.21-4.6-.93-5.11-1.07-.78-3.49-1.88-6.72,1.13-.29-.83-.44-1.46-.44-1.46,3.53-3.8,6.19-2.6,7.33-1.77,1.15.83.92,7.15.92,7.15h0Z"/>
    <ellipse class="st11" cx="32.41" cy="37.63" rx="2.22" ry="2.21"/>
    <path class="st2" d="M32.3,39.1c-.64-.05-1.13-.7-1.07-1.41.06-.71.65-1.26,1.29-1.21s1.13.7,1.07,1.41-.65,1.27-1.29,1.21h0Z"/>
    <path class="st4" d="M32.36,38.85c-.44-.04-.91-.52-.86-1.13s.58-1.01,1.03-.97c.44.04.91.53.86,1.13-.05.6-.58,1.01-1.03.97h0Z"/>
    <path class="st9" d="M44.24,40.18s.05.01.17.06c.03-1.94.21-4.6.93-5.11,1.07-.78,3.49-1.88,6.72,1.13.29-.83.44-1.46.44-1.46-3.53-3.8-6.19-2.6-7.33-1.77-1.15.83-.92,7.15-.92,7.15h0Z"/>
    <path class="st11" d="M45.58,37.44c0,1.22.99,2.21,2.22,2.21s2.22-.99,2.22-2.21-.99-2.21-2.22-2.21-2.22.99-2.22,2.21"/>
    <path class="st2" d="M47.9,38.92c.64-.05,1.13-.7,1.07-1.41-.06-.71-.65-1.26-1.29-1.21s-1.13.7-1.07,1.41.65,1.27,1.29,1.21h0Z"/>
    <path class="st4" d="M47.84,38.66c.44-.04.91-.52.86-1.13s-.58-1.01-1.03-.97c-.45.04-.91.53-.86,1.13.05.6.58,1.01,1.03.97h0Z"/>
    <path d="M37.3,34.91s-.43-.65-1.26-1.28c-.52-.4-1.03-.71-1.57-.93-.65-.27-1.34-.46-2.02-.56-.61-.07-1.29-.05-2.08.06-.6.11-1.19.29-1.69.51-.35.12-.64.29-.86.43-.09.05-.16.1-.24.14l-1.07.67,1.24-.29c.06-.01.12-.03.19-.05.26-.07.58-.15.95-.21.09-.01.18-.03.27-.05.16-.03.32-.06.49-.07.19-.01.38-.02.58-.04l.26-.02c.69,0,1.27.04,1.78.16.56.1,1.14.28,1.67.52.5.24.98.48,1.36.75.76.5,1.18.92,1.18.93.1.1.24.16.38.16.1,0,.2-.03.29-.09.25-.16.32-.5.16-.74v-.02s-.01,0-.01,0ZM52.72,33.28c-.07-.04-.15-.09-.24-.14-.23-.14-.5-.31-.85-.43-.51-.22-1.1-.4-1.71-.52-.78-.1-1.46-.12-2.07-.05-.67.09-1.37.29-2.02.56-.53.22-1.05.54-1.57.93-.82.63-1.23,1.24-1.26,1.28h0c-.14.22-.11.51.07.69.1.1.24.16.38.16s.28-.06.38-.16h0s.45-.44,1.18-.93c.37-.27.85-.51,1.35-.75.53-.25,1.11-.43,1.68-.52.51-.12,1.09-.17,1.76-.16l.27.02c.2.01.39.03.58.04.17,0,.33.04.48.07.09.02.18.04.27.05.38.05.69.14.95.21.07.02.13.04.19.05l1.24.29-1.08-.68h0Z"/>
    <path class="st3" d="M32,37.36c-.02.22-.24.37-.5.36-.26-.02-.45-.22-.43-.43.02-.22.24-.38.5-.36s.45.21.43.43M33.43,38.62c-.01.11-.12.19-.25.18-.13-.01-.23-.11-.22-.22.01-.11.12-.19.25-.18.13.01.23.11.22.22M48.2,37.18c.02.22.24.37.5.36.26-.02.45-.22.43-.43-.02-.22-.24-.38-.5-.36s-.45.21-.43.43M46.76,38.44c.01.11.12.19.25.18.13-.01.23-.11.22-.22-.01-.11-.12-.19-.25-.18-.13.01-.23.11-.22.22"/>
    <path class="st10" d="M54.77,77.96c.03.77.05,1.41.09,1.9h-29.03c.03-.49.06-1.13.09-1.9.03-.7.04-1.49.05-2.4,0-.22,0-.46,0-.7h0v-.96c0-.44,0-.89-.01-1.37h-1.55c.09-.36.19-.7.29-1.03.1-.31.2-.6.3-.89.1-.26.2-.52.31-.77.2-.49.43-.95.67-1.38.2-.36.4-.7.61-1.02.98-1.5,2.08-2.55,3.12-3.29.64-.45,1.26-.79,1.8-1.03.41-.19.78-.32,1.08-.41.35-.1.62-.16.77-.19,1.33,1.68,3.73,4,6.85,3.98,2.05-.02,4.43-1.05,7.01-3.95.27.05.73.16,1.3.39.16.06.34.14.52.22.48.22,1.02.51,1.58.9,1.08.74,2.24,1.82,3.28,3.39.21.32.41.66.61,1.02.24.43.45.89.67,1.38.11.25.21.5.31.77.1.29.2.58.3.89.1.33.2.67.29,1.03h-1.36c-.01.48-.01.93-.01,1.37v.96c0,.24,0,.47,0,.69,0,.9.02,1.71.05,2.4h0Z"/>
    <path class="st9" d="M36.67,46.08c-.07-1.37,2.52-.5,3.37-.46.67.04,2.72-.43,2.9-.31,1.21.81-1.28,2.45-2.94,2.45-.44,0-3.29-.85-3.33-1.68h0Z"/>
    <path class="st5" d="M38.63,53.05c-.08-.01-.15-.03-.22-.04.08.01.14.03.22.04"/>
    <path class="st0" d="M38.42,53.01s-.05-.01-.08-.02c.03,0,.05.01.08.02"/>
    <path class="st14" d="M36.83,53.28c-.06-.86,2.41.18,3.22.21.65.02,2.6-.13,2.77-.2,1.36-.51-.08,1.44-2.82,1.55-1.26.05-3.14-1.03-3.18-1.56h0Z"/>
    <path class="st1" d="M44.88,51.62c-.67-.03-1.36.52-2.17.44-.03-.02-.05-.02-.08-.02-.19-.03-.37,0-.57.05-.25.05-.5.15-.74.24-.4.13-.86.24-1.33.2s-.02,0-.03,0h-.03c-.47.03-.92-.07-1.33-.2-.24-.08-.49-.19-.74-.24-.2-.05-.39-.08-.57-.05-.04,0-.05,0-.08.02-.81.09-1.5-.47-2.17-.44-.19.02-.45-.03-.61-.03.03.02.07.03.1.05,1.92.93,3.57,2.68,5.4,2.62h.05c1.83.06,3.48-1.69,5.4-2.62.04-.02.07-.03.1-.05-.15,0-.42.05-.61.03h0Z"/>
    <path class="st9" d="M45.45,51.56s-1.95-.75-3.33-.31c0,0-.52.2-1.05.32-.33.12-.72.16-1.1.15-.29-.01-.57-.05-.79-.09-.08-.01-.15-.03-.23-.04-.03,0-.06-.01-.09-.02l-.14-.03c-.05-.01-.08-.02-.08-.02-.44-.12-.82-.27-.82-.27-1.39-.44-3.33.31-3.33.31-.03.01-.04.02-.04.02.15,0,.42.05.61.03.54-.02,1.1.33,1.72.42.25.07,1.18.31,2.37.42.26.05.53.08.8.06s.02,0,.03,0h.03c.14,0,.29,0,.43-.01.91-.01,1.87-.14,2.75-.48h0c.62-.1,1.18-.45,1.72-.43.19.02.45-.03.61-.03,0,0-.02,0-.04-.02h0Z"/>
    <path class="st13" d="M56.3,54.35c.53.51,2.74,1.25,2.74,1.25,0,0-1.43-.51-1.9-2.47-.18-.71-.26-1.12-.28-1.41h-.17c.59-.71,1.04-1.47,1.34-2.26.01-.04.03-.08.04-.12.11-.32.2-.64.26-.97.99-4.8-1.4-11.11-1.4-11.11.27,1.52-.25,3.44-.68,5.18-.34,1.38-.79,2.7-1.17,3.7-.36.94-.66,1.62-.76,1.84-1.37,2.6-3.82,4.72-6.9,6.04.21-.51.33-1.08.33-1.7,0-.27-.03-.53-.07-.78.3-.03.6-.07.87-.13.44-.07.83-.2,1.17-.4.71-.42,1.18-1.14,1.25-2.3,0,0-1.82,2.62-4.65.3,0,0-3.26-3.58-6.14-2.15-2.87-1.43-6.14,2.15-6.14,2.15-2.83,2.32-4.65-.3-4.65-.3.05.83.28,1.4.67,1.84l.02.02s.08.06.18.15c.1.08.26.19.48.3,0,0,0,0,.01,0,.22.1.5.21.85.28.28.07.66.09,1.12.07-.06.31-.1.63-.1.96,0,.62.12,1.19.33,1.7-3.08-1.31-5.53-3.44-6.9-6.04-.1-.22-.4-.9-.76-1.84-.38-1.01-.83-2.32-1.17-3.7-.43-1.75-.68-3.61-.42-5.13,0,0-2.66,6.26-1.67,11.06.06.33.15.65.26.97.01.04.03.09.04.12h0c.29.79.74,1.54,1.34,2.25h-.17c-.01.29-.1.69-.28,1.41-.48,1.96-1.9,2.47-1.9,2.47,0,0,2.21-.75,2.74-1.25.26-.25.94-.92,1.15-1.13,0,0,.01.01.02.01-.12.22-.41.95,0,2.35.53,1.83,2.72,3.07,2.72,3.07,0,0-1.31-1.46-.95-3.06,0,0-.08.64,2.05,2.42,2.03,1.7,5.75,4.2,6.08,4.22-.03-.05-.07-2.48-.09-3.2,1.55.37,3.18,2.8,4.86,2.8.1,0,.2,0,.3,0,.1,0,.2,0,.3,0,1.68,0,3.3-2.43,4.86-2.8-.03.72-.06,3.59-.09,3.65.33-.02,4.05-2.97,6.08-4.67,2.13-1.78,2.05-2.42,2.05-2.42.37,1.6-.95,3.06-.95,3.06,0,0,2.19-1.23,2.72-3.07.41-1.4.12-2.13,0-2.35,0,0,.01-.01.02-.01.21.21.89.88,1.15,1.13h-.01ZM45.55,54.27c-.51.22-1.12.4-1.8.54v-.02c0-.55-1.56-1-3.5-1h-.18c-1.93,0-3.5.45-3.5,1v.02c-.69-.15-1.3-.33-1.8-.54-.27-.56-.43-1.22-.43-1.93,0-.19.01-.39.03-.57,1.04-.96,2.66.11,4.54-.1.4-.04.82-.07,1.24-.07h.02c.42,0,.83.02,1.24.07,1,.11,1.92-.14,2.73-.25.5.07,1.02.12,1.54.15.1.05.19.11.28.2.02.19.03.37.03.57,0,.71-.16,1.37-.43,1.93h.01Z"/>
    <path d="M18.3,53.07c-.07.07-.12.11-.12.11,0,0,.04-.02.12-.11M63.3,47.94s-1.43-.98-2.1-5.91c-.86-6.26.62-11.13-.53-16.02-1.15-4.89-1.46-5.37-3.38-8.02-1.91-2.66-3.76-4.8-8.93-6.55-5.17-1.76-6.27-1.16-8.24-1.13-3.15.04-5.16,1.54-5.16,1.54,0,0-.29-1.1.19-2.59s.87-2.19.87-2.19c0,0-1.26,1.95-1.53,2.44-1.12,2.02-.77,2.83-.77,2.83-1.05-.59-5.56-2.4-5.56-2.4,0,0,1.53.96,1.72,1.81.19.85-10.17,4.82-11.61,15.67-1.06,7.97.64,12.42,1.61,14.21.33,2.52,1,5.39-.07,8.27-.83,2.22-1.3,2.96-1.51,3.2.59-.59,3.38-3.39,3.97-5.26,1.15-3.62.69-5.12,1.07-7.15.06-.34.13-.77.18-1.25.15.82.39,1.66.78,2.51.61,1.31,1.39,2.23,1.39,2.23,0,0-1.21-2.74-.97-5.63.15-1.81,1.23-2.09,3.63-8.74.18-.5.3-1.07.39-1.67.12.35.27.66.45.94,1.8,2.79,4.42,3.71,4.42,3.71,0,0-2.86-2.22-2.89-6.16-.02-2.13.77-3.83.77-3.83,0,0-.73,4.43,5.9,7.09,1.91.76,3.39.25,3.39.25,0,0-2.76-1.63-2.78-4.47,0,0,4.17,5.43,11.78,7.23,2.94.7,4.94.5,4.94.5,0,0,.3-.65.21,2.35-.1,3-.61,4.28-1.31,5.31-.28.42-1.16,1.2-1.16,1.2,0,0,2.2-.82,3.58-3.65.69-1.42.71-3.2.67-4.05.06,1.05-.05,3.68-.26,7.04-.41,6.31-2.36,9.08-2.36,9.08,0,0,2.14-1.85,3.51-5.54.72-1.93.82-3.36.82-4.07.12,1.24.83,4.51,4.86,6.89h0Z"/>
    <path class="st6" d="M57.01,67.45v2.4h-1.82c-.21-.49-.43-.95-.67-1.38-.2-.36-.4-.7-.61-1.02h3.1,0ZM56.09,72.53h-1.36c-.01.48-.01.93-.01,1.37h-28.73c0-.44,0-.89-.01-1.37h-1.55c.09-.36.19-.7.29-1.03h31.08c.1.33.2.67.29,1.03h0ZM54.77,77.96h-28.85c.03-.7.04-1.49.05-2.4h28.75c0,.9.02,1.71.05,2.4"/>
  </g>
</svg>