<?xml version="1.0" encoding="UTF-8"?>
<svg id="Layer_2" xmlns="http://www.w3.org/2000/svg" version="1.1" xmlns:xlink="http://www.w3.org/1999/xlink" viewBox="0 0 80 80">
  <!-- Generator: Adobe Illustrator 30.2.1, SVG Export Plug-In . SVG Version: 2.1.1 Build 1)  -->
  <defs>
    <style>
      .st0 {
        fill: #b5957e;
      }

      .st1 {
        fill: #b8987d;
      }

      .st2 {
        fill: #8191b0;
      }

      .st3 {
        fill: #714223;
      }

      .st4 {
        fill: #22241e;
      }

      .st5 {
        fill: #ccad8a;
      }

      .st6 {
        fill: #d7bd9d;
      }

      .st7 {
        fill: #fff;
      }

      .st8 {
        fill: #272213;
      }

      .st9 {
        fill: #b7967d;
      }

      .st10 {
        fill: none;
      }

      .st11 {
        fill: #884139;
      }

      .st12 {
        fill: #667895;
      }

      .st13 {
        fill: #d2bb9b;
      }

      .st14 {
        fill: #ba9d82;
      }

      .st15 {
        fill: #dcc5a0;
      }

      .st16 {
        fill: #d6bb9c;
      }

      .st17 {
        fill: #44361f;
      }

      .st18 {
        fill: #516682;
      }

      .st19 {
        fill: #a98d76;
      }

      .st20 {
        fill: #462e1b;
      }

      .st21 {
        clip-path: url(#clippath);
      }

      .st22 {
        fill: #ebd9b5;
      }
    </style>
    <clipPath id="clippath">
      <rect class="st10" x="37.21" y="55.45" width="8.99" height="5.29"/>
    </clipPath>
  </defs>
  <g id="Layer_1-2">
    <path class="st11" d="M0,0h80v80H0V0Z"/>
    <path class="st17" d="M36.69,20.06l-.07.07v.02s.05-.07.07-.1"/>
    <path class="st15" d="M41.67,50.02v29.92h-16.21c-.26-.11-.4-.16-.4-.16,0-2.74.29-5.04.77-6.99.19-.77.41-1.48.65-2.13.57-1.54,1.26-2.79,2.01-3.81,1.98-2.69,4.31-3.73,5.58-4.12.57-.17.92-.22.92-.22.06,0,.11,0,.18-.02.28-.04.53-.2.75-.44.19-.2.35-.47.5-.79.25-.52.45-1.2.62-1.97.07-.3.12-.61.18-.94.08-.55.15-1.13.23-1.74.02-.37.06-.72.1-1.11.14-1.83.18-3.83.18-5.73,0,0,2.18.22,3.95.22"/>
    <path class="st22" d="M58.35,79.78s-.14.05-.39.16h-16.29v-29.92h.04c1.75,0,3.96-.22,3.96-.22,0,1.88.04,3.86.19,5.69.04.36.08.72.1,1.08.06.63.15,1.23.24,1.78h0c.03.26.08.48.12.72.16.78.35,1.46.59,2.01.16.37.34.69.54.92.16.2.34.35.53.43.14.06.28.09.43.09,0,0,.62.07,1.56.44,1.91.75,5.11,2.7,6.95,7.7.24.65.46,1.36.65,2.13.48,1.94.77,4.24.77,6.99h0Z"/>
    <g class="st21">
      <path class="st14" d="M46.2,58.28h0c-.41.64-1.78,2.45-4.5,2.45h-.03c-2.57-.01-4.08-1.87-4.46-2.42.08-.55.16-1.12.23-1.73.03-.35.06-.72.11-1.1,1.25.31,2.63.51,4.08.54h.05c1.5-.02,2.89-.24,4.18-.57.04.35.08.72.11,1.07.06.63.15,1.22.24,1.77"/>
    </g>
    <path class="st5" d="M41.48,15.92c-17.18,0-17.27,14.33-16.5,23.71-1.17-2.22-4.67-1.55-4.38,1.96.28,3.38,5.27,5.1,5.13,4.72,2.6,6.94,9.49,12.17,15.75,12.17h.13V15.92h-.13Z"/>
    <path class="st19" d="M21.69,40.12c.84-1.36,2.16-.77,2.48-.47.34.33.62.75.41,1.55-.12.46-.59.5-.49,1.18.13.77.49.81.7,1,.2.17.45.3.57.63.13.33.15.67.08.97-.13.55-.94.1-1.48-.13-.36-.17-1.49-1.12-1.78-1.44-.71-.81-1.06-2.38-.49-3.27"/>
    <path class="st6" d="M41.58,15.92c17.18,0,17.27,14.33,16.52,23.71,1.17-2.22,4.66-1.55,4.37,1.96-.26,3.38-5.27,5.1-5.13,4.72-2.53,6.94-9.49,12.17-15.75,12.17h-.09l-.04-42.57h.13"/>
    <path class="st19" d="M61.37,40.12c-.84-1.36-2.15-.77-2.48-.47-.34.33-.61.75-.41,1.55.12.46.59.5.49,1.18-.13.77-.49.81-.69,1-.2.17-.46.3-.58.63s-.15.67-.08.97c.13.55.94.1,1.48-.13.37-.17,1.49-1.12,1.78-1.44.73-.81,1.06-2.38.49-3.27"/>
    <path class="st15" d="M41.35,19.97c-5.65,0-9.79,1.63-12.28,4.85-3.49,4.52-3.37,11.4-2.09,16.35.4,1.52.61,5.59.87,7.08,1.23,6.69,8.63,10.25,13.5,10.25h.13V19.97h-.08"/>
    <path class="st22" d="M53.62,24.84c-2.48-3.21-6.57-4.84-12.14-4.87v38.53c5.57-.06,12.23-3.97,13.37-10.25.28-1.49.48-5.56.87-7.08,1.29-4.93,1.42-11.81-2.1-16.33"/>
    <path class="st10" d="M40.79,51.71c-.08-.01-.15-.03-.21-.04.07.01.14.03.21.04M40.5,51.65c-.05-.01-.1-.02-.13-.03.04.01.09.02.13.03"/>
    <path class="st9" d="M40.58,51.67s-.05-.01-.08-.02c.03,0,.05.01.08.02M40.37,51.62s-.05-.01-.07-.02.03,0,.08.02h0Z"/>
    <path class="st10" d="M26.08,31.98c-.15.51-.26,1.07-.33,1.66,0,0,.23-.94.73-2.33-.21.3-.36.54-.39.66M40.84,50.92c-.08-.01-.15-.03-.22-.04.08.01.15.03.22.04M40.54,50.87c-.05-.01-.1-.02-.13-.03.04.01.09.02.13.03"/>
    <path class="st0" d="M40.63,50.88s-.05-.01-.08-.02c.03,0,.05.01.08.02M40.41,50.83l-.08-.02s.03,0,.08.02"/>
    <path class="st16" d="M38.53,45.99c-.07-1.37,2.52-.5,3.37-.46.67.04,2.72-.43,2.9-.31,1.21.81-1.28,2.45-2.94,2.45-.44,0-3.29-.85-3.33-1.67h0Z"/>
    <path class="st10" d="M40.88,51.56c-.08-.01-.15-.03-.22-.04.08.01.15.03.22.04M40.58,51.5c-.05-.01-.1-.02-.13-.03.04.01.09.02.13.03"/>
    <path class="st0" d="M40.66,51.52s-.05-.01-.08-.02c.03,0,.05.01.08.02M40.45,51.47l-.08-.02s.03,0,.08.02"/>
    <path class="st10" d="M40.8,51.41c-.09-.01-.16-.03-.23-.04.08.02.16.03.23.04M40.47,51.34c-.05-.01-.11-.02-.14-.03.05.01.09.02.14.03"/>
    <path class="st9" d="M40.56,51.37s-.06-.01-.09-.02c.03,0,.05.01.09.02M40.33,51.31s-.05-.01-.08-.02.03.01.08.02h0Z"/>
    <path class="st10" d="M40.73,51.18c-.09-.01-.16-.03-.23-.04.08.02.16.03.23.04M40.41,51.12c-.05-.01-.11-.02-.14-.03.05.01.09.02.14.03"/>
    <path class="st9" d="M40.5,51.14s-.06-.01-.09-.02c.03,0,.05.01.09.02M40.26,51.09s-.05-.01-.08-.02.03.01.08.02h0Z"/>
    <path class="st10" d="M40.93,51.15c-.08-.01-.16-.03-.23-.04.08.02.15.03.23.04M40.62,51.09c-.05-.01-.1-.02-.14-.03.05.01.09.02.14.03"/>
    <path class="st9" d="M40.7,51.11s-.06-.01-.09-.02c.03,0,.05.01.09.02M40.48,51.06l-.08-.02s.03.01.08.02h0Z"/>
    <path class="st10" d="M40.09,53.43c-.08-.01-.15-.03-.22-.04.08.01.14.03.22.04M39.79,53.37c-.05-.01-.1-.02-.13-.03.04.01.09.02.13.03"/>
    <path class="st1" d="M39.87,53.39s-.05-.01-.08-.02c.03,0,.05.01.08.02M39.66,53.34l-.08-.02s.03,0,.08.02"/>
    <path class="st10" d="M40.03,53.22c-.08-.01-.15-.03-.22-.04.08.01.14.03.22.04M39.72,53.16c-.05-.01-.1-.02-.13-.03.04.01.09.02.13.03"/>
    <path class="st1" d="M39.81,53.18s-.05-.01-.08-.02c.03,0,.05.01.08.02M39.59,53.13l-.08-.02s.03,0,.08.02"/>
    <path class="st10" d="M40.21,53.19c-.08-.01-.15-.03-.21-.04.07.01.14.03.21.04M39.92,53.14s-.1-.02-.13-.03c.04.01.08.02.13.03"/>
    <path class="st1" d="M40,53.15s-.05-.01-.08-.02c.03,0,.05.01.08.02M39.79,53.1s-.05-.01-.07-.02.03,0,.08.02h0Z"/>
    <path class="st7" d="M29.16,34.9s1.31,5.38,3.56,5.82,4.69-.44,4.69-.44c0,0,.23-6.33-.92-7.15-1.15-.83-3.81-2.03-7.33,1.76"/>
    <path class="st13" d="M37.41,40.27s-.05.01-.17.06c-.03-1.94-.21-4.61-.93-5.12-1.07-.79-3.48-1.89-6.71,1.13-.29-.84-.44-1.47-.44-1.47,3.53-3.8,6.18-2.6,7.33-1.77,1.15.83.92,7.16.92,7.16"/>
    <circle class="st20" cx="33.86" cy="37.53" r="2.21"/>
    <path class="st3" d="M33.76,39c-.64-.05-1.13-.7-1.07-1.41s.65-1.27,1.29-1.21,1.13.7,1.07,1.41c-.06.71-.65,1.27-1.29,1.21h0Z"/>
    <path class="st8" d="M33.81,38.75c-.44-.04-.91-.53-.86-1.13.05-.6.58-1.01,1.03-.97.45.04.9.53.86,1.13-.05.6-.58,1.01-1.03.97h0Z"/>
    <path class="st7" d="M33.45,36.17c-.02.22-.24.38-.5.36-.26-.02-.45-.22-.43-.43.02-.22.24-.38.5-.36s.45.21.43.44h0ZM34.89,38.52c-.01.11-.12.19-.25.18-.13-.01-.23-.11-.22-.22.01-.11.12-.19.25-.18.13.01.23.11.22.22M53.94,34.72s-1.31,5.38-3.56,5.82-4.69-.44-4.69-.44c0,0-.23-6.33.92-7.15,1.15-.83,3.81-2.03,7.33,1.76"/>
    <path class="st13" d="M45.69,40.09s.05.01.17.06c.03-1.94.21-4.61.93-5.12,1.07-.79,3.48-1.89,6.71,1.13.29-.84.44-1.47.44-1.47-3.53-3.8-6.18-2.6-7.33-1.77-1.15.83-.92,7.16-.92,7.16"/>
    <path class="st20" d="M47.02,37.34c0,1.22.99,2.22,2.21,2.22s2.21-.99,2.21-2.22-.99-2.22-2.21-2.22-2.21.99-2.21,2.22"/>
    <path class="st3" d="M49.34,38.82c.64-.05,1.13-.7,1.07-1.41s-.65-1.27-1.29-1.21-1.13.7-1.07,1.41c.06.71.65,1.27,1.29,1.21h0Z"/>
    <path class="st8" d="M49.29,38.56c.44-.04.91-.53.86-1.13-.05-.6-.58-1.01-1.03-.97-.44.04-.9.53-.86,1.13.05.6.58,1.01,1.03.97h0Z"/>
    <path class="st7" d="M49.65,37.08c.02.22.24.38.5.36.26-.02.45-.22.43-.43-.02-.22-.24-.38-.5-.36s-.45.21-.43.44h0ZM48.21,38.34c.01.11.12.19.25.18.13-.01.23-.11.22-.22-.01-.11-.12-.19-.25-.18-.13.01-.23.11-.22.22"/>
    <path d="M38.76,34.81s-.43-.65-1.26-1.29c-.52-.4-1.03-.71-1.57-.94-.65-.27-1.34-.46-2.02-.56-.61-.07-1.28-.05-2.07.06-.6.11-1.19.29-1.69.51-.35.12-.64.3-.86.43-.09.05-.16.1-.24.14l-1.07.68,1.24-.29c.06-.01.12-.03.19-.05.26-.07.58-.15.95-.21.09-.01.18-.03.27-.05.16-.03.32-.06.49-.07.19-.01.38-.02.58-.04l.26-.02c.69,0,1.27.04,1.78.16.56.1,1.14.28,1.67.52.5.24.98.48,1.36.75.76.51,1.18.93,1.18.93.1.1.24.16.38.16.1,0,.2-.03.29-.09.25-.16.32-.5.16-.74v-.02s-.01,0-.01,0ZM54.16,33.17c-.07-.04-.15-.09-.24-.14-.23-.14-.5-.31-.85-.43-.51-.22-1.09-.4-1.71-.52-.78-.1-1.46-.12-2.07-.05-.67.09-1.37.29-2.01.56-.53.22-1.05.54-1.57.94-.82.63-1.23,1.24-1.26,1.29h0c-.14.22-.11.51.07.69.1.1.24.16.38.16s.28-.06.38-.16h0s.45-.44,1.18-.94c.37-.27.85-.51,1.35-.75.53-.25,1.11-.43,1.68-.53.51-.12,1.09-.17,1.76-.16l.27.02c.2.01.39.03.58.04.16,0,.33.04.48.07.09.02.18.04.27.05.38.05.69.14.95.21.07.02.13.04.19.05l1.24.29-1.08-.68h0Z"/>
    <path class="st12" d="M55.77,75.88c.02,1.76.08,3.12.14,4h-14.24v-14.49c.36.01.73-.01,1.1-.08,1.47-.27,3.07-1.22,4.68-3.31.16.2.34.35.53.43.14.06.28.09.43.09,0,0,.62.08,1.56.44.55.21,1.21.53,1.91.99,1.73,1.14,3.73,3.16,5.04,6.71.24.65.46,1.36.65,2.13h-1.8c-.02,1.14-.02,2.17,0,3.09h0Z"/>
    <path class="st2" d="M41.67,65.39v14.49h-14.21c.05-.88.11-2.24.14-4,.01-.93.01-1.95,0-3.09h-1.77c.19-.77.41-1.48.65-2.13.57-1.54,1.26-2.79,2.01-3.81,1.03-1.39,2.15-2.35,3.17-2.99h0c.94-.6,1.8-.95,2.41-1.13.57-.17.92-.22.92-.22.06,0,.11,0,.18-.02.28-.04.53-.2.75-.44.69.85,2.9,3.24,5.76,3.33h0Z"/>
    <path class="st18" d="M51.89,63.95c-3.71,3.96-7.21,5.25-10.22,5.22-5.96-.06-10.02-5.3-10.02-5.3h0c.94-.6,1.8-.95,2.41-1.13.57-.17.92-.22.92-.22.06,0,.11,0,.18-.02.28-.04.53-.2.75-.44.69.85,2.9,3.24,5.76,3.33.36.01.73-.01,1.1-.08,1.47-.27,3.07-1.22,4.68-3.31.16.2.34.35.53.43.14.06.28.09.43.09,0,0,.62.08,1.56.44.55.21,1.21.53,1.91.99h0Z"/>
    <path class="st4" d="M56.33,51.61l.15-.26c1.01-1.43,1.14-2.77,1.14-4.47,0-.29-.02-.57-.04-.85h-.12c-.15,0-.29,0-.43.03-1.38.15-2.58,1.02-3.21,2.28-1.28,2.53-3.49,4.52-6.25,5.85.21-.57.34-1.22.34-1.93,0-1.32-.42-2.48-1.06-3.18-1.06-1.55-3.18-.24-5.65-.23-2.46,0-4.59-1.32-5.64.23-.64.7-1.06,1.86-1.06,3.18,0,.71.13,1.36.34,1.93-2.76-1.33-4.96-3.32-6.25-5.85-.61-1.2-1.72-2.05-3.02-2.25-.21-.04-.42-.05-.63-.05h-.14c-.01.28-.02.56-.02.85,0,1.7.57,3.29,1.58,4.73l-.29.05c-.01.31-.09.69-.25,1.46-.08.41-.2.75-.34,1.05.18.24.36.46.53.68.24-.14.44-.29.55-.42.21-.24.73-.85.97-1.13.03-.04.05-.06.08-.09,0,.01.01.02.02.02-.02.04-.04.09-.06.15h0c-.11.36-.25,1.11.05,2.39.32,1.29,1.28,2.31,1.91,2.86h0c.3.26.51.42.55.44h0s2.88,2.45,6.47,3.38c.02.01.03.01.04.02-.02-.04.42-.75.76-1.47.26-.57.96-.79,1.51-.49,1.16.62,3.07,1.24,5.08.22.67-.34,1.47.04,1.6.78.12.74.25,1.4.24,1.43.03,0,.07-.02.13-.05.67-.3,3.88-1.75,6.27-3.73.05-.04.1-.08.15-.12-.02.03-.03.04-.03.04,0,0,1.75-1.17,2.36-2.95.12-.31.4-.55.42-.87.18-1.12.6-.62.51-.82,1.02,1.15.29.12.23.02.18.19.55.42.96.64.13-.14.25-.28.38-.43-.23-.39-.44-.88-.58-1.52-.16-.77-.24-1.21-.26-1.51h-.01ZM45.89,54.43c-.46.21-1.01.4-1.61.54,0-.02.01-.04.01-.06,0-.59-1.38-1.06-3.1-1.07-1.71.02-3.09.49-3.09,1.07,0,.02,0,.04,0,.06-.6-.14-1.14-.32-1.61-.54-.26-.62-.42-1.36-.42-2.16,0-.26.02-.52.05-.77.94-.95,2.34.27,3.96.05.36-.05.73-.08,1.11-.08s.75.03,1.12.08c1.62.22,3.01-1,3.96-.05.03.25.05.5.05.77,0,.8-.16,1.54-.43,2.16"/>
    <path class="st7" d="M62.71,49.72s.74-3.17.35-6.23c-.44,1.45-1,2.96-1.7,4.52-1.08,2.62-2.65,4.86-4.2,6.63-.13.15-.25.29-.38.43-2.37,2.62-4.57,4.12-4.71,4.21.02-.02.06-.06.12-.14.48-.56,2.17-2.61,3-4.66.68-1.68,1.65-4.44,1.83-8.42.02-.43.03-.88.03-1.34,0-3.01-1.99-6.46-3.43-8.57-.49-.72-.92-1.28-1.18-1.62l-5.32-7.29-.24-.32c-7.55,2.62-9.7,8.51-10.32,11.59-.24,1.19-.25,1.96-.25,1.96,0,0-2.41-2.59-1.21-5.67-2.23.69-3.59,2.35-4.42,4.26-1.65,3.8-1.18,8.57-1.18,8.57,0,0-2.36-3.11-1.91-7.13.42-3.89,2.55-7.45,2.69-7.66-.22.26-4.88,5.93-4.88,10.52,0,.97.05,1.87.15,2.72.37,3.27,1.33,5.64,1.93,7.12.01.03.02.06.04.09.01.03.02.05.03.08h0c.86,2.16,1.8,4.78,1.96,5.24h0s.02.07.02.07c0,0-1.62-1.43-3.55-3.84-.18-.22-.35-.44-.53-.68-1.68-2.2-3.52-5.09-4.69-8.39-.72,3.46.62,7.68.69,7.89-5.94-7.23-2.85-22.35-2.85-22.35,0,0,.04.04.11.1.17-1.82.57-3.79,1.3-5.84,2.9-8.14,7.01-11.17,12.04-12.93,4.54-1.6,12.18-.15,13.61.14.02-.03.02-.05.02-.05,3.24-.1,5.7-.79,9.6,2.55,1.91,1.63,3.46,3.27,4.56,4.85,0,0,2.26,2.51,3.62,7.16.06-.06.1-.1.1-.1,0,0,4.4,14.75-.88,22.54h0Z"/>
  </g>
</svg>