<?xml version="1.0" encoding="UTF-8"?>
<svg id="Layer_2" xmlns="http://www.w3.org/2000/svg" version="1.1" xmlns:xlink="http://www.w3.org/1999/xlink" viewBox="0 0 80 80">
  <!-- Generator: Adobe Illustrator 30.2.1, SVG Export Plug-In . SVG Version: 2.1.1 Build 1)  -->
  <defs>
    <style>
      .st0 {
        fill: #452a16;
      }

      .st1 {
        fill: #b5977b;
      }

      .st2 {
        fill: #c7a784;
      }

      .st3 {
        fill: #355761;
      }

      .st4 {
        fill: #43331b;
      }

      .st5 {
        fill: #635e1f;
      }

      .st6 {
        fill: #fff;
      }

      .st7 {
        fill: #af8f76;
      }

      .st8 {
        fill: #a4876f;
      }

      .st9 {
        fill: #e9d3af;
      }

      .st10 {
        fill: none;
      }

      .st11 {
        fill: #171500;
      }

      .st12 {
        fill: #71391e;
      }

      .st13 {
        fill: #b19076;
      }

      .st14 {
        fill: #cf6810;
      }

      .st15 {
        fill: #adb529;
      }

      .st16 {
        fill: #6b6825;
      }

      .st17 {
        fill: #ceb495;
      }

      .st18 {
        fill: #d3b697;
      }

      .st19 {
        fill: #b39176;
      }

      .st20 {
        fill: #d6c09e;
      }

      .st21 {
        fill: #858328;
      }

      .st22 {
        fill: #d7be9a;
      }

      .st23 {
        fill: #e8d2ae;
      }

      .st24 {
        fill: #bc9e80;
      }

      .st25 {
        clip-path: url(#clippath);
      }

      .st26 {
        fill: #282211;
      }
    </style>
    <clipPath id="clippath">
      <rect class="st10" x="37.48" y="55.4" width="8.99" height="5.31"/>
    </clipPath>
  </defs>
  <g id="RÈteg_1">
    <path class="st3" d="M0,0h80v80H0V0Z"/>
    <path class="st14" d="M60.5,52.63c-.2-1-.29-1.57-.31-1.97h-.19c.65-1,1.14-2.06,1.46-3.16.02-.06.03-.11.04-.17.12-.44.22-.89.28-1.35,1.08-6.73-1.82-15.5-1.82-15.5.29,2.13-2.66,3.15-3.13,5.6-.37,1.94,1.82,5.37,1.41,6.78-.39,1.32-.72,2.27-.83,2.58-1.5,3.64-4.17,6.62-7.53,8.46.22-.71.36-1.52.36-2.38,0-.38-.03-.74-.08-1.1.33-.04.65-.1.95-.19.48-.1.91-.28,1.28-.56.77-.58,1.29-1.6,1.37-3.22,0,0-1.98,3.68-5.08.42,0,0-3.55-5.02-6.7-3.01-3.13-2.01-6.69,3.01-6.69,3.01-3.09,3.25-5.08-.42-5.08-.42.06,1.16.3,1.97.73,2.58l.02.02s.08.09.2.21c.11.12.28.27.53.42,0,0,0,0,.01,0,.24.14.54.29.92.39.3.1.71.13,1.22.1-.07.43-.11.88-.11,1.35,0,.86.13,1.67.36,2.38-3.36-1.84-6.03-4.82-7.53-8.46-.11-.31-.44-1.26-.83-2.58-.42-1.41.64-3.33.27-5.27-.46-2.45.33-5.77-2-7.11,0,0-2.9,8.77-1.82,15.5.06.46.16.91.28,1.35.02.06.03.12.05.18h0c.32,1.11.81,2.16,1.46,3.16h-.19c-.02.4-.11.97-.31,1.97-.52,2.74-2.08,3.46-2.08,3.46,0,0,2.41-1.05,2.99-1.76.28-.34,1.03-1.29,1.25-1.59,0,0,.02.01.02.02-.13.32-.45,1.34,0,3.3.58,2.57,2.97,4.3,2.97,4.3,0,0-.6-.86-.92-2.08-.12-.48.5-.79.8-.39.32.44.75.96,1.33,1.58,2.22,2.39,4.97,4.94,5.33,4.98-.03-.07,1.88-1.45,1.85-2.46,1.69.53,2.81,2.85,4.65,2.85.11,0,.22,0,.33,0,.11,0,.22,0,.33,0,1.84,0,3.29-2.91,4.98-3.43-.03,1.01,1.49,3.39,1.46,3.47.36-.03,3.17-3.02,5.39-5.4.58-.62,1.01-1.15,1.33-1.58.29-.4.92-.09.8.39-.31,1.22-.92,2.08-.92,2.08,0,0,2.38-1.73,2.96-4.3.44-1.96.13-2.98,0-3.3,0,0,.02-.01.02-.02.23.3.97,1.24,1.25,1.59.58.71,2.99,1.76,2.99,1.76,0,0-1.56-.72-2.08-3.46h0Z"/>
    <path class="st22" d="M41.89,49.94v30.06h-16.22c-.26-.1-.4-.16-.4-.16,0-2.11.17-3.96.46-5.58.25-1.33.57-2.53.96-3.57.86-2.34,2.01-4.01,3.19-5.22.39-.4.79-.74,1.17-1.04.65-.5,1.29-.88,1.86-1.16.3-.15.58-.27.84-.36.09-.03.17-.07.25-.09.1-.03.19-.06.28-.09.25-.08.45-.13.6-.16.2-.05.32-.06.32-.06.06,0,.11,0,.18-.02.51-.08.92-.53,1.26-1.24.25-.53.46-1.2.62-1.98.07-.31.12-.61.18-.94.08-.56.15-1.14.22-1.75.02-.37.06-.73.1-1.11.14-1.84.18-3.85.18-5.76,0,0,2.18.22,3.95.22h0Z"/>
    <path class="st23" d="M58.58,79.84s-.14.06-.38.16h-16.31v-30.06h.04c1.75,0,3.96-.22,3.96-.22,0,1.9.04,3.88.19,5.72.04.36.08.73.1,1.08.07.64.14,1.23.24,1.79h0c.03.26.08.49.12.72.16.78.35,1.47.59,2.02.29.69.65,1.16,1.08,1.36.14.06.28.09.44.09,0,0,.08.01.21.04.22.04.61.13,1.11.31.08.03.15.06.24.09.04.02.09.03.13.06.11.04.23.1.35.15.6.27,1.3.66,2.02,1.21.28.2.55.44.83.69h0c1.33,1.22,2.67,3,3.63,5.63.37,1.02.69,2.16.94,3.44.31,1.66.48,3.55.48,5.72h0Z"/>
    <g class="st25">
      <path class="st1" d="M46.47,58.25h0c-.41.64-1.78,2.46-4.5,2.46h-.03c-2.58-.01-4.08-1.88-4.46-2.43.08-.55.16-1.13.22-1.74.03-.36.07-.72.11-1.11,1.25.31,2.63.51,4.08.54h.05c1.5-.03,2.89-.24,4.18-.58.04.36.08.72.11,1.08.07.63.14,1.22.24,1.78"/>
    </g>
    <path class="st2" d="M41.76,15.68c-17.19,0-17.28,14.4-16.52,23.83-1.18-2.24-4.67-1.55-4.38,1.97.28,3.39,5.28,5.12,5.14,4.75,2.6,6.97,9.49,12.23,15.77,12.23h.13V15.68h-.13Z"/>
    <path class="st8" d="M21.95,40c.84-1.37,2.16-.78,2.48-.47.34.33.62.75.41,1.55-.12.46-.59.5-.49,1.18.13.78.49.81.7,1,.2.17.45.3.57.63.13.33.14.67.08.97-.13.55-.94.1-1.48-.13-.36-.17-1.49-1.13-1.78-1.45-.71-.81-1.06-2.39-.49-3.29"/>
    <path class="st18" d="M41.85,15.68c17.19,0,17.28,14.4,16.53,23.83,1.18-2.24,4.66-1.55,4.37,1.97-.26,3.39-5.27,5.12-5.14,4.75-2.54,6.97-9.49,12.23-15.77,12.23h-.09l-.04-42.78h.13"/>
    <path class="st8" d="M61.66,40c-.84-1.37-2.15-.78-2.48-.47-.34.33-.61.75-.41,1.55.12.46.59.5.49,1.18-.13.78-.49.81-.69,1-.2.17-.46.3-.58.63s-.14.67-.08.97c.13.55.94.1,1.48-.13.37-.17,1.49-1.13,1.78-1.45.73-.81,1.06-2.39.49-3.29"/>
    <path class="st22" d="M41.62,19.75c-5.65,0-9.8,1.64-12.29,4.88-3.5,4.54-3.37,11.45-2.09,16.42.4,1.53.61,5.62.87,7.11,1.23,6.72,8.64,10.3,13.51,10.3h.13V19.75h-.08"/>
    <path class="st23" d="M53.9,24.64c-2.48-3.22-6.58-4.87-12.15-4.89v38.72c5.57-.07,12.24-3.99,13.38-10.3.28-1.5.48-5.59.87-7.11,1.29-4.96,1.43-11.86-2.1-16.41"/>
    <path class="st10" d="M41.06,50.19c-.08-.01-.15-.03-.21-.04.07.02.14.03.21.04M40.77,51.58s-.1-.02-.13-.03c.04.01.09.02.13.03"/>
    <path class="st13" d="M40.85,51.6l-.08-.02s.05.01.08.02M40.64,51.55s-.05-.01-.07-.02.03,0,.07.02h0Z"/>
    <path class="st18" d="M38.55,46.57c-.06-1.34,2.45-.49,3.28-.45.65.03,2.65-.42,2.82-.3,1.17.79-1.24,2.39-2.86,2.39-.43,0-3.2-.83-3.24-1.64h0Z"/>
    <path class="st10" d="M26.34,31.81c-.15.51-.26,1.07-.33,1.67,0,0,.23-.94.73-2.34-.21.3-.36.54-.39.67"/>
    <path class="st4" d="M36.95,19.84l-.07.07v.02s.05-.07.07-.1h0Z"/>
    <path class="st10" d="M41.12,50.85c-.08-.01-.15-.03-.22-.04.07.02.15.03.22.04M40.82,50.79c-.05-.01-.1-.02-.13-.03.04.01.09.02.13.03"/>
    <path class="st7" d="M40.9,50.81s-.06-.01-.08-.02c.03,0,.05.01.08.02M40.68,50.76s-.05-.01-.07-.02h0s.03,0,.08.02"/>
    <path class="st6" d="M29.42,34.86s1.31,5.39,3.56,5.83,4.69-.44,4.69-.44c0,0,.23-6.34-.92-7.16-1.15-.83-3.81-2.03-7.33,1.77h0Z"/>
    <path class="st17" d="M37.68,40.23s-.05.02-.17.06c-.03-1.94-.21-4.61-.93-5.13-1.07-.78-3.49-1.89-6.72,1.13-.29-.84-.44-1.47-.44-1.47,3.53-3.81,6.19-2.61,7.33-1.78,1.15.83.92,7.17.92,7.17"/>
    <ellipse class="st0" cx="34.13" cy="37.49" rx="2.22" ry="2.22"/>
    <path class="st12" d="M34.02,38.97c-.64-.05-1.13-.7-1.07-1.41.06-.71.65-1.27,1.29-1.21.64.05,1.13.7,1.07,1.41-.06.71-.65,1.27-1.29,1.21h0Z"/>
    <path class="st26" d="M34.08,38.71c-.45-.04-.91-.53-.86-1.13.05-.61.59-1.01,1.03-.98s.91.53.86,1.13-.59,1.01-1.03.97h0Z"/>
    <path class="st6" d="M33.72,37.22c-.02.22-.24.38-.5.36-.26-.02-.45-.22-.43-.43.02-.22.24-.38.5-.36s.45.22.43.44M35.15,38.48c-.01.11-.12.19-.25.18s-.22-.11-.22-.22c0-.11.12-.19.25-.18s.23.11.22.22"/>
    <path class="st10" d="M41.15,51.49c-.08-.01-.15-.03-.22-.04.07.02.15.03.22.04M40.85,51.43c-.05-.01-.1-.02-.13-.03.04.01.09.02.13.03"/>
    <path class="st7" d="M40.93,51.45s-.06-.01-.08-.02c.03,0,.05.01.08.02M40.72,51.4s-.05-.01-.07-.02h0s.03,0,.08.02"/>
    <path class="st10" d="M41.07,51.34c-.09-.02-.17-.03-.23-.05.08.02.15.03.23.05M40.74,51.28c-.05-.01-.11-.02-.14-.03.05.01.09.02.14.03"/>
    <path class="st13" d="M40.83,51.29s-.06-.01-.09-.02c.03,0,.06.01.09.02M40.6,51.24s-.05-.02-.08-.02h0s.03.01.08.02"/>
    <path class="st10" d="M41,51.12c-.09-.02-.17-.03-.24-.05.08.02.16.03.24.05M40.68,51.05c-.05-.01-.11-.02-.14-.03.05.01.09.02.14.03"/>
    <path class="st13" d="M40.77,51.07s-.06-.01-.09-.02c.03,0,.06.01.09.02M40.53,51.02s-.05-.02-.08-.02h0s.03.01.08.02"/>
    <path class="st10" d="M41.2,51.08c-.08-.01-.16-.03-.23-.04.08.02.15.03.23.04M40.88,51.02c-.05-.01-.1-.02-.14-.03l.14.03Z"/>
    <path class="st13" d="M40.97,51.04s-.06-.01-.09-.02c.03,0,.05.01.09.02M40.75,50.99s-.05-.01-.08-.02h0s.03,0,.08.02"/>
    <path class="st6" d="M54.22,34.67s-1.31,5.39-3.56,5.83c-2.25.44-4.69-.44-4.69-.44,0,0-.23-6.34.92-7.16,1.15-.83,3.81-2.03,7.33,1.77"/>
    <path class="st17" d="M45.96,40.05s.05.02.17.06c.03-1.94.21-4.61.93-5.13,1.07-.78,3.49-1.89,6.72,1.13.29-.84.44-1.47.44-1.47-3.53-3.81-6.19-2.61-7.33-1.78-1.15.83-.92,7.17-.92,7.17"/>
    <path class="st0" d="M47.3,37.31c0,1.23.99,2.22,2.22,2.22s2.22-.99,2.22-2.22-.99-2.22-2.22-2.22-2.22.99-2.22,2.22"/>
    <path class="st12" d="M49.62,38.79c.64-.05,1.13-.7,1.07-1.41s-.65-1.27-1.29-1.21c-.64.05-1.13.7-1.07,1.41.06.71.65,1.27,1.29,1.21h0Z"/>
    <path class="st26" d="M49.56,38.53c.45-.04.91-.53.86-1.13-.05-.61-.59-1.01-1.03-.98s-.91.53-.86,1.13.59,1.01,1.03.97h0Z"/>
    <path class="st6" d="M49.93,37.04c.02.22.24.38.5.36s.45-.22.43-.43c-.02-.22-.24-.38-.5-.36s-.45.22-.43.44M48.49,38.3c.01.11.12.19.25.18s.22-.11.22-.22c0-.11-.12-.19-.25-.18s-.23.11-.22.22"/>
    <path class="st10" d="M40.77,52.13c-.08-.01-.16-.03-.23-.04.08.02.15.03.23.04M40.46,52.07c-.05-.01-.1-.02-.14-.03.05.01.09.02.14.03"/>
    <path class="st19" d="M40.54,52.09s-.06-.01-.09-.02c.03,0,.05.01.09.02M40.32,52.04s-.05-.01-.08-.02h0s.03,0,.08.02"/>
    <path class="st9" d="M38.58,53.2c-.06-.87,2.41.18,3.22.21.65.02,2.59-.13,2.78-.2,1.36-.51-.07,1.45-2.82,1.55-1.26.05-3.15-1.04-3.18-1.56h0Z"/>
    <path class="st20" d="M46.63,51.53c-.67-.03-1.36.53-2.17.44-.03-.02-.05-.02-.08-.02-.18-.03-.37,0-.57.05-.25.05-.51.15-.74.24-.4.13-.86.24-1.33.2s-.02,0-.03,0-.02,0-.03,0c-.47.03-.92-.07-1.33-.2-.24-.08-.49-.18-.74-.24-.2-.05-.38-.08-.57-.05-.03,0-.05,0-.08.02-.81.09-1.5-.48-2.17-.44-.19.02-.45-.03-.61-.03.03.02.07.03.1.05,1.92.93,3.57,2.69,5.4,2.63h.05c1.83.06,3.48-1.7,5.4-2.63.03-.02.07-.03.1-.05-.15,0-.42.05-.61.03"/>
    <path class="st24" d="M47.19,51.47s-1.95-.75-3.33-.31c0,0-.52.2-1.05.32-.33.13-.72.16-1.1.15-.29-.01-.57-.05-.8-.09-.07-.01-.15-.03-.23-.04-.03,0-.06-.01-.09-.02-.05-.01-.09-.02-.14-.03-.05-.01-.08-.02-.08-.02h0c-.44-.12-.82-.27-.82-.27-1.38-.44-3.33.31-3.33.31l-.04.02c.15,0,.42.05.61.03.67-.03,1.36.53,2.17.44.03-.02.05-.02.08-.02.18-.03.37,0,.57.05.25.05.51.15.74.24.4.13.86.24,1.33.2s.02,0,.03,0,.02,0,.03,0c.47.03.92-.07,1.33-.2.24-.08.49-.18.74-.24.2-.05.38-.08.57-.05.03,0,.05,0,.08.02.81.09,1.5-.48,2.17-.44.18.02.45-.03.61-.03l-.04-.02h0Z"/>
    <path class="st24" d="M38.44,51.93s3.65,1.11,6.48.02l-.33-.22h-3.82l-2.33.19Z"/>
    <path class="st21" d="M37.01,65.45l-6.54,2.47c.25-.98.45-2.12.58-3.5.65-.5,1.29-.88,1.86-1.16.3-.15.58-.27.83-.36.09-.03.17-.07.26-.09.1-.03.18-.06.28-.09.25-.08.45-.13.6-.16.6.86,1.34,1.89,2.14,2.89h0ZM53.23,67.7l-6.6-2.19c.84-1.03,1.62-2.1,2.23-2.97.22.04.61.13,1.1.31.08.03.16.06.24.09.04.02.09.03.14.06.11.04.23.1.35.15.61.27,1.3.66,2.03,1.21.11,1.31.3,2.39.52,3.34h0Z"/>
    <path class="st15" d="M54.7,71.78h-25.64c.48-1.08,1-2.25,1.41-3.85l6.54-2.47c1.68,2.12,3.58,4.12,4.79,4.13h0s.04,0,.08,0c1.22-.08,3.08-2.02,4.74-4.07l6.6,2.19c.41,1.71.96,2.94,1.47,4.08M27.43,80h28.89c-.07-1.09-.17-2.63-.27-3.65h-28.36c-.1,1.01-.2,2.55-.27,3.65h0Z"/>
    <path class="st16" d="M54.7,71.78h-25.65c-.59,1.33-1.13,2.53-1.32,4.23-.01.11-.02.22-.04.35h28.36c-.01-.12-.02-.24-.04-.35-.19-1.7-.72-2.9-1.32-4.23"/>
    <path class="st11" d="M39.02,35.32s-.42-.65-1.26-1.29c-.52-.4-1.04-.71-1.57-.94-.65-.27-1.34-.46-2.02-.56-.61-.07-1.29-.05-2.08.06-.6.11-1.19.29-1.69.52-.36.12-.64.3-.86.43-.09.05-.17.1-.24.14l-1.08.68,1.24-.29c.06-.01.12-.03.19-.05.26-.07.57-.15.95-.21.09-.01.18-.03.27-.05.15-.03.32-.06.49-.07.19-.01.38-.03.58-.04l.26-.02c.69,0,1.27.04,1.78.16.56.1,1.14.28,1.67.53.5.24.98.48,1.36.76.76.51,1.18.93,1.18.93.1.1.24.16.38.16.1,0,.2-.03.29-.09.25-.16.32-.5.16-.74v-.02s0,0,0,0ZM54.44,33.68c-.07-.04-.15-.09-.24-.14-.22-.14-.51-.31-.85-.43-.51-.22-1.1-.4-1.71-.52-.78-.1-1.46-.12-2.07-.06-.67.09-1.37.29-2.01.56-.52.22-1.05.54-1.57.94-.82.63-1.23,1.24-1.26,1.29h0c-.14.22-.11.51.07.69.1.1.24.16.38.16s.28-.06.38-.16h0s.45-.45,1.18-.94c.37-.27.85-.51,1.35-.75.53-.25,1.11-.43,1.68-.53.51-.12,1.09-.17,1.77-.16l.27.02c.2.01.39.03.58.04.17,0,.33.04.48.07.09.02.18.03.27.05.37.06.69.14.95.21.07.02.13.03.19.05l1.24.29-1.08-.68h0Z"/>
    <path class="st14" d="M24.99,39.13l2.45,3s-1.53-5.22,1.61-6.86l-4.25-2.12.19,5.98ZM58.77,38.98l-2.45,3s1.53-5.22-1.61-6.86l4.25-2.12-.19,5.98Z"/>
    <path class="st21" d="M18.35,25.79c.02,3.37,10.54,12.8,23.48,12.74s23.89-8.03,23.87-11.41c-.02-3.37-10.99-7.45-23.94-7.39-12.94.06-23.44,2.69-23.42,6.05h0Z"/>
    <path class="st15" d="M55.42,5.59v1.23s0,.62,0,.62l.09,18.96c0,1.87-1.3,3.49-3.13,3.88-4.14.89-11.98,1.95-21.21.05-1.82-.38-3.12-1.99-3.13-3.85l-.09-18.71v-2.05c15.56,2.64,27.46-.13,27.46-.13h0Z"/>
    <path class="st5" d="M27.94,5.72c0,1.23,6.16,2.2,13.75,2.16,7.58-.03,13.73-1.06,13.73-2.29,0-1.23-6.16-2.2-13.75-2.17-7.59.03-13.73,1.06-13.73,2.3h0ZM55.5,22.69s-9.83,4.63-27.47.3v2.36s12.02,4.23,27.48-.13v-2.53s-.01,0-.01,0Z"/>
    <path class="st21" d="M39.78,11.44l1.86,2.95s.02.03.03.04c.18.26.48.42.8.42s.62-.15.8-.42c.02-.02.03-.05.05-.07l1.07-1.7.74-1.17.05-.08.02-.04s.01-.01.01-.02c.1-.14.15-.33.15-.51,0-.53-.44-.97-.97-.97h-3.83c-.53,0-.97.44-.97.97,0,.27.14.51.2.59h0ZM39.58,21.57c0,.53.43.97.97.97h3.83c.54,0,.97-.44.97-.97,0-.18-.05-.37-.15-.51,0,0,0-.01-.01-.02s-.02-.04-.02-.04l-.05-.08-.74-1.17-1.07-1.7s-.03-.05-.05-.07c-.18-.26-.48-.42-.8-.42s-.62.16-.8.42c-.01.02-.02.03-.03.05l-1.86,2.95c-.05.08-.2.33-.2.59M37.69,18.89l2.96-1.86s.03-.02.04-.03c.26-.18.42-.48.42-.8s-.15-.62-.42-.8c-.02-.02-.05-.03-.07-.05l-1.7-1.07-1.18-.74-.08-.05-.04-.02s-.01,0-.02-.01c-.14-.1-.33-.15-.51-.15-.53,0-.97.44-.97.97v3.83c0,.53.44.97.97.97.27,0,.51-.14.59-.2h0ZM47.83,19.09c.53,0,.97-.43.97-.97v-3.83c0-.54-.44-.97-.97-.97-.18,0-.37.05-.51.15,0,0-.01,0-.02.01s-.04.02-.04.02l-.08.05-1.18.74-1.7,1.07s-.05.03-.07.05c-.26.18-.42.48-.42.8s.16.62.42.8c.02.01.03.02.05.03l2.96,1.86c.08.05.33.2.59.2h0Z"/>
  </g>
</svg>