<?xml version="1.0" encoding="UTF-8"?>
<svg id="Layer_2" xmlns="http://www.w3.org/2000/svg" version="1.1" xmlns:xlink="http://www.w3.org/1999/xlink" viewBox="0 0 80 80">
  <!-- Generator: Adobe Illustrator 30.2.1, SVG Export Plug-In . SVG Version: 2.1.1 Build 1)  -->
  <defs>
    <style>
      .st0 {
        fill: #434039;
      }

      .st1 {
        fill: #212625;
      }

      .st2 {
        fill: #f1d4c8;
      }

      .st3 {
        fill: #24241d;
        opacity: .51;
      }

      .st3, .st4, .st5 {
        isolation: isolate;
      }

      .st6 {
        fill: #c38589;
      }

      .st7 {
        fill: #fff;
      }

      .st8 {
        fill: url(#linear-gradient1);
      }

      .st9 {
        fill: none;
      }

      .st10 {
        fill: #b59376;
      }

      .st11 {
        fill: #d0665f;
      }

      .st12 {
        fill: #c6a095;
      }

      .st13 {
        fill: #753915;
      }

      .st4 {
        fill: #502c24;
        opacity: .2;
      }

      .st14 {
        fill: #debaad;
      }

      .st15 {
        fill: #f0d4c7;
      }

      .st16 {
        fill: #dcb9ac;
      }

      .st5 {
        fill: #48443b;
        opacity: .3;
      }

      .st17 {
        fill: #4f6771;
      }

      .st18 {
        fill: url(#linear-gradient);
      }

      .st19 {
        fill: #49443b;
      }
    </style>
    <linearGradient id="linear-gradient" x1="36.04" y1="230.04" x2="36.04" y2="233.67" gradientTransform="translate(14.71 -196.82) rotate(4.72)" gradientUnits="userSpaceOnUse">
      <stop offset="0" stop-color="#29383e"/>
      <stop offset=".12" stop-color="#3d5059"/>
      <stop offset=".29" stop-color="#586f7d"/>
      <stop offset=".47" stop-color="#6d8799"/>
      <stop offset=".65" stop-color="#7c99ad"/>
      <stop offset=".82" stop-color="#85a3b9"/>
      <stop offset="1" stop-color="#89a7be"/>
    </linearGradient>
    <linearGradient id="linear-gradient1" x1="-2075.87" y1="404.42" x2="-2075.87" y2="407.99" gradientTransform="translate(-2054.13 -196.82) rotate(175.28) scale(1 -1)" gradientUnits="userSpaceOnUse">
      <stop offset="0" stop-color="#29383e"/>
      <stop offset=".12" stop-color="#3d5059"/>
      <stop offset=".29" stop-color="#586f7d"/>
      <stop offset=".47" stop-color="#6d8799"/>
      <stop offset=".65" stop-color="#7c99ad"/>
      <stop offset=".82" stop-color="#85a3b9"/>
      <stop offset="1" stop-color="#89a7be"/>
    </linearGradient>
  </defs>
  <g id="Layer_1-2">
    <path class="st6" d="M0,0h80v79.96H0V0Z"/>
    <path class="st2" d="M27.51,38.98c-.02-2.26-1.44-4.24-3.57-5.37.04.56.08,1.12.13,1.65-1.34-2.47-5.21-1.67-4.87,2.25.34,3.78,5.85,5.69,5.77,5.25.06.3.12.6.2.88,1.45-1.19,2.35-2.84,2.33-4.66"/>
    <path class="st14" d="M20.42,35.84c.93-1.52,2.4-.88,2.77-.55.39.35.69.83.46,1.73-.12.51-.66.55-.52,1.32.15.86.55.91.77,1.11s.51.33.66.71c.14.36.16.75.09,1.07-.14.62-1.05.14-1.65-.13-.4-.18-1.67-1.24-2-1.59-.81-.9-1.2-2.65-.58-3.66"/>
    <path class="st15" d="M65.72,79.96H14.01c0-.19.01-.39.01-.57,0,0,.11-6.25.41-6.79.55-2.18-.43-3.17,3.41-5.27.05-.01.89-.24,2.14-.61,2.62-.75,7.05-2.05,9.36-2.95h.03c.52-.23.94-.42,1.19-.57,0,0,.01,0,.01,0,.06-.04.1-.06.13-.1.01,0,.06-.05.09-.09.02-.04.08-.06.1-.1.08-.36,1.14-1.92,1.53-3.63,0-.03.03-.04.04-.06.09-.35.13-.69.15-1.03,0-.56.04-1.12.04-1.61,0-.28.02-.55.02-.79,0-.1,0-.2,0-.29,0-.1,0-.19,0-.28v-.08c0-.23,0-.43,0-.57,0-.15,0-.24,0-.24,0,0-5.91-4.41-5.91-5.36,0,0,6.19.94,10.2,1.39.08,0,.15,0,.23.03.27.03.52.06.75.09,0,0,.05,0,.13,0,.35.03.66.05.94.08.18,0,.34.03.49.03.11.03.22.03.33,0,.06,0,.13,0,.19,0,.15,0,.34,0,.56-.03,0,0,.02,0,.04,0,.47-.02,1.04-.09,1.69-.16.05,0,.1,0,.15,0h0c4-.43,10.4-1.41,10.4-1.41,0,.95-5.89,5.36-5.89,5.36,0,0,0,.09,0,.24,0,.08,0,.17,0,.27,0,.03,0,.04,0,.06v.27c0,.18,0,.39,0,.61.03.67.05,1.52.08,2.39,0,.18,0,.34.04.52.02.16.06.33.1.52,0,0,0,0,0,0,0,0,0,.03,0,.03.38,1.73,1.46,3.31,1.55,3.67,0,0,0,.02,0,.04.02.03.05.04.08.06.03.04.08.08.08.09.09.07.22.15.41.24.06.02.1.05.17.08h0c1.88.89,7.14,2.44,10.15,3.32,1.26.36,2.08.6,2.13.61,3.85,2.1,2.86,3.1,3.41,5.27.29.55.4,6.79.4,6.79,0,.18,0,.38.01.57v-.03h.02Z"/>
    <path class="st12" d="M47.31,59.19c-.09-.34-.13-.69-.15-1.03-.04-1.17.16-2.73.15-3.45-2.22.87-4.75,1.81-6.98,1.81-.13.02-.3.02-.46.02s-.32,0-.46-.02c-2.23,0-4.52-.51-6.74-1.38,0,.73-.04,1.84-.08,3.01-.02.34-.06.69-.15,1.03,2.15,1.57,5.05,3.18,6.98,3.18.12.02.27.02.41.02h.1c.14,0,.28,0,.41-.03,1.93,0,4.84-1.62,6.98-3.18h0v.02Z"/>
    <path class="st15" d="M56.33,31.85c0,.12,0,.25-.02.4-.02.14-.04.3-.05.46-.02.2-.03.41-.07.6,0,.09-.02.2-.04.3-.03.24-.08.46-.12.7,0,.09-.04.19-.05.28-.05.2-.08.41-.14.61-.02.12-.06.25-.08.41-.03.11-.06.24-.09.34-.15.57-1.26,7.17-2.19,11.52-.39,1.81-.9,3.31-1.05,3.7-.87,2.2-6.58,6.27-10.26,7.99,0,0-.04,0-.05.02-1.04.51-1.93.79-2.46.79h-.07c-.59,0-1.44-.27-2.41-.72-.05-.04-.11-.06-.17-.08-3.78-1.7-9.43-5.8-10.3-8.01-.17-.42-.52-2.03-.91-4.03-.86-4.35-1.99-10.65-2.14-11.18-.03-.11-.06-.24-.09-.34-.02-.15-.06-.28-.08-.41-.06-.2-.09-.41-.14-.61-.01-.1-.04-.19-.05-.28-.04-.24-.08-.46-.12-.7-.01-.09-.02-.2-.03-.3-.04-.19-.05-.4-.07-.6-.01-.15-.02-.31-.05-.46-.01-.14-.01-.27-.02-.4-.15-3.14.52-6.33,2.57-9.21,2.47-3.48,5.32-7.17,11.51-7.67h5.22c6.19.51,9.04,4.2,11.51,7.67,2.05,2.88,2.72,6.06,2.57,9.21h-.06Z"/>
    <path class="st16" d="M36.89,46.52c-.06-1.22,2.22-.45,2.98-.41.6.03,2.4-.39,2.57-.27,1.06.72-1.13,2.17-2.6,2.17-.4,0-2.91-.75-2.94-1.49,0,0,0,0-.01,0Z"/>
    <path class="st19" d="M36.08,33.4s-.48-.53-1.24-1.09c-.38-.28-.83-.58-1.32-.81-.24-.13-.51-.22-.77-.31-.26-.12-.54-.15-.8-.22-.27-.07-.55-.07-.81-.11h-.8c-.26.03-.51.06-.75.09s-.47.11-.67.14c-.43.07-.77.22-1.01.29-.25.07-.4.11-.4.11,0,0,.12-.11.34-.3.22-.18.54-.49.96-.69.21-.11.44-.26.68-.34.25-.08.52-.18.79-.24.27-.03.57-.09.86-.09.29.03.6.02.89.09.29.08.6.14.88.28.29.1.56.27.82.44.26.15.5.38.72.56.21.21.43.41.59.63.71.83,1.01,1.62,1.01,1.62v-.03l.03-.02Z"/>
    <path class="st7" d="M27.15,35.97s1.4,2.79,3.54,3.07,4.42-.09,4.42-.09c0,0,.03-3.22-1.09-3.68s-3.66-1.15-6.89.7h.02Z"/>
    <path class="st18" d="M33.3,36.89c-.09.98-.93,1.72-1.88,1.65s-1.64-.92-1.55-1.9c.09-.98.93-1.72,1.88-1.65.94.07,1.64.92,1.55,1.91h0Z"/>
    <path class="st17" d="M31.48,37.99c-.51-.04-.88-.57-.83-1.16s.53-1.05,1.03-1.01.88.57.83,1.16-.53,1.05-1.03,1.01"/>
    <path class="st1" d="M31.52,37.77c-.35-.03-.71-.43-.67-.92.05-.5.48-.84.82-.81.35.03.71.43.67.92-.05.5-.48.84-.83.81h.01Z"/>
    <path class="st5" d="M35.12,38.95s-.05,0-.15.02c-.08-.99-.33-2.35-1.03-2.64-1.03-.43-3.36-1.06-6.32.39-.3-.44-.46-.76-.46-.76,3.23-1.85,5.78-1.16,6.88-.7,1.12.46,1.09,3.68,1.09,3.68h-.01Z"/>
    <path class="st9" d="M27.15,35.98s1.4,2.79,3.54,3.07,4.42-.09,4.42-.09c0,0,.03-3.22-1.09-3.68s-3.66-1.15-6.89.7h.02Z"/>
    <path class="st16" d="M26.93,36.02c.55-.4,1.16-.7,1.78-.94.31-.11.64-.23.97-.3.16-.05.33-.07.5-.11s.33-.06.51-.08c.33-.05.68-.06,1.02-.07.17,0,.34.02.52.02s.34.02.51.05c.34.04.67.11,1,.21.33.08.64.23.95.35h.02v.02c.32.35.64.72.87,1.13-.3-.35-.66-.67-1-.98l.03.02c-.32-.09-.63-.21-.95-.26-.32-.07-.64-.13-.97-.16-.32-.05-.65-.04-.98-.05-.32.02-.66,0-.98.06-.65.07-1.3.2-1.94.39-.63.19-1.26.43-1.87.71h.01Z"/>
    <path class="st7" d="M31.26,36.55c-.02.18-.19.31-.4.29-.2,0-.35-.17-.33-.35s.19-.31.4-.29.35.17.33.35M32.38,37.57c0,.09-.09.15-.19.15s-.17-.09-.17-.17c0-.09.1-.15.2-.15s.17.08.17.17h-.01Z"/>
    <path class="st19" d="M43.38,33.19s.3-.74,1.02-1.51c.17-.2.38-.39.6-.58.22-.16.46-.38.72-.52.26-.15.53-.31.82-.41.28-.13.58-.18.88-.25.29-.06.6-.05.89-.08.29,0,.59.06.86.09.27.06.54.15.79.23.25.07.48.21.68.31.43.19.74.48.96.64.22.18.34.28.34.28,0,0-.14-.04-.4-.1s-.59-.2-1.01-.26c-.21-.03-.44-.11-.67-.13-.23-.03-.49-.05-.75-.08h-.79c-.26.04-.55.04-.81.1-.27.06-.55.09-.8.2-.26.08-.52.17-.77.29-.5.22-.94.49-1.32.75-.76.53-1.24,1.01-1.24,1.01h-.02l.02.02Z"/>
    <path class="st7" d="M52.33,36.14s-1.36,2.73-3.49,2.98c-2.14.25-4.42-.15-4.42-.15,0,0-.08-3.18,1.02-3.62s3.64-1.07,6.9.79h0Z"/>
    <path class="st9" d="M52.33,36.14s-1.36,2.73-3.49,2.98c-2.14.25-4.42-.15-4.42-.15,0,0-.08-3.18,1.02-3.62s3.64-1.07,6.9.79h0Z"/>
    <path class="st8" d="M46.37,36.86c.09.97.93,1.69,1.88,1.63.94-.07,1.64-.91,1.55-1.88s-.93-1.7-1.88-1.63-1.64.91-1.55,1.88"/>
    <path class="st17" d="M48.18,37.94c.51-.04.88-.56.83-1.14s-.53-1.03-1.03-1-.88.56-.83,1.14.53,1.04,1.03,1"/>
    <path class="st1" d="M48.13,37.73c.35-.03.71-.42.67-.91-.05-.49-.48-.83-.82-.8-.35.02-.71.42-.67.91.05.49.48.83.83.8h-.01Z"/>
    <path class="st5" d="M44.41,38.96s.05,0,.15.03c.07-.98.29-2.32.98-2.59,1.02-.41,3.34-1,6.33.48.29-.43.45-.74.45-.74-3.26-1.87-5.8-1.23-6.9-.8-1.11.44-1.02,3.62-1.02,3.62,0,0,0,0,0,0Z"/>
    <path class="st16" d="M52.32,36.23c-.61-.28-1.23-.52-1.87-.71-.64-.18-1.29-.3-1.94-.38-.32-.04-.65-.04-.98-.06-.32,0-.66,0-.98.05-.32.02-.65.09-.97.16-.32.05-.63.17-.95.26l.03-.02c-.34.31-.7.62-1,.96.24-.41.55-.76.86-1.12h0l.02-.02c.31-.11.63-.26.95-.34.32-.1.66-.17,1-.21.17-.03.33-.05.51-.05s.34-.02.51-.02c.34,0,.68.02,1.02.07.17.02.33.04.51.08.16.04.33.06.5.11.33.08.65.19.97.3.63.23,1.25.54,1.8.93h0,0Z"/>
    <path class="st7" d="M47.79,36.53c-.02.17-.19.3-.4.29-.2-.02-.35-.17-.33-.34s.19-.3.4-.29.35.17.33.34M48.9,37.53c0,.09-.1.15-.2.14-.1,0-.17-.08-.17-.17,0-.08.1-.15.2-.14.1,0,.17.08.17.17"/>
    <path class="st16" d="M43.76,52.32c-.57-.03-1.15-.15-1.84-.22-.03,0-.04,0-.07,0-.15-.03-.31,0-.49.04-.21.04-.43.13-.63.2-.34.11-.73.2-1.13.17s0,0-.02,0h-.02c-.4.03-.78-.06-1.13-.17-.2-.07-.42-.15-.63-.2-.17-.04-.32-.07-.49-.04-.03,0-.04,0-.07,0-.68.07-1.27.2-1.84.22-.15,0-.39-.03-.51-.03.03,0,.06.03.08.04,1.62.79,3.01,1.66,4.56,1.62h.04c1.54.05,2.94-.83,4.56-1.62.03,0,.06-.03.08-.04-.13,0-.35.04-.52.03h.07Z"/>
    <path class="st9" d="M38.94,51.75c-.07,0-.13-.02-.19-.04.06,0,.13.03.19.04M38.67,51.69s-.09-.02-.12-.03c.04,0,.08.02.12.03"/>
    <path class="st4" d="M44.24,52.28s-1.64-1.24-2.82-.86c0,0-.44.17-.88.27-.27.11-.61.14-.93.12-.24,0-.48-.04-.67-.07-.06,0-.13-.02-.19-.04-.03,0-.05,0-.07-.02-.04,0-.08-.02-.12-.03s-.07-.02-.07-.02c-.38-.1-.7-.22-.7-.22-1.17-.38-2.82.86-2.82.86l-.04.02c.13,0,.35.04.51.03.57-.03,1.15-.15,1.84-.22.03,0,.04,0,.07,0,.15-.03.31,0,.49.04.21.04.43.13.63.2.34.11.73.2,1.13.17s0,0,.02,0h.02c.4.03.78-.06,1.13-.17.2-.07.42-.15.63-.2.17-.04.32-.07.49-.04.03,0,.04,0,.07,0,.68.07,1.27.2,1.84.22.15,0,.39-.03.52-.03,0,0,0,0-.04-.02h-.04Z"/>
    <path class="st10" d="M38.74,51.7s-.05,0-.07-.02c.02,0,.04,0,.07.02M38.55,51.66s-.04,0-.06-.02.02,0,.07.02h0Z"/>
    <path class="st11" d="M65.71,79.4s-.05-3.14-.19-5.17c-.06-.83-.12-1.47-.21-1.63-.45-1.76.13-2.76-1.73-4.22-.42-.32-.96-.67-1.66-1.06-.05,0-.88-.23-2.13-.61-1.08-.31-2.44-.71-3.84-1.13-.49-.15-.98-.31-1.47-.47-.25,1.15-.67,2.23-1.19,3.26-2.44,4.78-7.62,8.07-13.63,8.07s-11.19-3.31-13.63-8.07c-.51-.98-.9-2.03-1.16-3.12-.32.1-.65.2-.96.29-1.45.44-2.85.85-3.94,1.16-1.24.38-2.08.61-2.14.61-.7.39-1.24.73-1.65,1.06-1.87,1.45-1.31,2.44-1.74,4.22-.08.16-.15.81-.2,1.63-.13,2.03-.19,5.17-.19,5.17,0,.18-.01.38-.01.56h51.72c-.01-.18-.01-.38-.01-.56h-.04Z"/>
    <path class="st13" d="M53.24,64.73c-1.51-.5-2.84-.94-3.61-1.32h0c-.06-.03-.1-.05-.17-.08-.1-.05-.17-.1-.24-.14-.24,1.99-1.08,3.77-2.3,5.2-1.72,1.99-4.23,3.25-7.03,3.25s-5.3-1.26-7.03-3.25c-1.23-1.43-2.06-3.22-2.3-5.21,0,0-.01,0-.01.03-.24.15-.67.32-1.19.56h-.03c-.74.29-1.68.62-2.73.97-.56.17-1.14.35-1.72.54.25,1.09.65,2.14,1.16,3.12,2.44,4.78,7.62,8.07,13.63,8.07s11.19-3.31,13.63-8.07c.53-1.02.94-2.12,1.19-3.26-.42-.13-.82-.26-1.22-.4h-.02Z"/>
    <path class="st9" d="M26.08,46.14c0,.29.02.6.06.91.01,0,.02.03.04.04-.04-.38-.07-.71-.09-1.03v.08s-.01,0-.01,0Z"/>
    <path class="st2" d="M51.95,38.98c.02-2.26,1.44-4.24,3.57-5.37-.04.56-.08,1.12-.13,1.65,1.34-2.47,5.21-1.67,4.87,2.25-.34,3.78-5.85,5.69-5.77,5.25-.06.3-.12.6-.2.88-1.45-1.19-2.35-2.84-2.33-4.66"/>
    <path class="st14" d="M59.04,35.84c-.93-1.52-2.4-.88-2.77-.55-.39.35-.69.83-.46,1.73.12.51.66.55.52,1.32-.15.86-.55.91-.77,1.11s-.51.33-.66.71c-.14.36-.16.75-.09,1.07.14.62,1.05.14,1.65-.13.4-.18,1.67-1.24,2-1.59.81-.9,1.2-2.65.58-3.66"/>
    <path class="st3" d="M29.42,44.43c-3.36,0-5.97-3.13-5.97-7.11,0-3.62,2.11-5.37,6.48-5.37,4.05,0,8,.29,8,3.89,0,3.97-5.15,8.59-8.51,8.59M49.38,44.43c-3.36,0-8.51-4.61-8.51-8.59,0-3.59,3.97-3.89,8.01-3.89,4.36,0,6.48,1.75,6.48,5.37,0,3.97-2.63,7.11-5.98,7.11"/>
    <path class="st7" d="M48.88,31.73c-2.25,0-4.91.05-6.58,1.06-3.4.95-5.76,0-5.78,0-1.67-1.01-4.33-1.07-6.59-1.07-4.22,0-6.71,1.6-6.71,5.61s2.62,7.34,6.22,7.34c3.19,0,7.59-3.79,8.54-7.43.12-.47.19-.92.19-1.38v-.04c.22-.61.63-.87,1.24-.87s1.03.25,1.26.9h0c0,.45.06.89.18,1.35v.05h0c.95,3.64,5.33,7.43,8.53,7.43,3.61,0,6.22-3.35,6.22-7.34s-2.48-5.61-6.71-5.61M29.43,44.43c-3.36,0-5.98-3.13-5.98-7.11,0-3.62,2.12-5.37,6.48-5.37,4.06,0,8,.29,8,3.89,0,.35-.04.71-.12,1.07-.03.1-.06.19-.07.27-.94,3.6-5.33,7.23-8.32,7.23h.01v.02ZM39.4,34.36c-.8,0-1.16.23-1.3.73-.14-.81-.51-1.42-1.04-1.89,1.9.56,4.03.15,4.7,0-.56.5-.94,1.17-1.06,2.06-.14-.52-.46-.9-1.3-.9h0,0ZM49.38,44.43c-3.36,0-8.5-4.61-8.5-8.59,0-3.59,3.96-3.89,8-3.89,4.36,0,6.48,1.75,6.48,5.37,0,3.97-2.63,7.11-5.98,7.11"/>
    <path class="st7" d="M49.38,44.91c-3.24,0-7.66-3.78-8.72-7.43h-.06v-.26c-.12-.46-.19-.92-.19-1.35-.17-.48-.48-.68-.99-.68s-.8.19-.97.66c0,.47-.07.92-.19,1.4v.22h-.06c-1.08,3.65-5.5,7.44-8.74,7.44-3.63,0-6.48-3.34-6.48-7.59,0-3.89,2.34-5.86,6.98-5.86,2.48,0,5.04.08,6.72,1.11.05.02,2.32.87,5.55-.02,1.67-1,4.22-1.08,6.68-1.08,4.62,0,6.98,1.98,6.98,5.86,0,4.26-2.85,7.59-6.48,7.59h-.03ZM48.88,32.22c-3.91,0-7.75.28-7.75,3.63,0,3.86,4.99,8.32,8.24,8.32s5.73-3,5.73-6.84c0-3.49-1.98-5.11-6.23-5.11h0ZM29.93,32.22c-4.25,0-6.23,1.62-6.23,5.11,0,3.83,2.52,6.84,5.73,6.84,2.96,0,7.18-3.68,8.06-7.04,0-.05.02-.16.07-.29.07-.32.1-.67.1-.98,0-3.35-3.82-3.63-7.75-3.63h.02ZM39.4,34.62c-.66,0-.88.17-.99.38.25-.2.59-.31.99-.31.3,0,.57.05.78.17-.15-.14-.4-.23-.78-.23M39.4,34.1c.53,0,.92.14,1.2.43.11-.33.26-.65.46-.93-.81.13-2.04.23-3.27.03.17.24.3.52.41.81.32-.28.79-.33,1.2-.33h0,0Z"/>
    <path class="st0" d="M66.06,38.8c.05-.91-2.91-.9-1.69-3.09,1.11-1.99.9-1.42-.8-3.77-1.7-2.36.05-1.39.13-2.43s-.13-1.55.02-2.78c.14-1.23.76-.93.29-1.41-.46-.48-1.9-1.73-2.84-1.91-.93-.18-.38-.49-.46-1.43s.07-1.13.92-1.99c.84-.85.11-1.65-.86-1.31s-2.17,1.15-2.52,1-.25-1.97-.54-2.37-.69-.28-.99-.95.07-1.22.5-2.04c.44-.81,1.16-1.23.81-2.32s-2.38.56-4.09,1.32c-.66.29-1.5-2.59-2.33-2.7.18-.46.29-.96.47-1.31.38-.77.22-1.08,0-1.39s-1.04.3-1.59.92c-.31.35-.87.44-1.63.59-.07-.07-.15-.14-.19-.21-.68-1.06.38-.56,1.72-2.41,1.36-1.86-.51-1.07-2.31-.66-1.82.42-1.27,1.93-2.91,2.33-1.63.41-1.16.19-2.39.39-1.24.2-1.33.12-1.73-.71-.4-.83.34-1.06-.2-2.53-.25-.7-1.05,0-2.42,2.25-.2.33-.43.56-.67.71-.12-.16-.22-.39-.3-.75-.29-1.39-.45-1.54-.82-1.86-.38-.3-.88,0-1.04,0s-.46.77-.46.77c0,.72-.08,1.41-.04,1.97-.29-.04-.61-.08-.94-.11-2.03-.17-1.28-1.81-2.18-2.61s-3.92,2.9-4.61,2.7-.94-1.31-2.78-.2c-1.84,1.09.13.59-.15,1.23-.28.63-1.08,3.01-1.38,2.43s-2.31-.57-1.83.16c.48.74-.09.96-.98,1.56s.56,1.34,1.45,2.99c.89,1.65-.8.57-1.46,1.6-2.3,3.59-3.52,1.38-4.2,1.9-.61.46-.62,2.61.57,3.8,1.19,1.2.68.71.63,1.5-.19,2.94-5,2.96-3.3,3.67,3.7,1.53,1.42,1.89,1.58,2.74.15.85-1.9.75-1.5,1.5.4.74,2.41,3.6.38,3.25-2.04-.33,1.32,3.78,1.58,3.93s.97,1.64.83,1.92.37.41.69,1.24c.31.84-2.2,1.23-1.93,2.93.14.84,1.67.7,2.52,1.75s-.74,1.56.71,1.78c1.44.22.79.45,1.08.85s-.93.78-.83,1.02c.1.25,1.37.31.99.86-.38.56-2.22,1.5-.54,1.52,1.67.02.62.47.74.88.05.18.74.29,1.38.46.19.05.39.1.55.16.54.2.82.5.13,1.01-1.58,1.18.28.41,2.03.25.14,0,.26-.02.37-.02.05.15.12.3.18.45-.18.16-.41.32-.4.42.02.25.07.86,1.53,1.34l.09.03c.16.17.31.32.46.46-.16.07-.37.18-.47.38-.29.55.72,1.58,1.72.63,1.01-.95,1.38-.47,1.46.39.07.86.2.42-.91,1.13-1.12.7.83,1.26,1.19,1.06.83-.47,1.3-.88,1.62-1.16.13.12.26.23.4.34.15.13.3.26.45.39.6.51,1.15.95,1.57,1.29.47.36.79.59.88.59,0-.02-.02-.35-.03-.83-.02-.87-.04-2.2-.06-2.9.03-.06.07-.12.1-.19,1.49.55,3.03,3.26,4.63,3.42.04,0,.09.01.13.01h.61c.4,0,.78-.17,1.18-.43,1.28-.84,2.51-2.69,3.7-3.04,0,.44-.03,1.52-.05,2.51-.02,1.03-.03,1.97-.05,2,.11,0,.66-.47,1.39-1.15.5-.47,1.09-1.02,1.7-1.62.05-.04.09-.09.14-.13.27-.27.56-.55.84-.82.23-.08.52-.15.85-.18,1.42-.13.49.72,1.44,1.17,1.57.74,1.19-1.84.9-2.16-.16-.19-.17-.39.07-.91l.27.15c.08.05.16.09.24.14.42.25.73.49.83.63.22.31.67.7,1.04,0,.38-.69.29-.47,0-1.24-.3-.77.82-1.49,1.74-1.57.99-.09.19.73,2.14-.08,1.18-.49.81-.7.77-1.14-.02-.28-.26-.42-.41-.95.05,0,.1.02.15.02.82,0,1.49-.6,1.49-1.35,0-.18-.04-.36-.11-.53h.14c.92-.08,2.39-.21,1.75-1.35-.26-.47-.41-.91-.48-1.35.65-.02,1.17-.35,1.17-.76,0-.17-.1-.32-.25-.45.46-.17.78-.47.78-.83,0-.54-.47-1.55-.16-1.93.39-.48,2.27-.14,2.28-.77.03-1.35-1.3-2.01-1.69-2.67-.22-.35-.37-1.52.4-3,.63-1.22,1.91-.77,2-2.07v.03h0ZM53.2,48.55c-1.43,2.72-3.67,4.94-6.4,6.37.2-.63.32-1.34.32-2.1,0-.33-.03-.66-.07-.97.3-.04.6-.09.87-.16.44-.09.84-.24,1.18-.5.71-.52,1.19-1.41,1.26-2.85,0,0-1.83,3.24-4.68.38,0,0-3.06-4.16-5.88-2.81-.06.03-.13.07-.19.11-.03,0-.05.03-.08.04-.03-.02-.06-.03-.1-.05-2.86-1.61-6.06,2.72-6.06,2.72-2.84,2.87-4.68-.38-4.68-.38.05,1.03.27,1.73.67,2.27l.02.02s.07.08.18.18c.1.1.26.23.49.38h.01c.22.12.5.25.85.34.27.09.66.11,1.13.09-.06.38-.1.78-.1,1.2,0,.76.12,1.47.32,2.1-2.4-1.26-4.41-3.13-5.84-5.41-.32-.52-.62-1.06-.88-1.62-.19-1.29-.32-2.76-.32-4.4,0-.5.05-1,.14-1.52.76-4.39,4.37-9.09,4.37-9.09,0,0-2.08,3.68-2.49,7.74-.42,4.05,1.76,7.19,1.76,7.19,0,0-.44-4.81,1.1-8.64.77-1.93,2.03-3.6,4.1-4.3-1.11,3.1,1.12,5.71,1.12,5.71,0,0,0-.78.23-1.98.37-2.02,1.35-5.21,3.88-7.94l.18-.18c.07-.07.13-.14.19-.2,1.33-1.32,3.05-2.5,5.28-3.36l.21.32,4.92,7.35c.24.33.64.9,1.09,1.63.9,1.44,2.04,3.51,2.68,5.64.3,1,.5,2.03.5,3v.33c-.35,1.16-.66,1.99-.75,2.26-.16.38-.34.74-.53,1.11h0v-.02ZM38.29,51.99c.38-.05.76-.08,1.16-.08h.37c.33,0,.66.03.97.08,1,.14,1.93-.17,2.74-.31.1.02.21.03.31.05.41.06.81.11,1.23.14.1.07.19.14.27.24.02.23.03.47.03.7,0,.88-.16,1.7-.44,2.39-.18.1-.39.18-.6.27l-.3.12c-.28.1-.59.2-.9.28v-.03c0-.1-.04-.2-.1-.29-.06-.08-.13-.16-.23-.23-.54-.4-1.66-.68-2.98-.71h-.37c-1.4,0-2.6.29-3.15.71-.07.05-.13.1-.17.15-.1.12-.16.24-.16.38v.03c-.13-.03-.25-.07-.38-.11-.1-.03-.2-.06-.29-.09-.42-.14-.8-.29-1.14-.47-.27-.69-.44-1.51-.44-2.39,0-.24,0-.48.03-.7.54-.62,1.24-.56,2.05-.4.75.15,1.6.4,2.51.27h-.02Z"/>
  </g>
</svg>