<?xml version="1.0" encoding="UTF-8"?>
<svg id="Layer_2" xmlns="http://www.w3.org/2000/svg" version="1.1" xmlns:xlink="http://www.w3.org/1999/xlink" viewBox="0 0 80 80">
  <!-- Generator: Adobe Illustrator 30.2.1, SVG Export Plug-In . SVG Version: 2.1.1 Build 1)  -->
  <defs>
    <style>
      .st0 {
        fill: #dac6a4;
      }

      .st1 {
        fill: #b5957e;
      }

      .st2 {
        fill: #48362f;
      }

      .st3 {
        fill: #b8987d;
      }

      .st4 {
        fill: #714223;
      }

      .st5 {
        fill: #ccad8a;
      }

      .st6 {
        fill: #ecdab6;
      }

      .st7 {
        fill: #d7bd9d;
      }

      .st8 {
        fill: #fff;
      }

      .st9 {
        fill: #272213;
      }

      .st10 {
        fill: #b7967d;
      }

      .st11 {
        fill: none;
      }

      .st12 {
        fill: #b0bc48;
      }

      .st13 {
        fill: #ce6c16;
      }

      .st14 {
        fill: #d2bb9b;
      }

      .st15 {
        fill: #ba9d82;
      }

      .st16 {
        fill: #d3897e;
      }

      .st17 {
        fill: #dcc5a0;
      }

      .st18 {
        fill: #c1a587;
      }

      .st19 {
        fill: #43423d;
      }

      .st20 {
        fill: #a98d76;
      }

      .st21 {
        fill: #462e1b;
      }

      .st22 {
        clip-path: url(#clippath);
      }

      .st23 {
        fill: #ebd9b5;
      }

      .st24 {
        fill: #7d351a;
      }
    </style>
    <clipPath id="clippath">
      <rect class="st11" x="35.58" y="55.39" width="9.07" height="5.31"/>
    </clipPath>
  </defs>
  <g id="Layer_1-2">
    <path class="st16" d="M0,0h80v80H0V0Z"/>
    <path class="st2" d="M31.4,50.42c-.29-.23-5.46-3.62-5.46-3.62.35,2.11.62,2.98.1,4.42-.47,1.29-1.36,1.79-1.86,2.24-.5.45-1.51.79-1.86.79s-.76-.07-.76-.07c0,0,.82.48,2.88.39.87-.04,1.42-.27,1.78-.54-.41.7-.79,1.71-.36,2.64,1.56,3.38-.52,4.49-.52,4.49,0,0,1.84-.2,2.9-1.19,0,.03,0,.06,0,.08.47,1.69,1.7,1.88,1.7,1.88,0,0-.78-.14-.63-1.71.04-.42.45-.58.96-.87.2,1.52.84,3.07-.49,3.7,0,0,2.25-.48,2.66-1.9.08-.26.12-.5.15-.74.04.14.08.26.11.4.32,1.81-.97,3.57-.97,3.57,0,0,4.68-.53,4.71-2.5,0-.3.06-1.51.21-1.96.14-.45.43-2.72.43-2.72,0,0-5.39-6.56-5.68-6.79h0ZM49.68,50.42c.29-.23,5.47-3.62,5.47-3.62-.35,2.11-.62,2.98-.1,4.42.47,1.29,1.36,1.79,1.86,2.24.5.45,1.51.79,1.86.79s.75-.07.75-.07c0,0-.82.48-2.88.39-.87-.04-1.42-.27-1.77-.54.41.7.79,1.71.36,2.64-1.56,3.38.52,4.49.52,4.49,0,0-1.84-.2-2.9-1.19,0,.03,0,.06,0,.08-.47,1.69-1.7,1.88-1.7,1.88,0,0,.78-.14.63-1.71-.04-.42-.45-.58-.96-.87-.2,1.52-.84,3.07.49,3.7,0,0-2.25-.48-2.66-1.9-.08-.26-.12-.5-.15-.74-.04.14-.08.26-.11.4-.32,1.81.97,3.57.97,3.57,0,0-4.67-.53-4.71-2.5,0-.3-.06-1.51-.2-1.96-.14-.45-.43-2.72-.43-2.72,0,0,5.39-6.56,5.68-6.79h-.01Z"/>
    <path class="st17" d="M40.08,49.94v30.06h-16.36c-.27-.1-.4-.16-.4-.16,0-2.81.3-5.17.81-7.14.18-.73.39-1.39.62-2.02.9-2.43,2.11-4.14,3.35-5.34,1.08-1.05,2.17-1.72,3.07-2.14.47-.22.89-.37,1.23-.48.58-.18.93-.22.93-.22.06,0,.12,0,.18-.01.52-.08.93-.53,1.27-1.24.25-.53.46-1.2.63-1.98.07-.3.12-.61.18-.94.08-.55.16-1.14.23-1.74.02-.37.06-.73.1-1.11.14-1.84.18-3.85.18-5.76,0,0,2.2.23,3.98.23h0Z"/>
    <path class="st23" d="M56.91,79.84s-.14.05-.39.16h-16.44v-30.06h.04c1.77,0,3.99-.23,3.99-.23,0,1.9.04,3.88.19,5.72.04.36.08.73.1,1.09.06.64.15,1.23.24,1.79h0c.03.26.08.49.12.73.16.78.35,1.47.59,2.02.29.69.65,1.17,1.09,1.36.14.06.28.09.44.09,0,0,.63.08,1.57.44.26.1.53.23.83.37.82.4,1.77,1.01,2.7,1.9,1.29,1.21,2.56,2.96,3.48,5.46.23.62.44,1.29.62,2.02.51,1.98.81,4.33.81,7.14h.01Z"/>
    <g class="st22">
      <path class="st15" d="M44.65,58.25h0c-.41.65-1.8,2.46-4.54,2.46h-.03c-2.6-.01-4.12-1.88-4.5-2.43.08-.55.16-1.13.23-1.73.03-.35.06-.72.11-1.1,1.26.31,2.65.51,4.12.54h.05c1.52-.03,2.92-.24,4.22-.58.04.35.08.72.11,1.08.06.63.15,1.22.24,1.77"/>
    </g>
    <path class="st5" d="M39.9,15.68c-17.34,0-17.43,14.4-16.66,23.83-1.18-2.23-4.71-1.55-4.42,1.97.28,3.39,5.32,5.12,5.18,4.75,2.62,6.97,9.57,12.23,15.9,12.23h.13V15.68h-.13Z"/>
    <path class="st20" d="M19.92,39.99c.85-1.37,2.18-.78,2.5-.47.35.33.62.75.41,1.55-.12.46-.6.5-.49,1.18.13.78.49.82.7,1,.2.17.45.3.57.63.13.33.15.67.08.97-.13.55-.95.1-1.49-.13-.36-.17-1.51-1.13-1.8-1.45-.72-.82-1.06-2.39-.49-3.29"/>
    <path class="st7" d="M39.99,15.68c17.34,0,17.43,14.4,16.67,23.83,1.18-2.23,4.7-1.55,4.41,1.97-.27,3.39-5.32,5.12-5.18,4.75-2.56,6.97-9.57,12.23-15.9,12.23h-.09l-.04-42.78h.13"/>
    <path class="st20" d="M59.96,39.99c-.85-1.37-2.17-.78-2.5-.47-.35.33-.61.75-.41,1.55.12.46.6.5.49,1.18-.13.78-.49.82-.69,1-.2.17-.47.3-.58.63s-.15.67-.08.97c.13.55.95.1,1.49-.13.37-.17,1.51-1.13,1.8-1.45.73-.82,1.06-2.39.49-3.29"/>
    <path class="st17" d="M39.76,19.74c-5.7,0-9.88,1.64-12.4,4.88-3.53,4.54-3.4,11.45-2.1,16.42.4,1.53.61,5.61.88,7.12,1.24,6.72,8.71,10.3,13.62,10.3h.13V19.74h-.08"/>
    <path class="st23" d="M52.14,24.63c-2.5-3.22-6.63-4.87-12.25-4.89v38.71c5.62-.06,12.34-3.98,13.49-10.3.28-1.5.48-5.59.88-7.12,1.3-4.96,1.44-11.86-2.12-16.41"/>
    <path class="st11" d="M39.2,50.19c-.08-.01-.15-.03-.21-.04.07.01.14.03.21.04M38.9,51.58c-.05-.01-.1-.02-.13-.03.04.01.09.02.13.03"/>
    <path class="st10" d="M38.99,51.59s-.05-.01-.08-.02c.03,0,.05.01.08.02M38.77,51.55s-.05-.01-.07-.02.03,0,.08.02h0Z"/>
    <path class="st7" d="M36.58,46.3c-.06-1.34,2.47-.49,3.31-.45.66.03,2.68-.42,2.85-.3,1.18.79-1.25,2.39-2.89,2.39-.44,0-3.23-.83-3.27-1.64h0Z"/>
    <path class="st11" d="M24.35,31.81c-.16.51-.26,1.07-.34,1.67,0,0,.23-.94.73-2.34-.22.3-.36.54-.4.67M39.25,50.85c-.08-.01-.16-.03-.22-.04.08.01.15.03.22.04M38.95,50.79c-.05-.01-.1-.02-.13-.03.04.01.09.02.13.03"/>
    <path class="st1" d="M39.03,50.81s-.05-.01-.08-.02c.03,0,.05.01.08.02M38.82,50.76l-.08-.02s.03.01.08.02"/>
    <path class="st8" d="M27.45,34.85s1.32,5.39,3.59,5.83,4.73-.44,4.73-.44c0,0,.23-6.34-.93-7.16-1.16-.83-3.84-2.03-7.39,1.77"/>
    <path class="st14" d="M35.78,40.23s-.05.01-.17.06c-.03-1.94-.21-4.61-.94-5.12-1.08-.79-3.52-1.89-6.77,1.13-.3-.84-.44-1.47-.44-1.47,3.56-3.81,6.24-2.61,7.39-1.78,1.16.83.93,7.17.93,7.17"/>
    <ellipse class="st21" cx="32.2" cy="37.49" rx="2.23" ry="2.22"/>
    <path class="st4" d="M32.1,38.96c-.65-.05-1.14-.7-1.08-1.41s.65-1.27,1.3-1.22,1.14.7,1.08,1.41c-.06.71-.65,1.27-1.3,1.22h0Z"/>
    <path class="st9" d="M32.16,38.71c-.45-.04-.92-.53-.87-1.13.05-.6.59-1.01,1.04-.98.45.04.91.53.87,1.13-.05.6-.59,1.01-1.04.98h0Z"/>
    <path class="st8" d="M31.79,37.22c-.02.22-.25.38-.5.36-.26-.02-.45-.22-.44-.43.02-.22.24-.38.5-.36s.45.21.44.44h0ZM33.24,38.48c-.01.11-.12.19-.25.18-.13-.01-.23-.11-.22-.22.01-.11.12-.19.25-.18.13.01.23.11.22.22"/>
    <path class="st11" d="M39.29,51.49c-.08-.01-.16-.03-.22-.04.08.01.15.03.22.04M38.98,51.43c-.05-.01-.1-.02-.13-.03.04.01.09.02.13.03"/>
    <path class="st1" d="M39.07,51.44s-.05-.01-.08-.02c.03,0,.05.01.08.02M38.85,51.39l-.08-.02s.03,0,.08.02"/>
    <path class="st11" d="M39.2,51.34c-.09-.01-.17-.03-.23-.05.08.02.16.03.23.05M38.88,51.27c-.05-.01-.11-.03-.14-.03.05.01.09.02.14.03"/>
    <path class="st10" d="M38.96,51.29s-.06-.01-.09-.02c.03,0,.05.01.09.02M38.73,51.24s-.05-.01-.08-.02.03.01.08.02h0Z"/>
    <path class="st11" d="M39.13,51.11c-.09-.01-.17-.03-.23-.04.08.02.16.03.23.04M38.81,51.05c-.05-.01-.11-.03-.14-.03.05.01.09.02.14.03"/>
    <path class="st10" d="M38.9,51.07s-.06-.01-.09-.02c.03,0,.05.01.09.02M38.66,51.02s-.05-.01-.08-.02.03.01.08.02h0Z"/>
    <path class="st11" d="M39.34,51.08c-.08-.01-.16-.03-.23-.04.08.02.15.03.23.04M39.02,51.02c-.05-.01-.1-.02-.14-.03.05.01.09.02.14.03"/>
    <path class="st10" d="M39.1,51.04s-.06-.01-.09-.02c.03,0,.05.01.09.02M38.88,50.99l-.08-.02s.03.01.08.02h0Z"/>
    <path class="st8" d="M52.47,34.67s-1.32,5.39-3.59,5.83-4.73-.44-4.73-.44c0,0-.23-6.34.93-7.16,1.16-.83,3.84-2.03,7.39,1.77"/>
    <path class="st14" d="M44.14,40.05s.05.01.17.06c.03-1.94.21-4.61.94-5.12,1.08-.79,3.52-1.89,6.77,1.13.3-.84.44-1.47.44-1.47-3.56-3.81-6.24-2.61-7.39-1.78-1.16.83-.93,7.17-.93,7.17"/>
    <path class="st21" d="M45.49,37.3c0,1.23,1,2.22,2.23,2.22s2.23-.99,2.23-2.22-1-2.22-2.23-2.22-2.23.99-2.23,2.22"/>
    <path class="st4" d="M47.83,38.78c.65-.05,1.14-.7,1.08-1.41s-.65-1.27-1.3-1.22-1.14.7-1.08,1.41c.06.71.65,1.27,1.3,1.22h0Z"/>
    <path class="st9" d="M47.77,38.53c.45-.04.92-.53.87-1.13-.05-.6-.59-1.01-1.04-.98-.45.04-.91.53-.87,1.13.05.6.59,1.01,1.04.98h0Z"/>
    <path class="st8" d="M48.13,37.04c.02.22.25.38.5.36.26-.02.45-.22.44-.43-.02-.22-.24-.38-.5-.36s-.45.21-.44.44h0ZM46.69,38.3c.01.11.12.19.25.18.13-.01.23-.11.22-.22-.01-.11-.12-.19-.25-.18-.13.01-.23.11-.22.22"/>
    <path d="M37.14,34.77s-.43-.65-1.27-1.29c-.53-.4-1.04-.71-1.58-.94-.65-.27-1.35-.46-2.04-.56-.61-.07-1.3-.05-2.09.06-.61.11-1.2.29-1.7.51-.36.12-.64.3-.87.43-.09.05-.17.1-.25.14l-1.08.68,1.25-.29c.06-.01.12-.03.19-.05.26-.07.58-.15.96-.21.09-.01.18-.03.27-.05.16-.03.32-.06.49-.07.19-.01.39-.03.59-.04l.26-.02c.69,0,1.28.04,1.8.16.57.1,1.15.28,1.69.53.51.24.99.48,1.37.75.77.51,1.19.93,1.19.93.1.1.25.16.39.16.1,0,.21-.03.3-.09.25-.16.32-.5.16-.74v-.02s-.01,0-.01,0ZM52.69,33.13c-.07-.04-.15-.09-.24-.14-.23-.14-.51-.31-.86-.43-.51-.23-1.1-.4-1.72-.52-.79-.1-1.47-.13-2.09-.05-.68.09-1.38.29-2.03.56-.53.23-1.06.54-1.58.94-.83.63-1.24,1.24-1.27,1.29h0c-.14.23-.11.51.07.69.1.1.24.16.39.16s.28-.06.38-.16h0s.45-.44,1.19-.94c.37-.27.86-.51,1.36-.75.54-.25,1.12-.43,1.7-.53.51-.12,1.1-.17,1.78-.16l.27.02c.2.01.39.03.58.04.17,0,.33.04.49.07.09.02.18.04.27.05.38.05.7.14.96.21.07.02.13.04.19.05l1.25.29-1.09-.68h0Z"/>
    <path class="st11" d="M38.91,52.13c-.08-.01-.16-.03-.23-.04.08.02.16.03.23.04M38.59,52.06c-.05-.01-.1-.03-.14-.03l.14.03Z"/>
    <path class="st3" d="M38.68,52.08s-.06-.01-.09-.02c.03,0,.05.01.09.02M38.45,52.03s-.05-.01-.08-.02.03.01.08.02"/>
    <path class="st6" d="M36.69,53.19c-.06-.87,2.43.18,3.25.21.65.02,2.62-.13,2.8-.2,1.37-.51-.08,1.45-2.84,1.55-1.27.05-3.17-1.04-3.21-1.56h0Z"/>
    <path class="st0" d="M44.81,51.52c-.68-.03-1.37.53-2.19.44-.03-.02-.05-.02-.08-.02-.19-.03-.37,0-.58.05-.25.05-.51.15-.75.24-.41.13-.87.24-1.34.2s-.02,0-.03,0h-.03c-.47.03-.93-.07-1.34-.2-.24-.08-.49-.19-.75-.24-.2-.05-.39-.08-.58-.05-.04,0-.05,0-.08.02-.82.09-1.51-.48-2.19-.44-.19.02-.46-.03-.61-.03.03.02.07.03.1.05,1.93.94,3.6,2.69,5.44,2.63h.05c1.84.06,3.51-1.69,5.44-2.63.04-.02.07-.03.1-.05-.15,0-.42.05-.61.03h-.01Z"/>
    <path class="st18" d="M45.38,51.47s-1.96-.75-3.36-.31c0,0-.52.2-1.06.33-.33.13-.73.16-1.11.15-.29-.01-.57-.05-.8-.09-.08-.01-.15-.03-.23-.04-.03,0-.06-.01-.09-.02l-.14-.03c-.05-.01-.08-.02-.08-.02-.45-.12-.83-.27-.83-.27-1.4-.44-3.36.31-3.36.31-.03.01-.04.02-.04.02.15,0,.42.05.61.03.68-.03,1.37.53,2.19.44.03-.02.05-.02.08-.02.19-.03.37,0,.58.05.25.05.51.15.75.24.41.13.87.24,1.34.2s.02,0,.03,0h.03c.47.03.93-.07,1.34-.2.24-.08.49-.19.75-.24.2-.05.39-.08.58-.05.04,0,.05,0,.08.02.82.09,1.51-.48,2.19-.44.19.02.46-.03.61-.03,0,0-.02,0-.04-.02h0Z"/>
    <path class="st18" d="M36.56,51.93s3.68,1.11,6.53.03l-.33-.22h-3.85l-2.35.2h0Z"/>
    <path class="st2" d="M57.49,31.8c0,.69-.08,1.81-.2,2.67-.06.55-.16.99-.24,1.18-.1.21-.8,2.2-.86,2.97-.33.33-.7.75-.96,1.45-.52,1.4-.73,1.16-.73,1.16,0,0,.17-1.11.35-2.46.11-1.14.26-2.84.39-4.29.01-.2.03-.41.04-.6-.23-1.18-2.38-6.81-12.62-6.28-1.65.08-3.32-.55-4.61-1.23-1.34-.69-2.27-1.42-2.36-1.42-.45,0-4.55-.78-6.95,1.06-.16.11-.3.24-.43.36-2.86,2.54-3.25,6.96-3.25,7.84,0,.08,0,.17.01.27.08,1.82-.12,6.78-.12,6.78,0,0-.91.36-1.44-1.04-.3-.82.88-1.42.51-1.76-.57-1.24-.89-1.63-1.18-2.8-.08-.33-.32-.64-.57-1.18-.55-1.11-1.17-3.15-.52-8.11.03-.23.06-.45.1-.69.51-3.39,3.01-11,9.62-12.35,6.61-1.37,8.15-2.95,13.56-.68,5.4,2.26,8.82,3.85,10.48,7.59.75,1.71,1.23,4.01,1.52,6.13.36,2.54.46,4.81.46,5.44h0Z"/>
    <path class="st12" d="M25.4,40.97c.54,4.55.93,8.07-1.29,8.29s-4.45-3.29-4.99-7.84c-.54-4.54.82-8.41,3.03-8.63,2.22-.22,2.7,3.63,3.24,8.18h0Z"/>
    <path class="st19" d="M23.58,41.2c.5,4.19.86,7.43-1.18,7.63-2.04.2-4.1-3.03-4.59-7.22-.5-4.19.75-7.75,2.79-7.95,2.04-.2,2.49,3.34,2.99,7.53"/>
    <path class="st12" d="M53.55,40.97c-.54,4.55-.93,8.07,1.29,8.29s4.45-3.29,4.99-7.84c.54-4.54-.82-8.41-3.03-8.63-2.22-.22-2.7,3.63-3.24,8.18h0Z"/>
    <path class="st19" d="M55.37,41.2c-.5,4.19-.86,7.43,1.18,7.63,2.04.2,4.1-3.03,4.59-7.22.5-4.19-.75-7.75-2.79-7.95-2.04-.2-2.49,3.34-2.99,7.53"/>
    <path class="st13" d="M53.71,80h-27.16c.08-1.32.16-3.71.13-6.94v-.37h-2.55c.18-.73.39-1.39.62-2.02.9-2.43,2.11-4.14,3.35-5.34,2.05,3.04,6.38,8.22,11.98,8.17,3.55-.03,7.61-2.17,11.92-8.29,1.29,1.21,2.56,2.96,3.48,5.46.23.62.44,1.29.62,2.02h-2.53v.26c-.05,3.27.04,5.72.13,7.04h0Z"/>
    <path class="st24" d="M52,65.21c-4.31,6.12-8.37,8.26-11.92,8.29-5.6.05-9.93-5.13-11.98-8.17,1.08-1.05,2.17-1.72,3.07-2.14,1.68,2.46,4.93,6.3,8.91,6.58,2.81.2,5.98-1.37,9.22-6.46.82.4,1.77,1.01,2.7,1.9"/>
  </g>
</svg>