<?xml version="1.0" encoding="UTF-8"?>
<svg id="Layer_2" xmlns="http://www.w3.org/2000/svg" version="1.1" xmlns:xlink="http://www.w3.org/1999/xlink" viewBox="0 0 80 80">
  <!-- Generator: Adobe Illustrator 30.2.1, SVG Export Plug-In . SVG Version: 2.1.1 Build 1)  -->
  <defs>
    <style>
      .st0 {
        fill: #dac6a4;
      }

      .st1 {
        fill: #b5957e;
      }

      .st2 {
        fill: #a9cec8;
      }

      .st2, .st3, .st4 {
        isolation: isolate;
        opacity: .54;
      }

      .st5 {
        fill: #b8987d;
      }

      .st6 {
        fill: #714223;
      }

      .st7 {
        fill: #ccad8a;
      }

      .st8 {
        fill: #ecdab6;
      }

      .st9 {
        fill: #d7bd9d;
      }

      .st10 {
        fill: #fff;
      }

      .st11 {
        fill: #272213;
      }

      .st12 {
        fill: #60151c;
      }

      .st13 {
        fill: #7fa6ad;
      }

      .st14 {
        fill: #b7967d;
      }

      .st15 {
        fill: none;
      }

      .st16 {
        fill: #d2bb9b;
      }

      .st17 {
        fill: #ba9d82;
      }

      .st18 {
        fill: #dcc5a0;
      }

      .st19 {
        fill: #8b1921;
      }

      .st3 {
        fill: url(#linear-gradient);
      }

      .st20 {
        fill: #c1a587;
      }

      .st4 {
        fill: url(#linear-gradient1);
      }

      .st21 {
        fill: #a98d76;
      }

      .st22 {
        fill: #462e1b;
      }

      .st23 {
        clip-path: url(#clippath);
      }

      .st24 {
        fill: #ebd9b5;
      }
    </style>
    <clipPath id="clippath">
      <rect class="st15" x="35.58" y="55.36" width="9.07" height="5.31"/>
    </clipPath>
    <linearGradient id="linear-gradient" x1="832.82" y1="-54.41" x2="833.03" y2="-95.28" gradientTransform="translate(-251.76 12.4) scale(.36 -.36)" gradientUnits="userSpaceOnUse">
      <stop offset="0" stop-color="#fff"/>
      <stop offset="1" stop-color="#8dbdac"/>
    </linearGradient>
    <linearGradient id="linear-gradient1" x1="782.36" y1="-54.68" x2="782.57" y2="-95.55" gradientTransform="translate(-251.76 12.4) scale(.36 -.36)" gradientUnits="userSpaceOnUse">
      <stop offset="0" stop-color="#fff"/>
      <stop offset="1" stop-color="#8dbdac"/>
    </linearGradient>
  </defs>
  <g id="Layer_1-2">
    <path class="st13" d="M0,0h80v79.95H0V0Z"/>
    <path class="st18" d="M40.08,49.9v30.04h-16.36c-.27-.11-.4-.16-.4-.16,0-3.83.57-6.83,1.43-9.16,2.08-5.63,5.9-7.42,7.65-7.95.58-.18.93-.22.93-.22.06,0,.12,0,.18-.01.52-.08.94-.53,1.27-1.24.25-.53.46-1.2.63-1.98.07-.3.12-.61.17-.94.08-.55.16-1.14.23-1.75.03-.37.06-.73.1-1.11.14-1.84.19-3.85.19-5.75,0,0,2.2.23,3.98.23h0Z"/>
    <path class="st24" d="M56.91,79.79s-.15.05-.39.16h-16.44v-30.04h.04c1.77,0,4-.23,4-.23,0,1.89.04,3.88.18,5.71.04.36.08.73.1,1.09.07.64.15,1.23.24,1.79h0c.03.26.08.49.12.73.16.78.36,1.47.6,2.02.3.69.65,1.16,1.09,1.35.14.06.29.09.44.09,0,0,.63.08,1.57.44,1.93.75,5.16,2.72,7.02,7.73.86,2.33,1.43,5.32,1.43,9.16h0Z"/>
    <g class="st23">
      <path class="st17" d="M44.65,58.21h0c-.41.65-1.8,2.46-4.54,2.46h-.03c-2.6-.01-4.12-1.88-4.5-2.43.08-.55.16-1.13.23-1.73.03-.35.06-.72.11-1.1,1.26.31,2.65.51,4.12.54h.05c1.52-.03,2.92-.24,4.22-.58.04.35.08.72.11,1.08.06.63.15,1.22.24,1.77"/>
    </g>
    <path class="st7" d="M39.9,15.67c-17.34,0-17.43,14.39-16.66,23.81-1.18-2.23-4.71-1.55-4.42,1.97.28,3.39,5.32,5.12,5.18,4.75,2.62,6.97,9.57,12.22,15.9,12.22h.13V15.67h-.13Z"/>
    <path class="st21" d="M19.92,39.97c.85-1.37,2.18-.78,2.5-.47.35.33.62.75.41,1.55-.12.46-.6.5-.49,1.18.13.78.49.81.7,1,.2.17.45.3.57.63.13.33.15.67.08.97-.13.55-.95.1-1.49-.13-.36-.17-1.51-1.13-1.8-1.45-.72-.81-1.06-2.39-.49-3.28"/>
    <path class="st9" d="M39.99,15.67c17.34,0,17.43,14.39,16.67,23.81,1.18-2.23,4.7-1.55,4.41,1.97-.27,3.39-5.32,5.12-5.18,4.75-2.56,6.97-9.57,12.22-15.9,12.22h-.09l-.04-42.75h.13"/>
    <path class="st21" d="M59.96,39.97c-.85-1.37-2.17-.78-2.5-.47-.35.33-.61.75-.41,1.55.12.46.6.5.49,1.18-.13.78-.49.81-.69,1-.2.17-.47.3-.58.63s-.15.67-.08.97c.13.55.95.1,1.49-.13.37-.17,1.51-1.13,1.8-1.45.73-.81,1.06-2.39.49-3.28"/>
    <path class="st18" d="M39.76,19.73c-5.7,0-9.88,1.64-12.4,4.87-3.53,4.53-3.4,11.45-2.1,16.41.4,1.53.61,5.61.88,7.11,1.24,6.71,8.71,10.29,13.62,10.29h.13V19.73h-.08"/>
    <path class="st24" d="M52.14,24.62c-2.5-3.22-6.63-4.86-12.25-4.89v38.69c5.62-.06,12.34-3.98,13.49-10.29.28-1.5.48-5.59.88-7.11,1.3-4.95,1.44-11.85-2.12-16.4"/>
    <path class="st15" d="M39.2,50.15c-.08-.01-.15-.03-.21-.04.07.01.14.03.21.04M38.9,51.54c-.05-.01-.1-.02-.13-.03.04.01.09.02.13.03"/>
    <path class="st14" d="M38.99,51.56s-.05-.01-.08-.02c.03,0,.05.01.08.02M38.77,51.52s-.05-.01-.07-.02.03,0,.08.02h0Z"/>
    <path class="st9" d="M36.58,46.86c-.06-1.34,2.47-.49,3.31-.45.66.03,2.68-.42,2.85-.3,1.18.79-1.25,2.39-2.89,2.39-.44,0-3.23-.83-3.27-1.64h0Z"/>
    <path class="st15" d="M24.35,31.79c-.16.51-.26,1.07-.34,1.67,0,0,.23-.94.73-2.34-.22.3-.36.54-.4.67M39.25,50.82c-.08-.01-.16-.03-.22-.04.08.01.15.03.22.04M38.95,50.76c-.05-.01-.1-.02-.13-.03.04.01.09.02.13.03"/>
    <path class="st1" d="M39.03,50.78s-.05-.01-.08-.02c.03,0,.05.01.08.02M38.82,50.73l-.08-.02s.03.01.08.02"/>
    <path class="st10" d="M27.45,34.83s1.32,5.39,3.59,5.83,4.73-.44,4.73-.44c0,0,.23-6.33-.93-7.16-1.16-.83-3.84-2.03-7.39,1.77"/>
    <path class="st16" d="M35.78,40.21s-.05.01-.17.06c-.03-1.94-.21-4.61-.94-5.12-1.08-.79-3.52-1.89-6.77,1.13-.3-.84-.44-1.47-.44-1.47,3.56-3.81,6.24-2.61,7.39-1.78,1.16.83.93,7.17.93,7.17"/>
    <ellipse class="st22" cx="32.2" cy="37.46" rx="2.23" ry="2.22"/>
    <path class="st6" d="M32.1,38.94c-.65-.05-1.14-.7-1.08-1.41s.65-1.27,1.3-1.21,1.14.7,1.08,1.41c-.06.71-.65,1.27-1.3,1.21h0Z"/>
    <path class="st11" d="M32.16,38.69c-.45-.04-.92-.53-.87-1.13.05-.6.59-1.01,1.04-.98.45.04.91.53.87,1.13-.05.6-.59,1.01-1.04.98h0Z"/>
    <path class="st10" d="M31.79,37.2c-.02.22-.25.38-.5.36-.26-.02-.45-.22-.44-.43.02-.22.24-.38.5-.36s.45.21.44.44h0ZM33.24,38.46c-.01.11-.12.19-.25.18-.13-.01-.23-.11-.22-.22.01-.11.12-.19.25-.18.13.01.23.11.22.22"/>
    <path class="st15" d="M39.29,51.45c-.08-.01-.16-.03-.22-.04.08.01.15.03.22.04M38.98,51.39c-.05-.01-.1-.02-.13-.03.04.01.09.02.13.03"/>
    <path class="st1" d="M39.07,51.41s-.05-.01-.08-.02c.03,0,.05.01.08.02M38.85,51.36l-.08-.02s.03,0,.08.02"/>
    <path class="st15" d="M39.2,51.3c-.09-.01-.17-.03-.23-.05.08.02.16.03.23.05M38.88,51.24c-.05-.01-.11-.03-.14-.03.05.01.09.02.14.03"/>
    <path class="st14" d="M38.97,51.26s-.06-.01-.09-.02c.03,0,.05.01.09.02M38.73,51.21s-.05-.01-.08-.02.03.01.08.02h0Z"/>
    <path class="st15" d="M39.13,51.08c-.09-.01-.17-.03-.23-.04.08.02.16.03.23.04M38.81,51.02c-.05-.01-.11-.03-.14-.03.05.01.09.02.14.03"/>
    <path class="st14" d="M38.9,51.03s-.06-.01-.09-.02c.03,0,.05.01.09.02M38.66,50.98s-.05-.01-.08-.02.03.01.08.02h0Z"/>
    <path class="st15" d="M39.34,51.05c-.08-.01-.16-.03-.23-.04.08.02.15.03.23.04M39.02,50.99c-.05-.01-.1-.02-.14-.03.05.01.09.02.14.03"/>
    <path class="st14" d="M39.1,51s-.06-.01-.09-.02c.03,0,.05.01.09.02M38.88,50.95l-.08-.02s.03.01.08.02h0Z"/>
    <path class="st10" d="M52.47,34.65s-1.32,5.39-3.59,5.83-4.73-.44-4.73-.44c0,0-.23-6.33.93-7.16,1.16-.83,3.84-2.03,7.39,1.77"/>
    <path class="st16" d="M44.14,40.02s.05.01.17.06c.03-1.94.21-4.61.94-5.12,1.08-.79,3.52-1.89,6.77,1.13.3-.84.44-1.47.44-1.47-3.56-3.81-6.24-2.61-7.39-1.78-1.16.83-.93,7.17-.93,7.17"/>
    <path class="st22" d="M45.49,37.28c0,1.23,1,2.22,2.23,2.22s2.23-.99,2.23-2.22-1-2.22-2.23-2.22-2.23.99-2.23,2.22"/>
    <path class="st6" d="M47.83,38.76c.65-.05,1.14-.7,1.08-1.41s-.65-1.27-1.3-1.21-1.14.7-1.08,1.41c.06.71.65,1.27,1.3,1.21h0Z"/>
    <path class="st11" d="M47.77,38.5c.45-.04.92-.53.87-1.13-.05-.6-.59-1.01-1.04-.98-.45.04-.91.53-.87,1.13.05.6.59,1.01,1.04.98h0Z"/>
    <path class="st10" d="M48.13,37.01c.02.22.25.38.5.36.26-.02.45-.22.44-.43-.02-.22-.24-.38-.5-.36s-.45.21-.44.44h0ZM46.69,38.28c.01.11.12.19.25.18.13-.01.23-.11.22-.22-.01-.11-.12-.19-.25-.18-.13.01-.23.11-.22.22"/>
    <path d="M37.14,34.75s-.43-.65-1.27-1.29c-.53-.4-1.04-.71-1.58-.94-.65-.27-1.35-.46-2.04-.56-.61-.07-1.3-.05-2.09.06-.61.11-1.2.29-1.7.51-.36.12-.64.3-.87.43-.09.05-.17.1-.25.14l-1.08.68,1.25-.29c.06-.01.12-.03.19-.05.26-.07.58-.15.96-.21.09-.01.18-.03.27-.05.16-.03.32-.06.49-.07.19-.01.39-.03.59-.04l.26-.02c.69,0,1.28.04,1.8.16.57.1,1.15.28,1.69.53.51.24.99.48,1.37.75.77.51,1.19.93,1.19.93.1.1.25.16.39.16.1,0,.21-.03.3-.09.25-.16.32-.5.16-.74v-.02s-.01,0-.01,0ZM52.69,33.1c-.07-.04-.15-.09-.24-.14-.23-.14-.51-.31-.86-.43-.51-.23-1.1-.4-1.72-.52-.79-.1-1.47-.13-2.09-.05-.68.09-1.38.29-2.03.56-.53.23-1.06.54-1.58.94-.83.63-1.24,1.24-1.27,1.29h0c-.14.23-.11.51.07.69.1.1.24.16.39.16s.28-.06.38-.16h0s.45-.44,1.19-.94c.37-.27.86-.51,1.36-.75.54-.25,1.12-.43,1.7-.53.51-.12,1.1-.17,1.78-.16l.27.02c.2.01.39.03.58.04.17,0,.33.04.49.07.09.02.18.04.27.05.38.05.7.14.96.21.07.02.13.04.19.05l1.25.29-1.09-.68h0Z"/>
    <path class="st15" d="M38.91,52.09c-.08-.01-.16-.03-.23-.04.08.02.16.03.23.04M38.59,52.03c-.05-.01-.1-.03-.14-.03l.14.03Z"/>
    <path class="st5" d="M38.68,52.05s-.06-.01-.09-.02c.03,0,.05.01.09.02M38.45,52s-.05-.01-.08-.02.03.01.08.02"/>
    <path class="st8" d="M36.69,53.16c-.06-.86,2.43.18,3.25.21.65.02,2.62-.13,2.8-.2,1.37-.51-.08,1.45-2.84,1.55-1.27.05-3.17-1.04-3.21-1.56h0Z"/>
    <path class="st0" d="M44.81,51.49c-.68-.03-1.37.53-2.19.44-.03-.02-.05-.02-.08-.02-.19-.03-.37,0-.58.05-.25.05-.51.15-.75.24-.41.13-.87.24-1.34.2s-.02,0-.03,0h-.03c-.47.03-.93-.07-1.34-.2-.24-.08-.49-.19-.75-.24-.2-.05-.39-.08-.58-.05-.04,0-.05,0-.08.02-.82.09-1.51-.48-2.19-.44-.19.02-.46-.03-.61-.03.03.02.07.03.1.05,1.93.94,3.6,2.69,5.44,2.63h.05c1.84.06,3.51-1.69,5.44-2.63.04-.02.07-.03.1-.05-.15,0-.42.05-.61.03h0Z"/>
    <path class="st20" d="M45.38,51.44s-1.96-.75-3.36-.31c0,0-.52.2-1.06.33-.33.13-.73.16-1.11.15-.29-.01-.57-.05-.8-.09-.08-.01-.15-.03-.23-.04-.03,0-.06-.01-.09-.02l-.14-.03c-.05-.01-.08-.02-.08-.02-.45-.12-.83-.27-.83-.27-1.4-.44-3.36.31-3.36.31-.03.01-.04.02-.04.02.15,0,.42.05.61.03.68-.03,1.37.53,2.19.44.03-.02.05-.02.08-.02.19-.03.37,0,.58.05.25.05.51.15.75.24.41.13.87.24,1.34.2s.02,0,.03,0h.03c.47.03.93-.07,1.34-.2.24-.08.49-.19.75-.24.2-.05.39-.08.58-.05.04,0,.05,0,.08.02.82.09,1.51-.48,2.19-.44.19.02.46-.03.61-.03,0,0-.02,0-.04-.02h0Z"/>
    <path class="st20" d="M36.56,51.89s3.68,1.11,6.53.03l-.33-.22h-3.85l-2.35.2h0Z"/>
    <path class="st19" d="M56.91,79.83s-.15.06-.39.17H23.72c-.26-.11-.4-.17-.4-.17,0-15.89,9.55-17.42,10.01-17.49h.01c.76,0,1.31-.74,1.71-1.94.15.27.44.48.71.63.58.32,1.7.63,4.36.63s4.43-.58,4.91-1.03c.07-.07.12-.15.15-.23.39,1.16.92,1.89,1.62,1.94h.09s10.02,1.21,10.02,17.49"/>
    <path class="st12" d="M47.01,64.05c-2.2,1.57-3.65,1.93-6.94,1.93s-4.42-.46-6.09-1.31c-1.18-.59-2.02-1.05-1.16-1.82.24-.22.4-.38.52-.52h.01c.31-.36.35-.54.67-1.03.45-.66-.8-1.04-.03-1.55.76-.51,1.36-.41,1.36-.41-.29,1.04.15,1.52.43,1.67.58.32,1.7.63,4.36.63s3.95-.58,4.52-.9c.49-.27.36-.81.35-1.04-.04-.06-.07-.21-.07-.21,0,0,1.47.09,1.34.82-.12.71.14,1.4.54,2.02.07.09.13.19.19.27.53.68,1.31.52.01,1.45h0ZM31.14,71.11l-1.24-2.16-1.24,2.16-1.24,2.17,1.24,2.16,1.24,2.17,1.24-2.17,1.24-2.16-1.24-2.17ZM36.1,71.11l-1.24-2.16-1.24,2.16-1.24,2.17,1.24,2.16,1.24,2.17,1.24-2.17,1.24-2.16-1.24-2.17ZM41.06,71.11l-1.24-2.16-1.24,2.16-1.24,2.17,1.24,2.16,1.24,2.17,1.24-2.17,1.24-2.16-1.24-2.17ZM46.02,71.11l-1.24-2.16-1.24,2.16-1.24,2.17,1.24,2.16,1.24,2.17,1.24-2.17,1.24-2.16-1.24-2.17ZM50.98,71.11l-1.24-2.16-1.24,2.16-1.24,2.17,1.24,2.16,1.24,2.17,1.24-2.17,1.24-2.16-1.24-2.17Z"/>
    <path d="M35.92,9.14c-1.17,1.74-.14,2.07.74,2.08.48,0,.95-.09,1.39-.26.91-.34,1.8-.66,2.64-.95-1,1.42-.38,3.98,1.87,3.98.27,0,.52-.04.74-.11-.04.02-.08.04-.12.07,1.01-.38,2.76-.51,5.69.52.41.14.79.3,1.14.45,1.25.49,3.74,1.47,8.52,3.32,0,0-1.58.56-3.46.74.9.95,1.83,1.77,3.39,2.21,4.07,1.14,5.25-.32,5.25-.32,0,0-1.77,2.55-4.9,2.56-.51,0-.56,0-.56-.01,0,.01,1.18,2.74,1.4,4.78.23,2.08-.49,3.51-.71,7.4-.06,1.09-.22,1.64-.43,1.97-.45.69-1.19.45-2.02,2.11-.42.82-.43,1.75-.43,1.75,0,0-.03.03-.09.04-.26.08-1,.01-1.04-3.46,0,0,3.29-13.6-3.42-15.61-2.92-.88-6.85-.14-10.69.76-2.56.6-5.14,1.58-7.55,3.09-3.09,1.95-7.08,4.43-7.91,8.87v.02c.12,1.19.18,2.15.19,2.92.04,3.19-.71,3.17-.71,3.17-.34,0,.02-1.61-1.12-2.72-.31-.3-.68-.81-1.03-1.46-.94-1.7-1.85-4.4-1.85-7.1-1.22-18.3,15.09-20.8,15.09-20.8h0Z"/>
    <path class="st3" d="M55,39.21c-.02.28-.05.57-.11.87-2.95-1.47-7.13-2.28-11.75.63-.14-.48-.22-.95-.25-1.39-.07-.57-.09-1.24.04-1.89.36-3.06,5.75-3.17,6.52-3.17h.19c.68-.03,1.26,0,1.77.05.23.02.54.06.88.14,2,.45,2.28,1.49,2.3,1.59.08.17.15.36.19.56.27.92.31,1.81.23,2.61h0Z"/>
    <path class="st4" d="M36.76,39.34c-.03.26-.08.49-.12.69-4.77-2.39-8.97-.97-11.7.7-.13-.44-.25-.95-.3-1.52-.1-1.37.19-2.38.19-2.38.01-.08.03-.15.04-.23.05-.18.12-.36.19-.54h0c.47-.97,1.48-1.41,2.31-1.6.25-.06.53-.1.84-.14h.03c.25-.02.4-.02.4-.02.49-.03.96-.04,1.39-.03h.16c3.75.08,5.16,1.21,5.16,1.21.81.44,1.2,1.18,1.36,1.95h0s.14.83.04,1.91"/>
    <path class="st2" d="M54.88,40.08c-.13.7-.38,1.45-.82,2.18-.03.06-.05.09-.05.09-.01.01-.02.03-.03.05-.13.2-.27.4-.42.59-.23.29-.51.54-.83.72-.23.14-.55.3-.95.44-1.89.74-4.05.32-5.1.03-.03,0-.23-.05-.51-.15-.08-.03-.13-.05-.13-.05-1.72-.66-2.53-1.98-2.9-3.27,4.62-2.91,8.8-2.09,11.75-.63h0ZM36.64,40.03c-.05.25-.1.44-.13.54-.02.05-.03.09-.03.09-.52,2.18-2.16,3.06-3.01,3.38-.11.04-.28.09-.5.15h-.01c-2.31.63-4.02.36-5.11-.04h0c-.82-.33-1.58-.87-2.18-1.74-.03-.04-.05-.09-.08-.14-.1-.18-.34-.65-.55-1.3-.03-.08-.05-.16-.08-.24,2.73-1.67,6.92-3.09,11.7-.7h0Z"/>
    <path class="st10" d="M57.51,34.78c-.05-.31-.27-.56-.57-.64-6.27-1.73-11.15-.72-11.15-.72-2.61.45-3.74,1.94-3.74,1.94-.74.78-2.23.45-2.23.45,0,0-1.49.33-2.23-.45,0,0-1.13-1.49-3.74-1.94,0,0-4.88-1.01-11.15.72-.3.08-.53.34-.57.64-.1.65-.19,1.73.29,2.01,0,0,.96.19.96,1.52,0,0,.74,4.37,1.63,5.31,0,0,1.2,2.18,5.25,2.07,0,0,5.54.23,6.62-2.8.14-.4.34-.86.5-1.26l.92-2.63c.1-.28.27-.53.51-.7.23-.17.56-.3,1.01-.27.45-.03.78.11,1.01.27.24.18.42.42.51.7l.92,2.63c.16.39.36.86.5,1.26,1.08,3.03,6.62,2.8,6.62,2.8,4.05.12,5.25-2.07,5.25-2.07.89-.95,1.63-5.31,1.63-5.31,0-1.33.96-1.52.96-1.52.48-.28.39-1.35.29-2.01M36.76,39.34c-.08.58-.2,1.04-.25,1.23,0,.01,0,.03-.01.04-.01.03-.01.05-.01.05-.52,2.18-2.16,3.06-3.01,3.38-.07.03-.17.06-.3.09-.06.02-.13.04-.2.06h-.01c-.68.19-1.31.29-1.89.34-1.38.11-2.45-.1-3.22-.38-.3-.12-.6-.27-.88-.45-.48-.32-.93-.74-1.31-1.29-.01-.02-.03-.04-.04-.06-.01-.03-.03-.05-.05-.08-.06-.11-.18-.34-.31-.66-.08-.19-.16-.4-.24-.64-.03-.08-.05-.16-.08-.24-.13-.44-.25-.95-.3-1.52-.1-1.37.19-2.38.19-2.38.01-.08.03-.15.04-.23.05-.18.12-.36.19-.54h0c.47-.98,1.48-1.41,2.31-1.61.25-.06.53-.1.84-.14h.03c.25-.02.4-.02.4-.02.49-.03.96-.04,1.39-.03h.16c3.75.08,5.16,1.21,5.16,1.21.81.44,1.2,1.18,1.36,1.95h0s.14.83.04,1.91h-.01ZM55,39.21c-.02.32-.07.66-.14,1.02,0,.03-.01.07-.02.1-.03.11-.05.22-.08.34l-.02.08c-.03.1-.06.2-.09.3l-.02.06c-.04.12-.09.24-.14.36,0,.01-.01.03-.02.04-.05.11-.09.21-.15.32l-.04.09c-.06.11-.12.23-.18.34,0,0,0,.01-.01.02-.03.06-.05.09-.05.09,0,.01-.02.03-.03.04h0s-.04.07-.06.1c-.11.17-.23.34-.36.5-.06.07-.12.14-.18.21-.19.2-.41.37-.65.51-.19.11-.44.24-.74.36-.07.03-.14.05-.21.08-.56.22-1.15.34-1.73.39-1.35.11-2.64-.15-3.38-.35-.01,0-.04,0-.07-.02-.05-.01-.12-.03-.21-.06-.06-.02-.14-.05-.23-.08-.08-.03-.13-.05-.13-.05-.01,0-.02-.01-.03-.01-.08-.03-.16-.06-.24-.1-.03-.01-.06-.03-.08-.04-.07-.04-.14-.07-.21-.11l-.04-.02c-.08-.04-.16-.09-.24-.14-.02-.01-.04-.03-.06-.04-.06-.04-.13-.08-.19-.13-.01-.01-.03-.02-.04-.03-.07-.05-.14-.11-.21-.16-.01-.01-.03-.03-.04-.04-.05-.05-.11-.1-.16-.15l-.04-.04c-.06-.06-.12-.12-.18-.18,0-.01-.02-.02-.03-.03-.05-.05-.1-.11-.14-.17-.01-.01-.02-.03-.03-.04-.05-.07-.1-.13-.15-.2,0,0,0,0,0,0-.05-.06-.09-.13-.13-.2,0-.01-.01-.02-.02-.04-.09-.14-.17-.29-.25-.44,0,0,0-.01,0-.02-.15-.31-.27-.63-.36-.95-.14-.48-.22-.95-.25-1.39-.07-.56-.09-1.24.04-1.89.37-3.06,5.75-3.17,6.52-3.17h.19c.68-.03,1.26,0,1.77.05.23.02.54.06.88.14,2,.45,2.28,1.49,2.3,1.59.08.17.15.36.19.56.27.92.31,1.81.23,2.61h0Z"/>
  </g>
</svg>