<?xml version="1.0" encoding="UTF-8"?>
<svg id="Layer_2" xmlns="http://www.w3.org/2000/svg" version="1.1" xmlns:xlink="http://www.w3.org/1999/xlink" viewBox="0 0 80 80">
  <!-- Generator: Adobe Illustrator 30.2.1, SVG Export Plug-In . SVG Version: 2.1.1 Build 1)  -->
  <defs>
    <style>
      .st0 {
        fill: #dac6a4;
      }

      .st1 {
        fill: #b5957e;
      }

      .st2 {
        fill: #b8987d;
      }

      .st3 {
        fill: #714223;
      }

      .st4 {
        fill: #ccad8a;
      }

      .st5 {
        fill: #ecdab6;
      }

      .st6 {
        fill: #d7bd9d;
      }

      .st7 {
        fill: #fff;
      }

      .st8 {
        fill: #272213;
      }

      .st9 {
        fill: #e5b344;
      }

      .st10 {
        fill: #b7967d;
      }

      .st11 {
        fill: none;
      }

      .st12 {
        fill: #c0b182;
      }

      .st13 {
        fill: #f7f8f7;
        opacity: .55;
      }

      .st13, .st14 {
        isolation: isolate;
      }

      .st15 {
        fill: #decb82;
      }

      .st16 {
        fill: #d2bb9b;
      }

      .st17 {
        fill: #ba9d82;
      }

      .st18 {
        fill: #dcc5a0;
      }

      .st14 {
        fill: #22231d;
        opacity: .4;
      }

      .st19 {
        fill: #c1a587;
      }

      .st20 {
        fill: #9e7759;
      }

      .st21 {
        fill: #a98d76;
      }

      .st22 {
        fill: #462e1b;
      }

      .st23 {
        clip-path: url(#clippath);
      }

      .st24 {
        fill: #ebd9b5;
      }

      .st25 {
        fill: #3c3d39;
      }
    </style>
    <clipPath id="clippath">
      <rect class="st11" x="35.58" y="55.25" width="9.07" height="5.3"/>
    </clipPath>
  </defs>
  <g id="Layer_1-2">
    <path class="st9" d="M0,0h80v80H0V0Z"/>
    <path class="st18" d="M40.08,49.81v30.18h-16.36c-.27-.1-.4-.16-.4-.16,0-3.85.57-6.86,1.43-9.2.64-1.74,1.44-3.11,2.3-4.19,1.31-1.66,2.74-2.64,3.91-3.21.56-.28,1.05-.46,1.44-.58.58-.18.93-.22.93-.22.06,0,.12,0,.18-.02.12-.02.23-.05.33-.11.37-.18.68-.58.94-1.13.25-.53.46-1.2.63-1.99.07-.3.12-.61.18-.94.08-.56.16-1.14.23-1.76.02-.37.06-.73.1-1.12.14-1.85.18-3.87.18-5.78,0,0,2.2.23,3.98.23h0Z"/>
    <path class="st24" d="M56.91,79.84s-.14.05-.39.16h-16.44v-30.18h.04c1.77,0,3.99-.23,3.99-.23,0,1.9.04,3.89.19,5.74.04.36.08.73.1,1.09.06.64.15,1.24.24,1.8h0c.03.26.08.49.12.73.16.79.35,1.47.59,2.03.21.49.45.88.73,1.12.11.1.23.19.35.24.14.06.28.09.44.09,0,0,.63.08,1.57.44.27.1.56.23.87.39,1.06.53,2.35,1.41,3.55,2.81.97,1.14,1.89,2.62,2.61,4.56.87,2.34,1.43,5.34,1.43,9.2h0Z"/>
    <g class="st23">
      <path class="st17" d="M44.65,58.1h0c-.41.64-1.8,2.45-4.54,2.45h-.03c-2.6-.01-4.12-1.87-4.5-2.42.08-.55.16-1.13.23-1.73.03-.35.06-.72.11-1.1,1.26.31,2.65.51,4.12.54h.05c1.52-.03,2.92-.24,4.22-.58.04.35.08.72.11,1.08.06.63.15,1.22.24,1.77"/>
    </g>
    <path class="st4" d="M39.9,15.67c-17.34,0-17.43,14.35-16.66,23.75-1.18-2.23-4.71-1.55-4.42,1.97.28,3.38,5.32,5.11,5.18,4.73,2.62,6.95,9.57,12.19,15.9,12.19h.13V15.67h-.13Z"/>
    <path class="st21" d="M19.92,39.9c.85-1.36,2.18-.77,2.5-.47.35.33.62.75.41,1.55-.12.46-.6.5-.49,1.18.13.77.49.81.7,1,.2.17.45.3.57.63.13.33.15.67.08.97-.13.55-.95.1-1.49-.13-.36-.17-1.51-1.13-1.8-1.44-.72-.81-1.06-2.39-.49-3.28"/>
    <path class="st6" d="M39.99,15.67c17.34,0,17.43,14.35,16.67,23.75,1.18-2.23,4.7-1.55,4.41,1.97-.27,3.38-5.32,5.11-5.18,4.73-2.56,6.95-9.57,12.19-15.9,12.19h-.09l-.04-42.64h.13"/>
    <path class="st21" d="M59.96,39.9c-.85-1.36-2.17-.77-2.5-.47-.35.33-.61.75-.41,1.55.12.46.6.5.49,1.18-.13.77-.49.81-.69,1-.2.17-.47.3-.58.63s-.15.67-.08.97c.13.55.95.1,1.49-.13.37-.17,1.51-1.13,1.8-1.44.73-.81,1.06-2.39.49-3.28"/>
    <path class="st18" d="M39.76,19.72c-5.7,0-9.88,1.64-12.4,4.86-3.53,4.52-3.4,11.42-2.1,16.37.4,1.52.61,5.6.88,7.09,1.24,6.7,8.71,10.27,13.62,10.27h.13V19.72h-.08"/>
    <path class="st24" d="M52.14,24.59c-2.5-3.21-6.63-4.85-12.25-4.88v38.59c5.62-.06,12.34-3.97,13.49-10.27.28-1.49.48-5.57.88-7.09,1.3-4.94,1.44-11.82-2.12-16.36"/>
    <path class="st11" d="M39.2,50.06c-.08-.01-.15-.03-.21-.04.07.01.14.03.21.04M38.9,51.45c-.05-.01-.1-.02-.13-.03.04.01.09.02.13.03"/>
    <path class="st10" d="M38.99,51.47s-.05-.01-.08-.02c.03,0,.05.01.08.02M38.77,51.42s-.05-.01-.07-.02.03,0,.08.02h0Z"/>
    <path class="st6" d="M36.62,46.46c-.06-1.33,2.47-.49,3.31-.45.66.03,2.68-.42,2.85-.3,1.18.79-1.25,2.38-2.89,2.38-.44,0-3.23-.83-3.27-1.63h0Z"/>
    <path class="st11" d="M24.35,31.75c-.16.51-.26,1.07-.34,1.67,0,0,.23-.94.73-2.33-.22.3-.36.54-.4.67M39.25,50.73c-.08-.01-.16-.03-.22-.04.08.01.15.03.22.04M38.95,50.66c-.05-.01-.1-.02-.13-.03.04.01.09.02.13.03"/>
    <path class="st1" d="M39.03,50.68s-.05-.01-.08-.02c.03,0,.05.01.08.02M38.82,50.64l-.08-.02s.03,0,.08.02"/>
    <path class="st7" d="M27.45,34.78s1.32,5.37,3.59,5.81,4.73-.43,4.73-.43c0,0,.23-6.31-.93-7.14-1.16-.83-3.84-2.03-7.39,1.76h0Z"/>
    <path class="st16" d="M35.78,40.14s-.05.01-.17.06c-.03-1.94-.21-4.6-.94-5.11-1.08-.78-3.52-1.88-6.77,1.13-.3-.83-.44-1.46-.44-1.46,3.56-3.79,6.24-2.6,7.39-1.77,1.16.83.93,7.15.93,7.15h0Z"/>
    <path class="st22" d="M34.44,37.41c0,1.22-1,2.21-2.23,2.21s-2.23-.99-2.23-2.21,1-2.21,2.23-2.21,2.23.99,2.23,2.21"/>
    <path class="st3" d="M32.1,38.88c-.65-.05-1.14-.7-1.08-1.41.06-.71.65-1.27,1.3-1.21s1.14.7,1.08,1.41-.65,1.27-1.3,1.21h0Z"/>
    <path class="st8" d="M32.16,38.62c-.45-.04-.92-.53-.87-1.13.05-.6.59-1.01,1.04-.97s.91.53.87,1.13c-.05.6-.59,1.01-1.04.97h0Z"/>
    <path class="st7" d="M31.79,37.14c-.02.22-.25.38-.5.35-.26-.02-.45-.21-.44-.43s.24-.38.5-.36.45.21.44.43h0ZM33.24,38.4c-.01.11-.12.19-.25.18-.13-.01-.23-.11-.22-.21.01-.11.12-.19.25-.18.13.01.23.11.22.21"/>
    <path class="st11" d="M39.29,51.36c-.08-.01-.16-.03-.22-.04.08.01.15.03.22.04M38.98,51.3c-.05-.01-.1-.02-.13-.03.04.01.09.02.13.03"/>
    <path class="st1" d="M39.07,51.32s-.05-.01-.08-.02c.03,0,.05.01.08.02M38.85,51.27l-.08-.02s.03,0,.08.02"/>
    <path class="st11" d="M39.2,51.21c-.09-.01-.17-.03-.23-.04.08.02.16.03.23.04M38.88,51.15c-.05-.01-.11-.03-.14-.03.05.01.09.02.14.03"/>
    <path class="st10" d="M38.97,51.17s-.06-.01-.09-.02c.03,0,.05.01.09.02M38.73,51.12s-.05-.01-.08-.02.03.01.08.02h0Z"/>
    <path class="st11" d="M39.13,50.99c-.09-.01-.17-.03-.23-.04.08.02.16.03.23.04M38.81,50.92c-.05-.01-.11-.03-.14-.03.05.01.09.02.14.03"/>
    <path class="st10" d="M38.9,50.94s-.06-.01-.09-.02c.03,0,.05.01.09.02M38.66,50.89s-.05-.01-.08-.02.03.01.08.02h0Z"/>
    <path class="st11" d="M39.34,50.95c-.08-.01-.16-.03-.23-.04.08.02.15.03.23.04M39.02,50.89c-.05-.01-.1-.02-.14-.03.05.01.09.02.14.03"/>
    <path class="st10" d="M39.1,50.91s-.06-.01-.09-.02c.03,0,.05.01.09.02M38.88,50.86l-.08-.02s.03.01.08.02h0Z"/>
    <path class="st7" d="M52.47,34.6s-1.32,5.37-3.59,5.81-4.73-.43-4.73-.43c0,0-.23-6.31.93-7.14,1.16-.83,3.84-2.03,7.39,1.76h0Z"/>
    <path class="st16" d="M44.14,39.96s.05.01.17.06c.03-1.94.21-4.6.94-5.11,1.08-.78,3.52-1.88,6.77,1.13.3-.83.44-1.46.44-1.46-3.56-3.79-6.24-2.6-7.39-1.77-1.16.83-.93,7.15-.93,7.15h0Z"/>
    <path class="st22" d="M45.49,37.22c0,1.22,1,2.21,2.23,2.21s2.23-.99,2.23-2.21-1-2.21-2.23-2.21-2.23.99-2.23,2.21"/>
    <path class="st3" d="M47.83,38.7c.65-.05,1.14-.7,1.08-1.41-.06-.71-.65-1.27-1.3-1.21s-1.14.7-1.08,1.41.65,1.27,1.3,1.21h0Z"/>
    <path class="st8" d="M47.77,38.44c.45-.04.92-.53.87-1.13-.05-.6-.59-1.01-1.04-.97-.45.04-.91.53-.87,1.13.05.6.59,1.01,1.04.97h0Z"/>
    <path class="st7" d="M48.13,36.96c.02.22.25.38.5.35.26-.02.45-.21.44-.43s-.24-.38-.5-.36-.45.21-.44.43h0ZM46.69,38.21c.01.11.12.19.25.18.13-.01.23-.11.22-.21-.01-.11-.12-.19-.25-.18-.13.01-.23.11-.22.21"/>
    <path d="M37.14,34.69s-.43-.65-1.27-1.29c-.53-.4-1.04-.71-1.58-.93-.65-.27-1.35-.46-2.04-.55-.61-.07-1.3-.05-2.09.06-.61.11-1.2.29-1.7.51-.36.12-.64.29-.87.43-.09.05-.17.1-.25.14l-1.08.68,1.25-.29c.06-.01.12-.03.19-.05.26-.07.58-.15.96-.21.09-.01.18-.03.27-.05.16-.03.32-.06.49-.07.19-.01.39-.03.59-.04l.26-.02c.69,0,1.28.04,1.8.16.57.1,1.15.28,1.69.53.51.24.99.48,1.37.75.77.5,1.19.93,1.19.93.1.1.25.16.39.16.1,0,.21-.03.3-.09.25-.16.32-.5.16-.74v-.02s-.01,0-.01,0ZM52.69,33.06c-.07-.04-.15-.09-.24-.14-.23-.14-.51-.31-.86-.43-.51-.23-1.1-.4-1.72-.52-.79-.1-1.47-.12-2.09-.05-.68.09-1.38.28-2.03.55-.53.23-1.06.54-1.58.93-.83.63-1.24,1.24-1.27,1.28h0c-.14.23-.11.51.07.69.1.1.24.16.39.16s.28-.06.38-.16h0s.45-.44,1.19-.93c.37-.27.86-.51,1.36-.75.54-.25,1.12-.43,1.7-.53.51-.12,1.1-.17,1.78-.16l.27.02c.2.01.39.03.58.04.17,0,.33.04.49.07.09.02.18.04.27.05.38.05.7.14.96.21.07.02.13.04.19.05l1.25.29-1.09-.68h0Z"/>
    <path class="st11" d="M38.91,52c-.08-.01-.16-.03-.23-.04.08.02.16.03.23.04M38.59,51.93c-.05-.01-.1-.03-.14-.03l.14.03Z"/>
    <path class="st2" d="M38.68,51.96s-.06-.01-.09-.02c.03,0,.05.01.09.02M38.45,51.91s-.05-.01-.08-.02.03.01.08.02"/>
    <path class="st5" d="M36.69,53.06c-.06-.87,2.43.18,3.25.21.65.02,2.62-.13,2.8-.2,1.37-.51-.08,1.44-2.84,1.55-1.27.05-3.17-1.03-3.21-1.56h0Z"/>
    <path class="st0" d="M44.81,51.4c-.68-.03-1.37.53-2.19.44-.03-.02-.05-.02-.08-.02-.19-.03-.37,0-.58.05-.25.05-.51.15-.75.24-.41.13-.87.24-1.34.2s-.02,0-.03,0h-.03c-.47.03-.93-.07-1.34-.2-.24-.08-.49-.18-.75-.24-.2-.05-.39-.08-.58-.05-.04,0-.05,0-.08.02-.82.09-1.51-.47-2.19-.44-.19.02-.46-.03-.61-.03.03.02.07.03.1.05,1.93.93,3.6,2.68,5.44,2.62h.05c1.84.06,3.51-1.69,5.44-2.62.04-.02.07-.03.1-.05-.15,0-.42.05-.61.03h0Z"/>
    <path class="st19" d="M45.38,51.34s-1.96-.75-3.36-.31c0,0-.52.2-1.06.32-.33.13-.73.16-1.11.15-.29-.01-.57-.05-.8-.09-.08-.01-.15-.03-.23-.04-.03,0-.06-.01-.09-.02l-.14-.03c-.05-.01-.08-.02-.08-.02-.45-.12-.83-.27-.83-.27-1.4-.44-3.36.31-3.36.31-.03.01-.04.02-.04.02.15,0,.42.05.61.03.68-.03,1.37.53,2.19.44.03-.02.05-.02.08-.02.19-.03.37,0,.58.05.25.05.51.15.75.24.41.13.87.24,1.34.2s.02,0,.03,0h.03c.47.03.93-.07,1.34-.2.24-.08.49-.18.75-.24.2-.05.39-.08.58-.05.04,0,.05,0,.08.02.82.09,1.51-.47,2.19-.44.19.02.46-.03.61-.03,0,0-.02,0-.04-.02h0Z"/>
    <path class="st19" d="M36.56,51.8s3.68,1.11,6.53.03l-.33-.22h-3.85l-2.35.19Z"/>
    <path class="st25" d="M55.41,14.67c-4.16-4.38-10.26-6.5-10.26-6.5l1.69,1.58c-1.01-.77-2.82-1.85-5.83-2.79-4.29-1.34-7.07.15-7.07.15,0,0,2.24-.08,3.34.8-1.08-.46-2.95-.62-6.06.65-6.1,2.5-6,6.99-10.25,8.36-4.35,1.41-5.61-.4-5.61-.4,0,0,1.89,3.18,5.24,3.18.54,0,.6-.01.6-.01,0,.01-1.26,3.4-1.5,5.94-.25,2.59.52,4.36.76,9.2.21,4.14,1.31,2.02,2.62,5.07.44,1.02.46,2.17.46,2.17.49.12,1.77-2.49.85-7.01-.39-1.94.75-7.44,3.62-10.34-1.71,6.39.74,10.24.74,10.24.09-6.59,2.84-8.37,5.71-11.6.44.16-.38-.18,0,0-4.09,7.32-1.36,16.82-1.36,16.82-.16-8.09,6.72-13.5,8.85-14.98.2-.12.4-.25.62-.41,1.17-.86,2.53-1.57,3.94-1.98.94,1.9,1.55,4.22,1.1,6.78,0,0,2-3.18,1.77-6.95,1.73,1.82,4.81,5.85,3.94,10.8,0,0,2.15-3.4,1.74-7.35,1.08,1.98,1.56,4.73,1.25,8.28-.65,7.51.57,7.45.57,7.45.36,0-.03-2,1.19-3.38s3.08-6.01,3.08-10.64-1.59-8.75-5.75-13.13h.01Z"/>
    <path class="st20" d="M52.88,66.08c-1.25,1.63-2.46,3-3.64,4.15-.15.14-.29.28-.44.42-.11.1-.22.2-.33.3-.12.11-.25.22-.36.33-.25.22-.5.43-.75.63-.31.25-.63.49-.94.72-.31.23-.61.43-.92.62-.15.1-.3.19-.45.28-.15.09-.3.17-.45.25-.1.05-.19.11-.29.15-.09.05-.19.1-.28.15-.23.11-.45.21-.68.31-.03.01-.06.03-.09.04-.14.05-.28.11-.41.16-.14.05-.29.1-.43.15-.14.05-.28.09-.42.13-.14.04-.28.08-.42.11-.14.03-.28.06-.42.09-.36.08-.73.13-1.08.16-.16.02-.31.03-.47.03-.15,0-.3.01-.45.01h-.03c-.18,0-.36,0-.54-.02-.14,0-.29-.02-.44-.04-.17-.02-.33-.04-.49-.06-.15-.02-.3-.05-.45-.08-.02,0-.05,0-.07-.02-.1-.02-.21-.04-.3-.07-.12-.03-.23-.06-.35-.09-.13-.03-.26-.07-.38-.11-.11-.04-.22-.07-.32-.11-.31-.11-.61-.24-.91-.39-.16-.08-.33-.16-.49-.25-.16-.08-.31-.17-.47-.26-.27-.16-.55-.33-.81-.51-.09-.06-.18-.12-.27-.19-.26-.19-.51-.38-.75-.58-.11-.09-.22-.18-.33-.28-.74-.64-1.43-1.34-2.06-2.08-.12-.14-.25-.29-.36-.43-.35-.43-.7-.87-1.02-1.32-.1-.15-.22-.3-.32-.44-.34-.49-.66-.98-.97-1.47,1.31-1.66,2.74-2.64,3.91-3.21,1.67,3.55,4.83,8.67,9.12,8.42,2.67-.16,5.78-2.4,9.25-8.39,1.06.53,2.35,1.41,3.55,2.81h0Z"/>
    <path class="st12" d="M49.33,63.26c-3.47,5.99-6.57,8.22-9.25,8.39-4.29.25-7.45-4.87-9.12-8.42.56-.28,1.05-.46,1.44-.58.58-.18.93-.22.93-.22.06,0,.12,0,.18-.02.12-.02.23-.05.33-.11.65,1.16,1.52,2.5,2.57,3.57,1.07,1.09,2.31,1.88,3.67,1.88,1.08,0,2.23-.49,3.42-1.74.86-.89,1.72-2.16,2.6-3.91.11.1.23.19.35.24.14.06.28.09.44.09,0,0,.63.08,1.57.44.27.1.56.23.87.39h0Z"/>
    <path class="st15" d="M56.91,79.84s-.14.05-.39.16H23.72c-.27-.1-.4-.16-.4-.16,0-3.85.57-6.86,1.43-9.2.64-1.74,1.44-3.11,2.3-4.19.3.49.63.98.97,1.47.1.15.21.3.32.44.32.45.66.89,1.02,1.32.12.14.24.29.36.43.64.74,1.32,1.44,2.06,2.08.11.1.22.19.33.28.25.2.49.4.75.58.09.06.18.13.27.19.26.19.53.36.81.51.16.09.31.18.47.26.16.09.33.17.49.25.3.14.6.28.91.39.1.04.21.08.32.11.12.04.25.08.38.11.12.03.23.06.35.09.1.03.2.05.3.07.02.01.05.02.07.02.15.03.3.06.45.08.16.03.32.05.49.06.15.02.3.03.44.04.18.01.36.02.54.02h.03c.15,0,.3,0,.45-.01.16,0,.31-.02.47-.03.35-.03.71-.09,1.08-.16.14-.03.27-.06.42-.09.14-.04.28-.07.42-.11.14-.04.28-.08.42-.13.14-.05.29-.1.43-.15.13-.05.27-.1.41-.16.03-.01.05-.03.09-.04.22-.09.45-.2.68-.31.09-.05.19-.09.28-.15.1-.04.19-.1.29-.15.15-.08.3-.16.45-.25.16-.09.3-.18.45-.28.3-.19.61-.4.92-.62.31-.22.63-.46.94-.72.25-.2.5-.41.75-.63.12-.1.25-.21.36-.33.1-.1.22-.2.33-.3.14-.14.29-.28.44-.42,1.18-1.15,2.39-2.52,3.64-4.15.97,1.14,1.89,2.62,2.61,4.56.87,2.34,1.43,5.34,1.43,9.2h.01Z"/>
    <path class="st14" d="M36.13,40.44c.16-.55.25-1.13.25-1.73,0-3.39-2.76-6.14-6.17-6.14s-6.17,2.75-6.17,6.14c0,.75.14,1.47.39,2.14,2.81-1.24,7.21-2.4,11.7-.41h0ZM54.15,41.77c.52-.9.82-1.94.82-3.06,0-3.39-2.76-6.14-6.17-6.14s-6.17,2.75-6.17,6.14c0,1.19.35,2.29.93,3.23,2.77-1.42,6.58-2.33,10.59-.17M37.09,40.92c-.02.06-.04.13-.06.18.03-.06.06-.1.09-.16-.01,0-.03-.01-.04-.02"/>
    <path class="st13" d="M37.09,40.92c-.02.06-.04.13-.06.18.03-.06.06-.1.09-.16-.01,0-.03-.01-.04-.02"/>
    <path class="st14" d="M30.21,44.85c2.8,0,5.17-1.86,5.92-4.41-4.49-2-8.89-.84-11.7.41.87,2.33,3.13,4,5.78,4"/>
    <path class="st13" d="M30.21,44.85c2.8,0,5.17-1.86,5.92-4.41-4.49-2-8.89-.84-11.7.41.87,2.33,3.13,4,5.78,4"/>
    <path class="st14" d="M42.53,42.51c.09.14.2.25.3.38-.09-.13-.19-.26-.27-.4-.01,0-.02.01-.03.01"/>
    <path class="st13" d="M42.53,42.51c.09.14.2.25.3.38-.09-.13-.19-.26-.27-.4-.01,0-.02.01-.03.01"/>
    <path class="st14" d="M48.81,44.85c2.29,0,4.28-1.24,5.35-3.09-4.01-2.16-7.82-1.25-10.59.17,1.09,1.74,3.03,2.91,5.25,2.91h0Z"/>
    <path class="st13" d="M48.81,44.85c2.29,0,4.28-1.24,5.35-3.09-4.01-2.16-7.82-1.25-10.59.17,1.09,1.74,3.03,2.91,5.25,2.91h0Z"/>
    <path class="st7" d="M55.83,36.98s-.06,0-.09,0c-.43-1.74-1.5-3.24-2.95-4.23-1.16-.79-2.56-1.26-4.07-1.26s-2.78.42-3.91,1.14c-1.45.93-2.55,2.36-3.04,4.05h-4.62c-.69-2.34-2.53-4.19-4.88-4.89-.66-.19-1.35-.3-2.08-.3-.82,0-1.6.14-2.32.39-2.32.79-4.11,2.71-4.7,5.1-.03,0-.06-.01-.1-.01-.36,0-.66.29-.66.65v1.92c0,.36.29.65.66.65h.06c.01.06.03.13.04.19.55,2.27,2.16,4.12,4.28,4.98.84.35,1.77.54,2.74.54,1.93,0,3.68-.75,4.98-1.97.83-.78,1.47-1.76,1.86-2.85.02-.06.04-.12.06-.18.17-.54.3-1.11.34-1.69.31-.13.63-.23.96-.3.83-.18,1.68-.14,2.39.09.26.09.52.19.73.33.1,1.14.47,2.22,1.05,3.14.08.14.18.26.27.4,1.31,1.83,3.45,3.03,5.89,3.03.69,0,1.36-.1,1.99-.28,1.75-.5,3.23-1.64,4.16-3.14.43-.69.75-1.47.92-2.29h.04c.36,0,.65-.29.65-.65v-1.92c0-.36-.29-.65-.65-.65h0ZM36.13,40.44c-.75,2.55-3.12,4.41-5.92,4.41-2.65,0-4.91-1.67-5.78-4-.25-.67-.39-1.38-.39-2.14,0-3.39,2.76-6.14,6.17-6.14s6.17,2.75,6.17,6.14c0,.6-.09,1.18-.25,1.73h0ZM41.49,38.47c-.23-.1-.48-.18-.74-.25-.72-.18-1.53-.21-2.32-.07-.34.06-.68.14-1,.26-.01-.37-.06-.73-.13-1.09h4.31c-.07.37-.12.75-.13,1.15h0ZM54.15,41.77c-1.06,1.84-3.06,3.09-5.35,3.09s-4.16-1.17-5.25-2.91c-.58-.94-.93-2.04-.93-3.23,0-3.39,2.77-6.14,6.17-6.14s6.17,2.75,6.17,6.14c0,1.11-.3,2.16-.82,3.06h0Z"/>
  </g>
</svg>