<?xml version="1.0" encoding="UTF-8"?>
<svg id="Layer_2" xmlns="http://www.w3.org/2000/svg" version="1.1" xmlns:xlink="http://www.w3.org/1999/xlink" viewBox="0 0 80 80">
  <!-- Generator: Adobe Illustrator 30.2.1, SVG Export Plug-In . SVG Version: 2.1.1 Build 1)  -->
  <defs>
    <style>
      .st0 {
        fill: #dac6a4;
      }

      .st1 {
        fill: #41364e;
      }

      .st2 {
        fill: #b5957e;
      }

      .st3 {
        fill: #b8987d;
      }

      .st4 {
        fill: #535451;
      }

      .st5 {
        fill: #714223;
      }

      .st6 {
        fill: #22241e;
      }

      .st7 {
        fill: #ccad8a;
      }

      .st8 {
        fill: #ecdab6;
      }

      .st9 {
        fill: #d7bd9d;
      }

      .st10 {
        fill: #cc710c;
      }

      .st11 {
        fill: #fff;
      }

      .st12 {
        fill: #272213;
      }

      .st13 {
        fill: #b7967d;
      }

      .st14 {
        fill: none;
      }

      .st15 {
        fill: #d2bb9b;
      }

      .st16 {
        fill: #ba9d82;
      }

      .st17 {
        fill: #dcc5a0;
      }

      .st18 {
        fill: #cd860e;
      }

      .st19 {
        fill: #c1a587;
      }

      .st20 {
        fill: #a98d76;
      }

      .st21 {
        fill: #462e1b;
      }

      .st22 {
        clip-path: url(#clippath);
      }

      .st23 {
        fill: #ebd9b5;
      }

      .st24 {
        fill: #3c3d39;
      }
    </style>
    <clipPath id="clippath">
      <rect class="st14" x="36.68" y="55.41" width="8.99" height="5.31"/>
    </clipPath>
  </defs>
  <g id="Layer_1-2">
    <path class="st1" d="M0,0h80v79.96H0V0Z"/>
    <path class="st17" d="M41.13,49.96v30.04h-16.22c-.27-.1-.39-.16-.39-.16,0-1.43.08-2.75.22-3.96.14-1.18.34-2.25.59-3.23.18-.7.39-1.36.61-1.97,1.16-3.17,2.87-5.13,4.46-6.32,1.22-.92,2.37-1.39,3.13-1.63.56-.18.92-.22.92-.22h.02c.06,0,.1,0,.16-.02h0c.51-.08.92-.53,1.26-1.24.25-.53.45-1.2.62-1.98.06-.3.11-.61.18-.94.08-.56.15-1.14.21-1.74.03-.37.06-.73.11-1.12.14-1.84.19-3.85.19-5.75,0,0,2.18.23,3.94.23h0Z"/>
    <path class="st23" d="M57.83,79.84s-.14.05-.38.16h-16.31v-30.04h.04c1.76,0,3.96-.23,3.96-.23,0,1.89.03,3.87.18,5.71.04.36.08.73.1,1.09.06.63.15,1.23.24,1.78h0c.03.26.08.49.13.73.15.79.35,1.47.59,2.03.29.68.64,1.17,1.07,1.35.05.02.11.04.17.06.08.02.18.03.27.03,0,0,.09.01.24.04h0c.26.05.72.17,1.3.4.68.26,1.52.68,2.4,1.33,1.62,1.19,3.38,3.16,4.58,6.4.23.61.42,1.27.61,1.97.24.96.44,2.02.58,3.17.14,1.22.23,2.56.23,4.01h0Z"/>
    <g class="st22">
      <path class="st16" d="M45.67,58.26h0c-.41.65-1.78,2.46-4.5,2.46h-.03c-2.57-.01-4.08-1.88-4.46-2.43.08-.55.16-1.13.23-1.73.03-.35.06-.72.11-1.1,1.25.31,2.63.51,4.08.54h.05c1.5-.03,2.89-.24,4.18-.58.04.35.08.72.11,1.08.06.63.15,1.22.24,1.77"/>
    </g>
    <path class="st7" d="M40.95,15.71c-17.19,0-17.28,14.39-16.52,23.82-1.17-2.23-4.68-1.55-4.39,1.97.28,3.39,5.28,5.12,5.14,4.75,2.6,6.97,9.49,12.22,15.77,12.22h.13V15.71h-.13Z"/>
    <path class="st20" d="M21.15,40.02c.84-1.37,2.17-.78,2.48-.47.34.33.62.75.41,1.55-.12.46-.59.5-.49,1.18.13.78.49.81.7,1,.2.17.45.3.57.63.13.33.15.67.08.97-.13.55-.94.1-1.48-.13-.36-.17-1.49-1.13-1.78-1.45-.71-.81-1.06-2.39-.49-3.28"/>
    <path class="st9" d="M41.04,15.71c17.19,0,17.28,14.39,16.53,23.82,1.17-2.23,4.66-1.55,4.37,1.97-.26,3.39-5.27,5.12-5.14,4.75-2.53,6.97-9.49,12.22-15.77,12.22h-.09l-.04-42.76h.13"/>
    <path class="st20" d="M60.85,40.02c-.84-1.37-2.15-.78-2.48-.47-.34.33-.61.75-.41,1.55.12.46.59.5.49,1.18-.13.78-.49.81-.69,1-.2.17-.46.3-.58.63s-.15.67-.08.97c.13.55.94.1,1.48-.13.37-.17,1.49-1.13,1.78-1.45.73-.81,1.06-2.39.49-3.28"/>
    <path class="st17" d="M40.82,19.78c-5.65,0-9.8,1.64-12.29,4.87-3.5,4.54-3.37,11.45-2.09,16.42.4,1.53.61,5.61.87,7.11,1.23,6.72,8.63,10.29,13.51,10.29h.13V19.78h-.08"/>
    <path class="st23" d="M53.1,24.67c-2.48-3.22-6.58-4.86-12.15-4.89v38.7c5.57-.06,12.24-3.98,13.38-10.29.28-1.5.48-5.59.87-7.11,1.29-4.95,1.42-11.85-2.1-16.4"/>
    <path class="st14" d="M40.26,50.2c-.08-.01-.15-.03-.21-.04.07.01.14.03.21.04M39.97,51.6c-.05-.01-.1-.02-.13-.03.04.01.09.02.13.03"/>
    <path class="st13" d="M40.05,51.61s-.05-.01-.08-.02c.03,0,.05.01.08.02M39.84,51.57s-.05-.01-.07-.02.03,0,.08.02h0Z"/>
    <path class="st14" d="M25.54,31.84c-.15.51-.26,1.07-.33,1.67,0,0,.23-.94.73-2.34-.21.3-.36.54-.39.67M40.31,50.87c-.08-.01-.15-.03-.22-.04.08.01.15.03.22.04M40.01,50.81c-.05-.01-.1-.02-.13-.03.04.01.09.02.13.03"/>
    <path class="st2" d="M40.09,50.83s-.05-.01-.08-.02c.03,0,.05.01.08.02M39.88,50.78l-.08-.02s.03.01.08.02"/>
    <path class="st11" d="M28.62,34.88s1.31,5.39,3.56,5.83,4.69-.44,4.69-.44c0,0,.23-6.33-.92-7.16-1.15-.83-3.81-2.03-7.33,1.77"/>
    <path class="st15" d="M36.87,40.26s-.05.01-.17.06c-.03-1.94-.21-4.61-.93-5.12-1.07-.79-3.49-1.89-6.72,1.13-.29-.84-.44-1.47-.44-1.47,3.53-3.81,6.19-2.61,7.33-1.78,1.15.83.92,7.17.92,7.17"/>
    <path class="st21" d="M35.54,37.51c0,1.23-.99,2.22-2.22,2.22s-2.22-.99-2.22-2.22.99-2.22,2.22-2.22,2.22.99,2.22,2.22"/>
    <path class="st5" d="M33.22,38.99c-.64-.05-1.13-.7-1.07-1.41s.65-1.27,1.29-1.22,1.13.7,1.07,1.41c-.06.71-.65,1.27-1.29,1.22h0Z"/>
    <path class="st12" d="M33.28,38.73c-.44-.04-.91-.53-.86-1.13.05-.6.58-1.01,1.03-.98.45.04.91.53.86,1.13-.05.6-.58,1.01-1.03.98h0Z"/>
    <path class="st11" d="M32.91,37.25c-.02.22-.24.38-.5.36-.26-.02-.45-.22-.43-.43.02-.22.24-.38.5-.36s.45.21.43.44h0ZM34.35,38.51c-.01.11-.12.19-.25.18-.13-.01-.23-.11-.22-.22.01-.11.12-.19.25-.18.13.01.23.11.22.22"/>
    <path class="st14" d="M40.35,51.5c-.08-.01-.15-.03-.22-.04.08.01.15.03.22.04M40.05,51.45c-.05-.01-.1-.02-.13-.03.04.01.09.02.13.03"/>
    <path class="st2" d="M40.13,51.47s-.05-.01-.08-.02c.03,0,.05.01.08.02M39.92,51.42l-.08-.02s.03,0,.08.02"/>
    <path class="st14" d="M40.26,51.35c-.09-.01-.16-.03-.23-.05.08.02.16.03.23.05M39.94,51.29c-.05-.01-.11-.03-.14-.03.05.01.09.02.14.03"/>
    <path class="st13" d="M40.03,51.31s-.06-.01-.09-.02c.03,0,.05.01.09.02M39.8,51.26s-.05-.01-.08-.02.03.01.08.02h0Z"/>
    <path class="st14" d="M40.2,51.13c-.09-.01-.16-.03-.23-.04.08.02.16.03.23.04M39.87,51.07c-.05-.01-.11-.03-.14-.03.05.01.09.02.14.03"/>
    <path class="st13" d="M39.96,51.09s-.06-.01-.09-.02c.03,0,.05.01.09.02M39.73,51.03s-.05-.01-.08-.02.03.01.08.02h0Z"/>
    <path class="st14" d="M40.4,51.1c-.08-.01-.16-.03-.23-.04.08.02.15.03.23.04M40.08,51.04c-.05-.01-.1-.02-.14-.03.05.01.09.02.14.03"/>
    <path class="st13" d="M40.17,51.05s-.06-.01-.09-.02c.03,0,.05.01.09.02M39.94,51l-.08-.02s.03.01.08.02h0Z"/>
    <path class="st11" d="M53.42,34.7s-1.31,5.39-3.56,5.83-4.69-.44-4.69-.44c0,0-.23-6.33.92-7.16,1.15-.83,3.81-2.03,7.33,1.77"/>
    <path class="st15" d="M45.16,40.08s.05.01.17.06c.03-1.94.21-4.61.93-5.12,1.07-.79,3.49-1.89,6.72,1.13.29-.84.44-1.47.44-1.47-3.53-3.81-6.19-2.61-7.33-1.78-1.15.83-.92,7.17-.92,7.17"/>
    <path class="st21" d="M46.5,37.33c0,1.23.99,2.22,2.22,2.22s2.22-.99,2.22-2.22-.99-2.22-2.22-2.22-2.22.99-2.22,2.22"/>
    <path class="st5" d="M48.82,38.81c.64-.05,1.13-.7,1.07-1.41s-.65-1.27-1.29-1.22-1.13.7-1.07,1.41c.06.71.65,1.27,1.29,1.22h0Z"/>
    <path class="st12" d="M48.76,38.55c.44-.04.91-.53.86-1.13-.05-.6-.58-1.01-1.03-.98-.44.04-.91.53-.86,1.13.05.6.58,1.01,1.03.98h0Z"/>
    <path class="st11" d="M49.12,37.07c.02.22.24.38.5.36.26-.02.45-.22.43-.43-.02-.22-.24-.38-.5-.36s-.45.21-.43.44h0ZM47.68,38.32c.01.11.12.19.25.18.13-.01.23-.11.22-.22-.01-.11-.12-.19-.25-.18-.13.01-.23.11-.22.22"/>
    <path d="M38.22,34.8s-.43-.65-1.26-1.29c-.52-.4-1.03-.71-1.57-.94-.65-.27-1.34-.46-2.02-.56-.61-.07-1.29-.05-2.08.06-.6.11-1.19.29-1.69.51-.35.12-.64.3-.86.43-.09.05-.16.1-.24.14l-1.07.68,1.24-.29c.06-.01.12-.03.19-.05.26-.07.58-.15.95-.21.09-.01.18-.03.27-.05.16-.03.32-.06.49-.07.19-.01.38-.03.58-.04l.26-.02c.69,0,1.27.04,1.78.16.56.1,1.14.28,1.67.53.5.24.98.48,1.36.75.76.51,1.18.93,1.18.93.1.1.24.16.38.16.1,0,.2-.03.29-.09.25-.16.32-.5.16-.74v-.02s-.01,0-.01,0ZM53.64,33.16c-.07-.04-.15-.09-.24-.14-.23-.14-.5-.31-.85-.43-.51-.23-1.1-.4-1.71-.52-.78-.1-1.46-.13-2.07-.05-.67.09-1.37.29-2.02.56-.53.23-1.05.54-1.57.94-.82.63-1.23,1.24-1.26,1.29h0c-.14.23-.11.51.07.69.1.1.24.16.38.16s.28-.06.38-.16h0s.45-.44,1.18-.94c.37-.27.85-.51,1.35-.75.53-.25,1.11-.43,1.68-.53.51-.12,1.09-.17,1.76-.16l.27.02c.2.01.39.03.58.04.16,0,.33.04.48.07.09.02.18.04.27.05.38.05.69.14.95.21.07.02.13.04.19.05l1.24.29-1.08-.68h0Z"/>
    <path class="st14" d="M39.97,52.14c-.08-.01-.16-.03-.23-.04.08.02.15.03.23.04M39.65,52.08c-.05-.01-.1-.03-.14-.03l.14.03Z"/>
    <path class="st3" d="M39.74,52.1s-.06-.01-.09-.02c.03,0,.05.01.09.02M39.51,52.05s-.05-.01-.08-.02.03.01.08.02"/>
    <path class="st8" d="M37.77,53.21c-.06-.86,2.41.18,3.22.21.65.02,2.6-.13,2.77-.2,1.36-.51-.08,1.45-2.82,1.55-1.26.05-3.14-1.04-3.18-1.56h0Z"/>
    <path class="st0" d="M45.83,51.54c-.67-.03-1.36.53-2.17.44-.03-.02-.05-.02-.08-.02-.19-.03-.37,0-.57.05-.25.05-.5.15-.74.24-.4.13-.86.24-1.33.2s-.02,0-.03,0h-.03c-.47.03-.92-.07-1.33-.2-.24-.08-.49-.19-.74-.24-.2-.05-.39-.08-.57-.05-.04,0-.05,0-.08.02-.81.09-1.5-.48-2.17-.44-.19.02-.45-.03-.61-.03.03.02.07.03.1.05,1.92.94,3.57,2.69,5.4,2.63h.05c1.83.06,3.48-1.69,5.4-2.63.04-.02.07-.03.1-.05-.15,0-.42.05-.61.03h0Z"/>
    <path class="st19" d="M46.39,51.49s-1.95-.75-3.33-.31c0,0-.52.2-1.05.33-.33.13-.72.16-1.1.15-.29-.01-.57-.05-.79-.09-.08-.01-.15-.03-.23-.04-.03,0-.06-.01-.09-.02l-.14-.03c-.05-.01-.08-.02-.08-.02-.44-.12-.82-.27-.82-.27-1.39-.44-3.33.31-3.33.31-.03.01-.04.02-.04.02.15,0,.42.05.61.03.67-.03,1.36.53,2.17.44.03-.02.05-.02.08-.02.19-.03.37,0,.57.05.25.05.5.15.74.24.4.13.86.24,1.33.2s.02,0,.03,0h.03c.47.03.92-.07,1.33-.2.24-.08.49-.19.74-.24.2-.05.39-.08.57-.05.04,0,.05,0,.08.02.81.09,1.5-.48,2.17-.44.19.02.45-.03.61-.03,0,0-.02,0-.04-.02h0Z"/>
    <path class="st19" d="M37.64,51.95s3.65,1.11,6.48.03l-.33-.22h-3.82l-2.33.2h0Z"/>
    <path class="st6" d="M39.86,68.71v11.29h-13.21v-3.66l-1.92-.45c.14-1.18.34-2.25.59-3.23.18-.7.39-1.36.61-1.97,1.16-3.17,2.87-5.13,4.46-6.32,1.97,1.72,5.3,3.97,9.47,4.35h0Z"/>
    <path class="st24" d="M39.86,65.19v3.52c-4.17-.38-7.5-2.63-9.47-4.35,1.22-.92,2.37-1.39,3.13-1.63.56-.18.92-.22.92-.22h.02l3.38,1.95c.63.36,1.32.61,2.03.74"/>
    <path class="st6" d="M57.6,75.83l-2.16.51v3.66h-13.03v-11.3c2.87-.29,6.07-1.55,9.43-4.41,1.62,1.19,3.38,3.16,4.58,6.4.23.61.42,1.27.61,1.97.24.96.44,2.02.58,3.17"/>
    <path class="st24" d="M51.84,64.28c-3.37,2.87-6.56,4.13-9.43,4.41v-3.56c.58-.14,1.15-.35,1.68-.65l3.54-2.01c.08.02.18.03.27.03,0,0,.09.01.24.04h0c.26.05.72.17,1.3.4.68.26,1.52.68,2.4,1.33h0Z"/>
    <path class="st9" d="M37.67,46.87c-.06-1.34,2.45-.49,3.28-.45.66.03,2.65-.42,2.82-.3,1.17.79-1.24,2.39-2.86,2.39-.43,0-3.2-.83-3.24-1.64h0Z"/>
    <path class="st18" d="M56.25,49.91c-.16-.78-.24-1.22-.26-1.53h-.16c1.03-1.45,1.6-3.08,1.6-4.8,0-1.37-.37-2.68-1.03-3.89.05-.07-.11-.14-.05-.2h-1.6c-.06,2.78-.72,5.53-2.61,7.36-1.29,1.25-2.83.94-3.87.54.66-.23,1.34-.55,1.6-1.19.1-.23.45-2.11-.29-.95-.27.42-.19.93-1.73,1.08s-.03,0-.06,0c-.15.01-.31.02-.49.02,0,0-.21,0-.49-.04-1.45-.11-2.97-3.01-6.2-3.01s-4.75,2.89-6.2,3.01c-.27.04-.49.04-.49.04-.18,0-.34,0-.49-.02-.04,0-.06,0-.06,0-1.54-.16-1.46-.67-1.73-1.09-.75-1.15-.39.72-.29.95.26.64.95.96,1.6,1.19-1.04.41-2.58.72-3.87-.54-1.88-1.83-2.55-4.58-2.61-7.36h-1.6c.06.07-.1.13-.05.2-.67,1.21-1.03,2.52-1.03,3.89,0,1.72.57,3.34,1.6,4.8h-.16c-.01.31-.09.76-.26,1.53-.44,2.14-1.76,2.7-1.76,2.7,0,0,2.03-.81,2.52-1.37.24-.27.87-1,1.06-1.24,0,0,.01.01.02.02-.11.25-.38,1.04,0,2.57.05.2.12.39.19.57,0,0,.43,1.18,1.4,2.46.15.2.31.39.48.59.15.18.3.38.47.59,6.5,7.98,19.2,7.04,24.07-2.02.13-.24.25-.48.37-.72.28-.53.4-.89.4-.89.08-.19.14-.37.19-.57.37-1.53.11-2.32,0-2.57,0,0,.01-.01.02-.02.19.23.82.97,1.06,1.24.49.55,2.52,1.37,2.52,1.37,0,0-1.32-.56-1.76-2.7h0ZM35.67,48.61c.52-.56,1.7-1.18,4.32-1.36.26-.01.48-.03.62-.04.13,0,.35.02.62.04,3.04.21,4.13,1,4.52,1.62.15.25.2.47.2.63,0,.07-.01.14-.02.21-.41,1.59-1.94,1.47-2.71,1.3-.09-.02-.16-.04-.23-.06-.07-.03-.14-.05-.22-.07h-.01c-.56-.16-1.28-.25-2.07-.25h-.16c-.79,0-1.51.1-2.07.25s0,0-.01,0c-.06.02-.13.04-.19.06-.01,0-.03,0-.04.01-.65.18-2.49.53-2.94-1.24l-.02-.21c0-.2.08-.53.4-.89h.01Z"/>
    <path class="st10" d="M25.5,42.66c-.33,0,.03-1.81-1.09-3.05-1.12-1.25-2.82-5.44-2.82-9.63s1.46-7.92,5.26-11.88c3.8-3.96,9.38-5.89,9.38-5.89l-2.57,2.38s1.39-1.93,6.36-3.47c3.92-1.22,6.47.14,6.47.14,0,0-2.58-.09-3.37,1.05-.2.29-.92.73-.92.73,0,0,1.2-2.73,6.79-.47,5.58,2.27,5.48,6.32,9.37,7.57,3.98,1.28,5.13-.36,5.13-.36,0,0-1.73,2.87-4.79,2.88-.59,0-.55-.01-.55-.01,0,0,1.15,3.08,1.37,5.37.23,2.34-.48,3.95-.69,8.33-.19,3.74-1.2,1.82-2.39,4.59-.4.93-.42,1.97-.42,1.97-.45.11-1.61-2.25-.78-6.34.55-2.66-2.15-12.73-8.66-10.77-3.98,1.2-4.99,3.65-7.97,1.48-2.57-1.87-6.16-2.95-8.84-1.47s-4.19,4.82-3.73,10.14c.6,6.79-.52,6.74-.52,6.74h0Z"/>
    <path class="st24" d="M42.4,71.23h4.13c1.4,0,2.54,1.13,2.54,2.53h-6.67v-2.53ZM35.71,71.23h4.13v2.53h-6.67c0-1.4,1.13-2.53,2.54-2.53"/>
    <path class="st4" d="M39.85,77.67h-4.13c-1.4,0-2.54-1.13-2.54-2.53h6.67v2.53ZM46.53,77.67h-4.13v-2.53h6.67c0,1.4-1.13,2.53-2.54,2.53"/>
  </g>
</svg>