<?xml version="1.0" encoding="UTF-8"?>
<svg id="Layer_2" xmlns="http://www.w3.org/2000/svg" version="1.1" xmlns:xlink="http://www.w3.org/1999/xlink" viewBox="0 0 80 80">
  <!-- Generator: Adobe Illustrator 30.2.1, SVG Export Plug-In . SVG Version: 2.1.1 Build 1)  -->
  <defs>
    <style>
      .st0 {
        fill: #dac6a4;
      }

      .st1 {
        fill: #b5957e;
      }

      .st2 {
        fill: #b8987d;
      }

      .st3 {
        fill: #ccad8a;
      }

      .st4 {
        fill: #ecdab6;
      }

      .st5 {
        fill: #d7bd9d;
      }

      .st6 {
        fill: #435975;
      }

      .st7 {
        fill: #fff;
      }

      .st8 {
        fill: #272213;
      }

      .st9 {
        fill: #b7967d;
      }

      .st10 {
        fill: none;
      }

      .st11 {
        fill: #4e5b7a;
      }

      .st12 {
        fill: #d2bb9b;
      }

      .st13 {
        fill: #ba9d82;
      }

      .st14 {
        fill: #dcc5a0;
      }

      .st15 {
        fill: #49463f;
      }

      .st16 {
        fill: #c1a587;
      }

      .st17 {
        fill: #44361f;
      }

      .st18 {
        fill: #678dc5;
      }

      .st19 {
        fill: #bfb2cd;
      }

      .st20 {
        fill: #a98d76;
      }

      .st21 {
        fill: #42413b;
      }

      .st22 {
        clip-path: url(#clippath);
      }

      .st23 {
        fill: #ebd9b5;
      }
    </style>
    <clipPath id="clippath">
      <rect class="st10" x="35.62" y="53.72" width="10.08" height="7.06"/>
    </clipPath>
  </defs>
  <g id="Layer_1-2">
    <path class="st19" d="M0,0h80v80H0V0Z"/>
    <path class="st17" d="M36.13,19.39l-.07.07v.02s.05-.07.07-.09"/>
    <path class="st15" d="M56.34,53.3c.52.65,2.67,1.62,2.67,1.62,0,0-1.39-.67-1.86-3.19-.17-.92-.26-1.45-.27-1.82h-.31c1.08-1.72,1.69-3.65,1.69-5.68,0-2.64-.64-5.07-2.4-7.14.06.59-.33,1.82-.33,2.43,0,6.22-3.24,10.88-8.06,13.48.23-.69.36-1.47.36-2.32,0-1.58-.45-2.98-1.14-3.82-1.13-1.86-3.42-.29-6.06-.28-2.65,0-4.93-1.58-6.06.28-.69.84-1.14,2.23-1.14,3.82,0,.85.14,1.63.36,2.32-4.82-2.61-8.06-7.27-8.06-13.48,0-.61-.4-1.84-.33-2.43-1.76,2.07-2.4,4.5-2.4,7.14,0,2.03.61,3.95,1.69,5.68h-.31c-.01.37-.1.89-.27,1.82-.47,2.53-1.86,3.19-1.86,3.19,0,0,2.15-.97,2.67-1.62.25-.32.92-1.2,1.12-1.47,0,.01.01.02.01.03-.12.29-.4,1.23,0,3.05.52,2.37,2.65,3.97,2.65,3.97,0,0-1.27-1.89-.92-3.95,0,0-.08.83,2,3.13,1.98,2.2,5.61,4.86,5.92,4.89-.03-.07-.06-2.63-.09-3.57,1.51.49,3.09.76,4.74.76.1,0,.19,0,.29,0,.1,0,.19,0,.29,0,1.64,0,3.22-.28,4.73-.76-.03.94-.06,4.07-.09,4.14.32-.03,3.94-3.26,5.92-5.46,2.08-2.3,2-3.13,2-3.13.35,2.06-.92,3.95-.92,3.95,0,0,2.13-1.6,2.65-3.97.4-1.82.11-2.76,0-3.05,0,0,.01-.01.01-.03.2.27.87,1.15,1.13,1.47h0Z"/>
    <path class="st14" d="M40.58,48.7v31.26h-18.14l-.44-.16c0-2.19.19-4.12.52-5.81.28-1.38.64-2.62,1.07-3.72.96-2.43,2.24-4.17,3.56-5.42.44-.41.88-.77,1.31-1.08.08-.05.15-.11.23-.16.65-.45,1.28-.79,1.85-1.05.33-.15.64-.28.93-.37.1-.04.19-.07.29-.1.11-.03.2-.06.3-.09.28-.08.5-.14.67-.16.23-.05.36-.06.36-.06.07,0,.13,0,.2-.02.04,0,.08-.01.11-.03.52-.13.94-.57,1.3-1.26.28-.54.51-1.25.69-2.05.08-.32.14-.63.2-.98.09-.58.17-1.18.25-1.82.03-.38.07-.75.12-1.16.16-1.91.2-4.01.2-5.99,0,0,2.44.24,4.41.24h0Z"/>
    <path class="st23" d="M59.24,79.8s-.16.05-.43.16h-18.23v-31.26h.05c1.96,0,4.42-.24,4.42-.24,0,1.97.04,4.04.21,5.95.04.37.09.75.11,1.13.08.67.16,1.28.27,1.86h0c.03.28.09.51.13.75.18.81.39,1.53.66,2.1.33.72.72,1.21,1.2,1.41.01,0,.03.01.05.02.14.05.28.08.44.08,0,0,.09.01.24.04.25.04.68.14,1.23.33.09.03.17.06.27.09.05.02.1.03.15.05.13.05.26.1.39.16.63.27,1.36.64,2.12,1.16h0s.1.07.15.11c.3.21.61.45.93.72h0c1.49,1.27,2.98,3.13,4.06,5.86.42,1.06.77,2.25,1.05,3.58.34,1.72.54,3.7.54,5.95h0Z"/>
    <g class="st22">
      <path class="st13" d="M45.7,57.51v.02c-.46.84-2,3.25-5.05,3.25h-.03c-2.89-.02-4.57-2.5-5-3.23.09-.73.18-1.5.25-2.31.03-.47.08-.96.12-1.47,1.41.42,2.95.68,4.57.72h.06c1.69-.04,3.24-.31,4.69-.77.04.47.09.96.12,1.43.08.84.16,1.63.26,2.36"/>
    </g>
    <path class="st3" d="M40.8,15.34c-16.73,0-16.82,14.01-16.08,23.19-1.14-2.17-4.55-1.51-4.27,1.92.27,3.3,5.13,4.98,5,4.62,2.53,6.79,9.24,11.9,15.34,11.9h.13V15.34h-.13"/>
    <path class="st20" d="M21.53,39.01c.82-1.33,2.11-.75,2.42-.46.33.32.61.73.4,1.51-.11.45-.58.49-.48,1.15.13.75.48.79.68.97.19.17.44.29.55.62.13.32.14.65.08.95-.13.54-.91.1-1.44-.13-.35-.17-1.45-1.1-1.74-1.41-.69-.79-1.03-2.33-.48-3.2"/>
    <path class="st5" d="M40.89,15.34c16.73,0,16.82,14.01,16.09,23.19,1.14-2.17,4.54-1.51,4.25,1.92-.26,3.3-5.13,4.98-5,4.62-2.47,6.79-9.24,11.9-15.34,11.9h-.09l-.04-41.63h.13"/>
    <path class="st20" d="M60.17,39.01c-.82-1.33-2.09-.75-2.42-.46-.33.32-.59.73-.4,1.51.11.45.58.49.48,1.15-.13.75-.48.79-.67.97-.19.17-.45.29-.57.62-.11.32-.14.65-.08.95.13.54.91.1,1.44-.13.36-.17,1.45-1.1,1.74-1.41.71-.79,1.03-2.33.48-3.2"/>
    <path class="st14" d="M40.67,19.3c-5.5,0-9.54,1.6-11.96,4.75-3.4,4.42-3.28,11.15-2.03,15.98.39,1.48.59,5.46.85,6.92,1.2,6.54,8.41,10.02,13.15,10.02h.13V19.3h-.08"/>
    <path class="st23" d="M52.62,24.06c-2.42-3.14-6.4-4.73-11.82-4.76v37.68c5.42-.06,11.91-3.88,13.02-10.02.27-1.46.46-5.44.85-6.92,1.26-4.82,1.39-11.54-2.04-15.97"/>
    <path class="st10" d="M40.13,48.93c-.08-.01-.15-.03-.21-.04.07.01.14.03.21.04M39.84,50.28s-.1-.02-.13-.03c.04.01.08.02.13.03"/>
    <path class="st9" d="M39.92,50.3s-.05-.01-.08-.02c.03,0,.05.01.08.02M39.72,50.25s-.05-.01-.07-.02.03,0,.07.02"/>
    <path class="st10" d="M25.8,31.04c-.15.5-.25,1.04-.33,1.63,0,0,.22-.92.71-2.28-.21.29-.35.52-.38.65M40.18,49.58c-.08-.01-.15-.03-.21-.04.07.01.14.03.21.04M39.89,49.52c-.05-.01-.1-.02-.13-.03.04.01.09.02.13.03"/>
    <path class="st1" d="M39.97,49.53s-.05-.01-.08-.02c.03,0,.05.01.08.02M39.76,49.49s-.05-.01-.07-.02.03,0,.08.02h0Z"/>
    <path class="st7" d="M28.8,35.24s1.28,4.13,3.47,4.46,4.56-.33,4.56-.33c0,0,.23-4.85-.89-5.48-1.12-.64-3.71-1.56-7.13,1.35h0Z"/>
    <path class="st12" d="M36.83,39.36s-.05.01-.16.05c-.03-1.49-.2-3.53-.9-3.92-1.04-.6-3.39-1.45-6.54.87-.29-.64-.43-1.12-.43-1.12,3.44-2.91,6.02-2,7.13-1.36,1.12.64.89,5.49.89,5.49h0Z"/>
    <path class="st18" d="M35.53,37.26c0,.94-.97,1.7-2.16,1.7s-2.16-.76-2.16-1.7.97-1.7,2.16-1.7,2.16.76,2.16,1.7"/>
    <path class="st6" d="M33.28,38.39c-.62-.04-1.1-.54-1.05-1.08s.63-.97,1.25-.93,1.1.54,1.05,1.08c-.06.54-.63.97-1.25.93"/>
    <path class="st8" d="M33.33,38.19c-.43-.03-.88-.4-.83-.87s.57-.78,1-.75.88.4.83.87c-.05.46-.57.77-1,.75"/>
    <path class="st7" d="M32.98,37.06c-.02.17-.24.29-.48.27-.25-.02-.44-.16-.42-.33.02-.17.23-.29.48-.27.25.01.44.16.42.33M34.38,38.02c-.01.08-.12.14-.24.14s-.22-.08-.21-.16c.01-.08.12-.14.24-.14s.22.08.21.16"/>
    <path class="st10" d="M40.22,50.19c-.08-.01-.15-.03-.21-.04.07.01.14.03.21.04M39.92,50.13c-.05-.01-.1-.02-.13-.03.04.01.09.02.13.03"/>
    <path class="st1" d="M40,50.15s-.05-.01-.08-.02c.03,0,.05.01.08.02M39.79,50.11s-.05-.01-.07-.02.03,0,.08.02h0Z"/>
    <path class="st10" d="M40.13,50.05c-.08-.01-.16-.03-.23-.04.08.02.15.03.23.04M39.82,49.99c-.05-.01-.1-.03-.14-.03.05.01.09.02.14.03"/>
    <path class="st9" d="M39.91,50.01s-.06-.01-.09-.02c.03,0,.05.01.09.02M39.68,49.96s-.05-.01-.08-.02.03.01.08.02"/>
    <path class="st10" d="M40.07,49.83c-.08-.01-.16-.03-.23-.04.08.02.15.03.23.04M39.75,49.77c-.05-.01-.1-.03-.14-.03.05.01.09.02.14.03"/>
    <path class="st9" d="M39.84,49.78s-.06-.01-.09-.02c.03,0,.05.01.09.02M39.62,49.73s-.05-.01-.08-.02.03.01.08.02"/>
    <path class="st10" d="M40.26,49.8c-.08-.01-.15-.03-.22-.04.08.01.15.03.22.04M39.96,49.74c-.05-.01-.1-.02-.13-.03.04.01.09.02.13.03"/>
    <path class="st9" d="M40.04,49.76s-.06-.01-.08-.02c.03,0,.05.01.08.02M39.82,49.7l-.08-.02s.03.01.08.02h0Z"/>
    <path class="st7" d="M52.94,35.1s-1.28,4.13-3.47,4.46-4.56-.33-4.56-.33c0,0-.23-4.85.89-5.48,1.12-.64,3.71-1.56,7.13,1.35h0Z"/>
    <path class="st12" d="M44.9,39.22s.05.01.16.05c.03-1.49.2-3.53.9-3.92,1.04-.6,3.39-1.45,6.54.87.29-.64.43-1.12.43-1.12-3.44-2.91-6.02-2-7.13-1.36-1.12.64-.89,5.49-.89,5.49h0Z"/>
    <path class="st18" d="M46.2,37.12c0,.94.97,1.7,2.16,1.7s2.16-.76,2.16-1.7-.97-1.7-2.16-1.7-2.16.76-2.16,1.7"/>
    <path class="st6" d="M48.45,38.25c.62-.04,1.1-.54,1.05-1.08s-.63-.97-1.25-.93-1.1.54-1.05,1.08c.06.54.63.97,1.25.93"/>
    <path class="st8" d="M48.4,38.05c.43-.03.88-.4.83-.87s-.57-.78-1-.75-.88.4-.83.87c.05.46.57.77,1,.75"/>
    <path class="st7" d="M48.75,36.92c.02.17.24.29.48.27.25-.02.44-.16.42-.33-.02-.17-.23-.29-.48-.27-.25.01-.44.16-.42.33M47.35,37.88c.01.08.12.14.24.14s.22-.08.21-.16c-.01-.08-.12-.14-.24-.14s-.22.08-.21.16"/>
    <path class="st21" d="M38.04,36.12s-.37-1.03-1.08-2.06c-.45-.64-.89-1.13-1.35-1.49-.56-.43-1.16-.74-1.74-.89-.53-.11-1.11-.08-1.79.09-.52.18-1.02.47-1.45.82-.31.2-.55.47-.74.69-.08.09-.14.16-.21.23l-.93,1.08,1.07-.46c.05-.03.1-.05.16-.08.22-.11.5-.24.82-.33.08-.02.15-.05.23-.08.14-.05.27-.1.42-.11.16-.02.33-.04.5-.06l.23-.03c.59-.01,1.09.07,1.54.26.49.15.98.44,1.44.84.43.38.84.76,1.17,1.2.65.8,1.02,1.48,1.02,1.48.09.17.21.25.33.25.09,0,.18-.05.25-.14.21-.26.28-.8.14-1.18v-.03s0,0,0,0ZM51.33,33.51c-.06-.06-.13-.14-.2-.22-.19-.22-.44-.49-.73-.68-.44-.36-.95-.64-1.47-.83-.67-.17-1.26-.2-1.79-.09-.58.15-1.18.45-1.74.89-.45.36-.91.86-1.35,1.49-.71,1-1.06,1.98-1.08,2.05v.02c-.13.34-.1.79.05,1.08.09.16.2.25.33.25s.24-.09.33-.25h0c.04-.07.39-.71,1.02-1.49.32-.43.73-.81,1.16-1.19.46-.39.96-.68,1.45-.84.44-.19.94-.27,1.52-.26l.24.03c.17.02.34.04.5.06.14.01.28.06.42.11.08.03.15.06.23.08.32.09.6.22.82.33.06.03.11.05.16.08l1.07.46-.93-1.09h0Z"/>
    <path class="st10" d="M39.84,50.82c-.08-.01-.16-.03-.22-.04.08.02.15.03.22.04M39.54,50.76c-.05-.01-.1-.02-.14-.03.05.01.09.02.14.03"/>
    <path class="st2" d="M39.62,50.77s-.06-.01-.09-.02c.03,0,.05.01.09.02M39.4,50.72l-.08-.02s.03.01.08.02h0Z"/>
    <path class="st4" d="M37.71,51.86c-.06-.84,2.34.18,3.14.2.63.02,2.53-.13,2.7-.19,1.32-.5-.07,1.41-2.74,1.51-1.22.05-3.06-1.01-3.1-1.52h0Z"/>
    <path class="st0" d="M45.55,50.23c-.66-.03-1.32.51-2.11.43-.03-.01-.05-.01-.08-.01-.18-.03-.36,0-.55.05-.24.05-.49.15-.72.23-.39.13-.83.23-1.29.2s-.01,0-.03,0h-.03c-.45.03-.9-.07-1.29-.2-.23-.08-.48-.18-.72-.23-.2-.05-.38-.08-.55-.05-.03,0-.05,0-.08.01-.79.08-1.46-.46-2.11-.43-.18.01-.44-.03-.59-.03.03.01.06.03.1.05,1.87.91,3.47,2.61,5.25,2.56h.05c1.78.05,3.39-1.65,5.25-2.56.03-.01.07-.03.1-.05-.15,0-.41.05-.59.03h0Z"/>
    <path class="st16" d="M46.1,50.18s-1.89-.73-3.24-.3c0,0-.5.2-1.02.31-.32.12-.7.16-1.07.14-.28-.01-.55-.05-.77-.09-.08-.01-.15-.03-.22-.04-.03,0-.06-.01-.09-.02-.05-.01-.09-.02-.14-.03-.05-.01-.08-.02-.08-.02-.43-.12-.8-.26-.8-.26-1.35-.43-3.24.3-3.24.3-.03.01-.04.02-.04.02.15,0,.41.05.59.03.66-.03,1.32.51,2.11.43.03-.01.05-.01.08-.01.18-.03.36,0,.55.05.24.05.49.15.72.23.39.13.83.23,1.29.2s.01,0,.03,0h.03c.45.03.9-.07,1.29-.2.23-.08.48-.18.72-.23.2-.05.38-.08.55-.05.03,0,.05,0,.08.01.79.08,1.46-.46,2.11-.43.18.01.44-.03.59-.03l-.04-.02h0Z"/>
    <path class="st16" d="M37.58,50.62s3.55,1.08,6.3.03l-.32-.21h-3.72l-2.27.19Z"/>
    <path class="st21" d="M59.42,32.93c-.62-1.5-.93-3.13-.84-4.78.18-3.39-.14-7.2-1.69-10.61-1.93-4.26-5.51-5.24-8.65-5.52-1.44-.13-2.69-.14-3.84.11-2.12.46-4.29.46-6.4,0-1.15-.25-2.4-.25-3.84-.11-3.14.29-6.72,1.27-8.65,5.52-1.55,3.41-1.88,7.22-1.69,10.61.09,1.65-.23,3.28-.84,4.78-.64,1.58-.83,3.7,1.8,5.04.75.38,1.41.97,1.9,1.73.05.07.09.14.14.21.27.41.85.1.74-.4-.58-2.75-.66-7.34,4.24-9.78,3.21-1.6,4.54-1.96,7.49-3.29.9-.4,1.5-.88,1.93-1.38.43.51,1.03.98,1.93,1.38,2.95,1.33,4.27,1.69,7.49,3.29,4.9,2.44,4.81,7.03,4.24,9.78-.1.5.47.81.74.4.05-.07.09-.14.14-.21.48-.76,1.15-1.34,1.9-1.73,2.62-1.34,2.45-3.46,1.8-5.04M47.17,49.43c-.73-2.12-2.52-3.94-5.15-2.66-.21.1-.37.19-.51.31-.4.33-1.01.33-1.41,0-.14-.11-.29-.2-.51-.31-2.63-1.28-4.42.54-5.15,2.67-1.32,3.16-2.87,1.69-2.87,1.69-.1,2.78,3.34,3.84,5.19,2.24.24-.23,1.09-1.01,2.02-1.75.58-.46,1.18-.9,1.68-1.17.22-.12.48-.12.69,0,.5.27,1.11.71,1.68,1.17.93.74,1.78,1.52,2.02,1.75,1.85,1.6,5.28.54,5.19-2.24,0,0-1.55,1.47-2.87-1.69h0Z"/>
    <path class="st5" d="M37.61,45.25c-.06-1.3,2.39-.48,3.19-.44.64.03,2.58-.41,2.75-.3,1.14.77-1.21,2.33-2.79,2.33-.42,0-3.11-.81-3.15-1.59h0Z"/>
    <path class="st11" d="M58.49,73.22s-.6-3.47-2.75-6.48c0,0-.73-1.62-3.21-3.14-.76-.52-1.49-.89-2.12-1.16-.13-.05-.26-.11-.39-.16-.05-.02-.1-.04-.15-.05-.1-.03-.18-.06-.27-.09-.55-.19-.98-.28-1.23-.33-.15-.03-.24-.04-.24-.04-.06,0-.13,0-.19-.02-.09-.02-.16-.04-.25-.06-2.11,5.66-5.28,9.42-7.11,9.65-.03.01-.06.01-.09.01h0c-1.79-.03-4.95-3.85-7.07-9.62,0,0-.09.01-.26.04-.02,0-.04,0-.05,0,0,0-.13.01-.36.06-.17.03-.4.09-.67.16-.1.03-.2.06-.3.09-.1.03-.19.06-.29.1-.29.09-.6.22-.93.37-.57.26-1.2.6-1.85,1.05,0,0-.01.01-.01.02-1.17.79-2.39,1.9-3.42,3.45,0,0-2.07,3.1-2.58,6.14h3.9c.52,0,.91.55.81,1.14-.37,2.14-.77,3.92-1.16,5.6h28.66c-.39-1.68-.79-3.46-1.16-5.6-.1-.59.29-1.14.81-1.14h3.94,0Z"/>
  </g>
</svg>