<?xml version="1.0" encoding="UTF-8"?>
<svg id="Layer_2" xmlns="http://www.w3.org/2000/svg" version="1.1" xmlns:xlink="http://www.w3.org/1999/xlink" viewBox="0 0 80 80">
  <!-- Generator: Adobe Illustrator 30.2.1, SVG Export Plug-In . SVG Version: 2.1.1 Build 1)  -->
  <defs>
    <style>
      .st0 {
        fill: #dac6a4;
      }

      .st1 {
        fill: #b5957e;
      }

      .st2 {
        fill: #b8987d;
      }

      .st3 {
        fill: #714223;
      }

      .st4 {
        fill: #ccad8a;
      }

      .st5 {
        fill: #ecdab6;
      }

      .st6 {
        fill: #873a32;
      }

      .st7 {
        fill: #692e28;
      }

      .st8 {
        fill: #d7bd9d;
      }

      .st9 {
        fill: #fff;
      }

      .st10 {
        fill: #272213;
      }

      .st11 {
        fill: #b7967d;
      }

      .st12 {
        fill: none;
      }

      .st13 {
        fill: #b15d80;
      }

      .st14 {
        fill: #d2bb9b;
      }

      .st15 {
        fill: #ba9d82;
      }

      .st16 {
        fill: #dcc5a0;
      }

      .st17 {
        fill: #c1a587;
      }

      .st18 {
        fill: #44361f;
      }

      .st19 {
        fill: #a98d76;
      }

      .st20 {
        fill: #462e1b;
      }

      .st21 {
        clip-path: url(#clippath);
      }

      .st22 {
        fill: #ebd9b5;
      }

      .st23 {
        fill: #3c3d39;
      }
    </style>
    <clipPath id="clippath">
      <rect class="st12" x="36.68" y="55.41" width="8.99" height="5.31"/>
    </clipPath>
  </defs>
  <g id="Layer_1-2">
    <path class="st13" d="M0,0h80v79.96H0V0Z"/>
    <path class="st16" d="M41.14,49.96v30.04h-16.22c-.27-.1-.4-.15-.4-.15,0-2.83.31-5.2.81-7.19.18-.7.38-1.36.6-1.97,2.07-5.63,5.85-7.42,7.59-7.95.57-.18.92-.22.92-.22.06,0,.11,0,.18-.02h0c.51-.08.92-.53,1.26-1.24.25-.53.45-1.2.62-1.98.06-.3.12-.61.18-.94.08-.55.15-1.14.22-1.74.03-.37.06-.73.11-1.12.14-1.84.18-3.85.18-5.75,0,0,2.18.23,3.95.23h0Z"/>
    <path class="st22" d="M57.83,79.85s-.14.05-.39.15h-16.31v-30.04h.04c1.76,0,3.96-.23,3.96-.23,0,1.89.04,3.87.19,5.71.04.36.08.73.1,1.09.06.63.14,1.23.24,1.78h0c.03.26.08.49.12.73.16.79.35,1.47.59,2.03.29.69.64,1.17,1.08,1.35.14.06.28.09.43.09,0,0,.09.01.25.04h0c.26.05.72.17,1.3.4,1.91.75,5.12,2.71,6.97,7.73.23.61.43,1.27.61,1.97.5,1.99.81,4.36.81,7.19h0Z"/>
    <g class="st21">
      <path class="st15" d="M45.67,58.26h0c-.41.65-1.78,2.46-4.5,2.46h-.03c-2.57-.01-4.08-1.88-4.46-2.43.08-.55.16-1.13.23-1.73.03-.35.06-.72.11-1.1,1.25.31,2.63.51,4.08.54h.05c1.5-.03,2.89-.24,4.18-.58.04.35.08.72.11,1.08.06.63.15,1.22.24,1.77"/>
    </g>
    <path class="st4" d="M40.95,15.71c-17.19,0-17.28,14.39-16.52,23.82-1.17-2.23-4.68-1.55-4.39,1.97.28,3.39,5.28,5.12,5.14,4.75,2.6,6.97,9.49,12.22,15.77,12.22h.13V15.71h-.13Z"/>
    <path class="st19" d="M21.15,40.02c.84-1.37,2.17-.78,2.48-.47.34.33.62.75.41,1.55-.12.46-.59.5-.49,1.18.13.78.49.81.7,1,.2.17.45.3.57.63.13.33.15.67.08.97-.13.55-.94.1-1.48-.13-.36-.17-1.49-1.13-1.78-1.45-.71-.81-1.06-2.39-.49-3.28"/>
    <path class="st8" d="M41.04,15.71c17.19,0,17.28,14.39,16.53,23.82,1.17-2.23,4.66-1.55,4.37,1.97-.26,3.39-5.27,5.12-5.14,4.75-2.53,6.97-9.49,12.22-15.77,12.22h-.09l-.04-42.76h.13"/>
    <path class="st19" d="M60.85,40.02c-.84-1.37-2.15-.78-2.48-.47-.34.33-.61.75-.41,1.55.12.46.59.5.49,1.18-.13.78-.49.81-.69,1-.2.17-.46.3-.58.63s-.15.67-.08.97c.13.55.94.1,1.48-.13.37-.17,1.49-1.13,1.78-1.45.73-.81,1.06-2.39.49-3.28"/>
    <path class="st16" d="M40.82,19.78c-5.65,0-9.8,1.64-12.29,4.87-3.5,4.54-3.37,11.45-2.09,16.42.4,1.53.61,5.61.87,7.11,1.23,6.72,8.63,10.29,13.51,10.29h.13V19.78h-.08"/>
    <path class="st22" d="M53.1,24.67c-2.48-3.22-6.58-4.86-12.15-4.89v38.7c5.57-.06,12.24-3.98,13.38-10.29.28-1.5.48-5.59.87-7.11,1.29-4.95,1.42-11.85-2.1-16.4"/>
    <path class="st12" d="M40.26,50.2c-.08-.01-.15-.03-.21-.04.07.01.14.03.21.04M39.97,51.6c-.05-.01-.1-.02-.13-.03.04.01.09.02.13.03"/>
    <path class="st11" d="M40.05,51.61s-.05-.01-.08-.02c.03,0,.05.01.08.02M39.84,51.57s-.05-.01-.07-.02.03,0,.08.02h0Z"/>
    <path class="st8" d="M37.67,46.87c-.06-1.34,2.45-.49,3.28-.45.66.03,2.65-.42,2.82-.3,1.17.79-1.24,2.39-2.86,2.39-.43,0-3.2-.83-3.24-1.64h0Z"/>
    <path class="st12" d="M25.54,31.84c-.15.51-.26,1.07-.33,1.67,0,0,.23-.94.73-2.34-.21.3-.36.54-.39.67"/>
    <path class="st18" d="M36.15,19.87l-.07.07v.03s.05-.07.07-.1"/>
    <path class="st12" d="M40.31,50.87c-.08-.01-.15-.03-.22-.04.08.01.15.03.22.04M40.01,50.81c-.05-.01-.1-.02-.13-.03.04.01.09.02.13.03"/>
    <path class="st1" d="M40.09,50.83s-.05-.01-.08-.02c.03,0,.05.01.08.02M39.88,50.78l-.08-.02s.03.01.08.02"/>
    <path class="st9" d="M28.62,34.88s1.31,5.39,3.56,5.83,4.69-.44,4.69-.44c0,0,.23-6.33-.92-7.16-1.15-.83-3.81-2.03-7.33,1.77"/>
    <path class="st14" d="M36.87,40.26s-.05.01-.17.06c-.03-1.94-.21-4.61-.93-5.12-1.07-.79-3.49-1.89-6.72,1.13-.29-.84-.44-1.47-.44-1.47,3.53-3.81,6.19-2.61,7.33-1.78,1.15.83.92,7.17.92,7.17"/>
    <path class="st20" d="M35.54,37.51c0,1.23-.99,2.22-2.22,2.22s-2.22-.99-2.22-2.22.99-2.22,2.22-2.22,2.22.99,2.22,2.22"/>
    <path class="st3" d="M33.22,38.99c-.64-.05-1.13-.7-1.07-1.41s.65-1.27,1.29-1.22,1.13.7,1.07,1.41c-.06.71-.65,1.27-1.29,1.22h0Z"/>
    <path class="st10" d="M33.28,38.73c-.44-.04-.91-.53-.86-1.13.05-.6.58-1.01,1.03-.98.45.04.91.53.86,1.13-.05.6-.58,1.01-1.03.98h0Z"/>
    <path class="st9" d="M32.91,37.25c-.02.22-.24.38-.5.36-.26-.02-.45-.22-.43-.43.02-.22.24-.38.5-.36s.45.21.43.44h0ZM34.35,38.51c-.01.11-.12.19-.25.18-.13-.01-.23-.11-.22-.22.01-.11.12-.19.25-.18.13.01.23.11.22.22"/>
    <path class="st12" d="M40.35,51.5c-.08-.01-.15-.03-.22-.04.08.01.15.03.22.04M40.05,51.45c-.05-.01-.1-.02-.13-.03.04.01.09.02.13.03"/>
    <path class="st1" d="M40.13,51.47s-.05-.01-.08-.02c.03,0,.05.01.08.02M39.92,51.42l-.08-.02s.03,0,.08.02"/>
    <path class="st12" d="M40.26,51.35c-.09-.01-.16-.03-.23-.05.08.02.16.03.23.05M39.94,51.29c-.05-.01-.11-.03-.14-.03.05.01.09.02.14.03"/>
    <path class="st11" d="M40.03,51.31s-.06-.01-.09-.02c.03,0,.05.01.09.02M39.8,51.26s-.05-.01-.08-.02.03.01.08.02h0Z"/>
    <path class="st12" d="M40.2,51.13c-.09-.01-.16-.03-.23-.04.08.02.16.03.23.04M39.87,51.07c-.05-.01-.11-.03-.14-.03.05.01.09.02.14.03"/>
    <path class="st11" d="M39.96,51.09s-.06-.01-.09-.02c.03,0,.05.01.09.02M39.73,51.03s-.05-.01-.08-.02.03.01.08.02h0Z"/>
    <path class="st12" d="M40.4,51.1c-.08-.01-.16-.03-.23-.04.08.02.15.03.23.04M40.08,51.04c-.05-.01-.1-.02-.14-.03.05.01.09.02.14.03"/>
    <path class="st11" d="M40.17,51.05s-.06-.01-.09-.02c.03,0,.05.01.09.02M39.94,51l-.08-.02s.03.01.08.02h0Z"/>
    <path class="st9" d="M53.42,34.7s-1.31,5.39-3.56,5.83-4.69-.44-4.69-.44c0,0-.23-6.33.92-7.16,1.15-.83,3.81-2.03,7.33,1.77"/>
    <path class="st14" d="M45.16,40.08s.05.01.17.06c.03-1.94.21-4.61.93-5.12,1.07-.79,3.49-1.89,6.72,1.13.29-.84.44-1.47.44-1.47-3.53-3.81-6.19-2.61-7.33-1.78-1.15.83-.92,7.17-.92,7.17"/>
    <path class="st20" d="M46.5,37.33c0,1.23.99,2.22,2.22,2.22s2.22-.99,2.22-2.22-.99-2.22-2.22-2.22-2.22.99-2.22,2.22"/>
    <path class="st3" d="M48.82,38.81c.64-.05,1.13-.7,1.07-1.41s-.65-1.27-1.29-1.22-1.13.7-1.07,1.41c.06.71.65,1.27,1.29,1.22h0Z"/>
    <path class="st10" d="M48.76,38.55c.44-.04.91-.53.86-1.13-.05-.6-.58-1.01-1.03-.98-.44.04-.91.53-.86,1.13.05.6.58,1.01,1.03.98h0Z"/>
    <path class="st9" d="M49.12,37.07c.02.22.24.38.5.36.26-.02.45-.22.43-.43-.02-.22-.24-.38-.5-.36s-.45.21-.43.44h0ZM47.68,38.32c.01.11.12.19.25.18.13-.01.23-.11.22-.22-.01-.11-.12-.19-.25-.18-.13.01-.23.11-.22.22"/>
    <path d="M38.22,34.8s-.43-.65-1.26-1.29c-.52-.4-1.03-.71-1.57-.94-.65-.27-1.34-.46-2.02-.56-.61-.07-1.29-.05-2.08.06-.6.11-1.19.29-1.69.51-.35.12-.64.3-.86.43-.09.05-.16.1-.24.14l-1.07.68,1.24-.29c.06-.01.12-.03.19-.05.26-.07.58-.15.95-.21.09-.01.18-.03.27-.05.16-.03.32-.06.49-.07.19-.01.38-.03.58-.04l.26-.02c.69,0,1.27.04,1.78.16.56.1,1.14.28,1.67.53.5.24.98.48,1.36.75.76.51,1.18.93,1.18.93.1.1.24.16.38.16.1,0,.2-.03.29-.09.25-.16.32-.5.16-.74v-.02s-.01,0-.01,0ZM53.64,33.16c-.07-.04-.15-.09-.24-.14-.23-.14-.5-.31-.85-.43-.51-.23-1.1-.4-1.71-.52-.78-.1-1.46-.13-2.07-.05-.67.09-1.37.29-2.02.56-.53.23-1.05.54-1.57.94-.82.63-1.23,1.24-1.26,1.29h0c-.14.23-.11.51.07.69.1.1.24.16.38.16s.28-.06.38-.16h0s.45-.44,1.18-.94c.37-.27.85-.51,1.35-.75.53-.25,1.11-.43,1.68-.53.51-.12,1.09-.17,1.76-.16l.27.02c.2.01.39.03.58.04.16,0,.33.04.48.07.09.02.18.04.27.05.38.05.69.14.95.21.07.02.13.04.19.05l1.24.29-1.08-.68h0Z"/>
    <path class="st12" d="M39.97,52.14c-.08-.01-.16-.03-.23-.04.08.02.15.03.23.04M39.65,52.08c-.05-.01-.1-.03-.14-.03l.14.03Z"/>
    <path class="st2" d="M39.74,52.1s-.06-.01-.09-.02c.03,0,.05.01.09.02M39.51,52.05s-.05-.01-.08-.02.03.01.08.02"/>
    <path class="st5" d="M37.77,53.21c-.06-.86,2.41.18,3.22.21.65.02,2.6-.13,2.77-.2,1.36-.51-.08,1.45-2.82,1.55-1.26.05-3.14-1.04-3.18-1.56h0Z"/>
    <path class="st0" d="M45.83,51.54c-.67-.03-1.36.53-2.17.44-.03-.02-.05-.02-.08-.02-.19-.03-.37,0-.57.05-.25.05-.5.15-.74.24-.4.13-.86.24-1.33.2s-.02,0-.03,0h-.03c-.47.03-.92-.07-1.33-.2-.24-.08-.49-.19-.74-.24-.2-.05-.39-.08-.57-.05-.04,0-.05,0-.08.02-.81.09-1.5-.48-2.17-.44-.19.02-.45-.03-.61-.03.03.02.07.03.1.05,1.92.94,3.57,2.69,5.4,2.63h.05c1.83.06,3.48-1.69,5.4-2.63.04-.02.07-.03.1-.05-.15,0-.42.05-.61.03h0Z"/>
    <path class="st17" d="M46.39,51.49s-1.95-.75-3.33-.31c0,0-.52.2-1.05.33-.33.13-.72.16-1.1.15-.29-.01-.57-.05-.79-.09-.08-.01-.15-.03-.23-.04-.03,0-.06-.01-.09-.02l-.14-.03c-.05-.01-.08-.02-.08-.02-.44-.12-.82-.27-.82-.27-1.39-.44-3.33.31-3.33.31-.03.01-.04.02-.04.02.15,0,.42.05.61.03.67-.03,1.36.53,2.17.44.03-.02.05-.02.08-.02.19-.03.37,0,.57.05.25.05.5.15.74.24.4.13.86.24,1.33.2s.02,0,.03,0h.03c.47.03.92-.07,1.33-.2.24-.08.49-.19.74-.24.2-.05.39-.08.57-.05.04,0,.05,0,.08.02.81.09,1.5-.48,2.17-.44.19.02.45-.03.61-.03,0,0-.02,0-.04-.02h0Z"/>
    <path class="st17" d="M37.64,51.95s3.65,1.11,6.48.03l-.33-.22h-3.82l-2.33.2h0Z"/>
    <path class="st6" d="M55.4,79.96s0,.03,0,.04h-27.96v-.04c.05-.76.1-1.84.13-3.23.02-.77.02-1.63.02-2.57,0-.48,0-.98-.01-1.5h-2.25c.15-.61.33-1.19.52-1.73.03-.08.05-.16.08-.24.32-.87.68-1.65,1.07-2.34.1-.18.2-.35.3-.52.55-.89,1.14-1.64,1.74-2.26.15-.15.3-.3.44-.44,1.54-1.44,3.09-2.1,4.03-2.39.57-.18.92-.22.92-.22.06,0,.11,0,.18-.02.61.82,1.48,1.82,2.57,2.63,1.11.82,2.44,1.44,3.95,1.47.67.02,1.36-.08,2.09-.33.71-.24,1.44-.61,2.19-1.15.87-.62,1.79-1.46,2.72-2.57h0c.26.05.72.17,1.3.4.93.36,2.17,1.02,3.4,2.17.2.19.41.39.61.61.3.33.6.68.89,1.07.35.46.68.97,1,1.54.39.69.75,1.47,1.07,2.34.03.08.06.16.09.24.19.54.36,1.12.52,1.73h-1.74c-.01.52-.01,1.02-.01,1.5,0,.94,0,1.8.02,2.57,0,.26.01.51.02.75.03,1.04.06,1.87.1,2.48h0Z"/>
    <path class="st23" d="M56.21,18.54c-1.6-1.49-3.63-2.03-3.63-2.03,0,0-4.49-2.24-7.9-3.84-3.42-1.6-8.97-.32-11.86.43-2.88.75-6.32,4.84-7.39,7.08-1.07,2.24-3.72,7.11-4.58,10.62-.86,3.52,2.02,6.93,3.81,7.66,1.16.48,1.24,3.21,1.24,3.21l1.27.56s-.78-1.91-.67-3.84c.08-1.28-.13-5.14-.13-5.14,0,0,2.37-.47,5.14-1.1,0,0,14.65-5.07,4.94,5.11,7.61-2.59,10.31-10.74,10.66-11.91.02-.02.04-.04.06-.06.97.23,2.57.8,4.56,2.27,2.02,1.5,4.51,3.57,4.51,8.05,0,1.5-.67,5.86-.67,5.86l.67-.48s0-1.69,1.92-2.75c1.53-.85,1.92-3.72,1.92-4.91,0-7.94-2.27-13.32-3.87-14.81h0Z"/>
    <path class="st7" d="M57.01,72.66h-1.74c-.01.52-.01,1.02-.01,1.5h-27.67c0-.48,0-.98-.01-1.5h-2.25c.15-.61.33-1.19.52-1.73h30.65c.19.54.36,1.12.52,1.73h0ZM55.34,68.35h-28.35c.1-.18.2-.35.3-.52.55-.89,1.14-1.64,1.74-2.26.15-.15.3-.3.44-.44h7.7c1.11.82,2.44,1.44,3.95,1.47.67.02,1.36-.08,2.09-.33.71-.24,1.44-.61,2.19-1.15h7.43c.2.19.41.39.61.61.3.33.6.68.89,1.07.35.46.68.97,1,1.54h0ZM55.4,79.96h-27.96c.05-.76.1-1.84.13-3.23h27.72c0,.26.01.51.02.75.03,1.04.06,1.87.1,2.48"/>
  </g>
</svg>