<?xml version="1.0" encoding="UTF-8"?>
<svg id="Layer_2" xmlns="http://www.w3.org/2000/svg" version="1.1" xmlns:xlink="http://www.w3.org/1999/xlink" viewBox="0 0 80 80">
  <!-- Generator: Adobe Illustrator 30.2.1, SVG Export Plug-In . SVG Version: 2.1.1 Build 1)  -->
  <defs>
    <style>
      .st0 {
        fill: #452a16;
      }

      .st1 {
        fill: #3d2520;
      }

      .st2 {
        fill: #b5977b;
      }

      .st3 {
        fill: #c7a784;
      }

      .st4 {
        fill: #4a302c;
      }

      .st5 {
        fill: #43331b;
      }

      .st6 {
        fill: #fff;
      }

      .st7 {
        fill: #af8f76;
      }

      .st8 {
        fill: #a4876f;
      }

      .st9 {
        fill: #e9d3af;
      }

      .st10 {
        fill: none;
      }

      .st11 {
        fill: #171500;
      }

      .st12 {
        fill: #71391e;
      }

      .st13 {
        fill: #71909e;
      }

      .st14 {
        fill: #b19076;
      }

      .st15 {
        fill: #8b6ba6;
      }

      .st16 {
        fill: #ceb495;
      }

      .st17 {
        fill: #d3b697;
      }

      .st18 {
        fill: #b39176;
      }

      .st19 {
        fill: #d6c09e;
      }

      .st20 {
        fill: #a6d3f0;
      }

      .st21 {
        fill: #d7be9a;
      }

      .st22 {
        fill: #e8d2ae;
      }

      .st23 {
        fill: #bc9e80;
      }

      .st24 {
        clip-path: url(#clippath);
      }

      .st25 {
        fill: #282211;
      }
    </style>
    <clipPath id="clippath">
      <rect class="st10" x="36.68" y="55.41" width="8.99" height="5.31"/>
    </clipPath>
  </defs>
  <g id="RÈteg_1">
    <path class="st15" d="M0,0h80v79.96H0V0Z"/>
    <path class="st4" d="M39.93,62.68v-21.75c1.67.1,3.13,1.43,6.11,2.22,7.11,1.88,10.06-3.05,9.46-5.6-.92-3.92.36-6.17.85-6.07,0,0,.02,1,.46,1.88,1.31,2.64,2.41.81,2.62,4.39.24,4.19,1,5.73.76,7.97-.14,1.26-.61,2.77-.99,3.83,4.77.07,5.32,4.05,5.32,4.05-.06-.15-.18-.29-.34-.42.22.25.34.42.34.42-.37-.23-.72-.42-1.06-.59-6.4-3.27-8.19,2.47-8.19,2.47.67,5.41,7.54,5.33,7.54,5.33,0,0-5.84,2.71-8.09-2.6-.3,2.85,1.32,5.63,1.32,5.63-2.61-.53-3.7-2.55-4.16-4.28-1.61,2.96.06,5.17.06,5.17l-8.94-3.41c1.16.89,2.97,2.52,2.97,2.52,0,0-2.34-.23-6.03-1.17h0Z"/>
    <path class="st4" d="M41.38,62.68v-21.75c-1.67.1-3.13,1.43-6.11,2.22-7.11,1.88-10.06-3.05-9.46-5.6.92-3.92-.36-6.17-.85-6.07,0,0-.02,1-.46,1.88-1.31,2.64-2.41.81-2.62,4.39-.24,4.19-1,5.73-.76,7.97.14,1.26.61,2.77.99,3.83-4.77.07-5.32,4.05-5.32,4.05.06-.15.18-.29.34-.42-.22.25-.34.42-.34.42.37-.23.72-.42,1.06-.59,6.4-3.27,8.19,2.47,8.19,2.47-.67,5.41-7.54,5.33-7.54,5.33,0,0,5.84,2.71,8.09-2.6.3,2.85-1.32,5.63-1.32,5.63,2.61-.53,3.7-2.55,4.16-4.28,1.61,2.96-.06,5.17-.06,5.17l8.94-3.41c-1.16.89-2.97,2.52-2.97,2.52,0,0,2.34-.23,6.03-1.17h0Z"/>
    <path class="st21" d="M41.14,49.96v30.04h-16.22c-.27-.1-.39-.16-.39-.16,0-1.43.08-2.75.22-3.96.14-1.17.34-2.25.59-3.23.18-.7.38-1.36.6-1.97,1.16-3.17,2.87-5.13,4.46-6.32,1.23-.92,2.37-1.4,3.13-1.63.56-.18.92-.22.92-.22h.02c.06,0,.1,0,.16-.02h0c.51-.08.92-.53,1.26-1.24.25-.53.46-1.2.62-1.98.07-.3.11-.61.18-.94.08-.56.15-1.14.21-1.74.03-.37.07-.73.11-1.12.14-1.84.19-3.85.19-5.75,0,0,2.18.22,3.94.22h0Z"/>
    <path class="st22" d="M57.83,79.84s-.14.06-.38.16h-16.31v-30.04h.04c1.76,0,3.96-.22,3.96-.22,0,1.89.03,3.88.18,5.71.04.36.08.73.1,1.09.07.63.15,1.23.24,1.78h0c.03.26.08.49.13.72.15.78.35,1.47.59,2.02.29.68.64,1.16,1.07,1.35.06.02.11.04.17.06.08.02.18.03.27.03,0,0,.09.01.24.04h0c.26.06.72.17,1.3.4.68.26,1.52.68,2.4,1.33,1.62,1.18,3.38,3.16,4.58,6.4.22.61.42,1.27.6,1.97.24.96.44,2.02.58,3.17.14,1.22.22,2.56.22,4.01h0Z"/>
    <g class="st24">
      <path class="st2" d="M45.67,58.26h0c-.41.64-1.78,2.46-4.5,2.46h-.03c-2.58-.01-4.08-1.88-4.46-2.43.08-.55.16-1.13.22-1.73.03-.35.07-.72.11-1.1,1.25.31,2.63.51,4.08.54h.05c1.5-.03,2.89-.24,4.18-.58.04.35.08.72.11,1.08.07.63.14,1.22.24,1.77"/>
    </g>
    <path class="st3" d="M40.95,15.72c-17.19,0-17.28,14.39-16.52,23.82-1.18-2.24-4.67-1.55-4.38,1.97.28,3.39,5.28,5.12,5.14,4.75,2.6,6.97,9.49,12.22,15.77,12.22h.13V15.72h-.13Z"/>
    <path class="st8" d="M21.15,40.02c.84-1.37,2.16-.78,2.48-.47.34.33.62.75.41,1.55-.12.46-.59.5-.49,1.18.13.78.49.81.7,1,.2.17.45.3.57.63.13.33.14.67.08.97-.13.55-.94.1-1.48-.13-.36-.17-1.49-1.13-1.78-1.45-.71-.81-1.06-2.39-.49-3.29"/>
    <path class="st17" d="M41.05,15.72c17.19,0,17.28,14.39,16.53,23.82,1.18-2.24,4.66-1.55,4.37,1.97-.26,3.39-5.27,5.12-5.14,4.75-2.54,6.97-9.49,12.22-15.77,12.22h-.09l-.04-42.76h.13"/>
    <path class="st8" d="M60.86,40.02c-.84-1.37-2.15-.78-2.48-.47-.34.33-.61.75-.41,1.55.12.46.59.5.49,1.18-.13.78-.49.81-.69,1-.2.17-.46.3-.58.63s-.14.67-.08.97c.13.55.94.1,1.48-.13.37-.17,1.49-1.13,1.78-1.45.73-.81,1.06-2.39.49-3.29"/>
    <path class="st21" d="M40.82,19.78c-5.65,0-9.8,1.64-12.29,4.88-3.5,4.54-3.37,11.45-2.09,16.42.4,1.53.61,5.61.87,7.11,1.23,6.72,8.64,10.29,13.51,10.29h.13V19.78h-.08"/>
    <path class="st22" d="M53.1,24.67c-2.48-3.22-6.58-4.86-12.15-4.89v38.7c5.57-.07,12.24-3.98,13.38-10.29.28-1.5.48-5.59.87-7.11,1.29-4.95,1.43-11.86-2.1-16.4"/>
    <path class="st10" d="M40.26,50.2c-.08-.01-.15-.03-.21-.04.07.02.14.03.21.04M39.97,51.6s-.1-.02-.13-.03c.04.01.09.02.13.03"/>
    <path class="st14" d="M40.05,51.61l-.08-.02s.05.01.08.02M39.84,51.57s-.05-.01-.07-.02.03,0,.07.02h0Z"/>
    <path class="st17" d="M37.67,46.87c-.06-1.34,2.45-.49,3.28-.45.65.03,2.65-.42,2.82-.3,1.17.79-1.24,2.39-2.86,2.39-.43,0-3.2-.83-3.24-1.64h0Z"/>
    <path class="st10" d="M25.54,31.84c-.15.51-.26,1.07-.33,1.67,0,0,.23-.94.73-2.34-.21.3-.36.54-.39.67"/>
    <path class="st5" d="M36.15,19.88l-.07.07v.02s.05-.07.07-.1h0Z"/>
    <path class="st10" d="M40.32,50.87c-.08-.01-.15-.03-.22-.04.07.02.15.03.22.04M40.01,50.81c-.05-.01-.1-.02-.13-.03.04.01.09.02.13.03"/>
    <path class="st7" d="M40.1,50.83s-.06-.01-.08-.02c.03,0,.05.01.08.02M39.88,50.78s-.05-.01-.07-.02h0s.03,0,.08.02"/>
    <path class="st6" d="M28.62,34.88s1.31,5.39,3.56,5.83,4.69-.43,4.69-.43c0,0,.23-6.33-.92-7.16-1.15-.83-3.81-2.03-7.33,1.77h0Z"/>
    <path class="st16" d="M36.87,40.26s-.05.02-.17.06c-.03-1.94-.21-4.61-.93-5.12-1.07-.78-3.49-1.89-6.72,1.13-.29-.84-.44-1.47-.44-1.47,3.53-3.8,6.19-2.61,7.33-1.77,1.15.83.92,7.17.92,7.17"/>
    <ellipse class="st0" cx="33.32" cy="37.51" rx="2.22" ry="2.22"/>
    <path class="st12" d="M33.22,38.99c-.64-.05-1.13-.7-1.07-1.41.06-.71.65-1.27,1.29-1.21s1.13.7,1.07,1.41c-.06.71-.65,1.27-1.29,1.21h0Z"/>
    <path class="st25" d="M33.28,38.74c-.45-.04-.91-.53-.86-1.13.05-.61.59-1.01,1.03-.98s.91.53.86,1.13-.59,1.01-1.03.97h0Z"/>
    <path class="st6" d="M32.92,37.25c-.02.22-.24.38-.5.35-.26-.02-.45-.22-.43-.43.02-.22.24-.38.5-.36s.45.22.43.43M34.35,38.51c-.01.11-.12.19-.25.18s-.22-.11-.22-.22c0-.11.12-.19.25-.18.13.01.23.11.22.22"/>
    <path class="st10" d="M40.35,51.51c-.08-.01-.15-.03-.22-.04.07.02.15.03.22.04M40.05,51.45c-.05-.01-.1-.02-.13-.03.04.01.09.02.13.03"/>
    <path class="st7" d="M40.13,51.46s-.06-.01-.08-.02c.03,0,.05.01.08.02M39.92,51.42s-.05-.01-.07-.02h0s.03,0,.08.02"/>
    <path class="st10" d="M40.26,51.36c-.09-.02-.17-.03-.23-.05.08.02.15.03.23.05M39.94,51.29c-.05-.01-.11-.02-.14-.03.05.01.09.02.14.03"/>
    <path class="st14" d="M40.03,51.31s-.06-.01-.09-.02c.03,0,.06.01.09.02M39.8,51.26s-.05-.02-.08-.02h0s.03.01.08.02"/>
    <path class="st10" d="M40.2,51.13c-.09-.02-.17-.03-.24-.05.08.02.16.03.24.05M39.87,51.07c-.05-.01-.11-.02-.14-.03.05.01.09.02.14.03"/>
    <path class="st14" d="M39.97,51.09s-.06-.01-.09-.02c.03,0,.06.01.09.02M39.73,51.03s-.05-.02-.08-.02h0s.03.01.08.02"/>
    <path class="st10" d="M40.4,51.1c-.08-.01-.16-.03-.23-.04.08.02.15.03.23.04M40.08,51.04c-.05-.01-.1-.02-.14-.03l.14.03Z"/>
    <path class="st14" d="M40.17,51.06s-.06-.01-.09-.02c.03,0,.05.01.09.02M39.95,51.01s-.05-.01-.08-.02h0s.03,0,.08.02"/>
    <path class="st6" d="M53.42,34.7s-1.31,5.39-3.56,5.83c-2.25.44-4.69-.43-4.69-.43,0,0-.23-6.33.92-7.16,1.15-.83,3.81-2.03,7.33,1.77"/>
    <path class="st16" d="M45.16,40.07s.05.02.17.06c.03-1.94.21-4.61.93-5.12,1.07-.78,3.49-1.89,6.72,1.13.29-.84.44-1.47.44-1.47-3.53-3.8-6.19-2.61-7.33-1.77-1.15.83-.92,7.17-.92,7.17"/>
    <path class="st0" d="M46.5,37.33c0,1.22.99,2.22,2.22,2.22s2.22-.99,2.22-2.22-.99-2.22-2.22-2.22-2.22.99-2.22,2.22"/>
    <path class="st12" d="M48.82,38.81c.64-.05,1.13-.7,1.07-1.41s-.65-1.27-1.29-1.21c-.64.05-1.13.7-1.07,1.41.06.71.65,1.27,1.29,1.21h0Z"/>
    <path class="st25" d="M48.76,38.55c.45-.04.91-.53.86-1.13-.05-.61-.59-1.01-1.03-.98s-.91.53-.86,1.13.59,1.01,1.03.97h0Z"/>
    <path class="st6" d="M49.12,37.07c.02.22.24.38.5.35.26-.02.45-.22.43-.43-.02-.22-.24-.38-.5-.36s-.45.22-.43.43M47.69,38.33c.01.11.12.19.25.18s.22-.11.22-.22c0-.11-.12-.19-.25-.18s-.23.11-.22.22"/>
    <path class="st11" d="M38.22,34.79s-.42-.65-1.26-1.29c-.52-.4-1.04-.71-1.57-.94-.65-.27-1.34-.46-2.02-.56-.61-.07-1.29-.05-2.08.06-.6.11-1.19.29-1.69.51-.36.12-.64.3-.86.43-.09.05-.17.1-.24.14l-1.08.68,1.24-.29c.06-.01.12-.03.19-.05.26-.07.57-.15.95-.21.09-.01.18-.03.27-.05.15-.03.32-.06.49-.07.19-.01.38-.03.58-.04l.26-.02c.69,0,1.27.04,1.78.16.56.1,1.14.28,1.67.53.5.24.98.48,1.36.76.76.51,1.18.93,1.18.93.1.1.24.16.38.16.1,0,.2-.03.29-.09.25-.16.32-.5.16-.74v-.02s0,0,0,0ZM53.64,33.16c-.07-.04-.15-.09-.24-.14-.22-.14-.51-.31-.85-.43-.51-.22-1.1-.4-1.71-.52-.78-.1-1.46-.12-2.07-.06-.67.09-1.37.29-2.01.56-.52.22-1.05.54-1.57.94-.82.63-1.23,1.24-1.26,1.29h0c-.14.22-.11.51.07.69.1.1.24.16.38.16s.28-.06.38-.16h0s.45-.45,1.18-.94c.37-.27.85-.51,1.35-.75.53-.25,1.11-.43,1.68-.53.51-.12,1.09-.17,1.77-.16l.27.02c.2.01.39.03.58.04.17,0,.33.04.48.07.09.02.18.03.27.05.37.06.69.14.95.21.07.02.13.03.19.05l1.24.29-1.08-.68h0Z"/>
    <path class="st10" d="M39.97,52.15c-.08-.01-.16-.03-.23-.04.08.02.15.03.23.04M39.66,52.08c-.05-.01-.1-.02-.14-.03.05.01.09.02.14.03"/>
    <path class="st18" d="M39.74,52.1s-.06-.01-.09-.02c.03,0,.05.01.09.02M39.52,52.05s-.05-.01-.08-.02h0s.03,0,.08.02"/>
    <path class="st9" d="M37.77,53.21c-.06-.87,2.41.18,3.22.21.65.02,2.59-.13,2.78-.2,1.36-.51-.07,1.45-2.82,1.55-1.26.05-3.15-1.04-3.18-1.56h0Z"/>
    <path class="st19" d="M45.83,51.54c-.67-.03-1.36.53-2.17.44-.03-.02-.05-.02-.08-.02-.18-.03-.37,0-.57.05-.25.05-.51.15-.74.24-.4.13-.86.24-1.33.2s-.02,0-.03,0-.02,0-.03,0c-.47.03-.92-.07-1.33-.2-.24-.08-.49-.18-.74-.24-.2-.05-.38-.08-.57-.05-.03,0-.05,0-.08.02-.81.09-1.5-.47-2.17-.44-.18.02-.45-.03-.61-.03.03.02.07.03.1.05,1.92.93,3.57,2.69,5.4,2.63h.05c1.83.06,3.48-1.69,5.4-2.63.03-.02.07-.03.1-.05-.15,0-.42.05-.61.03"/>
    <path class="st23" d="M46.39,51.49s-1.95-.75-3.33-.31c0,0-.52.2-1.05.32-.33.13-.72.16-1.1.15-.29-.01-.57-.05-.8-.09-.07-.01-.15-.03-.23-.04-.03,0-.06-.01-.09-.02-.05-.01-.09-.02-.14-.03-.05-.01-.08-.02-.08-.02h0c-.44-.12-.82-.27-.82-.27-1.38-.44-3.33.31-3.33.31l-.04.02c.15,0,.42.05.61.03.67-.03,1.36.53,2.17.44.03-.02.05-.02.08-.02.18-.03.37,0,.57.05.25.05.51.15.74.24.4.13.86.24,1.33.2s.02,0,.03,0,.02,0,.03,0c.47.03.92-.07,1.33-.2.24-.08.49-.18.74-.24.2-.05.38-.08.57-.05.03,0,.05,0,.08.02.81.09,1.5-.47,2.17-.44.18.02.45-.03.61-.03l-.04-.02h0Z"/>
    <path class="st23" d="M37.64,51.95s3.65,1.11,6.48.02l-.33-.22h-3.82l-2.33.19Z"/>
    <path class="st13" d="M39.86,68.71v11.29h-13.21v-3.66l-1.92-.46c.14-1.17.34-2.25.59-3.23.18-.7.38-1.36.6-1.97,1.16-3.17,2.87-5.13,4.46-6.32,1.97,1.72,5.3,3.98,9.47,4.35"/>
    <path class="st1" d="M39.86,65.2v3.52c-4.17-.38-7.5-2.63-9.47-4.35,1.23-.92,2.37-1.4,3.13-1.63.56-.18.92-.22.92-.22h.02l3.38,1.95c.63.36,1.32.61,2.03.74"/>
    <path class="st13" d="M57.6,75.83l-2.16.51v3.66h-13.04v-11.3c2.88-.29,6.07-1.55,9.44-4.41,1.62,1.18,3.38,3.16,4.58,6.4.22.61.42,1.27.6,1.97.24.96.44,2.02.58,3.17"/>
    <path class="st1" d="M51.84,64.28c-3.36,2.87-6.56,4.13-9.44,4.41v-3.56c.58-.14,1.15-.35,1.68-.65l3.54-2c.08.02.18.03.27.03,0,0,.09.01.24.04h0c.26.06.72.17,1.3.4.68.26,1.52.68,2.4,1.33h0Z"/>
    <path class="st20" d="M52.22,71.13c0,.82-1.52,1.49-3.39,1.49s-3.39-.67-3.39-1.49,1.52-1.49,3.39-1.49,3.39.67,3.39,1.49"/>
    <path class="st4" d="M46.19,50.39c-1.08-1.33-3.04-1.43-5.28-1.4-2.24-.03-4.2.06-5.28,1.4-1,1.23-1.09,4.42.45,5.55.55-1.62.54-2.36,1.3-3.25.89-1.03,2.28-1.04,3.53-1.18,1.25.14,2.64.15,3.53,1.18.76.89.75,1.62,1.3,3.25,1.54-1.13,1.45-4.32.45-5.55M42.55,57.63h-3.39v.02c.01.05.03.1.05.15-.02,0-.03-.02-.05-.02,0,.37.16.73.44.97.04.03.08.07.12.11.4.37.84.84,1.3.84.02,0,.05,0,.07,0,.44-.05.85-.48,1.23-.83.04-.04.08-.07.12-.11.28-.24.44-.6.44-.97v-.15h-.32ZM40.62,28.62c.48.46,1.11,1.05,1.83,1.71,3.42,3.2,10.59,9.89,12.71,11.7l.04.03c.11.17.2.2.23.2l6.54,5.75-4.87-8.71,2.61,2.29-2.26-4.03c.97-2,1.96-5.34,1.96-8.67,0-4.42-1.48-8.34-5.35-12.52-.14-.15-.29-.31-.44-.46.2-1.36-.48-3.12-4.1-4.65,0,0,1.14,1.19,2.02,2.83-3.42-2.63-7.03-3.92-7.03-3.92l1.57,1.5c-.94-.74-2.62-1.76-5.43-2.66-3.99-1.28-6.58.14-6.58.14,0,0,2.08-.07,3.11.76-1.01-.44-2.75-.59-5.64.62-.18.07-.36.15-.52.23-1.05-.15-2.16-.43-3.31-.86,0,0,.73.81,1.95,1.61-.95.6-1.68,1.26-2.31,1.93-1.48.05-3.15-.09-4.94-.62,0,0,1.47,1.39,3.67,2.16-.33.43-.65.86-.98,1.25-1.44.38-3.11.6-4.99.48,0,0,1.34.78,3.22,1.17-.39.25-.82.46-1.32.63-4.05,1.35-5.22-.38-5.22-.38,0,0,1.76,3.03,4.87,3.04.5,0,.55-.01.56-.01,0,.01-.76,2.11-1.17,4.19-.93.35-1.95.65-3.09.83,0,0,1.23.38,2.89.42,0,.07-.02.15-.03.22-.23,2.47.49,4.16.71,8.78.19,3.95,1.22,1.92,2.44,4.83.41.97.43,2.07.43,2.07.45.11,1.64-2.37.79-6.69-.25-1.24.15-4,1.25-6.53s1.63-3.09,4.42-4.42l14.27,12.4-6.15-10.26c.15.15.31.29.46.46.06.06.11.12.17.18,0,0,0,0,0,0s.37.36.97.93.01.01.02.02h0Z"/>
  </g>
</svg>