<?xml version="1.0" encoding="UTF-8"?>
<svg id="Layer_2" xmlns="http://www.w3.org/2000/svg" version="1.1" xmlns:xlink="http://www.w3.org/1999/xlink" viewBox="0 0 80 80">
  <!-- Generator: Adobe Illustrator 30.2.1, SVG Export Plug-In . SVG Version: 2.1.1 Build 1)  -->
  <defs>
    <style>
      .st0 {
        fill: #b5957e;
      }

      .st1 {
        fill: #b8987d;
      }

      .st2 {
        fill: #714223;
      }

      .st3 {
        fill: #ccad8a;
      }

      .st4 {
        fill: #d7bd9d;
      }

      .st5 {
        fill: #fff;
      }

      .st6 {
        fill: #272213;
      }

      .st7 {
        fill: #71354e;
      }

      .st8 {
        fill: #b05d53;
      }

      .st9 {
        fill: #b7967d;
      }

      .st10 {
        fill: none;
      }

      .st11 {
        fill: #d2bb9b;
      }

      .st12 {
        fill: #ba9d82;
      }

      .st13 {
        fill: #dcc5a0;
      }

      .st14 {
        fill: #44361f;
      }

      .st15 {
        fill: #859e69;
      }

      .st16 {
        fill: #a98d76;
      }

      .st17 {
        fill: #462e1b;
      }

      .st18 {
        clip-path: url(#clippath);
      }

      .st19 {
        fill: #ebd9b5;
      }

      .st20 {
        fill: #3c3d39;
      }
    </style>
    <clipPath id="clippath">
      <rect class="st10" x="35.53" y="55.61" width="9.07" height="5.3"/>
    </clipPath>
  </defs>
  <g id="Layer_1-2">
    <path class="st7" d="M0,0h80v80H0V0Z"/>
    <path class="st13" d="M40.03,50.17v29.83h-16.37c-.27-.1-.4-.16-.4-.16,0-1.87.13-3.55.38-5.03.12-.76.27-1.47.45-2.14.18-.69.38-1.32.6-1.92.29-.79.62-1.51.98-2.15,1.13-2.06,2.49-3.42,3.77-4.31.65-.45,1.27-.79,1.81-1.03.42-.19.79-.32,1.09-.41.35-.1.62-.16.78-.19.1-.02.16-.02.16-.02.06,0,.12,0,.18-.01.51-.08.93-.53,1.27-1.23.25-.52.45-1.19.63-1.97.06-.3.12-.6.17-.93.08-.55.16-1.13.23-1.73.03-.37.06-.73.1-1.1.14-1.82.19-3.83.19-5.72,0,0,2.19.23,3.98.23h0Z"/>
    <path class="st19" d="M56.87,79.84s-.15.05-.39.16h-16.44v-29.83h.04c1.77,0,4-.23,4-.23,0,1.88.04,3.85.18,5.67.04.36.08.73.1,1.08.07.63.15,1.22.25,1.77h0c.02.26.08.49.12.72.17.78.36,1.46.6,2.01.29.68.65,1.16,1.08,1.34.14.06.29.09.44.09,0,0,.09.01.27.05.27.05.73.16,1.31.39.17.06.34.14.53.22.49.22,1.03.51,1.6.89,1.31.89,2.74,2.27,3.92,4.42.35.64.69,1.36.98,2.15.22.59.42,1.23.6,1.92.18.68.33,1.41.45,2.18.24,1.48.38,3.14.38,4.99h0Z"/>
    <g class="st18">
      <path class="st12" d="M44.6,58.45h0c-.41.64-1.8,2.45-4.54,2.45h-.03c-2.6-.01-4.12-1.87-4.5-2.42.08-.55.16-1.13.23-1.73.03-.35.06-.72.11-1.1,1.26.31,2.65.51,4.12.54h.05c1.52-.03,2.92-.24,4.22-.58.04.35.08.72.11,1.08.06.63.15,1.22.24,1.77"/>
    </g>
    <path class="st3" d="M39.84,16.02c-17.34,0-17.43,14.35-16.66,23.75-1.18-2.23-4.71-1.55-4.42,1.97.28,3.38,5.32,5.11,5.18,4.73,2.62,6.95,9.57,12.19,15.9,12.19h.13V16.02h-.13Z"/>
    <path class="st4" d="M39.94,16.02c17.34,0,17.43,14.35,16.67,23.75,1.18-2.23,4.7-1.55,4.41,1.97-.27,3.38-5.32,5.11-5.18,4.73-2.56,6.95-9.57,12.19-15.9,12.19h-.09l-.04-42.65h.13"/>
    <path class="st13" d="M39.71,20.07c-5.7,0-9.88,1.64-12.4,4.86-3.53,4.52-3.4,11.42-2.1,16.37.4,1.52.61,5.6.88,7.09,1.24,6.7,8.71,10.27,13.62,10.27h.13V20.07h-.08"/>
    <path class="st19" d="M52.09,24.94c-2.5-3.21-6.63-4.85-12.25-4.88v38.59c5.62-.06,12.34-3.97,13.49-10.27.28-1.49.48-5.57.88-7.09,1.3-4.94,1.44-11.83-2.12-16.36"/>
    <path class="st14" d="M35,20.16l-.07.07v.03s.05-.07.07-.1"/>
    <path class="st5" d="M27.4,35.13s1.32,5.37,3.59,5.81,4.73-.43,4.73-.43c0,0,.23-6.32-.93-7.14-1.16-.83-3.84-2.03-7.39,1.76h0ZM52.42,34.95s-1.32,5.37-3.59,5.81-4.73-.43-4.73-.43c0,0-.23-6.32.93-7.14,1.16-.83,3.84-2.03,7.39,1.76h0Z"/>
    <path class="st16" d="M19.87,40.26c.85-1.36,2.18-.77,2.5-.47.35.33.62.75.41,1.55-.12.46-.6.5-.49,1.18.13.77.49.81.7,1,.2.17.45.3.57.63.13.33.15.67.08.97-.13.55-.95.1-1.49-.13-.36-.17-1.51-1.13-1.8-1.44-.72-.81-1.06-2.39-.49-3.28M59.91,40.26c-.85-1.36-2.17-.77-2.5-.47-.35.33-.61.75-.41,1.55.12.46.6.5.49,1.18-.13.77-.49.81-.69,1-.2.17-.47.3-.58.63s-.15.67-.08.97c.13.55.95.1,1.49-.13.37-.17,1.51-1.13,1.8-1.44.73-.81,1.06-2.39.49-3.28"/>
    <path class="st10" d="M39.15,51.86c-.08-.01-.15-.03-.21-.04.07.01.14.03.21.04M38.85,51.8c-.05-.01-.1-.02-.13-.03.04.01.09.02.13.03"/>
    <path class="st9" d="M38.94,51.82s-.05-.01-.08-.02c.03,0,.05.01.08.02M38.72,51.77s-.05-.01-.07-.02.03,0,.08.02h0Z"/>
    <path class="st4" d="M36.52,46.07c-.06-1.33,2.47-.49,3.31-.45.66.03,2.68-.42,2.85-.3,1.18.79-1.25,2.38-2.89,2.38-.44,0-3.23-.83-3.27-1.63h0Z"/>
    <path class="st10" d="M24.3,32.1c-.16.51-.26,1.07-.34,1.67,0,0,.23-.94.73-2.33-.22.3-.36.54-.4.67M39.2,51.08c-.08-.01-.16-.03-.22-.04.08.01.15.03.22.04M38.9,51.02c-.05-.01-.1-.02-.13-.03.04.01.09.02.13.03"/>
    <path class="st0" d="M38.98,51.04s-.05-.01-.08-.02c.03,0,.05.01.08.02M38.76,50.99l-.08-.02s.03,0,.08.02"/>
    <path class="st11" d="M35.73,40.49s-.05.01-.17.06c-.03-1.94-.21-4.6-.94-5.11-1.08-.78-3.52-1.88-6.77,1.13-.3-.83-.44-1.46-.44-1.46,3.56-3.79,6.24-2.6,7.39-1.77,1.16.83.93,7.15.93,7.15h0Z"/>
    <ellipse class="st17" cx="32.15" cy="37.76" rx="2.23" ry="2.21"/>
    <path class="st2" d="M32.05,39.23c-.65-.05-1.14-.7-1.08-1.41.06-.71.65-1.27,1.3-1.21s1.14.7,1.08,1.41-.65,1.27-1.3,1.21h0Z"/>
    <path class="st6" d="M32.1,38.98c-.45-.04-.92-.53-.87-1.13.05-.6.59-1.01,1.04-.97s.91.53.87,1.13c-.05.6-.59,1.01-1.04.97h0Z"/>
    <path class="st10" d="M39.23,51.71c-.08-.01-.16-.03-.22-.04.08.01.15.03.22.04M38.93,51.65c-.05-.01-.1-.02-.13-.03.04.01.09.02.13.03"/>
    <path class="st0" d="M39.01,51.67s-.05-.01-.08-.02c.03,0,.05.01.08.02M38.8,51.62l-.08-.02s.03,0,.08.02"/>
    <path class="st10" d="M39.15,51.56c-.09-.01-.17-.03-.23-.04.08.02.16.03.23.04M38.82,51.5c-.05-.01-.11-.03-.14-.03.05.01.09.02.14.03"/>
    <path class="st9" d="M38.91,51.52s-.06-.01-.09-.02c.03,0,.05.01.09.02M38.68,51.47s-.05-.01-.08-.02.03.01.08.02h0Z"/>
    <path class="st10" d="M39.08,51.34c-.09-.01-.17-.03-.23-.04.08.02.16.03.23.04M38.76,51.27c-.05-.01-.11-.03-.14-.03.05.01.09.02.14.03"/>
    <path class="st9" d="M38.85,51.3s-.06-.01-.09-.02c.03,0,.05.01.09.02M38.61,51.24s-.05-.01-.08-.02.03.01.08.02h0Z"/>
    <path class="st10" d="M39.28,51.31c-.08-.01-.16-.03-.23-.04.08.02.15.03.23.04M38.97,51.25c-.05-.01-.1-.02-.14-.03.05.01.09.02.14.03"/>
    <path class="st9" d="M39.05,51.26s-.06-.01-.09-.02c.03,0,.05.01.09.02M38.83,51.21l-.08-.02s.03.01.08.02h0Z"/>
    <path class="st11" d="M44.09,40.31s.05.01.17.06c.03-1.94.21-4.6.94-5.11,1.08-.78,3.52-1.88,6.77,1.13.3-.83.44-1.46.44-1.46-3.56-3.79-6.24-2.6-7.39-1.77-1.16.83-.93,7.15-.93,7.15h0Z"/>
    <path class="st17" d="M45.44,37.58c0,1.22,1,2.21,2.23,2.21s2.23-.99,2.23-2.21-1-2.21-2.23-2.21-2.23.99-2.23,2.21"/>
    <path class="st2" d="M47.78,39.05c.65-.05,1.14-.7,1.08-1.41-.06-.71-.65-1.27-1.3-1.21s-1.14.7-1.08,1.41.65,1.27,1.3,1.21h0Z"/>
    <path class="st6" d="M47.72,38.79c.45-.04.92-.53.87-1.13-.05-.6-.59-1.01-1.04-.97-.45.04-.91.53-.87,1.13.05.6.59,1.01,1.04.97h0Z"/>
    <path class="st20" d="M37.09,35.04s-.43-.65-1.27-1.29c-.53-.4-1.04-.71-1.58-.93-.65-.27-1.35-.46-2.04-.55-.61-.07-1.3-.05-2.09.06-.61.11-1.2.29-1.7.51-.36.12-.64.29-.87.43-.09.05-.17.1-.25.14l-1.08.68,1.25-.29c.06-.01.12-.03.19-.05.26-.07.58-.15.96-.21.09-.01.18-.03.27-.05.16-.03.32-.06.49-.07.19-.01.39-.03.59-.04l.26-.02c.69,0,1.28.04,1.8.16.57.1,1.15.28,1.69.53.51.24.99.48,1.37.75.77.5,1.19.93,1.19.93.1.1.25.16.39.16.1,0,.21-.03.3-.09.25-.16.32-.5.16-.74v-.02s-.01,0-.01,0ZM52.64,33.41c-.07-.04-.15-.09-.24-.14-.23-.14-.51-.31-.86-.43-.51-.23-1.1-.4-1.72-.52-.79-.1-1.47-.12-2.09-.05-.68.09-1.38.28-2.03.55-.53.23-1.06.54-1.58.93-.83.63-1.24,1.24-1.27,1.28h0c-.14.23-.11.51.07.69.1.1.24.16.39.16s.28-.06.38-.16h0s.45-.44,1.19-.93c.37-.27.86-.51,1.36-.75.54-.25,1.12-.43,1.7-.53.51-.12,1.1-.17,1.78-.16l.27.02c.2.01.39.03.58.04.17,0,.33.04.49.07.09.02.18.04.27.05.38.05.7.14.96.21.07.02.13.04.19.05l1.25.29-1.09-.68h0Z"/>
    <path class="st5" d="M31.74,37.49c-.02.22-.25.38-.5.35-.26-.02-.45-.21-.44-.43s.24-.38.5-.36.45.21.44.43h0ZM33.19,38.75c-.01.11-.12.19-.25.18-.13-.01-.23-.11-.22-.21.01-.11.12-.19.25-.18.13.01.23.11.22.21M48.08,37.31c.02.22.25.38.5.35.26-.02.45-.21.44-.43s-.24-.38-.5-.36-.45.21-.44.43h0ZM46.63,38.57c.01.11.12.19.25.18.13-.01.23-.11.22-.21-.01-.11-.12-.19-.25-.18-.13.01-.23.11-.22.21"/>
    <path class="st10" d="M39.21,52.44c-.08-.01-.15-.03-.21-.04.07.01.14.03.21.04M38.92,52.38c-.05-.01-.1-.02-.13-.03.04.01.09.02.13.03"/>
    <path class="st9" d="M39,52.4s-.05-.01-.08-.02c.03,0,.05.01.08.02M38.79,52.35s-.05-.01-.07-.02.03,0,.08.02h0Z"/>
    <path class="st10" d="M39.26,51.66c-.08-.01-.16-.03-.22-.04.08.01.15.03.22.04M38.96,51.6c-.05-.01-.1-.02-.13-.03.04.01.09.02.13.03"/>
    <path class="st0" d="M39.04,51.61s-.05-.01-.08-.02c.03,0,.05.01.08.02M38.83,51.57l-.08-.02s.03,0,.08.02"/>
    <path class="st10" d="M39.3,52.29c-.08-.01-.16-.03-.22-.04.08.01.15.03.22.04M39,52.23c-.05-.01-.1-.02-.13-.03.04.01.09.02.13.03"/>
    <path class="st0" d="M39.08,52.25s-.05-.01-.08-.02c.03,0,.05.01.08.02M38.86,52.2l-.08-.02s.03,0,.08.02"/>
    <path class="st10" d="M39.21,52.14c-.09-.01-.17-.03-.23-.04.08.02.16.03.23.04M38.89,52.08c-.05-.01-.11-.03-.14-.03.05.01.09.02.14.03"/>
    <path class="st9" d="M38.98,52.1s-.06-.01-.09-.02c.03,0,.05.01.09.02M38.75,52.05s-.05-.01-.08-.02.03.01.08.02h0Z"/>
    <path class="st10" d="M39.15,51.92c-.09-.01-.17-.03-.23-.04.08.02.16.03.23.04M38.82,51.85c-.05-.01-.11-.03-.14-.03.05.01.09.02.14.03"/>
    <path class="st9" d="M38.91,51.87s-.06-.01-.09-.02c.03,0,.05.01.09.02M38.68,51.82s-.05-.01-.08-.02.03.01.08.02h0Z"/>
    <path class="st10" d="M39.35,51.89c-.08-.01-.16-.03-.23-.04.08.02.15.03.23.04M39.03,51.82c-.05-.01-.1-.02-.14-.03.05.01.09.02.14.03"/>
    <path class="st9" d="M39.12,51.84s-.06-.01-.09-.02c.03,0,.05.01.09.02M38.9,51.79l-.08-.02s.03.01.08.02h0Z"/>
    <path class="st10" d="M38.5,54.16c-.08-.01-.16-.03-.22-.04.08.01.14.03.22.04M38.19,54.11c-.05-.01-.1-.02-.13-.03.04.01.09.02.13.03"/>
    <path class="st1" d="M38.28,54.12s-.05-.01-.08-.02c.03,0,.05.01.08.02M38.06,54.08l-.08-.02s.03,0,.08.02"/>
    <path class="st10" d="M38.43,53.96c-.08-.01-.16-.03-.22-.04.08.01.14.03.22.04M38.13,53.9c-.05-.01-.1-.02-.13-.03.04.01.09.02.13.03"/>
    <path class="st1" d="M38.22,53.92s-.05-.01-.08-.02c.03,0,.05.01.08.02M38,53.87l-.08-.02s.03,0,.08.02"/>
    <path class="st10" d="M38.62,53.93c-.08-.01-.15-.03-.21-.04.07.01.14.03.21.04M38.33,53.87s-.1-.02-.13-.03c.04.01.08.02.13.03"/>
    <path class="st1" d="M38.41,53.89s-.05-.01-.08-.02c.03,0,.05.01.08.02M38.2,53.84s-.05-.01-.07-.02.03,0,.08.02h0Z"/>
    <path class="st8" d="M54.45,68.6c-1.18-2.14-2.61-3.53-3.92-4.42-.57-.38-1.11-.68-1.6-.89-.18-.08-.36-.15-.53-.22-.58-.23-1.04-.34-1.31-.39-2.6,2.9-5,3.93-7.07,3.95-3.15.02-5.57-2.3-6.91-3.98-.16.03-.42.09-.78.19-.3.09-.68.23-1.09.41-.55.25-1.17.58-1.81,1.03-1.27.89-2.64,2.25-3.77,4.31-.3.54-.57,1.14-.83,1.78h30.43c-.26-.64-.53-1.24-.83-1.78h0ZM25.52,80h29.28c-.06-.91-.12-2.33-.14-4.17h-28.99c-.02,1.84-.09,3.26-.14,4.17h0Z"/>
    <path class="st15" d="M54.65,75v-.78c0-.49,0-1.02.01-1.56h1.38c-.18-.69-.38-1.32-.6-1.92-.05-.13-.1-.25-.16-.37h-30.43c-.05.13-.1.24-.15.37-.22.59-.42,1.23-.6,1.92h1.56c0,.54.01,1.07.01,1.56v.77c0,.29,0,.56,0,.83h28.99c0-.27,0-.54,0-.83h0Z"/>
    <path class="st20" d="M42.04,56.12s.05,1.08-.2,1.11c-.18-.58-.27-1.29-.6-1.61-.52.6-1,.96-1,.96,0,0-.46-.38-.94-.98-.36.34-.69.84-.88,1.48-.05-.04-.18-.75-.18-.75,0,0-.85,1.03-1.01,1.73-.17.69.43,1.42.43,1.42,0,0,.28-.14.56-.38.25,1.73,1.95,3.1,1.95,3.1,0,0,1.72-1.27,2.06-2.97.21.15.4.23.4.23,0,0,.62-.74.43-1.43-.34-1.21-.99-1.94-.99-1.94h0ZM44.55,48.05c-.73-.06-1.56-.04-2.46,0-2.52.1-5.27.12-7.44.14-2.18.69-3.64,4.23-2.07,6.27,1.14-2.27,5.55,1.49,7.39-.93,1.76,2.36,5.93-.85,7.98.8,1.25-3.03-.43-6.03-3.4-6.27h0Z"/>
    <path class="st20" d="M49.97,13.26c-2.77-2.2-8.81-1.91-11.87-1.91-13.68-.14-16.33,7.53-16.76,11.77h-.08s-2.42,13.52-9.22,16.22c0,0,5.86,1.52,10.04-7.05.26,4.21-.75,7.96-.75,9.78,0,6.73,4.81,12.3,4.06,19.08-.49,4.47-2.45,7.93-2.45,7.93,0,0,2.25-3.06,3.17-5.93.92-2.87.61-8.03-.92-12.14-1.29-3.43-1.06-7.41-.42-10.73.04-.18.07-.36.1-.53.1-.46.21-.92.31-1.34.04-.13.07-.26.11-.4.09-.33.18-.67.28-1.02.05-.06.09-.12.12-.21.04-.14.06-.27.06-.39.05-.15.09-.3.14-.45-.1.87-.14,1.75-.08,2.64,0,.05,0,.09,0,.14.03.3.04.56.1.89l.1.59.04.22c.04.15.07.3.11.45.1.43.21.85.33,1.23.31,1.08.75,2.08,1.14,3.03.37.95.75,1.85,1.04,2.71.27.87.51,1.68.62,2.46.07.39.11.77.14,1.12.05.36.06.7.05,1.03.03.65-.03,1.22-.05,1.69-.11.95-.17,1.49-.17,1.49,0,0,.05-.13.16-.36.1-.24.28-.59.44-1.05.13-.47.35-1.03.46-1.71.14-.67.24-1.45.22-2.31.02-1.19-.2-2.51-.56-3.85-.13-.48-.27-.97-.43-1.45-.04-.12-.08-.24-.11-.36-.26-.79-.51-1.58-.74-2.37-.06-.2-.12-.4-.18-.6-.16-.51-.25-.98-.35-1.47l-.12-.81c-.04-.21-.04-.5-.06-.74-.06-.63-.07-1.27-.03-1.9.03-.38.06-.77.11-1.14.13-1.01.32-2.01.59-2.96.52-1.92,1.17-3.71,1.72-5.27.25-.7.48-1.34.68-1.93.08.66.31,1.51.98,2.16,3.8,3.68,7.05,4.15,9.78,4.39.03,0,.06,0,.08.01.03,0,.05,0,.08,0,1.19.1,2.27.17,3.26.47,5.55,1.66,6.47,7.44,9.81,7.82.25.03.51.03.78,0,.55-.07,1.06-.31,1.54-.65,1.01-.73,1.83-1.96,2.34-3.16s0,0,0,0c.18-.41.31-.82.42-1.2.07-.26.12-.52.15-.75.02-.15.03-.3.03-.44,0-.08,0-.16,0-.25,1.75-12.17-10.34-20.49-10.34-20.49h0Z"/>
  </g>
</svg>