<?xml version="1.0" encoding="UTF-8"?>
<svg id="Layer_2" xmlns="http://www.w3.org/2000/svg" version="1.1" xmlns:xlink="http://www.w3.org/1999/xlink" viewBox="0 0 80 80">
  <!-- Generator: Adobe Illustrator 30.2.1, SVG Export Plug-In . SVG Version: 2.1.1 Build 1)  -->
  <defs>
    <style>
      .st0 {
        fill: #dac6a4;
      }

      .st1 {
        fill: #b5957e;
      }

      .st2 {
        fill: #b8987d;
      }

      .st3 {
        fill: #714223;
      }

      .st4 {
        fill: #ccad8a;
      }

      .st5 {
        fill: #ecdab6;
      }

      .st6 {
        fill: #5d373b;
      }

      .st7 {
        fill: #d7bd9d;
      }

      .st8 {
        fill: #fff;
      }

      .st9 {
        fill: #272213;
      }

      .st10 {
        fill: #b7967d;
      }

      .st11 {
        fill: none;
      }

      .st12 {
        fill: #d2bb9b;
      }

      .st13 {
        fill: #ba9d82;
      }

      .st14 {
        fill: #d9ab31;
      }

      .st15 {
        fill: #dcc5a0;
      }

      .st16 {
        fill: #c1a587;
      }

      .st17 {
        fill: #44361f;
      }

      .st18 {
        fill: #8c6297;
      }

      .st19 {
        fill: #52839e;
      }

      .st20 {
        fill: #a98d76;
      }

      .st21 {
        fill: #462e1b;
      }

      .st22 {
        clip-path: url(#clippath);
      }

      .st23 {
        fill: #785458;
      }

      .st24 {
        fill: #ebd9b5;
      }
    </style>
    <clipPath id="clippath">
      <rect class="st11" x="35.78" y="55.47" width="9.07" height="5.3"/>
    </clipPath>
  </defs>
  <g id="Layer_1-2">
    <path class="st14" d="M43.32,55.66s.09,1.97-.37,2.03c-.32-1.07-.49-2.36-1.1-2.95-.95,1.09-1.83,1.76-1.83,1.76,0,0-.84-.69-1.73-1.78-.67.62-1.25,1.54-1.62,2.71-.09-.06-.32-1.37-.32-1.37,0,0-1.55,1.89-1.86,3.16-.3,1.26.78,2.61.78,2.61,0,0,.52-.26,1.01-.68.45,3.16,3.56,5.66,3.56,5.66,0,0,3.15-2.33,3.78-5.43.38.27.73.43.73.43,0,0,1.14-1.35.78-2.61-.62-2.2-1.81-3.55-1.81-3.55h0Z"/>
    <path class="st18" d="M0,0h80v80H0V0Z"/>
    <path class="st15" d="M40.28,50.03v29.97h-16.37c-.27-.1-.4-.16-.4-.16,0-3.82.57-6.8,1.43-9.13,1.04-2.81,2.52-4.66,3.96-5.88.87-.74,1.72-1.24,2.45-1.58.39-.18.75-.32,1.06-.42.06-.02.13-.04.18-.06.58-.18.93-.21.93-.21.06,0,.12,0,.18-.02.21-.03.4-.13.58-.28.26-.21.49-.54.69-.96,0-.01.01-.02.02-.02h0c.24-.52.44-1.18.61-1.95.06-.3.12-.6.17-.93.08-.55.16-1.14.23-1.74.03-.37.06-.73.1-1.11.15-1.83.19-3.84.19-5.74,0,0,2.19.23,3.98.23h0Z"/>
    <path class="st24" d="M57.12,79.84s-.15.05-.39.16h-16.44v-29.97h.04c1.77,0,4-.23,4-.23,0,1.89.04,3.87.18,5.71.04.36.08.73.11,1.08.06.63.14,1.22.24,1.78h0c.03.26.08.49.12.73.16.78.35,1.47.59,2.02.29.69.65,1.16,1.09,1.35.05.02.09.04.15.05.09.03.19.04.28.04,0,0,.21.02.57.11.14.04.3.08.49.14.16.05.33.11.52.18.17.06.34.14.53.22h0c.97.45,2.18,1.18,3.35,2.38,1.17,1.19,2.29,2.83,3.14,5.11.86,2.33,1.43,5.31,1.43,9.13h0Z"/>
    <g class="st22">
      <path class="st13" d="M44.85,58.32h0c-.41.64-1.8,2.45-4.54,2.45h-.03c-2.6-.01-4.12-1.87-4.5-2.42.08-.55.16-1.13.23-1.73.03-.35.06-.72.11-1.1,1.26.31,2.65.51,4.12.54h.05c1.52-.03,2.92-.24,4.22-.58.04.35.08.72.11,1.08.06.63.15,1.22.24,1.77"/>
    </g>
    <path class="st4" d="M40.1,15.88c-17.34,0-17.43,14.35-16.66,23.75-1.18-2.23-4.71-1.55-4.42,1.97.28,3.38,5.32,5.11,5.18,4.73,2.62,6.95,9.57,12.19,15.9,12.19h.13V15.88h-.13Z"/>
    <path class="st20" d="M20.12,40.12c.85-1.36,2.18-.77,2.5-.47.35.33.62.75.41,1.55-.12.46-.6.5-.49,1.18.13.77.49.81.7,1,.2.17.45.3.57.63.13.33.15.67.08.97-.13.55-.95.1-1.49-.13-.36-.17-1.51-1.13-1.8-1.44-.72-.81-1.06-2.39-.49-3.28"/>
    <path class="st7" d="M40.19,15.88c17.34,0,17.43,14.35,16.67,23.75,1.18-2.23,4.7-1.55,4.41,1.97-.27,3.38-5.32,5.11-5.18,4.73-2.56,6.95-9.57,12.19-15.9,12.19h-.09l-.04-42.65h.13"/>
    <path class="st20" d="M60.16,40.12c-.85-1.36-2.17-.77-2.5-.47-.35.33-.61.75-.41,1.55.12.46.6.5.49,1.18-.13.77-.49.81-.69,1-.2.17-.47.3-.58.63s-.15.67-.08.97c.13.55.95.1,1.49-.13.37-.17,1.51-1.13,1.8-1.44.73-.81,1.06-2.39.49-3.28"/>
    <path class="st15" d="M39.96,19.93c-5.7,0-9.88,1.64-12.4,4.86-3.53,4.52-3.4,11.42-2.1,16.37.4,1.52.61,5.6.88,7.09,1.24,6.7,8.71,10.27,13.62,10.27h.13V19.93h-.08"/>
    <path class="st24" d="M52.34,24.81c-2.5-3.21-6.63-4.85-12.25-4.88v38.59c5.62-.06,12.34-3.97,13.49-10.27.28-1.49.48-5.57.88-7.09,1.3-4.94,1.44-11.83-2.12-16.36"/>
    <path class="st11" d="M39.4,50.28c-.08-.01-.15-.03-.21-.04.07.01.14.03.21.04M39.1,51.67c-.05-.01-.1-.02-.13-.03.04.01.09.02.13.03"/>
    <path class="st10" d="M39.18,51.69s-.05-.01-.08-.02c.03,0,.05.01.08.02M38.97,51.64s-.05-.01-.07-.02.03,0,.08.02h0Z"/>
    <path class="st7" d="M36.78,46.68c-.06-1.33,2.47-.49,3.31-.45.66.03,2.68-.42,2.85-.3,1.18.79-1.25,2.38-2.89,2.38-.44,0-3.23-.83-3.27-1.63h0Z"/>
    <path class="st11" d="M24.55,31.96c-.16.51-.26,1.07-.34,1.67,0,0,.23-.94.73-2.33-.22.3-.36.54-.4.67"/>
    <path class="st17" d="M35.25,20.03l-.07.07v.03s.05-.07.07-.1"/>
    <path class="st11" d="M39.45,50.94c-.08-.01-.16-.03-.22-.04.08.01.15.03.22.04M39.15,50.89c-.05-.01-.1-.02-.13-.03.04.01.09.02.13.03"/>
    <path class="st1" d="M39.23,50.9s-.05-.01-.08-.02c.03,0,.05.01.08.02M39.01,50.85l-.08-.02s.03,0,.08.02"/>
    <path class="st8" d="M27.65,34.99s1.32,5.37,3.59,5.81,4.73-.43,4.73-.43c0,0,.23-6.32-.93-7.14-1.16-.83-3.84-2.03-7.39,1.76h0Z"/>
    <path class="st12" d="M35.98,40.36s-.05.01-.17.06c-.03-1.94-.21-4.6-.94-5.11-1.08-.78-3.52-1.88-6.77,1.13-.3-.83-.44-1.46-.44-1.46,3.56-3.79,6.24-2.6,7.39-1.77,1.16.83.93,7.15.93,7.15h0Z"/>
    <ellipse class="st21" cx="32.4" cy="37.62" rx="2.23" ry="2.21"/>
    <path class="st3" d="M32.3,39.1c-.65-.05-1.14-.7-1.08-1.41.06-.71.65-1.27,1.3-1.21s1.14.7,1.08,1.41-.65,1.27-1.3,1.21h0Z"/>
    <path class="st9" d="M32.35,38.84c-.45-.04-.92-.53-.87-1.13.05-.6.59-1.01,1.04-.97s.91.53.87,1.13c-.05.6-.59,1.01-1.04.97h0Z"/>
    <path class="st8" d="M31.99,37.36c-.02.22-.25.38-.5.35-.26-.02-.45-.21-.44-.43s.24-.38.5-.36.45.21.44.43h0ZM33.44,38.61c-.01.11-.12.19-.25.18-.13-.01-.23-.11-.22-.21.01-.11.12-.19.25-.18.13.01.23.11.22.21"/>
    <path class="st11" d="M39.49,51.58c-.08-.01-.16-.03-.22-.04.08.01.15.03.22.04M39.18,51.52c-.05-.01-.1-.02-.13-.03.04.01.09.02.13.03"/>
    <path class="st1" d="M39.27,51.54s-.05-.01-.08-.02c.03,0,.05.01.08.02M39.05,51.49l-.08-.02s.03,0,.08.02"/>
    <path class="st11" d="M39.4,51.43c-.09-.01-.17-.03-.23-.04.08.02.16.03.23.04M39.08,51.36c-.05-.01-.11-.03-.14-.03.05.01.09.02.14.03"/>
    <path class="st10" d="M39.17,51.39s-.06-.01-.09-.02c.03,0,.05.01.09.02M38.93,51.33s-.05-.01-.08-.02.03.01.08.02h0Z"/>
    <path class="st11" d="M39.33,51.2c-.09-.01-.17-.03-.23-.04.08.02.16.03.23.04M39.01,51.14c-.05-.01-.11-.03-.14-.03.05.01.09.02.14.03"/>
    <path class="st10" d="M39.1,51.16s-.06-.01-.09-.02c.03,0,.05.01.09.02M38.87,51.11s-.05-.01-.08-.02.03.01.08.02h0Z"/>
    <path class="st11" d="M39.53,51.17c-.08-.01-.16-.03-.23-.04.08.02.15.03.23.04M39.22,51.11c-.05-.01-.1-.02-.14-.03.05.01.09.02.14.03"/>
    <path class="st10" d="M39.31,51.13s-.06-.01-.09-.02c.03,0,.05.01.09.02M39.08,51.08l-.08-.02s.03.01.08.02h0Z"/>
    <path class="st8" d="M52.66,34.81s-1.32,5.37-3.59,5.81-4.73-.43-4.73-.43c0,0-.23-6.32.93-7.14,1.16-.83,3.84-2.03,7.39,1.76h0Z"/>
    <path class="st12" d="M44.34,40.18s.05.01.17.06c.03-1.94.21-4.6.94-5.11,1.08-.78,3.52-1.88,6.77,1.13.3-.83.44-1.46.44-1.46-3.56-3.79-6.24-2.6-7.39-1.77-1.16.83-.93,7.15-.93,7.15h0Z"/>
    <path class="st21" d="M45.69,37.44c0,1.22,1,2.21,2.23,2.21s2.23-.99,2.23-2.21-1-2.21-2.23-2.21-2.23.99-2.23,2.21"/>
    <path class="st3" d="M48.03,38.91c.65-.05,1.14-.7,1.08-1.41-.06-.71-.65-1.27-1.3-1.21s-1.14.7-1.08,1.41.65,1.27,1.3,1.21h0Z"/>
    <path class="st9" d="M47.97,38.66c.45-.04.92-.53.87-1.13-.05-.6-.59-1.01-1.04-.97-.45.04-.91.53-.87,1.13.05.6.59,1.01,1.04.97h0Z"/>
    <path class="st8" d="M48.33,37.18c.02.22.25.38.5.35.26-.02.45-.21.44-.43s-.24-.38-.5-.36-.45.21-.44.43h0ZM46.88,38.43c.01.11.12.19.25.18.13-.01.23-.11.22-.21-.01-.11-.12-.19-.25-.18-.13.01-.23.11-.22.21"/>
    <path d="M37.34,34.91s-.43-.65-1.27-1.29c-.53-.4-1.04-.71-1.58-.93-.65-.27-1.35-.46-2.04-.55-.61-.07-1.3-.05-2.09.06-.61.11-1.2.29-1.7.51-.36.12-.64.29-.87.43-.09.05-.17.1-.25.14l-1.08.68,1.25-.29c.06-.01.12-.03.19-.05.26-.07.58-.15.96-.21.09-.01.18-.03.27-.05.16-.03.32-.06.49-.07.19-.01.39-.03.59-.04l.26-.02c.69,0,1.28.04,1.8.16.57.1,1.15.28,1.69.53.51.24.99.48,1.37.75.77.5,1.19.93,1.19.93.1.1.25.16.39.16.1,0,.21-.03.3-.09.25-.16.32-.5.16-.74v-.02s-.01,0-.01,0ZM52.89,33.27c-.07-.04-.15-.09-.24-.14-.23-.14-.51-.31-.86-.43-.51-.23-1.1-.4-1.72-.52-.79-.1-1.47-.12-2.09-.05-.68.09-1.38.28-2.03.55-.53.23-1.06.54-1.58.93-.83.63-1.24,1.24-1.27,1.28h0c-.14.23-.11.51.07.69.1.1.24.16.39.16s.28-.06.38-.16h0s.45-.44,1.19-.93c.37-.27.86-.51,1.36-.75.54-.25,1.12-.43,1.7-.53.51-.12,1.1-.17,1.78-.16l.27.02c.2.01.39.03.58.04.17,0,.33.04.49.07.09.02.18.04.27.05.38.05.7.14.96.21.07.02.13.04.19.05l1.25.29-1.09-.68h0Z"/>
    <path class="st11" d="M39.1,52.22c-.08-.01-.16-.03-.23-.04.08.02.16.03.23.04M38.79,52.15c-.05-.01-.1-.03-.14-.03l.14.03Z"/>
    <path class="st2" d="M38.87,52.17s-.06-.01-.09-.02c.03,0,.05.01.09.02M38.65,52.12s-.05-.01-.08-.02.03.01.08.02"/>
    <path class="st5" d="M36.89,53.28c-.06-.87,2.43.18,3.25.21.65.02,2.62-.13,2.8-.2,1.37-.51-.08,1.44-2.84,1.55-1.27.05-3.17-1.03-3.21-1.56h0Z"/>
    <path class="st0" d="M45.01,51.61c-.68-.03-1.37.53-2.19.44-.03-.02-.05-.02-.08-.02-.19-.03-.37,0-.58.05-.25.05-.51.15-.75.24-.41.13-.87.24-1.34.2s-.02,0-.03,0h-.03c-.47.03-.93-.07-1.34-.2-.24-.08-.49-.18-.75-.24-.2-.05-.39-.08-.58-.05-.04,0-.05,0-.08.02-.82.09-1.51-.47-2.19-.44-.19.02-.46-.03-.61-.03.03.02.07.03.1.05,1.93.93,3.6,2.68,5.44,2.62h.05c1.84.06,3.51-1.69,5.44-2.62.04-.02.07-.03.1-.05-.15,0-.42.05-.61.03h-.01Z"/>
    <path class="st16" d="M45.58,51.56s-1.96-.75-3.36-.31c0,0-.52.2-1.06.32-.33.13-.73.16-1.11.15-.29-.01-.57-.05-.8-.09-.08-.01-.15-.03-.23-.04-.03,0-.06-.01-.09-.02l-.14-.03c-.05-.01-.08-.02-.08-.02-.45-.12-.83-.27-.83-.27-1.4-.44-3.36.31-3.36.31-.03.01-.04.02-.04.02.15,0,.42.05.61.03.68-.03,1.37.53,2.19.44.03-.02.05-.02.08-.02.19-.03.37,0,.58.05.25.05.51.15.75.24.41.13.87.24,1.34.2s.02,0,.03,0h.03c.47.03.93-.07,1.34-.2.24-.08.49-.18.75-.24.2-.05.39-.08.58-.05.04,0,.05,0,.08.02.82.09,1.51-.47,2.19-.44.19.02.46-.03.61-.03,0,0-.02,0-.04-.02h0Z"/>
    <path class="st16" d="M36.75,52.02s3.68,1.11,6.53.03l-.33-.22h-3.85l-2.35.19Z"/>
    <path class="st19" d="M57.12,79.84s-.15.05-.39.16H23.92c-.27-.1-.4-.16-.4-.16,0-3.82.57-6.8,1.43-9.13,1.04-2.81,2.52-4.66,3.96-5.88l3.35,3.05c2.27,2.07,5.13,3.19,8.03,3.33,2.98.14,6.01-.75,8.52-2.7l3.74-2.92c1.17,1.19,2.29,2.83,3.14,5.11.86,2.33,1.43,5.31,1.43,9.13h0Z"/>
    <path class="st6" d="M25.35,15.47c4.01-4.28,9.9-6.35,9.9-6.35l-1.63,1.54c.98-.75,2.72-1.8,5.62-2.73,4.14-1.31,6.82.15,6.82.15,0,0-2.17-.08-3.22.78,1.04-.45,2.84-.62,5.86.63,5.89,2.44,5.78,6.82,9.88,8.16,4.19,1.38,5.41-.39,5.41-.39,0,0-1.82,3.1-5.05,3.11-.52,0-.57-.01-.58-.01,0,.01,1.21,3.32,1.44,5.8.24,2.53-.5,4.26-.73,8.99-.2,4.04-1.26,1.97-2.53,4.95-.43,1-.44,2.12-.44,2.12-.32.08-.98-1.06-1.11-3.18-1.56,3.59-3.44,6.08-3.44,6.08,4.75-16.98-1.13-18.09-1.13-18.09-2.53-.21-5.87.8-7.32,6.92,0,0-.72-5.15.71-9.19-2.37,1.33-7.44,4.98-7.52,11.95,0,0-4.52-6.82,0-13.56,0,0-4.62,1.14-3.82,12.48,0,0-2.12-1.6-2.45-8.91,0,0-1.39,2.57-1.56,6.91-.64-.44-1.24-.93-1.77-1.47-.1,2.66.34,6.44,1.84,11.82,0,0-2.29-3.03-3.91-7.23.26,5.27-.69,5.24-.69,5.24-.35,0,.03-1.95-1.16-3.3-1.18-1.34-2.97-5.87-2.97-10.39s1.54-8.54,5.54-12.82h0Z"/>
    <path class="st23" d="M54.31,50.63c.06-.11.13-.21.19-.33.01-.02.02-.03.02-.03,0,0,0,0,0,.01.69-1.18,1.23-2.46,1.56-3.84l-.02-1.64-.73.54s-4.65,10.34-8.57,7.71v.05c-.21-.6-.49-1.12-.85-1.5-1.11-1.62-3.35-2.73-5.94-2.73-2.39,0-4.47.94-5.66,2.35-.53.36-.96.99-1.23,1.78h0c-3.92,2.62-8.26-7.66-8.26-7.66l-.73-.54-.02,1.64c.41,1.77,1.2,3.36,2.16,4.79-.04-.06-.09-.13-.13-.19,0,0,5.91,8.9-1.16,11.41,0,0,3.19-.06,4.71-1.79.4-.45,1.07-.51,1.52-.11.84.77,1.68,2.21.04,4.33,0,0,1.42-.21,2.58-.96.72-.46,1.65.06,1.61.9-.11,2.6-1.18,5.06-3.89,8.1l7.13-7.06,1.51-1.45v-4.54h.03v4.65l1.51,1.45,7.13,7.06c-2.71-3.04-3.77-5.5-3.89-8.1-.04-.85.9-1.37,1.61-.9,1.17.75,2.58.96,2.58.96-1.64-2.12-.81-3.55.04-4.33.44-.4,1.12-.34,1.52.11,1.52,1.73,4.71,1.79,4.71,1.79-6.27-2.23-2.1-10.18-1.09-11.94h.02ZM34.43,54.92c0-.43.2-.83.52-1.1.98-.83,2.32-1.42,3.84-1.63.38-.05.78-.08,1.18-.08s.79.03,1.18.08c1.38.19,2.6.69,3.55,1.41.42.31.67.81.67,1.32h0c0,.84-.17,1.62-.45,2.26-.49.22-1.06.41-1.69.56,0-.02.01-.04.01-.06,0-.62-1.49-1.12-3.34-1.12s-3.34.5-3.34,1.12v.03c-.65-.16-1.23-.37-1.72-.61-.26-.63-.42-1.37-.42-2.17h0s0,0,0,0Z"/>
  </g>
</svg>