<?xml version="1.0" encoding="UTF-8"?>
<svg id="Layer_2" xmlns="http://www.w3.org/2000/svg" version="1.1" xmlns:xlink="http://www.w3.org/1999/xlink" viewBox="0 0 80 80">
  <!-- Generator: Adobe Illustrator 30.2.1, SVG Export Plug-In . SVG Version: 2.1.1 Build 1)  -->
  <defs>
    <style>
      .st0 {
        fill: #dac6a4;
      }

      .st1 {
        fill: #b5957e;
      }

      .st2 {
        fill: #b8987d;
      }

      .st3 {
        fill: #604043;
      }

      .st4 {
        fill: #714223;
      }

      .st5 {
        fill: #ccad8a;
      }

      .st6 {
        fill: #ecdab6;
      }

      .st7 {
        fill: #513128;
      }

      .st8 {
        fill: #d7bd9d;
      }

      .st9 {
        fill: #fff;
      }

      .st10 {
        fill: #272213;
      }

      .st11 {
        fill: #e5b344;
      }

      .st12 {
        fill: #b7967d;
      }

      .st13 {
        fill: none;
      }

      .st14 {
        fill: #aec32f;
      }

      .st15 {
        fill: #d2bb9b;
      }

      .st16 {
        fill: #ba9d82;
      }

      .st17 {
        fill: #d07769;
      }

      .st18 {
        fill: #dcc5a0;
      }

      .st19 {
        fill: #dc9800;
      }

      .st20 {
        fill: #c1a587;
      }

      .st21 {
        fill: #44361f;
      }

      .st22 {
        fill: #a98d76;
      }

      .st23 {
        fill: #462e1b;
      }

      .st24 {
        clip-path: url(#clippath);
      }

      .st25 {
        fill: #75842d;
      }

      .st26 {
        fill: #785458;
      }

      .st27 {
        fill: #ebd9b5;
      }
    </style>
    <clipPath id="clippath">
      <rect class="st13" x="35.58" y="55.39" width="9.07" height="5.31"/>
    </clipPath>
  </defs>
  <g id="Layer_1-2">
    <path class="st17" d="M0,0h80v80H0V0Z"/>
    <path class="st18" d="M40.08,49.94v30.06h-16.36c-.27-.1-.4-.16-.4-.16,0-3.83.57-6.83,1.43-9.16,1.02-2.75,2.45-4.58,3.85-5.8,1.46-1.28,2.9-1.88,3.8-2.16h.01c.57-.18.92-.22.92-.22.06,0,.12,0,.18-.02.52-.08.93-.53,1.27-1.24.25-.53.45-1.2.63-1.98.06-.3.12-.61.17-.94.08-.56.16-1.14.23-1.75.03-.37.06-.73.11-1.11.14-1.84.18-3.85.18-5.76,0,0,2.2.23,3.98.23h0Z"/>
    <path class="st27" d="M56.92,79.84s-.14.05-.39.16h-16.44v-30.06h.04c1.77,0,4-.23,4-.23,0,1.9.04,3.88.18,5.72.04.36.08.73.11,1.08.06.64.14,1.24.24,1.79h0c.03.26.08.49.12.73.16.79.35,1.47.59,2.02.29.69.65,1.17,1.09,1.36.14.06.28.09.44.09,0,0,.3.04.81.18.22.06.48.15.76.26.88.34,2.04.94,3.22,1.97,1.39,1.22,2.8,3.04,3.81,5.76.87,2.34,1.43,5.33,1.43,9.16h0Z"/>
    <g class="st24">
      <path class="st16" d="M44.65,58.25h0c-.41.65-1.8,2.46-4.54,2.46h-.03c-2.6-.01-4.12-1.88-4.5-2.43.08-.55.16-1.13.23-1.73.03-.35.06-.72.11-1.1,1.26.31,2.65.51,4.12.54h.05c1.52-.03,2.92-.24,4.22-.58.04.35.08.72.11,1.08.06.63.15,1.22.24,1.77"/>
    </g>
    <path class="st5" d="M39.9,15.68c-17.34,0-17.43,14.4-16.66,23.83-1.18-2.23-4.71-1.55-4.42,1.97.28,3.39,5.32,5.12,5.18,4.75,2.62,6.97,9.57,12.23,15.9,12.23h.13V15.68h-.13Z"/>
    <path class="st22" d="M19.92,40c.85-1.37,2.18-.78,2.5-.47.35.33.62.75.41,1.55-.12.46-.6.5-.49,1.18.13.78.49.82.7,1,.2.17.45.3.57.63.13.33.15.67.08.97-.13.55-.95.1-1.49-.13-.36-.17-1.51-1.13-1.8-1.45-.72-.82-1.06-2.39-.49-3.29"/>
    <path class="st8" d="M39.99,15.68c17.34,0,17.43,14.4,16.67,23.83,1.18-2.23,4.7-1.55,4.41,1.97-.27,3.39-5.32,5.12-5.18,4.75-2.56,6.97-9.57,12.23-15.9,12.23h-.09l-.04-42.78h.13"/>
    <path class="st22" d="M59.96,40c-.85-1.37-2.17-.78-2.5-.47-.35.33-.61.75-.41,1.55.12.46.6.5.49,1.18-.13.78-.49.82-.69,1-.2.17-.47.3-.58.63s-.15.67-.08.97c.13.55.95.1,1.49-.13.37-.17,1.51-1.13,1.8-1.45.73-.82,1.06-2.39.49-3.29"/>
    <path class="st18" d="M39.76,19.74c-5.7,0-9.88,1.64-12.4,4.88-3.53,4.54-3.4,11.45-2.1,16.42.4,1.53.61,5.61.88,7.12,1.24,6.72,8.71,10.3,13.62,10.3h.13V19.74h-.08"/>
    <path class="st27" d="M52.14,24.63c-2.5-3.22-6.63-4.87-12.25-4.89v38.72c5.62-.06,12.34-3.98,13.49-10.3.28-1.5.48-5.59.88-7.12,1.3-4.96,1.44-11.86-2.12-16.41"/>
    <path class="st13" d="M39.2,50.19c-.08-.01-.15-.03-.21-.04.07.01.14.03.21.04M38.9,51.58c-.05-.01-.1-.02-.13-.03.04.01.09.02.13.03"/>
    <path class="st12" d="M38.99,51.6s-.05-.01-.08-.02c.03,0,.05.01.08.02M38.77,51.55s-.05-.01-.07-.02.03,0,.08.02h0Z"/>
    <path class="st8" d="M36.58,46.57c-.06-1.34,2.47-.49,3.31-.45.66.03,2.68-.42,2.85-.3,1.18.79-1.25,2.39-2.89,2.39-.44,0-3.23-.83-3.27-1.64h0Z"/>
    <path class="st13" d="M24.35,31.81c-.16.51-.26,1.07-.34,1.67,0,0,.23-.94.73-2.34-.22.3-.36.54-.4.67"/>
    <path class="st21" d="M35.05,19.84l-.07.07v.03s.05-.07.07-.1"/>
    <path class="st13" d="M39.25,50.85c-.08-.01-.16-.03-.22-.04.08.01.15.03.22.04M38.95,50.79c-.05-.01-.1-.02-.13-.03.04.01.09.02.13.03"/>
    <path class="st1" d="M39.03,50.81s-.05-.01-.08-.02c.03,0,.05.01.08.02M38.82,50.76l-.08-.02s.03.01.08.02"/>
    <path class="st9" d="M27.45,34.85s1.32,5.39,3.59,5.83,4.73-.44,4.73-.44c0,0,.23-6.34-.93-7.16-1.16-.83-3.84-2.03-7.39,1.77"/>
    <path class="st15" d="M35.78,40.23s-.05.01-.17.06c-.03-1.94-.21-4.61-.94-5.12-1.08-.79-3.52-1.89-6.77,1.13-.3-.84-.44-1.47-.44-1.47,3.56-3.81,6.24-2.61,7.39-1.78,1.16.83.93,7.17.93,7.17"/>
    <ellipse class="st23" cx="32.2" cy="37.49" rx="2.23" ry="2.22"/>
    <path class="st4" d="M32.1,38.97c-.65-.05-1.14-.7-1.08-1.41s.65-1.27,1.3-1.22,1.14.7,1.08,1.41c-.06.71-.65,1.27-1.3,1.22h0Z"/>
    <path class="st10" d="M32.16,38.71c-.45-.04-.92-.53-.87-1.13.05-.6.59-1.01,1.04-.98.45.04.91.53.87,1.13-.05.6-.59,1.01-1.04.98h0Z"/>
    <path class="st9" d="M31.79,37.22c-.02.22-.25.38-.5.36-.26-.02-.45-.22-.44-.43.02-.22.24-.38.5-.36s.45.21.44.44h0ZM33.24,38.48c-.01.11-.12.19-.25.18-.13-.01-.23-.11-.22-.22.01-.11.12-.19.25-.18.13.01.23.11.22.22"/>
    <path class="st13" d="M39.29,51.49c-.08-.01-.16-.03-.22-.04.08.01.15.03.22.04M38.98,51.43c-.05-.01-.1-.02-.13-.03.04.01.09.02.13.03"/>
    <path class="st1" d="M39.07,51.45s-.05-.01-.08-.02c.03,0,.05.01.08.02M38.85,51.4l-.08-.02s.03,0,.08.02"/>
    <path class="st13" d="M39.2,51.34c-.09-.01-.17-.03-.23-.05.08.02.16.03.23.05M38.88,51.27c-.05-.01-.11-.03-.14-.03.05.01.09.02.14.03"/>
    <path class="st12" d="M38.97,51.29s-.06-.01-.09-.02c.03,0,.05.01.09.02M38.73,51.24s-.05-.01-.08-.02.03.01.08.02h0Z"/>
    <path class="st13" d="M39.13,51.11c-.09-.01-.17-.03-.23-.04.08.02.16.03.23.04M38.81,51.05c-.05-.01-.11-.03-.14-.03.05.01.09.02.14.03"/>
    <path class="st12" d="M38.9,51.07s-.06-.01-.09-.02c.03,0,.05.01.09.02M38.66,51.02s-.05-.01-.08-.02.03.01.08.02h0Z"/>
    <path class="st13" d="M39.34,51.08c-.08-.01-.16-.03-.23-.04.08.02.15.03.23.04M39.02,51.02c-.05-.01-.1-.02-.14-.03.05.01.09.02.14.03"/>
    <path class="st12" d="M39.1,51.04s-.06-.01-.09-.02c.03,0,.05.01.09.02M38.88,50.99l-.08-.02s.03.01.08.02h0Z"/>
    <path class="st9" d="M52.47,34.67s-1.32,5.39-3.59,5.83-4.73-.44-4.73-.44c0,0-.23-6.34.93-7.16,1.16-.83,3.84-2.03,7.39,1.77"/>
    <path class="st15" d="M44.14,40.05s.05.01.17.06c.03-1.94.21-4.61.94-5.12,1.08-.79,3.52-1.89,6.77,1.13.3-.84.44-1.47.44-1.47-3.56-3.81-6.24-2.61-7.39-1.78-1.16.83-.93,7.17-.93,7.17"/>
    <path class="st23" d="M45.49,37.3c0,1.23,1,2.22,2.23,2.22s2.23-.99,2.23-2.22-1-2.22-2.23-2.22-2.23.99-2.23,2.22"/>
    <path class="st4" d="M47.83,38.78c.65-.05,1.14-.7,1.08-1.41s-.65-1.27-1.3-1.22-1.14.7-1.08,1.41c.06.71.65,1.27,1.3,1.22h0Z"/>
    <path class="st10" d="M47.77,38.53c.45-.04.92-.53.87-1.13-.05-.6-.59-1.01-1.04-.98-.45.04-.91.53-.87,1.13.05.6.59,1.01,1.04.98h0Z"/>
    <path class="st9" d="M48.13,37.04c.02.22.25.38.5.36.26-.02.45-.22.44-.43-.02-.22-.24-.38-.5-.36s-.45.21-.44.44h0ZM46.69,38.3c.01.11.12.19.25.18.13-.01.23-.11.22-.22-.01-.11-.12-.19-.25-.18-.13.01-.23.11-.22.22"/>
    <path class="st7" d="M37.14,34.77s-.43-.65-1.27-1.29c-.53-.4-1.04-.71-1.58-.94-.65-.27-1.35-.46-2.04-.56-.61-.07-1.3-.05-2.09.06-.61.11-1.2.29-1.7.51-.36.12-.64.3-.87.43-.09.05-.17.1-.25.14l-1.08.68,1.25-.29c.06-.01.12-.03.19-.05.26-.07.58-.15.96-.21.09-.01.18-.03.27-.05.16-.03.32-.06.49-.07.19-.01.39-.03.59-.04l.26-.02c.69,0,1.28.04,1.8.16.57.1,1.15.28,1.69.53.51.24.99.48,1.37.75.77.51,1.19.93,1.19.93.1.1.25.16.39.16.1,0,.21-.03.3-.09.25-.16.32-.5.16-.74v-.02s-.01,0-.01,0ZM52.69,33.13c-.07-.04-.15-.09-.24-.14-.23-.14-.51-.31-.86-.43-.51-.23-1.1-.4-1.72-.52-.79-.1-1.47-.13-2.09-.05-.68.09-1.38.29-2.03.56-.53.23-1.06.54-1.58.94-.83.63-1.24,1.24-1.27,1.29h0c-.14.23-.11.51.07.69.1.1.24.16.39.16s.28-.06.38-.16h0s.45-.44,1.19-.94c.37-.27.86-.51,1.36-.75.54-.25,1.12-.43,1.7-.53.51-.12,1.1-.17,1.78-.16l.27.02c.2.01.39.03.58.04.17,0,.33.04.49.07.09.02.18.04.27.05.38.05.7.14.96.21.07.02.13.04.19.05l1.25.29-1.09-.68h0Z"/>
    <path class="st13" d="M38.91,52.13c-.08-.01-.16-.03-.23-.04.08.02.16.03.23.04M38.59,52.07c-.05-.01-.1-.03-.14-.03l.14.03Z"/>
    <path class="st2" d="M38.68,52.08s-.06-.01-.09-.02c.03,0,.05.01.09.02M38.45,52.03s-.05-.01-.08-.02.03.01.08.02"/>
    <path class="st6" d="M36.69,53.2c-.06-.87,2.43.18,3.25.21.65.02,2.62-.13,2.8-.2,1.37-.51-.08,1.45-2.84,1.55-1.27.05-3.17-1.04-3.21-1.56h0Z"/>
    <path class="st0" d="M44.81,51.53c-.68-.03-1.37.53-2.19.44-.03-.02-.05-.02-.08-.02-.19-.03-.37,0-.58.05-.25.05-.51.15-.75.24-.41.13-.87.24-1.34.2s-.02,0-.03,0h-.03c-.47.03-.93-.07-1.34-.2-.24-.08-.49-.19-.75-.24-.2-.05-.39-.08-.58-.05-.04,0-.05,0-.08.02-.82.09-1.51-.48-2.19-.44-.19.02-.46-.03-.61-.03.03.02.07.03.1.05,1.93.94,3.6,2.69,5.44,2.63h.05c1.84.06,3.51-1.69,5.44-2.63.04-.02.07-.03.1-.05-.15,0-.42.05-.61.03h0Z"/>
    <path class="st20" d="M45.38,51.47s-1.96-.75-3.36-.31c0,0-.52.2-1.06.33-.33.13-.73.16-1.11.15-.29-.01-.57-.05-.8-.09-.08-.01-.15-.03-.23-.04-.03,0-.06-.01-.09-.02l-.14-.03c-.05-.01-.08-.02-.08-.02-.45-.12-.83-.27-.83-.27-1.4-.44-3.36.31-3.36.31-.03.01-.04.02-.04.02.15,0,.42.05.61.03.68-.03,1.37.53,2.19.44.03-.02.05-.02.08-.02.19-.03.37,0,.58.05.25.05.51.15.75.24.41.13.87.24,1.34.2s.02,0,.03,0h.03c.47.03.93-.07,1.34-.2.24-.08.49-.19.75-.24.2-.05.39-.08.58-.05.04,0,.05,0,.08.02.82.09,1.51-.48,2.19-.44.19.02.46-.03.61-.03,0,0-.02,0-.04-.02h0Z"/>
    <path class="st20" d="M36.56,51.93s3.68,1.11,6.53.03l-.33-.22h-3.85l-2.35.2h0Z"/>
    <path class="st9" d="M40.66,76.68h-.01.01Z"/>
    <path class="st25" d="M56.92,79.84s-.14.05-.39.16H23.72c-.27-.1-.4-.16-.4-.16,0-3.83.57-6.83,1.43-9.16,1.02-2.75,2.45-4.58,3.85-5.8,1.97,3.62,6.07,9.66,11.48,9.6,3.42-.04,7.35-2.5,11.59-9.56,1.39,1.22,2.8,3.04,3.81,5.76.87,2.34,1.43,5.33,1.43,9.16h0Z"/>
    <path class="st14" d="M51.68,64.92c-4.25,7.06-8.18,9.52-11.59,9.56-5.41.06-9.51-5.98-11.48-9.6,1.46-1.28,2.9-1.88,3.8-2.16h.01s4.02,4.58,4.02,4.58c.96,1.1,2.31,1.65,3.65,1.65s2.7-.56,3.66-1.68l3.95-4.58c.22.06.48.15.76.26.88.34,2.04.94,3.22,1.97h0Z"/>
    <path class="st26" d="M55.98,43.83l-.73.54s-4.65,10.34-8.57,7.71v.05c-.21-.6-.49-1.12-.85-1.5-1.11-1.62-3.35-2.73-5.94-2.73-2.39,0-4.47.94-5.66,2.35-.53.36-.96.99-1.23,1.78h0c-3.92,2.62-8.26-7.66-8.26-7.66l-.73-.54-.02,1.64c1.46,6.27,7.58,10.51,10.04,11.99.2.18.42.32.65.4.11.06.23.11.35.16,0,0,.02.01.02.01,1.22.53,2.93.87,4.84.87,2.04,0,3.86-.38,5.08-.98l-.03.11s9.22-4.68,11.05-12.57l-.02-1.64h0ZM43.15,56.76s.01-.04.01-.06c0-.62-1.49-1.12-3.34-1.12s-3.34.5-3.34,1.12v.03c-.65-.16-1.23-.37-1.72-.61-.26-.63-.42-1.37-.42-2.17h0c0-.43.2-.83.52-1.11.98-.83,2.32-1.42,3.84-1.63.38-.05.78-.08,1.18-.08s.79.03,1.18.08c1.38.19,2.6.69,3.55,1.41.42.31.67.81.67,1.32h0c0,.84-.17,1.62-.45,2.26-.49.22-1.06.41-1.69.56h0Z"/>
    <path class="st3" d="M65.32,18.81c-.06.15-.18.3-.34.44.23-.26.34-.44.34-.44-.37.24-.72.44-1.06.62-6.44,3.4-8.23-2.57-8.23-2.57.67-5.62,7.58-5.55,7.58-5.55,0,0-5.88-2.81-8.14,2.7-.3-2.97,1.32-5.85,1.32-5.85-2.62.55-3.73,2.66-4.19,4.45-1.62-3.08.06-5.37.06-5.37l-9,3.54c1.17-.92,2.99-2.62,2.99-2.62,0,0-2.79.28-7.1,1.49-3.03.85-4.84,2.36-5.86,3.06l-.03-2.51s-4.41,3-8.58,6.94c-4.17,3.94-5.77,7.65-5.77,11.81s1.87,8.34,3.1,9.58c1.22,1.24.83,3.04,1.2,3.04,0,0,.88.03.75-4.07.48-4.66,2.65-6.53,3.86-7.21,2.13-1.11,5.35-1.32,10.16,1.1h0c2.97,1.71,4.16-.56,8.35-1.71,7.15-1.95,10.12,3.17,9.52,5.82-.92,4.07.36,6.42.85,6.31,0,0,.02-1.03.46-1.96,1.32-2.75,2.43-.84,2.63-4.56.24-4.36,1.01-5.95.76-8.29-.14-1.32-.62-2.89-1-3.98,4.8-.08,5.36-4.21,5.36-4.21h0Z"/>
    <path class="st11" d="M31.63,62.99s2.65,8.37,8.5,9.44l-.13-1.69s-6.04-2.75-6.2-8.35l-2.17.6h0ZM48.9,62.99s-2.65,8.37-8.5,9.44l.13-1.69s6.04-2.75,6.2-8.35l2.17.6h0Z"/>
    <path class="st19" d="M42.68,72.19c0,1.42-1.16,2.57-2.59,2.57s-2.59-1.15-2.59-2.57,1.16-2.57,2.59-2.57,2.59,1.15,2.59,2.57"/>
  </g>
</svg>