<?xml version="1.0" encoding="UTF-8"?>
<svg id="Layer_2" xmlns="http://www.w3.org/2000/svg" version="1.1" xmlns:xlink="http://www.w3.org/1999/xlink" viewBox="0 0 80 80">
  <!-- Generator: Adobe Illustrator 30.2.1, SVG Export Plug-In . SVG Version: 2.1.1 Build 1)  -->
  <defs>
    <style>
      .st0 {
        fill: #dac6a4;
      }

      .st1 {
        fill: #b48eba;
      }

      .st2 {
        fill: #b5957e;
      }

      .st3 {
        fill: #b8987d;
      }

      .st4 {
        fill: #714223;
      }

      .st5 {
        fill: #ccad8a;
      }

      .st6 {
        fill: #ecdab6;
      }

      .st7 {
        fill: #873a32;
      }

      .st8 {
        fill: #d7bd9d;
      }

      .st9 {
        fill: #fff;
      }

      .st10 {
        fill: #272213;
      }

      .st11 {
        fill: #414f69;
      }

      .st12 {
        fill: #b7967d;
      }

      .st13 {
        fill: none;
      }

      .st14 {
        fill: #b12717;
      }

      .st15 {
        fill: #6b7396;
      }

      .st16 {
        fill: #432541;
      }

      .st17 {
        fill: #544e4d;
      }

      .st18 {
        fill: #d2bb9b;
      }

      .st19 {
        fill: #ba9d82;
      }

      .st20 {
        fill: #dcc5a0;
      }

      .st21 {
        fill: #3f3a37;
      }

      .st22 {
        fill: #8f9daa;
      }

      .st23 {
        fill: #4c4745;
      }

      .st24 {
        fill: #49463f;
      }

      .st25 {
        fill: #c68c8f;
      }

      .st26 {
        fill: #c1a587;
      }

      .st27 {
        fill: #44361f;
      }

      .st28 {
        fill: #7a1079;
      }

      .st29 {
        fill: #a98d76;
      }

      .st30 {
        fill: #462e1b;
      }

      .st31 {
        fill: #37322f;
      }

      .st32 {
        clip-path: url(#clippath);
      }

      .st33 {
        fill: #ebd9b5;
      }
    </style>
    <clipPath id="clippath">
      <rect class="st13" x="35.58" y="55.39" width="9.07" height="5.31"/>
    </clipPath>
  </defs>
  <g id="Layer_1-2">
    <path class="st15" d="M0,0h80v80H0V0Z"/>
    <path class="st7" d="M57.34,53.62c.57.64,2.92,1.58,2.92,1.58,0,0-1.52-.65-2.03-3.12-.19-.9-.28-1.41-.3-1.77h-.18c.63-.9,1.11-1.85,1.43-2.85.01-.05.03-.1.04-.16.12-.4.21-.8.27-1.22.81-4.66-.68-10.41-1.41-12.82-.01-.03-.02-.06-.03-.1-.21-.67-.34-1.05-.34-1.05.01.07.01.15.03.22-2.19-5.03-9.27-8.71-17.67-8.71-9.79,0-17.78,5-18.34,11.3-.74,2.85-1.61,7.37-.94,11.17.06.41.16.82.27,1.22.01.05.03.11.04.16h0c.31.99.79,1.95,1.43,2.85h-.18c-.02.36-.11.87-.3,1.77-.51,2.47-2.03,3.12-2.03,3.12,0,0,2.35-.94,2.92-1.58.27-.31,1-1.16,1.23-1.43,0,0,.01.01.03.02-.13.29-.44,1.21,0,2.98.57,2.32,2.9,3.88,2.9,3.88,0,0-1.4-1.84-1.01-3.86,0,0-.08.81,2.19,3.06,2.17,2.15,4.86,4.46,5.21,4.48-.03-.07,2.15-1.77,2.12-2.68,1.66.47,2.43,3.03,4.23,3.03.1,0,.21,0,.32,0,.1,0,.21,0,.32,0,1.79,0,2.02-2.1,3.68-2.57-.03.91,2.65,2.54,2.62,2.61.35-.03,3.1-2.72,5.27-4.87,2.27-2.25,2.19-3.06,2.19-3.06.39,2.02-1.01,3.86-1.01,3.86,0,0,2.33-1.56,2.9-3.88.43-1.77.13-2.69,0-2.98,0,0,.01-.01.03-.02.22.27.95,1.12,1.22,1.43h0ZM28.62,46.5c.05,1.05.29,1.77.71,2.32l.02.02s.08.08.19.19c.11.1.28.24.51.38,0,0,0,0,.01,0,.23.13.53.26.9.35.3.09.7.11,1.2.09-.07.39-.11.79-.11,1.22,0,.78.13,1.51.35,2.15-3.29-1.66-5.9-4.34-7.36-7.62-.11-.28-.43-1.14-.81-2.32-.22-.7-.47-1.51-.7-2.39,2.05,2.74,5.65,4.9,10.06,5.98-.01.01-.02.03-.02.03-3.02,2.93-4.96-.38-4.96-.38h0ZM56.02,43.27c-.38,1.19-.7,2.04-.81,2.32-1.46,3.28-4.08,5.97-7.36,7.62.22-.64.35-1.37.35-2.15,0-.34-.03-.67-.08-.99.32-.04.64-.09.93-.17.47-.09.89-.25,1.25-.51.75-.53,1.26-1.44,1.34-2.91,0,0-1.94,3.31-4.96.38l-.04-.05c4.52-1.13,8.18-3.4,10.17-6.26-.26,1-.53,1.92-.78,2.71h0Z"/>
    <path class="st20" d="M40.08,49.94v30.06h-16.36c-.27-.11-.4-.16-.4-.16,0-3.84.57-6.83,1.43-9.16,2.08-5.63,5.9-7.42,7.65-7.96.58-.18.93-.22.93-.22.06,0,.12,0,.18-.01.52-.08.94-.53,1.27-1.24.25-.53.46-1.2.63-1.98.07-.3.12-.61.17-.94.08-.55.16-1.14.23-1.75.03-.37.06-.73.1-1.11.14-1.84.19-3.85.19-5.76,0,0,2.2.23,3.98.23h0Z"/>
    <path class="st33" d="M56.91,79.84s-.15.05-.39.16h-16.44v-30.06h.04c1.77,0,4-.23,4-.23,0,1.89.04,3.88.18,5.72.04.36.08.73.1,1.09.07.64.15,1.23.24,1.79h0c.03.26.08.49.12.73.16.78.36,1.47.6,2.02.3.69.65,1.17,1.09,1.36.14.06.29.09.44.09,0,0,.63.08,1.57.44,1.93.75,5.16,2.72,7.02,7.73.86,2.33,1.43,5.32,1.43,9.16h0Z"/>
    <g class="st32">
      <path class="st19" d="M44.65,58.25h0c-.41.65-1.8,2.46-4.54,2.46h-.03c-2.6-.01-4.12-1.88-4.5-2.43.08-.55.16-1.13.23-1.73.03-.35.06-.72.11-1.1,1.26.31,2.65.51,4.12.54h.05c1.52-.03,2.92-.24,4.22-.58.04.35.08.72.11,1.08.06.63.15,1.22.24,1.77"/>
    </g>
    <path class="st5" d="M39.9,15.68c-17.34,0-17.43,14.4-16.66,23.83-1.18-2.23-4.71-1.55-4.42,1.97.28,3.39,5.32,5.12,5.18,4.75,2.62,6.97,9.57,12.23,15.9,12.23h.13V15.68h-.13Z"/>
    <path class="st29" d="M19.92,40c.85-1.37,2.18-.78,2.5-.47.35.33.62.75.41,1.55-.12.46-.6.5-.49,1.18.13.78.49.82.7,1,.2.17.45.3.57.63.13.33.15.67.08.97-.13.55-.95.1-1.49-.13-.36-.17-1.51-1.13-1.8-1.45-.72-.82-1.06-2.39-.49-3.29"/>
    <path class="st8" d="M39.99,15.68c17.34,0,17.43,14.4,16.67,23.83,1.18-2.23,4.7-1.55,4.41,1.97-.27,3.39-5.32,5.12-5.18,4.75-2.56,6.97-9.57,12.23-15.9,12.23h-.09l-.04-42.78h.13"/>
    <path class="st29" d="M59.96,40c-.85-1.37-2.17-.78-2.5-.47-.35.33-.61.75-.41,1.55.12.46.6.5.49,1.18-.13.78-.49.82-.69,1-.2.17-.47.3-.58.63s-.15.67-.08.97c.13.55.95.1,1.49-.13.37-.17,1.51-1.13,1.8-1.45.73-.82,1.06-2.39.49-3.29"/>
    <path class="st20" d="M39.76,19.74c-5.7,0-9.88,1.64-12.4,4.88-3.53,4.54-3.4,11.45-2.1,16.42.4,1.53.61,5.61.88,7.12,1.24,6.72,8.71,10.3,13.62,10.3h.13V19.74h-.08"/>
    <path class="st33" d="M52.14,24.63c-2.5-3.22-6.63-4.87-12.25-4.89v38.72c5.62-.06,12.34-3.98,13.49-10.3.28-1.5.48-5.59.88-7.12,1.3-4.96,1.44-11.86-2.12-16.41"/>
    <path class="st13" d="M39.2,50.19c-.08-.01-.15-.03-.21-.04.07.01.14.03.21.04M38.9,51.58c-.05-.01-.1-.02-.13-.03.04.01.09.02.13.03"/>
    <path class="st12" d="M38.99,51.6s-.05-.01-.08-.02c.03,0,.05.01.08.02M38.77,51.55s-.05-.01-.07-.02.03,0,.08.02h0Z"/>
    <path class="st8" d="M36.66,46.57c-.06-1.34,2.47-.49,3.31-.45.66.03,2.68-.42,2.85-.3,1.18.79-1.25,2.39-2.89,2.39-.44,0-3.23-.83-3.27-1.64h0Z"/>
    <path class="st13" d="M24.35,31.81c-.16.51-.26,1.07-.34,1.67,0,0,.23-.94.73-2.34-.22.3-.36.54-.4.67"/>
    <path class="st27" d="M35.05,19.84l-.07.07v.03s.05-.07.07-.1"/>
    <path class="st13" d="M39.25,50.85c-.08-.01-.16-.03-.22-.04.08.01.15.03.22.04M38.95,50.79c-.05-.01-.1-.02-.13-.03.04.01.09.02.13.03"/>
    <path class="st2" d="M39.03,50.81s-.05-.01-.08-.02c.03,0,.05.01.08.02M38.82,50.76l-.08-.02s.03.01.08.02"/>
    <path class="st9" d="M27.45,34.85s1.32,5.39,3.59,5.83,4.73-.44,4.73-.44c0,0,.23-6.34-.93-7.16-1.16-.83-3.84-2.03-7.39,1.77"/>
    <path class="st18" d="M35.78,40.23s-.05.01-.17.06c-.03-1.94-.21-4.61-.94-5.12-1.08-.79-3.52-1.89-6.77,1.13-.3-.84-.44-1.47-.44-1.47,3.56-3.81,6.24-2.61,7.39-1.78,1.16.83.93,7.17.93,7.17"/>
    <ellipse class="st30" cx="32.2" cy="37.49" rx="2.23" ry="2.22"/>
    <path class="st4" d="M32.1,38.97c-.65-.05-1.14-.7-1.08-1.41s.65-1.27,1.3-1.22,1.14.7,1.08,1.41c-.06.71-.65,1.27-1.3,1.22h0Z"/>
    <path class="st10" d="M32.16,38.71c-.45-.04-.92-.53-.87-1.13.05-.6.59-1.01,1.04-.98.45.04.91.53.87,1.13-.05.6-.59,1.01-1.04.98h0Z"/>
    <path class="st9" d="M31.79,37.22c-.02.22-.25.38-.5.36-.26-.02-.45-.22-.44-.43.02-.22.24-.38.5-.36s.45.21.44.44h0ZM33.24,38.48c-.01.11-.12.19-.25.18-.13-.01-.23-.11-.22-.22.01-.11.12-.19.25-.18.13.01.23.11.22.22"/>
    <path class="st13" d="M39.29,51.49c-.08-.01-.16-.03-.22-.04.08.01.15.03.22.04M38.98,51.43c-.05-.01-.1-.02-.13-.03.04.01.09.02.13.03"/>
    <path class="st2" d="M39.07,51.45s-.05-.01-.08-.02c.03,0,.05.01.08.02M38.85,51.4l-.08-.02s.03,0,.08.02"/>
    <path class="st13" d="M39.2,51.34c-.09-.01-.17-.03-.23-.05.08.02.16.03.23.05M38.88,51.27c-.05-.01-.11-.03-.14-.03.05.01.09.02.14.03"/>
    <path class="st12" d="M38.96,51.29s-.06-.01-.09-.02c.03,0,.05.01.09.02M38.73,51.24s-.05-.01-.08-.02.03.01.08.02h0Z"/>
    <path class="st13" d="M39.13,51.11c-.09-.01-.17-.03-.23-.04.08.02.16.03.23.04M38.81,51.05c-.05-.01-.11-.03-.14-.03.05.01.09.02.14.03"/>
    <path class="st12" d="M38.9,51.07s-.06-.01-.09-.02c.03,0,.05.01.09.02M38.66,51.02s-.05-.01-.08-.02.03.01.08.02h0Z"/>
    <path class="st13" d="M39.34,51.08c-.08-.01-.16-.03-.23-.04.08.02.15.03.23.04M39.02,51.02c-.05-.01-.1-.02-.14-.03.05.01.09.02.14.03"/>
    <path class="st12" d="M39.1,51.04s-.06-.01-.09-.02c.03,0,.05.01.09.02M38.88,50.99l-.08-.02s.03.01.08.02h0Z"/>
    <path class="st9" d="M52.47,34.67s-1.32,5.39-3.59,5.83-4.73-.44-4.73-.44c0,0-.23-6.34.93-7.16,1.16-.83,3.84-2.03,7.39,1.77"/>
    <path class="st18" d="M44.14,40.05s.05.01.17.06c.03-1.94.21-4.61.94-5.12,1.08-.79,3.52-1.89,6.77,1.13.3-.84.44-1.47.44-1.47-3.56-3.81-6.24-2.61-7.39-1.78-1.16.83-.93,7.17-.93,7.17"/>
    <path class="st30" d="M45.49,37.3c0,1.23,1,2.22,2.23,2.22s2.23-.99,2.23-2.22-1-2.22-2.23-2.22-2.23.99-2.23,2.22"/>
    <path class="st4" d="M47.83,38.78c.65-.05,1.14-.7,1.08-1.41s-.65-1.27-1.3-1.22-1.14.7-1.08,1.41c.06.71.65,1.27,1.3,1.22h0Z"/>
    <path class="st10" d="M47.77,38.53c.45-.04.92-.53.87-1.13-.05-.6-.59-1.01-1.04-.98-.45.04-.91.53-.87,1.13.05.6.59,1.01,1.04.98h0Z"/>
    <path class="st9" d="M48.13,37.04c.02.22.25.38.5.36.26-.02.45-.22.44-.43-.02-.22-.24-.38-.5-.36s-.45.21-.44.44h0ZM46.69,38.3c.01.11.12.19.25.18.13-.01.23-.11.22-.22-.01-.11-.12-.19-.25-.18-.13.01-.23.11-.22.22"/>
    <path class="st24" d="M37.14,34.77s-.43-.65-1.27-1.29c-.53-.4-1.04-.71-1.58-.94-.65-.27-1.35-.46-2.04-.56-.61-.07-1.3-.05-2.09.06-.61.11-1.2.29-1.7.51-.36.12-.64.3-.87.43-.09.05-.17.1-.25.14l-1.08.68,1.25-.29c.06-.01.12-.03.19-.05.26-.07.58-.15.96-.21.09-.01.18-.03.27-.05.16-.03.32-.06.49-.07.19-.01.39-.03.59-.04l.26-.02c.69,0,1.28.04,1.8.16.57.1,1.15.28,1.69.53.51.24.99.48,1.37.75.77.51,1.19.93,1.19.93.1.1.25.16.39.16.1,0,.21-.03.3-.09.25-.16.32-.5.16-.74v-.02s-.01,0-.01,0ZM52.69,33.13c-.07-.04-.15-.09-.24-.14-.23-.14-.51-.31-.86-.43-.51-.23-1.1-.4-1.72-.52-.79-.1-1.47-.13-2.09-.05-.68.09-1.38.29-2.03.56-.53.23-1.06.54-1.58.94-.83.63-1.24,1.24-1.27,1.29h0c-.14.23-.11.51.07.69.1.1.24.16.39.16s.28-.06.38-.16h0s.45-.44,1.19-.94c.37-.27.86-.51,1.36-.75.54-.25,1.12-.43,1.7-.53.51-.12,1.1-.17,1.78-.16l.27.02c.2.01.39.03.58.04.17,0,.33.04.49.07.09.02.18.04.27.05.38.05.7.14.96.21.07.02.13.04.19.05l1.25.29-1.09-.68h0Z"/>
    <path class="st13" d="M38.91,52.13c-.08-.01-.16-.03-.23-.04.08.02.16.03.23.04M38.59,52.07c-.05-.01-.1-.03-.14-.03l.14.03Z"/>
    <path class="st3" d="M38.68,52.08s-.06-.01-.09-.02c.03,0,.05.01.09.02M38.45,52.03s-.05-.01-.08-.02.03.01.08.02"/>
    <path class="st6" d="M36.69,53.2c-.06-.87,2.43.18,3.25.21.65.02,2.62-.13,2.8-.2,1.37-.51-.08,1.45-2.84,1.55-1.27.05-3.17-1.04-3.21-1.56h0Z"/>
    <path class="st0" d="M44.81,51.53c-.68-.03-1.37.53-2.19.44-.03-.02-.05-.02-.08-.02-.19-.03-.37,0-.58.05-.25.05-.51.15-.75.24-.41.13-.87.24-1.34.2s-.02,0-.03,0h-.03c-.47.03-.93-.07-1.34-.2-.24-.08-.49-.19-.75-.24-.2-.05-.39-.08-.58-.05-.04,0-.05,0-.08.02-.82.09-1.51-.48-2.19-.44-.19.02-.46-.03-.61-.03.03.02.07.03.1.05,1.93.94,3.6,2.69,5.44,2.63h.05c1.84.06,3.51-1.69,5.44-2.63.04-.02.07-.03.1-.05-.15,0-.42.05-.61.03h-.01Z"/>
    <path class="st26" d="M45.38,51.47s-1.96-.75-3.36-.31c0,0-.52.2-1.06.33-.33.13-.73.16-1.11.15-.29-.01-.57-.05-.8-.09-.08-.01-.15-.03-.23-.04-.03,0-.06-.01-.09-.02l-.14-.03c-.05-.01-.08-.02-.08-.02-.45-.12-.83-.27-.83-.27-1.4-.44-3.36.31-3.36.31-.03.01-.04.02-.04.02.15,0,.42.05.61.03.68-.03,1.37.53,2.19.44.03-.02.05-.02.08-.02.19-.03.37,0,.58.05.25.05.51.15.75.24.41.13.87.24,1.34.2s.02,0,.03,0h.03c.47.03.93-.07,1.34-.2.24-.08.49-.19.75-.24.2-.05.39-.08.58-.05.04,0,.05,0,.08.02.82.09,1.51-.48,2.19-.44.19.02.46-.03.61-.03,0,0-.02,0-.04-.02h0Z"/>
    <path class="st26" d="M36.56,51.93s3.68,1.11,6.53.03l-.33-.22h-3.85l-2.35.2h0Z"/>
    <path class="st16" d="M37.85,67.34v12.65h-12.02c.06-.97.13-2.53.14-4.6h-3.08c-.03-3,2.38-8.14,2.38-8.14.23-.31.47-.6.71-.87.63-.72,1.27-1.29,1.92-1.77.07-.08.16-.13.24-.18.21-.15.42-.29.62-.42.93-.59,1.81-.96,2.5-1.19.16-.06.31-.1.45-.14.64-.18,1.04-.23,1.04-.23.34,0,.64-.13.9-.34,0,0,0-.01.01-.01.09-.08.18-.18.27-.29.03.03.1.11.16.3.25.6,1.71,3.69,3.75,5.22h0ZM54.29,75.4c.01,2.06.09,3.64.16,4.6h-12.07v-12.63c.65-.48,1.25-1.13,1.76-1.8,1.12-1.45,1.86-3.03,2.04-3.45.06-.18.06-.09.12-.21.08.1.22.12.31.2.01,0,.01.01.01.01.26.21.57.34.9.34,0,0,.38.04.99.2.13.05.28.09.45.15.84.28,1.97.75,3.16,1.6.08.06.17.11.23.19.9.66,1.82,1.52,2.65,2.66,0,0,2.46,3.54,2.35,8.14h-3.05Z"/>
    <path class="st15" d="M42.38,70.67v6.89h.68l2.23-2.21v-3.98l-2.23-2.21h-.68v1.5ZM37.85,76.07v-6.89h-.68l-2.23,2.21v3.98l2.23,2.21h.68v-1.5Z"/>
    <path class="st1" d="M59.02,46.17l-1.88-2.8c-.17-.26.01-.61.33-.61h.29c.21,0,.41.08.56.23l1.73,1.72c-.2.66-.66,1.16-1.04,1.46h0Z"/>
    <path class="st11" d="M57.47,47.49l-1.1-2.57c-.1-.24.1-.49.36-.45l.23.04c.17.03.32.13.42.27l1.15,1.67c-.27.51-.72.84-1.07,1.04h0Z"/>
    <path class="st25" d="M60.81,44.22l-2.04-1.05c-.19-.1-.18-.36.01-.46l.18-.09c.13-.07.28-.08.42-.04l1.61.46c.08.46-.05.9-.18,1.2h0Z"/>
    <path class="st14" d="M61.78,42.43l-2.78-.5c-.26-.05-.36-.36-.18-.55l.17-.17c.12-.13.29-.2.46-.2l2.04-.04c.29.5.32,1.06.29,1.46"/>
    <path class="st11" d="M37.11,71.36h5.95v1.01h-5.95v-1.01ZM37.11,73.16h5.95v1.01h-5.95v-1.01ZM37.11,74.97h5.95v1.01h-5.95v-1.01Z"/>
    <path class="st28" d="M37.85,67.34v-1.4c0-.6-.17-1.18-.49-1.69-.79-1.22-2.21-3.67-1.94-4.99l-1.47,2.56s1.68,4.41,3.91,5.51h0ZM42.38,67.47v-1.39c0-.6.17-1.19.51-1.71.8-1.22,2.23-3.66,1.97-4.98l1.44,2.56s-1.68,4.41-3.91,5.51"/>
    <path class="st22" d="M39.43,27.67l-16.62-.13c-3.3,1.54-3.99,3.7-3.99,3.7-.5,1.3,9.54,3.3,9.54,3.3l11.07.33v-7.2Z"/>
    <path class="st17" d="M39.43,34.49c-18.77-.19-20.61-3.24-20.61-3.24,1.04,4.04,14.58,4.47,20.61,4.46v-1.22h0Z"/>
    <path class="st22" d="M39.43,27.67l16.62-.13c3.3,1.54,3.99,3.7,3.99,3.7.5,1.3-9.54,3.3-9.54,3.3l-11.07.33v-7.2Z"/>
    <path class="st17" d="M39.43,34.49c18.77-.19,20.61-3.24,20.61-3.24-1.04,4.04-14.58,4.47-20.61,4.46v-1.22h0Z"/>
    <path class="st21" d="M39.52,10.97l.55-.44s7.12-.4,12.81,4.19c0,0,3.76,1.49,3.15,9.74l.48,3.06c.14.87-.53,1.69-1.58,1.94-.74.18-1.56.35-2.15.43l-13.26-18.91Z"/>
    <path class="st17" d="M55.09,29.3s-1.49-5.55-.44-7.31c0,0,2.7-6.34-6.18-8.77l-8.95-2.25v19.61s12.97,0,15.57-1.28h0Z"/>
    <path class="st21" d="M39.52,10.97l-.55-.44s-7.12-.4-12.81,4.19c0,0-3.76,1.49-3.15,9.74l-.48,3.06c-.14.87.53,1.69,1.58,1.94.74.18,1.56.35,2.15.43l13.26-18.91Z"/>
    <path class="st17" d="M39.53,10.97v19.61s-12.98,0-15.57-1.27c0,0,1.22-4.53.68-6.71-.06-.23-.14-.44-.24-.61,0,0-2.71-6.34,6.18-8.77l8.95-2.25Z"/>
    <path class="st23" d="M39.05,10.97h.47v6.4h-.47v-6.4Z"/>
    <path class="st23" d="M39.53,17.36v13.21s-12.98,0-15.57-1.27c0,0,1.22-4.53.68-6.71v-.05s10.22-5.33,14.65-5.18h.24Z"/>
    <path class="st23" d="M39.29,17.36v13.21s13.17,0,15.81-1.27c0,0-1.23-4.53-.69-6.71v-.05s-10.38-5.33-14.87-5.18h-.24Z"/>
    <path class="st31" d="M41.63,10.58c0,.48-.94.86-2.11.86s-2.11-.39-2.11-.86.94-.86,2.11-.86,2.11.39,2.11.86"/>
  </g>
</svg>