<?xml version="1.0" encoding="UTF-8"?>
<svg id="Layer_2" xmlns="http://www.w3.org/2000/svg" version="1.1" xmlns:xlink="http://www.w3.org/1999/xlink" viewBox="0 0 80 80">
  <!-- Generator: Adobe Illustrator 30.2.1, SVG Export Plug-In . SVG Version: 2.1.1 Build 1)  -->
  <defs>
    <style>
      .st0 {
        fill: #dac6a4;
      }

      .st1 {
        fill: #b5957e;
      }

      .st2 {
        fill: #b8987d;
      }

      .st3 {
        fill: #714223;
      }

      .st4 {
        fill: #ccad8a;
      }

      .st5 {
        fill: #ecdab6;
      }

      .st6 {
        fill: #d7bd9d;
      }

      .st7 {
        fill: #fff;
      }

      .st8 {
        fill: #272213;
      }

      .st9 {
        fill: #b7967d;
      }

      .st10 {
        fill: none;
      }

      .st11 {
        fill: #815419;
      }

      .st12 {
        fill: #cc654c;
      }

      .st13 {
        fill: #d2bb9b;
      }

      .st14 {
        fill: #ba9d82;
      }

      .st15 {
        fill: #dcc5a0;
      }

      .st16 {
        fill: #553434;
      }

      .st17 {
        fill: #c1a587;
      }

      .st18 {
        fill: #44361f;
      }

      .st19 {
        fill: #a87222;
      }

      .st20 {
        fill: #a98d76;
      }

      .st21 {
        fill: #462e1b;
      }

      .st22 {
        clip-path: url(#clippath);
      }

      .st23 {
        fill: #402825;
      }

      .st24 {
        fill: #ebd9b5;
      }
    </style>
    <clipPath id="clippath">
      <rect class="st10" x="35.58" y="55.39" width="9.07" height="5.31"/>
    </clipPath>
  </defs>
  <g id="Layer_1-2">
    <path class="st12" d="M0,0h80v80H0V0Z"/>
    <path class="st15" d="M40.08,49.94v30.06h-16.36c-.27-.1-.4-.16-.4-.16,0-1.63.1-3.1.29-4.44.25-1.82.64-3.38,1.14-4.72.18-.48.36-.93.57-1.36,2.12-4.51,5.38-6.06,7.01-6.58.02-.01.04-.02.06-.02.58-.18.93-.22.93-.22.06,0,.12,0,.18-.01.22-.03.43-.14.61-.3.25-.21.47-.53.66-.94.25-.52.46-1.2.63-1.98.07-.3.12-.61.18-.94.08-.55.16-1.14.23-1.74.02-.37.06-.73.1-1.11.14-1.84.18-3.85.18-5.76,0,0,2.2.23,3.98.23"/>
    <path class="st24" d="M56.91,79.84s-.14.05-.39.16h-16.44v-30.06h.04c1.77,0,3.99-.23,3.99-.23,0,1.9.04,3.88.19,5.72.04.36.08.73.1,1.09.06.64.15,1.23.24,1.78v.02c.03.25.08.48.12.72.16.78.35,1.47.59,2.02.22.51.48.9.77,1.15.1.09.21.15.32.2.14.06.28.09.44.09,0,0,.39.05,1.03.25.17.05.35.11.55.19,1.74.68,4.55,2.35,6.45,6.38.2.43.39.88.57,1.36.5,1.34.9,2.9,1.15,4.72.18,1.33.28,2.81.28,4.44h0Z"/>
    <g class="st22">
      <path class="st14" d="M44.65,58.25h0c-.41.65-1.8,2.46-4.54,2.46h-.03c-2.6-.01-4.12-1.88-4.5-2.43.08-.55.16-1.13.23-1.73.03-.35.06-.72.11-1.1,1.26.31,2.65.51,4.12.54h.05c1.52-.03,2.92-.24,4.22-.58.04.35.08.72.11,1.08.06.63.15,1.22.24,1.77"/>
    </g>
    <path class="st4" d="M39.9,15.68c-17.34,0-17.43,14.4-16.66,23.83-1.18-2.23-4.71-1.55-4.42,1.97.28,3.39,5.32,5.12,5.18,4.75,2.62,6.97,9.57,12.23,15.9,12.23h.13V15.68h-.13Z"/>
    <path class="st20" d="M19.92,39.99c.85-1.37,2.18-.78,2.5-.47.35.33.62.75.41,1.55-.12.46-.6.5-.49,1.18.13.78.49.82.7,1,.2.17.45.3.57.63.13.33.15.67.08.97-.13.55-.95.1-1.49-.13-.36-.17-1.51-1.13-1.8-1.45-.72-.82-1.06-2.39-.49-3.29"/>
    <path class="st6" d="M39.99,15.68c17.34,0,17.43,14.4,16.67,23.83,1.18-2.23,4.7-1.55,4.41,1.97-.27,3.39-5.32,5.12-5.18,4.75-2.56,6.97-9.57,12.23-15.9,12.23h-.09l-.04-42.78h.13"/>
    <path class="st20" d="M59.96,39.99c-.85-1.37-2.17-.78-2.5-.47-.35.33-.61.75-.41,1.55.12.46.6.5.49,1.18-.13.78-.49.82-.69,1-.2.17-.47.3-.58.63s-.15.67-.08.97c.13.55.95.1,1.49-.13.37-.17,1.51-1.13,1.8-1.45.73-.82,1.06-2.39.49-3.29"/>
    <path class="st15" d="M39.76,19.74c-5.7,0-9.88,1.64-12.4,4.88-3.53,4.54-3.4,11.45-2.1,16.42.4,1.53.61,5.61.88,7.12,1.24,6.72,8.71,10.3,13.62,10.3h.13V19.74h-.08"/>
    <path class="st24" d="M52.14,24.63c-2.5-3.22-6.63-4.87-12.25-4.89v38.71c5.62-.06,12.34-3.98,13.49-10.3.28-1.5.48-5.59.88-7.12,1.3-4.96,1.44-11.86-2.12-16.41"/>
    <path class="st10" d="M39.2,50.19c-.08-.01-.15-.03-.21-.04.07.01.14.03.21.04M38.9,51.58c-.05-.01-.1-.02-.13-.03.04.01.09.02.13.03"/>
    <path class="st9" d="M38.99,51.59s-.05-.01-.08-.02c.03,0,.05.01.08.02M38.77,51.55s-.05-.01-.07-.02.03,0,.08.02h0Z"/>
    <path class="st6" d="M36.58,46.57c-.06-1.34,2.47-.49,3.31-.45.66.03,2.68-.42,2.85-.3,1.18.79-1.25,2.39-2.89,2.39-.44,0-3.23-.83-3.27-1.64h0Z"/>
    <path class="st10" d="M24.35,31.81c-.16.51-.26,1.07-.34,1.67,0,0,.23-.94.73-2.34-.22.3-.36.54-.4.67"/>
    <path class="st18" d="M35.05,19.84l-.07.07v.03s.05-.07.07-.1"/>
    <path class="st10" d="M39.25,50.85c-.08-.01-.16-.03-.22-.04.08.01.15.03.22.04M38.95,50.79c-.05-.01-.1-.02-.13-.03.04.01.09.02.13.03"/>
    <path class="st1" d="M39.03,50.81s-.05-.01-.08-.02c.03,0,.05.01.08.02M38.82,50.76l-.08-.02s.03.01.08.02"/>
    <path class="st7" d="M27.45,34.85s1.32,5.39,3.59,5.83,4.73-.44,4.73-.44c0,0,.23-6.34-.93-7.16-1.16-.83-3.84-2.03-7.39,1.77"/>
    <path class="st13" d="M35.78,40.23s-.05.01-.17.06c-.03-1.94-.21-4.61-.94-5.12-1.08-.79-3.52-1.89-6.77,1.13-.3-.84-.44-1.47-.44-1.47,3.56-3.81,6.24-2.61,7.39-1.78,1.16.83.93,7.17.93,7.17"/>
    <ellipse class="st21" cx="32.2" cy="37.49" rx="2.23" ry="2.22"/>
    <path class="st3" d="M32.1,38.96c-.65-.05-1.14-.7-1.08-1.41s.65-1.27,1.3-1.22,1.14.7,1.08,1.41c-.06.71-.65,1.27-1.3,1.22h0Z"/>
    <path class="st8" d="M32.16,38.71c-.45-.04-.92-.53-.87-1.13.05-.6.59-1.01,1.04-.98.45.04.91.53.87,1.13-.05.6-.59,1.01-1.04.98h0Z"/>
    <path class="st7" d="M31.79,37.22c-.02.22-.25.38-.5.36-.26-.02-.45-.22-.44-.43.02-.22.24-.38.5-.36s.45.21.44.44h0ZM33.24,38.48c-.01.11-.12.19-.25.18-.13-.01-.23-.11-.22-.22.01-.11.12-.19.25-.18.13.01.23.11.22.22"/>
    <path class="st10" d="M39.29,51.49c-.08-.01-.16-.03-.22-.04.08.01.15.03.22.04M38.98,51.43c-.05-.01-.1-.02-.13-.03.04.01.09.02.13.03"/>
    <path class="st1" d="M39.07,51.44s-.05-.01-.08-.02c.03,0,.05.01.08.02M38.85,51.39l-.08-.02s.03,0,.08.02"/>
    <path class="st10" d="M39.2,51.34c-.09-.01-.17-.03-.23-.05.08.02.16.03.23.05M38.88,51.27c-.05-.01-.11-.03-.14-.03.05.01.09.02.14.03"/>
    <path class="st9" d="M38.97,51.29s-.06-.01-.09-.02c.03,0,.05.01.09.02M38.73,51.24s-.05-.01-.08-.02.03.01.08.02h0Z"/>
    <path class="st10" d="M39.13,51.11c-.09-.01-.17-.03-.23-.04.08.02.16.03.23.04M38.81,51.05c-.05-.01-.11-.03-.14-.03.05.01.09.02.14.03"/>
    <path class="st9" d="M38.9,51.07s-.06-.01-.09-.02c.03,0,.05.01.09.02M38.66,51.02s-.05-.01-.08-.02.03.01.08.02h0Z"/>
    <path class="st10" d="M39.34,51.08c-.08-.01-.16-.03-.23-.04.08.02.15.03.23.04M39.02,51.02c-.05-.01-.1-.02-.14-.03.05.01.09.02.14.03"/>
    <path class="st9" d="M39.1,51.04s-.06-.01-.09-.02c.03,0,.05.01.09.02M38.88,50.99l-.08-.02s.03.01.08.02h0Z"/>
    <path class="st7" d="M52.47,34.67s-1.32,5.39-3.59,5.83-4.73-.44-4.73-.44c0,0-.23-6.34.93-7.16,1.16-.83,3.84-2.03,7.39,1.77"/>
    <path class="st13" d="M44.14,40.05s.05.01.17.06c.03-1.94.21-4.61.94-5.12,1.08-.79,3.52-1.89,6.77,1.13.3-.84.44-1.47.44-1.47-3.56-3.81-6.24-2.61-7.39-1.78-1.16.83-.93,7.17-.93,7.17"/>
    <path class="st21" d="M45.49,37.3c0,1.23,1,2.22,2.23,2.22s2.23-.99,2.23-2.22-1-2.22-2.23-2.22-2.23.99-2.23,2.22"/>
    <path class="st3" d="M47.83,38.78c.65-.05,1.14-.7,1.08-1.41s-.65-1.27-1.3-1.22-1.14.7-1.08,1.41c.06.71.65,1.27,1.3,1.22h0Z"/>
    <path class="st8" d="M47.77,38.53c.45-.04.92-.53.87-1.13-.05-.6-.59-1.01-1.04-.98-.45.04-.91.53-.87,1.13.05.6.59,1.01,1.04.98h0Z"/>
    <path class="st7" d="M48.13,37.04c.02.22.25.38.5.36.26-.02.45-.22.44-.43-.02-.22-.24-.38-.5-.36s-.45.21-.44.44h0ZM46.69,38.3c.01.11.12.19.25.18.13-.01.23-.11.22-.22-.01-.11-.12-.19-.25-.18-.13.01-.23.11-.22.22"/>
    <path d="M37.14,34.77s-.43-.65-1.27-1.29c-.53-.4-1.04-.71-1.58-.94-.65-.27-1.35-.46-2.04-.56-.61-.07-1.3-.05-2.09.06-.61.11-1.2.29-1.7.51-.36.12-.64.3-.87.43-.09.05-.17.1-.25.14l-1.08.68,1.25-.29c.06-.01.12-.03.19-.05.26-.07.58-.15.96-.21.09-.01.18-.03.27-.05.16-.03.32-.06.49-.07.19-.01.39-.03.59-.04l.26-.02c.69,0,1.28.04,1.8.16.57.1,1.15.28,1.69.53.51.24.99.48,1.37.75.77.51,1.19.93,1.19.93.1.1.25.16.39.16.1,0,.21-.03.3-.09.25-.16.32-.5.16-.74v-.02s-.01,0-.01,0ZM52.69,33.13c-.07-.04-.15-.09-.24-.14-.23-.14-.51-.31-.86-.43-.51-.23-1.1-.4-1.72-.52-.79-.1-1.47-.13-2.09-.05-.68.09-1.38.29-2.03.56-.53.23-1.06.54-1.58.94-.83.63-1.24,1.24-1.27,1.29h0c-.14.23-.11.51.07.69.1.1.24.16.39.16s.28-.06.38-.16h0s.45-.44,1.19-.94c.37-.27.86-.51,1.36-.75.54-.25,1.12-.43,1.7-.53.51-.12,1.1-.17,1.78-.16l.27.02c.2.01.39.03.58.04.17,0,.33.04.49.07.09.02.18.04.27.05.38.05.7.14.96.21.07.02.13.04.19.05l1.25.29-1.09-.68h0Z"/>
    <path class="st10" d="M38.91,52.13c-.08-.01-.16-.03-.23-.04.08.02.16.03.23.04M38.59,52.06c-.05-.01-.1-.03-.14-.03l.14.03Z"/>
    <path class="st2" d="M38.68,52.08s-.06-.01-.09-.02c.03,0,.05.01.09.02M38.45,52.03s-.05-.01-.08-.02.03.01.08.02"/>
    <path class="st5" d="M36.69,53.19c-.06-.87,2.43.18,3.25.21.65.02,2.62-.13,2.8-.2,1.37-.51-.08,1.45-2.84,1.55-1.27.05-3.17-1.04-3.21-1.56h0Z"/>
    <path class="st0" d="M44.81,51.52c-.68-.03-1.37.53-2.19.44-.03-.02-.05-.02-.08-.02-.19-.03-.37,0-.58.05-.25.05-.51.15-.75.24-.41.13-.87.24-1.34.2s-.02,0-.03,0h-.03c-.47.03-.93-.07-1.34-.2-.24-.08-.49-.19-.75-.24-.2-.05-.39-.08-.58-.05-.04,0-.05,0-.08.02-.82.09-1.51-.48-2.19-.44-.19.02-.46-.03-.61-.03.03.02.07.03.1.05,1.93.94,3.6,2.69,5.44,2.63h.05c1.84.06,3.51-1.69,5.44-2.63.04-.02.07-.03.1-.05-.15,0-.42.05-.61.03h0Z"/>
    <path class="st17" d="M45.38,51.47s-1.96-.75-3.36-.31c0,0-.52.2-1.06.33-.33.13-.73.16-1.11.15-.29-.01-.57-.05-.8-.09-.08-.01-.15-.03-.23-.04-.03,0-.06-.01-.09-.02l-.14-.03c-.05-.01-.08-.02-.08-.02-.45-.12-.83-.27-.83-.27-1.4-.44-3.36.31-3.36.31-.03.01-.04.02-.04.02.15,0,.42.05.61.03.68-.03,1.37.53,2.19.44.03-.02.05-.02.08-.02.19-.03.37,0,.58.05.25.05.51.15.75.24.41.13.87.24,1.34.2s.02,0,.03,0h.03c.47.03.93-.07,1.34-.2.24-.08.49-.19.75-.24.2-.05.39-.08.58-.05.04,0,.05,0,.08.02.82.09,1.51-.48,2.19-.44.19.02.46-.03.61-.03,0,0-.02,0-.04-.02h0Z"/>
    <path class="st17" d="M36.56,51.93s3.68,1.11,6.53.03l-.33-.22h-3.85l-2.35.2h0Z"/>
    <path class="st19" d="M54.29,75.4c.01,2.06.09,3.64.16,4.59h-28.62c.06-.97.13-2.53.14-4.59h-2.36c.25-1.82.64-3.38,1.14-4.72.18-.48.36-.93.57-1.36,2.12-4.51,5.38-6.06,7.01-6.58-.03-.06-.06-.12-.09-.18.33-.07.52-.09.52-.09.34,0,.64-.13.9-.34,0,0,0-.01.01-.01.09-.08.18-.18.27-.29.03.02.1.11.16.3,0,.02.02.03.03.05.17.4.68,1.47,1.44,2.61,1.09,1.64,2.7,3.4,4.52,3.43.02,0,.03,0,.05,0,1.55,0,2.95-1.26,4-2.65,1.05-1.37,1.78-2.86,2-3.37.01-.03.02-.05.03-.08.06-.18.13-.28.17-.3.08.1.17.2.26.29.01,0,.01.01.01.01.26.21.57.34.9.34,0,0,.19.02.52.09-.03.06-.06.13-.1.19.17.05.35.11.55.19,1.74.68,4.55,2.35,6.45,6.38.2.43.39.88.57,1.36.5,1.34.9,2.9,1.15,4.72h-2.34,0Z"/>
    <path class="st11" d="M44.75,69.41v6.35c-.75-.29-1.47-.68-2.13-1.19v-4.05c.18-.04.27-.05.27-.05.04,0,.08,0,.12-.01.35-.06.63-.35.86-.83.03-.07.06-.14.09-.21h.78ZM48.56,69.41v6.91c-.71.05-1.42.02-2.12-.1v-6.81h2.12ZM52.37,70.52v4.58c-.67.4-1.39.71-2.13.92v-6.61h.78s.02.06.03.09c.2.46.44.78.74.91.09.05.19.06.3.06,0,0,.1.01.28.05h0Z"/>
    <path class="st16" d="M56.48,46.54c-1.83,7.89-11.05,12.57-11.05,12.57l.03-.11c-1.22.6-3.05.98-5.08.98-.96,0-1.86-.08-2.68-.24-.82-.15-1.55-.37-2.16-.64h-.02c-.12-.06-.24-.11-.35-.17-.23-.09-.45-.24-.65-.41-2.45-1.48-8.58-5.72-10.04-11.99l.02-1.64.73.54s3.98,9.45,7.76,7.91c.47.48,1.12.9,1.9,1.26-.04.13-.05.26-.05.39h0c0,.81.16,1.55.41,2.18.49.24,1.07.45,1.73.61,0,0,0-.02,0-.03,0-.62,1.49-1.12,3.34-1.12s3.33.5,3.33,1.12c0,.02,0,.04,0,.06.63-.15,1.2-.34,1.69-.56.28-.65.45-1.42.45-2.26h0c0-.1-.01-.18-.02-.26.86-.35,1.57-.79,2.1-1.28,3.75,1.15,7.88-8.03,7.88-8.03l.73-.54.02,1.64h0Z"/>
    <path class="st11" d="M29.79,69.41v6.35c-.75-.29-1.47-.68-2.13-1.19v-4.05c.18-.04.27-.05.27-.05.04,0,.08,0,.12-.01.35-.06.63-.35.86-.83.03-.07.06-.14.09-.21h.78ZM33.59,69.41v6.91c-.71.05-1.42.02-2.12-.1v-6.81h2.12ZM37.4,70.52v4.58c-.67.4-1.39.71-2.13.92v-6.61h.78s.02.06.03.09c.2.46.44.78.74.91.09.05.19.06.3.06,0,0,.1.01.28.05h0Z"/>
    <path class="st23" d="M60.45,24.15c-.79-2.18-2.97-4.7-6.05-7.17-3.92-3.13-6.39-2.49-9.63-2.4l-.03.05c-1.43-.27-9.09-1.63-13.65-.13-5.04,1.66-9.16,4.51-12.08,12.16-2.91,7.65-.52,13.91.04,16.58,1.79,8.46,10.37,13.82,10.37,13.82,0,0-2.17-2.26-3.14-4.51-.75-1.75-1.87-4.75-1.87-9.18,0-1.77.78-3.7,1.72-5.39.68-1.67,1.71-3.2,3.13-4.45.03-.04.05-.06.05-.06,0,0-.01.01-.02.03.13-.11.25-.23.38-.33,4.37-3.53,10.36-5.23,15.79-3.57.1-.24.19-.48.28-.74.12-.34.18-.65.23-.95l5.57,7.16c.26.31.69.84,1.18,1.52,1.44,1.98,3.44,5.23,3.44,8.06,0,4.42-1.12,7.43-1.87,9.18-.97,2.25-3.13,4.52-3.13,4.52,0,0,.12-.07.32-.21,17.88-11.65,12.42-27.4,8.99-33.99h0Z"/>
  </g>
</svg>