<?xml version="1.0" encoding="UTF-8"?>
<svg id="Layer_2" xmlns="http://www.w3.org/2000/svg" version="1.1" xmlns:xlink="http://www.w3.org/1999/xlink" viewBox="0 0 80 80">
  <!-- Generator: Adobe Illustrator 30.2.1, SVG Export Plug-In . SVG Version: 2.1.1 Build 1)  -->
  <defs>
    <style>
      .st0 {
        fill: #dac6a4;
      }

      .st1 {
        fill: #b5957e;
      }

      .st2 {
        fill: #b8987d;
      }

      .st3 {
        fill: #714223;
      }

      .st4 {
        fill: #ccad8a;
      }

      .st5 {
        fill: #ecdab6;
      }

      .st6 {
        fill: #d7bd9d;
      }

      .st7 {
        fill: #fff;
      }

      .st8 {
        fill: #272213;
      }

      .st9 {
        fill: #b7967d;
      }

      .st10 {
        fill: none;
      }

      .st11 {
        fill: #b12717;
      }

      .st12 {
        fill: #d2bb9b;
      }

      .st13 {
        fill: #ba9d82;
      }

      .st14 {
        fill: #dcc5a0;
      }

      .st15 {
        fill: #c1a587;
      }

      .st16 {
        fill: #44361f;
      }

      .st17 {
        fill: #52839e;
      }

      .st18 {
        fill: #a98d76;
      }

      .st19 {
        fill: #462e1b;
      }

      .st20 {
        clip-path: url(#clippath);
      }

      .st21 {
        fill: #ebd9b5;
      }

      .st22 {
        fill: #3c3d39;
      }
    </style>
    <clipPath id="clippath">
      <rect class="st10" x="35.76" y="55.25" width="9.07" height="5.3"/>
    </clipPath>
  </defs>
  <g id="Layer_1-2">
    <path class="st17" d="M0,0h80v80H0V0Z"/>
    <path class="st14" d="M40.26,49.82v30.18h-16.36l-.4-.16c0-3.85.57-6.85,1.43-9.2,2.08-5.65,5.9-7.45,7.65-7.99.58-.18.93-.22.93-.22.06,0,.12,0,.18-.01.52-.08.94-.53,1.27-1.24.25-.53.46-1.21.63-1.98.07-.3.12-.61.17-.94.08-.56.16-1.14.23-1.76.03-.37.06-.73.1-1.12.14-1.85.19-3.87.19-5.78,0,0,2.2.23,3.98.23h0Z"/>
    <path class="st21" d="M57.09,79.84s-.15.05-.39.16h-16.44v-30.18h.04c1.77,0,4-.23,4-.23,0,1.9.04,3.89.18,5.74.04.36.08.73.1,1.09.07.64.15,1.24.24,1.8h0c.03.26.08.49.12.73.16.79.36,1.48.6,2.03.3.69.65,1.17,1.09,1.36.14.06.29.09.44.09,0,0,.63.08,1.57.44,1.93.75,5.16,2.73,7.02,7.77.86,2.34,1.43,5.35,1.43,9.2h0Z"/>
    <g class="st20">
      <path class="st13" d="M44.83,58.1h0c-.41.64-1.8,2.45-4.54,2.45h-.03c-2.6-.01-4.12-1.87-4.5-2.42.08-.55.16-1.13.23-1.73.03-.35.06-.72.11-1.1,1.26.31,2.65.51,4.12.54h.05c1.52-.03,2.92-.24,4.22-.58.04.35.08.72.11,1.08.06.63.15,1.22.24,1.77"/>
    </g>
    <path class="st4" d="M40.07,15.67c-17.34,0-17.43,14.35-16.66,23.75-1.18-2.23-4.71-1.55-4.42,1.97.28,3.38,5.32,5.11,5.18,4.73,2.62,6.95,9.57,12.19,15.9,12.19h.13V15.67h-.13Z"/>
    <path class="st18" d="M20.1,39.9c.85-1.36,2.18-.77,2.5-.47.35.33.62.75.41,1.55-.12.46-.6.5-.49,1.18.13.77.49.81.7,1,.2.17.45.3.57.63.13.33.15.67.08.97-.13.55-.95.1-1.49-.13-.36-.17-1.51-1.13-1.8-1.44-.72-.81-1.06-2.39-.49-3.28"/>
    <path class="st6" d="M40.17,15.67c17.34,0,17.43,14.35,16.67,23.75,1.18-2.23,4.7-1.55,4.41,1.97-.27,3.38-5.32,5.11-5.18,4.73-2.56,6.95-9.57,12.19-15.9,12.19h-.09l-.04-42.64h.13"/>
    <path class="st18" d="M60.14,39.9c-.85-1.36-2.17-.77-2.5-.47-.35.33-.61.75-.41,1.55.12.46.6.5.49,1.18-.13.77-.49.81-.69,1-.2.17-.47.3-.58.63s-.15.67-.08.97c.13.55.95.1,1.49-.13.37-.17,1.51-1.13,1.8-1.44.73-.81,1.06-2.39.49-3.28"/>
    <path class="st14" d="M39.94,19.72c-5.7,0-9.88,1.64-12.4,4.86-3.53,4.52-3.4,11.42-2.1,16.37.4,1.52.61,5.6.88,7.09,1.24,6.7,8.71,10.27,13.62,10.27h.13V19.72h-.08"/>
    <path class="st21" d="M52.32,24.59c-2.5-3.21-6.63-4.85-12.25-4.88v38.59c5.62-.06,12.34-3.97,13.49-10.27.28-1.49.48-5.57.88-7.09,1.3-4.94,1.44-11.82-2.12-16.36"/>
    <path class="st10" d="M39.38,50.06c-.08-.01-.15-.03-.21-.04.07.01.14.03.21.04M39.08,51.45c-.05-.01-.1-.02-.13-.03.04.01.09.02.13.03"/>
    <path class="st9" d="M39.16,51.47s-.05-.01-.08-.02c.03,0,.05.01.08.02M38.95,51.42s-.05-.01-.07-.02.03,0,.08.02h0Z"/>
    <path class="st6" d="M36.76,46.46c-.06-1.33,2.47-.49,3.31-.45.66.03,2.68-.42,2.85-.3,1.18.79-1.25,2.38-2.89,2.38-.44,0-3.23-.83-3.27-1.63h0Z"/>
    <path class="st10" d="M24.53,31.75c-.16.51-.26,1.07-.34,1.67,0,0,.23-.94.73-2.33-.22.3-.36.54-.4.67"/>
    <path class="st16" d="M35.23,19.81l-.07.07v.03s.05-.07.07-.1"/>
    <path class="st10" d="M39.43,50.73c-.08-.01-.16-.03-.22-.04.08.01.15.03.22.04M39.13,50.66c-.05-.01-.1-.02-.13-.03.04.01.09.02.13.03"/>
    <path class="st1" d="M39.21,50.68s-.05-.01-.08-.02c.03,0,.05.01.08.02M38.99,50.64l-.08-.02s.03,0,.08.02"/>
    <path class="st7" d="M27.63,34.78s1.32,5.37,3.59,5.81,4.73-.43,4.73-.43c0,0,.23-6.31-.93-7.14-1.16-.83-3.84-2.03-7.39,1.76h0Z"/>
    <path class="st12" d="M35.96,40.14s-.05.01-.17.06c-.03-1.94-.21-4.6-.94-5.11-1.08-.78-3.52-1.88-6.77,1.13-.3-.83-.44-1.46-.44-1.46,3.56-3.79,6.24-2.6,7.39-1.77,1.16.83.93,7.15.93,7.15h0Z"/>
    <ellipse class="st19" cx="32.38" cy="37.41" rx="2.23" ry="2.21"/>
    <path class="st3" d="M32.27,38.88c-.65-.05-1.14-.7-1.08-1.41.06-.71.65-1.27,1.3-1.21s1.14.7,1.08,1.41-.65,1.27-1.3,1.21h0Z"/>
    <path class="st8" d="M32.33,38.62c-.45-.04-.92-.53-.87-1.13.05-.6.59-1.01,1.04-.97.45.04.91.53.87,1.13-.05.6-.59,1.01-1.04.97h0Z"/>
    <path class="st7" d="M31.97,37.14c-.02.22-.25.38-.5.35-.26-.02-.45-.21-.44-.43s.24-.38.5-.36.45.21.44.43h0ZM33.42,38.4c-.01.11-.12.19-.25.18-.13-.01-.23-.11-.22-.21.01-.11.12-.19.25-.18.13.01.23.11.22.21"/>
    <path class="st10" d="M39.47,51.36c-.08-.01-.16-.03-.22-.04.08.01.15.03.22.04M39.16,51.3c-.05-.01-.1-.02-.13-.03.04.01.09.02.13.03"/>
    <path class="st1" d="M39.25,51.32s-.05-.01-.08-.02c.03,0,.05.01.08.02M39.03,51.27l-.08-.02s.03,0,.08.02"/>
    <path class="st10" d="M39.38,51.21c-.09-.01-.17-.03-.23-.04.08.02.16.03.23.04M39.05,51.15c-.05-.01-.11-.03-.14-.03.05.01.09.02.14.03"/>
    <path class="st9" d="M39.14,51.17s-.06-.01-.09-.02c.03,0,.05.01.09.02M38.91,51.12s-.05-.01-.08-.02.03.01.08.02h0Z"/>
    <path class="st10" d="M39.31,50.99c-.09-.01-.17-.03-.23-.04.08.02.16.03.23.04M38.99,50.92c-.05-.01-.11-.03-.14-.03.05.01.09.02.14.03"/>
    <path class="st9" d="M39.08,50.94s-.06-.01-.09-.02c.03,0,.05.01.09.02M38.84,50.89s-.05-.01-.08-.02.03.01.08.02h0Z"/>
    <path class="st10" d="M39.51,50.95c-.08-.01-.16-.03-.23-.04.08.02.15.03.23.04M39.19,50.89c-.05-.01-.1-.02-.14-.03.05.01.09.02.14.03"/>
    <path class="st9" d="M39.28,50.91s-.06-.01-.09-.02c.03,0,.05.01.09.02M39.06,50.86l-.08-.02s.03.01.08.02h0Z"/>
    <path class="st7" d="M52.64,34.6s-1.32,5.37-3.59,5.81-4.73-.43-4.73-.43c0,0-.23-6.31.93-7.14,1.16-.83,3.84-2.03,7.39,1.76h0Z"/>
    <path class="st12" d="M44.32,39.96s.05.01.17.06c.03-1.94.21-4.6.94-5.11,1.08-.78,3.52-1.88,6.77,1.13.3-.83.44-1.46.44-1.46-3.56-3.79-6.24-2.6-7.39-1.77-1.16.83-.93,7.15-.93,7.15h0Z"/>
    <path class="st19" d="M45.66,37.22c0,1.22,1,2.21,2.23,2.21s2.23-.99,2.23-2.21-1-2.21-2.23-2.21-2.23.99-2.23,2.21"/>
    <path class="st3" d="M48,38.7c.65-.05,1.14-.7,1.08-1.41-.06-.71-.65-1.27-1.3-1.21s-1.14.7-1.08,1.41.65,1.27,1.3,1.21h0Z"/>
    <path class="st8" d="M47.95,38.44c.45-.04.92-.53.87-1.13-.05-.6-.59-1.01-1.04-.97-.45.04-.91.53-.87,1.13.05.6.59,1.01,1.04.97h0Z"/>
    <path class="st7" d="M48.31,36.96c.02.22.25.38.5.35.26-.02.45-.21.44-.43s-.24-.38-.5-.36-.45.21-.44.43h0ZM46.86,38.21c.01.11.12.19.25.18.13-.01.23-.11.22-.21-.01-.11-.12-.19-.25-.18-.13.01-.23.11-.22.21"/>
    <path d="M37.32,34.69s-.43-.65-1.27-1.29c-.53-.4-1.04-.71-1.58-.93-.65-.27-1.35-.46-2.04-.55-.61-.07-1.3-.05-2.09.06-.61.11-1.2.29-1.7.51-.36.12-.64.29-.87.43-.09.05-.17.1-.25.14l-1.08.68,1.25-.29c.06-.01.12-.03.19-.05.26-.07.58-.15.96-.21.09-.01.18-.03.27-.05.16-.03.32-.06.49-.07.19-.01.39-.03.59-.04l.26-.02c.69,0,1.28.04,1.8.16.57.1,1.15.28,1.69.53.51.24.99.48,1.37.75.77.5,1.19.93,1.19.93.1.1.25.16.39.16.1,0,.21-.03.3-.09.25-.16.32-.5.16-.74v-.02s-.01,0-.01,0ZM52.87,33.06c-.07-.04-.15-.09-.24-.14-.23-.14-.51-.31-.86-.43-.51-.23-1.1-.4-1.72-.52-.79-.1-1.47-.12-2.09-.05-.68.09-1.38.28-2.03.55-.53.23-1.06.54-1.58.93-.83.63-1.24,1.24-1.27,1.28h0c-.14.23-.11.51.07.69.1.1.24.16.39.16s.28-.06.38-.16h0s.45-.44,1.19-.93c.37-.27.86-.51,1.36-.75.54-.25,1.12-.43,1.7-.53.51-.12,1.1-.17,1.78-.16l.27.02c.2.01.39.03.58.04.17,0,.33.04.49.07.09.02.18.04.27.05.38.05.7.14.96.21.07.02.13.04.19.05l1.25.29-1.09-.68h0Z"/>
    <path class="st10" d="M39.08,52c-.08-.01-.16-.03-.23-.04.08.02.16.03.23.04M38.77,51.93c-.05-.01-.1-.03-.14-.03l.14.03Z"/>
    <path class="st2" d="M38.85,51.96s-.06-.01-.09-.02c.03,0,.05.01.09.02M38.62,51.91s-.05-.01-.08-.02.03.01.08.02"/>
    <path class="st5" d="M36.87,53.06c-.06-.87,2.43.18,3.25.21.65.02,2.62-.13,2.8-.2,1.37-.51-.08,1.44-2.84,1.55-1.27.05-3.17-1.03-3.21-1.56h0Z"/>
    <path class="st0" d="M44.99,51.4c-.68-.03-1.37.53-2.19.44-.03-.02-.05-.02-.08-.02-.19-.03-.37,0-.58.05-.25.05-.51.15-.75.24-.41.13-.87.24-1.34.2s-.02,0-.03,0h-.03c-.47.03-.93-.07-1.34-.2-.24-.08-.49-.18-.75-.24-.2-.05-.39-.08-.58-.05-.04,0-.05,0-.08.02-.82.09-1.51-.47-2.19-.44-.19.02-.46-.03-.61-.03.03.02.07.03.1.05,1.93.93,3.6,2.68,5.44,2.62h.05c1.84.06,3.51-1.69,5.44-2.62.04-.02.07-.03.1-.05-.15,0-.42.05-.61.03h0Z"/>
    <path class="st15" d="M45.56,51.34s-1.96-.75-3.36-.31c0,0-.52.2-1.06.32-.33.13-.73.16-1.11.15-.29-.01-.57-.05-.8-.09-.08-.01-.15-.03-.23-.04-.03,0-.06-.01-.09-.02l-.14-.03c-.05-.01-.08-.02-.08-.02-.45-.12-.83-.27-.83-.27-1.4-.44-3.36.31-3.36.31-.03.01-.04.02-.04.02.15,0,.42.05.61.03.68-.03,1.37.53,2.19.44.03-.02.05-.02.08-.02.19-.03.37,0,.58.05.25.05.51.15.75.24.41.13.87.24,1.34.2s.02,0,.03,0h.03c.47.03.93-.07,1.34-.2.24-.08.49-.18.75-.24.2-.05.39-.08.58-.05.04,0,.05,0,.08.02.82.09,1.51-.47,2.19-.44.19.02.46-.03.61-.03,0,0-.02,0-.04-.02h0Z"/>
    <path class="st15" d="M36.73,51.8s3.68,1.11,6.53.03l-.33-.22h-3.85l-2.35.19Z"/>
    <path class="st10" d="M24.44,71.42l13.49,8.57h-14.62c0-.93.04-1.81.1-2.65.09-1.3.25-2.49.46-3.58.16-.84.35-1.62.58-2.34h0ZM57.09,79.99h-14.53l13.52-8.7c.26.84.45,1.67.6,2.47.25,1.33.36,2.56.42,3.58.08,1.6-.01,2.65-.01,2.65h0Z"/>
    <path class="st22" d="M55.58,17.08c-.15-.15-.31-.3-.46-.45.21-1.32-.5-3.04-4.3-4.53,0,0,1.19,1.16,2.12,2.75-3.59-2.56-7.36-3.81-7.36-3.81l1.65,1.47c-.99-.72-2.75-1.71-5.69-2.59-4.19-1.25-6.9.14-6.9.14,0,0,2.18-.07,3.25.74-1.05-.43-2.88-.58-5.91.61-.19.07-.37.15-.55.23-1.1-.15-2.26-.41-3.47-.84,0,0,.76.78,2.04,1.56-.99.59-1.77,1.23-2.42,1.88-1.55.05-3.3-.09-5.18-.6,0,0,1.55,1.35,3.85,2.1-.35.42-.68.83-1.03,1.22-1.51.36-3.26.59-5.23.47,0,0,1.4.76,3.38,1.13-.41.24-.86.45-1.39.61-4.24,1.31-5.47-.37-5.47-.37,0,0,1.84,2.95,5.11,2.95.53,0,.58-.01.58-.01,0,0-.79,2.05-1.22,4.07-.97.34-2.05.63-3.24.81,0,0,1.29.37,3.03.4-.01.07-.02.15-.03.21-.24,2.4.51,4.05.74,8.54.2,3.84,1.27,1.87,2.56,4.71.43.95.45,2.02.45,2.02.48.11,1.72-2.31.83-6.51-.26-1.21.16-3.9,1.31-6.35s5.48-9.67,13.62-1.77c.06.06.12.11.18.17h0s5.1,4.67,8.77,7.18c0,0-1.11-2.36-1.45-4.68l.17.02c2.33,2.02,4.28,4.87,4.77,8.89,0,0,3.23-3.23,3.79-7.12.06.93.05,1.92-.05,3.01-.64,6.96.56,6.91.56,6.91.36,0-.03-1.86,1.17-3.13,1.19-1.28,3-5.59,3-9.88s-1.55-8.12-5.6-12.18h0Z"/>
    <path class="st11" d="M56.65,73.6c-.14-.75-.33-1.53-.57-2.31-.66-2.13-1.92-4.23-3.61-5.97l-.82.65c-.09-.03-.19-.05-.3-.05h-20.82s-.09.01-.13.02l-1.47-1.36c-1.58,1.38-3.45,3.41-4.5,6.85-.21.67-.39,1.38-.54,2.16h.02c2.63,0,4.76,2.11,4.76,4.72,0,.6-.11,1.17-.32,1.7h24.32c-.21-.53-.32-1.1-.32-1.7,0-2.44,1.87-4.46,4.27-4.69h0ZM36.25,71.29h8.68c-2.56,1.99-6.15,1.96-8.68,0M47.27,69.44h-13.07l-1.8-1.66h16.98l-2.1,1.66h0Z"/>
    <path class="st22" d="M46.4,50.64c-1.65-2.32-3.48-2.17-4.74-1.68-1.6.62-3.02.12-3.28.01-1.17-.51-2.91-.71-4.48,1.68-1.61,2.44,1.42,8.06-2.76,8.65v.05c.67,0,1.49-.04,2.03-.31-2.79,1.22-1.61,3.79-.67,5.8-.79-3.01,3.44-3.1,4.13-5.74.26.55.39,1.21.2,1.79,2.13-1.82.14-4.18.82-6.42.18-.61.69-1.75,1.16-2.76.08-.17.26-.27.44-.24.35.05.85.09,1.38.01.18-.03.36.07.44.23.5,1.01,1.05,2.17,1.25,2.78.71,2.23-1.46,4.61.83,6.41-.2-.59-.06-1.24.23-1.8.73,2.64,5.3,2.69,4.42,5.71,1.03-2.02,2.34-4.59-.68-5.79.64.3,1.65.3,2.41.3v-.02c-4.84-.39-1.39-6.19-3.13-8.65h0Z"/>
  </g>
</svg>