<?xml version="1.0" encoding="UTF-8"?>
<svg id="Layer_2" xmlns="http://www.w3.org/2000/svg" version="1.1" xmlns:xlink="http://www.w3.org/1999/xlink" viewBox="0 0 80 80">
  <!-- Generator: Adobe Illustrator 30.2.1, SVG Export Plug-In . SVG Version: 2.1.1 Build 1)  -->
  <defs>
    <style>
      .st0 {
        fill: #b5957e;
      }

      .st1 {
        fill: #b8987d;
      }

      .st2 {
        fill: #714223;
      }

      .st3 {
        fill: #ccad8a;
      }

      .st4 {
        fill: #d7bd9d;
      }

      .st5 {
        fill: #fff;
      }

      .st6 {
        fill: #272213;
      }

      .st7 {
        fill: #b7967d;
      }

      .st8 {
        fill: none;
      }

      .st9 {
        fill: #403317;
      }

      .st10 {
        fill: #d2bb9b;
      }

      .st11 {
        fill: #ba9d82;
      }

      .st12 {
        fill: #dcc5a0;
      }

      .st13 {
        fill: #d6bb9c;
      }

      .st14 {
        fill: #44361f;
      }

      .st15 {
        fill: #52839e;
      }

      .st16 {
        fill: #32555e;
      }

      .st17 {
        fill: #a98d76;
      }

      .st18 {
        fill: #462e1b;
      }

      .st19 {
        clip-path: url(#clippath);
      }

      .st20 {
        fill: #a98b5f;
      }

      .st21 {
        fill: #ebd9b5;
      }
    </style>
    <clipPath id="clippath">
      <rect class="st8" x="34.14" y="56.24" width="8.78" height="5.13"/>
    </clipPath>
  </defs>
  <g id="Layer_1-2">
    <path class="st20" d="M0,0h80v80H0V0Z"/>
    <path class="st12" d="M38.49,50.97v29.03h-15.85c-.26-.1-.39-.15-.39-.15,0-1.22.06-2.35.17-3.39.22-2.14.65-3.94,1.21-5.45,2.02-5.44,5.71-7.16,7.42-7.68.55-.18.9-.21.9-.21.06,0,.12,0,.18-.01.31-.05.58-.23.82-.53.15-.18.29-.4.41-.66.24-.51.44-1.16.61-1.91.06-.3.12-.59.17-.91.08-.54.15-1.1.22-1.69.03-.36.06-.7.11-1.08.14-1.78.18-3.72.18-5.56,0,0,2.13.22,3.86.22h0Z"/>
    <path class="st21" d="M54.8,79.84s-.14.05-.38.15h-15.93v-29.03h.04c1.72,0,3.87-.22,3.87-.22,0,1.82.04,3.74.18,5.52.04.35.08.7.1,1.05.06.61.14,1.19.23,1.72h0c.03.25.08.47.12.7.16.75.34,1.42.57,1.95.11.25.22.47.35.67.21.31.44.53.7.64.13.06.27.09.43.09,0,0,.61.07,1.52.43,1.87.72,5.01,2.62,6.81,7.47.56,1.52.99,3.31,1.22,5.45.11,1.05.17,2.18.17,3.39h0Z"/>
    <g class="st19">
      <path class="st11" d="M42.92,59h0c-.4.62-1.74,2.38-4.4,2.38h-.03c-2.52-.01-3.99-1.82-4.36-2.35.08-.53.16-1.09.22-1.68.03-.34.06-.7.1-1.07,1.22.3,2.57.5,3.99.52h.05c1.47-.03,2.83-.23,4.09-.56.04.34.08.7.1,1.04.06.61.14,1.18.23,1.71"/>
    </g>
    <path class="st3" d="M38.32,17.88c-16.79,0-16.88,13.91-16.14,23.01-1.15-2.16-4.57-1.5-4.28,1.91.27,3.28,5.16,4.95,5.02,4.58,2.55,6.73,9.27,11.81,15.4,11.81h.13V17.88h-.13Z"/>
    <path class="st17" d="M18.97,41.37c.83-1.32,2.12-.75,2.43-.46.34.32.61.72.4,1.5-.12.44-.58.48-.48,1.14.13.75.48.79.68.97.19.16.44.29.56.61.13.32.14.65.08.94-.13.53-.92.1-1.44-.13-.35-.16-1.46-1.09-1.74-1.4-.7-.79-1.03-2.31-.48-3.18"/>
    <path class="st4" d="M38.41,17.88c16.79,0,16.88,13.91,16.15,23.01,1.15-2.16,4.55-1.5,4.27,1.91-.26,3.28-5.15,4.95-5.02,4.58-2.48,6.73-9.27,11.81-15.4,11.81h-.09l-.04-41.31h.13"/>
    <path class="st17" d="M57.75,41.37c-.83-1.32-2.1-.75-2.43-.46-.34.32-.59.72-.4,1.5.12.44.58.48.48,1.14-.13.75-.48.79-.67.97-.19.16-.45.29-.57.61-.12.32-.14.65-.08.94.13.53.92.1,1.44-.13.36-.16,1.46-1.09,1.74-1.4.71-.79,1.03-2.31.48-3.18"/>
    <path class="st12" d="M38.18,21.81c-5.52,0-9.57,1.59-12.01,4.71-3.42,4.38-3.29,11.06-2.04,15.86.39,1.47.59,5.42.85,6.87,1.2,6.49,8.44,9.94,13.19,9.94h.13V21.81h-.08"/>
    <path class="st21" d="M50.18,26.53c-2.43-3.11-6.42-4.7-11.87-4.72v37.39c5.44-.06,11.96-3.85,13.07-9.94.27-1.45.47-5.4.85-6.87,1.26-4.79,1.39-11.45-2.05-15.85"/>
    <path class="st8" d="M37.64,52.61c-.08-.01-.14-.03-.21-.04.07.01.14.03.21.04M37.35,52.55s-.09-.02-.13-.03c.04.01.08.02.13.03"/>
    <path class="st7" d="M37.43,52.57s-.05-.01-.08-.02c.03,0,.05.01.08.02M37.23,52.52s-.05-.01-.07-.02.03,0,.07.02"/>
    <path class="st8" d="M23.26,33.46c-.15.5-.26,1.04-.32,1.61,0,0,.22-.91.71-2.26-.21.29-.35.52-.38.65h0Z"/>
    <path class="st14" d="M33.62,21.9l-.07.07v.02s.05-.07.07-.09h0Z"/>
    <path class="st8" d="M37.69,51.85c-.08-.01-.15-.03-.21-.04.07.01.14.03.21.04M37.4,51.79c-.05-.01-.1-.02-.13-.03.04.01.09.02.13.03"/>
    <path class="st0" d="M37.48,51.81s-.05-.01-.08-.02c.03,0,.05.01.08.02"/>
    <path class="st13" d="M35.03,48.06c-.06-1.33,2.46-.49,3.29-.44.66.03,2.66-.42,2.83-.3,1.18.79-1.25,2.37-2.87,2.37-.43,0-3.21-.83-3.25-1.63"/>
    <path class="st5" d="M26.26,36.4s1.28,5.21,3.48,5.63,4.58-.42,4.58-.42c0,0,.23-6.12-.9-6.92-1.13-.8-3.72-1.96-7.16,1.71"/>
    <path class="st10" d="M34.33,41.6s-.05.01-.16.06c-.03-1.88-.2-4.46-.91-4.95-1.05-.76-3.41-1.83-6.56,1.09-.29-.81-.43-1.42-.43-1.42,3.45-3.68,6.05-2.52,7.16-1.72,1.13.8.9,6.93.9,6.93h0Z"/>
    <path class="st18" d="M33.03,38.95c0,1.18-.97,2.15-2.17,2.15s-2.17-.96-2.17-2.15.97-2.15,2.17-2.15,2.17.96,2.17,2.15"/>
    <path class="st2" d="M30.76,40.38c-.62-.05-1.1-.68-1.05-1.36.05-.69.63-1.22,1.26-1.17s1.1.68,1.05,1.36c-.06.69-.64,1.23-1.26,1.17"/>
    <path class="st6" d="M30.82,40.13c-.44-.04-.89-.51-.84-1.09.05-.58.57-.98,1.01-.94s.88.51.84,1.09-.57.98-1.01.94"/>
    <path class="st5" d="M30.46,38.69c-.02.21-.23.36-.49.34-.25-.02-.44-.21-.42-.42.02-.21.23-.36.48-.35.25.02.44.21.42.42h0ZM31.87,39.91c-.01.1-.12.18-.24.17-.13-.01-.22-.1-.21-.21.01-.1.12-.18.24-.17.13.01.22.1.21.21"/>
    <path class="st8" d="M37.73,52.47c-.08-.01-.15-.03-.21-.04.07.01.14.03.21.04M37.43,52.41c-.05-.01-.1-.02-.13-.03.04.01.09.02.13.03"/>
    <path class="st0" d="M37.51,52.43s-.05-.01-.08-.02c.03,0,.05.01.08.02M37.3,52.38s-.05-.01-.07-.02.03,0,.08.02h0Z"/>
    <path class="st8" d="M37.64,52.32c-.08-.01-.16-.03-.23-.04.08.02.15.03.23.04M37.33,52.26c-.05-.01-.1-.02-.14-.03.05.01.09.02.14.03"/>
    <path class="st7" d="M37.42,52.28s-.06-.01-.09-.02c.03,0,.05.01.09.02M37.19,52.23l-.08-.02s.03.01.08.02h0Z"/>
    <path class="st8" d="M37.58,52.1c-.08-.01-.16-.03-.23-.04.08.02.15.03.23.04M37.26,52.04c-.05-.01-.1-.02-.14-.03.05.01.09.02.14.03"/>
    <path class="st7" d="M37.35,52.06s-.06-.01-.09-.02c.03,0,.05.01.09.02M37.12,52.01l-.08-.02s.03.01.08.02h0Z"/>
    <path class="st8" d="M37.77,52.07c-.08-.01-.16-.03-.22-.04.08.01.15.03.22.04M37.47,52.01c-.05-.01-.1-.02-.13-.03.04.01.09.02.13.03"/>
    <path class="st7" d="M37.55,52.03s-.06-.01-.08-.02c.03,0,.05.01.08.02M37.33,51.98l-.08-.02s.03.01.08.02h0Z"/>
    <path class="st5" d="M50.49,36.22s-1.28,5.21-3.48,5.63-4.58-.42-4.58-.42c0,0-.23-6.12.9-6.92,1.13-.8,3.72-1.96,7.16,1.71"/>
    <path class="st10" d="M42.43,41.42s.05.01.16.06c.03-1.88.2-4.46.91-4.95,1.05-.76,3.41-1.83,6.56,1.09.29-.81.43-1.42.43-1.42-3.45-3.68-6.05-2.52-7.16-1.72-1.13.8-.9,6.93-.9,6.93h0Z"/>
    <path class="st18" d="M43.73,38.77c0,1.18.97,2.15,2.17,2.15s2.17-.96,2.17-2.15-.97-2.15-2.17-2.15-2.17.96-2.17,2.15"/>
    <path class="st2" d="M46,40.2c.62-.05,1.1-.68,1.05-1.36-.05-.69-.63-1.22-1.26-1.17s-1.1.68-1.05,1.36c.06.69.64,1.23,1.26,1.17"/>
    <path class="st6" d="M45.94,39.95c.44-.04.89-.51.84-1.09-.05-.58-.57-.98-1.01-.94s-.88.51-.84,1.09.57.98,1.01.94"/>
    <path class="st5" d="M46.3,38.51c.02.21.23.36.49.34.25-.02.44-.21.42-.42-.02-.21-.23-.36-.48-.35-.25.02-.44.21-.42.42h0ZM44.89,39.73c.01.1.12.18.24.17.13-.01.22-.1.21-.21-.01-.1-.12-.18-.24-.17-.13.01-.22.1-.21.21"/>
    <path d="M35.65,36.32s-.42-.63-1.23-1.25c-.51-.39-1.01-.68-1.53-.9-.63-.26-1.31-.45-1.97-.54-.6-.06-1.26-.05-2.03.05-.59.11-1.16.29-1.65.5-.35.12-.62.29-.84.42-.08.05-.16.1-.24.14l-1.05.65,1.21-.28c.06-.01.12-.03.18-.05.25-.06.56-.15.93-.2.09-.01.17-.03.26-.05.15-.03.31-.06.48-.07.18-.01.37-.03.57-.04l.25-.02c.67,0,1.24.04,1.74.16.55.09,1.12.27,1.64.51.49.23.96.46,1.32.73.74.49,1.15.9,1.16.9.1.1.24.15.38.15.1,0,.2-.03.29-.09.24-.16.31-.48.16-.72h-.01s0-.01,0-.01ZM50.71,34.74c-.07-.04-.14-.08-.23-.14-.22-.13-.49-.3-.83-.41-.5-.22-1.07-.39-1.67-.5-.77-.1-1.43-.12-2.03-.05-.66.09-1.34.28-1.97.54-.51.22-1.03.52-1.53.9-.8.61-1.2,1.2-1.23,1.24h0c-.13.22-.1.49.07.67.1.1.23.15.37.15s.27-.05.37-.15h0s.44-.43,1.16-.9c.36-.26.83-.49,1.32-.73.52-.24,1.09-.41,1.64-.51.49-.11,1.06-.16,1.73-.16l.27.02c.19.01.38.03.57.04.16,0,.32.04.47.07.09.02.18.04.26.05.36.05.68.14.93.2.06.02.13.03.18.05l1.21.28-1.06-.66h0Z"/>
    <path class="st8" d="M36.95,54.28c-.08-.01-.15-.03-.21-.04.07.01.14.03.21.04M36.65,54.22s-.1-.02-.13-.03c.04.01.09.02.13.03"/>
    <path class="st1" d="M36.74,54.24s-.05-.01-.08-.02c.03,0,.05.01.08.02M36.53,54.2s-.05-.01-.07-.02.03,0,.08.02h0Z"/>
    <path class="st8" d="M36.89,54.08c-.08-.01-.15-.03-.21-.04.07.01.14.03.21.04M36.6,54.02s-.1-.02-.13-.03c.04.01.08.02.13.03"/>
    <path class="st1" d="M36.68,54.04s-.05-.01-.08-.02c.03,0,.05.01.08.02M36.47,53.99s-.05-.01-.07-.02.03,0,.08.02h0Z"/>
    <path class="st8" d="M37.06,54.05c-.08-.01-.14-.03-.21-.04.07.01.14.03.21.04M36.78,54s-.09-.02-.12-.03c.04.01.08.02.12.03"/>
    <path class="st1" d="M36.86,54.01s-.05-.01-.08-.02c.03,0,.05.01.08.02M36.66,53.97s-.05-.01-.07-.02.03,0,.07.02h0Z"/>
    <path class="st15" d="M51.33,76.45c.02,1.55.08,2.76.13,3.55h-26.06c.05-.79.1-2,.12-3.55h-3.08c.22-2.14.65-3.94,1.21-5.45,2.02-5.44,5.71-7.16,7.42-7.68.55-.18.9-.21.9-.21.06,0,.12,0,.18-.01.31-.05.58-.23.82-.53.43,1.06,3.4,7.84,5.47,9.83.03-.03.05-.05.08-.08,2.12-2.14,5.12-9.04,5.43-9.82.01-.04.03-.09.04-.12.21.31.44.53.7.64.13.06.27.09.43.09,0,0,.61.07,1.52.43,1.87.72,5.01,2.62,6.81,7.47.56,1.52.99,3.31,1.22,5.45h-3.32Z"/>
    <path class="st9" d="M56.09,26.4c-.35-1.23-.71-2.18-.72-2.18,0,0,.05.01.55.01,3.03,0,4.74-2.8,4.74-2.8,0,0-1.14,1.59-5.08.35-.52-.16-.96-.38-1.36-.63,4.93-.79,6.4-6.91,6.4-6.91-3.27,6.64-8.07,4.39-10.06,3.04-.98-1.04-2.24-2.07-4.24-2.86-2.83-1.13-4.52-.98-5.5-.57.99-.78,3.03-.71,3.03-.71,0,0-2.52-1.32-6.4-.14-2.73.83-4.36,1.78-5.28,2.46l1.53-1.39s-1.09.37-2.62,1.11c1.04-1.93,2.97-4.05,2.97-4.05-4.92,1.75-9,8.04-9,8.04.39-2.37,1.25-4.54,1.25-4.54-3.86,2.74-5.67,6.49-6.5,9.75-.65-3.47.6-9.13.6-9.13-8.36,7.8,0,22.46,0,22.46.51,1.39,1.11,2.47,1.6,3,1.1,1.21.75,2.97,1.08,2.97,0,0,.66.02.69-3.05.03-.36.09-.79.21-1.19.03-8.9,7.88-13.28,14.11-12.33.02,0,8.7,3.76,7.54,9.9,0,0,2.19-2.12,3.47-5.05,1.78,3.06,2.76,6.58,3.12,8.01-.1,2.59.7,4.02,1.05,3.93,0,0,.01-1.01.42-1.91,1.19-2.69,2.18-.82,2.37-4.46.15-2.92.52-4.57.67-6.06.94.72,2.35,1.22,4.45,1.27,0,0-2.97-.88-5.07-6.35h0ZM54.53,44.92l-.73.54s-4.65,10.34-8.57,7.71v.05c-.21-.6-.49-1.12-.85-1.5-1.11-1.62-3.35-2.73-5.94-2.73-2.39,0-4.47.94-5.66,2.35-.53.36-.96.99-1.23,1.78h0c-3.92,2.62-8.26-7.66-8.26-7.66l-.73-.54-.02,1.64c1.46,6.27,7.58,10.51,10.04,11.99.2.18.42.32.65.4.11.06.23.11.35.16,0,0,.02.01.02.01,1.22.53,2.93.87,4.84.87,2.04,0,3.86-.38,5.08-.98l-.03.11s9.22-4.68,11.05-12.57l-.02-1.64h0ZM41.69,57.85s.01-.04.01-.06c0-.62-1.49-1.12-3.34-1.12s-3.34.5-3.34,1.12v.03c-.65-.16-1.23-.37-1.72-.61-.26-.63-.42-1.37-.42-2.17h0c0-.43.2-.83.52-1.11.98-.83,2.32-1.42,3.84-1.63.38-.05.78-.08,1.18-.08s.79.03,1.18.08c1.38.19,2.6.69,3.55,1.41.42.31.67.81.67,1.32h0c0,.84-.17,1.62-.45,2.26-.49.22-1.06.41-1.69.56h0Z"/>
    <path class="st16" d="M48.15,70.6h-1.15c0-.39-.32-.7-.71-.7s-.71.31-.71.7h-1.15c-.29,0-.52.23-.52.51s.23.51.52.51h3.72c.29,0,.52-.23.52-.51s-.23-.51-.52-.51"/>
    <path class="st5" d="M42.41,71.32h7.77v2.82h-7.77v-2.82Z"/>
  </g>
</svg>