<?xml version="1.0" encoding="UTF-8"?>
<svg id="Layer_2" xmlns="http://www.w3.org/2000/svg" version="1.1" xmlns:xlink="http://www.w3.org/1999/xlink" viewBox="0 0 80 80">
  <!-- Generator: Adobe Illustrator 30.2.1, SVG Export Plug-In . SVG Version: 2.1.1 Build 1)  -->
  <defs>
    <style>
      .st0 {
        fill: #dac6a4;
      }

      .st1 {
        fill: #b5957e;
      }

      .st2 {
        fill: #b8987d;
      }

      .st3 {
        fill: #714223;
      }

      .st4 {
        fill: #ccad8a;
      }

      .st5 {
        fill: #ecdab6;
      }

      .st6 {
        fill: #d7bd9d;
      }

      .st7 {
        fill: #fff;
      }

      .st8 {
        fill: #272213;
      }

      .st9 {
        fill: #b7967d;
      }

      .st10 {
        fill: none;
      }

      .st11 {
        fill: #7b95a5;
      }

      .st12 {
        fill: #d2bb9b;
      }

      .st13 {
        fill: #ba9d82;
      }

      .st14 {
        fill: #dcc5a0;
      }

      .st15 {
        fill: #866fa7;
      }

      .st16 {
        fill: #c1a587;
      }

      .st17 {
        fill: #5b5051;
      }

      .st18 {
        fill: #a98d76;
      }

      .st19 {
        fill: #462e1b;
      }

      .st20 {
        clip-path: url(#clippath);
      }

      .st21 {
        fill: #fdfefe;
      }

      .st22 {
        fill: #967da6;
        fill-rule: evenodd;
      }

      .st23 {
        fill: #ebd9b5;
      }
    </style>
    <clipPath id="clippath">
      <rect class="st10" x="36.43" y="54.42" width="9.67" height="5.5"/>
    </clipPath>
  </defs>
  <path class="st17" d="M0,0h80v80H0V0Z"/>
  <g>
    <path class="st14" d="M41.23,48.78v31.11h-17.46c-.28-.11-.43-.16-.43-.16,0-3.97.6-7.07,1.52-9.48,2.22-5.83,6.29-7.68,8.16-8.24.62-.18.99-.23.99-.23.07,0,.13,0,.19-.01.55-.09,1-.54,1.36-1.28.27-.54.49-1.24.67-2.05.07-.31.13-.63.18-.97.08-.57.17-1.18.24-1.81.03-.38.07-.75.11-1.15.15-1.9.2-3.98.2-5.96,0,0,2.35.23,4.25.23h0Z"/>
    <path class="st23" d="M59.19,79.84s-.16.05-.41.16h-17.54v-30.44h.04c1.89,0,4.26-.23,4.26-.23,0,1.92.04,3.93.2,5.79.04.36.08.73.11,1.1.07.64.16,1.25.26,1.81h0c.03.27.08.5.13.73.17.79.38,1.49.64,2.05.32.7.7,1.18,1.16,1.37.15.06.3.09.47.09,0,0,.67.08,1.68.45,2.06.76,5.51,2.75,7.49,7.83.92,2.36,1.52,5.39,1.52,9.28h0Z"/>
    <g class="st20">
      <path class="st13" d="M46.11,57.37h0c-.44.67-1.92,2.55-4.84,2.55h-.03c-2.77-.01-4.39-1.95-4.8-2.52.08-.57.17-1.17.24-1.79.03-.37.07-.75.12-1.14,1.35.33,2.83.53,4.39.56h.06c1.62-.03,3.11-.24,4.5-.6.04.37.08.75.12,1.12.07.65.16,1.27.25,1.84"/>
    </g>
    <path class="st4" d="M41.03,13.33c-18.49,0-18.59,14.9-17.77,24.66-1.26-2.31-5.03-1.61-4.72,2.04.3,3.51,5.68,5.3,5.53,4.91,2.8,7.21,10.21,12.65,16.96,12.65h.14V13.33h-.14Z"/>
    <path class="st18" d="M19.73,38.49c.91-1.41,2.33-.8,2.67-.49.37.34.67.78.44,1.61-.13.48-.64.52-.52,1.22.14.8.52.84.75,1.03.21.18.48.31.61.65.14.34.16.7.08,1.01-.14.57-1.01.11-1.59-.14-.39-.18-1.61-1.17-1.92-1.5-.77-.84-1.14-2.48-.52-3.4"/>
    <path class="st6" d="M41.13,13.47c18.1,0,18.19,14.85,17.4,24.58,1.24-2.31,4.91-1.6,4.6,2.04-.28,3.5-5.55,5.29-5.41,4.9-2.67,7.19-9.99,12.61-16.6,12.61h-.1l-.04-44.12h.14"/>
    <path class="st18" d="M62.44,39.1c-.91-1.44-2.31-.82-2.67-.5-.37.35-.65.79-.44,1.64.13.49.64.53.52,1.25-.14.82-.52.86-.74,1.05-.21.18-.5.32-.62.67s-.16.71-.08,1.03c.14.58,1.01.11,1.59-.14.4-.18,1.61-1.19,1.92-1.53.78-.86,1.14-2.52.52-3.46"/>
    <path class="st14" d="M40.89,17.53c-6.08,0-10.54,1.7-13.22,5.05-3.76,4.7-3.62,11.85-2.25,16.99.43,1.58.65,5.81.94,7.36,1.32,6.95,9.29,10.66,14.53,10.66h.14V17.53h-.08"/>
    <path class="st23" d="M54.1,22.79c-2.67-3.32-7.07-5.01-13.07-5.03v39.84c6-.07,13.17-4.1,14.39-10.6.3-1.54.51-5.75.94-7.32,1.39-5.1,1.53-12.21-2.26-16.89"/>
    <path class="st10" d="M40.29,49.84c-.08-.02-.16-.03-.23-.04.08.02.15.03.23.04M39.98,51.31c-.05-.01-.1-.02-.14-.03.05.01.09.02.14.03"/>
    <path class="st9" d="M40.06,51.33s-.06-.01-.09-.02c.03,0,.05.01.09.02M39.84,51.27s-.05-.02-.08-.02.03,0,.08.02h0Z"/>
    <path class="st6" d="M37.5,46.03c-.07-1.41,2.64-.52,3.53-.47.7.03,2.85-.44,3.04-.32,1.26.84-1.34,2.52-3.08,2.52-.47,0-3.44-.88-3.49-1.73h0Z"/>
    <path class="st10" d="M24.45,30.47c-.17.54-.28,1.13-.36,1.76,0,0,.24-1,.78-2.46-.23.31-.39.57-.42.7M40.35,50.54c-.08-.02-.17-.03-.23-.05.08.02.16.03.23.05M40.02,50.48c-.05-.01-.11-.02-.14-.03.05.01.09.02.14.03"/>
    <path class="st1" d="M40.11,50.5s-.06-.01-.09-.02c.03,0,.05.01.09.02M39.88,50.44l-.08-.02s.03,0,.08.02"/>
    <path class="st7" d="M27.76,33.17s1.41,5.58,3.83,6.03,5.04-.45,5.04-.45c0,0,.25-6.56-.99-7.41-1.24-.86-4.1-2.11-7.89,1.83"/>
    <path class="st12" d="M36.64,38.73s-.05.01-.18.07c-.03-2.01-.22-4.77-1-5.3-1.15-.81-3.75-1.96-7.22,1.17-.32-.87-.47-1.52-.47-1.52,3.8-3.94,6.66-2.7,7.89-1.84,1.24.86.99,7.42.99,7.42"/>
    <path class="st19" d="M35.21,35.9c0,1.27-1.07,2.3-2.38,2.3s-2.38-1.03-2.38-2.3,1.07-2.3,2.38-2.3,2.38,1.03,2.38,2.3"/>
    <path class="st3" d="M32.72,37.43c-.69-.06-1.22-.73-1.16-1.46s.7-1.31,1.39-1.26,1.22.73,1.16,1.46c-.06.74-.7,1.31-1.39,1.26h0Z"/>
    <path class="st8" d="M32.77,37.16c-.48-.04-.98-.55-.92-1.17.05-.63.63-1.05,1.11-1.01.48.04.97.55.92,1.17-.05.63-.63,1.05-1.11,1.01h0Z"/>
    <path class="st7" d="M32.39,35.62c-.02.23-.26.39-.54.37-.28-.02-.49-.23-.47-.45.02-.23.26-.39.54-.37s.49.22.47.45h0ZM33.93,36.93c-.01.11-.13.2-.27.18-.14-.01-.24-.11-.23-.23.01-.11.13-.2.27-.18.14.01.24.11.23.23"/>
    <path class="st10" d="M40.38,51.21c-.08-.02-.17-.03-.23-.05.08.02.16.03.23.05M40.06,51.15c-.05-.01-.11-.02-.14-.03.05.01.09.02.14.03"/>
    <path class="st1" d="M40.15,51.17s-.06-.01-.09-.02c.03,0,.05.01.09.02M39.92,51.12l-.08-.02s.03.01.08.02"/>
    <path class="st10" d="M40.29,51.05c-.09-.02-.18-.03-.25-.05.08.02.17.03.25.05M39.94,50.99c-.06-.01-.12-.03-.15-.03.05.01.1.02.15.03"/>
    <path class="st9" d="M40.04,51.01s-.07-.01-.1-.02c.03,0,.06.01.1.02M39.79,50.95s-.06-.02-.08-.02.03.01.09.02h0Z"/>
    <path class="st10" d="M40.22,50.82c-.09-.02-.18-.03-.25-.05.08.02.17.03.25.05M39.88,50.75c-.06-.01-.12-.03-.15-.03.05.01.1.02.15.03"/>
    <path class="st9" d="M39.97,50.77s-.07-.01-.1-.02c.03,0,.06.01.1.02M39.72,50.72s-.06-.02-.08-.02.03.01.09.02h0Z"/>
    <path class="st10" d="M40.43,50.78c-.09-.02-.17-.03-.24-.05.08.02.16.03.24.05M40.1,50.72c-.05-.01-.11-.02-.15-.03.05.01.1.02.15.03"/>
    <path class="st9" d="M40.19,50.73s-.06-.01-.09-.02c.03,0,.06.01.09.02M39.95,50.69l-.08-.02s.03.01.08.02h0Z"/>
    <path class="st7" d="M54.44,33.48s-1.41,5.68-3.83,6.15-5.04-.46-5.04-.46c0,0-.25-6.68.99-7.55,1.24-.88,4.1-2.14,7.89,1.86"/>
    <path class="st12" d="M45.56,39.16s.05.02.18.07c.03-2.05.22-4.86,1-5.4,1.15-.83,3.75-1.99,7.22,1.19.32-.88.47-1.55.47-1.55-3.8-4.01-6.66-2.75-7.89-1.87-1.24.87-.99,7.56-.99,7.56"/>
    <path class="st19" d="M47,36.26c0,1.29,1.07,2.34,2.38,2.34s2.38-1.05,2.38-2.34-1.07-2.34-2.38-2.34-2.38,1.05-2.38,2.34"/>
    <path class="st3" d="M49.49,37.82c.69-.06,1.22-.74,1.16-1.49s-.7-1.34-1.39-1.28-1.22.74-1.16,1.48c.06.75.7,1.34,1.39,1.28h0Z"/>
    <path class="st8" d="M49.43,37.55c.48-.04.98-.56.92-1.19-.05-.64-.63-1.07-1.11-1.03-.48.04-.97.56-.92,1.19.05.64.63,1.07,1.11,1.03h0Z"/>
    <path class="st7" d="M49.82,35.98c.02.23.26.4.54.38.28-.02.49-.23.47-.46-.02-.23-.26-.4-.54-.38s-.49.23-.47.46h0ZM48.27,37.31c.01.11.13.2.27.19.14-.01.24-.11.23-.23-.01-.11-.13-.2-.27-.19-.14.01-.24.11-.23.23"/>
    <path d="M38.1,33.59s-.46-.68-1.36-1.36c-.56-.43-1.11-.75-1.69-.99-.7-.29-1.44-.49-2.17-.59-.65-.07-1.38-.05-2.23.06-.65.12-1.28.31-1.82.54-.38.13-.69.31-.93.46-.09.06-.18.11-.26.15l-1.16.72,1.33-.31c.06-.02.13-.03.2-.05.28-.07.62-.16,1.02-.22.09-.02.19-.03.29-.05.17-.03.34-.07.52-.08.2-.02.41-.03.63-.04l.28-.02c.74,0,1.36.05,1.92.17.6.1,1.23.29,1.8.55.54.25,1.06.51,1.46.8.82.54,1.27.98,1.27.98.11.11.26.17.41.17.11,0,.22-.03.32-.09.27-.17.34-.53.17-.78v-.02s-.01,0-.01,0ZM54.68,31.86c-.08-.04-.16-.09-.25-.15-.24-.15-.54-.33-.92-.45-.55-.24-1.18-.43-1.84-.55-.84-.11-1.57-.13-2.23-.06-.72.1-1.47.3-2.17.59-.57.24-1.13.57-1.69.99-.88.66-1.32,1.31-1.36,1.36h0c-.15.24-.12.54.08.73.11.11.25.17.41.17s.3-.06.41-.17h0s.48-.47,1.27-.99c.4-.29.91-.54,1.45-.79.57-.26,1.2-.45,1.81-.56.55-.12,1.17-.18,1.9-.17l.29.02c.21.02.42.03.62.04.18,0,.35.04.52.08.1.02.19.04.29.05.4.06.75.15,1.02.22.07.02.14.04.2.05l1.33.31-1.17-.72h0Z"/>
    <path class="st10" d="M39.98,51.88c-.09-.02-.17-.03-.25-.05.08.02.17.03.25.05M39.64,51.82c-.06-.01-.11-.03-.15-.03l.15.03Z"/>
    <path class="st2" d="M39.73,51.84s-.06-.01-.09-.02c.03,0,.06.01.09.02M39.49,51.79s-.05-.02-.08-.02.03.01.08.02"/>
    <path class="st5" d="M37.61,53.01c-.07-.91,2.59.19,3.47.22.7.02,2.79-.14,2.98-.21,1.46-.54-.08,1.53-3.03,1.64-1.35.05-3.38-1.09-3.42-1.65h0Z"/>
    <path class="st0" d="M46.28,50.42c-.72-.03-1.46.55-2.33.46-.03-.02-.05-.02-.09-.02-.2-.03-.4,0-.62.05-.27.06-.54.16-.8.24-.44.14-.92.24-1.43.21s-.02,0-.03,0h-.03c-.5.03-.99-.07-1.43-.21-.25-.09-.53-.19-.8-.24-.22-.05-.42-.09-.62-.05-.04,0-.05,0-.09.02-.87.09-1.61-.49-2.33-.46-.2.02-.49-.03-.65-.03.03.02.07.03.11.05,2.06.97,3.84,2.78,5.81,2.72h.06c1.97.06,3.75-1.75,5.81-2.72.04-.02.07-.03.11-.05-.16,0-.45.05-.65.03h0Z"/>
    <path class="st16" d="M46.88,50.36s-2.09-.78-3.59-.32c0,0-.55.21-1.13.34-.35.13-.77.17-1.18.15-.31-.01-.61-.05-.85-.09-.08-.01-.16-.03-.25-.04-.03,0-.06-.01-.09-.02l-.15-.03c-.05-.01-.08-.02-.08-.02-.48-.13-.89-.28-.89-.28-1.49-.46-3.59.32-3.59.32-.03.01-.05.02-.05.02.16,0,.45.05.65.03.72-.03,1.46.55,2.33.46.03-.02.05-.02.09-.02.2-.03.4,0,.62.05.27.06.54.16.8.24.44.14.92.24,1.43.21s.02,0,.03,0h.03c.5.03.99-.07,1.43-.21.25-.09.53-.19.8-.24.22-.05.42-.09.62-.05.04,0,.05,0,.09.02.87.09,1.61-.49,2.33-.46.2.02.49-.03.65-.03,0,0-.02,0-.05-.02h0Z"/>
    <path class="st16" d="M37.47,51.68s3.92,1.17,6.97.03l-.35-.23h-4.11l-2.51.21h0Z"/>
    <path class="st7" d="M55.83,14.14c-4.04-4.39-9.99-6.52-9.99-6.52l1.64,1.58c-.99-.77-2.74-1.85-5.68-2.8-4.17-1.35-6.88.16-6.88.16,0,0,2.18-.08,3.25.8-1.06-.47-2.87-.63-5.9.65-5.94,2.51-5.83,7.01-9.97,8.38-4.23,1.41-5.46-.4-5.46-.4,0,0,1.83,3.18,5.09,3.19.53,0,.58-.01.58-.01,0,.01-1.22,3.42-1.46,5.95-.24,2.59.51,4.37.74,9.23.2,4.16,1.27,2.02,2.55,5.08.43,1.02.45,2.18.45,2.18.47.12,1.72-2.49.82-7.03-.58-2.95,2.29-14.12,9.22-11.94.67.21,1.25.46,1.78.71-6.62,6.76-2.51,16.36-2.51,16.36-.13-6.83,4.59-11.75,7.32-14.03-1.63,4-.16,8.19-.16,8.19.33-6.89,7.36-10.66,7.36-10.66l-.54-1.17c1.62-.33,3.24-.2,4.64.6,2.85,1.64,4.46,5.34,3.96,11.23-.64,7.53.55,7.47.55,7.47.35,0-.03-2,1.16-3.39,1.19-1.38,3-6.03,3-10.67s-1.55-8.77-5.59-13.16h0Z"/>
    <path class="st10" d="M40.6,65.51l-9.38,4.72M48.99,67.85h0M48.91,61.76c-.22.12-.43.26-.63.4.2-.14.42-.28.63-.4M33.99,62.15s-.04-.03-.07-.04c.02.01.04.03.07.04"/>
    <path class="st11" d="M34.61,62.57c-.22-.17-.43-.3-.62-.41.18.11.39.25.62.41M33.68,61.97c.08.04.16.09.25.14-.09-.05-.17-.1-.25-.14M48.27,62.16c-.07.05-.14.11-.21.16.07-.05.14-.11.21-.16"/>
    <path class="st15" d="M42.73,66.26v-2.33l-.12.05v2.23s.08.03.12.05h0Z"/>
    <path class="st15" d="M37.5,69.82c0,1.8,1.61,3.27,3.6,3.27.55,0,1.06-.11,1.52-.31,1.22-.52,2.07-1.65,2.07-2.95s-.85-2.43-2.07-2.95c-.46-.2-.98-.31-1.52-.31-1.98,0-3.6,1.47-3.6,3.27"/>
    <g>
      <path class="st15" d="M55.8,65.19c-2.45-2.19-5.03-2.9-6.09-3.11.02.05-.62-.18-.75-.39-.32-.45-.69-.89-1.13-1.35-.19-.2-.41-.37-.66-.51-.25-.14-.54-.31-.56-.33l.07.45c.11.68-.27,1.35-.92,1.64l-3.14,1.38v2.32c1.59.55,2.73,1.93,2.73,3.54s-1.14,2.99-2.73,3.55c-.48.16-1,.26-1.54.26-2.36,0-4.28-1.71-4.28-3.81,0-1.73,1.3-3.19,3.07-3.65v-2.05l-3.22-1.29c-.8-.32-1.19-1.18-.9-1.96l.14-.37s-.08.04-.19.08c-.66.28-1.27.67-1.78,1.16-.71.68-1.44,1.36-1.43,1.33-.82.16-2.57.63-4.45,1.86-3.3,2.15-7.02,6.62-7.02,15.89,0,0,.17.06.48.18h39.2c.3-.11.47-.18.47-.18,0-7.75-2.61-12.15-5.39-14.64h0Z"/>
      <path class="st22" d="M33.63,73.99l-1.25-1.11-1.41,1.25-1.41-1.25-1.25,1.11,1.41,1.25-1.41,1.25,1.25,1.11,1.41-1.26,1.41,1.26,1.25-1.11-1.41-1.25,1.41-1.25ZM40.64,73.99l-1.25-1.11-1.41,1.25-1.41-1.25-1.25,1.11,1.41,1.25-1.41,1.25,1.25,1.11,1.41-1.26,1.41,1.26,1.25-1.11-1.41-1.25,1.41-1.25ZM47.65,73.99l-1.24-1.11-1.41,1.25-1.41-1.25-1.25,1.11,1.41,1.25-1.41,1.25,1.25,1.11,1.41-1.26,1.41,1.26,1.24-1.11-1.41-1.25,1.41-1.25ZM54.66,73.99l-1.24-1.11-1.41,1.25-1.41-1.25-1.24,1.11,1.41,1.25-1.41,1.25,1.24,1.11,1.41-1.26,1.41,1.26,1.24-1.11-1.41-1.25,1.41-1.25Z"/>
    </g>
    <path class="st21" d="M36.87,69.82c0,2.11,1.89,3.83,4.22,3.83.54,0,1.05-.09,1.52-.26v-.62c-.46.2-.98.31-1.52.31-1.98,0-3.6-1.47-3.6-3.27s1.61-3.27,3.6-3.27c.55,0,1.06.11,1.52.31v-.61s.04.02,0,0v-2.33l-.81.36-.69.31-.82-.35-.39-.17v2.06c-1.75.47-3.03,1.94-3.03,3.67h0Z"/>
    <path class="st21" d="M44.69,69.82c0,1.3-.85,2.43-2.07,2.95v.62c1.58-.56,2.69-1.94,2.69-3.57s-1.12-3-2.69-3.56v.61c1.22.52,2.07,1.65,2.07,2.95h0Z"/>
  </g>
</svg>