<?xml version="1.0" encoding="UTF-8"?>
<svg id="Layer_2" xmlns="http://www.w3.org/2000/svg" version="1.1" xmlns:xlink="http://www.w3.org/1999/xlink" viewBox="0 0 80 80">
  <!-- Generator: Adobe Illustrator 30.2.1, SVG Export Plug-In . SVG Version: 2.1.1 Build 1)  -->
  <defs>
    <style>
      .st0 {
        fill: #dac6a4;
      }

      .st1 {
        fill: #b5957e;
      }

      .st2 {
        fill: #b8987d;
      }

      .st3 {
        fill: #714223;
      }

      .st4 {
        fill: #ccad8a;
      }

      .st5 {
        fill: #ecdab6;
      }

      .st6 {
        fill: #873a32;
      }

      .st7 {
        fill: #d7bd9d;
      }

      .st8 {
        fill: #fff;
      }

      .st9 {
        fill: #272213;
      }

      .st10 {
        fill: #b7967d;
      }

      .st11 {
        fill: none;
      }

      .st12 {
        fill: #6b7396;
      }

      .st13 {
        fill: #d2bb9b;
      }

      .st14 {
        fill: #ba9d82;
      }

      .st15 {
        fill: #dcc5a0;
      }

      .st16 {
        fill: #1a1a1a;
      }

      .st17 {
        fill: #4a473e;
      }

      .st18 {
        fill: #c1a587;
      }

      .st19 {
        fill: #44361f;
      }

      .st20 {
        fill: #a98d76;
      }

      .st21 {
        fill: #462e1b;
      }

      .st22 {
        clip-path: url(#clippath);
      }

      .st23 {
        fill: #ebd9b5;
      }

      .st24 {
        fill: #3c3d39;
      }
    </style>
    <clipPath id="clippath">
      <rect class="st11" x="36.68" y="55.41" width="8.99" height="5.31"/>
    </clipPath>
  </defs>
  <g id="Layer_1-2">
    <path class="st6" d="M0,0h80v79.95H0V0Z"/>
    <path class="st15" d="M41.14,49.95v30.04h-16.23c-.27-.11-.4-.16-.4-.16,0-3.84.56-6.83,1.42-9.16,2.07-5.63,5.85-7.42,7.59-7.95.57-.18.92-.22.92-.22.06,0,.12,0,.18-.01.51-.08.92-.53,1.26-1.24.25-.53.45-1.2.62-1.98.07-.3.12-.61.17-.94.08-.55.16-1.14.23-1.74.03-.37.06-.73.1-1.11.14-1.84.19-3.85.19-5.76,0,0,2.18.23,3.95.23h0Z"/>
    <path class="st23" d="M57.83,79.84s-.15.05-.38.16h-16.31v-30.04h.04c1.76,0,3.96-.23,3.96-.23,0,1.89.04,3.88.18,5.71.04.36.08.73.1,1.08.07.64.15,1.23.24,1.78h0c.03.26.08.49.12.73.16.78.35,1.47.59,2.02.29.69.64,1.17,1.08,1.36.14.06.28.09.43.09,0,0,.62.08,1.56.44,1.91.75,5.12,2.71,6.96,7.73.86,2.33,1.42,5.32,1.42,9.16h0Z"/>
    <g class="st22">
      <path class="st14" d="M45.67,58.26h0c-.41.64-1.78,2.46-4.5,2.46h-.03c-2.58-.01-4.08-1.88-4.46-2.43.08-.55.16-1.13.23-1.73.03-.35.06-.72.1-1.1,1.25.31,2.63.51,4.08.54h.05c1.5-.03,2.89-.24,4.19-.58.04.35.08.72.1,1.08.06.63.15,1.22.24,1.77"/>
    </g>
    <path class="st4" d="M40.95,15.72c-17.19,0-17.29,14.39-16.52,23.81-1.17-2.23-4.67-1.55-4.38,1.97.28,3.39,5.28,5.12,5.14,4.75,2.6,6.97,9.5,12.22,15.77,12.22h.13V15.72h-.13Z"/>
    <path class="st20" d="M21.14,40.02c.85-1.37,2.17-.78,2.48-.47.34.33.62.75.41,1.55-.12.46-.59.5-.49,1.18.13.78.49.82.7,1,.2.17.45.3.57.63.13.33.15.67.08.97-.13.55-.94.1-1.48-.13-.36-.17-1.49-1.13-1.78-1.44-.71-.82-1.06-2.39-.49-3.29"/>
    <path class="st7" d="M41.05,15.72c17.19,0,17.29,14.39,16.53,23.81,1.17-2.23,4.66-1.55,4.37,1.97-.27,3.39-5.27,5.12-5.14,4.75-2.54,6.97-9.5,12.22-15.77,12.22h-.09l-.04-42.75h.13"/>
    <path class="st20" d="M60.85,40.02c-.85-1.37-2.15-.78-2.48-.47-.34.33-.61.75-.41,1.55.12.46.59.5.49,1.18-.13.78-.49.82-.69,1-.2.17-.46.3-.58.63-.12.33-.15.67-.08.97.13.55.94.1,1.48-.13.37-.17,1.49-1.13,1.78-1.44.73-.82,1.06-2.39.49-3.29"/>
    <path class="st15" d="M40.82,19.78c-5.65,0-9.8,1.64-12.29,4.88-3.5,4.53-3.37,11.45-2.08,16.42.4,1.52.61,5.61.87,7.11,1.23,6.72,8.64,10.29,13.51,10.29h.13V19.78h-.08"/>
    <path class="st23" d="M53.1,24.67c-2.48-3.22-6.58-4.86-12.15-4.89v38.69c5.57-.06,12.24-3.98,13.38-10.29.28-1.5.48-5.59.87-7.11,1.29-4.96,1.43-11.85-2.1-16.4"/>
    <path class="st11" d="M40.26,50.2c-.08-.01-.15-.03-.21-.04.07.01.14.03.21.04M39.97,51.59c-.05-.01-.1-.02-.13-.03.04.01.09.02.13.03"/>
    <path class="st10" d="M40.05,51.61s-.05-.01-.08-.02c.03,0,.05.01.08.02M39.84,51.56s-.05-.01-.07-.02.03,0,.08.02h0Z"/>
    <path class="st7" d="M37.67,46.86c-.06-1.34,2.45-.49,3.28-.45.66.03,2.65-.42,2.82-.3,1.17.79-1.24,2.39-2.87,2.39-.43,0-3.2-.83-3.24-1.64h0Z"/>
    <path class="st11" d="M25.54,31.83c-.15.51-.26,1.07-.33,1.67,0,0,.23-.94.73-2.34-.21.3-.36.54-.39.67"/>
    <path class="st19" d="M36.15,19.87l-.07.07v.03s.05-.07.07-.1"/>
    <path class="st11" d="M40.31,50.86c-.08-.01-.15-.03-.22-.04.08.01.15.03.22.04M40.01,50.81c-.05-.01-.1-.02-.13-.03.04.01.09.02.13.03"/>
    <path class="st1" d="M40.1,50.83s-.05-.01-.08-.02c.03,0,.05.01.08.02M39.88,50.78l-.08-.02s.03.01.08.02"/>
    <path class="st8" d="M28.62,34.88s1.31,5.39,3.56,5.83,4.69-.44,4.69-.44c0,0,.23-6.33-.92-7.16-1.15-.83-3.81-2.03-7.33,1.77"/>
    <path class="st13" d="M36.87,40.26s-.05.01-.17.06c-.03-1.94-.21-4.61-.93-5.12-1.07-.79-3.49-1.89-6.72,1.13-.29-.83-.44-1.47-.44-1.47,3.53-3.8,6.19-2.61,7.33-1.77,1.15.83.92,7.17.92,7.17h0Z"/>
    <circle class="st21" cx="33.32" cy="37.51" r="2.22"/>
    <path class="st3" d="M33.22,38.99c-.64-.05-1.13-.7-1.07-1.41s.65-1.27,1.29-1.21,1.13.7,1.07,1.41-.65,1.27-1.29,1.22"/>
    <path class="st9" d="M33.27,38.73c-.44-.04-.91-.53-.86-1.13.05-.6.58-1.01,1.03-.98.44.04.91.53.86,1.13s-.58,1.01-1.03.97"/>
    <path class="st8" d="M32.91,37.24c-.02.22-.24.38-.5.36-.26-.02-.45-.22-.43-.43.02-.22.24-.38.5-.36s.45.21.43.43M34.35,38.51c-.01.11-.12.19-.25.18-.13-.01-.23-.11-.22-.22.01-.11.12-.19.25-.18.13.01.23.11.22.22"/>
    <path class="st11" d="M40.35,51.5c-.08-.01-.15-.03-.22-.04.08.01.15.03.22.04M40.05,51.44c-.05-.01-.1-.02-.13-.03.04.01.09.02.13.03"/>
    <path class="st1" d="M40.13,51.46s-.05-.01-.08-.02c.03,0,.05.01.08.02M39.91,51.41l-.08-.02s.03,0,.08.02"/>
    <path class="st11" d="M40.27,51.35c-.09-.01-.16-.03-.23-.04.08.02.16.03.23.04M39.94,51.29c-.05-.01-.11-.03-.14-.03.05.01.09.02.14.03"/>
    <path class="st10" d="M40.03,51.31s-.06-.01-.09-.02c.03,0,.05.01.09.02M39.8,51.25s-.05-.01-.08-.02.03.01.08.02h0Z"/>
    <path class="st11" d="M40.2,51.13c-.09-.01-.16-.03-.23-.04.08.02.16.03.23.04M39.87,51.06c-.05-.01-.11-.03-.14-.03.05.01.09.02.14.03"/>
    <path class="st10" d="M39.96,51.08s-.06-.01-.09-.02c.03,0,.05.01.09.02M39.73,51.03s-.05-.01-.08-.02.03.01.08.02h0Z"/>
    <path class="st11" d="M40.39,51.09c-.08-.01-.16-.03-.23-.04.08.02.15.03.23.04M40.08,51.03c-.05-.01-.1-.02-.14-.03.05.01.09.02.14.03"/>
    <path class="st10" d="M40.17,51.05s-.06-.01-.09-.02c.03,0,.05.01.09.02M39.95,51l-.08-.02s.03.01.08.02h0Z"/>
    <path class="st8" d="M53.42,34.7s-1.31,5.39-3.56,5.83-4.69-.44-4.69-.44c0,0-.23-6.33.92-7.16,1.15-.83,3.81-2.03,7.33,1.77"/>
    <path class="st13" d="M45.16,40.07s.05.01.17.06c.03-1.94.21-4.61.93-5.12,1.07-.79,3.49-1.89,6.72,1.13.29-.83.44-1.47.44-1.47-3.53-3.8-6.19-2.61-7.33-1.77-1.15.83-.92,7.17-.92,7.17h0Z"/>
    <path class="st21" d="M46.5,37.33c0,1.23.99,2.22,2.22,2.22s2.22-.99,2.22-2.22-.99-2.22-2.22-2.22-2.22.99-2.22,2.22"/>
    <path class="st3" d="M48.82,38.8c.64-.05,1.13-.7,1.07-1.41s-.65-1.27-1.29-1.21-1.13.7-1.07,1.41.65,1.27,1.29,1.22"/>
    <path class="st9" d="M48.76,38.55c.44-.04.91-.53.86-1.13-.05-.6-.58-1.01-1.03-.98-.44.04-.91.53-.86,1.13s.58,1.01,1.03.97"/>
    <path class="st8" d="M49.12,37.06c.02.22.24.38.5.36.26-.02.45-.22.43-.43-.02-.22-.24-.38-.5-.36s-.45.21-.43.43M47.68,38.32c.01.11.12.19.25.18.13-.01.23-.11.22-.22-.01-.11-.12-.19-.25-.18-.13.01-.23.11-.22.22"/>
    <path class="st16" d="M38.22,34.79s-.43-.65-1.26-1.29c-.52-.4-1.04-.71-1.57-.94-.65-.27-1.34-.46-2.02-.56-.61-.07-1.29-.05-2.07.06-.6.11-1.19.29-1.69.51-.35.12-.64.29-.86.43-.09.05-.16.1-.24.14l-1.07.68,1.24-.29c.06-.01.12-.03.19-.05.26-.07.58-.15.95-.21.09-.01.18-.03.27-.05.16-.03.32-.06.49-.07.19-.01.38-.03.58-.04l.26-.02c.69,0,1.27.04,1.78.16.56.1,1.14.28,1.67.53.5.24.98.48,1.36.75.76.51,1.18.93,1.18.93.1.1.24.16.38.16.1,0,.2-.03.29-.09.25-.16.32-.5.16-.74v-.02s-.02.01-.02.01ZM53.64,33.15c-.07-.04-.15-.09-.24-.14-.23-.14-.51-.31-.85-.43-.51-.23-1.1-.4-1.71-.52-.78-.1-1.46-.13-2.07-.05-.67.09-1.37.29-2.02.56-.52.23-1.05.54-1.57.94-.82.63-1.23,1.24-1.26,1.29h0c-.14.23-.11.51.07.69.1.1.24.16.38.16s.28-.06.38-.16h0s.45-.44,1.18-.94c.37-.27.85-.51,1.35-.75.53-.25,1.11-.43,1.68-.53.51-.12,1.09-.17,1.77-.16l.27.02c.2.01.39.03.58.04.16,0,.33.04.48.07.09.02.18.04.27.05.38.05.69.14.95.21.07.02.13.04.19.05l1.24.29-1.09-.68h0Z"/>
    <path class="st11" d="M39.97,52.14c-.08-.01-.16-.03-.23-.04.08.02.15.03.23.04M39.65,52.08c-.05-.01-.1-.03-.14-.03l.14.03Z"/>
    <path class="st2" d="M39.74,52.1s-.06-.01-.09-.02c.03,0,.05.01.09.02M39.52,52.05s-.05-.01-.08-.02.03.01.08.02"/>
    <path class="st5" d="M37.77,53.21c-.06-.87,2.41.18,3.22.21.65.02,2.6-.13,2.78-.2,1.36-.51-.08,1.45-2.82,1.55-1.26.05-3.14-1.04-3.18-1.56h0Z"/>
    <path class="st0" d="M45.83,51.54c-.67-.03-1.36.53-2.17.44-.03-.02-.05-.02-.08-.02-.19-.03-.37,0-.57.05-.25.05-.51.15-.74.24-.4.13-.86.24-1.33.2s-.02,0-.03,0h-.03c-.47.03-.92-.07-1.33-.2-.24-.08-.49-.19-.74-.24-.2-.05-.39-.08-.57-.05-.04,0-.05,0-.08.02-.81.09-1.5-.48-2.17-.44-.19.02-.45-.03-.61-.03.03.02.07.03.1.05,1.92.93,3.57,2.69,5.4,2.63h.05c1.83.06,3.48-1.69,5.4-2.63.04-.02.07-.03.1-.05-.15,0-.42.05-.61.03h0Z"/>
    <path class="st18" d="M46.39,51.49s-1.95-.75-3.33-.31c0,0-.52.2-1.05.33-.33.13-.72.16-1.1.15-.29-.01-.57-.05-.8-.09-.08-.01-.15-.03-.23-.04-.03,0-.06-.01-.09-.02l-.14-.03c-.05-.01-.08-.02-.08-.02-.44-.12-.82-.27-.82-.27-1.39-.44-3.33.31-3.33.31-.03.01-.04.02-.04.02.15,0,.42.05.61.03.67-.03,1.36.53,2.17.44.03-.02.05-.02.08-.02.19-.03.37,0,.57.05.25.05.51.15.74.24.4.13.86.24,1.33.2s.02,0,.03,0h.03c.47.03.92-.07,1.33-.2.24-.08.49-.19.74-.24.2-.05.39-.08.57-.05.04,0,.05,0,.08.02.81.09,1.5-.48,2.17-.44.19.02.45-.03.61-.03,0,0-.02,0-.04-.02h0Z"/>
    <path class="st18" d="M37.64,51.94s3.65,1.11,6.48.03l-.33-.22h-3.82l-2.33.2h0Z"/>
    <path class="st12" d="M55.3,77.47c.03,1.06.06,1.91.1,2.53h-27.96c.06-1.03.13-2.69.14-4.87,0-.76,0-1.59,0-2.47h-3.11c.27-1.11.69-2.25,1.11-3.24.57-1.36,1.14-2.42,1.29-2.71.03-.05.04-.08.04-.08,1.67-2.42,3.64-3.7,5.11-4.36.92-.42,1.65-.59,2-.65,1.14,1.77,4.54,6.23,9.22,4.66,1.73-.58,3.63-1.98,5.66-4.65.87.18,3.92.99,6.5,4.25.19.24.37.49.56.76,0,0,.56,1.31,1.08,2.78.42,1.18.82,2.46.88,3.24h-2.63c-.01.89-.02,1.71,0,2.47,0,.87.01,1.64.03,2.34h0Z"/>
    <path class="st17" d="M46.32,49.02s-2.44-2.69-4.1-1.67c-.89.57-1.68.2-1.93.05-.01-.01-.03-.02-.04-.03-.03-.02-.04-.03-.04-.03-1.66-1.02-4.1,1.67-4.1,1.67,0,0-1.7,1.77-3.4,1.21-.29-.09-.49.28-.29.49,1.04,1.07,2.93,2.17,6.08,1.52.7-.15,1.25-.34,1.68-.55.66-.33,1.43-.33,2.08,0,.43.22.97.41,1.68.55,3.15.66,5.04-.45,6.08-1.52.21-.21,0-.59-.29-.49-1.7.56-3.4-1.21-3.4-1.21h0Z"/>
    <path class="st24" d="M45.96,57.72c-2.81.18-3.51-2.11-3.51-2.11-.26-.78-.73-1.03-1.23-1.04s0,0-.01,0h-.01c-.49,0-.97.26-1.23,1.04,0,0-.7,2.28-3.51,2.11,0,0,1.81,2.24,4.74,2.31s0,0,.01,0h.01c2.92-.07,4.74-2.31,4.74-2.31h0Z"/>
    <path class="st16" d="M65.17,19.1c-.06.15-.18.29-.33.43.22-.26.33-.43.33-.43-.36.23-.7.43-1.04.6-6.25,3.33-8-2.52-8-2.52.65-5.51,7.37-5.43,7.37-5.43,0,0-5.71-2.75-7.91,2.65-.29-2.91,1.29-5.73,1.29-5.73-2.55.54-3.62,2.6-4.07,4.36-1.57-3.02.06-5.26.06-5.26l-8.74,3.47c1.14-.9,2.91-2.56,2.91-2.56,0,0-2.71.28-6.9,1.46-2.94.83-4.71,2.31-5.7,2.99l-.03-2.46s-4.28,2.94-8.33,6.8c-4.05,3.85-5.61,7.48-5.61,11.56s1.82,8.16,3.01,9.38c1.19,1.21.81,2.97,1.16,2.97,0,0,.86.03.73-3.99.47-4.57,2.58-6.39,3.75-7.06,2.07-1.09,5.19-1.29,9.86,1.08h0c2.88,1.67,4.04-.55,8.11-1.68,6.95-1.91,9.83,3.11,9.24,5.7-.9,3.99.35,6.28.83,6.18,0,0,.02-1.01.45-1.91,1.28-2.69,2.36-.82,2.56-4.47.23-4.27.98-5.83.74-8.11-.14-1.29-.6-2.82-.97-3.9,4.66-.08,5.2-4.12,5.2-4.12"/>
    <path class="st8" d="M55.27,72.65c-.01.89-.02,1.71,0,2.47h-27.68c0-.76,0-1.59,0-2.47h-3.11c.27-1.11.69-2.25,1.11-3.24h31.44c.42,1.18.82,2.46.88,3.24h-2.63,0Z"/>
  </g>
</svg>