<?xml version="1.0" encoding="UTF-8"?>
<svg id="Layer_2" xmlns="http://www.w3.org/2000/svg" version="1.1" xmlns:xlink="http://www.w3.org/1999/xlink" viewBox="0 0 80 80">
  <!-- Generator: Adobe Illustrator 30.2.1, SVG Export Plug-In . SVG Version: 2.1.1 Build 1)  -->
  <defs>
    <style>
      .st0 {
        fill: #dac6a4;
      }

      .st1 {
        fill: #9dbce2;
        isolation: isolate;
        opacity: .42;
      }

      .st2 {
        fill: #b5957e;
      }

      .st3 {
        fill: #b8987d;
      }

      .st4 {
        fill: #714223;
      }

      .st5 {
        fill: #ccad8a;
      }

      .st6 {
        fill: #ecdab6;
      }

      .st7 {
        fill: #d7bd9d;
      }

      .st8 {
        fill: #fff;
      }

      .st9 {
        fill: #272213;
      }

      .st10 {
        fill: #b7967d;
      }

      .st11 {
        fill: none;
      }

      .st12 {
        fill: #b12717;
      }

      .st13 {
        fill: #403317;
      }

      .st14 {
        fill: #d2bb9b;
      }

      .st15 {
        fill: #ba9d82;
      }

      .st16 {
        fill: #dcc5a0;
      }

      .st17 {
        fill: #c1a587;
      }

      .st18 {
        fill: #44361f;
      }

      .st19 {
        fill: #52839e;
      }

      .st20 {
        fill: #a98d76;
      }

      .st21 {
        fill: #462e1b;
      }

      .st22 {
        fill: #e3ad38;
      }

      .st23 {
        clip-path: url(#clippath);
      }

      .st24 {
        fill: #ebd9b5;
      }
    </style>
    <clipPath id="clippath">
      <rect class="st11" x="36.34" y="53.43" width="9.73" height="5.69"/>
    </clipPath>
  </defs>
  <g id="Layer_1-2">
    <path class="st19" d="M0,0h80v80H0V0Z"/>
    <g>
      <path class="st16" d="M41.17,47.59v32.18h-17.57c-.29-.11-.43-.17-.43-.17,0-4.11.61-7.31,1.54-9.81,2.24-6.03,6.33-7.94,8.21-8.52.62-.19,1-.23,1-.23.07,0,.13,0,.19-.02.55-.09,1-.56,1.36-1.33.27-.56.49-1.28.67-2.12.07-.33.13-.65.19-1.01.09-.6.17-1.22.24-1.87.03-.4.07-.78.11-1.19.16-1.97.2-4.12.2-6.17,0,0,2.36.24,4.27.24h0Z"/>
      <path class="st24" d="M59.25,79.6s-.16.06-.41.17h-17.66v-32.18h.04c1.9,0,4.29-.24,4.29-.24,0,2.02.04,4.15.2,6.12.04.38.09.78.11,1.16.07.68.16,1.32.26,1.91h0c.03.28.09.52.13.78.17.84.38,1.58.64,2.16.31.73.7,1.25,1.17,1.45.15.07.31.1.47.1,0,0,.67.08,1.69.48,2.07.8,5.54,2.91,7.54,8.28.93,2.5,1.54,5.7,1.54,9.81h0Z"/>
      <g class="st23">
        <path class="st15" d="M46.07,56.49v.02c-.44.68-1.93,2.62-4.88,2.62h-.03c-2.79-.02-4.42-2.01-4.83-2.6.09-.59.17-1.21.24-1.86.03-.38.07-.78.11-1.18,1.36.34,2.85.55,4.42.58h.06c1.63-.03,3.13-.25,4.53-.62.04.38.09.78.11,1.15.07.68.16,1.31.26,1.9"/>
      </g>
      <path class="st5" d="M40.97,10.92c-18.62,0-18.72,15.41-17.89,25.5-1.27-2.39-5.06-1.66-4.75,2.11.3,3.63,5.71,5.48,5.56,5.08,2.82,7.46,10.28,13.09,17.07,13.09h.14V10.92h-.14Z"/>
      <path class="st20" d="M19.53,36.95c.92-1.46,2.35-.83,2.69-.51.37.35.67.8.44,1.66-.13.49-.64.53-.53,1.27.14.83.53.87.76,1.07.21.18.48.32.62.68.14.35.16.72.09,1.04-.14.59-1.02.11-1.6-.14-.39-.18-1.62-1.21-1.93-1.55-.77-.87-1.14-2.56-.53-3.52"/>
      <path class="st7" d="M41.07,10.92c18.62,0,18.72,15.41,17.9,25.5,1.27-2.39,5.05-1.66,4.73,2.11-.29,3.63-5.71,5.48-5.56,5.08-2.75,7.46-10.28,13.09-17.07,13.09h-.1l-.04-45.79h.14"/>
      <path class="st20" d="M62.52,36.95c-.92-1.46-2.33-.83-2.69-.51-.37.35-.66.8-.44,1.66.13.49.64.53.53,1.27-.14.83-.53.87-.74,1.07-.21.18-.5.32-.63.68s-.16.72-.09,1.04c.14.59,1.02.11,1.6-.14.4-.18,1.62-1.21,1.93-1.55.79-.87,1.14-2.56.53-3.52"/>
      <path class="st16" d="M40.83,15.27c-6.12,0-10.61,1.76-13.31,5.22-3.79,4.86-3.65,12.26-2.26,17.58.43,1.63.66,6.01.94,7.61,1.33,7.19,9.35,11.02,14.63,11.02h.14V15.27h-.09"/>
      <path class="st24" d="M54.12,20.51c-2.69-3.45-7.12-5.21-13.16-5.24v41.44c6.03-.07,13.25-4.26,14.48-11.02.3-1.61.52-5.98.94-7.61,1.4-5.31,1.54-12.7-2.27-17.57"/>
      <path class="st11" d="M40.22,47.86c-.09-.02-.16-.03-.23-.04.08.02.16.03.23.04M39.9,49.35c-.05-.01-.1-.02-.14-.03.05.01.09.02.14.03"/>
      <path class="st10" d="M39.99,49.36s-.06-.01-.09-.02c.03,0,.05.01.09.02M39.76,49.31s-.05-.02-.08-.02.03,0,.08.02h0Z"/>
      <path class="st7" d="M37.42,43.99c-.07-1.43,2.66-.52,3.55-.48.71.03,2.87-.45,3.06-.33,1.27.85-1.35,2.56-3.1,2.56-.47,0-3.47-.89-3.51-1.76h0Z"/>
      <path class="st11" d="M24.28,28.19c-.17.55-.28,1.15-.36,1.79,0,0,.24-1.01.79-2.5-.23.32-.39.58-.43.71"/>
      <path class="st18" d="M35.77,15.37l-.08.08v.03s.05-.08.08-.1"/>
      <path class="st11" d="M40.28,48.57c-.09-.02-.17-.03-.24-.05.08.02.16.03.24.05M39.95,48.51c-.05-.01-.11-.02-.14-.03.05.01.09.02.14.03"/>
      <path class="st2" d="M40.04,48.53s-.06-.01-.09-.02c.03,0,.05.01.09.02M39.81,48.47l-.08-.02s.03,0,.08.02"/>
      <path class="st8" d="M27.61,31.45s1.42,5.77,3.86,6.24,5.08-.46,5.08-.46c0,0,.25-6.78-1-7.67-1.25-.89-4.12-2.17-7.94,1.89"/>
      <path class="st14" d="M36.55,37.2s-.05.02-.18.07c-.03-2.08-.22-4.94-1-5.49-1.16-.84-3.78-2.02-7.27,1.21-.32-.9-.48-1.57-.48-1.57,3.82-4.08,6.7-2.79,7.94-1.9,1.25.89,1,7.68,1,7.68h0Z"/>
      <ellipse class="st21" cx="32.71" cy="34.27" rx="2.4" ry="2.38"/>
      <path class="st4" d="M32.6,35.85c-.69-.06-1.23-.75-1.16-1.51s.7-1.36,1.4-1.3,1.23.75,1.16,1.51-.7,1.36-1.4,1.3h0Z"/>
      <path class="st9" d="M32.66,35.57c-.48-.04-.98-.56-.93-1.21.05-.65.63-1.08,1.12-1.04.48.04.98.57.93,1.21s-.63,1.08-1.11,1.04h0Z"/>
      <path class="st8" d="M32.27,33.98c-.02.23-.26.4-.54.38-.28-.02-.49-.23-.47-.46s.26-.4.54-.38c.28.02.49.23.47.46h0ZM33.82,35.33c-.01.12-.13.2-.27.19-.14-.01-.24-.12-.24-.23.01-.12.13-.2.27-.19.14.01.24.12.24.23"/>
      <path class="st11" d="M40.31,49.25c-.09-.02-.17-.03-.24-.05.08.02.16.03.24.05M39.99,49.19c-.05-.01-.11-.02-.14-.03.05.01.09.02.14.03"/>
      <path class="st2" d="M40.08,49.21s-.06-.01-.09-.02c.03,0,.05.01.09.02M39.85,49.15l-.08-.02s.03,0,.08.02"/>
      <path class="st11" d="M40.23,49.09c-.09-.02-.18-.03-.25-.05.09.02.17.03.25.05M39.88,49.02c-.06-.01-.12-.03-.16-.03.05.01.1.02.16.03"/>
      <path class="st10" d="M39.97,49.04s-.07-.01-.1-.02c.03,0,.06.01.1.02M39.72,48.99s-.06-.02-.09-.02.03.01.09.02h0Z"/>
      <path class="st11" d="M40.15,48.85c-.09-.02-.18-.03-.25-.05.09.02.17.03.25.05M39.8,48.78c-.06-.01-.12-.03-.16-.03.05.01.1.02.16.03"/>
      <path class="st10" d="M39.9,48.8s-.07-.01-.1-.02c.03,0,.06.01.1.02M39.65,48.74s-.06-.02-.09-.02.03.01.09.02h0Z"/>
      <path class="st11" d="M40.37,48.81c-.09-.02-.17-.03-.24-.05.08.02.16.03.24.05M40.03,48.75c-.05-.01-.11-.02-.15-.03.05.01.1.02.15.03"/>
      <path class="st10" d="M40.12,48.77s-.06-.01-.09-.02c.03,0,.06.01.09.02M39.88,48.71l-.08-.02s.03.01.09.02h0Z"/>
      <path class="st8" d="M54.47,31.25s-1.42,5.77-3.86,6.24-5.08-.46-5.08-.46c0,0-.25-6.78,1-7.67,1.25-.89,4.12-2.17,7.94,1.89"/>
      <path class="st14" d="M45.53,37.01s.05.02.18.07c.03-2.08.22-4.94,1-5.49,1.16-.84,3.78-2.02,7.27,1.21.32-.9.48-1.57.48-1.57-3.82-4.08-6.7-2.79-7.94-1.9-1.25.89-1,7.68-1,7.68h0Z"/>
      <path class="st21" d="M46.97,34.07c0,1.31,1.07,2.38,2.4,2.38s2.4-1.06,2.4-2.38-1.07-2.38-2.4-2.38-2.4,1.06-2.4,2.38"/>
      <path class="st4" d="M49.48,35.65c.69-.06,1.23-.75,1.16-1.51s-.7-1.36-1.4-1.3-1.23.75-1.16,1.51.7,1.36,1.4,1.3h0Z"/>
      <path class="st9" d="M49.42,35.38c.48-.04.98-.56.93-1.21-.05-.65-.63-1.08-1.12-1.04-.48.04-.98.57-.93,1.21s.63,1.08,1.11,1.04h0Z"/>
      <path class="st8" d="M49.82,33.79c.02.23.26.4.54.38.28-.02.49-.23.47-.46s-.26-.4-.54-.38c-.28.02-.49.23-.47.46h0ZM48.26,35.13c.01.12.13.2.27.19.14-.01.24-.12.24-.23-.01-.12-.13-.2-.27-.19-.14.01-.24.12-.24.23"/>
      <path d="M38.01,31.35s-.46-.7-1.37-1.38c-.57-.43-1.12-.76-1.7-1-.7-.29-1.45-.5-2.18-.6-.66-.07-1.39-.05-2.25.06-.65.12-1.29.32-1.83.55-.38.13-.69.32-.93.46-.09.06-.18.11-.26.15l-1.16.73,1.34-.31c.06-.02.13-.03.2-.05.28-.07.62-.17,1.03-.22.09-.02.19-.03.29-.05.17-.03.35-.07.53-.08.2-.01.41-.03.63-.04l.28-.02c.74,0,1.37.05,1.93.17.61.1,1.24.3,1.81.56.54.26,1.06.51,1.47.81.82.54,1.28.99,1.28,1,.11.11.26.17.41.17.11,0,.22-.03.32-.09.27-.18.35-.54.17-.8v-.02s-.02,0-.02,0ZM54.71,29.6c-.08-.04-.16-.09-.26-.15-.24-.15-.55-.33-.92-.46-.55-.24-1.19-.43-1.85-.56-.85-.11-1.58-.13-2.24-.06-.73.1-1.48.3-2.18.6-.57.24-1.14.58-1.7,1-.89.68-1.33,1.33-1.36,1.38h0c-.15.24-.12.55.08.74.11.11.26.17.41.17s.3-.06.41-.17h0s.48-.48,1.28-1c.4-.29.92-.55,1.46-.8.58-.27,1.2-.46,1.82-.56.55-.13,1.18-.18,1.91-.17l.29.02c.21.02.42.03.63.04.18,0,.35.04.52.08.1.02.19.04.29.05.41.06.75.15,1.03.22.07.02.14.04.21.05l1.34.31-1.18-.73h0Z"/>
      <path class="st11" d="M39.91,49.94c-.09-.02-.17-.03-.25-.05.09.02.17.03.25.05M39.57,49.87c-.06-.01-.11-.03-.15-.03l.15.03Z"/>
      <path class="st3" d="M39.66,49.89s-.06-.01-.09-.02c.03,0,.06.01.09.02M39.41,49.84s-.05-.02-.09-.02.03.01.09.02"/>
      <path class="st6" d="M37.53,51.08c-.07-.93,2.61.2,3.49.22.7.02,2.81-.14,3.01-.21,1.47-.55-.08,1.55-3.05,1.66-1.36.05-3.41-1.11-3.44-1.67h0Z"/>
      <path class="st0" d="M46.25,49.29c-.73-.03-1.47.56-2.35.47-.03-.02-.05-.02-.09-.02-.2-.03-.4,0-.62.05-.27.06-.55.17-.8.25-.44.14-.93.25-1.44.22s-.02,0-.03,0h-.03c-.51.03-1-.08-1.44-.22-.26-.09-.53-.2-.8-.25-.22-.05-.42-.09-.62-.05-.04,0-.05,0-.09.02-.88.09-1.62-.51-2.35-.47-.2.02-.49-.03-.66-.03.03.02.07.03.11.05,2.07,1,3.86,2.88,5.84,2.82h.06c1.98.06,3.77-1.82,5.84-2.82.04-.02.07-.03.11-.05-.16,0-.45.05-.66.03h0Z"/>
      <path class="st17" d="M46.86,49.23s-2.11-.8-3.61-.33c0,0-.56.22-1.14.35-.35.13-.78.18-1.19.16-.31-.01-.62-.05-.86-.1-.08-.01-.16-.03-.25-.05-.03,0-.06-.01-.09-.02l-.15-.03c-.05-.01-.09-.02-.09-.02-.48-.13-.89-.29-.89-.29-1.5-.47-3.61.33-3.61.33-.03.01-.05.02-.05.02.16,0,.45.05.66.03.73-.03,1.47.56,2.35.47.03-.02.05-.02.09-.02.2-.03.4,0,.62.05.27.06.55.17.8.25.44.14.93.25,1.44.22s.02,0,.03,0h.03c.51.03,1-.08,1.44-.22.26-.09.53-.2.8-.25.22-.05.42-.09.62-.05.04,0,.05,0,.09.02.88.09,1.62-.51,2.35-.47.2.02.49-.03.66-.03,0,0-.02,0-.05-.02h0Z"/>
      <path class="st17" d="M37.38,49.72s3.95,1.19,7.01.03l-.35-.23h-4.13l-2.52.21h0Z"/>
      <path class="st12" d="M59.24,80H22.96c0-.99.04-1.95.11-2.85.1-1.4.27-2.68.49-3.85.17-.9.38-1.74.62-2.51,1.12-3.69,2.85-6.03,4.55-7.52l7.68,7c2.73,2.49,6.87,2.64,9.79.37l8.3-6.47c1.82,1.86,2.95,4.19,3.66,6.48.28.9.49,1.79.65,2.65.27,1.43.39,2.75.45,3.85.08,1.72-.01,2.85-.01,2.85"/>
      <path class="st11" d="M24.18,70.79l14.49,9.2h-15.7c0-.99.04-1.95.11-2.85.1-1.4.27-2.68.49-3.85.17-.9.38-1.74.62-2.51h0ZM59.24,80h-15.6l14.51-9.35c.28.9.49,1.79.65,2.65.27,1.43.39,2.75.45,3.85.08,1.72-.01,2.85-.01,2.85h0Z"/>
      <path class="st22" d="M56.83,70.32l-7.05,2.56,5.05-6.6c.87,1.27,1.51,2.65,1.99,4.04h0ZM58.16,77.98l-9.42-3.52,8.74-1.84c.08.33.15.66.21.99.27,1.43.39,2.75.45,3.85,0,.18.02.36.02.53h0ZM31.28,73.1l-5.71-2.07c.41-1.32.92-2.47,1.47-3.45l4.24,5.53h0ZM32.32,74.69l-7.97,2.97c.1-1.39.27-2.66.49-3.82.05-.23.1-.46.14-.7l7.33,1.54Z"/>
      <path class="st13" d="M57.84,14.76c-1.88-1.55-4.26-2.11-4.26-2.11,0,0-5.26-2.33-9.27-4s-10.52-.33-13.9.44c-3.38.78-7.4,5.04-8.66,7.37-1.25,2.34-4.36,7.4-5.36,11.06-1,3.66,4.54,6.49,6.17,7.98.57.52.87,3.88.87,3.88l.93.58c.84-1.97,1.17-3.94,2.07-4.96-1.27,4.81,6.38,8.77,6.38,8.77-7.52-7.23,1.88-9.53,1.88-9.53,8.84-2.67,12.02-11.03,12.48-12.36.43,6.91-3.75,12.2-3.75,12.2,5.72-3.53,8.24-6.86,9.03-9.74,1.94,4.63-.02,8.98-.02,8.98,2.38-2.33,3.47-4.33,3.8-6.01.97,1.3,1.65,2.97,1.65,5.22,0,1.56-.79,6.1-.79,6.1l.79-.5s0-1.76,2.25-2.86c1.79-.88,2.25-3.87,2.25-5.11,0-8.27-2.65-13.86-4.53-15.42h0ZM36.34,55.38c.03,1.01.88,1.82,1.9,1.82h5.85c1.04,0,1.9-.84,1.9-1.88-1.28.43-3.01.69-4.92.69-1.81,0-3.48-.24-4.73-.63h0Z"/>
      <path class="st13" d="M41.47,45.9h-.04c-.09,0-.17,0-.26,0h-.23c-.06,0-.15,0-.26,0h-.03c-2.71.13-14.5,1.69-6.8,19.39.21.85.36,1.37.36,1.37h1.12s-4.64-14.34,4.7-17.84c0,0,.38-.15,1.02-.17.64.02,1.05.17,1.05.17,9.32,3.5,4.67,17.84,4.67,17.84h1.14s.16-.51.38-1.37c7.68-17.69-4.09-19.25-6.82-19.39"/>
      <path class="st8" d="M59.99,31.17c-6.8-2.61-11.17-.99-11.17-.99-2.49.75-3.79,1.99-4.46,3.2s-.65-.55-.65-.55c-.18-.15-.41-.23-.65-.23h-3.39c-.24,0-.47.08-.65.23l-.65.55c-.66-1.21-1.97-2.45-4.46-3.2,0,0-4.36-1.62-11.17.99-.2.08-.33.27-.33.48v2.04c0,.12.04.23.11.32.21.27.65,1.11.9,3.43,0,0,.97,5.72,7.66,6.34,0,0,6.15.58,7.88-6.96,0,0,.26-1.21-.24-2.65l.47-.6c.17-.22.44-.35.72-.35h2.9c.28,0,.55.13.72.35l.47.6c-.51,1.44-.24,2.65-.24,2.65,1.73,7.55,7.88,6.96,7.88,6.96,6.7-.63,7.66-6.34,7.66-6.34.25-2.31.69-3.15.9-3.43.07-.09.11-.2.11-.32v-2.04c0-.21-.13-.41-.33-.48h0ZM37.53,37.69s-.8,5.13-6.44,5.26c0,0-5.98,0-6.61-6.93,0,0,.21-5.72,6.61-5.09,0,0,7.54.92,6.44,6.76h0ZM51.64,42.94c-5.64-.13-6.44-5.26-6.44-5.26-1.09-5.84,6.44-6.76,6.44-6.76,6.4-.63,6.61,5.09,6.61,5.09-.63,6.93-6.61,6.93-6.61,6.93h0Z"/>
      <path class="st1" d="M31.09,30.93c-6.4-.63-6.61,5.09-6.61,5.09.07.7.18,1.32.34,1.88,1.43,5.04,6.27,5.04,6.27,5.04,5.64-.13,6.44-5.26,6.44-5.26.02-.08.03-.17.04-.25.84-5.62-6.48-6.51-6.48-6.51h0ZM51.64,30.93s-7.33.89-6.48,6.51c.01.08.03.16.04.25,0,0,.8,5.13,6.44,5.26,0,0,4.84,0,6.27-5.04.16-.56.28-1.19.34-1.88,0,0-.21-5.72-6.61-5.09h0Z"/>
    </g>
  </g>
</svg>