<?xml version="1.0" encoding="UTF-8"?>
<svg id="Layer_2" xmlns="http://www.w3.org/2000/svg" version="1.1" xmlns:xlink="http://www.w3.org/1999/xlink" viewBox="0 0 80 80">
  <!-- Generator: Adobe Illustrator 30.2.1, SVG Export Plug-In . SVG Version: 2.1.1 Build 1)  -->
  <defs>
    <style>
      .st0 {
        fill: #212625;
      }

      .st1 {
        fill: #f1d4c8;
      }

      .st2 {
        fill: #1e1f1a;
        opacity: .4;
      }

      .st2, .st3, .st4, .st5 {
        isolation: isolate;
      }

      .st6 {
        fill: #232118;
      }

      .st7 {
        fill: #fff;
      }

      .st8 {
        fill: url(#linear-gradient1);
      }

      .st9 {
        fill: #885052;
      }

      .st10 {
        fill: none;
      }

      .st11 {
        fill: #b59376;
      }

      .st12 {
        fill: #c6a095;
      }

      .st13 {
        fill: #f2f3f2;
      }

      .st14 {
        fill: #71909e;
      }

      .st3 {
        fill: #502c24;
        opacity: .2;
      }

      .st15 {
        fill: #debaad;
      }

      .st16 {
        fill: #f0d4c7;
      }

      .st17 {
        fill: #dcb9ac;
      }

      .st4 {
        fill: #48443b;
        opacity: .3;
      }

      .st18 {
        fill: #34525c;
      }

      .st19 {
        fill: #4f6771;
      }

      .st20 {
        fill: url(#linear-gradient);
      }

      .st5 {
        fill: #ededeb;
        opacity: .55;
      }
    </style>
    <linearGradient id="linear-gradient" x1="27.71" y1="103.76" x2="27.71" y2="100.13" gradientTransform="translate(-2.41 136.55) rotate(4.72) scale(1 -1)" gradientUnits="userSpaceOnUse">
      <stop offset="0" stop-color="#29383e"/>
      <stop offset=".12" stop-color="#3d5059"/>
      <stop offset=".29" stop-color="#586f7d"/>
      <stop offset=".47" stop-color="#6d8799"/>
      <stop offset=".65" stop-color="#7c99ad"/>
      <stop offset=".82" stop-color="#85a3b9"/>
      <stop offset="1" stop-color="#89a7be"/>
    </linearGradient>
    <linearGradient id="linear-gradient1" x1="-1461.29" y1="-19.18" x2="-1461.29" y2="-22.77" gradientTransform="translate(-1407.88 136.55) rotate(175.28)" gradientUnits="userSpaceOnUse">
      <stop offset="0" stop-color="#29383e"/>
      <stop offset=".12" stop-color="#3d5059"/>
      <stop offset=".29" stop-color="#586f7d"/>
      <stop offset=".47" stop-color="#6d8799"/>
      <stop offset=".65" stop-color="#7c99ad"/>
      <stop offset=".82" stop-color="#85a3b9"/>
      <stop offset="1" stop-color="#89a7be"/>
    </linearGradient>
  </defs>
  <g id="Layer_1-2">
    <path class="st9" d="M0,0h80v79.96H0V0Z"/>
    <path class="st1" d="M54.01,38.98c.02-2.26,1.44-4.24,3.57-5.37-.04.56-.08,1.12-.13,1.65,1.34-2.47,5.21-1.67,4.87,2.25-.34,3.77-5.85,5.69-5.77,5.24-.06.3-.12.6-.2.88-1.45-1.19-2.35-2.84-2.33-4.66h0Z"/>
    <path class="st15" d="M61.1,35.83c-.93-1.52-2.4-.88-2.77-.55-.39.35-.69.83-.46,1.73.12.51.66.55.52,1.32-.15.86-.55.91-.77,1.1s-.51.33-.66.71c-.14.36-.16.75-.09,1.07.14.62,1.05.14,1.65-.13.4-.18,1.67-1.24,2-1.59.81-.9,1.2-2.65.58-3.66"/>
    <path class="st1" d="M29.57,38.98c-.02-2.26-1.44-4.24-3.57-5.37.04.56.08,1.12.13,1.65-1.34-2.47-5.21-1.67-4.87,2.25.34,3.77,5.85,5.69,5.77,5.24.06.3.12.6.2.88,1.45-1.19,2.35-2.84,2.33-4.66h0Z"/>
    <path class="st15" d="M22.47,35.83c.93-1.52,2.4-.88,2.77-.55.39.35.69.83.46,1.73-.12.51-.66.55-.52,1.32.15.86.55.91.77,1.1s.51.33.66.71c.14.36.16.75.09,1.07-.14.62-1.05.14-1.65-.13-.4-.18-1.67-1.24-2-1.59-.81-.9-1.2-2.65-.58-3.66"/>
    <path class="st16" d="M67.78,79.96H16.06c0-.19.01-.39.01-.57,0,0,.11-6.24.41-6.79.55-2.18-.43-3.17,3.41-5.27.05-.01.89-.24,2.14-.61,2.62-.75,7.05-2.05,9.35-2.95h.03c.52-.23.94-.42,1.19-.57,0-.01.01-.01.01-.01.06-.04.1-.06.13-.1.01-.01.06-.05.09-.09s.08-.07.1-.1c.08-.36,1.14-1.92,1.53-3.63.01-.03.03-.04.04-.06.09-.35.13-.69.15-1.03.01-.56.04-1.12.04-1.61.01-.28.02-.55.02-.79,0-.1,0-.2.01-.29,0-.1.01-.19.01-.28v-.08c.01-.23.01-.43.01-.57.01-.15.01-.24.01-.24,0,0-5.91-4.41-5.91-5.36,0,0,6.19.94,10.19,1.39.08.01.15.01.23.03.27.03.52.06.75.09.01,0,.05,0,.13.01.35.03.66.05.94.08.18.01.34.03.49.03.11.03.22.03.33.01.06,0,.13.01.19,0,.15-.01.34-.01.56-.03,0-.01.02-.01.04-.01.47-.03,1.04-.09,1.69-.16.05,0,.1-.01.15-.01h.01c4-.43,10.4-1.41,10.4-1.41,0,.95-5.89,5.36-5.89,5.36,0,0,0,.09.01.24,0,.08,0,.17.01.27-.01.03-.01.04,0,.06v.27c0,.18.01.39.01.61.03.67.05,1.51.08,2.39.01.18.01.34.04.52.02.16.06.33.1.52,0,.01.01.01.01.01,0,.01,0,.03.01.03.38,1.73,1.46,3.3,1.55,3.67.01.01.01.02.01.04.03.03.05.04.08.07.03.04.08.08.08.09.09.07.22.15.4.24.06.02.1.05.17.08h.01c1.88.89,7.14,2.44,10.14,3.31,1.26.36,2.08.6,2.13.61,3.85,2.1,2.86,3.09,3.41,5.27.29.55.4,6.79.4,6.79,0,.18,0,.38.01.57l.05-.04Z"/>
    <path class="st12" d="M49.37,59.19c-.09-.34-.13-.69-.15-1.03-.04-1.17.16-2.73.15-3.45-2.22.87-4.75,1.81-6.98,1.81-.13.02-.3.02-.46.02s-.32,0-.46-.02c-2.23,0-4.52-.51-6.74-1.38-.01.73-.04,1.83-.08,3.01-.02.34-.06.69-.15,1.03,2.15,1.56,5.05,3.18,6.98,3.18.12.02.27.02.41.02h.1c.14,0,.28,0,.41-.03,1.93,0,4.83-1.62,6.98-3.18h0Z"/>
    <path class="st16" d="M59.92,27.96c-.01.13-.01.27-.02.43-.03.15-.04.32-.05.5-.02.22-.04.44-.08.65-.01.1-.03.22-.04.32-.04.25-.09.49-.13.75-.01.1-.04.2-.05.31-.05.22-.09.44-.15.66-.02.13-.06.27-.09.44-.04.11-.06.25-.1.38-.16.61-1.56,7.85-2.58,12.55-.42,1.96-.76,3.48-.93,3.9-.94,2.38-7.12,6.77-11.1,8.64-.01.01-.04.01-.05.02-1.13.55-2.08.85-2.67.85h-.08c-.64-.01-1.55-.29-2.62-.78-.05-.04-.11-.06-.18-.09-4.09-1.83-10.19-6.26-11.15-8.66-.18-.46-.56-2.19-.98-4.37-.93-4.7-2.15-11.51-2.31-12.08-.04-.11-.06-.25-.1-.38-.02-.17-.06-.31-.09-.44-.06-.22-.1-.45-.15-.66-.01-.1-.04-.2-.05-.31-.04-.26-.09-.5-.13-.75-.01-.1-.02-.22-.04-.32-.04-.2-.05-.43-.08-.65-.01-.17-.02-.33-.05-.5-.01-.15-.01-.29-.03-.43-.17-3.4.56-6.84,2.77-9.94,2.68-3.76,5.76-7.74,12.44-8.29l5.64,2.92c6.69.55,9.77,1.61,12.44,5.37,2.21,3.11,2.94,6.56,2.77,9.94l.03.02Z"/>
    <path class="st17" d="M38.95,46.53c-.06-1.22,2.22-.45,2.98-.41.6.03,2.4-.39,2.57-.27,1.06.72-1.13,2.17-2.6,2.17-.4,0-2.9-.75-2.94-1.49h-.01Z"/>
    <path class="st6" d="M38.14,34.71s-.48-.59-1.24-1.23c-.38-.32-.82-.65-1.32-.91-.24-.14-.51-.25-.76-.35-.26-.13-.54-.17-.8-.24-.27-.08-.55-.08-.81-.13h-.8c-.26.04-.51.07-.75.1s-.47.12-.67.16c-.43.08-.77.25-1.01.32-.25.08-.4.12-.4.12l.34-.34c.22-.2.54-.55.96-.77.21-.12.44-.29.68-.39.25-.09.52-.2.79-.27.27-.03.57-.1.86-.11.29.03.6.03.89.1.29.09.6.15.88.31.29.11.56.3.82.49.26.16.5.42.72.62.21.23.43.46.59.7.71.93,1.01,1.8,1.01,1.8v.02Z"/>
    <path class="st7" d="M29.21,35.98s1.4,2.79,3.54,3.07c2.14.28,4.42-.09,4.42-.09,0,0,.03-3.22-1.09-3.68s-3.66-1.15-6.88.7"/>
    <path class="st20" d="M35.35,36.9c-.09.98-.93,1.72-1.88,1.65s-1.64-.92-1.55-1.9c.09-.98.93-1.72,1.88-1.65s1.64.92,1.55,1.91h0Z"/>
    <path class="st19" d="M33.54,37.99c-.51-.04-.88-.57-.83-1.16s.53-1.05,1.03-1.01.88.57.83,1.16-.53,1.05-1.03,1.01"/>
    <path class="st0" d="M33.59,37.78c-.35-.03-.71-.43-.67-.92.05-.5.48-.84.82-.81.35.03.71.43.67.92-.05.5-.48.84-.82.81"/>
    <path class="st4" d="M37.18,38.95s-.05,0-.15.02c-.08-.99-.33-2.35-1.03-2.64-1.03-.43-3.36-1.06-6.32.39-.3-.44-.46-.76-.46-.76,3.23-1.84,5.77-1.16,6.88-.7,1.12.46,1.09,3.68,1.09,3.68h0Z"/>
    <path class="st10" d="M29.21,35.98s1.4,2.79,3.54,3.07c2.14.28,4.42-.09,4.42-.09,0,0,.03-3.22-1.09-3.68s-3.66-1.15-6.89.7h.01Z"/>
    <path class="st17" d="M29,36.03c.55-.4,1.16-.7,1.78-.94.31-.11.64-.23.97-.3.16-.05.33-.07.5-.11s.33-.06.51-.08c.33-.05.68-.06,1.02-.07.17,0,.34.02.51.02.17,0,.34.02.51.05.33.04.67.11,1,.21.33.08.64.23.95.35h.02v.02c.32.35.64.72.87,1.13-.3-.35-.66-.67-1-.98l.03.02c-.32-.09-.63-.21-.95-.26-.32-.07-.64-.13-.97-.16-.32-.05-.65-.04-.98-.05-.32.02-.66.01-.98.06-.65.07-1.3.2-1.94.39-.63.19-1.26.43-1.87.71h.02Z"/>
    <path class="st7" d="M33.33,36.55c-.02.18-.19.31-.4.29-.2-.01-.35-.17-.33-.35s.19-.31.4-.29c.2.01.35.17.33.35M34.44,37.58c0,.09-.09.15-.19.15s-.17-.09-.17-.17c0-.09.1-.15.2-.15s.17.08.17.17h-.01Z"/>
    <path class="st6" d="M45.44,34.77s.3-.87,1.02-1.79c.17-.24.38-.46.6-.69.22-.2.46-.46.72-.62.26-.18.53-.36.82-.49.28-.15.58-.21.88-.3.29-.07.6-.06.89-.09.29,0,.59.07.86.11.27.07.54.18.79.27s.48.25.68.38c.43.22.74.57.96.76.22.21.34.34.34.34,0,0-.14-.04-.4-.12-.25-.07-.59-.24-1.01-.31-.21-.04-.44-.13-.67-.16s-.49-.07-.75-.1h-.79c-.26.04-.55.05-.81.12-.27.07-.55.11-.8.24-.26.1-.52.2-.77.34-.5.26-.94.58-1.32.9-.76.63-1.24,1.21-1.24,1.21h-.02Z"/>
    <path class="st7" d="M54.39,36.15s-1.36,2.73-3.49,2.98c-2.14.25-4.42-.15-4.42-.15,0,0-.08-3.18,1.02-3.62s3.64-1.07,6.9.79h-.01Z"/>
    <path class="st10" d="M54.39,36.15s-1.36,2.73-3.49,2.98c-2.14.25-4.42-.15-4.42-.15,0,0-.08-3.18,1.02-3.62s3.64-1.07,6.9.79h-.01Z"/>
    <path class="st8" d="M48.43,36.87c.09.97.93,1.69,1.88,1.63.94-.07,1.64-.91,1.55-1.88-.09-.97-.93-1.7-1.88-1.63s-1.64.91-1.55,1.88"/>
    <path class="st19" d="M50.24,37.94c.51-.03.88-.56.83-1.14s-.53-1.03-1.03-1-.88.56-.83,1.14.53,1.04,1.03,1"/>
    <path class="st0" d="M50.2,37.73c.35-.03.71-.42.67-.91-.05-.49-.48-.83-.82-.8-.35.02-.71.42-.67.91.05.49.48.83.82.8"/>
    <path class="st4" d="M46.47,38.97s.05,0,.15.03c.07-.98.29-2.32.98-2.58,1.02-.41,3.34-1,6.33.48.29-.43.45-.74.45-.74-3.26-1.87-5.79-1.23-6.9-.8-1.11.44-1.02,3.62-1.02,3.62h.01Z"/>
    <path class="st17" d="M54.38,36.24c-.61-.28-1.23-.52-1.87-.7s-1.29-.3-1.94-.38c-.32-.04-.65-.04-.98-.06-.32.01-.66,0-.98.05-.32.02-.65.09-.97.16-.32.05-.63.17-.95.26l.03-.02c-.34.31-.7.62-1,.96.24-.41.55-.76.86-1.12h.01l.02-.02c.31-.11.63-.26.95-.34.32-.1.66-.17,1-.21.17-.03.33-.05.51-.05s.34-.02.51-.02c.34,0,.68.02,1.02.07.17.02.33.04.51.08.16.04.33.06.5.11.33.08.65.19.97.3.63.23,1.25.54,1.8.93v-.02Z"/>
    <path class="st7" d="M49.85,36.53c-.02.17-.19.3-.4.29-.2-.02-.35-.17-.33-.34s.19-.3.4-.29c.2.02.35.17.33.34M50.97,37.54c0,.09-.1.15-.2.14s-.17-.08-.17-.17c0-.08.1-.15.2-.14.1,0,.17.08.17.17"/>
    <path class="st17" d="M45.83,52.34c-.57-.03-1.15-.15-1.84-.22-.03-.01-.04-.01-.07-.01-.15-.03-.31,0-.49.04-.21.04-.43.13-.63.2-.34.11-.73.2-1.13.17s-.01,0-.02,0h-.02c-.4.03-.78-.06-1.13-.17-.2-.07-.42-.15-.63-.2-.17-.04-.32-.07-.49-.04-.03,0-.04,0-.07.01-.68.07-1.27.2-1.84.22-.15.01-.39-.03-.51-.03.03.01.06.03.08.04,1.62.79,3.01,1.66,4.56,1.62h.04c1.54.05,2.94-.83,4.56-1.62.03-.01.06-.03.08-.04-.13,0-.35.04-.52.03h.03Z"/>
    <path class="st10" d="M41,51.75c-.07-.01-.13-.02-.19-.04.06.01.13.03.19.04M40.73,51.7s-.09-.02-.12-.03c.04,0,.08.02.12.03"/>
    <path class="st3" d="M46.3,52.29s-1.64-1.24-2.82-.86c0,0-.44.17-.88.27-.27.11-.61.14-.93.12-.24,0-.48-.04-.67-.07-.06,0-.13-.02-.19-.04-.03,0-.05-.01-.07-.02-.04,0-.08-.02-.12-.03s-.07-.02-.07-.02c-.38-.1-.7-.22-.7-.22-1.17-.38-2.82.86-2.82.86l-.04.02c.13,0,.35.04.51.03.57-.03,1.15-.15,1.84-.22.03-.01.04-.01.07-.01.15-.03.31,0,.49.04.21.04.43.13.63.2.34.11.73.2,1.13.17s.01,0,.02,0h.02c.4.03.78-.06,1.13-.17.2-.07.42-.15.63-.2.17-.04.32-.07.49-.04.03,0,.04,0,.07.01.68.07,1.27.2,1.84.22.15.01.39-.03.52-.03,0,0-.01,0-.04-.02h0Z"/>
    <path class="st11" d="M40.81,51.72s-.05,0-.07-.02c.02,0,.04,0,.07.02M40.62,51.67s-.04-.01-.06-.02.02,0,.07.02h-.01Z"/>
    <path class="st10" d="M41.94,71.64c2.8,0,5.3-1.26,7.02-3.25h-14.05c1.72,1.99,4.23,3.25,7.02,3.25h.01Z"/>
    <path class="st14" d="M16.09,79.4c0,.18-.01.38-.01.56h51.71c-.01-.18-.01-.38-.01-.56,0,0-.01-.66-.04-1.57H16.13c-.03.91-.04,1.57-.04,1.57"/>
    <path class="st18" d="M67.58,74.23c-.06-.83-.12-1.47-.21-1.63-.07-.28-.11-.54-.15-.79H16.63c-.03.24-.08.51-.15.79-.08.16-.15.81-.2,1.63-.07,1.09-.12,2.52-.15,3.6h51.61c-.03-1.07-.08-2.49-.15-3.6h-.01Z"/>
    <path class="st14" d="M65.63,68.38c-.07-.06-.15-.11-.23-.17-.39-.27-.85-.57-1.43-.88-.05,0-.88-.23-2.13-.61-1.08-.31-2.44-.71-3.84-1.13-.9-.28-1.83-.57-2.69-.85-1.51-.5-2.83-.94-3.61-1.32h-.01c-.06-.03-.1-.05-.17-.08-.1-.05-.17-.1-.24-.14-.23,1.91-1.01,3.63-2.16,5.02-.05.06-.09.12-.14.17-1.72,1.99-4.22,3.25-7.02,3.25s-5.3-1.26-7.02-3.25c-.05-.06-.09-.11-.14-.17-1.16-1.4-1.94-3.12-2.16-5.04,0,0-.01,0-.01.03-.24.15-.67.32-1.19.56h-.03c-.74.29-1.68.62-2.73.97-.86.27-1.78.56-2.69.83-1.45.44-2.85.85-3.94,1.16-1.24.38-2.08.61-2.14.61-.58.31-1.04.61-1.42.88-.08.06-.16.11-.23.17-1.57,1.23-1.42,2.12-1.6,3.43h50.59c-.17-1.31-.01-2.2-1.59-3.43h-.02Z"/>
    <path class="st6" d="M38.95,5.59c.02-.15.04-.24.04-.24,0,0-.02.09-.04.24M63.55,15.75s-4.44-1.22-5.79,2.43c-.53-.64-1.13-1.28-1.78-1.93-3.94-3.85-6.36-5.72-6.36-5.72l-.7,2.31s-1.43-1.88-6.59-3.38c-3.38-.98-3.45-3.16-3.38-3.88-.12.83-.48,2.69.04,3.84-.98-.47-2.79.25-5.95,1.46-3.03,1.16-4.44,2.78-5.69,4.25-1.28.07-2.76.03-4.44-.2,0,0,.77,1.58,3.19,1.6-.74.74-1.57,1.35-2.79,1.71-4.12,1.24-5.31-.35-5.31-.35,0,0,1.78,2.79,4.97,2.8.52,0,.57,0,.57-.01,0,0-1.19,2.99-1.42,5.22-.23,2.27.5,9.43.72,13.68.17,3.32,1.06,2.06,2.16,3.85-.56,1.18-.86,2.42-.86,3.73,0,1.83.6,3.57,1.67,5.12h-.17c-.01.33-.1.81-.27,1.64-.47,2.28-1.84,2.88-1.84,2.88,0,0,2.13-.87,2.65-1.46.24-.28.9-1.07,1.11-1.32l.02.02c-.12.26-.4,1.12,0,2.75.05.21.12.42.2.61,0,0,.45,1.27,1.46,2.63.88,1.18,1.22,2.42,3.02,3,1.81.58.76,6.09,9.73,7.46.15.02.27.04.42.06.05,0,.09,0,.14-.01-.18-.03-.29-.04-.29-.04,0,0,8.82-.16,9.97-7.63,1.58-.63,1.78-1.75,2.59-2.84,1.01-1.37,1.47-2.63,1.47-2.63.08-.19.15-.4.2-.61.4-1.63.11-2.48,0-2.75l.02-.02c.2.24.86,1.03,1.11,1.32.52.59,2.65,1.46,2.65,1.46,0,0-1.38-.6-1.85-2.88-.17-.83-.25-1.31-.27-1.64h-.17c1.08-1.55,1.67-3.29,1.67-5.12,0-1.46-.39-2.86-1.09-4.16.06-.09.14-.17.21-.25,1.16-1.21,2.92-10.89,2.92-14.95,0-1.71-.27-3.35-.87-4.96s-.83-7.27,3-7.09l.02-.02ZM47.32,53.69c-.48,1.89-2.4,1.52-3.08,1.33-.07-.03-.15-.05-.23-.07-.59-.17-1.34-.27-2.17-.27h-.16c-.82,0-1.58.1-2.17.27-.08.02-.16.05-.23.07-.68.19-2.61.57-3.08-1.33,0-.07-.01-.15-.02-.23.02-.56.5-2.08,4.95-2.39.28-.02.51-.03.65-.04.14,0,.37.02.65.04,4.45.31,4.93,1.83,4.95,2.39,0,.08-.01.15-.02.23h-.02ZM53.82,50.64c-1.36,1.34-2.96,1-4.06.58.69-.24,1.4-.59,1.67-1.28.1-.24.48-2.25-.3-1.01-.28.45-.2.99-1.82,1.16s-.03,0-.07,0c-.16.01-.32.02-.51.02,0,0-.22,0-.51-.04-1.52-.12-3.1-3.21-6.49-3.21s-4.97,3.09-6.49,3.21c-.28.04-.51.04-.51.04-.18,0-.35,0-.51-.02h-.07c-1.61-.17-1.53-.71-1.82-1.16-.78-1.24-.41.77-.3,1.01.27.68.99,1.02,1.67,1.28-1.09.44-2.7.77-4.06-.58-1.99-1.97-2.68-4.95-2.73-7.95.06-.63.1-1.35.11-2.17.03-2.64,1.73-18.71,8.49-16.81,4.13,1.17,5.17,3.55,8.26,1.43,2.66-1.82,6.39-2.87,9.17-1.43s3.14,11.63,3.49,16.81c.04.56.07,1.05.11,1.51v.3c0,3.12-.66,6.26-2.74,8.31h0Z"/>
    <path class="st2" d="M38.63,40.67c.15-.52.23-1.05.23-1.62,0-3.18-2.59-5.76-5.77-5.76s-5.77,2.57-5.77,5.76c0,.71.13,1.38.37,2.01,2.63-1.17,6.74-2.25,10.94-.39M55.5,41.91c.49-.84.77-1.82.77-2.87,0-3.18-2.59-5.76-5.77-5.76s-5.77,2.57-5.77,5.76c0,1.12.32,2.15.87,3.03,2.6-1.33,6.16-2.19,9.91-.16h-.01ZM39.53,41.12c-.02.06-.04.11-.06.17l.09-.15s-.02-.01-.03-.02"/>
    <path class="st5" d="M39.53,41.12c-.02.06-.04.11-.06.17l.09-.15s-.02-.01-.03-.02"/>
    <path class="st2" d="M33.09,44.8c2.63,0,4.84-1.74,5.54-4.14-4.2-1.87-8.32-.79-10.94.39.82,2.19,2.93,3.75,5.41,3.75"/>
    <path class="st5" d="M33.09,44.8c2.63,0,4.84-1.74,5.54-4.14-4.2-1.87-8.32-.79-10.94.39.82,2.19,2.93,3.75,5.41,3.75"/>
    <path class="st2" d="M44.62,42.61c.09.13.18.24.28.35-.09-.12-.17-.24-.25-.38,0,0-.02.01-.03.01h0Z"/>
    <path class="st5" d="M44.62,42.61c.09.13.18.24.28.35-.09-.12-.17-.24-.25-.38,0,0-.02.01-.03.01h0Z"/>
    <path class="st2" d="M50.5,44.8c2.14,0,4.01-1.17,5-2.89-3.75-2.03-7.31-1.17-9.91.16,1.01,1.63,2.83,2.73,4.91,2.73"/>
    <path class="st5" d="M50.5,44.8c2.14,0,4.01-1.17,5-2.89-3.75-2.03-7.31-1.17-9.91.16,1.01,1.63,2.83,2.73,4.91,2.73"/>
    <path class="st13" d="M57.07,37.43h-.08c-.41-1.64-1.41-3.04-2.76-3.96-1.09-.74-2.39-1.18-3.81-1.18s-2.61.4-3.65,1.07c-1.82,1.17-3.03,3.17-3.11,5.46-.21-.1-.45-.17-.69-.23-.67-.17-1.43-.19-2.17-.07-.31.05-.63.13-.93.24-.12-2.94-2.12-5.39-4.83-6.2-.62-.18-1.27-.28-1.94-.28-.76,0-1.49.13-2.18.36-2.17.74-3.84,2.54-4.39,4.78h-.09c-.33,0-.62.27-.62.61v1.8c0,.33.27.61.62.61h.05c.01.06.03.12.04.18.51,2.13,2.02,3.86,4.01,4.67.79.32,1.65.51,2.57.51,1.81,0,3.44-.71,4.66-1.86.77-.73,1.37-1.64,1.73-2.67.02-.06.04-.11.06-.17.16-.51.27-1.03.31-1.59.28-.12.59-.21.89-.27.77-.16,1.57-.13,2.24.08.24.08.49.18.69.31.09,1.07.45,2.08.98,2.95.08.13.16.25.25.38,1.23,1.71,3.24,2.84,5.51,2.84.65,0,1.27-.09,1.86-.26,1.63-.47,3.02-1.53,3.89-2.95.41-.65.7-1.38.86-2.15h.04c.33,0,.61-.27.61-.61v-1.8c0-.33-.27-.61-.61-.61h-.01ZM38.63,40.67c-.7,2.39-2.91,4.14-5.54,4.14-2.48,0-4.59-1.56-5.41-3.75-.23-.63-.37-1.3-.37-2.01,0-3.18,2.59-5.76,5.77-5.76s5.77,2.57,5.77,5.76c0,.57-.08,1.1-.23,1.62M55.5,41.91c-.99,1.72-2.86,2.89-5,2.89s-3.88-1.09-4.91-2.73c-.55-.88-.87-1.92-.87-3.03,0-3.18,2.59-5.76,5.77-5.76s5.77,2.57,5.77,5.76c0,1.04-.28,2.02-.77,2.87h.01Z"/>
  </g>
</svg>