<?xml version="1.0" encoding="UTF-8"?>
<svg id="Layer_2" xmlns="http://www.w3.org/2000/svg" version="1.1" xmlns:xlink="http://www.w3.org/1999/xlink" viewBox="0 0 80 80">
  <!-- Generator: Adobe Illustrator 30.2.1, SVG Export Plug-In . SVG Version: 2.1.1 Build 1)  -->
  <defs>
    <style>
      .st0 {
        fill: #dac6a4;
      }

      .st1 {
        fill: #b48eba;
      }

      .st2 {
        fill: #b5957e;
      }

      .st3 {
        fill: #3d3534;
      }

      .st4 {
        fill: #b8987d;
      }

      .st5 {
        fill: #714223;
      }

      .st6 {
        fill: #ccad8a;
      }

      .st7 {
        fill: #ecdab6;
      }

      .st8 {
        fill: #d7bd9d;
      }

      .st9 {
        fill: #fff;
      }

      .st10 {
        fill: #272213;
      }

      .st11 {
        fill: #a01428;
      }

      .st12 {
        fill: #b7967d;
      }

      .st13 {
        fill: none;
      }

      .st14 {
        fill: #d2bb9b;
      }

      .st15 {
        fill: #504f46;
      }

      .st16 {
        fill: #ba9d82;
      }

      .st17 {
        fill: #dcc5a0;
      }

      .st18 {
        fill: #c1a587;
      }

      .st19 {
        fill: #44361f;
      }

      .st20 {
        fill: #807e78;
      }

      .st21 {
        fill: #a98d76;
      }

      .st22 {
        fill: #462e1b;
      }

      .st23 {
        clip-path: url(#clippath);
      }

      .st24 {
        fill: #ebd9b5;
      }
    </style>
    <clipPath id="clippath">
      <rect class="st13" x="35.58" y="55.4" width="9.07" height="5.31"/>
    </clipPath>
  </defs>
  <g id="Layer_1-2">
    <path class="st1" d="M0,0h80v80H0V0Z"/>
    <path class="st17" d="M40.08,49.94v30.06h-16.37c-.27-.1-.4-.16-.4-.16,0-1.62.1-3.1.29-4.44.25-1.82.65-3.38,1.14-4.72,2.08-5.63,5.9-7.42,7.65-7.96.58-.18.93-.22.93-.22.07,0,.12,0,.18-.02.22-.03.42-.14.6-.3.25-.21.47-.53.66-.93.25-.53.46-1.2.62-1.98.07-.3.12-.61.17-.94.08-.56.16-1.14.23-1.75.03-.37.07-.73.11-1.11.14-1.84.18-3.85.18-5.76,0,0,2.2.23,3.98.23"/>
    <path class="st24" d="M56.92,79.84s-.14.05-.39.16h-16.45v-30.06h.04c1.77,0,4-.23,4-.23,0,1.9.04,3.88.18,5.72.04.36.08.73.11,1.08.07.64.14,1.23.24,1.79h0c.03.26.08.49.12.73.16.78.35,1.47.59,2.02.22.52.48.92.77,1.16.1.08.21.15.31.19.13.06.28.09.44.09,0,0,.62.08,1.57.44,1.93.75,5.17,2.71,7.03,7.73.5,1.35.9,2.91,1.15,4.72.18,1.33.28,2.81.28,4.44h0Z"/>
    <g class="st23">
      <path class="st16" d="M44.65,58.25h0c-.41.64-1.8,2.46-4.54,2.46h-.03c-2.6-.01-4.11-1.88-4.5-2.43.08-.55.16-1.13.23-1.74.03-.35.07-.72.11-1.11,1.26.31,2.65.51,4.11.54h.05c1.52-.03,2.91-.24,4.22-.58.04.35.08.72.11,1.08.07.63.15,1.22.24,1.77"/>
    </g>
    <path class="st6" d="M39.9,15.68c-17.34,0-17.43,14.4-16.66,23.83-1.18-2.24-4.71-1.55-4.42,1.97.28,3.39,5.32,5.12,5.18,4.75,2.63,6.97,9.58,12.23,15.9,12.23h.13V15.68h-.13Z"/>
    <path class="st21" d="M19.92,39.99c.85-1.37,2.19-.78,2.5-.47.35.33.62.75.41,1.55-.12.46-.6.5-.49,1.18.13.78.49.82.7,1,.2.17.45.3.57.63.13.33.15.67.08.97-.13.55-.95.1-1.49-.13-.36-.17-1.51-1.13-1.8-1.45-.72-.82-1.07-2.39-.49-3.29"/>
    <path class="st8" d="M39.99,15.68c17.34,0,17.43,14.4,16.67,23.83,1.18-2.24,4.7-1.55,4.41,1.97-.27,3.39-5.32,5.12-5.18,4.75-2.56,6.97-9.58,12.23-15.9,12.23h-.09l-.04-42.78h.13"/>
    <path class="st21" d="M59.96,39.99c-.85-1.37-2.17-.78-2.5-.47-.35.33-.61.75-.41,1.55.12.46.6.5.49,1.18-.13.78-.49.82-.69,1-.2.17-.47.3-.59.63-.12.33-.15.67-.08.97.13.55.95.1,1.49-.13.37-.17,1.51-1.13,1.8-1.45.73-.82,1.07-2.39.49-3.29"/>
    <path class="st17" d="M39.76,19.74c-5.7,0-9.88,1.64-12.4,4.88-3.53,4.54-3.4,11.45-2.1,16.43.4,1.52.61,5.61.88,7.11,1.24,6.72,8.71,10.3,13.62,10.3h.13V19.74h-.08"/>
    <path class="st24" d="M52.14,24.63c-2.5-3.22-6.63-4.87-12.25-4.89v38.72c5.62-.06,12.34-3.99,13.49-10.3.28-1.5.48-5.59.88-7.11,1.3-4.96,1.44-11.86-2.12-16.41"/>
    <path class="st13" d="M39.2,50.19c-.08-.01-.15-.03-.21-.04.07.01.14.03.21.04M38.9,51.58c-.05-.01-.1-.02-.13-.03.04.01.09.02.13.03"/>
    <path class="st12" d="M38.99,51.6s-.05-.01-.08-.02c.03,0,.05.01.08.02M38.77,51.55s-.05-.01-.07-.02.03,0,.08.02h0Z"/>
    <path class="st8" d="M36.66,46.57c-.07-1.34,2.47-.49,3.31-.45.66.03,2.67-.42,2.85-.3,1.18.79-1.25,2.39-2.89,2.39-.44,0-3.23-.83-3.27-1.64h0Z"/>
    <path class="st13" d="M24.35,31.81c-.16.51-.26,1.07-.34,1.67,0,0,.23-.94.73-2.34-.22.3-.36.54-.4.67"/>
    <path class="st19" d="M35.05,19.84l-.07.07v.03s.05-.07.07-.1"/>
    <path class="st13" d="M39.25,50.85c-.08-.01-.16-.03-.22-.04.08.01.15.03.22.04M38.95,50.79c-.05-.01-.1-.02-.13-.03.04.01.09.02.13.03"/>
    <path class="st2" d="M39.03,50.81s-.05-.01-.08-.02c.03,0,.05.01.08.02M38.82,50.76l-.08-.02s.03,0,.08.02"/>
    <path class="st9" d="M27.46,34.85s1.32,5.39,3.59,5.83,4.73-.44,4.73-.44c0,0,.23-6.34-.93-7.16-1.16-.83-3.84-2.03-7.39,1.77"/>
    <path class="st14" d="M35.78,40.23s-.05.01-.17.06c-.03-1.94-.21-4.61-.94-5.12-1.08-.79-3.52-1.89-6.77,1.13-.3-.83-.44-1.47-.44-1.47,3.56-3.81,6.24-2.61,7.39-1.77,1.16.83.93,7.17.93,7.17h0Z"/>
    <ellipse class="st22" cx="32.2" cy="37.49" rx="2.24" ry="2.22"/>
    <path class="st5" d="M32.1,38.97c-.65-.05-1.14-.7-1.08-1.41s.65-1.27,1.3-1.21,1.14.7,1.08,1.41-.65,1.27-1.3,1.22"/>
    <path class="st10" d="M32.15,38.71c-.45-.04-.91-.53-.87-1.13.05-.6.59-1.01,1.04-.98.45.04.91.53.86,1.13s-.59,1.01-1.04.97"/>
    <path class="st9" d="M31.79,37.22c-.02.22-.25.38-.5.36-.26-.02-.46-.22-.44-.43.02-.22.24-.38.5-.36s.46.21.44.43M33.24,38.48c-.01.11-.12.19-.25.18-.13-.01-.23-.11-.22-.22.01-.11.12-.19.25-.18.13.01.23.11.22.22"/>
    <path class="st13" d="M39.29,51.49c-.08-.01-.16-.03-.22-.04.08.01.15.03.22.04M38.98,51.43c-.05-.01-.1-.02-.13-.03.04.01.09.02.13.03"/>
    <path class="st2" d="M39.07,51.45s-.05-.01-.08-.02c.03,0,.05.01.08.02M38.85,51.4l-.08-.02s.03.01.08.02"/>
    <path class="st13" d="M39.2,51.34c-.09-.01-.17-.03-.23-.04.08.02.16.03.23.04M38.88,51.27c-.05-.01-.11-.03-.14-.03.05.01.09.02.14.03"/>
    <path class="st12" d="M38.97,51.29s-.06-.01-.09-.02c.03,0,.05.01.09.02M38.73,51.24s-.05-.01-.08-.02.03.01.08.02h0Z"/>
    <path class="st13" d="M39.13,51.11c-.09-.01-.17-.03-.23-.04.08.02.16.03.23.04M38.81,51.05c-.05-.01-.11-.03-.14-.03.05.01.09.02.14.03"/>
    <path class="st12" d="M38.9,51.07s-.06-.01-.09-.02c.03,0,.05.01.09.02M38.67,51.02s-.05-.01-.08-.02.03.01.08.02h0Z"/>
    <path class="st13" d="M39.34,51.08c-.08-.01-.16-.03-.23-.04.08.02.15.03.23.04M39.02,51.02c-.05-.01-.1-.02-.14-.03.05.01.09.02.14.03"/>
    <path class="st12" d="M39.1,51.04s-.06-.01-.09-.02c.03,0,.05.01.09.02M38.88,50.99l-.08-.02s.03.01.08.02h0Z"/>
    <path class="st9" d="M52.47,34.67s-1.32,5.39-3.59,5.83-4.73-.44-4.73-.44c0,0-.23-6.34.93-7.16,1.16-.83,3.84-2.03,7.39,1.77"/>
    <path class="st14" d="M44.14,40.05s.05.01.17.06c.03-1.94.21-4.61.94-5.12,1.08-.79,3.52-1.89,6.77,1.13.3-.83.44-1.47.44-1.47-3.56-3.81-6.24-2.61-7.39-1.77-1.16.83-.93,7.17-.93,7.17h0Z"/>
    <path class="st22" d="M45.49,37.31c0,1.23,1,2.22,2.24,2.22s2.24-.99,2.24-2.22-1-2.22-2.24-2.22-2.24.99-2.24,2.22"/>
    <path class="st5" d="M47.82,38.78c.65-.05,1.14-.7,1.08-1.41s-.65-1.27-1.3-1.21-1.14.7-1.08,1.41.65,1.27,1.3,1.22"/>
    <path class="st10" d="M47.77,38.53c.45-.04.91-.53.87-1.13-.05-.6-.59-1.01-1.04-.98-.45.04-.91.53-.86,1.13s.59,1.01,1.04.97"/>
    <path class="st9" d="M48.13,37.04c.02.22.25.38.5.36.26-.02.46-.22.44-.43-.02-.22-.24-.38-.5-.36s-.46.21-.44.43M46.68,38.3c.01.11.12.19.25.18.13-.01.23-.11.22-.22-.01-.11-.12-.19-.25-.18-.13.01-.23.11-.22.22"/>
    <path d="M37.14,34.77s-.43-.65-1.27-1.29c-.53-.4-1.04-.71-1.58-.94-.65-.27-1.35-.47-2.03-.56-.61-.07-1.3-.05-2.09.06-.61.11-1.2.29-1.7.52-.36.12-.64.29-.87.43-.09.05-.17.1-.25.14l-1.08.68,1.25-.29c.06-.01.12-.03.19-.05.26-.07.58-.15.96-.21.09-.01.18-.03.27-.05.16-.03.32-.06.49-.07.19-.01.39-.03.59-.04l.26-.02c.69,0,1.28.04,1.8.16.57.1,1.15.28,1.69.53.51.24.99.48,1.37.75.76.51,1.19.93,1.19.93.1.1.25.16.39.16.1,0,.21-.03.3-.09.25-.16.32-.5.16-.74v-.02s-.01.01-.01.01ZM52.69,33.13c-.07-.04-.15-.09-.24-.14-.23-.14-.51-.31-.86-.43-.51-.23-1.11-.4-1.72-.52-.79-.1-1.47-.13-2.09-.05-.68.09-1.38.29-2.03.56-.53.23-1.06.54-1.58.94-.83.63-1.24,1.24-1.27,1.29h0c-.14.23-.11.51.07.69.1.1.24.16.38.16s.28-.06.38-.16h0s.45-.44,1.19-.94c.37-.27.86-.51,1.36-.75.54-.25,1.12-.43,1.7-.53.51-.12,1.1-.17,1.78-.16l.27.02c.2.01.39.03.59.04.17,0,.33.04.49.07.09.02.18.04.27.05.38.05.7.14.96.21.07.02.13.04.19.05l1.25.29-1.09-.68Z"/>
    <path class="st13" d="M38.91,52.13c-.08-.01-.16-.03-.23-.04.08.02.16.03.23.04M38.59,52.06c-.05-.01-.1-.03-.14-.03l.14.03Z"/>
    <path class="st4" d="M38.67,52.08s-.06-.01-.09-.02c.03,0,.05.01.09.02M38.45,52.03s-.05-.01-.08-.02.03.01.08.02"/>
    <path class="st7" d="M36.69,53.19c-.07-.87,2.43.18,3.25.21.65.02,2.62-.13,2.8-.2,1.37-.51-.08,1.45-2.84,1.55-1.27.05-3.17-1.04-3.21-1.56h0Z"/>
    <path class="st0" d="M44.81,51.52c-.68-.03-1.37.53-2.19.44-.03-.02-.05-.02-.08-.02-.19-.03-.37,0-.58.05-.25.05-.51.15-.75.24-.41.13-.87.24-1.34.2s-.02,0-.03,0h-.03c-.47.03-.93-.07-1.34-.2-.24-.08-.49-.19-.75-.24-.2-.05-.39-.08-.58-.05-.04,0-.05,0-.08.02-.82.09-1.51-.48-2.19-.44-.19.02-.46-.03-.61-.03.03.02.07.03.1.05,1.93.93,3.6,2.69,5.44,2.63h.05c1.85.06,3.51-1.7,5.44-2.63.04-.02.07-.03.1-.05-.15,0-.42.05-.61.03h0Z"/>
    <path class="st18" d="M45.38,51.47s-1.96-.75-3.36-.31c0,0-.52.2-1.06.33-.33.13-.73.16-1.11.15-.29-.01-.57-.05-.8-.09-.08-.01-.15-.03-.23-.04-.03,0-.06-.01-.09-.02l-.14-.03c-.05-.01-.08-.02-.08-.02-.45-.12-.83-.27-.83-.27-1.4-.44-3.36.31-3.36.31-.03.01-.04.02-.04.02.15,0,.42.05.61.03.68-.03,1.37.53,2.19.44.03-.02.05-.02.08-.02.19-.03.37,0,.58.05.25.05.51.15.75.24.41.13.87.24,1.34.2s.02,0,.03,0h.03c.47.03.93-.07,1.34-.2.24-.08.49-.19.75-.24.2-.05.39-.08.58-.05.04,0,.05,0,.08.02.82.09,1.51-.48,2.19-.44.19.02.46-.03.61-.03,0,0-.02,0-.04-.02h0Z"/>
    <path class="st18" d="M36.55,51.93s3.68,1.11,6.53.03l-.33-.22h-3.85l-2.35.2h0Z"/>
    <path class="st3" d="M37.85,70.49v9.51h-12.02c.07-.97.13-2.53.14-4.6h-2.36c.25-1.82.65-3.38,1.14-4.72,2.08-5.63,5.9-7.42,7.65-7.96.58-.18.93-.22.93-.22.07,0,.12,0,.18-.02.22-.03.42-.14.6-.3.21.49.94,2,2.01,3.4,1.09,1.42,1.72,3.13,1.72,4.91h0ZM54.29,75.4c.01,2.06.09,3.64.16,4.6h-12.07v-9.38c0-1.82.63-3.57,1.74-5.01,0-.01.01-.02.02-.02,1.05-1.36,1.77-2.84,2-3.36.1.08.21.15.31.19.13.06.28.09.44.09,0,0,.62.08,1.57.44,1.93.75,5.17,2.71,7.03,7.73.5,1.35.9,2.91,1.15,4.72h-2.34,0Z"/>
    <path class="st11" d="M37.85,72.19s1.9,2.33,4.53,0v7.81h-4.53v-7.81Z"/>
    <path class="st3" d="M60.88,43.94l-1.88-2.8c-.17-.26.01-.61.33-.61h.29c.21,0,.41.08.56.23l1.73,1.72c-.2.66-.66,1.16-1.04,1.46M59.33,45.26l-1.1-2.57c-.1-.24.1-.49.36-.45l.23.04c.17.03.33.13.42.27l1.15,1.66c-.27.51-.72.84-1.07,1.04h0Z"/>
    <path class="st20" d="M55.76,43.95l-.73.54s-4.65,10.34-8.57,7.71v.05c-.21-.6-.49-1.12-.85-1.5-1.11-1.62-3.35-2.73-5.94-2.73-2.39,0-4.48.94-5.66,2.35-.53.36-.96.99-1.23,1.78h0c-3.92,2.63-8.26-7.66-8.26-7.66l-.73-.54-.02,1.64c1.46,6.27,7.59,10.52,10.03,11.99.2.18.42.32.65.4.11.06.23.11.35.16,0,0,.02.01.02.01,1.22.53,2.93.87,4.84.87,2.04,0,3.86-.38,5.09-.98l-.03.11s9.22-4.68,11.06-12.57l-.02-1.64h0ZM42.92,56.88s.01-.04.01-.06c0-.62-1.49-1.12-3.34-1.12s-3.33.5-3.33,1.12v.03c-.65-.16-1.24-.37-1.72-.61-.26-.63-.42-1.37-.42-2.17h0c0-.43.2-.83.52-1.11.98-.83,2.32-1.42,3.84-1.63.38-.05.78-.08,1.18-.08s.79.03,1.18.08c1.38.19,2.6.69,3.55,1.41.42.31.67.81.67,1.32h0c0,.84-.17,1.62-.45,2.26-.49.22-1.06.41-1.69.56h0Z"/>
    <path class="st15" d="M62.48,17.89s-2.43-3.05-6.65-2.33c1.26-2.65-.52-4.4-.52-4.4-.17,2.19-1.11,3.15-1.92,3.57-.38-1.85-2.17-4.63-8.19-5.96,0,0,1.86,1.28,2.97,2.86.65.92-.43,2.04-1.48,1.53-1.08-.53-2.67-.88-4.11-1.96-3.21-2.43-8.94-1.4-11.99.43-2.54,1.52-6.39,4.89-7.47,7.16-.26.54-.61,1.23-1,2.02,0,0,0,0-.01,0-4.19,1.34-5.4-.28-5.4-.28,0,0,1.1,1.73,3.11,2.45.57.2.87.79.63,1.31-.81,1.78-1.56,3.64-1.95,5.23-.73,3.02,1.24,5.95,2.96,7.22,0,.05,0,.09.01.14.57.63,1.44,1.7,2.07,2.93.14.28.26.55.37.84.26.68.42,1.38.38,2.08.34.08,1.11-1.22,1.08-3.57,1.53-5.21,4.2-8.09,7.09-9.79.43-.25.97.17.75.59-2.77,5.32-.05,11.12-.05,11.12-.15-7.03,6.23-11.73,8.21-13.02.18-.1.38-.22.57-.36.69-.48,1.46-.9,2.27-1.24.76-.32,1.67.03,1.95.76.52,1.38.78,2.96.46,4.65,0,0,1.19-1.77,1.55-4.15.1-.68,1.03-.9,1.46-.34,1.42,1.84,2.85,4.58,2.29,7.75,0,.03,0,.05-.01.08,0,0,.11-.16.27-.45.52-.8.84-1.7,1.04-2.55.06-.21.1-.43.15-.66h0s.51-1.94,1.22.37c.2,1.19.24,2.56.1,4.1-.11,1.15-.16,2.09-.17,2.87-.01.76,0,1.36.05,1.84.17,1.79.65,1.77.65,1.77.34,0-.03-1.74,1.11-2.93,1.13-1.19,2.86-5.23,2.86-9.25,0-2.14-.43-4.16-1.4-6.15-3.38-4.36.88-7.42,4.7-6.27h.01Z"/>
  </g>
</svg>