<?xml version="1.0" encoding="UTF-8"?>
<svg id="Layer_2" xmlns="http://www.w3.org/2000/svg" version="1.1" xmlns:xlink="http://www.w3.org/1999/xlink" viewBox="0 0 80 80">
  <!-- Generator: Adobe Illustrator 30.2.1, SVG Export Plug-In . SVG Version: 2.1.1 Build 1)  -->
  <defs>
    <style>
      .st0 {
        fill: #212625;
      }

      .st1 {
        fill: #f1d4c8;
      }

      .st2 {
        fill: #1e1f1a;
        opacity: .4;
      }

      .st2, .st3, .st4, .st5 {
        isolation: isolate;
      }

      .st6 {
        fill: #9f4562;
      }

      .st7 {
        fill: #fff;
      }

      .st8 {
        fill: url(#linear-gradient1);
      }

      .st9 {
        fill: none;
      }

      .st10 {
        fill: #b59376;
      }

      .st11 {
        fill: #c6a095;
      }

      .st12 {
        fill: #f2f3f2;
      }

      .st13 {
        fill: #3b3b36;
      }

      .st3 {
        fill: #502c24;
        opacity: .2;
      }

      .st14 {
        fill: #debaad;
      }

      .st15 {
        fill: #f0d4c7;
      }

      .st16 {
        fill: #dcb9ac;
      }

      .st4 {
        fill: #48443b;
        opacity: .3;
      }

      .st17 {
        fill: #4f6771;
      }

      .st18 {
        fill: url(#linear-gradient);
      }

      .st19 {
        fill: #49443b;
      }

      .st5 {
        fill: #ededeb;
        opacity: .55;
      }
    </style>
    <linearGradient id="linear-gradient" x1="18.11" y1="104.37" x2="18.11" y2="100.65" gradientTransform="translate(4.08 136.84) rotate(4.72) scale(1 -1)" gradientUnits="userSpaceOnUse">
      <stop offset="0" stop-color="#29383e"/>
      <stop offset=".12" stop-color="#3d5059"/>
      <stop offset=".29" stop-color="#586f7d"/>
      <stop offset=".47" stop-color="#6d8799"/>
      <stop offset=".65" stop-color="#7c99ad"/>
      <stop offset=".82" stop-color="#85a3b9"/>
      <stop offset="1" stop-color="#89a7be"/>
    </linearGradient>
    <linearGradient id="linear-gradient1" x1="-1465.28" y1="-18.1" x2="-1465.28" y2="-21.78" gradientTransform="translate(-1414.38 136.84) rotate(175.28)" gradientUnits="userSpaceOnUse">
      <stop offset="0" stop-color="#29383e"/>
      <stop offset=".12" stop-color="#3d5059"/>
      <stop offset=".29" stop-color="#586f7d"/>
      <stop offset=".47" stop-color="#6d8799"/>
      <stop offset=".65" stop-color="#7c99ad"/>
      <stop offset=".82" stop-color="#85a3b9"/>
      <stop offset="1" stop-color="#89a7be"/>
    </linearGradient>
  </defs>
  <g id="Layer_1-2">
    <path class="st6" d="M0,0h80v79.99H0V0Z"/>
    <path class="st1" d="M51.48,37.97c.02-2.32,1.48-4.34,3.66-5.51-.04.58-.09,1.15-.14,1.69,1.37-2.54,5.34-1.71,4.99,2.3-.35,3.87-6,5.83-5.91,5.37-.06.3-.13.61-.2.91-1.49-1.22-2.4-2.91-2.39-4.78"/>
    <path class="st14" d="M58.75,34.74c-.96-1.56-2.45-.9-2.83-.57-.4.37-.71.85-.48,1.77.13.52.67.56.53,1.35-.15.88-.56.93-.79,1.14-.23.19-.53.34-.67.72-.14.37-.17.76-.1,1.11.15.64,1.08.14,1.69-.14.41-.18,1.71-1.27,2.05-1.63.83-.92,1.23-2.71.59-3.75"/>
    <path class="st1" d="M26.44,37.97c-.02-2.32-1.48-4.34-3.66-5.51.04.58.09,1.15.14,1.69-1.37-2.54-5.34-1.71-4.99,2.3.35,3.87,6,5.83,5.91,5.37.06.3.13.61.2.91,1.49-1.22,2.4-2.91,2.39-4.78"/>
    <path class="st14" d="M19.16,34.74c.95-1.56,2.45-.9,2.83-.57.4.37.71.85.48,1.77-.13.52-.67.56-.53,1.35.15.88.56.93.79,1.14.23.19.53.34.67.72.14.37.17.76.1,1.11-.15.64-1.08.14-1.69-.14-.41-.18-1.71-1.27-2.05-1.63-.83-.92-1.23-2.71-.59-3.75"/>
    <path class="st15" d="M65.61,79.99H12.6c0-.2.01-.4.01-.59,0,0,.12-6.4.41-6.97.56-2.23-.44-3.26,3.49-5.4.05-.01.91-.25,2.19-.63,2.68-.77,7.23-2.1,9.59-3.03h.03c.53-.24.96-.43,1.22-.59,0-.01.01-.01.01-.01.07-.04.1-.07.13-.1.01-.01.07-.05.09-.09.03-.04.08-.07.1-.1.08-.38,1.17-1.97,1.56-3.72.01-.03.03-.04.04-.06.09-.35.13-.71.16-1.06.01-.57.04-1.15.04-1.64.01-.29.03-.56.03-.81,0-.1,0-.21.01-.3,0-.1.01-.2.01-.29v-.08c.01-.24.01-.44.01-.59.01-.16.01-.25.01-.25,0,0-6.06-4.51-6.06-5.5,0,0,6.34.97,10.46,1.42.08.01.16.01.24.03.27.03.53.07.77.09.01,0,.05,0,.13.01.35.03.68.05.97.08.18.01.35.03.51.03.12.03.22.03.34.01.07,0,.13.01.2,0,.16-.01.35-.01.57-.03,0-.01.03-.01.04-.01.48-.03,1.08-.09,1.73-.17.05,0,.1-.01.16-.01h.01c4.1-.44,10.65-1.45,10.65-1.45,0,.98-6.03,5.5-6.03,5.5,0,0,0,.09.01.25,0,.08,0,.17.01.27-.01.03-.01.04,0,.07v.27c0,.18.01.4.01.63.03.69.05,1.55.08,2.45.01.18.01.35.04.53s.07.34.1.53c0,.01.01.01.01.01,0,.01,0,.03.01.03.39,1.78,1.5,3.39,1.59,3.76.01.01.01.03.01.04.03.03.05.04.08.07.03.04.08.08.08.09.09.08.22.16.41.25.07.03.1.05.17.08h.01c1.93.91,7.32,2.5,10.41,3.4,1.29.38,2.14.61,2.19.63,3.96,2.15,2.93,3.17,3.49,5.4.3.56.41,6.97.41,6.97,0,.18,0,.39.01.59h.04Z"/>
    <path class="st11" d="M46.73,58.69c-.09-.35-.14-.71-.15-1.06-.04-1.2.17-2.79.15-3.54-2.28.89-4.86,1.87-7.16,1.87-.13.02-.31.02-.47.02s-.33,0-.47-.02c-2.29,0-4.63-.52-6.92-1.41-.01.74-.04,1.89-.09,3.08-.02.35-.06.71-.15,1.06,2.2,1.6,5.18,3.27,7.16,3.27.12.02.27.02.42.02h.1c.14,0,.29,0,.42-.03,1.98,0,4.96-1.66,7.16-3.27h0Z"/>
    <path class="st15" d="M57.55,26.66c-.01.13-.01.28-.03.44-.03.16-.04.33-.05.51-.03.22-.04.46-.08.67-.01.1-.03.22-.04.33-.04.26-.09.51-.13.77-.01.1-.04.21-.05.31-.05.22-.09.46-.16.68-.03.13-.07.27-.09.46-.04.12-.07.26-.1.39-.17.63-1.6,8.05-2.64,12.87-.43,2.01-.78,3.56-.95,4-.97,2.44-7.29,6.95-11.37,8.86-.01.01-.04.01-.05.03-1.16.56-2.14.87-2.73.87h-.08c-.65-.01-1.59-.3-2.68-.8-.05-.04-.12-.07-.18-.09-4.19-1.89-10.46-6.43-11.42-8.87-.18-.47-.57-2.25-1.01-4.48-.95-4.82-2.2-11.79-2.37-12.39-.04-.12-.07-.26-.1-.39-.03-.17-.07-.31-.09-.46-.06-.22-.1-.46-.16-.68-.01-.11-.04-.21-.05-.31-.04-.26-.09-.51-.13-.77-.01-.1-.03-.22-.04-.33-.04-.21-.05-.44-.08-.67-.01-.17-.03-.34-.05-.51-.01-.16-.01-.3-.03-.44-.17-3.48.57-7.02,2.84-10.2,2.75-3.85,5.9-7.94,12.76-8.5h5.78c6.86.56,10.02,4.65,12.76,8.5,2.27,3.18,3.01,6.72,2.84,10.2h-.01Z"/>
    <path class="st16" d="M36.04,45.7c-.06-1.25,2.28-.46,3.05-.42.61.03,2.46-.4,2.63-.28,1.1.74-1.16,2.22-2.67,2.22-.41,0-2.98-.77-3.01-1.52"/>
    <path class="st19" d="M35.22,33.81s-.49-.35-1.27-.74c-.39-.19-.85-.39-1.35-.55-.25-.09-.52-.15-.78-.21-.26-.08-.55-.1-.82-.15s-.56-.05-.83-.08h-.82c-.26.02-.53.04-.77.06s-.48.07-.69.1c-.44.05-.78.15-1.04.19-.25.05-.41.07-.41.07,0,0,.13-.07.35-.21.23-.12.56-.32.98-.47.21-.07.45-.17.7-.23.25-.05.53-.12.81-.16.28-.02.58-.06.88-.06.3.02.61.02.92.06.3.06.61.09.9.19.29.07.58.18.84.29.27.1.51.25.74.38.22.14.44.27.61.42.73.56,1.04,1.09,1.04,1.09v.02Z"/>
    <path class="st7" d="M26.06,34.88s1.44,2.86,3.63,3.15c2.2.29,4.53-.09,4.53-.09,0,0,.03-3.31-1.11-3.77-1.15-.47-3.75-1.18-7.06.71"/>
    <path class="st18" d="M32.36,35.83c-.09,1-.95,1.76-1.93,1.69s-1.68-.94-1.59-1.95.95-1.76,1.93-1.69,1.68.94,1.58,1.95h.01Z"/>
    <path class="st17" d="M30.51,36.94c-.52-.04-.91-.58-.85-1.18s.54-1.07,1.06-1.04c.52.04.9.58.85,1.18-.06.6-.54,1.07-1.05,1.04h-.01Z"/>
    <path class="st0" d="M30.56,36.73c-.37-.03-.73-.44-.68-.94s.49-.86.85-.83c.35.03.73.44.68.94s-.49.86-.85.83"/>
    <path class="st4" d="M34.24,37.93s-.05,0-.16.03c-.09-1.01-.34-2.41-1.05-2.71-1.06-.44-3.44-1.09-6.48.4-.31-.45-.47-.78-.47-.78,3.31-1.9,5.92-1.19,7.05-.72,1.15.47,1.12,3.78,1.12,3.78"/>
    <path class="st9" d="M26.06,34.88s1.44,2.85,3.63,3.15c2.2.29,4.53-.09,4.53-.09,0,0,.03-3.31-1.11-3.77-1.15-.47-3.75-1.17-7.06.72h0Z"/>
    <path class="st7" d="M30.28,35.47c-.02.18-.2.32-.41.3-.2-.01-.37-.17-.34-.37.02-.18.2-.32.41-.3.21.02.37.17.34.37M31.43,36.53c0,.09-.1.16-.2.15-.1,0-.18-.09-.17-.18,0-.09.1-.16.2-.15.1,0,.18.09.17.18"/>
    <path class="st19" d="M42.7,33.84s.31-.53,1.04-1.09c.17-.14.39-.27.61-.42.23-.12.47-.27.74-.38.26-.11.55-.22.84-.29.29-.09.6-.13.9-.18.3-.04.62-.04.91-.06.3,0,.6.04.88.06.28.04.56.11.81.16s.49.15.7.22c.44.13.76.34.98.46.22.13.35.2.35.2,0,0-.15-.03-.41-.07s-.61-.14-1.04-.19c-.21-.02-.45-.08-.69-.1s-.5-.04-.77-.06h-.81c-.27.03-.56.03-.83.07s-.56.07-.82.14c-.27.06-.54.12-.78.21-.51.16-.96.35-1.35.54-.78.38-1.27.73-1.27.73v.04Z"/>
    <path class="st7" d="M51.88,35.06s-1.39,2.8-3.58,3.05c-2.19.26-4.53-.16-4.53-.16,0,0-.08-3.27,1.04-3.71,1.14-.45,3.73-1.11,7.07.81h0Z"/>
    <path class="st9" d="M51.88,35.06s-1.39,2.8-3.58,3.05c-2.19.26-4.53-.16-4.53-.16,0,0-.08-3.27,1.04-3.71,1.14-.45,3.73-1.11,7.07.81h0Z"/>
    <path class="st8" d="M45.77,35.8c.09.99.95,1.74,1.93,1.67s1.68-.93,1.59-1.93-.95-1.74-1.93-1.67-1.68.93-1.58,1.93h-.01Z"/>
    <path class="st17" d="M47.63,36.9c.52-.04.91-.57.85-1.17-.05-.6-.54-1.06-1.05-1.02s-.91.57-.85,1.17c.05.6.54,1.06,1.05,1.02"/>
    <path class="st0" d="M47.59,36.68c.37-.03.73-.43.68-.93s-.49-.85-.85-.82-.73.43-.68.93.49.85.85.82"/>
    <path class="st4" d="M43.76,37.95s.05,0,.16.03c.07-1,.3-2.38,1.01-2.66,1.05-.42,3.42-1.02,6.48.49.3-.44.46-.76.46-.76-3.34-1.92-5.94-1.26-7.07-.82-1.14.45-1.05,3.71-1.05,3.71h.01Z"/>
    <path class="st7" d="M47.22,35.45c-.02.18-.2.31-.41.3-.2-.02-.37-.17-.34-.35s.2-.31.41-.3c.2.02.37.17.34.35M48.37,36.49c-.01.09-.1.16-.2.15-.1,0-.18-.09-.17-.18,0-.09.1-.16.2-.15.1,0,.18.09.17.18"/>
    <path class="st16" d="M43.1,51.66c-.58-.03-1.18-.16-1.88-.23-.03-.01-.04-.01-.07-.01-.16-.03-.32,0-.5.04-.21.05-.44.13-.64.2-.34.11-.74.2-1.15.17s-.01,0-.02,0h-.02c-.41.03-.8-.06-1.15-.17-.2-.07-.43-.16-.64-.2-.17-.04-.33-.07-.5-.04-.03,0-.04,0-.07.01-.7.07-1.3.2-1.88.23-.16.01-.4-.03-.53-.03.03.01.06.03.09.04,1.66.81,3.09,1.71,4.68,1.66h.04c1.58.05,3.01-.85,4.68-1.66.03-.01.06-.03.09-.04-.13,0-.37.04-.53.03h-.02Z"/>
    <path class="st9" d="M38.15,51.06c-.07-.01-.14-.03-.19-.04.07.01.13.03.19.04M37.88,51.01s-.09-.02-.12-.03l.12.03Z"/>
    <path class="st3" d="M43.59,51.62s-1.68-1.27-2.89-.88c0,0-.45.17-.91.28-.28.11-.62.14-.95.13-.25,0-.5-.04-.69-.08-.06,0-.13-.02-.19-.04-.03,0-.05-.01-.07-.02-.04,0-.08-.02-.12-.03s-.07-.02-.07-.02c-.39-.1-.71-.23-.71-.23-1.2-.39-2.89.88-2.89.88l-.04.02c.13,0,.37.04.53.03.58-.03,1.18-.16,1.88-.23.03-.01.04-.01.07-.01.16-.03.32,0,.5.04.21.05.44.13.64.2.34.11.74.2,1.15.17s.01,0,.02,0h.02c.41.03.8-.06,1.15-.17.2-.07.43-.16.64-.2.17-.04.33-.07.5-.04.03,0,.04,0,.07.01.7.07,1.3.2,1.88.23.16.01.4-.03.53-.03,0,0-.01,0-.04-.02h.03Z"/>
    <path class="st10" d="M37.95,51.02s-.05-.01-.07-.02c.02,0,.05,0,.07.02M37.76,50.98s-.04-.01-.07-.02.03,0,.07.02"/>
    <path class="st9" d="M39.11,71.45c2.87,0,5.44-1.29,7.2-3.34h-14.4c1.76,2.04,4.33,3.34,7.2,3.34"/>
    <path class="st7" d="M60.96,73.7h4.06c-.1-.62-.63-1.59-1.22-2.53-.84-1.36-1.82-2.64-1.82-2.64-2.87-2.32-6.32-3.41-8.64-3.9-14.92,14.29-25.76,2.46-27.72.04-2.32.52-5.67,1.61-8.47,3.86,0,0-1.15,1.15-2.24,2.64-.58.79-1.15,1.67-1.52,2.53h4.81c.01.64.02,1.25.01,1.82-.01,2.02-.12,3.55-.22,4.48h43.17c-.1-.92-.21-2.46-.22-4.48,0-.57,0-1.17.02-1.82"/>
    <path class="st13" d="M26.7,59.67c-1.1.18-3.41.71-5.92,2.06-4.51,2.43-9.7,7.54-9.72,18.26h24.56v-18.32c-1.88-.81-3.73-1.55-4.15-2.31-.14-.26.16-1.11.15-1.61h-1.94c-1.21.89-3,1.98-2.99,1.93M42.92,61.5v18.49h24.2c-.02-10.71-5.2-15.83-9.73-18.26-2.52-1.35-4.83-1.88-5.92-2.06.01.05-1.78-1.03-2.99-1.93h-1.92c.04.48.12,1.49-.02,1.75-.4.71-1.87,1.23-3.64,2.01h.02Z"/>
    <path class="st7" d="M61.86,46.6c-.45-1.46-.79-2-2.6-3.99-.03-.03-.05-.06-.08-.09-.2-.22-.38-.41-.52-.57-.87-.93-.83-.87-1.09-1.47-.1-.22-.23-.55-.49-1.06-.18-.39-.29-.73-.37-1.07-.24-1.21.11-2.24.28-3.66.3-.25.55-.45.65-.66.22-.51.39-2.75.39-4.01s-.34-8.65-2.08-12.79-4.31-5.88-9.96-8.4c-2.52-1.12-5.22-2.38-6.96-2.2-1.73-.17-4.45,1.1-6.96,2.2-5.65,2.51-8.24,4.26-9.96,8.4-1.73,4.14-2.08,11.53-2.08,12.79s.15,3.5.39,4.01c.09.21.34.4.65.65.17,1.42.53,2.46.28,3.66-.07.34-.18.7-.37,1.07-.25.52-.39.84-.49,1.06-.25.6-.22.53-1.09,1.47-.15.16-.31.34-.52.57-.03.03-.05.06-.08.09-1.81,1.99-2.15,2.53-2.6,3.99-.85,2.81.37,6.22.58,6.92.22.7-.87-4.87,2.03-5.78.56-.17,1.01-.38,1.41-.58.12,1.3.21,1.79-.14,3.16-.44,1.66-.3,3.01.35,4.41.65,1.4,2.2,1.87,2.2,1.87,0,0-1.66-1.07-1.04-3.22.42-1.44,1.2-2.08,1.63-3.3.12-.34.21-.68.28-.98.06.1.12.19.18.29.04.19.1.39.2.57.51.88,2.09,2.34,1.73,4.14-.98,5.01,1.05,6.39,1.35,7,.28.62-.8-1.61-.08-3.47.42-1.07,1.03-1.45,1.68-1.85.4.69.69,1.48.52,2.35-.33,1.68-.31,2.95-.14,3.92.08.48.2.88.34,1.23.43,1.04,1,1.54,1.15,1.85.17.37-.14-.28-.27-1.26-.09-.66-.09-1.46.2-2.21.03-.08.07-.16.1-.24.71-.23,1.16-.29,1.16-.29.9,0,1.53-.98,1.98-2.56.13.17.26.35.41.55.04.06.08.11.12.17.92,1.37,1.69,3.13.6,4.23,0,0,1.42-.11,2.42-.92.65,1.07,1.23,2.27,1.67,3.57.06.18.13.37.19.56,0,0,0-.01.02-.03.01.02.02.03.02.03.06-.19.13-.37.19-.56.45-1.31,1.02-2.49,1.67-3.57,1.01.81,2.42.92,2.42.92-1.1-1.1-.32-2.86.6-4.23.04-.06.08-.11.12-.17.13-.19.27-.38.41-.55.46,1.57,1.08,2.56,1.98,2.56,0,0,.45.05,1.16.29.04.08.07.15.1.24.29.75.28,1.55.2,2.21-.13.97-.45,1.62-.27,1.26.14-.3.73-.8,1.15-1.85.14-.34.25-.75.34-1.23.17-.97.18-2.24-.14-3.92-.17-.87.12-1.66.52-2.35.66.39,1.27.77,1.68,1.85.72,1.86-.37,4.09-.08,3.47.29-.61,2.32-1.99,1.35-7-.35-1.79,1.23-3.25,1.73-4.14.1-.17.16-.37.2-.57.06-.1.12-.19.18-.29.07.3.16.64.28.98.44,1.22,1.22,1.85,1.63,3.3.62,2.15-1.04,3.22-1.04,3.22,0,0,1.55-.47,2.2-1.87s.78-2.75.35-4.41c-.35-1.38-.26-1.88-.14-3.16.39.2.85.41,1.41.58,2.9.91,1.81,6.48,2.03,5.78.21-.7,1.43-4.11.58-6.92h-.06ZM44.07,55.02c-.07.02-.14.05-.21.07-.24.08-.51.15-.79.22-.99.23-2.17.38-3.44.41h-1.18c-1.27-.03-2.44-.17-3.44-.41-.28-.07-.54-.14-.79-.22-.07-.02-.14-.04-.21-.07-1.22-.43-1.97-1.01-1.97-1.66,0-.73.95-1.39,2.45-1.82.06-.02.11-.03.17-.05,1.05-.28,2.36-.47,3.79-.5h1.18c1.43.03,2.73.21,3.79.5.06.02.11.03.17.05,1.5.44,2.45,1.09,2.45,1.82,0,.65-.75,1.24-1.97,1.66h-.02ZM54.84,38.13c-.22.86-.39,2.5-.54,4.1-1.38,2.67-3.96,6.3-7.83,6.72-.47-.9-1.23-1.63-2.11-1.91-1.4-.01-3.06-.03-4.73-.06h-1.2c-1.67.03-3.33.05-4.73.06-.88.26-1.63,1-2.11,1.91-3.88-.43-6.45-4.06-7.83-6.72-.15-1.59-.31-3.22-.54-4.1-.04-.15-.07-.3-.11-.46.01,0,.02-.01.02-.01,0,0-.23-1.5-.47-3.19,0,0,3.82-14.86,10.22-10.86,1.2,1.21,2.96,2.08,5.01,2.35.37.05.75.07,1.13.09.39-.01.76-.04,1.13-.09,2.05-.27,3.81-1.15,5.01-2.35,6.4-4.01,10.22,10.86,10.22,10.86-.23,1.69-.47,3.19-.47,3.19h.02c-.04.16-.07.31-.11.47"/>
    <path class="st7" d="M33.41,51.93s.41,2.1,5.84,2.8c0,0,3.81-.27,5.42-2.8l.97-.24,1.87,2.4-1.73,2.6-8,.54h-4.49l-2.66-1.49v-2.37l2.8-1.43h-.01Z"/>
    <path class="st2" d="M36.25,38.68c.15-.52.23-1.06.23-1.62,0-3.18-2.59-5.76-5.77-5.76s-5.77,2.58-5.77,5.76c0,.71.13,1.38.37,2.01,2.63-1.17,6.74-2.25,10.94-.39M53.11,39.91c.49-.84.77-1.83.77-2.87,0-3.18-2.59-5.76-5.77-5.76s-5.77,2.58-5.77,5.76c0,1.12.32,2.15.87,3.03,2.6-1.33,6.16-2.19,9.91-.16h-.01ZM37.15,39.12c-.02.06-.03.11-.05.17l.09-.15s-.02-.01-.03-.02h-.01Z"/>
    <path class="st5" d="M37.15,39.12c-.02.06-.03.11-.05.17l.09-.15s-.02-.01-.03-.02h-.01Z"/>
    <path class="st2" d="M30.71,42.81c2.63,0,4.84-1.74,5.54-4.14-4.2-1.87-8.32-.79-10.94.39.82,2.19,2.93,3.75,5.41,3.75"/>
    <path class="st5" d="M30.71,42.81c2.63,0,4.84-1.74,5.54-4.14-4.2-1.87-8.32-.79-10.94.39.82,2.19,2.93,3.75,5.41,3.75"/>
    <path class="st2" d="M42.24,40.61c.09.13.18.24.28.35-.09-.12-.17-.24-.25-.38,0,0-.02.01-.03.01h0Z"/>
    <path class="st5" d="M42.24,40.61c.09.13.18.24.28.35-.09-.12-.17-.24-.25-.38,0,0-.02.01-.03.01h0Z"/>
    <path class="st2" d="M48.1,42.81c2.14,0,4.01-1.17,5-2.89-3.75-2.03-7.31-1.17-9.91.16,1.01,1.63,2.83,2.73,4.91,2.73"/>
    <path class="st5" d="M48.1,42.81c2.14,0,4.01-1.17,5-2.89-3.75-2.03-7.31-1.17-9.91.16,1.01,1.63,2.83,2.73,4.91,2.73"/>
    <path class="st12" d="M54.69,35.43h-.08c-.41-1.64-1.41-3.04-2.76-3.97-1.09-.74-2.39-1.18-3.81-1.18s-2.61.4-3.65,1.07c-1.82,1.17-3.03,3.17-3.11,5.47-.21-.1-.45-.17-.69-.23-.67-.17-1.43-.19-2.17-.07-.31.05-.63.13-.93.24-.12-2.94-2.12-5.39-4.83-6.21-.62-.18-1.27-.28-1.94-.28-.76,0-1.49.13-2.18.37-2.17.74-3.84,2.55-4.39,4.79h-.09c-.33,0-.62.27-.62.61v1.81c0,.33.27.61.62.61h.05c.01.06.03.12.04.18.51,2.13,2.02,3.86,4.01,4.67.79.32,1.65.51,2.57.51,1.81,0,3.44-.71,4.66-1.86.77-.73,1.37-1.64,1.73-2.67.02-.06.04-.11.05-.17.16-.51.27-1.03.31-1.59.28-.12.59-.21.89-.27.77-.16,1.57-.13,2.24.08.24.08.49.18.69.31.09,1.07.45,2.08.98,2.95.08.13.16.25.25.38,1.23,1.71,3.24,2.84,5.51,2.84.65,0,1.27-.09,1.86-.26,1.63-.47,3.02-1.53,3.89-2.95.41-.65.7-1.38.86-2.15h.04c.33,0,.61-.27.61-.61v-1.81c0-.33-.27-.61-.61-.61M36.25,38.68c-.7,2.39-2.91,4.14-5.54,4.14-2.48,0-4.59-1.56-5.41-3.75-.23-.63-.37-1.3-.37-2.01,0-3.18,2.59-5.76,5.77-5.76s5.77,2.58,5.77,5.76c0,.57-.08,1.11-.23,1.62M53.11,39.91c-.99,1.72-2.86,2.89-5,2.89s-3.88-1.1-4.91-2.73c-.55-.88-.87-1.92-.87-3.03,0-3.18,2.59-5.76,5.77-5.76s5.77,2.58,5.77,5.76c0,1.04-.28,2.02-.77,2.87h.01Z"/>
  </g>
</svg>