<?xml version="1.0" encoding="UTF-8"?>
<svg id="Layer_2" xmlns="http://www.w3.org/2000/svg" version="1.1" xmlns:xlink="http://www.w3.org/1999/xlink" viewBox="0 0 80 80">
  <!-- Generator: Adobe Illustrator 30.2.1, SVG Export Plug-In . SVG Version: 2.1.1 Build 1)  -->
  <defs>
    <style>
      .st0 {
        fill: #dac6a4;
      }

      .st1 {
        fill: #b5957e;
      }

      .st2 {
        fill: #b8987d;
      }

      .st3 {
        fill: #714223;
      }

      .st4 {
        fill: #ccad8a;
      }

      .st5 {
        fill: #ecdab6;
      }

      .st6 {
        fill: #d7bd9d;
      }

      .st7 {
        fill: #fff;
      }

      .st8 {
        fill: #272213;
      }

      .st9 {
        fill: #b7967d;
      }

      .st10 {
        fill: none;
      }

      .st11 {
        fill: #d2bb9b;
      }

      .st12 {
        fill: #ba9d82;
      }

      .st13 {
        fill: #dcc5a0;
      }

      .st14 {
        fill: #af742a;
      }

      .st15 {
        fill: #c1a587;
      }

      .st16 {
        fill: #44361f;
      }

      .st17 {
        fill: #a98d76;
      }

      .st18 {
        fill: #462e1b;
      }

      .st19 {
        fill: #395a65;
      }

      .st20 {
        clip-path: url(#clippath);
      }

      .st21 {
        fill: #ebd9b5;
      }

      .st22 {
        fill: #3c3d39;
      }
    </style>
    <clipPath id="clippath">
      <rect class="st10" x="37.48" y="55.4" width="8.99" height="5.31"/>
    </clipPath>
  </defs>
  <g id="Layer_1-2">
    <path class="st19" d="M0,0h80v80H0V0Z"/>
    <path class="st13" d="M41.89,49.94v30.06h-16.23c-.27-.1-.4-.16-.4-.16,0-2.11.17-3.96.46-5.58.25-1.33.57-2.53.96-3.57.86-2.34,2.01-4.01,3.19-5.22.39-.4.78-.74,1.16-1.03h0c.66-.51,1.29-.89,1.86-1.17.3-.15.58-.27.83-.36.09-.03.17-.06.25-.09.1-.03.19-.06.28-.09.25-.08.45-.13.61-.16.2-.05.32-.06.32-.06.06,0,.11,0,.18-.02.06-.01.13-.03.19-.05.42-.15.77-.57,1.07-1.18.25-.53.45-1.2.62-1.98.06-.31.12-.61.18-.94.08-.55.15-1.14.23-1.75.02-.37.06-.73.1-1.11.14-1.84.18-3.86.18-5.76,0,0,2.18.23,3.95.23h0Z"/>
    <path class="st21" d="M58.58,79.84s-.14.05-.38.16h-16.31v-30.06h.04c1.76,0,3.96-.23,3.96-.23,0,1.9.04,3.88.19,5.72.04.36.08.73.1,1.08.06.64.14,1.23.24,1.79h0c.03.26.08.49.12.73.16.78.35,1.47.59,2.02.28.66.62,1.12,1.02,1.33.02.01.04.02.05.03.14.06.28.09.43.09,0,0,.08.01.21.04.23.04.61.13,1.11.31.08.03.15.05.24.09.04.02.09.03.13.05.11.04.23.1.35.15.61.28,1.3.67,2.02,1.21,0,0,0,0,0,0,.28.2.54.43.82.68h0c1.33,1.22,2.66,3.01,3.63,5.63.37,1.02.69,2.16.93,3.44.31,1.66.48,3.55.48,5.72h0Z"/>
    <g class="st20">
      <path class="st12" d="M46.47,58.25h0c-.41.64-1.78,2.46-4.5,2.46h-.03c-2.58-.01-4.08-1.88-4.46-2.43.08-.55.16-1.13.23-1.74.03-.35.06-.72.1-1.11,1.25.31,2.63.51,4.08.54h.05c1.5-.03,2.89-.24,4.19-.58.04.35.08.72.1,1.08.06.63.15,1.22.24,1.77"/>
    </g>
    <path class="st4" d="M41.76,15.68c-17.19,0-17.29,14.4-16.52,23.83-1.17-2.24-4.67-1.55-4.38,1.97.28,3.39,5.28,5.12,5.14,4.75,2.6,6.97,9.5,12.23,15.77,12.23h.13V15.68h-.13Z"/>
    <path class="st17" d="M21.95,40c.85-1.37,2.17-.78,2.48-.47.34.33.62.75.41,1.55-.12.46-.59.5-.49,1.18.13.78.49.82.7,1,.2.17.45.3.57.63.13.33.15.67.08.97-.13.55-.94.1-1.48-.13-.36-.17-1.49-1.13-1.78-1.45-.71-.82-1.06-2.39-.49-3.29"/>
    <path class="st6" d="M41.85,15.68c17.19,0,17.29,14.4,16.53,23.83,1.17-2.24,4.66-1.55,4.37,1.97-.27,3.39-5.27,5.12-5.14,4.75-2.54,6.97-9.5,12.23-15.77,12.23h-.09l-.04-42.78h.13"/>
    <path class="st17" d="M61.66,40c-.85-1.37-2.15-.78-2.48-.47-.34.33-.61.75-.41,1.55.12.46.59.5.49,1.18-.13.78-.49.82-.69,1-.2.17-.46.3-.58.63-.12.33-.15.67-.08.97.13.55.94.1,1.48-.13.37-.17,1.49-1.13,1.78-1.45.73-.82,1.06-2.39.49-3.29"/>
    <path class="st13" d="M41.62,19.74c-5.65,0-9.8,1.64-12.29,4.88-3.5,4.54-3.37,11.45-2.08,16.43.4,1.52.61,5.61.87,7.11,1.23,6.72,8.64,10.3,13.51,10.3h.13V19.74h-.08"/>
    <path class="st21" d="M53.9,24.64c-2.48-3.22-6.58-4.87-12.15-4.89v38.72c5.57-.06,12.24-3.99,13.38-10.3.28-1.5.48-5.59.87-7.11,1.29-4.96,1.43-11.86-2.1-16.41"/>
    <path class="st10" d="M41.06,50.19c-.08-.01-.15-.03-.21-.04.07.01.14.03.21.04M40.77,51.58c-.05-.01-.1-.02-.13-.03.04.01.09.02.13.03"/>
    <path class="st9" d="M40.85,51.6s-.05-.01-.08-.02c.03,0,.05.01.08.02M40.64,51.55s-.05-.01-.07-.02.03,0,.08.02h0Z"/>
    <path class="st6" d="M38.55,46.57c-.06-1.34,2.45-.49,3.28-.45.66.03,2.65-.42,2.82-.3,1.17.79-1.24,2.39-2.87,2.39-.43,0-3.2-.83-3.24-1.64h0Z"/>
    <path class="st10" d="M26.34,31.81c-.15.51-.26,1.07-.33,1.67,0,0,.23-.94.73-2.34-.21.3-.36.54-.39.67"/>
    <path class="st16" d="M36.95,19.84l-.07.07v.03s.05-.07.07-.1"/>
    <path class="st10" d="M41.11,50.85c-.08-.01-.15-.03-.22-.04.08.01.15.03.22.04M40.81,50.79c-.05-.01-.1-.02-.13-.03.04.01.09.02.13.03"/>
    <path class="st1" d="M40.9,50.81s-.05-.01-.08-.02c.03,0,.05.01.08.02M40.68,50.76l-.08-.02s.03.01.08.02"/>
    <path class="st7" d="M29.42,34.86s1.31,5.39,3.56,5.83,4.69-.44,4.69-.44c0,0,.23-6.34-.92-7.16-1.15-.83-3.81-2.03-7.33,1.77"/>
    <path class="st11" d="M37.68,40.23s-.05.01-.17.06c-.03-1.94-.21-4.61-.93-5.12-1.07-.79-3.49-1.89-6.72,1.13-.29-.83-.44-1.47-.44-1.47,3.53-3.81,6.19-2.61,7.33-1.77,1.15.83.92,7.17.92,7.17h0Z"/>
    <ellipse class="st18" cx="34.13" cy="37.49" rx="2.22" ry="2.22"/>
    <path class="st3" d="M34.02,38.97c-.64-.05-1.13-.7-1.07-1.41s.65-1.27,1.29-1.21,1.13.7,1.07,1.41-.65,1.27-1.29,1.22"/>
    <path class="st8" d="M34.08,38.71c-.44-.04-.91-.53-.86-1.13.05-.6.58-1.01,1.03-.98.44.04.91.53.86,1.13s-.58,1.01-1.03.97"/>
    <path class="st7" d="M33.72,37.22c-.02.22-.24.38-.5.36-.26-.02-.45-.22-.43-.43.02-.22.24-.38.5-.36s.45.21.43.43M35.15,38.48c-.01.11-.12.19-.25.18-.13-.01-.23-.11-.22-.22.01-.11.12-.19.25-.18.13.01.23.11.22.22"/>
    <path class="st10" d="M41.15,51.49c-.08-.01-.15-.03-.22-.04.08.01.15.03.22.04M40.85,51.43c-.05-.01-.1-.02-.13-.03.04.01.09.02.13.03"/>
    <path class="st1" d="M40.93,51.45s-.05-.01-.08-.02c.03,0,.05.01.08.02M40.72,51.4l-.08-.02s.03.01.08.02"/>
    <path class="st10" d="M41.07,51.34c-.09-.01-.16-.03-.23-.04.08.02.16.03.23.04M40.74,51.27c-.05-.01-.11-.03-.14-.03.05.01.09.02.14.03"/>
    <path class="st9" d="M40.83,51.29s-.06-.01-.09-.02c.03,0,.05.01.09.02M40.6,51.24s-.05-.01-.08-.02.03.01.08.02h0Z"/>
    <path class="st10" d="M41,51.11c-.09-.01-.16-.03-.23-.04.08.02.16.03.23.04M40.68,51.05c-.05-.01-.11-.03-.14-.03.05.01.09.02.14.03"/>
    <path class="st9" d="M40.77,51.07s-.06-.01-.09-.02c.03,0,.05.01.09.02M40.53,51.02s-.05-.01-.08-.02.03.01.08.02h0Z"/>
    <path class="st10" d="M41.2,51.08c-.08-.01-.16-.03-.23-.04.08.02.15.03.23.04M40.88,51.02c-.05-.01-.1-.02-.14-.03.05.01.09.02.14.03"/>
    <path class="st9" d="M40.97,51.04s-.06-.01-.09-.02c.03,0,.05.01.09.02M40.75,50.99l-.08-.02s.03.01.08.02h0Z"/>
    <path class="st7" d="M54.22,34.67s-1.31,5.39-3.56,5.83-4.69-.44-4.69-.44c0,0-.23-6.34.92-7.16,1.15-.83,3.81-2.03,7.33,1.77"/>
    <path class="st11" d="M45.96,40.05s.05.01.17.06c.03-1.94.21-4.61.93-5.12,1.07-.79,3.49-1.89,6.72,1.13.29-.83.44-1.47.44-1.47-3.53-3.81-6.19-2.61-7.33-1.77-1.15.83-.92,7.17-.92,7.17h0Z"/>
    <path class="st18" d="M47.3,37.31c0,1.23.99,2.22,2.22,2.22s2.22-.99,2.22-2.22-.99-2.22-2.22-2.22-2.22.99-2.22,2.22"/>
    <path class="st3" d="M49.62,38.78c.64-.05,1.13-.7,1.07-1.41s-.65-1.27-1.29-1.21-1.13.7-1.07,1.41.65,1.27,1.29,1.22"/>
    <path class="st8" d="M49.56,38.53c.44-.04.91-.53.86-1.13-.05-.6-.58-1.01-1.03-.98-.44.04-.91.53-.86,1.13s.58,1.01,1.03.97"/>
    <path class="st7" d="M49.92,37.04c.02.22.24.38.5.36.26-.02.45-.22.43-.43-.02-.22-.24-.38-.5-.36s-.45.21-.43.43M48.49,38.3c.01.11.12.19.25.18.13-.01.23-.11.22-.22-.01-.11-.12-.19-.25-.18-.13.01-.23.11-.22.22"/>
    <path class="st10" d="M40.77,52.13c-.08-.01-.16-.03-.23-.04.08.02.15.03.23.04M40.45,52.06c-.05-.01-.1-.03-.14-.03l.14.03Z"/>
    <path class="st2" d="M40.54,52.08s-.06-.01-.09-.02c.03,0,.05.01.09.02M40.32,52.03s-.05-.01-.08-.02.03.01.08.02"/>
    <path class="st5" d="M38.57,53.19c-.06-.87,2.41.18,3.22.21.65.02,2.6-.13,2.78-.2,1.36-.51-.08,1.45-2.82,1.55-1.26.05-3.14-1.04-3.18-1.56h0Z"/>
    <path class="st0" d="M46.63,51.52c-.67-.03-1.36.53-2.17.44-.03-.02-.05-.02-.08-.02-.19-.03-.37,0-.57.05-.25.05-.51.15-.74.24-.4.13-.86.24-1.33.2s-.02,0-.03,0h-.03c-.47.03-.92-.07-1.33-.2-.24-.08-.49-.19-.74-.24-.2-.05-.39-.08-.57-.05-.04,0-.05,0-.08.02-.81.09-1.5-.48-2.17-.44-.19.02-.45-.03-.61-.03.03.02.07.03.1.05,1.92.93,3.57,2.69,5.4,2.63h.05c1.83.06,3.48-1.7,5.4-2.63.04-.02.07-.03.1-.05-.15,0-.42.05-.61.03h0Z"/>
    <path class="st15" d="M47.2,51.47s-1.95-.75-3.33-.31c0,0-.52.2-1.05.33-.33.13-.72.16-1.1.15-.29-.01-.57-.05-.8-.09-.08-.01-.15-.03-.23-.04-.03,0-.06-.01-.09-.02l-.14-.03c-.05-.01-.08-.02-.08-.02-.44-.12-.82-.27-.82-.27-1.39-.44-3.33.31-3.33.31-.03.01-.04.02-.04.02.15,0,.42.05.61.03.67-.03,1.36.53,2.17.44.03-.02.05-.02.08-.02.19-.03.37,0,.57.05.25.05.51.15.74.24.4.13.86.24,1.33.2s.02,0,.03,0h.03c.47.03.92-.07,1.33-.2.24-.08.49-.19.74-.24.2-.05.39-.08.57-.05.04,0,.05,0,.08.02.81.09,1.5-.48,2.17-.44.19.02.45-.03.61-.03,0,0-.02,0-.04-.02h0Z"/>
    <path class="st15" d="M38.44,51.93s3.65,1.11,6.48.03l-.33-.22h-3.82l-2.33.2h0Z"/>
    <path class="st14" d="M54.69,80h-25.64c.48-2.31,1.01-4.8,1.41-8.22.24-2.06.44-4.46.57-7.35h0c.66-.51,1.29-.89,1.86-1.17.3-.15.58-.27.83-.36.09-.03.17-.06.25-.09.1-.03.19-.06.28-.09.25-.08.45-.13.61-.16.2-.05.32-.06.32-.06.06,0,.11,0,.18-.02.06-.01.13-.03.19-.05.44,1.31.93,2.7,1.45,4.08,1.68,4.53,3.58,4.4,4.79,4.43h0s.04,0,.08-.01h0c1.21-.18,3.08.09,4.74-4.28.54-1.43,1.07-2.89,1.53-4.26.02.01.04.02.05.03.14.06.28.09.43.09,0,0,.08.01.21.04.23.04.61.13,1.11.31.08.03.15.05.24.09.04.02.09.03.13.05.11.04.23.1.35.15.61.28,1.3.67,2.02,1.21,0,0,0,0,0,0,.11,2.71.3,4.97.52,6.94.41,3.65.96,6.26,1.47,8.69h-.01Z"/>
    <path d="M39.02,35.32s-.43-.65-1.26-1.29c-.52-.4-1.04-.71-1.57-.94-.65-.27-1.34-.47-2.02-.56-.61-.07-1.29-.05-2.07.06-.6.11-1.19.29-1.69.52-.35.12-.64.29-.86.43-.09.05-.16.1-.24.14l-1.07.68,1.24-.29c.06-.01.12-.03.19-.05.26-.07.58-.15.95-.21.09-.01.18-.03.27-.05.16-.03.32-.06.49-.07.19-.01.38-.03.58-.04l.26-.02c.69,0,1.27.04,1.78.16.56.1,1.14.28,1.67.53.5.24.98.48,1.36.75.76.51,1.18.93,1.18.93.1.1.24.16.38.16.1,0,.2-.03.29-.09.25-.16.32-.5.16-.74v-.02s-.02.01-.02.01ZM54.44,33.68c-.07-.04-.15-.09-.24-.14-.23-.14-.51-.31-.85-.43-.51-.23-1.1-.4-1.71-.52-.78-.1-1.46-.13-2.07-.05-.67.09-1.37.29-2.02.56-.52.23-1.05.54-1.57.94-.82.63-1.23,1.24-1.26,1.29h0c-.14.23-.11.51.07.69.1.1.24.16.38.16s.28-.06.38-.16h0s.45-.44,1.18-.94c.37-.27.85-.51,1.35-.75.53-.25,1.11-.43,1.68-.53.51-.12,1.09-.17,1.77-.16l.27.02c.2.01.39.03.58.04.16,0,.33.04.48.07.09.02.18.04.27.05.38.05.69.14.95.21.07.02.13.04.19.05l1.24.29-1.09-.68h0Z"/>
    <path class="st22" d="M41.72,47.61c-.76-.18-1.58-.02-2.41.3l-3.9.48,1.27.45-1.12.26v.4l-1.44.9h.92l-1.65,1.78,1.32-.95c-5.27,6.38,4.29,7.23,4.29,7.23-.76-2.2-.48-3.95.23-5.3,1.04-1.99,3.91-1.99,4.95,0,.7,1.35.99,3.09.23,5.29,0,0,1.38-.12,2.8-.62v.62l.53-.83c.3-.13.58-.27.86-.43l-.22.79.74-1.15.25.43.22-.87c1.06-1.17,1.17-2.99-1.43-5.8,0,0-3.79-3.64-6.45-3.01h0Z"/>
    <path class="st22" d="M70.31,70.92c-2.49-4.73-2.37-4.27-3.75-7.48-1.38-3.2-1.49-5.18-1.61-6.56-.11-1.37,2.34-18.58,2.34-23.07s-1.16-9.06-2.77-11.96c-1.61-2.9-4.05-6.18-6-7.17-1.95-.99-7.39-4.53-9.46-5.07-2.07-.53-5.03-1.12-7.22-1.12s-4.58.72-6.65,2.33c-.85.65-1.59,1.74-2.18,2.79-8.1,3.15-9.8,11.2-9.82,18.53,0,1.84.09,3.63.22,5.29.21.21.44.45.65.76.15.22.3.47.42.78.58,1.5.8,1.24.8,1.24l.39-1.33s-.05-11.96,6.7-15.8c.04-.01.08-.03.12-.05,2.92-.96,5.61,1.05,8.74,1.05h.24c.23,0,.45-.02.68-.05h.03c.05,0,.11-.01.16-.02,2.71-.34,5.13-1.84,7.72-.98,1.2.4,2.8,1.86,4.26,3.54.99,2.93,1.31,5.63,1.43,5.82.23.38.46,6.89,0,11.95-.15,1.67-.29,3.03-.42,4.17-.16,1.42-.31,2.48-.44,3.28-.18,1.11-.33,1.75-.46,2.23-.22.85-.35,1.23-.41,2.85-.1,2.82.14,5.22.61,7.29.08.36.17.72.27,1.07.12.42.25.83.38,1.22-.05,0-.1,0-.15-.01.08.08.15.16.22.24.21.66.95,2.68,2.87,4.99,3.17,3.73,6.95,4.43,6.95,4.43,0,0-3.38-1.4-5.23-9.27-.04-.15-.1-.45-.19-.82,1.49,4.91,6.91,7.18,6.91,7.18,0,0-2.35-2.09-3.71-5.88,2.06,1.76,4.5,3.02,5.65,4.43,2.03,2.49,2.41,4.96,1.04,6.72,0,0,3.14-2.83.65-7.55h.01Z"/>
  </g>
</svg>