<?xml version="1.0" encoding="UTF-8"?>
<svg id="Layer_2" xmlns="http://www.w3.org/2000/svg" version="1.1" xmlns:xlink="http://www.w3.org/1999/xlink" viewBox="0 0 80 80">
  <!-- Generator: Adobe Illustrator 30.2.1, SVG Export Plug-In . SVG Version: 2.1.1 Build 1)  -->
  <defs>
    <style>
      .st0 {
        fill: #dac6a4;
      }

      .st1 {
        fill: #b5957e;
      }

      .st2 {
        fill: #b8987d;
      }

      .st3 {
        fill: #714223;
      }

      .st4 {
        fill: #743d36;
      }

      .st5 {
        fill: #ccad8a;
      }

      .st6 {
        fill: #ecdab6;
      }

      .st7 {
        fill: #d7bd9d;
      }

      .st8 {
        fill: #fff;
      }

      .st9 {
        fill: #272213;
      }

      .st10 {
        fill: #b05d53;
      }

      .st11 {
        fill: url(#linear-gradient2);
      }

      .st11, .st12, .st13, .st14 {
        isolation: isolate;
      }

      .st11, .st14 {
        opacity: .66;
      }

      .st15 {
        fill: #e5b344;
      }

      .st12 {
        fill: url(#linear-gradient1);
      }

      .st12, .st13 {
        opacity: .62;
      }

      .st16 {
        fill: #b7967d;
      }

      .st17 {
        fill: none;
      }

      .st13 {
        fill: url(#linear-gradient3);
      }

      .st18 {
        fill: #d2bb9b;
      }

      .st19 {
        fill: #ba9d82;
      }

      .st20 {
        fill: #dcc5a0;
      }

      .st14 {
        fill: url(#linear-gradient);
      }

      .st21 {
        fill: #90463e;
      }

      .st22 {
        fill: #c1a587;
      }

      .st23 {
        fill: #44361f;
      }

      .st24 {
        fill: #a98d76;
      }

      .st25 {
        fill: #462e1b;
      }

      .st26 {
        clip-path: url(#clippath);
      }

      .st27 {
        fill: #ebd9b5;
      }

      .st28 {
        fill: #3c3d39;
      }
    </style>
    <clipPath id="clippath">
      <rect class="st17" x="35.58" y="55.26" width="9.07" height="5.3"/>
    </clipPath>
    <linearGradient id="linear-gradient" x1="781.33" y1="-98.83" x2="781.53" y2="-62.54" gradientTransform="translate(-251.68 12.52) scale(.36 -.36)" gradientUnits="userSpaceOnUse">
      <stop offset="0" stop-color="#fff"/>
      <stop offset="1" stop-color="#6189ae"/>
    </linearGradient>
    <linearGradient id="linear-gradient1" x1="778.25" y1="-103.88" x2="785.88" y2="-32.61" gradientTransform="translate(-251.68 12.52) scale(.36 -.36)" gradientUnits="userSpaceOnUse">
      <stop offset="0" stop-color="#fff"/>
      <stop offset="1" stop-color="#6189ae"/>
    </linearGradient>
    <linearGradient id="linear-gradient2" x1="832.72" y1="-99.11" x2="832.92" y2="-62.82" gradientTransform="translate(-251.68 12.52) scale(.36 -.36)" gradientUnits="userSpaceOnUse">
      <stop offset="0" stop-color="#fff"/>
      <stop offset="1" stop-color="#6189ae"/>
    </linearGradient>
    <linearGradient id="linear-gradient3" x1="828.91" y1="-109.25" x2="836.53" y2="-37.97" gradientTransform="translate(-251.68 12.52) scale(.36 -.36)" gradientUnits="userSpaceOnUse">
      <stop offset="0" stop-color="#fff"/>
      <stop offset="1" stop-color="#6189ae"/>
    </linearGradient>
  </defs>
  <g id="Layer_1-2">
    <path class="st15" d="M0,0h80v80H0V0Z"/>
    <path class="st20" d="M40.08,49.82v29.97h-16.37c-.27-.1-.4-.16-.4-.16,0-3.82.57-6.81,1.43-9.13,2.08-5.61,5.89-7.4,7.65-7.94.57-.18.93-.22.93-.22.06,0,.12,0,.18-.01.52-.08.94-.53,1.27-1.23.25-.53.46-1.19.63-1.97.07-.3.12-.61.17-.94.08-.55.16-1.13.23-1.74.03-.37.07-.73.1-1.11.14-1.83.19-3.84.19-5.74,0,0,2.2.23,3.98.23h0Z"/>
    <path class="st27" d="M56.92,79.62s-.15.05-.39.16h-16.45v-29.97h.04c1.77,0,3.99-.23,3.99-.23,0,1.89.04,3.87.18,5.7.04.36.08.73.1,1.08.07.63.15,1.23.24,1.78h0c.03.26.08.49.12.72.16.78.36,1.47.59,2.01.29.68.65,1.16,1.09,1.35.14.06.29.09.44.09,0,0,.63.08,1.57.44,1.93.75,5.16,2.71,7.02,7.71.86,2.33,1.43,5.31,1.43,9.13h0Z"/>
    <g class="st26">
      <path class="st19" d="M44.65,58.1h0c-.41.64-1.8,2.45-4.54,2.45h-.03c-2.6-.01-4.11-1.87-4.5-2.43.08-.55.16-1.13.23-1.73.03-.35.07-.72.11-1.1,1.26.31,2.65.51,4.11.54h.05c1.52-.03,2.91-.24,4.22-.58.04.35.08.72.1,1.07.07.63.15,1.22.24,1.77"/>
    </g>
    <path class="st5" d="M39.9,15.66c-17.34,0-17.43,14.35-16.66,23.75-1.18-2.23-4.71-1.55-4.42,1.97.28,3.38,5.32,5.11,5.18,4.73,2.63,6.95,9.58,12.19,15.9,12.19h.13V15.66h-.13Z"/>
    <path class="st24" d="M19.92,39.9c.85-1.36,2.19-.77,2.5-.47.35.33.62.75.41,1.55-.12.46-.6.5-.49,1.18.13.77.49.81.7.99.2.17.45.3.57.63.13.33.15.67.08.97-.13.55-.95.1-1.49-.13-.36-.17-1.51-1.13-1.8-1.44-.72-.81-1.07-2.39-.49-3.28"/>
    <path class="st7" d="M39.99,15.66c17.34,0,17.43,14.35,16.67,23.75,1.18-2.23,4.7-1.55,4.41,1.97-.27,3.38-5.32,5.11-5.18,4.73-2.56,6.95-9.58,12.19-15.9,12.19h-.09l-.04-42.64h.13"/>
    <path class="st24" d="M59.96,39.9c-.85-1.36-2.17-.77-2.5-.47-.35.33-.61.75-.41,1.55.12.46.6.5.49,1.18-.13.77-.49.81-.69.99-.2.17-.47.3-.59.63s-.15.67-.08.97c.13.55.95.1,1.49-.13.37-.17,1.51-1.13,1.8-1.44.73-.81,1.07-2.39.49-3.28"/>
    <path class="st20" d="M39.76,19.71c-5.7,0-9.88,1.64-12.4,4.86-3.53,4.52-3.4,11.42-2.1,16.37.4,1.52.61,5.6.88,7.09,1.24,6.7,8.71,10.26,13.62,10.26h.13V19.71h-.08"/>
    <path class="st27" d="M52.14,24.59c-2.5-3.21-6.63-4.85-12.25-4.88v38.59c5.62-.06,12.34-3.97,13.49-10.26.28-1.5.48-5.57.88-7.09,1.3-4.94,1.44-11.82-2.12-16.36"/>
    <path class="st17" d="M39.2,50.06c-.08-.01-.15-.03-.21-.04.07.01.14.03.21.04M38.9,51.45c-.05-.01-.1-.02-.13-.03.04.01.09.02.13.03"/>
    <path class="st16" d="M38.99,51.47s-.05-.01-.08-.02c.03,0,.05.01.08.02M38.77,51.42s-.05-.01-.07-.02.03,0,.08.02h0Z"/>
    <path class="st7" d="M36.62,46.46c-.07-1.33,2.47-.49,3.31-.45.66.03,2.67-.42,2.85-.3,1.18.79-1.25,2.38-2.89,2.38-.44,0-3.23-.83-3.27-1.64h0Z"/>
    <path class="st17" d="M24.35,31.75c-.16.51-.26,1.07-.34,1.67,0,0,.23-.94.73-2.33-.22.3-.36.54-.4.67"/>
    <path class="st23" d="M35.05,19.81l-.07.07v.03s.05-.07.07-.1"/>
    <path class="st17" d="M39.25,50.73c-.08-.01-.16-.03-.22-.04.08.01.15.03.22.04M38.95,50.67c-.05-.01-.1-.02-.13-.03.04.01.09.02.13.03"/>
    <path class="st1" d="M39.03,50.69s-.05-.01-.08-.02c.03,0,.05.01.08.02M38.82,50.64l-.08-.02s.03,0,.08.02"/>
    <path class="st8" d="M27.46,34.78s1.32,5.37,3.59,5.81,4.73-.43,4.73-.43c0,0,.23-6.31-.93-7.14-1.16-.83-3.84-2.03-7.39,1.76"/>
    <path class="st18" d="M35.78,40.14s-.05.01-.17.06c-.03-1.94-.21-4.6-.94-5.11-1.08-.78-3.52-1.89-6.77,1.13-.3-.83-.44-1.46-.44-1.46,3.56-3.8,6.24-2.6,7.39-1.77,1.16.83.93,7.15.93,7.15h0Z"/>
    <path class="st25" d="M34.44,37.41c0,1.22-1,2.21-2.24,2.21s-2.24-.99-2.24-2.21,1-2.21,2.24-2.21,2.24.99,2.24,2.21"/>
    <path class="st3" d="M32.1,38.88c-.65-.05-1.14-.7-1.08-1.41s.65-1.26,1.3-1.21,1.14.7,1.08,1.41-.65,1.27-1.3,1.21h0Z"/>
    <path class="st9" d="M32.15,38.62c-.45-.04-.91-.53-.87-1.13.05-.6.59-1.01,1.04-.97.45.04.91.53.86,1.13s-.59,1.01-1.04.97h0Z"/>
    <path class="st8" d="M31.79,37.14c-.02.22-.25.38-.5.35-.26-.02-.46-.21-.44-.43s.24-.38.5-.36c.26.02.46.21.44.43h0ZM33.24,38.4c-.01.11-.12.19-.25.18-.13-.01-.23-.11-.22-.21.01-.11.12-.19.25-.18.13.01.23.11.22.21"/>
    <path class="st17" d="M39.29,51.36c-.08-.01-.16-.03-.22-.04.08.01.15.03.22.04M38.98,51.3c-.05-.01-.1-.02-.13-.03.04.01.09.02.13.03"/>
    <path class="st1" d="M39.07,51.32s-.05-.01-.08-.02c.03,0,.05.01.08.02M38.85,51.27l-.08-.02s.03,0,.08.02"/>
    <path class="st17" d="M39.2,51.21c-.09-.01-.17-.03-.23-.04.08.02.16.03.23.04M38.88,51.15c-.05-.01-.11-.03-.14-.03.05.01.09.02.14.03"/>
    <path class="st16" d="M38.97,51.17s-.06-.01-.09-.02c.03,0,.05.01.09.02M38.73,51.12s-.05-.01-.08-.02.03.01.08.02h0Z"/>
    <path class="st17" d="M39.13,50.99c-.09-.01-.17-.03-.23-.04.08.02.16.03.23.04M38.81,50.92c-.05-.01-.11-.03-.14-.03.05.01.09.02.14.03"/>
    <path class="st16" d="M38.9,50.94s-.06-.01-.09-.02c.03,0,.05.01.09.02M38.67,50.89s-.05-.01-.08-.02.03.01.08.02h0Z"/>
    <path class="st17" d="M39.34,50.96c-.08-.01-.16-.03-.23-.04.08.02.15.03.23.04M39.02,50.89c-.05-.01-.1-.02-.14-.03.05.01.09.02.14.03"/>
    <path class="st16" d="M39.1,50.91s-.06-.01-.09-.02c.03,0,.05.01.09.02M38.88,50.86l-.08-.02s.03.01.08.02h0Z"/>
    <path class="st8" d="M52.47,34.6s-1.32,5.37-3.59,5.81-4.73-.43-4.73-.43c0,0-.23-6.31.93-7.14,1.16-.83,3.84-2.03,7.39,1.76"/>
    <path class="st18" d="M44.14,39.96s.05.01.17.06c.03-1.94.21-4.6.94-5.11,1.08-.78,3.52-1.89,6.77,1.13.3-.83.44-1.46.44-1.46-3.56-3.8-6.24-2.6-7.39-1.77-1.16.83-.93,7.15-.93,7.15h0Z"/>
    <path class="st25" d="M45.49,37.22c0,1.22,1,2.21,2.24,2.21s2.24-.99,2.24-2.21-1-2.21-2.24-2.21-2.24.99-2.24,2.21"/>
    <path class="st3" d="M47.82,38.7c.65-.05,1.14-.7,1.08-1.41s-.65-1.26-1.3-1.21-1.14.7-1.08,1.41.65,1.27,1.3,1.21h0Z"/>
    <path class="st9" d="M47.77,38.44c.45-.04.91-.53.87-1.13-.05-.6-.59-1.01-1.04-.97-.45.04-.91.53-.86,1.13s.59,1.01,1.04.97h0Z"/>
    <path class="st8" d="M48.13,36.96c.02.22.25.38.5.35.26-.02.46-.21.44-.43s-.24-.38-.5-.36c-.26.02-.46.21-.44.43h0ZM46.68,38.21c.01.11.12.19.25.18.13-.01.23-.11.22-.21-.01-.11-.12-.19-.25-.18-.13.01-.23.11-.22.21"/>
    <path d="M37.14,34.69s-.43-.65-1.27-1.29c-.53-.4-1.04-.7-1.58-.93-.65-.27-1.35-.47-2.03-.55-.61-.07-1.3-.05-2.09.06-.61.11-1.2.29-1.7.51-.36.12-.64.29-.87.43-.09.05-.17.1-.25.14l-1.08.68,1.25-.29c.06-.01.12-.03.19-.05.26-.07.58-.15.96-.21.09-.01.18-.03.27-.05.16-.03.32-.06.49-.07.19-.01.39-.03.59-.04l.26-.02c.69,0,1.28.04,1.8.16.57.1,1.15.28,1.69.52.51.24.99.48,1.37.75.76.5,1.19.93,1.19.93.1.1.25.16.39.16.1,0,.21-.03.3-.09.25-.16.32-.5.16-.74v-.02s-.01,0-.01,0ZM52.69,33.06c-.07-.04-.15-.09-.24-.14-.23-.14-.51-.31-.86-.43-.51-.23-1.11-.4-1.72-.52-.79-.1-1.47-.12-2.09-.05-.68.09-1.38.28-2.03.55-.53.23-1.06.54-1.58.93-.83.63-1.24,1.24-1.27,1.28h0c-.14.23-.11.51.07.69.1.1.24.16.38.16s.28-.06.38-.16h0s.45-.44,1.19-.93c.37-.27.86-.51,1.36-.75.54-.25,1.12-.43,1.7-.53.51-.12,1.1-.17,1.78-.16l.27.02c.2.01.39.03.59.04.17,0,.33.04.49.07.09.02.18.04.27.05.38.05.7.14.96.21.07.02.13.04.19.05l1.25.29-1.09-.68h0Z"/>
    <path class="st17" d="M38.91,52c-.08-.01-.16-.03-.23-.04.08.02.16.03.23.04M38.59,51.94c-.05-.01-.1-.03-.14-.03l.14.03Z"/>
    <path class="st2" d="M38.67,51.96s-.06-.01-.09-.02c.03,0,.05.01.09.02M38.45,51.91s-.05-.01-.08-.02.03.01.08.02"/>
    <path class="st6" d="M36.69,53.06c-.07-.86,2.43.18,3.25.21.65.02,2.62-.13,2.8-.2,1.37-.51-.08,1.45-2.84,1.55-1.27.05-3.17-1.03-3.21-1.56h0Z"/>
    <path class="st0" d="M44.81,51.4c-.68-.03-1.37.53-2.19.44-.03-.02-.05-.02-.08-.02-.19-.03-.37,0-.58.05-.25.05-.51.15-.75.24-.41.13-.87.24-1.34.2s-.02,0-.03,0h-.03c-.47.03-.93-.07-1.34-.2-.24-.08-.49-.18-.75-.24-.2-.05-.39-.08-.58-.05-.04,0-.05,0-.08.02-.82.09-1.51-.47-2.19-.44-.19.02-.46-.03-.61-.03.03.02.07.03.1.05,1.93.93,3.6,2.68,5.44,2.62h.05c1.85.06,3.51-1.69,5.44-2.62.04-.02.07-.03.1-.05-.15,0-.42.05-.61.03h0Z"/>
    <path class="st22" d="M45.38,51.35s-1.96-.75-3.36-.31c0,0-.52.2-1.06.32-.33.13-.73.16-1.11.15-.29-.01-.57-.05-.8-.09-.08-.01-.15-.03-.23-.04-.03,0-.06-.01-.09-.02l-.14-.03c-.05-.01-.08-.02-.08-.02-.45-.12-.83-.27-.83-.27-1.4-.44-3.36.31-3.36.31-.03.01-.04.02-.04.02.15,0,.42.05.61.03.68-.03,1.37.53,2.19.44.03-.02.05-.02.08-.02.19-.03.37,0,.58.05.25.05.51.15.75.24.41.13.87.24,1.34.2s.02,0,.03,0h.03c.47.03.93-.07,1.34-.2.24-.08.49-.18.75-.24.2-.05.39-.08.58-.05.04,0,.05,0,.08.02.82.09,1.51-.47,2.19-.44.19.02.46-.03.61-.03,0,0-.02,0-.04-.02h0Z"/>
    <path class="st22" d="M36.55,51.8s3.68,1.11,6.53.03l-.33-.22h-3.85l-2.35.19h0Z"/>
    <path class="st10" d="M56.91,80H23.12c0-.93.04-1.82.1-2.65.09-1.3.26-2.49.47-3.58,2.16-11.15,9.76-11.71,9.76-11.71l4.38,2.92,2.15,1.43,1.95-1.28,4.73-3.09c6.59,1.51,8.99,7.16,9.85,11.72.25,1.33.36,2.57.41,3.58.08,1.6,0,2.65,0,2.65"/>
    <path class="st21" d="M43.02,69.68h7.37c-.05.81-1.25,1.54-1.37,2.21h-4.63c-.29-.46-.6-.98-.94-1.52-.14-.23-.28-.46-.43-.69M29.02,69.68h7.27c-.14.23-.29.47-.43.69-.33.54-.65,1.06-.94,1.52h-4.57c-.14-.82-1.31-1.58-1.34-2.21"/>
    <path class="st14" d="M37,41.35c-.85,2.72-3.06,4-4.49,4.55-.8.31-1.66.42-2.51.34-3.66-.35-5.2-2.55-5.86-4.39,2.07-1.19,8.08-4.06,12.86-.5h0Z"/>
    <path class="st12" d="M37.67,37.45s-.03.04-.04.06l-.07.1c-.07.1-.17.16-.28.18.16,1.4.03,2.58-.28,3.56-4.79-3.55-10.79-.69-12.86.5-.38-1.08-.46-2.04-.47-2.42.43-3.35,3.12-6,6.49-6.35h0c.26-.03.51-.04.78-.04h.23c.11,0,.23,0,.34.02.06,0,.12.01.18.02l.18.02c2.6.33,4.79,2.03,5.8,4.35h0Z"/>
    <path class="st11" d="M55.56,41.85c-.65,1.84-2.2,4.03-5.86,4.38-.85.08-1.71-.03-2.51-.34-1.43-.56-3.65-1.83-4.49-4.55,4.79-3.55,10.79-.68,12.86.52h0Z"/>
    <path class="st13" d="M56.04,39.26s.02,1.19-.48,2.6c-2.07-1.19-8.07-4.06-12.86-.52-.22-.7-.34-1.5-.34-2.4,0-.37.02-.75.07-1.16-.1-.01-.21-.07-.27-.18l-.07-.1c-.04-.06-.09-.12-.15-.17.56-1.38,1.57-2.24,2.84-3.05,1.2-.77,2.85-.71,4.41-.71,1.11,0,1.92-.29,2.87.13,2.4,1.04,4.14,2.94,4.39,5.56h-.39Z"/>
    <path class="st8" d="M31.88,33.09l-.18-.02c-.06,0-.12-.01-.18-.02-.11-.01-.23-.01-.34-.02h-.16c-.15,0-.29,0-.44.02,0,0-.15,0-.41.02h0c-1.15.08-4.39.39-6.19,1.57-.19.13-.4.21-.62.26-.48.1-1.35.28-1.92.36-.34.05-.6.33-.63.69-.04.48,0,1.07.35,1.14,0,0,1.18-.16,1.37,1.48.04.39.37.68.74.68h.41s0,.06,0,.18c.04,1.02.52,6.24,6.33,6.81.85.08,1.71-.03,2.51-.34,1.95-.76,5.35-2.85,4.77-8.11.1-.01.21-.07.28-.18l.07-.1s.03-.04.04-.06c.15-.19.37-.3.6-.33v-1.41s-3.33-2.23-6.4-2.62h0ZM36.8,40.5c-.62,3.09-2.88,4.5-4.35,5.08-.76.3-1.58.42-2.39.34-5.53-.55-6-5.65-6.04-6.67v-.18s.23-4.21,4.35-5.05c.65-.1,1.38-.15,2.21-.12,0,0,4.16-.2,5.92,2.9.66,1.31.35,3.36.3,3.7M58.92,35.95c-.03-.36-.29-.64-.63-.69-.57-.08-1.43-.25-1.92-.36-.22-.05-.43-.14-.62-.26-.99-.64-2.42-1.03-3.68-1.26-1.58-.29-2.93-.33-2.93-.33-1.42-.11-3.02.35-4.39.92-1.87.77-3.31,1.74-3.31,1.74v1.41c.18.01.36.09.5.21.06.05.11.1.15.17l.07.1c.07.1.17.16.27.18-.04.4-.07.79-.07,1.16,0,4.42,3.03,6.26,4.84,6.96.8.31,1.66.42,2.51.34,6.45-.62,6.34-6.98,6.34-6.98h.41c.38,0,.7-.29.74-.68.19-1.64,1.37-1.48,1.37-1.48.36-.08.39-.66.35-1.14h0ZM55.69,39.26c-.04,1.02-.51,6.12-6.04,6.67-.81.08-1.63-.03-2.39-.34-1.47-.59-3.72-1.99-4.35-5.08-.05-.33-.36-2.38.3-3.7,1.76-3.1,5.92-2.9,5.92-2.9.83-.03,1.56.02,2.21.12,4.11.84,4.35,5.05,4.35,5.05v.18h0Z"/>
    <path class="st8" d="M37.83,35.94h3.87v.93h-3.87v-.93ZM42.86,35.31c0,.13-1.38.23-3.09.23s-3.09-.1-3.09-.23,1.38-.23,3.09-.23,3.09.1,3.09.23"/>
    <path class="st28" d="M63.32,33.85s-2.12-.53-3.42-3.47c-1.3-2.94-.83-4.1-1.32-5.88-.47-1.72-1.48-2.93-2.3-3.66.05.03.09.05.14.08,3.5,1.82,3.66,3.42,3.67,3.62,0-.22-.07-3.6-3.24-5.64-.75-.49-1.74-.96-2.77-1.38,4.53.14,7.59-2.17,7.59-2.17,0,0-5.08,2-10.23,0-3.01-1.17-6.52-3.25-8.39-3.25s-4.29.51-6.21,1.53c-1.56.82-3.1,2.1-3.74,2.1s-.49.23-3.41.75c-2.93.53-4.26.38-8,4.08-3.73,3.7-3.71,13.36-3.71,13.36,0,0,.02-1.92,1.35-3.64.63-.82.9-1.22,1.01-1.41-.37.72-1.84,3.79-1.77,7.09.14,6.65-1.48,7.56-1.48,7.56,0,0,.99-.16,2.37-1.62-.15.82-.22,1.59-.13,2.13,1.16,7.06-1.26,9.45-1.26,9.45,0,0,2.39-1.43,3.79-4.16.55-1.08.86-2.13,1.03-3.07.03.55.08,1.16.14,1.86.34,3.45-2.23,6.04-2.23,6.04,0,0,3.11-1.15,4.4-3.55.08.97.13,1.93.09,2.81-.08,2.26-1.03,2.86-1.03,2.86,1.36-.76,2.17-2.29,2.69-4.46.27-1.11.46-2.38.61-3.8.04-.37.08-.75.11-1.13l.06-.06s-.03-.06-.04-.09c.01-.13.03-.26.04-.4.16-1.79.2-4.45.2-7.17,0-1-.01-2-.02-2.98.28.68.57,1.35.86,2,.53,1.24.73,2.87.73,2.87,0,0,1.67-2.67.79-6.78-.17-.8-.3-1.54-.41-2.21,1.29,2.77,4.1,3.17,4.1,3.17,0,0-1.29-1.06-1.37-3.7-.04-1.35.29-2.44.83-3.51.16.81.39,1.67.73,2.59.99,2.75,3.32,4.6,4.87,5.58,0,0,.02.01.03.01.05.03.09.06.13.09.79.49,1.35.73,1.35.73,0,0-.65-.5-1.35-1.45-.04-.06-.09-.13-.13-.19,0-.01-.01-.03-.03-.04-.85-1.21-1.72-3.02-1.63-5.37,0-.1,0-.19,0-.28.21.62.44,1.17.71,1.57.36.54.65.97.92,1.32,0,.01.02.02.03.03.05.06.09.12.13.17.69.85,1.25,1.22,2.47,1.86,2.78,1.46,5.61,1.5,5.61,1.5,0,0-2.5-.74-3.88-3.88-.26-.6-.55-1.22-.83-1.81.73.84,1.67,1.67,2.9,2.35,2.84,1.57,4.56,4.28,5.75,7.41.05.13.1.26.14.39.47,1.3.86,2.67,1.21,4.05,0,.03.01.06.02.08,1.01,4.24-1.08,8.11-1.65,9.06,0,.01,0,.03,0,.05.27,1.87.79,3.26,1.74,4.06-.15-.17-.71-.96-.57-3,.06-.92.2-1.92.36-2.92.87,2.59,3.44,4.04,3.44,4.04,0,0-1.96-2.89-1.33-6.43.13-.72.23-1.35.31-1.92.05.99.21,2.1.59,3.27.93,2.94,2.85,4.61,2.85,4.61,0,0-1.84-2.67-.16-9.9.13-.55.14-1.35.09-2.21.23.36.45.64.65.88-.1,1.09-.58,2.01-.52,1.92.06-.08.5-.58,1-1.43.47.42.76.5.76.5,0,0-.26-.21-.47-1.04.82-1.62,1.62-4.16.92-7.37-.24-1.12-.62-2.3-1.03-3.4,0-.07-.02-.14-.03-.2,1.65.6,3.79.54,3.79.54h0Z"/>
    <path class="st4" d="M41.93,65.13v14.87h-4.1v-15.02l2.15,1.43,1.95-1.28Z"/>
  </g>
</svg>