<?xml version="1.0" encoding="UTF-8"?>
<svg id="Layer_2" xmlns="http://www.w3.org/2000/svg" version="1.1" xmlns:xlink="http://www.w3.org/1999/xlink" viewBox="0 0 80 80">
  <!-- Generator: Adobe Illustrator 30.2.1, SVG Export Plug-In . SVG Version: 2.1.1 Build 1)  -->
  <defs>
    <style>
      .st0 {
        fill: #212625;
      }

      .st1 {
        fill: #f1d4c8;
      }

      .st2 {
        fill: #633031;
      }

      .st3 {
        fill: #24241d;
        opacity: .51;
      }

      .st3, .st4, .st5 {
        isolation: isolate;
      }

      .st6 {
        fill: #c38589;
      }

      .st7 {
        fill: #fff;
      }

      .st8 {
        fill: url(#linear-gradient1);
      }

      .st9 {
        fill: none;
      }

      .st10 {
        fill: #b59376;
      }

      .st11 {
        fill: #c6a095;
      }

      .st12 {
        fill: #3e1e19;
      }

      .st13 {
        fill: #4983a2;
      }

      .st4 {
        fill: #502c24;
        opacity: .2;
      }

      .st14 {
        fill: #debaad;
      }

      .st15 {
        fill: #f0d4c7;
      }

      .st16 {
        fill: #dcb9ac;
      }

      .st5 {
        fill: #48443b;
        opacity: .3;
      }

      .st17 {
        fill: #4f6771;
      }

      .st18 {
        fill: url(#linear-gradient);
      }

      .st19 {
        fill: #49443b;
      }
    </style>
    <linearGradient id="linear-gradient" x1="33.25" y1="107.13" x2="33.25" y2="103.77" gradientTransform="translate(-9.17 142.8) rotate(4.72) scale(1 -1)" gradientUnits="userSpaceOnUse">
      <stop offset="0" stop-color="#29383e"/>
      <stop offset=".12" stop-color="#3d5059"/>
      <stop offset=".29" stop-color="#586f7d"/>
      <stop offset=".47" stop-color="#6d8799"/>
      <stop offset=".65" stop-color="#7c99ad"/>
      <stop offset=".82" stop-color="#85a3b9"/>
      <stop offset="1" stop-color="#89a7be"/>
    </linearGradient>
    <linearGradient id="linear-gradient1" x1="-1609.82" y1="-28.54" x2="-1609.82" y2="-31.86" gradientTransform="translate(-1558.88 142.8) rotate(175.28)" gradientUnits="userSpaceOnUse">
      <stop offset="0" stop-color="#29383e"/>
      <stop offset=".12" stop-color="#3d5059"/>
      <stop offset=".29" stop-color="#586f7d"/>
      <stop offset=".47" stop-color="#6d8799"/>
      <stop offset=".65" stop-color="#7c99ad"/>
      <stop offset=".82" stop-color="#85a3b9"/>
      <stop offset="1" stop-color="#89a7be"/>
    </linearGradient>
  </defs>
  <g id="Layer_1-2">
    <path class="st13" d="M0,0h80v79.99H0V0Z"/>
    <path class="st12" d="M60.67,54.49c-.69-2.87-.26-1.84.61-4.45,0,0-.12.05-.3.14,1.29-2.65,2.02-5.57,2.02-8.66,0-11.71-10.31-21.2-23.04-21.2s-23.04,9.49-23.04,21.2c0,3.05.71,5.94,1.97,8.57l-.1-.05c.87,2.62,1.29,1.58.6,4.45-.59,2.48-2.35,3.13-2.35,3.13,0,0,2.72-.94,3.38-1.59.32-.31,1.17-1.18,1.43-1.44,0,.01.02.02.02.02-.15.28-.51,1.21,0,2.99.66,2.33,3.36,3.89,3.36,3.89,0,0-1.62-1.86-1.17-3.87,0,0-.1.81,2.54,3.07s7.55,4.24,7.55,4.24c0,0-.1-1.41-.15-2.94,1.92.48,3.92.75,5.99.75s4.19-.28,6.15-.78c-.06,1.55-.15,2.98-.15,2.98,0,0,4.92-1.98,7.55-4.24s2.54-3.07,2.54-3.07c.45,2.03-1.17,3.87-1.17,3.87,0,0,2.7-1.56,3.36-3.89.62-2.18-.06-3.08-.06-3.08,0,0,1.13,1.15,1.51,1.51.66.64,3.38,1.59,3.38,1.59,0,0-1.76-.65-2.36-3.13"/>
    <path class="st1" d="M51.51,42.06c.02-2.09,1.34-3.92,3.31-4.97-.04.52-.08,1.03-.12,1.53,1.24-2.29,4.83-1.54,4.5,2.08-.31,3.5-5.42,5.26-5.33,4.86-.05.27-.11.55-.18.82-1.34-1.1-2.17-2.63-2.16-4.31h-.01Z"/>
    <path class="st14" d="M58.07,39.16c-.86-1.41-2.22-.81-2.56-.51-.35.33-.64.77-.43,1.6.11.47.61.51.48,1.22-.14.79-.51.84-.72,1.02-.21.17-.48.31-.61.65s-.15.69-.09.99c.13.58.97.13,1.53-.12.38-.16,1.55-1.15,1.85-1.47.75-.83,1.12-2.44.54-3.39"/>
    <path class="st1" d="M28.9,42.06c-.02-2.09-1.34-3.92-3.31-4.97.04.52.08,1.03.12,1.53-1.24-2.29-4.83-1.54-4.5,2.08.31,3.5,5.42,5.26,5.33,4.86.05.27.11.55.18.82,1.34-1.1,2.17-2.63,2.16-4.31h.01Z"/>
    <path class="st14" d="M22.34,39.16c.86-1.41,2.22-.81,2.56-.51.35.33.64.77.43,1.6-.11.47-.61.51-.48,1.22.14.79.51.84.72,1.02.21.17.48.31.61.65s.15.69.09.99c-.13.58-.97.13-1.53-.12-.38-.16-1.55-1.15-1.85-1.47-.75-.83-1.12-2.44-.54-3.39"/>
    <path class="st15" d="M64.25,79.99H16.42c0-.18.01-.35.01-.53,0,0,.11-5.78.38-6.28.51-2.02-.4-2.94,3.14-4.88.05-.01.82-.22,1.98-.57,2.41-.69,6.52-1.9,8.65-2.73h.02c.48-.21.87-.39,1.11-.53,0-.01.01-.01.01-.01.06-.04.09-.06.12-.09.01-.01.06-.05.08-.08.02-.04.07-.06.09-.09.07-.33,1.05-1.77,1.41-3.36.01-.02.02-.03.04-.06.08-.32.12-.64.14-.96.01-.52.04-1.03.04-1.49.01-.26.02-.51.02-.73,0-.09,0-.19.01-.27,0-.09.01-.18.01-.26v-.07c.01-.21.01-.4.01-.53.01-.14.01-.23.01-.23,0,0-5.47-4.08-5.47-4.96,0,0,5.72.87,9.43,1.28.07.01.14.01.21.02.25.02.48.06.69.08.01,0,.05,0,.12.01.32.02.61.05.87.07.16.01.32.02.46.02.11.02.2.02.31.01.06,0,.12.01.18,0,.14-.01.32-.01.52-.02,0-.01.02-.01.04-.01.43-.02.97-.08,1.57-.15.05,0,.09-.01.14-.01h.01c3.7-.4,9.61-1.31,9.61-1.31,0,.88-5.45,4.96-5.45,4.96,0,0,0,.08.01.23,0,.07,0,.15.01.25-.01.02-.01.03,0,.06v.25c0,.17.01.37.01.57.02.62.05,1.4.07,2.22.01.17.01.32.04.48.02.15.06.31.09.48,0,.01.01.01.01.01,0,.01,0,.02.01.02.34,1.6,1.35,3.05,1.44,3.4.01.01.01.02.01.03.02.02.05.04.07.06.02.03.07.07.07.08.08.07.2.14.38.22.06.02.09.05.15.07h.01c1.73.82,6.6,2.26,9.38,3.06,1.16.33,1.93.55,1.98.57,3.57,1.95,2.65,2.87,3.15,4.88.27.51.38,6.28.38,6.28,0,.16,0,.34.01.53h0Z"/>
    <path class="st11" d="M47.22,60.77c-.08-.32-.12-.64-.14-.96-.04-1.07.15-2.51.14-3.19-2.06.8-4.38,1.68-6.46,1.68-.12.02-.28.02-.42.02s-.29,0-.42-.02c-2.07,0-4.18-.47-6.24-1.27-.01.67-.04,1.7-.08,2.78-.02.32-.05.64-.14.96,1.99,1.45,4.68,2.95,6.46,2.95.11.02.25.02.38.02h.08c.13,0,.26,0,.38-.03,1.78,0,4.47-1.5,6.46-2.95h0Z"/>
    <path class="st15" d="M56.98,31.86c-.01.12-.01.25-.02.4-.02.14-.04.3-.05.46-.02.2-.03.41-.07.6-.01.09-.02.2-.04.3-.03.24-.08.46-.12.7-.01.09-.04.19-.05.28-.05.2-.08.41-.14.61-.02.12-.06.25-.08.41-.03.11-.06.24-.09.34-.15.57-1.45,7.26-2.38,11.61-.39,1.82-.71,3.21-.86,3.61-.87,2.2-6.58,6.27-10.26,7.99-.01.01-.04.01-.05.02-1.04.51-1.93.79-2.46.79h-.07c-.59-.01-1.44-.27-2.41-.72-.05-.04-.11-.06-.17-.08-3.78-1.7-9.43-5.8-10.3-8.01-.17-.42-.52-2.03-.91-4.04-.86-4.35-1.99-10.65-2.14-11.19-.03-.11-.06-.24-.09-.34-.02-.15-.06-.28-.08-.41-.06-.2-.09-.41-.14-.61-.01-.1-.04-.19-.05-.28-.04-.24-.08-.46-.12-.7-.01-.09-.02-.2-.03-.3-.04-.19-.05-.4-.07-.6-.01-.15-.02-.31-.05-.46-.01-.14-.01-.27-.02-.4-.15-3.14.52-6.33,2.57-9.21,2.47-3.48,5.32-7.17,11.51-7.68h5.22c6.19.51,9.04,4.2,11.51,7.68,2.05,2.88,2.72,6.06,2.57,9.21h-.01Z"/>
    <path class="st16" d="M37.59,49.05c-.05-1.13,2.06-.41,2.76-.38.55.03,2.22-.35,2.37-.25.98.67-1.04,2.01-2.4,2.01-.37,0-2.69-.7-2.72-1.38h-.01Z"/>
    <path class="st2" d="M36.84,37.56s-.44-.32-1.14-.67c-.34-.17-.76-.34-1.22-.5-.22-.08-.47-.14-.71-.19-.24-.07-.5-.09-.74-.13-.25-.04-.51-.04-.75-.07h-.74c-.24.02-.48.04-.69.06-.22.02-.43.07-.62.09-.4.04-.71.14-.94.17-.23.04-.37.06-.37.06,0,0,.11-.07.32-.18s.5-.29.89-.42c.19-.06.4-.16.63-.2.23-.05.48-.11.73-.15.25-.02.53-.05.8-.06.27.02.56.01.83.05.27.05.55.08.81.17.26.06.52.16.76.26.24.09.46.23.67.33.2.13.39.24.55.38.66.51.94.98.94.98h-.03Z"/>
    <path class="st7" d="M28.58,39.29s1.3,2.58,3.28,2.84c1.98.26,4.09-.08,4.09-.08,0,0,.03-2.98-1-3.4-1.03-.43-3.39-1.05-6.37.65h.01Z"/>
    <path class="st18" d="M34.26,40.14c-.08.91-.86,1.59-1.73,1.53s-1.52-.85-1.43-1.75c.08-.91.86-1.59,1.74-1.53.87.06,1.52.85,1.43,1.76h-.01Z"/>
    <path class="st17" d="M32.58,41.15c-.47-.03-.82-.52-.77-1.06.05-.54.49-.97.95-.94.47.03.82.52.77,1.06s-.49.97-.95.94"/>
    <path class="st0" d="M32.63,40.95c-.32-.02-.66-.4-.62-.85s.44-.77.76-.75.66.4.62.85-.44.77-.76.75"/>
    <path class="st5" d="M35.94,42.04s-.04,0-.14.02c-.08-.91-.31-2.18-.95-2.44-.95-.4-3.1-.98-5.84.37-.28-.4-.43-.7-.43-.7,2.98-1.7,5.34-1.07,6.36-.65,1.03.43,1,3.41,1,3.41"/>
    <path class="st9" d="M28.57,39.3s1.3,2.58,3.28,2.84,4.09-.08,4.09-.08c0,0,.03-2.98-1-3.41s-3.39-1.05-6.37.65h.01Z"/>
    <path class="st16" d="M28.38,39.34c.51-.37,1.06-.65,1.65-.87.29-.11.59-.21.89-.28.15-.04.3-.07.46-.1.15-.04.31-.06.47-.07.31-.04.63-.06.94-.06.16,0,.31.01.48.02.16,0,.31.02.47.05.31.04.62.11.92.2.3.08.59.22.88.32h.02v.02c.3.32.59.66.81,1.04-.28-.32-.61-.62-.93-.91l.03.02c-.29-.08-.58-.19-.88-.24-.29-.06-.6-.12-.89-.15-.3-.05-.61-.04-.9-.05-.3.01-.61.01-.91.05-.6.07-1.21.18-1.8.35s-1.17.4-1.72.66h.02Z"/>
    <path class="st7" d="M32.37,39.82c-.02.16-.18.29-.37.27-.18-.01-.32-.16-.31-.32s.18-.29.37-.27c.19.01.32.16.31.32M33.41,40.77c0,.08-.09.14-.18.14s-.16-.08-.15-.16c0-.08.09-.14.18-.14s.16.08.15.16"/>
    <path class="st2" d="M43.58,37.59s.28-.48.94-.97c.16-.13.34-.25.55-.38.21-.11.43-.24.67-.33.24-.1.49-.2.76-.26.26-.08.54-.11.81-.16.27-.04.56-.03.83-.05.27,0,.54.04.8.06.25.04.5.1.73.15s.44.14.63.2c.39.12.68.3.89.42.2.12.32.18.32.18,0,0-.13-.02-.37-.06s-.55-.13-.94-.17c-.19-.02-.4-.07-.62-.09s-.46-.04-.69-.05h-.74c-.24.02-.51.03-.75.07-.25.04-.51.06-.74.13-.24.05-.49.11-.71.19-.46.14-.87.31-1.22.49-.7.34-1.15.66-1.15.66l-.02-.02Z"/>
    <path class="st7" d="M51.87,39.45s-1.26,2.53-3.24,2.76-4.09-.14-4.09-.14c0,0-.08-2.94.94-3.35s3.37-.99,6.38.73"/>
    <path class="st9" d="M51.87,39.45s-1.26,2.53-3.24,2.76-4.09-.14-4.09-.14c0,0-.08-2.94.94-3.35s3.37-.99,6.38.73"/>
    <path class="st8" d="M46.35,40.11c.08.89.86,1.57,1.73,1.51s1.52-.84,1.43-1.73c-.08-.9-.86-1.57-1.73-1.51s-1.52.84-1.43,1.74h0Z"/>
    <path class="st17" d="M48.03,41.11c.47-.03.82-.52.77-1.05s-.49-.96-.95-.92c-.47.03-.82.52-.77,1.05s.49.96.95.92"/>
    <path class="st0" d="M47.99,40.92c.32-.02.66-.39.62-.84s-.44-.77-.76-.74c-.32.02-.66.39-.62.84s.44.76.76.74"/>
    <path class="st5" d="M44.54,42.05s.04,0,.14.03c.06-.9.27-2.15.91-2.39.95-.38,3.08-.92,5.85.45.27-.4.42-.69.42-.69-3.01-1.73-5.37-1.14-6.38-.74-1.02.41-.95,3.35-.95,3.35h.01Z"/>
    <path class="st16" d="M51.86,39.53c-.56-.26-1.14-.48-1.72-.65-.59-.16-1.19-.28-1.8-.35-.3-.04-.61-.04-.9-.05-.3.01-.61,0-.9.05-.3.02-.6.08-.89.14-.3.05-.59.16-.88.24l.03-.02c-.31.29-.64.57-.93.89.22-.38.51-.71.8-1.02h.01l.02-.02c.29-.1.58-.24.88-.32.3-.09.61-.16.92-.19.15-.03.31-.04.47-.05.16,0,.31-.02.48-.02.31,0,.63.02.94.06.15.02.31.04.47.07s.31.05.46.1c.3.07.6.17.89.28.59.22,1.15.5,1.65.86h.01Z"/>
    <path class="st7" d="M47.67,39.8c-.02.16-.18.28-.37.27s-.32-.16-.31-.32.18-.28.37-.27.32.15.31.32M48.7,40.74c0,.08-.09.14-.18.13-.09,0-.16-.08-.15-.16,0-.08.09-.14.18-.13.09,0,.16.08.15.16"/>
    <path class="st16" d="M43.95,54.43c-.53-.03-1.06-.14-1.69-.21-.03-.01-.04-.01-.06-.01-.14-.03-.28,0-.45.04-.19.04-.4.12-.58.18-.31.1-.67.18-1.03.15s-.01,0-.02,0h-.02c-.37.03-.72-.06-1.03-.16-.18-.06-.39-.14-.58-.18-.16-.04-.3-.06-.45-.04-.03,0-.04,0-.06.01-.63.07-1.17.18-1.69.21-.14.01-.35-.03-.48-.03.03.01.05.03.08.04,1.5.73,2.79,1.54,4.22,1.5h.04c1.43.04,2.72-.77,4.22-1.5.03-.01.05-.03.08-.04-.12,0-.32.04-.48.03h-.02Z"/>
    <path class="st9" d="M39.47,53.89l-.18-.03.18.03ZM39.23,53.84s-.08-.02-.11-.02c.04,0,.07.02.11.02"/>
    <path class="st4" d="M44.38,54.38s-1.52-1.15-2.61-.8c0,0-.41.15-.82.25-.25.1-.56.13-.86.11-.22,0-.45-.04-.62-.07-.06,0-.12-.02-.18-.03-.03,0-.04,0-.07-.01-.04,0-.07-.02-.11-.02s-.06-.02-.06-.02c-.34-.09-.64-.21-.64-.21-1.09-.34-2.61.8-2.61.8l-.03.02c.12,0,.32.04.48.03.53-.03,1.06-.14,1.69-.21.03-.01.04-.01.06-.01.14-.03.28,0,.45.04.19.04.4.12.58.18.31.1.67.18,1.03.15s.01,0,.02,0h.02c.37.03.72-.06,1.03-.16.18-.06.39-.14.58-.18.16-.04.3-.06.45-.04.03,0,.04,0,.06.01.63.07,1.17.18,1.69.21.14.01.35-.03.48-.03,0,0-.01,0-.03-.02h.02Z"/>
    <path class="st10" d="M39.3,53.85s-.04,0-.07-.01c.02,0,.04,0,.07.01M39.13,53.82s-.04-.01-.06-.02.02,0,.06.02"/>
    <path class="st9" d="M40.34,72.29c2.59,0,4.91-1.17,6.5-3.01h-12.99c1.59,1.85,3.9,3.01,6.5,3.01h-.01Z"/>
    <path class="st1" d="M26.77,45.78c0,.72-.58,1.3-1.3,1.3s-1.3-.58-1.3-1.3.58-1.3,1.3-1.3,1.3.58,1.3,1.3"/>
    <path class="st19" d="M26.01,45.78c0,.3-.24.55-.55.55s-.55-.24-.55-.55.24-.55.55-.55.55.24.55.55"/>
    <path class="st1" d="M55.9,45.78c0,.72-.58,1.3-1.3,1.3s-1.3-.58-1.3-1.3.58-1.3,1.3-1.3,1.3.58,1.3,1.3"/>
    <path class="st19" d="M55.15,45.78c0,.3-.24.55-.55.55s-.55-.24-.55-.55.24-.55.55-.55.55.24.55.55"/>
    <path class="st6" d="M64.24,79.46s-.09-5.86-.38-6.38c-.51-2.03.42-2.97-3.15-4.95-.05,0-.81-.22-1.98-.57-.18-.05-.39-.11-.58-.17-.89-.26-1.92-.57-2.97-.88-.84-.26-1.69-.54-2.49-.8-1.4-.47-2.63-.89-3.35-1.24h-.01c-.06-.02-.09-.05-.15-.07-.09-.05-.16-.1-.22-.13-.53,4.46-4.19,7.93-8.63,7.93-1.32,0-2.57-.31-3.68-.85-2.66-1.3-4.58-3.93-4.95-7.09,0,0-.01,0-.01.02-.23.14-.63.3-1.11.53h-.02c-.68.28-1.56.58-2.53.91-.8.25-1.65.53-2.49.78-.54.16-1.08.32-1.58.48-.75.22-1.46.44-2.06.6-1.15.35-1.93.57-1.98.57-3.55,1.98-2.65,2.92-3.15,4.95-.26.53-.38,6.38-.38,6.38,0,.17-.01.35-.01.53h47.9c-.01-.17-.01-.35-.01-.53h-.03Z"/>
    <path class="st12" d="M23.58,36.76s2.09.99,2.43,3.95h1.02s-4.59-11.01-2.55-14.92c0,0-5.09,5.45-.91,10.96M56.85,36.76s-2.09.99-2.43,3.95h-1.02s4.56-11.49,2.52-15.39c0,0,5.13,5.92.94,11.43h0ZM54,54.82c-.14-.73.65-1.14.63-1.43h-1.12c.89-1.36,1.39-2.87,1.39-4.47,0-2.08-.53-4-1.98-5.62.05.47-.27,1.43-.27,1.92,0,4.9-2.68,8.57-6.64,10.62.18-.54.29-1.16.29-1.83,0-1.25-.38-2.34-.93-3-.93-1.47-2.82-.22-5-.22s-4.07-1.25-5,.22c-.57.66-.94,1.76-.94,3,0,.67.11,1.29.29,1.83-3.98-2.05-6.64-5.72-6.64-10.62,0-.49-.32-1.45-.27-1.92-1.45,1.62-1.98,3.54-1.98,5.62,0,1.6.5,3.11,1.4,4.47h-1.12c-.01.29.77.7.63,1.43-.39,1.99-1.53,2.51-1.53,2.51,0,0,1.77-.76,2.2-1.28.21-.25.76-.94.93-1.16t.01.02c-.1.22-.33.97,0,2.4.12.54.37,1.02.63,1.45.34.54.74.96,1.05,1.25,1.71,1.85,5.43,5.07,10.33,5.01,4.91.06,8.62-3.16,10.33-5.01.3-.28.71-.72,1.05-1.25.27-.43.51-.91.63-1.45.32-1.43.09-2.17,0-2.4v-.02c.17.21.73.9.94,1.16.43.52,2.2,1.28,2.2,1.28,0,0-1.15-.53-1.53-2.51M44.53,56.05c-.41.2-.89.38-1.43.51v-.06c0-.56-1.22-1-2.74-1.01-1.52.01-2.74.47-2.74,1.01v.06c-.54-.13-1.01-.3-1.43-.51-.23-.59-.38-1.29-.38-2.05,0-.25.02-.49.05-.73.55-.59,1.26-.3,2.08-.09s.01,0,.02,0c.23.06.49.11.74.14,1,.16,2.8.34,4.06-.14.82-.21,1.53-.5,2.08.09.03.23.05.48.05.73,0,.76-.14,1.46-.38,2.05h.01Z"/>
    <path class="st3" d="M31.23,46.48c-3.1,0-5.53-2.89-5.53-6.57,0-3.35,1.96-4.97,5.99-4.97,3.74,0,7.4.27,7.4,3.6,0,3.68-4.77,7.94-7.87,7.94M49.69,46.48c-3.1,0-7.87-4.26-7.87-7.94,0-3.33,3.67-3.6,7.41-3.6,4.04,0,5.99,1.62,5.99,4.97,0,3.68-2.43,6.57-5.54,6.57"/>
    <path class="st7" d="M49.23,34.73c-2.09,0-4.54.05-6.09.99-3.14.88-5.33,0-5.34,0-1.55-.94-4.01-.99-6.1-.99-3.9,0-6.21,1.49-6.21,5.18s2.42,6.78,5.75,6.78c2.95,0,7.02-3.51,7.9-6.88.11-.43.17-.85.17-1.27v-.03c.2-.57.58-.81,1.15-.81s.95.23,1.17.83h0c0,.42.06.83.16,1.25v.05h.01c.88,3.37,4.94,6.88,7.89,6.88,3.34,0,5.75-3.09,5.75-6.78s-2.29-5.18-6.21-5.18v-.02ZM31.24,46.48c-3.1,0-5.54-2.89-5.54-6.57,0-3.35,1.97-4.97,5.99-4.97,3.75,0,7.4.27,7.4,3.6,0,.32-.04.66-.11.99-.03.09-.05.17-.06.25-.87,3.33-4.93,6.69-7.69,6.69M40.46,37.17c-.74,0-1.08.21-1.21.67-.13-.75-.48-1.32-.96-1.74,1.75.52,3.72.14,4.34,0-.52.46-.87,1.07-.98,1.91-.13-.48-.43-.83-1.2-.83h.01ZM49.69,46.48c-3.1,0-7.86-4.26-7.86-7.94,0-3.33,3.66-3.6,7.4-3.6,4.04,0,5.99,1.62,5.99,4.97,0,3.68-2.43,6.57-5.54,6.57"/>
    <path class="st7" d="M49.69,46.94c-2.99,0-7.08-3.5-8.07-6.88h-.06v-.24c-.11-.43-.17-.85-.17-1.25-.16-.45-.44-.63-.92-.63s-.74.18-.9.61c0,.44-.06.86-.17,1.3v.21h-.06c-.99,3.38-5.08,6.89-8.08,6.89-3.36,0-5.99-3.08-5.99-7.03,0-3.6,2.17-5.43,6.45-5.43,2.29,0,4.67.08,6.22,1.02.05.02,2.15.8,5.13-.02,1.55-.93,3.9-1,6.19-1,4.28,0,6.45,1.83,6.45,5.43,0,3.94-2.64,7.03-5.99,7.03h0ZM49.23,35.19c-3.62,0-7.16.26-7.16,3.36,0,3.57,4.61,7.7,7.62,7.7s5.29-2.78,5.29-6.33c0-3.22-1.83-4.73-5.76-4.73h.01ZM31.7,35.19c-3.92,0-5.76,1.5-5.76,4.73,0,3.55,2.32,6.33,5.29,6.33,2.74,0,6.64-3.41,7.45-6.51,0-.05.02-.15.07-.27.06-.3.1-.62.1-.91,0-3.1-3.54-3.36-7.16-3.36M40.46,37.41c-.61,0-.82.15-.91.34.24-.19.55-.28.91-.28.28,0,.53.05.72.15-.14-.13-.37-.21-.72-.21M40.46,36.93c.49,0,.85.13,1.11.4.1-.31.24-.6.43-.86-.75.12-1.89.22-3.02.03.16.23.28.48.38.75.3-.26.73-.31,1.12-.31"/>
  </g>
</svg>