<?xml version="1.0" encoding="UTF-8"?>
<svg id="Layer_2" xmlns="http://www.w3.org/2000/svg" version="1.1" xmlns:xlink="http://www.w3.org/1999/xlink" viewBox="0 0 80 80">
  <!-- Generator: Adobe Illustrator 30.2.1, SVG Export Plug-In . SVG Version: 2.1.1 Build 1)  -->
  <defs>
    <style>
      .st0 {
        fill: #a20d49;
      }

      .st1 {
        fill: #b5957e;
      }

      .st2 {
        fill: #b8987d;
      }

      .st3 {
        fill: #714223;
      }

      .st4 {
        fill: #ccad8a;
      }

      .st5 {
        fill: #ecdab6;
      }

      .st6 {
        fill: #d7bd9d;
      }

      .st7 {
        fill: #fff;
      }

      .st8 {
        fill: #272213;
      }

      .st9 {
        fill: #b7967d;
      }

      .st10 {
        fill: #c27976;
      }

      .st11 {
        fill: none;
      }

      .st12 {
        fill: url(#linear-gradient3);
      }

      .st12, .st13 {
        opacity: .62;
      }

      .st12, .st13, .st14, .st15 {
        isolation: isolate;
      }

      .st13 {
        fill: url(#linear-gradient2);
      }

      .st16 {
        fill: #af6a6f;
      }

      .st17 {
        fill: #d2bb9b;
      }

      .st18 {
        fill: #ba9d82;
      }

      .st19 {
        fill: #dcc5a0;
      }

      .st20 {
        fill: #d6bb9c;
      }

      .st14 {
        fill: url(#linear-gradient);
      }

      .st14, .st15 {
        opacity: .66;
      }

      .st15 {
        fill: url(#linear-gradient1);
      }

      .st21 {
        fill: #44361f;
      }

      .st22 {
        fill: #5a413a;
      }

      .st23 {
        fill: #d99100;
      }

      .st24 {
        fill: #a98d76;
      }

      .st25 {
        fill: #462e1b;
      }

      .st26 {
        clip-path: url(#clippath);
      }

      .st27 {
        fill: #ebd9b5;
      }

      .st28 {
        fill: #3c3d39;
      }
    </style>
    <clipPath id="clippath">
      <rect class="st11" x="36.69" y="55.47" width="8.99" height="5.3"/>
    </clipPath>
    <linearGradient id="linear-gradient" x1="794.74" y1="-101.03" x2="792.2" y2="-26.72" gradientTransform="translate(-252.87 12.19) scale(.36 -.36)" gradientUnits="userSpaceOnUse">
      <stop offset="0" stop-color="#fff"/>
      <stop offset="1" stop-color="#6189ae"/>
    </linearGradient>
    <linearGradient id="linear-gradient1" x1="845.57" y1="-99.01" x2="843.04" y2="-24.91" gradientTransform="translate(-252.87 12.19) scale(.36 -.36)" gradientUnits="userSpaceOnUse">
      <stop offset="0" stop-color="#fff"/>
      <stop offset="1" stop-color="#6189ae"/>
    </linearGradient>
    <linearGradient id="linear-gradient2" x1="793.56" y1="-87.18" x2="794.4" y2="-61.12" gradientTransform="translate(-252.87 12.19) scale(.36 -.36)" gradientUnits="userSpaceOnUse">
      <stop offset="0" stop-color="#fff"/>
      <stop offset="1" stop-color="#6189ae"/>
    </linearGradient>
    <linearGradient id="linear-gradient3" x1="844.14" y1="-89.25" x2="844.99" y2="-63" gradientTransform="translate(-252.87 12.19) scale(.36 -.36)" gradientUnits="userSpaceOnUse">
      <stop offset="0" stop-color="#fff"/>
      <stop offset="1" stop-color="#6189ae"/>
    </linearGradient>
  </defs>
  <g id="Layer_1-2">
    <path class="st0" d="M0,0h80v80H0V0Z"/>
    <path class="st19" d="M41.16,50.03v29.97h-16.23c-.27-.1-.4-.16-.4-.16,0-3.82.56-6.81,1.42-9.13,2.07-5.61,5.85-7.4,7.59-7.93.57-.18.92-.22.92-.22.06,0,.12,0,.18-.01.51-.08.93-.53,1.26-1.23.25-.53.45-1.19.62-1.97.07-.3.12-.61.17-.94.08-.55.16-1.13.23-1.74.03-.37.06-.73.1-1.11.14-1.83.19-3.84.19-5.74,0,0,2.18.23,3.95.23h0Z"/>
    <path class="st27" d="M57.85,79.84s-.15.05-.38.16h-16.31v-29.97h.04c1.76,0,3.96-.23,3.96-.23,0,1.89.04,3.87.18,5.7.04.36.08.73.1,1.08.07.63.15,1.23.24,1.78h0c.03.26.08.49.12.72.16.78.35,1.47.59,2.01.29.68.64,1.16,1.08,1.35.14.06.28.09.43.09,0,0,.62.08,1.56.44,1.91.75,5.12,2.71,6.96,7.71.86,2.33,1.42,5.31,1.42,9.13h0Z"/>
    <g class="st26">
      <path class="st18" d="M45.68,58.31h0c-.41.64-1.78,2.45-4.5,2.45h-.03c-2.58-.01-4.08-1.87-4.46-2.43.08-.55.16-1.13.23-1.73.03-.35.06-.72.11-1.1,1.25.31,2.63.51,4.08.54h.05c1.5-.03,2.89-.24,4.19-.58.04.35.08.72.11,1.07.06.63.15,1.22.24,1.77"/>
    </g>
    <path class="st4" d="M40.97,15.88c-17.19,0-17.29,14.35-16.52,23.75-1.17-2.23-4.67-1.55-4.38,1.97.28,3.38,5.28,5.11,5.14,4.73,2.6,6.95,9.5,12.19,15.77,12.19h.13V15.88h-.13Z"/>
    <path class="st24" d="M21.17,40.12c.85-1.36,2.17-.77,2.48-.47.34.33.62.75.41,1.55-.12.46-.59.5-.49,1.18.13.77.49.81.7.99.2.17.45.3.57.63.13.33.15.67.08.97-.13.55-.94.1-1.48-.13-.36-.17-1.49-1.13-1.78-1.44-.71-.81-1.06-2.39-.49-3.28"/>
    <path class="st6" d="M41.06,15.88c17.19,0,17.29,14.35,16.53,23.75,1.17-2.23,4.66-1.55,4.37,1.97-.27,3.38-5.27,5.11-5.14,4.73-2.54,6.95-9.5,12.19-15.77,12.19h-.09l-.04-42.64h.13"/>
    <path class="st24" d="M60.87,40.12c-.85-1.36-2.15-.77-2.48-.47-.34.33-.61.75-.41,1.55.12.46.59.5.49,1.18-.13.77-.49.81-.69.99-.2.17-.46.3-.58.63s-.15.67-.08.97c.13.55.94.1,1.48-.13.37-.17,1.49-1.13,1.78-1.44.73-.81,1.06-2.39.49-3.28"/>
    <path class="st19" d="M40.84,19.93c-5.65,0-9.8,1.64-12.29,4.86-3.5,4.52-3.37,11.42-2.08,16.37.4,1.52.61,5.6.87,7.09,1.23,6.7,8.64,10.26,13.51,10.26h.13V19.93h-.08"/>
    <path class="st27" d="M53.12,24.81c-2.48-3.21-6.58-4.85-12.15-4.88v38.59c5.57-.06,12.24-3.97,13.38-10.26.28-1.5.48-5.57.87-7.09,1.29-4.94,1.43-11.82-2.1-16.36"/>
    <path class="st11" d="M40.28,51.72c-.08-.01-.15-.03-.21-.04.07.01.14.03.21.04M39.99,51.67c-.05-.01-.1-.02-.13-.03.04.01.09.02.13.03"/>
    <path class="st9" d="M40.07,51.68s-.05-.01-.08-.02c.03,0,.05.01.08.02M39.86,51.64s-.05-.01-.07-.02.03,0,.08.02h0Z"/>
    <path class="st11" d="M25.55,31.96c-.15.51-.26,1.07-.33,1.67,0,0,.23-.94.73-2.33-.21.3-.36.54-.39.67"/>
    <path class="st21" d="M34.52,20.03l-.07.07v.03s.05-.07.07-.1"/>
    <path class="st11" d="M40.33,50.94c-.08-.01-.15-.03-.22-.04.08.01.15.03.22.04M40.03,50.88c-.05-.01-.1-.02-.13-.03.04.01.09.02.13.03"/>
    <path class="st1" d="M40.11,50.9s-.05-.01-.08-.02c.03,0,.05.01.08.02M39.9,50.85l-.08-.02s.03,0,.08.02"/>
    <path class="st20" d="M37.61,46c-.07-1.37,2.52-.5,3.37-.46.67.04,2.72-.43,2.9-.31,1.21.81-1.28,2.45-2.94,2.45-.44,0-3.29-.85-3.33-1.68"/>
    <path class="st7" d="M28.63,34.99s1.31,5.37,3.56,5.81,4.69-.43,4.69-.43c0,0,.23-6.31-.92-7.14-1.15-.83-3.81-2.03-7.33,1.76"/>
    <path class="st17" d="M36.89,40.36s-.05.01-.17.06c-.03-1.94-.21-4.6-.93-5.11-1.07-.78-3.49-1.89-6.72,1.13-.29-.83-.44-1.46-.44-1.46,3.53-3.8,6.19-2.6,7.33-1.77,1.15.83.92,7.15.92,7.15h0Z"/>
    <circle class="st25" cx="33.34" cy="37.62" r="2.22"/>
    <path class="st3" d="M33.24,39.09c-.64-.05-1.13-.7-1.07-1.41s.65-1.26,1.29-1.21,1.13.7,1.07,1.41-.65,1.27-1.29,1.21h0Z"/>
    <path class="st8" d="M33.29,38.84c-.44-.04-.91-.53-.86-1.13.05-.6.58-1.01,1.03-.97.44.04.91.53.86,1.13s-.58,1.01-1.03.97h0Z"/>
    <path class="st7" d="M32.93,37.36c-.02.22-.24.38-.5.35-.26-.02-.45-.21-.43-.43s.24-.38.5-.36c.26.02.45.21.43.43h0ZM34.37,38.61c-.01.11-.12.19-.25.18-.13-.01-.23-.11-.22-.21.01-.11.12-.19.25-.18.13.01.23.11.22.21"/>
    <path class="st11" d="M40.37,51.57c-.08-.01-.15-.03-.22-.04.08.01.15.03.22.04M40.06,51.52c-.05-.01-.1-.02-.13-.03.04.01.09.02.13.03"/>
    <path class="st1" d="M40.15,51.53s-.05-.01-.08-.02c.03,0,.05.01.08.02M39.93,51.48l-.08-.02s.03,0,.08.02"/>
    <path class="st11" d="M40.28,51.43c-.09-.01-.16-.03-.23-.04.08.02.16.03.23.04M39.96,51.36c-.05-.01-.11-.03-.14-.03.05.01.09.02.14.03"/>
    <path class="st9" d="M40.05,51.38s-.06-.01-.09-.02c.03,0,.05.01.09.02M39.82,51.33s-.05-.01-.08-.02.03.01.08.02h0Z"/>
    <path class="st11" d="M40.21,51.2c-.09-.01-.16-.03-.23-.04.08.02.16.03.23.04M39.89,51.14c-.05-.01-.11-.03-.14-.03.05.01.09.02.14.03"/>
    <path class="st9" d="M39.98,51.16s-.06-.01-.09-.02c.03,0,.05.01.09.02M39.75,51.11s-.05-.01-.08-.02.03.01.08.02h0Z"/>
    <path class="st11" d="M40.42,51.17c-.08-.01-.16-.03-.23-.04.08.02.15.03.23.04M40.1,51.11c-.05-.01-.1-.02-.14-.03.05.01.09.02.14.03"/>
    <path class="st9" d="M40.19,51.13s-.06-.01-.09-.02c.03,0,.05.01.09.02M39.96,51.08l-.08-.02s.03.01.08.02h0Z"/>
    <path class="st7" d="M53.44,34.81s-1.31,5.37-3.56,5.81-4.69-.43-4.69-.43c0,0-.23-6.31.92-7.14,1.15-.83,3.81-2.03,7.33,1.76"/>
    <path class="st17" d="M45.18,40.18s.05.01.17.06c.03-1.94.21-4.6.93-5.11,1.07-.78,3.49-1.89,6.72,1.13.29-.83.44-1.46.44-1.46-3.53-3.8-6.19-2.6-7.33-1.77-1.15.83-.92,7.15-.92,7.15h0Z"/>
    <path class="st25" d="M46.52,37.44c0,1.22.99,2.21,2.22,2.21s2.22-.99,2.22-2.21-.99-2.21-2.22-2.21-2.22.99-2.22,2.21"/>
    <path class="st3" d="M48.83,38.91c.64-.05,1.13-.7,1.07-1.41s-.65-1.26-1.29-1.21-1.13.7-1.07,1.41.65,1.27,1.29,1.21h0Z"/>
    <path class="st8" d="M48.78,38.65c.44-.04.91-.53.86-1.13-.05-.6-.58-1.01-1.03-.97-.44.04-.91.53-.86,1.13s.58,1.01,1.03.97h0Z"/>
    <path class="st7" d="M49.14,37.17c.02.22.24.38.5.35.26-.02.45-.21.43-.43s-.24-.38-.5-.36c-.26.02-.45.21-.43.43h0ZM47.7,38.43c.01.11.12.19.25.18.13-.01.23-.11.22-.21-.01-.11-.12-.19-.25-.18-.13.01-.23.11-.22.21"/>
    <path d="M38.24,32.16s-.43-.65-1.26-1.29c-.52-.4-1.04-.7-1.57-.93-.65-.27-1.34-.47-2.02-.55-.61-.07-1.29-.05-2.08.06-.6.11-1.19.29-1.69.51-.35.12-.64.29-.86.43-.09.05-.16.1-.24.14l-1.07.68,1.24-.29c.06-.01.12-.03.19-.05.26-.07.58-.15.95-.21.09-.01.18-.03.27-.05.16-.03.32-.06.49-.07.19-.01.38-.03.58-.04l.26-.02c.69,0,1.27.04,1.78.16.56.1,1.14.28,1.67.52.5.24.98.48,1.36.75.76.5,1.18.93,1.18.93.1.1.24.16.38.16.1,0,.2-.03.29-.09.25-.16.32-.5.16-.74v-.02s-.01,0-.01,0ZM53.66,30.53c-.07-.04-.15-.09-.24-.14-.23-.14-.51-.31-.85-.43-.51-.23-1.1-.4-1.71-.52-.78-.1-1.46-.12-2.07-.05-.67.09-1.37.28-2.02.55-.52.23-1.05.54-1.57.93-.82.63-1.23,1.24-1.26,1.28h0c-.14.23-.11.51.07.69.1.1.24.16.38.16s.28-.06.38-.16h0s.45-.44,1.18-.93c.37-.27.85-.51,1.35-.75.53-.25,1.11-.43,1.68-.53.51-.12,1.09-.17,1.77-.16l.27.02c.2.01.39.03.58.04.16,0,.33.04.48.07.09.02.18.04.27.05.38.05.69.14.95.21.07.02.13.04.19.05l1.24.29-1.09-.68h0Z"/>
    <path class="st11" d="M39.57,53.45c-.08-.01-.15-.03-.21-.04l.21.04ZM39.27,53.39c-.05-.01-.1-.02-.13-.03.04.01.09.02.13.03"/>
    <path class="st2" d="M39.36,53.41s-.05-.01-.08-.02c.03,0,.05.01.08.02M39.14,53.36l-.08-.02s.03,0,.08.02"/>
    <path class="st11" d="M39.51,53.24c-.08-.01-.15-.03-.21-.04.08.01.14.03.21.04M39.21,53.18c-.05-.01-.1-.02-.13-.03.04.01.09.02.13.03"/>
    <path class="st2" d="M39.29,53.2s-.05-.01-.08-.02c.03,0,.05.01.08.02M39.08,53.16l-.08-.02s.03,0,.08.02"/>
    <path class="st11" d="M39.69,53.21c-.08-.01-.15-.03-.21-.04.07.01.14.03.21.04M39.4,53.16s-.1-.02-.13-.03c.04.01.08.02.13.03"/>
    <path class="st2" d="M39.48,53.17s-.05-.01-.08-.02c.03,0,.05.01.08.02M39.28,53.13s-.05-.01-.07-.02.03,0,.08.02h0Z"/>
    <path class="st5" d="M37.68,53.81c-.06-.86,2.38.18,3.18.2.64.02,2.56-.13,2.74-.19,1.35-.5-.08,1.43-2.78,1.53-1.24.05-3.11-1.02-3.14-1.54"/>
    <path class="st16" d="M45.75,51.76c-1.55-.29-4.82.02-4.82.02-2.69.45-4.8-.03-4.82-.01-.06,0,2.15,2.94,4.78,2.81,2.63.14,4.92-2.81,4.86-2.82h0Z"/>
    <path class="st10" d="M42.48,51.14c-.7-.08-1.2.43-1.55.39-.37.03-.84-.29-1.54-.3-.99-.01-1.47-.1-3.28.54.06.12,1.22.79,3.39.83.03,0,.61.33,1.44.33.52,0,1.23-.35,1.26-.35,2.17-.03,3.5-.68,3.56-.8-2.39-.74-2.2-.64-3.27-.64h0Z"/>
    <path d="M58.62,77.04c-.09-1.25-.24-2.39-.43-3.45-.35-1.86-.85-3.43-1.44-4.77-.83-1.89-1.84-3.3-2.87-4.36h0s-.06-.06-.1-.09c-.01-.01-.03-.03-.04-.04-1.97-1.91-3.96-2.57-4.81-2.78.01.05-.53-.18-.65-.4-.33-.56-.73-1.11-1.21-1.7-.04-.04-.09-.08-.11-.13l-.18,1.05-3.34,3.94h-.25l-1.83,2.16-1.74-2.03h.02l-3.34-3.88-.26-1.24s-.04.05-.07.07c-.7.83-1.91,2.2-1.89,2.15-.85.2-3.11.86-5.09,2.78-1.07,1.07-2.13,2.53-3,4.49-.59,1.34-1.09,2.91-1.44,4.77-.2,1.06-.34,2.2-.43,3.45-.06.88-.1,1.8-.1,2.77,0,0,.14.06.41.18h33.88c.27-.12.41-.18.41-.18,0-.98-.04-1.9-.1-2.77h0Z"/>
    <path class="st23" d="M48.98,62.6c-.19-3.02-1.75-3.59-1.75-3.59-.09-.07-.2-.13-.3-.18-.47-.23-1.04.02-1.19.52-.18.6-.42,1.36-.62,1.91-.15.39-.36.76-.63,1.08-.42.52-1.11,1.36-1.74,2.13-.71.88-2.05.88-2.76.01-.67-.82-1.42-1.72-1.84-2.22-.23-.28-.42-.58-.57-.91-.19-.42-.32-1.15-.42-1.78-.09-.52-.62-.84-1.12-.67-.11.04-.21.07-.29.1-.15.03-1.79.37-2.01,3.29-.16,1.17-.23,2.89-.26,4.27-.02.77.92,1.17,1.46.61.32-.33.63-.63.85-.79.14-.1.3-.2.48-.3.42-.23.96-.04,1.16.39l3.3,6.92c.3.64,1.21.65,1.53.02l3.4-6.71c.23-.45.81-.62,1.22-.32,0,0,0,0,0,0,.22.16.53.45.85.79.54.55,1.48.16,1.46-.62-.03-1.27-.09-2.82-.22-3.97h0Z"/>
    <path class="st19" d="M29.89,72.31h6.25v1.17l-3.12,1.99-3.13-1.99v-1.17ZM45.57,72.03h6.25v1.17l-3.12,1.99-3.12-1.99v-1.17Z"/>
    <path class="st22" d="M63.8,17.81s-2.41-3.05-6.59-2.33c1.25-2.65-.52-4.4-.52-4.4-.16,2.19-1.1,3.15-1.91,3.57-.38-1.85-2.15-4.63-8.12-5.96,0,0,1.85,1.28,2.95,2.86.64.92-.43,2.04-1.47,1.53-1.07-.53-2.64-.88-4.07-1.96-3.18-2.43-8.87-1.4-11.89.43-2.52,1.52-6.34,4.89-7.41,7.16-.25.54-.6,1.23-.99,2.02,0,0,0,0-.01,0-4.16,1.34-5.36-.28-5.36-.28,0,0,1.09,1.73,3.08,2.45.57.2.86.79.62,1.31-.8,1.78-1.55,3.64-1.93,5.23-.73,3.02,1.23,5.95,2.94,7.22,0,.05,0,.09.01.14.56.63,1.43,1.7,2.05,2.93.14.28.26.55.37.84.26.68.42,1.38.38,2.08.34.08,1.1-1.22,1.07-3.57,1.52-5.21,4.17-8.09,7.03-9.79.43-.25.96.17.74.59-2.74,5.32-.05,11.12-.05,11.12-.15-7.03,6.18-11.73,8.14-13.02.18-.1.37-.22.57-.36.69-.48,1.45-.9,2.25-1.24.76-.32,1.65.03,1.93.76.52,1.38.77,2.96.45,4.65,0,0,1.18-1.77,1.54-4.15.1-.68,1.02-.9,1.45-.34,1.41,1.84,2.83,4.58,2.27,7.75,0,.03,0,.05-.01.08,0,0,.11-.16.27-.45.51-.8.83-1.7,1.03-2.55.06-.21.1-.43.15-.66h0s.5-1.94,1.21.37c.2,1.19.24,2.56.1,4.1-.11,1.15-.16,2.09-.17,2.87-.01.76,0,1.36.05,1.84.17,1.79.64,1.77.64,1.77.34,0-.03-1.74,1.1-2.93,1.12-1.19,2.83-5.23,2.83-9.25,0-2.14-.42-4.16-1.39-6.15-3.36-4.36.88-7.42,4.66-6.27h.01Z"/>
    <path class="st14" d="M28.02,44.41c1.6.48,7.95,1.18,9.92-4.22-4.75-1.89-9.31-.99-12.81.5.77,2.94,2.29,3.52,2.89,3.72h0Z"/>
    <path class="st15" d="M53.28,44.41c-1.6.48-7.95,1.18-9.92-4.22,4.75-1.89,9.31-.99,12.81.5-.77,2.94-2.29,3.52-2.89,3.72h0Z"/>
    <path class="st13" d="M37.94,40.19c.08-.2.14-.42.2-.64.04-.15.08-.3.12-.46.33-1.45.25-2.62-.04-3.65-.28-1.01-3.14-1.61-4.38-1.79-1.23-.14-3.04-.25-5.08,0-2.52.31-4.29.56-4.06,4.27.04.6.1,1.13.18,1.62.07.42.15.8.24,1.14,3.5-1.49,8.07-2.39,12.81-.5"/>
    <path class="st12" d="M43.36,40.19c-.08-.2-.14-.42-.2-.64-.04-.15-.08-.3-.12-.46-.33-1.45-.25-2.62.04-3.65.28-1.01,3.14-1.61,4.38-1.79,1.23-.14,3.04-.25,5.08,0,2.52.31,4.29.56,4.06,4.27-.04.6-.1,1.13-.18,1.62-.07.42-.15.8-.24,1.14-3.5-1.49-8.07-2.39-12.81-.5"/>
    <path class="st28" d="M58.31,33.67c-.1-.21-2-.48-4.47-.73-2.09-.19-5.46-.06-6.77.13-.55.08-1.53.27-2.51.55-1.08.29-2.16.69-2.61.8-.43.09-.77.13-1.13.11h0s-.05,0-.08,0c-.03,0-.05,0-.08,0-.03,0-.05,0-.08,0-.03,0-.05,0-.08,0h0c-.36.03-.7-.01-1.13-.11-.45-.1-1.53-.5-2.61-.8-.98-.27-1.96-.46-2.51-.55-1.32-.19-4.69-.31-6.77-.13-2.48.25-4.38.53-4.47.73-.06.15-.21,2.06-.01,2.25.2.21.9.61,1.07,1.28.05.23.17.94.36,1.83.06.29.27.49.49.49.3,0,.53-.35.49-.74-.03-.25-.05-.51-.07-.79-.21-3.48,1.39-3.71,3.67-4.01,1.84-.23,3.48-.13,4.59,0,1.12.17,3.7.73,3.95,1.68.26.97.34,2.06.04,3.42-.05.22.08.43.25.43h.81c.11-.37.21-.75.29-1.17.19-1.07.46-1.7.92-1.89.18-.06.45-.11.74-.12.03,0,.05,0,.08,0s.05,0,.08,0c.28.01.56.06.74.12.46.19.73.82.92,1.89.08.41.18.8.29,1.17h.81c.17,0,.29-.21.25-.43-.3-1.37-.22-2.46.04-3.43.25-.94,2.83-1.51,3.95-1.68,1.11-.13,2.75-.23,4.59,0,2.27.29,3.88.53,3.67,4.01-.02.28-.04.54-.07.79-.04.39.19.74.49.74.23,0,.43-.2.49-.49.19-.89.31-1.6.36-1.83.18-.67.87-1.07,1.07-1.28.2-.19.05-2.1-.01-2.25h0Z"/>
  </g>
</svg>