<?xml version="1.0" encoding="UTF-8"?>
<svg id="Layer_2" xmlns="http://www.w3.org/2000/svg" version="1.1" xmlns:xlink="http://www.w3.org/1999/xlink" viewBox="0 0 80 80">
  <!-- Generator: Adobe Illustrator 30.2.1, SVG Export Plug-In . SVG Version: 2.1.1 Build 1)  -->
  <defs>
    <style>
      .st0 {
        fill: #dac6a4;
      }

      .st1 {
        fill: #b5957e;
      }

      .st2 {
        fill: #b8987d;
      }

      .st3 {
        fill: #ccad8a;
      }

      .st4 {
        fill: #ecdab6;
      }

      .st5 {
        fill: #873a32;
      }

      .st6 {
        fill: #d7bd9d;
      }

      .st7 {
        fill: #435975;
      }

      .st8 {
        fill: #fff;
      }

      .st9 {
        fill: #272213;
      }

      .st10 {
        fill: #b7967d;
      }

      .st11 {
        fill: none;
      }

      .st12 {
        fill: #544e4d;
      }

      .st13 {
        fill: #d2bb9b;
      }

      .st14 {
        fill: #ba9d82;
      }

      .st15 {
        fill: #dcc5a0;
      }

      .st16 {
        fill: #3f3a37;
      }

      .st17 {
        fill: #8f9daa;
      }

      .st18 {
        fill: #8c6446;
      }

      .st19 {
        fill: #4c4745;
      }

      .st20 {
        fill: #c1a587;
      }

      .st21 {
        fill: #44361f;
      }

      .st22 {
        fill: #678dc5;
      }

      .st23 {
        fill: #bfb2cd;
      }

      .st24 {
        fill: #a98d76;
      }

      .st25 {
        fill: #e3ad38;
      }

      .st26 {
        fill: #37322f;
      }

      .st27 {
        clip-path: url(#clippath);
      }

      .st28 {
        fill: #ebd9b5;
      }
    </style>
    <clipPath id="clippath">
      <rect class="st11" x="34.93" y="53.72" width="11.6" height="7.06"/>
    </clipPath>
  </defs>
  <g id="Layer_1-2">
    <path class="st23" d="M0,0h80v80H0V0Z"/>
    <path class="st5" d="M57.56,50.93c.55.64,2.84,1.58,2.84,1.58,0,0-1.48-.65-1.97-3.12-.19-.9-.27-1.41-.29-1.77h-.18c.61-.9,1.08-1.85,1.39-2.85.01-.05.03-.1.04-.16.11-.4.21-.81.27-1.22.79-4.66-.66-10.41-1.37-12.82-.01-.03-.02-.06-.03-.1-.2-.67-.33-1.05-.33-1.05.01.07.01.15.03.22-2.13-5.03-9-8.72-17.16-8.72-9.51,0-17.27,5-17.81,11.3-.72,2.85-1.56,7.37-.92,11.17.06.42.15.82.27,1.22.01.05.03.11.04.16h0c.3.99.77,1.95,1.38,2.85h-.18c-.02.36-.11.87-.29,1.77-.49,2.47-1.97,3.12-1.97,3.12,0,0,2.28-.94,2.83-1.58.27-.31.97-1.16,1.19-1.43,0,0,.01.01.02.02-.13.29-.43,1.21,0,2.98.55,2.32,2.82,3.88,2.82,3.88,0,0-1.36-1.84-.98-3.86,0,0-.08.81,2.13,3.06,2.11,2.15,4.72,4.46,5.06,4.48-.03-.07,1.16-2.28,1.14-3.19,1.61.47,3.29,3.54,5.03,3.54.1,0,.21,0,.31,0,.1,0,.2,0,.31,0,1.74,0,3.42-3.07,5.03-3.54-.03.91,1.11,3.51,1.08,3.58.34-.03,3.01-2.72,5.12-4.87,2.21-2.25,2.13-3.06,2.13-3.06.38,2.02-.98,3.86-.98,3.86,0,0,2.26-1.56,2.82-3.88.42-1.77.12-2.69,0-2.98,0,0,.01-.01.02-.02.22.27.92,1.12,1.19,1.43h.02ZM29.68,43.81c.05,1.05.29,1.77.69,2.32l.02.02s.08.08.19.19c.1.1.27.24.5.38,0,0,0,0,.01,0,.23.13.52.26.88.35.29.09.68.11,1.16.09-.07.39-.11.79-.11,1.22,0,.78.13,1.51.34,2.14-3.19-1.66-5.73-4.34-7.15-7.62-.1-.28-.42-1.14-.79-2.33-.22-.7-.45-1.51-.68-2.39,1.99,2.74,5.49,4.89,9.77,5.97-.01.01-.02.03-.02.03-2.93,2.93-4.82-.38-4.82-.38M56.28,40.58c-.37,1.19-.68,2.04-.78,2.33-1.42,3.28-3.96,5.97-7.15,7.62.21-.64.34-1.37.34-2.14,0-.34-.03-.67-.08-.99.32-.04.62-.09.9-.17.45-.09.86-.25,1.22-.51.73-.53,1.22-1.44,1.3-2.91,0,0-1.88,3.31-4.82.38l-.04-.05c4.39-1.13,7.94-3.4,9.88-6.26-.25,1-.52,1.92-.76,2.7h0Z"/>
    <path class="st15" d="M40.64,48.7v31.26h-20.88l-.51-.16c0-2.19.22-4.12.59-5.81.32-1.38.74-2.63,1.23-3.72,1.11-2.43,2.58-4.18,4.1-5.43.51-.41,1.01-.77,1.51-1.08.09-.05.18-.11.27-.16.68-.41,1.39-.76,2.13-1.05.38-.15.74-.28,1.07-.37.11-.04.22-.07.33-.1.13-.03.24-.06.35-.09.32-.08.58-.14.77-.16.27-.05.41-.06.41-.06.08,0,.15,0,.23-.02.04,0,.09-.01.13-.03.6-.13,1.08-.57,1.49-1.26.32-.54.59-1.25.8-2.05.09-.32.16-.63.23-.98.1-.58.2-1.18.29-1.82.03-.38.08-.75.14-1.15.18-1.91.23-4.01.23-5.99,0,0,2.81.24,5.08.24h0Z"/>
    <path class="st28" d="M62.12,79.8s-.18.05-.49.16h-20.99v-31.26h.06c2.25,0,5.09-.24,5.09-.24,0,1.97.05,4.04.24,5.95.05.37.1.75.13,1.13.09.67.19,1.28.31,1.86h0c.03.28.1.51.15.75.2.81.45,1.53.76,2.1.37.72.83,1.21,1.39,1.41.02,0,.04.01.05.02.16.05.33.08.51.08,0,0,.1.01.28.04.29.04.78.14,1.42.33.1.03.2.06.31.09.05.02.11.03.17.05.15.05.3.1.45.16.73.27,1.56.64,2.44,1.16h0c.05.04.11.07.17.11.35.21.7.45,1.07.72h0c1.71,1.27,3.43,3.13,4.67,5.86.48,1.06.89,2.25,1.2,3.58.4,1.72.62,3.7.62,5.95h0Z"/>
    <g class="st27">
      <path class="st14" d="M46.53,57.51v.02c-.53.84-2.3,3.25-5.81,3.25h-.04c-3.32-.02-5.27-2.5-5.76-3.23.1-.73.2-1.5.29-2.31.04-.47.09-.96.14-1.47,1.62.42,3.39.68,5.27.72h.07c1.94-.04,3.73-.31,5.4-.77.05.47.1.96.14,1.43.09.84.19,1.62.31,2.36"/>
    </g>
    <path class="st3" d="M40.81,15.34c-16.73,0-16.82,14.01-16.08,23.19-1.14-2.18-4.55-1.51-4.27,1.92.27,3.3,5.14,4.98,5,4.62,2.53,6.79,9.24,11.9,15.35,11.9h.13V15.34h-.13"/>
    <path class="st24" d="M21.53,39.01c.82-1.33,2.11-.75,2.42-.46.33.32.61.73.4,1.51-.11.45-.58.49-.48,1.15.13.75.48.79.68.97.19.17.44.29.55.62.13.32.14.65.08.95-.13.54-.91.1-1.44-.13-.35-.16-1.45-1.1-1.73-1.41-.69-.79-1.03-2.33-.48-3.2"/>
    <path class="st6" d="M40.9,15.34c16.73,0,16.82,14.01,16.09,23.19,1.14-2.18,4.54-1.51,4.26,1.92-.26,3.3-5.13,4.99-5,4.62-2.47,6.79-9.24,11.9-15.35,11.9h-.09l-.04-41.64h.13Z"/>
    <path class="st24" d="M60.17,39.01c-.82-1.33-2.1-.75-2.42-.46-.33.32-.59.73-.4,1.51.11.45.58.49.48,1.15-.13.75-.48.79-.67.97-.19.17-.45.29-.57.62-.11.32-.14.65-.08.95.13.54.91.1,1.44-.13.36-.16,1.45-1.1,1.73-1.41.71-.79,1.03-2.33.48-3.2"/>
    <path class="st15" d="M40.67,19.3c-5.5,0-9.54,1.6-11.96,4.75-3.41,4.42-3.28,11.15-2.03,15.99.39,1.48.59,5.46.85,6.92,1.2,6.54,8.4,10.02,13.15,10.02h.13V19.3h-.08"/>
    <path class="st28" d="M52.63,24.06c-2.42-3.13-6.4-4.74-11.82-4.76v37.68c5.42-.06,11.91-3.88,13.02-10.02.27-1.46.46-5.44.85-6.92,1.26-4.83,1.39-11.55-2.04-15.97"/>
    <path class="st11" d="M40.13,48.93c-.08-.01-.15-.03-.21-.04.07.01.14.03.21.04M39.85,50.28s-.09-.02-.13-.03c.04.01.08.02.13.03"/>
    <path class="st10" d="M39.92,50.3s-.05-.01-.08-.02c.03,0,.05.01.08.02M39.72,50.25s-.05-.01-.07-.02.03,0,.07.02"/>
    <path class="st6" d="M37.68,45.41c-.06-1.3,2.39-.48,3.2-.44.64.03,2.58-.41,2.75-.3,1.14.77-1.21,2.33-2.79,2.33-.42,0-3.12-.81-3.16-1.6h0Z"/>
    <path class="st11" d="M25.8,31.04c-.15.5-.25,1.04-.33,1.63,0,0,.22-.92.71-2.28-.21.29-.35.52-.38.65h0Z"/>
    <path class="st21" d="M36.13,19.39l-.07.07v.02s.05-.07.07-.09h0Z"/>
    <path class="st11" d="M40.18,49.57c-.08-.01-.15-.03-.21-.04.07.01.14.03.21.04M39.89,49.52c-.05-.01-.1-.02-.13-.03.04.01.09.02.13.03"/>
    <path class="st1" d="M39.97,49.53s-.05-.01-.08-.02c.03,0,.05.01.08.02M39.76,49.48s-.05-.01-.07-.02.03,0,.08.02h0Z"/>
    <path class="st8" d="M28.8,35.25s1.28,4.13,3.47,4.46,4.56-.33,4.56-.33c0,0,.23-4.85-.9-5.48-1.12-.64-3.71-1.56-7.14,1.35"/>
    <path class="st13" d="M36.83,39.36s-.05.01-.16.05c-.03-1.49-.2-3.53-.9-3.92-1.04-.6-3.4-1.45-6.54.87-.29-.64-.43-1.12-.43-1.12,3.44-2.91,6.02-2,7.14-1.36,1.12.64.9,5.49.9,5.49"/>
    <path class="st22" d="M35.54,37.26c0,.94-.97,1.7-2.16,1.7s-2.16-.76-2.16-1.7.97-1.7,2.16-1.7,2.16.76,2.16,1.7"/>
    <path class="st7" d="M33.28,38.39c-.62-.04-1.1-.54-1.05-1.08.06-.54.63-.97,1.25-.93s1.1.54,1.05,1.08c-.06.54-.63.97-1.25.93"/>
    <path class="st9" d="M33.33,38.19c-.43-.03-.88-.4-.83-.87s.57-.78,1-.75.88.4.83.87-.57.77-1,.74h0Z"/>
    <path class="st8" d="M32.98,37.06c-.02.17-.24.29-.48.27-.25-.02-.44-.16-.42-.33.02-.17.23-.29.48-.27.25.01.44.16.42.33M34.38,38.02c-.01.08-.12.14-.24.14s-.22-.08-.21-.16c.01-.08.12-.14.24-.14s.22.08.21.16"/>
    <path class="st11" d="M40.21,50.19c-.08-.01-.15-.03-.21-.04.07.01.14.03.21.04M39.92,50.14c-.05-.01-.1-.02-.13-.03.04.01.09.02.13.03"/>
    <path class="st1" d="M40,50.15s-.05-.01-.08-.02c.03,0,.05.01.08.02M39.8,50.1s-.05-.01-.07-.02.03,0,.08.02h0Z"/>
    <path class="st11" d="M40.13,50.05c-.08-.01-.16-.03-.23-.04.08.02.15.03.23.04M39.82,49.99c-.05-.01-.1-.03-.14-.03.05.01.09.02.14.03"/>
    <path class="st10" d="M39.91,50s-.06-.01-.09-.02c.03,0,.05.01.09.02M39.68,49.95s-.05-.01-.08-.02.03.01.08.02"/>
    <path class="st11" d="M40.07,49.83c-.08-.01-.16-.03-.23-.04.08.02.15.03.23.04M39.76,49.77c-.05-.01-.1-.03-.14-.03.05.01.09.02.14.03"/>
    <path class="st10" d="M39.84,49.79s-.06-.01-.09-.02c.03,0,.05.01.09.02M39.62,49.74s-.05-.01-.08-.02.03.01.08.02"/>
    <path class="st11" d="M40.26,49.8c-.08-.01-.15-.03-.22-.04.08.01.15.03.22.04M39.96,49.74c-.05-.01-.1-.02-.13-.03.04.01.09.02.13.03"/>
    <path class="st10" d="M40.04,49.75s-.06-.01-.08-.02c.03,0,.05.01.08.02M39.82,49.71l-.08-.02s.03.01.08.02h0Z"/>
    <path class="st8" d="M52.94,35.1s-1.28,4.13-3.47,4.46-4.56-.33-4.56-.33c0,0-.23-4.85.9-5.48,1.12-.64,3.71-1.56,7.14,1.35"/>
    <path class="st13" d="M44.9,39.22s.05.01.16.05c.03-1.49.2-3.53.9-3.92,1.04-.6,3.4-1.45,6.54.87.29-.64.43-1.12.43-1.12-3.44-2.91-6.02-2-7.14-1.36-1.12.64-.9,5.49-.9,5.49"/>
    <path class="st22" d="M46.2,37.12c0,.94.97,1.7,2.16,1.7s2.16-.76,2.16-1.7-.97-1.7-2.16-1.7-2.16.76-2.16,1.7"/>
    <path class="st7" d="M48.46,38.25c.62-.04,1.1-.54,1.05-1.08-.06-.54-.63-.97-1.25-.93s-1.1.54-1.05,1.08c.06.54.63.97,1.25.93"/>
    <path class="st9" d="M48.4,38.05c.43-.03.88-.4.83-.87s-.57-.78-1-.75-.88.4-.83.87.57.77,1,.74h0Z"/>
    <path class="st8" d="M48.75,36.92c.02.17.24.29.48.27.25-.02.44-.16.42-.33s-.23-.29-.48-.27c-.25.01-.44.16-.42.33h0ZM47.36,37.88c.01.08.12.14.24.14s.22-.08.21-.16c-.01-.08-.12-.14-.24-.14s-.22.08-.21.16"/>
    <path class="st18" d="M38.14,35.18s-.42-.5-1.23-.99c-.51-.31-1.01-.54-1.53-.72-.63-.21-1.31-.35-1.96-.43-.59-.05-1.25-.04-2.02.04-.59.09-1.16.23-1.64.39-.35.09-.62.23-.84.33-.08.04-.16.08-.24.11l-1.05.52,1.21-.22c.06-.01.12-.03.18-.04.25-.05.56-.12.92-.16.09-.01.17-.03.26-.04.15-.03.31-.05.47-.05.18-.01.37-.02.57-.03h.25c.67-.02,1.23.02,1.73.11.55.08,1.11.21,1.63.4.49.18.96.36,1.32.58.74.39,1.15.71,1.15.71.1.08.24.12.37.12.1,0,.2-.02.29-.07.24-.13.31-.38.16-.57h-.01s0-.02,0-.02ZM53.15,33.92c-.07-.03-.15-.06-.23-.11-.22-.11-.49-.24-.83-.33-.49-.17-1.07-.31-1.66-.4-.76-.08-1.42-.09-2.02-.04-.65.07-1.33.22-1.96.43-.51.17-1.02.41-1.53.72-.8.48-1.2.95-1.23.99h0c-.14.17-.11.39.07.53.1.08.23.12.37.12s.27-.04.37-.12h0s.44-.34,1.15-.72c.36-.21.83-.39,1.31-.57.52-.19,1.08-.33,1.64-.4.49-.09,1.06-.13,1.72-.12h.27c.19.03.38.04.57.05.16,0,.32.03.47.05.09.01.18.03.26.04.37.04.67.11.92.16.06.01.13.03.18.04l1.21.22-1.06-.52h0Z"/>
    <path class="st11" d="M39.85,50.82c-.08-.01-.16-.03-.22-.04.08.02.15.03.22.04M39.54,50.75c-.05-.01-.1-.02-.14-.03.05.01.09.02.14.03"/>
    <path class="st2" d="M39.62,50.77s-.06-.01-.09-.02c.03,0,.05.01.09.02M39.41,50.72l-.08-.02s.03.01.08.02h0Z"/>
    <path class="st4" d="M37.71,51.86c-.06-.84,2.35.18,3.13.2.63.02,2.53-.13,2.7-.19,1.33-.5-.07,1.41-2.74,1.51-1.22.05-3.06-1.01-3.1-1.52h0Z"/>
    <path class="st0" d="M45.55,50.23c-.66-.03-1.33.52-2.11.43-.03-.01-.05-.01-.08-.01-.18-.03-.36,0-.56.05-.24.05-.49.15-.72.23-.39.13-.83.23-1.29.2s-.01,0-.03,0h-.03c-.45.03-.9-.07-1.29-.2-.23-.08-.48-.18-.72-.23-.2-.05-.38-.08-.56-.05-.03,0-.05,0-.08.01-.79.08-1.46-.46-2.11-.43-.18.01-.44-.03-.59-.03.03.01.06.03.1.05,1.86.91,3.47,2.62,5.25,2.56h.05c1.78.05,3.39-1.65,5.25-2.56.03-.01.07-.03.1-.05-.15,0-.41.05-.59.03"/>
    <path class="st20" d="M46.1,50.18s-1.89-.73-3.24-.3c0,0-.5.2-1.02.31-.32.12-.7.16-1.07.14-.28-.01-.55-.05-.77-.09-.08-.01-.15-.03-.22-.04-.03,0-.06-.01-.09-.02-.05-.01-.09-.02-.14-.03-.05-.01-.08-.02-.08-.02-.43-.12-.8-.26-.8-.26-1.35-.43-3.24.3-3.24.3-.03.01-.04.02-.04.02.15,0,.41.05.59.03.65-.03,1.33.52,2.11.43.03-.01.05-.01.08-.01.18-.03.36,0,.56.05.24.05.49.15.72.23.39.13.83.23,1.29.2s.01,0,.03,0h.03c.45.03.9-.07,1.29-.2.23-.08.48-.18.72-.23.2-.05.38-.08.56-.05.03,0,.05,0,.08.01.79.08,1.46-.46,2.11-.43.18.01.44-.03.59-.03l-.04-.02h0Z"/>
    <path class="st20" d="M37.58,50.62s3.55,1.08,6.3.03l-.32-.21h-3.72l-2.27.19Z"/>
    <path class="st25" d="M57.13,79.96H24.12c1-3.81,2.15-8.1,2.56-16.02.09-.11.18-.23.27-.34.68-.41,1.39-.76,2.13-1.05.38-.15.74-.28,1.07-.37.11-.04.22-.07.33-.1.13-.03.24-.06.35-.09.32-.08.58-.14.77-.16.27-.05.41-.06.41-.06.08,0,.15,0,.23-.02.04,0,.09-.01.13-.03,2.45,5.77,6.08,9.59,8.14,9.62h0s.06,0,.1-.01c2.11-.23,5.76-3.99,8.19-9.65.16.05.33.08.51.08,0,0,.1.01.28.04.29.04.78.14,1.42.33.1.03.2.06.31.09.05.02.11.03.17.05.15.05.3.1.45.16.73.27,1.56.64,2.44,1.16h0c.06.08.11.14.17.21.41,8.02,1.55,12.32,2.57,16.15h0Z"/>
    <path class="st17" d="M40.42,25.16l-16.14-.13c-3.21,1.54-3.88,3.7-3.88,3.7-.49,1.3,9.27,3.3,9.27,3.3l10.75.33v-7.2h0Z"/>
    <path class="st12" d="M40.42,31.97c-18.22-.19-20.02-3.24-20.02-3.24,1.01,4.05,14.16,4.47,20.02,4.46v-1.22Z"/>
    <path class="st17" d="M40.42,25.16l16.14-.13c3.21,1.54,3.88,3.7,3.88,3.7.49,1.3-9.27,3.3-9.27,3.3l-10.75.33v-7.2h0Z"/>
    <path class="st12" d="M40.42,31.97c18.22-.19,20.02-3.24,20.02-3.24-1.01,4.05-14.16,4.47-20.02,4.46v-1.22Z"/>
    <path class="st16" d="M40.51,8.45l.54-.44s6.92-.4,12.44,4.19c0,0,3.65,1.48,3.06,9.74l.47,3.06c.13.87-.52,1.69-1.54,1.94-.72.18-1.51.35-2.08.43l-12.88-18.91Z"/>
    <path class="st12" d="M55.63,26.78s-1.45-5.55-.43-7.31c0,0,2.63-6.34-6.01-8.77l-8.69-2.25v19.61s12.6,0,15.12-1.28"/>
    <path class="st16" d="M40.51,8.45l-.54-.44s-6.92-.4-12.44,4.19c0,0-3.65,1.48-3.06,9.74l-.47,3.06c-.13.87.52,1.69,1.54,1.94.72.18,1.51.35,2.08.43l12.88-18.91Z"/>
    <path class="st12" d="M40.51,8.45v19.61s-12.6,0-15.12-1.27c0,0,1.18-4.53.66-6.71-.05-.23-.13-.44-.23-.61,0,0-2.63-6.34,6-8.77l8.69-2.24h0Z"/>
    <path class="st19" d="M40.06,8.45h.45v6.4h-.45v-6.4Z"/>
    <path class="st19" d="M40.51,14.85v13.21s-12.6,0-15.12-1.27c0,0,1.18-4.53.66-6.71v-.05s9.93-5.33,14.23-5.18h.23Z"/>
    <path class="st19" d="M40.28,14.85v13.21s12.79,0,15.35-1.27c0,0-1.2-4.53-.67-6.71v-.05s-10.08-5.33-14.44-5.18h-.24,0Z"/>
    <path class="st26" d="M42.56,8.06c0,.48-.92.86-2.05.86s-2.05-.39-2.05-.86.92-.86,2.05-.86,2.05.39,2.05.86"/>
  </g>
</svg>