<?xml version="1.0" encoding="UTF-8"?>
<svg id="Layer_2" xmlns="http://www.w3.org/2000/svg" version="1.1" xmlns:xlink="http://www.w3.org/1999/xlink" viewBox="0 0 80 80">
  <!-- Generator: Adobe Illustrator 30.2.1, SVG Export Plug-In . SVG Version: 2.1.1 Build 1)  -->
  <defs>
    <style>
      .st0 {
        fill: #dac6a4;
      }

      .st1 {
        fill: #b5957e;
      }

      .st2 {
        fill: #b8987d;
      }

      .st3 {
        fill: #714223;
      }

      .st4 {
        fill: #ccad8a;
      }

      .st5 {
        fill: #ecdab6;
      }

      .st6 {
        fill: #d7bd9d;
      }

      .st7 {
        fill: #fff;
      }

      .st8 {
        fill: #272213;
      }

      .st9 {
        fill: #e5b344;
      }

      .st10 {
        fill: #b7967d;
      }

      .st11 {
        fill: none;
      }

      .st12 {
        fill: #af9cc4;
      }

      .st13 {
        fill: #cc8c10;
      }

      .st14 {
        fill: #d2bb9b;
      }

      .st15 {
        fill: #ba9d82;
      }

      .st16 {
        fill: #dcc5a0;
      }

      .st17 {
        fill: #6e5b8f;
      }

      .st18 {
        fill: #c1a587;
      }

      .st19 {
        fill: #44361f;
      }

      .st20 {
        fill: #ac0941;
      }

      .st21 {
        fill: #5b5051;
      }

      .st22 {
        fill: #a98d76;
      }

      .st23 {
        fill: #462e1b;
      }

      .st24 {
        clip-path: url(#clippath);
      }

      .st25 {
        fill: #669084;
      }

      .st26 {
        fill: #ebd9b5;
      }
    </style>
    <clipPath id="clippath">
      <rect class="st11" x="35.83" y="55.3" width="9.21" height="5.34"/>
    </clipPath>
  </defs>
  <g id="Layer_1-2">
    <path class="st21" d="M0,0h80v80H0V0Z"/>
    <g>
      <path class="st16" d="M40.4,49.82v30.17h-16.63c-.28-.11-.41-.15-.41-.15,0-3.85.57-6.85,1.45-9.2,2.12-5.66,5.99-7.45,7.78-7.99.58-.18.94-.22.94-.22.06,0,.12,0,.18-.01.52-.08.95-.53,1.29-1.24.26-.53.46-1.2.64-1.99.07-.31.12-.61.17-.94.08-.55.16-1.14.24-1.75.03-.37.06-.73.1-1.12.14-1.84.19-3.87.19-5.78,0,0,2.23.23,4.05.23h0Z"/>
      <path class="st26" d="M57.5,79.84s-.15.05-.39.15h-16.71v-30.17h.04c1.8,0,4.06-.23,4.06-.23,0,1.9.04,3.89.18,5.74.04.36.08.73.1,1.09.07.64.15,1.24.25,1.79h0c.03.27.08.49.12.73.16.79.36,1.48.6,2.03.3.69.66,1.17,1.11,1.36.14.06.29.09.44.09,0,0,.64.07,1.6.44,1.96.75,5.25,2.73,7.13,7.77.88,2.35,1.45,5.35,1.45,9.2h.01Z"/>
      <g class="st24">
        <path class="st15" d="M45.04,58.17h0c-.42.65-1.82,2.47-4.61,2.47h-.03c-2.64-.01-4.18-1.89-4.57-2.44.08-.55.16-1.14.24-1.74.03-.36.06-.73.11-1.11,1.28.32,2.69.51,4.18.54h.05c1.54-.02,2.96-.24,4.29-.58.04.36.08.73.1,1.09.06.64.15,1.23.25,1.78"/>
      </g>
      <path class="st4" d="M40.22,15.43c-17.61,0-17.71,14.46-16.92,23.92-1.2-2.24-4.78-1.56-4.49,1.98.29,3.4,5.41,5.14,5.27,4.76,2.66,7,9.73,12.27,16.16,12.27h.13V15.43h-.14Z"/>
      <path class="st22" d="M19.92,39.84c.87-1.37,2.22-.78,2.54-.47.35.33.64.75.42,1.56-.12.46-.6.5-.5,1.19.13.78.5.82.72,1,.2.17.46.31.58.64.13.33.15.68.08.97-.13.55-.96.1-1.52-.13-.37-.17-1.53-1.14-1.82-1.45-.73-.82-1.09-2.41-.5-3.3"/>
      <path class="st6" d="M40.31,15.43c17.61,0,17.71,14.46,16.93,23.92,1.2-2.24,4.77-1.56,4.48,1.98-.28,3.4-5.4,5.14-5.27,4.76-2.6,7-9.73,12.27-16.16,12.27h-.09l-.04-42.95h.13"/>
      <path class="st22" d="M60.6,39.84c-.87-1.37-2.2-.78-2.54-.47-.35.33-.62.75-.42,1.56.12.46.6.5.5,1.19-.13.78-.5.82-.71,1-.2.17-.47.31-.59.64-.12.33-.15.68-.08.97.13.55.96.1,1.52-.13.38-.17,1.53-1.14,1.82-1.45.75-.82,1.09-2.41.5-3.3"/>
      <path class="st16" d="M40.07,19.51c-5.79,0-10.04,1.65-12.59,4.9-3.59,4.56-3.45,11.49-2.13,16.48.41,1.53.62,5.63.89,7.14,1.26,6.74,8.85,10.34,13.84,10.34h.13V19.51h-.08"/>
      <path class="st26" d="M52.65,24.42c-2.54-3.24-6.74-4.89-12.45-4.91v38.87c5.71-.06,12.54-4.01,13.71-10.34.29-1.51.49-5.61.89-7.14,1.32-4.98,1.47-11.9-2.15-16.47"/>
      <path class="st11" d="M39.5,50.07c-.08-.01-.15-.03-.22-.04.07.01.14.03.22.04M39.2,51.47c-.05-.01-.1-.02-.13-.03.04.01.09.02.13.03"/>
      <path class="st10" d="M39.28,51.48s-.05-.01-.08-.02c.03,0,.05.01.08.02M39.07,51.44s-.05-.01-.07-.02.03,0,.08.02h-.01Z"/>
      <path class="st6" d="M36.84,46.45c-.06-1.34,2.51-.49,3.36-.45.68.03,2.71-.42,2.89-.31,1.2.8-1.27,2.4-2.94,2.4-.44,0-3.28-.84-3.32-1.65h.01Z"/>
      <path class="st11" d="M24.42,31.62c-.15.51-.27,1.08-.34,1.68,0,0,.24-.95.75-2.35-.22.3-.37.54-.4.68"/>
      <path class="st19" d="M35.29,19.61l-.07.07v.02s.05-.07.07-.09"/>
      <path class="st11" d="M39.56,50.74c-.08-.01-.15-.03-.23-.04.08.01.15.03.23.04M39.25,50.68c-.05-.01-.1-.02-.13-.03.04.01.09.02.13.03"/>
      <path class="st1" d="M39.33,50.7s-.05-.01-.08-.02c.03,0,.05.01.08.02M39.11,50.65l-.08-.02s.03,0,.08.02"/>
      <path class="st7" d="M27.57,34.68s1.34,5.41,3.65,5.85,4.8-.44,4.8-.44c0,0,.24-6.36-.94-7.19-1.18-.83-3.9-2.04-7.51,1.77"/>
      <path class="st14" d="M36.03,40.08s-.05.01-.17.06c-.03-1.95-.22-4.63-.95-5.14-1.1-.79-3.58-1.9-6.88,1.14-.3-.84-.45-1.48-.45-1.48,3.62-3.82,6.34-2.62,7.51-1.78,1.18.83.94,7.2.94,7.2h.01Z"/>
      <path class="st23" d="M34.66,37.33c0,1.23-1.01,2.23-2.27,2.23s-2.27-.99-2.27-2.23,1.01-2.23,2.27-2.23,2.27.99,2.27,2.23"/>
      <path class="st3" d="M32.29,38.81c-.66-.05-1.16-.71-1.1-1.41s.67-1.27,1.32-1.22,1.16.7,1.1,1.41-.67,1.27-1.32,1.22"/>
      <path class="st8" d="M32.35,38.55c-.45-.04-.93-.53-.88-1.14s.59-1.01,1.06-.98c.45.04.93.53.88,1.14s-.59,1.01-1.06.97"/>
      <path class="st7" d="M31.98,37.05c-.02.22-.25.38-.51.36s-.46-.22-.44-.43.25-.38.51-.36.46.22.44.43M33.44,38.32c-.01.11-.12.19-.26.18s-.24-.11-.23-.22c.01-.11.12-.19.26-.18s.24.11.23.22"/>
      <path class="st11" d="M39.59,51.38c-.08-.01-.15-.03-.23-.04.08.01.15.03.23.04M39.28,51.31c-.05-.01-.1-.02-.13-.03.04.01.09.02.13.03"/>
      <path class="st1" d="M39.36,51.33s-.05-.01-.08-.02c.03,0,.05.01.08.02M39.15,51.28l-.08-.02s.03.01.08.02"/>
      <path class="st11" d="M39.51,51.23c-.09-.01-.16-.03-.24-.04.08.02.16.03.24.04M39.17,51.16c-.05-.01-.11-.02-.14-.03.05.01.09.02.14.03"/>
      <path class="st10" d="M39.26,51.18s-.06-.01-.09-.02c.03,0,.05.01.09.02M39.03,51.13s-.05-.01-.08-.02.03.01.08.02h0Z"/>
      <path class="st11" d="M39.44,51.01c-.09-.01-.16-.03-.24-.04.08.02.16.03.24.04M39.11,50.94c-.05-.01-.11-.02-.14-.03.05.01.09.02.14.03"/>
      <path class="st10" d="M39.2,50.96s-.06-.01-.09-.02c.03,0,.05.01.09.02M38.97,50.9s-.05-.01-.08-.02.03.01.08.02h0Z"/>
      <path class="st11" d="M39.64,50.97c-.08-.01-.16-.03-.24-.04.08.02.15.03.24.04M39.32,50.9c-.05-.01-.1-.02-.14-.03.05.01.09.02.14.03"/>
      <path class="st10" d="M39.41,50.93s-.06-.01-.09-.02c.03,0,.05.01.09.02M39.18,50.87l-.08-.02s.03.01.08.02h0Z"/>
      <path class="st7" d="M52.98,34.49s-1.34,5.41-3.65,5.85-4.8-.44-4.8-.44c0,0-.24-6.36.94-7.19,1.18-.83,3.9-2.04,7.51,1.77"/>
      <path class="st14" d="M44.53,39.9s.05.01.17.06c.03-1.95.22-4.63.95-5.14,1.1-.79,3.58-1.9,6.88,1.14.3-.84.45-1.48.45-1.48-3.62-3.82-6.34-2.62-7.51-1.78-1.18.83-.94,7.2-.94,7.2h-.01Z"/>
      <path class="st23" d="M45.89,37.14c0,1.23,1.01,2.23,2.27,2.23s2.27-.99,2.27-2.23-1.01-2.23-2.27-2.23-2.27.99-2.27,2.23"/>
      <path class="st3" d="M48.27,38.62c.66-.05,1.16-.71,1.1-1.41s-.67-1.27-1.32-1.22-1.16.7-1.1,1.41.67,1.27,1.32,1.22"/>
      <path class="st8" d="M48.21,38.37c.45-.04.93-.53.88-1.14s-.59-1.01-1.06-.98c-.45.04-.93.53-.88,1.14s.59,1.01,1.06.97"/>
      <path class="st7" d="M48.59,36.87c.02.22.25.38.51.36s.46-.22.44-.43-.25-.38-.51-.36-.46.22-.44.43M47.11,38.14c.01.11.12.19.26.18s.24-.11.23-.22c-.01-.11-.12-.19-.26-.18s-.24.11-.23.22"/>
      <path d="M37.42,34.59s-.44-.65-1.29-1.3c-.53-.4-1.07-.71-1.61-.94-.67-.28-1.37-.47-2.07-.56-.62-.07-1.32-.05-2.13.06-.61.11-1.22.3-1.73.51-.36.12-.66.3-.88.43-.09.05-.16.1-.25.14l-1.1.68,1.27-.3c.06-.01.12-.03.19-.05.27-.07.59-.15.97-.2.09-.01.18-.03.28-.05.16-.03.33-.06.5-.07.19-.01.39-.02.59-.04l.27-.02c.71,0,1.3.04,1.82.16.57.09,1.17.28,1.71.53.51.24,1,.48,1.39.76.78.51,1.21.93,1.21.93.1.1.25.15.39.15.1,0,.2-.03.3-.09.26-.16.33-.5.16-.75v-.02h-.01s0,.04,0,.04ZM53.22,32.95c-.07-.04-.15-.08-.25-.14-.24-.14-.52-.31-.87-.43-.52-.23-1.13-.41-1.75-.52-.8-.1-1.5-.12-2.12-.05-.69.09-1.4.29-2.07.56-.53.23-1.08.54-1.61.94-.84.64-1.26,1.25-1.29,1.29h0c-.14.23-.11.51.07.7.1.1.25.16.39.16s.29-.06.39-.16h0s.46-.44,1.21-.94c.38-.28.87-.51,1.38-.76.54-.25,1.14-.43,1.72-.53.52-.12,1.12-.16,1.81-.16l.28.02c.2.01.4.03.59.04.16,0,.34.04.49.07.09.02.18.04.28.05.39.05.71.14.97.2.07.02.13.04.19.05l1.27.3-1.12-.69h.02Z"/>
      <path class="st11" d="M39.2,52.02c-.08-.01-.16-.03-.24-.04.08.02.15.03.24.04M38.88,51.96c-.05-.01-.1-.02-.14-.03l.14.03Z"/>
      <path class="st2" d="M38.97,51.98s-.06-.01-.09-.02c.03,0,.05.01.09.02M38.74,51.93s-.05-.01-.08-.02.03.01.08.02"/>
      <path class="st5" d="M36.96,53.1c-.06-.87,2.47.18,3.3.2.67.02,2.66-.13,2.85-.19,1.39-.51-.08,1.45-2.89,1.56-1.29.05-3.22-1.04-3.26-1.57h0Z"/>
      <path class="st0" d="M45.2,51.42c-.69-.03-1.39.53-2.22.44-.03-.02-.05-.02-.08-.02-.19-.03-.38,0-.58.05-.26.05-.52.15-.76.24-.41.13-.88.24-1.36.2s-.02,0-.03,0h-.03c-.48.03-.94-.07-1.36-.2-.25-.08-.5-.18-.76-.24-.2-.05-.4-.08-.58-.05-.04,0-.05,0-.08.02-.83.08-1.54-.48-2.22-.44-.19.02-.46-.03-.62-.03.03.02.07.03.1.05,1.97.93,3.66,2.69,5.53,2.64h.05c1.87.06,3.57-1.7,5.53-2.64.04-.02.07-.03.1-.05-.15,0-.43.05-.62.03h.01Z"/>
      <path class="st18" d="M45.79,51.37s-2-.76-3.41-.31c0,0-.53.2-1.08.33-.34.12-.74.16-1.13.14-.3-.01-.58-.05-.82-.09-.08-.01-.15-.03-.24-.04-.03,0-.06-.01-.09-.02l-.14-.03c-.05-.01-.08-.02-.08-.02-.45-.12-.84-.27-.84-.27-1.42-.44-3.41.31-3.41.31-.03.01-.04.02-.04.02.15,0,.43.05.62.03.69-.03,1.39.53,2.22.44.03-.02.05-.02.08-.02.19-.03.38,0,.58.05.26.05.52.15.76.24.41.13.88.24,1.36.2s.02,0,.03,0h.03c.48.03.94-.07,1.36-.2.25-.08.5-.18.76-.24.2-.05.4-.08.58-.05.04,0,.05,0,.08.02.83.08,1.54-.48,2.22-.44.19.02.46-.03.62-.03,0,0-.02,0-.04-.02h-.01Z"/>
      <path class="st18" d="M36.81,51.82s3.74,1.12,6.64.02l-.34-.22h-3.91l-2.39.19h0Z"/>
      <path class="st25" d="M35.41,75.23l-8.97,4.77h-.52c.06-.97.13-2.55.14-4.62h-3.13c-.03-3.01,2.42-8.15,2.42-8.15.24-.32.47-.6.73-.88l9.33,8.88h.01Z"/>
      <path class="st13" d="M26.08,66.33l9.32,8.89-9.32-8.88h0ZM26.44,80l8.97-4.77,5.02,4.77h-13.99Z"/>
      <path class="st17" d="M53.89,65.39l-6.1,3.25-3.28-3.11c1.13-1.45,1.89-3.04,2.06-3.46.06-.17.13-.27.16-.29.08.1.17.19.27.28.02,0,.02.01.02.01.27.22.57.35.91.35,0,0,.38.03,1,.19.14.05.3.09.46.15.84.27,2,.76,3.21,1.61.08.06.16.12.25.18.35.25.7.53,1.03.84"/>
      <path class="st9" d="M55,80h-14.58l-5.01-4.77,12.39-6.59,7.09,6.75h-.03c.01,2.07.08,3.65.15,4.61h-.01Z"/>
      <path class="st20" d="M47.79,68.64l-12.39,6.59-9.33-8.88c.65-.72,1.29-1.3,1.95-1.77.02-.02.03-.03.05-.04.06-.06.13-.1.19-.14.22-.14.43-.29.64-.42.94-.58,1.84-.96,2.54-1.2.16-.05.32-.1.45-.13.66-.18,1.07-.23,1.07-.23.35,0,.65-.12.91-.34,0,0,0-.01.01-.01.08-.07.17-.17.26-.28h.01s.04.03.07.08h0c.03.06.05.12.08.2.35.81,2.91,6.12,6.14,6.12.07,0,.14,0,.22-.01,1.49-.11,2.82-1.32,3.84-2.64l3.27,3.11h.03Z"/>
      <path class="st7" d="M54.3,16.22c-3.85-4.26-9.51-6.33-9.51-6.33l1.57,1.54c-.94-.75-2.61-1.79-5.41-2.71-3.97-1.31-6.56.15-6.56.15,0,0,2.08-.07,3.09.78-1-.45-2.74-.6-5.62.64-5.66,2.44-5.55,6.8-9.5,8.13-4.03,1.37-5.19-.39-5.19-.39,0,0,1.75,3.08,4.86,3.09.5,0,.55-.01.55-.01,0,.01-1.17,3.31-1.38,5.78-.23,2.52.48,4.24.71,8.95.18,4.03,1.21,1.97,2.43,4.94.41.99.43,2.11.43,2.11.45.11,1.63-2.42.79-6.82-.55-2.86,2.18-13.7,8.78-11.58.64.2,1.19.44,1.69.69-6.3,6.56-2.4,15.88-2.4,15.88-.13-6.63,4.37-11.4,6.98-13.61-1.56,3.88-.15,7.94-.15,7.94.32-6.68,7.01-10.34,7.01-10.34l-.51-1.13c1.54-.32,3.09-.19,4.42.58,2.71,1.6,4.25,5.18,3.78,10.9-.6,7.3.53,7.24.53,7.24.34,0-.03-1.95,1.11-3.28,1.13-1.34,2.86-5.85,2.86-10.36s-1.48-8.5-5.33-12.78h0v-.02Z"/>
      <path class="st12" d="M57.94,75.38h-3.06l-7.08-6.75,6.1-3.25c.57.51,1.13,1.12,1.66,1.83,0,0,2.5,3.54,2.39,8.15"/>
      <path class="st11" d="M62.83,60.64l-8.93,4.75M47.8,68.63h0"/>
    </g>
  </g>
</svg>