<?xml version="1.0" encoding="UTF-8"?>
<svg id="Layer_2" xmlns="http://www.w3.org/2000/svg" version="1.1" xmlns:xlink="http://www.w3.org/1999/xlink" viewBox="0 0 80 80">
  <!-- Generator: Adobe Illustrator 30.2.1, SVG Export Plug-In . SVG Version: 2.1.1 Build 1)  -->
  <defs>
    <style>
      .st0 {
        fill: #dac6a4;
      }

      .st1 {
        fill: #41364e;
      }

      .st2 {
        fill: #b5957e;
      }

      .st3 {
        fill: #b8987d;
      }

      .st4 {
        fill: #714223;
      }

      .st5 {
        fill: #ccad8a;
      }

      .st6 {
        fill: #ecdab6;
      }

      .st7 {
        fill: #d7bd9d;
      }

      .st8 {
        fill: #fff;
      }

      .st9 {
        fill: #272213;
      }

      .st10, .st11 {
        fill: #e9be00;
      }

      .st12 {
        fill: #b7967d;
      }

      .st13 {
        fill: none;
      }

      .st14 {
        fill: #884139;
      }

      .st11 {
        fill-rule: evenodd;
      }

      .st15 {
        fill: #d2bb9b;
      }

      .st16 {
        fill: #ba9d82;
      }

      .st17 {
        fill: #dcc5a0;
      }

      .st18 {
        fill: #6a2528;
      }

      .st19 {
        fill: #c1a587;
      }

      .st20 {
        fill: #a98d76;
      }

      .st21 {
        fill: #462e1b;
      }

      .st22 {
        clip-path: url(#clippath);
      }

      .st23 {
        fill: #ebd9b5;
      }
    </style>
    <clipPath id="clippath">
      <rect class="st13" x="36.68" y="55.41" width="8.99" height="5.31"/>
    </clipPath>
  </defs>
  <g id="Layer_1-2">
    <path class="st1" d="M0,0h80v79.96H0V0Z"/>
    <path class="st17" d="M41.14,49.96v30.04h-16.23c-.27-.1-.39-.16-.39-.16,0-1.43.08-2.75.22-3.96.14-1.17.34-2.25.59-3.23.18-.7.38-1.36.61-1.97,1.16-3.17,2.87-5.13,4.46-6.32,1.23-.92,2.37-1.39,3.13-1.63.56-.18.92-.22.92-.22h.02c.06,0,.1,0,.16-.02h0c.51-.08.92-.53,1.26-1.23.25-.53.45-1.2.62-1.98.06-.3.11-.61.18-.94.08-.56.15-1.14.21-1.75.03-.37.06-.73.11-1.12.14-1.84.19-3.85.19-5.75,0,0,2.18.23,3.94.23h0Z"/>
    <path class="st23" d="M57.83,79.84s-.14.05-.38.16h-16.31v-30.04h.04c1.76,0,3.97-.23,3.97-.23,0,1.89.03,3.88.18,5.71.04.36.08.73.1,1.09.06.63.15,1.23.24,1.78h0c.03.26.08.49.13.73.15.78.35,1.47.59,2.02.29.68.64,1.16,1.07,1.35.05.02.11.04.17.06.08.02.18.03.27.03,0,0,.09.01.24.04h0c.27.05.72.17,1.3.4.68.26,1.52.68,2.4,1.33,1.62,1.19,3.38,3.16,4.57,6.4.23.61.42,1.27.61,1.97.24.96.44,2.02.58,3.17.14,1.22.23,2.56.23,4.01h0Z"/>
    <g class="st22">
      <path class="st16" d="M45.67,58.26h0c-.41.64-1.78,2.46-4.5,2.46h-.03c-2.58-.01-4.08-1.88-4.46-2.43.08-.55.16-1.13.23-1.73.03-.35.06-.72.11-1.11,1.25.31,2.63.51,4.08.54h.05c1.5-.03,2.89-.24,4.19-.58.04.35.08.72.1,1.08.06.63.15,1.22.24,1.77"/>
    </g>
    <path class="st5" d="M40.95,15.72c-17.19,0-17.29,14.39-16.52,23.82-1.17-2.24-4.67-1.55-4.38,1.97.28,3.39,5.28,5.12,5.14,4.75,2.6,6.97,9.5,12.22,15.77,12.22h.13V15.72h-.13Z"/>
    <path class="st20" d="M21.15,40.02c.85-1.37,2.17-.78,2.48-.47.34.33.62.75.41,1.55-.12.46-.59.5-.49,1.18.13.78.49.82.7,1,.2.17.45.3.57.63.13.33.15.67.08.97-.13.55-.94.1-1.48-.13-.36-.17-1.49-1.13-1.78-1.44-.71-.82-1.06-2.39-.49-3.29"/>
    <path class="st7" d="M41.05,15.72c17.19,0,17.29,14.39,16.53,23.82,1.17-2.24,4.66-1.55,4.37,1.97-.27,3.39-5.27,5.12-5.14,4.75-2.54,6.97-9.5,12.22-15.77,12.22h-.09l-.04-42.76h.13"/>
    <path class="st20" d="M60.85,40.02c-.85-1.37-2.15-.78-2.48-.47-.34.33-.61.75-.41,1.55.12.46.59.5.49,1.18-.13.78-.49.82-.69,1-.2.17-.46.3-.58.63-.12.33-.15.67-.08.97.13.55.94.1,1.48-.13.37-.17,1.49-1.13,1.78-1.44.73-.82,1.06-2.39.49-3.29"/>
    <path class="st17" d="M40.82,19.78c-5.65,0-9.8,1.64-12.29,4.88-3.5,4.53-3.37,11.45-2.08,16.42.4,1.52.61,5.61.87,7.11,1.23,6.72,8.64,10.29,13.51,10.29h.13V19.78h-.08"/>
    <path class="st23" d="M53.1,24.67c-2.48-3.22-6.58-4.86-12.15-4.89v38.7c5.57-.06,12.24-3.98,13.38-10.29.28-1.5.48-5.59.87-7.11,1.29-4.96,1.43-11.85-2.1-16.4"/>
    <path class="st13" d="M40.26,50.2c-.08-.01-.15-.03-.21-.04.07.01.14.03.21.04M39.97,51.6c-.05-.01-.1-.02-.13-.03.04.01.09.02.13.03"/>
    <path class="st12" d="M40.05,51.61s-.05-.01-.08-.02c.03,0,.05.01.08.02M39.84,51.57s-.05-.01-.07-.02.03,0,.08.02h0Z"/>
    <path class="st13" d="M25.54,31.84c-.15.51-.26,1.07-.33,1.67,0,0,.23-.94.73-2.34-.21.3-.36.54-.39.67M40.32,50.87c-.08-.01-.15-.03-.22-.04.08.01.15.03.22.04M40.01,50.81c-.05-.01-.1-.02-.13-.03.04.01.09.02.13.03"/>
    <path class="st2" d="M40.1,50.83s-.05-.01-.08-.02c.03,0,.05.01.08.02M39.88,50.78l-.08-.02s.03.01.08.02"/>
    <path class="st8" d="M28.62,34.88s1.31,5.39,3.56,5.83,4.69-.44,4.69-.44c0,0,.23-6.33-.92-7.16-1.15-.83-3.81-2.03-7.33,1.77"/>
    <path class="st15" d="M36.87,40.26s-.05.01-.17.06c-.03-1.94-.21-4.61-.93-5.12-1.07-.79-3.49-1.89-6.72,1.13-.29-.83-.44-1.47-.44-1.47,3.53-3.8,6.19-2.61,7.33-1.77,1.15.83.92,7.17.92,7.17h0Z"/>
    <path class="st21" d="M35.54,37.52c0,1.23-.99,2.22-2.22,2.22s-2.22-.99-2.22-2.22.99-2.22,2.22-2.22,2.22.99,2.22,2.22"/>
    <path class="st4" d="M33.22,38.99c-.64-.05-1.13-.7-1.07-1.41s.65-1.27,1.29-1.21,1.13.7,1.07,1.41-.65,1.27-1.29,1.22"/>
    <path class="st9" d="M33.28,38.74c-.44-.04-.91-.53-.86-1.13.05-.6.58-1.01,1.03-.98.44.04.91.53.86,1.13s-.58,1.01-1.03.97"/>
    <path class="st8" d="M32.91,37.25c-.02.22-.24.38-.5.36-.26-.02-.45-.22-.43-.43.02-.22.24-.38.5-.36s.45.21.43.43M34.35,38.51c-.01.11-.12.19-.25.18-.13-.01-.23-.11-.22-.22.01-.11.12-.19.25-.18.13.01.23.11.22.22"/>
    <path class="st13" d="M40.35,51.51c-.08-.01-.15-.03-.22-.04.08.01.15.03.22.04M40.05,51.45c-.05-.01-.1-.02-.13-.03.04.01.09.02.13.03"/>
    <path class="st2" d="M40.13,51.47s-.05-.01-.08-.02c.03,0,.05.01.08.02M39.91,51.42l-.08-.02s.03,0,.08.02"/>
    <path class="st13" d="M40.27,51.36c-.09-.01-.16-.03-.23-.04.08.02.16.03.23.04M39.94,51.29c-.05-.01-.11-.03-.14-.03.05.01.09.02.14.03"/>
    <path class="st12" d="M40.03,51.31s-.06-.01-.09-.02c.03,0,.05.01.09.02M39.8,51.26s-.05-.01-.08-.02.03.01.08.02h0Z"/>
    <path class="st13" d="M40.2,51.13c-.09-.01-.16-.03-.23-.04.08.02.16.03.23.04M39.87,51.07c-.05-.01-.11-.03-.14-.03.05.01.09.02.14.03"/>
    <path class="st12" d="M39.96,51.09s-.06-.01-.09-.02c.03,0,.05.01.09.02M39.73,51.04s-.05-.01-.08-.02.03.01.08.02h0Z"/>
    <path class="st13" d="M40.4,51.1c-.08-.01-.16-.03-.23-.04.08.02.15.03.23.04M40.08,51.04c-.05-.01-.1-.02-.14-.03.05.01.09.02.14.03"/>
    <path class="st12" d="M40.17,51.06s-.06-.01-.09-.02c.03,0,.05.01.09.02M39.95,51.01l-.08-.02s.03.01.08.02h0Z"/>
    <path class="st8" d="M53.42,34.7s-1.31,5.39-3.56,5.83-4.69-.44-4.69-.44c0,0-.23-6.33.92-7.16,1.15-.83,3.81-2.03,7.33,1.77"/>
    <path class="st15" d="M45.17,40.08s.05.01.17.06c.03-1.94.21-4.61.93-5.12,1.07-.79,3.49-1.89,6.72,1.13.29-.83.44-1.47.44-1.47-3.53-3.8-6.19-2.61-7.33-1.77-1.15.83-.92,7.17-.92,7.17h0Z"/>
    <path class="st21" d="M46.5,37.33c0,1.23.99,2.22,2.22,2.22s2.22-.99,2.22-2.22-.99-2.22-2.22-2.22-2.22.99-2.22,2.22"/>
    <path class="st4" d="M48.82,38.81c.64-.05,1.13-.7,1.07-1.41s-.65-1.27-1.29-1.21-1.13.7-1.07,1.41.65,1.27,1.29,1.22"/>
    <path class="st9" d="M48.76,38.55c.44-.04.91-.53.86-1.13-.05-.6-.58-1.01-1.03-.98-.44.04-.91.53-.86,1.13s.58,1.01,1.03.97"/>
    <path class="st8" d="M49.12,37.07c.02.22.24.38.5.36.26-.02.45-.22.43-.43-.02-.22-.24-.38-.5-.36s-.45.21-.43.44h0ZM47.68,38.32c.01.11.12.19.25.18.13-.01.23-.11.22-.22-.01-.11-.12-.19-.25-.18-.13.01-.23.11-.22.22"/>
    <path d="M38.22,34.8s-.43-.65-1.26-1.29c-.52-.4-1.04-.71-1.57-.94-.65-.27-1.34-.46-2.02-.56-.61-.07-1.29-.05-2.08.06-.6.11-1.19.29-1.69.51-.35.12-.64.29-.86.43-.09.05-.16.1-.24.14l-1.07.68,1.24-.29c.06-.01.12-.03.19-.05.26-.07.58-.15.95-.21.09-.01.18-.03.27-.05.16-.03.32-.06.49-.07.19-.01.38-.03.58-.04l.26-.02c.69,0,1.27.04,1.78.16.56.1,1.14.28,1.67.53.5.24.98.48,1.36.75.76.51,1.18.93,1.18.93.1.1.24.16.38.16.1,0,.2-.03.29-.09.25-.16.32-.5.16-.74v-.02s-.01.01-.01.01ZM53.64,33.16c-.07-.04-.15-.09-.24-.14-.23-.14-.51-.31-.85-.43-.51-.23-1.1-.4-1.71-.52-.78-.1-1.46-.13-2.07-.05-.67.09-1.37.29-2.02.56-.52.23-1.05.54-1.57.94-.82.63-1.23,1.24-1.26,1.29h0c-.14.23-.11.51.07.69.1.1.24.16.38.16s.28-.06.38-.16h0s.45-.44,1.18-.94c.37-.27.85-.51,1.35-.75.53-.25,1.11-.43,1.68-.53.51-.12,1.09-.17,1.77-.16l.27.02c.2.01.39.03.58.04.16,0,.33.04.48.07.09.02.18.04.27.05.38.05.69.14.95.21.07.02.13.04.19.05l1.24.29-1.09-.68Z"/>
    <path class="st13" d="M39.97,52.15c-.08-.01-.16-.03-.23-.04.08.02.15.03.23.04M39.66,52.09c-.05-.01-.1-.03-.14-.03l.14.03Z"/>
    <path class="st3" d="M39.74,52.1s-.06-.01-.09-.02c.03,0,.05.01.09.02M39.52,52.05s-.05-.01-.08-.02.03.01.08.02"/>
    <path class="st6" d="M37.78,53.22c-.06-.87,2.41.18,3.22.21.65.02,2.6-.13,2.78-.2,1.36-.51-.08,1.45-2.82,1.55-1.26.05-3.14-1.04-3.18-1.56h0Z"/>
    <path class="st0" d="M45.83,51.55c-.67-.03-1.36.53-2.17.44-.03-.02-.05-.02-.08-.02-.19-.03-.37,0-.57.05-.25.05-.51.15-.74.24-.4.13-.86.24-1.33.2s-.02,0-.03,0h-.03c-.47.03-.92-.07-1.33-.2-.24-.08-.49-.19-.74-.24-.2-.05-.39-.08-.57-.05-.04,0-.05,0-.08.02-.81.09-1.5-.48-2.17-.44-.19.02-.45-.03-.61-.03.03.02.07.03.1.05,1.92.93,3.57,2.69,5.4,2.63h.05c1.83.06,3.48-1.7,5.4-2.63.04-.02.07-.03.1-.05-.15,0-.42.05-.61.03h0Z"/>
    <path class="st19" d="M46.39,51.49s-1.95-.75-3.33-.31c0,0-.52.2-1.05.33-.33.13-.72.16-1.1.15-.29-.01-.57-.05-.8-.09-.08-.01-.15-.03-.23-.04-.03,0-.06-.01-.09-.02l-.14-.03c-.05-.01-.08-.02-.08-.02-.44-.12-.82-.27-.82-.27-1.39-.44-3.33.31-3.33.31-.03.01-.04.02-.04.02.15,0,.42.05.61.03.67-.03,1.36.53,2.17.44.03-.02.05-.02.08-.02.19-.03.37,0,.57.05.25.05.51.15.74.24.4.13.86.24,1.33.2s.02,0,.03,0h.03c.47.03.92-.07,1.33-.2.24-.08.49-.19.74-.24.2-.05.39-.08.57-.05.04,0,.05,0,.08.02.81.09,1.5-.48,2.17-.44.19.02.45-.03.61-.03,0,0-.02,0-.04-.02h0Z"/>
    <path class="st19" d="M37.64,51.95s3.65,1.11,6.48.03l-.33-.22h-3.82l-2.33.2h0Z"/>
    <path class="st14" d="M39.86,68.71v11.29h-13.21v-3.66l-1.92-.45c.14-1.17.34-2.25.59-3.23.18-.7.38-1.36.61-1.97,1.16-3.17,2.87-5.13,4.46-6.32,1.97,1.72,5.3,3.97,9.47,4.35"/>
    <path class="st18" d="M39.86,65.2v3.52c-4.17-.38-7.5-2.63-9.47-4.35,1.23-.92,2.37-1.39,3.13-1.63.56-.18.92-.22.92-.22h.02l3.37,1.95c.63.36,1.32.61,2.03.74h0Z"/>
    <path class="st14" d="M57.6,75.83l-2.16.51v3.66h-13.03v-11.3c2.88-.29,6.07-1.55,9.43-4.41,1.62,1.19,3.38,3.16,4.57,6.4.23.61.42,1.27.61,1.97.24.96.44,2.02.58,3.17h0Z"/>
    <path class="st18" d="M51.84,64.28c-3.36,2.86-6.56,4.13-9.43,4.41v-3.56c.58-.14,1.15-.35,1.68-.65l3.54-2c.08.02.18.03.27.03,0,0,.09.01.24.04h0c.27.05.72.17,1.3.4.68.26,1.52.68,2.4,1.33h0Z"/>
    <path class="st11" d="M30.59,61.55c.62,1.41,3.54.89,3.94-1.14.43-2.2-1.38-5.62-1.14-8.74.22-2.93,2.28-6.29,6.09-4.82.63.24.88.37,1.4,1.39,2.8-3.47,7.21-.92,7.62,3.04.34,3.26-1.7,7.09-1.02,9.38.49,1.63,2.68,2.27,3.68,1.14.25,3.16-4.04,3.74-5.71,2.16-2.45-2.32-.9-8.25-1.9-11.15-.79-2.3-4.14-2.49-5.08-.38-1.06,2.4.48,9.2-2.03,11.54-2.03,1.88-5.95.72-5.84-2.41h0Z"/>
    <path class="st10" d="M22.93,23.47c.19.91.28,1.43.29,1.8h.34c-1.17,1.71-1.83,3.62-1.83,5.64,0,2.62,1.11,5.05,3.01,7.11-.07-.59-.1-1.19-.1-1.8,0-8.8,7.22-15.75,16.16-15.75s16.2,6.95,16.2,15.75c0,.67-.05,1.34-.13,1.99,2.01-2.09,3.19-4.6,3.19-7.3,0-2.02-.66-3.93-1.83-5.64h.18c.01-.37.11-.89.29-1.8.51-2.51,2.01-3.17,2.01-3.17,0,0-2.32.96-2.89,1.61-.27.32-.99,1.18-1.21,1.45,0,0-.01-.01-.02-.02.13-.29.43-1.22,0-3.02-.56-2.36-2.87-3.94-2.87-3.94,0,0,1.38,1.87,1,3.92,0,0,.08-.82-2.17-3.1-2.24-2.29-6.44-4.29-6.44-4.29,0,0,.09,1.42.13,2.98-1.64-.48-3.35-.76-5.12-.76-.1,0-.21,0-.32,0-.1,0-.21,0-.32,0-1.78,0-3.49.28-5.12.76.05-1.56.13-2.98.13-2.98,0,0-4.19,2-6.44,4.29-2.25,2.28-2.16,3.1-2.16,3.1-.38-2.05,1-3.92,1-3.92,0,0-2.3,1.58-2.87,3.94-.43,1.8-.13,2.74,0,3.03,0,0-.01.01-.02.02-.22-.26-.94-1.14-1.22-1.46-.56-.65-2.88-1.61-2.88-1.61,0,0,1.5.66,2.01,3.17h0Z"/>
    <path class="st7" d="M37.67,46.87c-.06-1.34,2.45-.49,3.28-.45.66.03,2.65-.42,2.82-.3,1.17.79-1.24,2.39-2.87,2.39-.43,0-3.2-.83-3.24-1.64h0Z"/>
  </g>
</svg>