<?xml version="1.0" encoding="UTF-8"?>
<svg id="Layer_2" xmlns="http://www.w3.org/2000/svg" version="1.1" xmlns:xlink="http://www.w3.org/1999/xlink" viewBox="0 0 80 80">
  <!-- Generator: Adobe Illustrator 30.2.1, SVG Export Plug-In . SVG Version: 2.1.1 Build 1)  -->
  <defs>
    <style>
      .st0 {
        fill: #dac6a4;
      }

      .st1 {
        fill: #b5957e;
      }

      .st2 {
        fill: #b8987d;
      }

      .st3 {
        fill: #714223;
      }

      .st4 {
        fill: #ccad8a;
      }

      .st5 {
        fill: #ecdab6;
      }

      .st6 {
        fill: #d7bd9d;
      }

      .st7 {
        fill: #fff;
      }

      .st8 {
        fill: #272213;
      }

      .st9 {
        fill: #b7967d;
      }

      .st10 {
        fill: none;
      }

      .st11 {
        fill: #9177ad;
      }

      .st12 {
        fill: #d2bb9b;
      }

      .st13 {
        fill: #ba9d82;
      }

      .st14 {
        fill: #dcc5a0;
      }

      .st15 {
        fill: #41433e;
      }

      .st16 {
        fill: #4a473e;
      }

      .st17 {
        fill: #c1a587;
      }

      .st18 {
        fill: #44361f;
      }

      .st19 {
        fill: #30312b;
      }

      .st20 {
        fill: #a98d76;
      }

      .st21 {
        fill: #462e1b;
      }

      .st22 {
        clip-path: url(#clippath);
      }

      .st23 {
        fill: #ebd9b5;
      }

      .st24 {
        fill: #3c3d39;
      }
    </style>
    <clipPath id="clippath">
      <rect class="st10" x="36.68" y="55.41" width="8.99" height="5.31"/>
    </clipPath>
  </defs>
  <g id="Layer_1-2">
    <path class="st11" d="M0,0h80v79.96H0V0Z"/>
    <path class="st15" d="M57.32,54.82c-.17-.96-.25-1.51-.27-1.9h-.16c.57-.96,1-1.98,1.29-3.04.01-.05.03-.11.04-.17.11-.43.19-.86.25-1.3.95-6.47-1.6-14.92-1.6-14.92.26,2.05.01,4.56-.4,6.92-.33,1.87-.76,3.64-1.12,5-.34,1.27-.63,2.18-.73,2.48-1.32,3.5-3.67,6.37-6.63,8.14.2-.68.32-1.46.32-2.29,0-.36-.03-.72-.07-1.06.29-.04.58-.09.84-.18.42-.1.8-.27,1.13-.54.68-.56,1.13-1.54,1.2-3.1,0,0-1.75,3.54-4.47.41,0,0-3.13-4.83-5.9-2.9-2.76-1.93-5.89,2.9-5.89,2.9-2.72,3.13-4.47-.41-4.47-.41.05,1.12.27,1.89.64,2.48l.02.02s.07.09.17.2c.1.11.25.26.46.4,0,0,0,0,.01,0,.21.14.48.28.81.38.27.1.63.12,1.08.1-.06.41-.1.85-.1,1.3,0,.83.11,1.61.32,2.29-2.96-1.77-5.31-4.64-6.63-8.14-.1-.3-.39-1.22-.73-2.48-.37-1.36-.8-3.13-1.12-5-.41-2.36-.66-4.87-.4-6.92,0,0-2.55,8.44-1.6,14.92.06.44.14.88.25,1.3.01.06.03.11.04.17h0c.28,1.06.71,2.08,1.28,3.04h-.16c-.01.39-.1.93-.27,1.9-.46,2.64-1.83,3.33-1.83,3.33,0,0,2.12-1.01,2.63-1.69.25-.33.9-1.24,1.1-1.53l.02.02c-.12.3-.39,1.29,0,3.18.51,2.47,2.61,4.14,2.61,4.14,0,0-1.26-1.97-.91-4.12,0,0-.08.87,1.97,3.26,1.95,2.3,4.38,4.76,4.69,4.79-.03-.07,1.08-2.44,1.05-3.41,1.49.5,3.05,3.78,4.66,3.78.1,0,.19,0,.29,0s.19,0,.29,0c1.62,0,3.17-3.28,4.66-3.78-.03.97,1.03,3.74,1,3.82.32-.03,2.79-2.9,4.74-5.2,2.05-2.4,1.97-3.26,1.97-3.26.35,2.16-.91,4.12-.91,4.12,0,0,2.1-1.67,2.61-4.14.39-1.89.11-2.87,0-3.18l.02-.02c.2.29.86,1.19,1.1,1.53.51.68,2.63,1.69,2.63,1.69,0,0-1.37-.69-1.83-3.33h0Z"/>
    <path class="st14" d="M41.13,49.96v30.04h-16.23c-.27-.1-.39-.16-.39-.16,0-1.43.08-2.75.22-3.96.14-1.17.34-2.25.59-3.23.18-.7.38-1.36.61-1.97,1.12-3.05,2.73-4.97,4.27-6.18.06-.05.13-.1.19-.15,1.23-.92,2.37-1.39,3.13-1.63.56-.18.92-.22.92-.22h.02c.06,0,.1,0,.16-.02h0c.14-.02.27-.07.4-.15.34-.2.62-.57.86-1.09.25-.53.45-1.2.62-1.98.06-.3.11-.61.18-.94.08-.56.15-1.14.21-1.75.03-.37.06-.73.11-1.12.14-1.84.19-3.85.19-5.75,0,0,2.18.23,3.94.23h0Z"/>
    <path class="st23" d="M57.82,79.84s-.14.05-.38.16h-16.31v-30.04h.04c1.76,0,3.97-.23,3.97-.23,0,1.89.03,3.88.18,5.71.04.36.08.73.1,1.09.06.63.15,1.23.24,1.78h0c.03.26.08.49.13.73.15.78.35,1.47.59,2.02.21.5.45.89.74,1.14.1.09.21.16.33.21.05.02.11.04.17.06.08.02.18.03.27.03,0,0,.09.01.24.04h0c.27.05.72.17,1.3.4.68.26,1.52.68,2.4,1.33.03.03.07.05.1.08h0c1.59,1.2,3.3,3.15,4.47,6.33.23.61.42,1.27.61,1.97.24.96.44,2.02.58,3.17.14,1.22.23,2.56.23,4.01h0Z"/>
    <g class="st22">
      <path class="st13" d="M45.67,58.26h0c-.41.64-1.78,2.46-4.5,2.46h-.03c-2.58-.01-4.08-1.88-4.46-2.43.08-.55.16-1.13.23-1.73.03-.35.06-.72.11-1.1,1.25.31,2.63.51,4.08.54h.05c1.5-.03,2.89-.24,4.19-.58.04.35.08.72.1,1.08.06.63.15,1.22.24,1.77"/>
    </g>
    <path class="st4" d="M40.95,15.72c-17.19,0-17.29,14.39-16.52,23.82-1.17-2.23-4.67-1.55-4.38,1.97.28,3.39,5.28,5.12,5.14,4.75,2.6,6.97,9.5,12.22,15.77,12.22h.13V15.72h-.13Z"/>
    <path class="st20" d="M21.15,40.02c.85-1.37,2.17-.78,2.48-.47.34.33.62.75.41,1.55-.12.46-.59.5-.49,1.18.13.78.49.82.7,1,.2.17.45.3.57.63.13.33.15.67.08.97-.13.55-.94.1-1.48-.13-.36-.17-1.49-1.13-1.78-1.44-.71-.82-1.06-2.39-.49-3.29"/>
    <path class="st6" d="M41.05,15.72c17.19,0,17.29,14.39,16.53,23.82,1.17-2.23,4.66-1.55,4.37,1.97-.27,3.39-5.27,5.12-5.14,4.75-2.54,6.97-9.5,12.22-15.77,12.22h-.09l-.04-42.76h.13"/>
    <path class="st20" d="M60.85,40.02c-.85-1.37-2.15-.78-2.48-.47-.34.33-.61.75-.41,1.55.12.46.59.5.49,1.18-.13.78-.49.82-.69,1-.2.17-.46.3-.58.63-.12.33-.15.67-.08.97.13.55.94.1,1.48-.13.37-.17,1.49-1.13,1.78-1.44.73-.82,1.06-2.39.49-3.29"/>
    <path class="st14" d="M40.82,19.78c-5.65,0-9.8,1.64-12.29,4.88-3.5,4.53-3.37,11.45-2.08,16.42.4,1.52.61,5.61.87,7.11,1.23,6.72,8.64,10.29,13.51,10.29h.13V19.78h-.08"/>
    <path class="st23" d="M53.1,24.67c-2.48-3.22-6.58-4.86-12.15-4.89v38.69c5.57-.06,12.24-3.98,13.38-10.29.28-1.5.48-5.59.87-7.11,1.29-4.96,1.43-11.85-2.1-16.4"/>
    <path class="st10" d="M40.26,50.2c-.08-.01-.15-.03-.21-.04.07.01.14.03.21.04M39.97,51.6c-.05-.01-.1-.02-.13-.03.04.01.09.02.13.03"/>
    <path class="st9" d="M40.05,51.61s-.05-.01-.08-.02c.03,0,.05.01.08.02M39.84,51.56s-.05-.01-.07-.02.03,0,.08.02h0Z"/>
    <path class="st6" d="M37.67,46.87c-.06-1.34,2.45-.49,3.28-.45.66.03,2.65-.42,2.82-.3,1.17.79-1.24,2.39-2.87,2.39-.43,0-3.2-.83-3.24-1.64h0Z"/>
    <path class="st10" d="M25.54,31.84c-.15.51-.26,1.07-.33,1.67,0,0,.23-.94.73-2.34-.21.3-.36.54-.39.67"/>
    <path class="st18" d="M36.15,19.87l-.07.07v.03s.05-.07.07-.1"/>
    <path class="st10" d="M40.32,50.87c-.08-.01-.15-.03-.22-.04.08.01.15.03.22.04M40.01,50.81c-.05-.01-.1-.02-.13-.03.04.01.09.02.13.03"/>
    <path class="st1" d="M40.1,50.83s-.05-.01-.08-.02c.03,0,.05.01.08.02M39.88,50.78l-.08-.02s.03,0,.08.02"/>
    <path class="st7" d="M28.62,34.88s1.31,5.39,3.56,5.83,4.69-.44,4.69-.44c0,0,.23-6.33-.92-7.16-1.15-.83-3.81-2.03-7.33,1.77"/>
    <path class="st12" d="M36.87,40.26s-.05.01-.17.06c-.03-1.94-.21-4.61-.93-5.12-1.07-.79-3.49-1.89-6.72,1.13-.29-.83-.44-1.47-.44-1.47,3.53-3.8,6.19-2.61,7.33-1.77,1.15.83.92,7.17.92,7.17h0Z"/>
    <path class="st21" d="M35.54,37.51c0,1.23-.99,2.22-2.22,2.22s-2.22-.99-2.22-2.22.99-2.22,2.22-2.22,2.22.99,2.22,2.22"/>
    <path class="st3" d="M33.22,38.99c-.64-.05-1.13-.7-1.07-1.41s.65-1.27,1.29-1.21,1.13.7,1.07,1.41-.65,1.27-1.29,1.22"/>
    <path class="st8" d="M33.28,38.73c-.44-.04-.91-.53-.86-1.13.05-.6.58-1.01,1.03-.98.44.04.91.53.86,1.13s-.58,1.01-1.03.97"/>
    <path class="st7" d="M32.91,37.25c-.02.22-.24.38-.5.36-.26-.02-.45-.22-.43-.43.02-.22.24-.38.5-.36s.45.21.43.43M34.35,38.51c-.01.11-.12.19-.25.18-.13-.01-.23-.11-.22-.22.01-.11.12-.19.25-.18.13.01.23.11.22.22"/>
    <path class="st10" d="M40.35,51.5c-.08-.01-.15-.03-.22-.04.08.01.15.03.22.04M40.05,51.45c-.05-.01-.1-.02-.13-.03.04.01.09.02.13.03"/>
    <path class="st1" d="M40.13,51.46s-.05-.01-.08-.02c.03,0,.05.01.08.02M39.91,51.41l-.08-.02s.03.01.08.02"/>
    <path class="st10" d="M40.27,51.36c-.09-.01-.16-.03-.23-.04.08.02.16.03.23.04M39.94,51.29c-.05-.01-.11-.03-.14-.03.05.01.09.02.14.03"/>
    <path class="st9" d="M40.03,51.31s-.06-.01-.09-.02c.03,0,.05.01.09.02M39.8,51.26s-.05-.01-.08-.02.03.01.08.02h0Z"/>
    <path class="st10" d="M40.2,51.13c-.09-.01-.16-.03-.23-.04.08.02.16.03.23.04M39.87,51.07c-.05-.01-.11-.03-.14-.03.05.01.09.02.14.03"/>
    <path class="st9" d="M39.96,51.09s-.06-.01-.09-.02c.03,0,.05.01.09.02M39.73,51.04s-.05-.01-.08-.02.03.01.08.02h0Z"/>
    <path class="st10" d="M40.4,51.1c-.08-.01-.16-.03-.23-.04.08.02.15.03.23.04M40.08,51.04c-.05-.01-.1-.02-.14-.03.05.01.09.02.14.03"/>
    <path class="st9" d="M40.17,51.05s-.06-.01-.09-.02c.03,0,.05.01.09.02M39.95,51l-.08-.02s.03.01.08.02h0Z"/>
    <path class="st7" d="M53.42,34.7s-1.31,5.39-3.56,5.83-4.69-.44-4.69-.44c0,0-.23-6.33.92-7.16,1.15-.83,3.81-2.03,7.33,1.77"/>
    <path class="st12" d="M45.17,40.08s.05.01.17.06c.03-1.94.21-4.61.93-5.12,1.07-.79,3.49-1.89,6.72,1.13.29-.83.44-1.47.44-1.47-3.53-3.8-6.19-2.61-7.33-1.77-1.15.83-.92,7.17-.92,7.17h0Z"/>
    <path class="st21" d="M46.5,37.33c0,1.23.99,2.22,2.22,2.22s2.22-.99,2.22-2.22-.99-2.22-2.22-2.22-2.22.99-2.22,2.22"/>
    <path class="st3" d="M48.82,38.81c.64-.05,1.13-.7,1.07-1.41s-.65-1.27-1.29-1.21-1.13.7-1.07,1.41.65,1.27,1.29,1.22"/>
    <path class="st8" d="M48.76,38.55c.44-.04.91-.53.86-1.13-.05-.6-.58-1.01-1.03-.98-.44.04-.91.53-.86,1.13s.58,1.01,1.03.97"/>
    <path class="st7" d="M49.12,37.06c.02.22.24.38.5.36.26-.02.45-.22.43-.43-.02-.22-.24-.38-.5-.36s-.45.21-.43.43M47.68,38.32c.01.11.12.19.25.18.13-.01.23-.11.22-.22-.01-.11-.12-.19-.25-.18-.13.01-.23.11-.22.22"/>
    <path d="M38.22,34.79s-.43-.65-1.26-1.29c-.52-.4-1.04-.71-1.57-.94-.65-.27-1.34-.46-2.02-.56-.61-.07-1.29-.05-2.08.06-.6.11-1.19.29-1.69.51-.35.12-.64.29-.86.43-.09.05-.16.1-.24.14l-1.07.68,1.24-.29c.06-.01.12-.03.19-.05.26-.07.58-.15.95-.21.09-.01.18-.03.27-.05.16-.03.32-.06.49-.07.19-.01.38-.03.58-.04l.26-.02c.69,0,1.27.04,1.78.16.56.1,1.14.28,1.67.53.5.24.98.48,1.36.75.76.51,1.18.93,1.18.93.1.1.24.16.38.16.1,0,.2-.03.29-.09.25-.16.32-.5.16-.74v-.02s-.01.01-.01.01ZM53.64,33.16c-.07-.04-.15-.09-.24-.14-.23-.14-.51-.31-.85-.43-.51-.23-1.1-.4-1.71-.52-.78-.1-1.46-.13-2.07-.05-.67.09-1.37.29-2.02.56-.52.23-1.05.54-1.57.94-.82.63-1.23,1.24-1.26,1.29h0c-.14.23-.11.51.07.69.1.1.24.16.38.16s.28-.06.38-.16h0s.45-.44,1.18-.94c.37-.27.85-.51,1.35-.75.53-.25,1.11-.43,1.68-.53.51-.12,1.09-.17,1.77-.16l.27.02c.2.01.39.03.58.04.16,0,.33.04.48.07.09.02.18.04.27.05.38.05.69.14.95.21.07.02.13.04.19.05l1.24.29-1.09-.68Z"/>
    <path class="st10" d="M39.97,52.14c-.08-.01-.16-.03-.23-.04.08.02.15.03.23.04M39.66,52.08c-.05-.01-.1-.03-.14-.03l.14.03Z"/>
    <path class="st2" d="M39.74,52.1s-.06-.01-.09-.02c.03,0,.05.01.09.02M39.52,52.05s-.05-.01-.08-.02.03.01.08.02"/>
    <path class="st5" d="M37.78,53.21c-.06-.87,2.41.18,3.22.21.65.02,2.6-.13,2.78-.2,1.36-.51-.08,1.45-2.82,1.55-1.26.05-3.14-1.04-3.18-1.56h0Z"/>
    <path class="st0" d="M45.83,51.54c-.67-.03-1.36.53-2.17.44-.03-.02-.05-.02-.08-.02-.19-.03-.37,0-.57.05-.25.05-.51.15-.74.24-.4.13-.86.24-1.33.2s-.02,0-.03,0h-.03c-.47.03-.92-.07-1.33-.2-.24-.08-.49-.19-.74-.24-.2-.05-.39-.08-.57-.05-.04,0-.05,0-.08.02-.81.09-1.5-.48-2.17-.44-.19.02-.45-.03-.61-.03.03.02.07.03.1.05,1.92.93,3.57,2.69,5.4,2.63h.05c1.83.06,3.48-1.69,5.4-2.63.04-.02.07-.03.1-.05-.15,0-.42.05-.61.03h0Z"/>
    <path class="st17" d="M46.39,51.49s-1.95-.75-3.33-.31c0,0-.52.2-1.05.33-.33.13-.72.16-1.1.15-.29-.01-.57-.05-.8-.09-.08-.01-.15-.03-.23-.04-.03,0-.06-.01-.09-.02l-.14-.03c-.05-.01-.08-.02-.08-.02-.44-.12-.82-.27-.82-.27-1.39-.44-3.33.31-3.33.31-.03.01-.04.02-.04.02.15,0,.42.05.61.03.67-.03,1.36.53,2.17.44.03-.02.05-.02.08-.02.19-.03.37,0,.57.05.25.05.51.15.74.24.4.13.86.24,1.33.2s.02,0,.03,0h.03c.47.03.92-.07,1.33-.2.24-.08.49-.19.74-.24.2-.05.39-.08.57-.05.04,0,.05,0,.08.02.81.09,1.5-.48,2.17-.44.19.02.45-.03.61-.03,0,0-.02,0-.04-.02h0Z"/>
    <path class="st17" d="M37.64,51.95s3.65,1.11,6.48.03l-.33-.22h-3.82l-2.33.2h0Z"/>
    <path class="st16" d="M53.89,80h-25.64c.75-3.75,1.59-7.97,1.95-15.49.06-.05.13-.1.19-.15,1.23-.92,2.37-1.39,3.13-1.63.56-.18.92-.22.92-.22h.02c.06,0,.1,0,.16-.02h0c.14-.02.27-.07.4-.15,1.88,5.76,4.47,12.72,5.97,12.75h0s.05,0,.08-.02c.02,0,.03,0,.05-.01,1.55-.35,4.13-7.26,5.99-12.87.1.09.21.16.33.21.05.02.11.04.17.06.08.02.18.03.27.03,0,0,.09.01.24.04h0c.27.05.72.17,1.3.4.68.26,1.52.68,2.4,1.33.03.03.07.05.1.08h0c.35,7.63,1.2,11.86,1.95,15.64h-.01Z"/>
    <path class="st19" d="M47.24,48.84c-1.11-.86-3.64-1.62-6.07-1.28-2.43-.34-4.96.41-6.07,1.28-3.46,2.69,1.55,12.06,1.55,12.06l-.44-5.9c-.07-2.45,2.25-3.05,3.95-3.16.08.02.15.04.24.04,0,0,.31-.04.77-.05.46.01.77.05.77.05.09,0,.16-.01.24-.04,1.71.11,4.03.7,3.95,3.16l-.44,5.9s5-9.37,1.54-12.06"/>
    <path class="st24" d="M64.82,30.99s-3.06-.93-5.21-6.75c-.36-1.31-.73-2.31-.73-2.31,0,0,.05,0,.56,0,3.11,0,4.86-2.98,4.86-2.98,0,0-1.17,1.69-5.21.38-3.94-1.29-3.84-5.49-9.51-7.83-2.9-1.2-4.64-1.04-5.64-.6,1.02-.83,3.11-.75,3.11-.75,0,0-2.58-1.4-6.57-.14-2.8.88-4.48,1.89-5.42,2.61l1.57-1.48s-1.11.39-2.69,1.18c1.07-2.05,3.06-4.31,3.06-4.31-5.05,1.86-9.23,8.55-9.23,8.55.4-2.52,1.28-4.83,1.28-4.83-8.62,6.34-7.28,17.78-7.28,17.78,0,4.33,1.73,8.67,2.86,9.96,1.14,1.29.77,3.16,1.11,3.16,0,0,.68.03.71-3.24.08-1.1.44-2.88,1.88-2.34.08.03.15.07.23.1.01,0,.03.01.04.02,7.26,2.86,10.96-4.39,10.96-4.39,0,0,2.22-4.66,4.7-6.36.73-.5,1.69-.89,2.85-1.24,6.61-2.03,9.35,8.39,8.8,11.14-.85,4.24.34,6.68.79,6.56,0,0,.02-1.08.43-2.03,1.22-2.86,2.25-.87,2.43-4.75.15-3.11.53-4.86.68-6.44.97.76,2.41,1.3,4.57,1.35h0Z"/>
  </g>
</svg>