<?xml version="1.0" encoding="UTF-8"?>
<svg id="Layer_2" xmlns="http://www.w3.org/2000/svg" version="1.1" xmlns:xlink="http://www.w3.org/1999/xlink" viewBox="0 0 80 80">
  <!-- Generator: Adobe Illustrator 30.2.1, SVG Export Plug-In . SVG Version: 2.1.1 Build 1)  -->
  <defs>
    <style>
      .st0 {
        fill: #212625;
      }

      .st1 {
        fill: #f1d4c8;
      }

      .st2 {
        fill: #232118;
      }

      .st3 {
        fill: #fff;
      }

      .st4 {
        fill: url(#linear-gradient1);
      }

      .st5 {
        fill: #24241d;
        opacity: .4;
      }

      .st5, .st6, .st7, .st8 {
        isolation: isolate;
      }

      .st9 {
        fill: none;
      }

      .st10 {
        fill: #b59376;
      }

      .st11 {
        fill: #c6a095;
      }

      .st12 {
        fill: #f2f3f2;
      }

      .st13 {
        opacity: .51;
      }

      .st6 {
        fill: #502c24;
        opacity: .2;
      }

      .st14 {
        fill: #debaad;
      }

      .st15 {
        fill: #f0d4c7;
      }

      .st16 {
        fill: #dcb9ac;
      }

      .st7 {
        fill: #48443b;
        opacity: .3;
      }

      .st17 {
        fill: #4f6771;
      }

      .st8 {
        fill: #f3f3f2;
        opacity: .55;
      }

      .st18 {
        fill: url(#linear-gradient);
      }

      .st19 {
        fill: #8061a0;
      }

      .st20 {
        fill: #49443b;
      }
    </style>
    <linearGradient id="linear-gradient" x1="34.18" y1="94.18" x2="34.18" y2="90.82" gradientTransform="translate(-8.64 129.82) rotate(4.72) scale(1 -1)" gradientUnits="userSpaceOnUse">
      <stop offset="0" stop-color="#29383e"/>
      <stop offset=".12" stop-color="#3d5059"/>
      <stop offset=".29" stop-color="#586f7d"/>
      <stop offset=".47" stop-color="#6d8799"/>
      <stop offset=".65" stop-color="#7c99ad"/>
      <stop offset=".82" stop-color="#85a3b9"/>
      <stop offset="1" stop-color="#89a7be"/>
    </linearGradient>
    <linearGradient id="linear-gradient1" x1="-1295.25" y1="-15.59" x2="-1295.25" y2="-18.91" gradientTransform="translate(-1243.9 129.82) rotate(175.28)" gradientUnits="userSpaceOnUse">
      <stop offset="0" stop-color="#29383e"/>
      <stop offset=".12" stop-color="#3d5059"/>
      <stop offset=".29" stop-color="#586f7d"/>
      <stop offset=".47" stop-color="#6d8799"/>
      <stop offset=".65" stop-color="#7c99ad"/>
      <stop offset=".82" stop-color="#85a3b9"/>
      <stop offset="1" stop-color="#89a7be"/>
    </linearGradient>
  </defs>
  <g id="Layer_1-2">
    <path class="st19" d="M0,0h80v79.99H0V0Z"/>
    <path class="st1" d="M51.91,42.06c.02-2.09,1.34-3.92,3.31-4.97-.04.52-.08,1.03-.12,1.53,1.24-2.29,4.83-1.54,4.5,2.08-.31,3.5-5.42,5.26-5.33,4.86-.05.27-.11.55-.18.82-1.34-1.1-2.17-2.63-2.16-4.31h-.01Z"/>
    <path class="st14" d="M58.47,39.16c-.86-1.41-2.22-.81-2.56-.51-.35.33-.64.77-.43,1.6.11.47.61.51.48,1.22-.14.79-.51.84-.72,1.02-.21.17-.48.31-.61.65s-.15.69-.09.99c.13.58.97.13,1.53-.12.38-.16,1.55-1.15,1.85-1.47.75-.83,1.12-2.44.54-3.39"/>
    <path class="st1" d="M29.3,42.06c-.02-2.09-1.34-3.92-3.31-4.97.04.52.08,1.03.12,1.53-1.24-2.29-4.83-1.54-4.5,2.08.31,3.5,5.42,5.26,5.33,4.86.05.27.11.55.18.82,1.34-1.1,2.17-2.63,2.16-4.31h.01Z"/>
    <path class="st14" d="M22.74,39.16c.86-1.41,2.22-.81,2.56-.51.35.33.64.77.43,1.6-.11.47-.61.51-.48,1.22.14.79.51.84.72,1.02.21.17.48.31.61.65s.15.69.09.99c-.13.58-.97.13-1.53-.12-.38-.16-1.55-1.15-1.85-1.47-.75-.83-1.12-2.44-.54-3.39"/>
    <path class="st15" d="M64.65,79.99H16.82c0-.18.01-.35.01-.53,0,0,.11-5.78.38-6.28.51-2.02-.4-2.94,3.14-4.88.05-.01.82-.22,1.98-.57,2.41-.69,6.52-1.9,8.65-2.73h.02c.48-.21.87-.39,1.11-.53,0-.01.01-.01.01-.01.06-.04.09-.06.12-.09.01-.01.06-.05.08-.08.02-.04.07-.06.09-.09.07-.33,1.05-1.77,1.41-3.36.01-.02.02-.03.04-.06.08-.32.12-.64.14-.96.01-.52.04-1.03.04-1.49.01-.26.02-.51.02-.73,0-.09,0-.19.01-.27,0-.09.01-.18.01-.26v-.07c.01-.21.01-.4.01-.53.01-.14.01-.23.01-.23,0,0-5.47-4.08-5.47-4.96,0,0,5.72.87,9.43,1.28.07.01.14.01.21.02.25.02.48.06.69.08.01,0,.05,0,.12.01.32.02.61.05.87.07.16.01.32.02.46.02.11.02.2.02.31.01.06,0,.12.01.18,0,.14-.01.32-.01.52-.02,0-.01.02-.01.04-.01.43-.02.97-.08,1.57-.15.05,0,.09-.01.14-.01h.01c3.7-.4,9.61-1.31,9.61-1.31,0,.88-5.45,4.96-5.45,4.96,0,0,0,.08.01.23,0,.07,0,.15.01.25-.01.02-.01.03,0,.06v.25c0,.17.01.37.01.57.02.62.05,1.4.07,2.22.01.17.01.32.04.48.02.15.06.31.09.48,0,.01.01.01.01.01,0,.01,0,.02.01.02.34,1.6,1.35,3.05,1.44,3.4.01.01.01.02.01.03.02.02.05.04.07.06.02.03.07.07.07.08.08.07.2.14.38.22.06.02.09.05.15.07h.01c1.73.82,6.6,2.26,9.38,3.06,1.16.33,1.93.55,1.98.57,3.57,1.95,2.65,2.87,3.15,4.88.27.51.38,6.28.38,6.28,0,.16,0,.34.01.53h0Z"/>
    <path class="st11" d="M47.62,60.77c-.08-.32-.12-.64-.14-.96-.04-1.07.15-2.51.14-3.19-2.06.8-4.38,1.68-6.46,1.68-.12.02-.28.02-.42.02s-.29,0-.42-.02c-2.07,0-4.18-.47-6.24-1.27-.01.67-.04,1.7-.08,2.78-.02.32-.05.64-.14.96,1.99,1.45,4.68,2.95,6.46,2.95.11.02.25.02.38.02h.08c.13,0,.26,0,.38-.03,1.78,0,4.47-1.5,6.46-2.95h0Z"/>
    <path class="st15" d="M57.37,31.86c-.01.12-.01.25-.02.4-.02.14-.04.3-.05.46-.02.2-.03.41-.07.6-.01.09-.02.2-.04.3-.03.24-.08.46-.12.7-.01.09-.04.19-.05.28-.05.2-.08.41-.14.61-.02.12-.06.25-.08.41-.03.11-.06.24-.09.34-.15.57-1.45,7.26-2.38,11.61-.39,1.82-.71,3.21-.86,3.61-.87,2.2-6.58,6.27-10.26,7.99-.01.01-.04.01-.05.02-1.04.51-1.93.79-2.46.79h-.07c-.59-.01-1.44-.27-2.41-.72-.05-.04-.11-.06-.17-.08-3.78-1.7-9.43-5.8-10.3-8.01-.17-.42-.52-2.03-.91-4.04-.86-4.35-1.99-10.65-2.14-11.19-.03-.11-.06-.24-.09-.34-.02-.15-.06-.28-.08-.41-.06-.2-.09-.41-.14-.61-.01-.1-.04-.19-.05-.28-.04-.24-.08-.46-.12-.7-.01-.09-.02-.2-.03-.3-.04-.19-.05-.4-.07-.6-.01-.15-.02-.31-.05-.46-.01-.14-.01-.27-.02-.4-.15-3.14.52-6.33,2.57-9.21,2.47-3.48,5.32-7.17,11.51-7.68h5.22c6.19.51,9.04,4.2,11.51,7.68,2.05,2.88,2.72,6.06,2.57,9.21h-.01Z"/>
    <path class="st16" d="M37.98,49.05c-.05-1.13,2.06-.41,2.76-.38.55.03,2.22-.35,2.37-.25.98.67-1.04,2.01-2.4,2.01-.37,0-2.69-.7-2.72-1.38h-.01Z"/>
    <path class="st20" d="M37.23,36.66s-.44-.32-1.14-.67c-.34-.17-.76-.34-1.22-.5-.22-.08-.47-.14-.71-.19-.24-.07-.5-.09-.74-.13-.25-.04-.51-.04-.75-.07h-.74c-.24.02-.48.04-.69.06-.22.02-.43.07-.62.09-.4.04-.71.14-.94.17-.23.04-.37.06-.37.06,0,0,.11-.07.32-.18s.5-.29.89-.42c.19-.06.4-.16.63-.2.23-.05.48-.11.73-.15.25-.02.53-.05.8-.06.27.02.55.01.83.05.27.05.55.08.81.17.26.06.52.16.76.26.24.09.46.23.67.33.2.13.39.24.55.38.66.51.94.98.94.98h-.03Z"/>
    <path class="st3" d="M28.98,39.29s1.3,2.58,3.28,2.84c1.98.26,4.09-.08,4.09-.08,0,0,.03-2.98-1-3.4-1.03-.43-3.39-1.05-6.37.65h.01Z"/>
    <path class="st18" d="M34.66,40.14c-.08.91-.86,1.59-1.73,1.53s-1.52-.85-1.43-1.75c.08-.91.86-1.59,1.74-1.53.87.06,1.52.85,1.43,1.76h-.01Z"/>
    <path class="st17" d="M32.97,41.15c-.47-.03-.82-.52-.77-1.06.05-.54.49-.97.95-.94s.82.52.77,1.06-.49.97-.95.94"/>
    <path class="st0" d="M33.02,40.95c-.32-.02-.66-.4-.62-.85s.44-.77.76-.75.66.4.62.85-.44.77-.76.75"/>
    <path class="st7" d="M36.34,42.04s-.04,0-.14.02c-.08-.91-.31-2.18-.95-2.44-.95-.4-3.1-.98-5.84.37-.28-.4-.43-.7-.43-.7,2.98-1.7,5.34-1.07,6.37-.65,1.03.43,1,3.41,1,3.41h-.01Z"/>
    <path class="st9" d="M28.98,39.3s1.3,2.58,3.28,2.84c1.98.26,4.09-.08,4.09-.08,0,0,.03-2.98-1-3.41s-3.39-1.05-6.37.65h.01Z"/>
    <path class="st3" d="M32.77,39.82c-.02.16-.18.29-.37.27-.18-.01-.32-.16-.31-.32s.18-.29.37-.27c.19.01.32.16.31.32M33.81,40.77c0,.08-.09.14-.18.14s-.16-.08-.15-.16c0-.08.09-.14.18-.14s.16.08.15.16"/>
    <path class="st20" d="M43.98,36.69s.28-.48.94-.97c.16-.13.34-.25.55-.38.21-.11.43-.24.67-.33.24-.1.49-.2.76-.26.26-.08.54-.11.81-.16.27-.04.56-.03.83-.05.27,0,.54.04.8.06.25.04.5.1.73.15s.44.14.63.2c.39.12.68.3.89.42.2.12.32.18.32.18,0,0-.13-.02-.37-.06s-.55-.13-.94-.17c-.19-.02-.4-.07-.62-.09s-.46-.04-.69-.05h-.74c-.24.02-.51.03-.75.07-.25.04-.51.06-.74.13-.24.05-.49.11-.71.19-.46.14-.87.31-1.22.49-.7.34-1.15.66-1.15.66l-.02-.02Z"/>
    <path class="st3" d="M52.26,39.45s-1.26,2.53-3.24,2.76-4.09-.14-4.09-.14c0,0-.08-2.94.94-3.35s3.37-.99,6.38.73"/>
    <path class="st9" d="M52.26,39.45s-1.26,2.53-3.24,2.76-4.09-.14-4.09-.14c0,0-.08-2.94.94-3.35s3.37-.99,6.38.73"/>
    <path class="st4" d="M46.75,40.11c.08.89.86,1.57,1.73,1.51s1.52-.84,1.43-1.73c-.08-.9-.86-1.57-1.73-1.51s-1.52.84-1.43,1.74h0Z"/>
    <path class="st17" d="M48.43,41.11c.47-.03.82-.52.77-1.05s-.49-.96-.95-.92c-.47.03-.82.52-.77,1.05s.49.96.95.92"/>
    <path class="st0" d="M48.39,40.92c.32-.02.66-.39.62-.84s-.44-.77-.76-.74c-.32.02-.66.39-.62.84s.44.76.76.74"/>
    <path class="st7" d="M44.94,42.05s.04,0,.14.03c.06-.9.27-2.15.91-2.39.95-.38,3.08-.92,5.85.45.27-.4.42-.69.42-.69-3.01-1.73-5.37-1.14-6.38-.74-1.02.41-.95,3.35-.95,3.35h.01Z"/>
    <path class="st3" d="M48.06,39.8c-.01.16-.18.28-.37.27s-.32-.16-.31-.32.18-.28.37-.27.32.15.31.32M49.1,40.74c0,.08-.09.14-.18.13-.09,0-.16-.08-.15-.16,0-.08.09-.14.18-.13.09,0,.16.08.15.16"/>
    <path class="st16" d="M44.34,54.43c-.53-.03-1.06-.14-1.69-.21-.03-.01-.04-.01-.06-.01-.14-.03-.28,0-.45.04-.19.04-.4.12-.58.18-.31.1-.67.18-1.03.15s-.01,0-.02,0h-.02c-.37.03-.72-.06-1.03-.16-.18-.06-.39-.14-.58-.18-.16-.04-.3-.06-.45-.04-.03,0-.04,0-.06.01-.63.07-1.17.18-1.69.21-.14.01-.35-.03-.48-.03.03.01.05.03.08.04,1.5.73,2.79,1.54,4.22,1.5h.04c1.43.04,2.72-.77,4.22-1.5.03-.01.05-.03.08-.04-.12,0-.32.04-.48.03h-.02Z"/>
    <path class="st9" d="M39.88,53.89l-.18-.03.18.03ZM39.62,53.84s-.08-.02-.11-.02c.04,0,.07.02.11.02"/>
    <path class="st6" d="M44.78,54.38s-1.52-1.15-2.61-.8c0,0-.41.15-.82.25-.25.1-.56.13-.86.11-.22,0-.45-.04-.62-.07-.06,0-.12-.02-.18-.03-.03,0-.04,0-.07-.01-.04,0-.07-.02-.11-.02s-.06-.02-.06-.02c-.34-.09-.64-.21-.64-.21-1.09-.34-2.61.8-2.61.8l-.03.02c.12,0,.32.04.48.03.53-.03,1.06-.14,1.69-.21.03-.01.04-.01.06-.01.14-.03.28,0,.45.04.19.04.4.12.58.18.31.1.67.18,1.03.15s.01,0,.02,0h.02c.37.03.72-.06,1.03-.16.18-.06.39-.14.58-.18.16-.04.3-.06.45-.04.03,0,.04,0,.06.01.63.07,1.17.18,1.69.21.14.01.35-.03.48-.03,0,0-.01,0-.03-.02h.02Z"/>
    <path class="st10" d="M39.7,53.85s-.04,0-.07-.01c.02,0,.04,0,.07.01M39.52,53.82s-.04-.01-.06-.02.02,0,.06.02"/>
    <path class="st9" d="M40.74,72.29c2.59,0,4.91-1.17,6.5-3.01h-12.99c1.59,1.85,3.9,3.01,6.5,3.01h-.01Z"/>
    <path class="st1" d="M27.17,45.78c0,.72-.58,1.3-1.3,1.3s-1.3-.58-1.3-1.3.58-1.3,1.3-1.3,1.3.58,1.3,1.3"/>
    <path class="st19" d="M26.42,45.78c0,.3-.24.55-.55.55s-.55-.24-.55-.55.24-.55.55-.55.55.24.55.55"/>
    <path class="st1" d="M56.3,45.78c0,.72-.58,1.3-1.3,1.3s-1.3-.58-1.3-1.3.58-1.3,1.3-1.3,1.3.58,1.3,1.3"/>
    <path class="st19" d="M55.55,45.78c0,.3-.24.55-.55.55s-.55-.24-.55-.55.24-.55.55-.55.55.24.55.55"/>
    <path class="st20" d="M64.63,79.47s-.05-2.9-.17-4.78c-.05-.77-.11-1.37-.19-1.51-.42-1.63.12-2.56-1.61-3.89-.25-.19-.52-.37-.79-.54-.22-.14-.48-.28-.75-.44-.05,0-.81-.21-1.98-.57-.99-.28-2.26-.66-3.56-1.04-.84-.26-1.68-.53-2.49-.79-.83-.27-1.6-.53-2.24-.77-.44-.16-.81-.31-1.11-.46h-.01c-.06-.02-.09-.05-.15-.07-.09-.05-.16-.09-.22-.13-.22,1.84-.99,3.49-2.13,4.81-1.23,1.42-2.9,2.43-4.79,2.83v7.88h22.2c-.01-.17-.01-.34-.01-.52h.01ZM32.12,64.46s-.01,0-.01.02c-.22.14-.62.3-1.11.52h-.02c-.13.05-.28.11-.44.17-.61.22-1.31.47-2.09.73-.8.25-1.65.52-2.48.77-1.34.41-2.64.79-3.64,1.06-1.15.34-1.93.57-1.98.57-.45.25-.82.48-1.15.7-.14.09-.27.19-.39.28-1.72,1.35-1.21,2.26-1.61,3.89-.08.15-.14.75-.19,1.51-.12,1.88-.18,4.78-.18,4.78,0,.17-.01.34-.01.52h21.73v-8c-1.68-.46-3.17-1.41-4.3-2.71-1.14-1.32-1.91-2.98-2.13-4.82h-.01ZM26.62,45.78c0,.42-.33.75-.75.75s-.75-.33-.75-.75.33-.75.75-.75.75.33.75.75"/>
    <path class="st2" d="M54.57,16.89c-3.8-3.88-9.39-5.78-9.39-5.78l1.55,1.4c-.93-.69-2.58-1.64-5.34-2.48-3.92-1.2-6.47.13-6.47.13,0,0,2.05-.07,3.05.71-.99-.42-2.7-.56-5.56.58-5.59,2.22-5.49,6.21-9.38,7.42-3.99,1.26-5.13-.35-5.13-.35,0,0,1.72,2.82,4.8,2.83.5,0,.55,0,.55-.01,0,0-3.82,3.19-5.34.26,0,0,1.38,3.26,4.24,3.45-.12.53-.21,1.06-.26,1.56-.22,2.3.48,3.87.69,8.17.18,3.68,1.2,1.79,2.39,4.5.41.91.43,1.93.43,1.93.45.1,1.62-2.21.78-6.23-.43-2.02,1.11-8.41,4.85-10.29-2.3,2.86-1.46,7.54-1.46,7.54,3.46-7.95,6.96-7.2,6.96-7.2-6.23,5.98-2.36,14.49-2.36,14.49-.15-7.18,6.16-11.99,8.1-13.3.18-.1.37-.22.57-.37,1.08-.76,2.32-1.39,3.61-1.76.86,1.68,1.42,3.74,1,6.02,0,0,1.84-2.82,1.62-6.18,1.58,1.62,4.4,5.2,3.61,9.59,0,0,1.97-3.02,1.59-6.52.98,1.76,1.43,4.2,1.15,7.35-.6,6.66.53,6.61.53,6.61.33,0-.02-1.77,1.1-3,1.12-1.22,2.82-5.34,2.82-9.45s-1.46-7.77-5.26-11.65v.02Z"/>
    <path class="st19" d="M55.23,46.41c-.43,0-.77-.34-.77-.77s.34-.77.77-.77.77.34.77.77-.34.77-.77.77"/>
    <path class="st2" d="M55.19,57.05c.48.51,2.45,1.27,2.45,1.27,0,0-1.28-.52-1.7-2.49-.16-.72-.23-1.13-.25-1.42h-.28c.99-1.34,1.55-2.84,1.55-4.42,0-2.05-.94-3.97-2.56-5.58.06.47.09.93.09,1.41,0,4.85-3.03,8.97-7.46,11.01.2-.54.33-1.15.33-1.81,0-1.24-.42-2.32-1.04-2.97-1.04-1.45-3.14-2.44-5.59-2.44-2.24,0-4.21.84-5.31,2.11-.85.56-1.45,1.84-1.45,3.32,0,.62.11,1.2.29,1.71-4.32-2.07-7.27-6.15-7.27-10.91,0-.53.04-1.04.11-1.56-1.71,1.64-2.71,3.61-2.71,5.73,0,1.58.56,3.08,1.55,4.42h-.15c-.01.28-.09.7-.25,1.42-.43,1.98-1.7,2.49-1.7,2.49,0,0,1.98-.75,2.45-1.27.23-.24.84-.92,1.03-1.14,0,0,.01,0,.02.02-.11.22-.37.96,0,2.37.48,1.85,2.43,3.09,2.43,3.09,0,0-1.18-1.47-.85-3.07,0,0-.07.65,1.85,2.43,1.91,1.79,5.48,3.37,5.48,3.37,0,0-.07-1.12-.11-2.33,1.39.38,2.85.6,4.35.6h.53c1.51,0,2.96-.21,4.35-.6-.04,1.22-.11,2.33-.11,2.33,0,0,3.57-1.57,5.48-3.37s1.84-2.43,1.84-2.43c.32,1.6-.85,3.07-.85,3.07,0,0,1.96-1.25,2.43-3.09.37-1.42.1-2.15,0-2.37,0,0,.01,0,.02-.02.18.2.8.89,1.03,1.15v-.03ZM35.56,54.45c.93-.97,2.38-1.66,4.07-1.89.35-.04.73-.07,1.11-.07s.75.03,1.11.07c1.59.2,2.97.84,3.9,1.73.03.23.05.48.05.72,0,.75-.16,1.45-.43,2.03-.46.2-.99.38-1.59.51v-.05c0-.56-1.4-1.01-3.13-1.01s-3.13.46-3.13,1.01v.02c-.61-.14-1.17-.33-1.61-.55-.24-.57-.39-1.23-.39-1.95,0-.19,0-.39.03-.58h.02Z"/>
    <path class="st3" d="M25.87,46.55c-.43,0-.77-.34-.77-.77s.34-.77.77-.77.77.34.77.77-.34.77-.77.77"/>
    <path class="st3" d="M25.87,46.32s-.55,2.57,1.23,2.26l.17.83s-2.96.2-1.96-3.64c0,0,.59-.05.55.55h.01Z"/>
    <g class="st13">
      <path class="st5" d="M38.67,41.41c0,2.82-3.1,5.61-6.66,5.61-4.97,0-5.64-2.48-5.64-5.3s-1.24-5.1,6.05-5.1,6.26,1.98,6.26,4.8"/>
    </g>
    <g class="st13">
      <path class="st5" d="M43.66,41.41c0,2.82,3.09,5.61,6.66,5.61,4.97,0,5.64-2.48,5.64-5.3s1.23-5.1-6.05-5.1-6.26,1.98-6.26,4.8"/>
    </g>
    <path class="st8" d="M29.42,46.3c1.3.4,6.18.96,8.19-2.81-4.07-2.1-8.16-.96-10.55.09.7,2.12,1.87,2.58,2.35,2.72M52.85,46.3c.45-.13,1.5-.54,2.2-2.32-3.87-2.32-7.58-1.16-9.97.2,2.21,3.01,6.55,2.49,7.77,2.12"/>
    <path class="st12" d="M25.33,39.95c.16.62.82,5.08,2.29,6.3,2.41,2.01,10.53,2.1,11.93-5.22.19-.99.45-1.58.88-1.74.18-.06.44-.11.71-.11s.53.05.71.11c.44.16.69.75.88,1.74,1.4,7.32,9.51,7.23,11.93,5.22,1.47-1.22,2.12-5.68,2.28-6.3s.83-.99,1.02-1.19c.19-.18.05-1.94-.02-2.08-.09-.19-1.91-.46-4.28-.68-2-.19-5.21-.06-6.47.11-.52.07-1.47.25-2.39.51-1.04.28-2.07.65-2.51.74-.42.09-.74.12-1.08.11s-.05,0-.08,0h-.08c-.34.01-.67-.02-1.08-.11-.43-.09-1.45-.46-2.51-.74-.92-.25-1.88-.43-2.39-.51-1.27-.17-4.47-.3-6.48-.11-2.37.22-4.18.49-4.28.68-.06.13-.21,1.89-.01,2.08.18.19.85.56,1.02,1.19h-.01ZM44.04,38.53c.24-.89,2.72-1.41,3.78-1.55,1.05-.13,2.63-.23,4.39,0,2.17.27,3.7.47,3.49,3.71-.3,4.66-2.2,5.42-2.85,5.61-1.48.46-7.6,1.12-8.85-4.61-.27-1.26-.21-2.26.04-3.15M30.06,36.98c1.76-.22,3.34-.13,4.39,0,1.06.14,3.54.66,3.78,1.55s.3,1.9.03,3.15c-1.27,5.74-7.37,5.07-8.85,4.61-.65-.2-2.55-.94-2.85-5.61-.21-3.25,1.32-3.44,3.49-3.71h.01Z"/>
  </g>
</svg>