<?xml version="1.0" encoding="UTF-8"?>
<svg id="Layer_2" xmlns="http://www.w3.org/2000/svg" version="1.1" xmlns:xlink="http://www.w3.org/1999/xlink" viewBox="0 0 80 80">
  <!-- Generator: Adobe Illustrator 30.2.1, SVG Export Plug-In . SVG Version: 2.1.1 Build 1)  -->
  <defs>
    <style>
      .st0 {
        fill: #dac6a4;
      }

      .st1 {
        fill: #221a17;
      }

      .st2 {
        fill: #b5957e;
      }

      .st3 {
        fill: #b8987d;
      }

      .st4 {
        fill: #714223;
      }

      .st5 {
        fill: #ccad8a;
      }

      .st6 {
        fill: #ecdab6;
      }

      .st7 {
        fill: #513128;
      }

      .st8 {
        fill: #d7bd9d;
      }

      .st9 {
        fill: #fff;
      }

      .st10 {
        fill: #272213;
      }

      .st11 {
        fill: #b7967d;
      }

      .st12 {
        fill: none;
      }

      .st13 {
        fill: #aec32f;
      }

      .st14 {
        fill: #d2bb9b;
      }

      .st15 {
        fill: #ba9d82;
      }

      .st16 {
        fill: #d07769;
      }

      .st17 {
        fill: #332d3e;
      }

      .st18 {
        fill: #dcc5a0;
      }

      .st19 {
        fill: #c1a587;
      }

      .st20 {
        fill: #44361f;
      }

      .st21 {
        fill: #434b18;
      }

      .st22 {
        fill: #19181b;
      }

      .st23 {
        fill: #a98d76;
      }

      .st24 {
        fill: #462e1b;
      }

      .st25 {
        clip-path: url(#clippath);
      }

      .st26 {
        fill: #75842d;
      }

      .st27 {
        fill: #785458;
      }

      .st28 {
        fill: #ebd9b5;
      }
    </style>
    <clipPath id="clippath">
      <rect class="st12" x="35.77" y="55.4" width="9.07" height="5.31"/>
    </clipPath>
  </defs>
  <g id="Layer_1-2">
    <path class="st16" d="M0,0h80v80H0V0Z"/>
    <g>
      <path class="st18" d="M40.27,49.94v30.06h-16.36c-.27-.1-.4-.16-.4-.16,0-3.83.57-6.83,1.43-9.16,1.02-2.74,2.45-4.58,3.85-5.8,1.46-1.28,2.9-1.88,3.8-2.16h.01c.57-.18.92-.22.92-.22.07,0,.12,0,.18-.02.52-.08.93-.53,1.27-1.23.25-.53.46-1.2.62-1.98.07-.3.12-.61.17-.94.08-.56.16-1.14.23-1.75.03-.37.07-.73.11-1.11.14-1.84.18-3.85.18-5.76,0,0,2.2.23,3.98.23h0Z"/>
      <path class="st28" d="M57.1,79.84s-.14.05-.39.16h-16.45v-30.06h.04c1.77,0,4-.23,4-.23,0,1.9.04,3.88.18,5.72.04.36.08.73.11,1.08.07.64.14,1.23.24,1.79h0c.03.26.08.49.12.73.16.79.35,1.47.59,2.02.29.69.65,1.17,1.09,1.36.14.06.28.09.44.09,0,0,.3.04.81.18.22.06.48.15.76.26.88.34,2.04.94,3.21,1.97,1.39,1.22,2.8,3.04,3.81,5.76.86,2.33,1.43,5.33,1.43,9.16h0Z"/>
      <g class="st25">
        <path class="st15" d="M44.84,58.25h0c-.41.64-1.8,2.46-4.54,2.46h-.03c-2.6-.01-4.11-1.88-4.5-2.43.08-.55.16-1.13.23-1.74.03-.35.07-.72.1-1.11,1.26.31,2.65.51,4.11.54h.05c1.52-.03,2.91-.24,4.22-.58.04.35.08.72.1,1.08.07.63.15,1.22.24,1.77"/>
      </g>
      <path class="st5" d="M40.08,15.68c-17.34,0-17.43,14.4-16.66,23.83-1.18-2.24-4.71-1.55-4.42,1.97.28,3.39,5.32,5.12,5.18,4.75,2.63,6.97,9.58,12.23,15.9,12.23h.13V15.68h-.13Z"/>
      <path class="st23" d="M20.11,39.99c.85-1.37,2.19-.78,2.5-.47.35.33.62.75.41,1.55-.12.46-.6.5-.49,1.18.13.78.49.82.7,1,.2.17.45.3.57.63.13.33.15.67.08.97-.13.55-.95.1-1.49-.13-.36-.17-1.51-1.13-1.8-1.45-.72-.82-1.07-2.39-.49-3.29"/>
      <path class="st8" d="M40.18,15.68c17.34,0,17.43,14.4,16.67,23.83,1.18-2.24,4.7-1.55,4.41,1.97-.27,3.39-5.32,5.12-5.18,4.75-2.56,6.97-9.58,12.23-15.9,12.23h-.09l-.04-42.78h.13"/>
      <path class="st23" d="M60.15,39.99c-.85-1.37-2.17-.78-2.5-.47-.35.33-.61.75-.41,1.55.12.46.6.5.49,1.18-.13.78-.49.82-.69,1-.2.17-.47.3-.59.63-.12.33-.15.67-.08.97.13.55.95.1,1.49-.13.37-.17,1.51-1.13,1.8-1.45.73-.82,1.07-2.39.49-3.29"/>
      <path class="st18" d="M39.95,19.74c-5.7,0-9.88,1.64-12.4,4.88-3.53,4.54-3.4,11.45-2.1,16.43.4,1.52.61,5.61.88,7.11,1.24,6.72,8.71,10.3,13.62,10.3h.13V19.74h-.08"/>
      <path class="st28" d="M52.33,24.63c-2.5-3.22-6.63-4.87-12.25-4.89v38.72c5.62-.06,12.34-3.99,13.49-10.3.28-1.5.48-5.59.88-7.11,1.3-4.96,1.44-11.86-2.12-16.41"/>
      <path class="st12" d="M39.39,50.19c-.08-.01-.15-.03-.21-.04.07.01.14.03.21.04M39.09,51.58c-.05-.01-.1-.02-.13-.03.04.01.09.02.13.03"/>
      <path class="st11" d="M39.17,51.6s-.05-.01-.08-.02c.03,0,.05.01.08.02M38.96,51.55s-.05-.01-.07-.02.03,0,.08.02h0Z"/>
      <path class="st8" d="M36.78,46.57c-.07-1.34,2.47-.49,3.31-.45.66.03,2.67-.42,2.85-.3,1.18.79-1.25,2.39-2.89,2.39-.44,0-3.23-.83-3.27-1.64h0Z"/>
      <path class="st12" d="M24.54,31.81c-.16.51-.26,1.07-.34,1.67,0,0,.23-.94.73-2.34-.22.3-.36.54-.4.67"/>
      <path class="st20" d="M35.24,19.84l-.07.07v.03s.05-.07.07-.1"/>
      <path class="st12" d="M39.44,50.85c-.08-.01-.16-.03-.22-.04.08.01.15.03.22.04M39.14,50.79c-.05-.01-.1-.02-.13-.03.04.01.09.02.13.03"/>
      <path class="st2" d="M39.22,50.81s-.05-.01-.08-.02c.03,0,.05.01.08.02M39,50.76l-.08-.02s.03.01.08.02"/>
      <path class="st9" d="M27.64,34.85s1.32,5.39,3.59,5.83,4.73-.44,4.73-.44c0,0,.23-6.34-.93-7.16-1.16-.83-3.84-2.03-7.39,1.77"/>
      <path class="st14" d="M35.97,40.23s-.05.01-.17.06c-.03-1.94-.21-4.61-.94-5.12-1.08-.79-3.52-1.89-6.77,1.13-.3-.83-.44-1.47-.44-1.47,3.56-3.81,6.24-2.61,7.39-1.77,1.16.83.93,7.17.93,7.17h0Z"/>
      <ellipse class="st24" cx="32.39" cy="37.49" rx="2.24" ry="2.22"/>
      <path class="st4" d="M32.29,38.97c-.65-.05-1.14-.7-1.08-1.41s.65-1.27,1.3-1.21,1.14.7,1.08,1.41-.65,1.27-1.3,1.22"/>
      <path class="st10" d="M32.34,38.71c-.45-.04-.91-.53-.87-1.13.05-.6.59-1.01,1.04-.98.45.04.91.53.86,1.13s-.59,1.01-1.04.97"/>
      <path class="st9" d="M31.98,37.22c-.02.22-.25.38-.5.36-.26-.02-.46-.22-.44-.43.02-.22.24-.38.5-.36s.46.21.44.43M33.43,38.48c-.01.11-.12.19-.25.18-.13-.01-.23-.11-.22-.22.01-.11.12-.19.25-.18.13.01.23.11.22.22"/>
      <path class="st12" d="M39.48,51.49c-.08-.01-.16-.03-.22-.04.08.01.15.03.22.04M39.17,51.43c-.05-.01-.1-.02-.13-.03.04.01.09.02.13.03"/>
      <path class="st2" d="M39.26,51.45s-.05-.01-.08-.02c.03,0,.05.01.08.02M39.04,51.4l-.08-.02s.03,0,.08.02"/>
      <path class="st12" d="M39.39,51.34c-.09-.01-.17-.03-.23-.04.08.02.16.03.23.04M39.07,51.27c-.05-.01-.11-.03-.14-.03.05.01.09.02.14.03"/>
      <path class="st11" d="M39.16,51.29s-.06-.01-.09-.02c.03,0,.05.01.09.02M38.92,51.24s-.05-.01-.08-.02.03.01.08.02h0Z"/>
      <path class="st12" d="M39.32,51.11c-.09-.01-.17-.03-.23-.04.08.02.16.03.23.04M39,51.05c-.05-.01-.11-.03-.14-.03.05.01.09.02.14.03"/>
      <path class="st11" d="M39.09,51.07s-.06-.01-.09-.02c.03,0,.05.01.09.02M38.86,51.02s-.05-.01-.08-.02.03.01.08.02h0Z"/>
      <path class="st12" d="M39.52,51.08c-.08-.01-.16-.03-.23-.04.08.02.15.03.23.04M39.21,51.02c-.05-.01-.1-.02-.14-.03.05.01.09.02.14.03"/>
      <path class="st11" d="M39.29,51.04s-.06-.01-.09-.02c.03,0,.05.01.09.02M39.07,50.99l-.08-.02s.03.01.08.02h0Z"/>
      <path class="st9" d="M52.65,34.67s-1.32,5.39-3.59,5.83-4.73-.44-4.73-.44c0,0-.23-6.34.93-7.16,1.16-.83,3.84-2.03,7.39,1.77"/>
      <path class="st14" d="M44.33,40.05s.05.01.17.06c.03-1.94.21-4.61.94-5.12,1.08-.79,3.52-1.89,6.77,1.13.3-.83.44-1.47.44-1.47-3.56-3.81-6.24-2.61-7.39-1.77-1.16.83-.93,7.17-.93,7.17h0Z"/>
      <path class="st24" d="M45.68,37.31c0,1.23,1,2.22,2.24,2.22s2.24-.99,2.24-2.22-1-2.22-2.24-2.22-2.24.99-2.24,2.22"/>
      <path class="st4" d="M48.01,38.78c.65-.05,1.14-.7,1.08-1.41s-.65-1.27-1.3-1.21-1.14.7-1.08,1.41.65,1.27,1.3,1.22"/>
      <path class="st10" d="M47.96,38.53c.45-.04.91-.53.87-1.13-.05-.6-.59-1.01-1.04-.98-.45.04-.91.53-.86,1.13s.59,1.01,1.04.97"/>
      <path class="st9" d="M48.32,37.04c.02.22.25.38.5.36.26-.02.46-.22.44-.43-.02-.22-.24-.38-.5-.36s-.46.21-.44.43M46.87,38.3c.01.11.12.19.25.18.13-.01.23-.11.22-.22-.01-.11-.12-.19-.25-.18-.13.01-.23.11-.22.22"/>
      <path class="st7" d="M37.33,34.77s-.43-.65-1.27-1.29c-.53-.4-1.04-.71-1.58-.94-.65-.27-1.35-.47-2.03-.56-.61-.07-1.3-.05-2.09.06-.61.11-1.2.29-1.7.52-.36.12-.64.29-.87.43-.09.05-.17.1-.25.14l-1.08.68,1.25-.29c.06-.01.12-.03.19-.05.26-.07.58-.15.96-.21.09-.01.18-.03.27-.05.16-.03.32-.06.49-.07.19-.01.39-.03.59-.04l.26-.02c.69,0,1.28.04,1.8.16.57.1,1.15.28,1.69.53.51.24.99.48,1.37.75.76.51,1.19.93,1.19.93.1.1.25.16.39.16.1,0,.21-.03.3-.09.25-.16.32-.5.16-.74v-.02s-.01.01-.01.01ZM52.88,33.13c-.07-.04-.15-.09-.24-.14-.23-.14-.51-.31-.86-.43-.51-.23-1.11-.4-1.72-.52-.79-.1-1.47-.13-2.09-.05-.68.09-1.38.29-2.03.56-.53.23-1.06.54-1.58.94-.83.63-1.24,1.24-1.27,1.29h0c-.14.23-.11.51.07.69.1.1.24.16.38.16s.28-.06.38-.16h0s.45-.44,1.19-.94c.37-.27.86-.51,1.36-.75.54-.25,1.12-.43,1.7-.53.51-.12,1.1-.17,1.78-.16l.27.02c.2.01.39.03.59.04.17,0,.33.04.49.07.09.02.18.04.27.05.38.05.7.14.96.21.07.02.13.04.19.05l1.25.29-1.09-.68Z"/>
      <path class="st12" d="M39.09,52.13c-.08-.01-.16-.03-.23-.04.08.02.16.03.23.04M38.78,52.06c-.05-.01-.1-.03-.14-.03l.14.03Z"/>
      <path class="st3" d="M38.86,52.08s-.06-.01-.09-.02c.03,0,.05.01.09.02M38.64,52.03s-.05-.01-.08-.02.03.01.08.02"/>
      <path class="st6" d="M36.88,53.19c-.07-.87,2.43.18,3.25.21.65.02,2.62-.13,2.8-.2,1.37-.51-.08,1.45-2.84,1.55-1.27.05-3.17-1.04-3.21-1.56h0Z"/>
      <path class="st0" d="M45,51.52c-.68-.03-1.37.53-2.19.44-.03-.02-.05-.02-.08-.02-.19-.03-.37,0-.58.05-.25.05-.51.15-.75.24-.41.13-.87.24-1.34.2s-.02,0-.03,0h-.03c-.47.03-.93-.07-1.34-.2-.24-.08-.49-.19-.75-.24-.2-.05-.39-.08-.58-.05-.04,0-.05,0-.08.02-.82.09-1.51-.48-2.19-.44-.19.02-.46-.03-.61-.03.03.02.07.03.1.05,1.93.93,3.6,2.69,5.44,2.63h.05c1.85.06,3.51-1.7,5.44-2.63.04-.02.07-.03.1-.05-.15,0-.42.05-.61.03h0Z"/>
      <path class="st19" d="M45.57,51.47s-1.96-.75-3.36-.31c0,0-.52.2-1.06.33-.33.13-.73.16-1.11.15-.29-.01-.57-.05-.8-.09-.08-.01-.15-.03-.23-.04-.03,0-.06-.01-.09-.02l-.14-.03c-.05-.01-.08-.02-.08-.02-.45-.12-.83-.27-.83-.27-1.4-.44-3.36.31-3.36.31-.03.01-.04.02-.04.02.15,0,.42.05.61.03.68-.03,1.37.53,2.19.44.03-.02.05-.02.08-.02.19-.03.37,0,.58.05.25.05.51.15.75.24.41.13.87.24,1.34.2s.02,0,.03,0h.03c.47.03.93-.07,1.34-.2.24-.08.49-.19.75-.24.2-.05.39-.08.58-.05.04,0,.05,0,.08.02.82.09,1.51-.48,2.19-.44.19.02.46-.03.61-.03,0,0-.02,0-.04-.02h0Z"/>
      <path class="st19" d="M36.74,51.93s3.68,1.11,6.53.03l-.33-.22h-3.85l-2.35.2h0Z"/>
      <path class="st9" d="M40.85,76.68h-.01.01Z"/>
      <path class="st26" d="M57.1,79.84s-.14.05-.39.16H23.91c-.27-.1-.4-.16-.4-.16,0-3.83.57-6.83,1.43-9.16,1.02-2.74,2.45-4.58,3.85-5.8,1.97,3.62,6.07,9.66,11.48,9.6,3.42-.04,7.35-2.5,11.59-9.56,1.39,1.22,2.8,3.04,3.81,5.76.86,2.33,1.43,5.33,1.43,9.16h0Z"/>
      <path class="st13" d="M51.86,64.92c-4.25,7.06-8.18,9.52-11.59,9.56-5.41.06-9.51-5.98-11.48-9.6,1.46-1.28,2.9-1.88,3.8-2.16h.01s4.02,4.58,4.02,4.58c.96,1.1,2.31,1.65,3.66,1.65s2.7-.56,3.67-1.68l3.95-4.59c.22.06.48.15.76.26.88.34,2.04.94,3.21,1.97h0Z"/>
      <path class="st21" d="M41.86,77.78l-1.14,1.75h-.79l-1.14-1.75,1.54-2.23h.01s1.52,2.23,1.52,2.23ZM47.06,77.78l-1.14,1.75h-.78l-1.14-1.75,1.54-2.23,1.53,2.23ZM36.66,77.78l-1.14,1.75h-.78l-1.14-1.75,1.54-2.23,1.53,2.23ZM31.47,77.78l-1.14,1.75h-.79l-1.14-1.75,1.54-2.23,1.54,2.23ZM52.26,77.78l-1.14,1.75h-.78l-1.15-1.75,1.53-2.23,1.54,2.23Z"/>
      <path class="st13" d="M59.92,28.53c0,.83-.02,1.62-.04,2.39-2.63.3-5.3.5-7.94.64-1.22.06-2.45.11-3.67.14-.31.01-.63.02-.95.02-.82.02-1.62.03-2.42.04-2,.02-3.95,0-5.84-.05-1.3-.03-2.56-.06-3.78-.11-.63-.03-1.25-.05-1.86-.08-1.2-.06-2.34-.13-3.44-.2-4.15-.27-7.53-.6-9.67-.84,0-1.94.12-3.98.43-5.94,1.75.43,5.82.6,10.72.64h.14c4.17.03,8.93-.04,13.37-.15h.04c6.56-.16,12.42-.39,14.66-.48.2,1.47.25,2.84.25,4h0Z"/>
      <path class="st7" d="M59.92,28.53c0,.83-.02,1.62-.04,2.39-.54,17.65-5.9,18.52-5.9,18.52,0,0,1.57-3.51,1.84-7.42.15-2.27-1-9.05-1-9.05.09,2.99-2.44,6.34-2.44,6.34.29-2.28,0-5.18-.43-7.75-.57-3.4-1.39-6.19-1.39-6.19.05,3.05-1.31,5.21-2.28,6.33-.52.61-.92.92-.92.92,0-.31-.01-.61-.03-.9-.24-3.88-1.96-6.24-2.32-6.7-.04-.05-.07-.08-.07-.08.01.03.02.05.03.08.78,2.23.55,4.6-.07,6.74-1.12,3.89-3.51,6.99-3.51,6.99-.34-2.32-1.33-4.88-2.33-7.04-1.33-2.84-2.69-5-2.69-5-.83,2.22-1.06,3.82-1.09,4.88-.03,1.09.17,1.6.17,1.6-.85-.38-1.51-.98-2.02-1.69-1.52-2.08-1.78-5.08-1.82-6.34-.01-.37,0-.6,0-.6,0,0-.05.23-.13.6-.28,1.25-.95,4.21-1.47,6.14-.2.72-.37,1.3-.5,1.59-2.24,5.06-2.12,6.63-2.12,6.63-1.8-1.48-1.75-5.66-1.75-5.66,0,0-.89,6.29-.79,8.4.09,2.05,1.47,8.1,1.47,8.1,0,0-4.06-3.22-5.57-13.85-.25-1.71-.41-3.81-.41-6.05,0-1.94.12-3.98.43-5.94.53-3.45,1.62-6.66,3.59-8.7,5.66-5.87,12.23-6.06,16.39-6.05,14.35.07,18.09,8.32,18.96,14.75.2,1.47.25,2.84.25,4h0Z"/>
      <path class="st27" d="M56.17,43.83l-.73.54s-4.65,10.34-8.57,7.71v.05c-.21-.6-.49-1.12-.85-1.5-1.11-1.62-3.35-2.73-5.94-2.73-2.39,0-4.48.94-5.66,2.35-.53.36-.96.99-1.23,1.78h0c-3.92,2.63-8.26-7.66-8.26-7.66l-.73-.54-.02,1.64c1.46,6.27,7.59,10.52,10.03,11.99.2.18.42.32.65.4.11.06.23.11.35.16,0,0,.02.01.02.01,1.22.53,2.93.87,4.84.87,2.04,0,3.86-.38,5.09-.98l-.03.11s9.22-4.68,11.06-12.57l-.02-1.64h0ZM43.34,56.76s.01-.04.01-.06c0-.62-1.49-1.12-3.34-1.12s-3.33.5-3.33,1.12v.03c-.65-.16-1.24-.37-1.72-.61-.26-.63-.42-1.37-.42-2.17h0c0-.43.2-.83.52-1.11.98-.83,2.32-1.42,3.84-1.63.38-.05.78-.08,1.18-.08s.79.03,1.18.08c1.38.19,2.6.69,3.55,1.41.42.31.67.81.67,1.32h0c0,.84-.17,1.62-.45,2.26-.49.22-1.06.41-1.69.56h0Z"/>
      <path class="st17" d="M26.19,9.99h27.92c.45,0,.81.36.81.81v1.47c0,.44-.36.81-.81.81h-27.92c-.45,0-.81-.36-.81-.81v-1.47c0-.44.36-.81.81-.81"/>
      <path class="st22" d="M25.04,33.83v12.88c0,1.63-1.43,2.95-3.2,2.95v-18.78c1.77,0,3.2,1.32,3.2,2.95h0Z"/>
      <path class="st17" d="M35.32,10.84l-13.49,8.43v30.4h-1.21c-.98,0-1.85-.56-2.19-1.41l-3.23-8.09c-.71-1.77-.43-3.75.75-5.3l2.07-2.71v-14.09c-.02-.4.18-.79.56-1.03l14.61-9.13c.57-.36,1.38-.22,1.76.32l.72.97c.39.54.23,1.27-.34,1.63h0Z"/>
      <path class="st22" d="M58.35,30.89v18.77c-1.71-.05-3.09-1.35-3.09-2.94v-12.88c0-1.59,1.38-2.89,3.09-2.94"/>
      <path class="st17" d="M65.09,40.16l-3.23,8.09c-.34.84-1.21,1.41-2.19,1.41h-1.21s-.07-.06-.12-.11v-18.67s.08,0,.12,0v-11.62l-13.49-8.43c-.57-.36-.73-1.1-.34-1.63l.72-.97c.39-.54,1.19-.68,1.76-.32l14.61,9.13c.38.23.57.63.56,1.03v14.09l2.07,2.71c1.18,1.54,1.46,3.52.75,5.3h0Z"/>
      <path class="st1" d="M17.77,35.73c-.18-.27-4.45-6.64-2.92-11.42.56-1.74,1.81-3.04,3.74-3.88l.26.5c-1.77.77-2.91,1.95-3.42,3.53-1.45,4.54,2.81,10.91,2.85,10.97l-.51.29h0Z"/>
      <path class="st1" d="M18.99,35.62c0,.59-.52,1.06-1.16,1.06s-1.16-.48-1.16-1.06.52-1.06,1.16-1.06,1.16.48,1.16,1.06M18.02,20.16h3.81v1.64h-3.81v-1.64Z"/>
    </g>
  </g>
</svg>