<?xml version="1.0" encoding="UTF-8"?>
<svg id="Layer_2" xmlns="http://www.w3.org/2000/svg" version="1.1" xmlns:xlink="http://www.w3.org/1999/xlink" viewBox="0 0 80 80">
  <!-- Generator: Adobe Illustrator 30.2.1, SVG Export Plug-In . SVG Version: 2.1.1 Build 1)  -->
  <defs>
    <style>
      .st0 {
        fill: #dac6a4;
      }

      .st1 {
        fill: url(#linear-gradient2);
      }

      .st2 {
        fill: #b5957e;
      }

      .st3 {
        fill: #b8987d;
      }

      .st4 {
        fill: #714223;
      }

      .st5 {
        fill: #ccad8a;
      }

      .st6 {
        fill: #ecdab6;
      }

      .st7 {
        fill: #d7bd9d;
      }

      .st8 {
        fill: #fff;
      }

      .st9 {
        fill: #272213;
      }

      .st10 {
        fill: #7fa6ad;
      }

      .st11 {
        fill: #b7967d;
      }

      .st12 {
        fill: none;
      }

      .st13 {
        fill: #d2bb9b;
      }

      .st14 {
        fill: #ba9d82;
      }

      .st15 {
        fill: #d3897e;
      }

      .st16 {
        fill: #d9ab31;
      }

      .st17 {
        fill: #dcc5a0;
      }

      .st18 {
        fill: url(#linear-gradient);
      }

      .st18, .st19 {
        isolation: isolate;
        opacity: .57;
      }

      .st20 {
        fill: url(#linear-gradient3);
      }

      .st21 {
        opacity: .46;
      }

      .st19 {
        fill: url(#linear-gradient1);
      }

      .st22 {
        fill: #c1a587;
      }

      .st23 {
        fill: #44361f;
      }

      .st24 {
        fill: #43423d;
      }

      .st25 {
        fill: #5a413a;
      }

      .st26 {
        fill: #a98d76;
      }

      .st27 {
        fill: #462e1b;
      }

      .st28 {
        clip-path: url(#clippath);
      }

      .st29 {
        fill: #ebd9b5;
      }

      .st30 {
        fill: #3c3d39;
      }
    </style>
    <clipPath id="clippath">
      <rect class="st12" x="35.58" y="55.4" width="9.07" height="5.31"/>
    </clipPath>
    <linearGradient id="linear-gradient" x1="762.3" y1="-74.77" x2="801.39" y2="-74.77" gradientTransform="translate(-251.68 12.52) scale(.36 -.36)" gradientUnits="userSpaceOnUse">
      <stop offset="0" stop-color="#fff"/>
      <stop offset="1" stop-color="#6189ae"/>
    </linearGradient>
    <linearGradient id="linear-gradient1" x1="811.99" y1="-74.75" x2="851.09" y2="-74.75" gradientTransform="translate(-251.68 12.52) scale(.36 -.36)" gradientUnits="userSpaceOnUse">
      <stop offset="0" stop-color="#fff"/>
      <stop offset="1" stop-color="#6189ae"/>
    </linearGradient>
    <linearGradient id="linear-gradient2" x1="782.2" y1="-91.75" x2="780.22" y2="-70.72" gradientTransform="translate(-251.68 12.52) scale(.36 -.36)" gradientUnits="userSpaceOnUse">
      <stop offset="0" stop-color="#fff"/>
      <stop offset="1" stop-color="#6189ae"/>
    </linearGradient>
    <linearGradient id="linear-gradient3" x1="832.85" y1="-87.01" x2="830.87" y2="-65.98" gradientTransform="translate(-251.68 12.52) scale(.36 -.36)" gradientUnits="userSpaceOnUse">
      <stop offset="0" stop-color="#fff"/>
      <stop offset="1" stop-color="#6189ae"/>
    </linearGradient>
  </defs>
  <g id="Layer_1-2">
    <path class="st15" d="M0,0h80v80H0V0Z"/>
    <path class="st30" d="M31.4,50.42c-.29-.23-5.46-3.62-5.46-3.62.35,2.11.62,2.98.1,4.42-.47,1.29-1.37,1.79-1.86,2.24-.5.45-1.51.79-1.86.79s-.76-.07-.76-.07c0,0,.82.48,2.89.39.87-.04,1.42-.27,1.77-.54-.41.7-.79,1.7-.36,2.64,1.56,3.38-.52,4.49-.52,4.49,0,0,1.84-.2,2.9-1.18,0,.03,0,.06,0,.08.47,1.69,1.7,1.88,1.7,1.88,0,0-.78-.14-.63-1.71.04-.42.45-.58.96-.87.2,1.52.84,3.07-.49,3.7,0,0,2.25-.48,2.66-1.9.07-.26.12-.5.15-.74.04.13.08.26.11.4.32,1.81-.98,3.57-.98,3.57,0,0,4.67-.53,4.71-2.5,0-.3.06-1.5.21-1.96.14-.45.43-2.72.43-2.72,0,0-5.39-6.56-5.68-6.79h0ZM49.68,50.42c.29-.23,5.47-3.62,5.47-3.62-.35,2.11-.62,2.98-.1,4.42.47,1.29,1.37,1.79,1.86,2.24.5.45,1.51.79,1.86.79s.75-.07.75-.07c0,0-.82.48-2.89.39-.87-.04-1.42-.27-1.77-.54.41.7.79,1.7.36,2.64-1.56,3.38.52,4.49.52,4.49,0,0-1.84-.2-2.9-1.18,0,.03,0,.06,0,.08-.47,1.69-1.7,1.88-1.7,1.88,0,0,.78-.14.63-1.71-.04-.42-.45-.58-.96-.87-.2,1.52-.84,3.07.49,3.7,0,0-2.25-.48-2.66-1.9-.08-.26-.12-.5-.15-.74-.04.13-.08.26-.11.4-.32,1.81.98,3.57.98,3.57,0,0-4.67-.53-4.71-2.5,0-.3-.06-1.5-.2-1.96-.14-.45-.43-2.72-.43-2.72,0,0,5.39-6.56,5.67-6.79"/>
    <path class="st17" d="M40.08,49.94v30.06h-16.37c-.27-.11-.4-.16-.4-.16,0-3.84.57-6.83,1.43-9.16,2.08-5.63,5.89-7.42,7.65-7.96.57-.18.93-.22.93-.22.06,0,.12,0,.18-.01.52-.08.93-.53,1.27-1.24.25-.53.46-1.2.63-1.98.07-.3.12-.61.17-.94.08-.55.16-1.14.23-1.75.03-.37.07-.73.1-1.11.14-1.84.19-3.85.19-5.76,0,0,2.2.23,3.98.23h0Z"/>
    <path class="st29" d="M56.92,79.84s-.15.05-.39.16h-16.45v-30.06h.04c1.77,0,3.99-.23,3.99-.23,0,1.89.04,3.88.18,5.72.04.36.08.73.1,1.08.07.64.15,1.23.24,1.79h0c.03.26.08.49.12.73.16.78.36,1.47.59,2.02.29.69.65,1.17,1.09,1.36.14.06.29.09.44.09,0,0,.63.08,1.57.44,1.93.75,5.16,2.72,7.02,7.74.86,2.33,1.43,5.32,1.43,9.16h0Z"/>
    <g class="st28">
      <path class="st14" d="M44.65,58.25h0c-.41.64-1.8,2.46-4.54,2.46h-.03c-2.6-.01-4.11-1.88-4.5-2.43.08-.55.16-1.13.23-1.74.03-.35.07-.72.11-1.11,1.26.31,2.65.51,4.11.54h.05c1.52-.03,2.91-.24,4.22-.58.04.35.08.72.11,1.08.07.63.15,1.22.24,1.77"/>
    </g>
    <path class="st5" d="M39.9,15.68c-17.34,0-17.43,14.4-16.66,23.83-1.18-2.24-4.71-1.55-4.42,1.97.28,3.39,5.32,5.12,5.18,4.75,2.63,6.97,9.58,12.23,15.9,12.23h.13V15.68h-.13Z"/>
    <path class="st26" d="M19.92,39.99c.85-1.37,2.19-.78,2.5-.47.35.33.62.75.41,1.55-.12.46-.6.5-.49,1.18.13.78.49.82.7,1,.2.17.45.3.57.63.13.33.15.67.08.97-.13.55-.95.1-1.49-.13-.36-.17-1.51-1.13-1.8-1.45-.72-.82-1.07-2.39-.49-3.29"/>
    <path class="st7" d="M39.99,15.68c17.34,0,17.43,14.4,16.67,23.83,1.18-2.24,4.7-1.55,4.41,1.97-.27,3.39-5.32,5.12-5.18,4.75-2.56,6.97-9.58,12.23-15.9,12.23h-.09l-.04-42.78h.13"/>
    <path class="st26" d="M59.96,39.99c-.85-1.37-2.17-.78-2.5-.47-.35.33-.61.75-.41,1.55.12.46.6.5.49,1.18-.13.78-.49.82-.69,1-.2.17-.47.3-.59.63-.12.33-.15.67-.08.97.13.55.95.1,1.49-.13.37-.17,1.51-1.13,1.8-1.45.73-.82,1.07-2.39.49-3.29"/>
    <path class="st17" d="M39.76,19.74c-5.7,0-9.88,1.64-12.4,4.88-3.53,4.54-3.4,11.45-2.1,16.43.4,1.52.61,5.61.88,7.11,1.24,6.72,8.71,10.3,13.62,10.3h.13V19.74h-.08"/>
    <path class="st29" d="M52.14,24.63c-2.5-3.22-6.63-4.87-12.25-4.89v38.72c5.62-.06,12.34-3.99,13.49-10.3.28-1.5.48-5.59.88-7.11,1.3-4.96,1.44-11.86-2.12-16.41"/>
    <path class="st12" d="M39.2,50.19c-.08-.01-.15-.03-.21-.04.07.01.14.03.21.04M38.9,51.58c-.05-.01-.1-.02-.13-.03.04.01.09.02.13.03"/>
    <path class="st11" d="M38.99,51.6s-.05-.01-.08-.02c.03,0,.05.01.08.02M38.77,51.55s-.05-.01-.07-.02.03,0,.08.02h0Z"/>
    <path class="st7" d="M36.59,46.3c-.07-1.34,2.47-.49,3.31-.45.66.03,2.67-.42,2.85-.3,1.18.79-1.25,2.39-2.89,2.39-.44,0-3.23-.83-3.27-1.64h0Z"/>
    <path class="st12" d="M24.35,31.81c-.16.51-.26,1.07-.34,1.67,0,0,.23-.94.73-2.34-.22.3-.36.54-.4.67"/>
    <path class="st23" d="M35.05,19.84l-.07.07v.03s.05-.07.07-.1"/>
    <path class="st12" d="M39.25,50.85c-.08-.01-.16-.03-.22-.04.08.01.15.03.22.04M38.95,50.79c-.05-.01-.1-.02-.13-.03.04.01.09.02.13.03"/>
    <path class="st2" d="M39.03,50.81s-.05-.01-.08-.02c.03,0,.05.01.08.02M38.82,50.76l-.08-.02s.03.01.08.02"/>
    <path class="st8" d="M27.46,34.85s1.32,5.39,3.59,5.83,4.73-.44,4.73-.44c0,0,.23-6.34-.93-7.16-1.16-.83-3.84-2.03-7.39,1.77"/>
    <path class="st13" d="M35.78,40.23s-.05.01-.17.06c-.03-1.94-.21-4.61-.94-5.12-1.08-.79-3.52-1.89-6.77,1.13-.3-.83-.44-1.47-.44-1.47,3.56-3.81,6.24-2.61,7.39-1.77,1.16.83.93,7.17.93,7.17h0Z"/>
    <ellipse class="st27" cx="32.2" cy="37.49" rx="2.24" ry="2.22"/>
    <path class="st4" d="M32.1,38.97c-.65-.05-1.14-.7-1.08-1.41s.65-1.27,1.3-1.21,1.14.7,1.08,1.41-.65,1.27-1.3,1.22"/>
    <path class="st9" d="M32.15,38.71c-.45-.04-.91-.53-.87-1.13.05-.6.59-1.01,1.04-.98.45.04.91.53.86,1.13s-.59,1.01-1.04.97"/>
    <path class="st8" d="M31.79,37.22c-.02.22-.25.38-.5.36-.26-.02-.46-.22-.44-.43.02-.22.24-.38.5-.36s.46.21.44.43M33.24,38.48c-.01.11-.12.19-.25.18-.13-.01-.23-.11-.22-.22.01-.11.12-.19.25-.18.13.01.23.11.22.22"/>
    <path class="st12" d="M39.29,51.49c-.08-.01-.16-.03-.22-.04.08.01.15.03.22.04M38.98,51.43c-.05-.01-.1-.02-.13-.03.04.01.09.02.13.03"/>
    <path class="st2" d="M39.07,51.45s-.05-.01-.08-.02c.03,0,.05.01.08.02M38.85,51.4l-.08-.02s.03,0,.08.02"/>
    <path class="st12" d="M39.2,51.34c-.09-.01-.17-.03-.23-.04.08.02.16.03.23.04M38.88,51.27c-.05-.01-.11-.03-.14-.03.05.01.09.02.14.03"/>
    <path class="st11" d="M38.97,51.29s-.06-.01-.09-.02c.03,0,.05.01.09.02M38.73,51.24s-.05-.01-.08-.02.03.01.08.02h0Z"/>
    <path class="st12" d="M39.13,51.11c-.09-.01-.17-.03-.23-.04.08.02.16.03.23.04M38.81,51.05c-.05-.01-.11-.03-.14-.03.05.01.09.02.14.03"/>
    <path class="st11" d="M38.9,51.07s-.06-.01-.09-.02c.03,0,.05.01.09.02M38.67,51.02s-.05-.01-.08-.02.03.01.08.02h0Z"/>
    <path class="st12" d="M39.34,51.08c-.08-.01-.16-.03-.23-.04.08.02.15.03.23.04M39.02,51.02c-.05-.01-.1-.02-.14-.03.05.01.09.02.14.03"/>
    <path class="st11" d="M39.1,51.04s-.06-.01-.09-.02c.03,0,.05.01.09.02M38.88,50.99l-.08-.02s.03.01.08.02h0Z"/>
    <path class="st8" d="M52.47,34.67s-1.32,5.39-3.59,5.83-4.73-.44-4.73-.44c0,0-.23-6.34.93-7.16,1.16-.83,3.84-2.03,7.39,1.77"/>
    <path class="st13" d="M44.14,40.05s.05.01.17.06c.03-1.94.21-4.61.94-5.12,1.08-.79,3.52-1.89,6.77,1.13.3-.83.44-1.47.44-1.47-3.56-3.81-6.24-2.61-7.39-1.77-1.16.83-.93,7.17-.93,7.17h0Z"/>
    <path class="st27" d="M45.49,37.31c0,1.23,1,2.22,2.24,2.22s2.24-.99,2.24-2.22-1-2.22-2.24-2.22-2.24.99-2.24,2.22"/>
    <path class="st4" d="M47.82,38.78c.65-.05,1.14-.7,1.08-1.41s-.65-1.27-1.3-1.21-1.14.7-1.08,1.41.65,1.27,1.3,1.22"/>
    <path class="st9" d="M47.77,38.53c.45-.04.91-.53.87-1.13-.05-.6-.59-1.01-1.04-.98-.45.04-.91.53-.86,1.13s.59,1.01,1.04.97"/>
    <path class="st8" d="M48.13,37.04c.02.22.25.38.5.36.26-.02.46-.22.44-.43-.02-.22-.24-.38-.5-.36s-.46.21-.44.43M46.68,38.3c.01.11.12.19.25.18.13-.01.23-.11.22-.22-.01-.11-.12-.19-.25-.18-.13.01-.23.11-.22.22"/>
    <path d="M37.14,34.77s-.43-.65-1.27-1.29c-.53-.4-1.04-.71-1.58-.94-.65-.27-1.35-.47-2.03-.56-.61-.07-1.3-.05-2.09.06-.61.11-1.2.29-1.7.52-.36.12-.64.29-.87.43-.09.05-.17.1-.25.14l-1.08.68,1.25-.29c.06-.01.12-.03.19-.05.26-.07.58-.15.96-.21.09-.01.18-.03.27-.05.16-.03.32-.06.49-.07.19-.01.39-.03.59-.04l.26-.02c.69,0,1.28.04,1.8.16.57.1,1.15.28,1.69.53.51.24.99.48,1.37.75.76.51,1.19.93,1.19.93.1.1.25.16.39.16.1,0,.21-.03.3-.09.25-.16.32-.5.16-.74v-.02s-.01.01-.01.01ZM52.69,33.13c-.07-.04-.15-.09-.24-.14-.23-.14-.51-.31-.86-.43-.51-.23-1.11-.4-1.72-.52-.79-.1-1.47-.13-2.09-.05-.68.09-1.38.29-2.03.56-.53.23-1.06.54-1.58.94-.83.63-1.24,1.24-1.27,1.29h0c-.14.23-.11.51.07.69.1.1.24.16.38.16s.28-.06.38-.16h0s.45-.44,1.19-.94c.37-.27.86-.51,1.36-.75.54-.25,1.12-.43,1.7-.53.51-.12,1.1-.17,1.78-.16l.27.02c.2.01.39.03.59.04.17,0,.33.04.49.07.09.02.18.04.27.05.38.05.7.14.96.21.07.02.13.04.19.05l1.25.29-1.09-.68Z"/>
    <path class="st12" d="M38.91,52.13c-.08-.01-.16-.03-.23-.04.08.02.16.03.23.04M38.59,52.06c-.05-.01-.1-.03-.14-.03l.14.03Z"/>
    <path class="st3" d="M38.67,52.08s-.06-.01-.09-.02c.03,0,.05.01.09.02M38.45,52.03s-.05-.01-.08-.02.03.01.08.02"/>
    <path class="st6" d="M36.69,53.19c-.07-.87,2.43.18,3.25.21.65.02,2.62-.13,2.8-.2,1.37-.51-.08,1.45-2.84,1.55-1.27.05-3.17-1.04-3.21-1.56h0Z"/>
    <path class="st0" d="M44.81,51.52c-.68-.03-1.37.53-2.19.44-.03-.02-.05-.02-.08-.02-.19-.03-.37,0-.58.05-.25.05-.51.15-.75.24-.41.13-.87.24-1.34.2s-.02,0-.03,0h-.03c-.47.03-.93-.07-1.34-.2-.24-.08-.49-.19-.75-.24-.2-.05-.39-.08-.58-.05-.04,0-.05,0-.08.02-.82.09-1.51-.48-2.19-.44-.19.02-.46-.03-.61-.03.03.02.07.03.1.05,1.93.93,3.6,2.69,5.44,2.63h.05c1.85.06,3.51-1.7,5.44-2.63.04-.02.07-.03.1-.05-.15,0-.42.05-.61.03h0Z"/>
    <path class="st22" d="M45.38,51.47s-1.96-.75-3.36-.31c0,0-.52.2-1.06.33-.33.13-.73.16-1.11.15-.29-.01-.57-.05-.8-.09-.08-.01-.15-.03-.23-.04-.03,0-.06-.01-.09-.02l-.14-.03c-.05-.01-.08-.02-.08-.02-.45-.12-.83-.27-.83-.27-1.4-.44-3.36.31-3.36.31-.03.01-.04.02-.04.02.15,0,.42.05.61.03.68-.03,1.37.53,2.19.44.03-.02.05-.02.08-.02.19-.03.37,0,.58.05.25.05.51.15.75.24.41.13.87.24,1.34.2s.02,0,.03,0h.03c.47.03.93-.07,1.34-.2.24-.08.49-.19.75-.24.2-.05.39-.08.58-.05.04,0,.05,0,.08.02.82.09,1.51-.48,2.19-.44.19.02.46-.03.61-.03,0,0-.02,0-.04-.02h0Z"/>
    <path class="st22" d="M36.55,51.93s3.68,1.11,6.53.03l-.33-.22h-3.85l-2.35.2h0Z"/>
    <path class="st10" d="M57.34,75.4h-3.05c0,1.11.03,2.08.06,2.88.03.7.06,1.27.09,1.72h-28.62c.03-.44.06-1.02.08-1.72.03-.8.05-1.77.05-2.88h-3.08c0-.11,0-.22,0-.33.03-.66.16-1.4.34-2.15.27-1.11.65-2.25,1.02-3.21.36-.96.7-1.74.89-2.15.08-.19.13-.3.13-.3.23-.31.47-.6.71-.87.62-.72,1.28-1.3,1.92-1.77.07-.08.16-.13.24-.18.04-.03.08-.06.12-.08.17-.12.33-.23.5-.34.93-.59,1.81-.96,2.5-1.19.16-.06.31-.1.46-.14.64-.18,1.04-.23,1.04-.23.34,0,.64-.13.9-.34,0,0,0-.01.01-.01.09-.08.18-.18.27-.29.03.03.1.12.16.3.12.3.55,1.21,1.19,2.24.72,1.15,1.71,2.44,2.87,3.21.61.4,1.28.65,1.97.65s1.36-.25,1.97-.65c.76-.5,1.45-1.23,2.03-1.99.31-.41.59-.82.84-1.21.64-1.03,1.07-1.93,1.19-2.24.06-.18.13-.27.17-.3.08.1.17.2.26.29.01,0,.01.01.01.01.26.21.57.34.9.34,0,0,.38.04.99.2.13.05.28.09.45.15.82.27,1.92.73,3.07,1.54.03.02.06.04.09.06.08.06.17.11.23.19.9.66,1.82,1.52,2.65,2.66,0,0,.07.1.2.3.23.38.66,1.14,1.07,2.15.36.89.71,1.98.91,3.21.11.68.18,1.4.18,2.15,0,.11,0,.22,0,.33h0Z"/>
    <path class="st25" d="M57.16,72.92H23.23c.27-1.11.65-2.25,1.02-3.21h32c.36.89.71,1.98.91,3.21h0ZM57.34,75.4h-3.05c0,1.11.03,2.08.06,2.88h-28.44c.03-.8.05-1.77.05-2.88h-3.08c0-.11,0-.22,0-.33h34.45c0,.11,0,.22,0,.33M38.16,67.57h-13.02c.08-.19.13-.3.13-.3.23-.31.47-.6.71-.87.62-.72,1.28-1.3,1.92-1.77.07-.08.16-.13.24-.18.04-.03.08-.06.12-.08h7.03c.72,1.15,1.71,2.44,2.87,3.21M55.19,67.57h-13.08c.76-.5,1.45-1.23,2.03-1.99.31-.41.59-.82.84-1.21h7.04s.06.04.09.06c.08.06.17.11.23.19.9.66,1.82,1.52,2.65,2.66,0,0,.07.1.2.3"/>
    <path class="st8" d="M51.95,69.03c.35-.73.63-1.42.27-1.74-.41-.34-1.17.2-1.93.73-.31-1.06-.34-2.74-1.08-2.79-.81-.05-1.05,1.98-1.6,2.91-.79-.71-1.63-1.68-2.17-1.34-.41.25-.22.98.02,1.76-.9-.11-1.81-.23-2,.26-.27.67,1.2,1.42,2.03,2.15-.82.7-2.82,1.29-2.62,2.07.16.63,1.47.51,2.54.55-.35.74-.66,1.46-.28,1.77.41.34,1.16-.19,1.9-.72.3,1.06.33,2.71,1.05,2.76.82.06,1.07-2.03,1.64-2.93.79.7,1.66,1.69,2.2,1.35.4-.25.23-.96-.01-1.72.88.12,1.76.23,1.95-.25.28-.68-1.22-1.44-2.04-2.19.8-.71,2.84-1.32,2.64-2.11-.16-.61-1.43-.5-2.49-.52"/>
    <path class="st16" d="M50.36,71.32c0,.94-.77,1.71-1.72,1.71s-1.72-.77-1.72-1.71.77-1.7,1.72-1.7,1.72.76,1.72,1.7"/>
    <path class="st24" d="M57.49,31.8c0,.69-.08,1.81-.2,2.68-.07.55-.16.99-.24,1.18-.1.21-.8,2.2-.86,2.97-.33.33-.7.75-.96,1.45-.52,1.4-.73,1.16-.73,1.16,0,0,.17-1.11.35-2.46.11-1.14.26-2.84.39-4.29.01-.2.03-.41.04-.6-.23-1.18-2.38-6.81-12.62-6.28-1.65.08-3.32-.55-4.61-1.23-1.34-.69-2.28-1.42-2.36-1.42-.45,0-4.55-.78-6.95,1.06-.16.11-.3.24-.43.36-2.86,2.54-3.25,6.96-3.25,7.84,0,.08,0,.17.01.27.08,1.82-.12,6.78-.12,6.78,0,0-.91.36-1.44-1.04-.3-.82.88-1.42.51-1.76-.57-1.24-.89-1.62-1.18-2.8-.08-.33-.32-.64-.57-1.18-.55-1.11-1.17-3.15-.51-8.11.03-.23.07-.45.1-.69.5-3.39,3.01-11,9.62-12.35,6.61-1.36,8.15-2.95,13.56-.68,5.4,2.26,8.82,3.85,10.48,7.59.75,1.71,1.23,4.01,1.52,6.13.36,2.54.46,4.81.46,5.43"/>
    <path class="st10" d="M25.4,40.97c.54,4.55.93,8.08-1.29,8.29-2.21.22-4.45-3.29-4.99-7.84s.82-8.41,3.03-8.63c2.21-.22,2.7,3.63,3.24,8.18h0Z"/>
    <path class="st24" d="M23.58,41.2c.5,4.19.86,7.43-1.18,7.64s-4.1-3.03-4.59-7.22c-.49-4.19.75-7.75,2.79-7.95,2.04-.2,2.49,3.34,2.98,7.53h0Z"/>
    <path class="st10" d="M53.55,40.97c-.54,4.55-.93,8.08,1.29,8.29,2.21.22,4.45-3.29,4.99-7.84s-.82-8.41-3.03-8.63c-2.21-.22-2.7,3.63-3.24,8.18h0Z"/>
    <path class="st8" d="M55.35,14.37c-3.45-3.64-8.78-5.48-15.9-5.45-7.11-.02-12.45,1.81-15.9,5.45-4.15,4.39-5.2,11.06-3.03,19.26l1.32-.26c-2.04-7.74-1.06-14.21,2.76-18.25,3.18-3.36,8.18-5.05,14.85-5.03,6.66-.02,11.67,1.67,14.85,5.03,3.81,4.04,4.79,10.52,2.76,18.25l1.32.26c2.17-8.21,1.13-14.87-3.03-19.26"/>
    <path class="st24" d="M55.37,41.2c-.5,4.19-.86,7.43,1.18,7.64s4.1-3.03,4.59-7.22c.49-4.19-.75-7.75-2.79-7.95-2.04-.2-2.49,3.34-2.98,7.53h0Z"/>
    <path class="st8" d="M57.61,35.88c-.04-.34-.29-.62-.62-.71-5.19-1.36-10.99-.91-12.18-.79-.14.01-.27.04-.41.07-1.17.29-2.16.5-2.96.64-1.17.21-2.37.21-3.54,0-.78-.14-1.75-.34-2.9-.63-.13-.03-.27-.06-.41-.07-1.19-.11-6.99-.57-12.18.79-.34.09-.58.37-.62.71-.07.49-.12,1.24.02,2.04.04.23.18.43.38.56.34.23.87.74,1,1.86,0,0,.49,2.29.89,2.74,0,0,1.05,1.55,5.6,1.43,0,0,6.7.31,7.48-1.94l.21-.58.96-2.42s.31-1.16,1.25-1.42c.08-.03.17-.03.26,0h.01c.94.26,1.25,1.42,1.25,1.42l.96,2.42c.08.19.14.39.2.58.79,2.24,7.48,1.94,7.48,1.94,4.55.12,5.6-1.43,5.6-1.43.4-.46.89-2.74.89-2.74.12-1.12.66-1.64,1-1.86.2-.13.34-.33.38-.56.13-.8.08-1.55.01-2.04h0ZM36.96,41.06c-.21.47-.48.96-.82,1.42-.33.45-.81.78-1.36.94-1.45.41-4.73,1.06-8.88.1-.07-.01-.13-.03-.19-.06-.36-.13-1.49-.63-1.71-1.65,0,0-.06-.32-.13-.81-.12-.88-.28-2.31-.17-3.5.1-1.11.95-2.01,2.06-2.21,1.43-.24,4.12-.48,8.53-.03.03,0,.07,0,.1,0,.4.01,3.44.19,3.4,2.05,0,0,.05,1.79-.82,3.74h0ZM55.46,41.44c-.04.24-.07.38-.07.38-.21.94-1.19,1.44-1.62,1.61-.11.04-.22.08-.33.1-3.85.88-6.94.38-8.51-.03-.79-.2-1.48-.7-1.92-1.38-.3-.46-.53-.93-.72-1.39-.73-1.81-.68-3.41-.68-3.41-.04-1.84,2.94-2.03,3.39-2.05.04,0,.09,0,.13-.01,3.79-.38,6.31-.26,7.85-.06,1.56.2,2.74,1.52,2.75,3.08.01,1.23-.17,2.53-.27,3.16h0Z"/>
    <g class="st21">
      <path class="st18" d="M36.96,41.06c-.21.47-.48.96-.82,1.42-.33.45-.81.78-1.36.94-1.45.41-4.73,1.06-8.88.1-.07-.01-.13-.03-.19-.06-.36-.13-1.49-.63-1.71-1.65,0,0-.06-.32-.13-.81-.12-.88-.28-2.31-.17-3.5.1-1.11.95-2.01,2.06-2.21,1.43-.24,4.12-.48,8.53-.03.03,0,.07,0,.1,0,.4.01,3.44.19,3.4,2.05,0,0,.05,1.79-.82,3.74h0Z"/>
      <path class="st19" d="M55.73,38.28c.01,1.23-.17,2.53-.27,3.16-.04.24-.07.38-.07.38-.21.94-1.19,1.44-1.62,1.61-.11.04-.22.08-.33.1-3.85.88-6.94.38-8.51-.03-.79-.2-1.48-.7-1.92-1.38-.3-.46-.53-.93-.72-1.39-.73-1.81-.68-3.41-.68-3.41-.04-1.84,2.94-2.03,3.39-2.05.04,0,.09,0,.13-.01,3.79-.38,6.31-.26,7.85-.06,1.56.2,2.74,1.52,2.75,3.08h0Z"/>
      <path class="st1" d="M36.96,41.06c-.21.47-.48.96-.82,1.42-.33.45-.81.78-1.36.94-1.45.41-4.73,1.06-8.88.1-.07-.01-.13-.03-.19-.06-.36-.13-1.49-.63-1.71-1.65,0,0-.06-.32-.13-.81,1.74-.69,4-1.1,6.48-1.1s4.86.44,6.62,1.16h0Z"/>
      <path class="st20" d="M55.46,41.44c-.04.24-.07.38-.07.38-.21.94-1.19,1.44-1.62,1.61-.11.04-.22.08-.33.1-3.85.88-6.94.38-8.51-.03-.79-.2-1.48-.7-1.92-1.38-.3-.46-.53-.93-.72-1.39,1.62-.52,3.59-.83,5.73-.83,2.96,0,5.62.59,7.44,1.54h0Z"/>
    </g>
  </g>
</svg>