<?xml version="1.0" encoding="UTF-8"?>
<svg id="Layer_2" xmlns="http://www.w3.org/2000/svg" version="1.1" xmlns:xlink="http://www.w3.org/1999/xlink" viewBox="0 0 80 80">
  <!-- Generator: Adobe Illustrator 30.2.1, SVG Export Plug-In . SVG Version: 2.1.1 Build 1)  -->
  <defs>
    <style>
      .st0 {
        fill: #b8987d;
      }

      .st1 {
        fill: #914467;
      }

      .st2 {
        fill: #785151;
      }

      .st3 {
        fill: #714223;
      }

      .st4 {
        fill: #fff;
      }

      .st5 {
        fill: #272213;
      }

      .st6 {
        fill: #692646;
      }

      .st7 {
        fill: #e9be00;
      }

      .st8 {
        fill: none;
      }

      .st9 {
        fill: #b15d80;
      }

      .st10 {
        fill: #644645;
      }

      .st11 {
        fill: #44361f;
      }

      .st12 {
        fill: #523a38;
      }

      .st13 {
        fill: #462e1b;
      }

      .st14 {
        clip-path: url(#clippath);
      }

      .st15 {
        fill: #8b5b5a;
      }
    </style>
    <clipPath id="clippath">
      <rect class="st8" x="35.76" y="55.52" width="8.99" height="5.3"/>
    </clipPath>
  </defs>
  <g id="Layer_1-2">
    <path class="st9" d="M0,0h80v80H0V0Z"/>
    <path class="st2" d="M40.22,50.08v29.83h-16.23c-.27-.1-.4-.16-.4-.16,0-1.87.13-3.55.38-5.03.12-.76.27-1.47.44-2.14.18-.69.37-1.32.59-1.92.29-.79.62-1.51.97-2.15,1.12-2.06,2.48-3.42,3.73-4.31.64-.45,1.26-.78,1.8-1.03.41-.19.78-.32,1.08-.41.35-.1.62-.16.77-.19.1-.02.15-.02.15-.02.06,0,.12,0,.18-.01.51-.08.92-.53,1.26-1.23.25-.52.45-1.19.62-1.97.06-.3.12-.6.17-.93.08-.55.16-1.13.23-1.74.03-.37.06-.73.1-1.11.14-1.82.19-3.83.19-5.72,0,0,2.18.23,3.95.23h0Z"/>
    <path class="st15" d="M56.91,79.75s-.15.05-.38.16h-16.31v-29.83h.04c1.76,0,3.97-.23,3.97-.23,0,1.88.04,3.85.18,5.67.04.36.08.73.1,1.08.07.63.15,1.22.24,1.77h0c.02.26.08.49.11.72.16.78.36,1.46.59,2.01.29.68.64,1.15,1.07,1.35.14.06.29.09.43.09,0,0,.09.01.27.05.27.05.73.16,1.3.39.16.06.34.14.52.22.48.22,1.02.52,1.58.89,1.3.89,2.72,2.27,3.89,4.42.35.64.68,1.36.97,2.15.22.59.42,1.23.59,1.92.18.68.33,1.41.45,2.18.24,1.48.37,3.13.37,4.99h0Z"/>
    <g class="st14">
      <path class="st12" d="M44.75,58.36h0c-.41.64-1.78,2.45-4.5,2.45h-.03c-2.58-.01-4.08-1.87-4.46-2.43.08-.55.16-1.13.23-1.73.03-.35.06-.72.1-1.1,1.25.31,2.63.51,4.08.54h.05c1.5-.03,2.89-.24,4.19-.58.04.35.08.72.1,1.07.06.63.15,1.22.24,1.77"/>
    </g>
    <path class="st10" d="M40.04,15.93c-17.19,0-17.29,14.35-16.52,23.75-1.17-2.23-4.67-1.55-4.38,1.97.28,3.38,5.28,5.11,5.14,4.73,2.6,6.95,9.5,12.19,15.77,12.19h.13V15.93h-.13Z"/>
    <path class="st2" d="M40.13,15.93c17.19,0,17.29,14.35,16.53,23.75,1.17-2.23,4.66-1.55,4.37,1.97-.27,3.38-5.27,5.11-5.14,4.73-2.54,6.95-9.5,12.19-15.77,12.19h-.09l-.04-42.64h.13"/>
    <path class="st2" d="M39.9,19.98c-5.65,0-9.8,1.64-12.29,4.86-3.5,4.52-3.37,11.42-2.08,16.37.4,1.52.61,5.6.87,7.09,1.23,6.7,8.64,10.26,13.51,10.26h.13V19.98h-.08"/>
    <path class="st15" d="M52.18,24.86c-2.48-3.21-6.58-4.85-12.15-4.88v38.59c5.57-.06,12.24-3.97,13.38-10.26.28-1.5.48-5.57.87-7.09,1.29-4.94,1.43-11.82-2.1-16.36"/>
    <path class="st11" d="M35.23,20.08l-.07.07v.03s.05-.07.07-.1"/>
    <path class="st4" d="M27.7,35.04s1.31,5.37,3.56,5.81,4.69-.43,4.69-.43c0,0,.23-6.31-.92-7.14-1.15-.83-3.81-2.03-7.33,1.76M52.5,34.86s-1.31,5.37-3.56,5.81-4.69-.43-4.69-.43c0,0-.23-6.31.92-7.14,1.15-.83,3.81-2.03,7.33,1.76"/>
    <path class="st12" d="M20.23,40.16c.85-1.36,2.17-.77,2.48-.47.34.33.62.75.41,1.55-.12.46-.59.5-.49,1.18.13.77.49.81.7.99.2.17.45.3.57.63.13.33.15.67.08.97-.13.55-.94.1-1.48-.13-.36-.17-1.49-1.13-1.78-1.44-.71-.81-1.06-2.39-.49-3.28M59.94,40.16c-.85-1.36-2.15-.77-2.48-.47-.34.33-.61.75-.41,1.55.12.46.59.5.49,1.18-.13.77-.49.81-.69.99-.2.17-.46.3-.58.63s-.15.67-.08.97c.13.55.94.1,1.48-.13.37-.17,1.49-1.13,1.78-1.44.73-.81,1.06-2.39.49-3.28"/>
    <path class="st8" d="M24.62,32.01c-.15.51-.26,1.07-.33,1.67,0,0,.23-.94.73-2.33-.21.3-.36.54-.39.67"/>
    <path class="st12" d="M35.96,40.4s-.05.01-.17.06c-.03-1.94-.21-4.6-.93-5.11-1.07-.78-3.49-1.89-6.72,1.13-.29-.83-.44-1.46-.44-1.46,3.53-3.8,6.19-2.6,7.33-1.77,1.15.83.92,7.15.92,7.15h0Z"/>
    <circle class="st13" cx="32.41" cy="37.67" r="2.22"/>
    <path class="st3" d="M32.3,39.14c-.64-.05-1.13-.7-1.07-1.41s.65-1.26,1.29-1.21,1.13.7,1.07,1.41-.65,1.27-1.29,1.21h0Z"/>
    <path class="st5" d="M32.36,38.89c-.44-.04-.91-.53-.86-1.13.05-.6.58-1.01,1.03-.97.44.04.91.53.86,1.13s-.58,1.01-1.03.97h0Z"/>
    <path class="st12" d="M44.24,40.22s.05.01.17.06c.03-1.94.21-4.6.93-5.11,1.07-.78,3.49-1.89,6.72,1.13.29-.83.44-1.46.44-1.46-3.53-3.8-6.19-2.6-7.33-1.77-1.15.83-.92,7.15-.92,7.15h0Z"/>
    <path class="st13" d="M45.58,37.48c0,1.22.99,2.21,2.22,2.21s2.22-.99,2.22-2.21-.99-2.21-2.22-2.21-2.22.99-2.22,2.21"/>
    <path class="st3" d="M47.9,38.96c.64-.05,1.13-.7,1.07-1.41s-.65-1.26-1.29-1.21-1.13.7-1.07,1.41.65,1.27,1.29,1.21h0Z"/>
    <path class="st5" d="M47.84,38.7c.44-.04.91-.53.86-1.13-.05-.6-.58-1.01-1.03-.97-.44.04-.91.53-.86,1.13s.58,1.01,1.03.97h0Z"/>
    <path d="M37.3,34.96s-.43-.65-1.26-1.29c-.52-.4-1.04-.7-1.57-.93-.65-.27-1.34-.47-2.02-.55-.61-.07-1.29-.05-2.07.06-.6.11-1.19.29-1.69.51-.35.12-.64.29-.86.43-.09.05-.16.1-.24.14l-1.07.68,1.24-.29c.06-.01.12-.03.19-.05.26-.07.58-.15.95-.21.09-.01.18-.03.27-.05.16-.03.32-.06.49-.07.19-.01.38-.03.58-.04l.26-.02c.69,0,1.27.04,1.78.16.56.1,1.14.28,1.67.52.5.24.98.48,1.36.75.76.5,1.18.93,1.18.93.1.1.24.16.38.16.1,0,.2-.03.29-.09.25-.16.32-.5.16-.74v-.02s-.02,0-.02,0ZM52.72,33.32c-.07-.04-.15-.09-.24-.14-.23-.14-.51-.31-.85-.43-.51-.23-1.1-.4-1.71-.52-.78-.1-1.46-.12-2.07-.05-.67.09-1.37.28-2.02.55-.52.23-1.05.54-1.57.93-.82.63-1.23,1.24-1.26,1.28h0c-.14.22-.11.51.07.69.1.1.24.16.38.16s.28-.06.38-.16h0s.45-.44,1.18-.93c.37-.27.85-.51,1.35-.75.53-.25,1.11-.43,1.68-.53.51-.12,1.09-.17,1.77-.16l.27.02c.2.01.39.03.58.04.16,0,.33.04.48.07.09.02.18.04.27.05.38.05.69.14.95.21.07.02.13.04.19.05l1.24.29-1.09-.68h0Z"/>
    <path class="st4" d="M32,37.4c-.02.22-.24.38-.5.35-.26-.02-.45-.21-.43-.43s.24-.38.5-.36c.26.02.45.21.43.43h0ZM33.43,38.66c-.01.11-.12.19-.25.18-.13-.01-.23-.11-.22-.21.01-.11.12-.19.25-.18.13.01.23.11.22.21M48.2,37.22c.02.22.24.38.5.35.26-.02.45-.21.43-.43s-.24-.38-.5-.36c-.26.02-.45.21-.43.43h0ZM46.77,38.48c.01.11.12.19.25.18.13-.01.23-.11.22-.21-.01-.11-.12-.19-.25-.18-.13.01-.23.11-.22.21h0Z"/>
    <path class="st6" d="M54.52,68.51h-28.53c1.12-2.06,2.48-3.42,3.73-4.31.64-.45,1.26-.78,1.8-1.03.41-.19.78-.32,1.08-.41.35-.1.62-.16.77-.19,1.33,1.67,3.73,4,6.85,3.97,2.06-.02,4.43-1.05,7.01-3.95.27.05.73.16,1.3.39.16.06.34.14.52.22.48.22,1.02.52,1.58.89,1.3.89,2.72,2.27,3.89,4.42h0ZM25.83,79.91h29.04c-.07-1.04-.14-2.75-.15-5h-28.73c-.01,2.25-.09,3.95-.15,5h0Z"/>
    <path class="st1" d="M56.09,72.58h-1.36c-.01.54-.01,1.07-.01,1.56v.77h-28.73v-.77c0-.49,0-1.02-.01-1.56h-1.55c.18-.69.37-1.32.59-1.92.29-.79.62-1.51.97-2.15h28.53c.35.64.68,1.36.97,2.15.22.59.42,1.23.59,1.92"/>
    <path class="st12" d="M36.67,46.67c-.07-1.37,2.52-.5,3.37-.46.67.04,2.72-.43,2.9-.31,1.21.81-1.28,2.45-2.94,2.45-.44,0-3.29-.85-3.33-1.68"/>
    <path class="st8" d="M38.64,53.09c-.08-.01-.15-.03-.21-.04.08.01.14.03.21.04"/>
    <path class="st0" d="M38.42,53.05s-.05-.01-.08-.02c.03,0,.05.01.08.02"/>
    <path class="st15" d="M36.83,53.33c-.06-.86,2.41.18,3.22.21.65.02,2.6-.13,2.78-.2,1.36-.51-.08,1.45-2.82,1.55-1.26.05-3.14-1.03-3.18-1.56h0Z"/>
    <path class="st2" d="M44.89,51.66c-.67-.03-1.36.53-2.17.44-.03-.02-.05-.02-.08-.02-.19-.03-.37,0-.57.05-.25.05-.51.15-.74.24-.4.13-.86.24-1.33.2s-.02,0-.03,0h-.03c-.47.03-.92-.07-1.33-.2-.24-.08-.49-.18-.74-.24-.2-.05-.39-.08-.57-.05-.04,0-.05,0-.08.02-.81.09-1.5-.47-2.17-.44-.19.02-.45-.03-.61-.03.03.02.07.03.1.05,1.92.93,3.57,2.68,5.4,2.62h.05c1.83.06,3.48-1.69,5.4-2.62.04-.02.07-.03.1-.05-.15,0-.42.05-.61.03h0Z"/>
    <path class="st12" d="M45.45,51.61s-1.95-.75-3.33-.31c0,0-.52.2-1.05.32-.33.13-.72.16-1.1.15-.29-.01-.57-.05-.8-.09-.08-.01-.15-.03-.23-.04-.03,0-.06-.01-.09-.02l-.14-.03c-.05-.01-.08-.02-.08-.02-.44-.12-.82-.27-.82-.27-1.39-.44-3.33.31-3.33.31-.03.01-.04.02-.04.02.15,0,.42.05.61.03.54-.03,1.1.33,1.72.42.25.07,1.18.31,2.37.43.26.05.53.08.8.06s.02,0,.03,0h.03c.14,0,.29,0,.43-.01.91-.01,1.87-.14,2.75-.48h0c.62-.1,1.18-.45,1.72-.43.19.02.45-.03.61-.03,0,0-.02,0-.04-.02h0Z"/>
    <path class="st7" d="M66,15.09s-1.32,1.94-5.88.43c-4.45-1.47-4.34-6.26-10.73-8.94-3.27-1.37-5.23-1.19-6.36-.69,1.15-.94,3.5-.86,3.5-.86,0,0-2.91-1.6-7.41-.16-3.16,1.01-5.05,2.16-6.11,2.98l1.77-1.69s-6.4,2.27-10.75,6.95c-4.35,4.68-6.02,9.08-6.02,14.03s1.95,9.9,3.23,11.37c1.28,1.47.87,3.61,1.25,3.61,0,0,.77.03.8-3.7.09-1.26.49-3.28,2.12-2.68.09.04.18.08.26.11.01,0,.03.01.05.02,8.19,3.27,12.37-5.02,12.37-5.02,0,0,2.5-5.32,5.3-7.26.82-.58,1.91-1.01,3.21-1.42,7.46-2.32,10.55,9.58,9.93,12.72-.96,4.84.38,7.62.89,7.49,0,0,.02-1.23.48-2.32,1.38-3.26,2.53-.99,2.74-5.42.25-5.18,1.05-7.07.8-9.84-.25-2.7-1.57-6.33-1.57-6.34,0,0,.06.01.63.01,3.51,0,5.49-3.4,5.49-3.4h.01Z"/>
  </g>
</svg>